<?xml version="1.0" encoding="UTF-8" standalone="no"?>
<!DOCTYPE svg PUBLIC "-//W3C//DTD SVG 1.1//EN"
 "http://www.w3.org/Graphics/SVG/1.1/DTD/svg11.dtd">
<!-- Generated by graphviz version 2.43.0 (0)
 -->
<!-- Title: Tree Pages: 1 -->
<svg width="1997pt" height="627pt"
 viewBox="0.00 0.00 1997.00 627.00" xmlns="http://www.w3.org/2000/svg" xmlns:xlink="http://www.w3.org/1999/xlink">
<g id="graph0" class="graph" transform="scale(1 1) rotate(0) translate(4 623)">
<title>Tree</title>
<polygon fill="white" stroke="transparent" points="-4,4 -4,-623 1993,-623 1993,4 -4,4"/>
<!-- 0 -->
<g id="node1" class="node">
<title>0</title>
<polygon fill="none" stroke="black" points="921.5,-619 730.5,-619 730.5,-521 921.5,-521 921.5,-619"/>
<text text-anchor="middle" x="826" y="-603.8" font-family="Times,serif" font-size="14.00">node #0</text>
<text text-anchor="middle" x="826" y="-588.8" font-family="Times,serif" font-size="14.00">FEFPrePercent &lt;= 27.5</text>
<text text-anchor="middle" x="826" y="-573.8" font-family="Times,serif" font-size="14.00">gini = 0.5</text>
<text text-anchor="middle" x="826" y="-558.8" font-family="Times,serif" font-size="14.00">samples = 211</text>
<text text-anchor="middle" x="826" y="-543.8" font-family="Times,serif" font-size="14.00">value = [167.0, 167.0]</text>
<text text-anchor="middle" x="826" y="-528.8" font-family="Times,serif" font-size="14.00">class = Non&#45;obstructive</text>
</g>
<!-- 1 -->
<g id="node2" class="node">
<title>1</title>
<polygon fill="none" stroke="black" points="800.5,-485 615.5,-485 615.5,-387 800.5,-387 800.5,-485"/>
<text text-anchor="middle" x="708" y="-469.8" font-family="Times,serif" font-size="14.00">node #1</text>
<text text-anchor="middle" x="708" y="-454.8" font-family="Times,serif" font-size="14.00">FEV1PreVal &lt;= 1.145</text>
<text text-anchor="middle" x="708" y="-439.8" font-family="Times,serif" font-size="14.00">gini = 0.102</text>
<text text-anchor="middle" x="708" y="-424.8" font-family="Times,serif" font-size="14.00">samples = 57</text>
<text text-anchor="middle" x="708" y="-409.8" font-family="Times,serif" font-size="14.00">value = [5.091, 89.394]</text>
<text text-anchor="middle" x="708" y="-394.8" font-family="Times,serif" font-size="14.00">class = Obstructive</text>
</g>
<!-- 0&#45;&gt;1 -->
<g id="edge1" class="edge">
<title>0&#45;&gt;1</title>
<path fill="none" stroke="black" d="M783.07,-520.97C774.85,-511.78 766.18,-502.09 757.78,-492.68"/>
<polygon fill="black" stroke="black" points="760.37,-490.34 751.1,-485.21 755.16,-495 760.37,-490.34"/>
<text text-anchor="middle" x="749.7" y="-506.47" font-family="Times,serif" font-size="14.00">True</text>
</g>
<!-- 8 -->
<g id="node9" class="node">
<title>8</title>
<polygon fill="none" stroke="black" points="1028.5,-485 825.5,-485 825.5,-387 1028.5,-387 1028.5,-485"/>
<text text-anchor="middle" x="927" y="-469.8" font-family="Times,serif" font-size="14.00">node #8</text>
<text text-anchor="middle" x="927" y="-454.8" font-family="Times,serif" font-size="14.00">FVCPrePercent &lt;= 73.5</text>
<text text-anchor="middle" x="927" y="-439.8" font-family="Times,serif" font-size="14.00">gini = 0.438</text>
<text text-anchor="middle" x="927" y="-424.8" font-family="Times,serif" font-size="14.00">samples = 154</text>
<text text-anchor="middle" x="927" y="-409.8" font-family="Times,serif" font-size="14.00">value = [161.909, 77.606]</text>
<text text-anchor="middle" x="927" y="-394.8" font-family="Times,serif" font-size="14.00">class = Non&#45;obstructive</text>
</g>
<!-- 0&#45;&gt;8 -->
<g id="edge8" class="edge">
<title>0&#45;&gt;8</title>
<path fill="none" stroke="black" d="M862.75,-520.97C869.64,-511.96 876.9,-502.47 883.97,-493.24"/>
<polygon fill="black" stroke="black" points="886.81,-495.28 890.11,-485.21 881.25,-491.03 886.81,-495.28"/>
<text text-anchor="middle" x="893.41" y="-506.3" font-family="Times,serif" font-size="14.00">False</text>
</g>
<!-- 2 -->
<g id="node3" class="node">
<title>2</title>
<polygon fill="none" stroke="black" points="605,-351 399,-351 399,-253 605,-253 605,-351"/>
<text text-anchor="middle" x="502" y="-335.8" font-family="Times,serif" font-size="14.00">node #2</text>
<text text-anchor="middle" x="502" y="-320.8" font-family="Times,serif" font-size="14.00">FEV1PostPercent &lt;= 60.0</text>
<text text-anchor="middle" x="502" y="-305.8" font-family="Times,serif" font-size="14.00">gini = 0.153</text>
<text text-anchor="middle" x="502" y="-290.8" font-family="Times,serif" font-size="14.00">samples = 36</text>
<text text-anchor="middle" x="502" y="-275.8" font-family="Times,serif" font-size="14.00">value = [5.091, 55.994]</text>
<text text-anchor="middle" x="502" y="-260.8" font-family="Times,serif" font-size="14.00">class = Obstructive</text>
</g>
<!-- 1&#45;&gt;2 -->
<g id="edge2" class="edge">
<title>1&#45;&gt;2</title>
<path fill="none" stroke="black" d="M633.05,-386.97C617.71,-377.14 601.48,-366.74 585.85,-356.73"/>
<polygon fill="black" stroke="black" points="587.55,-353.66 577.24,-351.21 583.77,-359.56 587.55,-353.66"/>
</g>
<!-- 7 -->
<g id="node8" class="node">
<title>7</title>
<polygon fill="none" stroke="black" points="786.5,-343.5 629.5,-343.5 629.5,-260.5 786.5,-260.5 786.5,-343.5"/>
<text text-anchor="middle" x="708" y="-328.3" font-family="Times,serif" font-size="14.00">node #7</text>
<text text-anchor="middle" x="708" y="-313.3" font-family="Times,serif" font-size="14.00">gini = 0.0</text>
<text text-anchor="middle" x="708" y="-298.3" font-family="Times,serif" font-size="14.00">samples = 21</text>
<text text-anchor="middle" x="708" y="-283.3" font-family="Times,serif" font-size="14.00">value = [0.0, 33.4]</text>
<text text-anchor="middle" x="708" y="-268.3" font-family="Times,serif" font-size="14.00">class = Obstructive</text>
</g>
<!-- 1&#45;&gt;7 -->
<g id="edge7" class="edge">
<title>1&#45;&gt;7</title>
<path fill="none" stroke="black" d="M708,-386.97C708,-376.25 708,-364.84 708,-353.99"/>
<polygon fill="black" stroke="black" points="711.5,-353.82 708,-343.82 704.5,-353.82 711.5,-353.82"/>
</g>
<!-- 3 -->
<g id="node4" class="node">
<title>3</title>
<polygon fill="none" stroke="black" points="389.5,-217 204.5,-217 204.5,-119 389.5,-119 389.5,-217"/>
<text text-anchor="middle" x="297" y="-201.8" font-family="Times,serif" font-size="14.00">node #3</text>
<text text-anchor="middle" x="297" y="-186.8" font-family="Times,serif" font-size="14.00">FVCPreVal &lt;= 1.11</text>
<text text-anchor="middle" x="297" y="-171.8" font-family="Times,serif" font-size="14.00">gini = 0.098</text>
<text text-anchor="middle" x="297" y="-156.8" font-family="Times,serif" font-size="14.00">samples = 35</text>
<text text-anchor="middle" x="297" y="-141.8" font-family="Times,serif" font-size="14.00">value = [3.055, 55.994]</text>
<text text-anchor="middle" x="297" y="-126.8" font-family="Times,serif" font-size="14.00">class = Obstructive</text>
</g>
<!-- 2&#45;&gt;3 -->
<g id="edge3" class="edge">
<title>2&#45;&gt;3</title>
<path fill="none" stroke="black" d="M427.41,-252.97C412.15,-243.14 395.99,-232.74 380.44,-222.73"/>
<polygon fill="black" stroke="black" points="382.18,-219.68 371.88,-217.21 378.39,-225.57 382.18,-219.68"/>
</g>
<!-- 6 -->
<g id="node7" class="node">
<title>6</title>
<polygon fill="none" stroke="black" points="596,-209.5 408,-209.5 408,-126.5 596,-126.5 596,-209.5"/>
<text text-anchor="middle" x="502" y="-194.3" font-family="Times,serif" font-size="14.00">node #6</text>
<text text-anchor="middle" x="502" y="-179.3" font-family="Times,serif" font-size="14.00">gini = 0.0</text>
<text text-anchor="middle" x="502" y="-164.3" font-family="Times,serif" font-size="14.00">samples = 1</text>
<text text-anchor="middle" x="502" y="-149.3" font-family="Times,serif" font-size="14.00">value = [2.037, 0.0]</text>
<text text-anchor="middle" x="502" y="-134.3" font-family="Times,serif" font-size="14.00">class = Non&#45;obstructive</text>
</g>
<!-- 2&#45;&gt;6 -->
<g id="edge6" class="edge">
<title>2&#45;&gt;6</title>
<path fill="none" stroke="black" d="M502,-252.97C502,-242.25 502,-230.84 502,-219.99"/>
<polygon fill="black" stroke="black" points="505.5,-219.82 502,-209.82 498.5,-219.82 505.5,-219.82"/>
</g>
<!-- 4 -->
<g id="node5" class="node">
<title>4</title>
<polygon fill="none" stroke="black" points="188,-83 0,-83 0,0 188,0 188,-83"/>
<text text-anchor="middle" x="94" y="-67.8" font-family="Times,serif" font-size="14.00">node #4</text>
<text text-anchor="middle" x="94" y="-52.8" font-family="Times,serif" font-size="14.00">gini = 0.0</text>
<text text-anchor="middle" x="94" y="-37.8" font-family="Times,serif" font-size="14.00">samples = 1</text>
<text text-anchor="middle" x="94" y="-22.8" font-family="Times,serif" font-size="14.00">value = [1.018, 0.0]</text>
<text text-anchor="middle" x="94" y="-7.8" font-family="Times,serif" font-size="14.00">class = Non&#45;obstructive</text>
</g>
<!-- 3&#45;&gt;4 -->
<g id="edge4" class="edge">
<title>3&#45;&gt;4</title>
<path fill="none" stroke="black" d="M218.51,-118.87C202.23,-108.88 185.11,-98.38 168.95,-88.47"/>
<polygon fill="black" stroke="black" points="170.44,-85.28 160.09,-83.03 166.78,-91.24 170.44,-85.28"/>
</g>
<!-- 5 -->
<g id="node6" class="node">
<title>5</title>
<polygon fill="none" stroke="black" points="391.5,-83 206.5,-83 206.5,0 391.5,0 391.5,-83"/>
<text text-anchor="middle" x="299" y="-67.8" font-family="Times,serif" font-size="14.00">node #5</text>
<text text-anchor="middle" x="299" y="-52.8" font-family="Times,serif" font-size="14.00">gini = 0.068</text>
<text text-anchor="middle" x="299" y="-37.8" font-family="Times,serif" font-size="14.00">samples = 34</text>
<text text-anchor="middle" x="299" y="-22.8" font-family="Times,serif" font-size="14.00">value = [2.037, 55.994]</text>
<text text-anchor="middle" x="299" y="-7.8" font-family="Times,serif" font-size="14.00">class = Obstructive</text>
</g>
<!-- 3&#45;&gt;5 -->
<g id="edge5" class="edge">
<title>3&#45;&gt;5</title>
<path fill="none" stroke="black" d="M297.77,-118.87C297.91,-110.5 298.05,-101.77 298.18,-93.33"/>
<polygon fill="black" stroke="black" points="301.68,-93.29 298.35,-83.23 294.69,-93.17 301.68,-93.29"/>
</g>
<!-- 9 -->
<g id="node10" class="node">
<title>9</title>
<polygon fill="none" stroke="black" points="1028.5,-351 825.5,-351 825.5,-253 1028.5,-253 1028.5,-351"/>
<text text-anchor="middle" x="927" y="-335.8" font-family="Times,serif" font-size="14.00">node #9</text>
<text text-anchor="middle" x="927" y="-320.8" font-family="Times,serif" font-size="14.00">FEV1PostVal &lt;= 2.5</text>
<text text-anchor="middle" x="927" y="-305.8" font-family="Times,serif" font-size="14.00">gini = 0.302</text>
<text text-anchor="middle" x="927" y="-290.8" font-family="Times,serif" font-size="14.00">samples = 106</text>
<text text-anchor="middle" x="927" y="-275.8" font-family="Times,serif" font-size="14.00">value = [138.488, 31.435]</text>
<text text-anchor="middle" x="927" y="-260.8" font-family="Times,serif" font-size="14.00">class = Non&#45;obstructive</text>
</g>
<!-- 8&#45;&gt;9 -->
<g id="edge9" class="edge">
<title>8&#45;&gt;9</title>
<path fill="none" stroke="black" d="M927,-386.97C927,-378.69 927,-370 927,-361.48"/>
<polygon fill="black" stroke="black" points="930.5,-361.21 927,-351.21 923.5,-361.21 930.5,-361.21"/>
</g>
<!-- 16 -->
<g id="node17" class="node">
<title>16</title>
<polygon fill="none" stroke="black" points="1495,-351 1295,-351 1295,-253 1495,-253 1495,-351"/>
<text text-anchor="middle" x="1395" y="-335.8" font-family="Times,serif" font-size="14.00">node #16</text>
<text text-anchor="middle" x="1395" y="-320.8" font-family="Times,serif" font-size="14.00">FEV1PrePercent &lt;= 80.5</text>
<text text-anchor="middle" x="1395" y="-305.8" font-family="Times,serif" font-size="14.00">gini = 0.447</text>
<text text-anchor="middle" x="1395" y="-290.8" font-family="Times,serif" font-size="14.00">samples = 48</text>
<text text-anchor="middle" x="1395" y="-275.8" font-family="Times,serif" font-size="14.00">value = [23.421, 46.171]</text>
<text text-anchor="middle" x="1395" y="-260.8" font-family="Times,serif" font-size="14.00">class = Obstructive</text>
</g>
<!-- 8&#45;&gt;16 -->
<g id="edge16" class="edge">
<title>8&#45;&gt;16</title>
<path fill="none" stroke="black" d="M1028.55,-406.36C1104.22,-385.02 1207.43,-355.9 1285.04,-334.01"/>
<polygon fill="black" stroke="black" points="1286.18,-337.33 1294.86,-331.25 1284.28,-330.59 1286.18,-337.33"/>
</g>
<!-- 10 -->
<g id="node11" class="node">
<title>10</title>
<polygon fill="none" stroke="black" points="817.5,-217 614.5,-217 614.5,-119 817.5,-119 817.5,-217"/>
<text text-anchor="middle" x="716" y="-201.8" font-family="Times,serif" font-size="14.00">node #10</text>
<text text-anchor="middle" x="716" y="-186.8" font-family="Times,serif" font-size="14.00">FEFPostVal &lt;= 2.105</text>
<text text-anchor="middle" x="716" y="-171.8" font-family="Times,serif" font-size="14.00">gini = 0.261</text>
<text text-anchor="middle" x="716" y="-156.8" font-family="Times,serif" font-size="14.00">samples = 98</text>
<text text-anchor="middle" x="716" y="-141.8" font-family="Times,serif" font-size="14.00">value = [134.415, 24.559]</text>
<text text-anchor="middle" x="716" y="-126.8" font-family="Times,serif" font-size="14.00">class = Non&#45;obstructive</text>
</g>
<!-- 9&#45;&gt;10 -->
<g id="edge10" class="edge">
<title>9&#45;&gt;10</title>
<path fill="none" stroke="black" d="M850.23,-252.97C834.52,-243.14 817.89,-232.74 801.89,-222.73"/>
<polygon fill="black" stroke="black" points="803.4,-219.55 793.07,-217.21 799.69,-225.48 803.4,-219.55"/>
</g>
<!-- 13 -->
<g id="node14" class="node">
<title>13</title>
<polygon fill="none" stroke="black" points="1042,-217 836,-217 836,-119 1042,-119 1042,-217"/>
<text text-anchor="middle" x="939" y="-201.8" font-family="Times,serif" font-size="14.00">node #13</text>
<text text-anchor="middle" x="939" y="-186.8" font-family="Times,serif" font-size="14.00">FEFPostPercent &lt;= 101.0</text>
<text text-anchor="middle" x="939" y="-171.8" font-family="Times,serif" font-size="14.00">gini = 0.467</text>
<text text-anchor="middle" x="939" y="-156.8" font-family="Times,serif" font-size="14.00">samples = 8</text>
<text text-anchor="middle" x="939" y="-141.8" font-family="Times,serif" font-size="14.00">value = [4.073, 6.876]</text>
<text text-anchor="middle" x="939" y="-126.8" font-family="Times,serif" font-size="14.00">class = Obstructive</text>
</g>
<!-- 9&#45;&gt;13 -->
<g id="edge13" class="edge">
<title>9&#45;&gt;13</title>
<path fill="none" stroke="black" d="M931.37,-252.97C932.13,-244.6 932.93,-235.81 933.71,-227.2"/>
<polygon fill="black" stroke="black" points="937.2,-227.49 934.62,-217.21 930.23,-226.86 937.2,-227.49"/>
</g>
<!-- 11 -->
<g id="node12" class="node">
<title>11</title>
<polygon fill="none" stroke="black" points="604,-83 410,-83 410,0 604,0 604,-83"/>
<text text-anchor="middle" x="507" y="-67.8" font-family="Times,serif" font-size="14.00">node #11</text>
<text text-anchor="middle" x="507" y="-52.8" font-family="Times,serif" font-size="14.00">gini = 0.396</text>
<text text-anchor="middle" x="507" y="-37.8" font-family="Times,serif" font-size="14.00">samples = 50</text>
<text text-anchor="middle" x="507" y="-22.8" font-family="Times,serif" font-size="14.00">value = [63.134, 23.576]</text>
<text text-anchor="middle" x="507" y="-7.8" font-family="Times,serif" font-size="14.00">class = Non&#45;obstructive</text>
</g>
<!-- 10&#45;&gt;11 -->
<g id="edge11" class="edge">
<title>10&#45;&gt;11</title>
<path fill="none" stroke="black" d="M635.2,-118.87C618.27,-108.78 600.48,-98.18 583.71,-88.19"/>
<polygon fill="black" stroke="black" points="585.42,-85.14 575.04,-83.03 581.84,-91.16 585.42,-85.14"/>
</g>
<!-- 12 -->
<g id="node13" class="node">
<title>12</title>
<polygon fill="none" stroke="black" points="810,-83 622,-83 622,0 810,0 810,-83"/>
<text text-anchor="middle" x="716" y="-67.8" font-family="Times,serif" font-size="14.00">node #12</text>
<text text-anchor="middle" x="716" y="-52.8" font-family="Times,serif" font-size="14.00">gini = 0.027</text>
<text text-anchor="middle" x="716" y="-37.8" font-family="Times,serif" font-size="14.00">samples = 48</text>
<text text-anchor="middle" x="716" y="-22.8" font-family="Times,serif" font-size="14.00">value = [71.28, 0.982]</text>
<text text-anchor="middle" x="716" y="-7.8" font-family="Times,serif" font-size="14.00">class = Non&#45;obstructive</text>
</g>
<!-- 10&#45;&gt;12 -->
<g id="edge12" class="edge">
<title>10&#45;&gt;12</title>
<path fill="none" stroke="black" d="M716,-118.87C716,-110.5 716,-101.77 716,-93.33"/>
<polygon fill="black" stroke="black" points="719.5,-93.23 716,-83.23 712.5,-93.23 719.5,-93.23"/>
</g>
<!-- 14 -->
<g id="node15" class="node">
<title>14</title>
<polygon fill="none" stroke="black" points="1004,-83 828,-83 828,0 1004,0 1004,-83"/>
<text text-anchor="middle" x="916" y="-67.8" font-family="Times,serif" font-size="14.00">node #14</text>
<text text-anchor="middle" x="916" y="-52.8" font-family="Times,serif" font-size="14.00">gini = 0.225</text>
<text text-anchor="middle" x="916" y="-37.8" font-family="Times,serif" font-size="14.00">samples = 5</text>
<text text-anchor="middle" x="916" y="-22.8" font-family="Times,serif" font-size="14.00">value = [1.018, 6.876]</text>
<text text-anchor="middle" x="916" y="-7.8" font-family="Times,serif" font-size="14.00">class = Obstructive</text>
</g>
<!-- 13&#45;&gt;14 -->
<g id="edge14" class="edge">
<title>13&#45;&gt;14</title>
<path fill="none" stroke="black" d="M930.11,-118.87C928.56,-110.5 926.95,-101.77 925.39,-93.33"/>
<polygon fill="black" stroke="black" points="928.78,-92.43 923.52,-83.23 921.9,-93.7 928.78,-92.43"/>
</g>
<!-- 15 -->
<g id="node16" class="node">
<title>15</title>
<polygon fill="none" stroke="black" points="1210,-83 1022,-83 1022,0 1210,0 1210,-83"/>
<text text-anchor="middle" x="1116" y="-67.8" font-family="Times,serif" font-size="14.00">node #15</text>
<text text-anchor="middle" x="1116" y="-52.8" font-family="Times,serif" font-size="14.00">gini = &#45;0.0</text>
<text text-anchor="middle" x="1116" y="-37.8" font-family="Times,serif" font-size="14.00">samples = 3</text>
<text text-anchor="middle" x="1116" y="-22.8" font-family="Times,serif" font-size="14.00">value = [3.055, 0.0]</text>
<text text-anchor="middle" x="1116" y="-7.8" font-family="Times,serif" font-size="14.00">class = Non&#45;obstructive</text>
</g>
<!-- 13&#45;&gt;15 -->
<g id="edge15" class="edge">
<title>13&#45;&gt;15</title>
<path fill="none" stroke="black" d="M1007.43,-118.87C1021.37,-109.06 1036.01,-98.77 1049.86,-89.02"/>
<polygon fill="black" stroke="black" points="1052.21,-91.65 1058.38,-83.03 1048.18,-85.92 1052.21,-91.65"/>
</g>
<!-- 17 -->
<g id="node18" class="node">
<title>17</title>
<polygon fill="none" stroke="black" points="1498,-217 1292,-217 1292,-119 1498,-119 1498,-217"/>
<text text-anchor="middle" x="1395" y="-201.8" font-family="Times,serif" font-size="14.00">node #17</text>
<text text-anchor="middle" x="1395" y="-186.8" font-family="Times,serif" font-size="14.00">FEV1PostPercent &lt;= 82.5</text>
<text text-anchor="middle" x="1395" y="-171.8" font-family="Times,serif" font-size="14.00">gini = 0.229</text>
<text text-anchor="middle" x="1395" y="-156.8" font-family="Times,serif" font-size="14.00">samples = 33</text>
<text text-anchor="middle" x="1395" y="-141.8" font-family="Times,serif" font-size="14.00">value = [6.11, 40.276]</text>
<text text-anchor="middle" x="1395" y="-126.8" font-family="Times,serif" font-size="14.00">class = Obstructive</text>
</g>
<!-- 16&#45;&gt;17 -->
<g id="edge17" class="edge">
<title>16&#45;&gt;17</title>
<path fill="none" stroke="black" d="M1395,-252.97C1395,-244.69 1395,-236 1395,-227.48"/>
<polygon fill="black" stroke="black" points="1398.5,-227.21 1395,-217.21 1391.5,-227.21 1398.5,-227.21"/>
</g>
<!-- 20 -->
<g id="node21" class="node">
<title>20</title>
<polygon fill="none" stroke="black" points="1790.5,-217 1599.5,-217 1599.5,-119 1790.5,-119 1790.5,-217"/>
<text text-anchor="middle" x="1695" y="-201.8" font-family="Times,serif" font-size="14.00">node #20</text>
<text text-anchor="middle" x="1695" y="-186.8" font-family="Times,serif" font-size="14.00">FEFPrePercent &lt;= 63.0</text>
<text text-anchor="middle" x="1695" y="-171.8" font-family="Times,serif" font-size="14.00">gini = 0.379</text>
<text text-anchor="middle" x="1695" y="-156.8" font-family="Times,serif" font-size="14.00">samples = 15</text>
<text text-anchor="middle" x="1695" y="-141.8" font-family="Times,serif" font-size="14.00">value = [17.311, 5.894]</text>
<text text-anchor="middle" x="1695" y="-126.8" font-family="Times,serif" font-size="14.00">class = Non&#45;obstructive</text>
</g>
<!-- 16&#45;&gt;20 -->
<g id="edge20" class="edge">
<title>16&#45;&gt;20</title>
<path fill="none" stroke="black" d="M1495.31,-256.86C1525.72,-243.48 1559.21,-228.75 1589.92,-215.24"/>
<polygon fill="black" stroke="black" points="1591.61,-218.31 1599.36,-211.08 1588.79,-211.91 1591.61,-218.31"/>
</g>
<!-- 18 -->
<g id="node19" class="node">
<title>18</title>
<polygon fill="none" stroke="black" points="1395.5,-83 1228.5,-83 1228.5,0 1395.5,0 1395.5,-83"/>
<text text-anchor="middle" x="1312" y="-67.8" font-family="Times,serif" font-size="14.00">node #18</text>
<text text-anchor="middle" x="1312" y="-52.8" font-family="Times,serif" font-size="14.00">gini = 0.108</text>
<text text-anchor="middle" x="1312" y="-37.8" font-family="Times,serif" font-size="14.00">samples = 25</text>
<text text-anchor="middle" x="1312" y="-22.8" font-family="Times,serif" font-size="14.00">value = [2.037, 33.4]</text>
<text text-anchor="middle" x="1312" y="-7.8" font-family="Times,serif" font-size="14.00">class = Obstructive</text>
</g>
<!-- 17&#45;&gt;18 -->
<g id="edge18" class="edge">
<title>17&#45;&gt;18</title>
<path fill="none" stroke="black" d="M1362.91,-118.87C1356.96,-109.95 1350.75,-100.62 1344.78,-91.67"/>
<polygon fill="black" stroke="black" points="1347.61,-89.61 1339.15,-83.23 1341.79,-93.49 1347.61,-89.61"/>
</g>
<!-- 19 -->
<g id="node20" class="node">
<title>19</title>
<polygon fill="none" stroke="black" points="1589,-83 1413,-83 1413,0 1589,0 1589,-83"/>
<text text-anchor="middle" x="1501" y="-67.8" font-family="Times,serif" font-size="14.00">node #19</text>
<text text-anchor="middle" x="1501" y="-52.8" font-family="Times,serif" font-size="14.00">gini = 0.467</text>
<text text-anchor="middle" x="1501" y="-37.8" font-family="Times,serif" font-size="14.00">samples = 8</text>
<text text-anchor="middle" x="1501" y="-22.8" font-family="Times,serif" font-size="14.00">value = [4.073, 6.876]</text>
<text text-anchor="middle" x="1501" y="-7.8" font-family="Times,serif" font-size="14.00">class = Obstructive</text>
</g>
<!-- 17&#45;&gt;19 -->
<g id="edge19" class="edge">
<title>17&#45;&gt;19</title>
<path fill="none" stroke="black" d="M1435.98,-118.87C1443.73,-109.76 1451.84,-100.23 1459.61,-91.12"/>
<polygon fill="black" stroke="black" points="1462.5,-93.11 1466.32,-83.23 1457.17,-88.58 1462.5,-93.11"/>
</g>
<!-- 21 -->
<g id="node22" class="node">
<title>21</title>
<polygon fill="none" stroke="black" points="1783,-83 1607,-83 1607,0 1783,0 1783,-83"/>
<text text-anchor="middle" x="1695" y="-67.8" font-family="Times,serif" font-size="14.00">node #21</text>
<text text-anchor="middle" x="1695" y="-52.8" font-family="Times,serif" font-size="14.00">gini = 0.414</text>
<text text-anchor="middle" x="1695" y="-37.8" font-family="Times,serif" font-size="14.00">samples = 6</text>
<text text-anchor="middle" x="1695" y="-22.8" font-family="Times,serif" font-size="14.00">value = [2.037, 4.912]</text>
<text text-anchor="middle" x="1695" y="-7.8" font-family="Times,serif" font-size="14.00">class = Obstructive</text>
</g>
<!-- 20&#45;&gt;21 -->
<g id="edge21" class="edge">
<title>20&#45;&gt;21</title>
<path fill="none" stroke="black" d="M1695,-118.87C1695,-110.5 1695,-101.77 1695,-93.33"/>
<polygon fill="black" stroke="black" points="1698.5,-93.23 1695,-83.23 1691.5,-93.23 1698.5,-93.23"/>
</g>
<!-- 22 -->
<g id="node23" class="node">
<title>22</title>
<polygon fill="none" stroke="black" points="1989,-83 1801,-83 1801,0 1989,0 1989,-83"/>
<text text-anchor="middle" x="1895" y="-67.8" font-family="Times,serif" font-size="14.00">node #22</text>
<text text-anchor="middle" x="1895" y="-52.8" font-family="Times,serif" font-size="14.00">gini = 0.114</text>
<text text-anchor="middle" x="1895" y="-37.8" font-family="Times,serif" font-size="14.00">samples = 9</text>
<text text-anchor="middle" x="1895" y="-22.8" font-family="Times,serif" font-size="14.00">value = [15.274, 0.982]</text>
<text text-anchor="middle" x="1895" y="-7.8" font-family="Times,serif" font-size="14.00">class = Non&#45;obstructive</text>
</g>
<!-- 20&#45;&gt;22 -->
<g id="edge22" class="edge">
<title>20&#45;&gt;22</title>
<path fill="none" stroke="black" d="M1772.33,-118.87C1788.37,-108.88 1805.24,-98.38 1821.15,-88.47"/>
<polygon fill="black" stroke="black" points="1823.25,-91.29 1829.89,-83.03 1819.55,-85.35 1823.25,-91.29"/>
</g>
</g>
</svg>
