<?xml version="1.0" encoding="UTF-8" standalone="no"?>
<!DOCTYPE svg PUBLIC "-//W3C//DTD SVG 1.1//EN"
 "http://www.w3.org/Graphics/SVG/1.1/DTD/svg11.dtd">
<!-- Generated by graphviz version 2.43.0 (0)
 -->
<!-- Title: Tree Pages: 1 -->
<svg width="1604pt" height="627pt"
 viewBox="0.00 0.00 1604.00 627.00" xmlns="http://www.w3.org/2000/svg" xmlns:xlink="http://www.w3.org/1999/xlink">
<g id="graph0" class="graph" transform="scale(1 1) rotate(0) translate(4 623)">
<title>Tree</title>
<polygon fill="white" stroke="transparent" points="-4,4 -4,-623 1600,-623 1600,4 -4,4"/>
<!-- 0 -->
<g id="node1" class="node">
<title>0</title>
<polygon fill="none" stroke="black" points="885,-619 697,-619 697,-521 885,-521 885,-619"/>
<text text-anchor="middle" x="791" y="-603.8" font-family="Times,serif" font-size="14.00">node #0</text>
<text text-anchor="middle" x="791" y="-588.8" font-family="Times,serif" font-size="14.00">FEFPreVal &lt;= 0.88</text>
<text text-anchor="middle" x="791" y="-573.8" font-family="Times,serif" font-size="14.00">gini = 0.5</text>
<text text-anchor="middle" x="791" y="-558.8" font-family="Times,serif" font-size="14.00">samples = 205</text>
<text text-anchor="middle" x="791" y="-543.8" font-family="Times,serif" font-size="14.00">value = [167.0, 167.0]</text>
<text text-anchor="middle" x="791" y="-528.8" font-family="Times,serif" font-size="14.00">class = Non&#45;obstructive</text>
</g>
<!-- 1 -->
<g id="node2" class="node">
<title>1</title>
<polygon fill="none" stroke="black" points="780,-485 586,-485 586,-387 780,-387 780,-485"/>
<text text-anchor="middle" x="683" y="-469.8" font-family="Times,serif" font-size="14.00">node #1</text>
<text text-anchor="middle" x="683" y="-454.8" font-family="Times,serif" font-size="14.00">FVCPostVal &lt;= 1.685</text>
<text text-anchor="middle" x="683" y="-439.8" font-family="Times,serif" font-size="14.00">gini = 0.176</text>
<text text-anchor="middle" x="683" y="-424.8" font-family="Times,serif" font-size="14.00">samples = 65</text>
<text text-anchor="middle" x="683" y="-409.8" font-family="Times,serif" font-size="14.00">value = [10.121, 93.876]</text>
<text text-anchor="middle" x="683" y="-394.8" font-family="Times,serif" font-size="14.00">class = Obstructive</text>
</g>
<!-- 0&#45;&gt;1 -->
<g id="edge1" class="edge">
<title>0&#45;&gt;1</title>
<path fill="none" stroke="black" d="M751.7,-520.97C744.26,-511.87 736.41,-502.28 728.79,-492.96"/>
<polygon fill="black" stroke="black" points="731.49,-490.74 722.45,-485.21 726.07,-495.17 731.49,-490.74"/>
<text text-anchor="middle" x="719.96" y="-506.39" font-family="Times,serif" font-size="14.00">True</text>
</g>
<!-- 12 -->
<g id="node13" class="node">
<title>12</title>
<polygon fill="none" stroke="black" points="1000.5,-485 797.5,-485 797.5,-387 1000.5,-387 1000.5,-485"/>
<text text-anchor="middle" x="899" y="-469.8" font-family="Times,serif" font-size="14.00">node #12</text>
<text text-anchor="middle" x="899" y="-454.8" font-family="Times,serif" font-size="14.00">FVCPostPercent &lt;= 61.5</text>
<text text-anchor="middle" x="899" y="-439.8" font-family="Times,serif" font-size="14.00">gini = 0.434</text>
<text text-anchor="middle" x="899" y="-424.8" font-family="Times,serif" font-size="14.00">samples = 140</text>
<text text-anchor="middle" x="899" y="-409.8" font-family="Times,serif" font-size="14.00">value = [156.879, 73.124]</text>
<text text-anchor="middle" x="899" y="-394.8" font-family="Times,serif" font-size="14.00">class = Non&#45;obstructive</text>
</g>
<!-- 0&#45;&gt;12 -->
<g id="edge12" class="edge">
<title>0&#45;&gt;12</title>
<path fill="none" stroke="black" d="M830.3,-520.97C837.74,-511.87 845.59,-502.28 853.21,-492.96"/>
<polygon fill="black" stroke="black" points="855.93,-495.17 859.55,-485.21 850.51,-490.74 855.93,-495.17"/>
<text text-anchor="middle" x="862.04" y="-506.39" font-family="Times,serif" font-size="14.00">False</text>
</g>
<!-- 2 -->
<g id="node3" class="node">
<title>2</title>
<polygon fill="none" stroke="black" points="573.5,-351 382.5,-351 382.5,-253 573.5,-253 573.5,-351"/>
<text text-anchor="middle" x="478" y="-335.8" font-family="Times,serif" font-size="14.00">node #2</text>
<text text-anchor="middle" x="478" y="-320.8" font-family="Times,serif" font-size="14.00">FVCPrePercent &lt;= 67.5</text>
<text text-anchor="middle" x="478" y="-305.8" font-family="Times,serif" font-size="14.00">gini = 0.372</text>
<text text-anchor="middle" x="478" y="-290.8" font-family="Times,serif" font-size="14.00">samples = 17</text>
<text text-anchor="middle" x="478" y="-275.8" font-family="Times,serif" font-size="14.00">value = [8.097, 24.704]</text>
<text text-anchor="middle" x="478" y="-260.8" font-family="Times,serif" font-size="14.00">class = Obstructive</text>
</g>
<!-- 1&#45;&gt;2 -->
<g id="edge2" class="edge">
<title>1&#45;&gt;2</title>
<path fill="none" stroke="black" d="M608.41,-386.97C593.15,-377.14 576.99,-366.74 561.44,-356.73"/>
<polygon fill="black" stroke="black" points="563.18,-353.68 552.88,-351.21 559.39,-359.57 563.18,-353.68"/>
</g>
<!-- 7 -->
<g id="node8" class="node">
<title>7</title>
<polygon fill="none" stroke="black" points="776.5,-351 591.5,-351 591.5,-253 776.5,-253 776.5,-351"/>
<text text-anchor="middle" x="684" y="-335.8" font-family="Times,serif" font-size="14.00">node #7</text>
<text text-anchor="middle" x="684" y="-320.8" font-family="Times,serif" font-size="14.00">FVCPostVal &lt;= 3.455</text>
<text text-anchor="middle" x="684" y="-305.8" font-family="Times,serif" font-size="14.00">gini = 0.055</text>
<text text-anchor="middle" x="684" y="-290.8" font-family="Times,serif" font-size="14.00">samples = 48</text>
<text text-anchor="middle" x="684" y="-275.8" font-family="Times,serif" font-size="14.00">value = [2.024, 69.172]</text>
<text text-anchor="middle" x="684" y="-260.8" font-family="Times,serif" font-size="14.00">class = Obstructive</text>
</g>
<!-- 1&#45;&gt;7 -->
<g id="edge7" class="edge">
<title>1&#45;&gt;7</title>
<path fill="none" stroke="black" d="M683.36,-386.97C683.43,-378.69 683.49,-370 683.56,-361.48"/>
<polygon fill="black" stroke="black" points="687.06,-361.24 683.63,-351.21 680.06,-361.19 687.06,-361.24"/>
</g>
<!-- 3 -->
<g id="node4" class="node">
<title>3</title>
<polygon fill="none" stroke="black" points="366.5,-217 181.5,-217 181.5,-119 366.5,-119 366.5,-217"/>
<text text-anchor="middle" x="274" y="-201.8" font-family="Times,serif" font-size="14.00">node #3</text>
<text text-anchor="middle" x="274" y="-186.8" font-family="Times,serif" font-size="14.00">FVCPreVal &lt;= 1.055</text>
<text text-anchor="middle" x="274" y="-171.8" font-family="Times,serif" font-size="14.00">gini = 0.242</text>
<text text-anchor="middle" x="274" y="-156.8" font-family="Times,serif" font-size="14.00">samples = 16</text>
<text text-anchor="middle" x="274" y="-141.8" font-family="Times,serif" font-size="14.00">value = [4.048, 24.704]</text>
<text text-anchor="middle" x="274" y="-126.8" font-family="Times,serif" font-size="14.00">class = Obstructive</text>
</g>
<!-- 2&#45;&gt;3 -->
<g id="edge3" class="edge">
<title>2&#45;&gt;3</title>
<path fill="none" stroke="black" d="M403.77,-252.97C388.59,-243.14 372.51,-232.74 357.04,-222.73"/>
<polygon fill="black" stroke="black" points="358.81,-219.71 348.51,-217.21 355.01,-225.58 358.81,-219.71"/>
</g>
<!-- 6 -->
<g id="node7" class="node">
<title>6</title>
<polygon fill="none" stroke="black" points="573,-209.5 385,-209.5 385,-126.5 573,-126.5 573,-209.5"/>
<text text-anchor="middle" x="479" y="-194.3" font-family="Times,serif" font-size="14.00">node #6</text>
<text text-anchor="middle" x="479" y="-179.3" font-family="Times,serif" font-size="14.00">gini = &#45;0.0</text>
<text text-anchor="middle" x="479" y="-164.3" font-family="Times,serif" font-size="14.00">samples = 1</text>
<text text-anchor="middle" x="479" y="-149.3" font-family="Times,serif" font-size="14.00">value = [4.048, 0.0]</text>
<text text-anchor="middle" x="479" y="-134.3" font-family="Times,serif" font-size="14.00">class = Non&#45;obstructive</text>
</g>
<!-- 2&#45;&gt;6 -->
<g id="edge6" class="edge">
<title>2&#45;&gt;6</title>
<path fill="none" stroke="black" d="M478.36,-252.97C478.45,-242.25 478.53,-230.84 478.61,-219.99"/>
<polygon fill="black" stroke="black" points="482.11,-219.84 478.69,-209.82 475.12,-219.79 482.11,-219.84"/>
</g>
<!-- 4 -->
<g id="node5" class="node">
<title>4</title>
<polygon fill="none" stroke="black" points="176,-83 0,-83 0,0 176,0 176,-83"/>
<text text-anchor="middle" x="88" y="-67.8" font-family="Times,serif" font-size="14.00">node #4</text>
<text text-anchor="middle" x="88" y="-52.8" font-family="Times,serif" font-size="14.00">gini = 0.472</text>
<text text-anchor="middle" x="88" y="-37.8" font-family="Times,serif" font-size="14.00">samples = 5</text>
<text text-anchor="middle" x="88" y="-22.8" font-family="Times,serif" font-size="14.00">value = [3.036, 4.941]</text>
<text text-anchor="middle" x="88" y="-7.8" font-family="Times,serif" font-size="14.00">class = Obstructive</text>
</g>
<!-- 3&#45;&gt;4 -->
<g id="edge4" class="edge">
<title>3&#45;&gt;4</title>
<path fill="none" stroke="black" d="M202.09,-118.87C187.3,-108.97 171.77,-98.57 157.09,-88.74"/>
<polygon fill="black" stroke="black" points="158.81,-85.69 148.55,-83.03 154.92,-91.5 158.81,-85.69"/>
</g>
<!-- 5 -->
<g id="node6" class="node">
<title>5</title>
<polygon fill="none" stroke="black" points="378.5,-83 193.5,-83 193.5,0 378.5,0 378.5,-83"/>
<text text-anchor="middle" x="286" y="-67.8" font-family="Times,serif" font-size="14.00">node #5</text>
<text text-anchor="middle" x="286" y="-52.8" font-family="Times,serif" font-size="14.00">gini = 0.093</text>
<text text-anchor="middle" x="286" y="-37.8" font-family="Times,serif" font-size="14.00">samples = 11</text>
<text text-anchor="middle" x="286" y="-22.8" font-family="Times,serif" font-size="14.00">value = [1.012, 19.763]</text>
<text text-anchor="middle" x="286" y="-7.8" font-family="Times,serif" font-size="14.00">class = Obstructive</text>
</g>
<!-- 3&#45;&gt;5 -->
<g id="edge5" class="edge">
<title>3&#45;&gt;5</title>
<path fill="none" stroke="black" d="M278.64,-118.87C279.45,-110.5 280.29,-101.77 281.1,-93.33"/>
<polygon fill="black" stroke="black" points="284.6,-93.52 282.07,-83.23 277.63,-92.85 284.6,-93.52"/>
</g>
<!-- 8 -->
<g id="node9" class="node">
<title>8</title>
<polygon fill="none" stroke="black" points="776.5,-217 591.5,-217 591.5,-119 776.5,-119 776.5,-217"/>
<text text-anchor="middle" x="684" y="-201.8" font-family="Times,serif" font-size="14.00">node #8</text>
<text text-anchor="middle" x="684" y="-186.8" font-family="Times,serif" font-size="14.00">FEV1PostVal &lt;= 1.415</text>
<text text-anchor="middle" x="684" y="-171.8" font-family="Times,serif" font-size="14.00">gini = 0.028</text>
<text text-anchor="middle" x="684" y="-156.8" font-family="Times,serif" font-size="14.00">samples = 47</text>
<text text-anchor="middle" x="684" y="-141.8" font-family="Times,serif" font-size="14.00">value = [1.012, 69.172]</text>
<text text-anchor="middle" x="684" y="-126.8" font-family="Times,serif" font-size="14.00">class = Obstructive</text>
</g>
<!-- 7&#45;&gt;8 -->
<g id="edge8" class="edge">
<title>7&#45;&gt;8</title>
<path fill="none" stroke="black" d="M684,-252.97C684,-244.69 684,-236 684,-227.48"/>
<polygon fill="black" stroke="black" points="687.5,-227.21 684,-217.21 680.5,-227.21 687.5,-227.21"/>
</g>
<!-- 11 -->
<g id="node12" class="node">
<title>11</title>
<polygon fill="none" stroke="black" points="983,-209.5 795,-209.5 795,-126.5 983,-126.5 983,-209.5"/>
<text text-anchor="middle" x="889" y="-194.3" font-family="Times,serif" font-size="14.00">node #11</text>
<text text-anchor="middle" x="889" y="-179.3" font-family="Times,serif" font-size="14.00">gini = 0.0</text>
<text text-anchor="middle" x="889" y="-164.3" font-family="Times,serif" font-size="14.00">samples = 1</text>
<text text-anchor="middle" x="889" y="-149.3" font-family="Times,serif" font-size="14.00">value = [1.012, 0.0]</text>
<text text-anchor="middle" x="889" y="-134.3" font-family="Times,serif" font-size="14.00">class = Non&#45;obstructive</text>
</g>
<!-- 7&#45;&gt;11 -->
<g id="edge11" class="edge">
<title>7&#45;&gt;11</title>
<path fill="none" stroke="black" d="M758.59,-252.97C777.75,-240.63 798.32,-227.39 817.33,-215.15"/>
<polygon fill="black" stroke="black" points="819.43,-217.96 825.94,-209.6 815.64,-212.07 819.43,-217.96"/>
</g>
<!-- 9 -->
<g id="node10" class="node">
<title>9</title>
<polygon fill="none" stroke="black" points="574.5,-83 407.5,-83 407.5,0 574.5,0 574.5,-83"/>
<text text-anchor="middle" x="491" y="-67.8" font-family="Times,serif" font-size="14.00">node #9</text>
<text text-anchor="middle" x="491" y="-52.8" font-family="Times,serif" font-size="14.00">gini = &#45;0.0</text>
<text text-anchor="middle" x="491" y="-37.8" font-family="Times,serif" font-size="14.00">samples = 36</text>
<text text-anchor="middle" x="491" y="-22.8" font-family="Times,serif" font-size="14.00">value = [0.0, 55.337]</text>
<text text-anchor="middle" x="491" y="-7.8" font-family="Times,serif" font-size="14.00">class = Obstructive</text>
</g>
<!-- 8&#45;&gt;9 -->
<g id="edge9" class="edge">
<title>8&#45;&gt;9</title>
<path fill="none" stroke="black" d="M609.38,-118.87C593.9,-108.88 577.62,-98.38 562.26,-88.47"/>
<polygon fill="black" stroke="black" points="564.13,-85.51 553.83,-83.03 560.34,-91.39 564.13,-85.51"/>
</g>
<!-- 10 -->
<g id="node11" class="node">
<title>10</title>
<polygon fill="none" stroke="black" points="777.5,-83 592.5,-83 592.5,0 777.5,0 777.5,-83"/>
<text text-anchor="middle" x="685" y="-67.8" font-family="Times,serif" font-size="14.00">node #10</text>
<text text-anchor="middle" x="685" y="-52.8" font-family="Times,serif" font-size="14.00">gini = 0.127</text>
<text text-anchor="middle" x="685" y="-37.8" font-family="Times,serif" font-size="14.00">samples = 11</text>
<text text-anchor="middle" x="685" y="-22.8" font-family="Times,serif" font-size="14.00">value = [1.012, 13.834]</text>
<text text-anchor="middle" x="685" y="-7.8" font-family="Times,serif" font-size="14.00">class = Obstructive</text>
</g>
<!-- 8&#45;&gt;10 -->
<g id="edge10" class="edge">
<title>8&#45;&gt;10</title>
<path fill="none" stroke="black" d="M684.39,-118.87C684.45,-110.5 684.52,-101.77 684.59,-93.33"/>
<polygon fill="black" stroke="black" points="688.09,-93.26 684.67,-83.23 681.09,-93.2 688.09,-93.26"/>
</g>
<!-- 13 -->
<g id="node14" class="node">
<title>13</title>
<polygon fill="none" stroke="black" points="993,-343.5 805,-343.5 805,-260.5 993,-260.5 993,-343.5"/>
<text text-anchor="middle" x="899" y="-328.3" font-family="Times,serif" font-size="14.00">node #13</text>
<text text-anchor="middle" x="899" y="-313.3" font-family="Times,serif" font-size="14.00">gini = 0.0</text>
<text text-anchor="middle" x="899" y="-298.3" font-family="Times,serif" font-size="14.00">samples = 56</text>
<text text-anchor="middle" x="899" y="-283.3" font-family="Times,serif" font-size="14.00">value = [90.079, 0.0]</text>
<text text-anchor="middle" x="899" y="-268.3" font-family="Times,serif" font-size="14.00">class = Non&#45;obstructive</text>
</g>
<!-- 12&#45;&gt;13 -->
<g id="edge13" class="edge">
<title>12&#45;&gt;13</title>
<path fill="none" stroke="black" d="M899,-386.97C899,-376.25 899,-364.84 899,-353.99"/>
<polygon fill="black" stroke="black" points="902.5,-353.82 899,-343.82 895.5,-353.82 902.5,-353.82"/>
</g>
<!-- 14 -->
<g id="node15" class="node">
<title>14</title>
<polygon fill="none" stroke="black" points="1187,-351 1011,-351 1011,-253 1187,-253 1187,-351"/>
<text text-anchor="middle" x="1099" y="-335.8" font-family="Times,serif" font-size="14.00">node #14</text>
<text text-anchor="middle" x="1099" y="-320.8" font-family="Times,serif" font-size="14.00">FEFPreVal &lt;= 2.295</text>
<text text-anchor="middle" x="1099" y="-305.8" font-family="Times,serif" font-size="14.00">gini = 0.499</text>
<text text-anchor="middle" x="1099" y="-290.8" font-family="Times,serif" font-size="14.00">samples = 84</text>
<text text-anchor="middle" x="1099" y="-275.8" font-family="Times,serif" font-size="14.00">value = [66.8, 73.124]</text>
<text text-anchor="middle" x="1099" y="-260.8" font-family="Times,serif" font-size="14.00">class = Obstructive</text>
</g>
<!-- 12&#45;&gt;14 -->
<g id="edge14" class="edge">
<title>12&#45;&gt;14</title>
<path fill="none" stroke="black" d="M971.77,-386.97C986.66,-377.14 1002.42,-366.74 1017.59,-356.73"/>
<polygon fill="black" stroke="black" points="1019.53,-359.64 1025.95,-351.21 1015.67,-353.8 1019.53,-359.64"/>
</g>
<!-- 15 -->
<g id="node16" class="node">
<title>15</title>
<polygon fill="none" stroke="black" points="1196,-217 1002,-217 1002,-119 1196,-119 1196,-217"/>
<text text-anchor="middle" x="1099" y="-201.8" font-family="Times,serif" font-size="14.00">node #15</text>
<text text-anchor="middle" x="1099" y="-186.8" font-family="Times,serif" font-size="14.00">FVCPreVal &lt;= 1.925</text>
<text text-anchor="middle" x="1099" y="-171.8" font-family="Times,serif" font-size="14.00">gini = 0.404</text>
<text text-anchor="middle" x="1099" y="-156.8" font-family="Times,serif" font-size="14.00">samples = 52</text>
<text text-anchor="middle" x="1099" y="-141.8" font-family="Times,serif" font-size="14.00">value = [24.291, 62.254]</text>
<text text-anchor="middle" x="1099" y="-126.8" font-family="Times,serif" font-size="14.00">class = Obstructive</text>
</g>
<!-- 14&#45;&gt;15 -->
<g id="edge15" class="edge">
<title>14&#45;&gt;15</title>
<path fill="none" stroke="black" d="M1099,-252.97C1099,-244.69 1099,-236 1099,-227.48"/>
<polygon fill="black" stroke="black" points="1102.5,-227.21 1099,-217.21 1095.5,-227.21 1102.5,-227.21"/>
</g>
<!-- 18 -->
<g id="node19" class="node">
<title>18</title>
<polygon fill="none" stroke="black" points="1402,-217 1214,-217 1214,-119 1402,-119 1402,-217"/>
<text text-anchor="middle" x="1308" y="-201.8" font-family="Times,serif" font-size="14.00">node #18</text>
<text text-anchor="middle" x="1308" y="-186.8" font-family="Times,serif" font-size="14.00">FEV1PreVal &lt;= 2.825</text>
<text text-anchor="middle" x="1308" y="-171.8" font-family="Times,serif" font-size="14.00">gini = 0.324</text>
<text text-anchor="middle" x="1308" y="-156.8" font-family="Times,serif" font-size="14.00">samples = 32</text>
<text text-anchor="middle" x="1308" y="-141.8" font-family="Times,serif" font-size="14.00">value = [42.509, 10.87]</text>
<text text-anchor="middle" x="1308" y="-126.8" font-family="Times,serif" font-size="14.00">class = Non&#45;obstructive</text>
</g>
<!-- 14&#45;&gt;18 -->
<g id="edge18" class="edge">
<title>14&#45;&gt;18</title>
<path fill="none" stroke="black" d="M1175.05,-252.97C1190.6,-243.14 1207.08,-232.74 1222.93,-222.73"/>
<polygon fill="black" stroke="black" points="1225.08,-225.51 1231.66,-217.21 1221.34,-219.59 1225.08,-225.51"/>
</g>
<!-- 16 -->
<g id="node17" class="node">
<title>16</title>
<polygon fill="none" stroke="black" points="984,-83 796,-83 796,0 984,0 984,-83"/>
<text text-anchor="middle" x="890" y="-67.8" font-family="Times,serif" font-size="14.00">node #16</text>
<text text-anchor="middle" x="890" y="-52.8" font-family="Times,serif" font-size="14.00">gini = 0.456</text>
<text text-anchor="middle" x="890" y="-37.8" font-family="Times,serif" font-size="14.00">samples = 7</text>
<text text-anchor="middle" x="890" y="-22.8" font-family="Times,serif" font-size="14.00">value = [9.109, 4.941]</text>
<text text-anchor="middle" x="890" y="-7.8" font-family="Times,serif" font-size="14.00">class = Non&#45;obstructive</text>
</g>
<!-- 15&#45;&gt;16 -->
<g id="edge16" class="edge">
<title>15&#45;&gt;16</title>
<path fill="none" stroke="black" d="M1018.2,-118.87C1001.27,-108.78 983.48,-98.18 966.71,-88.19"/>
<polygon fill="black" stroke="black" points="968.42,-85.14 958.04,-83.03 964.84,-91.16 968.42,-85.14"/>
</g>
<!-- 17 -->
<g id="node18" class="node">
<title>17</title>
<polygon fill="none" stroke="black" points="1196,-83 1002,-83 1002,0 1196,0 1196,-83"/>
<text text-anchor="middle" x="1099" y="-67.8" font-family="Times,serif" font-size="14.00">node #17</text>
<text text-anchor="middle" x="1099" y="-52.8" font-family="Times,serif" font-size="14.00">gini = 0.331</text>
<text text-anchor="middle" x="1099" y="-37.8" font-family="Times,serif" font-size="14.00">samples = 45</text>
<text text-anchor="middle" x="1099" y="-22.8" font-family="Times,serif" font-size="14.00">value = [15.182, 57.314]</text>
<text text-anchor="middle" x="1099" y="-7.8" font-family="Times,serif" font-size="14.00">class = Obstructive</text>
</g>
<!-- 15&#45;&gt;17 -->
<g id="edge17" class="edge">
<title>15&#45;&gt;17</title>
<path fill="none" stroke="black" d="M1099,-118.87C1099,-110.5 1099,-101.77 1099,-93.33"/>
<polygon fill="black" stroke="black" points="1102.5,-93.23 1099,-83.23 1095.5,-93.23 1102.5,-93.23"/>
</g>
<!-- 19 -->
<g id="node20" class="node">
<title>19</title>
<polygon fill="none" stroke="black" points="1402,-83 1214,-83 1214,0 1402,0 1402,-83"/>
<text text-anchor="middle" x="1308" y="-67.8" font-family="Times,serif" font-size="14.00">node #19</text>
<text text-anchor="middle" x="1308" y="-52.8" font-family="Times,serif" font-size="14.00">gini = 0.127</text>
<text text-anchor="middle" x="1308" y="-37.8" font-family="Times,serif" font-size="14.00">samples = 25</text>
<text text-anchor="middle" x="1308" y="-22.8" font-family="Times,serif" font-size="14.00">value = [40.485, 2.964]</text>
<text text-anchor="middle" x="1308" y="-7.8" font-family="Times,serif" font-size="14.00">class = Non&#45;obstructive</text>
</g>
<!-- 18&#45;&gt;19 -->
<g id="edge19" class="edge">
<title>18&#45;&gt;19</title>
<path fill="none" stroke="black" d="M1308,-118.87C1308,-110.5 1308,-101.77 1308,-93.33"/>
<polygon fill="black" stroke="black" points="1311.5,-93.23 1308,-83.23 1304.5,-93.23 1311.5,-93.23"/>
</g>
<!-- 20 -->
<g id="node21" class="node">
<title>20</title>
<polygon fill="none" stroke="black" points="1596,-83 1420,-83 1420,0 1596,0 1596,-83"/>
<text text-anchor="middle" x="1508" y="-67.8" font-family="Times,serif" font-size="14.00">node #20</text>
<text text-anchor="middle" x="1508" y="-52.8" font-family="Times,serif" font-size="14.00">gini = 0.325</text>
<text text-anchor="middle" x="1508" y="-37.8" font-family="Times,serif" font-size="14.00">samples = 7</text>
<text text-anchor="middle" x="1508" y="-22.8" font-family="Times,serif" font-size="14.00">value = [2.024, 7.905]</text>
<text text-anchor="middle" x="1508" y="-7.8" font-family="Times,serif" font-size="14.00">class = Obstructive</text>
</g>
<!-- 18&#45;&gt;20 -->
<g id="edge20" class="edge">
<title>18&#45;&gt;20</title>
<path fill="none" stroke="black" d="M1385.33,-118.87C1401.37,-108.88 1418.24,-98.38 1434.15,-88.47"/>
<polygon fill="black" stroke="black" points="1436.25,-91.29 1442.89,-83.03 1432.55,-85.35 1436.25,-91.29"/>
</g>
</g>
</svg>
