<?xml version="1.0" encoding="UTF-8" standalone="no"?>
<!DOCTYPE svg PUBLIC "-//W3C//DTD SVG 1.1//EN"
 "http://www.w3.org/Graphics/SVG/1.1/DTD/svg11.dtd">
<!-- Generated by graphviz version 2.43.0 (0)
 -->
<!-- Title: Tree Pages: 1 -->
<svg width="2407pt" height="627pt"
 viewBox="0.00 0.00 2406.50 627.00" xmlns="http://www.w3.org/2000/svg" xmlns:xlink="http://www.w3.org/1999/xlink">
<g id="graph0" class="graph" transform="scale(1 1) rotate(0) translate(4 623)">
<title>Tree</title>
<polygon fill="white" stroke="transparent" points="-4,4 -4,-623 2402.5,-623 2402.5,4 -4,4"/>
<!-- 0 -->
<g id="node1" class="node">
<title>0</title>
<polygon fill="none" stroke="black" points="1277,-619 1062,-619 1062,-521 1277,-521 1277,-619"/>
<text text-anchor="middle" x="1169.5" y="-603.8" font-family="Times,serif" font-size="14.00">node #0</text>
<text text-anchor="middle" x="1169.5" y="-588.8" font-family="Times,serif" font-size="14.00">FEFPostPercent &lt;= 47.389</text>
<text text-anchor="middle" x="1169.5" y="-573.8" font-family="Times,serif" font-size="14.00">gini = 0.5</text>
<text text-anchor="middle" x="1169.5" y="-558.8" font-family="Times,serif" font-size="14.00">samples = 209</text>
<text text-anchor="middle" x="1169.5" y="-543.8" font-family="Times,serif" font-size="14.00">value = [167.0, 167.0]</text>
<text text-anchor="middle" x="1169.5" y="-528.8" font-family="Times,serif" font-size="14.00">class = Obstructive</text>
</g>
<!-- 1 -->
<g id="node2" class="node">
<title>1</title>
<polygon fill="none" stroke="black" points="1071,-485 868,-485 868,-387 1071,-387 1071,-485"/>
<text text-anchor="middle" x="969.5" y="-469.8" font-family="Times,serif" font-size="14.00">node #1</text>
<text text-anchor="middle" x="969.5" y="-454.8" font-family="Times,serif" font-size="14.00">FEFPrePercent &lt;= 32.5</text>
<text text-anchor="middle" x="969.5" y="-439.8" font-family="Times,serif" font-size="14.00">gini = 0.206</text>
<text text-anchor="middle" x="969.5" y="-424.8" font-family="Times,serif" font-size="14.00">samples = 82</text>
<text text-anchor="middle" x="969.5" y="-409.8" font-family="Times,serif" font-size="14.00">value = [15.559, 117.769]</text>
<text text-anchor="middle" x="969.5" y="-394.8" font-family="Times,serif" font-size="14.00">class = Obstructive</text>
</g>
<!-- 0&#45;&gt;1 -->
<g id="edge1" class="edge">
<title>0&#45;&gt;1</title>
<path fill="none" stroke="black" d="M1096.73,-520.97C1081.84,-511.14 1066.08,-500.74 1050.91,-490.73"/>
<polygon fill="black" stroke="black" points="1052.83,-487.8 1042.55,-485.21 1048.97,-493.64 1052.83,-487.8"/>
<text text-anchor="middle" x="1047.57" y="-506.01" font-family="Times,serif" font-size="14.00">True</text>
</g>
<!-- 14 -->
<g id="node15" class="node">
<title>14</title>
<polygon fill="none" stroke="black" points="1487,-485 1284,-485 1284,-387 1487,-387 1487,-485"/>
<text text-anchor="middle" x="1385.5" y="-469.8" font-family="Times,serif" font-size="14.00">node #14</text>
<text text-anchor="middle" x="1385.5" y="-454.8" font-family="Times,serif" font-size="14.00">FEFPrePercent &lt;= 57.5</text>
<text text-anchor="middle" x="1385.5" y="-439.8" font-family="Times,serif" font-size="14.00">gini = 0.37</text>
<text text-anchor="middle" x="1385.5" y="-424.8" font-family="Times,serif" font-size="14.00">samples = 127</text>
<text text-anchor="middle" x="1385.5" y="-409.8" font-family="Times,serif" font-size="14.00">value = [151.441, 49.231]</text>
<text text-anchor="middle" x="1385.5" y="-394.8" font-family="Times,serif" font-size="14.00">class = Non&#45;obstructive</text>
</g>
<!-- 0&#45;&gt;14 -->
<g id="edge14" class="edge">
<title>0&#45;&gt;14</title>
<path fill="none" stroke="black" d="M1248.09,-520.97C1264.32,-511.05 1281.51,-500.55 1298.03,-490.45"/>
<polygon fill="black" stroke="black" points="1299.9,-493.41 1306.6,-485.21 1296.25,-487.44 1299.9,-493.41"/>
<text text-anchor="middle" x="1300.74" y="-505.82" font-family="Times,serif" font-size="14.00">False</text>
</g>
<!-- 2 -->
<g id="node3" class="node">
<title>2</title>
<polygon fill="none" stroke="black" points="676,-351 491,-351 491,-253 676,-253 676,-351"/>
<text text-anchor="middle" x="583.5" y="-335.8" font-family="Times,serif" font-size="14.00">node #2</text>
<text text-anchor="middle" x="583.5" y="-320.8" font-family="Times,serif" font-size="14.00">FEFPreVal &lt;= 0.56</text>
<text text-anchor="middle" x="583.5" y="-305.8" font-family="Times,serif" font-size="14.00">gini = 0.101</text>
<text text-anchor="middle" x="583.5" y="-290.8" font-family="Times,serif" font-size="14.00">samples = 59</text>
<text text-anchor="middle" x="583.5" y="-275.8" font-family="Times,serif" font-size="14.00">value = [5.186, 91.705]</text>
<text text-anchor="middle" x="583.5" y="-260.8" font-family="Times,serif" font-size="14.00">class = Obstructive</text>
</g>
<!-- 1&#45;&gt;2 -->
<g id="edge2" class="edge">
<title>1&#45;&gt;2</title>
<path fill="none" stroke="black" d="M867.83,-400.23C811.66,-381.03 742.09,-357.23 685.82,-337.99"/>
<polygon fill="black" stroke="black" points="686.79,-334.62 676.19,-334.7 684.52,-341.25 686.79,-334.62"/>
</g>
<!-- 9 -->
<g id="node10" class="node">
<title>9</title>
<polygon fill="none" stroke="black" points="1066.5,-351 872.5,-351 872.5,-253 1066.5,-253 1066.5,-351"/>
<text text-anchor="middle" x="969.5" y="-335.8" font-family="Times,serif" font-size="14.00">node #9</text>
<text text-anchor="middle" x="969.5" y="-320.8" font-family="Times,serif" font-size="14.00">FVCPrePercent &lt;= 65.0</text>
<text text-anchor="middle" x="969.5" y="-305.8" font-family="Times,serif" font-size="14.00">gini = 0.407</text>
<text text-anchor="middle" x="969.5" y="-290.8" font-family="Times,serif" font-size="14.00">samples = 23</text>
<text text-anchor="middle" x="969.5" y="-275.8" font-family="Times,serif" font-size="14.00">value = [10.373, 26.064]</text>
<text text-anchor="middle" x="969.5" y="-260.8" font-family="Times,serif" font-size="14.00">class = Obstructive</text>
</g>
<!-- 1&#45;&gt;9 -->
<g id="edge9" class="edge">
<title>1&#45;&gt;9</title>
<path fill="none" stroke="black" d="M969.5,-386.97C969.5,-378.69 969.5,-370 969.5,-361.48"/>
<polygon fill="black" stroke="black" points="973,-361.21 969.5,-351.21 966,-361.21 973,-361.21"/>
</g>
<!-- 3 -->
<g id="node4" class="node">
<title>3</title>
<polygon fill="none" stroke="black" points="390,-217 205,-217 205,-119 390,-119 390,-217"/>
<text text-anchor="middle" x="297.5" y="-201.8" font-family="Times,serif" font-size="14.00">node #3</text>
<text text-anchor="middle" x="297.5" y="-186.8" font-family="Times,serif" font-size="14.00">FEFPreVal &lt;= 0.54</text>
<text text-anchor="middle" x="297.5" y="-171.8" font-family="Times,serif" font-size="14.00">gini = 0.199</text>
<text text-anchor="middle" x="297.5" y="-156.8" font-family="Times,serif" font-size="14.00">samples = 22</text>
<text text-anchor="middle" x="297.5" y="-141.8" font-family="Times,serif" font-size="14.00">value = [4.149, 32.821]</text>
<text text-anchor="middle" x="297.5" y="-126.8" font-family="Times,serif" font-size="14.00">class = Obstructive</text>
</g>
<!-- 2&#45;&gt;3 -->
<g id="edge3" class="edge">
<title>2&#45;&gt;3</title>
<path fill="none" stroke="black" d="M490.64,-258.14C461.52,-244.7 429.23,-229.8 399.51,-216.08"/>
<polygon fill="black" stroke="black" points="400.93,-212.88 390.38,-211.87 397.99,-219.24 400.93,-212.88"/>
</g>
<!-- 6 -->
<g id="node7" class="node">
<title>6</title>
<polygon fill="none" stroke="black" points="682,-217 485,-217 485,-119 682,-119 682,-217"/>
<text text-anchor="middle" x="583.5" y="-201.8" font-family="Times,serif" font-size="14.00">node #6</text>
<text text-anchor="middle" x="583.5" y="-186.8" font-family="Times,serif" font-size="14.00">FVCPostPercent &lt;= 41.0</text>
<text text-anchor="middle" x="583.5" y="-171.8" font-family="Times,serif" font-size="14.00">gini = 0.034</text>
<text text-anchor="middle" x="583.5" y="-156.8" font-family="Times,serif" font-size="14.00">samples = 37</text>
<text text-anchor="middle" x="583.5" y="-141.8" font-family="Times,serif" font-size="14.00">value = [1.037, 58.884]</text>
<text text-anchor="middle" x="583.5" y="-126.8" font-family="Times,serif" font-size="14.00">class = Obstructive</text>
</g>
<!-- 2&#45;&gt;6 -->
<g id="edge6" class="edge">
<title>2&#45;&gt;6</title>
<path fill="none" stroke="black" d="M583.5,-252.97C583.5,-244.69 583.5,-236 583.5,-227.48"/>
<polygon fill="black" stroke="black" points="587,-227.21 583.5,-217.21 580,-227.21 587,-227.21"/>
</g>
<!-- 4 -->
<g id="node5" class="node">
<title>4</title>
<polygon fill="none" stroke="black" points="185,-83 0,-83 0,0 185,0 185,-83"/>
<text text-anchor="middle" x="92.5" y="-67.8" font-family="Times,serif" font-size="14.00">node #4</text>
<text text-anchor="middle" x="92.5" y="-52.8" font-family="Times,serif" font-size="14.00">gini = 0.158</text>
<text text-anchor="middle" x="92.5" y="-37.8" font-family="Times,serif" font-size="14.00">samples = 21</text>
<text text-anchor="middle" x="92.5" y="-22.8" font-family="Times,serif" font-size="14.00">value = [3.112, 32.821]</text>
<text text-anchor="middle" x="92.5" y="-7.8" font-family="Times,serif" font-size="14.00">class = Obstructive</text>
</g>
<!-- 3&#45;&gt;4 -->
<g id="edge4" class="edge">
<title>3&#45;&gt;4</title>
<path fill="none" stroke="black" d="M218.24,-118.87C201.8,-108.88 184.51,-98.38 168.19,-88.47"/>
<polygon fill="black" stroke="black" points="169.6,-85.23 159.24,-83.03 165.97,-91.21 169.6,-85.23"/>
</g>
<!-- 5 -->
<g id="node6" class="node">
<title>5</title>
<polygon fill="none" stroke="black" points="391.5,-83 203.5,-83 203.5,0 391.5,0 391.5,-83"/>
<text text-anchor="middle" x="297.5" y="-67.8" font-family="Times,serif" font-size="14.00">node #5</text>
<text text-anchor="middle" x="297.5" y="-52.8" font-family="Times,serif" font-size="14.00">gini = 0.0</text>
<text text-anchor="middle" x="297.5" y="-37.8" font-family="Times,serif" font-size="14.00">samples = 1</text>
<text text-anchor="middle" x="297.5" y="-22.8" font-family="Times,serif" font-size="14.00">value = [1.037, 0.0]</text>
<text text-anchor="middle" x="297.5" y="-7.8" font-family="Times,serif" font-size="14.00">class = Non&#45;obstructive</text>
</g>
<!-- 3&#45;&gt;5 -->
<g id="edge5" class="edge">
<title>3&#45;&gt;5</title>
<path fill="none" stroke="black" d="M297.5,-118.87C297.5,-110.5 297.5,-101.77 297.5,-93.33"/>
<polygon fill="black" stroke="black" points="301,-93.23 297.5,-83.23 294,-93.23 301,-93.23"/>
</g>
<!-- 7 -->
<g id="node8" class="node">
<title>7</title>
<polygon fill="none" stroke="black" points="597.5,-83 409.5,-83 409.5,0 597.5,0 597.5,-83"/>
<text text-anchor="middle" x="503.5" y="-67.8" font-family="Times,serif" font-size="14.00">node #7</text>
<text text-anchor="middle" x="503.5" y="-52.8" font-family="Times,serif" font-size="14.00">gini = 0.0</text>
<text text-anchor="middle" x="503.5" y="-37.8" font-family="Times,serif" font-size="14.00">samples = 1</text>
<text text-anchor="middle" x="503.5" y="-22.8" font-family="Times,serif" font-size="14.00">value = [1.037, 0.0]</text>
<text text-anchor="middle" x="503.5" y="-7.8" font-family="Times,serif" font-size="14.00">class = Non&#45;obstructive</text>
</g>
<!-- 6&#45;&gt;7 -->
<g id="edge7" class="edge">
<title>6&#45;&gt;7</title>
<path fill="none" stroke="black" d="M552.57,-118.87C546.84,-109.95 540.85,-100.62 535.1,-91.67"/>
<polygon fill="black" stroke="black" points="538.02,-89.75 529.67,-83.23 532.13,-93.54 538.02,-89.75"/>
</g>
<!-- 8 -->
<g id="node9" class="node">
<title>8</title>
<polygon fill="none" stroke="black" points="783,-83 616,-83 616,0 783,0 783,-83"/>
<text text-anchor="middle" x="699.5" y="-67.8" font-family="Times,serif" font-size="14.00">node #8</text>
<text text-anchor="middle" x="699.5" y="-52.8" font-family="Times,serif" font-size="14.00">gini = 0.0</text>
<text text-anchor="middle" x="699.5" y="-37.8" font-family="Times,serif" font-size="14.00">samples = 36</text>
<text text-anchor="middle" x="699.5" y="-22.8" font-family="Times,serif" font-size="14.00">value = [0.0, 58.884]</text>
<text text-anchor="middle" x="699.5" y="-7.8" font-family="Times,serif" font-size="14.00">class = Obstructive</text>
</g>
<!-- 6&#45;&gt;8 -->
<g id="edge8" class="edge">
<title>6&#45;&gt;8</title>
<path fill="none" stroke="black" d="M628.35,-118.87C637,-109.58 646.07,-99.85 654.72,-90.56"/>
<polygon fill="black" stroke="black" points="657.29,-92.93 661.55,-83.23 652.17,-88.16 657.29,-92.93"/>
</g>
<!-- 10 -->
<g id="node11" class="node">
<title>10</title>
<polygon fill="none" stroke="black" points="982.5,-217 776.5,-217 776.5,-119 982.5,-119 982.5,-217"/>
<text text-anchor="middle" x="879.5" y="-201.8" font-family="Times,serif" font-size="14.00">node #10</text>
<text text-anchor="middle" x="879.5" y="-186.8" font-family="Times,serif" font-size="14.00">FEV1PostPercent &lt;= 26.5</text>
<text text-anchor="middle" x="879.5" y="-171.8" font-family="Times,serif" font-size="14.00">gini = 0.433</text>
<text text-anchor="middle" x="879.5" y="-156.8" font-family="Times,serif" font-size="14.00">samples = 10</text>
<text text-anchor="middle" x="879.5" y="-141.8" font-family="Times,serif" font-size="14.00">value = [10.373, 4.827]</text>
<text text-anchor="middle" x="879.5" y="-126.8" font-family="Times,serif" font-size="14.00">class = Non&#45;obstructive</text>
</g>
<!-- 9&#45;&gt;10 -->
<g id="edge10" class="edge">
<title>9&#45;&gt;10</title>
<path fill="none" stroke="black" d="M936.75,-252.97C930.67,-244.05 924.27,-234.66 918.04,-225.52"/>
<polygon fill="black" stroke="black" points="920.9,-223.5 912.37,-217.21 915.11,-227.45 920.9,-223.5"/>
</g>
<!-- 13 -->
<g id="node14" class="node">
<title>13</title>
<polygon fill="none" stroke="black" points="1168,-209.5 1001,-209.5 1001,-126.5 1168,-126.5 1168,-209.5"/>
<text text-anchor="middle" x="1084.5" y="-194.3" font-family="Times,serif" font-size="14.00">node #13</text>
<text text-anchor="middle" x="1084.5" y="-179.3" font-family="Times,serif" font-size="14.00">gini = 0.0</text>
<text text-anchor="middle" x="1084.5" y="-164.3" font-family="Times,serif" font-size="14.00">samples = 13</text>
<text text-anchor="middle" x="1084.5" y="-149.3" font-family="Times,serif" font-size="14.00">value = [0.0, 21.237]</text>
<text text-anchor="middle" x="1084.5" y="-134.3" font-family="Times,serif" font-size="14.00">class = Obstructive</text>
</g>
<!-- 9&#45;&gt;13 -->
<g id="edge13" class="edge">
<title>9&#45;&gt;13</title>
<path fill="none" stroke="black" d="M1011.34,-252.97C1021.36,-241.47 1032.07,-229.18 1042.11,-217.66"/>
<polygon fill="black" stroke="black" points="1045.01,-219.66 1048.94,-209.82 1039.73,-215.06 1045.01,-219.66"/>
</g>
<!-- 11 -->
<g id="node12" class="node">
<title>11</title>
<polygon fill="none" stroke="black" points="958.5,-83 800.5,-83 800.5,0 958.5,0 958.5,-83"/>
<text text-anchor="middle" x="879.5" y="-67.8" font-family="Times,serif" font-size="14.00">node #11</text>
<text text-anchor="middle" x="879.5" y="-52.8" font-family="Times,serif" font-size="14.00">gini = 0.0</text>
<text text-anchor="middle" x="879.5" y="-37.8" font-family="Times,serif" font-size="14.00">samples = 1</text>
<text text-anchor="middle" x="879.5" y="-22.8" font-family="Times,serif" font-size="14.00">value = [0.0, 3.861]</text>
<text text-anchor="middle" x="879.5" y="-7.8" font-family="Times,serif" font-size="14.00">class = Obstructive</text>
</g>
<!-- 10&#45;&gt;11 -->
<g id="edge11" class="edge">
<title>10&#45;&gt;11</title>
<path fill="none" stroke="black" d="M879.5,-118.87C879.5,-110.5 879.5,-101.77 879.5,-93.33"/>
<polygon fill="black" stroke="black" points="883,-93.23 879.5,-83.23 876,-93.23 883,-93.23"/>
</g>
<!-- 12 -->
<g id="node13" class="node">
<title>12</title>
<polygon fill="none" stroke="black" points="1164.5,-83 976.5,-83 976.5,0 1164.5,0 1164.5,-83"/>
<text text-anchor="middle" x="1070.5" y="-67.8" font-family="Times,serif" font-size="14.00">node #12</text>
<text text-anchor="middle" x="1070.5" y="-52.8" font-family="Times,serif" font-size="14.00">gini = 0.156</text>
<text text-anchor="middle" x="1070.5" y="-37.8" font-family="Times,serif" font-size="14.00">samples = 9</text>
<text text-anchor="middle" x="1070.5" y="-22.8" font-family="Times,serif" font-size="14.00">value = [10.373, 0.965]</text>
<text text-anchor="middle" x="1070.5" y="-7.8" font-family="Times,serif" font-size="14.00">class = Non&#45;obstructive</text>
</g>
<!-- 10&#45;&gt;12 -->
<g id="edge12" class="edge">
<title>10&#45;&gt;12</title>
<path fill="none" stroke="black" d="M953.35,-118.87C968.53,-108.97 984.48,-98.57 999.55,-88.74"/>
<polygon fill="black" stroke="black" points="1001.85,-91.43 1008.32,-83.03 998.03,-85.56 1001.85,-91.43"/>
</g>
<!-- 15 -->
<g id="node16" class="node">
<title>15</title>
<polygon fill="none" stroke="black" points="1488.5,-351 1282.5,-351 1282.5,-253 1488.5,-253 1488.5,-351"/>
<text text-anchor="middle" x="1385.5" y="-335.8" font-family="Times,serif" font-size="14.00">node #15</text>
<text text-anchor="middle" x="1385.5" y="-320.8" font-family="Times,serif" font-size="14.00">FEV1PostPercent &lt;= 51.5</text>
<text text-anchor="middle" x="1385.5" y="-305.8" font-family="Times,serif" font-size="14.00">gini = 0.444</text>
<text text-anchor="middle" x="1385.5" y="-290.8" font-family="Times,serif" font-size="14.00">samples = 26</text>
<text text-anchor="middle" x="1385.5" y="-275.8" font-family="Times,serif" font-size="14.00">value = [13.484, 27.029]</text>
<text text-anchor="middle" x="1385.5" y="-260.8" font-family="Times,serif" font-size="14.00">class = Obstructive</text>
</g>
<!-- 14&#45;&gt;15 -->
<g id="edge15" class="edge">
<title>14&#45;&gt;15</title>
<path fill="none" stroke="black" d="M1385.5,-386.97C1385.5,-378.69 1385.5,-370 1385.5,-361.48"/>
<polygon fill="black" stroke="black" points="1389,-361.21 1385.5,-351.21 1382,-361.21 1389,-361.21"/>
</g>
<!-- 20 -->
<g id="node21" class="node">
<title>20</title>
<polygon fill="none" stroke="black" points="1897,-351 1694,-351 1694,-253 1897,-253 1897,-351"/>
<text text-anchor="middle" x="1795.5" y="-335.8" font-family="Times,serif" font-size="14.00">node #20</text>
<text text-anchor="middle" x="1795.5" y="-320.8" font-family="Times,serif" font-size="14.00">FVCPostVal &lt;= 3.34</text>
<text text-anchor="middle" x="1795.5" y="-305.8" font-family="Times,serif" font-size="14.00">gini = 0.239</text>
<text text-anchor="middle" x="1795.5" y="-290.8" font-family="Times,serif" font-size="14.00">samples = 101</text>
<text text-anchor="middle" x="1795.5" y="-275.8" font-family="Times,serif" font-size="14.00">value = [137.957, 22.202]</text>
<text text-anchor="middle" x="1795.5" y="-260.8" font-family="Times,serif" font-size="14.00">class = Non&#45;obstructive</text>
</g>
<!-- 14&#45;&gt;20 -->
<g id="edge20" class="edge">
<title>14&#45;&gt;20</title>
<path fill="none" stroke="black" d="M1487.11,-402.29C1546.88,-383.04 1622.52,-358.69 1683.94,-338.92"/>
<polygon fill="black" stroke="black" points="1685.22,-342.18 1693.67,-335.79 1683.08,-335.52 1685.22,-342.18"/>
</g>
<!-- 16 -->
<g id="node17" class="node">
<title>16</title>
<polygon fill="none" stroke="black" points="1374.5,-209.5 1186.5,-209.5 1186.5,-126.5 1374.5,-126.5 1374.5,-209.5"/>
<text text-anchor="middle" x="1280.5" y="-194.3" font-family="Times,serif" font-size="14.00">node #16</text>
<text text-anchor="middle" x="1280.5" y="-179.3" font-family="Times,serif" font-size="14.00">gini = 0.0</text>
<text text-anchor="middle" x="1280.5" y="-164.3" font-family="Times,serif" font-size="14.00">samples = 4</text>
<text text-anchor="middle" x="1280.5" y="-149.3" font-family="Times,serif" font-size="14.00">value = [6.224, 0.0]</text>
<text text-anchor="middle" x="1280.5" y="-134.3" font-family="Times,serif" font-size="14.00">class = Non&#45;obstructive</text>
</g>
<!-- 15&#45;&gt;16 -->
<g id="edge16" class="edge">
<title>15&#45;&gt;16</title>
<path fill="none" stroke="black" d="M1347.3,-252.97C1338.15,-241.47 1328.37,-229.18 1319.2,-217.66"/>
<polygon fill="black" stroke="black" points="1321.93,-215.46 1312.97,-209.82 1316.45,-219.82 1321.93,-215.46"/>
</g>
<!-- 17 -->
<g id="node18" class="node">
<title>17</title>
<polygon fill="none" stroke="black" points="1590,-217 1393,-217 1393,-119 1590,-119 1590,-217"/>
<text text-anchor="middle" x="1491.5" y="-201.8" font-family="Times,serif" font-size="14.00">node #17</text>
<text text-anchor="middle" x="1491.5" y="-186.8" font-family="Times,serif" font-size="14.00">FEFPostPercent &lt;= 60.5</text>
<text text-anchor="middle" x="1491.5" y="-171.8" font-family="Times,serif" font-size="14.00">gini = 0.334</text>
<text text-anchor="middle" x="1491.5" y="-156.8" font-family="Times,serif" font-size="14.00">samples = 22</text>
<text text-anchor="middle" x="1491.5" y="-141.8" font-family="Times,serif" font-size="14.00">value = [7.261, 27.029]</text>
<text text-anchor="middle" x="1491.5" y="-126.8" font-family="Times,serif" font-size="14.00">class = Obstructive</text>
</g>
<!-- 15&#45;&gt;17 -->
<g id="edge17" class="edge">
<title>15&#45;&gt;17</title>
<path fill="none" stroke="black" d="M1424.07,-252.97C1431.3,-243.96 1438.92,-234.47 1446.34,-225.24"/>
<polygon fill="black" stroke="black" points="1449.25,-227.2 1452.78,-217.21 1443.79,-222.82 1449.25,-227.2"/>
</g>
<!-- 18 -->
<g id="node19" class="node">
<title>18</title>
<polygon fill="none" stroke="black" points="1395,-83 1210,-83 1210,0 1395,0 1395,-83"/>
<text text-anchor="middle" x="1302.5" y="-67.8" font-family="Times,serif" font-size="14.00">node #18</text>
<text text-anchor="middle" x="1302.5" y="-52.8" font-family="Times,serif" font-size="14.00">gini = 0.464</text>
<text text-anchor="middle" x="1302.5" y="-37.8" font-family="Times,serif" font-size="14.00">samples = 13</text>
<text text-anchor="middle" x="1302.5" y="-22.8" font-family="Times,serif" font-size="14.00">value = [7.261, 12.549]</text>
<text text-anchor="middle" x="1302.5" y="-7.8" font-family="Times,serif" font-size="14.00">class = Obstructive</text>
</g>
<!-- 17&#45;&gt;18 -->
<g id="edge18" class="edge">
<title>17&#45;&gt;18</title>
<path fill="none" stroke="black" d="M1418.43,-118.87C1403.41,-108.97 1387.62,-98.57 1372.7,-88.74"/>
<polygon fill="black" stroke="black" points="1374.31,-85.61 1364.03,-83.03 1370.46,-91.46 1374.31,-85.61"/>
</g>
<!-- 19 -->
<g id="node20" class="node">
<title>19</title>
<polygon fill="none" stroke="black" points="1570.5,-83 1412.5,-83 1412.5,0 1570.5,0 1570.5,-83"/>
<text text-anchor="middle" x="1491.5" y="-67.8" font-family="Times,serif" font-size="14.00">node #19</text>
<text text-anchor="middle" x="1491.5" y="-52.8" font-family="Times,serif" font-size="14.00">gini = 0.0</text>
<text text-anchor="middle" x="1491.5" y="-37.8" font-family="Times,serif" font-size="14.00">samples = 9</text>
<text text-anchor="middle" x="1491.5" y="-22.8" font-family="Times,serif" font-size="14.00">value = [0.0, 14.48]</text>
<text text-anchor="middle" x="1491.5" y="-7.8" font-family="Times,serif" font-size="14.00">class = Obstructive</text>
</g>
<!-- 17&#45;&gt;19 -->
<g id="edge19" class="edge">
<title>17&#45;&gt;19</title>
<path fill="none" stroke="black" d="M1491.5,-118.87C1491.5,-110.5 1491.5,-101.77 1491.5,-93.33"/>
<polygon fill="black" stroke="black" points="1495,-93.23 1491.5,-83.23 1488,-93.23 1495,-93.23"/>
</g>
<!-- 21 -->
<g id="node22" class="node">
<title>21</title>
<polygon fill="none" stroke="black" points="1897,-217 1694,-217 1694,-119 1897,-119 1897,-217"/>
<text text-anchor="middle" x="1795.5" y="-201.8" font-family="Times,serif" font-size="14.00">node #21</text>
<text text-anchor="middle" x="1795.5" y="-186.8" font-family="Times,serif" font-size="14.00">FEV1PreVal &lt;= 2.01</text>
<text text-anchor="middle" x="1795.5" y="-171.8" font-family="Times,serif" font-size="14.00">gini = 0.147</text>
<text text-anchor="middle" x="1795.5" y="-156.8" font-family="Times,serif" font-size="14.00">samples = 91</text>
<text text-anchor="middle" x="1795.5" y="-141.8" font-family="Times,serif" font-size="14.00">value = [133.807, 11.584]</text>
<text text-anchor="middle" x="1795.5" y="-126.8" font-family="Times,serif" font-size="14.00">class = Non&#45;obstructive</text>
</g>
<!-- 20&#45;&gt;21 -->
<g id="edge21" class="edge">
<title>20&#45;&gt;21</title>
<path fill="none" stroke="black" d="M1795.5,-252.97C1795.5,-244.69 1795.5,-236 1795.5,-227.48"/>
<polygon fill="black" stroke="black" points="1799,-227.21 1795.5,-217.21 1792,-227.21 1799,-227.21"/>
</g>
<!-- 24 -->
<g id="node25" class="node">
<title>24</title>
<polygon fill="none" stroke="black" points="2198,-217 2001,-217 2001,-119 2198,-119 2198,-217"/>
<text text-anchor="middle" x="2099.5" y="-201.8" font-family="Times,serif" font-size="14.00">node #24</text>
<text text-anchor="middle" x="2099.5" y="-186.8" font-family="Times,serif" font-size="14.00">FVCPostPercent &lt;= 97.5</text>
<text text-anchor="middle" x="2099.5" y="-171.8" font-family="Times,serif" font-size="14.00">gini = 0.404</text>
<text text-anchor="middle" x="2099.5" y="-156.8" font-family="Times,serif" font-size="14.00">samples = 10</text>
<text text-anchor="middle" x="2099.5" y="-141.8" font-family="Times,serif" font-size="14.00">value = [4.149, 10.618]</text>
<text text-anchor="middle" x="2099.5" y="-126.8" font-family="Times,serif" font-size="14.00">class = Obstructive</text>
</g>
<!-- 20&#45;&gt;24 -->
<g id="edge24" class="edge">
<title>20&#45;&gt;24</title>
<path fill="none" stroke="black" d="M1897.15,-256.86C1927.42,-243.72 1960.69,-229.27 1991.36,-215.96"/>
<polygon fill="black" stroke="black" points="1993.01,-219.06 2000.78,-211.86 1990.22,-212.64 1993.01,-219.06"/>
</g>
<!-- 22 -->
<g id="node23" class="node">
<title>22</title>
<polygon fill="none" stroke="black" points="1782.5,-83 1588.5,-83 1588.5,0 1782.5,0 1782.5,-83"/>
<text text-anchor="middle" x="1685.5" y="-67.8" font-family="Times,serif" font-size="14.00">node #22</text>
<text text-anchor="middle" x="1685.5" y="-52.8" font-family="Times,serif" font-size="14.00">gini = 0.067</text>
<text text-anchor="middle" x="1685.5" y="-37.8" font-family="Times,serif" font-size="14.00">samples = 70</text>
<text text-anchor="middle" x="1685.5" y="-22.8" font-family="Times,serif" font-size="14.00">value = [106.839, 3.861]</text>
<text text-anchor="middle" x="1685.5" y="-7.8" font-family="Times,serif" font-size="14.00">class = Non&#45;obstructive</text>
</g>
<!-- 21&#45;&gt;22 -->
<g id="edge22" class="edge">
<title>21&#45;&gt;22</title>
<path fill="none" stroke="black" d="M1752.97,-118.87C1744.85,-109.67 1736.34,-100.04 1728.21,-90.84"/>
<polygon fill="black" stroke="black" points="1730.73,-88.41 1721.49,-83.23 1725.49,-93.04 1730.73,-88.41"/>
</g>
<!-- 23 -->
<g id="node24" class="node">
<title>23</title>
<polygon fill="none" stroke="black" points="1988.5,-83 1800.5,-83 1800.5,0 1988.5,0 1988.5,-83"/>
<text text-anchor="middle" x="1894.5" y="-67.8" font-family="Times,serif" font-size="14.00">node #23</text>
<text text-anchor="middle" x="1894.5" y="-52.8" font-family="Times,serif" font-size="14.00">gini = 0.346</text>
<text text-anchor="middle" x="1894.5" y="-37.8" font-family="Times,serif" font-size="14.00">samples = 21</text>
<text text-anchor="middle" x="1894.5" y="-22.8" font-family="Times,serif" font-size="14.00">value = [26.969, 7.723]</text>
<text text-anchor="middle" x="1894.5" y="-7.8" font-family="Times,serif" font-size="14.00">class = Non&#45;obstructive</text>
</g>
<!-- 21&#45;&gt;23 -->
<g id="edge23" class="edge">
<title>21&#45;&gt;23</title>
<path fill="none" stroke="black" d="M1833.78,-118.87C1841.01,-109.76 1848.59,-100.23 1855.84,-91.12"/>
<polygon fill="black" stroke="black" points="1858.63,-93.24 1862.11,-83.23 1853.15,-88.88 1858.63,-93.24"/>
</g>
<!-- 25 -->
<g id="node26" class="node">
<title>25</title>
<polygon fill="none" stroke="black" points="2192,-83 2007,-83 2007,0 2192,0 2192,-83"/>
<text text-anchor="middle" x="2099.5" y="-67.8" font-family="Times,serif" font-size="14.00">node #25</text>
<text text-anchor="middle" x="2099.5" y="-52.8" font-family="Times,serif" font-size="14.00">gini = 0.162</text>
<text text-anchor="middle" x="2099.5" y="-37.8" font-family="Times,serif" font-size="14.00">samples = 8</text>
<text text-anchor="middle" x="2099.5" y="-22.8" font-family="Times,serif" font-size="14.00">value = [1.037, 10.618]</text>
<text text-anchor="middle" x="2099.5" y="-7.8" font-family="Times,serif" font-size="14.00">class = Obstructive</text>
</g>
<!-- 24&#45;&gt;25 -->
<g id="edge25" class="edge">
<title>24&#45;&gt;25</title>
<path fill="none" stroke="black" d="M2099.5,-118.87C2099.5,-110.5 2099.5,-101.77 2099.5,-93.33"/>
<polygon fill="black" stroke="black" points="2103,-93.23 2099.5,-83.23 2096,-93.23 2103,-93.23"/>
</g>
<!-- 26 -->
<g id="node27" class="node">
<title>26</title>
<polygon fill="none" stroke="black" points="2398.5,-83 2210.5,-83 2210.5,0 2398.5,0 2398.5,-83"/>
<text text-anchor="middle" x="2304.5" y="-67.8" font-family="Times,serif" font-size="14.00">node #26</text>
<text text-anchor="middle" x="2304.5" y="-52.8" font-family="Times,serif" font-size="14.00">gini = 0.0</text>
<text text-anchor="middle" x="2304.5" y="-37.8" font-family="Times,serif" font-size="14.00">samples = 2</text>
<text text-anchor="middle" x="2304.5" y="-22.8" font-family="Times,serif" font-size="14.00">value = [3.112, 0.0]</text>
<text text-anchor="middle" x="2304.5" y="-7.8" font-family="Times,serif" font-size="14.00">class = Non&#45;obstructive</text>
</g>
<!-- 24&#45;&gt;26 -->
<g id="edge26" class="edge">
<title>24&#45;&gt;26</title>
<path fill="none" stroke="black" d="M2178.76,-118.87C2195.2,-108.88 2212.49,-98.38 2228.81,-88.47"/>
<polygon fill="black" stroke="black" points="2231.03,-91.21 2237.76,-83.03 2227.4,-85.23 2231.03,-91.21"/>
</g>
</g>
</svg>
