<?xml version="1.0" encoding="UTF-8" standalone="no"?>
<!DOCTYPE svg PUBLIC "-//W3C//DTD SVG 1.1//EN"
 "http://www.w3.org/Graphics/SVG/1.1/DTD/svg11.dtd">
<!-- Generated by graphviz version 2.43.0 (0)
 -->
<!-- Title: Tree Pages: 1 -->
<svg width="1602pt" height="627pt"
 viewBox="0.00 0.00 1602.00 627.00" xmlns="http://www.w3.org/2000/svg" xmlns:xlink="http://www.w3.org/1999/xlink">
<g id="graph0" class="graph" transform="scale(1 1) rotate(0) translate(4 623)">
<title>Tree</title>
<polygon fill="white" stroke="transparent" points="-4,4 -4,-623 1598,-623 1598,4 -4,4"/>
<!-- 0 -->
<g id="node1" class="node">
<title>0</title>
<polygon fill="none" stroke="black" points="802,-619 614,-619 614,-521 802,-521 802,-619"/>
<text text-anchor="middle" x="708" y="-603.8" font-family="Times,serif" font-size="14.00">node #0</text>
<text text-anchor="middle" x="708" y="-588.8" font-family="Times,serif" font-size="14.00">FEFPreVal &lt;= 0.895</text>
<text text-anchor="middle" x="708" y="-573.8" font-family="Times,serif" font-size="14.00">gini = 0.5</text>
<text text-anchor="middle" x="708" y="-558.8" font-family="Times,serif" font-size="14.00">samples = 211</text>
<text text-anchor="middle" x="708" y="-543.8" font-family="Times,serif" font-size="14.00">value = [167.0, 167.0]</text>
<text text-anchor="middle" x="708" y="-528.8" font-family="Times,serif" font-size="14.00">class = Non&#45;obstructive</text>
</g>
<!-- 1 -->
<g id="node2" class="node">
<title>1</title>
<polygon fill="none" stroke="black" points="628.5,-485 437.5,-485 437.5,-387 628.5,-387 628.5,-485"/>
<text text-anchor="middle" x="533" y="-469.8" font-family="Times,serif" font-size="14.00">node #1</text>
<text text-anchor="middle" x="533" y="-454.8" font-family="Times,serif" font-size="14.00">FEFPrePercent &lt;= 84.0</text>
<text text-anchor="middle" x="533" y="-439.8" font-family="Times,serif" font-size="14.00">gini = 0.15</text>
<text text-anchor="middle" x="533" y="-424.8" font-family="Times,serif" font-size="14.00">samples = 66</text>
<text text-anchor="middle" x="533" y="-409.8" font-family="Times,serif" font-size="14.00">value = [7.952, 89.536]</text>
<text text-anchor="middle" x="533" y="-394.8" font-family="Times,serif" font-size="14.00">class = Obstructive</text>
</g>
<!-- 0&#45;&gt;1 -->
<g id="edge1" class="edge">
<title>0&#45;&gt;1</title>
<path fill="none" stroke="black" d="M644.33,-520.97C631.54,-511.33 618.02,-501.13 604.97,-491.29"/>
<polygon fill="black" stroke="black" points="607.01,-488.44 596.92,-485.21 602.8,-494.03 607.01,-488.44"/>
<text text-anchor="middle" x="600.39" y="-506.27" font-family="Times,serif" font-size="14.00">True</text>
</g>
<!-- 8 -->
<g id="node9" class="node">
<title>8</title>
<polygon fill="none" stroke="black" points="858.5,-485 655.5,-485 655.5,-387 858.5,-387 858.5,-485"/>
<text text-anchor="middle" x="757" y="-469.8" font-family="Times,serif" font-size="14.00">node #8</text>
<text text-anchor="middle" x="757" y="-454.8" font-family="Times,serif" font-size="14.00">FVCPostPercent &lt;= 61.5</text>
<text text-anchor="middle" x="757" y="-439.8" font-family="Times,serif" font-size="14.00">gini = 0.441</text>
<text text-anchor="middle" x="757" y="-424.8" font-family="Times,serif" font-size="14.00">samples = 145</text>
<text text-anchor="middle" x="757" y="-409.8" font-family="Times,serif" font-size="14.00">value = [159.048, 77.464]</text>
<text text-anchor="middle" x="757" y="-394.8" font-family="Times,serif" font-size="14.00">class = Non&#45;obstructive</text>
</g>
<!-- 0&#45;&gt;8 -->
<g id="edge8" class="edge">
<title>0&#45;&gt;8</title>
<path fill="none" stroke="black" d="M725.83,-520.97C729,-512.42 732.34,-503.43 735.6,-494.64"/>
<polygon fill="black" stroke="black" points="738.9,-495.81 739.1,-485.21 732.34,-493.37 738.9,-495.81"/>
<text text-anchor="middle" x="749.52" y="-504.24" font-family="Times,serif" font-size="14.00">False</text>
</g>
<!-- 2 -->
<g id="node3" class="node">
<title>2</title>
<polygon fill="none" stroke="black" points="403.5,-351 206.5,-351 206.5,-253 403.5,-253 403.5,-351"/>
<text text-anchor="middle" x="305" y="-335.8" font-family="Times,serif" font-size="14.00">node #2</text>
<text text-anchor="middle" x="305" y="-320.8" font-family="Times,serif" font-size="14.00">FVCPostPercent &lt;= 33.5</text>
<text text-anchor="middle" x="305" y="-305.8" font-family="Times,serif" font-size="14.00">gini = 0.117</text>
<text text-anchor="middle" x="305" y="-290.8" font-family="Times,serif" font-size="14.00">samples = 65</text>
<text text-anchor="middle" x="305" y="-275.8" font-family="Times,serif" font-size="14.00">value = [5.964, 89.536]</text>
<text text-anchor="middle" x="305" y="-260.8" font-family="Times,serif" font-size="14.00">class = Obstructive</text>
</g>
<!-- 1&#45;&gt;2 -->
<g id="edge2" class="edge">
<title>1&#45;&gt;2</title>
<path fill="none" stroke="black" d="M450.04,-386.97C432.91,-377.05 414.77,-366.55 397.33,-356.45"/>
<polygon fill="black" stroke="black" points="398.69,-353.2 388.28,-351.21 395.18,-359.25 398.69,-353.2"/>
</g>
<!-- 7 -->
<g id="node8" class="node">
<title>7</title>
<polygon fill="none" stroke="black" points="627,-343.5 439,-343.5 439,-260.5 627,-260.5 627,-343.5"/>
<text text-anchor="middle" x="533" y="-328.3" font-family="Times,serif" font-size="14.00">node #7</text>
<text text-anchor="middle" x="533" y="-313.3" font-family="Times,serif" font-size="14.00">gini = 0.0</text>
<text text-anchor="middle" x="533" y="-298.3" font-family="Times,serif" font-size="14.00">samples = 1</text>
<text text-anchor="middle" x="533" y="-283.3" font-family="Times,serif" font-size="14.00">value = [1.988, 0.0]</text>
<text text-anchor="middle" x="533" y="-268.3" font-family="Times,serif" font-size="14.00">class = Non&#45;obstructive</text>
</g>
<!-- 1&#45;&gt;7 -->
<g id="edge7" class="edge">
<title>1&#45;&gt;7</title>
<path fill="none" stroke="black" d="M533,-386.97C533,-376.25 533,-364.84 533,-353.99"/>
<polygon fill="black" stroke="black" points="536.5,-353.82 533,-343.82 529.5,-353.82 536.5,-353.82"/>
</g>
<!-- 3 -->
<g id="node4" class="node">
<title>3</title>
<polygon fill="none" stroke="black" points="188,-209.5 0,-209.5 0,-126.5 188,-126.5 188,-209.5"/>
<text text-anchor="middle" x="94" y="-194.3" font-family="Times,serif" font-size="14.00">node #3</text>
<text text-anchor="middle" x="94" y="-179.3" font-family="Times,serif" font-size="14.00">gini = 0.0</text>
<text text-anchor="middle" x="94" y="-164.3" font-family="Times,serif" font-size="14.00">samples = 1</text>
<text text-anchor="middle" x="94" y="-149.3" font-family="Times,serif" font-size="14.00">value = [0.994, 0.0]</text>
<text text-anchor="middle" x="94" y="-134.3" font-family="Times,serif" font-size="14.00">class = Non&#45;obstructive</text>
</g>
<!-- 2&#45;&gt;3 -->
<g id="edge3" class="edge">
<title>2&#45;&gt;3</title>
<path fill="none" stroke="black" d="M228.23,-252.97C208.42,-240.58 187.14,-227.27 167.51,-214.98"/>
<polygon fill="black" stroke="black" points="169.24,-211.94 158.9,-209.6 165.53,-217.87 169.24,-211.94"/>
</g>
<!-- 4 -->
<g id="node5" class="node">
<title>4</title>
<polygon fill="none" stroke="black" points="403.5,-217 206.5,-217 206.5,-119 403.5,-119 403.5,-217"/>
<text text-anchor="middle" x="305" y="-201.8" font-family="Times,serif" font-size="14.00">node #4</text>
<text text-anchor="middle" x="305" y="-186.8" font-family="Times,serif" font-size="14.00">FEFPostPercent &lt;= 24.5</text>
<text text-anchor="middle" x="305" y="-171.8" font-family="Times,serif" font-size="14.00">gini = 0.1</text>
<text text-anchor="middle" x="305" y="-156.8" font-family="Times,serif" font-size="14.00">samples = 64</text>
<text text-anchor="middle" x="305" y="-141.8" font-family="Times,serif" font-size="14.00">value = [4.97, 89.536]</text>
<text text-anchor="middle" x="305" y="-126.8" font-family="Times,serif" font-size="14.00">class = Obstructive</text>
</g>
<!-- 2&#45;&gt;4 -->
<g id="edge4" class="edge">
<title>2&#45;&gt;4</title>
<path fill="none" stroke="black" d="M305,-252.97C305,-244.69 305,-236 305,-227.48"/>
<polygon fill="black" stroke="black" points="308.5,-227.21 305,-217.21 301.5,-227.21 308.5,-227.21"/>
</g>
<!-- 5 -->
<g id="node6" class="node">
<title>5</title>
<polygon fill="none" stroke="black" points="194.5,-83 9.5,-83 9.5,0 194.5,0 194.5,-83"/>
<text text-anchor="middle" x="102" y="-67.8" font-family="Times,serif" font-size="14.00">node #5</text>
<text text-anchor="middle" x="102" y="-52.8" font-family="Times,serif" font-size="14.00">gini = 0.033</text>
<text text-anchor="middle" x="102" y="-37.8" font-family="Times,serif" font-size="14.00">samples = 38</text>
<text text-anchor="middle" x="102" y="-22.8" font-family="Times,serif" font-size="14.00">value = [0.994, 58.349]</text>
<text text-anchor="middle" x="102" y="-7.8" font-family="Times,serif" font-size="14.00">class = Obstructive</text>
</g>
<!-- 4&#45;&gt;5 -->
<g id="edge5" class="edge">
<title>4&#45;&gt;5</title>
<path fill="none" stroke="black" d="M226.51,-118.87C210.23,-108.88 193.11,-98.38 176.95,-88.47"/>
<polygon fill="black" stroke="black" points="178.44,-85.28 168.09,-83.03 174.78,-91.24 178.44,-85.28"/>
</g>
<!-- 6 -->
<g id="node7" class="node">
<title>6</title>
<polygon fill="none" stroke="black" points="397.5,-83 212.5,-83 212.5,0 397.5,0 397.5,-83"/>
<text text-anchor="middle" x="305" y="-67.8" font-family="Times,serif" font-size="14.00">node #6</text>
<text text-anchor="middle" x="305" y="-52.8" font-family="Times,serif" font-size="14.00">gini = 0.201</text>
<text text-anchor="middle" x="305" y="-37.8" font-family="Times,serif" font-size="14.00">samples = 26</text>
<text text-anchor="middle" x="305" y="-22.8" font-family="Times,serif" font-size="14.00">value = [3.976, 31.187]</text>
<text text-anchor="middle" x="305" y="-7.8" font-family="Times,serif" font-size="14.00">class = Obstructive</text>
</g>
<!-- 4&#45;&gt;6 -->
<g id="edge6" class="edge">
<title>4&#45;&gt;6</title>
<path fill="none" stroke="black" d="M305,-118.87C305,-110.5 305,-101.77 305,-93.33"/>
<polygon fill="black" stroke="black" points="308.5,-93.23 305,-83.23 301.5,-93.23 308.5,-93.23"/>
</g>
<!-- 9 -->
<g id="node10" class="node">
<title>9</title>
<polygon fill="none" stroke="black" points="851,-351 663,-351 663,-253 851,-253 851,-351"/>
<text text-anchor="middle" x="757" y="-335.8" font-family="Times,serif" font-size="14.00">node #9</text>
<text text-anchor="middle" x="757" y="-320.8" font-family="Times,serif" font-size="14.00">FEV1PreVal &lt;= 0.87</text>
<text text-anchor="middle" x="757" y="-305.8" font-family="Times,serif" font-size="14.00">gini = 0.022</text>
<text text-anchor="middle" x="757" y="-290.8" font-family="Times,serif" font-size="14.00">samples = 52</text>
<text text-anchor="middle" x="757" y="-275.8" font-family="Times,serif" font-size="14.00">value = [88.47, 1.006]</text>
<text text-anchor="middle" x="757" y="-260.8" font-family="Times,serif" font-size="14.00">class = Non&#45;obstructive</text>
</g>
<!-- 8&#45;&gt;9 -->
<g id="edge9" class="edge">
<title>8&#45;&gt;9</title>
<path fill="none" stroke="black" d="M757,-386.97C757,-378.69 757,-370 757,-361.48"/>
<polygon fill="black" stroke="black" points="760.5,-361.21 757,-351.21 753.5,-361.21 760.5,-361.21"/>
</g>
<!-- 14 -->
<g id="node15" class="node">
<title>14</title>
<polygon fill="none" stroke="black" points="1140,-351 946,-351 946,-253 1140,-253 1140,-351"/>
<text text-anchor="middle" x="1043" y="-335.8" font-family="Times,serif" font-size="14.00">node #14</text>
<text text-anchor="middle" x="1043" y="-320.8" font-family="Times,serif" font-size="14.00">FEFPrePercent &lt;= 46.5</text>
<text text-anchor="middle" x="1043" y="-305.8" font-family="Times,serif" font-size="14.00">gini = 0.499</text>
<text text-anchor="middle" x="1043" y="-290.8" font-family="Times,serif" font-size="14.00">samples = 93</text>
<text text-anchor="middle" x="1043" y="-275.8" font-family="Times,serif" font-size="14.00">value = [70.577, 76.458]</text>
<text text-anchor="middle" x="1043" y="-260.8" font-family="Times,serif" font-size="14.00">class = Obstructive</text>
</g>
<!-- 8&#45;&gt;14 -->
<g id="edge14" class="edge">
<title>8&#45;&gt;14</title>
<path fill="none" stroke="black" d="M858.64,-388.09C883.81,-376.47 910.84,-364 936.25,-352.27"/>
<polygon fill="black" stroke="black" points="937.91,-355.36 945.52,-347.99 934.98,-349 937.91,-355.36"/>
</g>
<!-- 10 -->
<g id="node11" class="node">
<title>10</title>
<polygon fill="none" stroke="black" points="653,-217 465,-217 465,-119 653,-119 653,-217"/>
<text text-anchor="middle" x="559" y="-201.8" font-family="Times,serif" font-size="14.00">node #10</text>
<text text-anchor="middle" x="559" y="-186.8" font-family="Times,serif" font-size="14.00">FVCPostVal &lt;= 0.99</text>
<text text-anchor="middle" x="559" y="-171.8" font-family="Times,serif" font-size="14.00">gini = 0.078</text>
<text text-anchor="middle" x="559" y="-156.8" font-family="Times,serif" font-size="14.00">samples = 15</text>
<text text-anchor="middle" x="559" y="-141.8" font-family="Times,serif" font-size="14.00">value = [23.857, 1.006]</text>
<text text-anchor="middle" x="559" y="-126.8" font-family="Times,serif" font-size="14.00">class = Non&#45;obstructive</text>
</g>
<!-- 9&#45;&gt;10 -->
<g id="edge10" class="edge">
<title>9&#45;&gt;10</title>
<path fill="none" stroke="black" d="M684.96,-252.97C670.35,-243.24 654.9,-232.93 640.01,-223.01"/>
<polygon fill="black" stroke="black" points="641.58,-219.85 631.32,-217.21 637.7,-225.67 641.58,-219.85"/>
</g>
<!-- 13 -->
<g id="node14" class="node">
<title>13</title>
<polygon fill="none" stroke="black" points="859,-209.5 671,-209.5 671,-126.5 859,-126.5 859,-209.5"/>
<text text-anchor="middle" x="765" y="-194.3" font-family="Times,serif" font-size="14.00">node #13</text>
<text text-anchor="middle" x="765" y="-179.3" font-family="Times,serif" font-size="14.00">gini = 0.0</text>
<text text-anchor="middle" x="765" y="-164.3" font-family="Times,serif" font-size="14.00">samples = 37</text>
<text text-anchor="middle" x="765" y="-149.3" font-family="Times,serif" font-size="14.00">value = [64.613, 0.0]</text>
<text text-anchor="middle" x="765" y="-134.3" font-family="Times,serif" font-size="14.00">class = Non&#45;obstructive</text>
</g>
<!-- 9&#45;&gt;13 -->
<g id="edge13" class="edge">
<title>9&#45;&gt;13</title>
<path fill="none" stroke="black" d="M759.91,-252.97C760.56,-242.25 761.25,-230.84 761.91,-219.99"/>
<polygon fill="black" stroke="black" points="765.41,-220.01 762.53,-209.82 758.43,-219.59 765.41,-220.01"/>
</g>
<!-- 11 -->
<g id="node12" class="node">
<title>11</title>
<polygon fill="none" stroke="black" points="604,-83 416,-83 416,0 604,0 604,-83"/>
<text text-anchor="middle" x="510" y="-67.8" font-family="Times,serif" font-size="14.00">node #11</text>
<text text-anchor="middle" x="510" y="-52.8" font-family="Times,serif" font-size="14.00">gini = 0.0</text>
<text text-anchor="middle" x="510" y="-37.8" font-family="Times,serif" font-size="14.00">samples = 13</text>
<text text-anchor="middle" x="510" y="-22.8" font-family="Times,serif" font-size="14.00">value = [22.863, 0.0]</text>
<text text-anchor="middle" x="510" y="-7.8" font-family="Times,serif" font-size="14.00">class = Non&#45;obstructive</text>
</g>
<!-- 10&#45;&gt;11 -->
<g id="edge11" class="edge">
<title>10&#45;&gt;11</title>
<path fill="none" stroke="black" d="M540.06,-118.87C536.69,-110.31 533.18,-101.39 529.79,-92.78"/>
<polygon fill="black" stroke="black" points="532.95,-91.25 526.03,-83.23 526.44,-93.82 532.95,-91.25"/>
</g>
<!-- 12 -->
<g id="node13" class="node">
<title>12</title>
<polygon fill="none" stroke="black" points="798,-83 622,-83 622,0 798,0 798,-83"/>
<text text-anchor="middle" x="710" y="-67.8" font-family="Times,serif" font-size="14.00">node #12</text>
<text text-anchor="middle" x="710" y="-52.8" font-family="Times,serif" font-size="14.00">gini = 0.5</text>
<text text-anchor="middle" x="710" y="-37.8" font-family="Times,serif" font-size="14.00">samples = 2</text>
<text text-anchor="middle" x="710" y="-22.8" font-family="Times,serif" font-size="14.00">value = [0.994, 1.006]</text>
<text text-anchor="middle" x="710" y="-7.8" font-family="Times,serif" font-size="14.00">class = Obstructive</text>
</g>
<!-- 10&#45;&gt;12 -->
<g id="edge12" class="edge">
<title>10&#45;&gt;12</title>
<path fill="none" stroke="black" d="M617.38,-118.87C628.98,-109.3 641.15,-99.27 652.71,-89.74"/>
<polygon fill="black" stroke="black" points="655.11,-92.29 660.6,-83.23 650.66,-86.89 655.11,-92.29"/>
</g>
<!-- 15 -->
<g id="node16" class="node">
<title>15</title>
<polygon fill="none" stroke="black" points="1141.5,-217 944.5,-217 944.5,-119 1141.5,-119 1141.5,-217"/>
<text text-anchor="middle" x="1043" y="-201.8" font-family="Times,serif" font-size="14.00">node #15</text>
<text text-anchor="middle" x="1043" y="-186.8" font-family="Times,serif" font-size="14.00">FEFPostPercent &lt;= 51.0</text>
<text text-anchor="middle" x="1043" y="-171.8" font-family="Times,serif" font-size="14.00">gini = 0.043</text>
<text text-anchor="middle" x="1043" y="-156.8" font-family="Times,serif" font-size="14.00">samples = 22</text>
<text text-anchor="middle" x="1043" y="-141.8" font-family="Times,serif" font-size="14.00">value = [0.994, 44.265]</text>
<text text-anchor="middle" x="1043" y="-126.8" font-family="Times,serif" font-size="14.00">class = Obstructive</text>
</g>
<!-- 14&#45;&gt;15 -->
<g id="edge15" class="edge">
<title>14&#45;&gt;15</title>
<path fill="none" stroke="black" d="M1043,-252.97C1043,-244.69 1043,-236 1043,-227.48"/>
<polygon fill="black" stroke="black" points="1046.5,-227.21 1043,-217.21 1039.5,-227.21 1046.5,-227.21"/>
</g>
<!-- 18 -->
<g id="node19" class="node">
<title>18</title>
<polygon fill="none" stroke="black" points="1388,-217 1194,-217 1194,-119 1388,-119 1388,-217"/>
<text text-anchor="middle" x="1291" y="-201.8" font-family="Times,serif" font-size="14.00">node #18</text>
<text text-anchor="middle" x="1291" y="-186.8" font-family="Times,serif" font-size="14.00">FEFPrePercent &lt;= 80.5</text>
<text text-anchor="middle" x="1291" y="-171.8" font-family="Times,serif" font-size="14.00">gini = 0.433</text>
<text text-anchor="middle" x="1291" y="-156.8" font-family="Times,serif" font-size="14.00">samples = 71</text>
<text text-anchor="middle" x="1291" y="-141.8" font-family="Times,serif" font-size="14.00">value = [69.583, 32.193]</text>
<text text-anchor="middle" x="1291" y="-126.8" font-family="Times,serif" font-size="14.00">class = Non&#45;obstructive</text>
</g>
<!-- 14&#45;&gt;18 -->
<g id="edge18" class="edge">
<title>14&#45;&gt;18</title>
<path fill="none" stroke="black" d="M1133.24,-252.97C1152.13,-242.92 1172.15,-232.26 1191.36,-222.04"/>
<polygon fill="black" stroke="black" points="1193.23,-225 1200.42,-217.21 1189.94,-218.82 1193.23,-225"/>
</g>
<!-- 16 -->
<g id="node17" class="node">
<title>16</title>
<polygon fill="none" stroke="black" points="982.5,-83 815.5,-83 815.5,0 982.5,0 982.5,-83"/>
<text text-anchor="middle" x="899" y="-67.8" font-family="Times,serif" font-size="14.00">node #16</text>
<text text-anchor="middle" x="899" y="-52.8" font-family="Times,serif" font-size="14.00">gini = 0.0</text>
<text text-anchor="middle" x="899" y="-37.8" font-family="Times,serif" font-size="14.00">samples = 19</text>
<text text-anchor="middle" x="899" y="-22.8" font-family="Times,serif" font-size="14.00">value = [0.0, 42.253]</text>
<text text-anchor="middle" x="899" y="-7.8" font-family="Times,serif" font-size="14.00">class = Obstructive</text>
</g>
<!-- 15&#45;&gt;16 -->
<g id="edge16" class="edge">
<title>15&#45;&gt;16</title>
<path fill="none" stroke="black" d="M987.33,-118.87C976.37,-109.39 964.89,-99.46 953.96,-90.01"/>
<polygon fill="black" stroke="black" points="955.96,-87.12 946.11,-83.23 951.39,-92.42 955.96,-87.12"/>
</g>
<!-- 17 -->
<g id="node18" class="node">
<title>17</title>
<polygon fill="none" stroke="black" points="1176,-83 1000,-83 1000,0 1176,0 1176,-83"/>
<text text-anchor="middle" x="1088" y="-67.8" font-family="Times,serif" font-size="14.00">node #17</text>
<text text-anchor="middle" x="1088" y="-52.8" font-family="Times,serif" font-size="14.00">gini = 0.443</text>
<text text-anchor="middle" x="1088" y="-37.8" font-family="Times,serif" font-size="14.00">samples = 3</text>
<text text-anchor="middle" x="1088" y="-22.8" font-family="Times,serif" font-size="14.00">value = [0.994, 2.012]</text>
<text text-anchor="middle" x="1088" y="-7.8" font-family="Times,serif" font-size="14.00">class = Obstructive</text>
</g>
<!-- 15&#45;&gt;17 -->
<g id="edge17" class="edge">
<title>15&#45;&gt;17</title>
<path fill="none" stroke="black" d="M1060.4,-118.87C1063.49,-110.31 1066.72,-101.39 1069.83,-92.78"/>
<polygon fill="black" stroke="black" points="1073.17,-93.83 1073.28,-83.23 1066.59,-91.45 1073.17,-93.83"/>
</g>
<!-- 19 -->
<g id="node20" class="node">
<title>19</title>
<polygon fill="none" stroke="black" points="1388,-83 1194,-83 1194,0 1388,0 1388,-83"/>
<text text-anchor="middle" x="1291" y="-67.8" font-family="Times,serif" font-size="14.00">node #19</text>
<text text-anchor="middle" x="1291" y="-52.8" font-family="Times,serif" font-size="14.00">gini = 0.5</text>
<text text-anchor="middle" x="1291" y="-37.8" font-family="Times,serif" font-size="14.00">samples = 41</text>
<text text-anchor="middle" x="1291" y="-22.8" font-family="Times,serif" font-size="14.00">value = [28.827, 27.163]</text>
<text text-anchor="middle" x="1291" y="-7.8" font-family="Times,serif" font-size="14.00">class = Non&#45;obstructive</text>
</g>
<!-- 18&#45;&gt;19 -->
<g id="edge19" class="edge">
<title>18&#45;&gt;19</title>
<path fill="none" stroke="black" d="M1291,-118.87C1291,-110.5 1291,-101.77 1291,-93.33"/>
<polygon fill="black" stroke="black" points="1294.5,-93.23 1291,-83.23 1287.5,-93.23 1294.5,-93.23"/>
</g>
<!-- 20 -->
<g id="node21" class="node">
<title>20</title>
<polygon fill="none" stroke="black" points="1594,-83 1406,-83 1406,0 1594,0 1594,-83"/>
<text text-anchor="middle" x="1500" y="-67.8" font-family="Times,serif" font-size="14.00">node #20</text>
<text text-anchor="middle" x="1500" y="-52.8" font-family="Times,serif" font-size="14.00">gini = 0.196</text>
<text text-anchor="middle" x="1500" y="-37.8" font-family="Times,serif" font-size="14.00">samples = 30</text>
<text text-anchor="middle" x="1500" y="-22.8" font-family="Times,serif" font-size="14.00">value = [40.756, 5.03]</text>
<text text-anchor="middle" x="1500" y="-7.8" font-family="Times,serif" font-size="14.00">class = Non&#45;obstructive</text>
</g>
<!-- 18&#45;&gt;20 -->
<g id="edge20" class="edge">
<title>18&#45;&gt;20</title>
<path fill="none" stroke="black" d="M1371.8,-118.87C1388.73,-108.78 1406.52,-98.18 1423.29,-88.19"/>
<polygon fill="black" stroke="black" points="1425.16,-91.16 1431.96,-83.03 1421.58,-85.14 1425.16,-91.16"/>
</g>
</g>
</svg>
