<?xml version="1.0" encoding="UTF-8" standalone="no"?>
<!DOCTYPE svg PUBLIC "-//W3C//DTD SVG 1.1//EN"
 "http://www.w3.org/Graphics/SVG/1.1/DTD/svg11.dtd">
<!-- Generated by graphviz version 2.43.0 (0)
 -->
<!-- Title: Tree Pages: 1 -->
<svg width="2417pt" height="627pt"
 viewBox="0.00 0.00 2417.00 627.00" xmlns="http://www.w3.org/2000/svg" xmlns:xlink="http://www.w3.org/1999/xlink">
<g id="graph0" class="graph" transform="scale(1 1) rotate(0) translate(4 623)">
<title>Tree</title>
<polygon fill="white" stroke="transparent" points="-4,4 -4,-623 2413,-623 2413,4 -4,4"/>
<!-- 0 -->
<g id="node1" class="node">
<title>0</title>
<polygon fill="none" stroke="black" points="1293.5,-619 1102.5,-619 1102.5,-521 1293.5,-521 1293.5,-619"/>
<text text-anchor="middle" x="1198" y="-603.8" font-family="Times,serif" font-size="14.00">node #0</text>
<text text-anchor="middle" x="1198" y="-588.8" font-family="Times,serif" font-size="14.00">FEFPrePercent &lt;= 57.5</text>
<text text-anchor="middle" x="1198" y="-573.8" font-family="Times,serif" font-size="14.00">gini = 0.5</text>
<text text-anchor="middle" x="1198" y="-558.8" font-family="Times,serif" font-size="14.00">samples = 215</text>
<text text-anchor="middle" x="1198" y="-543.8" font-family="Times,serif" font-size="14.00">value = [167.0, 167.0]</text>
<text text-anchor="middle" x="1198" y="-528.8" font-family="Times,serif" font-size="14.00">class = Obstructive</text>
</g>
<!-- 1 -->
<g id="node2" class="node">
<title>1</title>
<polygon fill="none" stroke="black" points="904.5,-485 701.5,-485 701.5,-387 904.5,-387 904.5,-485"/>
<text text-anchor="middle" x="803" y="-469.8" font-family="Times,serif" font-size="14.00">node #1</text>
<text text-anchor="middle" x="803" y="-454.8" font-family="Times,serif" font-size="14.00">FEFPreVal &lt;= 0.845</text>
<text text-anchor="middle" x="803" y="-439.8" font-family="Times,serif" font-size="14.00">gini = 0.343</text>
<text text-anchor="middle" x="803" y="-424.8" font-family="Times,serif" font-size="14.00">samples = 118</text>
<text text-anchor="middle" x="803" y="-409.8" font-family="Times,serif" font-size="14.00">value = [39.351, 139.863]</text>
<text text-anchor="middle" x="803" y="-394.8" font-family="Times,serif" font-size="14.00">class = Obstructive</text>
</g>
<!-- 0&#45;&gt;1 -->
<g id="edge1" class="edge">
<title>0&#45;&gt;1</title>
<path fill="none" stroke="black" d="M1102.38,-537.05C1045.72,-518.11 973.64,-494.02 914.41,-474.23"/>
<polygon fill="black" stroke="black" points="915.24,-470.82 904.64,-470.97 913.02,-477.46 915.24,-470.82"/>
<text text-anchor="middle" x="915.81" y="-489.64" font-family="Times,serif" font-size="14.00">True</text>
</g>
<!-- 14 -->
<g id="node15" class="node">
<title>14</title>
<polygon fill="none" stroke="black" points="1710.5,-485 1507.5,-485 1507.5,-387 1710.5,-387 1710.5,-485"/>
<text text-anchor="middle" x="1609" y="-469.8" font-family="Times,serif" font-size="14.00">node #14</text>
<text text-anchor="middle" x="1609" y="-454.8" font-family="Times,serif" font-size="14.00">FEV1PostVal &lt;= 2.715</text>
<text text-anchor="middle" x="1609" y="-439.8" font-family="Times,serif" font-size="14.00">gini = 0.289</text>
<text text-anchor="middle" x="1609" y="-424.8" font-family="Times,serif" font-size="14.00">samples = 97</text>
<text text-anchor="middle" x="1609" y="-409.8" font-family="Times,serif" font-size="14.00">value = [127.649, 27.137]</text>
<text text-anchor="middle" x="1609" y="-394.8" font-family="Times,serif" font-size="14.00">class = Non&#45;obstructive</text>
</g>
<!-- 0&#45;&gt;14 -->
<g id="edge14" class="edge">
<title>0&#45;&gt;14</title>
<path fill="none" stroke="black" d="M1293.58,-538.3C1354.61,-518.7 1433.95,-493.22 1497.79,-472.72"/>
<polygon fill="black" stroke="black" points="1499.05,-475.99 1507.5,-469.6 1496.9,-469.33 1499.05,-475.99"/>
<text text-anchor="middle" x="1496.07" y="-488.14" font-family="Times,serif" font-size="14.00">False</text>
</g>
<!-- 2 -->
<g id="node3" class="node">
<title>2</title>
<polygon fill="none" stroke="black" points="397,-351 191,-351 191,-253 397,-253 397,-351"/>
<text text-anchor="middle" x="294" y="-335.8" font-family="Times,serif" font-size="14.00">node #2</text>
<text text-anchor="middle" x="294" y="-320.8" font-family="Times,serif" font-size="14.00">FEV1PostPercent &lt;= 48.5</text>
<text text-anchor="middle" x="294" y="-305.8" font-family="Times,serif" font-size="14.00">gini = 0.065</text>
<text text-anchor="middle" x="294" y="-290.8" font-family="Times,serif" font-size="14.00">samples = 56</text>
<text text-anchor="middle" x="294" y="-275.8" font-family="Times,serif" font-size="14.00">value = [2.879, 82.456]</text>
<text text-anchor="middle" x="294" y="-260.8" font-family="Times,serif" font-size="14.00">class = Obstructive</text>
</g>
<!-- 1&#45;&gt;2 -->
<g id="edge2" class="edge">
<title>1&#45;&gt;2</title>
<path fill="none" stroke="black" d="M701.22,-408.61C616.21,-386.56 495.13,-355.16 407.11,-332.33"/>
<polygon fill="black" stroke="black" points="407.91,-328.92 397.35,-329.8 406.15,-335.7 407.91,-328.92"/>
</g>
<!-- 7 -->
<g id="node8" class="node">
<title>7</title>
<polygon fill="none" stroke="black" points="900,-351 706,-351 706,-253 900,-253 900,-351"/>
<text text-anchor="middle" x="803" y="-335.8" font-family="Times,serif" font-size="14.00">node #7</text>
<text text-anchor="middle" x="803" y="-320.8" font-family="Times,serif" font-size="14.00">FVCPreVal &lt;= 2.105</text>
<text text-anchor="middle" x="803" y="-305.8" font-family="Times,serif" font-size="14.00">gini = 0.475</text>
<text text-anchor="middle" x="803" y="-290.8" font-family="Times,serif" font-size="14.00">samples = 62</text>
<text text-anchor="middle" x="803" y="-275.8" font-family="Times,serif" font-size="14.00">value = [36.471, 57.406]</text>
<text text-anchor="middle" x="803" y="-260.8" font-family="Times,serif" font-size="14.00">class = Obstructive</text>
</g>
<!-- 1&#45;&gt;7 -->
<g id="edge7" class="edge">
<title>1&#45;&gt;7</title>
<path fill="none" stroke="black" d="M803,-386.97C803,-378.69 803,-370 803,-361.48"/>
<polygon fill="black" stroke="black" points="806.5,-361.21 803,-351.21 799.5,-361.21 806.5,-361.21"/>
</g>
<!-- 3 -->
<g id="node4" class="node">
<title>3</title>
<polygon fill="none" stroke="black" points="180,-209.5 22,-209.5 22,-126.5 180,-126.5 180,-209.5"/>
<text text-anchor="middle" x="101" y="-194.3" font-family="Times,serif" font-size="14.00">node #3</text>
<text text-anchor="middle" x="101" y="-179.3" font-family="Times,serif" font-size="14.00">gini = 0.0</text>
<text text-anchor="middle" x="101" y="-164.3" font-family="Times,serif" font-size="14.00">samples = 38</text>
<text text-anchor="middle" x="101" y="-149.3" font-family="Times,serif" font-size="14.00">value = [0.0, 58.45]</text>
<text text-anchor="middle" x="101" y="-134.3" font-family="Times,serif" font-size="14.00">class = Obstructive</text>
</g>
<!-- 2&#45;&gt;3 -->
<g id="edge3" class="edge">
<title>2&#45;&gt;3</title>
<path fill="none" stroke="black" d="M223.78,-252.97C205.9,-240.75 186.72,-227.63 168.96,-215.48"/>
<polygon fill="black" stroke="black" points="170.6,-212.36 160.37,-209.6 166.65,-218.14 170.6,-212.36"/>
</g>
<!-- 4 -->
<g id="node5" class="node">
<title>4</title>
<polygon fill="none" stroke="black" points="389.5,-217 198.5,-217 198.5,-119 389.5,-119 389.5,-217"/>
<text text-anchor="middle" x="294" y="-201.8" font-family="Times,serif" font-size="14.00">node #4</text>
<text text-anchor="middle" x="294" y="-186.8" font-family="Times,serif" font-size="14.00">FEFPrePercent &lt;= 18.5</text>
<text text-anchor="middle" x="294" y="-171.8" font-family="Times,serif" font-size="14.00">gini = 0.191</text>
<text text-anchor="middle" x="294" y="-156.8" font-family="Times,serif" font-size="14.00">samples = 18</text>
<text text-anchor="middle" x="294" y="-141.8" font-family="Times,serif" font-size="14.00">value = [2.879, 24.006]</text>
<text text-anchor="middle" x="294" y="-126.8" font-family="Times,serif" font-size="14.00">class = Obstructive</text>
</g>
<!-- 2&#45;&gt;4 -->
<g id="edge4" class="edge">
<title>2&#45;&gt;4</title>
<path fill="none" stroke="black" d="M294,-252.97C294,-244.69 294,-236 294,-227.48"/>
<polygon fill="black" stroke="black" points="297.5,-227.21 294,-217.21 290.5,-227.21 297.5,-227.21"/>
</g>
<!-- 5 -->
<g id="node6" class="node">
<title>5</title>
<polygon fill="none" stroke="black" points="188,-83 0,-83 0,0 188,0 188,-83"/>
<text text-anchor="middle" x="94" y="-67.8" font-family="Times,serif" font-size="14.00">node #5</text>
<text text-anchor="middle" x="94" y="-52.8" font-family="Times,serif" font-size="14.00">gini = 0.0</text>
<text text-anchor="middle" x="94" y="-37.8" font-family="Times,serif" font-size="14.00">samples = 2</text>
<text text-anchor="middle" x="94" y="-22.8" font-family="Times,serif" font-size="14.00">value = [1.92, 0.0]</text>
<text text-anchor="middle" x="94" y="-7.8" font-family="Times,serif" font-size="14.00">class = Non&#45;obstructive</text>
</g>
<!-- 4&#45;&gt;5 -->
<g id="edge5" class="edge">
<title>4&#45;&gt;5</title>
<path fill="none" stroke="black" d="M216.67,-118.87C200.63,-108.88 183.76,-98.38 167.85,-88.47"/>
<polygon fill="black" stroke="black" points="169.45,-85.35 159.11,-83.03 165.75,-91.29 169.45,-85.35"/>
</g>
<!-- 6 -->
<g id="node7" class="node">
<title>6</title>
<polygon fill="none" stroke="black" points="382,-83 206,-83 206,0 382,0 382,-83"/>
<text text-anchor="middle" x="294" y="-67.8" font-family="Times,serif" font-size="14.00">node #6</text>
<text text-anchor="middle" x="294" y="-52.8" font-family="Times,serif" font-size="14.00">gini = 0.074</text>
<text text-anchor="middle" x="294" y="-37.8" font-family="Times,serif" font-size="14.00">samples = 16</text>
<text text-anchor="middle" x="294" y="-22.8" font-family="Times,serif" font-size="14.00">value = [0.96, 24.006]</text>
<text text-anchor="middle" x="294" y="-7.8" font-family="Times,serif" font-size="14.00">class = Obstructive</text>
</g>
<!-- 4&#45;&gt;6 -->
<g id="edge6" class="edge">
<title>4&#45;&gt;6</title>
<path fill="none" stroke="black" d="M294,-118.87C294,-110.5 294,-101.77 294,-93.33"/>
<polygon fill="black" stroke="black" points="297.5,-93.23 294,-83.23 290.5,-93.23 297.5,-93.23"/>
</g>
<!-- 8 -->
<g id="node9" class="node">
<title>8</title>
<polygon fill="none" stroke="black" points="795,-217 595,-217 595,-119 795,-119 795,-217"/>
<text text-anchor="middle" x="695" y="-201.8" font-family="Times,serif" font-size="14.00">node #8</text>
<text text-anchor="middle" x="695" y="-186.8" font-family="Times,serif" font-size="14.00">FEV1PrePercent &lt;= 62.5</text>
<text text-anchor="middle" x="695" y="-171.8" font-family="Times,serif" font-size="14.00">gini = 0.198</text>
<text text-anchor="middle" x="695" y="-156.8" font-family="Times,serif" font-size="14.00">samples = 20</text>
<text text-anchor="middle" x="695" y="-141.8" font-family="Times,serif" font-size="14.00">value = [24.954, 3.131]</text>
<text text-anchor="middle" x="695" y="-126.8" font-family="Times,serif" font-size="14.00">class = Non&#45;obstructive</text>
</g>
<!-- 7&#45;&gt;8 -->
<g id="edge8" class="edge">
<title>7&#45;&gt;8</title>
<path fill="none" stroke="black" d="M763.7,-252.97C756.26,-243.87 748.41,-234.28 740.79,-224.96"/>
<polygon fill="black" stroke="black" points="743.49,-222.74 734.45,-217.21 738.07,-227.17 743.49,-222.74"/>
</g>
<!-- 11 -->
<g id="node12" class="node">
<title>11</title>
<polygon fill="none" stroke="black" points="1010.5,-217 813.5,-217 813.5,-119 1010.5,-119 1010.5,-217"/>
<text text-anchor="middle" x="912" y="-201.8" font-family="Times,serif" font-size="14.00">node #11</text>
<text text-anchor="middle" x="912" y="-186.8" font-family="Times,serif" font-size="14.00">FVCPostPercent &lt;= 61.0</text>
<text text-anchor="middle" x="912" y="-171.8" font-family="Times,serif" font-size="14.00">gini = 0.289</text>
<text text-anchor="middle" x="912" y="-156.8" font-family="Times,serif" font-size="14.00">samples = 42</text>
<text text-anchor="middle" x="912" y="-141.8" font-family="Times,serif" font-size="14.00">value = [11.517, 54.275]</text>
<text text-anchor="middle" x="912" y="-126.8" font-family="Times,serif" font-size="14.00">class = Obstructive</text>
</g>
<!-- 7&#45;&gt;11 -->
<g id="edge11" class="edge">
<title>7&#45;&gt;11</title>
<path fill="none" stroke="black" d="M842.66,-252.97C850.17,-243.87 858.09,-234.28 865.79,-224.96"/>
<polygon fill="black" stroke="black" points="868.52,-227.15 872.19,-217.21 863.12,-222.7 868.52,-227.15"/>
</g>
<!-- 9 -->
<g id="node10" class="node">
<title>9</title>
<polygon fill="none" stroke="black" points="588,-83 400,-83 400,0 588,0 588,-83"/>
<text text-anchor="middle" x="494" y="-67.8" font-family="Times,serif" font-size="14.00">node #9</text>
<text text-anchor="middle" x="494" y="-52.8" font-family="Times,serif" font-size="14.00">gini = 0.086</text>
<text text-anchor="middle" x="494" y="-37.8" font-family="Times,serif" font-size="14.00">samples = 16</text>
<text text-anchor="middle" x="494" y="-22.8" font-family="Times,serif" font-size="14.00">value = [22.075, 1.044]</text>
<text text-anchor="middle" x="494" y="-7.8" font-family="Times,serif" font-size="14.00">class = Non&#45;obstructive</text>
</g>
<!-- 8&#45;&gt;9 -->
<g id="edge9" class="edge">
<title>8&#45;&gt;9</title>
<path fill="none" stroke="black" d="M617.29,-118.87C601.16,-108.88 584.21,-98.38 568.22,-88.47"/>
<polygon fill="black" stroke="black" points="569.78,-85.32 559.44,-83.03 566.1,-91.27 569.78,-85.32"/>
</g>
<!-- 10 -->
<g id="node11" class="node">
<title>10</title>
<polygon fill="none" stroke="black" points="794,-83 606,-83 606,0 794,0 794,-83"/>
<text text-anchor="middle" x="700" y="-67.8" font-family="Times,serif" font-size="14.00">node #10</text>
<text text-anchor="middle" x="700" y="-52.8" font-family="Times,serif" font-size="14.00">gini = 0.487</text>
<text text-anchor="middle" x="700" y="-37.8" font-family="Times,serif" font-size="14.00">samples = 4</text>
<text text-anchor="middle" x="700" y="-22.8" font-family="Times,serif" font-size="14.00">value = [2.879, 2.088]</text>
<text text-anchor="middle" x="700" y="-7.8" font-family="Times,serif" font-size="14.00">class = Non&#45;obstructive</text>
</g>
<!-- 8&#45;&gt;10 -->
<g id="edge10" class="edge">
<title>8&#45;&gt;10</title>
<path fill="none" stroke="black" d="M696.93,-118.87C697.27,-110.5 697.62,-101.77 697.96,-93.33"/>
<polygon fill="black" stroke="black" points="701.46,-93.36 698.36,-83.23 694.47,-93.08 701.46,-93.36"/>
</g>
<!-- 12 -->
<g id="node13" class="node">
<title>12</title>
<polygon fill="none" stroke="black" points="1000,-83 812,-83 812,0 1000,0 1000,-83"/>
<text text-anchor="middle" x="906" y="-67.8" font-family="Times,serif" font-size="14.00">node #12</text>
<text text-anchor="middle" x="906" y="-52.8" font-family="Times,serif" font-size="14.00">gini = 0.0</text>
<text text-anchor="middle" x="906" y="-37.8" font-family="Times,serif" font-size="14.00">samples = 3</text>
<text text-anchor="middle" x="906" y="-22.8" font-family="Times,serif" font-size="14.00">value = [3.839, 0.0]</text>
<text text-anchor="middle" x="906" y="-7.8" font-family="Times,serif" font-size="14.00">class = Non&#45;obstructive</text>
</g>
<!-- 11&#45;&gt;12 -->
<g id="edge12" class="edge">
<title>11&#45;&gt;12</title>
<path fill="none" stroke="black" d="M909.68,-118.87C909.28,-110.5 908.86,-101.77 908.45,-93.33"/>
<polygon fill="black" stroke="black" points="911.94,-93.05 907.96,-83.23 904.95,-93.39 911.94,-93.05"/>
</g>
<!-- 13 -->
<g id="node14" class="node">
<title>13</title>
<polygon fill="none" stroke="black" points="1203.5,-83 1018.5,-83 1018.5,0 1203.5,0 1203.5,-83"/>
<text text-anchor="middle" x="1111" y="-67.8" font-family="Times,serif" font-size="14.00">node #13</text>
<text text-anchor="middle" x="1111" y="-52.8" font-family="Times,serif" font-size="14.00">gini = 0.217</text>
<text text-anchor="middle" x="1111" y="-37.8" font-family="Times,serif" font-size="14.00">samples = 39</text>
<text text-anchor="middle" x="1111" y="-22.8" font-family="Times,serif" font-size="14.00">value = [7.678, 54.275]</text>
<text text-anchor="middle" x="1111" y="-7.8" font-family="Times,serif" font-size="14.00">class = Obstructive</text>
</g>
<!-- 11&#45;&gt;13 -->
<g id="edge13" class="edge">
<title>11&#45;&gt;13</title>
<path fill="none" stroke="black" d="M988.94,-118.87C1004.9,-108.88 1021.69,-98.38 1037.52,-88.47"/>
<polygon fill="black" stroke="black" points="1039.59,-91.3 1046.21,-83.03 1035.88,-85.37 1039.59,-91.3"/>
</g>
<!-- 15 -->
<g id="node16" class="node">
<title>15</title>
<polygon fill="none" stroke="black" points="1707.5,-351 1510.5,-351 1510.5,-253 1707.5,-253 1707.5,-351"/>
<text text-anchor="middle" x="1609" y="-335.8" font-family="Times,serif" font-size="14.00">node #15</text>
<text text-anchor="middle" x="1609" y="-320.8" font-family="Times,serif" font-size="14.00">FEFPostPercent &lt;= 61.5</text>
<text text-anchor="middle" x="1609" y="-305.8" font-family="Times,serif" font-size="14.00">gini = 0.123</text>
<text text-anchor="middle" x="1609" y="-290.8" font-family="Times,serif" font-size="14.00">samples = 83</text>
<text text-anchor="middle" x="1609" y="-275.8" font-family="Times,serif" font-size="14.00">value = [118.052, 8.35]</text>
<text text-anchor="middle" x="1609" y="-260.8" font-family="Times,serif" font-size="14.00">class = Non&#45;obstructive</text>
</g>
<!-- 14&#45;&gt;15 -->
<g id="edge15" class="edge">
<title>14&#45;&gt;15</title>
<path fill="none" stroke="black" d="M1609,-386.97C1609,-378.69 1609,-370 1609,-361.48"/>
<polygon fill="black" stroke="black" points="1612.5,-361.21 1609,-351.21 1605.5,-361.21 1612.5,-361.21"/>
</g>
<!-- 22 -->
<g id="node23" class="node">
<title>22</title>
<polygon fill="none" stroke="black" points="2205.5,-351 2014.5,-351 2014.5,-253 2205.5,-253 2205.5,-351"/>
<text text-anchor="middle" x="2110" y="-335.8" font-family="Times,serif" font-size="14.00">node #22</text>
<text text-anchor="middle" x="2110" y="-320.8" font-family="Times,serif" font-size="14.00">FVCPrePercent &lt;= 99.5</text>
<text text-anchor="middle" x="2110" y="-305.8" font-family="Times,serif" font-size="14.00">gini = 0.448</text>
<text text-anchor="middle" x="2110" y="-290.8" font-family="Times,serif" font-size="14.00">samples = 14</text>
<text text-anchor="middle" x="2110" y="-275.8" font-family="Times,serif" font-size="14.00">value = [9.598, 18.787]</text>
<text text-anchor="middle" x="2110" y="-260.8" font-family="Times,serif" font-size="14.00">class = Obstructive</text>
</g>
<!-- 14&#45;&gt;22 -->
<g id="edge22" class="edge">
<title>14&#45;&gt;22</title>
<path fill="none" stroke="black" d="M1710.69,-408.21C1796.2,-385.68 1918,-353.59 2004.56,-330.78"/>
<polygon fill="black" stroke="black" points="2005.62,-334.12 2014.4,-328.19 2003.84,-327.35 2005.62,-334.12"/>
</g>
<!-- 16 -->
<g id="node17" class="node">
<title>16</title>
<polygon fill="none" stroke="black" points="1596.5,-217 1405.5,-217 1405.5,-119 1596.5,-119 1596.5,-217"/>
<text text-anchor="middle" x="1501" y="-201.8" font-family="Times,serif" font-size="14.00">node #16</text>
<text text-anchor="middle" x="1501" y="-186.8" font-family="Times,serif" font-size="14.00">FVCPrePercent &lt;= 66.0</text>
<text text-anchor="middle" x="1501" y="-171.8" font-family="Times,serif" font-size="14.00">gini = 0.443</text>
<text text-anchor="middle" x="1501" y="-156.8" font-family="Times,serif" font-size="14.00">samples = 10</text>
<text text-anchor="middle" x="1501" y="-141.8" font-family="Times,serif" font-size="14.00">value = [10.557, 5.219]</text>
<text text-anchor="middle" x="1501" y="-126.8" font-family="Times,serif" font-size="14.00">class = Non&#45;obstructive</text>
</g>
<!-- 15&#45;&gt;16 -->
<g id="edge16" class="edge">
<title>15&#45;&gt;16</title>
<path fill="none" stroke="black" d="M1569.7,-252.97C1562.26,-243.87 1554.41,-234.28 1546.79,-224.96"/>
<polygon fill="black" stroke="black" points="1549.49,-222.74 1540.45,-217.21 1544.07,-227.17 1549.49,-222.74"/>
</g>
<!-- 19 -->
<g id="node20" class="node">
<title>19</title>
<polygon fill="none" stroke="black" points="1821,-217 1615,-217 1615,-119 1821,-119 1821,-217"/>
<text text-anchor="middle" x="1718" y="-201.8" font-family="Times,serif" font-size="14.00">node #19</text>
<text text-anchor="middle" x="1718" y="-186.8" font-family="Times,serif" font-size="14.00">FEV1PostPercent &lt;= 75.5</text>
<text text-anchor="middle" x="1718" y="-171.8" font-family="Times,serif" font-size="14.00">gini = 0.055</text>
<text text-anchor="middle" x="1718" y="-156.8" font-family="Times,serif" font-size="14.00">samples = 73</text>
<text text-anchor="middle" x="1718" y="-141.8" font-family="Times,serif" font-size="14.00">value = [107.494, 3.131]</text>
<text text-anchor="middle" x="1718" y="-126.8" font-family="Times,serif" font-size="14.00">class = Non&#45;obstructive</text>
</g>
<!-- 15&#45;&gt;19 -->
<g id="edge19" class="edge">
<title>15&#45;&gt;19</title>
<path fill="none" stroke="black" d="M1648.66,-252.97C1656.17,-243.87 1664.09,-234.28 1671.79,-224.96"/>
<polygon fill="black" stroke="black" points="1674.52,-227.15 1678.19,-217.21 1669.12,-222.7 1674.52,-227.15"/>
</g>
<!-- 17 -->
<g id="node18" class="node">
<title>17</title>
<polygon fill="none" stroke="black" points="1410,-83 1222,-83 1222,0 1410,0 1410,-83"/>
<text text-anchor="middle" x="1316" y="-67.8" font-family="Times,serif" font-size="14.00">node #17</text>
<text text-anchor="middle" x="1316" y="-52.8" font-family="Times,serif" font-size="14.00">gini = 0.0</text>
<text text-anchor="middle" x="1316" y="-37.8" font-family="Times,serif" font-size="14.00">samples = 6</text>
<text text-anchor="middle" x="1316" y="-22.8" font-family="Times,serif" font-size="14.00">value = [8.638, 0.0]</text>
<text text-anchor="middle" x="1316" y="-7.8" font-family="Times,serif" font-size="14.00">class = Non&#45;obstructive</text>
</g>
<!-- 16&#45;&gt;17 -->
<g id="edge17" class="edge">
<title>16&#45;&gt;17</title>
<path fill="none" stroke="black" d="M1429.47,-118.87C1414.77,-108.97 1399.32,-98.57 1384.72,-88.74"/>
<polygon fill="black" stroke="black" points="1386.48,-85.71 1376.23,-83.03 1382.57,-91.52 1386.48,-85.71"/>
</g>
<!-- 18 -->
<g id="node19" class="node">
<title>18</title>
<polygon fill="none" stroke="black" points="1595.5,-83 1428.5,-83 1428.5,0 1595.5,0 1595.5,-83"/>
<text text-anchor="middle" x="1512" y="-67.8" font-family="Times,serif" font-size="14.00">node #18</text>
<text text-anchor="middle" x="1512" y="-52.8" font-family="Times,serif" font-size="14.00">gini = 0.393</text>
<text text-anchor="middle" x="1512" y="-37.8" font-family="Times,serif" font-size="14.00">samples = 4</text>
<text text-anchor="middle" x="1512" y="-22.8" font-family="Times,serif" font-size="14.00">value = [1.92, 5.219]</text>
<text text-anchor="middle" x="1512" y="-7.8" font-family="Times,serif" font-size="14.00">class = Obstructive</text>
</g>
<!-- 16&#45;&gt;18 -->
<g id="edge18" class="edge">
<title>16&#45;&gt;18</title>
<path fill="none" stroke="black" d="M1505.25,-118.87C1505.99,-110.5 1506.76,-101.77 1507.51,-93.33"/>
<polygon fill="black" stroke="black" points="1511.01,-93.5 1508.4,-83.23 1504.03,-92.88 1511.01,-93.5"/>
</g>
<!-- 20 -->
<g id="node21" class="node">
<title>20</title>
<polygon fill="none" stroke="black" points="1802,-83 1614,-83 1614,0 1802,0 1802,-83"/>
<text text-anchor="middle" x="1708" y="-67.8" font-family="Times,serif" font-size="14.00">node #20</text>
<text text-anchor="middle" x="1708" y="-52.8" font-family="Times,serif" font-size="14.00">gini = 0.024</text>
<text text-anchor="middle" x="1708" y="-37.8" font-family="Times,serif" font-size="14.00">samples = 52</text>
<text text-anchor="middle" x="1708" y="-22.8" font-family="Times,serif" font-size="14.00">value = [85.42, 1.044]</text>
<text text-anchor="middle" x="1708" y="-7.8" font-family="Times,serif" font-size="14.00">class = Non&#45;obstructive</text>
</g>
<!-- 19&#45;&gt;20 -->
<g id="edge20" class="edge">
<title>19&#45;&gt;20</title>
<path fill="none" stroke="black" d="M1714.13,-118.87C1713.46,-110.5 1712.76,-101.77 1712.08,-93.33"/>
<polygon fill="black" stroke="black" points="1715.56,-92.92 1711.27,-83.23 1708.58,-93.48 1715.56,-92.92"/>
</g>
<!-- 21 -->
<g id="node22" class="node">
<title>21</title>
<polygon fill="none" stroke="black" points="2008,-83 1820,-83 1820,0 2008,0 2008,-83"/>
<text text-anchor="middle" x="1914" y="-67.8" font-family="Times,serif" font-size="14.00">node #21</text>
<text text-anchor="middle" x="1914" y="-52.8" font-family="Times,serif" font-size="14.00">gini = 0.158</text>
<text text-anchor="middle" x="1914" y="-37.8" font-family="Times,serif" font-size="14.00">samples = 21</text>
<text text-anchor="middle" x="1914" y="-22.8" font-family="Times,serif" font-size="14.00">value = [22.075, 2.088]</text>
<text text-anchor="middle" x="1914" y="-7.8" font-family="Times,serif" font-size="14.00">class = Non&#45;obstructive</text>
</g>
<!-- 19&#45;&gt;21 -->
<g id="edge21" class="edge">
<title>19&#45;&gt;21</title>
<path fill="none" stroke="black" d="M1793.78,-118.87C1809.5,-108.88 1826.03,-98.38 1841.63,-88.47"/>
<polygon fill="black" stroke="black" points="1843.63,-91.35 1850.19,-83.03 1839.87,-85.44 1843.63,-91.35"/>
</g>
<!-- 23 -->
<g id="node24" class="node">
<title>23</title>
<polygon fill="none" stroke="black" points="2202.5,-217 2017.5,-217 2017.5,-119 2202.5,-119 2202.5,-217"/>
<text text-anchor="middle" x="2110" y="-201.8" font-family="Times,serif" font-size="14.00">node #23</text>
<text text-anchor="middle" x="2110" y="-186.8" font-family="Times,serif" font-size="14.00">FEFPreVal &lt;= 2.995</text>
<text text-anchor="middle" x="2110" y="-171.8" font-family="Times,serif" font-size="14.00">gini = 0.324</text>
<text text-anchor="middle" x="2110" y="-156.8" font-family="Times,serif" font-size="14.00">samples = 12</text>
<text text-anchor="middle" x="2110" y="-141.8" font-family="Times,serif" font-size="14.00">value = [4.799, 18.787]</text>
<text text-anchor="middle" x="2110" y="-126.8" font-family="Times,serif" font-size="14.00">class = Obstructive</text>
</g>
<!-- 22&#45;&gt;23 -->
<g id="edge23" class="edge">
<title>22&#45;&gt;23</title>
<path fill="none" stroke="black" d="M2110,-252.97C2110,-244.69 2110,-236 2110,-227.48"/>
<polygon fill="black" stroke="black" points="2113.5,-227.21 2110,-217.21 2106.5,-227.21 2113.5,-227.21"/>
</g>
<!-- 26 -->
<g id="node27" class="node">
<title>26</title>
<polygon fill="none" stroke="black" points="2409,-209.5 2221,-209.5 2221,-126.5 2409,-126.5 2409,-209.5"/>
<text text-anchor="middle" x="2315" y="-194.3" font-family="Times,serif" font-size="14.00">node #26</text>
<text text-anchor="middle" x="2315" y="-179.3" font-family="Times,serif" font-size="14.00">gini = 0.0</text>
<text text-anchor="middle" x="2315" y="-164.3" font-family="Times,serif" font-size="14.00">samples = 2</text>
<text text-anchor="middle" x="2315" y="-149.3" font-family="Times,serif" font-size="14.00">value = [4.799, 0.0]</text>
<text text-anchor="middle" x="2315" y="-134.3" font-family="Times,serif" font-size="14.00">class = Non&#45;obstructive</text>
</g>
<!-- 22&#45;&gt;26 -->
<g id="edge26" class="edge">
<title>22&#45;&gt;26</title>
<path fill="none" stroke="black" d="M2184.59,-252.97C2203.75,-240.63 2224.32,-227.39 2243.33,-215.15"/>
<polygon fill="black" stroke="black" points="2245.43,-217.96 2251.94,-209.6 2241.64,-212.07 2245.43,-217.96"/>
</g>
<!-- 24 -->
<g id="node25" class="node">
<title>24</title>
<polygon fill="none" stroke="black" points="2193.5,-83 2026.5,-83 2026.5,0 2193.5,0 2193.5,-83"/>
<text text-anchor="middle" x="2110" y="-67.8" font-family="Times,serif" font-size="14.00">node #24</text>
<text text-anchor="middle" x="2110" y="-52.8" font-family="Times,serif" font-size="14.00">gini = 0.0</text>
<text text-anchor="middle" x="2110" y="-37.8" font-family="Times,serif" font-size="14.00">samples = 4</text>
<text text-anchor="middle" x="2110" y="-22.8" font-family="Times,serif" font-size="14.00">value = [0.0, 12.525]</text>
<text text-anchor="middle" x="2110" y="-7.8" font-family="Times,serif" font-size="14.00">class = Obstructive</text>
</g>
<!-- 23&#45;&gt;24 -->
<g id="edge24" class="edge">
<title>23&#45;&gt;24</title>
<path fill="none" stroke="black" d="M2110,-118.87C2110,-110.5 2110,-101.77 2110,-93.33"/>
<polygon fill="black" stroke="black" points="2113.5,-93.23 2110,-83.23 2106.5,-93.23 2113.5,-93.23"/>
</g>
<!-- 25 -->
<g id="node26" class="node">
<title>25</title>
<polygon fill="none" stroke="black" points="2387,-83 2211,-83 2211,0 2387,0 2387,-83"/>
<text text-anchor="middle" x="2299" y="-67.8" font-family="Times,serif" font-size="14.00">node #25</text>
<text text-anchor="middle" x="2299" y="-52.8" font-family="Times,serif" font-size="14.00">gini = 0.491</text>
<text text-anchor="middle" x="2299" y="-37.8" font-family="Times,serif" font-size="14.00">samples = 8</text>
<text text-anchor="middle" x="2299" y="-22.8" font-family="Times,serif" font-size="14.00">value = [4.799, 6.262]</text>
<text text-anchor="middle" x="2299" y="-7.8" font-family="Times,serif" font-size="14.00">class = Obstructive</text>
</g>
<!-- 23&#45;&gt;25 -->
<g id="edge25" class="edge">
<title>23&#45;&gt;25</title>
<path fill="none" stroke="black" d="M2183.07,-118.87C2198.09,-108.97 2213.88,-98.57 2228.8,-88.74"/>
<polygon fill="black" stroke="black" points="2231.04,-91.46 2237.47,-83.03 2227.19,-85.61 2231.04,-91.46"/>
</g>
</g>
</svg>
