<?xml version="1.0" encoding="UTF-8" standalone="no"?>
<!DOCTYPE svg PUBLIC "-//W3C//DTD SVG 1.1//EN"
 "http://www.w3.org/Graphics/SVG/1.1/DTD/svg11.dtd">
<!-- Generated by graphviz version 2.43.0 (0)
 -->
<!-- Title: Tree Pages: 1 -->
<svg width="2762pt" height="627pt"
 viewBox="0.00 0.00 2762.00 627.00" xmlns="http://www.w3.org/2000/svg" xmlns:xlink="http://www.w3.org/1999/xlink">
<g id="graph0" class="graph" transform="scale(1 1) rotate(0) translate(4 623)">
<title>Tree</title>
<polygon fill="white" stroke="transparent" points="-4,4 -4,-623 2758,-623 2758,4 -4,4"/>
<!-- 0 -->
<g id="node1" class="node">
<title>0</title>
<polygon fill="none" stroke="black" points="1433,-619 1233,-619 1233,-521 1433,-521 1433,-619"/>
<text text-anchor="middle" x="1333" y="-603.8" font-family="Times,serif" font-size="14.00">node #0</text>
<text text-anchor="middle" x="1333" y="-588.8" font-family="Times,serif" font-size="14.00">FEFPrePercent &lt;= 43.04</text>
<text text-anchor="middle" x="1333" y="-573.8" font-family="Times,serif" font-size="14.00">gini = 0.5</text>
<text text-anchor="middle" x="1333" y="-558.8" font-family="Times,serif" font-size="14.00">samples = 211</text>
<text text-anchor="middle" x="1333" y="-543.8" font-family="Times,serif" font-size="14.00">value = [167.0, 167.0]</text>
<text text-anchor="middle" x="1333" y="-528.8" font-family="Times,serif" font-size="14.00">class = Obstructive</text>
</g>
<!-- 1 -->
<g id="node2" class="node">
<title>1</title>
<polygon fill="none" stroke="black" points="1235.5,-485 1032.5,-485 1032.5,-387 1235.5,-387 1235.5,-485"/>
<text text-anchor="middle" x="1134" y="-469.8" font-family="Times,serif" font-size="14.00">node #1</text>
<text text-anchor="middle" x="1134" y="-454.8" font-family="Times,serif" font-size="14.00">FEFPrePercent &lt;= 26.5</text>
<text text-anchor="middle" x="1134" y="-439.8" font-family="Times,serif" font-size="14.00">gini = 0.287</text>
<text text-anchor="middle" x="1134" y="-424.8" font-family="Times,serif" font-size="14.00">samples = 94</text>
<text text-anchor="middle" x="1134" y="-409.8" font-family="Times,serif" font-size="14.00">value = [25.845, 122.735]</text>
<text text-anchor="middle" x="1134" y="-394.8" font-family="Times,serif" font-size="14.00">class = Obstructive</text>
</g>
<!-- 0&#45;&gt;1 -->
<g id="edge1" class="edge">
<title>0&#45;&gt;1</title>
<path fill="none" stroke="black" d="M1260.59,-520.97C1245.92,-511.24 1230.39,-500.93 1215.42,-491.01"/>
<polygon fill="black" stroke="black" points="1216.95,-487.82 1206.69,-485.21 1213.08,-493.66 1216.95,-487.82"/>
<text text-anchor="middle" x="1211.65" y="-506.02" font-family="Times,serif" font-size="14.00">True</text>
</g>
<!-- 16 -->
<g id="node17" class="node">
<title>16</title>
<polygon fill="none" stroke="black" points="1641.5,-485 1438.5,-485 1438.5,-387 1641.5,-387 1641.5,-485"/>
<text text-anchor="middle" x="1540" y="-469.8" font-family="Times,serif" font-size="14.00">node #16</text>
<text text-anchor="middle" x="1540" y="-454.8" font-family="Times,serif" font-size="14.00">FVCPreVal &lt;= 2.135</text>
<text text-anchor="middle" x="1540" y="-439.8" font-family="Times,serif" font-size="14.00">gini = 0.363</text>
<text text-anchor="middle" x="1540" y="-424.8" font-family="Times,serif" font-size="14.00">samples = 117</text>
<text text-anchor="middle" x="1540" y="-409.8" font-family="Times,serif" font-size="14.00">value = [141.155, 44.265]</text>
<text text-anchor="middle" x="1540" y="-394.8" font-family="Times,serif" font-size="14.00">class = Non&#45;obstructive</text>
</g>
<!-- 0&#45;&gt;16 -->
<g id="edge16" class="edge">
<title>0&#45;&gt;16</title>
<path fill="none" stroke="black" d="M1408.32,-520.97C1423.73,-511.14 1440.04,-500.74 1455.74,-490.73"/>
<polygon fill="black" stroke="black" points="1457.84,-493.54 1464.39,-485.21 1454.08,-487.64 1457.84,-493.54"/>
<text text-anchor="middle" x="1458.99" y="-505.92" font-family="Times,serif" font-size="14.00">False</text>
</g>
<!-- 2 -->
<g id="node3" class="node">
<title>2</title>
<polygon fill="none" stroke="black" points="660,-351 484,-351 484,-253 660,-253 660,-351"/>
<text text-anchor="middle" x="572" y="-335.8" font-family="Times,serif" font-size="14.00">node #2</text>
<text text-anchor="middle" x="572" y="-320.8" font-family="Times,serif" font-size="14.00">FVCPostVal &lt;= 1.39</text>
<text text-anchor="middle" x="572" y="-305.8" font-family="Times,serif" font-size="14.00">gini = 0.151</text>
<text text-anchor="middle" x="572" y="-290.8" font-family="Times,serif" font-size="14.00">samples = 61</text>
<text text-anchor="middle" x="572" y="-275.8" font-family="Times,serif" font-size="14.00">value = [7.952, 88.53]</text>
<text text-anchor="middle" x="572" y="-260.8" font-family="Times,serif" font-size="14.00">class = Obstructive</text>
</g>
<!-- 1&#45;&gt;2 -->
<g id="edge2" class="edge">
<title>1&#45;&gt;2</title>
<path fill="none" stroke="black" d="M1032.23,-411.1C929.37,-386.94 771.53,-349.86 670.03,-326.03"/>
<polygon fill="black" stroke="black" points="670.62,-322.57 660.08,-323.69 669.02,-329.38 670.62,-322.57"/>
</g>
<!-- 9 -->
<g id="node10" class="node">
<title>9</title>
<polygon fill="none" stroke="black" points="1231,-351 1037,-351 1037,-253 1231,-253 1231,-351"/>
<text text-anchor="middle" x="1134" y="-335.8" font-family="Times,serif" font-size="14.00">node #9</text>
<text text-anchor="middle" x="1134" y="-320.8" font-family="Times,serif" font-size="14.00">FVCPrePercent &lt;= 66.5</text>
<text text-anchor="middle" x="1134" y="-305.8" font-family="Times,serif" font-size="14.00">gini = 0.451</text>
<text text-anchor="middle" x="1134" y="-290.8" font-family="Times,serif" font-size="14.00">samples = 33</text>
<text text-anchor="middle" x="1134" y="-275.8" font-family="Times,serif" font-size="14.00">value = [17.893, 34.205]</text>
<text text-anchor="middle" x="1134" y="-260.8" font-family="Times,serif" font-size="14.00">class = Obstructive</text>
</g>
<!-- 1&#45;&gt;9 -->
<g id="edge9" class="edge">
<title>1&#45;&gt;9</title>
<path fill="none" stroke="black" d="M1134,-386.97C1134,-378.69 1134,-370 1134,-361.48"/>
<polygon fill="black" stroke="black" points="1137.5,-361.21 1134,-351.21 1130.5,-361.21 1137.5,-361.21"/>
</g>
<!-- 3 -->
<g id="node4" class="node">
<title>3</title>
<polygon fill="none" stroke="black" points="358,-217 182,-217 182,-119 358,-119 358,-217"/>
<text text-anchor="middle" x="270" y="-201.8" font-family="Times,serif" font-size="14.00">node #3</text>
<text text-anchor="middle" x="270" y="-186.8" font-family="Times,serif" font-size="14.00">FEFPreVal &lt;= 0.345</text>
<text text-anchor="middle" x="270" y="-171.8" font-family="Times,serif" font-size="14.00">gini = 0.491</text>
<text text-anchor="middle" x="270" y="-156.8" font-family="Times,serif" font-size="14.00">samples = 9</text>
<text text-anchor="middle" x="270" y="-141.8" font-family="Times,serif" font-size="14.00">value = [6.958, 9.054]</text>
<text text-anchor="middle" x="270" y="-126.8" font-family="Times,serif" font-size="14.00">class = Obstructive</text>
</g>
<!-- 2&#45;&gt;3 -->
<g id="edge3" class="edge">
<title>2&#45;&gt;3</title>
<path fill="none" stroke="black" d="M483.84,-262.47C447.32,-246.51 404.84,-227.94 367.41,-211.58"/>
<polygon fill="black" stroke="black" points="368.58,-208.27 358.01,-207.47 365.77,-214.68 368.58,-208.27"/>
</g>
<!-- 6 -->
<g id="node7" class="node">
<title>6</title>
<polygon fill="none" stroke="black" points="667.5,-217 476.5,-217 476.5,-119 667.5,-119 667.5,-217"/>
<text text-anchor="middle" x="572" y="-201.8" font-family="Times,serif" font-size="14.00">node #6</text>
<text text-anchor="middle" x="572" y="-186.8" font-family="Times,serif" font-size="14.00">FVCPrePercent &lt;= 48.0</text>
<text text-anchor="middle" x="572" y="-171.8" font-family="Times,serif" font-size="14.00">gini = 0.024</text>
<text text-anchor="middle" x="572" y="-156.8" font-family="Times,serif" font-size="14.00">samples = 52</text>
<text text-anchor="middle" x="572" y="-141.8" font-family="Times,serif" font-size="14.00">value = [0.994, 79.476]</text>
<text text-anchor="middle" x="572" y="-126.8" font-family="Times,serif" font-size="14.00">class = Obstructive</text>
</g>
<!-- 2&#45;&gt;6 -->
<g id="edge6" class="edge">
<title>2&#45;&gt;6</title>
<path fill="none" stroke="black" d="M572,-252.97C572,-244.69 572,-236 572,-227.48"/>
<polygon fill="black" stroke="black" points="575.5,-227.21 572,-217.21 568.5,-227.21 575.5,-227.21"/>
</g>
<!-- 4 -->
<g id="node5" class="node">
<title>4</title>
<polygon fill="none" stroke="black" points="158,-83 0,-83 0,0 158,0 158,-83"/>
<text text-anchor="middle" x="79" y="-67.8" font-family="Times,serif" font-size="14.00">node #4</text>
<text text-anchor="middle" x="79" y="-52.8" font-family="Times,serif" font-size="14.00">gini = 0.0</text>
<text text-anchor="middle" x="79" y="-37.8" font-family="Times,serif" font-size="14.00">samples = 3</text>
<text text-anchor="middle" x="79" y="-22.8" font-family="Times,serif" font-size="14.00">value = [0.0, 6.036]</text>
<text text-anchor="middle" x="79" y="-7.8" font-family="Times,serif" font-size="14.00">class = Obstructive</text>
</g>
<!-- 3&#45;&gt;4 -->
<g id="edge4" class="edge">
<title>3&#45;&gt;4</title>
<path fill="none" stroke="black" d="M196.15,-118.87C180.97,-108.97 165.02,-98.57 149.95,-88.74"/>
<polygon fill="black" stroke="black" points="151.47,-85.56 141.18,-83.03 147.65,-91.43 151.47,-85.56"/>
</g>
<!-- 5 -->
<g id="node6" class="node">
<title>5</title>
<polygon fill="none" stroke="black" points="364,-83 176,-83 176,0 364,0 364,-83"/>
<text text-anchor="middle" x="270" y="-67.8" font-family="Times,serif" font-size="14.00">node #5</text>
<text text-anchor="middle" x="270" y="-52.8" font-family="Times,serif" font-size="14.00">gini = 0.422</text>
<text text-anchor="middle" x="270" y="-37.8" font-family="Times,serif" font-size="14.00">samples = 6</text>
<text text-anchor="middle" x="270" y="-22.8" font-family="Times,serif" font-size="14.00">value = [6.958, 3.018]</text>
<text text-anchor="middle" x="270" y="-7.8" font-family="Times,serif" font-size="14.00">class = Non&#45;obstructive</text>
</g>
<!-- 3&#45;&gt;5 -->
<g id="edge5" class="edge">
<title>3&#45;&gt;5</title>
<path fill="none" stroke="black" d="M270,-118.87C270,-110.5 270,-101.77 270,-93.33"/>
<polygon fill="black" stroke="black" points="273.5,-93.23 270,-83.23 266.5,-93.23 273.5,-93.23"/>
</g>
<!-- 7 -->
<g id="node8" class="node">
<title>7</title>
<polygon fill="none" stroke="black" points="567.5,-83 382.5,-83 382.5,0 567.5,0 567.5,-83"/>
<text text-anchor="middle" x="475" y="-67.8" font-family="Times,serif" font-size="14.00">node #7</text>
<text text-anchor="middle" x="475" y="-52.8" font-family="Times,serif" font-size="14.00">gini = 0.082</text>
<text text-anchor="middle" x="475" y="-37.8" font-family="Times,serif" font-size="14.00">samples = 15</text>
<text text-anchor="middle" x="475" y="-22.8" font-family="Times,serif" font-size="14.00">value = [0.994, 22.133]</text>
<text text-anchor="middle" x="475" y="-7.8" font-family="Times,serif" font-size="14.00">class = Obstructive</text>
</g>
<!-- 6&#45;&gt;7 -->
<g id="edge7" class="edge">
<title>6&#45;&gt;7</title>
<path fill="none" stroke="black" d="M534.5,-118.87C527.48,-109.85 520.13,-100.43 513.09,-91.39"/>
<polygon fill="black" stroke="black" points="515.64,-88.97 506.73,-83.23 510.12,-93.27 515.64,-88.97"/>
</g>
<!-- 8 -->
<g id="node9" class="node">
<title>8</title>
<polygon fill="none" stroke="black" points="752.5,-83 585.5,-83 585.5,0 752.5,0 752.5,-83"/>
<text text-anchor="middle" x="669" y="-67.8" font-family="Times,serif" font-size="14.00">node #8</text>
<text text-anchor="middle" x="669" y="-52.8" font-family="Times,serif" font-size="14.00">gini = 0.0</text>
<text text-anchor="middle" x="669" y="-37.8" font-family="Times,serif" font-size="14.00">samples = 37</text>
<text text-anchor="middle" x="669" y="-22.8" font-family="Times,serif" font-size="14.00">value = [0.0, 57.343]</text>
<text text-anchor="middle" x="669" y="-7.8" font-family="Times,serif" font-size="14.00">class = Obstructive</text>
</g>
<!-- 6&#45;&gt;8 -->
<g id="edge8" class="edge">
<title>6&#45;&gt;8</title>
<path fill="none" stroke="black" d="M609.5,-118.87C616.52,-109.85 623.87,-100.43 630.91,-91.39"/>
<polygon fill="black" stroke="black" points="633.88,-93.27 637.27,-83.23 628.36,-88.97 633.88,-93.27"/>
</g>
<!-- 10 -->
<g id="node11" class="node">
<title>10</title>
<polygon fill="none" stroke="black" points="1143.5,-217 946.5,-217 946.5,-119 1143.5,-119 1143.5,-217"/>
<text text-anchor="middle" x="1045" y="-201.8" font-family="Times,serif" font-size="14.00">node #10</text>
<text text-anchor="middle" x="1045" y="-186.8" font-family="Times,serif" font-size="14.00">FEFPostPercent &lt;= 49.5</text>
<text text-anchor="middle" x="1045" y="-171.8" font-family="Times,serif" font-size="14.00">gini = 0.492</text>
<text text-anchor="middle" x="1045" y="-156.8" font-family="Times,serif" font-size="14.00">samples = 20</text>
<text text-anchor="middle" x="1045" y="-141.8" font-family="Times,serif" font-size="14.00">value = [16.899, 13.078]</text>
<text text-anchor="middle" x="1045" y="-126.8" font-family="Times,serif" font-size="14.00">class = Non&#45;obstructive</text>
</g>
<!-- 9&#45;&gt;10 -->
<g id="edge10" class="edge">
<title>9&#45;&gt;10</title>
<path fill="none" stroke="black" d="M1101.62,-252.97C1095.6,-244.05 1089.27,-234.66 1083.11,-225.52"/>
<polygon fill="black" stroke="black" points="1086,-223.55 1077.51,-217.21 1080.2,-227.46 1086,-223.55"/>
</g>
<!-- 13 -->
<g id="node14" class="node">
<title>13</title>
<polygon fill="none" stroke="black" points="1346.5,-217 1161.5,-217 1161.5,-119 1346.5,-119 1346.5,-217"/>
<text text-anchor="middle" x="1254" y="-201.8" font-family="Times,serif" font-size="14.00">node #13</text>
<text text-anchor="middle" x="1254" y="-186.8" font-family="Times,serif" font-size="14.00">FVCPreVal &lt;= 2.295</text>
<text text-anchor="middle" x="1254" y="-171.8" font-family="Times,serif" font-size="14.00">gini = 0.086</text>
<text text-anchor="middle" x="1254" y="-156.8" font-family="Times,serif" font-size="14.00">samples = 13</text>
<text text-anchor="middle" x="1254" y="-141.8" font-family="Times,serif" font-size="14.00">value = [0.994, 21.127]</text>
<text text-anchor="middle" x="1254" y="-126.8" font-family="Times,serif" font-size="14.00">class = Obstructive</text>
</g>
<!-- 9&#45;&gt;13 -->
<g id="edge13" class="edge">
<title>9&#45;&gt;13</title>
<path fill="none" stroke="black" d="M1177.66,-252.97C1186.02,-243.78 1194.83,-234.09 1203.38,-224.68"/>
<polygon fill="black" stroke="black" points="1206.03,-226.97 1210.17,-217.21 1200.85,-222.26 1206.03,-226.97"/>
</g>
<!-- 11 -->
<g id="node12" class="node">
<title>11</title>
<polygon fill="none" stroke="black" points="959,-83 771,-83 771,0 959,0 959,-83"/>
<text text-anchor="middle" x="865" y="-67.8" font-family="Times,serif" font-size="14.00">node #11</text>
<text text-anchor="middle" x="865" y="-52.8" font-family="Times,serif" font-size="14.00">gini = 0.437</text>
<text text-anchor="middle" x="865" y="-37.8" font-family="Times,serif" font-size="14.00">samples = 17</text>
<text text-anchor="middle" x="865" y="-22.8" font-family="Times,serif" font-size="14.00">value = [16.899, 8.048]</text>
<text text-anchor="middle" x="865" y="-7.8" font-family="Times,serif" font-size="14.00">class = Non&#45;obstructive</text>
</g>
<!-- 10&#45;&gt;11 -->
<g id="edge11" class="edge">
<title>10&#45;&gt;11</title>
<path fill="none" stroke="black" d="M975.41,-118.87C961.1,-108.97 946.07,-98.57 931.86,-88.74"/>
<polygon fill="black" stroke="black" points="933.82,-85.84 923.6,-83.03 929.83,-91.6 933.82,-85.84"/>
</g>
<!-- 12 -->
<g id="node13" class="node">
<title>12</title>
<polygon fill="none" stroke="black" points="1134.5,-83 977.5,-83 977.5,0 1134.5,0 1134.5,-83"/>
<text text-anchor="middle" x="1056" y="-67.8" font-family="Times,serif" font-size="14.00">node #12</text>
<text text-anchor="middle" x="1056" y="-52.8" font-family="Times,serif" font-size="14.00">gini = 0.0</text>
<text text-anchor="middle" x="1056" y="-37.8" font-family="Times,serif" font-size="14.00">samples = 3</text>
<text text-anchor="middle" x="1056" y="-22.8" font-family="Times,serif" font-size="14.00">value = [0.0, 5.03]</text>
<text text-anchor="middle" x="1056" y="-7.8" font-family="Times,serif" font-size="14.00">class = Obstructive</text>
</g>
<!-- 10&#45;&gt;12 -->
<g id="edge12" class="edge">
<title>10&#45;&gt;12</title>
<path fill="none" stroke="black" d="M1049.25,-118.87C1049.99,-110.5 1050.76,-101.77 1051.51,-93.33"/>
<polygon fill="black" stroke="black" points="1055.01,-93.5 1052.4,-83.23 1048.03,-92.88 1055.01,-93.5"/>
</g>
<!-- 14 -->
<g id="node15" class="node">
<title>14</title>
<polygon fill="none" stroke="black" points="1329,-83 1153,-83 1153,0 1329,0 1329,-83"/>
<text text-anchor="middle" x="1241" y="-67.8" font-family="Times,serif" font-size="14.00">node #14</text>
<text text-anchor="middle" x="1241" y="-52.8" font-family="Times,serif" font-size="14.00">gini = 0.318</text>
<text text-anchor="middle" x="1241" y="-37.8" font-family="Times,serif" font-size="14.00">samples = 3</text>
<text text-anchor="middle" x="1241" y="-22.8" font-family="Times,serif" font-size="14.00">value = [0.994, 4.024]</text>
<text text-anchor="middle" x="1241" y="-7.8" font-family="Times,serif" font-size="14.00">class = Obstructive</text>
</g>
<!-- 13&#45;&gt;14 -->
<g id="edge14" class="edge">
<title>13&#45;&gt;14</title>
<path fill="none" stroke="black" d="M1248.97,-118.87C1248.1,-110.5 1247.19,-101.77 1246.31,-93.33"/>
<polygon fill="black" stroke="black" points="1249.77,-92.81 1245.25,-83.23 1242.81,-93.54 1249.77,-92.81"/>
</g>
<!-- 15 -->
<g id="node16" class="node">
<title>15</title>
<polygon fill="none" stroke="black" points="1513.5,-83 1346.5,-83 1346.5,0 1513.5,0 1513.5,-83"/>
<text text-anchor="middle" x="1430" y="-67.8" font-family="Times,serif" font-size="14.00">node #15</text>
<text text-anchor="middle" x="1430" y="-52.8" font-family="Times,serif" font-size="14.00">gini = 0.0</text>
<text text-anchor="middle" x="1430" y="-37.8" font-family="Times,serif" font-size="14.00">samples = 10</text>
<text text-anchor="middle" x="1430" y="-22.8" font-family="Times,serif" font-size="14.00">value = [0.0, 17.102]</text>
<text text-anchor="middle" x="1430" y="-7.8" font-family="Times,serif" font-size="14.00">class = Obstructive</text>
</g>
<!-- 13&#45;&gt;15 -->
<g id="edge15" class="edge">
<title>13&#45;&gt;15</title>
<path fill="none" stroke="black" d="M1322.05,-118.87C1335.9,-109.06 1350.46,-98.77 1364.24,-89.02"/>
<polygon fill="black" stroke="black" points="1366.56,-91.66 1372.7,-83.03 1362.52,-85.95 1366.56,-91.66"/>
</g>
<!-- 17 -->
<g id="node18" class="node">
<title>17</title>
<polygon fill="none" stroke="black" points="1637,-351 1443,-351 1443,-253 1637,-253 1637,-351"/>
<text text-anchor="middle" x="1540" y="-335.8" font-family="Times,serif" font-size="14.00">node #17</text>
<text text-anchor="middle" x="1540" y="-320.8" font-family="Times,serif" font-size="14.00">FEFPreVal &lt;= 1.05</text>
<text text-anchor="middle" x="1540" y="-305.8" font-family="Times,serif" font-size="14.00">gini = 0.12</text>
<text text-anchor="middle" x="1540" y="-290.8" font-family="Times,serif" font-size="14.00">samples = 66</text>
<text text-anchor="middle" x="1540" y="-275.8" font-family="Times,serif" font-size="14.00">value = [102.387, 7.042]</text>
<text text-anchor="middle" x="1540" y="-260.8" font-family="Times,serif" font-size="14.00">class = Non&#45;obstructive</text>
</g>
<!-- 16&#45;&gt;17 -->
<g id="edge17" class="edge">
<title>16&#45;&gt;17</title>
<path fill="none" stroke="black" d="M1540,-386.97C1540,-378.69 1540,-370 1540,-361.48"/>
<polygon fill="black" stroke="black" points="1543.5,-361.21 1540,-351.21 1536.5,-361.21 1543.5,-361.21"/>
</g>
<!-- 22 -->
<g id="node23" class="node">
<title>22</title>
<polygon fill="none" stroke="black" points="2237,-351 2043,-351 2043,-253 2237,-253 2237,-351"/>
<text text-anchor="middle" x="2140" y="-335.8" font-family="Times,serif" font-size="14.00">node #22</text>
<text text-anchor="middle" x="2140" y="-320.8" font-family="Times,serif" font-size="14.00">FEV1PostVal &lt;= 2.825</text>
<text text-anchor="middle" x="2140" y="-305.8" font-family="Times,serif" font-size="14.00">gini = 0.5</text>
<text text-anchor="middle" x="2140" y="-290.8" font-family="Times,serif" font-size="14.00">samples = 51</text>
<text text-anchor="middle" x="2140" y="-275.8" font-family="Times,serif" font-size="14.00">value = [38.768, 37.223]</text>
<text text-anchor="middle" x="2140" y="-260.8" font-family="Times,serif" font-size="14.00">class = Non&#45;obstructive</text>
</g>
<!-- 16&#45;&gt;22 -->
<g id="edge22" class="edge">
<title>16&#45;&gt;22</title>
<path fill="none" stroke="black" d="M1641.78,-412.61C1750.5,-388.69 1922.1,-350.94 2032.84,-326.58"/>
<polygon fill="black" stroke="black" points="2033.68,-329.97 2042.7,-324.41 2032.18,-323.14 2033.68,-329.97"/>
</g>
<!-- 18 -->
<g id="node19" class="node">
<title>18</title>
<polygon fill="none" stroke="black" points="1523,-209.5 1365,-209.5 1365,-126.5 1523,-126.5 1523,-209.5"/>
<text text-anchor="middle" x="1444" y="-194.3" font-family="Times,serif" font-size="14.00">node #18</text>
<text text-anchor="middle" x="1444" y="-179.3" font-family="Times,serif" font-size="14.00">gini = 0.0</text>
<text text-anchor="middle" x="1444" y="-164.3" font-family="Times,serif" font-size="14.00">samples = 1</text>
<text text-anchor="middle" x="1444" y="-149.3" font-family="Times,serif" font-size="14.00">value = [0.0, 2.012]</text>
<text text-anchor="middle" x="1444" y="-134.3" font-family="Times,serif" font-size="14.00">class = Obstructive</text>
</g>
<!-- 17&#45;&gt;18 -->
<g id="edge18" class="edge">
<title>17&#45;&gt;18</title>
<path fill="none" stroke="black" d="M1505.07,-252.97C1496.79,-241.58 1487.94,-229.42 1479.63,-217.99"/>
<polygon fill="black" stroke="black" points="1482.4,-215.85 1473.68,-209.82 1476.74,-219.96 1482.4,-215.85"/>
</g>
<!-- 19 -->
<g id="node20" class="node">
<title>19</title>
<polygon fill="none" stroke="black" points="1732.5,-217 1541.5,-217 1541.5,-119 1732.5,-119 1732.5,-217"/>
<text text-anchor="middle" x="1637" y="-201.8" font-family="Times,serif" font-size="14.00">node #19</text>
<text text-anchor="middle" x="1637" y="-186.8" font-family="Times,serif" font-size="14.00">FEFPrePercent &lt;= 63.0</text>
<text text-anchor="middle" x="1637" y="-171.8" font-family="Times,serif" font-size="14.00">gini = 0.089</text>
<text text-anchor="middle" x="1637" y="-156.8" font-family="Times,serif" font-size="14.00">samples = 65</text>
<text text-anchor="middle" x="1637" y="-141.8" font-family="Times,serif" font-size="14.00">value = [102.387, 5.03]</text>
<text text-anchor="middle" x="1637" y="-126.8" font-family="Times,serif" font-size="14.00">class = Non&#45;obstructive</text>
</g>
<!-- 17&#45;&gt;19 -->
<g id="edge19" class="edge">
<title>17&#45;&gt;19</title>
<path fill="none" stroke="black" d="M1575.29,-252.97C1581.85,-244.05 1588.75,-234.66 1595.47,-225.52"/>
<polygon fill="black" stroke="black" points="1598.47,-227.34 1601.57,-217.21 1592.83,-223.2 1598.47,-227.34"/>
</g>
<!-- 20 -->
<g id="node21" class="node">
<title>20</title>
<polygon fill="none" stroke="black" points="1720,-83 1532,-83 1532,0 1720,0 1720,-83"/>
<text text-anchor="middle" x="1626" y="-67.8" font-family="Times,serif" font-size="14.00">node #20</text>
<text text-anchor="middle" x="1626" y="-52.8" font-family="Times,serif" font-size="14.00">gini = 0.24</text>
<text text-anchor="middle" x="1626" y="-37.8" font-family="Times,serif" font-size="14.00">samples = 19</text>
<text text-anchor="middle" x="1626" y="-22.8" font-family="Times,serif" font-size="14.00">value = [24.851, 4.024]</text>
<text text-anchor="middle" x="1626" y="-7.8" font-family="Times,serif" font-size="14.00">class = Non&#45;obstructive</text>
</g>
<!-- 19&#45;&gt;20 -->
<g id="edge20" class="edge">
<title>19&#45;&gt;20</title>
<path fill="none" stroke="black" d="M1632.75,-118.87C1632.01,-110.5 1631.24,-101.77 1630.49,-93.33"/>
<polygon fill="black" stroke="black" points="1633.97,-92.88 1629.6,-83.23 1626.99,-93.5 1633.97,-92.88"/>
</g>
<!-- 21 -->
<g id="node22" class="node">
<title>21</title>
<polygon fill="none" stroke="black" points="1926,-83 1738,-83 1738,0 1926,0 1926,-83"/>
<text text-anchor="middle" x="1832" y="-67.8" font-family="Times,serif" font-size="14.00">node #21</text>
<text text-anchor="middle" x="1832" y="-52.8" font-family="Times,serif" font-size="14.00">gini = 0.025</text>
<text text-anchor="middle" x="1832" y="-37.8" font-family="Times,serif" font-size="14.00">samples = 46</text>
<text text-anchor="middle" x="1832" y="-22.8" font-family="Times,serif" font-size="14.00">value = [77.536, 1.006]</text>
<text text-anchor="middle" x="1832" y="-7.8" font-family="Times,serif" font-size="14.00">class = Non&#45;obstructive</text>
</g>
<!-- 19&#45;&gt;21 -->
<g id="edge21" class="edge">
<title>19&#45;&gt;21</title>
<path fill="none" stroke="black" d="M1712.39,-118.87C1728.04,-108.88 1744.48,-98.38 1760,-88.47"/>
<polygon fill="black" stroke="black" points="1761.97,-91.36 1768.52,-83.03 1758.2,-85.46 1761.97,-91.36"/>
</g>
<!-- 23 -->
<g id="node24" class="node">
<title>23</title>
<polygon fill="none" stroke="black" points="2237,-217 2043,-217 2043,-119 2237,-119 2237,-217"/>
<text text-anchor="middle" x="2140" y="-201.8" font-family="Times,serif" font-size="14.00">node #23</text>
<text text-anchor="middle" x="2140" y="-186.8" font-family="Times,serif" font-size="14.00">FEFPrePercent &lt;= 84.0</text>
<text text-anchor="middle" x="2140" y="-171.8" font-family="Times,serif" font-size="14.00">gini = 0.48</text>
<text text-anchor="middle" x="2140" y="-156.8" font-family="Times,serif" font-size="14.00">samples = 41</text>
<text text-anchor="middle" x="2140" y="-141.8" font-family="Times,serif" font-size="14.00">value = [34.792, 23.139]</text>
<text text-anchor="middle" x="2140" y="-126.8" font-family="Times,serif" font-size="14.00">class = Non&#45;obstructive</text>
</g>
<!-- 22&#45;&gt;23 -->
<g id="edge23" class="edge">
<title>22&#45;&gt;23</title>
<path fill="none" stroke="black" d="M2140,-252.97C2140,-244.69 2140,-236 2140,-227.48"/>
<polygon fill="black" stroke="black" points="2143.5,-227.21 2140,-217.21 2136.5,-227.21 2143.5,-227.21"/>
</g>
<!-- 26 -->
<g id="node27" class="node">
<title>26</title>
<polygon fill="none" stroke="black" points="2555,-217 2355,-217 2355,-119 2555,-119 2555,-217"/>
<text text-anchor="middle" x="2455" y="-201.8" font-family="Times,serif" font-size="14.00">node #26</text>
<text text-anchor="middle" x="2455" y="-186.8" font-family="Times,serif" font-size="14.00">FEV1PrePercent &lt;= 98.5</text>
<text text-anchor="middle" x="2455" y="-171.8" font-family="Times,serif" font-size="14.00">gini = 0.343</text>
<text text-anchor="middle" x="2455" y="-156.8" font-family="Times,serif" font-size="14.00">samples = 10</text>
<text text-anchor="middle" x="2455" y="-141.8" font-family="Times,serif" font-size="14.00">value = [3.976, 14.084]</text>
<text text-anchor="middle" x="2455" y="-126.8" font-family="Times,serif" font-size="14.00">class = Obstructive</text>
</g>
<!-- 22&#45;&gt;26 -->
<g id="edge26" class="edge">
<title>22&#45;&gt;26</title>
<path fill="none" stroke="black" d="M2237.08,-260.32C2271.43,-245.92 2310.3,-229.64 2345.6,-214.84"/>
<polygon fill="black" stroke="black" points="2347.11,-218.01 2354.98,-210.92 2344.4,-211.55 2347.11,-218.01"/>
</g>
<!-- 24 -->
<g id="node25" class="node">
<title>24</title>
<polygon fill="none" stroke="black" points="2138,-83 1944,-83 1944,0 2138,0 2138,-83"/>
<text text-anchor="middle" x="2041" y="-67.8" font-family="Times,serif" font-size="14.00">node #24</text>
<text text-anchor="middle" x="2041" y="-52.8" font-family="Times,serif" font-size="14.00">gini = 0.498</text>
<text text-anchor="middle" x="2041" y="-37.8" font-family="Times,serif" font-size="14.00">samples = 29</text>
<text text-anchor="middle" x="2041" y="-22.8" font-family="Times,serif" font-size="14.00">value = [18.887, 21.127]</text>
<text text-anchor="middle" x="2041" y="-7.8" font-family="Times,serif" font-size="14.00">class = Obstructive</text>
</g>
<!-- 23&#45;&gt;24 -->
<g id="edge24" class="edge">
<title>23&#45;&gt;24</title>
<path fill="none" stroke="black" d="M2101.72,-118.87C2094.49,-109.76 2086.91,-100.23 2079.66,-91.12"/>
<polygon fill="black" stroke="black" points="2082.35,-88.88 2073.39,-83.23 2076.87,-93.24 2082.35,-88.88"/>
</g>
<!-- 25 -->
<g id="node26" class="node">
<title>25</title>
<polygon fill="none" stroke="black" points="2344,-83 2156,-83 2156,0 2344,0 2344,-83"/>
<text text-anchor="middle" x="2250" y="-67.8" font-family="Times,serif" font-size="14.00">node #25</text>
<text text-anchor="middle" x="2250" y="-52.8" font-family="Times,serif" font-size="14.00">gini = 0.199</text>
<text text-anchor="middle" x="2250" y="-37.8" font-family="Times,serif" font-size="14.00">samples = 12</text>
<text text-anchor="middle" x="2250" y="-22.8" font-family="Times,serif" font-size="14.00">value = [15.905, 2.012]</text>
<text text-anchor="middle" x="2250" y="-7.8" font-family="Times,serif" font-size="14.00">class = Non&#45;obstructive</text>
</g>
<!-- 23&#45;&gt;25 -->
<g id="edge25" class="edge">
<title>23&#45;&gt;25</title>
<path fill="none" stroke="black" d="M2182.53,-118.87C2190.65,-109.67 2199.16,-100.04 2207.29,-90.84"/>
<polygon fill="black" stroke="black" points="2210.01,-93.04 2214.01,-83.23 2204.77,-88.41 2210.01,-93.04"/>
</g>
<!-- 27 -->
<g id="node28" class="node">
<title>27</title>
<polygon fill="none" stroke="black" points="2547.5,-83 2362.5,-83 2362.5,0 2547.5,0 2547.5,-83"/>
<text text-anchor="middle" x="2455" y="-67.8" font-family="Times,serif" font-size="14.00">node #27</text>
<text text-anchor="middle" x="2455" y="-52.8" font-family="Times,serif" font-size="14.00">gini = 0.217</text>
<text text-anchor="middle" x="2455" y="-37.8" font-family="Times,serif" font-size="14.00">samples = 9</text>
<text text-anchor="middle" x="2455" y="-22.8" font-family="Times,serif" font-size="14.00">value = [1.988, 14.084]</text>
<text text-anchor="middle" x="2455" y="-7.8" font-family="Times,serif" font-size="14.00">class = Obstructive</text>
</g>
<!-- 26&#45;&gt;27 -->
<g id="edge27" class="edge">
<title>26&#45;&gt;27</title>
<path fill="none" stroke="black" d="M2455,-118.87C2455,-110.5 2455,-101.77 2455,-93.33"/>
<polygon fill="black" stroke="black" points="2458.5,-93.23 2455,-83.23 2451.5,-93.23 2458.5,-93.23"/>
</g>
<!-- 28 -->
<g id="node29" class="node">
<title>28</title>
<polygon fill="none" stroke="black" points="2754,-83 2566,-83 2566,0 2754,0 2754,-83"/>
<text text-anchor="middle" x="2660" y="-67.8" font-family="Times,serif" font-size="14.00">node #28</text>
<text text-anchor="middle" x="2660" y="-52.8" font-family="Times,serif" font-size="14.00">gini = &#45;0.0</text>
<text text-anchor="middle" x="2660" y="-37.8" font-family="Times,serif" font-size="14.00">samples = 1</text>
<text text-anchor="middle" x="2660" y="-22.8" font-family="Times,serif" font-size="14.00">value = [1.988, 0.0]</text>
<text text-anchor="middle" x="2660" y="-7.8" font-family="Times,serif" font-size="14.00">class = Non&#45;obstructive</text>
</g>
<!-- 26&#45;&gt;28 -->
<g id="edge28" class="edge">
<title>26&#45;&gt;28</title>
<path fill="none" stroke="black" d="M2534.26,-118.87C2550.7,-108.88 2567.99,-98.38 2584.31,-88.47"/>
<polygon fill="black" stroke="black" points="2586.53,-91.21 2593.26,-83.03 2582.9,-85.23 2586.53,-91.21"/>
</g>
</g>
</svg>
