<?xml version="1.0" encoding="UTF-8" standalone="no"?>
<!DOCTYPE svg PUBLIC "-//W3C//DTD SVG 1.1//EN"
 "http://www.w3.org/Graphics/SVG/1.1/DTD/svg11.dtd">
<!-- Generated by graphviz version 2.43.0 (0)
 -->
<!-- Title: Tree Pages: 1 -->
<svg width="2775pt" height="627pt"
 viewBox="0.00 0.00 2775.00 627.00" xmlns="http://www.w3.org/2000/svg" xmlns:xlink="http://www.w3.org/1999/xlink">
<g id="graph0" class="graph" transform="scale(1 1) rotate(0) translate(4 623)">
<title>Tree</title>
<polygon fill="white" stroke="transparent" points="-4,4 -4,-623 2771,-623 2771,4 -4,4"/>
<!-- 0 -->
<g id="node1" class="node">
<title>0</title>
<polygon fill="none" stroke="black" points="1253.5,-619 1062.5,-619 1062.5,-521 1253.5,-521 1253.5,-619"/>
<text text-anchor="middle" x="1158" y="-603.8" font-family="Times,serif" font-size="14.00">node #0</text>
<text text-anchor="middle" x="1158" y="-588.8" font-family="Times,serif" font-size="14.00">FEFPrePercent &lt;= 57.5</text>
<text text-anchor="middle" x="1158" y="-573.8" font-family="Times,serif" font-size="14.00">gini = 0.5</text>
<text text-anchor="middle" x="1158" y="-558.8" font-family="Times,serif" font-size="14.00">samples = 216</text>
<text text-anchor="middle" x="1158" y="-543.8" font-family="Times,serif" font-size="14.00">value = [167.0, 167.0]</text>
<text text-anchor="middle" x="1158" y="-528.8" font-family="Times,serif" font-size="14.00">class = Obstructive</text>
</g>
<!-- 1 -->
<g id="node2" class="node">
<title>1</title>
<polygon fill="none" stroke="black" points="868.5,-485 665.5,-485 665.5,-387 868.5,-387 868.5,-485"/>
<text text-anchor="middle" x="767" y="-469.8" font-family="Times,serif" font-size="14.00">node #1</text>
<text text-anchor="middle" x="767" y="-454.8" font-family="Times,serif" font-size="14.00">FVCPostVal &lt;= 1.5</text>
<text text-anchor="middle" x="767" y="-439.8" font-family="Times,serif" font-size="14.00">gini = 0.367</text>
<text text-anchor="middle" x="767" y="-424.8" font-family="Times,serif" font-size="14.00">samples = 115</text>
<text text-anchor="middle" x="767" y="-409.8" font-family="Times,serif" font-size="14.00">value = [45.188, 141.543]</text>
<text text-anchor="middle" x="767" y="-394.8" font-family="Times,serif" font-size="14.00">class = Obstructive</text>
</g>
<!-- 0&#45;&gt;1 -->
<g id="edge1" class="edge">
<title>0&#45;&gt;1</title>
<path fill="none" stroke="black" d="M1062.35,-536.71C1006.78,-517.95 936.49,-494.22 878.42,-474.61"/>
<polygon fill="black" stroke="black" points="879.43,-471.26 868.84,-471.38 877.2,-477.9 879.43,-471.26"/>
<text text-anchor="middle" x="879.93" y="-490.08" font-family="Times,serif" font-size="14.00">True</text>
</g>
<!-- 14 -->
<g id="node15" class="node">
<title>14</title>
<polygon fill="none" stroke="black" points="1662.5,-485 1459.5,-485 1459.5,-387 1662.5,-387 1662.5,-485"/>
<text text-anchor="middle" x="1561" y="-469.8" font-family="Times,serif" font-size="14.00">node #14</text>
<text text-anchor="middle" x="1561" y="-454.8" font-family="Times,serif" font-size="14.00">FVCPostPercent &lt;= 70.0</text>
<text text-anchor="middle" x="1561" y="-439.8" font-family="Times,serif" font-size="14.00">gini = 0.286</text>
<text text-anchor="middle" x="1561" y="-424.8" font-family="Times,serif" font-size="14.00">samples = 101</text>
<text text-anchor="middle" x="1561" y="-409.8" font-family="Times,serif" font-size="14.00">value = [121.812, 25.457]</text>
<text text-anchor="middle" x="1561" y="-394.8" font-family="Times,serif" font-size="14.00">class = Non&#45;obstructive</text>
</g>
<!-- 0&#45;&gt;14 -->
<g id="edge14" class="edge">
<title>0&#45;&gt;14</title>
<path fill="none" stroke="black" d="M1253.51,-537.72C1312.39,-518.43 1388.15,-493.62 1449.73,-473.44"/>
<polygon fill="black" stroke="black" points="1451.08,-476.69 1459.49,-470.25 1448.9,-470.04 1451.08,-476.69"/>
<text text-anchor="middle" x="1448.19" y="-488.85" font-family="Times,serif" font-size="14.00">False</text>
</g>
<!-- 2 -->
<g id="node3" class="node">
<title>2</title>
<polygon fill="none" stroke="black" points="365.5,-351 174.5,-351 174.5,-253 365.5,-253 365.5,-351"/>
<text text-anchor="middle" x="270" y="-335.8" font-family="Times,serif" font-size="14.00">node #2</text>
<text text-anchor="middle" x="270" y="-320.8" font-family="Times,serif" font-size="14.00">FEFPrePercent &lt;= 16.5</text>
<text text-anchor="middle" x="270" y="-305.8" font-family="Times,serif" font-size="14.00">gini = 0.467</text>
<text text-anchor="middle" x="270" y="-290.8" font-family="Times,serif" font-size="14.00">samples = 21</text>
<text text-anchor="middle" x="270" y="-275.8" font-family="Times,serif" font-size="14.00">value = [20.629, 12.22]</text>
<text text-anchor="middle" x="270" y="-260.8" font-family="Times,serif" font-size="14.00">class = Non&#45;obstructive</text>
</g>
<!-- 1&#45;&gt;2 -->
<g id="edge2" class="edge">
<title>1&#45;&gt;2</title>
<path fill="none" stroke="black" d="M665.23,-407.97C580.73,-385.53 460.97,-353.72 375.47,-331.01"/>
<polygon fill="black" stroke="black" points="376.3,-327.61 365.74,-328.43 374.5,-334.38 376.3,-327.61"/>
</g>
<!-- 7 -->
<g id="node8" class="node">
<title>7</title>
<polygon fill="none" stroke="black" points="868.5,-351 665.5,-351 665.5,-253 868.5,-253 868.5,-351"/>
<text text-anchor="middle" x="767" y="-335.8" font-family="Times,serif" font-size="14.00">node #7</text>
<text text-anchor="middle" x="767" y="-320.8" font-family="Times,serif" font-size="14.00">FEFPostPercent &lt;= 44.5</text>
<text text-anchor="middle" x="767" y="-305.8" font-family="Times,serif" font-size="14.00">gini = 0.268</text>
<text text-anchor="middle" x="767" y="-290.8" font-family="Times,serif" font-size="14.00">samples = 94</text>
<text text-anchor="middle" x="767" y="-275.8" font-family="Times,serif" font-size="14.00">value = [24.559, 129.323]</text>
<text text-anchor="middle" x="767" y="-260.8" font-family="Times,serif" font-size="14.00">class = Obstructive</text>
</g>
<!-- 1&#45;&gt;7 -->
<g id="edge7" class="edge">
<title>1&#45;&gt;7</title>
<path fill="none" stroke="black" d="M767,-386.97C767,-378.69 767,-370 767,-361.48"/>
<polygon fill="black" stroke="black" points="770.5,-361.21 767,-351.21 763.5,-361.21 770.5,-361.21"/>
</g>
<!-- 3 -->
<g id="node4" class="node">
<title>3</title>
<polygon fill="none" stroke="black" points="158,-209.5 0,-209.5 0,-126.5 158,-126.5 158,-209.5"/>
<text text-anchor="middle" x="79" y="-194.3" font-family="Times,serif" font-size="14.00">node #3</text>
<text text-anchor="middle" x="79" y="-179.3" font-family="Times,serif" font-size="14.00">gini = 0.0</text>
<text text-anchor="middle" x="79" y="-164.3" font-family="Times,serif" font-size="14.00">samples = 4</text>
<text text-anchor="middle" x="79" y="-149.3" font-family="Times,serif" font-size="14.00">value = [0.0, 8.146]</text>
<text text-anchor="middle" x="79" y="-134.3" font-family="Times,serif" font-size="14.00">class = Obstructive</text>
</g>
<!-- 2&#45;&gt;3 -->
<g id="edge3" class="edge">
<title>2&#45;&gt;3</title>
<path fill="none" stroke="black" d="M200.5,-252.97C182.81,-240.75 163.83,-227.63 146.26,-215.48"/>
<polygon fill="black" stroke="black" points="147.97,-212.41 137.75,-209.6 143.99,-218.17 147.97,-212.41"/>
</g>
<!-- 4 -->
<g id="node5" class="node">
<title>4</title>
<polygon fill="none" stroke="black" points="364,-217 176,-217 176,-119 364,-119 364,-217"/>
<text text-anchor="middle" x="270" y="-201.8" font-family="Times,serif" font-size="14.00">node #4</text>
<text text-anchor="middle" x="270" y="-186.8" font-family="Times,serif" font-size="14.00">FEFPreVal &lt;= 0.395</text>
<text text-anchor="middle" x="270" y="-171.8" font-family="Times,serif" font-size="14.00">gini = 0.275</text>
<text text-anchor="middle" x="270" y="-156.8" font-family="Times,serif" font-size="14.00">samples = 17</text>
<text text-anchor="middle" x="270" y="-141.8" font-family="Times,serif" font-size="14.00">value = [20.629, 4.073]</text>
<text text-anchor="middle" x="270" y="-126.8" font-family="Times,serif" font-size="14.00">class = Non&#45;obstructive</text>
</g>
<!-- 2&#45;&gt;4 -->
<g id="edge4" class="edge">
<title>2&#45;&gt;4</title>
<path fill="none" stroke="black" d="M270,-252.97C270,-244.69 270,-236 270,-227.48"/>
<polygon fill="black" stroke="black" points="273.5,-227.21 270,-217.21 266.5,-227.21 273.5,-227.21"/>
</g>
<!-- 5 -->
<g id="node6" class="node">
<title>5</title>
<polygon fill="none" stroke="black" points="158,-83 0,-83 0,0 158,0 158,-83"/>
<text text-anchor="middle" x="79" y="-67.8" font-family="Times,serif" font-size="14.00">node #5</text>
<text text-anchor="middle" x="79" y="-52.8" font-family="Times,serif" font-size="14.00">gini = 0.0</text>
<text text-anchor="middle" x="79" y="-37.8" font-family="Times,serif" font-size="14.00">samples = 2</text>
<text text-anchor="middle" x="79" y="-22.8" font-family="Times,serif" font-size="14.00">value = [0.0, 3.055]</text>
<text text-anchor="middle" x="79" y="-7.8" font-family="Times,serif" font-size="14.00">class = Obstructive</text>
</g>
<!-- 4&#45;&gt;5 -->
<g id="edge5" class="edge">
<title>4&#45;&gt;5</title>
<path fill="none" stroke="black" d="M196.15,-118.87C180.97,-108.97 165.02,-98.57 149.95,-88.74"/>
<polygon fill="black" stroke="black" points="151.47,-85.56 141.18,-83.03 147.65,-91.43 151.47,-85.56"/>
</g>
<!-- 6 -->
<g id="node7" class="node">
<title>6</title>
<polygon fill="none" stroke="black" points="364,-83 176,-83 176,0 364,0 364,-83"/>
<text text-anchor="middle" x="270" y="-67.8" font-family="Times,serif" font-size="14.00">node #6</text>
<text text-anchor="middle" x="270" y="-52.8" font-family="Times,serif" font-size="14.00">gini = 0.09</text>
<text text-anchor="middle" x="270" y="-37.8" font-family="Times,serif" font-size="14.00">samples = 15</text>
<text text-anchor="middle" x="270" y="-22.8" font-family="Times,serif" font-size="14.00">value = [20.629, 1.018]</text>
<text text-anchor="middle" x="270" y="-7.8" font-family="Times,serif" font-size="14.00">class = Non&#45;obstructive</text>
</g>
<!-- 4&#45;&gt;6 -->
<g id="edge6" class="edge">
<title>4&#45;&gt;6</title>
<path fill="none" stroke="black" d="M270,-118.87C270,-110.5 270,-101.77 270,-93.33"/>
<polygon fill="black" stroke="black" points="273.5,-93.23 270,-83.23 266.5,-93.23 273.5,-93.23"/>
</g>
<!-- 8 -->
<g id="node9" class="node">
<title>8</title>
<polygon fill="none" stroke="black" points="758.5,-217 561.5,-217 561.5,-119 758.5,-119 758.5,-217"/>
<text text-anchor="middle" x="660" y="-201.8" font-family="Times,serif" font-size="14.00">node #8</text>
<text text-anchor="middle" x="660" y="-186.8" font-family="Times,serif" font-size="14.00">FVCPostPercent &lt;= 59.5</text>
<text text-anchor="middle" x="660" y="-171.8" font-family="Times,serif" font-size="14.00">gini = 0.103</text>
<text text-anchor="middle" x="660" y="-156.8" font-family="Times,serif" font-size="14.00">samples = 64</text>
<text text-anchor="middle" x="660" y="-141.8" font-family="Times,serif" font-size="14.00">value = [5.894, 101.829]</text>
<text text-anchor="middle" x="660" y="-126.8" font-family="Times,serif" font-size="14.00">class = Obstructive</text>
</g>
<!-- 7&#45;&gt;8 -->
<g id="edge8" class="edge">
<title>7&#45;&gt;8</title>
<path fill="none" stroke="black" d="M728.07,-252.97C720.77,-243.96 713.07,-234.47 705.59,-225.24"/>
<polygon fill="black" stroke="black" points="708.1,-222.78 699.08,-217.21 702.66,-227.19 708.1,-222.78"/>
</g>
<!-- 11 -->
<g id="node12" class="node">
<title>11</title>
<polygon fill="none" stroke="black" points="971,-217 777,-217 777,-119 971,-119 971,-217"/>
<text text-anchor="middle" x="874" y="-201.8" font-family="Times,serif" font-size="14.00">node #11</text>
<text text-anchor="middle" x="874" y="-186.8" font-family="Times,serif" font-size="14.00">FVCPostVal &lt;= 2.42</text>
<text text-anchor="middle" x="874" y="-171.8" font-family="Times,serif" font-size="14.00">gini = 0.482</text>
<text text-anchor="middle" x="874" y="-156.8" font-family="Times,serif" font-size="14.00">samples = 30</text>
<text text-anchor="middle" x="874" y="-141.8" font-family="Times,serif" font-size="14.00">value = [18.665, 27.494]</text>
<text text-anchor="middle" x="874" y="-126.8" font-family="Times,serif" font-size="14.00">class = Obstructive</text>
</g>
<!-- 7&#45;&gt;11 -->
<g id="edge11" class="edge">
<title>7&#45;&gt;11</title>
<path fill="none" stroke="black" d="M805.93,-252.97C813.23,-243.96 820.93,-234.47 828.41,-225.24"/>
<polygon fill="black" stroke="black" points="831.34,-227.19 834.92,-217.21 825.9,-222.78 831.34,-227.19"/>
</g>
<!-- 9 -->
<g id="node10" class="node">
<title>9</title>
<polygon fill="none" stroke="black" points="567.5,-83 382.5,-83 382.5,0 567.5,0 567.5,-83"/>
<text text-anchor="middle" x="475" y="-67.8" font-family="Times,serif" font-size="14.00">node #9</text>
<text text-anchor="middle" x="475" y="-52.8" font-family="Times,serif" font-size="14.00">gini = 0.33</text>
<text text-anchor="middle" x="475" y="-37.8" font-family="Times,serif" font-size="14.00">samples = 18</text>
<text text-anchor="middle" x="475" y="-22.8" font-family="Times,serif" font-size="14.00">value = [5.894, 22.402]</text>
<text text-anchor="middle" x="475" y="-7.8" font-family="Times,serif" font-size="14.00">class = Obstructive</text>
</g>
<!-- 8&#45;&gt;9 -->
<g id="edge9" class="edge">
<title>8&#45;&gt;9</title>
<path fill="none" stroke="black" d="M588.47,-118.87C573.77,-108.97 558.32,-98.57 543.72,-88.74"/>
<polygon fill="black" stroke="black" points="545.48,-85.71 535.23,-83.03 541.57,-91.52 545.48,-85.71"/>
</g>
<!-- 10 -->
<g id="node11" class="node">
<title>10</title>
<polygon fill="none" stroke="black" points="752.5,-83 585.5,-83 585.5,0 752.5,0 752.5,-83"/>
<text text-anchor="middle" x="669" y="-67.8" font-family="Times,serif" font-size="14.00">node #10</text>
<text text-anchor="middle" x="669" y="-52.8" font-family="Times,serif" font-size="14.00">gini = 0.0</text>
<text text-anchor="middle" x="669" y="-37.8" font-family="Times,serif" font-size="14.00">samples = 46</text>
<text text-anchor="middle" x="669" y="-22.8" font-family="Times,serif" font-size="14.00">value = [0.0, 79.427]</text>
<text text-anchor="middle" x="669" y="-7.8" font-family="Times,serif" font-size="14.00">class = Obstructive</text>
</g>
<!-- 8&#45;&gt;10 -->
<g id="edge10" class="edge">
<title>8&#45;&gt;10</title>
<path fill="none" stroke="black" d="M663.48,-118.87C664.08,-110.5 664.72,-101.77 665.33,-93.33"/>
<polygon fill="black" stroke="black" points="668.83,-93.46 666.06,-83.23 661.84,-92.95 668.83,-93.46"/>
</g>
<!-- 12 -->
<g id="node13" class="node">
<title>12</title>
<polygon fill="none" stroke="black" points="959,-83 771,-83 771,0 959,0 959,-83"/>
<text text-anchor="middle" x="865" y="-67.8" font-family="Times,serif" font-size="14.00">node #12</text>
<text text-anchor="middle" x="865" y="-52.8" font-family="Times,serif" font-size="14.00">gini = 0.467</text>
<text text-anchor="middle" x="865" y="-37.8" font-family="Times,serif" font-size="14.00">samples = 13</text>
<text text-anchor="middle" x="865" y="-22.8" font-family="Times,serif" font-size="14.00">value = [13.753, 8.146]</text>
<text text-anchor="middle" x="865" y="-7.8" font-family="Times,serif" font-size="14.00">class = Non&#45;obstructive</text>
</g>
<!-- 11&#45;&gt;12 -->
<g id="edge12" class="edge">
<title>11&#45;&gt;12</title>
<path fill="none" stroke="black" d="M870.52,-118.87C869.92,-110.5 869.28,-101.77 868.67,-93.33"/>
<polygon fill="black" stroke="black" points="872.16,-92.95 867.94,-83.23 865.17,-93.46 872.16,-92.95"/>
</g>
<!-- 13 -->
<g id="node14" class="node">
<title>13</title>
<polygon fill="none" stroke="black" points="1162.5,-83 977.5,-83 977.5,0 1162.5,0 1162.5,-83"/>
<text text-anchor="middle" x="1070" y="-67.8" font-family="Times,serif" font-size="14.00">node #13</text>
<text text-anchor="middle" x="1070" y="-52.8" font-family="Times,serif" font-size="14.00">gini = 0.323</text>
<text text-anchor="middle" x="1070" y="-37.8" font-family="Times,serif" font-size="14.00">samples = 17</text>
<text text-anchor="middle" x="1070" y="-22.8" font-family="Times,serif" font-size="14.00">value = [4.912, 19.348]</text>
<text text-anchor="middle" x="1070" y="-7.8" font-family="Times,serif" font-size="14.00">class = Obstructive</text>
</g>
<!-- 11&#45;&gt;13 -->
<g id="edge13" class="edge">
<title>11&#45;&gt;13</title>
<path fill="none" stroke="black" d="M949.78,-118.87C965.5,-108.88 982.03,-98.38 997.63,-88.47"/>
<polygon fill="black" stroke="black" points="999.63,-91.35 1006.19,-83.03 995.87,-85.44 999.63,-91.35"/>
</g>
<!-- 15 -->
<g id="node16" class="node">
<title>15</title>
<polygon fill="none" stroke="black" points="1655,-351 1467,-351 1467,-253 1655,-253 1655,-351"/>
<text text-anchor="middle" x="1561" y="-335.8" font-family="Times,serif" font-size="14.00">node #15</text>
<text text-anchor="middle" x="1561" y="-320.8" font-family="Times,serif" font-size="14.00">FEFPostVal &lt;= 1.605</text>
<text text-anchor="middle" x="1561" y="-305.8" font-family="Times,serif" font-size="14.00">gini = 0.067</text>
<text text-anchor="middle" x="1561" y="-290.8" font-family="Times,serif" font-size="14.00">samples = 61</text>
<text text-anchor="middle" x="1561" y="-275.8" font-family="Times,serif" font-size="14.00">value = [84.482, 3.055]</text>
<text text-anchor="middle" x="1561" y="-260.8" font-family="Times,serif" font-size="14.00">class = Non&#45;obstructive</text>
</g>
<!-- 14&#45;&gt;15 -->
<g id="edge15" class="edge">
<title>14&#45;&gt;15</title>
<path fill="none" stroke="black" d="M1561,-386.97C1561,-378.69 1561,-370 1561,-361.48"/>
<polygon fill="black" stroke="black" points="1564.5,-361.21 1561,-351.21 1557.5,-361.21 1564.5,-361.21"/>
</g>
<!-- 22 -->
<g id="node23" class="node">
<title>22</title>
<polygon fill="none" stroke="black" points="2258,-351 2064,-351 2064,-253 2258,-253 2258,-351"/>
<text text-anchor="middle" x="2161" y="-335.8" font-family="Times,serif" font-size="14.00">node #22</text>
<text text-anchor="middle" x="2161" y="-320.8" font-family="Times,serif" font-size="14.00">FVCPostVal &lt;= 3.005</text>
<text text-anchor="middle" x="2161" y="-305.8" font-family="Times,serif" font-size="14.00">gini = 0.469</text>
<text text-anchor="middle" x="2161" y="-290.8" font-family="Times,serif" font-size="14.00">samples = 40</text>
<text text-anchor="middle" x="2161" y="-275.8" font-family="Times,serif" font-size="14.00">value = [37.329, 22.402]</text>
<text text-anchor="middle" x="2161" y="-260.8" font-family="Times,serif" font-size="14.00">class = Non&#45;obstructive</text>
</g>
<!-- 14&#45;&gt;22 -->
<g id="edge22" class="edge">
<title>14&#45;&gt;22</title>
<path fill="none" stroke="black" d="M1662.78,-412.61C1771.5,-388.69 1943.1,-350.94 2053.84,-326.58"/>
<polygon fill="black" stroke="black" points="2054.68,-329.97 2063.7,-324.41 2053.18,-323.14 2054.68,-329.97"/>
</g>
<!-- 16 -->
<g id="node17" class="node">
<title>16</title>
<polygon fill="none" stroke="black" points="1552,-217 1364,-217 1364,-119 1552,-119 1552,-217"/>
<text text-anchor="middle" x="1458" y="-201.8" font-family="Times,serif" font-size="14.00">node #16</text>
<text text-anchor="middle" x="1458" y="-186.8" font-family="Times,serif" font-size="14.00">FEV1PreVal &lt;= 1.625</text>
<text text-anchor="middle" x="1458" y="-171.8" font-family="Times,serif" font-size="14.00">gini = 0.414</text>
<text text-anchor="middle" x="1458" y="-156.8" font-family="Times,serif" font-size="14.00">samples = 7</text>
<text text-anchor="middle" x="1458" y="-141.8" font-family="Times,serif" font-size="14.00">value = [4.912, 2.037]</text>
<text text-anchor="middle" x="1458" y="-126.8" font-family="Times,serif" font-size="14.00">class = Non&#45;obstructive</text>
</g>
<!-- 15&#45;&gt;16 -->
<g id="edge16" class="edge">
<title>15&#45;&gt;16</title>
<path fill="none" stroke="black" d="M1523.52,-252.97C1516.49,-243.96 1509.09,-234.47 1501.88,-225.24"/>
<polygon fill="black" stroke="black" points="1504.53,-222.94 1495.62,-217.21 1499.01,-227.25 1504.53,-222.94"/>
</g>
<!-- 19 -->
<g id="node20" class="node">
<title>19</title>
<polygon fill="none" stroke="black" points="1758,-217 1570,-217 1570,-119 1758,-119 1758,-217"/>
<text text-anchor="middle" x="1664" y="-201.8" font-family="Times,serif" font-size="14.00">node #19</text>
<text text-anchor="middle" x="1664" y="-186.8" font-family="Times,serif" font-size="14.00">FVCPreVal &lt;= 2.605</text>
<text text-anchor="middle" x="1664" y="-171.8" font-family="Times,serif" font-size="14.00">gini = 0.025</text>
<text text-anchor="middle" x="1664" y="-156.8" font-family="Times,serif" font-size="14.00">samples = 54</text>
<text text-anchor="middle" x="1664" y="-141.8" font-family="Times,serif" font-size="14.00">value = [79.571, 1.018]</text>
<text text-anchor="middle" x="1664" y="-126.8" font-family="Times,serif" font-size="14.00">class = Non&#45;obstructive</text>
</g>
<!-- 15&#45;&gt;19 -->
<g id="edge19" class="edge">
<title>15&#45;&gt;19</title>
<path fill="none" stroke="black" d="M1598.48,-252.97C1605.51,-243.96 1612.91,-234.47 1620.12,-225.24"/>
<polygon fill="black" stroke="black" points="1622.99,-227.25 1626.38,-217.21 1617.47,-222.94 1622.99,-227.25"/>
</g>
<!-- 17 -->
<g id="node18" class="node">
<title>17</title>
<polygon fill="none" stroke="black" points="1369,-83 1181,-83 1181,0 1369,0 1369,-83"/>
<text text-anchor="middle" x="1275" y="-67.8" font-family="Times,serif" font-size="14.00">node #17</text>
<text text-anchor="middle" x="1275" y="-52.8" font-family="Times,serif" font-size="14.00">gini = 0.284</text>
<text text-anchor="middle" x="1275" y="-37.8" font-family="Times,serif" font-size="14.00">samples = 6</text>
<text text-anchor="middle" x="1275" y="-22.8" font-family="Times,serif" font-size="14.00">value = [4.912, 1.018]</text>
<text text-anchor="middle" x="1275" y="-7.8" font-family="Times,serif" font-size="14.00">class = Non&#45;obstructive</text>
</g>
<!-- 16&#45;&gt;17 -->
<g id="edge17" class="edge">
<title>16&#45;&gt;17</title>
<path fill="none" stroke="black" d="M1387.25,-118.87C1372.7,-108.97 1357.42,-98.57 1342.97,-88.74"/>
<polygon fill="black" stroke="black" points="1344.81,-85.76 1334.58,-83.03 1340.88,-91.55 1344.81,-85.76"/>
</g>
<!-- 18 -->
<g id="node19" class="node">
<title>18</title>
<polygon fill="none" stroke="black" points="1545,-83 1387,-83 1387,0 1545,0 1545,-83"/>
<text text-anchor="middle" x="1466" y="-67.8" font-family="Times,serif" font-size="14.00">node #18</text>
<text text-anchor="middle" x="1466" y="-52.8" font-family="Times,serif" font-size="14.00">gini = 0.0</text>
<text text-anchor="middle" x="1466" y="-37.8" font-family="Times,serif" font-size="14.00">samples = 1</text>
<text text-anchor="middle" x="1466" y="-22.8" font-family="Times,serif" font-size="14.00">value = [0.0, 1.018]</text>
<text text-anchor="middle" x="1466" y="-7.8" font-family="Times,serif" font-size="14.00">class = Obstructive</text>
</g>
<!-- 16&#45;&gt;18 -->
<g id="edge18" class="edge">
<title>16&#45;&gt;18</title>
<path fill="none" stroke="black" d="M1461.09,-118.87C1461.63,-110.5 1462.19,-101.77 1462.73,-93.33"/>
<polygon fill="black" stroke="black" points="1466.23,-93.43 1463.38,-83.23 1459.25,-92.99 1466.23,-93.43"/>
</g>
<!-- 20 -->
<g id="node21" class="node">
<title>20</title>
<polygon fill="none" stroke="black" points="1751,-83 1563,-83 1563,0 1751,0 1751,-83"/>
<text text-anchor="middle" x="1657" y="-67.8" font-family="Times,serif" font-size="14.00">node #20</text>
<text text-anchor="middle" x="1657" y="-52.8" font-family="Times,serif" font-size="14.00">gini = 0.0</text>
<text text-anchor="middle" x="1657" y="-37.8" font-family="Times,serif" font-size="14.00">samples = 51</text>
<text text-anchor="middle" x="1657" y="-22.8" font-family="Times,serif" font-size="14.00">value = [76.624, 0.0]</text>
<text text-anchor="middle" x="1657" y="-7.8" font-family="Times,serif" font-size="14.00">class = Non&#45;obstructive</text>
</g>
<!-- 19&#45;&gt;20 -->
<g id="edge20" class="edge">
<title>19&#45;&gt;20</title>
<path fill="none" stroke="black" d="M1661.29,-118.87C1660.82,-110.5 1660.33,-101.77 1659.86,-93.33"/>
<polygon fill="black" stroke="black" points="1663.35,-93.02 1659.29,-83.23 1656.36,-93.41 1663.35,-93.02"/>
</g>
<!-- 21 -->
<g id="node22" class="node">
<title>21</title>
<polygon fill="none" stroke="black" points="1957,-83 1769,-83 1769,0 1957,0 1957,-83"/>
<text text-anchor="middle" x="1863" y="-67.8" font-family="Times,serif" font-size="14.00">node #21</text>
<text text-anchor="middle" x="1863" y="-52.8" font-family="Times,serif" font-size="14.00">gini = 0.382</text>
<text text-anchor="middle" x="1863" y="-37.8" font-family="Times,serif" font-size="14.00">samples = 3</text>
<text text-anchor="middle" x="1863" y="-22.8" font-family="Times,serif" font-size="14.00">value = [2.947, 1.018]</text>
<text text-anchor="middle" x="1863" y="-7.8" font-family="Times,serif" font-size="14.00">class = Non&#45;obstructive</text>
</g>
<!-- 19&#45;&gt;21 -->
<g id="edge21" class="edge">
<title>19&#45;&gt;21</title>
<path fill="none" stroke="black" d="M1740.94,-118.87C1756.9,-108.88 1773.69,-98.38 1789.52,-88.47"/>
<polygon fill="black" stroke="black" points="1791.59,-91.3 1798.21,-83.03 1787.88,-85.37 1791.59,-91.3"/>
</g>
<!-- 23 -->
<g id="node24" class="node">
<title>23</title>
<polygon fill="none" stroke="black" points="2259.5,-217 2062.5,-217 2062.5,-119 2259.5,-119 2259.5,-217"/>
<text text-anchor="middle" x="2161" y="-201.8" font-family="Times,serif" font-size="14.00">node #23</text>
<text text-anchor="middle" x="2161" y="-186.8" font-family="Times,serif" font-size="14.00">FVCPostPercent &lt;= 74.0</text>
<text text-anchor="middle" x="2161" y="-171.8" font-family="Times,serif" font-size="14.00">gini = 0.128</text>
<text text-anchor="middle" x="2161" y="-156.8" font-family="Times,serif" font-size="14.00">samples = 21</text>
<text text-anchor="middle" x="2161" y="-141.8" font-family="Times,serif" font-size="14.00">value = [27.506, 2.037]</text>
<text text-anchor="middle" x="2161" y="-126.8" font-family="Times,serif" font-size="14.00">class = Non&#45;obstructive</text>
</g>
<!-- 22&#45;&gt;23 -->
<g id="edge23" class="edge">
<title>22&#45;&gt;23</title>
<path fill="none" stroke="black" d="M2161,-252.97C2161,-244.69 2161,-236 2161,-227.48"/>
<polygon fill="black" stroke="black" points="2164.5,-227.21 2161,-217.21 2157.5,-227.21 2164.5,-227.21"/>
</g>
<!-- 26 -->
<g id="node27" class="node">
<title>26</title>
<polygon fill="none" stroke="black" points="2560.5,-217 2375.5,-217 2375.5,-119 2560.5,-119 2560.5,-217"/>
<text text-anchor="middle" x="2468" y="-201.8" font-family="Times,serif" font-size="14.00">node #26</text>
<text text-anchor="middle" x="2468" y="-186.8" font-family="Times,serif" font-size="14.00">FEV1PostVal &lt;= 3.4</text>
<text text-anchor="middle" x="2468" y="-171.8" font-family="Times,serif" font-size="14.00">gini = 0.439</text>
<text text-anchor="middle" x="2468" y="-156.8" font-family="Times,serif" font-size="14.00">samples = 19</text>
<text text-anchor="middle" x="2468" y="-141.8" font-family="Times,serif" font-size="14.00">value = [9.824, 20.366]</text>
<text text-anchor="middle" x="2468" y="-126.8" font-family="Times,serif" font-size="14.00">class = Obstructive</text>
</g>
<!-- 22&#45;&gt;26 -->
<g id="edge26" class="edge">
<title>22&#45;&gt;26</title>
<path fill="none" stroke="black" d="M2258.14,-259.23C2292.57,-244.43 2331.39,-227.74 2366.19,-212.77"/>
<polygon fill="black" stroke="black" points="2367.62,-215.97 2375.42,-208.81 2364.85,-209.54 2367.62,-215.97"/>
</g>
<!-- 24 -->
<g id="node25" class="node">
<title>24</title>
<polygon fill="none" stroke="black" points="2151,-83 1975,-83 1975,0 2151,0 2151,-83"/>
<text text-anchor="middle" x="2063" y="-67.8" font-family="Times,serif" font-size="14.00">node #24</text>
<text text-anchor="middle" x="2063" y="-52.8" font-family="Times,serif" font-size="14.00">gini = 0.439</text>
<text text-anchor="middle" x="2063" y="-37.8" font-family="Times,serif" font-size="14.00">samples = 3</text>
<text text-anchor="middle" x="2063" y="-22.8" font-family="Times,serif" font-size="14.00">value = [0.982, 2.037]</text>
<text text-anchor="middle" x="2063" y="-7.8" font-family="Times,serif" font-size="14.00">class = Obstructive</text>
</g>
<!-- 23&#45;&gt;24 -->
<g id="edge24" class="edge">
<title>23&#45;&gt;24</title>
<path fill="none" stroke="black" d="M2123.11,-118.87C2115.95,-109.76 2108.45,-100.23 2101.27,-91.12"/>
<polygon fill="black" stroke="black" points="2104,-88.92 2095.06,-83.23 2098.5,-93.25 2104,-88.92"/>
</g>
<!-- 25 -->
<g id="node26" class="node">
<title>25</title>
<polygon fill="none" stroke="black" points="2357,-83 2169,-83 2169,0 2357,0 2357,-83"/>
<text text-anchor="middle" x="2263" y="-67.8" font-family="Times,serif" font-size="14.00">node #25</text>
<text text-anchor="middle" x="2263" y="-52.8" font-family="Times,serif" font-size="14.00">gini = &#45;0.0</text>
<text text-anchor="middle" x="2263" y="-37.8" font-family="Times,serif" font-size="14.00">samples = 18</text>
<text text-anchor="middle" x="2263" y="-22.8" font-family="Times,serif" font-size="14.00">value = [26.524, 0.0]</text>
<text text-anchor="middle" x="2263" y="-7.8" font-family="Times,serif" font-size="14.00">class = Non&#45;obstructive</text>
</g>
<!-- 23&#45;&gt;25 -->
<g id="edge25" class="edge">
<title>23&#45;&gt;25</title>
<path fill="none" stroke="black" d="M2200.44,-118.87C2207.89,-109.76 2215.7,-100.23 2223.17,-91.12"/>
<polygon fill="black" stroke="black" points="2226,-93.18 2229.63,-83.23 2220.59,-88.75 2226,-93.18"/>
</g>
<!-- 27 -->
<g id="node28" class="node">
<title>27</title>
<polygon fill="none" stroke="black" points="2560.5,-83 2375.5,-83 2375.5,0 2560.5,0 2560.5,-83"/>
<text text-anchor="middle" x="2468" y="-67.8" font-family="Times,serif" font-size="14.00">node #27</text>
<text text-anchor="middle" x="2468" y="-52.8" font-family="Times,serif" font-size="14.00">gini = 0.402</text>
<text text-anchor="middle" x="2468" y="-37.8" font-family="Times,serif" font-size="14.00">samples = 17</text>
<text text-anchor="middle" x="2468" y="-22.8" font-family="Times,serif" font-size="14.00">value = [7.859, 20.366]</text>
<text text-anchor="middle" x="2468" y="-7.8" font-family="Times,serif" font-size="14.00">class = Obstructive</text>
</g>
<!-- 26&#45;&gt;27 -->
<g id="edge27" class="edge">
<title>26&#45;&gt;27</title>
<path fill="none" stroke="black" d="M2468,-118.87C2468,-110.5 2468,-101.77 2468,-93.33"/>
<polygon fill="black" stroke="black" points="2471.5,-93.23 2468,-83.23 2464.5,-93.23 2471.5,-93.23"/>
</g>
<!-- 28 -->
<g id="node29" class="node">
<title>28</title>
<polygon fill="none" stroke="black" points="2767,-83 2579,-83 2579,0 2767,0 2767,-83"/>
<text text-anchor="middle" x="2673" y="-67.8" font-family="Times,serif" font-size="14.00">node #28</text>
<text text-anchor="middle" x="2673" y="-52.8" font-family="Times,serif" font-size="14.00">gini = &#45;0.0</text>
<text text-anchor="middle" x="2673" y="-37.8" font-family="Times,serif" font-size="14.00">samples = 2</text>
<text text-anchor="middle" x="2673" y="-22.8" font-family="Times,serif" font-size="14.00">value = [1.965, 0.0]</text>
<text text-anchor="middle" x="2673" y="-7.8" font-family="Times,serif" font-size="14.00">class = Non&#45;obstructive</text>
</g>
<!-- 26&#45;&gt;28 -->
<g id="edge28" class="edge">
<title>26&#45;&gt;28</title>
<path fill="none" stroke="black" d="M2547.26,-118.87C2563.7,-108.88 2580.99,-98.38 2597.31,-88.47"/>
<polygon fill="black" stroke="black" points="2599.53,-91.21 2606.26,-83.03 2595.9,-85.23 2599.53,-91.21"/>
</g>
</g>
</svg>
