<?xml version="1.0" encoding="UTF-8" standalone="no"?>
<!DOCTYPE svg PUBLIC "-//W3C//DTD SVG 1.1//EN"
 "http://www.w3.org/Graphics/SVG/1.1/DTD/svg11.dtd">
<!-- Generated by graphviz version 2.43.0 (0)
 -->
<!-- Title: Tree Pages: 1 -->
<svg width="2223pt" height="627pt"
 viewBox="0.00 0.00 2222.50 627.00" xmlns="http://www.w3.org/2000/svg" xmlns:xlink="http://www.w3.org/1999/xlink">
<g id="graph0" class="graph" transform="scale(1 1) rotate(0) translate(4 623)">
<title>Tree</title>
<polygon fill="white" stroke="transparent" points="-4,4 -4,-623 2218.5,-623 2218.5,4 -4,4"/>
<!-- 0 -->
<g id="node1" class="node">
<title>0</title>
<polygon fill="none" stroke="black" points="1341,-619 1165,-619 1165,-521 1341,-521 1341,-619"/>
<text text-anchor="middle" x="1253" y="-603.8" font-family="Times,serif" font-size="14.00">node #0</text>
<text text-anchor="middle" x="1253" y="-588.8" font-family="Times,serif" font-size="14.00">FVCPreVal &lt;= 2.135</text>
<text text-anchor="middle" x="1253" y="-573.8" font-family="Times,serif" font-size="14.00">gini = 0.5</text>
<text text-anchor="middle" x="1253" y="-558.8" font-family="Times,serif" font-size="14.00">samples = 202</text>
<text text-anchor="middle" x="1253" y="-543.8" font-family="Times,serif" font-size="14.00">value = [167.0, 167.0]</text>
<text text-anchor="middle" x="1253" y="-528.8" font-family="Times,serif" font-size="14.00">class = Obstructive</text>
</g>
<!-- 1 -->
<g id="node2" class="node">
<title>1</title>
<polygon fill="none" stroke="black" points="1054.5,-485 851.5,-485 851.5,-387 1054.5,-387 1054.5,-485"/>
<text text-anchor="middle" x="953" y="-469.8" font-family="Times,serif" font-size="14.00">node #1</text>
<text text-anchor="middle" x="953" y="-454.8" font-family="Times,serif" font-size="14.00">FEV1PreVal &lt;= 1.29</text>
<text text-anchor="middle" x="953" y="-439.8" font-family="Times,serif" font-size="14.00">gini = 0.474</text>
<text text-anchor="middle" x="953" y="-424.8" font-family="Times,serif" font-size="14.00">samples = 114</text>
<text text-anchor="middle" x="953" y="-409.8" font-family="Times,serif" font-size="14.00">value = [117.944, 73.902]</text>
<text text-anchor="middle" x="953" y="-394.8" font-family="Times,serif" font-size="14.00">class = Non&#45;obstructive</text>
</g>
<!-- 0&#45;&gt;1 -->
<g id="edge1" class="edge">
<title>0&#45;&gt;1</title>
<path fill="none" stroke="black" d="M1164.61,-530.11C1133.09,-516.24 1097.18,-500.44 1064.01,-485.84"/>
<polygon fill="black" stroke="black" points="1065.29,-482.58 1054.73,-481.76 1062.47,-488.99 1065.29,-482.58"/>
<text text-anchor="middle" x="1063.79" y="-501.36" font-family="Times,serif" font-size="14.00">True</text>
</g>
<!-- 14 -->
<g id="node15" class="node">
<title>14</title>
<polygon fill="none" stroke="black" points="1727,-485 1521,-485 1521,-387 1727,-387 1727,-485"/>
<text text-anchor="middle" x="1624" y="-469.8" font-family="Times,serif" font-size="14.00">node #14</text>
<text text-anchor="middle" x="1624" y="-454.8" font-family="Times,serif" font-size="14.00">FEV1PostPercent &lt;= 93.0</text>
<text text-anchor="middle" x="1624" y="-439.8" font-family="Times,serif" font-size="14.00">gini = 0.452</text>
<text text-anchor="middle" x="1624" y="-424.8" font-family="Times,serif" font-size="14.00">samples = 88</text>
<text text-anchor="middle" x="1624" y="-409.8" font-family="Times,serif" font-size="14.00">value = [49.056, 93.098]</text>
<text text-anchor="middle" x="1624" y="-394.8" font-family="Times,serif" font-size="14.00">class = Obstructive</text>
</g>
<!-- 0&#45;&gt;14 -->
<g id="edge14" class="edge">
<title>0&#45;&gt;14</title>
<path fill="none" stroke="black" d="M1341.39,-537.55C1392.24,-519.46 1456.65,-496.54 1511.13,-477.16"/>
<polygon fill="black" stroke="black" points="1512.58,-480.36 1520.83,-473.71 1510.24,-473.76 1512.58,-480.36"/>
<text text-anchor="middle" x="1510.1" y="-492.59" font-family="Times,serif" font-size="14.00">False</text>
</g>
<!-- 2 -->
<g id="node3" class="node">
<title>2</title>
<polygon fill="none" stroke="black" points="702,-351 508,-351 508,-253 702,-253 702,-351"/>
<text text-anchor="middle" x="605" y="-335.8" font-family="Times,serif" font-size="14.00">node #2</text>
<text text-anchor="middle" x="605" y="-320.8" font-family="Times,serif" font-size="14.00">FEFPostVal &lt;= 1.13</text>
<text text-anchor="middle" x="605" y="-305.8" font-family="Times,serif" font-size="14.00">gini = 0.483</text>
<text text-anchor="middle" x="605" y="-290.8" font-family="Times,serif" font-size="14.00">samples = 70</text>
<text text-anchor="middle" x="605" y="-275.8" font-family="Times,serif" font-size="14.00">value = [46.969, 68.144]</text>
<text text-anchor="middle" x="605" y="-260.8" font-family="Times,serif" font-size="14.00">class = Obstructive</text>
</g>
<!-- 1&#45;&gt;2 -->
<g id="edge2" class="edge">
<title>1&#45;&gt;2</title>
<path fill="none" stroke="black" d="M851.41,-396.47C807.49,-379.81 756.07,-360.3 711.61,-343.44"/>
<polygon fill="black" stroke="black" points="712.82,-340.15 702.23,-339.88 710.34,-346.7 712.82,-340.15"/>
</g>
<!-- 9 -->
<g id="node10" class="node">
<title>9</title>
<polygon fill="none" stroke="black" points="1047,-351 859,-351 859,-253 1047,-253 1047,-351"/>
<text text-anchor="middle" x="953" y="-335.8" font-family="Times,serif" font-size="14.00">node #9</text>
<text text-anchor="middle" x="953" y="-320.8" font-family="Times,serif" font-size="14.00">FVCPreVal &lt;= 1.035</text>
<text text-anchor="middle" x="953" y="-305.8" font-family="Times,serif" font-size="14.00">gini = 0.139</text>
<text text-anchor="middle" x="953" y="-290.8" font-family="Times,serif" font-size="14.00">samples = 44</text>
<text text-anchor="middle" x="953" y="-275.8" font-family="Times,serif" font-size="14.00">value = [70.975, 5.759]</text>
<text text-anchor="middle" x="953" y="-260.8" font-family="Times,serif" font-size="14.00">class = Non&#45;obstructive</text>
</g>
<!-- 1&#45;&gt;9 -->
<g id="edge9" class="edge">
<title>1&#45;&gt;9</title>
<path fill="none" stroke="black" d="M953,-386.97C953,-378.69 953,-370 953,-361.48"/>
<polygon fill="black" stroke="black" points="956.5,-361.21 953,-351.21 949.5,-361.21 956.5,-361.21"/>
</g>
<!-- 3 -->
<g id="node4" class="node">
<title>3</title>
<polygon fill="none" stroke="black" points="391.5,-217 206.5,-217 206.5,-119 391.5,-119 391.5,-217"/>
<text text-anchor="middle" x="299" y="-201.8" font-family="Times,serif" font-size="14.00">node #3</text>
<text text-anchor="middle" x="299" y="-186.8" font-family="Times,serif" font-size="14.00">FVCPostVal &lt;= 0.945</text>
<text text-anchor="middle" x="299" y="-171.8" font-family="Times,serif" font-size="14.00">gini = 0.142</text>
<text text-anchor="middle" x="299" y="-156.8" font-family="Times,serif" font-size="14.00">samples = 42</text>
<text text-anchor="middle" x="299" y="-141.8" font-family="Times,serif" font-size="14.00">value = [5.219, 62.385]</text>
<text text-anchor="middle" x="299" y="-126.8" font-family="Times,serif" font-size="14.00">class = Obstructive</text>
</g>
<!-- 2&#45;&gt;3 -->
<g id="edge3" class="edge">
<title>2&#45;&gt;3</title>
<path fill="none" stroke="black" d="M507.76,-259.05C473.77,-244.39 435.52,-227.89 401.14,-213.06"/>
<polygon fill="black" stroke="black" points="402.12,-209.67 391.55,-208.92 399.35,-216.1 402.12,-209.67"/>
</g>
<!-- 6 -->
<g id="node7" class="node">
<title>6</title>
<polygon fill="none" stroke="black" points="700.5,-217 509.5,-217 509.5,-119 700.5,-119 700.5,-217"/>
<text text-anchor="middle" x="605" y="-201.8" font-family="Times,serif" font-size="14.00">node #6</text>
<text text-anchor="middle" x="605" y="-186.8" font-family="Times,serif" font-size="14.00">FVCPrePercent &lt;= 57.0</text>
<text text-anchor="middle" x="605" y="-171.8" font-family="Times,serif" font-size="14.00">gini = 0.213</text>
<text text-anchor="middle" x="605" y="-156.8" font-family="Times,serif" font-size="14.00">samples = 28</text>
<text text-anchor="middle" x="605" y="-141.8" font-family="Times,serif" font-size="14.00">value = [41.75, 5.759]</text>
<text text-anchor="middle" x="605" y="-126.8" font-family="Times,serif" font-size="14.00">class = Non&#45;obstructive</text>
</g>
<!-- 2&#45;&gt;6 -->
<g id="edge6" class="edge">
<title>2&#45;&gt;6</title>
<path fill="none" stroke="black" d="M605,-252.97C605,-244.69 605,-236 605,-227.48"/>
<polygon fill="black" stroke="black" points="608.5,-227.21 605,-217.21 601.5,-227.21 608.5,-227.21"/>
</g>
<!-- 4 -->
<g id="node5" class="node">
<title>4</title>
<polygon fill="none" stroke="black" points="188,-83 0,-83 0,0 188,0 188,-83"/>
<text text-anchor="middle" x="94" y="-67.8" font-family="Times,serif" font-size="14.00">node #4</text>
<text text-anchor="middle" x="94" y="-52.8" font-family="Times,serif" font-size="14.00">gini = 0.0</text>
<text text-anchor="middle" x="94" y="-37.8" font-family="Times,serif" font-size="14.00">samples = 2</text>
<text text-anchor="middle" x="94" y="-22.8" font-family="Times,serif" font-size="14.00">value = [2.088, 0.0]</text>
<text text-anchor="middle" x="94" y="-7.8" font-family="Times,serif" font-size="14.00">class = Non&#45;obstructive</text>
</g>
<!-- 3&#45;&gt;4 -->
<g id="edge4" class="edge">
<title>3&#45;&gt;4</title>
<path fill="none" stroke="black" d="M219.74,-118.87C203.3,-108.88 186.01,-98.38 169.69,-88.47"/>
<polygon fill="black" stroke="black" points="171.1,-85.23 160.74,-83.03 167.47,-91.21 171.1,-85.23"/>
</g>
<!-- 5 -->
<g id="node6" class="node">
<title>5</title>
<polygon fill="none" stroke="black" points="391.5,-83 206.5,-83 206.5,0 391.5,0 391.5,-83"/>
<text text-anchor="middle" x="299" y="-67.8" font-family="Times,serif" font-size="14.00">node #5</text>
<text text-anchor="middle" x="299" y="-52.8" font-family="Times,serif" font-size="14.00">gini = 0.091</text>
<text text-anchor="middle" x="299" y="-37.8" font-family="Times,serif" font-size="14.00">samples = 40</text>
<text text-anchor="middle" x="299" y="-22.8" font-family="Times,serif" font-size="14.00">value = [3.131, 62.385]</text>
<text text-anchor="middle" x="299" y="-7.8" font-family="Times,serif" font-size="14.00">class = Obstructive</text>
</g>
<!-- 3&#45;&gt;5 -->
<g id="edge5" class="edge">
<title>3&#45;&gt;5</title>
<path fill="none" stroke="black" d="M299,-118.87C299,-110.5 299,-101.77 299,-93.33"/>
<polygon fill="black" stroke="black" points="302.5,-93.23 299,-83.23 295.5,-93.23 302.5,-93.23"/>
</g>
<!-- 7 -->
<g id="node8" class="node">
<title>7</title>
<polygon fill="none" stroke="black" points="598,-83 410,-83 410,0 598,0 598,-83"/>
<text text-anchor="middle" x="504" y="-67.8" font-family="Times,serif" font-size="14.00">node #7</text>
<text text-anchor="middle" x="504" y="-52.8" font-family="Times,serif" font-size="14.00">gini = 0.086</text>
<text text-anchor="middle" x="504" y="-37.8" font-family="Times,serif" font-size="14.00">samples = 25</text>
<text text-anchor="middle" x="504" y="-22.8" font-family="Times,serif" font-size="14.00">value = [40.706, 1.92]</text>
<text text-anchor="middle" x="504" y="-7.8" font-family="Times,serif" font-size="14.00">class = Non&#45;obstructive</text>
</g>
<!-- 6&#45;&gt;7 -->
<g id="edge7" class="edge">
<title>6&#45;&gt;7</title>
<path fill="none" stroke="black" d="M565.95,-118.87C558.57,-109.76 550.84,-100.23 543.44,-91.12"/>
<polygon fill="black" stroke="black" points="546.06,-88.79 537.04,-83.23 540.62,-93.2 546.06,-88.79"/>
</g>
<!-- 8 -->
<g id="node9" class="node">
<title>8</title>
<polygon fill="none" stroke="black" points="792,-83 616,-83 616,0 792,0 792,-83"/>
<text text-anchor="middle" x="704" y="-67.8" font-family="Times,serif" font-size="14.00">node #8</text>
<text text-anchor="middle" x="704" y="-52.8" font-family="Times,serif" font-size="14.00">gini = 0.336</text>
<text text-anchor="middle" x="704" y="-37.8" font-family="Times,serif" font-size="14.00">samples = 3</text>
<text text-anchor="middle" x="704" y="-22.8" font-family="Times,serif" font-size="14.00">value = [1.044, 3.839]</text>
<text text-anchor="middle" x="704" y="-7.8" font-family="Times,serif" font-size="14.00">class = Obstructive</text>
</g>
<!-- 6&#45;&gt;8 -->
<g id="edge8" class="edge">
<title>6&#45;&gt;8</title>
<path fill="none" stroke="black" d="M643.28,-118.87C650.51,-109.76 658.09,-100.23 665.34,-91.12"/>
<polygon fill="black" stroke="black" points="668.13,-93.24 671.61,-83.23 662.65,-88.88 668.13,-93.24"/>
</g>
<!-- 10 -->
<g id="node11" class="node">
<title>10</title>
<polygon fill="none" stroke="black" points="936.5,-209.5 779.5,-209.5 779.5,-126.5 936.5,-126.5 936.5,-209.5"/>
<text text-anchor="middle" x="858" y="-194.3" font-family="Times,serif" font-size="14.00">node #10</text>
<text text-anchor="middle" x="858" y="-179.3" font-family="Times,serif" font-size="14.00">gini = 0.0</text>
<text text-anchor="middle" x="858" y="-164.3" font-family="Times,serif" font-size="14.00">samples = 1</text>
<text text-anchor="middle" x="858" y="-149.3" font-family="Times,serif" font-size="14.00">value = [0.0, 1.92]</text>
<text text-anchor="middle" x="858" y="-134.3" font-family="Times,serif" font-size="14.00">class = Obstructive</text>
</g>
<!-- 9&#45;&gt;10 -->
<g id="edge10" class="edge">
<title>9&#45;&gt;10</title>
<path fill="none" stroke="black" d="M918.43,-252.97C910.24,-241.58 901.48,-229.42 893.26,-217.99"/>
<polygon fill="black" stroke="black" points="896.06,-215.89 887.38,-209.82 890.38,-219.98 896.06,-215.89"/>
</g>
<!-- 11 -->
<g id="node12" class="node">
<title>11</title>
<polygon fill="none" stroke="black" points="1143,-217 955,-217 955,-119 1143,-119 1143,-217"/>
<text text-anchor="middle" x="1049" y="-201.8" font-family="Times,serif" font-size="14.00">node #11</text>
<text text-anchor="middle" x="1049" y="-186.8" font-family="Times,serif" font-size="14.00">FEFPreVal &lt;= 1.365</text>
<text text-anchor="middle" x="1049" y="-171.8" font-family="Times,serif" font-size="14.00">gini = 0.097</text>
<text text-anchor="middle" x="1049" y="-156.8" font-family="Times,serif" font-size="14.00">samples = 43</text>
<text text-anchor="middle" x="1049" y="-141.8" font-family="Times,serif" font-size="14.00">value = [70.975, 3.839]</text>
<text text-anchor="middle" x="1049" y="-126.8" font-family="Times,serif" font-size="14.00">class = Non&#45;obstructive</text>
</g>
<!-- 9&#45;&gt;11 -->
<g id="edge11" class="edge">
<title>9&#45;&gt;11</title>
<path fill="none" stroke="black" d="M987.93,-252.97C994.42,-244.05 1001.24,-234.66 1007.89,-225.52"/>
<polygon fill="black" stroke="black" points="1010.88,-227.36 1013.94,-217.21 1005.22,-223.24 1010.88,-227.36"/>
</g>
<!-- 12 -->
<g id="node13" class="node">
<title>12</title>
<polygon fill="none" stroke="black" points="998,-83 810,-83 810,0 998,0 998,-83"/>
<text text-anchor="middle" x="904" y="-67.8" font-family="Times,serif" font-size="14.00">node #12</text>
<text text-anchor="middle" x="904" y="-52.8" font-family="Times,serif" font-size="14.00">gini = 0.471</text>
<text text-anchor="middle" x="904" y="-37.8" font-family="Times,serif" font-size="14.00">samples = 5</text>
<text text-anchor="middle" x="904" y="-22.8" font-family="Times,serif" font-size="14.00">value = [6.262, 3.839]</text>
<text text-anchor="middle" x="904" y="-7.8" font-family="Times,serif" font-size="14.00">class = Non&#45;obstructive</text>
</g>
<!-- 11&#45;&gt;12 -->
<g id="edge12" class="edge">
<title>11&#45;&gt;12</title>
<path fill="none" stroke="black" d="M992.94,-118.87C981.91,-109.39 970.34,-99.46 959.34,-90.01"/>
<polygon fill="black" stroke="black" points="961.3,-87.09 951.44,-83.23 956.74,-92.4 961.3,-87.09"/>
</g>
<!-- 13 -->
<g id="node14" class="node">
<title>13</title>
<polygon fill="none" stroke="black" points="1204,-83 1016,-83 1016,0 1204,0 1204,-83"/>
<text text-anchor="middle" x="1110" y="-67.8" font-family="Times,serif" font-size="14.00">node #13</text>
<text text-anchor="middle" x="1110" y="-52.8" font-family="Times,serif" font-size="14.00">gini = &#45;0.0</text>
<text text-anchor="middle" x="1110" y="-37.8" font-family="Times,serif" font-size="14.00">samples = 38</text>
<text text-anchor="middle" x="1110" y="-22.8" font-family="Times,serif" font-size="14.00">value = [64.713, 0.0]</text>
<text text-anchor="middle" x="1110" y="-7.8" font-family="Times,serif" font-size="14.00">class = Non&#45;obstructive</text>
</g>
<!-- 11&#45;&gt;13 -->
<g id="edge13" class="edge">
<title>11&#45;&gt;13</title>
<path fill="none" stroke="black" d="M1072.58,-118.87C1076.86,-110.13 1081.34,-101 1085.64,-92.22"/>
<polygon fill="black" stroke="black" points="1088.79,-93.75 1090.04,-83.23 1082.5,-90.67 1088.79,-93.75"/>
</g>
<!-- 15 -->
<g id="node16" class="node">
<title>15</title>
<polygon fill="none" stroke="black" points="1721,-351 1527,-351 1527,-253 1721,-253 1721,-351"/>
<text text-anchor="middle" x="1624" y="-335.8" font-family="Times,serif" font-size="14.00">node #15</text>
<text text-anchor="middle" x="1624" y="-320.8" font-family="Times,serif" font-size="14.00">FEFPreVal &lt;= 2.3</text>
<text text-anchor="middle" x="1624" y="-305.8" font-family="Times,serif" font-size="14.00">gini = 0.413</text>
<text text-anchor="middle" x="1624" y="-290.8" font-family="Times,serif" font-size="14.00">samples = 81</text>
<text text-anchor="middle" x="1624" y="-275.8" font-family="Times,serif" font-size="14.00">value = [37.575, 91.178]</text>
<text text-anchor="middle" x="1624" y="-260.8" font-family="Times,serif" font-size="14.00">class = Obstructive</text>
</g>
<!-- 14&#45;&gt;15 -->
<g id="edge15" class="edge">
<title>14&#45;&gt;15</title>
<path fill="none" stroke="black" d="M1624,-386.97C1624,-378.69 1624,-370 1624,-361.48"/>
<polygon fill="black" stroke="black" points="1627.5,-361.21 1624,-351.21 1620.5,-361.21 1627.5,-361.21"/>
</g>
<!-- 22 -->
<g id="node23" class="node">
<title>22</title>
<polygon fill="none" stroke="black" points="2045,-351 1845,-351 1845,-253 2045,-253 2045,-351"/>
<text text-anchor="middle" x="1945" y="-335.8" font-family="Times,serif" font-size="14.00">node #22</text>
<text text-anchor="middle" x="1945" y="-320.8" font-family="Times,serif" font-size="14.00">FVCPrePercent &lt;= 127.0</text>
<text text-anchor="middle" x="1945" y="-305.8" font-family="Times,serif" font-size="14.00">gini = 0.245</text>
<text text-anchor="middle" x="1945" y="-290.8" font-family="Times,serif" font-size="14.00">samples = 7</text>
<text text-anchor="middle" x="1945" y="-275.8" font-family="Times,serif" font-size="14.00">value = [11.481, 1.92]</text>
<text text-anchor="middle" x="1945" y="-260.8" font-family="Times,serif" font-size="14.00">class = Non&#45;obstructive</text>
</g>
<!-- 14&#45;&gt;22 -->
<g id="edge22" class="edge">
<title>14&#45;&gt;22</title>
<path fill="none" stroke="black" d="M1727.33,-392.51C1761.91,-378.29 1800.55,-362.4 1835.58,-348"/>
<polygon fill="black" stroke="black" points="1836.95,-351.21 1844.87,-344.17 1834.29,-344.74 1836.95,-351.21"/>
</g>
<!-- 16 -->
<g id="node17" class="node">
<title>16</title>
<polygon fill="none" stroke="black" points="1617.5,-217 1420.5,-217 1420.5,-119 1617.5,-119 1617.5,-217"/>
<text text-anchor="middle" x="1519" y="-201.8" font-family="Times,serif" font-size="14.00">node #16</text>
<text text-anchor="middle" x="1519" y="-186.8" font-family="Times,serif" font-size="14.00">FVCPostPercent &lt;= 61.0</text>
<text text-anchor="middle" x="1519" y="-171.8" font-family="Times,serif" font-size="14.00">gini = 0.27</text>
<text text-anchor="middle" x="1519" y="-156.8" font-family="Times,serif" font-size="14.00">samples = 59</text>
<text text-anchor="middle" x="1519" y="-141.8" font-family="Times,serif" font-size="14.00">value = [15.656, 81.58]</text>
<text text-anchor="middle" x="1519" y="-126.8" font-family="Times,serif" font-size="14.00">class = Obstructive</text>
</g>
<!-- 15&#45;&gt;16 -->
<g id="edge16" class="edge">
<title>15&#45;&gt;16</title>
<path fill="none" stroke="black" d="M1585.8,-252.97C1578.63,-243.96 1571.08,-234.47 1563.74,-225.24"/>
<polygon fill="black" stroke="black" points="1566.32,-222.86 1557.35,-217.21 1560.84,-227.22 1566.32,-222.86"/>
</g>
<!-- 19 -->
<g id="node20" class="node">
<title>19</title>
<polygon fill="none" stroke="black" points="1832.5,-217 1635.5,-217 1635.5,-119 1832.5,-119 1832.5,-217"/>
<text text-anchor="middle" x="1734" y="-201.8" font-family="Times,serif" font-size="14.00">node #19</text>
<text text-anchor="middle" x="1734" y="-186.8" font-family="Times,serif" font-size="14.00">FVCPostPercent &lt;= 81.0</text>
<text text-anchor="middle" x="1734" y="-171.8" font-family="Times,serif" font-size="14.00">gini = 0.424</text>
<text text-anchor="middle" x="1734" y="-156.8" font-family="Times,serif" font-size="14.00">samples = 22</text>
<text text-anchor="middle" x="1734" y="-141.8" font-family="Times,serif" font-size="14.00">value = [21.919, 9.598]</text>
<text text-anchor="middle" x="1734" y="-126.8" font-family="Times,serif" font-size="14.00">class = Non&#45;obstructive</text>
</g>
<!-- 15&#45;&gt;19 -->
<g id="edge19" class="edge">
<title>15&#45;&gt;19</title>
<path fill="none" stroke="black" d="M1664.02,-252.97C1671.61,-243.87 1679.6,-234.28 1687.37,-224.96"/>
<polygon fill="black" stroke="black" points="1690.11,-227.14 1693.82,-217.21 1684.73,-222.66 1690.11,-227.14"/>
</g>
<!-- 17 -->
<g id="node18" class="node">
<title>17</title>
<polygon fill="none" stroke="black" points="1410,-83 1222,-83 1222,0 1410,0 1410,-83"/>
<text text-anchor="middle" x="1316" y="-67.8" font-family="Times,serif" font-size="14.00">node #17</text>
<text text-anchor="middle" x="1316" y="-52.8" font-family="Times,serif" font-size="14.00">gini = 0.359</text>
<text text-anchor="middle" x="1316" y="-37.8" font-family="Times,serif" font-size="14.00">samples = 3</text>
<text text-anchor="middle" x="1316" y="-22.8" font-family="Times,serif" font-size="14.00">value = [3.131, 0.96]</text>
<text text-anchor="middle" x="1316" y="-7.8" font-family="Times,serif" font-size="14.00">class = Non&#45;obstructive</text>
</g>
<!-- 16&#45;&gt;17 -->
<g id="edge17" class="edge">
<title>16&#45;&gt;17</title>
<path fill="none" stroke="black" d="M1440.51,-118.87C1424.23,-108.88 1407.11,-98.38 1390.95,-88.47"/>
<polygon fill="black" stroke="black" points="1392.44,-85.28 1382.09,-83.03 1388.78,-91.24 1392.44,-85.28"/>
</g>
<!-- 18 -->
<g id="node19" class="node">
<title>18</title>
<polygon fill="none" stroke="black" points="1622,-83 1428,-83 1428,0 1622,0 1622,-83"/>
<text text-anchor="middle" x="1525" y="-67.8" font-family="Times,serif" font-size="14.00">node #18</text>
<text text-anchor="middle" x="1525" y="-52.8" font-family="Times,serif" font-size="14.00">gini = 0.233</text>
<text text-anchor="middle" x="1525" y="-37.8" font-family="Times,serif" font-size="14.00">samples = 56</text>
<text text-anchor="middle" x="1525" y="-22.8" font-family="Times,serif" font-size="14.00">value = [12.525, 80.621]</text>
<text text-anchor="middle" x="1525" y="-7.8" font-family="Times,serif" font-size="14.00">class = Obstructive</text>
</g>
<!-- 16&#45;&gt;18 -->
<g id="edge18" class="edge">
<title>16&#45;&gt;18</title>
<path fill="none" stroke="black" d="M1521.32,-118.87C1521.72,-110.5 1522.14,-101.77 1522.55,-93.33"/>
<polygon fill="black" stroke="black" points="1526.05,-93.39 1523.04,-83.23 1519.06,-93.05 1526.05,-93.39"/>
</g>
<!-- 20 -->
<g id="node21" class="node">
<title>20</title>
<polygon fill="none" stroke="black" points="1828,-83 1640,-83 1640,0 1828,0 1828,-83"/>
<text text-anchor="middle" x="1734" y="-67.8" font-family="Times,serif" font-size="14.00">node #20</text>
<text text-anchor="middle" x="1734" y="-52.8" font-family="Times,serif" font-size="14.00">gini = 0.282</text>
<text text-anchor="middle" x="1734" y="-37.8" font-family="Times,serif" font-size="14.00">samples = 17</text>
<text text-anchor="middle" x="1734" y="-22.8" font-family="Times,serif" font-size="14.00">value = [18.787, 3.839]</text>
<text text-anchor="middle" x="1734" y="-7.8" font-family="Times,serif" font-size="14.00">class = Non&#45;obstructive</text>
</g>
<!-- 19&#45;&gt;20 -->
<g id="edge20" class="edge">
<title>19&#45;&gt;20</title>
<path fill="none" stroke="black" d="M1734,-118.87C1734,-110.5 1734,-101.77 1734,-93.33"/>
<polygon fill="black" stroke="black" points="1737.5,-93.23 1734,-83.23 1730.5,-93.23 1737.5,-93.23"/>
</g>
<!-- 21 -->
<g id="node22" class="node">
<title>21</title>
<polygon fill="none" stroke="black" points="2022,-83 1846,-83 1846,0 2022,0 2022,-83"/>
<text text-anchor="middle" x="1934" y="-67.8" font-family="Times,serif" font-size="14.00">node #21</text>
<text text-anchor="middle" x="1934" y="-52.8" font-family="Times,serif" font-size="14.00">gini = 0.456</text>
<text text-anchor="middle" x="1934" y="-37.8" font-family="Times,serif" font-size="14.00">samples = 5</text>
<text text-anchor="middle" x="1934" y="-22.8" font-family="Times,serif" font-size="14.00">value = [3.131, 5.759]</text>
<text text-anchor="middle" x="1934" y="-7.8" font-family="Times,serif" font-size="14.00">class = Obstructive</text>
</g>
<!-- 19&#45;&gt;21 -->
<g id="edge21" class="edge">
<title>19&#45;&gt;21</title>
<path fill="none" stroke="black" d="M1811.33,-118.87C1827.37,-108.88 1844.24,-98.38 1860.15,-88.47"/>
<polygon fill="black" stroke="black" points="1862.25,-91.29 1868.89,-83.03 1858.55,-85.35 1862.25,-91.29"/>
</g>
<!-- 23 -->
<g id="node24" class="node">
<title>23</title>
<polygon fill="none" stroke="black" points="2039,-209.5 1851,-209.5 1851,-126.5 2039,-126.5 2039,-209.5"/>
<text text-anchor="middle" x="1945" y="-194.3" font-family="Times,serif" font-size="14.00">node #23</text>
<text text-anchor="middle" x="1945" y="-179.3" font-family="Times,serif" font-size="14.00">gini = 0.0</text>
<text text-anchor="middle" x="1945" y="-164.3" font-family="Times,serif" font-size="14.00">samples = 6</text>
<text text-anchor="middle" x="1945" y="-149.3" font-family="Times,serif" font-size="14.00">value = [11.481, 0.0]</text>
<text text-anchor="middle" x="1945" y="-134.3" font-family="Times,serif" font-size="14.00">class = Non&#45;obstructive</text>
</g>
<!-- 22&#45;&gt;23 -->
<g id="edge23" class="edge">
<title>22&#45;&gt;23</title>
<path fill="none" stroke="black" d="M1945,-252.97C1945,-242.25 1945,-230.84 1945,-219.99"/>
<polygon fill="black" stroke="black" points="1948.5,-219.82 1945,-209.82 1941.5,-219.82 1948.5,-219.82"/>
</g>
<!-- 24 -->
<g id="node25" class="node">
<title>24</title>
<polygon fill="none" stroke="black" points="2214.5,-209.5 2057.5,-209.5 2057.5,-126.5 2214.5,-126.5 2214.5,-209.5"/>
<text text-anchor="middle" x="2136" y="-194.3" font-family="Times,serif" font-size="14.00">node #24</text>
<text text-anchor="middle" x="2136" y="-179.3" font-family="Times,serif" font-size="14.00">gini = 0.0</text>
<text text-anchor="middle" x="2136" y="-164.3" font-family="Times,serif" font-size="14.00">samples = 1</text>
<text text-anchor="middle" x="2136" y="-149.3" font-family="Times,serif" font-size="14.00">value = [0.0, 1.92]</text>
<text text-anchor="middle" x="2136" y="-134.3" font-family="Times,serif" font-size="14.00">class = Obstructive</text>
</g>
<!-- 22&#45;&gt;24 -->
<g id="edge24" class="edge">
<title>22&#45;&gt;24</title>
<path fill="none" stroke="black" d="M2014.5,-252.97C2032.19,-240.75 2051.17,-227.63 2068.74,-215.48"/>
<polygon fill="black" stroke="black" points="2071.01,-218.17 2077.25,-209.6 2067.03,-212.41 2071.01,-218.17"/>
</g>
</g>
</svg>
