<?xml version="1.0" encoding="UTF-8" standalone="no"?>
<!DOCTYPE svg PUBLIC "-//W3C//DTD SVG 1.1//EN"
 "http://www.w3.org/Graphics/SVG/1.1/DTD/svg11.dtd">
<!-- Generated by graphviz version 2.43.0 (0)
 -->
<!-- Title: Tree Pages: 1 -->
<svg width="2334pt" height="627pt"
 viewBox="0.00 0.00 2333.50 627.00" xmlns="http://www.w3.org/2000/svg" xmlns:xlink="http://www.w3.org/1999/xlink">
<g id="graph0" class="graph" transform="scale(1 1) rotate(0) translate(4 623)">
<title>Tree</title>
<polygon fill="white" stroke="transparent" points="-4,4 -4,-623 2329.5,-623 2329.5,4 -4,4"/>
<!-- 0 -->
<g id="node1" class="node">
<title>0</title>
<polygon fill="none" stroke="black" points="1244,-619 1053,-619 1053,-521 1244,-521 1244,-619"/>
<text text-anchor="middle" x="1148.5" y="-603.8" font-family="Times,serif" font-size="14.00">node #0</text>
<text text-anchor="middle" x="1148.5" y="-588.8" font-family="Times,serif" font-size="14.00">FEFPrePercent &lt;= 48.5</text>
<text text-anchor="middle" x="1148.5" y="-573.8" font-family="Times,serif" font-size="14.00">gini = 0.5</text>
<text text-anchor="middle" x="1148.5" y="-558.8" font-family="Times,serif" font-size="14.00">samples = 214</text>
<text text-anchor="middle" x="1148.5" y="-543.8" font-family="Times,serif" font-size="14.00">value = [167.0, 167.0]</text>
<text text-anchor="middle" x="1148.5" y="-528.8" font-family="Times,serif" font-size="14.00">class = Obstructive</text>
</g>
<!-- 1 -->
<g id="node2" class="node">
<title>1</title>
<polygon fill="none" stroke="black" points="888,-485 685,-485 685,-387 888,-387 888,-485"/>
<text text-anchor="middle" x="786.5" y="-469.8" font-family="Times,serif" font-size="14.00">node #1</text>
<text text-anchor="middle" x="786.5" y="-454.8" font-family="Times,serif" font-size="14.00">FEFPreVal &lt;= 0.845</text>
<text text-anchor="middle" x="786.5" y="-439.8" font-family="Times,serif" font-size="14.00">gini = 0.241</text>
<text text-anchor="middle" x="786.5" y="-424.8" font-family="Times,serif" font-size="14.00">samples = 107</text>
<text text-anchor="middle" x="786.5" y="-409.8" font-family="Times,serif" font-size="14.00">value = [22.626, 139.011]</text>
<text text-anchor="middle" x="786.5" y="-394.8" font-family="Times,serif" font-size="14.00">class = Obstructive</text>
</g>
<!-- 0&#45;&gt;1 -->
<g id="edge1" class="edge">
<title>0&#45;&gt;1</title>
<path fill="none" stroke="black" d="M1052.92,-534.15C1005.19,-516.74 947.19,-495.6 897.51,-477.48"/>
<polygon fill="black" stroke="black" points="898.61,-474.15 888.01,-474.02 896.21,-480.73 898.61,-474.15"/>
<text text-anchor="middle" x="898.56" y="-492.98" font-family="Times,serif" font-size="14.00">True</text>
</g>
<!-- 14 -->
<g id="node15" class="node">
<title>14</title>
<polygon fill="none" stroke="black" points="1608,-485 1405,-485 1405,-387 1608,-387 1608,-485"/>
<text text-anchor="middle" x="1506.5" y="-469.8" font-family="Times,serif" font-size="14.00">node #14</text>
<text text-anchor="middle" x="1506.5" y="-454.8" font-family="Times,serif" font-size="14.00">FVCPreVal &lt;= 2.17</text>
<text text-anchor="middle" x="1506.5" y="-439.8" font-family="Times,serif" font-size="14.00">gini = 0.272</text>
<text text-anchor="middle" x="1506.5" y="-424.8" font-family="Times,serif" font-size="14.00">samples = 107</text>
<text text-anchor="middle" x="1506.5" y="-409.8" font-family="Times,serif" font-size="14.00">value = [144.374, 27.989]</text>
<text text-anchor="middle" x="1506.5" y="-394.8" font-family="Times,serif" font-size="14.00">class = Non&#45;obstructive</text>
</g>
<!-- 0&#45;&gt;14 -->
<g id="edge14" class="edge">
<title>0&#45;&gt;14</title>
<path fill="none" stroke="black" d="M1244.44,-533.63C1290.94,-516.48 1347.06,-495.79 1395.41,-477.96"/>
<polygon fill="black" stroke="black" points="1396.8,-481.18 1404.97,-474.43 1394.38,-474.61 1396.8,-481.18"/>
<text text-anchor="middle" x="1394.5" y="-493.44" font-family="Times,serif" font-size="14.00">False</text>
</g>
<!-- 2 -->
<g id="node3" class="node">
<title>2</title>
<polygon fill="none" stroke="black" points="577,-351 386,-351 386,-253 577,-253 577,-351"/>
<text text-anchor="middle" x="481.5" y="-335.8" font-family="Times,serif" font-size="14.00">node #2</text>
<text text-anchor="middle" x="481.5" y="-320.8" font-family="Times,serif" font-size="14.00">FVCPrePercent &lt;= 48.5</text>
<text text-anchor="middle" x="481.5" y="-305.8" font-family="Times,serif" font-size="14.00">gini = 0.042</text>
<text text-anchor="middle" x="481.5" y="-290.8" font-family="Times,serif" font-size="14.00">samples = 60</text>
<text text-anchor="middle" x="481.5" y="-275.8" font-family="Times,serif" font-size="14.00">value = [2.155, 97.961]</text>
<text text-anchor="middle" x="481.5" y="-260.8" font-family="Times,serif" font-size="14.00">class = Obstructive</text>
</g>
<!-- 1&#45;&gt;2 -->
<g id="edge2" class="edge">
<title>1&#45;&gt;2</title>
<path fill="none" stroke="black" d="M684.94,-391.05C653.32,-377.36 618.39,-362.24 586.54,-348.46"/>
<polygon fill="black" stroke="black" points="587.77,-345.18 577.2,-344.42 584.99,-351.6 587.77,-345.18"/>
</g>
<!-- 7 -->
<g id="node8" class="node">
<title>7</title>
<polygon fill="none" stroke="black" points="879,-351 694,-351 694,-253 879,-253 879,-351"/>
<text text-anchor="middle" x="786.5" y="-335.8" font-family="Times,serif" font-size="14.00">node #7</text>
<text text-anchor="middle" x="786.5" y="-320.8" font-family="Times,serif" font-size="14.00">FVCPreVal &lt;= 1.95</text>
<text text-anchor="middle" x="786.5" y="-305.8" font-family="Times,serif" font-size="14.00">gini = 0.444</text>
<text text-anchor="middle" x="786.5" y="-290.8" font-family="Times,serif" font-size="14.00">samples = 47</text>
<text text-anchor="middle" x="786.5" y="-275.8" font-family="Times,serif" font-size="14.00">value = [20.471, 41.05]</text>
<text text-anchor="middle" x="786.5" y="-260.8" font-family="Times,serif" font-size="14.00">class = Obstructive</text>
</g>
<!-- 1&#45;&gt;7 -->
<g id="edge7" class="edge">
<title>1&#45;&gt;7</title>
<path fill="none" stroke="black" d="M786.5,-386.97C786.5,-378.69 786.5,-370 786.5,-361.48"/>
<polygon fill="black" stroke="black" points="790,-361.21 786.5,-351.21 783,-361.21 790,-361.21"/>
</g>
<!-- 3 -->
<g id="node4" class="node">
<title>3</title>
<polygon fill="none" stroke="black" points="379.5,-217 179.5,-217 179.5,-119 379.5,-119 379.5,-217"/>
<text text-anchor="middle" x="279.5" y="-201.8" font-family="Times,serif" font-size="14.00">node #3</text>
<text text-anchor="middle" x="279.5" y="-186.8" font-family="Times,serif" font-size="14.00">FEV1PrePercent &lt;= 40.0</text>
<text text-anchor="middle" x="279.5" y="-171.8" font-family="Times,serif" font-size="14.00">gini = 0.141</text>
<text text-anchor="middle" x="279.5" y="-156.8" font-family="Times,serif" font-size="14.00">samples = 18</text>
<text text-anchor="middle" x="279.5" y="-141.8" font-family="Times,serif" font-size="14.00">value = [2.155, 26.123]</text>
<text text-anchor="middle" x="279.5" y="-126.8" font-family="Times,serif" font-size="14.00">class = Obstructive</text>
</g>
<!-- 2&#45;&gt;3 -->
<g id="edge3" class="edge">
<title>2&#45;&gt;3</title>
<path fill="none" stroke="black" d="M408,-252.97C392.96,-243.14 377.04,-232.74 361.72,-222.73"/>
<polygon fill="black" stroke="black" points="363.57,-219.75 353.28,-217.21 359.74,-225.61 363.57,-219.75"/>
</g>
<!-- 6 -->
<g id="node7" class="node">
<title>6</title>
<polygon fill="none" stroke="black" points="565,-209.5 398,-209.5 398,-126.5 565,-126.5 565,-209.5"/>
<text text-anchor="middle" x="481.5" y="-194.3" font-family="Times,serif" font-size="14.00">node #6</text>
<text text-anchor="middle" x="481.5" y="-179.3" font-family="Times,serif" font-size="14.00">gini = 0.0</text>
<text text-anchor="middle" x="481.5" y="-164.3" font-family="Times,serif" font-size="14.00">samples = 42</text>
<text text-anchor="middle" x="481.5" y="-149.3" font-family="Times,serif" font-size="14.00">value = [0.0, 71.838]</text>
<text text-anchor="middle" x="481.5" y="-134.3" font-family="Times,serif" font-size="14.00">class = Obstructive</text>
</g>
<!-- 2&#45;&gt;6 -->
<g id="edge6" class="edge">
<title>2&#45;&gt;6</title>
<path fill="none" stroke="black" d="M481.5,-252.97C481.5,-242.25 481.5,-230.84 481.5,-219.99"/>
<polygon fill="black" stroke="black" points="485,-219.82 481.5,-209.82 478,-219.82 485,-219.82"/>
</g>
<!-- 4 -->
<g id="node5" class="node">
<title>4</title>
<polygon fill="none" stroke="black" points="167,-83 0,-83 0,0 167,0 167,-83"/>
<text text-anchor="middle" x="83.5" y="-67.8" font-family="Times,serif" font-size="14.00">node #4</text>
<text text-anchor="middle" x="83.5" y="-52.8" font-family="Times,serif" font-size="14.00">gini = 0.0</text>
<text text-anchor="middle" x="83.5" y="-37.8" font-family="Times,serif" font-size="14.00">samples = 16</text>
<text text-anchor="middle" x="83.5" y="-22.8" font-family="Times,serif" font-size="14.00">value = [0.0, 26.123]</text>
<text text-anchor="middle" x="83.5" y="-7.8" font-family="Times,serif" font-size="14.00">class = Obstructive</text>
</g>
<!-- 3&#45;&gt;4 -->
<g id="edge4" class="edge">
<title>3&#45;&gt;4</title>
<path fill="none" stroke="black" d="M203.72,-118.87C188,-108.88 171.47,-98.38 155.87,-88.47"/>
<polygon fill="black" stroke="black" points="157.63,-85.44 147.31,-83.03 153.87,-91.35 157.63,-85.44"/>
</g>
<!-- 5 -->
<g id="node6" class="node">
<title>5</title>
<polygon fill="none" stroke="black" points="373.5,-83 185.5,-83 185.5,0 373.5,0 373.5,-83"/>
<text text-anchor="middle" x="279.5" y="-67.8" font-family="Times,serif" font-size="14.00">node #5</text>
<text text-anchor="middle" x="279.5" y="-52.8" font-family="Times,serif" font-size="14.00">gini = 0.0</text>
<text text-anchor="middle" x="279.5" y="-37.8" font-family="Times,serif" font-size="14.00">samples = 2</text>
<text text-anchor="middle" x="279.5" y="-22.8" font-family="Times,serif" font-size="14.00">value = [2.155, 0.0]</text>
<text text-anchor="middle" x="279.5" y="-7.8" font-family="Times,serif" font-size="14.00">class = Non&#45;obstructive</text>
</g>
<!-- 3&#45;&gt;5 -->
<g id="edge5" class="edge">
<title>3&#45;&gt;5</title>
<path fill="none" stroke="black" d="M279.5,-118.87C279.5,-110.5 279.5,-101.77 279.5,-93.33"/>
<polygon fill="black" stroke="black" points="283,-93.23 279.5,-83.23 276,-93.23 283,-93.23"/>
</g>
<!-- 8 -->
<g id="node9" class="node">
<title>8</title>
<polygon fill="none" stroke="black" points="771.5,-217 583.5,-217 583.5,-119 771.5,-119 771.5,-217"/>
<text text-anchor="middle" x="677.5" y="-201.8" font-family="Times,serif" font-size="14.00">node #8</text>
<text text-anchor="middle" x="677.5" y="-186.8" font-family="Times,serif" font-size="14.00">FEV1PreVal &lt;= 1.46</text>
<text text-anchor="middle" x="677.5" y="-171.8" font-family="Times,serif" font-size="14.00">gini = 0.408</text>
<text text-anchor="middle" x="677.5" y="-156.8" font-family="Times,serif" font-size="14.00">samples = 15</text>
<text text-anchor="middle" x="677.5" y="-141.8" font-family="Times,serif" font-size="14.00">value = [14.006, 5.598]</text>
<text text-anchor="middle" x="677.5" y="-126.8" font-family="Times,serif" font-size="14.00">class = Non&#45;obstructive</text>
</g>
<!-- 7&#45;&gt;8 -->
<g id="edge8" class="edge">
<title>7&#45;&gt;8</title>
<path fill="none" stroke="black" d="M746.84,-252.97C739.33,-243.87 731.41,-234.28 723.71,-224.96"/>
<polygon fill="black" stroke="black" points="726.38,-222.7 717.31,-217.21 720.98,-227.15 726.38,-222.7"/>
</g>
<!-- 11 -->
<g id="node12" class="node">
<title>11</title>
<polygon fill="none" stroke="black" points="981,-217 790,-217 790,-119 981,-119 981,-217"/>
<text text-anchor="middle" x="885.5" y="-201.8" font-family="Times,serif" font-size="14.00">node #11</text>
<text text-anchor="middle" x="885.5" y="-186.8" font-family="Times,serif" font-size="14.00">FVCPrePercent &lt;= 65.0</text>
<text text-anchor="middle" x="885.5" y="-171.8" font-family="Times,serif" font-size="14.00">gini = 0.261</text>
<text text-anchor="middle" x="885.5" y="-156.8" font-family="Times,serif" font-size="14.00">samples = 32</text>
<text text-anchor="middle" x="885.5" y="-141.8" font-family="Times,serif" font-size="14.00">value = [6.465, 35.453]</text>
<text text-anchor="middle" x="885.5" y="-126.8" font-family="Times,serif" font-size="14.00">class = Obstructive</text>
</g>
<!-- 7&#45;&gt;11 -->
<g id="edge11" class="edge">
<title>7&#45;&gt;11</title>
<path fill="none" stroke="black" d="M822.52,-252.97C829.28,-243.96 836.4,-234.47 843.32,-225.24"/>
<polygon fill="black" stroke="black" points="846.14,-227.31 849.34,-217.21 840.54,-223.11 846.14,-227.31"/>
</g>
<!-- 9 -->
<g id="node10" class="node">
<title>9</title>
<polygon fill="none" stroke="black" points="580.5,-83 392.5,-83 392.5,0 580.5,0 580.5,-83"/>
<text text-anchor="middle" x="486.5" y="-67.8" font-family="Times,serif" font-size="14.00">node #9</text>
<text text-anchor="middle" x="486.5" y="-52.8" font-family="Times,serif" font-size="14.00">gini = 0.117</text>
<text text-anchor="middle" x="486.5" y="-37.8" font-family="Times,serif" font-size="14.00">samples = 12</text>
<text text-anchor="middle" x="486.5" y="-22.8" font-family="Times,serif" font-size="14.00">value = [14.006, 0.933]</text>
<text text-anchor="middle" x="486.5" y="-7.8" font-family="Times,serif" font-size="14.00">class = Non&#45;obstructive</text>
</g>
<!-- 8&#45;&gt;9 -->
<g id="edge9" class="edge">
<title>8&#45;&gt;9</title>
<path fill="none" stroke="black" d="M603.65,-118.87C588.47,-108.97 572.52,-98.57 557.45,-88.74"/>
<polygon fill="black" stroke="black" points="558.97,-85.56 548.68,-83.03 555.15,-91.43 558.97,-85.56"/>
</g>
<!-- 10 -->
<g id="node11" class="node">
<title>10</title>
<polygon fill="none" stroke="black" points="756.5,-83 598.5,-83 598.5,0 756.5,0 756.5,-83"/>
<text text-anchor="middle" x="677.5" y="-67.8" font-family="Times,serif" font-size="14.00">node #10</text>
<text text-anchor="middle" x="677.5" y="-52.8" font-family="Times,serif" font-size="14.00">gini = &#45;0.0</text>
<text text-anchor="middle" x="677.5" y="-37.8" font-family="Times,serif" font-size="14.00">samples = 3</text>
<text text-anchor="middle" x="677.5" y="-22.8" font-family="Times,serif" font-size="14.00">value = [0.0, 4.665]</text>
<text text-anchor="middle" x="677.5" y="-7.8" font-family="Times,serif" font-size="14.00">class = Obstructive</text>
</g>
<!-- 8&#45;&gt;10 -->
<g id="edge10" class="edge">
<title>8&#45;&gt;10</title>
<path fill="none" stroke="black" d="M677.5,-118.87C677.5,-110.5 677.5,-101.77 677.5,-93.33"/>
<polygon fill="black" stroke="black" points="681,-93.23 677.5,-83.23 674,-93.23 681,-93.23"/>
</g>
<!-- 12 -->
<g id="node13" class="node">
<title>12</title>
<polygon fill="none" stroke="black" points="941,-83 774,-83 774,0 941,0 941,-83"/>
<text text-anchor="middle" x="857.5" y="-67.8" font-family="Times,serif" font-size="14.00">node #12</text>
<text text-anchor="middle" x="857.5" y="-52.8" font-family="Times,serif" font-size="14.00">gini = 0.499</text>
<text text-anchor="middle" x="857.5" y="-37.8" font-family="Times,serif" font-size="14.00">samples = 7</text>
<text text-anchor="middle" x="857.5" y="-22.8" font-family="Times,serif" font-size="14.00">value = [4.31, 4.665]</text>
<text text-anchor="middle" x="857.5" y="-7.8" font-family="Times,serif" font-size="14.00">class = Obstructive</text>
</g>
<!-- 11&#45;&gt;12 -->
<g id="edge12" class="edge">
<title>11&#45;&gt;12</title>
<path fill="none" stroke="black" d="M874.67,-118.87C872.77,-110.41 870.79,-101.58 868.87,-93.06"/>
<polygon fill="black" stroke="black" points="872.27,-92.22 866.66,-83.23 865.44,-93.76 872.27,-92.22"/>
</g>
<!-- 13 -->
<g id="node14" class="node">
<title>13</title>
<polygon fill="none" stroke="black" points="1144,-83 959,-83 959,0 1144,0 1144,-83"/>
<text text-anchor="middle" x="1051.5" y="-67.8" font-family="Times,serif" font-size="14.00">node #13</text>
<text text-anchor="middle" x="1051.5" y="-52.8" font-family="Times,serif" font-size="14.00">gini = 0.122</text>
<text text-anchor="middle" x="1051.5" y="-37.8" font-family="Times,serif" font-size="14.00">samples = 25</text>
<text text-anchor="middle" x="1051.5" y="-22.8" font-family="Times,serif" font-size="14.00">value = [2.155, 30.788]</text>
<text text-anchor="middle" x="1051.5" y="-7.8" font-family="Times,serif" font-size="14.00">class = Obstructive</text>
</g>
<!-- 11&#45;&gt;13 -->
<g id="edge13" class="edge">
<title>11&#45;&gt;13</title>
<path fill="none" stroke="black" d="M949.68,-118.87C962.63,-109.15 976.22,-98.96 989.11,-89.3"/>
<polygon fill="black" stroke="black" points="991.56,-91.83 997.46,-83.03 987.36,-86.23 991.56,-91.83"/>
</g>
<!-- 15 -->
<g id="node16" class="node">
<title>15</title>
<polygon fill="none" stroke="black" points="1605,-351 1408,-351 1408,-253 1605,-253 1605,-351"/>
<text text-anchor="middle" x="1506.5" y="-335.8" font-family="Times,serif" font-size="14.00">node #15</text>
<text text-anchor="middle" x="1506.5" y="-320.8" font-family="Times,serif" font-size="14.00">FVCPostPercent &lt;= 63.5</text>
<text text-anchor="middle" x="1506.5" y="-305.8" font-family="Times,serif" font-size="14.00">gini = 0.082</text>
<text text-anchor="middle" x="1506.5" y="-290.8" font-family="Times,serif" font-size="14.00">samples = 60</text>
<text text-anchor="middle" x="1506.5" y="-275.8" font-family="Times,serif" font-size="14.00">value = [104.51, 4.665]</text>
<text text-anchor="middle" x="1506.5" y="-260.8" font-family="Times,serif" font-size="14.00">class = Non&#45;obstructive</text>
</g>
<!-- 14&#45;&gt;15 -->
<g id="edge15" class="edge">
<title>14&#45;&gt;15</title>
<path fill="none" stroke="black" d="M1506.5,-386.97C1506.5,-378.69 1506.5,-370 1506.5,-361.48"/>
<polygon fill="black" stroke="black" points="1510,-361.21 1506.5,-351.21 1503,-361.21 1510,-361.21"/>
</g>
<!-- 22 -->
<g id="node23" class="node">
<title>22</title>
<polygon fill="none" stroke="black" points="1923.5,-351 1717.5,-351 1717.5,-253 1923.5,-253 1923.5,-351"/>
<text text-anchor="middle" x="1820.5" y="-335.8" font-family="Times,serif" font-size="14.00">node #22</text>
<text text-anchor="middle" x="1820.5" y="-320.8" font-family="Times,serif" font-size="14.00">FEV1PostPercent &lt;= 62.5</text>
<text text-anchor="middle" x="1820.5" y="-305.8" font-family="Times,serif" font-size="14.00">gini = 0.466</text>
<text text-anchor="middle" x="1820.5" y="-290.8" font-family="Times,serif" font-size="14.00">samples = 47</text>
<text text-anchor="middle" x="1820.5" y="-275.8" font-family="Times,serif" font-size="14.00">value = [39.865, 23.324]</text>
<text text-anchor="middle" x="1820.5" y="-260.8" font-family="Times,serif" font-size="14.00">class = Non&#45;obstructive</text>
</g>
<!-- 14&#45;&gt;22 -->
<g id="edge22" class="edge">
<title>14&#45;&gt;22</title>
<path fill="none" stroke="black" d="M1608.01,-392.33C1639.9,-378.92 1675.28,-364.05 1707.88,-350.34"/>
<polygon fill="black" stroke="black" points="1709.59,-353.42 1717.45,-346.32 1706.88,-346.97 1709.59,-353.42"/>
</g>
<!-- 16 -->
<g id="node17" class="node">
<title>16</title>
<polygon fill="none" stroke="black" points="1506.5,-217 1318.5,-217 1318.5,-119 1506.5,-119 1506.5,-217"/>
<text text-anchor="middle" x="1412.5" y="-201.8" font-family="Times,serif" font-size="14.00">node #16</text>
<text text-anchor="middle" x="1412.5" y="-186.8" font-family="Times,serif" font-size="14.00">FEFPreVal &lt;= 0.685</text>
<text text-anchor="middle" x="1412.5" y="-171.8" font-family="Times,serif" font-size="14.00">gini = 0.022</text>
<text text-anchor="middle" x="1412.5" y="-156.8" font-family="Times,serif" font-size="14.00">samples = 45</text>
<text text-anchor="middle" x="1412.5" y="-141.8" font-family="Times,serif" font-size="14.00">value = [84.039, 0.933]</text>
<text text-anchor="middle" x="1412.5" y="-126.8" font-family="Times,serif" font-size="14.00">class = Non&#45;obstructive</text>
</g>
<!-- 15&#45;&gt;16 -->
<g id="edge16" class="edge">
<title>15&#45;&gt;16</title>
<path fill="none" stroke="black" d="M1472.3,-252.97C1465.95,-244.05 1459.26,-234.66 1452.75,-225.52"/>
<polygon fill="black" stroke="black" points="1455.49,-223.33 1446.83,-217.21 1449.78,-227.39 1455.49,-223.33"/>
</g>
<!-- 19 -->
<g id="node20" class="node">
<title>19</title>
<polygon fill="none" stroke="black" points="1722,-217 1525,-217 1525,-119 1722,-119 1722,-217"/>
<text text-anchor="middle" x="1623.5" y="-201.8" font-family="Times,serif" font-size="14.00">node #19</text>
<text text-anchor="middle" x="1623.5" y="-186.8" font-family="Times,serif" font-size="14.00">FVCPostPercent &lt;= 65.0</text>
<text text-anchor="middle" x="1623.5" y="-171.8" font-family="Times,serif" font-size="14.00">gini = 0.261</text>
<text text-anchor="middle" x="1623.5" y="-156.8" font-family="Times,serif" font-size="14.00">samples = 15</text>
<text text-anchor="middle" x="1623.5" y="-141.8" font-family="Times,serif" font-size="14.00">value = [20.471, 3.732]</text>
<text text-anchor="middle" x="1623.5" y="-126.8" font-family="Times,serif" font-size="14.00">class = Non&#45;obstructive</text>
</g>
<!-- 15&#45;&gt;19 -->
<g id="edge19" class="edge">
<title>15&#45;&gt;19</title>
<path fill="none" stroke="black" d="M1549.07,-252.97C1557.14,-243.87 1565.64,-234.28 1573.9,-224.96"/>
<polygon fill="black" stroke="black" points="1576.75,-227.02 1580.76,-217.21 1571.51,-222.38 1576.75,-227.02"/>
</g>
<!-- 17 -->
<g id="node18" class="node">
<title>17</title>
<polygon fill="none" stroke="black" points="1319.5,-83 1161.5,-83 1161.5,0 1319.5,0 1319.5,-83"/>
<text text-anchor="middle" x="1240.5" y="-67.8" font-family="Times,serif" font-size="14.00">node #17</text>
<text text-anchor="middle" x="1240.5" y="-52.8" font-family="Times,serif" font-size="14.00">gini = 0.0</text>
<text text-anchor="middle" x="1240.5" y="-37.8" font-family="Times,serif" font-size="14.00">samples = 1</text>
<text text-anchor="middle" x="1240.5" y="-22.8" font-family="Times,serif" font-size="14.00">value = [0.0, 0.933]</text>
<text text-anchor="middle" x="1240.5" y="-7.8" font-family="Times,serif" font-size="14.00">class = Obstructive</text>
</g>
<!-- 16&#45;&gt;17 -->
<g id="edge17" class="edge">
<title>16&#45;&gt;17</title>
<path fill="none" stroke="black" d="M1346,-118.87C1332.46,-109.06 1318.23,-98.77 1304.77,-89.02"/>
<polygon fill="black" stroke="black" points="1306.65,-86.06 1296.5,-83.03 1302.55,-91.73 1306.65,-86.06"/>
</g>
<!-- 18 -->
<g id="node19" class="node">
<title>18</title>
<polygon fill="none" stroke="black" points="1525.5,-83 1337.5,-83 1337.5,0 1525.5,0 1525.5,-83"/>
<text text-anchor="middle" x="1431.5" y="-67.8" font-family="Times,serif" font-size="14.00">node #18</text>
<text text-anchor="middle" x="1431.5" y="-52.8" font-family="Times,serif" font-size="14.00">gini = &#45;0.0</text>
<text text-anchor="middle" x="1431.5" y="-37.8" font-family="Times,serif" font-size="14.00">samples = 44</text>
<text text-anchor="middle" x="1431.5" y="-22.8" font-family="Times,serif" font-size="14.00">value = [84.039, 0.0]</text>
<text text-anchor="middle" x="1431.5" y="-7.8" font-family="Times,serif" font-size="14.00">class = Non&#45;obstructive</text>
</g>
<!-- 16&#45;&gt;18 -->
<g id="edge18" class="edge">
<title>16&#45;&gt;18</title>
<path fill="none" stroke="black" d="M1419.85,-118.87C1421.12,-110.5 1422.45,-101.77 1423.74,-93.33"/>
<polygon fill="black" stroke="black" points="1427.24,-93.64 1425.28,-83.23 1420.32,-92.59 1427.24,-93.64"/>
</g>
<!-- 20 -->
<g id="node21" class="node">
<title>20</title>
<polygon fill="none" stroke="black" points="1701.5,-83 1543.5,-83 1543.5,0 1701.5,0 1701.5,-83"/>
<text text-anchor="middle" x="1622.5" y="-67.8" font-family="Times,serif" font-size="14.00">node #20</text>
<text text-anchor="middle" x="1622.5" y="-52.8" font-family="Times,serif" font-size="14.00">gini = 0.0</text>
<text text-anchor="middle" x="1622.5" y="-37.8" font-family="Times,serif" font-size="14.00">samples = 2</text>
<text text-anchor="middle" x="1622.5" y="-22.8" font-family="Times,serif" font-size="14.00">value = [0.0, 2.799]</text>
<text text-anchor="middle" x="1622.5" y="-7.8" font-family="Times,serif" font-size="14.00">class = Obstructive</text>
</g>
<!-- 19&#45;&gt;20 -->
<g id="edge20" class="edge">
<title>19&#45;&gt;20</title>
<path fill="none" stroke="black" d="M1623.11,-118.87C1623.05,-110.5 1622.98,-101.77 1622.91,-93.33"/>
<polygon fill="black" stroke="black" points="1626.41,-93.2 1622.83,-83.23 1619.41,-93.26 1626.41,-93.2"/>
</g>
<!-- 21 -->
<g id="node22" class="node">
<title>21</title>
<polygon fill="none" stroke="black" points="1907.5,-83 1719.5,-83 1719.5,0 1907.5,0 1907.5,-83"/>
<text text-anchor="middle" x="1813.5" y="-67.8" font-family="Times,serif" font-size="14.00">node #21</text>
<text text-anchor="middle" x="1813.5" y="-52.8" font-family="Times,serif" font-size="14.00">gini = 0.083</text>
<text text-anchor="middle" x="1813.5" y="-37.8" font-family="Times,serif" font-size="14.00">samples = 13</text>
<text text-anchor="middle" x="1813.5" y="-22.8" font-family="Times,serif" font-size="14.00">value = [20.471, 0.933]</text>
<text text-anchor="middle" x="1813.5" y="-7.8" font-family="Times,serif" font-size="14.00">class = Non&#45;obstructive</text>
</g>
<!-- 19&#45;&gt;21 -->
<g id="edge21" class="edge">
<title>19&#45;&gt;21</title>
<path fill="none" stroke="black" d="M1696.96,-118.87C1712.06,-108.97 1727.93,-98.57 1742.93,-88.74"/>
<polygon fill="black" stroke="black" points="1745.2,-91.44 1751.64,-83.03 1741.36,-85.59 1745.2,-91.44"/>
</g>
<!-- 23 -->
<g id="node24" class="node">
<title>23</title>
<polygon fill="none" stroke="black" points="1899.5,-209.5 1741.5,-209.5 1741.5,-126.5 1899.5,-126.5 1899.5,-209.5"/>
<text text-anchor="middle" x="1820.5" y="-194.3" font-family="Times,serif" font-size="14.00">node #23</text>
<text text-anchor="middle" x="1820.5" y="-179.3" font-family="Times,serif" font-size="14.00">gini = 0.0</text>
<text text-anchor="middle" x="1820.5" y="-164.3" font-family="Times,serif" font-size="14.00">samples = 4</text>
<text text-anchor="middle" x="1820.5" y="-149.3" font-family="Times,serif" font-size="14.00">value = [0.0, 4.665]</text>
<text text-anchor="middle" x="1820.5" y="-134.3" font-family="Times,serif" font-size="14.00">class = Obstructive</text>
</g>
<!-- 22&#45;&gt;23 -->
<g id="edge23" class="edge">
<title>22&#45;&gt;23</title>
<path fill="none" stroke="black" d="M1820.5,-252.97C1820.5,-242.25 1820.5,-230.84 1820.5,-219.99"/>
<polygon fill="black" stroke="black" points="1824,-219.82 1820.5,-209.82 1817,-219.82 1824,-219.82"/>
</g>
<!-- 24 -->
<g id="node25" class="node">
<title>24</title>
<polygon fill="none" stroke="black" points="2125.5,-217 1919.5,-217 1919.5,-119 2125.5,-119 2125.5,-217"/>
<text text-anchor="middle" x="2022.5" y="-201.8" font-family="Times,serif" font-size="14.00">node #24</text>
<text text-anchor="middle" x="2022.5" y="-186.8" font-family="Times,serif" font-size="14.00">FEFPostPercent &lt;= 118.5</text>
<text text-anchor="middle" x="2022.5" y="-171.8" font-family="Times,serif" font-size="14.00">gini = 0.434</text>
<text text-anchor="middle" x="2022.5" y="-156.8" font-family="Times,serif" font-size="14.00">samples = 43</text>
<text text-anchor="middle" x="2022.5" y="-141.8" font-family="Times,serif" font-size="14.00">value = [39.865, 18.659]</text>
<text text-anchor="middle" x="2022.5" y="-126.8" font-family="Times,serif" font-size="14.00">class = Non&#45;obstructive</text>
</g>
<!-- 22&#45;&gt;24 -->
<g id="edge24" class="edge">
<title>22&#45;&gt;24</title>
<path fill="none" stroke="black" d="M1894,-252.97C1909.04,-243.14 1924.96,-232.74 1940.28,-222.73"/>
<polygon fill="black" stroke="black" points="1942.26,-225.61 1948.72,-217.21 1938.43,-219.75 1942.26,-225.61"/>
</g>
<!-- 25 -->
<g id="node26" class="node">
<title>25</title>
<polygon fill="none" stroke="black" points="2119.5,-83 1925.5,-83 1925.5,0 2119.5,0 2119.5,-83"/>
<text text-anchor="middle" x="2022.5" y="-67.8" font-family="Times,serif" font-size="14.00">node #25</text>
<text text-anchor="middle" x="2022.5" y="-52.8" font-family="Times,serif" font-size="14.00">gini = 0.48</text>
<text text-anchor="middle" x="2022.5" y="-37.8" font-family="Times,serif" font-size="14.00">samples = 35</text>
<text text-anchor="middle" x="2022.5" y="-22.8" font-family="Times,serif" font-size="14.00">value = [28.013, 18.659]</text>
<text text-anchor="middle" x="2022.5" y="-7.8" font-family="Times,serif" font-size="14.00">class = Non&#45;obstructive</text>
</g>
<!-- 24&#45;&gt;25 -->
<g id="edge25" class="edge">
<title>24&#45;&gt;25</title>
<path fill="none" stroke="black" d="M2022.5,-118.87C2022.5,-110.5 2022.5,-101.77 2022.5,-93.33"/>
<polygon fill="black" stroke="black" points="2026,-93.23 2022.5,-83.23 2019,-93.23 2026,-93.23"/>
</g>
<!-- 26 -->
<g id="node27" class="node">
<title>26</title>
<polygon fill="none" stroke="black" points="2325.5,-83 2137.5,-83 2137.5,0 2325.5,0 2325.5,-83"/>
<text text-anchor="middle" x="2231.5" y="-67.8" font-family="Times,serif" font-size="14.00">node #26</text>
<text text-anchor="middle" x="2231.5" y="-52.8" font-family="Times,serif" font-size="14.00">gini = 0.0</text>
<text text-anchor="middle" x="2231.5" y="-37.8" font-family="Times,serif" font-size="14.00">samples = 8</text>
<text text-anchor="middle" x="2231.5" y="-22.8" font-family="Times,serif" font-size="14.00">value = [11.852, 0.0]</text>
<text text-anchor="middle" x="2231.5" y="-7.8" font-family="Times,serif" font-size="14.00">class = Non&#45;obstructive</text>
</g>
<!-- 24&#45;&gt;26 -->
<g id="edge26" class="edge">
<title>24&#45;&gt;26</title>
<path fill="none" stroke="black" d="M2103.3,-118.87C2120.23,-108.78 2138.02,-98.18 2154.79,-88.19"/>
<polygon fill="black" stroke="black" points="2156.66,-91.16 2163.46,-83.03 2153.08,-85.14 2156.66,-91.16"/>
</g>
</g>
</svg>
