<?xml version="1.0" encoding="UTF-8" standalone="no"?>
<!DOCTYPE svg PUBLIC "-//W3C//DTD SVG 1.1//EN"
 "http://www.w3.org/Graphics/SVG/1.1/DTD/svg11.dtd">
<!-- Generated by graphviz version 2.43.0 (0)
 -->
<!-- Title: Tree Pages: 1 -->
<svg width="2383pt" height="627pt"
 viewBox="0.00 0.00 2382.50 627.00" xmlns="http://www.w3.org/2000/svg" xmlns:xlink="http://www.w3.org/1999/xlink">
<g id="graph0" class="graph" transform="scale(1 1) rotate(0) translate(4 623)">
<title>Tree</title>
<polygon fill="white" stroke="transparent" points="-4,4 -4,-623 2378.5,-623 2378.5,4 -4,4"/>
<!-- 0 -->
<g id="node1" class="node">
<title>0</title>
<polygon fill="none" stroke="black" points="1209.5,-619 1033.5,-619 1033.5,-521 1209.5,-521 1209.5,-619"/>
<text text-anchor="middle" x="1121.5" y="-603.8" font-family="Times,serif" font-size="14.00">node #0</text>
<text text-anchor="middle" x="1121.5" y="-588.8" font-family="Times,serif" font-size="14.00">FEFPostVal &lt;= 1.14</text>
<text text-anchor="middle" x="1121.5" y="-573.8" font-family="Times,serif" font-size="14.00">gini = 0.5</text>
<text text-anchor="middle" x="1121.5" y="-558.8" font-family="Times,serif" font-size="14.00">samples = 208</text>
<text text-anchor="middle" x="1121.5" y="-543.8" font-family="Times,serif" font-size="14.00">value = [167.0, 167.0]</text>
<text text-anchor="middle" x="1121.5" y="-528.8" font-family="Times,serif" font-size="14.00">class = Obstructive</text>
</g>
<!-- 1 -->
<g id="node2" class="node">
<title>1</title>
<polygon fill="none" stroke="black" points="1009,-485 812,-485 812,-387 1009,-387 1009,-485"/>
<text text-anchor="middle" x="910.5" y="-469.8" font-family="Times,serif" font-size="14.00">node #1</text>
<text text-anchor="middle" x="910.5" y="-454.8" font-family="Times,serif" font-size="14.00">FVCPostPercent &lt;= 60.5</text>
<text text-anchor="middle" x="910.5" y="-439.8" font-family="Times,serif" font-size="14.00">gini = 0.174</text>
<text text-anchor="middle" x="910.5" y="-424.8" font-family="Times,serif" font-size="14.00">samples = 67</text>
<text text-anchor="middle" x="910.5" y="-409.8" font-family="Times,serif" font-size="14.00">value = [9.394, 88.299]</text>
<text text-anchor="middle" x="910.5" y="-394.8" font-family="Times,serif" font-size="14.00">class = Obstructive</text>
</g>
<!-- 0&#45;&gt;1 -->
<g id="edge1" class="edge">
<title>0&#45;&gt;1</title>
<path fill="none" stroke="black" d="M1044.73,-520.97C1029.02,-511.14 1012.39,-500.74 996.39,-490.73"/>
<polygon fill="black" stroke="black" points="997.9,-487.55 987.57,-485.21 994.19,-493.48 997.9,-487.55"/>
<text text-anchor="middle" x="993.18" y="-505.88" font-family="Times,serif" font-size="14.00">True</text>
</g>
<!-- 14 -->
<g id="node15" class="node">
<title>14</title>
<polygon fill="none" stroke="black" points="1562,-485 1359,-485 1359,-387 1562,-387 1562,-485"/>
<text text-anchor="middle" x="1460.5" y="-469.8" font-family="Times,serif" font-size="14.00">node #14</text>
<text text-anchor="middle" x="1460.5" y="-454.8" font-family="Times,serif" font-size="14.00">FVCPostVal &lt;= 2.05</text>
<text text-anchor="middle" x="1460.5" y="-439.8" font-family="Times,serif" font-size="14.00">gini = 0.444</text>
<text text-anchor="middle" x="1460.5" y="-424.8" font-family="Times,serif" font-size="14.00">samples = 141</text>
<text text-anchor="middle" x="1460.5" y="-409.8" font-family="Times,serif" font-size="14.00">value = [157.606, 78.701]</text>
<text text-anchor="middle" x="1460.5" y="-394.8" font-family="Times,serif" font-size="14.00">class = Non&#45;obstructive</text>
</g>
<!-- 0&#45;&gt;14 -->
<g id="edge14" class="edge">
<title>0&#45;&gt;14</title>
<path fill="none" stroke="black" d="M1209.68,-534.66C1252.36,-518.05 1304.04,-497.92 1349.38,-480.27"/>
<polygon fill="black" stroke="black" points="1350.91,-483.43 1358.96,-476.54 1348.37,-476.91 1350.91,-483.43"/>
<text text-anchor="middle" x="1348.9" y="-495.73" font-family="Times,serif" font-size="14.00">False</text>
</g>
<!-- 2 -->
<g id="node3" class="node">
<title>2</title>
<polygon fill="none" stroke="black" points="694.5,-351 494.5,-351 494.5,-253 694.5,-253 694.5,-351"/>
<text text-anchor="middle" x="594.5" y="-335.8" font-family="Times,serif" font-size="14.00">node #2</text>
<text text-anchor="middle" x="594.5" y="-320.8" font-family="Times,serif" font-size="14.00">FEV1PrePercent &lt;= 38.5</text>
<text text-anchor="middle" x="594.5" y="-305.8" font-family="Times,serif" font-size="14.00">gini = 0.31</text>
<text text-anchor="middle" x="594.5" y="-290.8" font-family="Times,serif" font-size="14.00">samples = 28</text>
<text text-anchor="middle" x="594.5" y="-275.8" font-family="Times,serif" font-size="14.00">value = [7.306, 30.713]</text>
<text text-anchor="middle" x="594.5" y="-260.8" font-family="Times,serif" font-size="14.00">class = Obstructive</text>
</g>
<!-- 1&#45;&gt;2 -->
<g id="edge2" class="edge">
<title>1&#45;&gt;2</title>
<path fill="none" stroke="black" d="M811.82,-393.78C777.57,-379.47 738.98,-363.35 703.92,-348.71"/>
<polygon fill="black" stroke="black" points="705.19,-345.44 694.61,-344.82 702.49,-351.9 705.19,-345.44"/>
</g>
<!-- 9 -->
<g id="node10" class="node">
<title>9</title>
<polygon fill="none" stroke="black" points="1006,-351 815,-351 815,-253 1006,-253 1006,-351"/>
<text text-anchor="middle" x="910.5" y="-335.8" font-family="Times,serif" font-size="14.00">node #9</text>
<text text-anchor="middle" x="910.5" y="-320.8" font-family="Times,serif" font-size="14.00">FEFPrePercent &lt;= 84.0</text>
<text text-anchor="middle" x="910.5" y="-305.8" font-family="Times,serif" font-size="14.00">gini = 0.068</text>
<text text-anchor="middle" x="910.5" y="-290.8" font-family="Times,serif" font-size="14.00">samples = 39</text>
<text text-anchor="middle" x="910.5" y="-275.8" font-family="Times,serif" font-size="14.00">value = [2.088, 57.586]</text>
<text text-anchor="middle" x="910.5" y="-260.8" font-family="Times,serif" font-size="14.00">class = Obstructive</text>
</g>
<!-- 1&#45;&gt;9 -->
<g id="edge9" class="edge">
<title>1&#45;&gt;9</title>
<path fill="none" stroke="black" d="M910.5,-386.97C910.5,-378.69 910.5,-370 910.5,-361.48"/>
<polygon fill="black" stroke="black" points="914,-361.21 910.5,-351.21 907,-361.21 914,-361.21"/>
</g>
<!-- 3 -->
<g id="node4" class="node">
<title>3</title>
<polygon fill="none" stroke="black" points="375,-217 184,-217 184,-119 375,-119 375,-217"/>
<text text-anchor="middle" x="279.5" y="-201.8" font-family="Times,serif" font-size="14.00">node #3</text>
<text text-anchor="middle" x="279.5" y="-186.8" font-family="Times,serif" font-size="14.00">FEFPrePercent &lt;= 26.0</text>
<text text-anchor="middle" x="279.5" y="-171.8" font-family="Times,serif" font-size="14.00">gini = 0.068</text>
<text text-anchor="middle" x="279.5" y="-156.8" font-family="Times,serif" font-size="14.00">samples = 21</text>
<text text-anchor="middle" x="279.5" y="-141.8" font-family="Times,serif" font-size="14.00">value = [1.044, 28.793]</text>
<text text-anchor="middle" x="279.5" y="-126.8" font-family="Times,serif" font-size="14.00">class = Obstructive</text>
</g>
<!-- 2&#45;&gt;3 -->
<g id="edge3" class="edge">
<title>2&#45;&gt;3</title>
<path fill="none" stroke="black" d="M494.4,-259.05C459.34,-244.36 419.89,-227.83 384.44,-212.98"/>
<polygon fill="black" stroke="black" points="385.62,-209.67 375.04,-209.04 382.91,-216.13 385.62,-209.67"/>
</g>
<!-- 6 -->
<g id="node7" class="node">
<title>6</title>
<polygon fill="none" stroke="black" points="693,-217 496,-217 496,-119 693,-119 693,-217"/>
<text text-anchor="middle" x="594.5" y="-201.8" font-family="Times,serif" font-size="14.00">node #6</text>
<text text-anchor="middle" x="594.5" y="-186.8" font-family="Times,serif" font-size="14.00">FEFPostPercent &lt;= 20.5</text>
<text text-anchor="middle" x="594.5" y="-171.8" font-family="Times,serif" font-size="14.00">gini = 0.359</text>
<text text-anchor="middle" x="594.5" y="-156.8" font-family="Times,serif" font-size="14.00">samples = 7</text>
<text text-anchor="middle" x="594.5" y="-141.8" font-family="Times,serif" font-size="14.00">value = [6.262, 1.92]</text>
<text text-anchor="middle" x="594.5" y="-126.8" font-family="Times,serif" font-size="14.00">class = Non&#45;obstructive</text>
</g>
<!-- 2&#45;&gt;6 -->
<g id="edge6" class="edge">
<title>2&#45;&gt;6</title>
<path fill="none" stroke="black" d="M594.5,-252.97C594.5,-244.69 594.5,-236 594.5,-227.48"/>
<polygon fill="black" stroke="black" points="598,-227.21 594.5,-217.21 591,-227.21 598,-227.21"/>
</g>
<!-- 4 -->
<g id="node5" class="node">
<title>4</title>
<polygon fill="none" stroke="black" points="167,-83 0,-83 0,0 167,0 167,-83"/>
<text text-anchor="middle" x="83.5" y="-67.8" font-family="Times,serif" font-size="14.00">node #4</text>
<text text-anchor="middle" x="83.5" y="-52.8" font-family="Times,serif" font-size="14.00">gini = 0.0</text>
<text text-anchor="middle" x="83.5" y="-37.8" font-family="Times,serif" font-size="14.00">samples = 19</text>
<text text-anchor="middle" x="83.5" y="-22.8" font-family="Times,serif" font-size="14.00">value = [0.0, 27.833]</text>
<text text-anchor="middle" x="83.5" y="-7.8" font-family="Times,serif" font-size="14.00">class = Obstructive</text>
</g>
<!-- 3&#45;&gt;4 -->
<g id="edge4" class="edge">
<title>3&#45;&gt;4</title>
<path fill="none" stroke="black" d="M203.72,-118.87C188,-108.88 171.47,-98.38 155.87,-88.47"/>
<polygon fill="black" stroke="black" points="157.63,-85.44 147.31,-83.03 153.87,-91.35 157.63,-85.44"/>
</g>
<!-- 5 -->
<g id="node6" class="node">
<title>5</title>
<polygon fill="none" stroke="black" points="373.5,-83 185.5,-83 185.5,0 373.5,0 373.5,-83"/>
<text text-anchor="middle" x="279.5" y="-67.8" font-family="Times,serif" font-size="14.00">node #5</text>
<text text-anchor="middle" x="279.5" y="-52.8" font-family="Times,serif" font-size="14.00">gini = 0.499</text>
<text text-anchor="middle" x="279.5" y="-37.8" font-family="Times,serif" font-size="14.00">samples = 2</text>
<text text-anchor="middle" x="279.5" y="-22.8" font-family="Times,serif" font-size="14.00">value = [1.044, 0.96]</text>
<text text-anchor="middle" x="279.5" y="-7.8" font-family="Times,serif" font-size="14.00">class = Non&#45;obstructive</text>
</g>
<!-- 3&#45;&gt;5 -->
<g id="edge5" class="edge">
<title>3&#45;&gt;5</title>
<path fill="none" stroke="black" d="M279.5,-118.87C279.5,-110.5 279.5,-101.77 279.5,-93.33"/>
<polygon fill="black" stroke="black" points="283,-93.23 279.5,-83.23 276,-93.23 283,-93.23"/>
</g>
<!-- 7 -->
<g id="node8" class="node">
<title>7</title>
<polygon fill="none" stroke="black" points="549,-83 392,-83 392,0 549,0 549,-83"/>
<text text-anchor="middle" x="470.5" y="-67.8" font-family="Times,serif" font-size="14.00">node #7</text>
<text text-anchor="middle" x="470.5" y="-52.8" font-family="Times,serif" font-size="14.00">gini = 0.0</text>
<text text-anchor="middle" x="470.5" y="-37.8" font-family="Times,serif" font-size="14.00">samples = 2</text>
<text text-anchor="middle" x="470.5" y="-22.8" font-family="Times,serif" font-size="14.00">value = [0.0, 1.92]</text>
<text text-anchor="middle" x="470.5" y="-7.8" font-family="Times,serif" font-size="14.00">class = Obstructive</text>
</g>
<!-- 6&#45;&gt;7 -->
<g id="edge7" class="edge">
<title>6&#45;&gt;7</title>
<path fill="none" stroke="black" d="M546.56,-118.87C537.31,-109.58 527.62,-99.85 518.37,-90.56"/>
<polygon fill="black" stroke="black" points="520.6,-87.85 511.07,-83.23 515.64,-92.79 520.6,-87.85"/>
</g>
<!-- 8 -->
<g id="node9" class="node">
<title>8</title>
<polygon fill="none" stroke="black" points="755.5,-83 567.5,-83 567.5,0 755.5,0 755.5,-83"/>
<text text-anchor="middle" x="661.5" y="-67.8" font-family="Times,serif" font-size="14.00">node #8</text>
<text text-anchor="middle" x="661.5" y="-52.8" font-family="Times,serif" font-size="14.00">gini = 0.0</text>
<text text-anchor="middle" x="661.5" y="-37.8" font-family="Times,serif" font-size="14.00">samples = 5</text>
<text text-anchor="middle" x="661.5" y="-22.8" font-family="Times,serif" font-size="14.00">value = [6.262, 0.0]</text>
<text text-anchor="middle" x="661.5" y="-7.8" font-family="Times,serif" font-size="14.00">class = Non&#45;obstructive</text>
</g>
<!-- 6&#45;&gt;8 -->
<g id="edge8" class="edge">
<title>6&#45;&gt;8</title>
<path fill="none" stroke="black" d="M620.4,-118.87C625.1,-110.13 630.02,-101 634.74,-92.22"/>
<polygon fill="black" stroke="black" points="637.92,-93.7 639.58,-83.23 631.76,-90.38 637.92,-93.7"/>
</g>
<!-- 10 -->
<g id="node11" class="node">
<title>10</title>
<polygon fill="none" stroke="black" points="954,-217 763,-217 763,-119 954,-119 954,-217"/>
<text text-anchor="middle" x="858.5" y="-201.8" font-family="Times,serif" font-size="14.00">node #10</text>
<text text-anchor="middle" x="858.5" y="-186.8" font-family="Times,serif" font-size="14.00">FEFPrePercent &lt;= 26.5</text>
<text text-anchor="middle" x="858.5" y="-171.8" font-family="Times,serif" font-size="14.00">gini = 0.035</text>
<text text-anchor="middle" x="858.5" y="-156.8" font-family="Times,serif" font-size="14.00">samples = 38</text>
<text text-anchor="middle" x="858.5" y="-141.8" font-family="Times,serif" font-size="14.00">value = [1.044, 57.586]</text>
<text text-anchor="middle" x="858.5" y="-126.8" font-family="Times,serif" font-size="14.00">class = Obstructive</text>
</g>
<!-- 9&#45;&gt;10 -->
<g id="edge10" class="edge">
<title>9&#45;&gt;10</title>
<path fill="none" stroke="black" d="M891.58,-252.97C888.21,-244.42 884.67,-235.43 881.21,-226.64"/>
<polygon fill="black" stroke="black" points="884.42,-225.24 877.49,-217.21 877.9,-227.8 884.42,-225.24"/>
</g>
<!-- 13 -->
<g id="node14" class="node">
<title>13</title>
<polygon fill="none" stroke="black" points="1160.5,-209.5 972.5,-209.5 972.5,-126.5 1160.5,-126.5 1160.5,-209.5"/>
<text text-anchor="middle" x="1066.5" y="-194.3" font-family="Times,serif" font-size="14.00">node #13</text>
<text text-anchor="middle" x="1066.5" y="-179.3" font-family="Times,serif" font-size="14.00">gini = 0.0</text>
<text text-anchor="middle" x="1066.5" y="-164.3" font-family="Times,serif" font-size="14.00">samples = 1</text>
<text text-anchor="middle" x="1066.5" y="-149.3" font-family="Times,serif" font-size="14.00">value = [1.044, 0.0]</text>
<text text-anchor="middle" x="1066.5" y="-134.3" font-family="Times,serif" font-size="14.00">class = Non&#45;obstructive</text>
</g>
<!-- 9&#45;&gt;13 -->
<g id="edge13" class="edge">
<title>9&#45;&gt;13</title>
<path fill="none" stroke="black" d="M967.26,-252.97C981.45,-240.97 996.65,-228.1 1010.78,-216.14"/>
<polygon fill="black" stroke="black" points="1013.14,-218.73 1018.51,-209.6 1008.62,-213.39 1013.14,-218.73"/>
</g>
<!-- 11 -->
<g id="node12" class="node">
<title>11</title>
<polygon fill="none" stroke="black" points="941,-83 774,-83 774,0 941,0 941,-83"/>
<text text-anchor="middle" x="857.5" y="-67.8" font-family="Times,serif" font-size="14.00">node #11</text>
<text text-anchor="middle" x="857.5" y="-52.8" font-family="Times,serif" font-size="14.00">gini = 0.0</text>
<text text-anchor="middle" x="857.5" y="-37.8" font-family="Times,serif" font-size="14.00">samples = 28</text>
<text text-anchor="middle" x="857.5" y="-22.8" font-family="Times,serif" font-size="14.00">value = [0.0, 39.351]</text>
<text text-anchor="middle" x="857.5" y="-7.8" font-family="Times,serif" font-size="14.00">class = Obstructive</text>
</g>
<!-- 10&#45;&gt;11 -->
<g id="edge11" class="edge">
<title>10&#45;&gt;11</title>
<path fill="none" stroke="black" d="M858.11,-118.87C858.05,-110.5 857.98,-101.77 857.91,-93.33"/>
<polygon fill="black" stroke="black" points="861.41,-93.2 857.83,-83.23 854.41,-93.26 861.41,-93.2"/>
</g>
<!-- 12 -->
<g id="node13" class="node">
<title>12</title>
<polygon fill="none" stroke="black" points="1144,-83 959,-83 959,0 1144,0 1144,-83"/>
<text text-anchor="middle" x="1051.5" y="-67.8" font-family="Times,serif" font-size="14.00">node #12</text>
<text text-anchor="middle" x="1051.5" y="-52.8" font-family="Times,serif" font-size="14.00">gini = 0.102</text>
<text text-anchor="middle" x="1051.5" y="-37.8" font-family="Times,serif" font-size="14.00">samples = 10</text>
<text text-anchor="middle" x="1051.5" y="-22.8" font-family="Times,serif" font-size="14.00">value = [1.044, 18.236]</text>
<text text-anchor="middle" x="1051.5" y="-7.8" font-family="Times,serif" font-size="14.00">class = Obstructive</text>
</g>
<!-- 10&#45;&gt;12 -->
<g id="edge12" class="edge">
<title>10&#45;&gt;12</title>
<path fill="none" stroke="black" d="M933.12,-118.87C948.6,-108.88 964.88,-98.38 980.24,-88.47"/>
<polygon fill="black" stroke="black" points="982.16,-91.39 988.67,-83.03 978.37,-85.51 982.16,-91.39"/>
</g>
<!-- 15 -->
<g id="node16" class="node">
<title>15</title>
<polygon fill="none" stroke="black" points="1557.5,-351 1363.5,-351 1363.5,-253 1557.5,-253 1557.5,-351"/>
<text text-anchor="middle" x="1460.5" y="-335.8" font-family="Times,serif" font-size="14.00">node #15</text>
<text text-anchor="middle" x="1460.5" y="-320.8" font-family="Times,serif" font-size="14.00">FEV1PostVal &lt;= 2.32</text>
<text text-anchor="middle" x="1460.5" y="-305.8" font-family="Times,serif" font-size="14.00">gini = 0.122</text>
<text text-anchor="middle" x="1460.5" y="-290.8" font-family="Times,serif" font-size="14.00">samples = 67</text>
<text text-anchor="middle" x="1460.5" y="-275.8" font-family="Times,serif" font-size="14.00">value = [109.594, 7.678]</text>
<text text-anchor="middle" x="1460.5" y="-260.8" font-family="Times,serif" font-size="14.00">class = Non&#45;obstructive</text>
</g>
<!-- 14&#45;&gt;15 -->
<g id="edge15" class="edge">
<title>14&#45;&gt;15</title>
<path fill="none" stroke="black" d="M1460.5,-386.97C1460.5,-378.69 1460.5,-370 1460.5,-361.48"/>
<polygon fill="black" stroke="black" points="1464,-361.21 1460.5,-351.21 1457,-361.21 1464,-361.21"/>
</g>
<!-- 20 -->
<g id="node21" class="node">
<title>20</title>
<polygon fill="none" stroke="black" points="1859.5,-351 1665.5,-351 1665.5,-253 1859.5,-253 1859.5,-351"/>
<text text-anchor="middle" x="1762.5" y="-335.8" font-family="Times,serif" font-size="14.00">node #20</text>
<text text-anchor="middle" x="1762.5" y="-320.8" font-family="Times,serif" font-size="14.00">FEFPreVal &lt;= 2.15</text>
<text text-anchor="middle" x="1762.5" y="-305.8" font-family="Times,serif" font-size="14.00">gini = 0.481</text>
<text text-anchor="middle" x="1762.5" y="-290.8" font-family="Times,serif" font-size="14.00">samples = 74</text>
<text text-anchor="middle" x="1762.5" y="-275.8" font-family="Times,serif" font-size="14.00">value = [48.013, 71.023]</text>
<text text-anchor="middle" x="1762.5" y="-260.8" font-family="Times,serif" font-size="14.00">class = Obstructive</text>
</g>
<!-- 14&#45;&gt;20 -->
<g id="edge20" class="edge">
<title>14&#45;&gt;20</title>
<path fill="none" stroke="black" d="M1562.32,-390.49C1592.51,-377.3 1625.63,-362.82 1656.1,-349.51"/>
<polygon fill="black" stroke="black" points="1657.7,-352.63 1665.46,-345.41 1654.9,-346.21 1657.7,-352.63"/>
</g>
<!-- 16 -->
<g id="node17" class="node">
<title>16</title>
<polygon fill="none" stroke="black" points="1469,-217 1272,-217 1272,-119 1469,-119 1469,-217"/>
<text text-anchor="middle" x="1370.5" y="-201.8" font-family="Times,serif" font-size="14.00">node #16</text>
<text text-anchor="middle" x="1370.5" y="-186.8" font-family="Times,serif" font-size="14.00">FVCPostPercent &lt;= 66.5</text>
<text text-anchor="middle" x="1370.5" y="-171.8" font-family="Times,serif" font-size="14.00">gini = 0.095</text>
<text text-anchor="middle" x="1370.5" y="-156.8" font-family="Times,serif" font-size="14.00">samples = 66</text>
<text text-anchor="middle" x="1370.5" y="-141.8" font-family="Times,serif" font-size="14.00">value = [109.594, 5.759]</text>
<text text-anchor="middle" x="1370.5" y="-126.8" font-family="Times,serif" font-size="14.00">class = Non&#45;obstructive</text>
</g>
<!-- 15&#45;&gt;16 -->
<g id="edge16" class="edge">
<title>15&#45;&gt;16</title>
<path fill="none" stroke="black" d="M1427.75,-252.97C1421.67,-244.05 1415.27,-234.66 1409.04,-225.52"/>
<polygon fill="black" stroke="black" points="1411.9,-223.5 1403.37,-217.21 1406.11,-227.45 1411.9,-223.5"/>
</g>
<!-- 19 -->
<g id="node20" class="node">
<title>19</title>
<polygon fill="none" stroke="black" points="1644,-209.5 1487,-209.5 1487,-126.5 1644,-126.5 1644,-209.5"/>
<text text-anchor="middle" x="1565.5" y="-194.3" font-family="Times,serif" font-size="14.00">node #19</text>
<text text-anchor="middle" x="1565.5" y="-179.3" font-family="Times,serif" font-size="14.00">gini = 0.0</text>
<text text-anchor="middle" x="1565.5" y="-164.3" font-family="Times,serif" font-size="14.00">samples = 1</text>
<text text-anchor="middle" x="1565.5" y="-149.3" font-family="Times,serif" font-size="14.00">value = [0.0, 1.92]</text>
<text text-anchor="middle" x="1565.5" y="-134.3" font-family="Times,serif" font-size="14.00">class = Obstructive</text>
</g>
<!-- 15&#45;&gt;19 -->
<g id="edge19" class="edge">
<title>15&#45;&gt;19</title>
<path fill="none" stroke="black" d="M1498.7,-252.97C1507.85,-241.47 1517.63,-229.18 1526.8,-217.66"/>
<polygon fill="black" stroke="black" points="1529.55,-219.82 1533.03,-209.82 1524.07,-215.46 1529.55,-219.82"/>
</g>
<!-- 17 -->
<g id="node18" class="node">
<title>17</title>
<polygon fill="none" stroke="black" points="1350.5,-83 1162.5,-83 1162.5,0 1350.5,0 1350.5,-83"/>
<text text-anchor="middle" x="1256.5" y="-67.8" font-family="Times,serif" font-size="14.00">node #17</text>
<text text-anchor="middle" x="1256.5" y="-52.8" font-family="Times,serif" font-size="14.00">gini = 0.038</text>
<text text-anchor="middle" x="1256.5" y="-37.8" font-family="Times,serif" font-size="14.00">samples = 55</text>
<text text-anchor="middle" x="1256.5" y="-22.8" font-family="Times,serif" font-size="14.00">value = [97.069, 1.92]</text>
<text text-anchor="middle" x="1256.5" y="-7.8" font-family="Times,serif" font-size="14.00">class = Non&#45;obstructive</text>
</g>
<!-- 16&#45;&gt;17 -->
<g id="edge17" class="edge">
<title>16&#45;&gt;17</title>
<path fill="none" stroke="black" d="M1326.42,-118.87C1318.01,-109.67 1309.19,-100.04 1300.76,-90.84"/>
<polygon fill="black" stroke="black" points="1303.13,-88.24 1293.8,-83.23 1297.97,-92.97 1303.13,-88.24"/>
</g>
<!-- 18 -->
<g id="node19" class="node">
<title>18</title>
<polygon fill="none" stroke="black" points="1556.5,-83 1368.5,-83 1368.5,0 1556.5,0 1556.5,-83"/>
<text text-anchor="middle" x="1462.5" y="-67.8" font-family="Times,serif" font-size="14.00">node #18</text>
<text text-anchor="middle" x="1462.5" y="-52.8" font-family="Times,serif" font-size="14.00">gini = 0.359</text>
<text text-anchor="middle" x="1462.5" y="-37.8" font-family="Times,serif" font-size="14.00">samples = 11</text>
<text text-anchor="middle" x="1462.5" y="-22.8" font-family="Times,serif" font-size="14.00">value = [12.525, 3.839]</text>
<text text-anchor="middle" x="1462.5" y="-7.8" font-family="Times,serif" font-size="14.00">class = Non&#45;obstructive</text>
</g>
<!-- 16&#45;&gt;18 -->
<g id="edge18" class="edge">
<title>16&#45;&gt;18</title>
<path fill="none" stroke="black" d="M1406.07,-118.87C1412.73,-109.85 1419.69,-100.43 1426.37,-91.39"/>
<polygon fill="black" stroke="black" points="1429.27,-93.35 1432.4,-83.23 1423.64,-89.19 1429.27,-93.35"/>
</g>
<!-- 21 -->
<g id="node22" class="node">
<title>21</title>
<polygon fill="none" stroke="black" points="1859.5,-217 1665.5,-217 1665.5,-119 1859.5,-119 1859.5,-217"/>
<text text-anchor="middle" x="1762.5" y="-201.8" font-family="Times,serif" font-size="14.00">node #21</text>
<text text-anchor="middle" x="1762.5" y="-186.8" font-family="Times,serif" font-size="14.00">FEFPrePercent &lt;= 58.5</text>
<text text-anchor="middle" x="1762.5" y="-171.8" font-family="Times,serif" font-size="14.00">gini = 0.388</text>
<text text-anchor="middle" x="1762.5" y="-156.8" font-family="Times,serif" font-size="14.00">samples = 44</text>
<text text-anchor="middle" x="1762.5" y="-141.8" font-family="Times,serif" font-size="14.00">value = [20.875, 58.546]</text>
<text text-anchor="middle" x="1762.5" y="-126.8" font-family="Times,serif" font-size="14.00">class = Obstructive</text>
</g>
<!-- 20&#45;&gt;21 -->
<g id="edge21" class="edge">
<title>20&#45;&gt;21</title>
<path fill="none" stroke="black" d="M1762.5,-252.97C1762.5,-244.69 1762.5,-236 1762.5,-227.48"/>
<polygon fill="black" stroke="black" points="1766,-227.21 1762.5,-217.21 1759,-227.21 1766,-227.21"/>
</g>
<!-- 24 -->
<g id="node25" class="node">
<title>24</title>
<polygon fill="none" stroke="black" points="2183.5,-217 1989.5,-217 1989.5,-119 2183.5,-119 2183.5,-217"/>
<text text-anchor="middle" x="2086.5" y="-201.8" font-family="Times,serif" font-size="14.00">node #24</text>
<text text-anchor="middle" x="2086.5" y="-186.8" font-family="Times,serif" font-size="14.00">FEV1PreVal &lt;= 2.825</text>
<text text-anchor="middle" x="2086.5" y="-171.8" font-family="Times,serif" font-size="14.00">gini = 0.432</text>
<text text-anchor="middle" x="2086.5" y="-156.8" font-family="Times,serif" font-size="14.00">samples = 30</text>
<text text-anchor="middle" x="2086.5" y="-141.8" font-family="Times,serif" font-size="14.00">value = [27.137, 12.477]</text>
<text text-anchor="middle" x="2086.5" y="-126.8" font-family="Times,serif" font-size="14.00">class = Non&#45;obstructive</text>
</g>
<!-- 20&#45;&gt;24 -->
<g id="edge24" class="edge">
<title>20&#45;&gt;24</title>
<path fill="none" stroke="black" d="M1859.71,-261.4C1897.51,-245.99 1940.95,-228.3 1979.63,-212.54"/>
<polygon fill="black" stroke="black" points="1981.42,-215.59 1989.36,-208.58 1978.78,-209.11 1981.42,-215.59"/>
</g>
<!-- 22 -->
<g id="node23" class="node">
<title>22</title>
<polygon fill="none" stroke="black" points="1768.5,-83 1574.5,-83 1574.5,0 1768.5,0 1768.5,-83"/>
<text text-anchor="middle" x="1671.5" y="-67.8" font-family="Times,serif" font-size="14.00">node #22</text>
<text text-anchor="middle" x="1671.5" y="-52.8" font-family="Times,serif" font-size="14.00">gini = 0.3</text>
<text text-anchor="middle" x="1671.5" y="-37.8" font-family="Times,serif" font-size="14.00">samples = 38</text>
<text text-anchor="middle" x="1671.5" y="-22.8" font-family="Times,serif" font-size="14.00">value = [12.525, 55.667]</text>
<text text-anchor="middle" x="1671.5" y="-7.8" font-family="Times,serif" font-size="14.00">class = Obstructive</text>
</g>
<!-- 21&#45;&gt;22 -->
<g id="edge22" class="edge">
<title>21&#45;&gt;22</title>
<path fill="none" stroke="black" d="M1727.32,-118.87C1720.73,-109.85 1713.84,-100.43 1707.24,-91.39"/>
<polygon fill="black" stroke="black" points="1710,-89.24 1701.27,-83.23 1704.35,-93.37 1710,-89.24"/>
</g>
<!-- 23 -->
<g id="node24" class="node">
<title>23</title>
<polygon fill="none" stroke="black" points="1974.5,-83 1786.5,-83 1786.5,0 1974.5,0 1974.5,-83"/>
<text text-anchor="middle" x="1880.5" y="-67.8" font-family="Times,serif" font-size="14.00">node #23</text>
<text text-anchor="middle" x="1880.5" y="-52.8" font-family="Times,serif" font-size="14.00">gini = 0.381</text>
<text text-anchor="middle" x="1880.5" y="-37.8" font-family="Times,serif" font-size="14.00">samples = 6</text>
<text text-anchor="middle" x="1880.5" y="-22.8" font-family="Times,serif" font-size="14.00">value = [8.35, 2.879]</text>
<text text-anchor="middle" x="1880.5" y="-7.8" font-family="Times,serif" font-size="14.00">class = Non&#45;obstructive</text>
</g>
<!-- 21&#45;&gt;23 -->
<g id="edge23" class="edge">
<title>21&#45;&gt;23</title>
<path fill="none" stroke="black" d="M1808.12,-118.87C1816.92,-109.58 1826.14,-99.85 1834.94,-90.56"/>
<polygon fill="black" stroke="black" points="1837.56,-92.9 1841.9,-83.23 1832.48,-88.08 1837.56,-92.9"/>
</g>
<!-- 25 -->
<g id="node26" class="node">
<title>25</title>
<polygon fill="none" stroke="black" points="2180.5,-83 1992.5,-83 1992.5,0 2180.5,0 2180.5,-83"/>
<text text-anchor="middle" x="2086.5" y="-67.8" font-family="Times,serif" font-size="14.00">node #25</text>
<text text-anchor="middle" x="2086.5" y="-52.8" font-family="Times,serif" font-size="14.00">gini = 0.326</text>
<text text-anchor="middle" x="2086.5" y="-37.8" font-family="Times,serif" font-size="14.00">samples = 24</text>
<text text-anchor="middle" x="2086.5" y="-22.8" font-family="Times,serif" font-size="14.00">value = [26.094, 6.718]</text>
<text text-anchor="middle" x="2086.5" y="-7.8" font-family="Times,serif" font-size="14.00">class = Non&#45;obstructive</text>
</g>
<!-- 24&#45;&gt;25 -->
<g id="edge25" class="edge">
<title>24&#45;&gt;25</title>
<path fill="none" stroke="black" d="M2086.5,-118.87C2086.5,-110.5 2086.5,-101.77 2086.5,-93.33"/>
<polygon fill="black" stroke="black" points="2090,-93.23 2086.5,-83.23 2083,-93.23 2090,-93.23"/>
</g>
<!-- 26 -->
<g id="node27" class="node">
<title>26</title>
<polygon fill="none" stroke="black" points="2374.5,-83 2198.5,-83 2198.5,0 2374.5,0 2374.5,-83"/>
<text text-anchor="middle" x="2286.5" y="-67.8" font-family="Times,serif" font-size="14.00">node #26</text>
<text text-anchor="middle" x="2286.5" y="-52.8" font-family="Times,serif" font-size="14.00">gini = 0.26</text>
<text text-anchor="middle" x="2286.5" y="-37.8" font-family="Times,serif" font-size="14.00">samples = 6</text>
<text text-anchor="middle" x="2286.5" y="-22.8" font-family="Times,serif" font-size="14.00">value = [1.044, 5.759]</text>
<text text-anchor="middle" x="2286.5" y="-7.8" font-family="Times,serif" font-size="14.00">class = Obstructive</text>
</g>
<!-- 24&#45;&gt;26 -->
<g id="edge26" class="edge">
<title>24&#45;&gt;26</title>
<path fill="none" stroke="black" d="M2163.83,-118.87C2179.87,-108.88 2196.74,-98.38 2212.65,-88.47"/>
<polygon fill="black" stroke="black" points="2214.75,-91.29 2221.39,-83.03 2211.05,-85.35 2214.75,-91.29"/>
</g>
</g>
</svg>
