<?xml version="1.0" encoding="UTF-8" standalone="no"?>
<!DOCTYPE svg PUBLIC "-//W3C//DTD SVG 1.1//EN"
 "http://www.w3.org/Graphics/SVG/1.1/DTD/svg11.dtd">
<!-- Generated by graphviz version 2.43.0 (0)
 -->
<!-- Title: Tree Pages: 1 -->
<svg width="2351pt" height="627pt"
 viewBox="0.00 0.00 2351.00 627.00" xmlns="http://www.w3.org/2000/svg" xmlns:xlink="http://www.w3.org/1999/xlink">
<g id="graph0" class="graph" transform="scale(1 1) rotate(0) translate(4 623)">
<title>Tree</title>
<polygon fill="white" stroke="transparent" points="-4,4 -4,-623 2347,-623 2347,4 -4,4"/>
<!-- 0 -->
<g id="node1" class="node">
<title>0</title>
<polygon fill="none" stroke="black" points="1458.5,-619 1267.5,-619 1267.5,-521 1458.5,-521 1458.5,-619"/>
<text text-anchor="middle" x="1363" y="-603.8" font-family="Times,serif" font-size="14.00">node #0</text>
<text text-anchor="middle" x="1363" y="-588.8" font-family="Times,serif" font-size="14.00">FEFPrePercent &lt;= 57.5</text>
<text text-anchor="middle" x="1363" y="-573.8" font-family="Times,serif" font-size="14.00">gini = 0.5</text>
<text text-anchor="middle" x="1363" y="-558.8" font-family="Times,serif" font-size="14.00">samples = 205</text>
<text text-anchor="middle" x="1363" y="-543.8" font-family="Times,serif" font-size="14.00">value = [167.0, 167.0]</text>
<text text-anchor="middle" x="1363" y="-528.8" font-family="Times,serif" font-size="14.00">class = Non&#45;obstructive</text>
</g>
<!-- 1 -->
<g id="node2" class="node">
<title>1</title>
<polygon fill="none" stroke="black" points="1242.5,-485 1039.5,-485 1039.5,-387 1242.5,-387 1242.5,-485"/>
<text text-anchor="middle" x="1141" y="-469.8" font-family="Times,serif" font-size="14.00">node #1</text>
<text text-anchor="middle" x="1141" y="-454.8" font-family="Times,serif" font-size="14.00">FEFPrePercent &lt;= 26.5</text>
<text text-anchor="middle" x="1141" y="-439.8" font-family="Times,serif" font-size="14.00">gini = 0.357</text>
<text text-anchor="middle" x="1141" y="-424.8" font-family="Times,serif" font-size="14.00">samples = 115</text>
<text text-anchor="middle" x="1141" y="-409.8" font-family="Times,serif" font-size="14.00">value = [44.533, 147.237]</text>
<text text-anchor="middle" x="1141" y="-394.8" font-family="Times,serif" font-size="14.00">class = Obstructive</text>
</g>
<!-- 0&#45;&gt;1 -->
<g id="edge1" class="edge">
<title>0&#45;&gt;1</title>
<path fill="none" stroke="black" d="M1282.22,-520.97C1265.54,-511.05 1247.88,-500.55 1230.9,-490.45"/>
<polygon fill="black" stroke="black" points="1232.47,-487.32 1222.09,-485.21 1228.89,-493.33 1232.47,-487.32"/>
<text text-anchor="middle" x="1228.25" y="-505.74" font-family="Times,serif" font-size="14.00">True</text>
</g>
<!-- 16 -->
<g id="node17" class="node">
<title>16</title>
<polygon fill="none" stroke="black" points="1668.5,-485 1465.5,-485 1465.5,-387 1668.5,-387 1668.5,-485"/>
<text text-anchor="middle" x="1567" y="-469.8" font-family="Times,serif" font-size="14.00">node #16</text>
<text text-anchor="middle" x="1567" y="-454.8" font-family="Times,serif" font-size="14.00">FEV1PreVal &lt;= 2.79</text>
<text text-anchor="middle" x="1567" y="-439.8" font-family="Times,serif" font-size="14.00">gini = 0.239</text>
<text text-anchor="middle" x="1567" y="-424.8" font-family="Times,serif" font-size="14.00">samples = 90</text>
<text text-anchor="middle" x="1567" y="-409.8" font-family="Times,serif" font-size="14.00">value = [122.467, 19.763]</text>
<text text-anchor="middle" x="1567" y="-394.8" font-family="Times,serif" font-size="14.00">class = Non&#45;obstructive</text>
</g>
<!-- 0&#45;&gt;16 -->
<g id="edge16" class="edge">
<title>0&#45;&gt;16</title>
<path fill="none" stroke="black" d="M1437.23,-520.97C1452.41,-511.14 1468.49,-500.74 1483.96,-490.73"/>
<polygon fill="black" stroke="black" points="1485.99,-493.58 1492.49,-485.21 1482.19,-487.71 1485.99,-493.58"/>
<text text-anchor="middle" x="1487.25" y="-505.96" font-family="Times,serif" font-size="14.00">False</text>
</g>
<!-- 2 -->
<g id="node3" class="node">
<title>2</title>
<polygon fill="none" stroke="black" points="666.5,-351 481.5,-351 481.5,-253 666.5,-253 666.5,-351"/>
<text text-anchor="middle" x="574" y="-335.8" font-family="Times,serif" font-size="14.00">node #2</text>
<text text-anchor="middle" x="574" y="-320.8" font-family="Times,serif" font-size="14.00">FVCPreVal &lt;= 1.055</text>
<text text-anchor="middle" x="574" y="-305.8" font-family="Times,serif" font-size="14.00">gini = 0.135</text>
<text text-anchor="middle" x="574" y="-290.8" font-family="Times,serif" font-size="14.00">samples = 53</text>
<text text-anchor="middle" x="574" y="-275.8" font-family="Times,serif" font-size="14.00">value = [6.073, 77.077]</text>
<text text-anchor="middle" x="574" y="-260.8" font-family="Times,serif" font-size="14.00">class = Obstructive</text>
</g>
<!-- 1&#45;&gt;2 -->
<g id="edge2" class="edge">
<title>1&#45;&gt;2</title>
<path fill="none" stroke="black" d="M1039.3,-411.32C936.81,-387.46 779.47,-350.83 676.64,-326.9"/>
<polygon fill="black" stroke="black" points="677.4,-323.48 666.86,-324.62 675.81,-330.3 677.4,-323.48"/>
</g>
<!-- 9 -->
<g id="node10" class="node">
<title>9</title>
<polygon fill="none" stroke="black" points="1236.5,-351 1045.5,-351 1045.5,-253 1236.5,-253 1236.5,-351"/>
<text text-anchor="middle" x="1141" y="-335.8" font-family="Times,serif" font-size="14.00">node #9</text>
<text text-anchor="middle" x="1141" y="-320.8" font-family="Times,serif" font-size="14.00">FVCPrePercent &lt;= 53.5</text>
<text text-anchor="middle" x="1141" y="-305.8" font-family="Times,serif" font-size="14.00">gini = 0.457</text>
<text text-anchor="middle" x="1141" y="-290.8" font-family="Times,serif" font-size="14.00">samples = 62</text>
<text text-anchor="middle" x="1141" y="-275.8" font-family="Times,serif" font-size="14.00">value = [38.461, 70.16]</text>
<text text-anchor="middle" x="1141" y="-260.8" font-family="Times,serif" font-size="14.00">class = Obstructive</text>
</g>
<!-- 1&#45;&gt;9 -->
<g id="edge9" class="edge">
<title>1&#45;&gt;9</title>
<path fill="none" stroke="black" d="M1141,-386.97C1141,-378.69 1141,-370 1141,-361.48"/>
<polygon fill="black" stroke="black" points="1144.5,-361.21 1141,-351.21 1137.5,-361.21 1144.5,-361.21"/>
</g>
<!-- 3 -->
<g id="node4" class="node">
<title>3</title>
<polygon fill="none" stroke="black" points="370,-217 170,-217 170,-119 370,-119 370,-217"/>
<text text-anchor="middle" x="270" y="-201.8" font-family="Times,serif" font-size="14.00">node #3</text>
<text text-anchor="middle" x="270" y="-186.8" font-family="Times,serif" font-size="14.00">FEV1PrePercent &lt;= 27.0</text>
<text text-anchor="middle" x="270" y="-171.8" font-family="Times,serif" font-size="14.00">gini = 0.466</text>
<text text-anchor="middle" x="270" y="-156.8" font-family="Times,serif" font-size="14.00">samples = 4</text>
<text text-anchor="middle" x="270" y="-141.8" font-family="Times,serif" font-size="14.00">value = [5.061, 2.964]</text>
<text text-anchor="middle" x="270" y="-126.8" font-family="Times,serif" font-size="14.00">class = Non&#45;obstructive</text>
</g>
<!-- 2&#45;&gt;3 -->
<g id="edge3" class="edge">
<title>2&#45;&gt;3</title>
<path fill="none" stroke="black" d="M481.14,-260.68C449.06,-246.75 412.81,-231.01 379.52,-216.56"/>
<polygon fill="black" stroke="black" points="380.79,-213.29 370.22,-212.52 378,-219.71 380.79,-213.29"/>
</g>
<!-- 6 -->
<g id="node7" class="node">
<title>6</title>
<polygon fill="none" stroke="black" points="672.5,-217 475.5,-217 475.5,-119 672.5,-119 672.5,-217"/>
<text text-anchor="middle" x="574" y="-201.8" font-family="Times,serif" font-size="14.00">node #6</text>
<text text-anchor="middle" x="574" y="-186.8" font-family="Times,serif" font-size="14.00">FEFPostPercent &lt;= 23.0</text>
<text text-anchor="middle" x="574" y="-171.8" font-family="Times,serif" font-size="14.00">gini = 0.027</text>
<text text-anchor="middle" x="574" y="-156.8" font-family="Times,serif" font-size="14.00">samples = 49</text>
<text text-anchor="middle" x="574" y="-141.8" font-family="Times,serif" font-size="14.00">value = [1.012, 74.112]</text>
<text text-anchor="middle" x="574" y="-126.8" font-family="Times,serif" font-size="14.00">class = Obstructive</text>
</g>
<!-- 2&#45;&gt;6 -->
<g id="edge6" class="edge">
<title>2&#45;&gt;6</title>
<path fill="none" stroke="black" d="M574,-252.97C574,-244.69 574,-236 574,-227.48"/>
<polygon fill="black" stroke="black" points="577.5,-227.21 574,-217.21 570.5,-227.21 577.5,-227.21"/>
</g>
<!-- 4 -->
<g id="node5" class="node">
<title>4</title>
<polygon fill="none" stroke="black" points="158,-83 0,-83 0,0 158,0 158,-83"/>
<text text-anchor="middle" x="79" y="-67.8" font-family="Times,serif" font-size="14.00">node #4</text>
<text text-anchor="middle" x="79" y="-52.8" font-family="Times,serif" font-size="14.00">gini = 0.0</text>
<text text-anchor="middle" x="79" y="-37.8" font-family="Times,serif" font-size="14.00">samples = 2</text>
<text text-anchor="middle" x="79" y="-22.8" font-family="Times,serif" font-size="14.00">value = [0.0, 2.964]</text>
<text text-anchor="middle" x="79" y="-7.8" font-family="Times,serif" font-size="14.00">class = Obstructive</text>
</g>
<!-- 3&#45;&gt;4 -->
<g id="edge4" class="edge">
<title>3&#45;&gt;4</title>
<path fill="none" stroke="black" d="M196.15,-118.87C180.97,-108.97 165.02,-98.57 149.95,-88.74"/>
<polygon fill="black" stroke="black" points="151.47,-85.56 141.18,-83.03 147.65,-91.43 151.47,-85.56"/>
</g>
<!-- 5 -->
<g id="node6" class="node">
<title>5</title>
<polygon fill="none" stroke="black" points="364,-83 176,-83 176,0 364,0 364,-83"/>
<text text-anchor="middle" x="270" y="-67.8" font-family="Times,serif" font-size="14.00">node #5</text>
<text text-anchor="middle" x="270" y="-52.8" font-family="Times,serif" font-size="14.00">gini = 0.0</text>
<text text-anchor="middle" x="270" y="-37.8" font-family="Times,serif" font-size="14.00">samples = 2</text>
<text text-anchor="middle" x="270" y="-22.8" font-family="Times,serif" font-size="14.00">value = [5.061, 0.0]</text>
<text text-anchor="middle" x="270" y="-7.8" font-family="Times,serif" font-size="14.00">class = Non&#45;obstructive</text>
</g>
<!-- 3&#45;&gt;5 -->
<g id="edge5" class="edge">
<title>3&#45;&gt;5</title>
<path fill="none" stroke="black" d="M270,-118.87C270,-110.5 270,-101.77 270,-93.33"/>
<polygon fill="black" stroke="black" points="273.5,-93.23 270,-83.23 266.5,-93.23 273.5,-93.23"/>
</g>
<!-- 7 -->
<g id="node8" class="node">
<title>7</title>
<polygon fill="none" stroke="black" points="549.5,-83 382.5,-83 382.5,0 549.5,0 549.5,-83"/>
<text text-anchor="middle" x="466" y="-67.8" font-family="Times,serif" font-size="14.00">node #7</text>
<text text-anchor="middle" x="466" y="-52.8" font-family="Times,serif" font-size="14.00">gini = 0.0</text>
<text text-anchor="middle" x="466" y="-37.8" font-family="Times,serif" font-size="14.00">samples = 36</text>
<text text-anchor="middle" x="466" y="-22.8" font-family="Times,serif" font-size="14.00">value = [0.0, 55.337]</text>
<text text-anchor="middle" x="466" y="-7.8" font-family="Times,serif" font-size="14.00">class = Obstructive</text>
</g>
<!-- 6&#45;&gt;7 -->
<g id="edge7" class="edge">
<title>6&#45;&gt;7</title>
<path fill="none" stroke="black" d="M532.24,-118.87C524.27,-109.67 515.92,-100.04 507.93,-90.84"/>
<polygon fill="black" stroke="black" points="510.53,-88.49 501.33,-83.23 505.24,-93.08 510.53,-88.49"/>
</g>
<!-- 8 -->
<g id="node9" class="node">
<title>8</title>
<polygon fill="none" stroke="black" points="752.5,-83 567.5,-83 567.5,0 752.5,0 752.5,-83"/>
<text text-anchor="middle" x="660" y="-67.8" font-family="Times,serif" font-size="14.00">node #8</text>
<text text-anchor="middle" x="660" y="-52.8" font-family="Times,serif" font-size="14.00">gini = 0.097</text>
<text text-anchor="middle" x="660" y="-37.8" font-family="Times,serif" font-size="14.00">samples = 13</text>
<text text-anchor="middle" x="660" y="-22.8" font-family="Times,serif" font-size="14.00">value = [1.012, 18.775]</text>
<text text-anchor="middle" x="660" y="-7.8" font-family="Times,serif" font-size="14.00">class = Obstructive</text>
</g>
<!-- 6&#45;&gt;8 -->
<g id="edge8" class="edge">
<title>6&#45;&gt;8</title>
<path fill="none" stroke="black" d="M607.25,-118.87C613.41,-109.95 619.85,-100.62 626.04,-91.67"/>
<polygon fill="black" stroke="black" points="629.06,-93.45 631.86,-83.23 623.3,-89.47 629.06,-93.45"/>
</g>
<!-- 10 -->
<g id="node11" class="node">
<title>10</title>
<polygon fill="none" stroke="black" points="1134,-217 946,-217 946,-119 1134,-119 1134,-217"/>
<text text-anchor="middle" x="1040" y="-201.8" font-family="Times,serif" font-size="14.00">node #10</text>
<text text-anchor="middle" x="1040" y="-186.8" font-family="Times,serif" font-size="14.00">FEFPreVal &lt;= 0.82</text>
<text text-anchor="middle" x="1040" y="-171.8" font-family="Times,serif" font-size="14.00">gini = 0.283</text>
<text text-anchor="middle" x="1040" y="-156.8" font-family="Times,serif" font-size="14.00">samples = 13</text>
<text text-anchor="middle" x="1040" y="-141.8" font-family="Times,serif" font-size="14.00">value = [19.23, 3.953]</text>
<text text-anchor="middle" x="1040" y="-126.8" font-family="Times,serif" font-size="14.00">class = Non&#45;obstructive</text>
</g>
<!-- 9&#45;&gt;10 -->
<g id="edge10" class="edge">
<title>9&#45;&gt;10</title>
<path fill="none" stroke="black" d="M1104.25,-252.97C1097.36,-243.96 1090.1,-234.47 1083.03,-225.24"/>
<polygon fill="black" stroke="black" points="1085.75,-223.03 1076.89,-217.21 1080.19,-227.28 1085.75,-223.03"/>
</g>
<!-- 13 -->
<g id="node14" class="node">
<title>13</title>
<polygon fill="none" stroke="black" points="1344.5,-217 1153.5,-217 1153.5,-119 1344.5,-119 1344.5,-217"/>
<text text-anchor="middle" x="1249" y="-201.8" font-family="Times,serif" font-size="14.00">node #13</text>
<text text-anchor="middle" x="1249" y="-186.8" font-family="Times,serif" font-size="14.00">FVCPrePercent &lt;= 65.0</text>
<text text-anchor="middle" x="1249" y="-171.8" font-family="Times,serif" font-size="14.00">gini = 0.349</text>
<text text-anchor="middle" x="1249" y="-156.8" font-family="Times,serif" font-size="14.00">samples = 49</text>
<text text-anchor="middle" x="1249" y="-141.8" font-family="Times,serif" font-size="14.00">value = [19.23, 66.207]</text>
<text text-anchor="middle" x="1249" y="-126.8" font-family="Times,serif" font-size="14.00">class = Obstructive</text>
</g>
<!-- 9&#45;&gt;13 -->
<g id="edge13" class="edge">
<title>9&#45;&gt;13</title>
<path fill="none" stroke="black" d="M1180.3,-252.97C1187.74,-243.87 1195.59,-234.28 1203.21,-224.96"/>
<polygon fill="black" stroke="black" points="1205.93,-227.17 1209.55,-217.21 1200.51,-222.74 1205.93,-227.17"/>
</g>
<!-- 11 -->
<g id="node12" class="node">
<title>11</title>
<polygon fill="none" stroke="black" points="928,-83 770,-83 770,0 928,0 928,-83"/>
<text text-anchor="middle" x="849" y="-67.8" font-family="Times,serif" font-size="14.00">node #11</text>
<text text-anchor="middle" x="849" y="-52.8" font-family="Times,serif" font-size="14.00">gini = 0.0</text>
<text text-anchor="middle" x="849" y="-37.8" font-family="Times,serif" font-size="14.00">samples = 3</text>
<text text-anchor="middle" x="849" y="-22.8" font-family="Times,serif" font-size="14.00">value = [0.0, 3.953]</text>
<text text-anchor="middle" x="849" y="-7.8" font-family="Times,serif" font-size="14.00">class = Obstructive</text>
</g>
<!-- 10&#45;&gt;11 -->
<g id="edge11" class="edge">
<title>10&#45;&gt;11</title>
<path fill="none" stroke="black" d="M966.15,-118.87C950.97,-108.97 935.02,-98.57 919.95,-88.74"/>
<polygon fill="black" stroke="black" points="921.47,-85.56 911.18,-83.03 917.65,-91.43 921.47,-85.56"/>
</g>
<!-- 12 -->
<g id="node13" class="node">
<title>12</title>
<polygon fill="none" stroke="black" points="1134,-83 946,-83 946,0 1134,0 1134,-83"/>
<text text-anchor="middle" x="1040" y="-67.8" font-family="Times,serif" font-size="14.00">node #12</text>
<text text-anchor="middle" x="1040" y="-52.8" font-family="Times,serif" font-size="14.00">gini = &#45;0.0</text>
<text text-anchor="middle" x="1040" y="-37.8" font-family="Times,serif" font-size="14.00">samples = 10</text>
<text text-anchor="middle" x="1040" y="-22.8" font-family="Times,serif" font-size="14.00">value = [19.23, 0.0]</text>
<text text-anchor="middle" x="1040" y="-7.8" font-family="Times,serif" font-size="14.00">class = Non&#45;obstructive</text>
</g>
<!-- 10&#45;&gt;12 -->
<g id="edge12" class="edge">
<title>10&#45;&gt;12</title>
<path fill="none" stroke="black" d="M1040,-118.87C1040,-110.5 1040,-101.77 1040,-93.33"/>
<polygon fill="black" stroke="black" points="1043.5,-93.23 1040,-83.23 1036.5,-93.23 1043.5,-93.23"/>
</g>
<!-- 14 -->
<g id="node15" class="node">
<title>14</title>
<polygon fill="none" stroke="black" points="1346,-83 1152,-83 1152,0 1346,0 1346,-83"/>
<text text-anchor="middle" x="1249" y="-67.8" font-family="Times,serif" font-size="14.00">node #14</text>
<text text-anchor="middle" x="1249" y="-52.8" font-family="Times,serif" font-size="14.00">gini = 0.493</text>
<text text-anchor="middle" x="1249" y="-37.8" font-family="Times,serif" font-size="14.00">samples = 14</text>
<text text-anchor="middle" x="1249" y="-22.8" font-family="Times,serif" font-size="14.00">value = [10.121, 12.846]</text>
<text text-anchor="middle" x="1249" y="-7.8" font-family="Times,serif" font-size="14.00">class = Obstructive</text>
</g>
<!-- 13&#45;&gt;14 -->
<g id="edge14" class="edge">
<title>13&#45;&gt;14</title>
<path fill="none" stroke="black" d="M1249,-118.87C1249,-110.5 1249,-101.77 1249,-93.33"/>
<polygon fill="black" stroke="black" points="1252.5,-93.23 1249,-83.23 1245.5,-93.23 1252.5,-93.23"/>
</g>
<!-- 15 -->
<g id="node16" class="node">
<title>15</title>
<polygon fill="none" stroke="black" points="1548.5,-83 1363.5,-83 1363.5,0 1548.5,0 1548.5,-83"/>
<text text-anchor="middle" x="1456" y="-67.8" font-family="Times,serif" font-size="14.00">node #15</text>
<text text-anchor="middle" x="1456" y="-52.8" font-family="Times,serif" font-size="14.00">gini = 0.249</text>
<text text-anchor="middle" x="1456" y="-37.8" font-family="Times,serif" font-size="14.00">samples = 35</text>
<text text-anchor="middle" x="1456" y="-22.8" font-family="Times,serif" font-size="14.00">value = [9.109, 53.361]</text>
<text text-anchor="middle" x="1456" y="-7.8" font-family="Times,serif" font-size="14.00">class = Obstructive</text>
</g>
<!-- 13&#45;&gt;15 -->
<g id="edge15" class="edge">
<title>13&#45;&gt;15</title>
<path fill="none" stroke="black" d="M1329.03,-118.87C1345.79,-108.78 1363.42,-98.18 1380.03,-88.19"/>
<polygon fill="black" stroke="black" points="1381.84,-91.19 1388.61,-83.03 1378.24,-85.19 1381.84,-91.19"/>
</g>
<!-- 17 -->
<g id="node18" class="node">
<title>17</title>
<polygon fill="none" stroke="black" points="1665.5,-351 1468.5,-351 1468.5,-253 1665.5,-253 1665.5,-351"/>
<text text-anchor="middle" x="1567" y="-335.8" font-family="Times,serif" font-size="14.00">node #17</text>
<text text-anchor="middle" x="1567" y="-320.8" font-family="Times,serif" font-size="14.00">FVCPostPercent &lt;= 63.5</text>
<text text-anchor="middle" x="1567" y="-305.8" font-family="Times,serif" font-size="14.00">gini = 0.144</text>
<text text-anchor="middle" x="1567" y="-290.8" font-family="Times,serif" font-size="14.00">samples = 81</text>
<text text-anchor="middle" x="1567" y="-275.8" font-family="Times,serif" font-size="14.00">value = [116.394, 9.882]</text>
<text text-anchor="middle" x="1567" y="-260.8" font-family="Times,serif" font-size="14.00">class = Non&#45;obstructive</text>
</g>
<!-- 16&#45;&gt;17 -->
<g id="edge17" class="edge">
<title>16&#45;&gt;17</title>
<path fill="none" stroke="black" d="M1567,-386.97C1567,-378.69 1567,-370 1567,-361.48"/>
<polygon fill="black" stroke="black" points="1570.5,-361.21 1567,-351.21 1563.5,-361.21 1570.5,-361.21"/>
</g>
<!-- 22 -->
<g id="node23" class="node">
<title>22</title>
<polygon fill="none" stroke="black" points="1963,-351 1787,-351 1787,-253 1963,-253 1963,-351"/>
<text text-anchor="middle" x="1875" y="-335.8" font-family="Times,serif" font-size="14.00">node #22</text>
<text text-anchor="middle" x="1875" y="-320.8" font-family="Times,serif" font-size="14.00">FVCPreVal &lt;= 4.08</text>
<text text-anchor="middle" x="1875" y="-305.8" font-family="Times,serif" font-size="14.00">gini = 0.472</text>
<text text-anchor="middle" x="1875" y="-290.8" font-family="Times,serif" font-size="14.00">samples = 9</text>
<text text-anchor="middle" x="1875" y="-275.8" font-family="Times,serif" font-size="14.00">value = [6.073, 9.882]</text>
<text text-anchor="middle" x="1875" y="-260.8" font-family="Times,serif" font-size="14.00">class = Obstructive</text>
</g>
<!-- 16&#45;&gt;22 -->
<g id="edge22" class="edge">
<title>16&#45;&gt;22</title>
<path fill="none" stroke="black" d="M1668.7,-391.41C1703.77,-376.38 1742.94,-359.6 1777.65,-344.72"/>
<polygon fill="black" stroke="black" points="1779.03,-347.94 1786.84,-340.78 1776.27,-341.51 1779.03,-347.94"/>
</g>
<!-- 18 -->
<g id="node19" class="node">
<title>18</title>
<polygon fill="none" stroke="black" points="1558,-209.5 1370,-209.5 1370,-126.5 1558,-126.5 1558,-209.5"/>
<text text-anchor="middle" x="1464" y="-194.3" font-family="Times,serif" font-size="14.00">node #18</text>
<text text-anchor="middle" x="1464" y="-179.3" font-family="Times,serif" font-size="14.00">gini = 0.0</text>
<text text-anchor="middle" x="1464" y="-164.3" font-family="Times,serif" font-size="14.00">samples = 43</text>
<text text-anchor="middle" x="1464" y="-149.3" font-family="Times,serif" font-size="14.00">value = [64.776, 0.0]</text>
<text text-anchor="middle" x="1464" y="-134.3" font-family="Times,serif" font-size="14.00">class = Non&#45;obstructive</text>
</g>
<!-- 17&#45;&gt;18 -->
<g id="edge18" class="edge">
<title>17&#45;&gt;18</title>
<path fill="none" stroke="black" d="M1529.52,-252.97C1520.64,-241.58 1511.15,-229.42 1502.23,-217.99"/>
<polygon fill="black" stroke="black" points="1504.76,-215.55 1495.85,-209.82 1499.24,-219.85 1504.76,-215.55"/>
</g>
<!-- 19 -->
<g id="node20" class="node">
<title>19</title>
<polygon fill="none" stroke="black" points="1764,-217 1576,-217 1576,-119 1764,-119 1764,-217"/>
<text text-anchor="middle" x="1670" y="-201.8" font-family="Times,serif" font-size="14.00">node #19</text>
<text text-anchor="middle" x="1670" y="-186.8" font-family="Times,serif" font-size="14.00">FEFPreVal &lt;= 2.91</text>
<text text-anchor="middle" x="1670" y="-171.8" font-family="Times,serif" font-size="14.00">gini = 0.27</text>
<text text-anchor="middle" x="1670" y="-156.8" font-family="Times,serif" font-size="14.00">samples = 38</text>
<text text-anchor="middle" x="1670" y="-141.8" font-family="Times,serif" font-size="14.00">value = [51.618, 9.882]</text>
<text text-anchor="middle" x="1670" y="-126.8" font-family="Times,serif" font-size="14.00">class = Non&#45;obstructive</text>
</g>
<!-- 17&#45;&gt;19 -->
<g id="edge19" class="edge">
<title>17&#45;&gt;19</title>
<path fill="none" stroke="black" d="M1604.48,-252.97C1611.51,-243.96 1618.91,-234.47 1626.12,-225.24"/>
<polygon fill="black" stroke="black" points="1628.99,-227.25 1632.38,-217.21 1623.47,-222.94 1628.99,-227.25"/>
</g>
<!-- 20 -->
<g id="node21" class="node">
<title>20</title>
<polygon fill="none" stroke="black" points="1755,-83 1567,-83 1567,0 1755,0 1755,-83"/>
<text text-anchor="middle" x="1661" y="-67.8" font-family="Times,serif" font-size="14.00">node #20</text>
<text text-anchor="middle" x="1661" y="-52.8" font-family="Times,serif" font-size="14.00">gini = 0.397</text>
<text text-anchor="middle" x="1661" y="-37.8" font-family="Times,serif" font-size="14.00">samples = 23</text>
<text text-anchor="middle" x="1661" y="-22.8" font-family="Times,serif" font-size="14.00">value = [26.315, 9.882]</text>
<text text-anchor="middle" x="1661" y="-7.8" font-family="Times,serif" font-size="14.00">class = Non&#45;obstructive</text>
</g>
<!-- 19&#45;&gt;20 -->
<g id="edge20" class="edge">
<title>19&#45;&gt;20</title>
<path fill="none" stroke="black" d="M1666.52,-118.87C1665.92,-110.5 1665.28,-101.77 1664.67,-93.33"/>
<polygon fill="black" stroke="black" points="1668.16,-92.95 1663.94,-83.23 1661.17,-93.46 1668.16,-92.95"/>
</g>
<!-- 21 -->
<g id="node22" class="node">
<title>21</title>
<polygon fill="none" stroke="black" points="1961,-83 1773,-83 1773,0 1961,0 1961,-83"/>
<text text-anchor="middle" x="1867" y="-67.8" font-family="Times,serif" font-size="14.00">node #21</text>
<text text-anchor="middle" x="1867" y="-52.8" font-family="Times,serif" font-size="14.00">gini = 0.0</text>
<text text-anchor="middle" x="1867" y="-37.8" font-family="Times,serif" font-size="14.00">samples = 15</text>
<text text-anchor="middle" x="1867" y="-22.8" font-family="Times,serif" font-size="14.00">value = [25.303, 0.0]</text>
<text text-anchor="middle" x="1867" y="-7.8" font-family="Times,serif" font-size="14.00">class = Non&#45;obstructive</text>
</g>
<!-- 19&#45;&gt;21 -->
<g id="edge21" class="edge">
<title>19&#45;&gt;21</title>
<path fill="none" stroke="black" d="M1746.17,-118.87C1761.97,-108.88 1778.58,-98.38 1794.26,-88.47"/>
<polygon fill="black" stroke="black" points="1796.28,-91.33 1802.86,-83.03 1792.54,-85.42 1796.28,-91.33"/>
</g>
<!-- 23 -->
<g id="node24" class="node">
<title>23</title>
<polygon fill="none" stroke="black" points="1954,-209.5 1796,-209.5 1796,-126.5 1954,-126.5 1954,-209.5"/>
<text text-anchor="middle" x="1875" y="-194.3" font-family="Times,serif" font-size="14.00">node #23</text>
<text text-anchor="middle" x="1875" y="-179.3" font-family="Times,serif" font-size="14.00">gini = 0.0</text>
<text text-anchor="middle" x="1875" y="-164.3" font-family="Times,serif" font-size="14.00">samples = 5</text>
<text text-anchor="middle" x="1875" y="-149.3" font-family="Times,serif" font-size="14.00">value = [0.0, 8.893]</text>
<text text-anchor="middle" x="1875" y="-134.3" font-family="Times,serif" font-size="14.00">class = Obstructive</text>
</g>
<!-- 22&#45;&gt;23 -->
<g id="edge23" class="edge">
<title>22&#45;&gt;23</title>
<path fill="none" stroke="black" d="M1875,-252.97C1875,-242.25 1875,-230.84 1875,-219.99"/>
<polygon fill="black" stroke="black" points="1878.5,-219.82 1875,-209.82 1871.5,-219.82 1878.5,-219.82"/>
</g>
<!-- 24 -->
<g id="node25" class="node">
<title>24</title>
<polygon fill="none" stroke="black" points="2167,-217 1979,-217 1979,-119 2167,-119 2167,-217"/>
<text text-anchor="middle" x="2073" y="-201.8" font-family="Times,serif" font-size="14.00">node #24</text>
<text text-anchor="middle" x="2073" y="-186.8" font-family="Times,serif" font-size="14.00">FEV1PostVal &lt;= 3.625</text>
<text text-anchor="middle" x="2073" y="-171.8" font-family="Times,serif" font-size="14.00">gini = 0.241</text>
<text text-anchor="middle" x="2073" y="-156.8" font-family="Times,serif" font-size="14.00">samples = 4</text>
<text text-anchor="middle" x="2073" y="-141.8" font-family="Times,serif" font-size="14.00">value = [6.073, 0.988]</text>
<text text-anchor="middle" x="2073" y="-126.8" font-family="Times,serif" font-size="14.00">class = Non&#45;obstructive</text>
</g>
<!-- 22&#45;&gt;24 -->
<g id="edge24" class="edge">
<title>22&#45;&gt;24</title>
<path fill="none" stroke="black" d="M1947.04,-252.97C1961.65,-243.24 1977.1,-232.93 1991.99,-223.01"/>
<polygon fill="black" stroke="black" points="1994.3,-225.67 2000.68,-217.21 1990.42,-219.85 1994.3,-225.67"/>
</g>
<!-- 25 -->
<g id="node26" class="node">
<title>25</title>
<polygon fill="none" stroke="black" points="2167,-83 1979,-83 1979,0 2167,0 2167,-83"/>
<text text-anchor="middle" x="2073" y="-67.8" font-family="Times,serif" font-size="14.00">node #25</text>
<text text-anchor="middle" x="2073" y="-52.8" font-family="Times,serif" font-size="14.00">gini = 0.0</text>
<text text-anchor="middle" x="2073" y="-37.8" font-family="Times,serif" font-size="14.00">samples = 3</text>
<text text-anchor="middle" x="2073" y="-22.8" font-family="Times,serif" font-size="14.00">value = [6.073, 0.0]</text>
<text text-anchor="middle" x="2073" y="-7.8" font-family="Times,serif" font-size="14.00">class = Non&#45;obstructive</text>
</g>
<!-- 24&#45;&gt;25 -->
<g id="edge25" class="edge">
<title>24&#45;&gt;25</title>
<path fill="none" stroke="black" d="M2073,-118.87C2073,-110.5 2073,-101.77 2073,-93.33"/>
<polygon fill="black" stroke="black" points="2076.5,-93.23 2073,-83.23 2069.5,-93.23 2076.5,-93.23"/>
</g>
<!-- 26 -->
<g id="node27" class="node">
<title>26</title>
<polygon fill="none" stroke="black" points="2343,-83 2185,-83 2185,0 2343,0 2343,-83"/>
<text text-anchor="middle" x="2264" y="-67.8" font-family="Times,serif" font-size="14.00">node #26</text>
<text text-anchor="middle" x="2264" y="-52.8" font-family="Times,serif" font-size="14.00">gini = 0.0</text>
<text text-anchor="middle" x="2264" y="-37.8" font-family="Times,serif" font-size="14.00">samples = 1</text>
<text text-anchor="middle" x="2264" y="-22.8" font-family="Times,serif" font-size="14.00">value = [0.0, 0.988]</text>
<text text-anchor="middle" x="2264" y="-7.8" font-family="Times,serif" font-size="14.00">class = Obstructive</text>
</g>
<!-- 24&#45;&gt;26 -->
<g id="edge26" class="edge">
<title>24&#45;&gt;26</title>
<path fill="none" stroke="black" d="M2146.85,-118.87C2162.03,-108.97 2177.98,-98.57 2193.05,-88.74"/>
<polygon fill="black" stroke="black" points="2195.35,-91.43 2201.82,-83.03 2191.53,-85.56 2195.35,-91.43"/>
</g>
</g>
</svg>
