<?xml version="1.0" encoding="UTF-8" standalone="no"?>
<!DOCTYPE svg PUBLIC "-//W3C//DTD SVG 1.1//EN"
 "http://www.w3.org/Graphics/SVG/1.1/DTD/svg11.dtd">
<!-- Generated by graphviz version 2.43.0 (0)
 -->
<!-- Title: Tree Pages: 1 -->
<svg width="2374pt" height="627pt"
 viewBox="0.00 0.00 2374.00 627.00" xmlns="http://www.w3.org/2000/svg" xmlns:xlink="http://www.w3.org/1999/xlink">
<g id="graph0" class="graph" transform="scale(1 1) rotate(0) translate(4 623)">
<title>Tree</title>
<polygon fill="white" stroke="transparent" points="-4,4 -4,-623 2370,-623 2370,4 -4,4"/>
<!-- 0 -->
<g id="node1" class="node">
<title>0</title>
<polygon fill="none" stroke="black" points="962,-619 774,-619 774,-521 962,-521 962,-619"/>
<text text-anchor="middle" x="868" y="-603.8" font-family="Times,serif" font-size="14.00">node #0</text>
<text text-anchor="middle" x="868" y="-588.8" font-family="Times,serif" font-size="14.00">FEFPreVal &lt;= 1.07</text>
<text text-anchor="middle" x="868" y="-573.8" font-family="Times,serif" font-size="14.00">gini = 0.5</text>
<text text-anchor="middle" x="868" y="-558.8" font-family="Times,serif" font-size="14.00">samples = 205</text>
<text text-anchor="middle" x="868" y="-543.8" font-family="Times,serif" font-size="14.00">value = [167.0, 167.0]</text>
<text text-anchor="middle" x="868" y="-528.8" font-family="Times,serif" font-size="14.00">class = Non&#45;obstructive</text>
</g>
<!-- 1 -->
<g id="node2" class="node">
<title>1</title>
<polygon fill="none" stroke="black" points="681,-485 487,-485 487,-387 681,-387 681,-485"/>
<text text-anchor="middle" x="584" y="-469.8" font-family="Times,serif" font-size="14.00">node #1</text>
<text text-anchor="middle" x="584" y="-454.8" font-family="Times,serif" font-size="14.00">FVCPostVal &lt;= 1.685</text>
<text text-anchor="middle" x="584" y="-439.8" font-family="Times,serif" font-size="14.00">gini = 0.249</text>
<text text-anchor="middle" x="584" y="-424.8" font-family="Times,serif" font-size="14.00">samples = 71</text>
<text text-anchor="middle" x="584" y="-409.8" font-family="Times,serif" font-size="14.00">value = [16.194, 94.864]</text>
<text text-anchor="middle" x="584" y="-394.8" font-family="Times,serif" font-size="14.00">class = Obstructive</text>
</g>
<!-- 0&#45;&gt;1 -->
<g id="edge1" class="edge">
<title>0&#45;&gt;1</title>
<path fill="none" stroke="black" d="M773.83,-525.23C747.13,-512.82 717.89,-499.23 690.52,-486.51"/>
<polygon fill="black" stroke="black" points="691.86,-483.27 681.32,-482.23 688.91,-489.62 691.86,-483.27"/>
<text text-anchor="middle" x="689.9" y="-502.02" font-family="Times,serif" font-size="14.00">True</text>
</g>
<!-- 12 -->
<g id="node13" class="node">
<title>12</title>
<polygon fill="none" stroke="black" points="1282.5,-485 1079.5,-485 1079.5,-387 1282.5,-387 1282.5,-485"/>
<text text-anchor="middle" x="1181" y="-469.8" font-family="Times,serif" font-size="14.00">node #12</text>
<text text-anchor="middle" x="1181" y="-454.8" font-family="Times,serif" font-size="14.00">FVCPostPercent &lt;= 72.5</text>
<text text-anchor="middle" x="1181" y="-439.8" font-family="Times,serif" font-size="14.00">gini = 0.438</text>
<text text-anchor="middle" x="1181" y="-424.8" font-family="Times,serif" font-size="14.00">samples = 134</text>
<text text-anchor="middle" x="1181" y="-409.8" font-family="Times,serif" font-size="14.00">value = [150.806, 72.136]</text>
<text text-anchor="middle" x="1181" y="-394.8" font-family="Times,serif" font-size="14.00">class = Non&#45;obstructive</text>
</g>
<!-- 0&#45;&gt;12 -->
<g id="edge12" class="edge">
<title>0&#45;&gt;12</title>
<path fill="none" stroke="black" d="M962.33,-529.22C996.21,-514.93 1034.72,-498.69 1069.89,-483.86"/>
<polygon fill="black" stroke="black" points="1071.37,-487.03 1079.23,-479.92 1068.65,-480.58 1071.37,-487.03"/>
<text text-anchor="middle" x="1069.81" y="-499.38" font-family="Times,serif" font-size="14.00">False</text>
</g>
<!-- 2 -->
<g id="node3" class="node">
<title>2</title>
<polygon fill="none" stroke="black" points="386.5,-351 201.5,-351 201.5,-253 386.5,-253 386.5,-351"/>
<text text-anchor="middle" x="294" y="-335.8" font-family="Times,serif" font-size="14.00">node #2</text>
<text text-anchor="middle" x="294" y="-320.8" font-family="Times,serif" font-size="14.00">FEFPostVal &lt;= 0.475</text>
<text text-anchor="middle" x="294" y="-305.8" font-family="Times,serif" font-size="14.00">gini = 0.463</text>
<text text-anchor="middle" x="294" y="-290.8" font-family="Times,serif" font-size="14.00">samples = 22</text>
<text text-anchor="middle" x="294" y="-275.8" font-family="Times,serif" font-size="14.00">value = [14.17, 24.704]</text>
<text text-anchor="middle" x="294" y="-260.8" font-family="Times,serif" font-size="14.00">class = Obstructive</text>
</g>
<!-- 1&#45;&gt;2 -->
<g id="edge2" class="edge">
<title>1&#45;&gt;2</title>
<path fill="none" stroke="black" d="M486.63,-390.68C457.53,-377.43 425.54,-362.88 396.15,-349.49"/>
<polygon fill="black" stroke="black" points="397.25,-346.15 386.7,-345.19 394.35,-352.52 397.25,-346.15"/>
</g>
<!-- 7 -->
<g id="node8" class="node">
<title>7</title>
<polygon fill="none" stroke="black" points="682.5,-351 485.5,-351 485.5,-253 682.5,-253 682.5,-351"/>
<text text-anchor="middle" x="584" y="-335.8" font-family="Times,serif" font-size="14.00">node #7</text>
<text text-anchor="middle" x="584" y="-320.8" font-family="Times,serif" font-size="14.00">FEFPostPercent &lt;= 73.5</text>
<text text-anchor="middle" x="584" y="-305.8" font-family="Times,serif" font-size="14.00">gini = 0.055</text>
<text text-anchor="middle" x="584" y="-290.8" font-family="Times,serif" font-size="14.00">samples = 49</text>
<text text-anchor="middle" x="584" y="-275.8" font-family="Times,serif" font-size="14.00">value = [2.024, 70.16]</text>
<text text-anchor="middle" x="584" y="-260.8" font-family="Times,serif" font-size="14.00">class = Obstructive</text>
</g>
<!-- 1&#45;&gt;7 -->
<g id="edge7" class="edge">
<title>1&#45;&gt;7</title>
<path fill="none" stroke="black" d="M584,-386.97C584,-378.69 584,-370 584,-361.48"/>
<polygon fill="black" stroke="black" points="587.5,-361.21 584,-351.21 580.5,-361.21 587.5,-361.21"/>
</g>
<!-- 3 -->
<g id="node4" class="node">
<title>3</title>
<polygon fill="none" stroke="black" points="180.5,-209.5 13.5,-209.5 13.5,-126.5 180.5,-126.5 180.5,-209.5"/>
<text text-anchor="middle" x="97" y="-194.3" font-family="Times,serif" font-size="14.00">node #3</text>
<text text-anchor="middle" x="97" y="-179.3" font-family="Times,serif" font-size="14.00">gini = 0.0</text>
<text text-anchor="middle" x="97" y="-164.3" font-family="Times,serif" font-size="14.00">samples = 11</text>
<text text-anchor="middle" x="97" y="-149.3" font-family="Times,serif" font-size="14.00">value = [0.0, 16.799]</text>
<text text-anchor="middle" x="97" y="-134.3" font-family="Times,serif" font-size="14.00">class = Obstructive</text>
</g>
<!-- 2&#45;&gt;3 -->
<g id="edge3" class="edge">
<title>2&#45;&gt;3</title>
<path fill="none" stroke="black" d="M222.32,-252.97C204.07,-240.75 184.5,-227.63 166.37,-215.48"/>
<polygon fill="black" stroke="black" points="167.85,-212.26 157.6,-209.6 163.96,-218.08 167.85,-212.26"/>
</g>
<!-- 4 -->
<g id="node5" class="node">
<title>4</title>
<polygon fill="none" stroke="black" points="389.5,-217 198.5,-217 198.5,-119 389.5,-119 389.5,-217"/>
<text text-anchor="middle" x="294" y="-201.8" font-family="Times,serif" font-size="14.00">node #4</text>
<text text-anchor="middle" x="294" y="-186.8" font-family="Times,serif" font-size="14.00">FEFPrePercent &lt;= 20.5</text>
<text text-anchor="middle" x="294" y="-171.8" font-family="Times,serif" font-size="14.00">gini = 0.46</text>
<text text-anchor="middle" x="294" y="-156.8" font-family="Times,serif" font-size="14.00">samples = 11</text>
<text text-anchor="middle" x="294" y="-141.8" font-family="Times,serif" font-size="14.00">value = [14.17, 7.905]</text>
<text text-anchor="middle" x="294" y="-126.8" font-family="Times,serif" font-size="14.00">class = Non&#45;obstructive</text>
</g>
<!-- 2&#45;&gt;4 -->
<g id="edge4" class="edge">
<title>2&#45;&gt;4</title>
<path fill="none" stroke="black" d="M294,-252.97C294,-244.69 294,-236 294,-227.48"/>
<polygon fill="black" stroke="black" points="297.5,-227.21 294,-217.21 290.5,-227.21 297.5,-227.21"/>
</g>
<!-- 5 -->
<g id="node6" class="node">
<title>5</title>
<polygon fill="none" stroke="black" points="188,-83 0,-83 0,0 188,0 188,-83"/>
<text text-anchor="middle" x="94" y="-67.8" font-family="Times,serif" font-size="14.00">node #5</text>
<text text-anchor="middle" x="94" y="-52.8" font-family="Times,serif" font-size="14.00">gini = 0.0</text>
<text text-anchor="middle" x="94" y="-37.8" font-family="Times,serif" font-size="14.00">samples = 4</text>
<text text-anchor="middle" x="94" y="-22.8" font-family="Times,serif" font-size="14.00">value = [8.097, 0.0]</text>
<text text-anchor="middle" x="94" y="-7.8" font-family="Times,serif" font-size="14.00">class = Non&#45;obstructive</text>
</g>
<!-- 4&#45;&gt;5 -->
<g id="edge5" class="edge">
<title>4&#45;&gt;5</title>
<path fill="none" stroke="black" d="M216.67,-118.87C200.63,-108.88 183.76,-98.38 167.85,-88.47"/>
<polygon fill="black" stroke="black" points="169.45,-85.35 159.11,-83.03 165.75,-91.29 169.45,-85.35"/>
</g>
<!-- 6 -->
<g id="node7" class="node">
<title>6</title>
<polygon fill="none" stroke="black" points="382,-83 206,-83 206,0 382,0 382,-83"/>
<text text-anchor="middle" x="294" y="-67.8" font-family="Times,serif" font-size="14.00">node #6</text>
<text text-anchor="middle" x="294" y="-52.8" font-family="Times,serif" font-size="14.00">gini = 0.491</text>
<text text-anchor="middle" x="294" y="-37.8" font-family="Times,serif" font-size="14.00">samples = 7</text>
<text text-anchor="middle" x="294" y="-22.8" font-family="Times,serif" font-size="14.00">value = [6.073, 7.905]</text>
<text text-anchor="middle" x="294" y="-7.8" font-family="Times,serif" font-size="14.00">class = Obstructive</text>
</g>
<!-- 4&#45;&gt;6 -->
<g id="edge6" class="edge">
<title>4&#45;&gt;6</title>
<path fill="none" stroke="black" d="M294,-118.87C294,-110.5 294,-101.77 294,-93.33"/>
<polygon fill="black" stroke="black" points="297.5,-93.23 294,-83.23 290.5,-93.23 297.5,-93.23"/>
</g>
<!-- 8 -->
<g id="node9" class="node">
<title>8</title>
<polygon fill="none" stroke="black" points="628,-217 452,-217 452,-119 628,-119 628,-217"/>
<text text-anchor="middle" x="540" y="-201.8" font-family="Times,serif" font-size="14.00">node #8</text>
<text text-anchor="middle" x="540" y="-186.8" font-family="Times,serif" font-size="14.00">FVCPostVal &lt;= 1.935</text>
<text text-anchor="middle" x="540" y="-171.8" font-family="Times,serif" font-size="14.00">gini = 0.028</text>
<text text-anchor="middle" x="540" y="-156.8" font-family="Times,serif" font-size="14.00">samples = 48</text>
<text text-anchor="middle" x="540" y="-141.8" font-family="Times,serif" font-size="14.00">value = [1.012, 70.16]</text>
<text text-anchor="middle" x="540" y="-126.8" font-family="Times,serif" font-size="14.00">class = Obstructive</text>
</g>
<!-- 7&#45;&gt;8 -->
<g id="edge8" class="edge">
<title>7&#45;&gt;8</title>
<path fill="none" stroke="black" d="M567.99,-252.97C565.17,-244.51 562.21,-235.62 559.31,-226.92"/>
<polygon fill="black" stroke="black" points="562.55,-225.59 556.07,-217.21 555.91,-227.81 562.55,-225.59"/>
</g>
<!-- 11 -->
<g id="node12" class="node">
<title>11</title>
<polygon fill="none" stroke="black" points="834,-209.5 646,-209.5 646,-126.5 834,-126.5 834,-209.5"/>
<text text-anchor="middle" x="740" y="-194.3" font-family="Times,serif" font-size="14.00">node #11</text>
<text text-anchor="middle" x="740" y="-179.3" font-family="Times,serif" font-size="14.00">gini = 0.0</text>
<text text-anchor="middle" x="740" y="-164.3" font-family="Times,serif" font-size="14.00">samples = 1</text>
<text text-anchor="middle" x="740" y="-149.3" font-family="Times,serif" font-size="14.00">value = [1.012, 0.0]</text>
<text text-anchor="middle" x="740" y="-134.3" font-family="Times,serif" font-size="14.00">class = Non&#45;obstructive</text>
</g>
<!-- 7&#45;&gt;11 -->
<g id="edge11" class="edge">
<title>7&#45;&gt;11</title>
<path fill="none" stroke="black" d="M640.76,-252.97C654.95,-240.97 670.15,-228.1 684.28,-216.14"/>
<polygon fill="black" stroke="black" points="686.64,-218.73 692.01,-209.6 682.12,-213.39 686.64,-218.73"/>
</g>
<!-- 9 -->
<g id="node10" class="node">
<title>9</title>
<polygon fill="none" stroke="black" points="584.5,-83 399.5,-83 399.5,0 584.5,0 584.5,-83"/>
<text text-anchor="middle" x="492" y="-67.8" font-family="Times,serif" font-size="14.00">node #9</text>
<text text-anchor="middle" x="492" y="-52.8" font-family="Times,serif" font-size="14.00">gini = 0.135</text>
<text text-anchor="middle" x="492" y="-37.8" font-family="Times,serif" font-size="14.00">samples = 11</text>
<text text-anchor="middle" x="492" y="-22.8" font-family="Times,serif" font-size="14.00">value = [1.012, 12.846]</text>
<text text-anchor="middle" x="492" y="-7.8" font-family="Times,serif" font-size="14.00">class = Obstructive</text>
</g>
<!-- 8&#45;&gt;9 -->
<g id="edge9" class="edge">
<title>8&#45;&gt;9</title>
<path fill="none" stroke="black" d="M521.44,-118.87C518.15,-110.31 514.7,-101.39 511.38,-92.78"/>
<polygon fill="black" stroke="black" points="514.57,-91.3 507.7,-83.23 508.04,-93.82 514.57,-91.3"/>
</g>
<!-- 10 -->
<g id="node11" class="node">
<title>10</title>
<polygon fill="none" stroke="black" points="769.5,-83 602.5,-83 602.5,0 769.5,0 769.5,-83"/>
<text text-anchor="middle" x="686" y="-67.8" font-family="Times,serif" font-size="14.00">node #10</text>
<text text-anchor="middle" x="686" y="-52.8" font-family="Times,serif" font-size="14.00">gini = 0.0</text>
<text text-anchor="middle" x="686" y="-37.8" font-family="Times,serif" font-size="14.00">samples = 37</text>
<text text-anchor="middle" x="686" y="-22.8" font-family="Times,serif" font-size="14.00">value = [0.0, 57.314]</text>
<text text-anchor="middle" x="686" y="-7.8" font-family="Times,serif" font-size="14.00">class = Obstructive</text>
</g>
<!-- 8&#45;&gt;10 -->
<g id="edge10" class="edge">
<title>8&#45;&gt;10</title>
<path fill="none" stroke="black" d="M596.45,-118.87C607.66,-109.3 619.43,-99.27 630.6,-89.74"/>
<polygon fill="black" stroke="black" points="632.9,-92.38 638.24,-83.23 628.36,-87.06 632.9,-92.38"/>
</g>
<!-- 13 -->
<g id="node14" class="node">
<title>13</title>
<polygon fill="none" stroke="black" points="1275,-351 1087,-351 1087,-253 1275,-253 1275,-351"/>
<text text-anchor="middle" x="1181" y="-335.8" font-family="Times,serif" font-size="14.00">node #13</text>
<text text-anchor="middle" x="1181" y="-320.8" font-family="Times,serif" font-size="14.00">FEFPreVal &lt;= 1.317</text>
<text text-anchor="middle" x="1181" y="-305.8" font-family="Times,serif" font-size="14.00">gini = 0.146</text>
<text text-anchor="middle" x="1181" y="-290.8" font-family="Times,serif" font-size="14.00">samples = 79</text>
<text text-anchor="middle" x="1181" y="-275.8" font-family="Times,serif" font-size="14.00">value = [114.37, 9.882]</text>
<text text-anchor="middle" x="1181" y="-260.8" font-family="Times,serif" font-size="14.00">class = Non&#45;obstructive</text>
</g>
<!-- 12&#45;&gt;13 -->
<g id="edge13" class="edge">
<title>12&#45;&gt;13</title>
<path fill="none" stroke="black" d="M1181,-386.97C1181,-378.69 1181,-370 1181,-361.48"/>
<polygon fill="black" stroke="black" points="1184.5,-361.21 1181,-351.21 1177.5,-361.21 1184.5,-361.21"/>
</g>
<!-- 20 -->
<g id="node21" class="node">
<title>20</title>
<polygon fill="none" stroke="black" points="1876,-351 1682,-351 1682,-253 1876,-253 1876,-351"/>
<text text-anchor="middle" x="1779" y="-335.8" font-family="Times,serif" font-size="14.00">node #20</text>
<text text-anchor="middle" x="1779" y="-320.8" font-family="Times,serif" font-size="14.00">FEFPrePercent &lt;= 59.5</text>
<text text-anchor="middle" x="1779" y="-305.8" font-family="Times,serif" font-size="14.00">gini = 0.466</text>
<text text-anchor="middle" x="1779" y="-290.8" font-family="Times,serif" font-size="14.00">samples = 55</text>
<text text-anchor="middle" x="1779" y="-275.8" font-family="Times,serif" font-size="14.00">value = [36.436, 62.254]</text>
<text text-anchor="middle" x="1779" y="-260.8" font-family="Times,serif" font-size="14.00">class = Obstructive</text>
</g>
<!-- 12&#45;&gt;20 -->
<g id="edge20" class="edge">
<title>12&#45;&gt;20</title>
<path fill="none" stroke="black" d="M1282.78,-412.53C1391.04,-388.64 1561.56,-351 1671.83,-326.66"/>
<polygon fill="black" stroke="black" points="1672.64,-330.06 1681.65,-324.49 1671.13,-323.23 1672.64,-330.06"/>
</g>
<!-- 14 -->
<g id="node15" class="node">
<title>14</title>
<polygon fill="none" stroke="black" points="1170,-217 982,-217 982,-119 1170,-119 1170,-217"/>
<text text-anchor="middle" x="1076" y="-201.8" font-family="Times,serif" font-size="14.00">node #14</text>
<text text-anchor="middle" x="1076" y="-186.8" font-family="Times,serif" font-size="14.00">FEV1PreVal &lt;= 1.34</text>
<text text-anchor="middle" x="1076" y="-171.8" font-family="Times,serif" font-size="14.00">gini = 0.416</text>
<text text-anchor="middle" x="1076" y="-156.8" font-family="Times,serif" font-size="14.00">samples = 11</text>
<text text-anchor="middle" x="1076" y="-141.8" font-family="Times,serif" font-size="14.00">value = [14.17, 5.929]</text>
<text text-anchor="middle" x="1076" y="-126.8" font-family="Times,serif" font-size="14.00">class = Non&#45;obstructive</text>
</g>
<!-- 13&#45;&gt;14 -->
<g id="edge14" class="edge">
<title>13&#45;&gt;14</title>
<path fill="none" stroke="black" d="M1142.8,-252.97C1135.63,-243.96 1128.08,-234.47 1120.74,-225.24"/>
<polygon fill="black" stroke="black" points="1123.32,-222.86 1114.35,-217.21 1117.84,-227.22 1123.32,-222.86"/>
</g>
<!-- 17 -->
<g id="node18" class="node">
<title>17</title>
<polygon fill="none" stroke="black" points="1385.5,-217 1188.5,-217 1188.5,-119 1385.5,-119 1385.5,-217"/>
<text text-anchor="middle" x="1287" y="-201.8" font-family="Times,serif" font-size="14.00">node #17</text>
<text text-anchor="middle" x="1287" y="-186.8" font-family="Times,serif" font-size="14.00">FEFPostPercent &lt;= 69.5</text>
<text text-anchor="middle" x="1287" y="-171.8" font-family="Times,serif" font-size="14.00">gini = 0.073</text>
<text text-anchor="middle" x="1287" y="-156.8" font-family="Times,serif" font-size="14.00">samples = 68</text>
<text text-anchor="middle" x="1287" y="-141.8" font-family="Times,serif" font-size="14.00">value = [100.2, 3.953]</text>
<text text-anchor="middle" x="1287" y="-126.8" font-family="Times,serif" font-size="14.00">class = Non&#45;obstructive</text>
</g>
<!-- 13&#45;&gt;17 -->
<g id="edge17" class="edge">
<title>13&#45;&gt;17</title>
<path fill="none" stroke="black" d="M1219.57,-252.97C1226.8,-243.96 1234.42,-234.47 1241.84,-225.24"/>
<polygon fill="black" stroke="black" points="1244.75,-227.2 1248.28,-217.21 1239.29,-222.82 1244.75,-227.2"/>
</g>
<!-- 15 -->
<g id="node16" class="node">
<title>15</title>
<polygon fill="none" stroke="black" points="976,-83 788,-83 788,0 976,0 976,-83"/>
<text text-anchor="middle" x="882" y="-67.8" font-family="Times,serif" font-size="14.00">node #15</text>
<text text-anchor="middle" x="882" y="-52.8" font-family="Times,serif" font-size="14.00">gini = 0.0</text>
<text text-anchor="middle" x="882" y="-37.8" font-family="Times,serif" font-size="14.00">samples = 6</text>
<text text-anchor="middle" x="882" y="-22.8" font-family="Times,serif" font-size="14.00">value = [12.145, 0.0]</text>
<text text-anchor="middle" x="882" y="-7.8" font-family="Times,serif" font-size="14.00">class = Non&#45;obstructive</text>
</g>
<!-- 14&#45;&gt;15 -->
<g id="edge15" class="edge">
<title>14&#45;&gt;15</title>
<path fill="none" stroke="black" d="M1000.99,-118.87C985.43,-108.88 969.07,-98.38 953.63,-88.47"/>
<polygon fill="black" stroke="black" points="955.47,-85.49 945.16,-83.03 951.68,-91.38 955.47,-85.49"/>
</g>
<!-- 16 -->
<g id="node17" class="node">
<title>16</title>
<polygon fill="none" stroke="black" points="1170,-83 994,-83 994,0 1170,0 1170,-83"/>
<text text-anchor="middle" x="1082" y="-67.8" font-family="Times,serif" font-size="14.00">node #16</text>
<text text-anchor="middle" x="1082" y="-52.8" font-family="Times,serif" font-size="14.00">gini = 0.379</text>
<text text-anchor="middle" x="1082" y="-37.8" font-family="Times,serif" font-size="14.00">samples = 5</text>
<text text-anchor="middle" x="1082" y="-22.8" font-family="Times,serif" font-size="14.00">value = [2.024, 5.929]</text>
<text text-anchor="middle" x="1082" y="-7.8" font-family="Times,serif" font-size="14.00">class = Obstructive</text>
</g>
<!-- 14&#45;&gt;16 -->
<g id="edge16" class="edge">
<title>14&#45;&gt;16</title>
<path fill="none" stroke="black" d="M1078.32,-118.87C1078.72,-110.5 1079.14,-101.77 1079.55,-93.33"/>
<polygon fill="black" stroke="black" points="1083.05,-93.39 1080.04,-83.23 1076.06,-93.05 1083.05,-93.39"/>
</g>
<!-- 18 -->
<g id="node19" class="node">
<title>18</title>
<polygon fill="none" stroke="black" points="1376,-83 1188,-83 1188,0 1376,0 1376,-83"/>
<text text-anchor="middle" x="1282" y="-67.8" font-family="Times,serif" font-size="14.00">node #18</text>
<text text-anchor="middle" x="1282" y="-52.8" font-family="Times,serif" font-size="14.00">gini = 0.188</text>
<text text-anchor="middle" x="1282" y="-37.8" font-family="Times,serif" font-size="14.00">samples = 20</text>
<text text-anchor="middle" x="1282" y="-22.8" font-family="Times,serif" font-size="14.00">value = [25.303, 2.964]</text>
<text text-anchor="middle" x="1282" y="-7.8" font-family="Times,serif" font-size="14.00">class = Non&#45;obstructive</text>
</g>
<!-- 17&#45;&gt;18 -->
<g id="edge18" class="edge">
<title>17&#45;&gt;18</title>
<path fill="none" stroke="black" d="M1285.07,-118.87C1284.73,-110.5 1284.38,-101.77 1284.04,-93.33"/>
<polygon fill="black" stroke="black" points="1287.53,-93.08 1283.64,-83.23 1280.54,-93.36 1287.53,-93.08"/>
</g>
<!-- 19 -->
<g id="node20" class="node">
<title>19</title>
<polygon fill="none" stroke="black" points="1582,-83 1394,-83 1394,0 1582,0 1582,-83"/>
<text text-anchor="middle" x="1488" y="-67.8" font-family="Times,serif" font-size="14.00">node #19</text>
<text text-anchor="middle" x="1488" y="-52.8" font-family="Times,serif" font-size="14.00">gini = 0.026</text>
<text text-anchor="middle" x="1488" y="-37.8" font-family="Times,serif" font-size="14.00">samples = 48</text>
<text text-anchor="middle" x="1488" y="-22.8" font-family="Times,serif" font-size="14.00">value = [74.897, 0.988]</text>
<text text-anchor="middle" x="1488" y="-7.8" font-family="Times,serif" font-size="14.00">class = Non&#45;obstructive</text>
</g>
<!-- 17&#45;&gt;19 -->
<g id="edge19" class="edge">
<title>17&#45;&gt;19</title>
<path fill="none" stroke="black" d="M1364.71,-118.87C1380.84,-108.88 1397.79,-98.38 1413.78,-88.47"/>
<polygon fill="black" stroke="black" points="1415.9,-91.27 1422.56,-83.03 1412.22,-85.32 1415.9,-91.27"/>
</g>
<!-- 21 -->
<g id="node22" class="node">
<title>21</title>
<polygon fill="none" stroke="black" points="1871.5,-217 1686.5,-217 1686.5,-119 1871.5,-119 1871.5,-217"/>
<text text-anchor="middle" x="1779" y="-201.8" font-family="Times,serif" font-size="14.00">node #21</text>
<text text-anchor="middle" x="1779" y="-186.8" font-family="Times,serif" font-size="14.00">FEV1PreVal &lt;= 1.875</text>
<text text-anchor="middle" x="1779" y="-171.8" font-family="Times,serif" font-size="14.00">gini = 0.148</text>
<text text-anchor="middle" x="1779" y="-156.8" font-family="Times,serif" font-size="14.00">samples = 23</text>
<text text-anchor="middle" x="1779" y="-141.8" font-family="Times,serif" font-size="14.00">value = [3.036, 34.586]</text>
<text text-anchor="middle" x="1779" y="-126.8" font-family="Times,serif" font-size="14.00">class = Obstructive</text>
</g>
<!-- 20&#45;&gt;21 -->
<g id="edge21" class="edge">
<title>20&#45;&gt;21</title>
<path fill="none" stroke="black" d="M1779,-252.97C1779,-244.69 1779,-236 1779,-227.48"/>
<polygon fill="black" stroke="black" points="1782.5,-227.21 1779,-217.21 1775.5,-227.21 1782.5,-227.21"/>
</g>
<!-- 24 -->
<g id="node25" class="node">
<title>24</title>
<polygon fill="none" stroke="black" points="2169,-217 1981,-217 1981,-119 2169,-119 2169,-217"/>
<text text-anchor="middle" x="2075" y="-201.8" font-family="Times,serif" font-size="14.00">node #24</text>
<text text-anchor="middle" x="2075" y="-186.8" font-family="Times,serif" font-size="14.00">FEV1PostVal &lt;= 2.98</text>
<text text-anchor="middle" x="2075" y="-171.8" font-family="Times,serif" font-size="14.00">gini = 0.496</text>
<text text-anchor="middle" x="2075" y="-156.8" font-family="Times,serif" font-size="14.00">samples = 32</text>
<text text-anchor="middle" x="2075" y="-141.8" font-family="Times,serif" font-size="14.00">value = [33.4, 27.669]</text>
<text text-anchor="middle" x="2075" y="-126.8" font-family="Times,serif" font-size="14.00">class = Non&#45;obstructive</text>
</g>
<!-- 20&#45;&gt;24 -->
<g id="edge24" class="edge">
<title>20&#45;&gt;24</title>
<path fill="none" stroke="black" d="M1876.33,-257.6C1906.8,-244.01 1940.52,-228.97 1971.4,-215.2"/>
<polygon fill="black" stroke="black" points="1973.18,-218.24 1980.88,-210.97 1970.32,-211.85 1973.18,-218.24"/>
</g>
<!-- 22 -->
<g id="node23" class="node">
<title>22</title>
<polygon fill="none" stroke="black" points="1776,-83 1600,-83 1600,0 1776,0 1776,-83"/>
<text text-anchor="middle" x="1688" y="-67.8" font-family="Times,serif" font-size="14.00">node #22</text>
<text text-anchor="middle" x="1688" y="-52.8" font-family="Times,serif" font-size="14.00">gini = 0.379</text>
<text text-anchor="middle" x="1688" y="-37.8" font-family="Times,serif" font-size="14.00">samples = 9</text>
<text text-anchor="middle" x="1688" y="-22.8" font-family="Times,serif" font-size="14.00">value = [3.036, 8.893]</text>
<text text-anchor="middle" x="1688" y="-7.8" font-family="Times,serif" font-size="14.00">class = Obstructive</text>
</g>
<!-- 21&#45;&gt;22 -->
<g id="edge22" class="edge">
<title>21&#45;&gt;22</title>
<path fill="none" stroke="black" d="M1743.82,-118.87C1737.23,-109.85 1730.34,-100.43 1723.74,-91.39"/>
<polygon fill="black" stroke="black" points="1726.5,-89.24 1717.77,-83.23 1720.85,-93.37 1726.5,-89.24"/>
</g>
<!-- 23 -->
<g id="node24" class="node">
<title>23</title>
<polygon fill="none" stroke="black" points="1960.5,-83 1793.5,-83 1793.5,0 1960.5,0 1960.5,-83"/>
<text text-anchor="middle" x="1877" y="-67.8" font-family="Times,serif" font-size="14.00">node #23</text>
<text text-anchor="middle" x="1877" y="-52.8" font-family="Times,serif" font-size="14.00">gini = 0.0</text>
<text text-anchor="middle" x="1877" y="-37.8" font-family="Times,serif" font-size="14.00">samples = 14</text>
<text text-anchor="middle" x="1877" y="-22.8" font-family="Times,serif" font-size="14.00">value = [0.0, 25.692]</text>
<text text-anchor="middle" x="1877" y="-7.8" font-family="Times,serif" font-size="14.00">class = Obstructive</text>
</g>
<!-- 21&#45;&gt;23 -->
<g id="edge23" class="edge">
<title>21&#45;&gt;23</title>
<path fill="none" stroke="black" d="M1816.89,-118.87C1824.05,-109.76 1831.55,-100.23 1838.73,-91.12"/>
<polygon fill="black" stroke="black" points="1841.5,-93.25 1844.94,-83.23 1836,-88.92 1841.5,-93.25"/>
</g>
<!-- 25 -->
<g id="node26" class="node">
<title>25</title>
<polygon fill="none" stroke="black" points="2172,-83 1978,-83 1978,0 2172,0 2172,-83"/>
<text text-anchor="middle" x="2075" y="-67.8" font-family="Times,serif" font-size="14.00">node #25</text>
<text text-anchor="middle" x="2075" y="-52.8" font-family="Times,serif" font-size="14.00">gini = 0.462</text>
<text text-anchor="middle" x="2075" y="-37.8" font-family="Times,serif" font-size="14.00">samples = 24</text>
<text text-anchor="middle" x="2075" y="-22.8" font-family="Times,serif" font-size="14.00">value = [31.376, 17.787]</text>
<text text-anchor="middle" x="2075" y="-7.8" font-family="Times,serif" font-size="14.00">class = Non&#45;obstructive</text>
</g>
<!-- 24&#45;&gt;25 -->
<g id="edge25" class="edge">
<title>24&#45;&gt;25</title>
<path fill="none" stroke="black" d="M2075,-118.87C2075,-110.5 2075,-101.77 2075,-93.33"/>
<polygon fill="black" stroke="black" points="2078.5,-93.23 2075,-83.23 2071.5,-93.23 2078.5,-93.23"/>
</g>
<!-- 26 -->
<g id="node27" class="node">
<title>26</title>
<polygon fill="none" stroke="black" points="2366,-83 2190,-83 2190,0 2366,0 2366,-83"/>
<text text-anchor="middle" x="2278" y="-67.8" font-family="Times,serif" font-size="14.00">node #26</text>
<text text-anchor="middle" x="2278" y="-52.8" font-family="Times,serif" font-size="14.00">gini = 0.282</text>
<text text-anchor="middle" x="2278" y="-37.8" font-family="Times,serif" font-size="14.00">samples = 8</text>
<text text-anchor="middle" x="2278" y="-22.8" font-family="Times,serif" font-size="14.00">value = [2.024, 9.882]</text>
<text text-anchor="middle" x="2278" y="-7.8" font-family="Times,serif" font-size="14.00">class = Obstructive</text>
</g>
<!-- 24&#45;&gt;26 -->
<g id="edge26" class="edge">
<title>24&#45;&gt;26</title>
<path fill="none" stroke="black" d="M2153.49,-118.87C2169.77,-108.88 2186.89,-98.38 2203.05,-88.47"/>
<polygon fill="black" stroke="black" points="2205.22,-91.24 2211.91,-83.03 2201.56,-85.28 2205.22,-91.24"/>
</g>
</g>
</svg>
