<?xml version="1.0" encoding="UTF-8" standalone="no"?>
<!DOCTYPE svg PUBLIC "-//W3C//DTD SVG 1.1//EN"
 "http://www.w3.org/Graphics/SVG/1.1/DTD/svg11.dtd">
<!-- Generated by graphviz version 2.43.0 (0)
 -->
<!-- Title: Tree Pages: 1 -->
<svg width="1600pt" height="627pt"
 viewBox="0.00 0.00 1600.00 627.00" xmlns="http://www.w3.org/2000/svg" xmlns:xlink="http://www.w3.org/1999/xlink">
<g id="graph0" class="graph" transform="scale(1 1) rotate(0) translate(4 623)">
<title>Tree</title>
<polygon fill="white" stroke="transparent" points="-4,4 -4,-623 1596,-623 1596,4 -4,4"/>
<!-- 0 -->
<g id="node1" class="node">
<title>0</title>
<polygon fill="none" stroke="black" points="861.5,-619 670.5,-619 670.5,-521 861.5,-521 861.5,-619"/>
<text text-anchor="middle" x="766" y="-603.8" font-family="Times,serif" font-size="14.00">node #0</text>
<text text-anchor="middle" x="766" y="-588.8" font-family="Times,serif" font-size="14.00">FEFPrePercent &lt;= 57.5</text>
<text text-anchor="middle" x="766" y="-573.8" font-family="Times,serif" font-size="14.00">gini = 0.5</text>
<text text-anchor="middle" x="766" y="-558.8" font-family="Times,serif" font-size="14.00">samples = 213</text>
<text text-anchor="middle" x="766" y="-543.8" font-family="Times,serif" font-size="14.00">value = [167.0, 167.0]</text>
<text text-anchor="middle" x="766" y="-528.8" font-family="Times,serif" font-size="14.00">class = Non&#45;obstructive</text>
</g>
<!-- 1 -->
<g id="node2" class="node">
<title>1</title>
<polygon fill="none" stroke="black" points="671.5,-485 468.5,-485 468.5,-387 671.5,-387 671.5,-485"/>
<text text-anchor="middle" x="570" y="-469.8" font-family="Times,serif" font-size="14.00">node #1</text>
<text text-anchor="middle" x="570" y="-454.8" font-family="Times,serif" font-size="14.00">FVCPostVal &lt;= 1.175</text>
<text text-anchor="middle" x="570" y="-439.8" font-family="Times,serif" font-size="14.00">gini = 0.356</text>
<text text-anchor="middle" x="570" y="-424.8" font-family="Times,serif" font-size="14.00">samples = 119</text>
<text text-anchor="middle" x="570" y="-409.8" font-family="Times,serif" font-size="14.00">value = [43.521, 144.272]</text>
<text text-anchor="middle" x="570" y="-394.8" font-family="Times,serif" font-size="14.00">class = Obstructive</text>
</g>
<!-- 0&#45;&gt;1 -->
<g id="edge1" class="edge">
<title>0&#45;&gt;1</title>
<path fill="none" stroke="black" d="M694.69,-520.97C680.23,-511.24 664.93,-500.93 650.19,-491.01"/>
<polygon fill="black" stroke="black" points="651.84,-487.9 641.59,-485.21 647.93,-493.7 651.84,-487.9"/>
<text text-anchor="middle" x="646.38" y="-506.05" font-family="Times,serif" font-size="14.00">True</text>
</g>
<!-- 10 -->
<g id="node11" class="node">
<title>10</title>
<polygon fill="none" stroke="black" points="1079.5,-485 876.5,-485 876.5,-387 1079.5,-387 1079.5,-485"/>
<text text-anchor="middle" x="978" y="-469.8" font-family="Times,serif" font-size="14.00">node #10</text>
<text text-anchor="middle" x="978" y="-454.8" font-family="Times,serif" font-size="14.00">FVCPostPercent &lt;= 62.5</text>
<text text-anchor="middle" x="978" y="-439.8" font-family="Times,serif" font-size="14.00">gini = 0.263</text>
<text text-anchor="middle" x="978" y="-424.8" font-family="Times,serif" font-size="14.00">samples = 94</text>
<text text-anchor="middle" x="978" y="-409.8" font-family="Times,serif" font-size="14.00">value = [123.479, 22.728]</text>
<text text-anchor="middle" x="978" y="-394.8" font-family="Times,serif" font-size="14.00">class = Non&#45;obstructive</text>
</g>
<!-- 0&#45;&gt;10 -->
<g id="edge10" class="edge">
<title>0&#45;&gt;10</title>
<path fill="none" stroke="black" d="M843.14,-520.97C858.92,-511.14 875.63,-500.74 891.71,-490.73"/>
<polygon fill="black" stroke="black" points="893.93,-493.47 900.57,-485.21 890.23,-487.53 893.93,-493.47"/>
<text text-anchor="middle" x="894.9" y="-505.86" font-family="Times,serif" font-size="14.00">False</text>
</g>
<!-- 2 -->
<g id="node3" class="node">
<title>2</title>
<polygon fill="none" stroke="black" points="364,-351 176,-351 176,-253 364,-253 364,-351"/>
<text text-anchor="middle" x="270" y="-335.8" font-family="Times,serif" font-size="14.00">node #2</text>
<text text-anchor="middle" x="270" y="-320.8" font-family="Times,serif" font-size="14.00">FEFPreVal &lt;= 0.825</text>
<text text-anchor="middle" x="270" y="-305.8" font-family="Times,serif" font-size="14.00">gini = 0.441</text>
<text text-anchor="middle" x="270" y="-290.8" font-family="Times,serif" font-size="14.00">samples = 11</text>
<text text-anchor="middle" x="270" y="-275.8" font-family="Times,serif" font-size="14.00">value = [12.145, 5.929]</text>
<text text-anchor="middle" x="270" y="-260.8" font-family="Times,serif" font-size="14.00">class = Non&#45;obstructive</text>
</g>
<!-- 1&#45;&gt;2 -->
<g id="edge2" class="edge">
<title>1&#45;&gt;2</title>
<path fill="none" stroke="black" d="M468.43,-390.31C437.85,-376.86 404.27,-362.08 373.56,-348.57"/>
<polygon fill="black" stroke="black" points="374.69,-345.24 364.13,-344.42 371.87,-351.65 374.69,-345.24"/>
</g>
<!-- 5 -->
<g id="node6" class="node">
<title>5</title>
<polygon fill="none" stroke="black" points="671.5,-351 468.5,-351 468.5,-253 671.5,-253 671.5,-351"/>
<text text-anchor="middle" x="570" y="-335.8" font-family="Times,serif" font-size="14.00">node #5</text>
<text text-anchor="middle" x="570" y="-320.8" font-family="Times,serif" font-size="14.00">FEV1PrePercent &lt;= 39.0</text>
<text text-anchor="middle" x="570" y="-305.8" font-family="Times,serif" font-size="14.00">gini = 0.301</text>
<text text-anchor="middle" x="570" y="-290.8" font-family="Times,serif" font-size="14.00">samples = 108</text>
<text text-anchor="middle" x="570" y="-275.8" font-family="Times,serif" font-size="14.00">value = [31.376, 138.343]</text>
<text text-anchor="middle" x="570" y="-260.8" font-family="Times,serif" font-size="14.00">class = Obstructive</text>
</g>
<!-- 1&#45;&gt;5 -->
<g id="edge5" class="edge">
<title>1&#45;&gt;5</title>
<path fill="none" stroke="black" d="M570,-386.97C570,-378.69 570,-370 570,-361.48"/>
<polygon fill="black" stroke="black" points="573.5,-361.21 570,-351.21 566.5,-361.21 573.5,-361.21"/>
</g>
<!-- 3 -->
<g id="node4" class="node">
<title>3</title>
<polygon fill="none" stroke="black" points="158,-209.5 0,-209.5 0,-126.5 158,-126.5 158,-209.5"/>
<text text-anchor="middle" x="79" y="-194.3" font-family="Times,serif" font-size="14.00">node #3</text>
<text text-anchor="middle" x="79" y="-179.3" font-family="Times,serif" font-size="14.00">gini = 0.0</text>
<text text-anchor="middle" x="79" y="-164.3" font-family="Times,serif" font-size="14.00">samples = 4</text>
<text text-anchor="middle" x="79" y="-149.3" font-family="Times,serif" font-size="14.00">value = [0.0, 5.929]</text>
<text text-anchor="middle" x="79" y="-134.3" font-family="Times,serif" font-size="14.00">class = Obstructive</text>
</g>
<!-- 2&#45;&gt;3 -->
<g id="edge3" class="edge">
<title>2&#45;&gt;3</title>
<path fill="none" stroke="black" d="M200.5,-252.97C182.81,-240.75 163.83,-227.63 146.26,-215.48"/>
<polygon fill="black" stroke="black" points="147.97,-212.41 137.75,-209.6 143.99,-218.17 147.97,-212.41"/>
</g>
<!-- 4 -->
<g id="node5" class="node">
<title>4</title>
<polygon fill="none" stroke="black" points="364,-209.5 176,-209.5 176,-126.5 364,-126.5 364,-209.5"/>
<text text-anchor="middle" x="270" y="-194.3" font-family="Times,serif" font-size="14.00">node #4</text>
<text text-anchor="middle" x="270" y="-179.3" font-family="Times,serif" font-size="14.00">gini = &#45;0.0</text>
<text text-anchor="middle" x="270" y="-164.3" font-family="Times,serif" font-size="14.00">samples = 7</text>
<text text-anchor="middle" x="270" y="-149.3" font-family="Times,serif" font-size="14.00">value = [12.145, 0.0]</text>
<text text-anchor="middle" x="270" y="-134.3" font-family="Times,serif" font-size="14.00">class = Non&#45;obstructive</text>
</g>
<!-- 2&#45;&gt;4 -->
<g id="edge4" class="edge">
<title>2&#45;&gt;4</title>
<path fill="none" stroke="black" d="M270,-252.97C270,-242.25 270,-230.84 270,-219.99"/>
<polygon fill="black" stroke="black" points="273.5,-219.82 270,-209.82 266.5,-219.82 273.5,-219.82"/>
</g>
<!-- 6 -->
<g id="node7" class="node">
<title>6</title>
<polygon fill="none" stroke="black" points="549.5,-209.5 382.5,-209.5 382.5,-126.5 549.5,-126.5 549.5,-209.5"/>
<text text-anchor="middle" x="466" y="-194.3" font-family="Times,serif" font-size="14.00">node #6</text>
<text text-anchor="middle" x="466" y="-179.3" font-family="Times,serif" font-size="14.00">gini = 0.0</text>
<text text-anchor="middle" x="466" y="-164.3" font-family="Times,serif" font-size="14.00">samples = 34</text>
<text text-anchor="middle" x="466" y="-149.3" font-family="Times,serif" font-size="14.00">value = [0.0, 55.337]</text>
<text text-anchor="middle" x="466" y="-134.3" font-family="Times,serif" font-size="14.00">class = Obstructive</text>
</g>
<!-- 5&#45;&gt;6 -->
<g id="edge6" class="edge">
<title>5&#45;&gt;6</title>
<path fill="none" stroke="black" d="M532.16,-252.97C523.19,-241.58 513.6,-229.42 504.6,-217.99"/>
<polygon fill="black" stroke="black" points="507.1,-215.51 498.16,-209.82 501.6,-219.84 507.1,-215.51"/>
</g>
<!-- 7 -->
<g id="node8" class="node">
<title>7</title>
<polygon fill="none" stroke="black" points="764.5,-217 567.5,-217 567.5,-119 764.5,-119 764.5,-217"/>
<text text-anchor="middle" x="666" y="-201.8" font-family="Times,serif" font-size="14.00">node #7</text>
<text text-anchor="middle" x="666" y="-186.8" font-family="Times,serif" font-size="14.00">FVCPostPercent &lt;= 61.5</text>
<text text-anchor="middle" x="666" y="-171.8" font-family="Times,serif" font-size="14.00">gini = 0.398</text>
<text text-anchor="middle" x="666" y="-156.8" font-family="Times,serif" font-size="14.00">samples = 74</text>
<text text-anchor="middle" x="666" y="-141.8" font-family="Times,serif" font-size="14.00">value = [31.376, 83.006]</text>
<text text-anchor="middle" x="666" y="-126.8" font-family="Times,serif" font-size="14.00">class = Obstructive</text>
</g>
<!-- 5&#45;&gt;7 -->
<g id="edge7" class="edge">
<title>5&#45;&gt;7</title>
<path fill="none" stroke="black" d="M604.93,-252.97C611.42,-244.05 618.24,-234.66 624.89,-225.52"/>
<polygon fill="black" stroke="black" points="627.88,-227.36 630.94,-217.21 622.22,-223.24 627.88,-227.36"/>
</g>
<!-- 8 -->
<g id="node9" class="node">
<title>8</title>
<polygon fill="none" stroke="black" points="580,-83 392,-83 392,0 580,0 580,-83"/>
<text text-anchor="middle" x="486" y="-67.8" font-family="Times,serif" font-size="14.00">node #8</text>
<text text-anchor="middle" x="486" y="-52.8" font-family="Times,serif" font-size="14.00">gini = 0.185</text>
<text text-anchor="middle" x="486" y="-37.8" font-family="Times,serif" font-size="14.00">samples = 11</text>
<text text-anchor="middle" x="486" y="-22.8" font-family="Times,serif" font-size="14.00">value = [17.206, 1.976]</text>
<text text-anchor="middle" x="486" y="-7.8" font-family="Times,serif" font-size="14.00">class = Non&#45;obstructive</text>
</g>
<!-- 7&#45;&gt;8 -->
<g id="edge8" class="edge">
<title>7&#45;&gt;8</title>
<path fill="none" stroke="black" d="M596.41,-118.87C582.1,-108.97 567.07,-98.57 552.86,-88.74"/>
<polygon fill="black" stroke="black" points="554.82,-85.84 544.6,-83.03 550.83,-91.6 554.82,-85.84"/>
</g>
<!-- 9 -->
<g id="node10" class="node">
<title>9</title>
<polygon fill="none" stroke="black" points="774,-83 598,-83 598,0 774,0 774,-83"/>
<text text-anchor="middle" x="686" y="-67.8" font-family="Times,serif" font-size="14.00">node #9</text>
<text text-anchor="middle" x="686" y="-52.8" font-family="Times,serif" font-size="14.00">gini = 0.253</text>
<text text-anchor="middle" x="686" y="-37.8" font-family="Times,serif" font-size="14.00">samples = 63</text>
<text text-anchor="middle" x="686" y="-22.8" font-family="Times,serif" font-size="14.00">value = [14.17, 81.03]</text>
<text text-anchor="middle" x="686" y="-7.8" font-family="Times,serif" font-size="14.00">class = Obstructive</text>
</g>
<!-- 7&#45;&gt;9 -->
<g id="edge9" class="edge">
<title>7&#45;&gt;9</title>
<path fill="none" stroke="black" d="M673.73,-118.87C675.08,-110.5 676.48,-101.77 677.83,-93.33"/>
<polygon fill="black" stroke="black" points="681.33,-93.66 679.46,-83.23 674.42,-92.55 681.33,-93.66"/>
</g>
<!-- 11 -->
<g id="node12" class="node">
<title>11</title>
<polygon fill="none" stroke="black" points="1072,-351 884,-351 884,-253 1072,-253 1072,-351"/>
<text text-anchor="middle" x="978" y="-335.8" font-family="Times,serif" font-size="14.00">node #11</text>
<text text-anchor="middle" x="978" y="-320.8" font-family="Times,serif" font-size="14.00">FEV1PostVal &lt;= 2.01</text>
<text text-anchor="middle" x="978" y="-305.8" font-family="Times,serif" font-size="14.00">gini = 0.028</text>
<text text-anchor="middle" x="978" y="-290.8" font-family="Times,serif" font-size="14.00">samples = 42</text>
<text text-anchor="middle" x="978" y="-275.8" font-family="Times,serif" font-size="14.00">value = [68.824, 0.988]</text>
<text text-anchor="middle" x="978" y="-260.8" font-family="Times,serif" font-size="14.00">class = Non&#45;obstructive</text>
</g>
<!-- 10&#45;&gt;11 -->
<g id="edge11" class="edge">
<title>10&#45;&gt;11</title>
<path fill="none" stroke="black" d="M978,-386.97C978,-378.69 978,-370 978,-361.48"/>
<polygon fill="black" stroke="black" points="981.5,-361.21 978,-351.21 974.5,-361.21 981.5,-361.21"/>
</g>
<!-- 16 -->
<g id="node17" class="node">
<title>16</title>
<polygon fill="none" stroke="black" points="1392,-351 1192,-351 1192,-253 1392,-253 1392,-351"/>
<text text-anchor="middle" x="1292" y="-335.8" font-family="Times,serif" font-size="14.00">node #16</text>
<text text-anchor="middle" x="1292" y="-320.8" font-family="Times,serif" font-size="14.00">FEV1PrePercent &lt;= 81.5</text>
<text text-anchor="middle" x="1292" y="-305.8" font-family="Times,serif" font-size="14.00">gini = 0.407</text>
<text text-anchor="middle" x="1292" y="-290.8" font-family="Times,serif" font-size="14.00">samples = 52</text>
<text text-anchor="middle" x="1292" y="-275.8" font-family="Times,serif" font-size="14.00">value = [54.655, 21.74]</text>
<text text-anchor="middle" x="1292" y="-260.8" font-family="Times,serif" font-size="14.00">class = Non&#45;obstructive</text>
</g>
<!-- 10&#45;&gt;16 -->
<g id="edge16" class="edge">
<title>10&#45;&gt;16</title>
<path fill="none" stroke="black" d="M1079.51,-392.33C1112.43,-378.49 1149.09,-363.08 1182.56,-349.01"/>
<polygon fill="black" stroke="black" points="1184.05,-352.18 1191.91,-345.08 1181.33,-345.73 1184.05,-352.18"/>
</g>
<!-- 12 -->
<g id="node13" class="node">
<title>12</title>
<polygon fill="none" stroke="black" points="971,-209.5 783,-209.5 783,-126.5 971,-126.5 971,-209.5"/>
<text text-anchor="middle" x="877" y="-194.3" font-family="Times,serif" font-size="14.00">node #12</text>
<text text-anchor="middle" x="877" y="-179.3" font-family="Times,serif" font-size="14.00">gini = 0.0</text>
<text text-anchor="middle" x="877" y="-164.3" font-family="Times,serif" font-size="14.00">samples = 39</text>
<text text-anchor="middle" x="877" y="-149.3" font-family="Times,serif" font-size="14.00">value = [60.727, 0.0]</text>
<text text-anchor="middle" x="877" y="-134.3" font-family="Times,serif" font-size="14.00">class = Non&#45;obstructive</text>
</g>
<!-- 11&#45;&gt;12 -->
<g id="edge12" class="edge">
<title>11&#45;&gt;12</title>
<path fill="none" stroke="black" d="M941.25,-252.97C932.54,-241.58 923.23,-229.42 914.48,-217.99"/>
<polygon fill="black" stroke="black" points="917.09,-215.63 908.23,-209.82 911.53,-219.89 917.09,-215.63"/>
</g>
<!-- 13 -->
<g id="node14" class="node">
<title>13</title>
<polygon fill="none" stroke="black" points="1177,-217 989,-217 989,-119 1177,-119 1177,-217"/>
<text text-anchor="middle" x="1083" y="-201.8" font-family="Times,serif" font-size="14.00">node #13</text>
<text text-anchor="middle" x="1083" y="-186.8" font-family="Times,serif" font-size="14.00">FVCPostVal &lt;= 2.545</text>
<text text-anchor="middle" x="1083" y="-171.8" font-family="Times,serif" font-size="14.00">gini = 0.194</text>
<text text-anchor="middle" x="1083" y="-156.8" font-family="Times,serif" font-size="14.00">samples = 3</text>
<text text-anchor="middle" x="1083" y="-141.8" font-family="Times,serif" font-size="14.00">value = [8.097, 0.988]</text>
<text text-anchor="middle" x="1083" y="-126.8" font-family="Times,serif" font-size="14.00">class = Non&#45;obstructive</text>
</g>
<!-- 11&#45;&gt;13 -->
<g id="edge13" class="edge">
<title>11&#45;&gt;13</title>
<path fill="none" stroke="black" d="M1016.2,-252.97C1023.37,-243.96 1030.92,-234.47 1038.26,-225.24"/>
<polygon fill="black" stroke="black" points="1041.16,-227.22 1044.65,-217.21 1035.68,-222.86 1041.16,-227.22"/>
</g>
<!-- 14 -->
<g id="node15" class="node">
<title>14</title>
<polygon fill="none" stroke="black" points="971,-83 813,-83 813,0 971,0 971,-83"/>
<text text-anchor="middle" x="892" y="-67.8" font-family="Times,serif" font-size="14.00">node #14</text>
<text text-anchor="middle" x="892" y="-52.8" font-family="Times,serif" font-size="14.00">gini = 0.0</text>
<text text-anchor="middle" x="892" y="-37.8" font-family="Times,serif" font-size="14.00">samples = 1</text>
<text text-anchor="middle" x="892" y="-22.8" font-family="Times,serif" font-size="14.00">value = [0.0, 0.988]</text>
<text text-anchor="middle" x="892" y="-7.8" font-family="Times,serif" font-size="14.00">class = Obstructive</text>
</g>
<!-- 13&#45;&gt;14 -->
<g id="edge14" class="edge">
<title>13&#45;&gt;14</title>
<path fill="none" stroke="black" d="M1009.15,-118.87C993.97,-108.97 978.02,-98.57 962.95,-88.74"/>
<polygon fill="black" stroke="black" points="964.47,-85.56 954.18,-83.03 960.65,-91.43 964.47,-85.56"/>
</g>
<!-- 15 -->
<g id="node16" class="node">
<title>15</title>
<polygon fill="none" stroke="black" points="1177,-83 989,-83 989,0 1177,0 1177,-83"/>
<text text-anchor="middle" x="1083" y="-67.8" font-family="Times,serif" font-size="14.00">node #15</text>
<text text-anchor="middle" x="1083" y="-52.8" font-family="Times,serif" font-size="14.00">gini = 0.0</text>
<text text-anchor="middle" x="1083" y="-37.8" font-family="Times,serif" font-size="14.00">samples = 2</text>
<text text-anchor="middle" x="1083" y="-22.8" font-family="Times,serif" font-size="14.00">value = [8.097, 0.0]</text>
<text text-anchor="middle" x="1083" y="-7.8" font-family="Times,serif" font-size="14.00">class = Non&#45;obstructive</text>
</g>
<!-- 13&#45;&gt;15 -->
<g id="edge15" class="edge">
<title>13&#45;&gt;15</title>
<path fill="none" stroke="black" d="M1083,-118.87C1083,-110.5 1083,-101.77 1083,-93.33"/>
<polygon fill="black" stroke="black" points="1086.5,-93.23 1083,-83.23 1079.5,-93.23 1086.5,-93.23"/>
</g>
<!-- 17 -->
<g id="node18" class="node">
<title>17</title>
<polygon fill="none" stroke="black" points="1386,-217 1198,-217 1198,-119 1386,-119 1386,-217"/>
<text text-anchor="middle" x="1292" y="-201.8" font-family="Times,serif" font-size="14.00">node #17</text>
<text text-anchor="middle" x="1292" y="-186.8" font-family="Times,serif" font-size="14.00">FEV1PreVal &lt;= 2.77</text>
<text text-anchor="middle" x="1292" y="-171.8" font-family="Times,serif" font-size="14.00">gini = 0.491</text>
<text text-anchor="middle" x="1292" y="-156.8" font-family="Times,serif" font-size="14.00">samples = 35</text>
<text text-anchor="middle" x="1292" y="-141.8" font-family="Times,serif" font-size="14.00">value = [28.339, 21.74]</text>
<text text-anchor="middle" x="1292" y="-126.8" font-family="Times,serif" font-size="14.00">class = Non&#45;obstructive</text>
</g>
<!-- 16&#45;&gt;17 -->
<g id="edge17" class="edge">
<title>16&#45;&gt;17</title>
<path fill="none" stroke="black" d="M1292,-252.97C1292,-244.69 1292,-236 1292,-227.48"/>
<polygon fill="black" stroke="black" points="1295.5,-227.21 1292,-217.21 1288.5,-227.21 1295.5,-227.21"/>
</g>
<!-- 20 -->
<g id="node21" class="node">
<title>20</title>
<polygon fill="none" stroke="black" points="1592,-209.5 1404,-209.5 1404,-126.5 1592,-126.5 1592,-209.5"/>
<text text-anchor="middle" x="1498" y="-194.3" font-family="Times,serif" font-size="14.00">node #20</text>
<text text-anchor="middle" x="1498" y="-179.3" font-family="Times,serif" font-size="14.00">gini = 0.0</text>
<text text-anchor="middle" x="1498" y="-164.3" font-family="Times,serif" font-size="14.00">samples = 17</text>
<text text-anchor="middle" x="1498" y="-149.3" font-family="Times,serif" font-size="14.00">value = [26.315, 0.0]</text>
<text text-anchor="middle" x="1498" y="-134.3" font-family="Times,serif" font-size="14.00">class = Non&#45;obstructive</text>
</g>
<!-- 16&#45;&gt;20 -->
<g id="edge20" class="edge">
<title>16&#45;&gt;20</title>
<path fill="none" stroke="black" d="M1366.95,-252.97C1386.21,-240.63 1406.88,-227.39 1425.98,-215.15"/>
<polygon fill="black" stroke="black" points="1428.1,-217.95 1434.63,-209.6 1424.33,-212.05 1428.1,-217.95"/>
</g>
<!-- 18 -->
<g id="node19" class="node">
<title>18</title>
<polygon fill="none" stroke="black" points="1389,-83 1195,-83 1195,0 1389,0 1389,-83"/>
<text text-anchor="middle" x="1292" y="-67.8" font-family="Times,serif" font-size="14.00">node #18</text>
<text text-anchor="middle" x="1292" y="-52.8" font-family="Times,serif" font-size="14.00">gini = 0.46</text>
<text text-anchor="middle" x="1292" y="-37.8" font-family="Times,serif" font-size="14.00">samples = 32</text>
<text text-anchor="middle" x="1292" y="-22.8" font-family="Times,serif" font-size="14.00">value = [28.339, 15.811]</text>
<text text-anchor="middle" x="1292" y="-7.8" font-family="Times,serif" font-size="14.00">class = Non&#45;obstructive</text>
</g>
<!-- 17&#45;&gt;18 -->
<g id="edge18" class="edge">
<title>17&#45;&gt;18</title>
<path fill="none" stroke="black" d="M1292,-118.87C1292,-110.5 1292,-101.77 1292,-93.33"/>
<polygon fill="black" stroke="black" points="1295.5,-93.23 1292,-83.23 1288.5,-93.23 1295.5,-93.23"/>
</g>
<!-- 19 -->
<g id="node20" class="node">
<title>19</title>
<polygon fill="none" stroke="black" points="1565,-83 1407,-83 1407,0 1565,0 1565,-83"/>
<text text-anchor="middle" x="1486" y="-67.8" font-family="Times,serif" font-size="14.00">node #19</text>
<text text-anchor="middle" x="1486" y="-52.8" font-family="Times,serif" font-size="14.00">gini = &#45;0.0</text>
<text text-anchor="middle" x="1486" y="-37.8" font-family="Times,serif" font-size="14.00">samples = 3</text>
<text text-anchor="middle" x="1486" y="-22.8" font-family="Times,serif" font-size="14.00">value = [0.0, 5.929]</text>
<text text-anchor="middle" x="1486" y="-7.8" font-family="Times,serif" font-size="14.00">class = Obstructive</text>
</g>
<!-- 17&#45;&gt;19 -->
<g id="edge19" class="edge">
<title>17&#45;&gt;19</title>
<path fill="none" stroke="black" d="M1367.01,-118.87C1382.57,-108.88 1398.93,-98.38 1414.37,-88.47"/>
<polygon fill="black" stroke="black" points="1416.32,-91.38 1422.84,-83.03 1412.53,-85.49 1416.32,-91.38"/>
</g>
</g>
</svg>
