<?xml version="1.0" encoding="UTF-8" standalone="no"?>
<!DOCTYPE svg PUBLIC "-//W3C//DTD SVG 1.1//EN"
 "http://www.w3.org/Graphics/SVG/1.1/DTD/svg11.dtd">
<!-- Generated by graphviz version 2.43.0 (0)
 -->
<!-- Title: Tree Pages: 1 -->
<svg width="2601pt" height="627pt"
 viewBox="0.00 0.00 2601.00 627.00" xmlns="http://www.w3.org/2000/svg" xmlns:xlink="http://www.w3.org/1999/xlink">
<g id="graph0" class="graph" transform="scale(1 1) rotate(0) translate(4 623)">
<title>Tree</title>
<polygon fill="white" stroke="transparent" points="-4,4 -4,-623 2597,-623 2597,4 -4,4"/>
<!-- 0 -->
<g id="node1" class="node">
<title>0</title>
<polygon fill="none" stroke="black" points="1712.5,-619 1515.5,-619 1515.5,-521 1712.5,-521 1712.5,-619"/>
<text text-anchor="middle" x="1614" y="-603.8" font-family="Times,serif" font-size="14.00">node #0</text>
<text text-anchor="middle" x="1614" y="-588.8" font-family="Times,serif" font-size="14.00">FEFPostPercent &lt;= 73.5</text>
<text text-anchor="middle" x="1614" y="-573.8" font-family="Times,serif" font-size="14.00">gini = 0.5</text>
<text text-anchor="middle" x="1614" y="-558.8" font-family="Times,serif" font-size="14.00">samples = 221</text>
<text text-anchor="middle" x="1614" y="-543.8" font-family="Times,serif" font-size="14.00">value = [167.0, 167.0]</text>
<text text-anchor="middle" x="1614" y="-528.8" font-family="Times,serif" font-size="14.00">class = Obstructive</text>
</g>
<!-- 1 -->
<g id="node2" class="node">
<title>1</title>
<polygon fill="none" stroke="black" points="1304.5,-485 1101.5,-485 1101.5,-387 1304.5,-387 1304.5,-485"/>
<text text-anchor="middle" x="1203" y="-469.8" font-family="Times,serif" font-size="14.00">node #1</text>
<text text-anchor="middle" x="1203" y="-454.8" font-family="Times,serif" font-size="14.00">FEFPostVal &lt;= 0.975</text>
<text text-anchor="middle" x="1203" y="-439.8" font-family="Times,serif" font-size="14.00">gini = 0.436</text>
<text text-anchor="middle" x="1203" y="-424.8" font-family="Times,serif" font-size="14.00">samples = 153</text>
<text text-anchor="middle" x="1203" y="-409.8" font-family="Times,serif" font-size="14.00">value = [74.222, 157.291]</text>
<text text-anchor="middle" x="1203" y="-394.8" font-family="Times,serif" font-size="14.00">class = Obstructive</text>
</g>
<!-- 0&#45;&gt;1 -->
<g id="edge1" class="edge">
<title>0&#45;&gt;1</title>
<path fill="none" stroke="black" d="M1515.29,-537.3C1454.75,-517.85 1377.08,-492.91 1314.35,-472.76"/>
<polygon fill="black" stroke="black" points="1315.4,-469.42 1304.81,-469.7 1313.26,-476.09 1315.4,-469.42"/>
<text text-anchor="middle" x="1316.23" y="-488.23" font-family="Times,serif" font-size="14.00">True</text>
</g>
<!-- 16 -->
<g id="node17" class="node">
<title>16</title>
<polygon fill="none" stroke="black" points="2098,-485 1910,-485 1910,-387 2098,-387 2098,-485"/>
<text text-anchor="middle" x="2004" y="-469.8" font-family="Times,serif" font-size="14.00">node #16</text>
<text text-anchor="middle" x="2004" y="-454.8" font-family="Times,serif" font-size="14.00">FEV1PostVal &lt;= 3.025</text>
<text text-anchor="middle" x="2004" y="-439.8" font-family="Times,serif" font-size="14.00">gini = 0.172</text>
<text text-anchor="middle" x="2004" y="-424.8" font-family="Times,serif" font-size="14.00">samples = 68</text>
<text text-anchor="middle" x="2004" y="-409.8" font-family="Times,serif" font-size="14.00">value = [92.778, 9.709]</text>
<text text-anchor="middle" x="2004" y="-394.8" font-family="Times,serif" font-size="14.00">class = Non&#45;obstructive</text>
</g>
<!-- 0&#45;&gt;16 -->
<g id="edge16" class="edge">
<title>0&#45;&gt;16</title>
<path fill="none" stroke="black" d="M1712.67,-535.61C1769.95,-516.22 1842.06,-491.81 1900.2,-472.13"/>
<polygon fill="black" stroke="black" points="1901.42,-475.41 1909.77,-468.89 1899.18,-468.78 1901.42,-475.41"/>
<text text-anchor="middle" x="1898.7" y="-487.6" font-family="Times,serif" font-size="14.00">False</text>
</g>
<!-- 2 -->
<g id="node3" class="node">
<title>2</title>
<polygon fill="none" stroke="black" points="691.5,-351 494.5,-351 494.5,-253 691.5,-253 691.5,-351"/>
<text text-anchor="middle" x="593" y="-335.8" font-family="Times,serif" font-size="14.00">node #2</text>
<text text-anchor="middle" x="593" y="-320.8" font-family="Times,serif" font-size="14.00">FVCPostPercent &lt;= 40.5</text>
<text text-anchor="middle" x="593" y="-305.8" font-family="Times,serif" font-size="14.00">gini = 0.168</text>
<text text-anchor="middle" x="593" y="-290.8" font-family="Times,serif" font-size="14.00">samples = 61</text>
<text text-anchor="middle" x="593" y="-275.8" font-family="Times,serif" font-size="14.00">value = [9.278, 91.267]</text>
<text text-anchor="middle" x="593" y="-260.8" font-family="Times,serif" font-size="14.00">class = Obstructive</text>
</g>
<!-- 1&#45;&gt;2 -->
<g id="edge2" class="edge">
<title>1&#45;&gt;2</title>
<path fill="none" stroke="black" d="M1101.24,-412.98C990.68,-389.06 814.74,-350.98 701.58,-326.5"/>
<polygon fill="black" stroke="black" points="702.02,-323.01 691.5,-324.32 700.54,-329.85 702.02,-323.01"/>
</g>
<!-- 9 -->
<g id="node10" class="node">
<title>9</title>
<polygon fill="none" stroke="black" points="1306,-351 1100,-351 1100,-253 1306,-253 1306,-351"/>
<text text-anchor="middle" x="1203" y="-335.8" font-family="Times,serif" font-size="14.00">node #9</text>
<text text-anchor="middle" x="1203" y="-320.8" font-family="Times,serif" font-size="14.00">FEV1PostPercent &lt;= 69.0</text>
<text text-anchor="middle" x="1203" y="-305.8" font-family="Times,serif" font-size="14.00">gini = 0.5</text>
<text text-anchor="middle" x="1203" y="-290.8" font-family="Times,serif" font-size="14.00">samples = 92</text>
<text text-anchor="middle" x="1203" y="-275.8" font-family="Times,serif" font-size="14.00">value = [64.944, 66.023]</text>
<text text-anchor="middle" x="1203" y="-260.8" font-family="Times,serif" font-size="14.00">class = Obstructive</text>
</g>
<!-- 1&#45;&gt;9 -->
<g id="edge9" class="edge">
<title>1&#45;&gt;9</title>
<path fill="none" stroke="black" d="M1203,-386.97C1203,-378.69 1203,-370 1203,-361.48"/>
<polygon fill="black" stroke="black" points="1206.5,-361.21 1203,-351.21 1199.5,-361.21 1206.5,-361.21"/>
</g>
<!-- 3 -->
<g id="node4" class="node">
<title>3</title>
<polygon fill="none" stroke="black" points="388,-217 188,-217 188,-119 388,-119 388,-217"/>
<text text-anchor="middle" x="288" y="-201.8" font-family="Times,serif" font-size="14.00">node #3</text>
<text text-anchor="middle" x="288" y="-186.8" font-family="Times,serif" font-size="14.00">FEV1PrePercent &lt;= 28.5</text>
<text text-anchor="middle" x="288" y="-171.8" font-family="Times,serif" font-size="14.00">gini = 0.464</text>
<text text-anchor="middle" x="288" y="-156.8" font-family="Times,serif" font-size="14.00">samples = 9</text>
<text text-anchor="middle" x="288" y="-141.8" font-family="Times,serif" font-size="14.00">value = [6.185, 10.68]</text>
<text text-anchor="middle" x="288" y="-126.8" font-family="Times,serif" font-size="14.00">class = Obstructive</text>
</g>
<!-- 2&#45;&gt;3 -->
<g id="edge3" class="edge">
<title>2&#45;&gt;3</title>
<path fill="none" stroke="black" d="M494.4,-258.33C463.43,-244.92 429.06,-230.05 397.39,-216.34"/>
<polygon fill="black" stroke="black" points="398.66,-213.08 388.09,-212.32 395.88,-219.5 398.66,-213.08"/>
</g>
<!-- 6 -->
<g id="node7" class="node">
<title>6</title>
<polygon fill="none" stroke="black" points="685.5,-217 500.5,-217 500.5,-119 685.5,-119 685.5,-217"/>
<text text-anchor="middle" x="593" y="-201.8" font-family="Times,serif" font-size="14.00">node #6</text>
<text text-anchor="middle" x="593" y="-186.8" font-family="Times,serif" font-size="14.00">FVCPreVal &lt;= 1.045</text>
<text text-anchor="middle" x="593" y="-171.8" font-family="Times,serif" font-size="14.00">gini = 0.071</text>
<text text-anchor="middle" x="593" y="-156.8" font-family="Times,serif" font-size="14.00">samples = 52</text>
<text text-anchor="middle" x="593" y="-141.8" font-family="Times,serif" font-size="14.00">value = [3.093, 80.587]</text>
<text text-anchor="middle" x="593" y="-126.8" font-family="Times,serif" font-size="14.00">class = Obstructive</text>
</g>
<!-- 2&#45;&gt;6 -->
<g id="edge6" class="edge">
<title>2&#45;&gt;6</title>
<path fill="none" stroke="black" d="M593,-252.97C593,-244.69 593,-236 593,-227.48"/>
<polygon fill="black" stroke="black" points="596.5,-227.21 593,-217.21 589.5,-227.21 596.5,-227.21"/>
</g>
<!-- 4 -->
<g id="node5" class="node">
<title>4</title>
<polygon fill="none" stroke="black" points="176,-83 0,-83 0,0 176,0 176,-83"/>
<text text-anchor="middle" x="88" y="-67.8" font-family="Times,serif" font-size="14.00">node #4</text>
<text text-anchor="middle" x="88" y="-52.8" font-family="Times,serif" font-size="14.00">gini = 0.161</text>
<text text-anchor="middle" x="88" y="-37.8" font-family="Times,serif" font-size="14.00">samples = 6</text>
<text text-anchor="middle" x="88" y="-22.8" font-family="Times,serif" font-size="14.00">value = [1.031, 10.68]</text>
<text text-anchor="middle" x="88" y="-7.8" font-family="Times,serif" font-size="14.00">class = Obstructive</text>
</g>
<!-- 3&#45;&gt;4 -->
<g id="edge4" class="edge">
<title>3&#45;&gt;4</title>
<path fill="none" stroke="black" d="M210.67,-118.87C194.63,-108.88 177.76,-98.38 161.85,-88.47"/>
<polygon fill="black" stroke="black" points="163.45,-85.35 153.11,-83.03 159.75,-91.29 163.45,-85.35"/>
</g>
<!-- 5 -->
<g id="node6" class="node">
<title>5</title>
<polygon fill="none" stroke="black" points="382,-83 194,-83 194,0 382,0 382,-83"/>
<text text-anchor="middle" x="288" y="-67.8" font-family="Times,serif" font-size="14.00">node #5</text>
<text text-anchor="middle" x="288" y="-52.8" font-family="Times,serif" font-size="14.00">gini = 0.0</text>
<text text-anchor="middle" x="288" y="-37.8" font-family="Times,serif" font-size="14.00">samples = 3</text>
<text text-anchor="middle" x="288" y="-22.8" font-family="Times,serif" font-size="14.00">value = [5.154, 0.0]</text>
<text text-anchor="middle" x="288" y="-7.8" font-family="Times,serif" font-size="14.00">class = Non&#45;obstructive</text>
</g>
<!-- 3&#45;&gt;5 -->
<g id="edge5" class="edge">
<title>3&#45;&gt;5</title>
<path fill="none" stroke="black" d="M288,-118.87C288,-110.5 288,-101.77 288,-93.33"/>
<polygon fill="black" stroke="black" points="291.5,-93.23 288,-83.23 284.5,-93.23 291.5,-93.23"/>
</g>
<!-- 7 -->
<g id="node8" class="node">
<title>7</title>
<polygon fill="none" stroke="black" points="576,-83 400,-83 400,0 576,0 576,-83"/>
<text text-anchor="middle" x="488" y="-67.8" font-family="Times,serif" font-size="14.00">node #7</text>
<text text-anchor="middle" x="488" y="-52.8" font-family="Times,serif" font-size="14.00">gini = 0.453</text>
<text text-anchor="middle" x="488" y="-37.8" font-family="Times,serif" font-size="14.00">samples = 3</text>
<text text-anchor="middle" x="488" y="-22.8" font-family="Times,serif" font-size="14.00">value = [1.031, 1.942]</text>
<text text-anchor="middle" x="488" y="-7.8" font-family="Times,serif" font-size="14.00">class = Obstructive</text>
</g>
<!-- 6&#45;&gt;7 -->
<g id="edge7" class="edge">
<title>6&#45;&gt;7</title>
<path fill="none" stroke="black" d="M552.4,-118.87C544.73,-109.76 536.69,-100.23 529,-91.12"/>
<polygon fill="black" stroke="black" points="531.47,-88.62 522.35,-83.23 526.12,-93.13 531.47,-88.62"/>
</g>
<!-- 8 -->
<g id="node9" class="node">
<title>8</title>
<polygon fill="none" stroke="black" points="778.5,-83 593.5,-83 593.5,0 778.5,0 778.5,-83"/>
<text text-anchor="middle" x="686" y="-67.8" font-family="Times,serif" font-size="14.00">node #8</text>
<text text-anchor="middle" x="686" y="-52.8" font-family="Times,serif" font-size="14.00">gini = 0.05</text>
<text text-anchor="middle" x="686" y="-37.8" font-family="Times,serif" font-size="14.00">samples = 49</text>
<text text-anchor="middle" x="686" y="-22.8" font-family="Times,serif" font-size="14.00">value = [2.062, 78.645]</text>
<text text-anchor="middle" x="686" y="-7.8" font-family="Times,serif" font-size="14.00">class = Obstructive</text>
</g>
<!-- 6&#45;&gt;8 -->
<g id="edge8" class="edge">
<title>6&#45;&gt;8</title>
<path fill="none" stroke="black" d="M628.96,-118.87C635.69,-109.85 642.73,-100.43 649.48,-91.39"/>
<polygon fill="black" stroke="black" points="652.39,-93.34 655.57,-83.23 646.79,-89.15 652.39,-93.34"/>
</g>
<!-- 10 -->
<g id="node11" class="node">
<title>10</title>
<polygon fill="none" stroke="black" points="1202,-217 978,-217 978,-119 1202,-119 1202,-217"/>
<text text-anchor="middle" x="1090" y="-201.8" font-family="Times,serif" font-size="14.00">node #10</text>
<text text-anchor="middle" x="1090" y="-186.8" font-family="Times,serif" font-size="14.00">FEV1PostPercent &lt;= 58.836</text>
<text text-anchor="middle" x="1090" y="-171.8" font-family="Times,serif" font-size="14.00">gini = 0.345</text>
<text text-anchor="middle" x="1090" y="-156.8" font-family="Times,serif" font-size="14.00">samples = 47</text>
<text text-anchor="middle" x="1090" y="-141.8" font-family="Times,serif" font-size="14.00">value = [54.636, 15.535]</text>
<text text-anchor="middle" x="1090" y="-126.8" font-family="Times,serif" font-size="14.00">class = Non&#45;obstructive</text>
</g>
<!-- 9&#45;&gt;10 -->
<g id="edge10" class="edge">
<title>9&#45;&gt;10</title>
<path fill="none" stroke="black" d="M1161.88,-252.97C1154.1,-243.87 1145.88,-234.28 1137.91,-224.96"/>
<polygon fill="black" stroke="black" points="1140.44,-222.53 1131.27,-217.21 1135.12,-227.09 1140.44,-222.53"/>
</g>
<!-- 13 -->
<g id="node14" class="node">
<title>13</title>
<polygon fill="none" stroke="black" points="1414,-217 1220,-217 1220,-119 1414,-119 1414,-217"/>
<text text-anchor="middle" x="1317" y="-201.8" font-family="Times,serif" font-size="14.00">node #13</text>
<text text-anchor="middle" x="1317" y="-186.8" font-family="Times,serif" font-size="14.00">FEV1PreVal &lt;= 3.26</text>
<text text-anchor="middle" x="1317" y="-171.8" font-family="Times,serif" font-size="14.00">gini = 0.282</text>
<text text-anchor="middle" x="1317" y="-156.8" font-family="Times,serif" font-size="14.00">samples = 45</text>
<text text-anchor="middle" x="1317" y="-141.8" font-family="Times,serif" font-size="14.00">value = [10.309, 50.488]</text>
<text text-anchor="middle" x="1317" y="-126.8" font-family="Times,serif" font-size="14.00">class = Obstructive</text>
</g>
<!-- 9&#45;&gt;13 -->
<g id="edge13" class="edge">
<title>9&#45;&gt;13</title>
<path fill="none" stroke="black" d="M1244.48,-252.97C1252.34,-243.87 1260.62,-234.28 1268.67,-224.96"/>
<polygon fill="black" stroke="black" points="1271.47,-227.07 1275.36,-217.21 1266.18,-222.49 1271.47,-227.07"/>
</g>
<!-- 11 -->
<g id="node12" class="node">
<title>11</title>
<polygon fill="none" stroke="black" points="985,-83 797,-83 797,0 985,0 985,-83"/>
<text text-anchor="middle" x="891" y="-67.8" font-family="Times,serif" font-size="14.00">node #11</text>
<text text-anchor="middle" x="891" y="-52.8" font-family="Times,serif" font-size="14.00">gini = 0.168</text>
<text text-anchor="middle" x="891" y="-37.8" font-family="Times,serif" font-size="14.00">samples = 29</text>
<text text-anchor="middle" x="891" y="-22.8" font-family="Times,serif" font-size="14.00">value = [38.142, 3.884]</text>
<text text-anchor="middle" x="891" y="-7.8" font-family="Times,serif" font-size="14.00">class = Non&#45;obstructive</text>
</g>
<!-- 10&#45;&gt;11 -->
<g id="edge11" class="edge">
<title>10&#45;&gt;11</title>
<path fill="none" stroke="black" d="M1013.06,-118.87C997.1,-108.88 980.31,-98.38 964.48,-88.47"/>
<polygon fill="black" stroke="black" points="966.12,-85.37 955.79,-83.03 962.41,-91.3 966.12,-85.37"/>
</g>
<!-- 12 -->
<g id="node13" class="node">
<title>12</title>
<polygon fill="none" stroke="black" points="1197,-83 1003,-83 1003,0 1197,0 1197,-83"/>
<text text-anchor="middle" x="1100" y="-67.8" font-family="Times,serif" font-size="14.00">node #12</text>
<text text-anchor="middle" x="1100" y="-52.8" font-family="Times,serif" font-size="14.00">gini = 0.485</text>
<text text-anchor="middle" x="1100" y="-37.8" font-family="Times,serif" font-size="14.00">samples = 18</text>
<text text-anchor="middle" x="1100" y="-22.8" font-family="Times,serif" font-size="14.00">value = [16.494, 11.651]</text>
<text text-anchor="middle" x="1100" y="-7.8" font-family="Times,serif" font-size="14.00">class = Non&#45;obstructive</text>
</g>
<!-- 10&#45;&gt;12 -->
<g id="edge12" class="edge">
<title>10&#45;&gt;12</title>
<path fill="none" stroke="black" d="M1093.87,-118.87C1094.54,-110.5 1095.24,-101.77 1095.92,-93.33"/>
<polygon fill="black" stroke="black" points="1099.42,-93.48 1096.73,-83.23 1092.44,-92.92 1099.42,-93.48"/>
</g>
<!-- 14 -->
<g id="node15" class="node">
<title>14</title>
<polygon fill="none" stroke="black" points="1399.5,-83 1214.5,-83 1214.5,0 1399.5,0 1399.5,-83"/>
<text text-anchor="middle" x="1307" y="-67.8" font-family="Times,serif" font-size="14.00">node #14</text>
<text text-anchor="middle" x="1307" y="-52.8" font-family="Times,serif" font-size="14.00">gini = 0.241</text>
<text text-anchor="middle" x="1307" y="-37.8" font-family="Times,serif" font-size="14.00">samples = 43</text>
<text text-anchor="middle" x="1307" y="-22.8" font-family="Times,serif" font-size="14.00">value = [8.247, 50.488]</text>
<text text-anchor="middle" x="1307" y="-7.8" font-family="Times,serif" font-size="14.00">class = Obstructive</text>
</g>
<!-- 13&#45;&gt;14 -->
<g id="edge14" class="edge">
<title>13&#45;&gt;14</title>
<path fill="none" stroke="black" d="M1313.13,-118.87C1312.46,-110.5 1311.76,-101.77 1311.08,-93.33"/>
<polygon fill="black" stroke="black" points="1314.56,-92.92 1310.27,-83.23 1307.58,-93.48 1314.56,-92.92"/>
</g>
<!-- 15 -->
<g id="node16" class="node">
<title>15</title>
<polygon fill="none" stroke="black" points="1606,-83 1418,-83 1418,0 1606,0 1606,-83"/>
<text text-anchor="middle" x="1512" y="-67.8" font-family="Times,serif" font-size="14.00">node #15</text>
<text text-anchor="middle" x="1512" y="-52.8" font-family="Times,serif" font-size="14.00">gini = 0.0</text>
<text text-anchor="middle" x="1512" y="-37.8" font-family="Times,serif" font-size="14.00">samples = 2</text>
<text text-anchor="middle" x="1512" y="-22.8" font-family="Times,serif" font-size="14.00">value = [2.062, 0.0]</text>
<text text-anchor="middle" x="1512" y="-7.8" font-family="Times,serif" font-size="14.00">class = Non&#45;obstructive</text>
</g>
<!-- 13&#45;&gt;15 -->
<g id="edge15" class="edge">
<title>13&#45;&gt;15</title>
<path fill="none" stroke="black" d="M1392.39,-118.87C1408.04,-108.88 1424.48,-98.38 1440,-88.47"/>
<polygon fill="black" stroke="black" points="1441.97,-91.36 1448.52,-83.03 1438.2,-85.46 1441.97,-91.36"/>
</g>
<!-- 17 -->
<g id="node18" class="node">
<title>17</title>
<polygon fill="none" stroke="black" points="2099.5,-351 1908.5,-351 1908.5,-253 2099.5,-253 2099.5,-351"/>
<text text-anchor="middle" x="2004" y="-335.8" font-family="Times,serif" font-size="14.00">node #17</text>
<text text-anchor="middle" x="2004" y="-320.8" font-family="Times,serif" font-size="14.00">FVCPrePercent &lt;= 82.5</text>
<text text-anchor="middle" x="2004" y="-305.8" font-family="Times,serif" font-size="14.00">gini = 0.13</text>
<text text-anchor="middle" x="2004" y="-290.8" font-family="Times,serif" font-size="14.00">samples = 64</text>
<text text-anchor="middle" x="2004" y="-275.8" font-family="Times,serif" font-size="14.00">value = [90.716, 6.797]</text>
<text text-anchor="middle" x="2004" y="-260.8" font-family="Times,serif" font-size="14.00">class = Non&#45;obstructive</text>
</g>
<!-- 16&#45;&gt;17 -->
<g id="edge17" class="edge">
<title>16&#45;&gt;17</title>
<path fill="none" stroke="black" d="M2004,-386.97C2004,-378.69 2004,-370 2004,-361.48"/>
<polygon fill="black" stroke="black" points="2007.5,-361.21 2004,-351.21 2000.5,-361.21 2007.5,-361.21"/>
</g>
<!-- 24 -->
<g id="node25" class="node">
<title>24</title>
<polygon fill="none" stroke="black" points="2396,-351 2220,-351 2220,-253 2396,-253 2396,-351"/>
<text text-anchor="middle" x="2308" y="-335.8" font-family="Times,serif" font-size="14.00">node #24</text>
<text text-anchor="middle" x="2308" y="-320.8" font-family="Times,serif" font-size="14.00">FVCPostVal &lt;= 4.015</text>
<text text-anchor="middle" x="2308" y="-305.8" font-family="Times,serif" font-size="14.00">gini = 0.485</text>
<text text-anchor="middle" x="2308" y="-290.8" font-family="Times,serif" font-size="14.00">samples = 4</text>
<text text-anchor="middle" x="2308" y="-275.8" font-family="Times,serif" font-size="14.00">value = [2.062, 2.913]</text>
<text text-anchor="middle" x="2308" y="-260.8" font-family="Times,serif" font-size="14.00">class = Obstructive</text>
</g>
<!-- 16&#45;&gt;24 -->
<g id="edge24" class="edge">
<title>16&#45;&gt;24</title>
<path fill="none" stroke="black" d="M2098.11,-394.14C2133.72,-378.67 2174.32,-361.04 2210.27,-345.44"/>
<polygon fill="black" stroke="black" points="2212.01,-348.5 2219.78,-341.3 2209.22,-342.08 2212.01,-348.5"/>
</g>
<!-- 18 -->
<g id="node19" class="node">
<title>18</title>
<polygon fill="none" stroke="black" points="2001.5,-217 1804.5,-217 1804.5,-119 2001.5,-119 2001.5,-217"/>
<text text-anchor="middle" x="1903" y="-201.8" font-family="Times,serif" font-size="14.00">node #18</text>
<text text-anchor="middle" x="1903" y="-186.8" font-family="Times,serif" font-size="14.00">FVCPostPercent &lt;= 76.5</text>
<text text-anchor="middle" x="1903" y="-171.8" font-family="Times,serif" font-size="14.00">gini = 0.045</text>
<text text-anchor="middle" x="1903" y="-156.8" font-family="Times,serif" font-size="14.00">samples = 55</text>
<text text-anchor="middle" x="1903" y="-141.8" font-family="Times,serif" font-size="14.00">value = [81.438, 1.942]</text>
<text text-anchor="middle" x="1903" y="-126.8" font-family="Times,serif" font-size="14.00">class = Non&#45;obstructive</text>
</g>
<!-- 17&#45;&gt;18 -->
<g id="edge18" class="edge">
<title>17&#45;&gt;18</title>
<path fill="none" stroke="black" d="M1967.25,-252.97C1960.36,-243.96 1953.1,-234.47 1946.03,-225.24"/>
<polygon fill="black" stroke="black" points="1948.75,-223.03 1939.89,-217.21 1943.19,-227.28 1948.75,-223.03"/>
</g>
<!-- 21 -->
<g id="node22" class="node">
<title>21</title>
<polygon fill="none" stroke="black" points="2210.5,-217 2019.5,-217 2019.5,-119 2210.5,-119 2210.5,-217"/>
<text text-anchor="middle" x="2115" y="-201.8" font-family="Times,serif" font-size="14.00">node #21</text>
<text text-anchor="middle" x="2115" y="-186.8" font-family="Times,serif" font-size="14.00">FVCPrePercent &lt;= 87.5</text>
<text text-anchor="middle" x="2115" y="-171.8" font-family="Times,serif" font-size="14.00">gini = 0.451</text>
<text text-anchor="middle" x="2115" y="-156.8" font-family="Times,serif" font-size="14.00">samples = 9</text>
<text text-anchor="middle" x="2115" y="-141.8" font-family="Times,serif" font-size="14.00">value = [9.278, 4.855]</text>
<text text-anchor="middle" x="2115" y="-126.8" font-family="Times,serif" font-size="14.00">class = Non&#45;obstructive</text>
</g>
<!-- 17&#45;&gt;21 -->
<g id="edge21" class="edge">
<title>17&#45;&gt;21</title>
<path fill="none" stroke="black" d="M2044.39,-252.97C2052.04,-243.87 2060.11,-234.28 2067.94,-224.96"/>
<polygon fill="black" stroke="black" points="2070.7,-227.12 2074.46,-217.21 2065.34,-222.61 2070.7,-227.12"/>
</g>
<!-- 19 -->
<g id="node20" class="node">
<title>19</title>
<polygon fill="none" stroke="black" points="1812,-83 1624,-83 1624,0 1812,0 1812,-83"/>
<text text-anchor="middle" x="1718" y="-67.8" font-family="Times,serif" font-size="14.00">node #19</text>
<text text-anchor="middle" x="1718" y="-52.8" font-family="Times,serif" font-size="14.00">gini = 0.0</text>
<text text-anchor="middle" x="1718" y="-37.8" font-family="Times,serif" font-size="14.00">samples = 47</text>
<text text-anchor="middle" x="1718" y="-22.8" font-family="Times,serif" font-size="14.00">value = [70.099, 0.0]</text>
<text text-anchor="middle" x="1718" y="-7.8" font-family="Times,serif" font-size="14.00">class = Non&#45;obstructive</text>
</g>
<!-- 18&#45;&gt;19 -->
<g id="edge19" class="edge">
<title>18&#45;&gt;19</title>
<path fill="none" stroke="black" d="M1831.47,-118.87C1816.77,-108.97 1801.32,-98.57 1786.72,-88.74"/>
<polygon fill="black" stroke="black" points="1788.48,-85.71 1778.23,-83.03 1784.57,-91.52 1788.48,-85.71"/>
</g>
<!-- 20 -->
<g id="node21" class="node">
<title>20</title>
<polygon fill="none" stroke="black" points="2018,-83 1830,-83 1830,0 2018,0 2018,-83"/>
<text text-anchor="middle" x="1924" y="-67.8" font-family="Times,serif" font-size="14.00">node #20</text>
<text text-anchor="middle" x="1924" y="-52.8" font-family="Times,serif" font-size="14.00">gini = 0.25</text>
<text text-anchor="middle" x="1924" y="-37.8" font-family="Times,serif" font-size="14.00">samples = 8</text>
<text text-anchor="middle" x="1924" y="-22.8" font-family="Times,serif" font-size="14.00">value = [11.34, 1.942]</text>
<text text-anchor="middle" x="1924" y="-7.8" font-family="Times,serif" font-size="14.00">class = Non&#45;obstructive</text>
</g>
<!-- 18&#45;&gt;20 -->
<g id="edge20" class="edge">
<title>18&#45;&gt;20</title>
<path fill="none" stroke="black" d="M1911.12,-118.87C1912.53,-110.5 1914,-101.77 1915.43,-93.33"/>
<polygon fill="black" stroke="black" points="1918.92,-93.67 1917.13,-83.23 1912.02,-92.51 1918.92,-93.67"/>
</g>
<!-- 22 -->
<g id="node23" class="node">
<title>22</title>
<polygon fill="none" stroke="black" points="2194,-83 2036,-83 2036,0 2194,0 2194,-83"/>
<text text-anchor="middle" x="2115" y="-67.8" font-family="Times,serif" font-size="14.00">node #22</text>
<text text-anchor="middle" x="2115" y="-52.8" font-family="Times,serif" font-size="14.00">gini = 0.0</text>
<text text-anchor="middle" x="2115" y="-37.8" font-family="Times,serif" font-size="14.00">samples = 3</text>
<text text-anchor="middle" x="2115" y="-22.8" font-family="Times,serif" font-size="14.00">value = [0.0, 4.855]</text>
<text text-anchor="middle" x="2115" y="-7.8" font-family="Times,serif" font-size="14.00">class = Obstructive</text>
</g>
<!-- 21&#45;&gt;22 -->
<g id="edge22" class="edge">
<title>21&#45;&gt;22</title>
<path fill="none" stroke="black" d="M2115,-118.87C2115,-110.5 2115,-101.77 2115,-93.33"/>
<polygon fill="black" stroke="black" points="2118.5,-93.23 2115,-83.23 2111.5,-93.23 2118.5,-93.23"/>
</g>
<!-- 23 -->
<g id="node24" class="node">
<title>23</title>
<polygon fill="none" stroke="black" points="2400,-83 2212,-83 2212,0 2400,0 2400,-83"/>
<text text-anchor="middle" x="2306" y="-67.8" font-family="Times,serif" font-size="14.00">node #23</text>
<text text-anchor="middle" x="2306" y="-52.8" font-family="Times,serif" font-size="14.00">gini = 0.0</text>
<text text-anchor="middle" x="2306" y="-37.8" font-family="Times,serif" font-size="14.00">samples = 6</text>
<text text-anchor="middle" x="2306" y="-22.8" font-family="Times,serif" font-size="14.00">value = [9.278, 0.0]</text>
<text text-anchor="middle" x="2306" y="-7.8" font-family="Times,serif" font-size="14.00">class = Non&#45;obstructive</text>
</g>
<!-- 21&#45;&gt;23 -->
<g id="edge23" class="edge">
<title>21&#45;&gt;23</title>
<path fill="none" stroke="black" d="M2188.85,-118.87C2204.03,-108.97 2219.98,-98.57 2235.05,-88.74"/>
<polygon fill="black" stroke="black" points="2237.35,-91.43 2243.82,-83.03 2233.53,-85.56 2237.35,-91.43"/>
</g>
<!-- 25 -->
<g id="node26" class="node">
<title>25</title>
<polygon fill="none" stroke="black" points="2387,-209.5 2229,-209.5 2229,-126.5 2387,-126.5 2387,-209.5"/>
<text text-anchor="middle" x="2308" y="-194.3" font-family="Times,serif" font-size="14.00">node #25</text>
<text text-anchor="middle" x="2308" y="-179.3" font-family="Times,serif" font-size="14.00">gini = 0.0</text>
<text text-anchor="middle" x="2308" y="-164.3" font-family="Times,serif" font-size="14.00">samples = 3</text>
<text text-anchor="middle" x="2308" y="-149.3" font-family="Times,serif" font-size="14.00">value = [0.0, 2.913]</text>
<text text-anchor="middle" x="2308" y="-134.3" font-family="Times,serif" font-size="14.00">class = Obstructive</text>
</g>
<!-- 24&#45;&gt;25 -->
<g id="edge25" class="edge">
<title>24&#45;&gt;25</title>
<path fill="none" stroke="black" d="M2308,-252.97C2308,-242.25 2308,-230.84 2308,-219.99"/>
<polygon fill="black" stroke="black" points="2311.5,-219.82 2308,-209.82 2304.5,-219.82 2311.5,-219.82"/>
</g>
<!-- 26 -->
<g id="node27" class="node">
<title>26</title>
<polygon fill="none" stroke="black" points="2593,-209.5 2405,-209.5 2405,-126.5 2593,-126.5 2593,-209.5"/>
<text text-anchor="middle" x="2499" y="-194.3" font-family="Times,serif" font-size="14.00">node #26</text>
<text text-anchor="middle" x="2499" y="-179.3" font-family="Times,serif" font-size="14.00">gini = 0.0</text>
<text text-anchor="middle" x="2499" y="-164.3" font-family="Times,serif" font-size="14.00">samples = 1</text>
<text text-anchor="middle" x="2499" y="-149.3" font-family="Times,serif" font-size="14.00">value = [2.062, 0.0]</text>
<text text-anchor="middle" x="2499" y="-134.3" font-family="Times,serif" font-size="14.00">class = Non&#45;obstructive</text>
</g>
<!-- 24&#45;&gt;26 -->
<g id="edge26" class="edge">
<title>24&#45;&gt;26</title>
<path fill="none" stroke="black" d="M2377.5,-252.97C2395.19,-240.75 2414.17,-227.63 2431.74,-215.48"/>
<polygon fill="black" stroke="black" points="2434.01,-218.17 2440.25,-209.6 2430.03,-212.41 2434.01,-218.17"/>
</g>
</g>
</svg>
