<?xml version="1.0" encoding="UTF-8" standalone="no"?>
<!DOCTYPE svg PUBLIC "-//W3C//DTD SVG 1.1//EN"
 "http://www.w3.org/Graphics/SVG/1.1/DTD/svg11.dtd">
<!-- Generated by graphviz version 2.43.0 (0)
 -->
<!-- Title: Tree Pages: 1 -->
<svg width="1846pt" height="627pt"
 viewBox="0.00 0.00 1845.50 627.00" xmlns="http://www.w3.org/2000/svg" xmlns:xlink="http://www.w3.org/1999/xlink">
<g id="graph0" class="graph" transform="scale(1 1) rotate(0) translate(4 623)">
<title>Tree</title>
<polygon fill="white" stroke="transparent" points="-4,4 -4,-623 1841.5,-623 1841.5,4 -4,4"/>
<!-- 0 -->
<g id="node1" class="node">
<title>0</title>
<polygon fill="none" stroke="black" points="889,-619 701,-619 701,-521 889,-521 889,-619"/>
<text text-anchor="middle" x="795" y="-603.8" font-family="Times,serif" font-size="14.00">node #0</text>
<text text-anchor="middle" x="795" y="-588.8" font-family="Times,serif" font-size="14.00">FEFPostVal &lt;= 0.995</text>
<text text-anchor="middle" x="795" y="-573.8" font-family="Times,serif" font-size="14.00">gini = 0.5</text>
<text text-anchor="middle" x="795" y="-558.8" font-family="Times,serif" font-size="14.00">samples = 208</text>
<text text-anchor="middle" x="795" y="-543.8" font-family="Times,serif" font-size="14.00">value = [167.0, 167.0]</text>
<text text-anchor="middle" x="795" y="-528.8" font-family="Times,serif" font-size="14.00">class = Non&#45;obstructive</text>
</g>
<!-- 1 -->
<g id="node2" class="node">
<title>1</title>
<polygon fill="none" stroke="black" points="676.5,-485 491.5,-485 491.5,-387 676.5,-387 676.5,-485"/>
<text text-anchor="middle" x="584" y="-469.8" font-family="Times,serif" font-size="14.00">node #1</text>
<text text-anchor="middle" x="584" y="-454.8" font-family="Times,serif" font-size="14.00">FVCPostVal &lt;= 0.965</text>
<text text-anchor="middle" x="584" y="-439.8" font-family="Times,serif" font-size="14.00">gini = 0.184</text>
<text text-anchor="middle" x="584" y="-424.8" font-family="Times,serif" font-size="14.00">samples = 63</text>
<text text-anchor="middle" x="584" y="-409.8" font-family="Times,serif" font-size="14.00">value = [9.824, 85.807]</text>
<text text-anchor="middle" x="584" y="-394.8" font-family="Times,serif" font-size="14.00">class = Obstructive</text>
</g>
<!-- 0&#45;&gt;1 -->
<g id="edge1" class="edge">
<title>0&#45;&gt;1</title>
<path fill="none" stroke="black" d="M718.23,-520.97C702.52,-511.14 685.89,-500.74 669.89,-490.73"/>
<polygon fill="black" stroke="black" points="671.4,-487.55 661.07,-485.21 667.69,-493.48 671.4,-487.55"/>
<text text-anchor="middle" x="666.68" y="-505.88" font-family="Times,serif" font-size="14.00">True</text>
</g>
<!-- 10 -->
<g id="node11" class="node">
<title>10</title>
<polygon fill="none" stroke="black" points="1104.5,-485 901.5,-485 901.5,-387 1104.5,-387 1104.5,-485"/>
<text text-anchor="middle" x="1003" y="-469.8" font-family="Times,serif" font-size="14.00">node #10</text>
<text text-anchor="middle" x="1003" y="-454.8" font-family="Times,serif" font-size="14.00">FVCPostPercent &lt;= 73.5</text>
<text text-anchor="middle" x="1003" y="-439.8" font-family="Times,serif" font-size="14.00">gini = 0.449</text>
<text text-anchor="middle" x="1003" y="-424.8" font-family="Times,serif" font-size="14.00">samples = 145</text>
<text text-anchor="middle" x="1003" y="-409.8" font-family="Times,serif" font-size="14.00">value = [157.176, 81.193]</text>
<text text-anchor="middle" x="1003" y="-394.8" font-family="Times,serif" font-size="14.00">class = Non&#45;obstructive</text>
</g>
<!-- 0&#45;&gt;10 -->
<g id="edge10" class="edge">
<title>0&#45;&gt;10</title>
<path fill="none" stroke="black" d="M870.68,-520.97C886.17,-511.14 902.56,-500.74 918.33,-490.73"/>
<polygon fill="black" stroke="black" points="920.46,-493.53 927.03,-485.21 916.71,-487.62 920.46,-493.53"/>
<text text-anchor="middle" x="921.57" y="-505.91" font-family="Times,serif" font-size="14.00">False</text>
</g>
<!-- 2 -->
<g id="node3" class="node">
<title>2</title>
<polygon fill="none" stroke="black" points="364,-351 176,-351 176,-253 364,-253 364,-351"/>
<text text-anchor="middle" x="270" y="-335.8" font-family="Times,serif" font-size="14.00">node #2</text>
<text text-anchor="middle" x="270" y="-320.8" font-family="Times,serif" font-size="14.00">FEV1PostVal &lt;= 0.61</text>
<text text-anchor="middle" x="270" y="-305.8" font-family="Times,serif" font-size="14.00">gini = 0.288</text>
<text text-anchor="middle" x="270" y="-290.8" font-family="Times,serif" font-size="14.00">samples = 3</text>
<text text-anchor="middle" x="270" y="-275.8" font-family="Times,serif" font-size="14.00">value = [4.366, 0.923]</text>
<text text-anchor="middle" x="270" y="-260.8" font-family="Times,serif" font-size="14.00">class = Non&#45;obstructive</text>
</g>
<!-- 1&#45;&gt;2 -->
<g id="edge2" class="edge">
<title>1&#45;&gt;2</title>
<path fill="none" stroke="black" d="M491.49,-396.11C454.47,-380.55 411.65,-362.55 373.59,-346.55"/>
<polygon fill="black" stroke="black" points="374.6,-343.17 364.02,-342.53 371.89,-349.63 374.6,-343.17"/>
</g>
<!-- 5 -->
<g id="node6" class="node">
<title>5</title>
<polygon fill="none" stroke="black" points="679.5,-351 488.5,-351 488.5,-253 679.5,-253 679.5,-351"/>
<text text-anchor="middle" x="584" y="-335.8" font-family="Times,serif" font-size="14.00">node #5</text>
<text text-anchor="middle" x="584" y="-320.8" font-family="Times,serif" font-size="14.00">FEFPrePercent &lt;= 85.0</text>
<text text-anchor="middle" x="584" y="-305.8" font-family="Times,serif" font-size="14.00">gini = 0.114</text>
<text text-anchor="middle" x="584" y="-290.8" font-family="Times,serif" font-size="14.00">samples = 60</text>
<text text-anchor="middle" x="584" y="-275.8" font-family="Times,serif" font-size="14.00">value = [5.458, 84.884]</text>
<text text-anchor="middle" x="584" y="-260.8" font-family="Times,serif" font-size="14.00">class = Obstructive</text>
</g>
<!-- 1&#45;&gt;5 -->
<g id="edge5" class="edge">
<title>1&#45;&gt;5</title>
<path fill="none" stroke="black" d="M584,-386.97C584,-378.69 584,-370 584,-361.48"/>
<polygon fill="black" stroke="black" points="587.5,-361.21 584,-351.21 580.5,-361.21 587.5,-361.21"/>
</g>
<!-- 3 -->
<g id="node4" class="node">
<title>3</title>
<polygon fill="none" stroke="black" points="158,-209.5 0,-209.5 0,-126.5 158,-126.5 158,-209.5"/>
<text text-anchor="middle" x="79" y="-194.3" font-family="Times,serif" font-size="14.00">node #3</text>
<text text-anchor="middle" x="79" y="-179.3" font-family="Times,serif" font-size="14.00">gini = 0.0</text>
<text text-anchor="middle" x="79" y="-164.3" font-family="Times,serif" font-size="14.00">samples = 1</text>
<text text-anchor="middle" x="79" y="-149.3" font-family="Times,serif" font-size="14.00">value = [0.0, 0.923]</text>
<text text-anchor="middle" x="79" y="-134.3" font-family="Times,serif" font-size="14.00">class = Obstructive</text>
</g>
<!-- 2&#45;&gt;3 -->
<g id="edge3" class="edge">
<title>2&#45;&gt;3</title>
<path fill="none" stroke="black" d="M200.5,-252.97C182.81,-240.75 163.83,-227.63 146.26,-215.48"/>
<polygon fill="black" stroke="black" points="147.97,-212.41 137.75,-209.6 143.99,-218.17 147.97,-212.41"/>
</g>
<!-- 4 -->
<g id="node5" class="node">
<title>4</title>
<polygon fill="none" stroke="black" points="364,-209.5 176,-209.5 176,-126.5 364,-126.5 364,-209.5"/>
<text text-anchor="middle" x="270" y="-194.3" font-family="Times,serif" font-size="14.00">node #4</text>
<text text-anchor="middle" x="270" y="-179.3" font-family="Times,serif" font-size="14.00">gini = 0.0</text>
<text text-anchor="middle" x="270" y="-164.3" font-family="Times,serif" font-size="14.00">samples = 2</text>
<text text-anchor="middle" x="270" y="-149.3" font-family="Times,serif" font-size="14.00">value = [4.366, 0.0]</text>
<text text-anchor="middle" x="270" y="-134.3" font-family="Times,serif" font-size="14.00">class = Non&#45;obstructive</text>
</g>
<!-- 2&#45;&gt;4 -->
<g id="edge4" class="edge">
<title>2&#45;&gt;4</title>
<path fill="none" stroke="black" d="M270,-252.97C270,-242.25 270,-230.84 270,-219.99"/>
<polygon fill="black" stroke="black" points="273.5,-219.82 270,-209.82 266.5,-219.82 273.5,-219.82"/>
</g>
<!-- 6 -->
<g id="node7" class="node">
<title>6</title>
<polygon fill="none" stroke="black" points="579.5,-217 382.5,-217 382.5,-119 579.5,-119 579.5,-217"/>
<text text-anchor="middle" x="481" y="-201.8" font-family="Times,serif" font-size="14.00">node #6</text>
<text text-anchor="middle" x="481" y="-186.8" font-family="Times,serif" font-size="14.00">FEFPostPercent &lt;= 23.5</text>
<text text-anchor="middle" x="481" y="-171.8" font-family="Times,serif" font-size="14.00">gini = 0.093</text>
<text text-anchor="middle" x="481" y="-156.8" font-family="Times,serif" font-size="14.00">samples = 59</text>
<text text-anchor="middle" x="481" y="-141.8" font-family="Times,serif" font-size="14.00">value = [4.366, 84.884]</text>
<text text-anchor="middle" x="481" y="-126.8" font-family="Times,serif" font-size="14.00">class = Obstructive</text>
</g>
<!-- 5&#45;&gt;6 -->
<g id="edge6" class="edge">
<title>5&#45;&gt;6</title>
<path fill="none" stroke="black" d="M546.52,-252.97C539.49,-243.96 532.09,-234.47 524.88,-225.24"/>
<polygon fill="black" stroke="black" points="527.53,-222.94 518.62,-217.21 522.01,-227.25 527.53,-222.94"/>
</g>
<!-- 9 -->
<g id="node10" class="node">
<title>9</title>
<polygon fill="none" stroke="black" points="786,-209.5 598,-209.5 598,-126.5 786,-126.5 786,-209.5"/>
<text text-anchor="middle" x="692" y="-194.3" font-family="Times,serif" font-size="14.00">node #9</text>
<text text-anchor="middle" x="692" y="-179.3" font-family="Times,serif" font-size="14.00">gini = 0.0</text>
<text text-anchor="middle" x="692" y="-164.3" font-family="Times,serif" font-size="14.00">samples = 1</text>
<text text-anchor="middle" x="692" y="-149.3" font-family="Times,serif" font-size="14.00">value = [1.092, 0.0]</text>
<text text-anchor="middle" x="692" y="-134.3" font-family="Times,serif" font-size="14.00">class = Non&#45;obstructive</text>
</g>
<!-- 5&#45;&gt;9 -->
<g id="edge9" class="edge">
<title>5&#45;&gt;9</title>
<path fill="none" stroke="black" d="M623.3,-252.97C632.7,-241.47 642.76,-229.18 652.19,-217.66"/>
<polygon fill="black" stroke="black" points="654.98,-219.77 658.6,-209.82 649.56,-215.34 654.98,-219.77"/>
</g>
<!-- 7 -->
<g id="node8" class="node">
<title>7</title>
<polygon fill="none" stroke="black" points="376.5,-83 191.5,-83 191.5,0 376.5,0 376.5,-83"/>
<text text-anchor="middle" x="284" y="-67.8" font-family="Times,serif" font-size="14.00">node #7</text>
<text text-anchor="middle" x="284" y="-52.8" font-family="Times,serif" font-size="14.00">gini = 0.035</text>
<text text-anchor="middle" x="284" y="-37.8" font-family="Times,serif" font-size="14.00">samples = 43</text>
<text text-anchor="middle" x="284" y="-22.8" font-family="Times,serif" font-size="14.00">value = [1.092, 60.895]</text>
<text text-anchor="middle" x="284" y="-7.8" font-family="Times,serif" font-size="14.00">class = Obstructive</text>
</g>
<!-- 6&#45;&gt;7 -->
<g id="edge7" class="edge">
<title>6&#45;&gt;7</title>
<path fill="none" stroke="black" d="M404.83,-118.87C389.03,-108.88 372.42,-98.38 356.74,-88.47"/>
<polygon fill="black" stroke="black" points="358.46,-85.42 348.14,-83.03 354.72,-91.33 358.46,-85.42"/>
</g>
<!-- 8 -->
<g id="node9" class="node">
<title>8</title>
<polygon fill="none" stroke="black" points="579.5,-83 394.5,-83 394.5,0 579.5,0 579.5,-83"/>
<text text-anchor="middle" x="487" y="-67.8" font-family="Times,serif" font-size="14.00">node #8</text>
<text text-anchor="middle" x="487" y="-52.8" font-family="Times,serif" font-size="14.00">gini = 0.211</text>
<text text-anchor="middle" x="487" y="-37.8" font-family="Times,serif" font-size="14.00">samples = 16</text>
<text text-anchor="middle" x="487" y="-22.8" font-family="Times,serif" font-size="14.00">value = [3.275, 23.989]</text>
<text text-anchor="middle" x="487" y="-7.8" font-family="Times,serif" font-size="14.00">class = Obstructive</text>
</g>
<!-- 6&#45;&gt;8 -->
<g id="edge8" class="edge">
<title>6&#45;&gt;8</title>
<path fill="none" stroke="black" d="M483.32,-118.87C483.72,-110.5 484.14,-101.77 484.55,-93.33"/>
<polygon fill="black" stroke="black" points="488.05,-93.39 485.04,-83.23 481.06,-93.05 488.05,-93.39"/>
</g>
<!-- 11 -->
<g id="node12" class="node">
<title>11</title>
<polygon fill="none" stroke="black" points="1104.5,-351 901.5,-351 901.5,-253 1104.5,-253 1104.5,-351"/>
<text text-anchor="middle" x="1003" y="-335.8" font-family="Times,serif" font-size="14.00">node #11</text>
<text text-anchor="middle" x="1003" y="-320.8" font-family="Times,serif" font-size="14.00">FEFPostVal &lt;= 2.86</text>
<text text-anchor="middle" x="1003" y="-305.8" font-family="Times,serif" font-size="14.00">gini = 0.285</text>
<text text-anchor="middle" x="1003" y="-290.8" font-family="Times,serif" font-size="14.00">samples = 81</text>
<text text-anchor="middle" x="1003" y="-275.8" font-family="Times,serif" font-size="14.00">value = [120.065, 24.912]</text>
<text text-anchor="middle" x="1003" y="-260.8" font-family="Times,serif" font-size="14.00">class = Non&#45;obstructive</text>
</g>
<!-- 10&#45;&gt;11 -->
<g id="edge11" class="edge">
<title>10&#45;&gt;11</title>
<path fill="none" stroke="black" d="M1003,-386.97C1003,-378.69 1003,-370 1003,-361.48"/>
<polygon fill="black" stroke="black" points="1006.5,-361.21 1003,-351.21 999.5,-361.21 1006.5,-361.21"/>
</g>
<!-- 16 -->
<g id="node17" class="node">
<title>16</title>
<polygon fill="none" stroke="black" points="1429,-351 1223,-351 1223,-253 1429,-253 1429,-351"/>
<text text-anchor="middle" x="1326" y="-335.8" font-family="Times,serif" font-size="14.00">node #16</text>
<text text-anchor="middle" x="1326" y="-320.8" font-family="Times,serif" font-size="14.00">FEV1PostPercent &lt;= 82.5</text>
<text text-anchor="middle" x="1326" y="-305.8" font-family="Times,serif" font-size="14.00">gini = 0.479</text>
<text text-anchor="middle" x="1326" y="-290.8" font-family="Times,serif" font-size="14.00">samples = 64</text>
<text text-anchor="middle" x="1326" y="-275.8" font-family="Times,serif" font-size="14.00">value = [37.111, 56.282]</text>
<text text-anchor="middle" x="1326" y="-260.8" font-family="Times,serif" font-size="14.00">class = Obstructive</text>
</g>
<!-- 10&#45;&gt;16 -->
<g id="edge16" class="edge">
<title>10&#45;&gt;16</title>
<path fill="none" stroke="black" d="M1104.76,-393.42C1139.3,-379.3 1178.09,-363.45 1213.43,-349.01"/>
<polygon fill="black" stroke="black" points="1214.88,-352.19 1222.81,-345.17 1212.23,-345.71 1214.88,-352.19"/>
</g>
<!-- 12 -->
<g id="node13" class="node">
<title>12</title>
<polygon fill="none" stroke="black" points="1001.5,-217 804.5,-217 804.5,-119 1001.5,-119 1001.5,-217"/>
<text text-anchor="middle" x="903" y="-201.8" font-family="Times,serif" font-size="14.00">node #12</text>
<text text-anchor="middle" x="903" y="-186.8" font-family="Times,serif" font-size="14.00">FVCPostPercent &lt;= 62.5</text>
<text text-anchor="middle" x="903" y="-171.8" font-family="Times,serif" font-size="14.00">gini = 0.411</text>
<text text-anchor="middle" x="903" y="-156.8" font-family="Times,serif" font-size="14.00">samples = 47</text>
<text text-anchor="middle" x="903" y="-141.8" font-family="Times,serif" font-size="14.00">value = [61.124, 24.912]</text>
<text text-anchor="middle" x="903" y="-126.8" font-family="Times,serif" font-size="14.00">class = Non&#45;obstructive</text>
</g>
<!-- 11&#45;&gt;12 -->
<g id="edge12" class="edge">
<title>11&#45;&gt;12</title>
<path fill="none" stroke="black" d="M966.61,-252.97C959.79,-243.96 952.6,-234.47 945.61,-225.24"/>
<polygon fill="black" stroke="black" points="948.35,-223.07 939.53,-217.21 942.77,-227.3 948.35,-223.07"/>
</g>
<!-- 15 -->
<g id="node16" class="node">
<title>15</title>
<polygon fill="none" stroke="black" points="1208,-209.5 1020,-209.5 1020,-126.5 1208,-126.5 1208,-209.5"/>
<text text-anchor="middle" x="1114" y="-194.3" font-family="Times,serif" font-size="14.00">node #15</text>
<text text-anchor="middle" x="1114" y="-179.3" font-family="Times,serif" font-size="14.00">gini = &#45;0.0</text>
<text text-anchor="middle" x="1114" y="-164.3" font-family="Times,serif" font-size="14.00">samples = 34</text>
<text text-anchor="middle" x="1114" y="-149.3" font-family="Times,serif" font-size="14.00">value = [58.941, 0.0]</text>
<text text-anchor="middle" x="1114" y="-134.3" font-family="Times,serif" font-size="14.00">class = Non&#45;obstructive</text>
</g>
<!-- 11&#45;&gt;15 -->
<g id="edge15" class="edge">
<title>11&#45;&gt;15</title>
<path fill="none" stroke="black" d="M1043.39,-252.97C1053.06,-241.47 1063.39,-229.18 1073.08,-217.66"/>
<polygon fill="black" stroke="black" points="1075.92,-219.72 1079.68,-209.82 1070.56,-215.22 1075.92,-219.72"/>
</g>
<!-- 13 -->
<g id="node14" class="node">
<title>13</title>
<polygon fill="none" stroke="black" points="799,-83 611,-83 611,0 799,0 799,-83"/>
<text text-anchor="middle" x="705" y="-67.8" font-family="Times,serif" font-size="14.00">node #13</text>
<text text-anchor="middle" x="705" y="-52.8" font-family="Times,serif" font-size="14.00">gini = 0.239</text>
<text text-anchor="middle" x="705" y="-37.8" font-family="Times,serif" font-size="14.00">samples = 28</text>
<text text-anchor="middle" x="705" y="-22.8" font-family="Times,serif" font-size="14.00">value = [45.843, 7.381]</text>
<text text-anchor="middle" x="705" y="-7.8" font-family="Times,serif" font-size="14.00">class = Non&#45;obstructive</text>
</g>
<!-- 12&#45;&gt;13 -->
<g id="edge13" class="edge">
<title>12&#45;&gt;13</title>
<path fill="none" stroke="black" d="M826.45,-118.87C810.56,-108.88 793.86,-98.38 778.11,-88.47"/>
<polygon fill="black" stroke="black" points="779.79,-85.39 769.46,-83.03 776.06,-91.32 779.79,-85.39"/>
</g>
<!-- 14 -->
<g id="node15" class="node">
<title>14</title>
<polygon fill="none" stroke="black" points="1002.5,-83 817.5,-83 817.5,0 1002.5,0 1002.5,-83"/>
<text text-anchor="middle" x="910" y="-67.8" font-family="Times,serif" font-size="14.00">node #14</text>
<text text-anchor="middle" x="910" y="-52.8" font-family="Times,serif" font-size="14.00">gini = 0.498</text>
<text text-anchor="middle" x="910" y="-37.8" font-family="Times,serif" font-size="14.00">samples = 19</text>
<text text-anchor="middle" x="910" y="-22.8" font-family="Times,serif" font-size="14.00">value = [15.281, 17.53]</text>
<text text-anchor="middle" x="910" y="-7.8" font-family="Times,serif" font-size="14.00">class = Obstructive</text>
</g>
<!-- 12&#45;&gt;14 -->
<g id="edge14" class="edge">
<title>12&#45;&gt;14</title>
<path fill="none" stroke="black" d="M905.71,-118.87C906.18,-110.5 906.67,-101.77 907.14,-93.33"/>
<polygon fill="black" stroke="black" points="910.64,-93.41 907.71,-83.23 903.65,-93.02 910.64,-93.41"/>
</g>
<!-- 17 -->
<g id="node18" class="node">
<title>17</title>
<polygon fill="none" stroke="black" points="1426,-217 1226,-217 1226,-119 1426,-119 1426,-217"/>
<text text-anchor="middle" x="1326" y="-201.8" font-family="Times,serif" font-size="14.00">node #17</text>
<text text-anchor="middle" x="1326" y="-186.8" font-family="Times,serif" font-size="14.00">FEV1PrePercent &lt;= 80.5</text>
<text text-anchor="middle" x="1326" y="-171.8" font-family="Times,serif" font-size="14.00">gini = 0.255</text>
<text text-anchor="middle" x="1326" y="-156.8" font-family="Times,serif" font-size="14.00">samples = 36</text>
<text text-anchor="middle" x="1326" y="-141.8" font-family="Times,serif" font-size="14.00">value = [7.641, 43.365]</text>
<text text-anchor="middle" x="1326" y="-126.8" font-family="Times,serif" font-size="14.00">class = Obstructive</text>
</g>
<!-- 16&#45;&gt;17 -->
<g id="edge17" class="edge">
<title>16&#45;&gt;17</title>
<path fill="none" stroke="black" d="M1326,-252.97C1326,-244.69 1326,-236 1326,-227.48"/>
<polygon fill="black" stroke="black" points="1329.5,-227.21 1326,-217.21 1322.5,-227.21 1329.5,-227.21"/>
</g>
<!-- 20 -->
<g id="node21" class="node">
<title>20</title>
<polygon fill="none" stroke="black" points="1641.5,-217 1444.5,-217 1444.5,-119 1641.5,-119 1641.5,-217"/>
<text text-anchor="middle" x="1543" y="-201.8" font-family="Times,serif" font-size="14.00">node #20</text>
<text text-anchor="middle" x="1543" y="-186.8" font-family="Times,serif" font-size="14.00">FVCPostPercent &lt;= 85.5</text>
<text text-anchor="middle" x="1543" y="-171.8" font-family="Times,serif" font-size="14.00">gini = 0.424</text>
<text text-anchor="middle" x="1543" y="-156.8" font-family="Times,serif" font-size="14.00">samples = 28</text>
<text text-anchor="middle" x="1543" y="-141.8" font-family="Times,serif" font-size="14.00">value = [29.471, 12.917]</text>
<text text-anchor="middle" x="1543" y="-126.8" font-family="Times,serif" font-size="14.00">class = Non&#45;obstructive</text>
</g>
<!-- 16&#45;&gt;20 -->
<g id="edge20" class="edge">
<title>16&#45;&gt;20</title>
<path fill="none" stroke="black" d="M1404.96,-252.97C1421.26,-243.05 1438.53,-232.55 1455.13,-222.45"/>
<polygon fill="black" stroke="black" points="1457.01,-225.4 1463.74,-217.21 1453.38,-219.42 1457.01,-225.4"/>
</g>
<!-- 18 -->
<g id="node19" class="node">
<title>18</title>
<polygon fill="none" stroke="black" points="1216.5,-83 1031.5,-83 1031.5,0 1216.5,0 1216.5,-83"/>
<text text-anchor="middle" x="1124" y="-67.8" font-family="Times,serif" font-size="14.00">node #18</text>
<text text-anchor="middle" x="1124" y="-52.8" font-family="Times,serif" font-size="14.00">gini = 0.199</text>
<text text-anchor="middle" x="1124" y="-37.8" font-family="Times,serif" font-size="14.00">samples = 34</text>
<text text-anchor="middle" x="1124" y="-22.8" font-family="Times,serif" font-size="14.00">value = [5.458, 43.365]</text>
<text text-anchor="middle" x="1124" y="-7.8" font-family="Times,serif" font-size="14.00">class = Obstructive</text>
</g>
<!-- 17&#45;&gt;18 -->
<g id="edge18" class="edge">
<title>17&#45;&gt;18</title>
<path fill="none" stroke="black" d="M1247.9,-118.87C1231.7,-108.88 1214.66,-98.38 1198.58,-88.47"/>
<polygon fill="black" stroke="black" points="1200.11,-85.3 1189.76,-83.03 1196.44,-91.26 1200.11,-85.3"/>
</g>
<!-- 19 -->
<g id="node20" class="node">
<title>19</title>
<polygon fill="none" stroke="black" points="1423,-83 1235,-83 1235,0 1423,0 1423,-83"/>
<text text-anchor="middle" x="1329" y="-67.8" font-family="Times,serif" font-size="14.00">node #19</text>
<text text-anchor="middle" x="1329" y="-52.8" font-family="Times,serif" font-size="14.00">gini = 0.0</text>
<text text-anchor="middle" x="1329" y="-37.8" font-family="Times,serif" font-size="14.00">samples = 2</text>
<text text-anchor="middle" x="1329" y="-22.8" font-family="Times,serif" font-size="14.00">value = [2.183, 0.0]</text>
<text text-anchor="middle" x="1329" y="-7.8" font-family="Times,serif" font-size="14.00">class = Non&#45;obstructive</text>
</g>
<!-- 17&#45;&gt;19 -->
<g id="edge19" class="edge">
<title>17&#45;&gt;19</title>
<path fill="none" stroke="black" d="M1327.16,-118.87C1327.36,-110.5 1327.57,-101.77 1327.78,-93.33"/>
<polygon fill="black" stroke="black" points="1331.28,-93.31 1328.02,-83.23 1324.28,-93.14 1331.28,-93.31"/>
</g>
<!-- 21 -->
<g id="node22" class="node">
<title>21</title>
<polygon fill="none" stroke="black" points="1634,-83 1446,-83 1446,0 1634,0 1634,-83"/>
<text text-anchor="middle" x="1540" y="-67.8" font-family="Times,serif" font-size="14.00">node #21</text>
<text text-anchor="middle" x="1540" y="-52.8" font-family="Times,serif" font-size="14.00">gini = 0.208</text>
<text text-anchor="middle" x="1540" y="-37.8" font-family="Times,serif" font-size="14.00">samples = 14</text>
<text text-anchor="middle" x="1540" y="-22.8" font-family="Times,serif" font-size="14.00">value = [20.739, 2.768]</text>
<text text-anchor="middle" x="1540" y="-7.8" font-family="Times,serif" font-size="14.00">class = Non&#45;obstructive</text>
</g>
<!-- 20&#45;&gt;21 -->
<g id="edge21" class="edge">
<title>20&#45;&gt;21</title>
<path fill="none" stroke="black" d="M1541.84,-118.87C1541.64,-110.5 1541.43,-101.77 1541.22,-93.33"/>
<polygon fill="black" stroke="black" points="1544.72,-93.14 1540.98,-83.23 1537.72,-93.31 1544.72,-93.14"/>
</g>
<!-- 22 -->
<g id="node23" class="node">
<title>22</title>
<polygon fill="none" stroke="black" points="1837.5,-83 1652.5,-83 1652.5,0 1837.5,0 1837.5,-83"/>
<text text-anchor="middle" x="1745" y="-67.8" font-family="Times,serif" font-size="14.00">node #22</text>
<text text-anchor="middle" x="1745" y="-52.8" font-family="Times,serif" font-size="14.00">gini = 0.497</text>
<text text-anchor="middle" x="1745" y="-37.8" font-family="Times,serif" font-size="14.00">samples = 14</text>
<text text-anchor="middle" x="1745" y="-22.8" font-family="Times,serif" font-size="14.00">value = [8.732, 10.149]</text>
<text text-anchor="middle" x="1745" y="-7.8" font-family="Times,serif" font-size="14.00">class = Obstructive</text>
</g>
<!-- 20&#45;&gt;22 -->
<g id="edge22" class="edge">
<title>20&#45;&gt;22</title>
<path fill="none" stroke="black" d="M1621.1,-118.87C1637.3,-108.88 1654.34,-98.38 1670.42,-88.47"/>
<polygon fill="black" stroke="black" points="1672.56,-91.26 1679.24,-83.03 1668.89,-85.3 1672.56,-91.26"/>
</g>
</g>
</svg>
