<?xml version="1.0" encoding="UTF-8" standalone="no"?>
<!DOCTYPE svg PUBLIC "-//W3C//DTD SVG 1.1//EN"
 "http://www.w3.org/Graphics/SVG/1.1/DTD/svg11.dtd">
<!-- Generated by graphviz version 2.43.0 (0)
 -->
<!-- Title: Tree Pages: 1 -->
<svg width="1999pt" height="627pt"
 viewBox="0.00 0.00 1998.50 627.00" xmlns="http://www.w3.org/2000/svg" xmlns:xlink="http://www.w3.org/1999/xlink">
<g id="graph0" class="graph" transform="scale(1 1) rotate(0) translate(4 623)">
<title>Tree</title>
<polygon fill="white" stroke="transparent" points="-4,4 -4,-623 1994.5,-623 1994.5,4 -4,4"/>
<!-- 0 -->
<g id="node1" class="node">
<title>0</title>
<polygon fill="none" stroke="black" points="1168,-619 977,-619 977,-521 1168,-521 1168,-619"/>
<text text-anchor="middle" x="1072.5" y="-603.8" font-family="Times,serif" font-size="14.00">node #0</text>
<text text-anchor="middle" x="1072.5" y="-588.8" font-family="Times,serif" font-size="14.00">FEFPrePercent &lt;= 67.5</text>
<text text-anchor="middle" x="1072.5" y="-573.8" font-family="Times,serif" font-size="14.00">gini = 0.5</text>
<text text-anchor="middle" x="1072.5" y="-558.8" font-family="Times,serif" font-size="14.00">samples = 215</text>
<text text-anchor="middle" x="1072.5" y="-543.8" font-family="Times,serif" font-size="14.00">value = [167.0, 167.0]</text>
<text text-anchor="middle" x="1072.5" y="-528.8" font-family="Times,serif" font-size="14.00">class = Obstructive</text>
</g>
<!-- 1 -->
<g id="node2" class="node">
<title>1</title>
<polygon fill="none" stroke="black" points="861,-485 658,-485 658,-387 861,-387 861,-485"/>
<text text-anchor="middle" x="759.5" y="-469.8" font-family="Times,serif" font-size="14.00">node #1</text>
<text text-anchor="middle" x="759.5" y="-454.8" font-family="Times,serif" font-size="14.00">FEFPostVal &lt;= 0.975</text>
<text text-anchor="middle" x="759.5" y="-439.8" font-family="Times,serif" font-size="14.00">gini = 0.419</text>
<text text-anchor="middle" x="759.5" y="-424.8" font-family="Times,serif" font-size="14.00">samples = 140</text>
<text text-anchor="middle" x="759.5" y="-409.8" font-family="Times,serif" font-size="14.00">value = [65.264, 153.431]</text>
<text text-anchor="middle" x="759.5" y="-394.8" font-family="Times,serif" font-size="14.00">class = Obstructive</text>
</g>
<!-- 0&#45;&gt;1 -->
<g id="edge1" class="edge">
<title>0&#45;&gt;1</title>
<path fill="none" stroke="black" d="M976.89,-528.68C943.22,-514.48 905.1,-498.4 870.29,-483.72"/>
<polygon fill="black" stroke="black" points="871.62,-480.48 861.04,-479.82 868.9,-486.93 871.62,-480.48"/>
<text text-anchor="middle" x="870.46" y="-499.28" font-family="Times,serif" font-size="14.00">True</text>
</g>
<!-- 14 -->
<g id="node15" class="node">
<title>14</title>
<polygon fill="none" stroke="black" points="1473,-485 1270,-485 1270,-387 1473,-387 1473,-485"/>
<text text-anchor="middle" x="1371.5" y="-469.8" font-family="Times,serif" font-size="14.00">node #14</text>
<text text-anchor="middle" x="1371.5" y="-454.8" font-family="Times,serif" font-size="14.00">FVCPostPercent &lt;= 74.5</text>
<text text-anchor="middle" x="1371.5" y="-439.8" font-family="Times,serif" font-size="14.00">gini = 0.208</text>
<text text-anchor="middle" x="1371.5" y="-424.8" font-family="Times,serif" font-size="14.00">samples = 75</text>
<text text-anchor="middle" x="1371.5" y="-409.8" font-family="Times,serif" font-size="14.00">value = [101.736, 13.569]</text>
<text text-anchor="middle" x="1371.5" y="-394.8" font-family="Times,serif" font-size="14.00">class = Non&#45;obstructive</text>
</g>
<!-- 0&#45;&gt;14 -->
<g id="edge14" class="edge">
<title>0&#45;&gt;14</title>
<path fill="none" stroke="black" d="M1168.34,-526.69C1197.67,-513.74 1230.19,-499.39 1260.44,-486.03"/>
<polygon fill="black" stroke="black" points="1262.02,-489.16 1269.76,-481.92 1259.2,-482.75 1262.02,-489.16"/>
<text text-anchor="middle" x="1260.72" y="-501.53" font-family="Times,serif" font-size="14.00">False</text>
</g>
<!-- 2 -->
<g id="node3" class="node">
<title>2</title>
<polygon fill="none" stroke="black" points="375.5,-351 169.5,-351 169.5,-253 375.5,-253 375.5,-351"/>
<text text-anchor="middle" x="272.5" y="-335.8" font-family="Times,serif" font-size="14.00">node #2</text>
<text text-anchor="middle" x="272.5" y="-320.8" font-family="Times,serif" font-size="14.00">FEV1PostPercent &lt;= 48.5</text>
<text text-anchor="middle" x="272.5" y="-305.8" font-family="Times,serif" font-size="14.00">gini = 0.049</text>
<text text-anchor="middle" x="272.5" y="-290.8" font-family="Times,serif" font-size="14.00">samples = 53</text>
<text text-anchor="middle" x="272.5" y="-275.8" font-family="Times,serif" font-size="14.00">value = [1.92, 75.15]</text>
<text text-anchor="middle" x="272.5" y="-260.8" font-family="Times,serif" font-size="14.00">class = Obstructive</text>
</g>
<!-- 1&#45;&gt;2 -->
<g id="edge2" class="edge">
<title>1&#45;&gt;2</title>
<path fill="none" stroke="black" d="M657.71,-407.41C578.26,-385.88 467.95,-355.98 385.72,-333.69"/>
<polygon fill="black" stroke="black" points="386.41,-330.25 375.84,-331.01 384.58,-337 386.41,-330.25"/>
</g>
<!-- 7 -->
<g id="node8" class="node">
<title>7</title>
<polygon fill="none" stroke="black" points="856.5,-351 662.5,-351 662.5,-253 856.5,-253 856.5,-351"/>
<text text-anchor="middle" x="759.5" y="-335.8" font-family="Times,serif" font-size="14.00">node #7</text>
<text text-anchor="middle" x="759.5" y="-320.8" font-family="Times,serif" font-size="14.00">FEV1PostVal &lt;= 1.655</text>
<text text-anchor="middle" x="759.5" y="-305.8" font-family="Times,serif" font-size="14.00">gini = 0.494</text>
<text text-anchor="middle" x="759.5" y="-290.8" font-family="Times,serif" font-size="14.00">samples = 87</text>
<text text-anchor="middle" x="759.5" y="-275.8" font-family="Times,serif" font-size="14.00">value = [63.345, 78.281]</text>
<text text-anchor="middle" x="759.5" y="-260.8" font-family="Times,serif" font-size="14.00">class = Obstructive</text>
</g>
<!-- 1&#45;&gt;7 -->
<g id="edge7" class="edge">
<title>1&#45;&gt;7</title>
<path fill="none" stroke="black" d="M759.5,-386.97C759.5,-378.69 759.5,-370 759.5,-361.48"/>
<polygon fill="black" stroke="black" points="763,-361.21 759.5,-351.21 756,-361.21 763,-361.21"/>
</g>
<!-- 3 -->
<g id="node4" class="node">
<title>3</title>
<polygon fill="none" stroke="black" points="167,-209.5 0,-209.5 0,-126.5 167,-126.5 167,-209.5"/>
<text text-anchor="middle" x="83.5" y="-194.3" font-family="Times,serif" font-size="14.00">node #3</text>
<text text-anchor="middle" x="83.5" y="-179.3" font-family="Times,serif" font-size="14.00">gini = 0.0</text>
<text text-anchor="middle" x="83.5" y="-164.3" font-family="Times,serif" font-size="14.00">samples = 36</text>
<text text-anchor="middle" x="83.5" y="-149.3" font-family="Times,serif" font-size="14.00">value = [0.0, 51.144]</text>
<text text-anchor="middle" x="83.5" y="-134.3" font-family="Times,serif" font-size="14.00">class = Obstructive</text>
</g>
<!-- 2&#45;&gt;3 -->
<g id="edge3" class="edge">
<title>2&#45;&gt;3</title>
<path fill="none" stroke="black" d="M203.73,-252.97C186.23,-240.75 167.45,-227.63 150.05,-215.48"/>
<polygon fill="black" stroke="black" points="151.84,-212.46 141.64,-209.6 147.83,-218.2 151.84,-212.46"/>
</g>
<!-- 4 -->
<g id="node5" class="node">
<title>4</title>
<polygon fill="none" stroke="black" points="360.5,-217 184.5,-217 184.5,-119 360.5,-119 360.5,-217"/>
<text text-anchor="middle" x="272.5" y="-201.8" font-family="Times,serif" font-size="14.00">node #4</text>
<text text-anchor="middle" x="272.5" y="-186.8" font-family="Times,serif" font-size="14.00">FVCPostVal &lt;= 1.71</text>
<text text-anchor="middle" x="272.5" y="-171.8" font-family="Times,serif" font-size="14.00">gini = 0.137</text>
<text text-anchor="middle" x="272.5" y="-156.8" font-family="Times,serif" font-size="14.00">samples = 17</text>
<text text-anchor="middle" x="272.5" y="-141.8" font-family="Times,serif" font-size="14.00">value = [1.92, 24.006]</text>
<text text-anchor="middle" x="272.5" y="-126.8" font-family="Times,serif" font-size="14.00">class = Obstructive</text>
</g>
<!-- 2&#45;&gt;4 -->
<g id="edge4" class="edge">
<title>2&#45;&gt;4</title>
<path fill="none" stroke="black" d="M272.5,-252.97C272.5,-244.69 272.5,-236 272.5,-227.48"/>
<polygon fill="black" stroke="black" points="276,-227.21 272.5,-217.21 269,-227.21 276,-227.21"/>
</g>
<!-- 5 -->
<g id="node6" class="node">
<title>5</title>
<polygon fill="none" stroke="black" points="167,-83 0,-83 0,0 167,0 167,-83"/>
<text text-anchor="middle" x="83.5" y="-67.8" font-family="Times,serif" font-size="14.00">node #5</text>
<text text-anchor="middle" x="83.5" y="-52.8" font-family="Times,serif" font-size="14.00">gini = 0.499</text>
<text text-anchor="middle" x="83.5" y="-37.8" font-family="Times,serif" font-size="14.00">samples = 2</text>
<text text-anchor="middle" x="83.5" y="-22.8" font-family="Times,serif" font-size="14.00">value = [0.96, 1.044]</text>
<text text-anchor="middle" x="83.5" y="-7.8" font-family="Times,serif" font-size="14.00">class = Obstructive</text>
</g>
<!-- 4&#45;&gt;5 -->
<g id="edge5" class="edge">
<title>4&#45;&gt;5</title>
<path fill="none" stroke="black" d="M199.43,-118.87C184.41,-108.97 168.62,-98.57 153.7,-88.74"/>
<polygon fill="black" stroke="black" points="155.31,-85.61 145.03,-83.03 151.46,-91.46 155.31,-85.61"/>
</g>
<!-- 6 -->
<g id="node7" class="node">
<title>6</title>
<polygon fill="none" stroke="black" points="360.5,-83 184.5,-83 184.5,0 360.5,0 360.5,-83"/>
<text text-anchor="middle" x="272.5" y="-67.8" font-family="Times,serif" font-size="14.00">node #6</text>
<text text-anchor="middle" x="272.5" y="-52.8" font-family="Times,serif" font-size="14.00">gini = 0.077</text>
<text text-anchor="middle" x="272.5" y="-37.8" font-family="Times,serif" font-size="14.00">samples = 15</text>
<text text-anchor="middle" x="272.5" y="-22.8" font-family="Times,serif" font-size="14.00">value = [0.96, 22.962]</text>
<text text-anchor="middle" x="272.5" y="-7.8" font-family="Times,serif" font-size="14.00">class = Obstructive</text>
</g>
<!-- 4&#45;&gt;6 -->
<g id="edge6" class="edge">
<title>4&#45;&gt;6</title>
<path fill="none" stroke="black" d="M272.5,-118.87C272.5,-110.5 272.5,-101.77 272.5,-93.33"/>
<polygon fill="black" stroke="black" points="276,-93.23 272.5,-83.23 269,-93.23 276,-93.23"/>
</g>
<!-- 8 -->
<g id="node9" class="node">
<title>8</title>
<polygon fill="none" stroke="black" points="750,-217 559,-217 559,-119 750,-119 750,-217"/>
<text text-anchor="middle" x="654.5" y="-201.8" font-family="Times,serif" font-size="14.00">node #8</text>
<text text-anchor="middle" x="654.5" y="-186.8" font-family="Times,serif" font-size="14.00">FVCPrePercent &lt;= 69.0</text>
<text text-anchor="middle" x="654.5" y="-171.8" font-family="Times,serif" font-size="14.00">gini = 0.28</text>
<text text-anchor="middle" x="654.5" y="-156.8" font-family="Times,serif" font-size="14.00">samples = 29</text>
<text text-anchor="middle" x="654.5" y="-141.8" font-family="Times,serif" font-size="14.00">value = [41.27, 8.35]</text>
<text text-anchor="middle" x="654.5" y="-126.8" font-family="Times,serif" font-size="14.00">class = Non&#45;obstructive</text>
</g>
<!-- 7&#45;&gt;8 -->
<g id="edge8" class="edge">
<title>7&#45;&gt;8</title>
<path fill="none" stroke="black" d="M721.3,-252.97C714.13,-243.96 706.58,-234.47 699.24,-225.24"/>
<polygon fill="black" stroke="black" points="701.82,-222.86 692.85,-217.21 696.34,-227.22 701.82,-222.86"/>
</g>
<!-- 11 -->
<g id="node12" class="node">
<title>11</title>
<polygon fill="none" stroke="black" points="962.5,-217 768.5,-217 768.5,-119 962.5,-119 962.5,-217"/>
<text text-anchor="middle" x="865.5" y="-201.8" font-family="Times,serif" font-size="14.00">node #11</text>
<text text-anchor="middle" x="865.5" y="-186.8" font-family="Times,serif" font-size="14.00">FEFPostVal &lt;= 3.35</text>
<text text-anchor="middle" x="865.5" y="-171.8" font-family="Times,serif" font-size="14.00">gini = 0.365</text>
<text text-anchor="middle" x="865.5" y="-156.8" font-family="Times,serif" font-size="14.00">samples = 58</text>
<text text-anchor="middle" x="865.5" y="-141.8" font-family="Times,serif" font-size="14.00">value = [22.075, 69.931]</text>
<text text-anchor="middle" x="865.5" y="-126.8" font-family="Times,serif" font-size="14.00">class = Obstructive</text>
</g>
<!-- 7&#45;&gt;11 -->
<g id="edge11" class="edge">
<title>7&#45;&gt;11</title>
<path fill="none" stroke="black" d="M798.07,-252.97C805.3,-243.96 812.92,-234.47 820.34,-225.24"/>
<polygon fill="black" stroke="black" points="823.25,-227.2 826.78,-217.21 817.79,-222.82 823.25,-227.2"/>
</g>
<!-- 9 -->
<g id="node10" class="node">
<title>9</title>
<polygon fill="none" stroke="black" points="566.5,-83 378.5,-83 378.5,0 566.5,0 566.5,-83"/>
<text text-anchor="middle" x="472.5" y="-67.8" font-family="Times,serif" font-size="14.00">node #9</text>
<text text-anchor="middle" x="472.5" y="-52.8" font-family="Times,serif" font-size="14.00">gini = 0.167</text>
<text text-anchor="middle" x="472.5" y="-37.8" font-family="Times,serif" font-size="14.00">samples = 27</text>
<text text-anchor="middle" x="472.5" y="-22.8" font-family="Times,serif" font-size="14.00">value = [41.27, 4.175]</text>
<text text-anchor="middle" x="472.5" y="-7.8" font-family="Times,serif" font-size="14.00">class = Non&#45;obstructive</text>
</g>
<!-- 8&#45;&gt;9 -->
<g id="edge9" class="edge">
<title>8&#45;&gt;9</title>
<path fill="none" stroke="black" d="M584.13,-118.87C569.67,-108.97 554.47,-98.57 540.1,-88.74"/>
<polygon fill="black" stroke="black" points="541.98,-85.79 531.75,-83.03 538.03,-91.57 541.98,-85.79"/>
</g>
<!-- 10 -->
<g id="node11" class="node">
<title>10</title>
<polygon fill="none" stroke="black" points="742.5,-83 584.5,-83 584.5,0 742.5,0 742.5,-83"/>
<text text-anchor="middle" x="663.5" y="-67.8" font-family="Times,serif" font-size="14.00">node #10</text>
<text text-anchor="middle" x="663.5" y="-52.8" font-family="Times,serif" font-size="14.00">gini = &#45;0.0</text>
<text text-anchor="middle" x="663.5" y="-37.8" font-family="Times,serif" font-size="14.00">samples = 2</text>
<text text-anchor="middle" x="663.5" y="-22.8" font-family="Times,serif" font-size="14.00">value = [0.0, 4.175]</text>
<text text-anchor="middle" x="663.5" y="-7.8" font-family="Times,serif" font-size="14.00">class = Obstructive</text>
</g>
<!-- 8&#45;&gt;10 -->
<g id="edge10" class="edge">
<title>8&#45;&gt;10</title>
<path fill="none" stroke="black" d="M657.98,-118.87C658.58,-110.5 659.22,-101.77 659.83,-93.33"/>
<polygon fill="black" stroke="black" points="663.33,-93.46 660.56,-83.23 656.34,-92.95 663.33,-93.46"/>
</g>
<!-- 12 -->
<g id="node13" class="node">
<title>12</title>
<polygon fill="none" stroke="black" points="954.5,-83 760.5,-83 760.5,0 954.5,0 954.5,-83"/>
<text text-anchor="middle" x="857.5" y="-67.8" font-family="Times,serif" font-size="14.00">node #12</text>
<text text-anchor="middle" x="857.5" y="-52.8" font-family="Times,serif" font-size="14.00">gini = 0.338</text>
<text text-anchor="middle" x="857.5" y="-37.8" font-family="Times,serif" font-size="14.00">samples = 56</text>
<text text-anchor="middle" x="857.5" y="-22.8" font-family="Times,serif" font-size="14.00">value = [19.195, 69.931]</text>
<text text-anchor="middle" x="857.5" y="-7.8" font-family="Times,serif" font-size="14.00">class = Obstructive</text>
</g>
<!-- 11&#45;&gt;12 -->
<g id="edge12" class="edge">
<title>11&#45;&gt;12</title>
<path fill="none" stroke="black" d="M862.41,-118.87C861.87,-110.5 861.31,-101.77 860.77,-93.33"/>
<polygon fill="black" stroke="black" points="864.25,-92.99 860.12,-83.23 857.27,-93.43 864.25,-92.99"/>
</g>
<!-- 13 -->
<g id="node14" class="node">
<title>13</title>
<polygon fill="none" stroke="black" points="1160.5,-83 972.5,-83 972.5,0 1160.5,0 1160.5,-83"/>
<text text-anchor="middle" x="1066.5" y="-67.8" font-family="Times,serif" font-size="14.00">node #13</text>
<text text-anchor="middle" x="1066.5" y="-52.8" font-family="Times,serif" font-size="14.00">gini = 0.0</text>
<text text-anchor="middle" x="1066.5" y="-37.8" font-family="Times,serif" font-size="14.00">samples = 2</text>
<text text-anchor="middle" x="1066.5" y="-22.8" font-family="Times,serif" font-size="14.00">value = [2.879, 0.0]</text>
<text text-anchor="middle" x="1066.5" y="-7.8" font-family="Times,serif" font-size="14.00">class = Non&#45;obstructive</text>
</g>
<!-- 11&#45;&gt;13 -->
<g id="edge13" class="edge">
<title>11&#45;&gt;13</title>
<path fill="none" stroke="black" d="M943.21,-118.87C959.34,-108.88 976.29,-98.38 992.28,-88.47"/>
<polygon fill="black" stroke="black" points="994.4,-91.27 1001.06,-83.03 990.72,-85.32 994.4,-91.27"/>
</g>
<!-- 15 -->
<g id="node16" class="node">
<title>15</title>
<polygon fill="none" stroke="black" points="1467,-351 1276,-351 1276,-253 1467,-253 1467,-351"/>
<text text-anchor="middle" x="1371.5" y="-335.8" font-family="Times,serif" font-size="14.00">node #15</text>
<text text-anchor="middle" x="1371.5" y="-320.8" font-family="Times,serif" font-size="14.00">FEFPrePercent &lt;= 82.5</text>
<text text-anchor="middle" x="1371.5" y="-305.8" font-family="Times,serif" font-size="14.00">gini = 0.025</text>
<text text-anchor="middle" x="1371.5" y="-290.8" font-family="Times,serif" font-size="14.00">samples = 55</text>
<text text-anchor="middle" x="1371.5" y="-275.8" font-family="Times,serif" font-size="14.00">value = [82.54, 1.044]</text>
<text text-anchor="middle" x="1371.5" y="-260.8" font-family="Times,serif" font-size="14.00">class = Non&#45;obstructive</text>
</g>
<!-- 14&#45;&gt;15 -->
<g id="edge15" class="edge">
<title>14&#45;&gt;15</title>
<path fill="none" stroke="black" d="M1371.5,-386.97C1371.5,-378.69 1371.5,-370 1371.5,-361.48"/>
<polygon fill="black" stroke="black" points="1375,-361.21 1371.5,-351.21 1368,-361.21 1375,-361.21"/>
</g>
<!-- 20 -->
<g id="node21" class="node">
<title>20</title>
<polygon fill="none" stroke="black" points="1791.5,-351 1585.5,-351 1585.5,-253 1791.5,-253 1791.5,-351"/>
<text text-anchor="middle" x="1688.5" y="-335.8" font-family="Times,serif" font-size="14.00">node #20</text>
<text text-anchor="middle" x="1688.5" y="-320.8" font-family="Times,serif" font-size="14.00">FEV1PostPercent &lt;= 83.5</text>
<text text-anchor="middle" x="1688.5" y="-305.8" font-family="Times,serif" font-size="14.00">gini = 0.478</text>
<text text-anchor="middle" x="1688.5" y="-290.8" font-family="Times,serif" font-size="14.00">samples = 20</text>
<text text-anchor="middle" x="1688.5" y="-275.8" font-family="Times,serif" font-size="14.00">value = [19.195, 12.525]</text>
<text text-anchor="middle" x="1688.5" y="-260.8" font-family="Times,serif" font-size="14.00">class = Non&#45;obstructive</text>
</g>
<!-- 14&#45;&gt;20 -->
<g id="edge20" class="edge">
<title>14&#45;&gt;20</title>
<path fill="none" stroke="black" d="M1473.11,-392.69C1505.88,-379.04 1542.4,-363.84 1575.92,-349.88"/>
<polygon fill="black" stroke="black" points="1577.4,-353.05 1585.29,-345.98 1574.71,-346.59 1577.4,-353.05"/>
</g>
<!-- 16 -->
<g id="node17" class="node">
<title>16</title>
<polygon fill="none" stroke="black" points="1368,-217 1177,-217 1177,-119 1368,-119 1368,-217"/>
<text text-anchor="middle" x="1272.5" y="-201.8" font-family="Times,serif" font-size="14.00">node #16</text>
<text text-anchor="middle" x="1272.5" y="-186.8" font-family="Times,serif" font-size="14.00">FVCPrePercent &lt;= 57.0</text>
<text text-anchor="middle" x="1272.5" y="-171.8" font-family="Times,serif" font-size="14.00">gini = 0.086</text>
<text text-anchor="middle" x="1272.5" y="-156.8" font-family="Times,serif" font-size="14.00">samples = 14</text>
<text text-anchor="middle" x="1272.5" y="-141.8" font-family="Times,serif" font-size="14.00">value = [22.075, 1.044]</text>
<text text-anchor="middle" x="1272.5" y="-126.8" font-family="Times,serif" font-size="14.00">class = Non&#45;obstructive</text>
</g>
<!-- 15&#45;&gt;16 -->
<g id="edge16" class="edge">
<title>15&#45;&gt;16</title>
<path fill="none" stroke="black" d="M1335.48,-252.97C1328.72,-243.96 1321.6,-234.47 1314.68,-225.24"/>
<polygon fill="black" stroke="black" points="1317.46,-223.11 1308.66,-217.21 1311.86,-227.31 1317.46,-223.11"/>
</g>
<!-- 19 -->
<g id="node20" class="node">
<title>19</title>
<polygon fill="none" stroke="black" points="1574.5,-209.5 1386.5,-209.5 1386.5,-126.5 1574.5,-126.5 1574.5,-209.5"/>
<text text-anchor="middle" x="1480.5" y="-194.3" font-family="Times,serif" font-size="14.00">node #19</text>
<text text-anchor="middle" x="1480.5" y="-179.3" font-family="Times,serif" font-size="14.00">gini = 0.0</text>
<text text-anchor="middle" x="1480.5" y="-164.3" font-family="Times,serif" font-size="14.00">samples = 41</text>
<text text-anchor="middle" x="1480.5" y="-149.3" font-family="Times,serif" font-size="14.00">value = [60.466, 0.0]</text>
<text text-anchor="middle" x="1480.5" y="-134.3" font-family="Times,serif" font-size="14.00">class = Non&#45;obstructive</text>
</g>
<!-- 15&#45;&gt;19 -->
<g id="edge19" class="edge">
<title>15&#45;&gt;19</title>
<path fill="none" stroke="black" d="M1411.16,-252.97C1420.66,-241.47 1430.8,-229.18 1440.32,-217.66"/>
<polygon fill="black" stroke="black" points="1443.13,-219.76 1446.8,-209.82 1437.73,-215.3 1443.13,-219.76"/>
</g>
<!-- 17 -->
<g id="node18" class="node">
<title>17</title>
<polygon fill="none" stroke="black" points="1366.5,-83 1178.5,-83 1178.5,0 1366.5,0 1366.5,-83"/>
<text text-anchor="middle" x="1272.5" y="-67.8" font-family="Times,serif" font-size="14.00">node #17</text>
<text text-anchor="middle" x="1272.5" y="-52.8" font-family="Times,serif" font-size="14.00">gini = 0.0</text>
<text text-anchor="middle" x="1272.5" y="-37.8" font-family="Times,serif" font-size="14.00">samples = 9</text>
<text text-anchor="middle" x="1272.5" y="-22.8" font-family="Times,serif" font-size="14.00">value = [15.356, 0.0]</text>
<text text-anchor="middle" x="1272.5" y="-7.8" font-family="Times,serif" font-size="14.00">class = Non&#45;obstructive</text>
</g>
<!-- 16&#45;&gt;17 -->
<g id="edge17" class="edge">
<title>16&#45;&gt;17</title>
<path fill="none" stroke="black" d="M1272.5,-118.87C1272.5,-110.5 1272.5,-101.77 1272.5,-93.33"/>
<polygon fill="black" stroke="black" points="1276,-93.23 1272.5,-83.23 1269,-93.23 1276,-93.23"/>
</g>
<!-- 18 -->
<g id="node19" class="node">
<title>18</title>
<polygon fill="none" stroke="black" points="1572.5,-83 1384.5,-83 1384.5,0 1572.5,0 1572.5,-83"/>
<text text-anchor="middle" x="1478.5" y="-67.8" font-family="Times,serif" font-size="14.00">node #18</text>
<text text-anchor="middle" x="1478.5" y="-52.8" font-family="Times,serif" font-size="14.00">gini = 0.233</text>
<text text-anchor="middle" x="1478.5" y="-37.8" font-family="Times,serif" font-size="14.00">samples = 5</text>
<text text-anchor="middle" x="1478.5" y="-22.8" font-family="Times,serif" font-size="14.00">value = [6.718, 1.044]</text>
<text text-anchor="middle" x="1478.5" y="-7.8" font-family="Times,serif" font-size="14.00">class = Non&#45;obstructive</text>
</g>
<!-- 16&#45;&gt;18 -->
<g id="edge18" class="edge">
<title>16&#45;&gt;18</title>
<path fill="none" stroke="black" d="M1352.14,-118.87C1368.67,-108.88 1386.04,-98.38 1402.44,-88.47"/>
<polygon fill="black" stroke="black" points="1404.69,-91.2 1411.43,-83.03 1401.07,-85.21 1404.69,-91.2"/>
</g>
<!-- 21 -->
<g id="node22" class="node">
<title>21</title>
<polygon fill="none" stroke="black" points="1784,-217 1593,-217 1593,-119 1784,-119 1784,-217"/>
<text text-anchor="middle" x="1688.5" y="-201.8" font-family="Times,serif" font-size="14.00">node #21</text>
<text text-anchor="middle" x="1688.5" y="-186.8" font-family="Times,serif" font-size="14.00">FVCPrePercent &lt;= 85.5</text>
<text text-anchor="middle" x="1688.5" y="-171.8" font-family="Times,serif" font-size="14.00">gini = 0.304</text>
<text text-anchor="middle" x="1688.5" y="-156.8" font-family="Times,serif" font-size="14.00">samples = 9</text>
<text text-anchor="middle" x="1688.5" y="-141.8" font-family="Times,serif" font-size="14.00">value = [2.879, 12.525]</text>
<text text-anchor="middle" x="1688.5" y="-126.8" font-family="Times,serif" font-size="14.00">class = Obstructive</text>
</g>
<!-- 20&#45;&gt;21 -->
<g id="edge21" class="edge">
<title>20&#45;&gt;21</title>
<path fill="none" stroke="black" d="M1688.5,-252.97C1688.5,-244.69 1688.5,-236 1688.5,-227.48"/>
<polygon fill="black" stroke="black" points="1692,-227.21 1688.5,-217.21 1685,-227.21 1692,-227.21"/>
</g>
<!-- 24 -->
<g id="node25" class="node">
<title>24</title>
<polygon fill="none" stroke="black" points="1990.5,-209.5 1802.5,-209.5 1802.5,-126.5 1990.5,-126.5 1990.5,-209.5"/>
<text text-anchor="middle" x="1896.5" y="-194.3" font-family="Times,serif" font-size="14.00">node #24</text>
<text text-anchor="middle" x="1896.5" y="-179.3" font-family="Times,serif" font-size="14.00">gini = &#45;0.0</text>
<text text-anchor="middle" x="1896.5" y="-164.3" font-family="Times,serif" font-size="14.00">samples = 11</text>
<text text-anchor="middle" x="1896.5" y="-149.3" font-family="Times,serif" font-size="14.00">value = [16.316, 0.0]</text>
<text text-anchor="middle" x="1896.5" y="-134.3" font-family="Times,serif" font-size="14.00">class = Non&#45;obstructive</text>
</g>
<!-- 20&#45;&gt;24 -->
<g id="edge24" class="edge">
<title>20&#45;&gt;24</title>
<path fill="none" stroke="black" d="M1764.18,-252.97C1783.71,-240.58 1804.68,-227.27 1824.04,-214.98"/>
<polygon fill="black" stroke="black" points="1825.95,-217.92 1832.52,-209.6 1822.2,-212.01 1825.95,-217.92"/>
</g>
<!-- 22 -->
<g id="node23" class="node">
<title>22</title>
<polygon fill="none" stroke="black" points="1771.5,-83 1595.5,-83 1595.5,0 1771.5,0 1771.5,-83"/>
<text text-anchor="middle" x="1683.5" y="-67.8" font-family="Times,serif" font-size="14.00">node #22</text>
<text text-anchor="middle" x="1683.5" y="-52.8" font-family="Times,serif" font-size="14.00">gini = 0.132</text>
<text text-anchor="middle" x="1683.5" y="-37.8" font-family="Times,serif" font-size="14.00">samples = 8</text>
<text text-anchor="middle" x="1683.5" y="-22.8" font-family="Times,serif" font-size="14.00">value = [0.96, 12.525]</text>
<text text-anchor="middle" x="1683.5" y="-7.8" font-family="Times,serif" font-size="14.00">class = Obstructive</text>
</g>
<!-- 21&#45;&gt;22 -->
<g id="edge22" class="edge">
<title>21&#45;&gt;22</title>
<path fill="none" stroke="black" d="M1686.57,-118.87C1686.23,-110.5 1685.88,-101.77 1685.54,-93.33"/>
<polygon fill="black" stroke="black" points="1689.03,-93.08 1685.14,-83.23 1682.04,-93.36 1689.03,-93.08"/>
</g>
<!-- 23 -->
<g id="node24" class="node">
<title>23</title>
<polygon fill="none" stroke="black" points="1977.5,-83 1789.5,-83 1789.5,0 1977.5,0 1977.5,-83"/>
<text text-anchor="middle" x="1883.5" y="-67.8" font-family="Times,serif" font-size="14.00">node #23</text>
<text text-anchor="middle" x="1883.5" y="-52.8" font-family="Times,serif" font-size="14.00">gini = 0.0</text>
<text text-anchor="middle" x="1883.5" y="-37.8" font-family="Times,serif" font-size="14.00">samples = 1</text>
<text text-anchor="middle" x="1883.5" y="-22.8" font-family="Times,serif" font-size="14.00">value = [1.92, 0.0]</text>
<text text-anchor="middle" x="1883.5" y="-7.8" font-family="Times,serif" font-size="14.00">class = Non&#45;obstructive</text>
</g>
<!-- 21&#45;&gt;23 -->
<g id="edge23" class="edge">
<title>21&#45;&gt;23</title>
<path fill="none" stroke="black" d="M1763.89,-118.87C1779.54,-108.88 1795.98,-98.38 1811.5,-88.47"/>
<polygon fill="black" stroke="black" points="1813.47,-91.36 1820.02,-83.03 1809.7,-85.46 1813.47,-91.36"/>
</g>
</g>
</svg>
