<?xml version="1.0" encoding="UTF-8" standalone="no"?>
<!DOCTYPE svg PUBLIC "-//W3C//DTD SVG 1.1//EN"
 "http://www.w3.org/Graphics/SVG/1.1/DTD/svg11.dtd">
<!-- Generated by graphviz version 2.43.0 (0)
 -->
<!-- Title: Tree Pages: 1 -->
<svg width="2346pt" height="627pt"
 viewBox="0.00 0.00 2346.00 627.00" xmlns="http://www.w3.org/2000/svg" xmlns:xlink="http://www.w3.org/1999/xlink">
<g id="graph0" class="graph" transform="scale(1 1) rotate(0) translate(4 623)">
<title>Tree</title>
<polygon fill="white" stroke="transparent" points="-4,4 -4,-623 2342,-623 2342,4 -4,4"/>
<!-- 0 -->
<g id="node1" class="node">
<title>0</title>
<polygon fill="none" stroke="black" points="1526.5,-619 1335.5,-619 1335.5,-521 1526.5,-521 1526.5,-619"/>
<text text-anchor="middle" x="1431" y="-603.8" font-family="Times,serif" font-size="14.00">node #0</text>
<text text-anchor="middle" x="1431" y="-588.8" font-family="Times,serif" font-size="14.00">FEFPrePercent &lt;= 67.5</text>
<text text-anchor="middle" x="1431" y="-573.8" font-family="Times,serif" font-size="14.00">gini = 0.5</text>
<text text-anchor="middle" x="1431" y="-558.8" font-family="Times,serif" font-size="14.00">samples = 209</text>
<text text-anchor="middle" x="1431" y="-543.8" font-family="Times,serif" font-size="14.00">value = [167.0, 167.0]</text>
<text text-anchor="middle" x="1431" y="-528.8" font-family="Times,serif" font-size="14.00">class = Obstructive</text>
</g>
<!-- 1 -->
<g id="node2" class="node">
<title>1</title>
<polygon fill="none" stroke="black" points="1243.5,-485 1040.5,-485 1040.5,-387 1243.5,-387 1243.5,-485"/>
<text text-anchor="middle" x="1142" y="-469.8" font-family="Times,serif" font-size="14.00">node #1</text>
<text text-anchor="middle" x="1142" y="-454.8" font-family="Times,serif" font-size="14.00">FEFPostVal &lt;= 1.3</text>
<text text-anchor="middle" x="1142" y="-439.8" font-family="Times,serif" font-size="14.00">gini = 0.377</text>
<text text-anchor="middle" x="1142" y="-424.8" font-family="Times,serif" font-size="14.00">samples = 136</text>
<text text-anchor="middle" x="1142" y="-409.8" font-family="Times,serif" font-size="14.00">value = [51.082, 151.726]</text>
<text text-anchor="middle" x="1142" y="-394.8" font-family="Times,serif" font-size="14.00">class = Obstructive</text>
</g>
<!-- 0&#45;&gt;1 -->
<g id="edge1" class="edge">
<title>0&#45;&gt;1</title>
<path fill="none" stroke="black" d="M1335.17,-525.23C1308.74,-513.16 1279.86,-499.97 1252.67,-487.55"/>
<polygon fill="black" stroke="black" points="1254.07,-484.34 1243.52,-483.37 1251.17,-490.71 1254.07,-484.34"/>
<text text-anchor="middle" x="1252.26" y="-503.09" font-family="Times,serif" font-size="14.00">True</text>
</g>
<!-- 16 -->
<g id="node17" class="node">
<title>16</title>
<polygon fill="none" stroke="black" points="1739.5,-485 1536.5,-485 1536.5,-387 1739.5,-387 1739.5,-485"/>
<text text-anchor="middle" x="1638" y="-469.8" font-family="Times,serif" font-size="14.00">node #16</text>
<text text-anchor="middle" x="1638" y="-454.8" font-family="Times,serif" font-size="14.00">FEFPrePercent &lt;= 82.5</text>
<text text-anchor="middle" x="1638" y="-439.8" font-family="Times,serif" font-size="14.00">gini = 0.206</text>
<text text-anchor="middle" x="1638" y="-424.8" font-family="Times,serif" font-size="14.00">samples = 73</text>
<text text-anchor="middle" x="1638" y="-409.8" font-family="Times,serif" font-size="14.00">value = [115.918, 15.274]</text>
<text text-anchor="middle" x="1638" y="-394.8" font-family="Times,serif" font-size="14.00">class = Non&#45;obstructive</text>
</g>
<!-- 0&#45;&gt;16 -->
<g id="edge16" class="edge">
<title>0&#45;&gt;16</title>
<path fill="none" stroke="black" d="M1506.32,-520.97C1521.73,-511.14 1538.04,-500.74 1553.74,-490.73"/>
<polygon fill="black" stroke="black" points="1555.84,-493.54 1562.39,-485.21 1552.08,-487.64 1555.84,-493.54"/>
<text text-anchor="middle" x="1556.99" y="-505.92" font-family="Times,serif" font-size="14.00">False</text>
</g>
<!-- 2 -->
<g id="node3" class="node">
<title>2</title>
<polygon fill="none" stroke="black" points="671.5,-351 468.5,-351 468.5,-253 671.5,-253 671.5,-351"/>
<text text-anchor="middle" x="570" y="-335.8" font-family="Times,serif" font-size="14.00">node #2</text>
<text text-anchor="middle" x="570" y="-320.8" font-family="Times,serif" font-size="14.00">FVCPostVal &lt;= 1.395</text>
<text text-anchor="middle" x="570" y="-305.8" font-family="Times,serif" font-size="14.00">gini = 0.175</text>
<text text-anchor="middle" x="570" y="-290.8" font-family="Times,serif" font-size="14.00">samples = 70</text>
<text text-anchor="middle" x="570" y="-275.8" font-family="Times,serif" font-size="14.00">value = [10.806, 100.811]</text>
<text text-anchor="middle" x="570" y="-260.8" font-family="Times,serif" font-size="14.00">class = Obstructive</text>
</g>
<!-- 1&#45;&gt;2 -->
<g id="edge2" class="edge">
<title>1&#45;&gt;2</title>
<path fill="none" stroke="black" d="M1040.4,-411.55C939.63,-388.3 785.63,-352.76 681.53,-328.74"/>
<polygon fill="black" stroke="black" points="682.15,-325.29 671.62,-326.45 680.58,-332.11 682.15,-325.29"/>
</g>
<!-- 9 -->
<g id="node10" class="node">
<title>9</title>
<polygon fill="none" stroke="black" points="1239,-351 1045,-351 1045,-253 1239,-253 1239,-351"/>
<text text-anchor="middle" x="1142" y="-335.8" font-family="Times,serif" font-size="14.00">node #9</text>
<text text-anchor="middle" x="1142" y="-320.8" font-family="Times,serif" font-size="14.00">FEV1PostVal &lt;= 1.68</text>
<text text-anchor="middle" x="1142" y="-305.8" font-family="Times,serif" font-size="14.00">gini = 0.493</text>
<text text-anchor="middle" x="1142" y="-290.8" font-family="Times,serif" font-size="14.00">samples = 66</text>
<text text-anchor="middle" x="1142" y="-275.8" font-family="Times,serif" font-size="14.00">value = [40.276, 50.915]</text>
<text text-anchor="middle" x="1142" y="-260.8" font-family="Times,serif" font-size="14.00">class = Obstructive</text>
</g>
<!-- 1&#45;&gt;9 -->
<g id="edge9" class="edge">
<title>1&#45;&gt;9</title>
<path fill="none" stroke="black" d="M1142,-386.97C1142,-378.69 1142,-370 1142,-361.48"/>
<polygon fill="black" stroke="black" points="1145.5,-361.21 1142,-351.21 1138.5,-361.21 1145.5,-361.21"/>
</g>
<!-- 3 -->
<g id="node4" class="node">
<title>3</title>
<polygon fill="none" stroke="black" points="362.5,-217 177.5,-217 177.5,-119 362.5,-119 362.5,-217"/>
<text text-anchor="middle" x="270" y="-201.8" font-family="Times,serif" font-size="14.00">node #3</text>
<text text-anchor="middle" x="270" y="-186.8" font-family="Times,serif" font-size="14.00">FEFPreVal &lt;= 0.36</text>
<text text-anchor="middle" x="270" y="-171.8" font-family="Times,serif" font-size="14.00">gini = 0.481</text>
<text text-anchor="middle" x="270" y="-156.8" font-family="Times,serif" font-size="14.00">samples = 12</text>
<text text-anchor="middle" x="270" y="-141.8" font-family="Times,serif" font-size="14.00">value = [6.876, 10.183]</text>
<text text-anchor="middle" x="270" y="-126.8" font-family="Times,serif" font-size="14.00">class = Obstructive</text>
</g>
<!-- 2&#45;&gt;3 -->
<g id="edge3" class="edge">
<title>2&#45;&gt;3</title>
<path fill="none" stroke="black" d="M468.43,-256.31C437.47,-242.69 403.42,-227.71 372.4,-214.06"/>
<polygon fill="black" stroke="black" points="373.44,-210.69 362.88,-209.87 370.62,-217.1 373.44,-210.69"/>
</g>
<!-- 6 -->
<g id="node7" class="node">
<title>6</title>
<polygon fill="none" stroke="black" points="668.5,-217 471.5,-217 471.5,-119 668.5,-119 668.5,-217"/>
<text text-anchor="middle" x="570" y="-201.8" font-family="Times,serif" font-size="14.00">node #6</text>
<text text-anchor="middle" x="570" y="-186.8" font-family="Times,serif" font-size="14.00">FEFPostPercent &lt;= 23.5</text>
<text text-anchor="middle" x="570" y="-171.8" font-family="Times,serif" font-size="14.00">gini = 0.08</text>
<text text-anchor="middle" x="570" y="-156.8" font-family="Times,serif" font-size="14.00">samples = 58</text>
<text text-anchor="middle" x="570" y="-141.8" font-family="Times,serif" font-size="14.00">value = [3.929, 90.628]</text>
<text text-anchor="middle" x="570" y="-126.8" font-family="Times,serif" font-size="14.00">class = Obstructive</text>
</g>
<!-- 2&#45;&gt;6 -->
<g id="edge6" class="edge">
<title>2&#45;&gt;6</title>
<path fill="none" stroke="black" d="M570,-252.97C570,-244.69 570,-236 570,-227.48"/>
<polygon fill="black" stroke="black" points="573.5,-227.21 570,-217.21 566.5,-227.21 573.5,-227.21"/>
</g>
<!-- 4 -->
<g id="node5" class="node">
<title>4</title>
<polygon fill="none" stroke="black" points="158,-83 0,-83 0,0 158,0 158,-83"/>
<text text-anchor="middle" x="79" y="-67.8" font-family="Times,serif" font-size="14.00">node #4</text>
<text text-anchor="middle" x="79" y="-52.8" font-family="Times,serif" font-size="14.00">gini = 0.0</text>
<text text-anchor="middle" x="79" y="-37.8" font-family="Times,serif" font-size="14.00">samples = 4</text>
<text text-anchor="middle" x="79" y="-22.8" font-family="Times,serif" font-size="14.00">value = [0.0, 8.146]</text>
<text text-anchor="middle" x="79" y="-7.8" font-family="Times,serif" font-size="14.00">class = Obstructive</text>
</g>
<!-- 3&#45;&gt;4 -->
<g id="edge4" class="edge">
<title>3&#45;&gt;4</title>
<path fill="none" stroke="black" d="M196.15,-118.87C180.97,-108.97 165.02,-98.57 149.95,-88.74"/>
<polygon fill="black" stroke="black" points="151.47,-85.56 141.18,-83.03 147.65,-91.43 151.47,-85.56"/>
</g>
<!-- 5 -->
<g id="node6" class="node">
<title>5</title>
<polygon fill="none" stroke="black" points="364,-83 176,-83 176,0 364,0 364,-83"/>
<text text-anchor="middle" x="270" y="-67.8" font-family="Times,serif" font-size="14.00">node #5</text>
<text text-anchor="middle" x="270" y="-52.8" font-family="Times,serif" font-size="14.00">gini = 0.353</text>
<text text-anchor="middle" x="270" y="-37.8" font-family="Times,serif" font-size="14.00">samples = 8</text>
<text text-anchor="middle" x="270" y="-22.8" font-family="Times,serif" font-size="14.00">value = [6.876, 2.037]</text>
<text text-anchor="middle" x="270" y="-7.8" font-family="Times,serif" font-size="14.00">class = Non&#45;obstructive</text>
</g>
<!-- 3&#45;&gt;5 -->
<g id="edge5" class="edge">
<title>3&#45;&gt;5</title>
<path fill="none" stroke="black" d="M270,-118.87C270,-110.5 270,-101.77 270,-93.33"/>
<polygon fill="black" stroke="black" points="273.5,-93.23 270,-83.23 266.5,-93.23 273.5,-93.23"/>
</g>
<!-- 7 -->
<g id="node8" class="node">
<title>7</title>
<polygon fill="none" stroke="black" points="549.5,-83 382.5,-83 382.5,0 549.5,0 549.5,-83"/>
<text text-anchor="middle" x="466" y="-67.8" font-family="Times,serif" font-size="14.00">node #7</text>
<text text-anchor="middle" x="466" y="-52.8" font-family="Times,serif" font-size="14.00">gini = &#45;0.0</text>
<text text-anchor="middle" x="466" y="-37.8" font-family="Times,serif" font-size="14.00">samples = 39</text>
<text text-anchor="middle" x="466" y="-22.8" font-family="Times,serif" font-size="14.00">value = [0.0, 67.207]</text>
<text text-anchor="middle" x="466" y="-7.8" font-family="Times,serif" font-size="14.00">class = Obstructive</text>
</g>
<!-- 6&#45;&gt;7 -->
<g id="edge7" class="edge">
<title>6&#45;&gt;7</title>
<path fill="none" stroke="black" d="M529.79,-118.87C522.19,-109.76 514.23,-100.23 506.61,-91.12"/>
<polygon fill="black" stroke="black" points="509.12,-88.66 500.02,-83.23 503.75,-93.15 509.12,-88.66"/>
</g>
<!-- 8 -->
<g id="node9" class="node">
<title>8</title>
<polygon fill="none" stroke="black" points="752.5,-83 567.5,-83 567.5,0 752.5,0 752.5,-83"/>
<text text-anchor="middle" x="660" y="-67.8" font-family="Times,serif" font-size="14.00">node #8</text>
<text text-anchor="middle" x="660" y="-52.8" font-family="Times,serif" font-size="14.00">gini = 0.246</text>
<text text-anchor="middle" x="660" y="-37.8" font-family="Times,serif" font-size="14.00">samples = 19</text>
<text text-anchor="middle" x="660" y="-22.8" font-family="Times,serif" font-size="14.00">value = [3.929, 23.421]</text>
<text text-anchor="middle" x="660" y="-7.8" font-family="Times,serif" font-size="14.00">class = Obstructive</text>
</g>
<!-- 6&#45;&gt;8 -->
<g id="edge8" class="edge">
<title>6&#45;&gt;8</title>
<path fill="none" stroke="black" d="M604.8,-118.87C611.31,-109.85 618.13,-100.43 624.66,-91.39"/>
<polygon fill="black" stroke="black" points="627.53,-93.39 630.56,-83.23 621.86,-89.28 627.53,-93.39"/>
</g>
<!-- 10 -->
<g id="node11" class="node">
<title>10</title>
<polygon fill="none" stroke="black" points="1132.5,-217 941.5,-217 941.5,-119 1132.5,-119 1132.5,-217"/>
<text text-anchor="middle" x="1037" y="-201.8" font-family="Times,serif" font-size="14.00">node #10</text>
<text text-anchor="middle" x="1037" y="-186.8" font-family="Times,serif" font-size="14.00">FEFPrePercent &lt;= 29.5</text>
<text text-anchor="middle" x="1037" y="-171.8" font-family="Times,serif" font-size="14.00">gini = 0.251</text>
<text text-anchor="middle" x="1037" y="-156.8" font-family="Times,serif" font-size="14.00">samples = 24</text>
<text text-anchor="middle" x="1037" y="-141.8" font-family="Times,serif" font-size="14.00">value = [29.471, 5.091]</text>
<text text-anchor="middle" x="1037" y="-126.8" font-family="Times,serif" font-size="14.00">class = Non&#45;obstructive</text>
</g>
<!-- 9&#45;&gt;10 -->
<g id="edge10" class="edge">
<title>9&#45;&gt;10</title>
<path fill="none" stroke="black" d="M1103.8,-252.97C1096.63,-243.96 1089.08,-234.47 1081.74,-225.24"/>
<polygon fill="black" stroke="black" points="1084.32,-222.86 1075.35,-217.21 1078.84,-227.22 1084.32,-222.86"/>
</g>
<!-- 13 -->
<g id="node14" class="node">
<title>13</title>
<polygon fill="none" stroke="black" points="1345,-217 1151,-217 1151,-119 1345,-119 1345,-217"/>
<text text-anchor="middle" x="1248" y="-201.8" font-family="Times,serif" font-size="14.00">node #13</text>
<text text-anchor="middle" x="1248" y="-186.8" font-family="Times,serif" font-size="14.00">FEFPostVal &lt;= 3.16</text>
<text text-anchor="middle" x="1248" y="-171.8" font-family="Times,serif" font-size="14.00">gini = 0.309</text>
<text text-anchor="middle" x="1248" y="-156.8" font-family="Times,serif" font-size="14.00">samples = 42</text>
<text text-anchor="middle" x="1248" y="-141.8" font-family="Times,serif" font-size="14.00">value = [10.806, 45.823]</text>
<text text-anchor="middle" x="1248" y="-126.8" font-family="Times,serif" font-size="14.00">class = Obstructive</text>
</g>
<!-- 9&#45;&gt;13 -->
<g id="edge13" class="edge">
<title>9&#45;&gt;13</title>
<path fill="none" stroke="black" d="M1180.57,-252.97C1187.8,-243.96 1195.42,-234.47 1202.84,-225.24"/>
<polygon fill="black" stroke="black" points="1205.75,-227.2 1209.28,-217.21 1200.29,-222.82 1205.75,-227.2"/>
</g>
<!-- 11 -->
<g id="node12" class="node">
<title>11</title>
<polygon fill="none" stroke="black" points="928,-83 770,-83 770,0 928,0 928,-83"/>
<text text-anchor="middle" x="849" y="-67.8" font-family="Times,serif" font-size="14.00">node #11</text>
<text text-anchor="middle" x="849" y="-52.8" font-family="Times,serif" font-size="14.00">gini = 0.0</text>
<text text-anchor="middle" x="849" y="-37.8" font-family="Times,serif" font-size="14.00">samples = 1</text>
<text text-anchor="middle" x="849" y="-22.8" font-family="Times,serif" font-size="14.00">value = [0.0, 2.037]</text>
<text text-anchor="middle" x="849" y="-7.8" font-family="Times,serif" font-size="14.00">class = Obstructive</text>
</g>
<!-- 10&#45;&gt;11 -->
<g id="edge11" class="edge">
<title>10&#45;&gt;11</title>
<path fill="none" stroke="black" d="M964.31,-118.87C949.37,-108.97 933.67,-98.57 918.83,-88.74"/>
<polygon fill="black" stroke="black" points="920.48,-85.64 910.21,-83.03 916.61,-91.47 920.48,-85.64"/>
</g>
<!-- 12 -->
<g id="node13" class="node">
<title>12</title>
<polygon fill="none" stroke="black" points="1134,-83 946,-83 946,0 1134,0 1134,-83"/>
<text text-anchor="middle" x="1040" y="-67.8" font-family="Times,serif" font-size="14.00">node #12</text>
<text text-anchor="middle" x="1040" y="-52.8" font-family="Times,serif" font-size="14.00">gini = 0.17</text>
<text text-anchor="middle" x="1040" y="-37.8" font-family="Times,serif" font-size="14.00">samples = 23</text>
<text text-anchor="middle" x="1040" y="-22.8" font-family="Times,serif" font-size="14.00">value = [29.471, 3.055]</text>
<text text-anchor="middle" x="1040" y="-7.8" font-family="Times,serif" font-size="14.00">class = Non&#45;obstructive</text>
</g>
<!-- 10&#45;&gt;12 -->
<g id="edge12" class="edge">
<title>10&#45;&gt;12</title>
<path fill="none" stroke="black" d="M1038.16,-118.87C1038.36,-110.5 1038.57,-101.77 1038.78,-93.33"/>
<polygon fill="black" stroke="black" points="1042.28,-93.31 1039.02,-83.23 1035.28,-93.14 1042.28,-93.31"/>
</g>
<!-- 14 -->
<g id="node15" class="node">
<title>14</title>
<polygon fill="none" stroke="black" points="1337.5,-83 1152.5,-83 1152.5,0 1337.5,0 1337.5,-83"/>
<text text-anchor="middle" x="1245" y="-67.8" font-family="Times,serif" font-size="14.00">node #14</text>
<text text-anchor="middle" x="1245" y="-52.8" font-family="Times,serif" font-size="14.00">gini = 0.254</text>
<text text-anchor="middle" x="1245" y="-37.8" font-family="Times,serif" font-size="14.00">samples = 39</text>
<text text-anchor="middle" x="1245" y="-22.8" font-family="Times,serif" font-size="14.00">value = [7.859, 44.805]</text>
<text text-anchor="middle" x="1245" y="-7.8" font-family="Times,serif" font-size="14.00">class = Obstructive</text>
</g>
<!-- 13&#45;&gt;14 -->
<g id="edge14" class="edge">
<title>13&#45;&gt;14</title>
<path fill="none" stroke="black" d="M1246.84,-118.87C1246.64,-110.5 1246.43,-101.77 1246.22,-93.33"/>
<polygon fill="black" stroke="black" points="1249.72,-93.14 1245.98,-83.23 1242.72,-93.31 1249.72,-93.14"/>
</g>
<!-- 15 -->
<g id="node16" class="node">
<title>15</title>
<polygon fill="none" stroke="black" points="1544,-83 1356,-83 1356,0 1544,0 1544,-83"/>
<text text-anchor="middle" x="1450" y="-67.8" font-family="Times,serif" font-size="14.00">node #15</text>
<text text-anchor="middle" x="1450" y="-52.8" font-family="Times,serif" font-size="14.00">gini = 0.382</text>
<text text-anchor="middle" x="1450" y="-37.8" font-family="Times,serif" font-size="14.00">samples = 3</text>
<text text-anchor="middle" x="1450" y="-22.8" font-family="Times,serif" font-size="14.00">value = [2.947, 1.018]</text>
<text text-anchor="middle" x="1450" y="-7.8" font-family="Times,serif" font-size="14.00">class = Non&#45;obstructive</text>
</g>
<!-- 13&#45;&gt;15 -->
<g id="edge15" class="edge">
<title>13&#45;&gt;15</title>
<path fill="none" stroke="black" d="M1326.1,-118.87C1342.3,-108.88 1359.34,-98.38 1375.42,-88.47"/>
<polygon fill="black" stroke="black" points="1377.56,-91.26 1384.24,-83.03 1373.89,-85.3 1377.56,-91.26"/>
</g>
<!-- 17 -->
<g id="node18" class="node">
<title>17</title>
<polygon fill="none" stroke="black" points="1735,-351 1541,-351 1541,-253 1735,-253 1735,-351"/>
<text text-anchor="middle" x="1638" y="-335.8" font-family="Times,serif" font-size="14.00">node #17</text>
<text text-anchor="middle" x="1638" y="-320.8" font-family="Times,serif" font-size="14.00">FVCPostVal &lt;= 1.8</text>
<text text-anchor="middle" x="1638" y="-305.8" font-family="Times,serif" font-size="14.00">gini = 0.461</text>
<text text-anchor="middle" x="1638" y="-290.8" font-family="Times,serif" font-size="14.00">samples = 20</text>
<text text-anchor="middle" x="1638" y="-275.8" font-family="Times,serif" font-size="14.00">value = [23.576, 13.238]</text>
<text text-anchor="middle" x="1638" y="-260.8" font-family="Times,serif" font-size="14.00">class = Non&#45;obstructive</text>
</g>
<!-- 16&#45;&gt;17 -->
<g id="edge17" class="edge">
<title>16&#45;&gt;17</title>
<path fill="none" stroke="black" d="M1638,-386.97C1638,-378.69 1638,-370 1638,-361.48"/>
<polygon fill="black" stroke="black" points="1641.5,-361.21 1638,-351.21 1634.5,-361.21 1641.5,-361.21"/>
</g>
<!-- 22 -->
<g id="node23" class="node">
<title>22</title>
<polygon fill="none" stroke="black" points="2132,-351 1944,-351 1944,-253 2132,-253 2132,-351"/>
<text text-anchor="middle" x="2038" y="-335.8" font-family="Times,serif" font-size="14.00">node #22</text>
<text text-anchor="middle" x="2038" y="-320.8" font-family="Times,serif" font-size="14.00">FVCPostVal &lt;= 3.685</text>
<text text-anchor="middle" x="2038" y="-305.8" font-family="Times,serif" font-size="14.00">gini = 0.042</text>
<text text-anchor="middle" x="2038" y="-290.8" font-family="Times,serif" font-size="14.00">samples = 53</text>
<text text-anchor="middle" x="2038" y="-275.8" font-family="Times,serif" font-size="14.00">value = [92.341, 2.037]</text>
<text text-anchor="middle" x="2038" y="-260.8" font-family="Times,serif" font-size="14.00">class = Non&#45;obstructive</text>
</g>
<!-- 16&#45;&gt;22 -->
<g id="edge22" class="edge">
<title>16&#45;&gt;22</title>
<path fill="none" stroke="black" d="M1739.71,-401.43C1799.24,-381.79 1874.23,-357.04 1934.12,-337.28"/>
<polygon fill="black" stroke="black" points="1935.58,-340.48 1943.98,-334.03 1933.39,-333.84 1935.58,-340.48"/>
</g>
<!-- 18 -->
<g id="node19" class="node">
<title>18</title>
<polygon fill="none" stroke="black" points="1627,-209.5 1439,-209.5 1439,-126.5 1627,-126.5 1627,-209.5"/>
<text text-anchor="middle" x="1533" y="-194.3" font-family="Times,serif" font-size="14.00">node #18</text>
<text text-anchor="middle" x="1533" y="-179.3" font-family="Times,serif" font-size="14.00">gini = 0.0</text>
<text text-anchor="middle" x="1533" y="-164.3" font-family="Times,serif" font-size="14.00">samples = 9</text>
<text text-anchor="middle" x="1533" y="-149.3" font-family="Times,serif" font-size="14.00">value = [14.735, 0.0]</text>
<text text-anchor="middle" x="1533" y="-134.3" font-family="Times,serif" font-size="14.00">class = Non&#45;obstructive</text>
</g>
<!-- 17&#45;&gt;18 -->
<g id="edge18" class="edge">
<title>17&#45;&gt;18</title>
<path fill="none" stroke="black" d="M1599.8,-252.97C1590.65,-241.47 1580.87,-229.18 1571.7,-217.66"/>
<polygon fill="black" stroke="black" points="1574.43,-215.46 1565.47,-209.82 1568.95,-219.82 1574.43,-215.46"/>
</g>
<!-- 19 -->
<g id="node20" class="node">
<title>19</title>
<polygon fill="none" stroke="black" points="1842.5,-217 1645.5,-217 1645.5,-119 1842.5,-119 1842.5,-217"/>
<text text-anchor="middle" x="1744" y="-201.8" font-family="Times,serif" font-size="14.00">node #19</text>
<text text-anchor="middle" x="1744" y="-186.8" font-family="Times,serif" font-size="14.00">FEFPostPercent &lt;= 76.0</text>
<text text-anchor="middle" x="1744" y="-171.8" font-family="Times,serif" font-size="14.00">gini = 0.48</text>
<text text-anchor="middle" x="1744" y="-156.8" font-family="Times,serif" font-size="14.00">samples = 11</text>
<text text-anchor="middle" x="1744" y="-141.8" font-family="Times,serif" font-size="14.00">value = [8.841, 13.238]</text>
<text text-anchor="middle" x="1744" y="-126.8" font-family="Times,serif" font-size="14.00">class = Obstructive</text>
</g>
<!-- 17&#45;&gt;19 -->
<g id="edge19" class="edge">
<title>17&#45;&gt;19</title>
<path fill="none" stroke="black" d="M1676.57,-252.97C1683.8,-243.96 1691.42,-234.47 1698.84,-225.24"/>
<polygon fill="black" stroke="black" points="1701.75,-227.2 1705.28,-217.21 1696.29,-222.82 1701.75,-227.2"/>
</g>
<!-- 20 -->
<g id="node21" class="node">
<title>20</title>
<polygon fill="none" stroke="black" points="1720,-83 1562,-83 1562,0 1720,0 1720,-83"/>
<text text-anchor="middle" x="1641" y="-67.8" font-family="Times,serif" font-size="14.00">node #20</text>
<text text-anchor="middle" x="1641" y="-52.8" font-family="Times,serif" font-size="14.00">gini = 0.0</text>
<text text-anchor="middle" x="1641" y="-37.8" font-family="Times,serif" font-size="14.00">samples = 3</text>
<text text-anchor="middle" x="1641" y="-22.8" font-family="Times,serif" font-size="14.00">value = [0.0, 7.128]</text>
<text text-anchor="middle" x="1641" y="-7.8" font-family="Times,serif" font-size="14.00">class = Obstructive</text>
</g>
<!-- 19&#45;&gt;20 -->
<g id="edge20" class="edge">
<title>19&#45;&gt;20</title>
<path fill="none" stroke="black" d="M1704.18,-118.87C1696.65,-109.76 1688.76,-100.23 1681.22,-91.12"/>
<polygon fill="black" stroke="black" points="1683.77,-88.7 1674.7,-83.23 1678.37,-93.17 1683.77,-88.7"/>
</g>
<!-- 21 -->
<g id="node22" class="node">
<title>21</title>
<polygon fill="none" stroke="black" points="1926,-83 1738,-83 1738,0 1926,0 1926,-83"/>
<text text-anchor="middle" x="1832" y="-67.8" font-family="Times,serif" font-size="14.00">node #21</text>
<text text-anchor="middle" x="1832" y="-52.8" font-family="Times,serif" font-size="14.00">gini = 0.483</text>
<text text-anchor="middle" x="1832" y="-37.8" font-family="Times,serif" font-size="14.00">samples = 8</text>
<text text-anchor="middle" x="1832" y="-22.8" font-family="Times,serif" font-size="14.00">value = [8.841, 6.11]</text>
<text text-anchor="middle" x="1832" y="-7.8" font-family="Times,serif" font-size="14.00">class = Non&#45;obstructive</text>
</g>
<!-- 19&#45;&gt;21 -->
<g id="edge21" class="edge">
<title>19&#45;&gt;21</title>
<path fill="none" stroke="black" d="M1778.02,-118.87C1784.33,-109.95 1790.92,-100.62 1797.25,-91.67"/>
<polygon fill="black" stroke="black" points="1800.3,-93.42 1803.21,-83.23 1794.58,-89.38 1800.3,-93.42"/>
</g>
<!-- 23 -->
<g id="node24" class="node">
<title>23</title>
<polygon fill="none" stroke="black" points="2136.5,-217 1939.5,-217 1939.5,-119 2136.5,-119 2136.5,-217"/>
<text text-anchor="middle" x="2038" y="-201.8" font-family="Times,serif" font-size="14.00">node #23</text>
<text text-anchor="middle" x="2038" y="-186.8" font-family="Times,serif" font-size="14.00">FVCPostPercent &lt;= 77.5</text>
<text text-anchor="middle" x="2038" y="-171.8" font-family="Times,serif" font-size="14.00">gini = 0.022</text>
<text text-anchor="middle" x="2038" y="-156.8" font-family="Times,serif" font-size="14.00">samples = 52</text>
<text text-anchor="middle" x="2038" y="-141.8" font-family="Times,serif" font-size="14.00">value = [92.341, 1.018]</text>
<text text-anchor="middle" x="2038" y="-126.8" font-family="Times,serif" font-size="14.00">class = Non&#45;obstructive</text>
</g>
<!-- 22&#45;&gt;23 -->
<g id="edge23" class="edge">
<title>22&#45;&gt;23</title>
<path fill="none" stroke="black" d="M2038,-252.97C2038,-244.69 2038,-236 2038,-227.48"/>
<polygon fill="black" stroke="black" points="2041.5,-227.21 2038,-217.21 2034.5,-227.21 2041.5,-227.21"/>
</g>
<!-- 26 -->
<g id="node27" class="node">
<title>26</title>
<polygon fill="none" stroke="black" points="2313,-209.5 2155,-209.5 2155,-126.5 2313,-126.5 2313,-209.5"/>
<text text-anchor="middle" x="2234" y="-194.3" font-family="Times,serif" font-size="14.00">node #26</text>
<text text-anchor="middle" x="2234" y="-179.3" font-family="Times,serif" font-size="14.00">gini = &#45;0.0</text>
<text text-anchor="middle" x="2234" y="-164.3" font-family="Times,serif" font-size="14.00">samples = 1</text>
<text text-anchor="middle" x="2234" y="-149.3" font-family="Times,serif" font-size="14.00">value = [0.0, 1.018]</text>
<text text-anchor="middle" x="2234" y="-134.3" font-family="Times,serif" font-size="14.00">class = Obstructive</text>
</g>
<!-- 22&#45;&gt;26 -->
<g id="edge26" class="edge">
<title>22&#45;&gt;26</title>
<path fill="none" stroke="black" d="M2109.31,-252.97C2127.47,-240.75 2146.95,-227.63 2164.98,-215.48"/>
<polygon fill="black" stroke="black" points="2167.37,-218.09 2173.71,-209.6 2163.46,-212.29 2167.37,-218.09"/>
</g>
<!-- 24 -->
<g id="node25" class="node">
<title>24</title>
<polygon fill="none" stroke="black" points="2132,-83 1944,-83 1944,0 2132,0 2132,-83"/>
<text text-anchor="middle" x="2038" y="-67.8" font-family="Times,serif" font-size="14.00">node #24</text>
<text text-anchor="middle" x="2038" y="-52.8" font-family="Times,serif" font-size="14.00">gini = 0.0</text>
<text text-anchor="middle" x="2038" y="-37.8" font-family="Times,serif" font-size="14.00">samples = 41</text>
<text text-anchor="middle" x="2038" y="-22.8" font-family="Times,serif" font-size="14.00">value = [70.729, 0.0]</text>
<text text-anchor="middle" x="2038" y="-7.8" font-family="Times,serif" font-size="14.00">class = Non&#45;obstructive</text>
</g>
<!-- 23&#45;&gt;24 -->
<g id="edge24" class="edge">
<title>23&#45;&gt;24</title>
<path fill="none" stroke="black" d="M2038,-118.87C2038,-110.5 2038,-101.77 2038,-93.33"/>
<polygon fill="black" stroke="black" points="2041.5,-93.23 2038,-83.23 2034.5,-93.23 2041.5,-93.23"/>
</g>
<!-- 25 -->
<g id="node26" class="node">
<title>25</title>
<polygon fill="none" stroke="black" points="2338,-83 2150,-83 2150,0 2338,0 2338,-83"/>
<text text-anchor="middle" x="2244" y="-67.8" font-family="Times,serif" font-size="14.00">node #25</text>
<text text-anchor="middle" x="2244" y="-52.8" font-family="Times,serif" font-size="14.00">gini = 0.086</text>
<text text-anchor="middle" x="2244" y="-37.8" font-family="Times,serif" font-size="14.00">samples = 11</text>
<text text-anchor="middle" x="2244" y="-22.8" font-family="Times,serif" font-size="14.00">value = [21.612, 1.018]</text>
<text text-anchor="middle" x="2244" y="-7.8" font-family="Times,serif" font-size="14.00">class = Non&#45;obstructive</text>
</g>
<!-- 23&#45;&gt;25 -->
<g id="edge25" class="edge">
<title>23&#45;&gt;25</title>
<path fill="none" stroke="black" d="M2117.64,-118.87C2134.17,-108.88 2151.54,-98.38 2167.94,-88.47"/>
<polygon fill="black" stroke="black" points="2170.19,-91.2 2176.93,-83.03 2166.57,-85.21 2170.19,-91.2"/>
</g>
</g>
</svg>
