<?xml version="1.0" encoding="UTF-8" standalone="no"?>
<!DOCTYPE svg PUBLIC "-//W3C//DTD SVG 1.1//EN"
 "http://www.w3.org/Graphics/SVG/1.1/DTD/svg11.dtd">
<!-- Generated by graphviz version 2.43.0 (0)
 -->
<!-- Title: Tree Pages: 1 -->
<svg width="2566pt" height="627pt"
 viewBox="0.00 0.00 2566.00 627.00" xmlns="http://www.w3.org/2000/svg" xmlns:xlink="http://www.w3.org/1999/xlink">
<g id="graph0" class="graph" transform="scale(1 1) rotate(0) translate(4 623)">
<title>Tree</title>
<polygon fill="white" stroke="transparent" points="-4,4 -4,-623 2562,-623 2562,4 -4,4"/>
<!-- 0 -->
<g id="node1" class="node">
<title>0</title>
<polygon fill="none" stroke="black" points="1675.5,-619 1484.5,-619 1484.5,-521 1675.5,-521 1675.5,-619"/>
<text text-anchor="middle" x="1580" y="-603.8" font-family="Times,serif" font-size="14.00">node #0</text>
<text text-anchor="middle" x="1580" y="-588.8" font-family="Times,serif" font-size="14.00">FEFPrePercent &lt;= 67.5</text>
<text text-anchor="middle" x="1580" y="-573.8" font-family="Times,serif" font-size="14.00">gini = 0.5</text>
<text text-anchor="middle" x="1580" y="-558.8" font-family="Times,serif" font-size="14.00">samples = 216</text>
<text text-anchor="middle" x="1580" y="-543.8" font-family="Times,serif" font-size="14.00">value = [167.0, 167.0]</text>
<text text-anchor="middle" x="1580" y="-528.8" font-family="Times,serif" font-size="14.00">class = Obstructive</text>
</g>
<!-- 1 -->
<g id="node2" class="node">
<title>1</title>
<polygon fill="none" stroke="black" points="1267.5,-485 1064.5,-485 1064.5,-387 1267.5,-387 1267.5,-485"/>
<text text-anchor="middle" x="1166" y="-469.8" font-family="Times,serif" font-size="14.00">node #1</text>
<text text-anchor="middle" x="1166" y="-454.8" font-family="Times,serif" font-size="14.00">FEFPostPercent &lt;= 24.5</text>
<text text-anchor="middle" x="1166" y="-439.8" font-family="Times,serif" font-size="14.00">gini = 0.418</text>
<text text-anchor="middle" x="1166" y="-424.8" font-family="Times,serif" font-size="14.00">samples = 139</text>
<text text-anchor="middle" x="1166" y="-409.8" font-family="Times,serif" font-size="14.00">value = [64.835, 152.744]</text>
<text text-anchor="middle" x="1166" y="-394.8" font-family="Times,serif" font-size="14.00">class = Obstructive</text>
</g>
<!-- 0&#45;&gt;1 -->
<g id="edge1" class="edge">
<title>0&#45;&gt;1</title>
<path fill="none" stroke="black" d="M1484.24,-538.47C1422.56,-518.8 1342.14,-493.16 1277.58,-472.58"/>
<polygon fill="black" stroke="black" points="1278.36,-469.15 1267.76,-469.45 1276.23,-475.82 1278.36,-469.15"/>
<text text-anchor="middle" x="1279.24" y="-487.96" font-family="Times,serif" font-size="14.00">True</text>
</g>
<!-- 16 -->
<g id="node17" class="node">
<title>16</title>
<polygon fill="none" stroke="black" points="2074.5,-485 1871.5,-485 1871.5,-387 2074.5,-387 2074.5,-485"/>
<text text-anchor="middle" x="1973" y="-469.8" font-family="Times,serif" font-size="14.00">node #16</text>
<text text-anchor="middle" x="1973" y="-454.8" font-family="Times,serif" font-size="14.00">FVCPreVal &lt;= 3.31</text>
<text text-anchor="middle" x="1973" y="-439.8" font-family="Times,serif" font-size="14.00">gini = 0.215</text>
<text text-anchor="middle" x="1973" y="-424.8" font-family="Times,serif" font-size="14.00">samples = 77</text>
<text text-anchor="middle" x="1973" y="-409.8" font-family="Times,serif" font-size="14.00">value = [102.165, 14.256]</text>
<text text-anchor="middle" x="1973" y="-394.8" font-family="Times,serif" font-size="14.00">class = Non&#45;obstructive</text>
</g>
<!-- 0&#45;&gt;16 -->
<g id="edge16" class="edge">
<title>0&#45;&gt;16</title>
<path fill="none" stroke="black" d="M1675.64,-536.88C1731.81,-518.01 1803.07,-494.08 1861.75,-474.37"/>
<polygon fill="black" stroke="black" points="1863.06,-477.62 1871.43,-471.12 1860.83,-470.98 1863.06,-477.62"/>
<text text-anchor="middle" x="1860.3" y="-489.8" font-family="Times,serif" font-size="14.00">False</text>
</g>
<!-- 2 -->
<g id="node3" class="node">
<title>2</title>
<polygon fill="none" stroke="black" points="680.5,-351 483.5,-351 483.5,-253 680.5,-253 680.5,-351"/>
<text text-anchor="middle" x="582" y="-335.8" font-family="Times,serif" font-size="14.00">node #2</text>
<text text-anchor="middle" x="582" y="-320.8" font-family="Times,serif" font-size="14.00">FVCPostPercent &lt;= 37.5</text>
<text text-anchor="middle" x="582" y="-305.8" font-family="Times,serif" font-size="14.00">gini = 0.1</text>
<text text-anchor="middle" x="582" y="-290.8" font-family="Times,serif" font-size="14.00">samples = 47</text>
<text text-anchor="middle" x="582" y="-275.8" font-family="Times,serif" font-size="14.00">value = [3.929, 70.262]</text>
<text text-anchor="middle" x="582" y="-260.8" font-family="Times,serif" font-size="14.00">class = Obstructive</text>
</g>
<!-- 1&#45;&gt;2 -->
<g id="edge2" class="edge">
<title>1&#45;&gt;2</title>
<path fill="none" stroke="black" d="M1064.27,-412.01C959.7,-388.37 797.45,-351.7 690.47,-327.52"/>
<polygon fill="black" stroke="black" points="691.14,-324.08 680.61,-325.29 689.6,-330.91 691.14,-324.08"/>
</g>
<!-- 9 -->
<g id="node10" class="node">
<title>9</title>
<polygon fill="none" stroke="black" points="1264.5,-351 1067.5,-351 1067.5,-253 1264.5,-253 1264.5,-351"/>
<text text-anchor="middle" x="1166" y="-335.8" font-family="Times,serif" font-size="14.00">node #9</text>
<text text-anchor="middle" x="1166" y="-320.8" font-family="Times,serif" font-size="14.00">FVCPostPercent &lt;= 62.5</text>
<text text-anchor="middle" x="1166" y="-305.8" font-family="Times,serif" font-size="14.00">gini = 0.489</text>
<text text-anchor="middle" x="1166" y="-290.8" font-family="Times,serif" font-size="14.00">samples = 92</text>
<text text-anchor="middle" x="1166" y="-275.8" font-family="Times,serif" font-size="14.00">value = [60.906, 82.482]</text>
<text text-anchor="middle" x="1166" y="-260.8" font-family="Times,serif" font-size="14.00">class = Obstructive</text>
</g>
<!-- 1&#45;&gt;9 -->
<g id="edge9" class="edge">
<title>1&#45;&gt;9</title>
<path fill="none" stroke="black" d="M1166,-386.97C1166,-378.69 1166,-370 1166,-361.48"/>
<polygon fill="black" stroke="black" points="1169.5,-361.21 1166,-351.21 1162.5,-361.21 1169.5,-361.21"/>
</g>
<!-- 3 -->
<g id="node4" class="node">
<title>3</title>
<polygon fill="none" stroke="black" points="379,-217 191,-217 191,-119 379,-119 379,-217"/>
<text text-anchor="middle" x="285" y="-201.8" font-family="Times,serif" font-size="14.00">node #3</text>
<text text-anchor="middle" x="285" y="-186.8" font-family="Times,serif" font-size="14.00">FVCPostVal &lt;= 1.04</text>
<text text-anchor="middle" x="285" y="-171.8" font-family="Times,serif" font-size="14.00">gini = 0.483</text>
<text text-anchor="middle" x="285" y="-156.8" font-family="Times,serif" font-size="14.00">samples = 2</text>
<text text-anchor="middle" x="285" y="-141.8" font-family="Times,serif" font-size="14.00">value = [2.947, 2.037]</text>
<text text-anchor="middle" x="285" y="-126.8" font-family="Times,serif" font-size="14.00">class = Non&#45;obstructive</text>
</g>
<!-- 2&#45;&gt;3 -->
<g id="edge3" class="edge">
<title>2&#45;&gt;3</title>
<path fill="none" stroke="black" d="M483.1,-257.05C452.75,-243.55 419.27,-228.67 388.61,-215.05"/>
<polygon fill="black" stroke="black" points="389.75,-211.72 379.19,-210.86 386.9,-218.12 389.75,-211.72"/>
</g>
<!-- 6 -->
<g id="node7" class="node">
<title>6</title>
<polygon fill="none" stroke="black" points="686.5,-217 477.5,-217 477.5,-119 686.5,-119 686.5,-217"/>
<text text-anchor="middle" x="582" y="-201.8" font-family="Times,serif" font-size="14.00">node #6</text>
<text text-anchor="middle" x="582" y="-186.8" font-family="Times,serif" font-size="14.00">FEFPrePercent &lt;= 34.275</text>
<text text-anchor="middle" x="582" y="-171.8" font-family="Times,serif" font-size="14.00">gini = 0.028</text>
<text text-anchor="middle" x="582" y="-156.8" font-family="Times,serif" font-size="14.00">samples = 45</text>
<text text-anchor="middle" x="582" y="-141.8" font-family="Times,serif" font-size="14.00">value = [0.982, 68.226]</text>
<text text-anchor="middle" x="582" y="-126.8" font-family="Times,serif" font-size="14.00">class = Obstructive</text>
</g>
<!-- 2&#45;&gt;6 -->
<g id="edge6" class="edge">
<title>2&#45;&gt;6</title>
<path fill="none" stroke="black" d="M582,-252.97C582,-244.69 582,-236 582,-227.48"/>
<polygon fill="black" stroke="black" points="585.5,-227.21 582,-217.21 578.5,-227.21 585.5,-227.21"/>
</g>
<!-- 4 -->
<g id="node5" class="node">
<title>4</title>
<polygon fill="none" stroke="black" points="188,-83 0,-83 0,0 188,0 188,-83"/>
<text text-anchor="middle" x="94" y="-67.8" font-family="Times,serif" font-size="14.00">node #4</text>
<text text-anchor="middle" x="94" y="-52.8" font-family="Times,serif" font-size="14.00">gini = 0.0</text>
<text text-anchor="middle" x="94" y="-37.8" font-family="Times,serif" font-size="14.00">samples = 1</text>
<text text-anchor="middle" x="94" y="-22.8" font-family="Times,serif" font-size="14.00">value = [2.947, 0.0]</text>
<text text-anchor="middle" x="94" y="-7.8" font-family="Times,serif" font-size="14.00">class = Non&#45;obstructive</text>
</g>
<!-- 3&#45;&gt;4 -->
<g id="edge4" class="edge">
<title>3&#45;&gt;4</title>
<path fill="none" stroke="black" d="M211.15,-118.87C195.97,-108.97 180.02,-98.57 164.95,-88.74"/>
<polygon fill="black" stroke="black" points="166.47,-85.56 156.18,-83.03 162.65,-91.43 166.47,-85.56"/>
</g>
<!-- 5 -->
<g id="node6" class="node">
<title>5</title>
<polygon fill="none" stroke="black" points="364,-83 206,-83 206,0 364,0 364,-83"/>
<text text-anchor="middle" x="285" y="-67.8" font-family="Times,serif" font-size="14.00">node #5</text>
<text text-anchor="middle" x="285" y="-52.8" font-family="Times,serif" font-size="14.00">gini = 0.0</text>
<text text-anchor="middle" x="285" y="-37.8" font-family="Times,serif" font-size="14.00">samples = 1</text>
<text text-anchor="middle" x="285" y="-22.8" font-family="Times,serif" font-size="14.00">value = [0.0, 2.037]</text>
<text text-anchor="middle" x="285" y="-7.8" font-family="Times,serif" font-size="14.00">class = Obstructive</text>
</g>
<!-- 3&#45;&gt;5 -->
<g id="edge5" class="edge">
<title>3&#45;&gt;5</title>
<path fill="none" stroke="black" d="M285,-118.87C285,-110.5 285,-101.77 285,-93.33"/>
<polygon fill="black" stroke="black" points="288.5,-93.23 285,-83.23 281.5,-93.23 288.5,-93.23"/>
</g>
<!-- 7 -->
<g id="node8" class="node">
<title>7</title>
<polygon fill="none" stroke="black" points="548.5,-83 381.5,-83 381.5,0 548.5,0 548.5,-83"/>
<text text-anchor="middle" x="465" y="-67.8" font-family="Times,serif" font-size="14.00">node #7</text>
<text text-anchor="middle" x="465" y="-52.8" font-family="Times,serif" font-size="14.00">gini = &#45;0.0</text>
<text text-anchor="middle" x="465" y="-37.8" font-family="Times,serif" font-size="14.00">samples = 44</text>
<text text-anchor="middle" x="465" y="-22.8" font-family="Times,serif" font-size="14.00">value = [0.0, 68.226]</text>
<text text-anchor="middle" x="465" y="-7.8" font-family="Times,serif" font-size="14.00">class = Obstructive</text>
</g>
<!-- 6&#45;&gt;7 -->
<g id="edge7" class="edge">
<title>6&#45;&gt;7</title>
<path fill="none" stroke="black" d="M536.76,-118.87C528.04,-109.58 518.89,-99.85 510.17,-90.56"/>
<polygon fill="black" stroke="black" points="512.68,-88.12 503.28,-83.23 507.57,-92.91 512.68,-88.12"/>
</g>
<!-- 8 -->
<g id="node9" class="node">
<title>8</title>
<polygon fill="none" stroke="black" points="755,-83 567,-83 567,0 755,0 755,-83"/>
<text text-anchor="middle" x="661" y="-67.8" font-family="Times,serif" font-size="14.00">node #8</text>
<text text-anchor="middle" x="661" y="-52.8" font-family="Times,serif" font-size="14.00">gini = 0.0</text>
<text text-anchor="middle" x="661" y="-37.8" font-family="Times,serif" font-size="14.00">samples = 1</text>
<text text-anchor="middle" x="661" y="-22.8" font-family="Times,serif" font-size="14.00">value = [0.982, 0.0]</text>
<text text-anchor="middle" x="661" y="-7.8" font-family="Times,serif" font-size="14.00">class = Non&#45;obstructive</text>
</g>
<!-- 6&#45;&gt;8 -->
<g id="edge8" class="edge">
<title>6&#45;&gt;8</title>
<path fill="none" stroke="black" d="M612.54,-118.87C618.14,-110.04 624,-100.81 629.62,-91.95"/>
<polygon fill="black" stroke="black" points="632.75,-93.55 635.15,-83.23 626.84,-89.8 632.75,-93.55"/>
</g>
<!-- 10 -->
<g id="node11" class="node">
<title>10</title>
<polygon fill="none" stroke="black" points="1154,-217 960,-217 960,-119 1154,-119 1154,-217"/>
<text text-anchor="middle" x="1057" y="-201.8" font-family="Times,serif" font-size="14.00">node #10</text>
<text text-anchor="middle" x="1057" y="-186.8" font-family="Times,serif" font-size="14.00">FEFPreVal &lt;= 2.035</text>
<text text-anchor="middle" x="1057" y="-171.8" font-family="Times,serif" font-size="14.00">gini = 0.404</text>
<text text-anchor="middle" x="1057" y="-156.8" font-family="Times,serif" font-size="14.00">samples = 38</text>
<text text-anchor="middle" x="1057" y="-141.8" font-family="Times,serif" font-size="14.00">value = [44.206, 17.311]</text>
<text text-anchor="middle" x="1057" y="-126.8" font-family="Times,serif" font-size="14.00">class = Non&#45;obstructive</text>
</g>
<!-- 9&#45;&gt;10 -->
<g id="edge10" class="edge">
<title>9&#45;&gt;10</title>
<path fill="none" stroke="black" d="M1126.34,-252.97C1118.83,-243.87 1110.91,-234.28 1103.21,-224.96"/>
<polygon fill="black" stroke="black" points="1105.88,-222.7 1096.81,-217.21 1100.48,-227.15 1105.88,-222.7"/>
</g>
<!-- 13 -->
<g id="node14" class="node">
<title>13</title>
<polygon fill="none" stroke="black" points="1378,-217 1172,-217 1172,-119 1378,-119 1378,-217"/>
<text text-anchor="middle" x="1275" y="-201.8" font-family="Times,serif" font-size="14.00">node #13</text>
<text text-anchor="middle" x="1275" y="-186.8" font-family="Times,serif" font-size="14.00">FEV1PostPercent &lt;= 82.0</text>
<text text-anchor="middle" x="1275" y="-171.8" font-family="Times,serif" font-size="14.00">gini = 0.325</text>
<text text-anchor="middle" x="1275" y="-156.8" font-family="Times,serif" font-size="14.00">samples = 54</text>
<text text-anchor="middle" x="1275" y="-141.8" font-family="Times,serif" font-size="14.00">value = [16.7, 65.171]</text>
<text text-anchor="middle" x="1275" y="-126.8" font-family="Times,serif" font-size="14.00">class = Obstructive</text>
</g>
<!-- 9&#45;&gt;13 -->
<g id="edge13" class="edge">
<title>9&#45;&gt;13</title>
<path fill="none" stroke="black" d="M1205.66,-252.97C1213.17,-243.87 1221.09,-234.28 1228.79,-224.96"/>
<polygon fill="black" stroke="black" points="1231.52,-227.15 1235.19,-217.21 1226.12,-222.7 1231.52,-227.15"/>
</g>
<!-- 11 -->
<g id="node12" class="node">
<title>11</title>
<polygon fill="none" stroke="black" points="961,-83 773,-83 773,0 961,0 961,-83"/>
<text text-anchor="middle" x="867" y="-67.8" font-family="Times,serif" font-size="14.00">node #11</text>
<text text-anchor="middle" x="867" y="-52.8" font-family="Times,serif" font-size="14.00">gini = 0.302</text>
<text text-anchor="middle" x="867" y="-37.8" font-family="Times,serif" font-size="14.00">samples = 34</text>
<text text-anchor="middle" x="867" y="-22.8" font-family="Times,serif" font-size="14.00">value = [40.276, 9.165]</text>
<text text-anchor="middle" x="867" y="-7.8" font-family="Times,serif" font-size="14.00">class = Non&#45;obstructive</text>
</g>
<!-- 10&#45;&gt;11 -->
<g id="edge11" class="edge">
<title>10&#45;&gt;11</title>
<path fill="none" stroke="black" d="M983.54,-118.87C968.44,-108.97 952.57,-98.57 937.57,-88.74"/>
<polygon fill="black" stroke="black" points="939.14,-85.59 928.86,-83.03 935.3,-91.44 939.14,-85.59"/>
</g>
<!-- 12 -->
<g id="node13" class="node">
<title>12</title>
<polygon fill="none" stroke="black" points="1155,-83 979,-83 979,0 1155,0 1155,-83"/>
<text text-anchor="middle" x="1067" y="-67.8" font-family="Times,serif" font-size="14.00">node #12</text>
<text text-anchor="middle" x="1067" y="-52.8" font-family="Times,serif" font-size="14.00">gini = 0.439</text>
<text text-anchor="middle" x="1067" y="-37.8" font-family="Times,serif" font-size="14.00">samples = 4</text>
<text text-anchor="middle" x="1067" y="-22.8" font-family="Times,serif" font-size="14.00">value = [3.929, 8.146]</text>
<text text-anchor="middle" x="1067" y="-7.8" font-family="Times,serif" font-size="14.00">class = Obstructive</text>
</g>
<!-- 10&#45;&gt;12 -->
<g id="edge12" class="edge">
<title>10&#45;&gt;12</title>
<path fill="none" stroke="black" d="M1060.87,-118.87C1061.54,-110.5 1062.24,-101.77 1062.92,-93.33"/>
<polygon fill="black" stroke="black" points="1066.42,-93.48 1063.73,-83.23 1059.44,-92.92 1066.42,-93.48"/>
</g>
<!-- 14 -->
<g id="node15" class="node">
<title>14</title>
<polygon fill="none" stroke="black" points="1357.5,-83 1172.5,-83 1172.5,0 1357.5,0 1357.5,-83"/>
<text text-anchor="middle" x="1265" y="-67.8" font-family="Times,serif" font-size="14.00">node #14</text>
<text text-anchor="middle" x="1265" y="-52.8" font-family="Times,serif" font-size="14.00">gini = 0.195</text>
<text text-anchor="middle" x="1265" y="-37.8" font-family="Times,serif" font-size="14.00">samples = 40</text>
<text text-anchor="middle" x="1265" y="-22.8" font-family="Times,serif" font-size="14.00">value = [6.876, 56.006]</text>
<text text-anchor="middle" x="1265" y="-7.8" font-family="Times,serif" font-size="14.00">class = Obstructive</text>
</g>
<!-- 13&#45;&gt;14 -->
<g id="edge14" class="edge">
<title>13&#45;&gt;14</title>
<path fill="none" stroke="black" d="M1271.13,-118.87C1270.46,-110.5 1269.76,-101.77 1269.08,-93.33"/>
<polygon fill="black" stroke="black" points="1272.56,-92.92 1268.27,-83.23 1265.58,-93.48 1272.56,-92.92"/>
</g>
<!-- 15 -->
<g id="node16" class="node">
<title>15</title>
<polygon fill="none" stroke="black" points="1564,-83 1376,-83 1376,0 1564,0 1564,-83"/>
<text text-anchor="middle" x="1470" y="-67.8" font-family="Times,serif" font-size="14.00">node #15</text>
<text text-anchor="middle" x="1470" y="-52.8" font-family="Times,serif" font-size="14.00">gini = 0.499</text>
<text text-anchor="middle" x="1470" y="-37.8" font-family="Times,serif" font-size="14.00">samples = 14</text>
<text text-anchor="middle" x="1470" y="-22.8" font-family="Times,serif" font-size="14.00">value = [9.824, 9.165]</text>
<text text-anchor="middle" x="1470" y="-7.8" font-family="Times,serif" font-size="14.00">class = Non&#45;obstructive</text>
</g>
<!-- 13&#45;&gt;15 -->
<g id="edge15" class="edge">
<title>13&#45;&gt;15</title>
<path fill="none" stroke="black" d="M1350.39,-118.87C1366.04,-108.88 1382.48,-98.38 1398,-88.47"/>
<polygon fill="black" stroke="black" points="1399.97,-91.36 1406.52,-83.03 1396.2,-85.46 1399.97,-91.36"/>
</g>
<!-- 17 -->
<g id="node18" class="node">
<title>17</title>
<polygon fill="none" stroke="black" points="2070,-351 1876,-351 1876,-253 2070,-253 2070,-351"/>
<text text-anchor="middle" x="1973" y="-335.8" font-family="Times,serif" font-size="14.00">node #17</text>
<text text-anchor="middle" x="1973" y="-320.8" font-family="Times,serif" font-size="14.00">FVCPreVal &lt;= 2.19</text>
<text text-anchor="middle" x="1973" y="-305.8" font-family="Times,serif" font-size="14.00">gini = 0.152</text>
<text text-anchor="middle" x="1973" y="-290.8" font-family="Times,serif" font-size="14.00">samples = 73</text>
<text text-anchor="middle" x="1973" y="-275.8" font-family="Times,serif" font-size="14.00">value = [101.182, 9.165]</text>
<text text-anchor="middle" x="1973" y="-260.8" font-family="Times,serif" font-size="14.00">class = Non&#45;obstructive</text>
</g>
<!-- 16&#45;&gt;17 -->
<g id="edge17" class="edge">
<title>16&#45;&gt;17</title>
<path fill="none" stroke="black" d="M1973,-386.97C1973,-378.69 1973,-370 1973,-361.48"/>
<polygon fill="black" stroke="black" points="1976.5,-361.21 1973,-351.21 1969.5,-361.21 1976.5,-361.21"/>
</g>
<!-- 24 -->
<g id="node25" class="node">
<title>24</title>
<polygon fill="none" stroke="black" points="2361,-351 2185,-351 2185,-253 2361,-253 2361,-351"/>
<text text-anchor="middle" x="2273" y="-335.8" font-family="Times,serif" font-size="14.00">node #24</text>
<text text-anchor="middle" x="2273" y="-320.8" font-family="Times,serif" font-size="14.00">FVCPostVal &lt;= 4.015</text>
<text text-anchor="middle" x="2273" y="-305.8" font-family="Times,serif" font-size="14.00">gini = 0.271</text>
<text text-anchor="middle" x="2273" y="-290.8" font-family="Times,serif" font-size="14.00">samples = 4</text>
<text text-anchor="middle" x="2273" y="-275.8" font-family="Times,serif" font-size="14.00">value = [0.982, 5.091]</text>
<text text-anchor="middle" x="2273" y="-260.8" font-family="Times,serif" font-size="14.00">class = Obstructive</text>
</g>
<!-- 16&#45;&gt;24 -->
<g id="edge24" class="edge">
<title>16&#45;&gt;24</title>
<path fill="none" stroke="black" d="M2074.57,-390.31C2107.06,-376.02 2142.94,-360.23 2175.16,-346.05"/>
<polygon fill="black" stroke="black" points="2176.84,-349.13 2184.59,-341.9 2174.02,-342.73 2176.84,-349.13"/>
</g>
<!-- 18 -->
<g id="node19" class="node">
<title>18</title>
<polygon fill="none" stroke="black" points="1970,-217 1782,-217 1782,-119 1970,-119 1970,-217"/>
<text text-anchor="middle" x="1876" y="-201.8" font-family="Times,serif" font-size="14.00">node #18</text>
<text text-anchor="middle" x="1876" y="-186.8" font-family="Times,serif" font-size="14.00">FEFPreVal &lt;= 2.125</text>
<text text-anchor="middle" x="1876" y="-171.8" font-family="Times,serif" font-size="14.00">gini = 0.027</text>
<text text-anchor="middle" x="1876" y="-156.8" font-family="Times,serif" font-size="14.00">samples = 49</text>
<text text-anchor="middle" x="1876" y="-141.8" font-family="Times,serif" font-size="14.00">value = [72.694, 1.018]</text>
<text text-anchor="middle" x="1876" y="-126.8" font-family="Times,serif" font-size="14.00">class = Non&#45;obstructive</text>
</g>
<!-- 17&#45;&gt;18 -->
<g id="edge18" class="edge">
<title>17&#45;&gt;18</title>
<path fill="none" stroke="black" d="M1937.71,-252.97C1931.15,-244.05 1924.25,-234.66 1917.53,-225.52"/>
<polygon fill="black" stroke="black" points="1920.17,-223.2 1911.43,-217.21 1914.53,-227.34 1920.17,-223.2"/>
</g>
<!-- 21 -->
<g id="node22" class="node">
<title>21</title>
<polygon fill="none" stroke="black" points="2176,-217 1988,-217 1988,-119 2176,-119 2176,-217"/>
<text text-anchor="middle" x="2082" y="-201.8" font-family="Times,serif" font-size="14.00">node #21</text>
<text text-anchor="middle" x="2082" y="-186.8" font-family="Times,serif" font-size="14.00">FVCPostVal &lt;= 2.445</text>
<text text-anchor="middle" x="2082" y="-171.8" font-family="Times,serif" font-size="14.00">gini = 0.346</text>
<text text-anchor="middle" x="2082" y="-156.8" font-family="Times,serif" font-size="14.00">samples = 24</text>
<text text-anchor="middle" x="2082" y="-141.8" font-family="Times,serif" font-size="14.00">value = [28.488, 8.146]</text>
<text text-anchor="middle" x="2082" y="-126.8" font-family="Times,serif" font-size="14.00">class = Non&#45;obstructive</text>
</g>
<!-- 17&#45;&gt;21 -->
<g id="edge21" class="edge">
<title>17&#45;&gt;21</title>
<path fill="none" stroke="black" d="M2012.66,-252.97C2020.17,-243.87 2028.09,-234.28 2035.79,-224.96"/>
<polygon fill="black" stroke="black" points="2038.52,-227.15 2042.19,-217.21 2033.12,-222.7 2038.52,-227.15"/>
</g>
<!-- 19 -->
<g id="node20" class="node">
<title>19</title>
<polygon fill="none" stroke="black" points="1770,-83 1582,-83 1582,0 1770,0 1770,-83"/>
<text text-anchor="middle" x="1676" y="-67.8" font-family="Times,serif" font-size="14.00">node #19</text>
<text text-anchor="middle" x="1676" y="-52.8" font-family="Times,serif" font-size="14.00">gini = 0.203</text>
<text text-anchor="middle" x="1676" y="-37.8" font-family="Times,serif" font-size="14.00">samples = 9</text>
<text text-anchor="middle" x="1676" y="-22.8" font-family="Times,serif" font-size="14.00">value = [7.859, 1.018]</text>
<text text-anchor="middle" x="1676" y="-7.8" font-family="Times,serif" font-size="14.00">class = Non&#45;obstructive</text>
</g>
<!-- 18&#45;&gt;19 -->
<g id="edge19" class="edge">
<title>18&#45;&gt;19</title>
<path fill="none" stroke="black" d="M1798.67,-118.87C1782.63,-108.88 1765.76,-98.38 1749.85,-88.47"/>
<polygon fill="black" stroke="black" points="1751.45,-85.35 1741.11,-83.03 1747.75,-91.29 1751.45,-85.35"/>
</g>
<!-- 20 -->
<g id="node21" class="node">
<title>20</title>
<polygon fill="none" stroke="black" points="1976,-83 1788,-83 1788,0 1976,0 1976,-83"/>
<text text-anchor="middle" x="1882" y="-67.8" font-family="Times,serif" font-size="14.00">node #20</text>
<text text-anchor="middle" x="1882" y="-52.8" font-family="Times,serif" font-size="14.00">gini = 0.0</text>
<text text-anchor="middle" x="1882" y="-37.8" font-family="Times,serif" font-size="14.00">samples = 40</text>
<text text-anchor="middle" x="1882" y="-22.8" font-family="Times,serif" font-size="14.00">value = [64.835, 0.0]</text>
<text text-anchor="middle" x="1882" y="-7.8" font-family="Times,serif" font-size="14.00">class = Non&#45;obstructive</text>
</g>
<!-- 18&#45;&gt;20 -->
<g id="edge20" class="edge">
<title>18&#45;&gt;20</title>
<path fill="none" stroke="black" d="M1878.32,-118.87C1878.72,-110.5 1879.14,-101.77 1879.55,-93.33"/>
<polygon fill="black" stroke="black" points="1883.05,-93.39 1880.04,-83.23 1876.06,-93.05 1883.05,-93.39"/>
</g>
<!-- 22 -->
<g id="node23" class="node">
<title>22</title>
<polygon fill="none" stroke="black" points="2170,-83 1994,-83 1994,0 2170,0 2170,-83"/>
<text text-anchor="middle" x="2082" y="-67.8" font-family="Times,serif" font-size="14.00">node #22</text>
<text text-anchor="middle" x="2082" y="-52.8" font-family="Times,serif" font-size="14.00">gini = 0.414</text>
<text text-anchor="middle" x="2082" y="-37.8" font-family="Times,serif" font-size="14.00">samples = 5</text>
<text text-anchor="middle" x="2082" y="-22.8" font-family="Times,serif" font-size="14.00">value = [2.947, 7.128]</text>
<text text-anchor="middle" x="2082" y="-7.8" font-family="Times,serif" font-size="14.00">class = Obstructive</text>
</g>
<!-- 21&#45;&gt;22 -->
<g id="edge22" class="edge">
<title>21&#45;&gt;22</title>
<path fill="none" stroke="black" d="M2082,-118.87C2082,-110.5 2082,-101.77 2082,-93.33"/>
<polygon fill="black" stroke="black" points="2085.5,-93.23 2082,-83.23 2078.5,-93.23 2085.5,-93.23"/>
</g>
<!-- 23 -->
<g id="node24" class="node">
<title>23</title>
<polygon fill="none" stroke="black" points="2376,-83 2188,-83 2188,0 2376,0 2376,-83"/>
<text text-anchor="middle" x="2282" y="-67.8" font-family="Times,serif" font-size="14.00">node #23</text>
<text text-anchor="middle" x="2282" y="-52.8" font-family="Times,serif" font-size="14.00">gini = 0.074</text>
<text text-anchor="middle" x="2282" y="-37.8" font-family="Times,serif" font-size="14.00">samples = 19</text>
<text text-anchor="middle" x="2282" y="-22.8" font-family="Times,serif" font-size="14.00">value = [25.541, 1.018]</text>
<text text-anchor="middle" x="2282" y="-7.8" font-family="Times,serif" font-size="14.00">class = Non&#45;obstructive</text>
</g>
<!-- 21&#45;&gt;23 -->
<g id="edge23" class="edge">
<title>21&#45;&gt;23</title>
<path fill="none" stroke="black" d="M2159.33,-118.87C2175.37,-108.88 2192.24,-98.38 2208.15,-88.47"/>
<polygon fill="black" stroke="black" points="2210.25,-91.29 2216.89,-83.03 2206.55,-85.35 2210.25,-91.29"/>
</g>
<!-- 25 -->
<g id="node26" class="node">
<title>25</title>
<polygon fill="none" stroke="black" points="2352,-209.5 2194,-209.5 2194,-126.5 2352,-126.5 2352,-209.5"/>
<text text-anchor="middle" x="2273" y="-194.3" font-family="Times,serif" font-size="14.00">node #25</text>
<text text-anchor="middle" x="2273" y="-179.3" font-family="Times,serif" font-size="14.00">gini = 0.0</text>
<text text-anchor="middle" x="2273" y="-164.3" font-family="Times,serif" font-size="14.00">samples = 3</text>
<text text-anchor="middle" x="2273" y="-149.3" font-family="Times,serif" font-size="14.00">value = [0.0, 5.091]</text>
<text text-anchor="middle" x="2273" y="-134.3" font-family="Times,serif" font-size="14.00">class = Obstructive</text>
</g>
<!-- 24&#45;&gt;25 -->
<g id="edge25" class="edge">
<title>24&#45;&gt;25</title>
<path fill="none" stroke="black" d="M2273,-252.97C2273,-242.25 2273,-230.84 2273,-219.99"/>
<polygon fill="black" stroke="black" points="2276.5,-219.82 2273,-209.82 2269.5,-219.82 2276.5,-219.82"/>
</g>
<!-- 26 -->
<g id="node27" class="node">
<title>26</title>
<polygon fill="none" stroke="black" points="2558,-209.5 2370,-209.5 2370,-126.5 2558,-126.5 2558,-209.5"/>
<text text-anchor="middle" x="2464" y="-194.3" font-family="Times,serif" font-size="14.00">node #26</text>
<text text-anchor="middle" x="2464" y="-179.3" font-family="Times,serif" font-size="14.00">gini = 0.0</text>
<text text-anchor="middle" x="2464" y="-164.3" font-family="Times,serif" font-size="14.00">samples = 1</text>
<text text-anchor="middle" x="2464" y="-149.3" font-family="Times,serif" font-size="14.00">value = [0.982, 0.0]</text>
<text text-anchor="middle" x="2464" y="-134.3" font-family="Times,serif" font-size="14.00">class = Non&#45;obstructive</text>
</g>
<!-- 24&#45;&gt;26 -->
<g id="edge26" class="edge">
<title>24&#45;&gt;26</title>
<path fill="none" stroke="black" d="M2342.5,-252.97C2360.19,-240.75 2379.17,-227.63 2396.74,-215.48"/>
<polygon fill="black" stroke="black" points="2399.01,-218.17 2405.25,-209.6 2395.03,-212.41 2399.01,-218.17"/>
</g>
</g>
</svg>
