<?xml version="1.0" encoding="UTF-8" standalone="no"?>
<!DOCTYPE svg PUBLIC "-//W3C//DTD SVG 1.1//EN"
 "http://www.w3.org/Graphics/SVG/1.1/DTD/svg11.dtd">
<!-- Generated by graphviz version 2.43.0 (0)
 -->
<!-- Title: Tree Pages: 1 -->
<svg width="2036pt" height="627pt"
 viewBox="0.00 0.00 2036.00 627.00" xmlns="http://www.w3.org/2000/svg" xmlns:xlink="http://www.w3.org/1999/xlink">
<g id="graph0" class="graph" transform="scale(1 1) rotate(0) translate(4 623)">
<title>Tree</title>
<polygon fill="white" stroke="transparent" points="-4,4 -4,-623 2032,-623 2032,4 -4,4"/>
<!-- 0 -->
<g id="node1" class="node">
<title>0</title>
<polygon fill="none" stroke="black" points="1093.5,-619 902.5,-619 902.5,-521 1093.5,-521 1093.5,-619"/>
<text text-anchor="middle" x="998" y="-603.8" font-family="Times,serif" font-size="14.00">node #0</text>
<text text-anchor="middle" x="998" y="-588.8" font-family="Times,serif" font-size="14.00">FVCPrePercent &lt;= 64.5</text>
<text text-anchor="middle" x="998" y="-573.8" font-family="Times,serif" font-size="14.00">gini = 0.5</text>
<text text-anchor="middle" x="998" y="-558.8" font-family="Times,serif" font-size="14.00">samples = 202</text>
<text text-anchor="middle" x="998" y="-543.8" font-family="Times,serif" font-size="14.00">value = [167.0, 167.0]</text>
<text text-anchor="middle" x="998" y="-528.8" font-family="Times,serif" font-size="14.00">class = Obstructive</text>
</g>
<!-- 1 -->
<g id="node2" class="node">
<title>1</title>
<polygon fill="none" stroke="black" points="890.5,-485 687.5,-485 687.5,-387 890.5,-387 890.5,-485"/>
<text text-anchor="middle" x="789" y="-469.8" font-family="Times,serif" font-size="14.00">node #1</text>
<text text-anchor="middle" x="789" y="-454.8" font-family="Times,serif" font-size="14.00">FEV1PreVal &lt;= 0.84</text>
<text text-anchor="middle" x="789" y="-439.8" font-family="Times,serif" font-size="14.00">gini = 0.478</text>
<text text-anchor="middle" x="789" y="-424.8" font-family="Times,serif" font-size="14.00">samples = 110</text>
<text text-anchor="middle" x="789" y="-409.8" font-family="Times,serif" font-size="14.00">value = [107.506, 70.063]</text>
<text text-anchor="middle" x="789" y="-394.8" font-family="Times,serif" font-size="14.00">class = Non&#45;obstructive</text>
</g>
<!-- 0&#45;&gt;1 -->
<g id="edge1" class="edge">
<title>0&#45;&gt;1</title>
<path fill="none" stroke="black" d="M921.95,-520.97C906.4,-511.14 889.92,-500.74 874.07,-490.73"/>
<polygon fill="black" stroke="black" points="875.66,-487.59 865.34,-485.21 871.92,-493.51 875.66,-487.59"/>
<text text-anchor="middle" x="870.85" y="-505.9" font-family="Times,serif" font-size="14.00">True</text>
</g>
<!-- 14 -->
<g id="node15" class="node">
<title>14</title>
<polygon fill="none" stroke="black" points="1320,-485 1114,-485 1114,-387 1320,-387 1320,-485"/>
<text text-anchor="middle" x="1217" y="-469.8" font-family="Times,serif" font-size="14.00">node #14</text>
<text text-anchor="middle" x="1217" y="-454.8" font-family="Times,serif" font-size="14.00">FEV1PostPercent &lt;= 82.5</text>
<text text-anchor="middle" x="1217" y="-439.8" font-family="Times,serif" font-size="14.00">gini = 0.471</text>
<text text-anchor="middle" x="1217" y="-424.8" font-family="Times,serif" font-size="14.00">samples = 92</text>
<text text-anchor="middle" x="1217" y="-409.8" font-family="Times,serif" font-size="14.00">value = [59.494, 96.937]</text>
<text text-anchor="middle" x="1217" y="-394.8" font-family="Times,serif" font-size="14.00">class = Obstructive</text>
</g>
<!-- 0&#45;&gt;14 -->
<g id="edge14" class="edge">
<title>0&#45;&gt;14</title>
<path fill="none" stroke="black" d="M1077.68,-520.97C1094.14,-511.05 1111.57,-500.55 1128.32,-490.45"/>
<polygon fill="black" stroke="black" points="1130.25,-493.37 1137.01,-485.21 1126.64,-487.38 1130.25,-493.37"/>
<text text-anchor="middle" x="1130.99" y="-505.78" font-family="Times,serif" font-size="14.00">False</text>
</g>
<!-- 2 -->
<g id="node3" class="node">
<title>2</title>
<polygon fill="none" stroke="black" points="573.5,-351 388.5,-351 388.5,-253 573.5,-253 573.5,-351"/>
<text text-anchor="middle" x="481" y="-335.8" font-family="Times,serif" font-size="14.00">node #2</text>
<text text-anchor="middle" x="481" y="-320.8" font-family="Times,serif" font-size="14.00">FEFPostVal &lt;= 1.025</text>
<text text-anchor="middle" x="481" y="-305.8" font-family="Times,serif" font-size="14.00">gini = 0.422</text>
<text text-anchor="middle" x="481" y="-290.8" font-family="Times,serif" font-size="14.00">samples = 39</text>
<text text-anchor="middle" x="481" y="-275.8" font-family="Times,serif" font-size="14.00">value = [18.787, 43.19]</text>
<text text-anchor="middle" x="481" y="-260.8" font-family="Times,serif" font-size="14.00">class = Obstructive</text>
</g>
<!-- 1&#45;&gt;2 -->
<g id="edge2" class="edge">
<title>1&#45;&gt;2</title>
<path fill="none" stroke="black" d="M687.3,-391.41C653.74,-377.03 616.43,-361.04 582.86,-346.66"/>
<polygon fill="black" stroke="black" points="584.07,-343.37 573.5,-342.64 581.31,-349.8 584.07,-343.37"/>
</g>
<!-- 7 -->
<g id="node8" class="node">
<title>7</title>
<polygon fill="none" stroke="black" points="887.5,-351 690.5,-351 690.5,-253 887.5,-253 887.5,-351"/>
<text text-anchor="middle" x="789" y="-335.8" font-family="Times,serif" font-size="14.00">node #7</text>
<text text-anchor="middle" x="789" y="-320.8" font-family="Times,serif" font-size="14.00">FEFPostPercent &lt;= 34.5</text>
<text text-anchor="middle" x="789" y="-305.8" font-family="Times,serif" font-size="14.00">gini = 0.357</text>
<text text-anchor="middle" x="789" y="-290.8" font-family="Times,serif" font-size="14.00">samples = 71</text>
<text text-anchor="middle" x="789" y="-275.8" font-family="Times,serif" font-size="14.00">value = [88.719, 26.874]</text>
<text text-anchor="middle" x="789" y="-260.8" font-family="Times,serif" font-size="14.00">class = Non&#45;obstructive</text>
</g>
<!-- 1&#45;&gt;7 -->
<g id="edge7" class="edge">
<title>1&#45;&gt;7</title>
<path fill="none" stroke="black" d="M789,-386.97C789,-378.69 789,-370 789,-361.48"/>
<polygon fill="black" stroke="black" points="792.5,-361.21 789,-351.21 785.5,-361.21 792.5,-361.21"/>
</g>
<!-- 3 -->
<g id="node4" class="node">
<title>3</title>
<polygon fill="none" stroke="black" points="369,-217 193,-217 193,-119 369,-119 369,-217"/>
<text text-anchor="middle" x="281" y="-201.8" font-family="Times,serif" font-size="14.00">node #3</text>
<text text-anchor="middle" x="281" y="-186.8" font-family="Times,serif" font-size="14.00">FVCPostVal &lt;= 0.94</text>
<text text-anchor="middle" x="281" y="-171.8" font-family="Times,serif" font-size="14.00">gini = 0.126</text>
<text text-anchor="middle" x="281" y="-156.8" font-family="Times,serif" font-size="14.00">samples = 29</text>
<text text-anchor="middle" x="281" y="-141.8" font-family="Times,serif" font-size="14.00">value = [3.131, 43.19]</text>
<text text-anchor="middle" x="281" y="-126.8" font-family="Times,serif" font-size="14.00">class = Obstructive</text>
</g>
<!-- 2&#45;&gt;3 -->
<g id="edge3" class="edge">
<title>2&#45;&gt;3</title>
<path fill="none" stroke="black" d="M408.23,-252.97C393.34,-243.14 377.58,-232.74 362.41,-222.73"/>
<polygon fill="black" stroke="black" points="364.33,-219.8 354.05,-217.21 360.47,-225.64 364.33,-219.8"/>
</g>
<!-- 6 -->
<g id="node7" class="node">
<title>6</title>
<polygon fill="none" stroke="black" points="575,-209.5 387,-209.5 387,-126.5 575,-126.5 575,-209.5"/>
<text text-anchor="middle" x="481" y="-194.3" font-family="Times,serif" font-size="14.00">node #6</text>
<text text-anchor="middle" x="481" y="-179.3" font-family="Times,serif" font-size="14.00">gini = 0.0</text>
<text text-anchor="middle" x="481" y="-164.3" font-family="Times,serif" font-size="14.00">samples = 10</text>
<text text-anchor="middle" x="481" y="-149.3" font-family="Times,serif" font-size="14.00">value = [15.656, 0.0]</text>
<text text-anchor="middle" x="481" y="-134.3" font-family="Times,serif" font-size="14.00">class = Non&#45;obstructive</text>
</g>
<!-- 2&#45;&gt;6 -->
<g id="edge6" class="edge">
<title>2&#45;&gt;6</title>
<path fill="none" stroke="black" d="M481,-252.97C481,-242.25 481,-230.84 481,-219.99"/>
<polygon fill="black" stroke="black" points="484.5,-219.82 481,-209.82 477.5,-219.82 484.5,-219.82"/>
</g>
<!-- 4 -->
<g id="node5" class="node">
<title>4</title>
<polygon fill="none" stroke="black" points="188,-83 0,-83 0,0 188,0 188,-83"/>
<text text-anchor="middle" x="94" y="-67.8" font-family="Times,serif" font-size="14.00">node #4</text>
<text text-anchor="middle" x="94" y="-52.8" font-family="Times,serif" font-size="14.00">gini = 0.499</text>
<text text-anchor="middle" x="94" y="-37.8" font-family="Times,serif" font-size="14.00">samples = 3</text>
<text text-anchor="middle" x="94" y="-22.8" font-family="Times,serif" font-size="14.00">value = [2.088, 1.92]</text>
<text text-anchor="middle" x="94" y="-7.8" font-family="Times,serif" font-size="14.00">class = Non&#45;obstructive</text>
</g>
<!-- 3&#45;&gt;4 -->
<g id="edge4" class="edge">
<title>3&#45;&gt;4</title>
<path fill="none" stroke="black" d="M208.7,-118.87C193.84,-108.97 178.22,-98.57 163.46,-88.74"/>
<polygon fill="black" stroke="black" points="165.14,-85.66 154.88,-83.03 161.26,-91.49 165.14,-85.66"/>
</g>
<!-- 5 -->
<g id="node6" class="node">
<title>5</title>
<polygon fill="none" stroke="black" points="382,-83 206,-83 206,0 382,0 382,-83"/>
<text text-anchor="middle" x="294" y="-67.8" font-family="Times,serif" font-size="14.00">node #5</text>
<text text-anchor="middle" x="294" y="-52.8" font-family="Times,serif" font-size="14.00">gini = 0.048</text>
<text text-anchor="middle" x="294" y="-37.8" font-family="Times,serif" font-size="14.00">samples = 26</text>
<text text-anchor="middle" x="294" y="-22.8" font-family="Times,serif" font-size="14.00">value = [1.044, 41.27]</text>
<text text-anchor="middle" x="294" y="-7.8" font-family="Times,serif" font-size="14.00">class = Obstructive</text>
</g>
<!-- 3&#45;&gt;5 -->
<g id="edge5" class="edge">
<title>3&#45;&gt;5</title>
<path fill="none" stroke="black" d="M286.03,-118.87C286.9,-110.5 287.81,-101.77 288.69,-93.33"/>
<polygon fill="black" stroke="black" points="292.19,-93.54 289.75,-83.23 285.23,-92.81 292.19,-93.54"/>
</g>
<!-- 8 -->
<g id="node9" class="node">
<title>8</title>
<polygon fill="none" stroke="black" points="790.5,-217 593.5,-217 593.5,-119 790.5,-119 790.5,-217"/>
<text text-anchor="middle" x="692" y="-201.8" font-family="Times,serif" font-size="14.00">node #8</text>
<text text-anchor="middle" x="692" y="-186.8" font-family="Times,serif" font-size="14.00">FEFPostPercent &lt;= 25.0</text>
<text text-anchor="middle" x="692" y="-171.8" font-family="Times,serif" font-size="14.00">gini = 0.382</text>
<text text-anchor="middle" x="692" y="-156.8" font-family="Times,serif" font-size="14.00">samples = 17</text>
<text text-anchor="middle" x="692" y="-141.8" font-family="Times,serif" font-size="14.00">value = [7.306, 21.115]</text>
<text text-anchor="middle" x="692" y="-126.8" font-family="Times,serif" font-size="14.00">class = Obstructive</text>
</g>
<!-- 7&#45;&gt;8 -->
<g id="edge8" class="edge">
<title>7&#45;&gt;8</title>
<path fill="none" stroke="black" d="M753.71,-252.97C747.15,-244.05 740.25,-234.66 733.53,-225.52"/>
<polygon fill="black" stroke="black" points="736.17,-223.2 727.43,-217.21 730.53,-227.34 736.17,-223.2"/>
</g>
<!-- 11 -->
<g id="node12" class="node">
<title>11</title>
<polygon fill="none" stroke="black" points="997,-217 809,-217 809,-119 997,-119 997,-217"/>
<text text-anchor="middle" x="903" y="-201.8" font-family="Times,serif" font-size="14.00">node #11</text>
<text text-anchor="middle" x="903" y="-186.8" font-family="Times,serif" font-size="14.00">FEFPreVal &lt;= 0.955</text>
<text text-anchor="middle" x="903" y="-171.8" font-family="Times,serif" font-size="14.00">gini = 0.123</text>
<text text-anchor="middle" x="903" y="-156.8" font-family="Times,serif" font-size="14.00">samples = 54</text>
<text text-anchor="middle" x="903" y="-141.8" font-family="Times,serif" font-size="14.00">value = [81.413, 5.759]</text>
<text text-anchor="middle" x="903" y="-126.8" font-family="Times,serif" font-size="14.00">class = Non&#45;obstructive</text>
</g>
<!-- 7&#45;&gt;11 -->
<g id="edge11" class="edge">
<title>7&#45;&gt;11</title>
<path fill="none" stroke="black" d="M830.48,-252.97C838.34,-243.87 846.62,-234.28 854.67,-224.96"/>
<polygon fill="black" stroke="black" points="857.47,-227.07 861.36,-217.21 852.18,-222.49 857.47,-227.07"/>
</g>
<!-- 9 -->
<g id="node10" class="node">
<title>9</title>
<polygon fill="none" stroke="black" points="579.5,-83 412.5,-83 412.5,0 579.5,0 579.5,-83"/>
<text text-anchor="middle" x="496" y="-67.8" font-family="Times,serif" font-size="14.00">node #9</text>
<text text-anchor="middle" x="496" y="-52.8" font-family="Times,serif" font-size="14.00">gini = &#45;0.0</text>
<text text-anchor="middle" x="496" y="-37.8" font-family="Times,serif" font-size="14.00">samples = 10</text>
<text text-anchor="middle" x="496" y="-22.8" font-family="Times,serif" font-size="14.00">value = [0.0, 14.397]</text>
<text text-anchor="middle" x="496" y="-7.8" font-family="Times,serif" font-size="14.00">class = Obstructive</text>
</g>
<!-- 8&#45;&gt;9 -->
<g id="edge9" class="edge">
<title>8&#45;&gt;9</title>
<path fill="none" stroke="black" d="M616.22,-118.87C600.5,-108.88 583.97,-98.38 568.37,-88.47"/>
<polygon fill="black" stroke="black" points="570.13,-85.44 559.81,-83.03 566.37,-91.35 570.13,-85.44"/>
</g>
<!-- 10 -->
<g id="node11" class="node">
<title>10</title>
<polygon fill="none" stroke="black" points="786,-83 598,-83 598,0 786,0 786,-83"/>
<text text-anchor="middle" x="692" y="-67.8" font-family="Times,serif" font-size="14.00">node #10</text>
<text text-anchor="middle" x="692" y="-52.8" font-family="Times,serif" font-size="14.00">gini = 0.499</text>
<text text-anchor="middle" x="692" y="-37.8" font-family="Times,serif" font-size="14.00">samples = 7</text>
<text text-anchor="middle" x="692" y="-22.8" font-family="Times,serif" font-size="14.00">value = [7.306, 6.718]</text>
<text text-anchor="middle" x="692" y="-7.8" font-family="Times,serif" font-size="14.00">class = Non&#45;obstructive</text>
</g>
<!-- 8&#45;&gt;10 -->
<g id="edge10" class="edge">
<title>8&#45;&gt;10</title>
<path fill="none" stroke="black" d="M692,-118.87C692,-110.5 692,-101.77 692,-93.33"/>
<polygon fill="black" stroke="black" points="695.5,-93.23 692,-83.23 688.5,-93.23 695.5,-93.23"/>
</g>
<!-- 12 -->
<g id="node13" class="node">
<title>12</title>
<polygon fill="none" stroke="black" points="992,-83 804,-83 804,0 992,0 992,-83"/>
<text text-anchor="middle" x="898" y="-67.8" font-family="Times,serif" font-size="14.00">node #12</text>
<text text-anchor="middle" x="898" y="-52.8" font-family="Times,serif" font-size="14.00">gini = 0.499</text>
<text text-anchor="middle" x="898" y="-37.8" font-family="Times,serif" font-size="14.00">samples = 2</text>
<text text-anchor="middle" x="898" y="-22.8" font-family="Times,serif" font-size="14.00">value = [2.088, 1.92]</text>
<text text-anchor="middle" x="898" y="-7.8" font-family="Times,serif" font-size="14.00">class = Non&#45;obstructive</text>
</g>
<!-- 11&#45;&gt;12 -->
<g id="edge12" class="edge">
<title>11&#45;&gt;12</title>
<path fill="none" stroke="black" d="M901.07,-118.87C900.73,-110.5 900.38,-101.77 900.04,-93.33"/>
<polygon fill="black" stroke="black" points="903.53,-93.08 899.64,-83.23 896.54,-93.36 903.53,-93.08"/>
</g>
<!-- 13 -->
<g id="node14" class="node">
<title>13</title>
<polygon fill="none" stroke="black" points="1198,-83 1010,-83 1010,0 1198,0 1198,-83"/>
<text text-anchor="middle" x="1104" y="-67.8" font-family="Times,serif" font-size="14.00">node #13</text>
<text text-anchor="middle" x="1104" y="-52.8" font-family="Times,serif" font-size="14.00">gini = 0.088</text>
<text text-anchor="middle" x="1104" y="-37.8" font-family="Times,serif" font-size="14.00">samples = 52</text>
<text text-anchor="middle" x="1104" y="-22.8" font-family="Times,serif" font-size="14.00">value = [79.325, 3.839]</text>
<text text-anchor="middle" x="1104" y="-7.8" font-family="Times,serif" font-size="14.00">class = Non&#45;obstructive</text>
</g>
<!-- 11&#45;&gt;13 -->
<g id="edge13" class="edge">
<title>11&#45;&gt;13</title>
<path fill="none" stroke="black" d="M980.71,-118.87C996.84,-108.88 1013.79,-98.38 1029.78,-88.47"/>
<polygon fill="black" stroke="black" points="1031.9,-91.27 1038.56,-83.03 1028.22,-85.32 1031.9,-91.27"/>
</g>
<!-- 15 -->
<g id="node16" class="node">
<title>15</title>
<polygon fill="none" stroke="black" points="1314,-351 1120,-351 1120,-253 1314,-253 1314,-351"/>
<text text-anchor="middle" x="1217" y="-335.8" font-family="Times,serif" font-size="14.00">node #15</text>
<text text-anchor="middle" x="1217" y="-320.8" font-family="Times,serif" font-size="14.00">FEFPreVal &lt;= 1.345</text>
<text text-anchor="middle" x="1217" y="-305.8" font-family="Times,serif" font-size="14.00">gini = 0.395</text>
<text text-anchor="middle" x="1217" y="-290.8" font-family="Times,serif" font-size="14.00">samples = 63</text>
<text text-anchor="middle" x="1217" y="-275.8" font-family="Times,serif" font-size="14.00">value = [29.225, 78.701]</text>
<text text-anchor="middle" x="1217" y="-260.8" font-family="Times,serif" font-size="14.00">class = Obstructive</text>
</g>
<!-- 14&#45;&gt;15 -->
<g id="edge15" class="edge">
<title>14&#45;&gt;15</title>
<path fill="none" stroke="black" d="M1217,-386.97C1217,-378.69 1217,-370 1217,-361.48"/>
<polygon fill="black" stroke="black" points="1220.5,-361.21 1217,-351.21 1213.5,-361.21 1220.5,-361.21"/>
</g>
<!-- 20 -->
<g id="node21" class="node">
<title>20</title>
<polygon fill="none" stroke="black" points="1620.5,-351 1423.5,-351 1423.5,-253 1620.5,-253 1620.5,-351"/>
<text text-anchor="middle" x="1522" y="-335.8" font-family="Times,serif" font-size="14.00">node #20</text>
<text text-anchor="middle" x="1522" y="-320.8" font-family="Times,serif" font-size="14.00">FEFPostPercent &lt;= 54.0</text>
<text text-anchor="middle" x="1522" y="-305.8" font-family="Times,serif" font-size="14.00">gini = 0.469</text>
<text text-anchor="middle" x="1522" y="-290.8" font-family="Times,serif" font-size="14.00">samples = 29</text>
<text text-anchor="middle" x="1522" y="-275.8" font-family="Times,serif" font-size="14.00">value = [30.269, 18.236]</text>
<text text-anchor="middle" x="1522" y="-260.8" font-family="Times,serif" font-size="14.00">class = Non&#45;obstructive</text>
</g>
<!-- 14&#45;&gt;20 -->
<g id="edge20" class="edge">
<title>14&#45;&gt;20</title>
<path fill="none" stroke="black" d="M1320.26,-390.31C1350.49,-377.23 1383.6,-362.9 1414.11,-349.69"/>
<polygon fill="black" stroke="black" points="1415.7,-352.82 1423.49,-345.63 1412.92,-346.39 1415.7,-352.82"/>
</g>
<!-- 16 -->
<g id="node17" class="node">
<title>16</title>
<polygon fill="none" stroke="black" points="1201.5,-209.5 1034.5,-209.5 1034.5,-126.5 1201.5,-126.5 1201.5,-209.5"/>
<text text-anchor="middle" x="1118" y="-194.3" font-family="Times,serif" font-size="14.00">node #16</text>
<text text-anchor="middle" x="1118" y="-179.3" font-family="Times,serif" font-size="14.00">gini = 0.0</text>
<text text-anchor="middle" x="1118" y="-164.3" font-family="Times,serif" font-size="14.00">samples = 27</text>
<text text-anchor="middle" x="1118" y="-149.3" font-family="Times,serif" font-size="14.00">value = [0.0, 46.069]</text>
<text text-anchor="middle" x="1118" y="-134.3" font-family="Times,serif" font-size="14.00">class = Obstructive</text>
</g>
<!-- 15&#45;&gt;16 -->
<g id="edge16" class="edge">
<title>15&#45;&gt;16</title>
<path fill="none" stroke="black" d="M1180.98,-252.97C1172.44,-241.58 1163.32,-229.42 1154.74,-217.99"/>
<polygon fill="black" stroke="black" points="1157.41,-215.72 1148.61,-209.82 1151.81,-219.92 1157.41,-215.72"/>
</g>
<!-- 17 -->
<g id="node18" class="node">
<title>17</title>
<polygon fill="none" stroke="black" points="1416.5,-217 1219.5,-217 1219.5,-119 1416.5,-119 1416.5,-217"/>
<text text-anchor="middle" x="1318" y="-201.8" font-family="Times,serif" font-size="14.00">node #17</text>
<text text-anchor="middle" x="1318" y="-186.8" font-family="Times,serif" font-size="14.00">FVCPostPercent &lt;= 72.5</text>
<text text-anchor="middle" x="1318" y="-171.8" font-family="Times,serif" font-size="14.00">gini = 0.498</text>
<text text-anchor="middle" x="1318" y="-156.8" font-family="Times,serif" font-size="14.00">samples = 36</text>
<text text-anchor="middle" x="1318" y="-141.8" font-family="Times,serif" font-size="14.00">value = [29.225, 32.632]</text>
<text text-anchor="middle" x="1318" y="-126.8" font-family="Times,serif" font-size="14.00">class = Obstructive</text>
</g>
<!-- 15&#45;&gt;17 -->
<g id="edge17" class="edge">
<title>15&#45;&gt;17</title>
<path fill="none" stroke="black" d="M1253.75,-252.97C1260.64,-243.96 1267.9,-234.47 1274.97,-225.24"/>
<polygon fill="black" stroke="black" points="1277.81,-227.28 1281.11,-217.21 1272.25,-223.03 1277.81,-227.28"/>
</g>
<!-- 18 -->
<g id="node19" class="node">
<title>18</title>
<polygon fill="none" stroke="black" points="1404,-83 1216,-83 1216,0 1404,0 1404,-83"/>
<text text-anchor="middle" x="1310" y="-67.8" font-family="Times,serif" font-size="14.00">node #18</text>
<text text-anchor="middle" x="1310" y="-52.8" font-family="Times,serif" font-size="14.00">gini = 0.251</text>
<text text-anchor="middle" x="1310" y="-37.8" font-family="Times,serif" font-size="14.00">samples = 11</text>
<text text-anchor="middle" x="1310" y="-22.8" font-family="Times,serif" font-size="14.00">value = [16.7, 2.879]</text>
<text text-anchor="middle" x="1310" y="-7.8" font-family="Times,serif" font-size="14.00">class = Non&#45;obstructive</text>
</g>
<!-- 17&#45;&gt;18 -->
<g id="edge18" class="edge">
<title>17&#45;&gt;18</title>
<path fill="none" stroke="black" d="M1314.91,-118.87C1314.37,-110.5 1313.81,-101.77 1313.27,-93.33"/>
<polygon fill="black" stroke="black" points="1316.75,-92.99 1312.62,-83.23 1309.77,-93.43 1316.75,-92.99"/>
</g>
<!-- 19 -->
<g id="node20" class="node">
<title>19</title>
<polygon fill="none" stroke="black" points="1616,-83 1422,-83 1422,0 1616,0 1616,-83"/>
<text text-anchor="middle" x="1519" y="-67.8" font-family="Times,serif" font-size="14.00">node #19</text>
<text text-anchor="middle" x="1519" y="-52.8" font-family="Times,serif" font-size="14.00">gini = 0.417</text>
<text text-anchor="middle" x="1519" y="-37.8" font-family="Times,serif" font-size="14.00">samples = 25</text>
<text text-anchor="middle" x="1519" y="-22.8" font-family="Times,serif" font-size="14.00">value = [12.525, 29.753]</text>
<text text-anchor="middle" x="1519" y="-7.8" font-family="Times,serif" font-size="14.00">class = Obstructive</text>
</g>
<!-- 17&#45;&gt;19 -->
<g id="edge19" class="edge">
<title>17&#45;&gt;19</title>
<path fill="none" stroke="black" d="M1395.71,-118.87C1411.84,-108.88 1428.79,-98.38 1444.78,-88.47"/>
<polygon fill="black" stroke="black" points="1446.9,-91.27 1453.56,-83.03 1443.22,-85.32 1446.9,-91.27"/>
</g>
<!-- 21 -->
<g id="node22" class="node">
<title>21</title>
<polygon fill="none" stroke="black" points="1601,-209.5 1443,-209.5 1443,-126.5 1601,-126.5 1601,-209.5"/>
<text text-anchor="middle" x="1522" y="-194.3" font-family="Times,serif" font-size="14.00">node #21</text>
<text text-anchor="middle" x="1522" y="-179.3" font-family="Times,serif" font-size="14.00">gini = 0.0</text>
<text text-anchor="middle" x="1522" y="-164.3" font-family="Times,serif" font-size="14.00">samples = 5</text>
<text text-anchor="middle" x="1522" y="-149.3" font-family="Times,serif" font-size="14.00">value = [0.0, 8.638]</text>
<text text-anchor="middle" x="1522" y="-134.3" font-family="Times,serif" font-size="14.00">class = Obstructive</text>
</g>
<!-- 20&#45;&gt;21 -->
<g id="edge21" class="edge">
<title>20&#45;&gt;21</title>
<path fill="none" stroke="black" d="M1522,-252.97C1522,-242.25 1522,-230.84 1522,-219.99"/>
<polygon fill="black" stroke="black" points="1525.5,-219.82 1522,-209.82 1518.5,-219.82 1525.5,-219.82"/>
</g>
<!-- 22 -->
<g id="node23" class="node">
<title>22</title>
<polygon fill="none" stroke="black" points="1822,-217 1634,-217 1634,-119 1822,-119 1822,-217"/>
<text text-anchor="middle" x="1728" y="-201.8" font-family="Times,serif" font-size="14.00">node #22</text>
<text text-anchor="middle" x="1728" y="-186.8" font-family="Times,serif" font-size="14.00">FEV1PreVal &lt;= 2.24</text>
<text text-anchor="middle" x="1728" y="-171.8" font-family="Times,serif" font-size="14.00">gini = 0.366</text>
<text text-anchor="middle" x="1728" y="-156.8" font-family="Times,serif" font-size="14.00">samples = 24</text>
<text text-anchor="middle" x="1728" y="-141.8" font-family="Times,serif" font-size="14.00">value = [30.269, 9.598]</text>
<text text-anchor="middle" x="1728" y="-126.8" font-family="Times,serif" font-size="14.00">class = Non&#45;obstructive</text>
</g>
<!-- 20&#45;&gt;22 -->
<g id="edge22" class="edge">
<title>20&#45;&gt;22</title>
<path fill="none" stroke="black" d="M1596.95,-252.97C1612.29,-243.14 1628.52,-232.74 1644.15,-222.73"/>
<polygon fill="black" stroke="black" points="1646.23,-225.56 1652.76,-217.21 1642.45,-219.66 1646.23,-225.56"/>
</g>
<!-- 23 -->
<g id="node24" class="node">
<title>23</title>
<polygon fill="none" stroke="black" points="1822,-83 1634,-83 1634,0 1822,0 1822,-83"/>
<text text-anchor="middle" x="1728" y="-67.8" font-family="Times,serif" font-size="14.00">node #23</text>
<text text-anchor="middle" x="1728" y="-52.8" font-family="Times,serif" font-size="14.00">gini = 0.168</text>
<text text-anchor="middle" x="1728" y="-37.8" font-family="Times,serif" font-size="14.00">samples = 11</text>
<text text-anchor="middle" x="1728" y="-22.8" font-family="Times,serif" font-size="14.00">value = [18.787, 1.92]</text>
<text text-anchor="middle" x="1728" y="-7.8" font-family="Times,serif" font-size="14.00">class = Non&#45;obstructive</text>
</g>
<!-- 22&#45;&gt;23 -->
<g id="edge23" class="edge">
<title>22&#45;&gt;23</title>
<path fill="none" stroke="black" d="M1728,-118.87C1728,-110.5 1728,-101.77 1728,-93.33"/>
<polygon fill="black" stroke="black" points="1731.5,-93.23 1728,-83.23 1724.5,-93.23 1731.5,-93.23"/>
</g>
<!-- 24 -->
<g id="node25" class="node">
<title>24</title>
<polygon fill="none" stroke="black" points="2028,-83 1840,-83 1840,0 2028,0 2028,-83"/>
<text text-anchor="middle" x="1934" y="-67.8" font-family="Times,serif" font-size="14.00">node #24</text>
<text text-anchor="middle" x="1934" y="-52.8" font-family="Times,serif" font-size="14.00">gini = 0.48</text>
<text text-anchor="middle" x="1934" y="-37.8" font-family="Times,serif" font-size="14.00">samples = 13</text>
<text text-anchor="middle" x="1934" y="-22.8" font-family="Times,serif" font-size="14.00">value = [11.481, 7.678]</text>
<text text-anchor="middle" x="1934" y="-7.8" font-family="Times,serif" font-size="14.00">class = Non&#45;obstructive</text>
</g>
<!-- 22&#45;&gt;24 -->
<g id="edge24" class="edge">
<title>22&#45;&gt;24</title>
<path fill="none" stroke="black" d="M1807.64,-118.87C1824.17,-108.88 1841.54,-98.38 1857.94,-88.47"/>
<polygon fill="black" stroke="black" points="1860.19,-91.2 1866.93,-83.03 1856.57,-85.21 1860.19,-91.2"/>
</g>
</g>
</svg>
