<?xml version="1.0" encoding="UTF-8" standalone="no"?>
<!DOCTYPE svg PUBLIC "-//W3C//DTD SVG 1.1//EN"
 "http://www.w3.org/Graphics/SVG/1.1/DTD/svg11.dtd">
<!-- Generated by graphviz version 2.43.0 (0)
 -->
<!-- Title: Tree Pages: 1 -->
<svg width="1570pt" height="627pt"
 viewBox="0.00 0.00 1570.00 627.00" xmlns="http://www.w3.org/2000/svg" xmlns:xlink="http://www.w3.org/1999/xlink">
<g id="graph0" class="graph" transform="scale(1 1) rotate(0) translate(4 623)">
<title>Tree</title>
<polygon fill="white" stroke="transparent" points="-4,4 -4,-623 1566,-623 1566,4 -4,4"/>
<!-- 0 -->
<g id="node1" class="node">
<title>0</title>
<polygon fill="none" stroke="black" points="619,-619 431,-619 431,-521 619,-521 619,-619"/>
<text text-anchor="middle" x="525" y="-603.8" font-family="Times,serif" font-size="14.00">node #0</text>
<text text-anchor="middle" x="525" y="-588.8" font-family="Times,serif" font-size="14.00">FEFPostVal &lt;= 0.715</text>
<text text-anchor="middle" x="525" y="-573.8" font-family="Times,serif" font-size="14.00">gini = 0.5</text>
<text text-anchor="middle" x="525" y="-558.8" font-family="Times,serif" font-size="14.00">samples = 201</text>
<text text-anchor="middle" x="525" y="-543.8" font-family="Times,serif" font-size="14.00">value = [167.0, 167.0]</text>
<text text-anchor="middle" x="525" y="-528.8" font-family="Times,serif" font-size="14.00">class = Non&#45;obstructive</text>
</g>
<!-- 1 -->
<g id="node2" class="node">
<title>1</title>
<polygon fill="none" stroke="black" points="511.5,-485 314.5,-485 314.5,-387 511.5,-387 511.5,-485"/>
<text text-anchor="middle" x="413" y="-469.8" font-family="Times,serif" font-size="14.00">node #1</text>
<text text-anchor="middle" x="413" y="-454.8" font-family="Times,serif" font-size="14.00">FVCPostPercent &lt;= 37.5</text>
<text text-anchor="middle" x="413" y="-439.8" font-family="Times,serif" font-size="14.00">gini = 0.052</text>
<text text-anchor="middle" x="413" y="-424.8" font-family="Times,serif" font-size="14.00">samples = 47</text>
<text text-anchor="middle" x="413" y="-409.8" font-family="Times,serif" font-size="14.00">value = [1.909, 69.321]</text>
<text text-anchor="middle" x="413" y="-394.8" font-family="Times,serif" font-size="14.00">class = Obstructive</text>
</g>
<!-- 0&#45;&gt;1 -->
<g id="edge1" class="edge">
<title>0&#45;&gt;1</title>
<path fill="none" stroke="black" d="M484.25,-520.97C476.53,-511.87 468.39,-502.28 460.48,-492.96"/>
<polygon fill="black" stroke="black" points="463.05,-490.57 453.91,-485.21 457.71,-495.1 463.05,-490.57"/>
<text text-anchor="middle" x="451.87" y="-506.43" font-family="Times,serif" font-size="14.00">True</text>
</g>
<!-- 4 -->
<g id="node5" class="node">
<title>4</title>
<polygon fill="none" stroke="black" points="744.5,-485 529.5,-485 529.5,-387 744.5,-387 744.5,-485"/>
<text text-anchor="middle" x="637" y="-469.8" font-family="Times,serif" font-size="14.00">node #4</text>
<text text-anchor="middle" x="637" y="-454.8" font-family="Times,serif" font-size="14.00">FVCPostPercent &lt;= 68.992</text>
<text text-anchor="middle" x="637" y="-439.8" font-family="Times,serif" font-size="14.00">gini = 0.467</text>
<text text-anchor="middle" x="637" y="-424.8" font-family="Times,serif" font-size="14.00">samples = 154</text>
<text text-anchor="middle" x="637" y="-409.8" font-family="Times,serif" font-size="14.00">value = [165.091, 97.679]</text>
<text text-anchor="middle" x="637" y="-394.8" font-family="Times,serif" font-size="14.00">class = Non&#45;obstructive</text>
</g>
<!-- 0&#45;&gt;4 -->
<g id="edge4" class="edge">
<title>0&#45;&gt;4</title>
<path fill="none" stroke="black" d="M565.75,-520.97C573.47,-511.87 581.61,-502.28 589.52,-492.96"/>
<polygon fill="black" stroke="black" points="592.29,-495.1 596.09,-485.21 586.95,-490.57 592.29,-495.1"/>
<text text-anchor="middle" x="598.13" y="-506.43" font-family="Times,serif" font-size="14.00">False</text>
</g>
<!-- 2 -->
<g id="node3" class="node">
<title>2</title>
<polygon fill="none" stroke="black" points="318,-343.5 130,-343.5 130,-260.5 318,-260.5 318,-343.5"/>
<text text-anchor="middle" x="224" y="-328.3" font-family="Times,serif" font-size="14.00">node #2</text>
<text text-anchor="middle" x="224" y="-313.3" font-family="Times,serif" font-size="14.00">gini = 0.0</text>
<text text-anchor="middle" x="224" y="-298.3" font-family="Times,serif" font-size="14.00">samples = 2</text>
<text text-anchor="middle" x="224" y="-283.3" font-family="Times,serif" font-size="14.00">value = [1.909, 0.0]</text>
<text text-anchor="middle" x="224" y="-268.3" font-family="Times,serif" font-size="14.00">class = Non&#45;obstructive</text>
</g>
<!-- 1&#45;&gt;2 -->
<g id="edge2" class="edge">
<title>1&#45;&gt;2</title>
<path fill="none" stroke="black" d="M344.23,-386.97C326.73,-374.75 307.95,-361.63 290.55,-349.48"/>
<polygon fill="black" stroke="black" points="292.34,-346.46 282.14,-343.6 288.33,-352.2 292.34,-346.46"/>
</g>
<!-- 3 -->
<g id="node4" class="node">
<title>3</title>
<polygon fill="none" stroke="black" points="503.5,-343.5 336.5,-343.5 336.5,-260.5 503.5,-260.5 503.5,-343.5"/>
<text text-anchor="middle" x="420" y="-328.3" font-family="Times,serif" font-size="14.00">node #3</text>
<text text-anchor="middle" x="420" y="-313.3" font-family="Times,serif" font-size="14.00">gini = 0.0</text>
<text text-anchor="middle" x="420" y="-298.3" font-family="Times,serif" font-size="14.00">samples = 45</text>
<text text-anchor="middle" x="420" y="-283.3" font-family="Times,serif" font-size="14.00">value = [0.0, 69.321]</text>
<text text-anchor="middle" x="420" y="-268.3" font-family="Times,serif" font-size="14.00">class = Obstructive</text>
</g>
<!-- 1&#45;&gt;3 -->
<g id="edge3" class="edge">
<title>1&#45;&gt;3</title>
<path fill="none" stroke="black" d="M415.55,-386.97C416.12,-376.25 416.72,-364.84 417.3,-353.99"/>
<polygon fill="black" stroke="black" points="420.8,-353.99 417.84,-343.82 413.81,-353.62 420.8,-353.99"/>
</g>
<!-- 5 -->
<g id="node6" class="node">
<title>5</title>
<polygon fill="none" stroke="black" points="725.5,-351 534.5,-351 534.5,-253 725.5,-253 725.5,-351"/>
<text text-anchor="middle" x="630" y="-335.8" font-family="Times,serif" font-size="14.00">node #5</text>
<text text-anchor="middle" x="630" y="-320.8" font-family="Times,serif" font-size="14.00">FEFPrePercent &lt;= 38.5</text>
<text text-anchor="middle" x="630" y="-305.8" font-family="Times,serif" font-size="14.00">gini = 0.189</text>
<text text-anchor="middle" x="630" y="-290.8" font-family="Times,serif" font-size="14.00">samples = 82</text>
<text text-anchor="middle" x="630" y="-275.8" font-family="Times,serif" font-size="14.00">value = [133.6, 15.755]</text>
<text text-anchor="middle" x="630" y="-260.8" font-family="Times,serif" font-size="14.00">class = Non&#45;obstructive</text>
</g>
<!-- 4&#45;&gt;5 -->
<g id="edge5" class="edge">
<title>4&#45;&gt;5</title>
<path fill="none" stroke="black" d="M634.45,-386.97C634.01,-378.6 633.54,-369.81 633.09,-361.2"/>
<polygon fill="black" stroke="black" points="636.58,-361.01 632.56,-351.21 629.59,-361.39 636.58,-361.01"/>
</g>
<!-- 12 -->
<g id="node13" class="node">
<title>12</title>
<polygon fill="none" stroke="black" points="1022,-351 828,-351 828,-253 1022,-253 1022,-351"/>
<text text-anchor="middle" x="925" y="-335.8" font-family="Times,serif" font-size="14.00">node #12</text>
<text text-anchor="middle" x="925" y="-320.8" font-family="Times,serif" font-size="14.00">FEFPrePercent &lt;= 68.0</text>
<text text-anchor="middle" x="925" y="-305.8" font-family="Times,serif" font-size="14.00">gini = 0.401</text>
<text text-anchor="middle" x="925" y="-290.8" font-family="Times,serif" font-size="14.00">samples = 72</text>
<text text-anchor="middle" x="925" y="-275.8" font-family="Times,serif" font-size="14.00">value = [31.491, 81.925]</text>
<text text-anchor="middle" x="925" y="-260.8" font-family="Times,serif" font-size="14.00">class = Obstructive</text>
</g>
<!-- 4&#45;&gt;12 -->
<g id="edge12" class="edge">
<title>4&#45;&gt;12</title>
<path fill="none" stroke="black" d="M741.79,-386.97C766.86,-375.48 793.64,-363.21 818.77,-351.69"/>
<polygon fill="black" stroke="black" points="820.32,-354.83 827.95,-347.48 817.4,-348.47 820.32,-354.83"/>
</g>
<!-- 6 -->
<g id="node7" class="node">
<title>6</title>
<polygon fill="none" stroke="black" points="388,-217 200,-217 200,-119 388,-119 388,-217"/>
<text text-anchor="middle" x="294" y="-201.8" font-family="Times,serif" font-size="14.00">node #6</text>
<text text-anchor="middle" x="294" y="-186.8" font-family="Times,serif" font-size="14.00">FEV1PostVal &lt;= 1.24</text>
<text text-anchor="middle" x="294" y="-171.8" font-family="Times,serif" font-size="14.00">gini = 0.488</text>
<text text-anchor="middle" x="294" y="-156.8" font-family="Times,serif" font-size="14.00">samples = 11</text>
<text text-anchor="middle" x="294" y="-141.8" font-family="Times,serif" font-size="14.00">value = [11.451, 8.403]</text>
<text text-anchor="middle" x="294" y="-126.8" font-family="Times,serif" font-size="14.00">class = Non&#45;obstructive</text>
</g>
<!-- 5&#45;&gt;6 -->
<g id="edge6" class="edge">
<title>5&#45;&gt;6</title>
<path fill="none" stroke="black" d="M534.42,-261.95C526.84,-258.9 519.3,-255.89 512,-253 474.79,-238.26 433.87,-222.41 397.64,-208.48"/>
<polygon fill="black" stroke="black" points="398.63,-205.11 388.04,-204.8 396.12,-211.65 398.63,-205.11"/>
</g>
<!-- 9 -->
<g id="node10" class="node">
<title>9</title>
<polygon fill="none" stroke="black" points="728.5,-217 531.5,-217 531.5,-119 728.5,-119 728.5,-217"/>
<text text-anchor="middle" x="630" y="-201.8" font-family="Times,serif" font-size="14.00">node #9</text>
<text text-anchor="middle" x="630" y="-186.8" font-family="Times,serif" font-size="14.00">FEFPostPercent &lt;= 31.0</text>
<text text-anchor="middle" x="630" y="-171.8" font-family="Times,serif" font-size="14.00">gini = 0.107</text>
<text text-anchor="middle" x="630" y="-156.8" font-family="Times,serif" font-size="14.00">samples = 71</text>
<text text-anchor="middle" x="630" y="-141.8" font-family="Times,serif" font-size="14.00">value = [122.149, 7.352]</text>
<text text-anchor="middle" x="630" y="-126.8" font-family="Times,serif" font-size="14.00">class = Non&#45;obstructive</text>
</g>
<!-- 5&#45;&gt;9 -->
<g id="edge9" class="edge">
<title>5&#45;&gt;9</title>
<path fill="none" stroke="black" d="M630,-252.97C630,-244.69 630,-236 630,-227.48"/>
<polygon fill="black" stroke="black" points="633.5,-227.21 630,-217.21 626.5,-227.21 633.5,-227.21"/>
</g>
<!-- 7 -->
<g id="node8" class="node">
<title>7</title>
<polygon fill="none" stroke="black" points="188,-83 0,-83 0,0 188,0 188,-83"/>
<text text-anchor="middle" x="94" y="-67.8" font-family="Times,serif" font-size="14.00">node #7</text>
<text text-anchor="middle" x="94" y="-52.8" font-family="Times,serif" font-size="14.00">gini = 0.0</text>
<text text-anchor="middle" x="94" y="-37.8" font-family="Times,serif" font-size="14.00">samples = 4</text>
<text text-anchor="middle" x="94" y="-22.8" font-family="Times,serif" font-size="14.00">value = [10.497, 0.0]</text>
<text text-anchor="middle" x="94" y="-7.8" font-family="Times,serif" font-size="14.00">class = Non&#45;obstructive</text>
</g>
<!-- 6&#45;&gt;7 -->
<g id="edge7" class="edge">
<title>6&#45;&gt;7</title>
<path fill="none" stroke="black" d="M216.67,-118.87C200.63,-108.88 183.76,-98.38 167.85,-88.47"/>
<polygon fill="black" stroke="black" points="169.45,-85.35 159.11,-83.03 165.75,-91.29 169.45,-85.35"/>
</g>
<!-- 8 -->
<g id="node9" class="node">
<title>8</title>
<polygon fill="none" stroke="black" points="382,-83 206,-83 206,0 382,0 382,-83"/>
<text text-anchor="middle" x="294" y="-67.8" font-family="Times,serif" font-size="14.00">node #8</text>
<text text-anchor="middle" x="294" y="-52.8" font-family="Times,serif" font-size="14.00">gini = 0.183</text>
<text text-anchor="middle" x="294" y="-37.8" font-family="Times,serif" font-size="14.00">samples = 7</text>
<text text-anchor="middle" x="294" y="-22.8" font-family="Times,serif" font-size="14.00">value = [0.954, 8.403]</text>
<text text-anchor="middle" x="294" y="-7.8" font-family="Times,serif" font-size="14.00">class = Obstructive</text>
</g>
<!-- 6&#45;&gt;8 -->
<g id="edge8" class="edge">
<title>6&#45;&gt;8</title>
<path fill="none" stroke="black" d="M294,-118.87C294,-110.5 294,-101.77 294,-93.33"/>
<polygon fill="black" stroke="black" points="297.5,-93.23 294,-83.23 290.5,-93.23 297.5,-93.23"/>
</g>
<!-- 10 -->
<g id="node11" class="node">
<title>10</title>
<polygon fill="none" stroke="black" points="557.5,-83 400.5,-83 400.5,0 557.5,0 557.5,-83"/>
<text text-anchor="middle" x="479" y="-67.8" font-family="Times,serif" font-size="14.00">node #10</text>
<text text-anchor="middle" x="479" y="-52.8" font-family="Times,serif" font-size="14.00">gini = 0.0</text>
<text text-anchor="middle" x="479" y="-37.8" font-family="Times,serif" font-size="14.00">samples = 1</text>
<text text-anchor="middle" x="479" y="-22.8" font-family="Times,serif" font-size="14.00">value = [0.0, 1.05]</text>
<text text-anchor="middle" x="479" y="-7.8" font-family="Times,serif" font-size="14.00">class = Obstructive</text>
</g>
<!-- 9&#45;&gt;10 -->
<g id="edge10" class="edge">
<title>9&#45;&gt;10</title>
<path fill="none" stroke="black" d="M571.62,-118.87C560.02,-109.3 547.85,-99.27 536.29,-89.74"/>
<polygon fill="black" stroke="black" points="538.34,-86.89 528.4,-83.23 533.89,-92.29 538.34,-86.89"/>
</g>
<!-- 11 -->
<g id="node12" class="node">
<title>11</title>
<polygon fill="none" stroke="black" points="770,-83 576,-83 576,0 770,0 770,-83"/>
<text text-anchor="middle" x="673" y="-67.8" font-family="Times,serif" font-size="14.00">node #11</text>
<text text-anchor="middle" x="673" y="-52.8" font-family="Times,serif" font-size="14.00">gini = 0.093</text>
<text text-anchor="middle" x="673" y="-37.8" font-family="Times,serif" font-size="14.00">samples = 70</text>
<text text-anchor="middle" x="673" y="-22.8" font-family="Times,serif" font-size="14.00">value = [122.149, 6.302]</text>
<text text-anchor="middle" x="673" y="-7.8" font-family="Times,serif" font-size="14.00">class = Non&#45;obstructive</text>
</g>
<!-- 9&#45;&gt;11 -->
<g id="edge11" class="edge">
<title>9&#45;&gt;11</title>
<path fill="none" stroke="black" d="M646.62,-118.87C649.58,-110.31 652.66,-101.39 655.63,-92.78"/>
<polygon fill="black" stroke="black" points="658.98,-93.83 658.93,-83.23 652.36,-91.54 658.98,-93.83"/>
</g>
<!-- 13 -->
<g id="node14" class="node">
<title>13</title>
<polygon fill="none" stroke="black" points="1022,-217 828,-217 828,-119 1022,-119 1022,-217"/>
<text text-anchor="middle" x="925" y="-201.8" font-family="Times,serif" font-size="14.00">node #13</text>
<text text-anchor="middle" x="925" y="-186.8" font-family="Times,serif" font-size="14.00">FVCPostVal &lt;= 2.105</text>
<text text-anchor="middle" x="925" y="-171.8" font-family="Times,serif" font-size="14.00">gini = 0.236</text>
<text text-anchor="middle" x="925" y="-156.8" font-family="Times,serif" font-size="14.00">samples = 50</text>
<text text-anchor="middle" x="925" y="-141.8" font-family="Times,serif" font-size="14.00">value = [11.451, 72.472]</text>
<text text-anchor="middle" x="925" y="-126.8" font-family="Times,serif" font-size="14.00">class = Obstructive</text>
</g>
<!-- 12&#45;&gt;13 -->
<g id="edge13" class="edge">
<title>12&#45;&gt;13</title>
<path fill="none" stroke="black" d="M925,-252.97C925,-244.69 925,-236 925,-227.48"/>
<polygon fill="black" stroke="black" points="928.5,-227.21 925,-217.21 921.5,-227.21 928.5,-227.21"/>
</g>
<!-- 16 -->
<g id="node17" class="node">
<title>16</title>
<polygon fill="none" stroke="black" points="1386,-217 1198,-217 1198,-119 1386,-119 1386,-217"/>
<text text-anchor="middle" x="1292" y="-201.8" font-family="Times,serif" font-size="14.00">node #16</text>
<text text-anchor="middle" x="1292" y="-186.8" font-family="Times,serif" font-size="14.00">FVCPreVal &lt;= 3.31</text>
<text text-anchor="middle" x="1292" y="-171.8" font-family="Times,serif" font-size="14.00">gini = 0.436</text>
<text text-anchor="middle" x="1292" y="-156.8" font-family="Times,serif" font-size="14.00">samples = 22</text>
<text text-anchor="middle" x="1292" y="-141.8" font-family="Times,serif" font-size="14.00">value = [20.04, 9.453]</text>
<text text-anchor="middle" x="1292" y="-126.8" font-family="Times,serif" font-size="14.00">class = Non&#45;obstructive</text>
</g>
<!-- 12&#45;&gt;16 -->
<g id="edge16" class="edge">
<title>12&#45;&gt;16</title>
<path fill="none" stroke="black" d="M1022.39,-265.97C1073.56,-247.57 1136.3,-225 1188.37,-206.27"/>
<polygon fill="black" stroke="black" points="1189.74,-209.5 1197.96,-202.82 1187.37,-202.91 1189.74,-209.5"/>
</g>
<!-- 14 -->
<g id="node15" class="node">
<title>14</title>
<polygon fill="none" stroke="black" points="976,-83 788,-83 788,0 976,0 976,-83"/>
<text text-anchor="middle" x="882" y="-67.8" font-family="Times,serif" font-size="14.00">node #14</text>
<text text-anchor="middle" x="882" y="-52.8" font-family="Times,serif" font-size="14.00">gini = 0.488</text>
<text text-anchor="middle" x="882" y="-37.8" font-family="Times,serif" font-size="14.00">samples = 4</text>
<text text-anchor="middle" x="882" y="-22.8" font-family="Times,serif" font-size="14.00">value = [2.863, 2.101]</text>
<text text-anchor="middle" x="882" y="-7.8" font-family="Times,serif" font-size="14.00">class = Non&#45;obstructive</text>
</g>
<!-- 13&#45;&gt;14 -->
<g id="edge14" class="edge">
<title>13&#45;&gt;14</title>
<path fill="none" stroke="black" d="M908.38,-118.87C905.42,-110.31 902.34,-101.39 899.37,-92.78"/>
<polygon fill="black" stroke="black" points="902.64,-91.54 896.07,-83.23 896.02,-93.83 902.64,-91.54"/>
</g>
<!-- 15 -->
<g id="node16" class="node">
<title>15</title>
<polygon fill="none" stroke="black" points="1179.5,-83 994.5,-83 994.5,0 1179.5,0 1179.5,-83"/>
<text text-anchor="middle" x="1087" y="-67.8" font-family="Times,serif" font-size="14.00">node #15</text>
<text text-anchor="middle" x="1087" y="-52.8" font-family="Times,serif" font-size="14.00">gini = 0.194</text>
<text text-anchor="middle" x="1087" y="-37.8" font-family="Times,serif" font-size="14.00">samples = 46</text>
<text text-anchor="middle" x="1087" y="-22.8" font-family="Times,serif" font-size="14.00">value = [8.589, 70.371]</text>
<text text-anchor="middle" x="1087" y="-7.8" font-family="Times,serif" font-size="14.00">class = Obstructive</text>
</g>
<!-- 13&#45;&gt;15 -->
<g id="edge15" class="edge">
<title>13&#45;&gt;15</title>
<path fill="none" stroke="black" d="M987.63,-118.87C1000.27,-109.15 1013.53,-98.96 1026.11,-89.3"/>
<polygon fill="black" stroke="black" points="1028.46,-91.9 1034.26,-83.03 1024.2,-86.35 1028.46,-91.9"/>
</g>
<!-- 17 -->
<g id="node18" class="node">
<title>17</title>
<polygon fill="none" stroke="black" points="1386,-83 1198,-83 1198,0 1386,0 1386,-83"/>
<text text-anchor="middle" x="1292" y="-67.8" font-family="Times,serif" font-size="14.00">node #17</text>
<text text-anchor="middle" x="1292" y="-52.8" font-family="Times,serif" font-size="14.00">gini = 0.364</text>
<text text-anchor="middle" x="1292" y="-37.8" font-family="Times,serif" font-size="14.00">samples = 19</text>
<text text-anchor="middle" x="1292" y="-22.8" font-family="Times,serif" font-size="14.00">value = [20.04, 6.302]</text>
<text text-anchor="middle" x="1292" y="-7.8" font-family="Times,serif" font-size="14.00">class = Non&#45;obstructive</text>
</g>
<!-- 16&#45;&gt;17 -->
<g id="edge17" class="edge">
<title>16&#45;&gt;17</title>
<path fill="none" stroke="black" d="M1292,-118.87C1292,-110.5 1292,-101.77 1292,-93.33"/>
<polygon fill="black" stroke="black" points="1295.5,-93.23 1292,-83.23 1288.5,-93.23 1295.5,-93.23"/>
</g>
<!-- 18 -->
<g id="node19" class="node">
<title>18</title>
<polygon fill="none" stroke="black" points="1562,-83 1404,-83 1404,0 1562,0 1562,-83"/>
<text text-anchor="middle" x="1483" y="-67.8" font-family="Times,serif" font-size="14.00">node #18</text>
<text text-anchor="middle" x="1483" y="-52.8" font-family="Times,serif" font-size="14.00">gini = &#45;0.0</text>
<text text-anchor="middle" x="1483" y="-37.8" font-family="Times,serif" font-size="14.00">samples = 3</text>
<text text-anchor="middle" x="1483" y="-22.8" font-family="Times,serif" font-size="14.00">value = [0.0, 3.151]</text>
<text text-anchor="middle" x="1483" y="-7.8" font-family="Times,serif" font-size="14.00">class = Obstructive</text>
</g>
<!-- 16&#45;&gt;18 -->
<g id="edge18" class="edge">
<title>16&#45;&gt;18</title>
<path fill="none" stroke="black" d="M1365.85,-118.87C1381.03,-108.97 1396.98,-98.57 1412.05,-88.74"/>
<polygon fill="black" stroke="black" points="1414.35,-91.43 1420.82,-83.03 1410.53,-85.56 1414.35,-91.43"/>
</g>
</g>
</svg>
