<?xml version="1.0" encoding="UTF-8" standalone="no"?>
<!DOCTYPE svg PUBLIC "-//W3C//DTD SVG 1.1//EN"
 "http://www.w3.org/Graphics/SVG/1.1/DTD/svg11.dtd">
<!-- Generated by graphviz version 2.43.0 (0)
 -->
<!-- Title: Tree Pages: 1 -->
<svg width="1570pt" height="627pt"
 viewBox="0.00 0.00 1569.50 627.00" xmlns="http://www.w3.org/2000/svg" xmlns:xlink="http://www.w3.org/1999/xlink">
<g id="graph0" class="graph" transform="scale(1 1) rotate(0) translate(4 623)">
<title>Tree</title>
<polygon fill="white" stroke="transparent" points="-4,4 -4,-623 1565.5,-623 1565.5,4 -4,4"/>
<!-- 0 -->
<g id="node1" class="node">
<title>0</title>
<polygon fill="none" stroke="black" points="626.5,-619 426.5,-619 426.5,-521 626.5,-521 626.5,-619"/>
<text text-anchor="middle" x="526.5" y="-603.8" font-family="Times,serif" font-size="14.00">node #0</text>
<text text-anchor="middle" x="526.5" y="-588.8" font-family="Times,serif" font-size="14.00">FEV1PrePercent &lt;= 32.5</text>
<text text-anchor="middle" x="526.5" y="-573.8" font-family="Times,serif" font-size="14.00">gini = 0.5</text>
<text text-anchor="middle" x="526.5" y="-558.8" font-family="Times,serif" font-size="14.00">samples = 206</text>
<text text-anchor="middle" x="526.5" y="-543.8" font-family="Times,serif" font-size="14.00">value = [167.0, 167.0]</text>
<text text-anchor="middle" x="526.5" y="-528.8" font-family="Times,serif" font-size="14.00">class = Non&#45;obstructive</text>
</g>
<!-- 1 -->
<g id="node2" class="node">
<title>1</title>
<polygon fill="none" stroke="black" points="512,-485 321,-485 321,-387 512,-387 512,-485"/>
<text text-anchor="middle" x="416.5" y="-469.8" font-family="Times,serif" font-size="14.00">node #1</text>
<text text-anchor="middle" x="416.5" y="-454.8" font-family="Times,serif" font-size="14.00">FEFPrePercent &lt;= 42.0</text>
<text text-anchor="middle" x="416.5" y="-439.8" font-family="Times,serif" font-size="14.00">gini = 0.087</text>
<text text-anchor="middle" x="416.5" y="-424.8" font-family="Times,serif" font-size="14.00">samples = 26</text>
<text text-anchor="middle" x="416.5" y="-409.8" font-family="Times,serif" font-size="14.00">value = [1.931, 40.453]</text>
<text text-anchor="middle" x="416.5" y="-394.8" font-family="Times,serif" font-size="14.00">class = Obstructive</text>
</g>
<!-- 0&#45;&gt;1 -->
<g id="edge1" class="edge">
<title>0&#45;&gt;1</title>
<path fill="none" stroke="black" d="M486.48,-520.97C478.89,-511.87 470.9,-502.28 463.13,-492.96"/>
<polygon fill="black" stroke="black" points="465.77,-490.66 456.68,-485.21 460.39,-495.14 465.77,-490.66"/>
<text text-anchor="middle" x="454.41" y="-506.41" font-family="Times,serif" font-size="14.00">True</text>
</g>
<!-- 4 -->
<g id="node5" class="node">
<title>4</title>
<polygon fill="none" stroke="black" points="742.5,-485 530.5,-485 530.5,-387 742.5,-387 742.5,-485"/>
<text text-anchor="middle" x="636.5" y="-469.8" font-family="Times,serif" font-size="14.00">node #4</text>
<text text-anchor="middle" x="636.5" y="-454.8" font-family="Times,serif" font-size="14.00">FEFPrePercent &lt;= 54.5</text>
<text text-anchor="middle" x="636.5" y="-439.8" font-family="Times,serif" font-size="14.00">gini = 0.491</text>
<text text-anchor="middle" x="636.5" y="-424.8" font-family="Times,serif" font-size="14.00">samples = 180</text>
<text text-anchor="middle" x="636.5" y="-409.8" font-family="Times,serif" font-size="14.00">value = [165.069, 126.547]</text>
<text text-anchor="middle" x="636.5" y="-394.8" font-family="Times,serif" font-size="14.00">class = Non&#45;obstructive</text>
</g>
<!-- 0&#45;&gt;4 -->
<g id="edge4" class="edge">
<title>0&#45;&gt;4</title>
<path fill="none" stroke="black" d="M566.52,-520.97C574.11,-511.87 582.1,-502.28 589.87,-492.96"/>
<polygon fill="black" stroke="black" points="592.61,-495.14 596.32,-485.21 587.23,-490.66 592.61,-495.14"/>
<text text-anchor="middle" x="598.59" y="-506.41" font-family="Times,serif" font-size="14.00">False</text>
</g>
<!-- 2 -->
<g id="node3" class="node">
<title>2</title>
<polygon fill="none" stroke="black" points="307,-343.5 140,-343.5 140,-260.5 307,-260.5 307,-343.5"/>
<text text-anchor="middle" x="223.5" y="-328.3" font-family="Times,serif" font-size="14.00">node #2</text>
<text text-anchor="middle" x="223.5" y="-313.3" font-family="Times,serif" font-size="14.00">gini = 0.0</text>
<text text-anchor="middle" x="223.5" y="-298.3" font-family="Times,serif" font-size="14.00">samples = 24</text>
<text text-anchor="middle" x="223.5" y="-283.3" font-family="Times,serif" font-size="14.00">value = [0.0, 40.453]</text>
<text text-anchor="middle" x="223.5" y="-268.3" font-family="Times,serif" font-size="14.00">class = Obstructive</text>
</g>
<!-- 1&#45;&gt;2 -->
<g id="edge2" class="edge">
<title>1&#45;&gt;2</title>
<path fill="none" stroke="black" d="M346.28,-386.97C328.4,-374.75 309.22,-361.63 291.46,-349.48"/>
<polygon fill="black" stroke="black" points="293.1,-346.36 282.87,-343.6 289.15,-352.14 293.1,-346.36"/>
</g>
<!-- 3 -->
<g id="node4" class="node">
<title>3</title>
<polygon fill="none" stroke="black" points="513.5,-343.5 325.5,-343.5 325.5,-260.5 513.5,-260.5 513.5,-343.5"/>
<text text-anchor="middle" x="419.5" y="-328.3" font-family="Times,serif" font-size="14.00">node #3</text>
<text text-anchor="middle" x="419.5" y="-313.3" font-family="Times,serif" font-size="14.00">gini = 0.0</text>
<text text-anchor="middle" x="419.5" y="-298.3" font-family="Times,serif" font-size="14.00">samples = 2</text>
<text text-anchor="middle" x="419.5" y="-283.3" font-family="Times,serif" font-size="14.00">value = [1.931, 0.0]</text>
<text text-anchor="middle" x="419.5" y="-268.3" font-family="Times,serif" font-size="14.00">class = Non&#45;obstructive</text>
</g>
<!-- 1&#45;&gt;3 -->
<g id="edge3" class="edge">
<title>1&#45;&gt;3</title>
<path fill="none" stroke="black" d="M417.59,-386.97C417.84,-376.25 418.09,-364.84 418.34,-353.99"/>
<polygon fill="black" stroke="black" points="421.84,-353.89 418.57,-343.82 414.85,-353.73 421.84,-353.89"/>
</g>
<!-- 5 -->
<g id="node6" class="node">
<title>5</title>
<polygon fill="none" stroke="black" points="733,-351 536,-351 536,-253 733,-253 733,-351"/>
<text text-anchor="middle" x="634.5" y="-335.8" font-family="Times,serif" font-size="14.00">node #5</text>
<text text-anchor="middle" x="634.5" y="-320.8" font-family="Times,serif" font-size="14.00">FVCPostPercent &lt;= 64.5</text>
<text text-anchor="middle" x="634.5" y="-305.8" font-family="Times,serif" font-size="14.00">gini = 0.415</text>
<text text-anchor="middle" x="634.5" y="-290.8" font-family="Times,serif" font-size="14.00">samples = 75</text>
<text text-anchor="middle" x="634.5" y="-275.8" font-family="Times,serif" font-size="14.00">value = [36.682, 88.168]</text>
<text text-anchor="middle" x="634.5" y="-260.8" font-family="Times,serif" font-size="14.00">class = Obstructive</text>
</g>
<!-- 4&#45;&gt;5 -->
<g id="edge5" class="edge">
<title>4&#45;&gt;5</title>
<path fill="none" stroke="black" d="M635.77,-386.97C635.65,-378.69 635.52,-370 635.39,-361.48"/>
<polygon fill="black" stroke="black" points="638.88,-361.16 635.23,-351.21 631.88,-361.27 638.88,-361.16"/>
</g>
<!-- 12 -->
<g id="node13" class="node">
<title>12</title>
<polygon fill="none" stroke="black" points="1039,-351 836,-351 836,-253 1039,-253 1039,-351"/>
<text text-anchor="middle" x="937.5" y="-335.8" font-family="Times,serif" font-size="14.00">node #12</text>
<text text-anchor="middle" x="937.5" y="-320.8" font-family="Times,serif" font-size="14.00">FVCPostPercent &lt;= 72.5</text>
<text text-anchor="middle" x="937.5" y="-305.8" font-family="Times,serif" font-size="14.00">gini = 0.354</text>
<text text-anchor="middle" x="937.5" y="-290.8" font-family="Times,serif" font-size="14.00">samples = 105</text>
<text text-anchor="middle" x="937.5" y="-275.8" font-family="Times,serif" font-size="14.00">value = [128.387, 38.379]</text>
<text text-anchor="middle" x="937.5" y="-260.8" font-family="Times,serif" font-size="14.00">class = Non&#45;obstructive</text>
</g>
<!-- 4&#45;&gt;12 -->
<g id="edge12" class="edge">
<title>4&#45;&gt;12</title>
<path fill="none" stroke="black" d="M742.62,-388.46C769.84,-376.52 799.19,-363.65 826.64,-351.62"/>
<polygon fill="black" stroke="black" points="828.12,-354.79 835.87,-347.57 825.31,-348.38 828.12,-354.79"/>
</g>
<!-- 6 -->
<g id="node7" class="node">
<title>6</title>
<polygon fill="none" stroke="black" points="376.5,-217 182.5,-217 182.5,-119 376.5,-119 376.5,-217"/>
<text text-anchor="middle" x="279.5" y="-201.8" font-family="Times,serif" font-size="14.00">node #6</text>
<text text-anchor="middle" x="279.5" y="-186.8" font-family="Times,serif" font-size="14.00">FEFPostVal &lt;= 0.745</text>
<text text-anchor="middle" x="279.5" y="-171.8" font-family="Times,serif" font-size="14.00">gini = 0.488</text>
<text text-anchor="middle" x="279.5" y="-156.8" font-family="Times,serif" font-size="14.00">samples = 23</text>
<text text-anchor="middle" x="279.5" y="-141.8" font-family="Times,serif" font-size="14.00">value = [21.237, 15.559]</text>
<text text-anchor="middle" x="279.5" y="-126.8" font-family="Times,serif" font-size="14.00">class = Non&#45;obstructive</text>
</g>
<!-- 5&#45;&gt;6 -->
<g id="edge6" class="edge">
<title>5&#45;&gt;6</title>
<path fill="none" stroke="black" d="M535.72,-258.21C531.26,-256.42 526.84,-254.68 522.5,-253 478.28,-235.91 428.92,-218.54 386.3,-204.06"/>
<polygon fill="black" stroke="black" points="387.34,-200.72 376.75,-200.83 385.1,-207.35 387.34,-200.72"/>
</g>
<!-- 9 -->
<g id="node10" class="node">
<title>9</title>
<polygon fill="none" stroke="black" points="737.5,-217 531.5,-217 531.5,-119 737.5,-119 737.5,-217"/>
<text text-anchor="middle" x="634.5" y="-201.8" font-family="Times,serif" font-size="14.00">node #9</text>
<text text-anchor="middle" x="634.5" y="-186.8" font-family="Times,serif" font-size="14.00">FEV1PostPercent &lt;= 82.5</text>
<text text-anchor="middle" x="634.5" y="-171.8" font-family="Times,serif" font-size="14.00">gini = 0.289</text>
<text text-anchor="middle" x="634.5" y="-156.8" font-family="Times,serif" font-size="14.00">samples = 52</text>
<text text-anchor="middle" x="634.5" y="-141.8" font-family="Times,serif" font-size="14.00">value = [15.445, 72.609]</text>
<text text-anchor="middle" x="634.5" y="-126.8" font-family="Times,serif" font-size="14.00">class = Obstructive</text>
</g>
<!-- 5&#45;&gt;9 -->
<g id="edge9" class="edge">
<title>5&#45;&gt;9</title>
<path fill="none" stroke="black" d="M634.5,-252.97C634.5,-244.69 634.5,-236 634.5,-227.48"/>
<polygon fill="black" stroke="black" points="638,-227.21 634.5,-217.21 631,-227.21 638,-227.21"/>
</g>
<!-- 7 -->
<g id="node8" class="node">
<title>7</title>
<polygon fill="none" stroke="black" points="167,-83 0,-83 0,0 167,0 167,-83"/>
<text text-anchor="middle" x="83.5" y="-67.8" font-family="Times,serif" font-size="14.00">node #7</text>
<text text-anchor="middle" x="83.5" y="-52.8" font-family="Times,serif" font-size="14.00">gini = 0.0</text>
<text text-anchor="middle" x="83.5" y="-37.8" font-family="Times,serif" font-size="14.00">samples = 6</text>
<text text-anchor="middle" x="83.5" y="-22.8" font-family="Times,serif" font-size="14.00">value = [0.0, 10.373]</text>
<text text-anchor="middle" x="83.5" y="-7.8" font-family="Times,serif" font-size="14.00">class = Obstructive</text>
</g>
<!-- 6&#45;&gt;7 -->
<g id="edge7" class="edge">
<title>6&#45;&gt;7</title>
<path fill="none" stroke="black" d="M203.72,-118.87C188,-108.88 171.47,-98.38 155.87,-88.47"/>
<polygon fill="black" stroke="black" points="157.63,-85.44 147.31,-83.03 153.87,-91.35 157.63,-85.44"/>
</g>
<!-- 8 -->
<g id="node9" class="node">
<title>8</title>
<polygon fill="none" stroke="black" points="373.5,-83 185.5,-83 185.5,0 373.5,0 373.5,-83"/>
<text text-anchor="middle" x="279.5" y="-67.8" font-family="Times,serif" font-size="14.00">node #8</text>
<text text-anchor="middle" x="279.5" y="-52.8" font-family="Times,serif" font-size="14.00">gini = 0.316</text>
<text text-anchor="middle" x="279.5" y="-37.8" font-family="Times,serif" font-size="14.00">samples = 17</text>
<text text-anchor="middle" x="279.5" y="-22.8" font-family="Times,serif" font-size="14.00">value = [21.237, 5.186]</text>
<text text-anchor="middle" x="279.5" y="-7.8" font-family="Times,serif" font-size="14.00">class = Non&#45;obstructive</text>
</g>
<!-- 6&#45;&gt;8 -->
<g id="edge8" class="edge">
<title>6&#45;&gt;8</title>
<path fill="none" stroke="black" d="M279.5,-118.87C279.5,-110.5 279.5,-101.77 279.5,-93.33"/>
<polygon fill="black" stroke="black" points="283,-93.23 279.5,-83.23 276,-93.23 283,-93.23"/>
</g>
<!-- 10 -->
<g id="node11" class="node">
<title>10</title>
<polygon fill="none" stroke="black" points="577,-83 392,-83 392,0 577,0 577,-83"/>
<text text-anchor="middle" x="484.5" y="-67.8" font-family="Times,serif" font-size="14.00">node #10</text>
<text text-anchor="middle" x="484.5" y="-52.8" font-family="Times,serif" font-size="14.00">gini = 0.156</text>
<text text-anchor="middle" x="484.5" y="-37.8" font-family="Times,serif" font-size="14.00">samples = 41</text>
<text text-anchor="middle" x="484.5" y="-22.8" font-family="Times,serif" font-size="14.00">value = [5.792, 62.236]</text>
<text text-anchor="middle" x="484.5" y="-7.8" font-family="Times,serif" font-size="14.00">class = Obstructive</text>
</g>
<!-- 9&#45;&gt;10 -->
<g id="edge10" class="edge">
<title>9&#45;&gt;10</title>
<path fill="none" stroke="black" d="M576.51,-118.87C564.98,-109.3 552.9,-99.27 541.41,-89.74"/>
<polygon fill="black" stroke="black" points="543.5,-86.92 533.57,-83.23 539.03,-92.31 543.5,-86.92"/>
</g>
<!-- 11 -->
<g id="node12" class="node">
<title>11</title>
<polygon fill="none" stroke="black" points="780,-83 595,-83 595,0 780,0 780,-83"/>
<text text-anchor="middle" x="687.5" y="-67.8" font-family="Times,serif" font-size="14.00">node #11</text>
<text text-anchor="middle" x="687.5" y="-52.8" font-family="Times,serif" font-size="14.00">gini = 0.499</text>
<text text-anchor="middle" x="687.5" y="-37.8" font-family="Times,serif" font-size="14.00">samples = 11</text>
<text text-anchor="middle" x="687.5" y="-22.8" font-family="Times,serif" font-size="14.00">value = [9.653, 10.373]</text>
<text text-anchor="middle" x="687.5" y="-7.8" font-family="Times,serif" font-size="14.00">class = Obstructive</text>
</g>
<!-- 9&#45;&gt;11 -->
<g id="edge11" class="edge">
<title>9&#45;&gt;11</title>
<path fill="none" stroke="black" d="M654.99,-118.87C658.67,-110.22 662.51,-101.2 666.21,-92.5"/>
<polygon fill="black" stroke="black" points="669.46,-93.8 670.16,-83.23 663.02,-91.06 669.46,-93.8"/>
</g>
<!-- 13 -->
<g id="node14" class="node">
<title>13</title>
<polygon fill="none" stroke="black" points="1031.5,-217 843.5,-217 843.5,-119 1031.5,-119 1031.5,-217"/>
<text text-anchor="middle" x="937.5" y="-201.8" font-family="Times,serif" font-size="14.00">node #13</text>
<text text-anchor="middle" x="937.5" y="-186.8" font-family="Times,serif" font-size="14.00">FEFPostVal &lt;= 1.265</text>
<text text-anchor="middle" x="937.5" y="-171.8" font-family="Times,serif" font-size="14.00">gini = 0.159</text>
<text text-anchor="middle" x="937.5" y="-156.8" font-family="Times,serif" font-size="14.00">samples = 64</text>
<text text-anchor="middle" x="937.5" y="-141.8" font-family="Times,serif" font-size="14.00">value = [97.497, 9.335]</text>
<text text-anchor="middle" x="937.5" y="-126.8" font-family="Times,serif" font-size="14.00">class = Non&#45;obstructive</text>
</g>
<!-- 12&#45;&gt;13 -->
<g id="edge13" class="edge">
<title>12&#45;&gt;13</title>
<path fill="none" stroke="black" d="M937.5,-252.97C937.5,-244.69 937.5,-236 937.5,-227.48"/>
<polygon fill="black" stroke="black" points="941,-227.21 937.5,-217.21 934,-227.21 941,-227.21"/>
</g>
<!-- 16 -->
<g id="node17" class="node">
<title>16</title>
<polygon fill="none" stroke="black" points="1385.5,-217 1197.5,-217 1197.5,-119 1385.5,-119 1385.5,-217"/>
<text text-anchor="middle" x="1291.5" y="-201.8" font-family="Times,serif" font-size="14.00">node #16</text>
<text text-anchor="middle" x="1291.5" y="-186.8" font-family="Times,serif" font-size="14.00">FEFPostVal &lt;= 3.71</text>
<text text-anchor="middle" x="1291.5" y="-171.8" font-family="Times,serif" font-size="14.00">gini = 0.5</text>
<text text-anchor="middle" x="1291.5" y="-156.8" font-family="Times,serif" font-size="14.00">samples = 41</text>
<text text-anchor="middle" x="1291.5" y="-141.8" font-family="Times,serif" font-size="14.00">value = [30.89, 29.043]</text>
<text text-anchor="middle" x="1291.5" y="-126.8" font-family="Times,serif" font-size="14.00">class = Non&#45;obstructive</text>
</g>
<!-- 12&#45;&gt;16 -->
<g id="edge16" class="edge">
<title>12&#45;&gt;16</title>
<path fill="none" stroke="black" d="M1039.42,-263C1085.95,-245.65 1140.98,-225.13 1187.73,-207.69"/>
<polygon fill="black" stroke="black" points="1189.12,-210.91 1197.27,-204.14 1186.68,-204.35 1189.12,-210.91"/>
</g>
<!-- 14 -->
<g id="node15" class="node">
<title>14</title>
<polygon fill="none" stroke="black" points="973.5,-83 797.5,-83 797.5,0 973.5,0 973.5,-83"/>
<text text-anchor="middle" x="885.5" y="-67.8" font-family="Times,serif" font-size="14.00">node #14</text>
<text text-anchor="middle" x="885.5" y="-52.8" font-family="Times,serif" font-size="14.00">gini = 0.499</text>
<text text-anchor="middle" x="885.5" y="-37.8" font-family="Times,serif" font-size="14.00">samples = 2</text>
<text text-anchor="middle" x="885.5" y="-22.8" font-family="Times,serif" font-size="14.00">value = [1.931, 2.075]</text>
<text text-anchor="middle" x="885.5" y="-7.8" font-family="Times,serif" font-size="14.00">class = Obstructive</text>
</g>
<!-- 13&#45;&gt;14 -->
<g id="edge14" class="edge">
<title>13&#45;&gt;14</title>
<path fill="none" stroke="black" d="M917.4,-118.87C913.79,-110.22 910.02,-101.2 906.38,-92.5"/>
<polygon fill="black" stroke="black" points="909.6,-91.11 902.51,-83.23 903.14,-93.81 909.6,-91.11"/>
</g>
<!-- 15 -->
<g id="node16" class="node">
<title>15</title>
<polygon fill="none" stroke="black" points="1179.5,-83 991.5,-83 991.5,0 1179.5,0 1179.5,-83"/>
<text text-anchor="middle" x="1085.5" y="-67.8" font-family="Times,serif" font-size="14.00">node #15</text>
<text text-anchor="middle" x="1085.5" y="-52.8" font-family="Times,serif" font-size="14.00">gini = 0.131</text>
<text text-anchor="middle" x="1085.5" y="-37.8" font-family="Times,serif" font-size="14.00">samples = 62</text>
<text text-anchor="middle" x="1085.5" y="-22.8" font-family="Times,serif" font-size="14.00">value = [95.566, 7.261]</text>
<text text-anchor="middle" x="1085.5" y="-7.8" font-family="Times,serif" font-size="14.00">class = Non&#45;obstructive</text>
</g>
<!-- 13&#45;&gt;15 -->
<g id="edge15" class="edge">
<title>13&#45;&gt;15</title>
<path fill="none" stroke="black" d="M994.72,-118.87C1006.09,-109.3 1018.01,-99.27 1029.34,-89.74"/>
<polygon fill="black" stroke="black" points="1031.68,-92.35 1037.08,-83.23 1027.18,-86.99 1031.68,-92.35"/>
</g>
<!-- 17 -->
<g id="node18" class="node">
<title>17</title>
<polygon fill="none" stroke="black" points="1385.5,-83 1197.5,-83 1197.5,0 1385.5,0 1385.5,-83"/>
<text text-anchor="middle" x="1291.5" y="-67.8" font-family="Times,serif" font-size="14.00">node #17</text>
<text text-anchor="middle" x="1291.5" y="-52.8" font-family="Times,serif" font-size="14.00">gini = 0.494</text>
<text text-anchor="middle" x="1291.5" y="-37.8" font-family="Times,serif" font-size="14.00">samples = 38</text>
<text text-anchor="middle" x="1291.5" y="-22.8" font-family="Times,serif" font-size="14.00">value = [30.89, 24.894]</text>
<text text-anchor="middle" x="1291.5" y="-7.8" font-family="Times,serif" font-size="14.00">class = Non&#45;obstructive</text>
</g>
<!-- 16&#45;&gt;17 -->
<g id="edge17" class="edge">
<title>16&#45;&gt;17</title>
<path fill="none" stroke="black" d="M1291.5,-118.87C1291.5,-110.5 1291.5,-101.77 1291.5,-93.33"/>
<polygon fill="black" stroke="black" points="1295,-93.23 1291.5,-83.23 1288,-93.23 1295,-93.23"/>
</g>
<!-- 18 -->
<g id="node19" class="node">
<title>18</title>
<polygon fill="none" stroke="black" points="1561.5,-83 1403.5,-83 1403.5,0 1561.5,0 1561.5,-83"/>
<text text-anchor="middle" x="1482.5" y="-67.8" font-family="Times,serif" font-size="14.00">node #18</text>
<text text-anchor="middle" x="1482.5" y="-52.8" font-family="Times,serif" font-size="14.00">gini = 0.0</text>
<text text-anchor="middle" x="1482.5" y="-37.8" font-family="Times,serif" font-size="14.00">samples = 3</text>
<text text-anchor="middle" x="1482.5" y="-22.8" font-family="Times,serif" font-size="14.00">value = [0.0, 4.149]</text>
<text text-anchor="middle" x="1482.5" y="-7.8" font-family="Times,serif" font-size="14.00">class = Obstructive</text>
</g>
<!-- 16&#45;&gt;18 -->
<g id="edge18" class="edge">
<title>16&#45;&gt;18</title>
<path fill="none" stroke="black" d="M1365.35,-118.87C1380.53,-108.97 1396.48,-98.57 1411.55,-88.74"/>
<polygon fill="black" stroke="black" points="1413.85,-91.43 1420.32,-83.03 1410.03,-85.56 1413.85,-91.43"/>
</g>
</g>
</svg>
