<?xml version="1.0" encoding="UTF-8" standalone="no"?>
<!DOCTYPE svg PUBLIC "-//W3C//DTD SVG 1.1//EN"
 "http://www.w3.org/Graphics/SVG/1.1/DTD/svg11.dtd">
<!-- Generated by graphviz version 2.43.0 (0)
 -->
<!-- Title: Tree Pages: 1 -->
<svg width="2182pt" height="627pt"
 viewBox="0.00 0.00 2182.00 627.00" xmlns="http://www.w3.org/2000/svg" xmlns:xlink="http://www.w3.org/1999/xlink">
<g id="graph0" class="graph" transform="scale(1 1) rotate(0) translate(4 623)">
<title>Tree</title>
<polygon fill="white" stroke="transparent" points="-4,4 -4,-623 2178,-623 2178,4 -4,4"/>
<!-- 0 -->
<g id="node1" class="node">
<title>0</title>
<polygon fill="none" stroke="black" points="1487.5,-619 1296.5,-619 1296.5,-521 1487.5,-521 1487.5,-619"/>
<text text-anchor="middle" x="1392" y="-603.8" font-family="Times,serif" font-size="14.00">node #0</text>
<text text-anchor="middle" x="1392" y="-588.8" font-family="Times,serif" font-size="14.00">FEFPrePercent &lt;= 67.5</text>
<text text-anchor="middle" x="1392" y="-573.8" font-family="Times,serif" font-size="14.00">gini = 0.5</text>
<text text-anchor="middle" x="1392" y="-558.8" font-family="Times,serif" font-size="14.00">samples = 205</text>
<text text-anchor="middle" x="1392" y="-543.8" font-family="Times,serif" font-size="14.00">value = [167.0, 167.0]</text>
<text text-anchor="middle" x="1392" y="-528.8" font-family="Times,serif" font-size="14.00">class = Non&#45;obstructive</text>
</g>
<!-- 1 -->
<g id="node2" class="node">
<title>1</title>
<polygon fill="none" stroke="black" points="1280.5,-485 1077.5,-485 1077.5,-387 1280.5,-387 1280.5,-485"/>
<text text-anchor="middle" x="1179" y="-469.8" font-family="Times,serif" font-size="14.00">node #1</text>
<text text-anchor="middle" x="1179" y="-454.8" font-family="Times,serif" font-size="14.00">FEFPostVal &lt;= 0.865</text>
<text text-anchor="middle" x="1179" y="-439.8" font-family="Times,serif" font-size="14.00">gini = 0.395</text>
<text text-anchor="middle" x="1179" y="-424.8" font-family="Times,serif" font-size="14.00">samples = 128</text>
<text text-anchor="middle" x="1179" y="-409.8" font-family="Times,serif" font-size="14.00">value = [56.679, 152.178]</text>
<text text-anchor="middle" x="1179" y="-394.8" font-family="Times,serif" font-size="14.00">class = Obstructive</text>
</g>
<!-- 0&#45;&gt;1 -->
<g id="edge1" class="edge">
<title>0&#45;&gt;1</title>
<path fill="none" stroke="black" d="M1314.5,-520.97C1298.64,-511.14 1281.86,-500.74 1265.7,-490.73"/>
<polygon fill="black" stroke="black" points="1267.14,-487.51 1256.8,-485.21 1263.46,-493.46 1267.14,-487.51"/>
<text text-anchor="middle" x="1262.51" y="-505.85" font-family="Times,serif" font-size="14.00">True</text>
</g>
<!-- 16 -->
<g id="node17" class="node">
<title>16</title>
<polygon fill="none" stroke="black" points="1694.5,-485 1491.5,-485 1491.5,-387 1694.5,-387 1694.5,-485"/>
<text text-anchor="middle" x="1593" y="-469.8" font-family="Times,serif" font-size="14.00">node #16</text>
<text text-anchor="middle" x="1593" y="-454.8" font-family="Times,serif" font-size="14.00">FEV1PreVal &lt;= 2.85</text>
<text text-anchor="middle" x="1593" y="-439.8" font-family="Times,serif" font-size="14.00">gini = 0.209</text>
<text text-anchor="middle" x="1593" y="-424.8" font-family="Times,serif" font-size="14.00">samples = 77</text>
<text text-anchor="middle" x="1593" y="-409.8" font-family="Times,serif" font-size="14.00">value = [110.321, 14.822]</text>
<text text-anchor="middle" x="1593" y="-394.8" font-family="Times,serif" font-size="14.00">class = Non&#45;obstructive</text>
</g>
<!-- 0&#45;&gt;16 -->
<g id="edge16" class="edge">
<title>0&#45;&gt;16</title>
<path fill="none" stroke="black" d="M1465.13,-520.97C1480.1,-511.14 1495.94,-500.74 1511.18,-490.73"/>
<polygon fill="black" stroke="black" points="1513.15,-493.63 1519.58,-485.21 1509.3,-487.78 1513.15,-493.63"/>
<text text-anchor="middle" x="1514.51" y="-505.99" font-family="Times,serif" font-size="14.00">False</text>
</g>
<!-- 2 -->
<g id="node3" class="node">
<title>2</title>
<polygon fill="none" stroke="black" points="677.5,-351 492.5,-351 492.5,-253 677.5,-253 677.5,-351"/>
<text text-anchor="middle" x="585" y="-335.8" font-family="Times,serif" font-size="14.00">node #2</text>
<text text-anchor="middle" x="585" y="-320.8" font-family="Times,serif" font-size="14.00">FVCPreVal &lt;= 1.06</text>
<text text-anchor="middle" x="585" y="-305.8" font-family="Times,serif" font-size="14.00">gini = 0.164</text>
<text text-anchor="middle" x="585" y="-290.8" font-family="Times,serif" font-size="14.00">samples = 58</text>
<text text-anchor="middle" x="585" y="-275.8" font-family="Times,serif" font-size="14.00">value = [9.109, 91.899]</text>
<text text-anchor="middle" x="585" y="-260.8" font-family="Times,serif" font-size="14.00">class = Obstructive</text>
</g>
<!-- 1&#45;&gt;2 -->
<g id="edge2" class="edge">
<title>1&#45;&gt;2</title>
<path fill="none" stroke="black" d="M1077.23,-412.38C968.4,-388.2 796.79,-350.07 687.64,-325.81"/>
<polygon fill="black" stroke="black" points="688.12,-322.33 677.6,-323.58 686.6,-329.16 688.12,-322.33"/>
</g>
<!-- 9 -->
<g id="node10" class="node">
<title>9</title>
<polygon fill="none" stroke="black" points="1271.5,-351 1086.5,-351 1086.5,-253 1271.5,-253 1271.5,-351"/>
<text text-anchor="middle" x="1179" y="-335.8" font-family="Times,serif" font-size="14.00">node #9</text>
<text text-anchor="middle" x="1179" y="-320.8" font-family="Times,serif" font-size="14.00">FEV1PostVal &lt;= 1.655</text>
<text text-anchor="middle" x="1179" y="-305.8" font-family="Times,serif" font-size="14.00">gini = 0.493</text>
<text text-anchor="middle" x="1179" y="-290.8" font-family="Times,serif" font-size="14.00">samples = 70</text>
<text text-anchor="middle" x="1179" y="-275.8" font-family="Times,serif" font-size="14.00">value = [47.57, 60.278]</text>
<text text-anchor="middle" x="1179" y="-260.8" font-family="Times,serif" font-size="14.00">class = Obstructive</text>
</g>
<!-- 1&#45;&gt;9 -->
<g id="edge9" class="edge">
<title>1&#45;&gt;9</title>
<path fill="none" stroke="black" d="M1179,-386.97C1179,-378.69 1179,-370 1179,-361.48"/>
<polygon fill="black" stroke="black" points="1182.5,-361.21 1179,-351.21 1175.5,-361.21 1182.5,-361.21"/>
</g>
<!-- 3 -->
<g id="node4" class="node">
<title>3</title>
<polygon fill="none" stroke="black" points="386.5,-217 189.5,-217 189.5,-119 386.5,-119 386.5,-217"/>
<text text-anchor="middle" x="288" y="-201.8" font-family="Times,serif" font-size="14.00">node #3</text>
<text text-anchor="middle" x="288" y="-186.8" font-family="Times,serif" font-size="14.00">FEFPostPercent &lt;= 21.0</text>
<text text-anchor="middle" x="288" y="-171.8" font-family="Times,serif" font-size="14.00">gini = 0.499</text>
<text text-anchor="middle" x="288" y="-156.8" font-family="Times,serif" font-size="14.00">samples = 7</text>
<text text-anchor="middle" x="288" y="-141.8" font-family="Times,serif" font-size="14.00">value = [7.085, 7.905]</text>
<text text-anchor="middle" x="288" y="-126.8" font-family="Times,serif" font-size="14.00">class = Obstructive</text>
</g>
<!-- 2&#45;&gt;3 -->
<g id="edge3" class="edge">
<title>2&#45;&gt;3</title>
<path fill="none" stroke="black" d="M492.25,-259.78C461.73,-246.21 427.54,-231.02 395.99,-217"/>
<polygon fill="black" stroke="black" points="397.29,-213.74 386.73,-212.88 394.45,-220.14 397.29,-213.74"/>
</g>
<!-- 6 -->
<g id="node7" class="node">
<title>6</title>
<polygon fill="none" stroke="black" points="677.5,-217 492.5,-217 492.5,-119 677.5,-119 677.5,-217"/>
<text text-anchor="middle" x="585" y="-201.8" font-family="Times,serif" font-size="14.00">node #6</text>
<text text-anchor="middle" x="585" y="-186.8" font-family="Times,serif" font-size="14.00">FEFPostVal &lt;= 0.725</text>
<text text-anchor="middle" x="585" y="-171.8" font-family="Times,serif" font-size="14.00">gini = 0.046</text>
<text text-anchor="middle" x="585" y="-156.8" font-family="Times,serif" font-size="14.00">samples = 51</text>
<text text-anchor="middle" x="585" y="-141.8" font-family="Times,serif" font-size="14.00">value = [2.024, 83.994]</text>
<text text-anchor="middle" x="585" y="-126.8" font-family="Times,serif" font-size="14.00">class = Obstructive</text>
</g>
<!-- 2&#45;&gt;6 -->
<g id="edge6" class="edge">
<title>2&#45;&gt;6</title>
<path fill="none" stroke="black" d="M585,-252.97C585,-244.69 585,-236 585,-227.48"/>
<polygon fill="black" stroke="black" points="588.5,-227.21 585,-217.21 581.5,-227.21 588.5,-227.21"/>
</g>
<!-- 4 -->
<g id="node5" class="node">
<title>4</title>
<polygon fill="none" stroke="black" points="176,-83 0,-83 0,0 176,0 176,-83"/>
<text text-anchor="middle" x="88" y="-67.8" font-family="Times,serif" font-size="14.00">node #4</text>
<text text-anchor="middle" x="88" y="-52.8" font-family="Times,serif" font-size="14.00">gini = 0.201</text>
<text text-anchor="middle" x="88" y="-37.8" font-family="Times,serif" font-size="14.00">samples = 5</text>
<text text-anchor="middle" x="88" y="-22.8" font-family="Times,serif" font-size="14.00">value = [1.012, 7.905]</text>
<text text-anchor="middle" x="88" y="-7.8" font-family="Times,serif" font-size="14.00">class = Obstructive</text>
</g>
<!-- 3&#45;&gt;4 -->
<g id="edge4" class="edge">
<title>3&#45;&gt;4</title>
<path fill="none" stroke="black" d="M210.67,-118.87C194.63,-108.88 177.76,-98.38 161.85,-88.47"/>
<polygon fill="black" stroke="black" points="163.45,-85.35 153.11,-83.03 159.75,-91.29 163.45,-85.35"/>
</g>
<!-- 5 -->
<g id="node6" class="node">
<title>5</title>
<polygon fill="none" stroke="black" points="382,-83 194,-83 194,0 382,0 382,-83"/>
<text text-anchor="middle" x="288" y="-67.8" font-family="Times,serif" font-size="14.00">node #5</text>
<text text-anchor="middle" x="288" y="-52.8" font-family="Times,serif" font-size="14.00">gini = &#45;0.0</text>
<text text-anchor="middle" x="288" y="-37.8" font-family="Times,serif" font-size="14.00">samples = 2</text>
<text text-anchor="middle" x="288" y="-22.8" font-family="Times,serif" font-size="14.00">value = [6.073, 0.0]</text>
<text text-anchor="middle" x="288" y="-7.8" font-family="Times,serif" font-size="14.00">class = Non&#45;obstructive</text>
</g>
<!-- 3&#45;&gt;5 -->
<g id="edge5" class="edge">
<title>3&#45;&gt;5</title>
<path fill="none" stroke="black" d="M288,-118.87C288,-110.5 288,-101.77 288,-93.33"/>
<polygon fill="black" stroke="black" points="291.5,-93.23 288,-83.23 284.5,-93.23 291.5,-93.23"/>
</g>
<!-- 7 -->
<g id="node8" class="node">
<title>7</title>
<polygon fill="none" stroke="black" points="567.5,-83 400.5,-83 400.5,0 567.5,0 567.5,-83"/>
<text text-anchor="middle" x="484" y="-67.8" font-family="Times,serif" font-size="14.00">node #7</text>
<text text-anchor="middle" x="484" y="-52.8" font-family="Times,serif" font-size="14.00">gini = 0.0</text>
<text text-anchor="middle" x="484" y="-37.8" font-family="Times,serif" font-size="14.00">samples = 44</text>
<text text-anchor="middle" x="484" y="-22.8" font-family="Times,serif" font-size="14.00">value = [0.0, 74.112]</text>
<text text-anchor="middle" x="484" y="-7.8" font-family="Times,serif" font-size="14.00">class = Obstructive</text>
</g>
<!-- 6&#45;&gt;7 -->
<g id="edge7" class="edge">
<title>6&#45;&gt;7</title>
<path fill="none" stroke="black" d="M545.95,-118.87C538.57,-109.76 530.84,-100.23 523.44,-91.12"/>
<polygon fill="black" stroke="black" points="526.06,-88.79 517.04,-83.23 520.62,-93.2 526.06,-88.79"/>
</g>
<!-- 8 -->
<g id="node9" class="node">
<title>8</title>
<polygon fill="none" stroke="black" points="761,-83 585,-83 585,0 761,0 761,-83"/>
<text text-anchor="middle" x="673" y="-67.8" font-family="Times,serif" font-size="14.00">node #8</text>
<text text-anchor="middle" x="673" y="-52.8" font-family="Times,serif" font-size="14.00">gini = 0.282</text>
<text text-anchor="middle" x="673" y="-37.8" font-family="Times,serif" font-size="14.00">samples = 7</text>
<text text-anchor="middle" x="673" y="-22.8" font-family="Times,serif" font-size="14.00">value = [2.024, 9.882]</text>
<text text-anchor="middle" x="673" y="-7.8" font-family="Times,serif" font-size="14.00">class = Obstructive</text>
</g>
<!-- 6&#45;&gt;8 -->
<g id="edge8" class="edge">
<title>6&#45;&gt;8</title>
<path fill="none" stroke="black" d="M619.02,-118.87C625.33,-109.95 631.92,-100.62 638.25,-91.67"/>
<polygon fill="black" stroke="black" points="641.3,-93.42 644.21,-83.23 635.58,-89.38 641.3,-93.42"/>
</g>
<!-- 10 -->
<g id="node11" class="node">
<title>10</title>
<polygon fill="none" stroke="black" points="1171,-217 983,-217 983,-119 1171,-119 1171,-217"/>
<text text-anchor="middle" x="1077" y="-201.8" font-family="Times,serif" font-size="14.00">node #10</text>
<text text-anchor="middle" x="1077" y="-186.8" font-family="Times,serif" font-size="14.00">FEV1PreVal &lt;= 1.315</text>
<text text-anchor="middle" x="1077" y="-171.8" font-family="Times,serif" font-size="14.00">gini = 0.177</text>
<text text-anchor="middle" x="1077" y="-156.8" font-family="Times,serif" font-size="14.00">samples = 19</text>
<text text-anchor="middle" x="1077" y="-141.8" font-family="Times,serif" font-size="14.00">value = [27.327, 2.964]</text>
<text text-anchor="middle" x="1077" y="-126.8" font-family="Times,serif" font-size="14.00">class = Non&#45;obstructive</text>
</g>
<!-- 9&#45;&gt;10 -->
<g id="edge10" class="edge">
<title>9&#45;&gt;10</title>
<path fill="none" stroke="black" d="M1141.89,-252.97C1134.93,-243.96 1127.59,-234.47 1120.46,-225.24"/>
<polygon fill="black" stroke="black" points="1123.14,-222.99 1114.26,-217.21 1117.6,-227.27 1123.14,-222.99"/>
</g>
<!-- 13 -->
<g id="node14" class="node">
<title>13</title>
<polygon fill="none" stroke="black" points="1383,-217 1189,-217 1189,-119 1383,-119 1383,-217"/>
<text text-anchor="middle" x="1286" y="-201.8" font-family="Times,serif" font-size="14.00">node #13</text>
<text text-anchor="middle" x="1286" y="-186.8" font-family="Times,serif" font-size="14.00">FEFPreVal &lt;= 2.68</text>
<text text-anchor="middle" x="1286" y="-171.8" font-family="Times,serif" font-size="14.00">gini = 0.386</text>
<text text-anchor="middle" x="1286" y="-156.8" font-family="Times,serif" font-size="14.00">samples = 51</text>
<text text-anchor="middle" x="1286" y="-141.8" font-family="Times,serif" font-size="14.00">value = [20.242, 57.314]</text>
<text text-anchor="middle" x="1286" y="-126.8" font-family="Times,serif" font-size="14.00">class = Obstructive</text>
</g>
<!-- 9&#45;&gt;13 -->
<g id="edge13" class="edge">
<title>9&#45;&gt;13</title>
<path fill="none" stroke="black" d="M1217.93,-252.97C1225.23,-243.96 1232.93,-234.47 1240.41,-225.24"/>
<polygon fill="black" stroke="black" points="1243.34,-227.19 1246.92,-217.21 1237.9,-222.78 1243.34,-227.19"/>
</g>
<!-- 11 -->
<g id="node12" class="node">
<title>11</title>
<polygon fill="none" stroke="black" points="967,-83 779,-83 779,0 967,0 967,-83"/>
<text text-anchor="middle" x="873" y="-67.8" font-family="Times,serif" font-size="14.00">node #11</text>
<text text-anchor="middle" x="873" y="-52.8" font-family="Times,serif" font-size="14.00">gini = 0.0</text>
<text text-anchor="middle" x="873" y="-37.8" font-family="Times,serif" font-size="14.00">samples = 11</text>
<text text-anchor="middle" x="873" y="-22.8" font-family="Times,serif" font-size="14.00">value = [19.23, 0.0]</text>
<text text-anchor="middle" x="873" y="-7.8" font-family="Times,serif" font-size="14.00">class = Non&#45;obstructive</text>
</g>
<!-- 10&#45;&gt;11 -->
<g id="edge11" class="edge">
<title>10&#45;&gt;11</title>
<path fill="none" stroke="black" d="M998.13,-118.87C981.76,-108.88 964.56,-98.38 948.32,-88.47"/>
<polygon fill="black" stroke="black" points="949.77,-85.25 939.41,-83.03 946.13,-91.23 949.77,-85.25"/>
</g>
<!-- 12 -->
<g id="node13" class="node">
<title>12</title>
<polygon fill="none" stroke="black" points="1173,-83 985,-83 985,0 1173,0 1173,-83"/>
<text text-anchor="middle" x="1079" y="-67.8" font-family="Times,serif" font-size="14.00">node #12</text>
<text text-anchor="middle" x="1079" y="-52.8" font-family="Times,serif" font-size="14.00">gini = 0.392</text>
<text text-anchor="middle" x="1079" y="-37.8" font-family="Times,serif" font-size="14.00">samples = 8</text>
<text text-anchor="middle" x="1079" y="-22.8" font-family="Times,serif" font-size="14.00">value = [8.097, 2.964]</text>
<text text-anchor="middle" x="1079" y="-7.8" font-family="Times,serif" font-size="14.00">class = Non&#45;obstructive</text>
</g>
<!-- 10&#45;&gt;12 -->
<g id="edge12" class="edge">
<title>10&#45;&gt;12</title>
<path fill="none" stroke="black" d="M1077.77,-118.87C1077.91,-110.5 1078.05,-101.77 1078.18,-93.33"/>
<polygon fill="black" stroke="black" points="1081.68,-93.29 1078.35,-83.23 1074.69,-93.17 1081.68,-93.29"/>
</g>
<!-- 14 -->
<g id="node15" class="node">
<title>14</title>
<polygon fill="none" stroke="black" points="1376.5,-83 1191.5,-83 1191.5,0 1376.5,0 1376.5,-83"/>
<text text-anchor="middle" x="1284" y="-67.8" font-family="Times,serif" font-size="14.00">node #14</text>
<text text-anchor="middle" x="1284" y="-52.8" font-family="Times,serif" font-size="14.00">gini = 0.325</text>
<text text-anchor="middle" x="1284" y="-37.8" font-family="Times,serif" font-size="14.00">samples = 46</text>
<text text-anchor="middle" x="1284" y="-22.8" font-family="Times,serif" font-size="14.00">value = [14.17, 55.337]</text>
<text text-anchor="middle" x="1284" y="-7.8" font-family="Times,serif" font-size="14.00">class = Obstructive</text>
</g>
<!-- 13&#45;&gt;14 -->
<g id="edge14" class="edge">
<title>13&#45;&gt;14</title>
<path fill="none" stroke="black" d="M1285.23,-118.87C1285.09,-110.5 1284.95,-101.77 1284.82,-93.33"/>
<polygon fill="black" stroke="black" points="1288.31,-93.17 1284.65,-83.23 1281.32,-93.29 1288.31,-93.17"/>
</g>
<!-- 15 -->
<g id="node16" class="node">
<title>15</title>
<polygon fill="none" stroke="black" points="1583,-83 1395,-83 1395,0 1583,0 1583,-83"/>
<text text-anchor="middle" x="1489" y="-67.8" font-family="Times,serif" font-size="14.00">node #15</text>
<text text-anchor="middle" x="1489" y="-52.8" font-family="Times,serif" font-size="14.00">gini = 0.37</text>
<text text-anchor="middle" x="1489" y="-37.8" font-family="Times,serif" font-size="14.00">samples = 5</text>
<text text-anchor="middle" x="1489" y="-22.8" font-family="Times,serif" font-size="14.00">value = [6.073, 1.976]</text>
<text text-anchor="middle" x="1489" y="-7.8" font-family="Times,serif" font-size="14.00">class = Non&#45;obstructive</text>
</g>
<!-- 13&#45;&gt;15 -->
<g id="edge15" class="edge">
<title>13&#45;&gt;15</title>
<path fill="none" stroke="black" d="M1364.49,-118.87C1380.77,-108.88 1397.89,-98.38 1414.05,-88.47"/>
<polygon fill="black" stroke="black" points="1416.22,-91.24 1422.91,-83.03 1412.56,-85.28 1416.22,-91.24"/>
</g>
<!-- 17 -->
<g id="node18" class="node">
<title>17</title>
<polygon fill="none" stroke="black" points="1690,-351 1496,-351 1496,-253 1690,-253 1690,-351"/>
<text text-anchor="middle" x="1593" y="-335.8" font-family="Times,serif" font-size="14.00">node #17</text>
<text text-anchor="middle" x="1593" y="-320.8" font-family="Times,serif" font-size="14.00">FEFPostVal &lt;= 0.695</text>
<text text-anchor="middle" x="1593" y="-305.8" font-family="Times,serif" font-size="14.00">gini = 0.139</text>
<text text-anchor="middle" x="1593" y="-290.8" font-family="Times,serif" font-size="14.00">samples = 73</text>
<text text-anchor="middle" x="1593" y="-275.8" font-family="Times,serif" font-size="14.00">value = [109.309, 8.893]</text>
<text text-anchor="middle" x="1593" y="-260.8" font-family="Times,serif" font-size="14.00">class = Non&#45;obstructive</text>
</g>
<!-- 16&#45;&gt;17 -->
<g id="edge17" class="edge">
<title>16&#45;&gt;17</title>
<path fill="none" stroke="black" d="M1593,-386.97C1593,-378.69 1593,-370 1593,-361.48"/>
<polygon fill="black" stroke="black" points="1596.5,-361.21 1593,-351.21 1589.5,-361.21 1596.5,-361.21"/>
</g>
<!-- 22 -->
<g id="node23" class="node">
<title>22</title>
<polygon fill="none" stroke="black" points="1977,-351 1801,-351 1801,-253 1977,-253 1977,-351"/>
<text text-anchor="middle" x="1889" y="-335.8" font-family="Times,serif" font-size="14.00">node #22</text>
<text text-anchor="middle" x="1889" y="-320.8" font-family="Times,serif" font-size="14.00">FVCPreVal &lt;= 4.055</text>
<text text-anchor="middle" x="1889" y="-305.8" font-family="Times,serif" font-size="14.00">gini = 0.249</text>
<text text-anchor="middle" x="1889" y="-290.8" font-family="Times,serif" font-size="14.00">samples = 4</text>
<text text-anchor="middle" x="1889" y="-275.8" font-family="Times,serif" font-size="14.00">value = [1.012, 5.929]</text>
<text text-anchor="middle" x="1889" y="-260.8" font-family="Times,serif" font-size="14.00">class = Obstructive</text>
</g>
<!-- 16&#45;&gt;22 -->
<g id="edge22" class="edge">
<title>16&#45;&gt;22</title>
<path fill="none" stroke="black" d="M1694.87,-389.57C1726.09,-375.65 1760.35,-360.37 1791.29,-346.58"/>
<polygon fill="black" stroke="black" points="1793.07,-349.61 1800.77,-342.34 1790.21,-343.22 1793.07,-349.61"/>
</g>
<!-- 18 -->
<g id="node19" class="node">
<title>18</title>
<polygon fill="none" stroke="black" points="1580,-209.5 1422,-209.5 1422,-126.5 1580,-126.5 1580,-209.5"/>
<text text-anchor="middle" x="1501" y="-194.3" font-family="Times,serif" font-size="14.00">node #18</text>
<text text-anchor="middle" x="1501" y="-179.3" font-family="Times,serif" font-size="14.00">gini = 0.0</text>
<text text-anchor="middle" x="1501" y="-164.3" font-family="Times,serif" font-size="14.00">samples = 1</text>
<text text-anchor="middle" x="1501" y="-149.3" font-family="Times,serif" font-size="14.00">value = [0.0, 1.976]</text>
<text text-anchor="middle" x="1501" y="-134.3" font-family="Times,serif" font-size="14.00">class = Obstructive</text>
</g>
<!-- 17&#45;&gt;18 -->
<g id="edge18" class="edge">
<title>17&#45;&gt;18</title>
<path fill="none" stroke="black" d="M1559.53,-252.97C1551.66,-241.69 1543.28,-229.66 1535.38,-218.32"/>
<polygon fill="black" stroke="black" points="1538.04,-216.02 1529.45,-209.82 1532.29,-220.02 1538.04,-216.02"/>
</g>
<!-- 19 -->
<g id="node20" class="node">
<title>19</title>
<polygon fill="none" stroke="black" points="1792,-217 1598,-217 1598,-119 1792,-119 1792,-217"/>
<text text-anchor="middle" x="1695" y="-201.8" font-family="Times,serif" font-size="14.00">node #19</text>
<text text-anchor="middle" x="1695" y="-186.8" font-family="Times,serif" font-size="14.00">FEFPreVal &lt;= 2.405</text>
<text text-anchor="middle" x="1695" y="-171.8" font-family="Times,serif" font-size="14.00">gini = 0.112</text>
<text text-anchor="middle" x="1695" y="-156.8" font-family="Times,serif" font-size="14.00">samples = 72</text>
<text text-anchor="middle" x="1695" y="-141.8" font-family="Times,serif" font-size="14.00">value = [109.309, 6.917]</text>
<text text-anchor="middle" x="1695" y="-126.8" font-family="Times,serif" font-size="14.00">class = Non&#45;obstructive</text>
</g>
<!-- 17&#45;&gt;19 -->
<g id="edge19" class="edge">
<title>17&#45;&gt;19</title>
<path fill="none" stroke="black" d="M1630.11,-252.97C1637.07,-243.96 1644.41,-234.47 1651.54,-225.24"/>
<polygon fill="black" stroke="black" points="1654.4,-227.27 1657.74,-217.21 1648.86,-222.99 1654.4,-227.27"/>
</g>
<!-- 20 -->
<g id="node21" class="node">
<title>20</title>
<polygon fill="none" stroke="black" points="1789,-83 1601,-83 1601,0 1789,0 1789,-83"/>
<text text-anchor="middle" x="1695" y="-67.8" font-family="Times,serif" font-size="14.00">node #20</text>
<text text-anchor="middle" x="1695" y="-52.8" font-family="Times,serif" font-size="14.00">gini = 0.273</text>
<text text-anchor="middle" x="1695" y="-37.8" font-family="Times,serif" font-size="14.00">samples = 20</text>
<text text-anchor="middle" x="1695" y="-22.8" font-family="Times,serif" font-size="14.00">value = [30.364, 5.929]</text>
<text text-anchor="middle" x="1695" y="-7.8" font-family="Times,serif" font-size="14.00">class = Non&#45;obstructive</text>
</g>
<!-- 19&#45;&gt;20 -->
<g id="edge20" class="edge">
<title>19&#45;&gt;20</title>
<path fill="none" stroke="black" d="M1695,-118.87C1695,-110.5 1695,-101.77 1695,-93.33"/>
<polygon fill="black" stroke="black" points="1698.5,-93.23 1695,-83.23 1691.5,-93.23 1698.5,-93.23"/>
</g>
<!-- 21 -->
<g id="node22" class="node">
<title>21</title>
<polygon fill="none" stroke="black" points="1995,-83 1807,-83 1807,0 1995,0 1995,-83"/>
<text text-anchor="middle" x="1901" y="-67.8" font-family="Times,serif" font-size="14.00">node #21</text>
<text text-anchor="middle" x="1901" y="-52.8" font-family="Times,serif" font-size="14.00">gini = 0.024</text>
<text text-anchor="middle" x="1901" y="-37.8" font-family="Times,serif" font-size="14.00">samples = 52</text>
<text text-anchor="middle" x="1901" y="-22.8" font-family="Times,serif" font-size="14.00">value = [78.945, 0.988]</text>
<text text-anchor="middle" x="1901" y="-7.8" font-family="Times,serif" font-size="14.00">class = Non&#45;obstructive</text>
</g>
<!-- 19&#45;&gt;21 -->
<g id="edge21" class="edge">
<title>19&#45;&gt;21</title>
<path fill="none" stroke="black" d="M1774.64,-118.87C1791.17,-108.88 1808.54,-98.38 1824.94,-88.47"/>
<polygon fill="black" stroke="black" points="1827.19,-91.2 1833.93,-83.03 1823.57,-85.21 1827.19,-91.2"/>
</g>
<!-- 23 -->
<g id="node24" class="node">
<title>23</title>
<polygon fill="none" stroke="black" points="1968,-209.5 1810,-209.5 1810,-126.5 1968,-126.5 1968,-209.5"/>
<text text-anchor="middle" x="1889" y="-194.3" font-family="Times,serif" font-size="14.00">node #23</text>
<text text-anchor="middle" x="1889" y="-179.3" font-family="Times,serif" font-size="14.00">gini = 0.0</text>
<text text-anchor="middle" x="1889" y="-164.3" font-family="Times,serif" font-size="14.00">samples = 3</text>
<text text-anchor="middle" x="1889" y="-149.3" font-family="Times,serif" font-size="14.00">value = [0.0, 5.929]</text>
<text text-anchor="middle" x="1889" y="-134.3" font-family="Times,serif" font-size="14.00">class = Obstructive</text>
</g>
<!-- 22&#45;&gt;23 -->
<g id="edge23" class="edge">
<title>22&#45;&gt;23</title>
<path fill="none" stroke="black" d="M1889,-252.97C1889,-242.25 1889,-230.84 1889,-219.99"/>
<polygon fill="black" stroke="black" points="1892.5,-219.82 1889,-209.82 1885.5,-219.82 1892.5,-219.82"/>
</g>
<!-- 24 -->
<g id="node25" class="node">
<title>24</title>
<polygon fill="none" stroke="black" points="2174,-209.5 1986,-209.5 1986,-126.5 2174,-126.5 2174,-209.5"/>
<text text-anchor="middle" x="2080" y="-194.3" font-family="Times,serif" font-size="14.00">node #24</text>
<text text-anchor="middle" x="2080" y="-179.3" font-family="Times,serif" font-size="14.00">gini = 0.0</text>
<text text-anchor="middle" x="2080" y="-164.3" font-family="Times,serif" font-size="14.00">samples = 1</text>
<text text-anchor="middle" x="2080" y="-149.3" font-family="Times,serif" font-size="14.00">value = [1.012, 0.0]</text>
<text text-anchor="middle" x="2080" y="-134.3" font-family="Times,serif" font-size="14.00">class = Non&#45;obstructive</text>
</g>
<!-- 22&#45;&gt;24 -->
<g id="edge24" class="edge">
<title>22&#45;&gt;24</title>
<path fill="none" stroke="black" d="M1958.5,-252.97C1976.19,-240.75 1995.17,-227.63 2012.74,-215.48"/>
<polygon fill="black" stroke="black" points="2015.01,-218.17 2021.25,-209.6 2011.03,-212.41 2015.01,-218.17"/>
</g>
</g>
</svg>
