<?xml version="1.0" encoding="UTF-8" standalone="no"?>
<!DOCTYPE svg PUBLIC "-//W3C//DTD SVG 1.1//EN"
 "http://www.w3.org/Graphics/SVG/1.1/DTD/svg11.dtd">
<!-- Generated by graphviz version 2.43.0 (0)
 -->
<!-- Title: Tree Pages: 1 -->
<svg width="2396pt" height="627pt"
 viewBox="0.00 0.00 2396.00 627.00" xmlns="http://www.w3.org/2000/svg" xmlns:xlink="http://www.w3.org/1999/xlink">
<g id="graph0" class="graph" transform="scale(1 1) rotate(0) translate(4 623)">
<title>Tree</title>
<polygon fill="white" stroke="transparent" points="-4,4 -4,-623 2392,-623 2392,4 -4,4"/>
<!-- 0 -->
<g id="node1" class="node">
<title>0</title>
<polygon fill="none" stroke="black" points="1186.5,-619 995.5,-619 995.5,-521 1186.5,-521 1186.5,-619"/>
<text text-anchor="middle" x="1091" y="-603.8" font-family="Times,serif" font-size="14.00">node #0</text>
<text text-anchor="middle" x="1091" y="-588.8" font-family="Times,serif" font-size="14.00">FEFPrePercent &lt;= 57.5</text>
<text text-anchor="middle" x="1091" y="-573.8" font-family="Times,serif" font-size="14.00">gini = 0.5</text>
<text text-anchor="middle" x="1091" y="-558.8" font-family="Times,serif" font-size="14.00">samples = 210</text>
<text text-anchor="middle" x="1091" y="-543.8" font-family="Times,serif" font-size="14.00">value = [166.5, 166.5]</text>
<text text-anchor="middle" x="1091" y="-528.8" font-family="Times,serif" font-size="14.00">class = Obstructive</text>
</g>
<!-- 1 -->
<g id="node2" class="node">
<title>1</title>
<polygon fill="none" stroke="black" points="892.5,-485 689.5,-485 689.5,-387 892.5,-387 892.5,-485"/>
<text text-anchor="middle" x="791" y="-469.8" font-family="Times,serif" font-size="14.00">node #1</text>
<text text-anchor="middle" x="791" y="-454.8" font-family="Times,serif" font-size="14.00">FEFPostVal &lt;= 1.295</text>
<text text-anchor="middle" x="791" y="-439.8" font-family="Times,serif" font-size="14.00">gini = 0.352</text>
<text text-anchor="middle" x="791" y="-424.8" font-family="Times,serif" font-size="14.00">samples = 113</text>
<text text-anchor="middle" x="791" y="-409.8" font-family="Times,serif" font-size="14.00">value = [41.111, 139.237]</text>
<text text-anchor="middle" x="791" y="-394.8" font-family="Times,serif" font-size="14.00">class = Obstructive</text>
</g>
<!-- 0&#45;&gt;1 -->
<g id="edge1" class="edge">
<title>0&#45;&gt;1</title>
<path fill="none" stroke="black" d="M995.25,-526.87C965.57,-513.81 932.61,-499.31 901.99,-485.83"/>
<polygon fill="black" stroke="black" points="903.13,-482.51 892.56,-481.69 900.31,-488.92 903.13,-482.51"/>
<text text-anchor="middle" x="901.63" y="-501.29" font-family="Times,serif" font-size="14.00">True</text>
</g>
<!-- 14 -->
<g id="node15" class="node">
<title>14</title>
<polygon fill="none" stroke="black" points="1546.5,-485 1343.5,-485 1343.5,-387 1546.5,-387 1546.5,-485"/>
<text text-anchor="middle" x="1445" y="-469.8" font-family="Times,serif" font-size="14.00">node #14</text>
<text text-anchor="middle" x="1445" y="-454.8" font-family="Times,serif" font-size="14.00">FVCPreVal &lt;= 2.055</text>
<text text-anchor="middle" x="1445" y="-439.8" font-family="Times,serif" font-size="14.00">gini = 0.293</text>
<text text-anchor="middle" x="1445" y="-424.8" font-family="Times,serif" font-size="14.00">samples = 97</text>
<text text-anchor="middle" x="1445" y="-409.8" font-family="Times,serif" font-size="14.00">value = [125.389, 27.263]</text>
<text text-anchor="middle" x="1445" y="-394.8" font-family="Times,serif" font-size="14.00">class = Non&#45;obstructive</text>
</g>
<!-- 0&#45;&gt;14 -->
<g id="edge14" class="edge">
<title>0&#45;&gt;14</title>
<path fill="none" stroke="black" d="M1186.8,-533.28C1232.1,-516.39 1286.47,-496.11 1333.61,-478.54"/>
<polygon fill="black" stroke="black" points="1335.09,-481.72 1343.24,-474.94 1332.65,-475.16 1335.09,-481.72"/>
<text text-anchor="middle" x="1332.85" y="-493.98" font-family="Times,serif" font-size="14.00">False</text>
</g>
<!-- 2 -->
<g id="node3" class="node">
<title>2</title>
<polygon fill="none" stroke="black" points="391.5,-351 206.5,-351 206.5,-253 391.5,-253 391.5,-351"/>
<text text-anchor="middle" x="299" y="-335.8" font-family="Times,serif" font-size="14.00">node #2</text>
<text text-anchor="middle" x="299" y="-320.8" font-family="Times,serif" font-size="14.00">FEFPostVal &lt;= 0.565</text>
<text text-anchor="middle" x="299" y="-305.8" font-family="Times,serif" font-size="14.00">gini = 0.149</text>
<text text-anchor="middle" x="299" y="-290.8" font-family="Times,serif" font-size="14.00">samples = 71</text>
<text text-anchor="middle" x="299" y="-275.8" font-family="Times,serif" font-size="14.00">value = [9.25, 105.158]</text>
<text text-anchor="middle" x="299" y="-260.8" font-family="Times,serif" font-size="14.00">class = Obstructive</text>
</g>
<!-- 1&#45;&gt;2 -->
<g id="edge2" class="edge">
<title>1&#45;&gt;2</title>
<path fill="none" stroke="black" d="M689.36,-407.73C605.18,-385.15 486.1,-353.2 401.65,-330.54"/>
<polygon fill="black" stroke="black" points="402.35,-327.1 391.79,-327.89 400.54,-333.87 402.35,-327.1"/>
</g>
<!-- 7 -->
<g id="node8" class="node">
<title>7</title>
<polygon fill="none" stroke="black" points="888,-351 694,-351 694,-253 888,-253 888,-351"/>
<text text-anchor="middle" x="791" y="-335.8" font-family="Times,serif" font-size="14.00">node #7</text>
<text text-anchor="middle" x="791" y="-320.8" font-family="Times,serif" font-size="14.00">FVCPrePercent &lt;= 65.0</text>
<text text-anchor="middle" x="791" y="-305.8" font-family="Times,serif" font-size="14.00">gini = 0.499</text>
<text text-anchor="middle" x="791" y="-290.8" font-family="Times,serif" font-size="14.00">samples = 42</text>
<text text-anchor="middle" x="791" y="-275.8" font-family="Times,serif" font-size="14.00">value = [31.861, 34.079]</text>
<text text-anchor="middle" x="791" y="-260.8" font-family="Times,serif" font-size="14.00">class = Obstructive</text>
</g>
<!-- 1&#45;&gt;7 -->
<g id="edge7" class="edge">
<title>1&#45;&gt;7</title>
<path fill="none" stroke="black" d="M791,-386.97C791,-378.69 791,-370 791,-361.48"/>
<polygon fill="black" stroke="black" points="794.5,-361.21 791,-351.21 787.5,-361.21 794.5,-361.21"/>
</g>
<!-- 3 -->
<g id="node4" class="node">
<title>3</title>
<polygon fill="none" stroke="black" points="193.5,-209.5 26.5,-209.5 26.5,-126.5 193.5,-126.5 193.5,-209.5"/>
<text text-anchor="middle" x="110" y="-194.3" font-family="Times,serif" font-size="14.00">node #3</text>
<text text-anchor="middle" x="110" y="-179.3" font-family="Times,serif" font-size="14.00">gini = 0.0</text>
<text text-anchor="middle" x="110" y="-164.3" font-family="Times,serif" font-size="14.00">samples = 32</text>
<text text-anchor="middle" x="110" y="-149.3" font-family="Times,serif" font-size="14.00">value = [0.0, 52.579]</text>
<text text-anchor="middle" x="110" y="-134.3" font-family="Times,serif" font-size="14.00">class = Obstructive</text>
</g>
<!-- 2&#45;&gt;3 -->
<g id="edge3" class="edge">
<title>2&#45;&gt;3</title>
<path fill="none" stroke="black" d="M230.23,-252.97C212.73,-240.75 193.95,-227.63 176.55,-215.48"/>
<polygon fill="black" stroke="black" points="178.34,-212.46 168.14,-209.6 174.33,-218.2 178.34,-212.46"/>
</g>
<!-- 4 -->
<g id="node5" class="node">
<title>4</title>
<polygon fill="none" stroke="black" points="387,-217 211,-217 211,-119 387,-119 387,-217"/>
<text text-anchor="middle" x="299" y="-201.8" font-family="Times,serif" font-size="14.00">node #4</text>
<text text-anchor="middle" x="299" y="-186.8" font-family="Times,serif" font-size="14.00">FVCPostVal &lt;= 1.29</text>
<text text-anchor="middle" x="299" y="-171.8" font-family="Times,serif" font-size="14.00">gini = 0.254</text>
<text text-anchor="middle" x="299" y="-156.8" font-family="Times,serif" font-size="14.00">samples = 39</text>
<text text-anchor="middle" x="299" y="-141.8" font-family="Times,serif" font-size="14.00">value = [9.25, 52.579]</text>
<text text-anchor="middle" x="299" y="-126.8" font-family="Times,serif" font-size="14.00">class = Obstructive</text>
</g>
<!-- 2&#45;&gt;4 -->
<g id="edge4" class="edge">
<title>2&#45;&gt;4</title>
<path fill="none" stroke="black" d="M299,-252.97C299,-244.69 299,-236 299,-227.48"/>
<polygon fill="black" stroke="black" points="302.5,-227.21 299,-217.21 295.5,-227.21 302.5,-227.21"/>
</g>
<!-- 5 -->
<g id="node6" class="node">
<title>5</title>
<polygon fill="none" stroke="black" points="188,-83 0,-83 0,0 188,0 188,-83"/>
<text text-anchor="middle" x="94" y="-67.8" font-family="Times,serif" font-size="14.00">node #5</text>
<text text-anchor="middle" x="94" y="-52.8" font-family="Times,serif" font-size="14.00">gini = 0.436</text>
<text text-anchor="middle" x="94" y="-37.8" font-family="Times,serif" font-size="14.00">samples = 5</text>
<text text-anchor="middle" x="94" y="-22.8" font-family="Times,serif" font-size="14.00">value = [4.111, 1.947]</text>
<text text-anchor="middle" x="94" y="-7.8" font-family="Times,serif" font-size="14.00">class = Non&#45;obstructive</text>
</g>
<!-- 4&#45;&gt;5 -->
<g id="edge5" class="edge">
<title>4&#45;&gt;5</title>
<path fill="none" stroke="black" d="M219.74,-118.87C203.3,-108.88 186.01,-98.38 169.69,-88.47"/>
<polygon fill="black" stroke="black" points="171.1,-85.23 160.74,-83.03 167.47,-91.21 171.1,-85.23"/>
</g>
<!-- 6 -->
<g id="node7" class="node">
<title>6</title>
<polygon fill="none" stroke="black" points="391.5,-83 206.5,-83 206.5,0 391.5,0 391.5,-83"/>
<text text-anchor="middle" x="299" y="-67.8" font-family="Times,serif" font-size="14.00">node #6</text>
<text text-anchor="middle" x="299" y="-52.8" font-family="Times,serif" font-size="14.00">gini = 0.167</text>
<text text-anchor="middle" x="299" y="-37.8" font-family="Times,serif" font-size="14.00">samples = 34</text>
<text text-anchor="middle" x="299" y="-22.8" font-family="Times,serif" font-size="14.00">value = [5.139, 50.632]</text>
<text text-anchor="middle" x="299" y="-7.8" font-family="Times,serif" font-size="14.00">class = Obstructive</text>
</g>
<!-- 4&#45;&gt;6 -->
<g id="edge6" class="edge">
<title>4&#45;&gt;6</title>
<path fill="none" stroke="black" d="M299,-118.87C299,-110.5 299,-101.77 299,-93.33"/>
<polygon fill="black" stroke="black" points="302.5,-93.23 299,-83.23 295.5,-93.23 302.5,-93.23"/>
</g>
<!-- 8 -->
<g id="node9" class="node">
<title>8</title>
<polygon fill="none" stroke="black" points="782,-217 576,-217 576,-119 782,-119 782,-217"/>
<text text-anchor="middle" x="679" y="-201.8" font-family="Times,serif" font-size="14.00">node #8</text>
<text text-anchor="middle" x="679" y="-186.8" font-family="Times,serif" font-size="14.00">FEV1PostPercent &lt;= 64.0</text>
<text text-anchor="middle" x="679" y="-171.8" font-family="Times,serif" font-size="14.00">gini = 0.39</text>
<text text-anchor="middle" x="679" y="-156.8" font-family="Times,serif" font-size="14.00">samples = 18</text>
<text text-anchor="middle" x="679" y="-141.8" font-family="Times,serif" font-size="14.00">value = [21.583, 7.789]</text>
<text text-anchor="middle" x="679" y="-126.8" font-family="Times,serif" font-size="14.00">class = Non&#45;obstructive</text>
</g>
<!-- 7&#45;&gt;8 -->
<g id="edge8" class="edge">
<title>7&#45;&gt;8</title>
<path fill="none" stroke="black" d="M750.25,-252.97C742.53,-243.87 734.39,-234.28 726.48,-224.96"/>
<polygon fill="black" stroke="black" points="729.05,-222.57 719.91,-217.21 723.71,-227.1 729.05,-222.57"/>
</g>
<!-- 11 -->
<g id="node12" class="node">
<title>11</title>
<polygon fill="none" stroke="black" points="1006,-217 800,-217 800,-119 1006,-119 1006,-217"/>
<text text-anchor="middle" x="903" y="-201.8" font-family="Times,serif" font-size="14.00">node #11</text>
<text text-anchor="middle" x="903" y="-186.8" font-family="Times,serif" font-size="14.00">FEV1PostPercent &lt;= 68.5</text>
<text text-anchor="middle" x="903" y="-171.8" font-family="Times,serif" font-size="14.00">gini = 0.404</text>
<text text-anchor="middle" x="903" y="-156.8" font-family="Times,serif" font-size="14.00">samples = 24</text>
<text text-anchor="middle" x="903" y="-141.8" font-family="Times,serif" font-size="14.00">value = [10.278, 26.289]</text>
<text text-anchor="middle" x="903" y="-126.8" font-family="Times,serif" font-size="14.00">class = Obstructive</text>
</g>
<!-- 7&#45;&gt;11 -->
<g id="edge11" class="edge">
<title>7&#45;&gt;11</title>
<path fill="none" stroke="black" d="M831.75,-252.97C839.47,-243.87 847.61,-234.28 855.52,-224.96"/>
<polygon fill="black" stroke="black" points="858.29,-227.1 862.09,-217.21 852.95,-222.57 858.29,-227.1"/>
</g>
<!-- 9 -->
<g id="node10" class="node">
<title>9</title>
<polygon fill="none" stroke="black" points="598,-83 410,-83 410,0 598,0 598,-83"/>
<text text-anchor="middle" x="504" y="-67.8" font-family="Times,serif" font-size="14.00">node #9</text>
<text text-anchor="middle" x="504" y="-52.8" font-family="Times,serif" font-size="14.00">gini = 0.335</text>
<text text-anchor="middle" x="504" y="-37.8" font-family="Times,serif" font-size="14.00">samples = 16</text>
<text text-anchor="middle" x="504" y="-22.8" font-family="Times,serif" font-size="14.00">value = [21.583, 5.842]</text>
<text text-anchor="middle" x="504" y="-7.8" font-family="Times,serif" font-size="14.00">class = Non&#45;obstructive</text>
</g>
<!-- 8&#45;&gt;9 -->
<g id="edge9" class="edge">
<title>8&#45;&gt;9</title>
<path fill="none" stroke="black" d="M611.34,-118.87C597.56,-109.06 583.09,-98.77 569.39,-89.02"/>
<polygon fill="black" stroke="black" points="571.15,-85.98 560.97,-83.03 567.09,-91.68 571.15,-85.98"/>
</g>
<!-- 10 -->
<g id="node11" class="node">
<title>10</title>
<polygon fill="none" stroke="black" points="774,-83 616,-83 616,0 774,0 774,-83"/>
<text text-anchor="middle" x="695" y="-67.8" font-family="Times,serif" font-size="14.00">node #10</text>
<text text-anchor="middle" x="695" y="-52.8" font-family="Times,serif" font-size="14.00">gini = &#45;0.0</text>
<text text-anchor="middle" x="695" y="-37.8" font-family="Times,serif" font-size="14.00">samples = 2</text>
<text text-anchor="middle" x="695" y="-22.8" font-family="Times,serif" font-size="14.00">value = [0.0, 1.947]</text>
<text text-anchor="middle" x="695" y="-7.8" font-family="Times,serif" font-size="14.00">class = Obstructive</text>
</g>
<!-- 8&#45;&gt;10 -->
<g id="edge10" class="edge">
<title>8&#45;&gt;10</title>
<path fill="none" stroke="black" d="M685.19,-118.87C686.26,-110.5 687.38,-101.77 688.47,-93.33"/>
<polygon fill="black" stroke="black" points="691.96,-93.6 689.77,-83.23 685.02,-92.7 691.96,-93.6"/>
</g>
<!-- 12 -->
<g id="node13" class="node">
<title>12</title>
<polygon fill="none" stroke="black" points="980,-83 792,-83 792,0 980,0 980,-83"/>
<text text-anchor="middle" x="886" y="-67.8" font-family="Times,serif" font-size="14.00">node #12</text>
<text text-anchor="middle" x="886" y="-52.8" font-family="Times,serif" font-size="14.00">gini = 0.335</text>
<text text-anchor="middle" x="886" y="-37.8" font-family="Times,serif" font-size="14.00">samples = 5</text>
<text text-anchor="middle" x="886" y="-22.8" font-family="Times,serif" font-size="14.00">value = [7.194, 1.947]</text>
<text text-anchor="middle" x="886" y="-7.8" font-family="Times,serif" font-size="14.00">class = Non&#45;obstructive</text>
</g>
<!-- 11&#45;&gt;12 -->
<g id="edge12" class="edge">
<title>11&#45;&gt;12</title>
<path fill="none" stroke="black" d="M896.43,-118.87C895.28,-110.5 894.09,-101.77 892.94,-93.33"/>
<polygon fill="black" stroke="black" points="896.38,-92.67 891.56,-83.23 889.45,-93.61 896.38,-92.67"/>
</g>
<!-- 13 -->
<g id="node14" class="node">
<title>13</title>
<polygon fill="none" stroke="black" points="1183.5,-83 998.5,-83 998.5,0 1183.5,0 1183.5,-83"/>
<text text-anchor="middle" x="1091" y="-67.8" font-family="Times,serif" font-size="14.00">node #13</text>
<text text-anchor="middle" x="1091" y="-52.8" font-family="Times,serif" font-size="14.00">gini = 0.2</text>
<text text-anchor="middle" x="1091" y="-37.8" font-family="Times,serif" font-size="14.00">samples = 19</text>
<text text-anchor="middle" x="1091" y="-22.8" font-family="Times,serif" font-size="14.00">value = [3.083, 24.342]</text>
<text text-anchor="middle" x="1091" y="-7.8" font-family="Times,serif" font-size="14.00">class = Obstructive</text>
</g>
<!-- 11&#45;&gt;13 -->
<g id="edge13" class="edge">
<title>11&#45;&gt;13</title>
<path fill="none" stroke="black" d="M975.69,-118.87C990.63,-108.97 1006.33,-98.57 1021.17,-88.74"/>
<polygon fill="black" stroke="black" points="1023.39,-91.47 1029.79,-83.03 1019.52,-85.64 1023.39,-91.47"/>
</g>
<!-- 15 -->
<g id="node16" class="node">
<title>15</title>
<polygon fill="none" stroke="black" points="1539,-351 1351,-351 1351,-253 1539,-253 1539,-351"/>
<text text-anchor="middle" x="1445" y="-335.8" font-family="Times,serif" font-size="14.00">node #15</text>
<text text-anchor="middle" x="1445" y="-320.8" font-family="Times,serif" font-size="14.00">FEFPreVal &lt;= 1.515</text>
<text text-anchor="middle" x="1445" y="-305.8" font-family="Times,serif" font-size="14.00">gini = 0.044</text>
<text text-anchor="middle" x="1445" y="-290.8" font-family="Times,serif" font-size="14.00">samples = 54</text>
<text text-anchor="middle" x="1445" y="-275.8" font-family="Times,serif" font-size="14.00">value = [84.278, 1.947]</text>
<text text-anchor="middle" x="1445" y="-260.8" font-family="Times,serif" font-size="14.00">class = Non&#45;obstructive</text>
</g>
<!-- 14&#45;&gt;15 -->
<g id="edge15" class="edge">
<title>14&#45;&gt;15</title>
<path fill="none" stroke="black" d="M1445,-386.97C1445,-378.69 1445,-370 1445,-361.48"/>
<polygon fill="black" stroke="black" points="1448.5,-361.21 1445,-351.21 1441.5,-361.21 1448.5,-361.21"/>
</g>
<!-- 20 -->
<g id="node21" class="node">
<title>20</title>
<polygon fill="none" stroke="black" points="1951,-351 1757,-351 1757,-253 1951,-253 1951,-351"/>
<text text-anchor="middle" x="1854" y="-335.8" font-family="Times,serif" font-size="14.00">node #20</text>
<text text-anchor="middle" x="1854" y="-320.8" font-family="Times,serif" font-size="14.00">FEFPrePercent &lt;= 68.5</text>
<text text-anchor="middle" x="1854" y="-305.8" font-family="Times,serif" font-size="14.00">gini = 0.472</text>
<text text-anchor="middle" x="1854" y="-290.8" font-family="Times,serif" font-size="14.00">samples = 43</text>
<text text-anchor="middle" x="1854" y="-275.8" font-family="Times,serif" font-size="14.00">value = [41.111, 25.316]</text>
<text text-anchor="middle" x="1854" y="-260.8" font-family="Times,serif" font-size="14.00">class = Non&#45;obstructive</text>
</g>
<!-- 14&#45;&gt;20 -->
<g id="edge20" class="edge">
<title>14&#45;&gt;20</title>
<path fill="none" stroke="black" d="M1546.63,-402.2C1607.6,-382.52 1685.06,-357.52 1746.97,-337.54"/>
<polygon fill="black" stroke="black" points="1748.33,-340.78 1756.77,-334.38 1746.18,-334.12 1748.33,-340.78"/>
</g>
<!-- 16 -->
<g id="node17" class="node">
<title>16</title>
<polygon fill="none" stroke="black" points="1436.5,-217 1245.5,-217 1245.5,-119 1436.5,-119 1436.5,-217"/>
<text text-anchor="middle" x="1341" y="-201.8" font-family="Times,serif" font-size="14.00">node #16</text>
<text text-anchor="middle" x="1341" y="-186.8" font-family="Times,serif" font-size="14.00">FEFPrePercent &lt;= 76.0</text>
<text text-anchor="middle" x="1341" y="-171.8" font-family="Times,serif" font-size="14.00">gini = 0.399</text>
<text text-anchor="middle" x="1341" y="-156.8" font-family="Times,serif" font-size="14.00">samples = 5</text>
<text text-anchor="middle" x="1341" y="-141.8" font-family="Times,serif" font-size="14.00">value = [5.139, 1.947]</text>
<text text-anchor="middle" x="1341" y="-126.8" font-family="Times,serif" font-size="14.00">class = Non&#45;obstructive</text>
</g>
<!-- 15&#45;&gt;16 -->
<g id="edge16" class="edge">
<title>15&#45;&gt;16</title>
<path fill="none" stroke="black" d="M1407.16,-252.97C1400.06,-243.96 1392.58,-234.47 1385.31,-225.24"/>
<polygon fill="black" stroke="black" points="1387.92,-222.9 1378.99,-217.21 1382.43,-227.23 1387.92,-222.9"/>
</g>
<!-- 19 -->
<g id="node20" class="node">
<title>19</title>
<polygon fill="none" stroke="black" points="1643,-209.5 1455,-209.5 1455,-126.5 1643,-126.5 1643,-209.5"/>
<text text-anchor="middle" x="1549" y="-194.3" font-family="Times,serif" font-size="14.00">node #19</text>
<text text-anchor="middle" x="1549" y="-179.3" font-family="Times,serif" font-size="14.00">gini = 0.0</text>
<text text-anchor="middle" x="1549" y="-164.3" font-family="Times,serif" font-size="14.00">samples = 49</text>
<text text-anchor="middle" x="1549" y="-149.3" font-family="Times,serif" font-size="14.00">value = [79.139, 0.0]</text>
<text text-anchor="middle" x="1549" y="-134.3" font-family="Times,serif" font-size="14.00">class = Non&#45;obstructive</text>
</g>
<!-- 15&#45;&gt;19 -->
<g id="edge19" class="edge">
<title>15&#45;&gt;19</title>
<path fill="none" stroke="black" d="M1482.84,-252.97C1491.81,-241.58 1501.4,-229.42 1510.4,-217.99"/>
<polygon fill="black" stroke="black" points="1513.4,-219.84 1516.84,-209.82 1507.9,-215.51 1513.4,-219.84"/>
</g>
<!-- 17 -->
<g id="node18" class="node">
<title>17</title>
<polygon fill="none" stroke="black" points="1390,-83 1202,-83 1202,0 1390,0 1390,-83"/>
<text text-anchor="middle" x="1296" y="-67.8" font-family="Times,serif" font-size="14.00">node #17</text>
<text text-anchor="middle" x="1296" y="-52.8" font-family="Times,serif" font-size="14.00">gini = 0.5</text>
<text text-anchor="middle" x="1296" y="-37.8" font-family="Times,serif" font-size="14.00">samples = 3</text>
<text text-anchor="middle" x="1296" y="-22.8" font-family="Times,serif" font-size="14.00">value = [2.056, 1.947]</text>
<text text-anchor="middle" x="1296" y="-7.8" font-family="Times,serif" font-size="14.00">class = Non&#45;obstructive</text>
</g>
<!-- 16&#45;&gt;17 -->
<g id="edge17" class="edge">
<title>16&#45;&gt;17</title>
<path fill="none" stroke="black" d="M1323.6,-118.87C1320.51,-110.31 1317.28,-101.39 1314.17,-92.78"/>
<polygon fill="black" stroke="black" points="1317.41,-91.45 1310.72,-83.23 1310.83,-93.83 1317.41,-91.45"/>
</g>
<!-- 18 -->
<g id="node19" class="node">
<title>18</title>
<polygon fill="none" stroke="black" points="1596,-83 1408,-83 1408,0 1596,0 1596,-83"/>
<text text-anchor="middle" x="1502" y="-67.8" font-family="Times,serif" font-size="14.00">node #18</text>
<text text-anchor="middle" x="1502" y="-52.8" font-family="Times,serif" font-size="14.00">gini = 0.0</text>
<text text-anchor="middle" x="1502" y="-37.8" font-family="Times,serif" font-size="14.00">samples = 2</text>
<text text-anchor="middle" x="1502" y="-22.8" font-family="Times,serif" font-size="14.00">value = [3.083, 0.0]</text>
<text text-anchor="middle" x="1502" y="-7.8" font-family="Times,serif" font-size="14.00">class = Non&#45;obstructive</text>
</g>
<!-- 16&#45;&gt;18 -->
<g id="edge18" class="edge">
<title>16&#45;&gt;18</title>
<path fill="none" stroke="black" d="M1403.25,-118.87C1415.8,-109.15 1428.99,-98.96 1441.48,-89.3"/>
<polygon fill="black" stroke="black" points="1443.81,-91.92 1449.58,-83.03 1439.53,-86.38 1443.81,-91.92"/>
</g>
<!-- 21 -->
<g id="node22" class="node">
<title>21</title>
<polygon fill="none" stroke="black" points="1957,-217 1751,-217 1751,-119 1957,-119 1957,-217"/>
<text text-anchor="middle" x="1854" y="-201.8" font-family="Times,serif" font-size="14.00">node #21</text>
<text text-anchor="middle" x="1854" y="-186.8" font-family="Times,serif" font-size="14.00">FEFPostPercent &lt;= 69.31</text>
<text text-anchor="middle" x="1854" y="-171.8" font-family="Times,serif" font-size="14.00">gini = 0.417</text>
<text text-anchor="middle" x="1854" y="-156.8" font-family="Times,serif" font-size="14.00">samples = 12</text>
<text text-anchor="middle" x="1854" y="-141.8" font-family="Times,serif" font-size="14.00">value = [6.167, 14.605]</text>
<text text-anchor="middle" x="1854" y="-126.8" font-family="Times,serif" font-size="14.00">class = Obstructive</text>
</g>
<!-- 20&#45;&gt;21 -->
<g id="edge21" class="edge">
<title>20&#45;&gt;21</title>
<path fill="none" stroke="black" d="M1854,-252.97C1854,-244.69 1854,-236 1854,-227.48"/>
<polygon fill="black" stroke="black" points="1857.5,-227.21 1854,-217.21 1850.5,-227.21 1857.5,-227.21"/>
</g>
<!-- 24 -->
<g id="node25" class="node">
<title>24</title>
<polygon fill="none" stroke="black" points="2215,-217 2021,-217 2021,-119 2215,-119 2215,-217"/>
<text text-anchor="middle" x="2118" y="-201.8" font-family="Times,serif" font-size="14.00">node #24</text>
<text text-anchor="middle" x="2118" y="-186.8" font-family="Times,serif" font-size="14.00">FEV1PostVal &lt;= 3.545</text>
<text text-anchor="middle" x="2118" y="-171.8" font-family="Times,serif" font-size="14.00">gini = 0.359</text>
<text text-anchor="middle" x="2118" y="-156.8" font-family="Times,serif" font-size="14.00">samples = 31</text>
<text text-anchor="middle" x="2118" y="-141.8" font-family="Times,serif" font-size="14.00">value = [34.944, 10.711]</text>
<text text-anchor="middle" x="2118" y="-126.8" font-family="Times,serif" font-size="14.00">class = Non&#45;obstructive</text>
</g>
<!-- 20&#45;&gt;24 -->
<g id="edge24" class="edge">
<title>20&#45;&gt;24</title>
<path fill="none" stroke="black" d="M1950.06,-252.97C1970.35,-242.83 1991.87,-232.07 2012.48,-221.76"/>
<polygon fill="black" stroke="black" points="2014.19,-224.82 2021.57,-217.21 2011.06,-218.56 2014.19,-224.82"/>
</g>
<!-- 22 -->
<g id="node23" class="node">
<title>22</title>
<polygon fill="none" stroke="black" points="1802,-83 1614,-83 1614,0 1802,0 1802,-83"/>
<text text-anchor="middle" x="1708" y="-67.8" font-family="Times,serif" font-size="14.00">node #22</text>
<text text-anchor="middle" x="1708" y="-52.8" font-family="Times,serif" font-size="14.00">gini = 0.0</text>
<text text-anchor="middle" x="1708" y="-37.8" font-family="Times,serif" font-size="14.00">samples = 3</text>
<text text-anchor="middle" x="1708" y="-22.8" font-family="Times,serif" font-size="14.00">value = [3.083, 0.0]</text>
<text text-anchor="middle" x="1708" y="-7.8" font-family="Times,serif" font-size="14.00">class = Non&#45;obstructive</text>
</g>
<!-- 21&#45;&gt;22 -->
<g id="edge22" class="edge">
<title>21&#45;&gt;22</title>
<path fill="none" stroke="black" d="M1797.55,-118.87C1786.34,-109.3 1774.57,-99.27 1763.4,-89.74"/>
<polygon fill="black" stroke="black" points="1765.64,-87.06 1755.76,-83.23 1761.1,-92.38 1765.64,-87.06"/>
</g>
<!-- 23 -->
<g id="node24" class="node">
<title>23</title>
<polygon fill="none" stroke="black" points="2005.5,-83 1820.5,-83 1820.5,0 2005.5,0 2005.5,-83"/>
<text text-anchor="middle" x="1913" y="-67.8" font-family="Times,serif" font-size="14.00">node #23</text>
<text text-anchor="middle" x="1913" y="-52.8" font-family="Times,serif" font-size="14.00">gini = 0.288</text>
<text text-anchor="middle" x="1913" y="-37.8" font-family="Times,serif" font-size="14.00">samples = 9</text>
<text text-anchor="middle" x="1913" y="-22.8" font-family="Times,serif" font-size="14.00">value = [3.083, 14.605]</text>
<text text-anchor="middle" x="1913" y="-7.8" font-family="Times,serif" font-size="14.00">class = Obstructive</text>
</g>
<!-- 21&#45;&gt;23 -->
<g id="edge23" class="edge">
<title>21&#45;&gt;23</title>
<path fill="none" stroke="black" d="M1876.81,-118.87C1880.91,-110.22 1885.18,-101.2 1889.3,-92.5"/>
<polygon fill="black" stroke="black" points="1892.58,-93.77 1893.7,-83.23 1886.25,-90.77 1892.58,-93.77"/>
</g>
<!-- 25 -->
<g id="node26" class="node">
<title>25</title>
<polygon fill="none" stroke="black" points="2212,-83 2024,-83 2024,0 2212,0 2212,-83"/>
<text text-anchor="middle" x="2118" y="-67.8" font-family="Times,serif" font-size="14.00">node #25</text>
<text text-anchor="middle" x="2118" y="-52.8" font-family="Times,serif" font-size="14.00">gini = 0.321</text>
<text text-anchor="middle" x="2118" y="-37.8" font-family="Times,serif" font-size="14.00">samples = 30</text>
<text text-anchor="middle" x="2118" y="-22.8" font-family="Times,serif" font-size="14.00">value = [34.944, 8.763]</text>
<text text-anchor="middle" x="2118" y="-7.8" font-family="Times,serif" font-size="14.00">class = Non&#45;obstructive</text>
</g>
<!-- 24&#45;&gt;25 -->
<g id="edge25" class="edge">
<title>24&#45;&gt;25</title>
<path fill="none" stroke="black" d="M2118,-118.87C2118,-110.5 2118,-101.77 2118,-93.33"/>
<polygon fill="black" stroke="black" points="2121.5,-93.23 2118,-83.23 2114.5,-93.23 2121.5,-93.23"/>
</g>
<!-- 26 -->
<g id="node27" class="node">
<title>26</title>
<polygon fill="none" stroke="black" points="2388,-83 2230,-83 2230,0 2388,0 2388,-83"/>
<text text-anchor="middle" x="2309" y="-67.8" font-family="Times,serif" font-size="14.00">node #26</text>
<text text-anchor="middle" x="2309" y="-52.8" font-family="Times,serif" font-size="14.00">gini = &#45;0.0</text>
<text text-anchor="middle" x="2309" y="-37.8" font-family="Times,serif" font-size="14.00">samples = 1</text>
<text text-anchor="middle" x="2309" y="-22.8" font-family="Times,serif" font-size="14.00">value = [0.0, 1.947]</text>
<text text-anchor="middle" x="2309" y="-7.8" font-family="Times,serif" font-size="14.00">class = Obstructive</text>
</g>
<!-- 24&#45;&gt;26 -->
<g id="edge26" class="edge">
<title>24&#45;&gt;26</title>
<path fill="none" stroke="black" d="M2191.85,-118.87C2207.03,-108.97 2222.98,-98.57 2238.05,-88.74"/>
<polygon fill="black" stroke="black" points="2240.35,-91.43 2246.82,-83.03 2236.53,-85.56 2240.35,-91.43"/>
</g>
</g>
</svg>
