<?xml version="1.0" encoding="UTF-8" standalone="no"?>
<!DOCTYPE svg PUBLIC "-//W3C//DTD SVG 1.1//EN"
 "http://www.w3.org/Graphics/SVG/1.1/DTD/svg11.dtd">
<!-- Generated by graphviz version 2.43.0 (0)
 -->
<!-- Title: Tree Pages: 1 -->
<svg width="2005pt" height="627pt"
 viewBox="0.00 0.00 2005.00 627.00" xmlns="http://www.w3.org/2000/svg" xmlns:xlink="http://www.w3.org/1999/xlink">
<g id="graph0" class="graph" transform="scale(1 1) rotate(0) translate(4 623)">
<title>Tree</title>
<polygon fill="white" stroke="transparent" points="-4,4 -4,-623 2001,-623 2001,4 -4,4"/>
<!-- 0 -->
<g id="node1" class="node">
<title>0</title>
<polygon fill="none" stroke="black" points="841.5,-619 644.5,-619 644.5,-521 841.5,-521 841.5,-619"/>
<text text-anchor="middle" x="743" y="-603.8" font-family="Times,serif" font-size="14.00">node #0</text>
<text text-anchor="middle" x="743" y="-588.8" font-family="Times,serif" font-size="14.00">FEFPostPercent &lt;= 43.5</text>
<text text-anchor="middle" x="743" y="-573.8" font-family="Times,serif" font-size="14.00">gini = 0.5</text>
<text text-anchor="middle" x="743" y="-558.8" font-family="Times,serif" font-size="14.00">samples = 222</text>
<text text-anchor="middle" x="743" y="-543.8" font-family="Times,serif" font-size="14.00">value = [166.5, 166.5]</text>
<text text-anchor="middle" x="743" y="-528.8" font-family="Times,serif" font-size="14.00">class = Non&#45;obstructive</text>
</g>
<!-- 1 -->
<g id="node2" class="node">
<title>1</title>
<polygon fill="none" stroke="black" points="733,-485 539,-485 539,-387 733,-387 733,-485"/>
<text text-anchor="middle" x="636" y="-469.8" font-family="Times,serif" font-size="14.00">node #1</text>
<text text-anchor="middle" x="636" y="-454.8" font-family="Times,serif" font-size="14.00">FVCPreVal &lt;= 1.06</text>
<text text-anchor="middle" x="636" y="-439.8" font-family="Times,serif" font-size="14.00">gini = 0.249</text>
<text text-anchor="middle" x="636" y="-424.8" font-family="Times,serif" font-size="14.00">samples = 88</text>
<text text-anchor="middle" x="636" y="-409.8" font-family="Times,serif" font-size="14.00">value = [20.06, 117.647]</text>
<text text-anchor="middle" x="636" y="-394.8" font-family="Times,serif" font-size="14.00">class = Obstructive</text>
</g>
<!-- 0&#45;&gt;1 -->
<g id="edge1" class="edge">
<title>0&#45;&gt;1</title>
<path fill="none" stroke="black" d="M704.07,-520.97C696.77,-511.96 689.07,-502.47 681.59,-493.24"/>
<polygon fill="black" stroke="black" points="684.1,-490.78 675.08,-485.21 678.66,-495.19 684.1,-490.78"/>
<text text-anchor="middle" x="672.48" y="-506.38" font-family="Times,serif" font-size="14.00">True</text>
</g>
<!-- 10 -->
<g id="node11" class="node">
<title>10</title>
<polygon fill="none" stroke="black" points="1040,-485 846,-485 846,-387 1040,-387 1040,-485"/>
<text text-anchor="middle" x="943" y="-469.8" font-family="Times,serif" font-size="14.00">node #10</text>
<text text-anchor="middle" x="943" y="-454.8" font-family="Times,serif" font-size="14.00">FVCPostVal &lt;= 2.16</text>
<text text-anchor="middle" x="943" y="-439.8" font-family="Times,serif" font-size="14.00">gini = 0.375</text>
<text text-anchor="middle" x="943" y="-424.8" font-family="Times,serif" font-size="14.00">samples = 134</text>
<text text-anchor="middle" x="943" y="-409.8" font-family="Times,serif" font-size="14.00">value = [146.44, 48.853]</text>
<text text-anchor="middle" x="943" y="-394.8" font-family="Times,serif" font-size="14.00">class = Non&#45;obstructive</text>
</g>
<!-- 0&#45;&gt;10 -->
<g id="edge10" class="edge">
<title>0&#45;&gt;10</title>
<path fill="none" stroke="black" d="M815.77,-520.97C830.66,-511.14 846.42,-500.74 861.59,-490.73"/>
<polygon fill="black" stroke="black" points="863.53,-493.64 869.95,-485.21 859.67,-487.8 863.53,-493.64"/>
<text text-anchor="middle" x="864.93" y="-506.01" font-family="Times,serif" font-size="14.00">False</text>
</g>
<!-- 2 -->
<g id="node3" class="node">
<title>2</title>
<polygon fill="none" stroke="black" points="365.5,-351 174.5,-351 174.5,-253 365.5,-253 365.5,-351"/>
<text text-anchor="middle" x="270" y="-335.8" font-family="Times,serif" font-size="14.00">node #2</text>
<text text-anchor="middle" x="270" y="-320.8" font-family="Times,serif" font-size="14.00">FEFPrePercent &lt;= 14.0</text>
<text text-anchor="middle" x="270" y="-305.8" font-family="Times,serif" font-size="14.00">gini = 0.374</text>
<text text-anchor="middle" x="270" y="-290.8" font-family="Times,serif" font-size="14.00">samples = 6</text>
<text text-anchor="middle" x="270" y="-275.8" font-family="Times,serif" font-size="14.00">value = [6.018, 1.994]</text>
<text text-anchor="middle" x="270" y="-260.8" font-family="Times,serif" font-size="14.00">class = Non&#45;obstructive</text>
</g>
<!-- 1&#45;&gt;2 -->
<g id="edge2" class="edge">
<title>1&#45;&gt;2</title>
<path fill="none" stroke="black" d="M538.88,-399.97C488.44,-381.78 426.74,-359.53 375.18,-340.93"/>
<polygon fill="black" stroke="black" points="376.27,-337.6 365.67,-337.5 373.89,-344.19 376.27,-337.6"/>
</g>
<!-- 5 -->
<g id="node6" class="node">
<title>5</title>
<polygon fill="none" stroke="black" points="737.5,-351 534.5,-351 534.5,-253 737.5,-253 737.5,-351"/>
<text text-anchor="middle" x="636" y="-335.8" font-family="Times,serif" font-size="14.00">node #5</text>
<text text-anchor="middle" x="636" y="-320.8" font-family="Times,serif" font-size="14.00">FEFPreVal &lt;= 1.425</text>
<text text-anchor="middle" x="636" y="-305.8" font-family="Times,serif" font-size="14.00">gini = 0.193</text>
<text text-anchor="middle" x="636" y="-290.8" font-family="Times,serif" font-size="14.00">samples = 82</text>
<text text-anchor="middle" x="636" y="-275.8" font-family="Times,serif" font-size="14.00">value = [14.042, 115.653]</text>
<text text-anchor="middle" x="636" y="-260.8" font-family="Times,serif" font-size="14.00">class = Obstructive</text>
</g>
<!-- 1&#45;&gt;5 -->
<g id="edge5" class="edge">
<title>1&#45;&gt;5</title>
<path fill="none" stroke="black" d="M636,-386.97C636,-378.69 636,-370 636,-361.48"/>
<polygon fill="black" stroke="black" points="639.5,-361.21 636,-351.21 632.5,-361.21 639.5,-361.21"/>
</g>
<!-- 3 -->
<g id="node4" class="node">
<title>3</title>
<polygon fill="none" stroke="black" points="158,-209.5 0,-209.5 0,-126.5 158,-126.5 158,-209.5"/>
<text text-anchor="middle" x="79" y="-194.3" font-family="Times,serif" font-size="14.00">node #3</text>
<text text-anchor="middle" x="79" y="-179.3" font-family="Times,serif" font-size="14.00">gini = 0.0</text>
<text text-anchor="middle" x="79" y="-164.3" font-family="Times,serif" font-size="14.00">samples = 2</text>
<text text-anchor="middle" x="79" y="-149.3" font-family="Times,serif" font-size="14.00">value = [0.0, 1.994]</text>
<text text-anchor="middle" x="79" y="-134.3" font-family="Times,serif" font-size="14.00">class = Obstructive</text>
</g>
<!-- 2&#45;&gt;3 -->
<g id="edge3" class="edge">
<title>2&#45;&gt;3</title>
<path fill="none" stroke="black" d="M200.5,-252.97C182.81,-240.75 163.83,-227.63 146.26,-215.48"/>
<polygon fill="black" stroke="black" points="147.97,-212.41 137.75,-209.6 143.99,-218.17 147.97,-212.41"/>
</g>
<!-- 4 -->
<g id="node5" class="node">
<title>4</title>
<polygon fill="none" stroke="black" points="364,-209.5 176,-209.5 176,-126.5 364,-126.5 364,-209.5"/>
<text text-anchor="middle" x="270" y="-194.3" font-family="Times,serif" font-size="14.00">node #4</text>
<text text-anchor="middle" x="270" y="-179.3" font-family="Times,serif" font-size="14.00">gini = 0.0</text>
<text text-anchor="middle" x="270" y="-164.3" font-family="Times,serif" font-size="14.00">samples = 4</text>
<text text-anchor="middle" x="270" y="-149.3" font-family="Times,serif" font-size="14.00">value = [6.018, 0.0]</text>
<text text-anchor="middle" x="270" y="-134.3" font-family="Times,serif" font-size="14.00">class = Non&#45;obstructive</text>
</g>
<!-- 2&#45;&gt;4 -->
<g id="edge4" class="edge">
<title>2&#45;&gt;4</title>
<path fill="none" stroke="black" d="M270,-252.97C270,-242.25 270,-230.84 270,-219.99"/>
<polygon fill="black" stroke="black" points="273.5,-219.82 270,-209.82 266.5,-219.82 273.5,-219.82"/>
</g>
<!-- 6 -->
<g id="node7" class="node">
<title>6</title>
<polygon fill="none" stroke="black" points="582,-217 382,-217 382,-119 582,-119 582,-217"/>
<text text-anchor="middle" x="482" y="-201.8" font-family="Times,serif" font-size="14.00">node #6</text>
<text text-anchor="middle" x="482" y="-186.8" font-family="Times,serif" font-size="14.00">FEV1PrePercent &lt;= 40.5</text>
<text text-anchor="middle" x="482" y="-171.8" font-family="Times,serif" font-size="14.00">gini = 0.147</text>
<text text-anchor="middle" x="482" y="-156.8" font-family="Times,serif" font-size="14.00">samples = 80</text>
<text text-anchor="middle" x="482" y="-141.8" font-family="Times,serif" font-size="14.00">value = [10.03, 115.653]</text>
<text text-anchor="middle" x="482" y="-126.8" font-family="Times,serif" font-size="14.00">class = Obstructive</text>
</g>
<!-- 5&#45;&gt;6 -->
<g id="edge6" class="edge">
<title>5&#45;&gt;6</title>
<path fill="none" stroke="black" d="M579.97,-252.97C568.93,-243.51 557.26,-233.51 545.98,-223.84"/>
<polygon fill="black" stroke="black" points="548.12,-221.06 538.25,-217.21 543.56,-226.38 548.12,-221.06"/>
</g>
<!-- 9 -->
<g id="node10" class="node">
<title>9</title>
<polygon fill="none" stroke="black" points="788,-209.5 600,-209.5 600,-126.5 788,-126.5 788,-209.5"/>
<text text-anchor="middle" x="694" y="-194.3" font-family="Times,serif" font-size="14.00">node #9</text>
<text text-anchor="middle" x="694" y="-179.3" font-family="Times,serif" font-size="14.00">gini = 0.0</text>
<text text-anchor="middle" x="694" y="-164.3" font-family="Times,serif" font-size="14.00">samples = 2</text>
<text text-anchor="middle" x="694" y="-149.3" font-family="Times,serif" font-size="14.00">value = [4.012, 0.0]</text>
<text text-anchor="middle" x="694" y="-134.3" font-family="Times,serif" font-size="14.00">class = Non&#45;obstructive</text>
</g>
<!-- 5&#45;&gt;9 -->
<g id="edge9" class="edge">
<title>5&#45;&gt;9</title>
<path fill="none" stroke="black" d="M657.1,-252.97C661.96,-241.91 667.14,-230.13 672.03,-218.99"/>
<polygon fill="black" stroke="black" points="675.25,-220.38 676.07,-209.82 668.84,-217.56 675.25,-220.38"/>
</g>
<!-- 7 -->
<g id="node8" class="node">
<title>7</title>
<polygon fill="none" stroke="black" points="465.5,-83 280.5,-83 280.5,0 465.5,0 465.5,-83"/>
<text text-anchor="middle" x="373" y="-67.8" font-family="Times,serif" font-size="14.00">node #7</text>
<text text-anchor="middle" x="373" y="-52.8" font-family="Times,serif" font-size="14.00">gini = 0.03</text>
<text text-anchor="middle" x="373" y="-37.8" font-family="Times,serif" font-size="14.00">samples = 41</text>
<text text-anchor="middle" x="373" y="-22.8" font-family="Times,serif" font-size="14.00">value = [1.003, 64.805]</text>
<text text-anchor="middle" x="373" y="-7.8" font-family="Times,serif" font-size="14.00">class = Obstructive</text>
</g>
<!-- 6&#45;&gt;7 -->
<g id="edge7" class="edge">
<title>6&#45;&gt;7</title>
<path fill="none" stroke="black" d="M439.86,-118.87C431.81,-109.67 423.38,-100.04 415.32,-90.84"/>
<polygon fill="black" stroke="black" points="417.88,-88.45 408.66,-83.23 412.61,-93.06 417.88,-88.45"/>
</g>
<!-- 8 -->
<g id="node9" class="node">
<title>8</title>
<polygon fill="none" stroke="black" points="668.5,-83 483.5,-83 483.5,0 668.5,0 668.5,-83"/>
<text text-anchor="middle" x="576" y="-67.8" font-family="Times,serif" font-size="14.00">node #8</text>
<text text-anchor="middle" x="576" y="-52.8" font-family="Times,serif" font-size="14.00">gini = 0.256</text>
<text text-anchor="middle" x="576" y="-37.8" font-family="Times,serif" font-size="14.00">samples = 39</text>
<text text-anchor="middle" x="576" y="-22.8" font-family="Times,serif" font-size="14.00">value = [9.027, 50.847]</text>
<text text-anchor="middle" x="576" y="-7.8" font-family="Times,serif" font-size="14.00">class = Obstructive</text>
</g>
<!-- 6&#45;&gt;8 -->
<g id="edge8" class="edge">
<title>6&#45;&gt;8</title>
<path fill="none" stroke="black" d="M518.34,-118.87C525.15,-109.85 532.26,-100.43 539.08,-91.39"/>
<polygon fill="black" stroke="black" points="542.01,-93.32 545.25,-83.23 536.43,-89.1 542.01,-93.32"/>
</g>
<!-- 11 -->
<g id="node12" class="node">
<title>11</title>
<polygon fill="none" stroke="black" points="1037,-351 849,-351 849,-253 1037,-253 1037,-351"/>
<text text-anchor="middle" x="943" y="-335.8" font-family="Times,serif" font-size="14.00">node #11</text>
<text text-anchor="middle" x="943" y="-320.8" font-family="Times,serif" font-size="14.00">FEFPostVal &lt;= 1.06</text>
<text text-anchor="middle" x="943" y="-305.8" font-family="Times,serif" font-size="14.00">gini = 0.138</text>
<text text-anchor="middle" x="943" y="-290.8" font-family="Times,serif" font-size="14.00">samples = 75</text>
<text text-anchor="middle" x="943" y="-275.8" font-family="Times,serif" font-size="14.00">value = [99.298, 7.976]</text>
<text text-anchor="middle" x="943" y="-260.8" font-family="Times,serif" font-size="14.00">class = Non&#45;obstructive</text>
</g>
<!-- 10&#45;&gt;11 -->
<g id="edge11" class="edge">
<title>10&#45;&gt;11</title>
<path fill="none" stroke="black" d="M943,-386.97C943,-378.69 943,-370 943,-361.48"/>
<polygon fill="black" stroke="black" points="946.5,-361.21 943,-351.21 939.5,-361.21 946.5,-361.21"/>
</g>
<!-- 16 -->
<g id="node17" class="node">
<title>16</title>
<polygon fill="none" stroke="black" points="1488,-351 1294,-351 1294,-253 1488,-253 1488,-351"/>
<text text-anchor="middle" x="1391" y="-335.8" font-family="Times,serif" font-size="14.00">node #16</text>
<text text-anchor="middle" x="1391" y="-320.8" font-family="Times,serif" font-size="14.00">FEFPostVal &lt;= 2.885</text>
<text text-anchor="middle" x="1391" y="-305.8" font-family="Times,serif" font-size="14.00">gini = 0.497</text>
<text text-anchor="middle" x="1391" y="-290.8" font-family="Times,serif" font-size="14.00">samples = 59</text>
<text text-anchor="middle" x="1391" y="-275.8" font-family="Times,serif" font-size="14.00">value = [47.142, 40.877]</text>
<text text-anchor="middle" x="1391" y="-260.8" font-family="Times,serif" font-size="14.00">class = Non&#45;obstructive</text>
</g>
<!-- 10&#45;&gt;16 -->
<g id="edge16" class="edge">
<title>10&#45;&gt;16</title>
<path fill="none" stroke="black" d="M1040.21,-406.36C1112.13,-385.17 1210.04,-356.32 1284.15,-334.48"/>
<polygon fill="black" stroke="black" points="1285.38,-337.77 1293.98,-331.59 1283.4,-331.06 1285.38,-337.77"/>
</g>
<!-- 12 -->
<g id="node13" class="node">
<title>12</title>
<polygon fill="none" stroke="black" points="964,-209.5 806,-209.5 806,-126.5 964,-126.5 964,-209.5"/>
<text text-anchor="middle" x="885" y="-194.3" font-family="Times,serif" font-size="14.00">node #12</text>
<text text-anchor="middle" x="885" y="-179.3" font-family="Times,serif" font-size="14.00">gini = 0.0</text>
<text text-anchor="middle" x="885" y="-164.3" font-family="Times,serif" font-size="14.00">samples = 1</text>
<text text-anchor="middle" x="885" y="-149.3" font-family="Times,serif" font-size="14.00">value = [0.0, 1.994]</text>
<text text-anchor="middle" x="885" y="-134.3" font-family="Times,serif" font-size="14.00">class = Obstructive</text>
</g>
<!-- 11&#45;&gt;12 -->
<g id="edge12" class="edge">
<title>11&#45;&gt;12</title>
<path fill="none" stroke="black" d="M921.9,-252.97C917.04,-241.91 911.86,-230.13 906.97,-218.99"/>
<polygon fill="black" stroke="black" points="910.16,-217.56 902.93,-209.82 903.75,-220.38 910.16,-217.56"/>
</g>
<!-- 13 -->
<g id="node14" class="node">
<title>13</title>
<polygon fill="none" stroke="black" points="1179.5,-217 982.5,-217 982.5,-119 1179.5,-119 1179.5,-217"/>
<text text-anchor="middle" x="1081" y="-201.8" font-family="Times,serif" font-size="14.00">node #13</text>
<text text-anchor="middle" x="1081" y="-186.8" font-family="Times,serif" font-size="14.00">FEFPostPercent &lt;= 69.0</text>
<text text-anchor="middle" x="1081" y="-171.8" font-family="Times,serif" font-size="14.00">gini = 0.107</text>
<text text-anchor="middle" x="1081" y="-156.8" font-family="Times,serif" font-size="14.00">samples = 74</text>
<text text-anchor="middle" x="1081" y="-141.8" font-family="Times,serif" font-size="14.00">value = [99.298, 5.982]</text>
<text text-anchor="middle" x="1081" y="-126.8" font-family="Times,serif" font-size="14.00">class = Non&#45;obstructive</text>
</g>
<!-- 11&#45;&gt;13 -->
<g id="edge13" class="edge">
<title>11&#45;&gt;13</title>
<path fill="none" stroke="black" d="M993.21,-252.97C1002.91,-243.69 1013.15,-233.9 1023.08,-224.4"/>
<polygon fill="black" stroke="black" points="1025.79,-226.66 1030.59,-217.21 1020.95,-221.6 1025.79,-226.66"/>
</g>
<!-- 14 -->
<g id="node15" class="node">
<title>14</title>
<polygon fill="none" stroke="black" points="969,-83 781,-83 781,0 969,0 969,-83"/>
<text text-anchor="middle" x="875" y="-67.8" font-family="Times,serif" font-size="14.00">node #14</text>
<text text-anchor="middle" x="875" y="-52.8" font-family="Times,serif" font-size="14.00">gini = 0.277</text>
<text text-anchor="middle" x="875" y="-37.8" font-family="Times,serif" font-size="14.00">samples = 22</text>
<text text-anchor="middle" x="875" y="-22.8" font-family="Times,serif" font-size="14.00">value = [30.09, 5.982]</text>
<text text-anchor="middle" x="875" y="-7.8" font-family="Times,serif" font-size="14.00">class = Non&#45;obstructive</text>
</g>
<!-- 13&#45;&gt;14 -->
<g id="edge14" class="edge">
<title>13&#45;&gt;14</title>
<path fill="none" stroke="black" d="M1001.36,-118.87C984.83,-108.88 967.46,-98.38 951.06,-88.47"/>
<polygon fill="black" stroke="black" points="952.43,-85.21 942.07,-83.03 948.81,-91.2 952.43,-85.21"/>
</g>
<!-- 15 -->
<g id="node16" class="node">
<title>15</title>
<polygon fill="none" stroke="black" points="1175,-83 987,-83 987,0 1175,0 1175,-83"/>
<text text-anchor="middle" x="1081" y="-67.8" font-family="Times,serif" font-size="14.00">node #15</text>
<text text-anchor="middle" x="1081" y="-52.8" font-family="Times,serif" font-size="14.00">gini = 0.0</text>
<text text-anchor="middle" x="1081" y="-37.8" font-family="Times,serif" font-size="14.00">samples = 52</text>
<text text-anchor="middle" x="1081" y="-22.8" font-family="Times,serif" font-size="14.00">value = [69.208, 0.0]</text>
<text text-anchor="middle" x="1081" y="-7.8" font-family="Times,serif" font-size="14.00">class = Non&#45;obstructive</text>
</g>
<!-- 13&#45;&gt;15 -->
<g id="edge15" class="edge">
<title>13&#45;&gt;15</title>
<path fill="none" stroke="black" d="M1081,-118.87C1081,-110.5 1081,-101.77 1081,-93.33"/>
<polygon fill="black" stroke="black" points="1084.5,-93.23 1081,-83.23 1077.5,-93.23 1084.5,-93.23"/>
</g>
<!-- 17 -->
<g id="node18" class="node">
<title>17</title>
<polygon fill="none" stroke="black" points="1488,-217 1294,-217 1294,-119 1488,-119 1488,-217"/>
<text text-anchor="middle" x="1391" y="-201.8" font-family="Times,serif" font-size="14.00">node #17</text>
<text text-anchor="middle" x="1391" y="-186.8" font-family="Times,serif" font-size="14.00">FEFPostVal &lt;= 1.39</text>
<text text-anchor="middle" x="1391" y="-171.8" font-family="Times,serif" font-size="14.00">gini = 0.386</text>
<text text-anchor="middle" x="1391" y="-156.8" font-family="Times,serif" font-size="14.00">samples = 36</text>
<text text-anchor="middle" x="1391" y="-141.8" font-family="Times,serif" font-size="14.00">value = [13.039, 36.889]</text>
<text text-anchor="middle" x="1391" y="-126.8" font-family="Times,serif" font-size="14.00">class = Obstructive</text>
</g>
<!-- 16&#45;&gt;17 -->
<g id="edge17" class="edge">
<title>16&#45;&gt;17</title>
<path fill="none" stroke="black" d="M1391,-252.97C1391,-244.69 1391,-236 1391,-227.48"/>
<polygon fill="black" stroke="black" points="1394.5,-227.21 1391,-217.21 1387.5,-227.21 1394.5,-227.21"/>
</g>
<!-- 20 -->
<g id="node21" class="node">
<title>20</title>
<polygon fill="none" stroke="black" points="1791,-217 1603,-217 1603,-119 1791,-119 1791,-217"/>
<text text-anchor="middle" x="1697" y="-201.8" font-family="Times,serif" font-size="14.00">node #20</text>
<text text-anchor="middle" x="1697" y="-186.8" font-family="Times,serif" font-size="14.00">FEV1PreVal &lt;= 2.39</text>
<text text-anchor="middle" x="1697" y="-171.8" font-family="Times,serif" font-size="14.00">gini = 0.187</text>
<text text-anchor="middle" x="1697" y="-156.8" font-family="Times,serif" font-size="14.00">samples = 23</text>
<text text-anchor="middle" x="1697" y="-141.8" font-family="Times,serif" font-size="14.00">value = [34.102, 3.988]</text>
<text text-anchor="middle" x="1697" y="-126.8" font-family="Times,serif" font-size="14.00">class = Non&#45;obstructive</text>
</g>
<!-- 16&#45;&gt;20 -->
<g id="edge20" class="edge">
<title>16&#45;&gt;20</title>
<path fill="none" stroke="black" d="M1488.24,-259.05C1521.75,-244.6 1559.4,-228.36 1593.4,-213.69"/>
<polygon fill="black" stroke="black" points="1595.09,-216.77 1602.89,-209.6 1592.32,-210.34 1595.09,-216.77"/>
</g>
<!-- 18 -->
<g id="node19" class="node">
<title>18</title>
<polygon fill="none" stroke="black" points="1381,-83 1193,-83 1193,0 1381,0 1381,-83"/>
<text text-anchor="middle" x="1287" y="-67.8" font-family="Times,serif" font-size="14.00">node #18</text>
<text text-anchor="middle" x="1287" y="-52.8" font-family="Times,serif" font-size="14.00">gini = 0.277</text>
<text text-anchor="middle" x="1287" y="-37.8" font-family="Times,serif" font-size="14.00">samples = 4</text>
<text text-anchor="middle" x="1287" y="-22.8" font-family="Times,serif" font-size="14.00">value = [5.015, 0.997]</text>
<text text-anchor="middle" x="1287" y="-7.8" font-family="Times,serif" font-size="14.00">class = Non&#45;obstructive</text>
</g>
<!-- 17&#45;&gt;18 -->
<g id="edge18" class="edge">
<title>17&#45;&gt;18</title>
<path fill="none" stroke="black" d="M1350.79,-118.87C1343.19,-109.76 1335.23,-100.23 1327.61,-91.12"/>
<polygon fill="black" stroke="black" points="1330.12,-88.66 1321.02,-83.23 1324.75,-93.15 1330.12,-88.66"/>
</g>
<!-- 19 -->
<g id="node20" class="node">
<title>19</title>
<polygon fill="none" stroke="black" points="1584.5,-83 1399.5,-83 1399.5,0 1584.5,0 1584.5,-83"/>
<text text-anchor="middle" x="1492" y="-67.8" font-family="Times,serif" font-size="14.00">node #19</text>
<text text-anchor="middle" x="1492" y="-52.8" font-family="Times,serif" font-size="14.00">gini = 0.299</text>
<text text-anchor="middle" x="1492" y="-37.8" font-family="Times,serif" font-size="14.00">samples = 32</text>
<text text-anchor="middle" x="1492" y="-22.8" font-family="Times,serif" font-size="14.00">value = [8.024, 35.892]</text>
<text text-anchor="middle" x="1492" y="-7.8" font-family="Times,serif" font-size="14.00">class = Obstructive</text>
</g>
<!-- 17&#45;&gt;19 -->
<g id="edge19" class="edge">
<title>17&#45;&gt;19</title>
<path fill="none" stroke="black" d="M1430.05,-118.87C1437.43,-109.76 1445.16,-100.23 1452.56,-91.12"/>
<polygon fill="black" stroke="black" points="1455.38,-93.2 1458.96,-83.23 1449.94,-88.79 1455.38,-93.2"/>
</g>
<!-- 21 -->
<g id="node22" class="node">
<title>21</title>
<polygon fill="none" stroke="black" points="1791,-83 1603,-83 1603,0 1791,0 1791,-83"/>
<text text-anchor="middle" x="1697" y="-67.8" font-family="Times,serif" font-size="14.00">node #21</text>
<text text-anchor="middle" x="1697" y="-52.8" font-family="Times,serif" font-size="14.00">gini = 0.479</text>
<text text-anchor="middle" x="1697" y="-37.8" font-family="Times,serif" font-size="14.00">samples = 7</text>
<text text-anchor="middle" x="1697" y="-22.8" font-family="Times,serif" font-size="14.00">value = [6.018, 3.988]</text>
<text text-anchor="middle" x="1697" y="-7.8" font-family="Times,serif" font-size="14.00">class = Non&#45;obstructive</text>
</g>
<!-- 20&#45;&gt;21 -->
<g id="edge21" class="edge">
<title>20&#45;&gt;21</title>
<path fill="none" stroke="black" d="M1697,-118.87C1697,-110.5 1697,-101.77 1697,-93.33"/>
<polygon fill="black" stroke="black" points="1700.5,-93.23 1697,-83.23 1693.5,-93.23 1700.5,-93.23"/>
</g>
<!-- 22 -->
<g id="node23" class="node">
<title>22</title>
<polygon fill="none" stroke="black" points="1997,-83 1809,-83 1809,0 1997,0 1997,-83"/>
<text text-anchor="middle" x="1903" y="-67.8" font-family="Times,serif" font-size="14.00">node #22</text>
<text text-anchor="middle" x="1903" y="-52.8" font-family="Times,serif" font-size="14.00">gini = 0.0</text>
<text text-anchor="middle" x="1903" y="-37.8" font-family="Times,serif" font-size="14.00">samples = 16</text>
<text text-anchor="middle" x="1903" y="-22.8" font-family="Times,serif" font-size="14.00">value = [28.084, 0.0]</text>
<text text-anchor="middle" x="1903" y="-7.8" font-family="Times,serif" font-size="14.00">class = Non&#45;obstructive</text>
</g>
<!-- 20&#45;&gt;22 -->
<g id="edge22" class="edge">
<title>20&#45;&gt;22</title>
<path fill="none" stroke="black" d="M1776.64,-118.87C1793.17,-108.88 1810.54,-98.38 1826.94,-88.47"/>
<polygon fill="black" stroke="black" points="1829.19,-91.2 1835.93,-83.03 1825.57,-85.21 1829.19,-91.2"/>
</g>
</g>
</svg>
