<?xml version="1.0" encoding="UTF-8" standalone="no"?>
<!DOCTYPE svg PUBLIC "-//W3C//DTD SVG 1.1//EN"
 "http://www.w3.org/Graphics/SVG/1.1/DTD/svg11.dtd">
<!-- Generated by graphviz version 2.43.0 (0)
 -->
<!-- Title: Tree Pages: 1 -->
<svg width="2371pt" height="627pt"
 viewBox="0.00 0.00 2371.00 627.00" xmlns="http://www.w3.org/2000/svg" xmlns:xlink="http://www.w3.org/1999/xlink">
<g id="graph0" class="graph" transform="scale(1 1) rotate(0) translate(4 623)">
<title>Tree</title>
<polygon fill="white" stroke="transparent" points="-4,4 -4,-623 2367,-623 2367,4 -4,4"/>
<!-- 0 -->
<g id="node1" class="node">
<title>0</title>
<polygon fill="none" stroke="black" points="1564.5,-619 1373.5,-619 1373.5,-521 1564.5,-521 1564.5,-619"/>
<text text-anchor="middle" x="1469" y="-603.8" font-family="Times,serif" font-size="14.00">node #0</text>
<text text-anchor="middle" x="1469" y="-588.8" font-family="Times,serif" font-size="14.00">FEFPrePercent &lt;= 57.5</text>
<text text-anchor="middle" x="1469" y="-573.8" font-family="Times,serif" font-size="14.00">gini = 0.5</text>
<text text-anchor="middle" x="1469" y="-558.8" font-family="Times,serif" font-size="14.00">samples = 214</text>
<text text-anchor="middle" x="1469" y="-543.8" font-family="Times,serif" font-size="14.00">value = [166.5, 166.5]</text>
<text text-anchor="middle" x="1469" y="-528.8" font-family="Times,serif" font-size="14.00">class = Obstructive</text>
</g>
<!-- 1 -->
<g id="node2" class="node">
<title>1</title>
<polygon fill="none" stroke="black" points="1266,-485 1072,-485 1072,-387 1266,-387 1266,-485"/>
<text text-anchor="middle" x="1169" y="-469.8" font-family="Times,serif" font-size="14.00">node #1</text>
<text text-anchor="middle" x="1169" y="-454.8" font-family="Times,serif" font-size="14.00">FEFPreVal &lt;= 1.085</text>
<text text-anchor="middle" x="1169" y="-439.8" font-family="Times,serif" font-size="14.00">gini = 0.291</text>
<text text-anchor="middle" x="1169" y="-424.8" font-family="Times,serif" font-size="14.00">samples = 114</text>
<text text-anchor="middle" x="1169" y="-409.8" font-family="Times,serif" font-size="14.00">value = [31.76, 147.769]</text>
<text text-anchor="middle" x="1169" y="-394.8" font-family="Times,serif" font-size="14.00">class = Obstructive</text>
</g>
<!-- 0&#45;&gt;1 -->
<g id="edge1" class="edge">
<title>0&#45;&gt;1</title>
<path fill="none" stroke="black" d="M1373.25,-526.87C1342.12,-513.17 1307.38,-497.89 1275.5,-483.86"/>
<polygon fill="black" stroke="black" points="1276.72,-480.57 1266.15,-479.75 1273.9,-486.98 1276.72,-480.57"/>
<text text-anchor="middle" x="1275.22" y="-499.35" font-family="Times,serif" font-size="14.00">True</text>
</g>
<!-- 16 -->
<g id="node17" class="node">
<title>16</title>
<polygon fill="none" stroke="black" points="1862.5,-485 1665.5,-485 1665.5,-387 1862.5,-387 1862.5,-485"/>
<text text-anchor="middle" x="1764" y="-469.8" font-family="Times,serif" font-size="14.00">node #16</text>
<text text-anchor="middle" x="1764" y="-454.8" font-family="Times,serif" font-size="14.00">FEFPostPercent &lt;= 96.5</text>
<text text-anchor="middle" x="1764" y="-439.8" font-family="Times,serif" font-size="14.00">gini = 0.214</text>
<text text-anchor="middle" x="1764" y="-424.8" font-family="Times,serif" font-size="14.00">samples = 100</text>
<text text-anchor="middle" x="1764" y="-409.8" font-family="Times,serif" font-size="14.00">value = [134.74, 18.731]</text>
<text text-anchor="middle" x="1764" y="-394.8" font-family="Times,serif" font-size="14.00">class = Non&#45;obstructive</text>
</g>
<!-- 0&#45;&gt;16 -->
<g id="edge16" class="edge">
<title>0&#45;&gt;16</title>
<path fill="none" stroke="black" d="M1564.78,-526.14C1593.98,-513.08 1626.27,-498.63 1656.2,-485.23"/>
<polygon fill="black" stroke="black" points="1657.71,-488.39 1665.41,-481.11 1654.86,-482 1657.71,-488.39"/>
<text text-anchor="middle" x="1656.5" y="-500.77" font-family="Times,serif" font-size="14.00">False</text>
</g>
<!-- 2 -->
<g id="node3" class="node">
<title>2</title>
<polygon fill="none" stroke="black" points="677,-351 483,-351 483,-253 677,-253 677,-351"/>
<text text-anchor="middle" x="580" y="-335.8" font-family="Times,serif" font-size="14.00">node #2</text>
<text text-anchor="middle" x="580" y="-320.8" font-family="Times,serif" font-size="14.00">FVCPostVal &lt;= 1.21</text>
<text text-anchor="middle" x="580" y="-305.8" font-family="Times,serif" font-size="14.00">gini = 0.108</text>
<text text-anchor="middle" x="580" y="-290.8" font-family="Times,serif" font-size="14.00">samples = 75</text>
<text text-anchor="middle" x="580" y="-275.8" font-family="Times,serif" font-size="14.00">value = [6.737, 111.347]</text>
<text text-anchor="middle" x="580" y="-260.8" font-family="Times,serif" font-size="14.00">class = Obstructive</text>
</g>
<!-- 1&#45;&gt;2 -->
<g id="edge2" class="edge">
<title>1&#45;&gt;2</title>
<path fill="none" stroke="black" d="M1071.74,-413.2C965.8,-389.46 796.85,-351.6 687.17,-327.02"/>
<polygon fill="black" stroke="black" points="687.93,-323.6 677.41,-324.83 686.4,-330.43 687.93,-323.6"/>
</g>
<!-- 9 -->
<g id="node10" class="node">
<title>9</title>
<polygon fill="none" stroke="black" points="1266,-351 1072,-351 1072,-253 1266,-253 1266,-351"/>
<text text-anchor="middle" x="1169" y="-335.8" font-family="Times,serif" font-size="14.00">node #9</text>
<text text-anchor="middle" x="1169" y="-320.8" font-family="Times,serif" font-size="14.00">FVCPostVal &lt;= 2.16</text>
<text text-anchor="middle" x="1169" y="-305.8" font-family="Times,serif" font-size="14.00">gini = 0.483</text>
<text text-anchor="middle" x="1169" y="-290.8" font-family="Times,serif" font-size="14.00">samples = 39</text>
<text text-anchor="middle" x="1169" y="-275.8" font-family="Times,serif" font-size="14.00">value = [25.023, 36.422]</text>
<text text-anchor="middle" x="1169" y="-260.8" font-family="Times,serif" font-size="14.00">class = Obstructive</text>
</g>
<!-- 1&#45;&gt;9 -->
<g id="edge9" class="edge">
<title>1&#45;&gt;9</title>
<path fill="none" stroke="black" d="M1169,-386.97C1169,-378.69 1169,-370 1169,-361.48"/>
<polygon fill="black" stroke="black" points="1172.5,-361.21 1169,-351.21 1165.5,-361.21 1172.5,-361.21"/>
</g>
<!-- 3 -->
<g id="node4" class="node">
<title>3</title>
<polygon fill="none" stroke="black" points="365.5,-217 174.5,-217 174.5,-119 365.5,-119 365.5,-217"/>
<text text-anchor="middle" x="270" y="-201.8" font-family="Times,serif" font-size="14.00">node #3</text>
<text text-anchor="middle" x="270" y="-186.8" font-family="Times,serif" font-size="14.00">FEFPrePercent &lt;= 18.5</text>
<text text-anchor="middle" x="270" y="-171.8" font-family="Times,serif" font-size="14.00">gini = 0.456</text>
<text text-anchor="middle" x="270" y="-156.8" font-family="Times,serif" font-size="14.00">samples = 3</text>
<text text-anchor="middle" x="270" y="-141.8" font-family="Times,serif" font-size="14.00">value = [1.925, 1.041]</text>
<text text-anchor="middle" x="270" y="-126.8" font-family="Times,serif" font-size="14.00">class = Non&#45;obstructive</text>
</g>
<!-- 2&#45;&gt;3 -->
<g id="edge3" class="edge">
<title>2&#45;&gt;3</title>
<path fill="none" stroke="black" d="M482.76,-259.6C448.45,-244.99 409.74,-228.5 374.82,-213.63"/>
<polygon fill="black" stroke="black" points="376.13,-210.39 365.56,-209.69 373.39,-216.83 376.13,-210.39"/>
</g>
<!-- 6 -->
<g id="node7" class="node">
<title>6</title>
<polygon fill="none" stroke="black" points="677,-217 483,-217 483,-119 677,-119 677,-217"/>
<text text-anchor="middle" x="580" y="-201.8" font-family="Times,serif" font-size="14.00">node #6</text>
<text text-anchor="middle" x="580" y="-186.8" font-family="Times,serif" font-size="14.00">FEV1PostVal &lt;= 1.33</text>
<text text-anchor="middle" x="580" y="-171.8" font-family="Times,serif" font-size="14.00">gini = 0.08</text>
<text text-anchor="middle" x="580" y="-156.8" font-family="Times,serif" font-size="14.00">samples = 72</text>
<text text-anchor="middle" x="580" y="-141.8" font-family="Times,serif" font-size="14.00">value = [4.812, 110.306]</text>
<text text-anchor="middle" x="580" y="-126.8" font-family="Times,serif" font-size="14.00">class = Obstructive</text>
</g>
<!-- 2&#45;&gt;6 -->
<g id="edge6" class="edge">
<title>2&#45;&gt;6</title>
<path fill="none" stroke="black" d="M580,-252.97C580,-244.69 580,-236 580,-227.48"/>
<polygon fill="black" stroke="black" points="583.5,-227.21 580,-217.21 576.5,-227.21 583.5,-227.21"/>
</g>
<!-- 4 -->
<g id="node5" class="node">
<title>4</title>
<polygon fill="none" stroke="black" points="158,-83 0,-83 0,0 158,0 158,-83"/>
<text text-anchor="middle" x="79" y="-67.8" font-family="Times,serif" font-size="14.00">node #4</text>
<text text-anchor="middle" x="79" y="-52.8" font-family="Times,serif" font-size="14.00">gini = 0.0</text>
<text text-anchor="middle" x="79" y="-37.8" font-family="Times,serif" font-size="14.00">samples = 1</text>
<text text-anchor="middle" x="79" y="-22.8" font-family="Times,serif" font-size="14.00">value = [0.0, 1.041]</text>
<text text-anchor="middle" x="79" y="-7.8" font-family="Times,serif" font-size="14.00">class = Obstructive</text>
</g>
<!-- 3&#45;&gt;4 -->
<g id="edge4" class="edge">
<title>3&#45;&gt;4</title>
<path fill="none" stroke="black" d="M196.15,-118.87C180.97,-108.97 165.02,-98.57 149.95,-88.74"/>
<polygon fill="black" stroke="black" points="151.47,-85.56 141.18,-83.03 147.65,-91.43 151.47,-85.56"/>
</g>
<!-- 5 -->
<g id="node6" class="node">
<title>5</title>
<polygon fill="none" stroke="black" points="364,-83 176,-83 176,0 364,0 364,-83"/>
<text text-anchor="middle" x="270" y="-67.8" font-family="Times,serif" font-size="14.00">node #5</text>
<text text-anchor="middle" x="270" y="-52.8" font-family="Times,serif" font-size="14.00">gini = 0.0</text>
<text text-anchor="middle" x="270" y="-37.8" font-family="Times,serif" font-size="14.00">samples = 2</text>
<text text-anchor="middle" x="270" y="-22.8" font-family="Times,serif" font-size="14.00">value = [1.925, 0.0]</text>
<text text-anchor="middle" x="270" y="-7.8" font-family="Times,serif" font-size="14.00">class = Non&#45;obstructive</text>
</g>
<!-- 3&#45;&gt;5 -->
<g id="edge5" class="edge">
<title>3&#45;&gt;5</title>
<path fill="none" stroke="black" d="M270,-118.87C270,-110.5 270,-101.77 270,-93.33"/>
<polygon fill="black" stroke="black" points="273.5,-93.23 270,-83.23 266.5,-93.23 273.5,-93.23"/>
</g>
<!-- 7 -->
<g id="node8" class="node">
<title>7</title>
<polygon fill="none" stroke="black" points="567.5,-83 382.5,-83 382.5,0 567.5,0 567.5,-83"/>
<text text-anchor="middle" x="475" y="-67.8" font-family="Times,serif" font-size="14.00">node #7</text>
<text text-anchor="middle" x="475" y="-52.8" font-family="Times,serif" font-size="14.00">gini = 0.043</text>
<text text-anchor="middle" x="475" y="-37.8" font-family="Times,serif" font-size="14.00">samples = 52</text>
<text text-anchor="middle" x="475" y="-22.8" font-family="Times,serif" font-size="14.00">value = [1.925, 85.331]</text>
<text text-anchor="middle" x="475" y="-7.8" font-family="Times,serif" font-size="14.00">class = Obstructive</text>
</g>
<!-- 6&#45;&gt;7 -->
<g id="edge7" class="edge">
<title>6&#45;&gt;7</title>
<path fill="none" stroke="black" d="M539.4,-118.87C531.73,-109.76 523.69,-100.23 516,-91.12"/>
<polygon fill="black" stroke="black" points="518.47,-88.62 509.35,-83.23 513.12,-93.13 518.47,-88.62"/>
</g>
<!-- 8 -->
<g id="node9" class="node">
<title>8</title>
<polygon fill="none" stroke="black" points="770.5,-83 585.5,-83 585.5,0 770.5,0 770.5,-83"/>
<text text-anchor="middle" x="678" y="-67.8" font-family="Times,serif" font-size="14.00">node #8</text>
<text text-anchor="middle" x="678" y="-52.8" font-family="Times,serif" font-size="14.00">gini = 0.186</text>
<text text-anchor="middle" x="678" y="-37.8" font-family="Times,serif" font-size="14.00">samples = 20</text>
<text text-anchor="middle" x="678" y="-22.8" font-family="Times,serif" font-size="14.00">value = [2.887, 24.975]</text>
<text text-anchor="middle" x="678" y="-7.8" font-family="Times,serif" font-size="14.00">class = Obstructive</text>
</g>
<!-- 6&#45;&gt;8 -->
<g id="edge8" class="edge">
<title>6&#45;&gt;8</title>
<path fill="none" stroke="black" d="M617.89,-118.87C625.05,-109.76 632.55,-100.23 639.73,-91.12"/>
<polygon fill="black" stroke="black" points="642.5,-93.25 645.94,-83.23 637,-88.92 642.5,-93.25"/>
</g>
<!-- 10 -->
<g id="node11" class="node">
<title>10</title>
<polygon fill="none" stroke="black" points="1164,-217 964,-217 964,-119 1164,-119 1164,-217"/>
<text text-anchor="middle" x="1064" y="-201.8" font-family="Times,serif" font-size="14.00">node #10</text>
<text text-anchor="middle" x="1064" y="-186.8" font-family="Times,serif" font-size="14.00">FEFPrePercent &lt;= 54.43</text>
<text text-anchor="middle" x="1064" y="-171.8" font-family="Times,serif" font-size="14.00">gini = 0.345</text>
<text text-anchor="middle" x="1064" y="-156.8" font-family="Times,serif" font-size="14.00">samples = 15</text>
<text text-anchor="middle" x="1064" y="-141.8" font-family="Times,serif" font-size="14.00">value = [18.286, 5.203]</text>
<text text-anchor="middle" x="1064" y="-126.8" font-family="Times,serif" font-size="14.00">class = Non&#45;obstructive</text>
</g>
<!-- 9&#45;&gt;10 -->
<g id="edge10" class="edge">
<title>9&#45;&gt;10</title>
<path fill="none" stroke="black" d="M1130.8,-252.97C1123.63,-243.96 1116.08,-234.47 1108.74,-225.24"/>
<polygon fill="black" stroke="black" points="1111.32,-222.86 1102.35,-217.21 1105.84,-227.22 1111.32,-222.86"/>
</g>
<!-- 13 -->
<g id="node14" class="node">
<title>13</title>
<polygon fill="none" stroke="black" points="1367.5,-217 1182.5,-217 1182.5,-119 1367.5,-119 1367.5,-217"/>
<text text-anchor="middle" x="1275" y="-201.8" font-family="Times,serif" font-size="14.00">node #13</text>
<text text-anchor="middle" x="1275" y="-186.8" font-family="Times,serif" font-size="14.00">FEFPreVal &lt;= 1.155</text>
<text text-anchor="middle" x="1275" y="-171.8" font-family="Times,serif" font-size="14.00">gini = 0.292</text>
<text text-anchor="middle" x="1275" y="-156.8" font-family="Times,serif" font-size="14.00">samples = 24</text>
<text text-anchor="middle" x="1275" y="-141.8" font-family="Times,serif" font-size="14.00">value = [6.737, 31.219]</text>
<text text-anchor="middle" x="1275" y="-126.8" font-family="Times,serif" font-size="14.00">class = Obstructive</text>
</g>
<!-- 9&#45;&gt;13 -->
<g id="edge13" class="edge">
<title>9&#45;&gt;13</title>
<path fill="none" stroke="black" d="M1207.57,-252.97C1214.8,-243.96 1222.42,-234.47 1229.84,-225.24"/>
<polygon fill="black" stroke="black" points="1232.75,-227.2 1236.28,-217.21 1227.29,-222.82 1232.75,-227.2"/>
</g>
<!-- 11 -->
<g id="node12" class="node">
<title>11</title>
<polygon fill="none" stroke="black" points="977,-83 789,-83 789,0 977,0 977,-83"/>
<text text-anchor="middle" x="883" y="-67.8" font-family="Times,serif" font-size="14.00">node #11</text>
<text text-anchor="middle" x="883" y="-52.8" font-family="Times,serif" font-size="14.00">gini = 0.249</text>
<text text-anchor="middle" x="883" y="-37.8" font-family="Times,serif" font-size="14.00">samples = 14</text>
<text text-anchor="middle" x="883" y="-22.8" font-family="Times,serif" font-size="14.00">value = [18.286, 3.122]</text>
<text text-anchor="middle" x="883" y="-7.8" font-family="Times,serif" font-size="14.00">class = Non&#45;obstructive</text>
</g>
<!-- 10&#45;&gt;11 -->
<g id="edge11" class="edge">
<title>10&#45;&gt;11</title>
<path fill="none" stroke="black" d="M994.02,-118.87C979.63,-108.97 964.52,-98.57 950.23,-88.74"/>
<polygon fill="black" stroke="black" points="952.15,-85.82 941.93,-83.03 948.18,-91.58 952.15,-85.82"/>
</g>
<!-- 12 -->
<g id="node13" class="node">
<title>12</title>
<polygon fill="none" stroke="black" points="1153,-83 995,-83 995,0 1153,0 1153,-83"/>
<text text-anchor="middle" x="1074" y="-67.8" font-family="Times,serif" font-size="14.00">node #12</text>
<text text-anchor="middle" x="1074" y="-52.8" font-family="Times,serif" font-size="14.00">gini = 0.0</text>
<text text-anchor="middle" x="1074" y="-37.8" font-family="Times,serif" font-size="14.00">samples = 1</text>
<text text-anchor="middle" x="1074" y="-22.8" font-family="Times,serif" font-size="14.00">value = [0.0, 2.081]</text>
<text text-anchor="middle" x="1074" y="-7.8" font-family="Times,serif" font-size="14.00">class = Obstructive</text>
</g>
<!-- 10&#45;&gt;12 -->
<g id="edge12" class="edge">
<title>10&#45;&gt;12</title>
<path fill="none" stroke="black" d="M1067.87,-118.87C1068.54,-110.5 1069.24,-101.77 1069.92,-93.33"/>
<polygon fill="black" stroke="black" points="1073.42,-93.48 1070.73,-83.23 1066.44,-92.92 1073.42,-93.48"/>
</g>
<!-- 14 -->
<g id="node15" class="node">
<title>14</title>
<polygon fill="none" stroke="black" points="1359,-83 1171,-83 1171,0 1359,0 1359,-83"/>
<text text-anchor="middle" x="1265" y="-67.8" font-family="Times,serif" font-size="14.00">node #14</text>
<text text-anchor="middle" x="1265" y="-52.8" font-family="Times,serif" font-size="14.00">gini = 0.0</text>
<text text-anchor="middle" x="1265" y="-37.8" font-family="Times,serif" font-size="14.00">samples = 1</text>
<text text-anchor="middle" x="1265" y="-22.8" font-family="Times,serif" font-size="14.00">value = [1.925, 0.0]</text>
<text text-anchor="middle" x="1265" y="-7.8" font-family="Times,serif" font-size="14.00">class = Non&#45;obstructive</text>
</g>
<!-- 13&#45;&gt;14 -->
<g id="edge14" class="edge">
<title>13&#45;&gt;14</title>
<path fill="none" stroke="black" d="M1271.13,-118.87C1270.46,-110.5 1269.76,-101.77 1269.08,-93.33"/>
<polygon fill="black" stroke="black" points="1272.56,-92.92 1268.27,-83.23 1265.58,-93.48 1272.56,-92.92"/>
</g>
<!-- 15 -->
<g id="node16" class="node">
<title>15</title>
<polygon fill="none" stroke="black" points="1562.5,-83 1377.5,-83 1377.5,0 1562.5,0 1562.5,-83"/>
<text text-anchor="middle" x="1470" y="-67.8" font-family="Times,serif" font-size="14.00">node #15</text>
<text text-anchor="middle" x="1470" y="-52.8" font-family="Times,serif" font-size="14.00">gini = 0.231</text>
<text text-anchor="middle" x="1470" y="-37.8" font-family="Times,serif" font-size="14.00">samples = 23</text>
<text text-anchor="middle" x="1470" y="-22.8" font-family="Times,serif" font-size="14.00">value = [4.812, 31.219]</text>
<text text-anchor="middle" x="1470" y="-7.8" font-family="Times,serif" font-size="14.00">class = Obstructive</text>
</g>
<!-- 13&#45;&gt;15 -->
<g id="edge15" class="edge">
<title>13&#45;&gt;15</title>
<path fill="none" stroke="black" d="M1350.39,-118.87C1366.04,-108.88 1382.48,-98.38 1398,-88.47"/>
<polygon fill="black" stroke="black" points="1399.97,-91.36 1406.52,-83.03 1396.2,-85.46 1399.97,-91.36"/>
</g>
<!-- 17 -->
<g id="node18" class="node">
<title>17</title>
<polygon fill="none" stroke="black" points="1861,-351 1667,-351 1667,-253 1861,-253 1861,-351"/>
<text text-anchor="middle" x="1764" y="-335.8" font-family="Times,serif" font-size="14.00">node #17</text>
<text text-anchor="middle" x="1764" y="-320.8" font-family="Times,serif" font-size="14.00">FVCPreVal &lt;= 3.36</text>
<text text-anchor="middle" x="1764" y="-305.8" font-family="Times,serif" font-size="14.00">gini = 0.367</text>
<text text-anchor="middle" x="1764" y="-290.8" font-family="Times,serif" font-size="14.00">samples = 50</text>
<text text-anchor="middle" x="1764" y="-275.8" font-family="Times,serif" font-size="14.00">value = [58.708, 18.731]</text>
<text text-anchor="middle" x="1764" y="-260.8" font-family="Times,serif" font-size="14.00">class = Non&#45;obstructive</text>
</g>
<!-- 16&#45;&gt;17 -->
<g id="edge17" class="edge">
<title>16&#45;&gt;17</title>
<path fill="none" stroke="black" d="M1764,-386.97C1764,-378.69 1764,-370 1764,-361.48"/>
<polygon fill="black" stroke="black" points="1767.5,-361.21 1764,-351.21 1760.5,-361.21 1767.5,-361.21"/>
</g>
<!-- 24 -->
<g id="node25" class="node">
<title>24</title>
<polygon fill="none" stroke="black" points="2067,-343.5 1879,-343.5 1879,-260.5 2067,-260.5 2067,-343.5"/>
<text text-anchor="middle" x="1973" y="-328.3" font-family="Times,serif" font-size="14.00">node #24</text>
<text text-anchor="middle" x="1973" y="-313.3" font-family="Times,serif" font-size="14.00">gini = 0.0</text>
<text text-anchor="middle" x="1973" y="-298.3" font-family="Times,serif" font-size="14.00">samples = 50</text>
<text text-anchor="middle" x="1973" y="-283.3" font-family="Times,serif" font-size="14.00">value = [76.032, 0.0]</text>
<text text-anchor="middle" x="1973" y="-268.3" font-family="Times,serif" font-size="14.00">class = Non&#45;obstructive</text>
</g>
<!-- 16&#45;&gt;24 -->
<g id="edge24" class="edge">
<title>16&#45;&gt;24</title>
<path fill="none" stroke="black" d="M1840.05,-386.97C1859.67,-374.58 1880.74,-361.27 1900.19,-348.98"/>
<polygon fill="black" stroke="black" points="1902.13,-351.9 1908.71,-343.6 1898.39,-345.98 1902.13,-351.9"/>
</g>
<!-- 18 -->
<g id="node19" class="node">
<title>18</title>
<polygon fill="none" stroke="black" points="1867,-217 1661,-217 1661,-119 1867,-119 1867,-217"/>
<text text-anchor="middle" x="1764" y="-201.8" font-family="Times,serif" font-size="14.00">node #18</text>
<text text-anchor="middle" x="1764" y="-186.8" font-family="Times,serif" font-size="14.00">FEV1PostPercent &lt;= 57.5</text>
<text text-anchor="middle" x="1764" y="-171.8" font-family="Times,serif" font-size="14.00">gini = 0.268</text>
<text text-anchor="middle" x="1764" y="-156.8" font-family="Times,serif" font-size="14.00">samples = 43</text>
<text text-anchor="middle" x="1764" y="-141.8" font-family="Times,serif" font-size="14.00">value = [54.858, 10.406]</text>
<text text-anchor="middle" x="1764" y="-126.8" font-family="Times,serif" font-size="14.00">class = Non&#45;obstructive</text>
</g>
<!-- 17&#45;&gt;18 -->
<g id="edge18" class="edge">
<title>17&#45;&gt;18</title>
<path fill="none" stroke="black" d="M1764,-252.97C1764,-244.69 1764,-236 1764,-227.48"/>
<polygon fill="black" stroke="black" points="1767.5,-227.21 1764,-217.21 1760.5,-227.21 1767.5,-227.21"/>
</g>
<!-- 21 -->
<g id="node22" class="node">
<title>21</title>
<polygon fill="none" stroke="black" points="2181,-217 1975,-217 1975,-119 2181,-119 2181,-217"/>
<text text-anchor="middle" x="2078" y="-201.8" font-family="Times,serif" font-size="14.00">node #21</text>
<text text-anchor="middle" x="2078" y="-186.8" font-family="Times,serif" font-size="14.00">FEV1PostPercent &lt;= 94.5</text>
<text text-anchor="middle" x="2078" y="-171.8" font-family="Times,serif" font-size="14.00">gini = 0.432</text>
<text text-anchor="middle" x="2078" y="-156.8" font-family="Times,serif" font-size="14.00">samples = 7</text>
<text text-anchor="middle" x="2078" y="-141.8" font-family="Times,serif" font-size="14.00">value = [3.85, 8.325]</text>
<text text-anchor="middle" x="2078" y="-126.8" font-family="Times,serif" font-size="14.00">class = Obstructive</text>
</g>
<!-- 17&#45;&gt;21 -->
<g id="edge21" class="edge">
<title>17&#45;&gt;21</title>
<path fill="none" stroke="black" d="M1861.26,-256.77C1864.2,-255.49 1867.12,-254.23 1870,-253 1900.74,-239.84 1934.26,-226.06 1965.24,-213.55"/>
<polygon fill="black" stroke="black" points="1966.8,-216.7 1974.76,-209.71 1964.18,-210.2 1966.8,-216.7"/>
</g>
<!-- 19 -->
<g id="node20" class="node">
<title>19</title>
<polygon fill="none" stroke="black" points="1769,-83 1581,-83 1581,0 1769,0 1769,-83"/>
<text text-anchor="middle" x="1675" y="-67.8" font-family="Times,serif" font-size="14.00">node #19</text>
<text text-anchor="middle" x="1675" y="-52.8" font-family="Times,serif" font-size="14.00">gini = 0.0</text>
<text text-anchor="middle" x="1675" y="-37.8" font-family="Times,serif" font-size="14.00">samples = 14</text>
<text text-anchor="middle" x="1675" y="-22.8" font-family="Times,serif" font-size="14.00">value = [21.173, 0.0]</text>
<text text-anchor="middle" x="1675" y="-7.8" font-family="Times,serif" font-size="14.00">class = Non&#45;obstructive</text>
</g>
<!-- 18&#45;&gt;19 -->
<g id="edge19" class="edge">
<title>18&#45;&gt;19</title>
<path fill="none" stroke="black" d="M1729.59,-118.87C1723.15,-109.85 1716.41,-100.43 1709.95,-91.39"/>
<polygon fill="black" stroke="black" points="1712.78,-89.33 1704.12,-83.23 1707.09,-93.4 1712.78,-89.33"/>
</g>
<!-- 20 -->
<g id="node21" class="node">
<title>20</title>
<polygon fill="none" stroke="black" points="1981,-83 1787,-83 1787,0 1981,0 1981,-83"/>
<text text-anchor="middle" x="1884" y="-67.8" font-family="Times,serif" font-size="14.00">node #20</text>
<text text-anchor="middle" x="1884" y="-52.8" font-family="Times,serif" font-size="14.00">gini = 0.361</text>
<text text-anchor="middle" x="1884" y="-37.8" font-family="Times,serif" font-size="14.00">samples = 29</text>
<text text-anchor="middle" x="1884" y="-22.8" font-family="Times,serif" font-size="14.00">value = [33.685, 10.406]</text>
<text text-anchor="middle" x="1884" y="-7.8" font-family="Times,serif" font-size="14.00">class = Non&#45;obstructive</text>
</g>
<!-- 18&#45;&gt;20 -->
<g id="edge20" class="edge">
<title>18&#45;&gt;20</title>
<path fill="none" stroke="black" d="M1810.4,-118.87C1819.35,-109.58 1828.72,-99.85 1837.67,-90.56"/>
<polygon fill="black" stroke="black" points="1840.32,-92.86 1844.74,-83.23 1835.28,-88 1840.32,-92.86"/>
</g>
<!-- 22 -->
<g id="node23" class="node">
<title>22</title>
<polygon fill="none" stroke="black" points="2157,-83 1999,-83 1999,0 2157,0 2157,-83"/>
<text text-anchor="middle" x="2078" y="-67.8" font-family="Times,serif" font-size="14.00">node #22</text>
<text text-anchor="middle" x="2078" y="-52.8" font-family="Times,serif" font-size="14.00">gini = 0.0</text>
<text text-anchor="middle" x="2078" y="-37.8" font-family="Times,serif" font-size="14.00">samples = 5</text>
<text text-anchor="middle" x="2078" y="-22.8" font-family="Times,serif" font-size="14.00">value = [0.0, 8.325]</text>
<text text-anchor="middle" x="2078" y="-7.8" font-family="Times,serif" font-size="14.00">class = Obstructive</text>
</g>
<!-- 21&#45;&gt;22 -->
<g id="edge22" class="edge">
<title>21&#45;&gt;22</title>
<path fill="none" stroke="black" d="M2078,-118.87C2078,-110.5 2078,-101.77 2078,-93.33"/>
<polygon fill="black" stroke="black" points="2081.5,-93.23 2078,-83.23 2074.5,-93.23 2081.5,-93.23"/>
</g>
<!-- 23 -->
<g id="node24" class="node">
<title>23</title>
<polygon fill="none" stroke="black" points="2363,-83 2175,-83 2175,0 2363,0 2363,-83"/>
<text text-anchor="middle" x="2269" y="-67.8" font-family="Times,serif" font-size="14.00">node #23</text>
<text text-anchor="middle" x="2269" y="-52.8" font-family="Times,serif" font-size="14.00">gini = 0.0</text>
<text text-anchor="middle" x="2269" y="-37.8" font-family="Times,serif" font-size="14.00">samples = 2</text>
<text text-anchor="middle" x="2269" y="-22.8" font-family="Times,serif" font-size="14.00">value = [3.85, 0.0]</text>
<text text-anchor="middle" x="2269" y="-7.8" font-family="Times,serif" font-size="14.00">class = Non&#45;obstructive</text>
</g>
<!-- 21&#45;&gt;23 -->
<g id="edge23" class="edge">
<title>21&#45;&gt;23</title>
<path fill="none" stroke="black" d="M2151.85,-118.87C2167.03,-108.97 2182.98,-98.57 2198.05,-88.74"/>
<polygon fill="black" stroke="black" points="2200.35,-91.43 2206.82,-83.03 2196.53,-85.56 2200.35,-91.43"/>
</g>
</g>
</svg>
