<?xml version="1.0" encoding="UTF-8" standalone="no"?>
<!DOCTYPE svg PUBLIC "-//W3C//DTD SVG 1.1//EN"
 "http://www.w3.org/Graphics/SVG/1.1/DTD/svg11.dtd">
<!-- Generated by graphviz version 2.43.0 (0)
 -->
<!-- Title: Tree Pages: 1 -->
<svg width="2422pt" height="627pt"
 viewBox="0.00 0.00 2422.00 627.00" xmlns="http://www.w3.org/2000/svg" xmlns:xlink="http://www.w3.org/1999/xlink">
<g id="graph0" class="graph" transform="scale(1 1) rotate(0) translate(4 623)">
<title>Tree</title>
<polygon fill="white" stroke="transparent" points="-4,4 -4,-623 2418,-623 2418,4 -4,4"/>
<!-- 0 -->
<g id="node1" class="node">
<title>0</title>
<polygon fill="none" stroke="black" points="1271.5,-619 1080.5,-619 1080.5,-521 1271.5,-521 1271.5,-619"/>
<text text-anchor="middle" x="1176" y="-603.8" font-family="Times,serif" font-size="14.00">node #0</text>
<text text-anchor="middle" x="1176" y="-588.8" font-family="Times,serif" font-size="14.00">FEFPrePercent &lt;= 57.5</text>
<text text-anchor="middle" x="1176" y="-573.8" font-family="Times,serif" font-size="14.00">gini = 0.5</text>
<text text-anchor="middle" x="1176" y="-558.8" font-family="Times,serif" font-size="14.00">samples = 209</text>
<text text-anchor="middle" x="1176" y="-543.8" font-family="Times,serif" font-size="14.00">value = [166.5, 166.5]</text>
<text text-anchor="middle" x="1176" y="-528.8" font-family="Times,serif" font-size="14.00">class = Non&#45;obstructive</text>
</g>
<!-- 1 -->
<g id="node2" class="node">
<title>1</title>
<polygon fill="none" stroke="black" points="871,-485 677,-485 677,-387 871,-387 871,-485"/>
<text text-anchor="middle" x="774" y="-469.8" font-family="Times,serif" font-size="14.00">node #1</text>
<text text-anchor="middle" x="774" y="-454.8" font-family="Times,serif" font-size="14.00">FEFPostVal &lt;= 0.565</text>
<text text-anchor="middle" x="774" y="-439.8" font-family="Times,serif" font-size="14.00">gini = 0.365</text>
<text text-anchor="middle" x="774" y="-424.8" font-family="Times,serif" font-size="14.00">samples = 118</text>
<text text-anchor="middle" x="774" y="-409.8" font-family="Times,serif" font-size="14.00">value = [47.29, 149.241]</text>
<text text-anchor="middle" x="774" y="-394.8" font-family="Times,serif" font-size="14.00">class = Obstructive</text>
</g>
<!-- 0&#45;&gt;1 -->
<g id="edge1" class="edge">
<title>0&#45;&gt;1</title>
<path fill="none" stroke="black" d="M1080.48,-537.63C1020.52,-517.95 943.1,-492.53 881.07,-472.16"/>
<polygon fill="black" stroke="black" points="881.85,-468.73 871.26,-468.94 879.67,-475.38 881.85,-468.73"/>
<text text-anchor="middle" x="882.54" y="-487.55" font-family="Times,serif" font-size="14.00">True</text>
</g>
<!-- 14 -->
<g id="node15" class="node">
<title>14</title>
<polygon fill="none" stroke="black" points="1697.5,-485 1500.5,-485 1500.5,-387 1697.5,-387 1697.5,-485"/>
<text text-anchor="middle" x="1599" y="-469.8" font-family="Times,serif" font-size="14.00">node #14</text>
<text text-anchor="middle" x="1599" y="-454.8" font-family="Times,serif" font-size="14.00">FVCPostPercent &lt;= 80.5</text>
<text text-anchor="middle" x="1599" y="-439.8" font-family="Times,serif" font-size="14.00">gini = 0.221</text>
<text text-anchor="middle" x="1599" y="-424.8" font-family="Times,serif" font-size="14.00">samples = 91</text>
<text text-anchor="middle" x="1599" y="-409.8" font-family="Times,serif" font-size="14.00">value = [119.21, 17.259]</text>
<text text-anchor="middle" x="1599" y="-394.8" font-family="Times,serif" font-size="14.00">class = Non&#45;obstructive</text>
</g>
<!-- 0&#45;&gt;14 -->
<g id="edge14" class="edge">
<title>0&#45;&gt;14</title>
<path fill="none" stroke="black" d="M1271.72,-539.13C1336.76,-518.83 1422.92,-491.95 1490.51,-470.86"/>
<polygon fill="black" stroke="black" points="1491.83,-474.11 1500.34,-467.79 1489.75,-467.43 1491.83,-474.11"/>
<text text-anchor="middle" x="1488.73" y="-486.23" font-family="Times,serif" font-size="14.00">False</text>
</g>
<!-- 2 -->
<g id="node3" class="node">
<title>2</title>
<polygon fill="none" stroke="black" points="561.5,-351 376.5,-351 376.5,-253 561.5,-253 561.5,-351"/>
<text text-anchor="middle" x="469" y="-335.8" font-family="Times,serif" font-size="14.00">node #2</text>
<text text-anchor="middle" x="469" y="-320.8" font-family="Times,serif" font-size="14.00">FVCPostVal &lt;= 1.395</text>
<text text-anchor="middle" x="469" y="-305.8" font-family="Times,serif" font-size="14.00">gini = 0.031</text>
<text text-anchor="middle" x="469" y="-290.8" font-family="Times,serif" font-size="14.00">samples = 42</text>
<text text-anchor="middle" x="469" y="-275.8" font-family="Times,serif" font-size="14.00">value = [0.985, 60.915]</text>
<text text-anchor="middle" x="469" y="-260.8" font-family="Times,serif" font-size="14.00">class = Obstructive</text>
</g>
<!-- 1&#45;&gt;2 -->
<g id="edge2" class="edge">
<title>1&#45;&gt;2</title>
<path fill="none" stroke="black" d="M676.66,-392.87C642.95,-378.29 605.1,-361.9 571.03,-347.16"/>
<polygon fill="black" stroke="black" points="572.09,-343.8 561.52,-343.04 569.31,-350.23 572.09,-343.8"/>
</g>
<!-- 7 -->
<g id="node8" class="node">
<title>7</title>
<polygon fill="none" stroke="black" points="872.5,-351 675.5,-351 675.5,-253 872.5,-253 872.5,-351"/>
<text text-anchor="middle" x="774" y="-335.8" font-family="Times,serif" font-size="14.00">node #7</text>
<text text-anchor="middle" x="774" y="-320.8" font-family="Times,serif" font-size="14.00">FVCPostPercent &lt;= 60.5</text>
<text text-anchor="middle" x="774" y="-305.8" font-family="Times,serif" font-size="14.00">gini = 0.451</text>
<text text-anchor="middle" x="774" y="-290.8" font-family="Times,serif" font-size="14.00">samples = 76</text>
<text text-anchor="middle" x="774" y="-275.8" font-family="Times,serif" font-size="14.00">value = [46.305, 88.326]</text>
<text text-anchor="middle" x="774" y="-260.8" font-family="Times,serif" font-size="14.00">class = Obstructive</text>
</g>
<!-- 1&#45;&gt;7 -->
<g id="edge7" class="edge">
<title>1&#45;&gt;7</title>
<path fill="none" stroke="black" d="M774,-386.97C774,-378.69 774,-370 774,-361.48"/>
<polygon fill="black" stroke="black" points="777.5,-361.21 774,-351.21 770.5,-361.21 777.5,-361.21"/>
</g>
<!-- 3 -->
<g id="node4" class="node">
<title>3</title>
<polygon fill="none" stroke="black" points="358,-217 182,-217 182,-119 358,-119 358,-217"/>
<text text-anchor="middle" x="270" y="-201.8" font-family="Times,serif" font-size="14.00">node #3</text>
<text text-anchor="middle" x="270" y="-186.8" font-family="Times,serif" font-size="14.00">FVCPostVal &lt;= 1.365</text>
<text text-anchor="middle" x="270" y="-171.8" font-family="Times,serif" font-size="14.00">gini = 0.214</text>
<text text-anchor="middle" x="270" y="-156.8" font-family="Times,serif" font-size="14.00">samples = 6</text>
<text text-anchor="middle" x="270" y="-141.8" font-family="Times,serif" font-size="14.00">value = [0.985, 7.107]</text>
<text text-anchor="middle" x="270" y="-126.8" font-family="Times,serif" font-size="14.00">class = Obstructive</text>
</g>
<!-- 2&#45;&gt;3 -->
<g id="edge3" class="edge">
<title>2&#45;&gt;3</title>
<path fill="none" stroke="black" d="M396.59,-252.97C381.92,-243.24 366.39,-232.93 351.42,-223.01"/>
<polygon fill="black" stroke="black" points="352.95,-219.82 342.69,-217.21 349.08,-225.66 352.95,-219.82"/>
</g>
<!-- 6 -->
<g id="node7" class="node">
<title>6</title>
<polygon fill="none" stroke="black" points="552.5,-209.5 385.5,-209.5 385.5,-126.5 552.5,-126.5 552.5,-209.5"/>
<text text-anchor="middle" x="469" y="-194.3" font-family="Times,serif" font-size="14.00">node #6</text>
<text text-anchor="middle" x="469" y="-179.3" font-family="Times,serif" font-size="14.00">gini = &#45;0.0</text>
<text text-anchor="middle" x="469" y="-164.3" font-family="Times,serif" font-size="14.00">samples = 36</text>
<text text-anchor="middle" x="469" y="-149.3" font-family="Times,serif" font-size="14.00">value = [0.0, 53.808]</text>
<text text-anchor="middle" x="469" y="-134.3" font-family="Times,serif" font-size="14.00">class = Obstructive</text>
</g>
<!-- 2&#45;&gt;6 -->
<g id="edge6" class="edge">
<title>2&#45;&gt;6</title>
<path fill="none" stroke="black" d="M469,-252.97C469,-242.25 469,-230.84 469,-219.99"/>
<polygon fill="black" stroke="black" points="472.5,-219.82 469,-209.82 465.5,-219.82 472.5,-219.82"/>
</g>
<!-- 4 -->
<g id="node5" class="node">
<title>4</title>
<polygon fill="none" stroke="black" points="158,-83 0,-83 0,0 158,0 158,-83"/>
<text text-anchor="middle" x="79" y="-67.8" font-family="Times,serif" font-size="14.00">node #4</text>
<text text-anchor="middle" x="79" y="-52.8" font-family="Times,serif" font-size="14.00">gini = 0.0</text>
<text text-anchor="middle" x="79" y="-37.8" font-family="Times,serif" font-size="14.00">samples = 5</text>
<text text-anchor="middle" x="79" y="-22.8" font-family="Times,serif" font-size="14.00">value = [0.0, 7.107]</text>
<text text-anchor="middle" x="79" y="-7.8" font-family="Times,serif" font-size="14.00">class = Obstructive</text>
</g>
<!-- 3&#45;&gt;4 -->
<g id="edge4" class="edge">
<title>3&#45;&gt;4</title>
<path fill="none" stroke="black" d="M196.15,-118.87C180.97,-108.97 165.02,-98.57 149.95,-88.74"/>
<polygon fill="black" stroke="black" points="151.47,-85.56 141.18,-83.03 147.65,-91.43 151.47,-85.56"/>
</g>
<!-- 5 -->
<g id="node6" class="node">
<title>5</title>
<polygon fill="none" stroke="black" points="364,-83 176,-83 176,0 364,0 364,-83"/>
<text text-anchor="middle" x="270" y="-67.8" font-family="Times,serif" font-size="14.00">node #5</text>
<text text-anchor="middle" x="270" y="-52.8" font-family="Times,serif" font-size="14.00">gini = 0.0</text>
<text text-anchor="middle" x="270" y="-37.8" font-family="Times,serif" font-size="14.00">samples = 1</text>
<text text-anchor="middle" x="270" y="-22.8" font-family="Times,serif" font-size="14.00">value = [0.985, 0.0]</text>
<text text-anchor="middle" x="270" y="-7.8" font-family="Times,serif" font-size="14.00">class = Non&#45;obstructive</text>
</g>
<!-- 3&#45;&gt;5 -->
<g id="edge5" class="edge">
<title>3&#45;&gt;5</title>
<path fill="none" stroke="black" d="M270,-118.87C270,-110.5 270,-101.77 270,-93.33"/>
<polygon fill="black" stroke="black" points="273.5,-93.23 270,-83.23 266.5,-93.23 273.5,-93.23"/>
</g>
<!-- 8 -->
<g id="node9" class="node">
<title>8</title>
<polygon fill="none" stroke="black" points="769,-217 581,-217 581,-119 769,-119 769,-217"/>
<text text-anchor="middle" x="675" y="-201.8" font-family="Times,serif" font-size="14.00">node #8</text>
<text text-anchor="middle" x="675" y="-186.8" font-family="Times,serif" font-size="14.00">FVCPostVal &lt;= 1.515</text>
<text text-anchor="middle" x="675" y="-171.8" font-family="Times,serif" font-size="14.00">gini = 0.348</text>
<text text-anchor="middle" x="675" y="-156.8" font-family="Times,serif" font-size="14.00">samples = 20</text>
<text text-anchor="middle" x="675" y="-141.8" font-family="Times,serif" font-size="14.00">value = [24.63, 7.107]</text>
<text text-anchor="middle" x="675" y="-126.8" font-family="Times,serif" font-size="14.00">class = Non&#45;obstructive</text>
</g>
<!-- 7&#45;&gt;8 -->
<g id="edge8" class="edge">
<title>7&#45;&gt;8</title>
<path fill="none" stroke="black" d="M737.98,-252.97C731.22,-243.96 724.1,-234.47 717.18,-225.24"/>
<polygon fill="black" stroke="black" points="719.96,-223.11 711.16,-217.21 714.36,-227.31 719.96,-223.11"/>
</g>
<!-- 11 -->
<g id="node12" class="node">
<title>11</title>
<polygon fill="none" stroke="black" points="972.5,-217 787.5,-217 787.5,-119 972.5,-119 972.5,-217"/>
<text text-anchor="middle" x="880" y="-201.8" font-family="Times,serif" font-size="14.00">node #11</text>
<text text-anchor="middle" x="880" y="-186.8" font-family="Times,serif" font-size="14.00">FVCPostVal &lt;= 2.15</text>
<text text-anchor="middle" x="880" y="-171.8" font-family="Times,serif" font-size="14.00">gini = 0.333</text>
<text text-anchor="middle" x="880" y="-156.8" font-family="Times,serif" font-size="14.00">samples = 56</text>
<text text-anchor="middle" x="880" y="-141.8" font-family="Times,serif" font-size="14.00">value = [21.675, 81.22]</text>
<text text-anchor="middle" x="880" y="-126.8" font-family="Times,serif" font-size="14.00">class = Obstructive</text>
</g>
<!-- 7&#45;&gt;11 -->
<g id="edge11" class="edge">
<title>7&#45;&gt;11</title>
<path fill="none" stroke="black" d="M812.57,-252.97C819.8,-243.96 827.42,-234.47 834.84,-225.24"/>
<polygon fill="black" stroke="black" points="837.75,-227.2 841.28,-217.21 832.29,-222.82 837.75,-227.2"/>
</g>
<!-- 9 -->
<g id="node10" class="node">
<title>9</title>
<polygon fill="none" stroke="black" points="570,-83 382,-83 382,0 570,0 570,-83"/>
<text text-anchor="middle" x="476" y="-67.8" font-family="Times,serif" font-size="14.00">node #9</text>
<text text-anchor="middle" x="476" y="-52.8" font-family="Times,serif" font-size="14.00">gini = 0.098</text>
<text text-anchor="middle" x="476" y="-37.8" font-family="Times,serif" font-size="14.00">samples = 11</text>
<text text-anchor="middle" x="476" y="-22.8" font-family="Times,serif" font-size="14.00">value = [18.719, 1.015]</text>
<text text-anchor="middle" x="476" y="-7.8" font-family="Times,serif" font-size="14.00">class = Non&#45;obstructive</text>
</g>
<!-- 8&#45;&gt;9 -->
<g id="edge9" class="edge">
<title>8&#45;&gt;9</title>
<path fill="none" stroke="black" d="M598.06,-118.87C582.1,-108.88 565.31,-98.38 549.48,-88.47"/>
<polygon fill="black" stroke="black" points="551.12,-85.37 540.79,-83.03 547.41,-91.3 551.12,-85.37"/>
</g>
<!-- 10 -->
<g id="node11" class="node">
<title>10</title>
<polygon fill="none" stroke="black" points="764,-83 588,-83 588,0 764,0 764,-83"/>
<text text-anchor="middle" x="676" y="-67.8" font-family="Times,serif" font-size="14.00">node #10</text>
<text text-anchor="middle" x="676" y="-52.8" font-family="Times,serif" font-size="14.00">gini = 0.5</text>
<text text-anchor="middle" x="676" y="-37.8" font-family="Times,serif" font-size="14.00">samples = 9</text>
<text text-anchor="middle" x="676" y="-22.8" font-family="Times,serif" font-size="14.00">value = [5.911, 6.091]</text>
<text text-anchor="middle" x="676" y="-7.8" font-family="Times,serif" font-size="14.00">class = Obstructive</text>
</g>
<!-- 8&#45;&gt;10 -->
<g id="edge10" class="edge">
<title>8&#45;&gt;10</title>
<path fill="none" stroke="black" d="M675.39,-118.87C675.45,-110.5 675.52,-101.77 675.59,-93.33"/>
<polygon fill="black" stroke="black" points="679.09,-93.26 675.67,-83.23 672.09,-93.2 679.09,-93.26"/>
</g>
<!-- 12 -->
<g id="node13" class="node">
<title>12</title>
<polygon fill="none" stroke="black" points="976,-83 782,-83 782,0 976,0 976,-83"/>
<text text-anchor="middle" x="879" y="-67.8" font-family="Times,serif" font-size="14.00">node #12</text>
<text text-anchor="middle" x="879" y="-52.8" font-family="Times,serif" font-size="14.00">gini = 0.499</text>
<text text-anchor="middle" x="879" y="-37.8" font-family="Times,serif" font-size="14.00">samples = 14</text>
<text text-anchor="middle" x="879" y="-22.8" font-family="Times,serif" font-size="14.00">value = [12.808, 14.213]</text>
<text text-anchor="middle" x="879" y="-7.8" font-family="Times,serif" font-size="14.00">class = Obstructive</text>
</g>
<!-- 11&#45;&gt;12 -->
<g id="edge12" class="edge">
<title>11&#45;&gt;12</title>
<path fill="none" stroke="black" d="M879.61,-118.87C879.55,-110.5 879.48,-101.77 879.41,-93.33"/>
<polygon fill="black" stroke="black" points="882.91,-93.2 879.33,-83.23 875.91,-93.26 882.91,-93.2"/>
</g>
<!-- 13 -->
<g id="node14" class="node">
<title>13</title>
<polygon fill="none" stroke="black" points="1178.5,-83 993.5,-83 993.5,0 1178.5,0 1178.5,-83"/>
<text text-anchor="middle" x="1086" y="-67.8" font-family="Times,serif" font-size="14.00">node #13</text>
<text text-anchor="middle" x="1086" y="-52.8" font-family="Times,serif" font-size="14.00">gini = 0.206</text>
<text text-anchor="middle" x="1086" y="-37.8" font-family="Times,serif" font-size="14.00">samples = 42</text>
<text text-anchor="middle" x="1086" y="-22.8" font-family="Times,serif" font-size="14.00">value = [8.867, 67.006]</text>
<text text-anchor="middle" x="1086" y="-7.8" font-family="Times,serif" font-size="14.00">class = Obstructive</text>
</g>
<!-- 11&#45;&gt;13 -->
<g id="edge13" class="edge">
<title>11&#45;&gt;13</title>
<path fill="none" stroke="black" d="M959.64,-118.87C976.17,-108.88 993.54,-98.38 1009.94,-88.47"/>
<polygon fill="black" stroke="black" points="1012.19,-91.2 1018.93,-83.03 1008.57,-85.21 1012.19,-91.2"/>
</g>
<!-- 15 -->
<g id="node16" class="node">
<title>15</title>
<polygon fill="none" stroke="black" points="1696,-351 1502,-351 1502,-253 1696,-253 1696,-351"/>
<text text-anchor="middle" x="1599" y="-335.8" font-family="Times,serif" font-size="14.00">node #15</text>
<text text-anchor="middle" x="1599" y="-320.8" font-family="Times,serif" font-size="14.00">FVCPrePercent &lt;= 70.5</text>
<text text-anchor="middle" x="1599" y="-305.8" font-family="Times,serif" font-size="14.00">gini = 0.115</text>
<text text-anchor="middle" x="1599" y="-290.8" font-family="Times,serif" font-size="14.00">samples = 75</text>
<text text-anchor="middle" x="1599" y="-275.8" font-family="Times,serif" font-size="14.00">value = [109.358, 7.107]</text>
<text text-anchor="middle" x="1599" y="-260.8" font-family="Times,serif" font-size="14.00">class = Non&#45;obstructive</text>
</g>
<!-- 14&#45;&gt;15 -->
<g id="edge15" class="edge">
<title>14&#45;&gt;15</title>
<path fill="none" stroke="black" d="M1599,-386.97C1599,-378.69 1599,-370 1599,-361.48"/>
<polygon fill="black" stroke="black" points="1602.5,-361.21 1599,-351.21 1595.5,-361.21 1602.5,-361.21"/>
</g>
<!-- 22 -->
<g id="node23" class="node">
<title>22</title>
<polygon fill="none" stroke="black" points="2207.5,-351 2022.5,-351 2022.5,-253 2207.5,-253 2207.5,-351"/>
<text text-anchor="middle" x="2115" y="-335.8" font-family="Times,serif" font-size="14.00">node #22</text>
<text text-anchor="middle" x="2115" y="-320.8" font-family="Times,serif" font-size="14.00">FEFPreVal &lt;= 2.875</text>
<text text-anchor="middle" x="2115" y="-305.8" font-family="Times,serif" font-size="14.00">gini = 0.5</text>
<text text-anchor="middle" x="2115" y="-290.8" font-family="Times,serif" font-size="14.00">samples = 16</text>
<text text-anchor="middle" x="2115" y="-275.8" font-family="Times,serif" font-size="14.00">value = [9.852, 10.152]</text>
<text text-anchor="middle" x="2115" y="-260.8" font-family="Times,serif" font-size="14.00">class = Obstructive</text>
</g>
<!-- 14&#45;&gt;22 -->
<g id="edge22" class="edge">
<title>14&#45;&gt;22</title>
<path fill="none" stroke="black" d="M1697.57,-409.78C1787.89,-386.68 1921.07,-352.61 2012.58,-329.2"/>
<polygon fill="black" stroke="black" points="2013.59,-332.55 2022.41,-326.68 2011.86,-325.77 2013.59,-332.55"/>
</g>
<!-- 16 -->
<g id="node17" class="node">
<title>16</title>
<polygon fill="none" stroke="black" points="1590.5,-217 1399.5,-217 1399.5,-119 1590.5,-119 1590.5,-217"/>
<text text-anchor="middle" x="1495" y="-201.8" font-family="Times,serif" font-size="14.00">node #16</text>
<text text-anchor="middle" x="1495" y="-186.8" font-family="Times,serif" font-size="14.00">FEFPrePercent &lt;= 75.5</text>
<text text-anchor="middle" x="1495" y="-171.8" font-family="Times,serif" font-size="14.00">gini = 0.043</text>
<text text-anchor="middle" x="1495" y="-156.8" font-family="Times,serif" font-size="14.00">samples = 60</text>
<text text-anchor="middle" x="1495" y="-141.8" font-family="Times,serif" font-size="14.00">value = [90.639, 2.03]</text>
<text text-anchor="middle" x="1495" y="-126.8" font-family="Times,serif" font-size="14.00">class = Non&#45;obstructive</text>
</g>
<!-- 15&#45;&gt;16 -->
<g id="edge16" class="edge">
<title>15&#45;&gt;16</title>
<path fill="none" stroke="black" d="M1561.16,-252.97C1554.06,-243.96 1546.58,-234.47 1539.31,-225.24"/>
<polygon fill="black" stroke="black" points="1541.92,-222.9 1532.99,-217.21 1536.43,-227.23 1541.92,-222.9"/>
</g>
<!-- 19 -->
<g id="node20" class="node">
<title>19</title>
<polygon fill="none" stroke="black" points="1799.5,-217 1608.5,-217 1608.5,-119 1799.5,-119 1799.5,-217"/>
<text text-anchor="middle" x="1704" y="-201.8" font-family="Times,serif" font-size="14.00">node #19</text>
<text text-anchor="middle" x="1704" y="-186.8" font-family="Times,serif" font-size="14.00">FVCPrePercent &lt;= 71.5</text>
<text text-anchor="middle" x="1704" y="-171.8" font-family="Times,serif" font-size="14.00">gini = 0.336</text>
<text text-anchor="middle" x="1704" y="-156.8" font-family="Times,serif" font-size="14.00">samples = 15</text>
<text text-anchor="middle" x="1704" y="-141.8" font-family="Times,serif" font-size="14.00">value = [18.719, 5.076]</text>
<text text-anchor="middle" x="1704" y="-126.8" font-family="Times,serif" font-size="14.00">class = Non&#45;obstructive</text>
</g>
<!-- 15&#45;&gt;19 -->
<g id="edge19" class="edge">
<title>15&#45;&gt;19</title>
<path fill="none" stroke="black" d="M1637.2,-252.97C1644.37,-243.96 1651.92,-234.47 1659.26,-225.24"/>
<polygon fill="black" stroke="black" points="1662.16,-227.22 1665.65,-217.21 1656.68,-222.86 1662.16,-227.22"/>
</g>
<!-- 17 -->
<g id="node18" class="node">
<title>17</title>
<polygon fill="none" stroke="black" points="1385,-83 1197,-83 1197,0 1385,0 1385,-83"/>
<text text-anchor="middle" x="1291" y="-67.8" font-family="Times,serif" font-size="14.00">node #17</text>
<text text-anchor="middle" x="1291" y="-52.8" font-family="Times,serif" font-size="14.00">gini = 0.124</text>
<text text-anchor="middle" x="1291" y="-37.8" font-family="Times,serif" font-size="14.00">samples = 17</text>
<text text-anchor="middle" x="1291" y="-22.8" font-family="Times,serif" font-size="14.00">value = [28.571, 2.03]</text>
<text text-anchor="middle" x="1291" y="-7.8" font-family="Times,serif" font-size="14.00">class = Non&#45;obstructive</text>
</g>
<!-- 16&#45;&gt;17 -->
<g id="edge17" class="edge">
<title>16&#45;&gt;17</title>
<path fill="none" stroke="black" d="M1416.13,-118.87C1399.76,-108.88 1382.56,-98.38 1366.32,-88.47"/>
<polygon fill="black" stroke="black" points="1367.77,-85.25 1357.41,-83.03 1364.13,-91.23 1367.77,-85.25"/>
</g>
<!-- 18 -->
<g id="node19" class="node">
<title>18</title>
<polygon fill="none" stroke="black" points="1591,-83 1403,-83 1403,0 1591,0 1591,-83"/>
<text text-anchor="middle" x="1497" y="-67.8" font-family="Times,serif" font-size="14.00">node #18</text>
<text text-anchor="middle" x="1497" y="-52.8" font-family="Times,serif" font-size="14.00">gini = 0.0</text>
<text text-anchor="middle" x="1497" y="-37.8" font-family="Times,serif" font-size="14.00">samples = 43</text>
<text text-anchor="middle" x="1497" y="-22.8" font-family="Times,serif" font-size="14.00">value = [62.068, 0.0]</text>
<text text-anchor="middle" x="1497" y="-7.8" font-family="Times,serif" font-size="14.00">class = Non&#45;obstructive</text>
</g>
<!-- 16&#45;&gt;18 -->
<g id="edge18" class="edge">
<title>16&#45;&gt;18</title>
<path fill="none" stroke="black" d="M1495.77,-118.87C1495.91,-110.5 1496.05,-101.77 1496.18,-93.33"/>
<polygon fill="black" stroke="black" points="1499.68,-93.29 1496.35,-83.23 1492.69,-93.17 1499.68,-93.29"/>
</g>
<!-- 20 -->
<g id="node21" class="node">
<title>20</title>
<polygon fill="none" stroke="black" points="1797,-83 1609,-83 1609,0 1797,0 1797,-83"/>
<text text-anchor="middle" x="1703" y="-67.8" font-family="Times,serif" font-size="14.00">node #20</text>
<text text-anchor="middle" x="1703" y="-52.8" font-family="Times,serif" font-size="14.00">gini = 0.495</text>
<text text-anchor="middle" x="1703" y="-37.8" font-family="Times,serif" font-size="14.00">samples = 5</text>
<text text-anchor="middle" x="1703" y="-22.8" font-family="Times,serif" font-size="14.00">value = [4.926, 4.061]</text>
<text text-anchor="middle" x="1703" y="-7.8" font-family="Times,serif" font-size="14.00">class = Non&#45;obstructive</text>
</g>
<!-- 19&#45;&gt;20 -->
<g id="edge20" class="edge">
<title>19&#45;&gt;20</title>
<path fill="none" stroke="black" d="M1703.61,-118.87C1703.55,-110.5 1703.48,-101.77 1703.41,-93.33"/>
<polygon fill="black" stroke="black" points="1706.91,-93.2 1703.33,-83.23 1699.91,-93.26 1706.91,-93.2"/>
</g>
<!-- 21 -->
<g id="node22" class="node">
<title>21</title>
<polygon fill="none" stroke="black" points="2003,-83 1815,-83 1815,0 2003,0 2003,-83"/>
<text text-anchor="middle" x="1909" y="-67.8" font-family="Times,serif" font-size="14.00">node #21</text>
<text text-anchor="middle" x="1909" y="-52.8" font-family="Times,serif" font-size="14.00">gini = 0.128</text>
<text text-anchor="middle" x="1909" y="-37.8" font-family="Times,serif" font-size="14.00">samples = 10</text>
<text text-anchor="middle" x="1909" y="-22.8" font-family="Times,serif" font-size="14.00">value = [13.793, 1.015]</text>
<text text-anchor="middle" x="1909" y="-7.8" font-family="Times,serif" font-size="14.00">class = Non&#45;obstructive</text>
</g>
<!-- 19&#45;&gt;21 -->
<g id="edge21" class="edge">
<title>19&#45;&gt;21</title>
<path fill="none" stroke="black" d="M1783.26,-118.87C1799.7,-108.88 1816.99,-98.38 1833.31,-88.47"/>
<polygon fill="black" stroke="black" points="1835.53,-91.21 1842.26,-83.03 1831.9,-85.23 1835.53,-91.21"/>
</g>
<!-- 23 -->
<g id="node24" class="node">
<title>23</title>
<polygon fill="none" stroke="black" points="2207.5,-217 2022.5,-217 2022.5,-119 2207.5,-119 2207.5,-217"/>
<text text-anchor="middle" x="2115" y="-201.8" font-family="Times,serif" font-size="14.00">node #23</text>
<text text-anchor="middle" x="2115" y="-186.8" font-family="Times,serif" font-size="14.00">FEFPreVal &lt;= 1.745</text>
<text text-anchor="middle" x="2115" y="-171.8" font-family="Times,serif" font-size="14.00">gini = 0.465</text>
<text text-anchor="middle" x="2115" y="-156.8" font-family="Times,serif" font-size="14.00">samples = 12</text>
<text text-anchor="middle" x="2115" y="-141.8" font-family="Times,serif" font-size="14.00">value = [5.911, 10.152]</text>
<text text-anchor="middle" x="2115" y="-126.8" font-family="Times,serif" font-size="14.00">class = Obstructive</text>
</g>
<!-- 22&#45;&gt;23 -->
<g id="edge23" class="edge">
<title>22&#45;&gt;23</title>
<path fill="none" stroke="black" d="M2115,-252.97C2115,-244.69 2115,-236 2115,-227.48"/>
<polygon fill="black" stroke="black" points="2118.5,-227.21 2115,-217.21 2111.5,-227.21 2118.5,-227.21"/>
</g>
<!-- 26 -->
<g id="node27" class="node">
<title>26</title>
<polygon fill="none" stroke="black" points="2414,-209.5 2226,-209.5 2226,-126.5 2414,-126.5 2414,-209.5"/>
<text text-anchor="middle" x="2320" y="-194.3" font-family="Times,serif" font-size="14.00">node #26</text>
<text text-anchor="middle" x="2320" y="-179.3" font-family="Times,serif" font-size="14.00">gini = &#45;0.0</text>
<text text-anchor="middle" x="2320" y="-164.3" font-family="Times,serif" font-size="14.00">samples = 4</text>
<text text-anchor="middle" x="2320" y="-149.3" font-family="Times,serif" font-size="14.00">value = [3.941, 0.0]</text>
<text text-anchor="middle" x="2320" y="-134.3" font-family="Times,serif" font-size="14.00">class = Non&#45;obstructive</text>
</g>
<!-- 22&#45;&gt;26 -->
<g id="edge26" class="edge">
<title>22&#45;&gt;26</title>
<path fill="none" stroke="black" d="M2189.59,-252.97C2208.75,-240.63 2229.32,-227.39 2248.33,-215.15"/>
<polygon fill="black" stroke="black" points="2250.43,-217.96 2256.94,-209.6 2246.64,-212.07 2250.43,-217.96"/>
</g>
<!-- 24 -->
<g id="node25" class="node">
<title>24</title>
<polygon fill="none" stroke="black" points="2209,-83 2021,-83 2021,0 2209,0 2209,-83"/>
<text text-anchor="middle" x="2115" y="-67.8" font-family="Times,serif" font-size="14.00">node #24</text>
<text text-anchor="middle" x="2115" y="-52.8" font-family="Times,serif" font-size="14.00">gini = 0.0</text>
<text text-anchor="middle" x="2115" y="-37.8" font-family="Times,serif" font-size="14.00">samples = 2</text>
<text text-anchor="middle" x="2115" y="-22.8" font-family="Times,serif" font-size="14.00">value = [2.956, 0.0]</text>
<text text-anchor="middle" x="2115" y="-7.8" font-family="Times,serif" font-size="14.00">class = Non&#45;obstructive</text>
</g>
<!-- 23&#45;&gt;24 -->
<g id="edge24" class="edge">
<title>23&#45;&gt;24</title>
<path fill="none" stroke="black" d="M2115,-118.87C2115,-110.5 2115,-101.77 2115,-93.33"/>
<polygon fill="black" stroke="black" points="2118.5,-93.23 2115,-83.23 2111.5,-93.23 2118.5,-93.23"/>
</g>
<!-- 25 -->
<g id="node26" class="node">
<title>25</title>
<polygon fill="none" stroke="black" points="2412.5,-83 2227.5,-83 2227.5,0 2412.5,0 2412.5,-83"/>
<text text-anchor="middle" x="2320" y="-67.8" font-family="Times,serif" font-size="14.00">node #25</text>
<text text-anchor="middle" x="2320" y="-52.8" font-family="Times,serif" font-size="14.00">gini = 0.349</text>
<text text-anchor="middle" x="2320" y="-37.8" font-family="Times,serif" font-size="14.00">samples = 10</text>
<text text-anchor="middle" x="2320" y="-22.8" font-family="Times,serif" font-size="14.00">value = [2.956, 10.152]</text>
<text text-anchor="middle" x="2320" y="-7.8" font-family="Times,serif" font-size="14.00">class = Obstructive</text>
</g>
<!-- 23&#45;&gt;25 -->
<g id="edge25" class="edge">
<title>23&#45;&gt;25</title>
<path fill="none" stroke="black" d="M2194.26,-118.87C2210.7,-108.88 2227.99,-98.38 2244.31,-88.47"/>
<polygon fill="black" stroke="black" points="2246.53,-91.21 2253.26,-83.03 2242.9,-85.23 2246.53,-91.21"/>
</g>
</g>
</svg>
