<?xml version="1.0" encoding="UTF-8" standalone="no"?>
<!DOCTYPE svg PUBLIC "-//W3C//DTD SVG 1.1//EN"
 "http://www.w3.org/Graphics/SVG/1.1/DTD/svg11.dtd">
<!-- Generated by graphviz version 2.43.0 (0)
 -->
<!-- Title: Tree Pages: 1 -->
<svg width="2399pt" height="627pt"
 viewBox="0.00 0.00 2399.00 627.00" xmlns="http://www.w3.org/2000/svg" xmlns:xlink="http://www.w3.org/1999/xlink">
<g id="graph0" class="graph" transform="scale(1 1) rotate(0) translate(4 623)">
<title>Tree</title>
<polygon fill="white" stroke="transparent" points="-4,4 -4,-623 2395,-623 2395,4 -4,4"/>
<!-- 0 -->
<g id="node1" class="node">
<title>0</title>
<polygon fill="none" stroke="black" points="1199.5,-619 1008.5,-619 1008.5,-521 1199.5,-521 1199.5,-619"/>
<text text-anchor="middle" x="1104" y="-603.8" font-family="Times,serif" font-size="14.00">node #0</text>
<text text-anchor="middle" x="1104" y="-588.8" font-family="Times,serif" font-size="14.00">FEFPrePercent &lt;= 56.5</text>
<text text-anchor="middle" x="1104" y="-573.8" font-family="Times,serif" font-size="14.00">gini = 0.5</text>
<text text-anchor="middle" x="1104" y="-558.8" font-family="Times,serif" font-size="14.00">samples = 210</text>
<text text-anchor="middle" x="1104" y="-543.8" font-family="Times,serif" font-size="14.00">value = [166.5, 166.5]</text>
<text text-anchor="middle" x="1104" y="-528.8" font-family="Times,serif" font-size="14.00">class = Non&#45;obstructive</text>
</g>
<!-- 1 -->
<g id="node2" class="node">
<title>1</title>
<polygon fill="none" stroke="black" points="911.5,-485 708.5,-485 708.5,-387 911.5,-387 911.5,-485"/>
<text text-anchor="middle" x="810" y="-469.8" font-family="Times,serif" font-size="14.00">node #1</text>
<text text-anchor="middle" x="810" y="-454.8" font-family="Times,serif" font-size="14.00">FEFPrePercent &lt;= 33.5</text>
<text text-anchor="middle" x="810" y="-439.8" font-family="Times,serif" font-size="14.00">gini = 0.314</text>
<text text-anchor="middle" x="810" y="-424.8" font-family="Times,serif" font-size="14.00">samples = 114</text>
<text text-anchor="middle" x="810" y="-409.8" font-family="Times,serif" font-size="14.00">value = [35.318, 145.688]</text>
<text text-anchor="middle" x="810" y="-394.8" font-family="Times,serif" font-size="14.00">class = Obstructive</text>
</g>
<!-- 0&#45;&gt;1 -->
<g id="edge1" class="edge">
<title>0&#45;&gt;1</title>
<path fill="none" stroke="black" d="M1008.14,-525.96C980.24,-513.44 949.54,-499.65 920.8,-486.75"/>
<polygon fill="black" stroke="black" points="922.1,-483.5 911.55,-482.59 919.24,-489.88 922.1,-483.5"/>
<text text-anchor="middle" x="920.43" y="-502.26" font-family="Times,serif" font-size="14.00">True</text>
</g>
<!-- 14 -->
<g id="node15" class="node">
<title>14</title>
<polygon fill="none" stroke="black" points="1544.5,-485 1341.5,-485 1341.5,-387 1544.5,-387 1544.5,-485"/>
<text text-anchor="middle" x="1443" y="-469.8" font-family="Times,serif" font-size="14.00">node #14</text>
<text text-anchor="middle" x="1443" y="-454.8" font-family="Times,serif" font-size="14.00">FVCPreVal &lt;= 2.225</text>
<text text-anchor="middle" x="1443" y="-439.8" font-family="Times,serif" font-size="14.00">gini = 0.236</text>
<text text-anchor="middle" x="1443" y="-424.8" font-family="Times,serif" font-size="14.00">samples = 96</text>
<text text-anchor="middle" x="1443" y="-409.8" font-family="Times,serif" font-size="14.00">value = [131.182, 20.812]</text>
<text text-anchor="middle" x="1443" y="-394.8" font-family="Times,serif" font-size="14.00">class = Non&#45;obstructive</text>
</g>
<!-- 0&#45;&gt;14 -->
<g id="edge14" class="edge">
<title>0&#45;&gt;14</title>
<path fill="none" stroke="black" d="M1199.78,-531.7C1240.83,-515.72 1289.04,-496.95 1331.67,-480.35"/>
<polygon fill="black" stroke="black" points="1333.19,-483.51 1341.24,-476.62 1330.65,-476.99 1333.19,-483.51"/>
<text text-anchor="middle" x="1331.18" y="-495.81" font-family="Times,serif" font-size="14.00">False</text>
</g>
<!-- 2 -->
<g id="node3" class="node">
<title>2</title>
<polygon fill="none" stroke="black" points="404.5,-351 207.5,-351 207.5,-253 404.5,-253 404.5,-351"/>
<text text-anchor="middle" x="306" y="-335.8" font-family="Times,serif" font-size="14.00">node #2</text>
<text text-anchor="middle" x="306" y="-320.8" font-family="Times,serif" font-size="14.00">FVCPostPercent &lt;= 35.0</text>
<text text-anchor="middle" x="306" y="-305.8" font-family="Times,serif" font-size="14.00">gini = 0.15</text>
<text text-anchor="middle" x="306" y="-290.8" font-family="Times,serif" font-size="14.00">samples = 68</text>
<text text-anchor="middle" x="306" y="-275.8" font-family="Times,serif" font-size="14.00">value = [9.082, 102.08]</text>
<text text-anchor="middle" x="306" y="-260.8" font-family="Times,serif" font-size="14.00">class = Obstructive</text>
</g>
<!-- 1&#45;&gt;2 -->
<g id="edge2" class="edge">
<title>1&#45;&gt;2</title>
<path fill="none" stroke="black" d="M708.31,-408.37C623.03,-386.03 501.57,-354.22 414.45,-331.4"/>
<polygon fill="black" stroke="black" points="415.09,-327.95 404.53,-328.81 413.32,-334.72 415.09,-327.95"/>
</g>
<!-- 7 -->
<g id="node8" class="node">
<title>7</title>
<polygon fill="none" stroke="black" points="913,-351 707,-351 707,-253 913,-253 913,-351"/>
<text text-anchor="middle" x="810" y="-335.8" font-family="Times,serif" font-size="14.00">node #7</text>
<text text-anchor="middle" x="810" y="-320.8" font-family="Times,serif" font-size="14.00">FEV1PostPercent &lt;= 68.5</text>
<text text-anchor="middle" x="810" y="-305.8" font-family="Times,serif" font-size="14.00">gini = 0.469</text>
<text text-anchor="middle" x="810" y="-290.8" font-family="Times,serif" font-size="14.00">samples = 46</text>
<text text-anchor="middle" x="810" y="-275.8" font-family="Times,serif" font-size="14.00">value = [26.236, 43.607]</text>
<text text-anchor="middle" x="810" y="-260.8" font-family="Times,serif" font-size="14.00">class = Obstructive</text>
</g>
<!-- 1&#45;&gt;7 -->
<g id="edge7" class="edge">
<title>1&#45;&gt;7</title>
<path fill="none" stroke="black" d="M810,-386.97C810,-378.69 810,-370 810,-361.48"/>
<polygon fill="black" stroke="black" points="813.5,-361.21 810,-351.21 806.5,-361.21 813.5,-361.21"/>
</g>
<!-- 3 -->
<g id="node4" class="node">
<title>3</title>
<polygon fill="none" stroke="black" points="188,-209.5 0,-209.5 0,-126.5 188,-126.5 188,-209.5"/>
<text text-anchor="middle" x="94" y="-194.3" font-family="Times,serif" font-size="14.00">node #3</text>
<text text-anchor="middle" x="94" y="-179.3" font-family="Times,serif" font-size="14.00">gini = 0.0</text>
<text text-anchor="middle" x="94" y="-164.3" font-family="Times,serif" font-size="14.00">samples = 1</text>
<text text-anchor="middle" x="94" y="-149.3" font-family="Times,serif" font-size="14.00">value = [2.018, 0.0]</text>
<text text-anchor="middle" x="94" y="-134.3" font-family="Times,serif" font-size="14.00">class = Non&#45;obstructive</text>
</g>
<!-- 2&#45;&gt;3 -->
<g id="edge3" class="edge">
<title>2&#45;&gt;3</title>
<path fill="none" stroke="black" d="M228.86,-252.97C208.96,-240.58 187.59,-227.27 167.85,-214.98"/>
<polygon fill="black" stroke="black" points="169.55,-211.92 159.21,-209.6 165.85,-217.86 169.55,-211.92"/>
</g>
<!-- 4 -->
<g id="node5" class="node">
<title>4</title>
<polygon fill="none" stroke="black" points="406,-217 206,-217 206,-119 406,-119 406,-217"/>
<text text-anchor="middle" x="306" y="-201.8" font-family="Times,serif" font-size="14.00">node #4</text>
<text text-anchor="middle" x="306" y="-186.8" font-family="Times,serif" font-size="14.00">FEV1PrePercent &lt;= 40.5</text>
<text text-anchor="middle" x="306" y="-171.8" font-family="Times,serif" font-size="14.00">gini = 0.121</text>
<text text-anchor="middle" x="306" y="-156.8" font-family="Times,serif" font-size="14.00">samples = 67</text>
<text text-anchor="middle" x="306" y="-141.8" font-family="Times,serif" font-size="14.00">value = [7.064, 102.08]</text>
<text text-anchor="middle" x="306" y="-126.8" font-family="Times,serif" font-size="14.00">class = Obstructive</text>
</g>
<!-- 2&#45;&gt;4 -->
<g id="edge4" class="edge">
<title>2&#45;&gt;4</title>
<path fill="none" stroke="black" d="M306,-252.97C306,-244.69 306,-236 306,-227.48"/>
<polygon fill="black" stroke="black" points="309.5,-227.21 306,-217.21 302.5,-227.21 309.5,-227.21"/>
</g>
<!-- 5 -->
<g id="node6" class="node">
<title>5</title>
<polygon fill="none" stroke="black" points="195.5,-83 28.5,-83 28.5,0 195.5,0 195.5,-83"/>
<text text-anchor="middle" x="112" y="-67.8" font-family="Times,serif" font-size="14.00">node #5</text>
<text text-anchor="middle" x="112" y="-52.8" font-family="Times,serif" font-size="14.00">gini = &#45;0.0</text>
<text text-anchor="middle" x="112" y="-37.8" font-family="Times,serif" font-size="14.00">samples = 44</text>
<text text-anchor="middle" x="112" y="-22.8" font-family="Times,serif" font-size="14.00">value = [0.0, 66.402]</text>
<text text-anchor="middle" x="112" y="-7.8" font-family="Times,serif" font-size="14.00">class = Obstructive</text>
</g>
<!-- 4&#45;&gt;5 -->
<g id="edge5" class="edge">
<title>4&#45;&gt;5</title>
<path fill="none" stroke="black" d="M230.99,-118.87C215.43,-108.88 199.07,-98.38 183.63,-88.47"/>
<polygon fill="black" stroke="black" points="185.47,-85.49 175.16,-83.03 181.68,-91.38 185.47,-85.49"/>
</g>
<!-- 6 -->
<g id="node7" class="node">
<title>6</title>
<polygon fill="none" stroke="black" points="398.5,-83 213.5,-83 213.5,0 398.5,0 398.5,-83"/>
<text text-anchor="middle" x="306" y="-67.8" font-family="Times,serif" font-size="14.00">node #6</text>
<text text-anchor="middle" x="306" y="-52.8" font-family="Times,serif" font-size="14.00">gini = 0.276</text>
<text text-anchor="middle" x="306" y="-37.8" font-family="Times,serif" font-size="14.00">samples = 23</text>
<text text-anchor="middle" x="306" y="-22.8" font-family="Times,serif" font-size="14.00">value = [7.064, 35.679]</text>
<text text-anchor="middle" x="306" y="-7.8" font-family="Times,serif" font-size="14.00">class = Obstructive</text>
</g>
<!-- 4&#45;&gt;6 -->
<g id="edge6" class="edge">
<title>4&#45;&gt;6</title>
<path fill="none" stroke="black" d="M306,-118.87C306,-110.5 306,-101.77 306,-93.33"/>
<polygon fill="black" stroke="black" points="309.5,-93.23 306,-83.23 302.5,-93.23 309.5,-93.23"/>
</g>
<!-- 8 -->
<g id="node9" class="node">
<title>8</title>
<polygon fill="none" stroke="black" points="801.5,-217 604.5,-217 604.5,-119 801.5,-119 801.5,-217"/>
<text text-anchor="middle" x="703" y="-201.8" font-family="Times,serif" font-size="14.00">node #8</text>
<text text-anchor="middle" x="703" y="-186.8" font-family="Times,serif" font-size="14.00">FEFPostPercent &lt;= 60.5</text>
<text text-anchor="middle" x="703" y="-171.8" font-family="Times,serif" font-size="14.00">gini = 0.486</text>
<text text-anchor="middle" x="703" y="-156.8" font-family="Times,serif" font-size="14.00">samples = 24</text>
<text text-anchor="middle" x="703" y="-141.8" font-family="Times,serif" font-size="14.00">value = [22.2, 15.857]</text>
<text text-anchor="middle" x="703" y="-126.8" font-family="Times,serif" font-size="14.00">class = Non&#45;obstructive</text>
</g>
<!-- 7&#45;&gt;8 -->
<g id="edge8" class="edge">
<title>7&#45;&gt;8</title>
<path fill="none" stroke="black" d="M771.07,-252.97C763.77,-243.96 756.07,-234.47 748.59,-225.24"/>
<polygon fill="black" stroke="black" points="751.1,-222.78 742.08,-217.21 745.66,-227.19 751.1,-222.78"/>
</g>
<!-- 11 -->
<g id="node12" class="node">
<title>11</title>
<polygon fill="none" stroke="black" points="1016.5,-217 819.5,-217 819.5,-119 1016.5,-119 1016.5,-217"/>
<text text-anchor="middle" x="918" y="-201.8" font-family="Times,serif" font-size="14.00">node #11</text>
<text text-anchor="middle" x="918" y="-186.8" font-family="Times,serif" font-size="14.00">FEFPostPercent &lt;= 55.0</text>
<text text-anchor="middle" x="918" y="-171.8" font-family="Times,serif" font-size="14.00">gini = 0.222</text>
<text text-anchor="middle" x="918" y="-156.8" font-family="Times,serif" font-size="14.00">samples = 22</text>
<text text-anchor="middle" x="918" y="-141.8" font-family="Times,serif" font-size="14.00">value = [4.036, 27.75]</text>
<text text-anchor="middle" x="918" y="-126.8" font-family="Times,serif" font-size="14.00">class = Obstructive</text>
</g>
<!-- 7&#45;&gt;11 -->
<g id="edge11" class="edge">
<title>7&#45;&gt;11</title>
<path fill="none" stroke="black" d="M849.3,-252.97C856.74,-243.87 864.59,-234.28 872.21,-224.96"/>
<polygon fill="black" stroke="black" points="874.93,-227.17 878.55,-217.21 869.51,-222.74 874.93,-227.17"/>
</g>
<!-- 9 -->
<g id="node10" class="node">
<title>9</title>
<polygon fill="none" stroke="black" points="605,-83 417,-83 417,0 605,0 605,-83"/>
<text text-anchor="middle" x="511" y="-67.8" font-family="Times,serif" font-size="14.00">node #9</text>
<text text-anchor="middle" x="511" y="-52.8" font-family="Times,serif" font-size="14.00">gini = 0.417</text>
<text text-anchor="middle" x="511" y="-37.8" font-family="Times,serif" font-size="14.00">samples = 19</text>
<text text-anchor="middle" x="511" y="-22.8" font-family="Times,serif" font-size="14.00">value = [21.191, 8.92]</text>
<text text-anchor="middle" x="511" y="-7.8" font-family="Times,serif" font-size="14.00">class = Non&#45;obstructive</text>
</g>
<!-- 8&#45;&gt;9 -->
<g id="edge9" class="edge">
<title>8&#45;&gt;9</title>
<path fill="none" stroke="black" d="M628.77,-118.87C613.51,-108.97 597.47,-98.57 582.32,-88.74"/>
<polygon fill="black" stroke="black" points="583.8,-85.54 573.51,-83.03 579.99,-91.41 583.8,-85.54"/>
</g>
<!-- 10 -->
<g id="node11" class="node">
<title>10</title>
<polygon fill="none" stroke="black" points="799,-83 623,-83 623,0 799,0 799,-83"/>
<text text-anchor="middle" x="711" y="-67.8" font-family="Times,serif" font-size="14.00">node #10</text>
<text text-anchor="middle" x="711" y="-52.8" font-family="Times,serif" font-size="14.00">gini = 0.222</text>
<text text-anchor="middle" x="711" y="-37.8" font-family="Times,serif" font-size="14.00">samples = 5</text>
<text text-anchor="middle" x="711" y="-22.8" font-family="Times,serif" font-size="14.00">value = [1.009, 6.938]</text>
<text text-anchor="middle" x="711" y="-7.8" font-family="Times,serif" font-size="14.00">class = Obstructive</text>
</g>
<!-- 8&#45;&gt;10 -->
<g id="edge10" class="edge">
<title>8&#45;&gt;10</title>
<path fill="none" stroke="black" d="M706.09,-118.87C706.63,-110.5 707.19,-101.77 707.73,-93.33"/>
<polygon fill="black" stroke="black" points="711.23,-93.43 708.38,-83.23 704.25,-92.99 711.23,-93.43"/>
</g>
<!-- 12 -->
<g id="node13" class="node">
<title>12</title>
<polygon fill="none" stroke="black" points="1001.5,-83 816.5,-83 816.5,0 1001.5,0 1001.5,-83"/>
<text text-anchor="middle" x="909" y="-67.8" font-family="Times,serif" font-size="14.00">node #12</text>
<text text-anchor="middle" x="909" y="-52.8" font-family="Times,serif" font-size="14.00">gini = 0.378</text>
<text text-anchor="middle" x="909" y="-37.8" font-family="Times,serif" font-size="14.00">samples = 12</text>
<text text-anchor="middle" x="909" y="-22.8" font-family="Times,serif" font-size="14.00">value = [4.036, 11.893]</text>
<text text-anchor="middle" x="909" y="-7.8" font-family="Times,serif" font-size="14.00">class = Obstructive</text>
</g>
<!-- 11&#45;&gt;12 -->
<g id="edge12" class="edge">
<title>11&#45;&gt;12</title>
<path fill="none" stroke="black" d="M914.52,-118.87C913.92,-110.5 913.28,-101.77 912.67,-93.33"/>
<polygon fill="black" stroke="black" points="916.16,-92.95 911.94,-83.23 909.17,-93.46 916.16,-92.95"/>
</g>
<!-- 13 -->
<g id="node14" class="node">
<title>13</title>
<polygon fill="none" stroke="black" points="1186.5,-83 1019.5,-83 1019.5,0 1186.5,0 1186.5,-83"/>
<text text-anchor="middle" x="1103" y="-67.8" font-family="Times,serif" font-size="14.00">node #13</text>
<text text-anchor="middle" x="1103" y="-52.8" font-family="Times,serif" font-size="14.00">gini = &#45;0.0</text>
<text text-anchor="middle" x="1103" y="-37.8" font-family="Times,serif" font-size="14.00">samples = 10</text>
<text text-anchor="middle" x="1103" y="-22.8" font-family="Times,serif" font-size="14.00">value = [0.0, 15.857]</text>
<text text-anchor="middle" x="1103" y="-7.8" font-family="Times,serif" font-size="14.00">class = Obstructive</text>
</g>
<!-- 11&#45;&gt;13 -->
<g id="edge13" class="edge">
<title>11&#45;&gt;13</title>
<path fill="none" stroke="black" d="M989.53,-118.87C1004.23,-108.97 1019.68,-98.57 1034.28,-88.74"/>
<polygon fill="black" stroke="black" points="1036.43,-91.52 1042.77,-83.03 1032.52,-85.71 1036.43,-91.52"/>
</g>
<!-- 15 -->
<g id="node16" class="node">
<title>15</title>
<polygon fill="none" stroke="black" points="1537,-351 1349,-351 1349,-253 1537,-253 1537,-351"/>
<text text-anchor="middle" x="1443" y="-335.8" font-family="Times,serif" font-size="14.00">node #15</text>
<text text-anchor="middle" x="1443" y="-320.8" font-family="Times,serif" font-size="14.00">FEFPostVal &lt;= 1.75</text>
<text text-anchor="middle" x="1443" y="-305.8" font-family="Times,serif" font-size="14.00">gini = 0.021</text>
<text text-anchor="middle" x="1443" y="-290.8" font-family="Times,serif" font-size="14.00">samples = 59</text>
<text text-anchor="middle" x="1443" y="-275.8" font-family="Times,serif" font-size="14.00">value = [92.836, 0.991]</text>
<text text-anchor="middle" x="1443" y="-260.8" font-family="Times,serif" font-size="14.00">class = Non&#45;obstructive</text>
</g>
<!-- 14&#45;&gt;15 -->
<g id="edge15" class="edge">
<title>14&#45;&gt;15</title>
<path fill="none" stroke="black" d="M1443,-386.97C1443,-378.69 1443,-370 1443,-361.48"/>
<polygon fill="black" stroke="black" points="1446.5,-361.21 1443,-351.21 1439.5,-361.21 1446.5,-361.21"/>
</g>
<!-- 20 -->
<g id="node21" class="node">
<title>20</title>
<polygon fill="none" stroke="black" points="1936,-351 1742,-351 1742,-253 1936,-253 1936,-351"/>
<text text-anchor="middle" x="1839" y="-335.8" font-family="Times,serif" font-size="14.00">node #20</text>
<text text-anchor="middle" x="1839" y="-320.8" font-family="Times,serif" font-size="14.00">FEFPrePercent &lt;= 91.5</text>
<text text-anchor="middle" x="1839" y="-305.8" font-family="Times,serif" font-size="14.00">gini = 0.449</text>
<text text-anchor="middle" x="1839" y="-290.8" font-family="Times,serif" font-size="14.00">samples = 37</text>
<text text-anchor="middle" x="1839" y="-275.8" font-family="Times,serif" font-size="14.00">value = [38.345, 19.821]</text>
<text text-anchor="middle" x="1839" y="-260.8" font-family="Times,serif" font-size="14.00">class = Non&#45;obstructive</text>
</g>
<!-- 14&#45;&gt;20 -->
<g id="edge20" class="edge">
<title>14&#45;&gt;20</title>
<path fill="none" stroke="black" d="M1544.72,-401.09C1602.14,-381.95 1673.83,-358.06 1732.08,-338.64"/>
<polygon fill="black" stroke="black" points="1733.3,-341.92 1741.68,-335.44 1731.08,-335.28 1733.3,-341.92"/>
</g>
<!-- 16 -->
<g id="node17" class="node">
<title>16</title>
<polygon fill="none" stroke="black" points="1434,-217 1246,-217 1246,-119 1434,-119 1434,-217"/>
<text text-anchor="middle" x="1340" y="-201.8" font-family="Times,serif" font-size="14.00">node #16</text>
<text text-anchor="middle" x="1340" y="-186.8" font-family="Times,serif" font-size="14.00">FEFPostVal &lt;= 1.705</text>
<text text-anchor="middle" x="1340" y="-171.8" font-family="Times,serif" font-size="14.00">gini = 0.093</text>
<text text-anchor="middle" x="1340" y="-156.8" font-family="Times,serif" font-size="14.00">samples = 12</text>
<text text-anchor="middle" x="1340" y="-141.8" font-family="Times,serif" font-size="14.00">value = [19.173, 0.991]</text>
<text text-anchor="middle" x="1340" y="-126.8" font-family="Times,serif" font-size="14.00">class = Non&#45;obstructive</text>
</g>
<!-- 15&#45;&gt;16 -->
<g id="edge16" class="edge">
<title>15&#45;&gt;16</title>
<path fill="none" stroke="black" d="M1405.52,-252.97C1398.49,-243.96 1391.09,-234.47 1383.88,-225.24"/>
<polygon fill="black" stroke="black" points="1386.53,-222.94 1377.62,-217.21 1381.01,-227.25 1386.53,-222.94"/>
</g>
<!-- 19 -->
<g id="node20" class="node">
<title>19</title>
<polygon fill="none" stroke="black" points="1640,-209.5 1452,-209.5 1452,-126.5 1640,-126.5 1640,-209.5"/>
<text text-anchor="middle" x="1546" y="-194.3" font-family="Times,serif" font-size="14.00">node #19</text>
<text text-anchor="middle" x="1546" y="-179.3" font-family="Times,serif" font-size="14.00">gini = 0.0</text>
<text text-anchor="middle" x="1546" y="-164.3" font-family="Times,serif" font-size="14.00">samples = 47</text>
<text text-anchor="middle" x="1546" y="-149.3" font-family="Times,serif" font-size="14.00">value = [73.664, 0.0]</text>
<text text-anchor="middle" x="1546" y="-134.3" font-family="Times,serif" font-size="14.00">class = Non&#45;obstructive</text>
</g>
<!-- 15&#45;&gt;19 -->
<g id="edge19" class="edge">
<title>15&#45;&gt;19</title>
<path fill="none" stroke="black" d="M1480.48,-252.97C1489.36,-241.58 1498.85,-229.42 1507.77,-217.99"/>
<polygon fill="black" stroke="black" points="1510.76,-219.85 1514.15,-209.82 1505.24,-215.55 1510.76,-219.85"/>
</g>
<!-- 17 -->
<g id="node18" class="node">
<title>17</title>
<polygon fill="none" stroke="black" points="1393,-83 1205,-83 1205,0 1393,0 1393,-83"/>
<text text-anchor="middle" x="1299" y="-67.8" font-family="Times,serif" font-size="14.00">node #17</text>
<text text-anchor="middle" x="1299" y="-52.8" font-family="Times,serif" font-size="14.00">gini = 0.0</text>
<text text-anchor="middle" x="1299" y="-37.8" font-family="Times,serif" font-size="14.00">samples = 11</text>
<text text-anchor="middle" x="1299" y="-22.8" font-family="Times,serif" font-size="14.00">value = [19.173, 0.0]</text>
<text text-anchor="middle" x="1299" y="-7.8" font-family="Times,serif" font-size="14.00">class = Non&#45;obstructive</text>
</g>
<!-- 16&#45;&gt;17 -->
<g id="edge17" class="edge">
<title>16&#45;&gt;17</title>
<path fill="none" stroke="black" d="M1324.15,-118.87C1321.33,-110.31 1318.39,-101.39 1315.56,-92.78"/>
<polygon fill="black" stroke="black" points="1318.87,-91.63 1312.41,-83.23 1312.22,-93.82 1318.87,-91.63"/>
</g>
<!-- 18 -->
<g id="node19" class="node">
<title>18</title>
<polygon fill="none" stroke="black" points="1569,-83 1411,-83 1411,0 1569,0 1569,-83"/>
<text text-anchor="middle" x="1490" y="-67.8" font-family="Times,serif" font-size="14.00">node #18</text>
<text text-anchor="middle" x="1490" y="-52.8" font-family="Times,serif" font-size="14.00">gini = &#45;0.0</text>
<text text-anchor="middle" x="1490" y="-37.8" font-family="Times,serif" font-size="14.00">samples = 1</text>
<text text-anchor="middle" x="1490" y="-22.8" font-family="Times,serif" font-size="14.00">value = [0.0, 0.991]</text>
<text text-anchor="middle" x="1490" y="-7.8" font-family="Times,serif" font-size="14.00">class = Obstructive</text>
</g>
<!-- 16&#45;&gt;18 -->
<g id="edge18" class="edge">
<title>16&#45;&gt;18</title>
<path fill="none" stroke="black" d="M1397.99,-118.87C1409.52,-109.3 1421.6,-99.27 1433.09,-89.74"/>
<polygon fill="black" stroke="black" points="1435.47,-92.31 1440.93,-83.23 1431,-86.92 1435.47,-92.31"/>
</g>
<!-- 21 -->
<g id="node22" class="node">
<title>21</title>
<polygon fill="none" stroke="black" points="1937.5,-217 1740.5,-217 1740.5,-119 1937.5,-119 1937.5,-217"/>
<text text-anchor="middle" x="1839" y="-201.8" font-family="Times,serif" font-size="14.00">node #21</text>
<text text-anchor="middle" x="1839" y="-186.8" font-family="Times,serif" font-size="14.00">FVCPostPercent &lt;= 78.5</text>
<text text-anchor="middle" x="1839" y="-171.8" font-family="Times,serif" font-size="14.00">gini = 0.494</text>
<text text-anchor="middle" x="1839" y="-156.8" font-family="Times,serif" font-size="14.00">samples = 27</text>
<text text-anchor="middle" x="1839" y="-141.8" font-family="Times,serif" font-size="14.00">value = [22.2, 17.839]</text>
<text text-anchor="middle" x="1839" y="-126.8" font-family="Times,serif" font-size="14.00">class = Non&#45;obstructive</text>
</g>
<!-- 20&#45;&gt;21 -->
<g id="edge21" class="edge">
<title>20&#45;&gt;21</title>
<path fill="none" stroke="black" d="M1839,-252.97C1839,-244.69 1839,-236 1839,-227.48"/>
<polygon fill="black" stroke="black" points="1842.5,-227.21 1839,-217.21 1835.5,-227.21 1842.5,-227.21"/>
</g>
<!-- 24 -->
<g id="node25" class="node">
<title>24</title>
<polygon fill="none" stroke="black" points="2185,-217 1997,-217 1997,-119 2185,-119 2185,-217"/>
<text text-anchor="middle" x="2091" y="-201.8" font-family="Times,serif" font-size="14.00">node #24</text>
<text text-anchor="middle" x="2091" y="-186.8" font-family="Times,serif" font-size="14.00">FVCPreVal &lt;= 2.625</text>
<text text-anchor="middle" x="2091" y="-171.8" font-family="Times,serif" font-size="14.00">gini = 0.195</text>
<text text-anchor="middle" x="2091" y="-156.8" font-family="Times,serif" font-size="14.00">samples = 10</text>
<text text-anchor="middle" x="2091" y="-141.8" font-family="Times,serif" font-size="14.00">value = [16.145, 1.982]</text>
<text text-anchor="middle" x="2091" y="-126.8" font-family="Times,serif" font-size="14.00">class = Non&#45;obstructive</text>
</g>
<!-- 20&#45;&gt;24 -->
<g id="edge24" class="edge">
<title>20&#45;&gt;24</title>
<path fill="none" stroke="black" d="M1930.69,-252.97C1949.97,-242.87 1970.42,-232.16 1990.02,-221.9"/>
<polygon fill="black" stroke="black" points="1991.72,-224.95 1998.96,-217.21 1988.47,-218.75 1991.72,-224.95"/>
</g>
<!-- 22 -->
<g id="node23" class="node">
<title>22</title>
<polygon fill="none" stroke="black" points="1775,-83 1587,-83 1587,0 1775,0 1775,-83"/>
<text text-anchor="middle" x="1681" y="-67.8" font-family="Times,serif" font-size="14.00">node #22</text>
<text text-anchor="middle" x="1681" y="-52.8" font-family="Times,serif" font-size="14.00">gini = 0.287</text>
<text text-anchor="middle" x="1681" y="-37.8" font-family="Times,serif" font-size="14.00">samples = 13</text>
<text text-anchor="middle" x="1681" y="-22.8" font-family="Times,serif" font-size="14.00">value = [14.127, 2.973]</text>
<text text-anchor="middle" x="1681" y="-7.8" font-family="Times,serif" font-size="14.00">class = Non&#45;obstructive</text>
</g>
<!-- 21&#45;&gt;22 -->
<g id="edge22" class="edge">
<title>21&#45;&gt;22</title>
<path fill="none" stroke="black" d="M1777.91,-118.87C1765.59,-109.15 1752.65,-98.96 1740.39,-89.3"/>
<polygon fill="black" stroke="black" points="1742.46,-86.47 1732.44,-83.03 1738.13,-91.97 1742.46,-86.47"/>
</g>
<!-- 23 -->
<g id="node24" class="node">
<title>23</title>
<polygon fill="none" stroke="black" points="1978.5,-83 1793.5,-83 1793.5,0 1978.5,0 1978.5,-83"/>
<text text-anchor="middle" x="1886" y="-67.8" font-family="Times,serif" font-size="14.00">node #23</text>
<text text-anchor="middle" x="1886" y="-52.8" font-family="Times,serif" font-size="14.00">gini = 0.456</text>
<text text-anchor="middle" x="1886" y="-37.8" font-family="Times,serif" font-size="14.00">samples = 14</text>
<text text-anchor="middle" x="1886" y="-22.8" font-family="Times,serif" font-size="14.00">value = [8.073, 14.866]</text>
<text text-anchor="middle" x="1886" y="-7.8" font-family="Times,serif" font-size="14.00">class = Obstructive</text>
</g>
<!-- 21&#45;&gt;23 -->
<g id="edge23" class="edge">
<title>21&#45;&gt;23</title>
<path fill="none" stroke="black" d="M1857.17,-118.87C1860.4,-110.31 1863.77,-101.39 1867.02,-92.78"/>
<polygon fill="black" stroke="black" points="1870.37,-93.82 1870.62,-83.23 1863.82,-91.35 1870.37,-93.82"/>
</g>
<!-- 25 -->
<g id="node26" class="node">
<title>25</title>
<polygon fill="none" stroke="black" points="2185,-83 1997,-83 1997,0 2185,0 2185,-83"/>
<text text-anchor="middle" x="2091" y="-67.8" font-family="Times,serif" font-size="14.00">node #25</text>
<text text-anchor="middle" x="2091" y="-52.8" font-family="Times,serif" font-size="14.00">gini = 0.5</text>
<text text-anchor="middle" x="2091" y="-37.8" font-family="Times,serif" font-size="14.00">samples = 3</text>
<text text-anchor="middle" x="2091" y="-22.8" font-family="Times,serif" font-size="14.00">value = [2.018, 1.982]</text>
<text text-anchor="middle" x="2091" y="-7.8" font-family="Times,serif" font-size="14.00">class = Non&#45;obstructive</text>
</g>
<!-- 24&#45;&gt;25 -->
<g id="edge25" class="edge">
<title>24&#45;&gt;25</title>
<path fill="none" stroke="black" d="M2091,-118.87C2091,-110.5 2091,-101.77 2091,-93.33"/>
<polygon fill="black" stroke="black" points="2094.5,-93.23 2091,-83.23 2087.5,-93.23 2094.5,-93.23"/>
</g>
<!-- 26 -->
<g id="node27" class="node">
<title>26</title>
<polygon fill="none" stroke="black" points="2391,-83 2203,-83 2203,0 2391,0 2391,-83"/>
<text text-anchor="middle" x="2297" y="-67.8" font-family="Times,serif" font-size="14.00">node #26</text>
<text text-anchor="middle" x="2297" y="-52.8" font-family="Times,serif" font-size="14.00">gini = 0.0</text>
<text text-anchor="middle" x="2297" y="-37.8" font-family="Times,serif" font-size="14.00">samples = 7</text>
<text text-anchor="middle" x="2297" y="-22.8" font-family="Times,serif" font-size="14.00">value = [14.127, 0.0]</text>
<text text-anchor="middle" x="2297" y="-7.8" font-family="Times,serif" font-size="14.00">class = Non&#45;obstructive</text>
</g>
<!-- 24&#45;&gt;26 -->
<g id="edge26" class="edge">
<title>24&#45;&gt;26</title>
<path fill="none" stroke="black" d="M2170.64,-118.87C2187.17,-108.88 2204.54,-98.38 2220.94,-88.47"/>
<polygon fill="black" stroke="black" points="2223.19,-91.2 2229.93,-83.03 2219.57,-85.21 2223.19,-91.2"/>
</g>
</g>
</svg>
