<?xml version="1.0" encoding="UTF-8" standalone="no"?>
<!DOCTYPE svg PUBLIC "-//W3C//DTD SVG 1.1//EN"
 "http://www.w3.org/Graphics/SVG/1.1/DTD/svg11.dtd">
<!-- Generated by graphviz version 2.43.0 (0)
 -->
<!-- Title: Tree Pages: 1 -->
<svg width="1786pt" height="627pt"
 viewBox="0.00 0.00 1786.00 627.00" xmlns="http://www.w3.org/2000/svg" xmlns:xlink="http://www.w3.org/1999/xlink">
<g id="graph0" class="graph" transform="scale(1 1) rotate(0) translate(4 623)">
<title>Tree</title>
<polygon fill="white" stroke="transparent" points="-4,4 -4,-623 1782,-623 1782,4 -4,4"/>
<!-- 0 -->
<g id="node1" class="node">
<title>0</title>
<polygon fill="none" stroke="black" points="662,-619 486,-619 486,-521 662,-521 662,-619"/>
<text text-anchor="middle" x="574" y="-603.8" font-family="Times,serif" font-size="14.00">node #0</text>
<text text-anchor="middle" x="574" y="-588.8" font-family="Times,serif" font-size="14.00">FVCPreVal &lt;= 1.035</text>
<text text-anchor="middle" x="574" y="-573.8" font-family="Times,serif" font-size="14.00">gini = 0.5</text>
<text text-anchor="middle" x="574" y="-558.8" font-family="Times,serif" font-size="14.00">samples = 201</text>
<text text-anchor="middle" x="574" y="-543.8" font-family="Times,serif" font-size="14.00">value = [166.5, 166.5]</text>
<text text-anchor="middle" x="574" y="-528.8" font-family="Times,serif" font-size="14.00">class = Obstructive</text>
</g>
<!-- 1 -->
<g id="node2" class="node">
<title>1</title>
<polygon fill="none" stroke="black" points="564,-485 358,-485 358,-387 564,-387 564,-485"/>
<text text-anchor="middle" x="461" y="-469.8" font-family="Times,serif" font-size="14.00">node #1</text>
<text text-anchor="middle" x="461" y="-454.8" font-family="Times,serif" font-size="14.00">FEV1PostPercent &lt;= 70.0</text>
<text text-anchor="middle" x="461" y="-439.8" font-family="Times,serif" font-size="14.00">gini = 0.105</text>
<text text-anchor="middle" x="461" y="-424.8" font-family="Times,serif" font-size="14.00">samples = 23</text>
<text text-anchor="middle" x="461" y="-409.8" font-family="Times,serif" font-size="14.00">value = [33.898, 2.006]</text>
<text text-anchor="middle" x="461" y="-394.8" font-family="Times,serif" font-size="14.00">class = Non&#45;obstructive</text>
</g>
<!-- 0&#45;&gt;1 -->
<g id="edge1" class="edge">
<title>0&#45;&gt;1</title>
<path fill="none" stroke="black" d="M532.88,-520.97C525.1,-511.87 516.88,-502.28 508.91,-492.96"/>
<polygon fill="black" stroke="black" points="511.44,-490.53 502.27,-485.21 506.12,-495.09 511.44,-490.53"/>
<text text-anchor="middle" x="500.34" y="-506.44" font-family="Times,serif" font-size="14.00">True</text>
</g>
<!-- 6 -->
<g id="node7" class="node">
<title>6</title>
<polygon fill="none" stroke="black" points="794,-485 582,-485 582,-387 794,-387 794,-485"/>
<text text-anchor="middle" x="688" y="-469.8" font-family="Times,serif" font-size="14.00">node #6</text>
<text text-anchor="middle" x="688" y="-454.8" font-family="Times,serif" font-size="14.00">FEFPostVal &lt;= 1.275</text>
<text text-anchor="middle" x="688" y="-439.8" font-family="Times,serif" font-size="14.00">gini = 0.494</text>
<text text-anchor="middle" x="688" y="-424.8" font-family="Times,serif" font-size="14.00">samples = 178</text>
<text text-anchor="middle" x="688" y="-409.8" font-family="Times,serif" font-size="14.00">value = [132.602, 164.494]</text>
<text text-anchor="middle" x="688" y="-394.8" font-family="Times,serif" font-size="14.00">class = Obstructive</text>
</g>
<!-- 0&#45;&gt;6 -->
<g id="edge6" class="edge">
<title>0&#45;&gt;6</title>
<path fill="none" stroke="black" d="M615.48,-520.97C623.34,-511.87 631.62,-502.28 639.67,-492.96"/>
<polygon fill="black" stroke="black" points="642.47,-495.07 646.36,-485.21 637.18,-490.49 642.47,-495.07"/>
<text text-anchor="middle" x="648.19" y="-506.45" font-family="Times,serif" font-size="14.00">False</text>
</g>
<!-- 2 -->
<g id="node3" class="node">
<title>2</title>
<polygon fill="none" stroke="black" points="369,-351 169,-351 169,-253 369,-253 369,-351"/>
<text text-anchor="middle" x="269" y="-335.8" font-family="Times,serif" font-size="14.00">node #2</text>
<text text-anchor="middle" x="269" y="-320.8" font-family="Times,serif" font-size="14.00">FEV1PrePercent &lt;= 18.5</text>
<text text-anchor="middle" x="269" y="-305.8" font-family="Times,serif" font-size="14.00">gini = 0.056</text>
<text text-anchor="middle" x="269" y="-290.8" font-family="Times,serif" font-size="14.00">samples = 22</text>
<text text-anchor="middle" x="269" y="-275.8" font-family="Times,serif" font-size="14.00">value = [33.898, 1.003]</text>
<text text-anchor="middle" x="269" y="-260.8" font-family="Times,serif" font-size="14.00">class = Non&#45;obstructive</text>
</g>
<!-- 1&#45;&gt;2 -->
<g id="edge2" class="edge">
<title>1&#45;&gt;2</title>
<path fill="none" stroke="black" d="M391.14,-386.97C376.98,-377.24 362,-366.93 347.56,-357.01"/>
<polygon fill="black" stroke="black" points="349.35,-354 339.13,-351.21 345.39,-359.76 349.35,-354"/>
</g>
<!-- 5 -->
<g id="node6" class="node">
<title>5</title>
<polygon fill="none" stroke="black" points="545,-343.5 387,-343.5 387,-260.5 545,-260.5 545,-343.5"/>
<text text-anchor="middle" x="466" y="-328.3" font-family="Times,serif" font-size="14.00">node #5</text>
<text text-anchor="middle" x="466" y="-313.3" font-family="Times,serif" font-size="14.00">gini = 0.0</text>
<text text-anchor="middle" x="466" y="-298.3" font-family="Times,serif" font-size="14.00">samples = 1</text>
<text text-anchor="middle" x="466" y="-283.3" font-family="Times,serif" font-size="14.00">value = [0.0, 1.003]</text>
<text text-anchor="middle" x="466" y="-268.3" font-family="Times,serif" font-size="14.00">class = Obstructive</text>
</g>
<!-- 1&#45;&gt;5 -->
<g id="edge5" class="edge">
<title>1&#45;&gt;5</title>
<path fill="none" stroke="black" d="M462.82,-386.97C463.23,-376.25 463.66,-364.84 464.07,-353.99"/>
<polygon fill="black" stroke="black" points="467.57,-353.94 464.45,-343.82 460.58,-353.68 467.57,-353.94"/>
</g>
<!-- 3 -->
<g id="node4" class="node">
<title>3</title>
<polygon fill="none" stroke="black" points="158,-209.5 0,-209.5 0,-126.5 158,-126.5 158,-209.5"/>
<text text-anchor="middle" x="79" y="-194.3" font-family="Times,serif" font-size="14.00">node #3</text>
<text text-anchor="middle" x="79" y="-179.3" font-family="Times,serif" font-size="14.00">gini = 0.0</text>
<text text-anchor="middle" x="79" y="-164.3" font-family="Times,serif" font-size="14.00">samples = 1</text>
<text text-anchor="middle" x="79" y="-149.3" font-family="Times,serif" font-size="14.00">value = [0.0, 1.003]</text>
<text text-anchor="middle" x="79" y="-134.3" font-family="Times,serif" font-size="14.00">class = Obstructive</text>
</g>
<!-- 2&#45;&gt;3 -->
<g id="edge3" class="edge">
<title>2&#45;&gt;3</title>
<path fill="none" stroke="black" d="M199.87,-252.97C182.27,-240.75 163.39,-227.63 145.9,-215.48"/>
<polygon fill="black" stroke="black" points="147.65,-212.43 137.44,-209.6 143.66,-218.18 147.65,-212.43"/>
</g>
<!-- 4 -->
<g id="node5" class="node">
<title>4</title>
<polygon fill="none" stroke="black" points="364,-209.5 176,-209.5 176,-126.5 364,-126.5 364,-209.5"/>
<text text-anchor="middle" x="270" y="-194.3" font-family="Times,serif" font-size="14.00">node #4</text>
<text text-anchor="middle" x="270" y="-179.3" font-family="Times,serif" font-size="14.00">gini = 0.0</text>
<text text-anchor="middle" x="270" y="-164.3" font-family="Times,serif" font-size="14.00">samples = 21</text>
<text text-anchor="middle" x="270" y="-149.3" font-family="Times,serif" font-size="14.00">value = [33.898, 0.0]</text>
<text text-anchor="middle" x="270" y="-134.3" font-family="Times,serif" font-size="14.00">class = Non&#45;obstructive</text>
</g>
<!-- 2&#45;&gt;4 -->
<g id="edge4" class="edge">
<title>2&#45;&gt;4</title>
<path fill="none" stroke="black" d="M269.36,-252.97C269.45,-242.25 269.53,-230.84 269.61,-219.99"/>
<polygon fill="black" stroke="black" points="273.11,-219.84 269.69,-209.82 266.12,-219.79 273.11,-219.84"/>
</g>
<!-- 7 -->
<g id="node8" class="node">
<title>7</title>
<polygon fill="none" stroke="black" points="786.5,-351 583.5,-351 583.5,-253 786.5,-253 786.5,-351"/>
<text text-anchor="middle" x="685" y="-335.8" font-family="Times,serif" font-size="14.00">node #7</text>
<text text-anchor="middle" x="685" y="-320.8" font-family="Times,serif" font-size="14.00">FEFPostVal &lt;= 0.825</text>
<text text-anchor="middle" x="685" y="-305.8" font-family="Times,serif" font-size="14.00">gini = 0.171</text>
<text text-anchor="middle" x="685" y="-290.8" font-family="Times,serif" font-size="14.00">samples = 70</text>
<text text-anchor="middle" x="685" y="-275.8" font-family="Times,serif" font-size="14.00">value = [10.967, 105.316]</text>
<text text-anchor="middle" x="685" y="-260.8" font-family="Times,serif" font-size="14.00">class = Obstructive</text>
</g>
<!-- 6&#45;&gt;7 -->
<g id="edge7" class="edge">
<title>6&#45;&gt;7</title>
<path fill="none" stroke="black" d="M686.91,-386.97C686.72,-378.69 686.52,-370 686.33,-361.48"/>
<polygon fill="black" stroke="black" points="689.82,-361.13 686.1,-351.21 682.82,-361.29 689.82,-361.13"/>
</g>
<!-- 14 -->
<g id="node15" class="node">
<title>14</title>
<polygon fill="none" stroke="black" points="1271.5,-351 1068.5,-351 1068.5,-253 1271.5,-253 1271.5,-351"/>
<text text-anchor="middle" x="1170" y="-335.8" font-family="Times,serif" font-size="14.00">node #14</text>
<text text-anchor="middle" x="1170" y="-320.8" font-family="Times,serif" font-size="14.00">FEV1PostVal &lt;= 1.935</text>
<text text-anchor="middle" x="1170" y="-305.8" font-family="Times,serif" font-size="14.00">gini = 0.44</text>
<text text-anchor="middle" x="1170" y="-290.8" font-family="Times,serif" font-size="14.00">samples = 108</text>
<text text-anchor="middle" x="1170" y="-275.8" font-family="Times,serif" font-size="14.00">value = [121.635, 59.178]</text>
<text text-anchor="middle" x="1170" y="-260.8" font-family="Times,serif" font-size="14.00">class = Non&#45;obstructive</text>
</g>
<!-- 6&#45;&gt;14 -->
<g id="edge14" class="edge">
<title>6&#45;&gt;14</title>
<path fill="none" stroke="black" d="M794.08,-405.95C872.36,-384.51 978.66,-355.4 1058.25,-333.6"/>
<polygon fill="black" stroke="black" points="1059.59,-336.87 1068.31,-330.85 1057.74,-330.11 1059.59,-336.87"/>
</g>
<!-- 8 -->
<g id="node9" class="node">
<title>8</title>
<polygon fill="none" stroke="black" points="577.5,-217 392.5,-217 392.5,-119 577.5,-119 577.5,-217"/>
<text text-anchor="middle" x="485" y="-201.8" font-family="Times,serif" font-size="14.00">node #8</text>
<text text-anchor="middle" x="485" y="-186.8" font-family="Times,serif" font-size="14.00">FVCPreVal &lt;= 1.36</text>
<text text-anchor="middle" x="485" y="-171.8" font-family="Times,serif" font-size="14.00">gini = 0.027</text>
<text text-anchor="middle" x="485" y="-156.8" font-family="Times,serif" font-size="14.00">samples = 43</text>
<text text-anchor="middle" x="485" y="-141.8" font-family="Times,serif" font-size="14.00">value = [0.997, 71.214]</text>
<text text-anchor="middle" x="485" y="-126.8" font-family="Times,serif" font-size="14.00">class = Obstructive</text>
</g>
<!-- 7&#45;&gt;8 -->
<g id="edge8" class="edge">
<title>7&#45;&gt;8</title>
<path fill="none" stroke="black" d="M612.23,-252.97C597.34,-243.14 581.58,-232.74 566.41,-222.73"/>
<polygon fill="black" stroke="black" points="568.33,-219.8 558.05,-217.21 564.47,-225.64 568.33,-219.8"/>
</g>
<!-- 11 -->
<g id="node12" class="node">
<title>11</title>
<polygon fill="none" stroke="black" points="773,-217 597,-217 597,-119 773,-119 773,-217"/>
<text text-anchor="middle" x="685" y="-201.8" font-family="Times,serif" font-size="14.00">node #11</text>
<text text-anchor="middle" x="685" y="-186.8" font-family="Times,serif" font-size="14.00">FEFPostVal &lt;= 0.835</text>
<text text-anchor="middle" x="685" y="-171.8" font-family="Times,serif" font-size="14.00">gini = 0.35</text>
<text text-anchor="middle" x="685" y="-156.8" font-family="Times,serif" font-size="14.00">samples = 27</text>
<text text-anchor="middle" x="685" y="-141.8" font-family="Times,serif" font-size="14.00">value = [9.97, 34.102]</text>
<text text-anchor="middle" x="685" y="-126.8" font-family="Times,serif" font-size="14.00">class = Obstructive</text>
</g>
<!-- 7&#45;&gt;11 -->
<g id="edge11" class="edge">
<title>7&#45;&gt;11</title>
<path fill="none" stroke="black" d="M685,-252.97C685,-244.69 685,-236 685,-227.48"/>
<polygon fill="black" stroke="black" points="688.5,-227.21 685,-217.21 681.5,-227.21 688.5,-227.21"/>
</g>
<!-- 9 -->
<g id="node10" class="node">
<title>9</title>
<polygon fill="none" stroke="black" points="383.5,-83 198.5,-83 198.5,0 383.5,0 383.5,-83"/>
<text text-anchor="middle" x="291" y="-67.8" font-family="Times,serif" font-size="14.00">node #9</text>
<text text-anchor="middle" x="291" y="-52.8" font-family="Times,serif" font-size="14.00">gini = 0.132</text>
<text text-anchor="middle" x="291" y="-37.8" font-family="Times,serif" font-size="14.00">samples = 9</text>
<text text-anchor="middle" x="291" y="-22.8" font-family="Times,serif" font-size="14.00">value = [0.997, 13.039]</text>
<text text-anchor="middle" x="291" y="-7.8" font-family="Times,serif" font-size="14.00">class = Obstructive</text>
</g>
<!-- 8&#45;&gt;9 -->
<g id="edge9" class="edge">
<title>8&#45;&gt;9</title>
<path fill="none" stroke="black" d="M409.99,-118.87C394.43,-108.88 378.07,-98.38 362.63,-88.47"/>
<polygon fill="black" stroke="black" points="364.47,-85.49 354.16,-83.03 360.68,-91.38 364.47,-85.49"/>
</g>
<!-- 10 -->
<g id="node11" class="node">
<title>10</title>
<polygon fill="none" stroke="black" points="568.5,-83 401.5,-83 401.5,0 568.5,0 568.5,-83"/>
<text text-anchor="middle" x="485" y="-67.8" font-family="Times,serif" font-size="14.00">node #10</text>
<text text-anchor="middle" x="485" y="-52.8" font-family="Times,serif" font-size="14.00">gini = 0.0</text>
<text text-anchor="middle" x="485" y="-37.8" font-family="Times,serif" font-size="14.00">samples = 34</text>
<text text-anchor="middle" x="485" y="-22.8" font-family="Times,serif" font-size="14.00">value = [0.0, 58.175]</text>
<text text-anchor="middle" x="485" y="-7.8" font-family="Times,serif" font-size="14.00">class = Obstructive</text>
</g>
<!-- 8&#45;&gt;10 -->
<g id="edge10" class="edge">
<title>8&#45;&gt;10</title>
<path fill="none" stroke="black" d="M485,-118.87C485,-110.5 485,-101.77 485,-93.33"/>
<polygon fill="black" stroke="black" points="488.5,-93.23 485,-83.23 481.5,-93.23 488.5,-93.23"/>
</g>
<!-- 12 -->
<g id="node13" class="node">
<title>12</title>
<polygon fill="none" stroke="black" points="775,-83 587,-83 587,0 775,0 775,-83"/>
<text text-anchor="middle" x="681" y="-67.8" font-family="Times,serif" font-size="14.00">node #12</text>
<text text-anchor="middle" x="681" y="-52.8" font-family="Times,serif" font-size="14.00">gini = 0.0</text>
<text text-anchor="middle" x="681" y="-37.8" font-family="Times,serif" font-size="14.00">samples = 1</text>
<text text-anchor="middle" x="681" y="-22.8" font-family="Times,serif" font-size="14.00">value = [2.991, 0.0]</text>
<text text-anchor="middle" x="681" y="-7.8" font-family="Times,serif" font-size="14.00">class = Non&#45;obstructive</text>
</g>
<!-- 11&#45;&gt;12 -->
<g id="edge12" class="edge">
<title>11&#45;&gt;12</title>
<path fill="none" stroke="black" d="M683.45,-118.87C683.18,-110.5 682.9,-101.77 682.63,-93.33"/>
<polygon fill="black" stroke="black" points="686.13,-93.11 682.31,-83.23 679.13,-93.34 686.13,-93.11"/>
</g>
<!-- 13 -->
<g id="node14" class="node">
<title>13</title>
<polygon fill="none" stroke="black" points="978.5,-83 793.5,-83 793.5,0 978.5,0 978.5,-83"/>
<text text-anchor="middle" x="886" y="-67.8" font-family="Times,serif" font-size="14.00">node #13</text>
<text text-anchor="middle" x="886" y="-52.8" font-family="Times,serif" font-size="14.00">gini = 0.282</text>
<text text-anchor="middle" x="886" y="-37.8" font-family="Times,serif" font-size="14.00">samples = 26</text>
<text text-anchor="middle" x="886" y="-22.8" font-family="Times,serif" font-size="14.00">value = [6.979, 34.102]</text>
<text text-anchor="middle" x="886" y="-7.8" font-family="Times,serif" font-size="14.00">class = Obstructive</text>
</g>
<!-- 11&#45;&gt;13 -->
<g id="edge13" class="edge">
<title>11&#45;&gt;13</title>
<path fill="none" stroke="black" d="M762.71,-118.87C778.84,-108.88 795.79,-98.38 811.78,-88.47"/>
<polygon fill="black" stroke="black" points="813.9,-91.27 820.56,-83.03 810.22,-85.32 813.9,-91.27"/>
</g>
<!-- 15 -->
<g id="node16" class="node">
<title>15</title>
<polygon fill="none" stroke="black" points="1267,-217 1073,-217 1073,-119 1267,-119 1267,-217"/>
<text text-anchor="middle" x="1170" y="-201.8" font-family="Times,serif" font-size="14.00">node #15</text>
<text text-anchor="middle" x="1170" y="-186.8" font-family="Times,serif" font-size="14.00">FEV1PreVal &lt;= 0.885</text>
<text text-anchor="middle" x="1170" y="-171.8" font-family="Times,serif" font-size="14.00">gini = 0.224</text>
<text text-anchor="middle" x="1170" y="-156.8" font-family="Times,serif" font-size="14.00">samples = 55</text>
<text text-anchor="middle" x="1170" y="-141.8" font-family="Times,serif" font-size="14.00">value = [81.754, 12.036]</text>
<text text-anchor="middle" x="1170" y="-126.8" font-family="Times,serif" font-size="14.00">class = Non&#45;obstructive</text>
</g>
<!-- 14&#45;&gt;15 -->
<g id="edge15" class="edge">
<title>14&#45;&gt;15</title>
<path fill="none" stroke="black" d="M1170,-252.97C1170,-244.69 1170,-236 1170,-227.48"/>
<polygon fill="black" stroke="black" points="1173.5,-227.21 1170,-217.21 1166.5,-227.21 1173.5,-227.21"/>
</g>
<!-- 18 -->
<g id="node19" class="node">
<title>18</title>
<polygon fill="none" stroke="black" points="1567.5,-217 1382.5,-217 1382.5,-119 1567.5,-119 1567.5,-217"/>
<text text-anchor="middle" x="1475" y="-201.8" font-family="Times,serif" font-size="14.00">node #18</text>
<text text-anchor="middle" x="1475" y="-186.8" font-family="Times,serif" font-size="14.00">FEFPostVal &lt;= 3.08</text>
<text text-anchor="middle" x="1475" y="-171.8" font-family="Times,serif" font-size="14.00">gini = 0.497</text>
<text text-anchor="middle" x="1475" y="-156.8" font-family="Times,serif" font-size="14.00">samples = 53</text>
<text text-anchor="middle" x="1475" y="-141.8" font-family="Times,serif" font-size="14.00">value = [39.88, 47.142]</text>
<text text-anchor="middle" x="1475" y="-126.8" font-family="Times,serif" font-size="14.00">class = Obstructive</text>
</g>
<!-- 14&#45;&gt;18 -->
<g id="edge18" class="edge">
<title>14&#45;&gt;18</title>
<path fill="none" stroke="black" d="M1271.56,-257.05C1304.13,-242.95 1340.2,-227.34 1372.82,-213.22"/>
<polygon fill="black" stroke="black" points="1374.58,-216.27 1382.37,-209.09 1371.8,-209.85 1374.58,-216.27"/>
</g>
<!-- 16 -->
<g id="node17" class="node">
<title>16</title>
<polygon fill="none" stroke="black" points="1154,-83 996,-83 996,0 1154,0 1154,-83"/>
<text text-anchor="middle" x="1075" y="-67.8" font-family="Times,serif" font-size="14.00">node #16</text>
<text text-anchor="middle" x="1075" y="-52.8" font-family="Times,serif" font-size="14.00">gini = 0.0</text>
<text text-anchor="middle" x="1075" y="-37.8" font-family="Times,serif" font-size="14.00">samples = 1</text>
<text text-anchor="middle" x="1075" y="-22.8" font-family="Times,serif" font-size="14.00">value = [0.0, 2.006]</text>
<text text-anchor="middle" x="1075" y="-7.8" font-family="Times,serif" font-size="14.00">class = Obstructive</text>
</g>
<!-- 15&#45;&gt;16 -->
<g id="edge16" class="edge">
<title>15&#45;&gt;16</title>
<path fill="none" stroke="black" d="M1133.27,-118.87C1126.39,-109.85 1119.2,-100.43 1112.31,-91.39"/>
<polygon fill="black" stroke="black" points="1114.93,-89.06 1106.08,-83.23 1109.36,-93.3 1114.93,-89.06"/>
</g>
<!-- 17 -->
<g id="node18" class="node">
<title>17</title>
<polygon fill="none" stroke="black" points="1360,-83 1172,-83 1172,0 1360,0 1360,-83"/>
<text text-anchor="middle" x="1266" y="-67.8" font-family="Times,serif" font-size="14.00">node #17</text>
<text text-anchor="middle" x="1266" y="-52.8" font-family="Times,serif" font-size="14.00">gini = 0.195</text>
<text text-anchor="middle" x="1266" y="-37.8" font-family="Times,serif" font-size="14.00">samples = 54</text>
<text text-anchor="middle" x="1266" y="-22.8" font-family="Times,serif" font-size="14.00">value = [81.754, 10.03]</text>
<text text-anchor="middle" x="1266" y="-7.8" font-family="Times,serif" font-size="14.00">class = Non&#45;obstructive</text>
</g>
<!-- 15&#45;&gt;17 -->
<g id="edge17" class="edge">
<title>15&#45;&gt;17</title>
<path fill="none" stroke="black" d="M1207.12,-118.87C1214.06,-109.85 1221.33,-100.43 1228.3,-91.39"/>
<polygon fill="black" stroke="black" points="1231.26,-93.29 1234.59,-83.23 1225.71,-89.01 1231.26,-93.29"/>
</g>
<!-- 19 -->
<g id="node20" class="node">
<title>19</title>
<polygon fill="none" stroke="black" points="1572,-83 1378,-83 1378,0 1572,0 1572,-83"/>
<text text-anchor="middle" x="1475" y="-67.8" font-family="Times,serif" font-size="14.00">node #19</text>
<text text-anchor="middle" x="1475" y="-52.8" font-family="Times,serif" font-size="14.00">gini = 0.36</text>
<text text-anchor="middle" x="1475" y="-37.8" font-family="Times,serif" font-size="14.00">samples = 32</text>
<text text-anchor="middle" x="1475" y="-22.8" font-family="Times,serif" font-size="14.00">value = [12.961, 42.127]</text>
<text text-anchor="middle" x="1475" y="-7.8" font-family="Times,serif" font-size="14.00">class = Obstructive</text>
</g>
<!-- 18&#45;&gt;19 -->
<g id="edge19" class="edge">
<title>18&#45;&gt;19</title>
<path fill="none" stroke="black" d="M1475,-118.87C1475,-110.5 1475,-101.77 1475,-93.33"/>
<polygon fill="black" stroke="black" points="1478.5,-93.23 1475,-83.23 1471.5,-93.23 1478.5,-93.23"/>
</g>
<!-- 20 -->
<g id="node21" class="node">
<title>20</title>
<polygon fill="none" stroke="black" points="1778,-83 1590,-83 1590,0 1778,0 1778,-83"/>
<text text-anchor="middle" x="1684" y="-67.8" font-family="Times,serif" font-size="14.00">node #20</text>
<text text-anchor="middle" x="1684" y="-52.8" font-family="Times,serif" font-size="14.00">gini = 0.265</text>
<text text-anchor="middle" x="1684" y="-37.8" font-family="Times,serif" font-size="14.00">samples = 21</text>
<text text-anchor="middle" x="1684" y="-22.8" font-family="Times,serif" font-size="14.00">value = [26.919, 5.015]</text>
<text text-anchor="middle" x="1684" y="-7.8" font-family="Times,serif" font-size="14.00">class = Non&#45;obstructive</text>
</g>
<!-- 18&#45;&gt;20 -->
<g id="edge20" class="edge">
<title>18&#45;&gt;20</title>
<path fill="none" stroke="black" d="M1555.8,-118.87C1572.73,-108.78 1590.52,-98.18 1607.29,-88.19"/>
<polygon fill="black" stroke="black" points="1609.16,-91.16 1615.96,-83.03 1605.58,-85.14 1609.16,-91.16"/>
</g>
</g>
</svg>
