<?xml version="1.0" encoding="UTF-8" standalone="no"?>
<!DOCTYPE svg PUBLIC "-//W3C//DTD SVG 1.1//EN"
 "http://www.w3.org/Graphics/SVG/1.1/DTD/svg11.dtd">
<!-- Generated by graphviz version 2.43.0 (0)
 -->
<!-- Title: Tree Pages: 1 -->
<svg width="1966pt" height="627pt"
 viewBox="0.00 0.00 1965.50 627.00" xmlns="http://www.w3.org/2000/svg" xmlns:xlink="http://www.w3.org/1999/xlink">
<g id="graph0" class="graph" transform="scale(1 1) rotate(0) translate(4 623)">
<title>Tree</title>
<polygon fill="white" stroke="transparent" points="-4,4 -4,-623 1961.5,-623 1961.5,4 -4,4"/>
<!-- 0 -->
<g id="node1" class="node">
<title>0</title>
<polygon fill="none" stroke="black" points="831,-619 655,-619 655,-521 831,-521 831,-619"/>
<text text-anchor="middle" x="743" y="-603.8" font-family="Times,serif" font-size="14.00">node #0</text>
<text text-anchor="middle" x="743" y="-588.8" font-family="Times,serif" font-size="14.00">FEFPostVal &lt;= 1.2</text>
<text text-anchor="middle" x="743" y="-573.8" font-family="Times,serif" font-size="14.00">gini = 0.5</text>
<text text-anchor="middle" x="743" y="-558.8" font-family="Times,serif" font-size="14.00">samples = 201</text>
<text text-anchor="middle" x="743" y="-543.8" font-family="Times,serif" font-size="14.00">value = [166.5, 166.5]</text>
<text text-anchor="middle" x="743" y="-528.8" font-family="Times,serif" font-size="14.00">class = Obstructive</text>
</g>
<!-- 1 -->
<g id="node2" class="node">
<title>1</title>
<polygon fill="none" stroke="black" points="732.5,-485 535.5,-485 535.5,-387 732.5,-387 732.5,-485"/>
<text text-anchor="middle" x="634" y="-469.8" font-family="Times,serif" font-size="14.00">node #1</text>
<text text-anchor="middle" x="634" y="-454.8" font-family="Times,serif" font-size="14.00">FVCPostPercent &lt;= 34.0</text>
<text text-anchor="middle" x="634" y="-439.8" font-family="Times,serif" font-size="14.00">gini = 0.191</text>
<text text-anchor="middle" x="634" y="-424.8" font-family="Times,serif" font-size="14.00">samples = 65</text>
<text text-anchor="middle" x="634" y="-409.8" font-family="Times,serif" font-size="14.00">value = [10.289, 85.935]</text>
<text text-anchor="middle" x="634" y="-394.8" font-family="Times,serif" font-size="14.00">class = Obstructive</text>
</g>
<!-- 0&#45;&gt;1 -->
<g id="edge1" class="edge">
<title>0&#45;&gt;1</title>
<path fill="none" stroke="black" d="M703.34,-520.97C695.83,-511.87 687.91,-502.28 680.21,-492.96"/>
<polygon fill="black" stroke="black" points="682.88,-490.7 673.81,-485.21 677.48,-495.15 682.88,-490.7"/>
<text text-anchor="middle" x="671.44" y="-506.4" font-family="Times,serif" font-size="14.00">True</text>
</g>
<!-- 10 -->
<g id="node11" class="node">
<title>10</title>
<polygon fill="none" stroke="black" points="1031.5,-485 828.5,-485 828.5,-387 1031.5,-387 1031.5,-485"/>
<text text-anchor="middle" x="930" y="-469.8" font-family="Times,serif" font-size="14.00">node #10</text>
<text text-anchor="middle" x="930" y="-454.8" font-family="Times,serif" font-size="14.00">FVCPostPercent &lt;= 62.5</text>
<text text-anchor="middle" x="930" y="-439.8" font-family="Times,serif" font-size="14.00">gini = 0.449</text>
<text text-anchor="middle" x="930" y="-424.8" font-family="Times,serif" font-size="14.00">samples = 136</text>
<text text-anchor="middle" x="930" y="-409.8" font-family="Times,serif" font-size="14.00">value = [156.211, 80.565]</text>
<text text-anchor="middle" x="930" y="-394.8" font-family="Times,serif" font-size="14.00">class = Non&#45;obstructive</text>
</g>
<!-- 0&#45;&gt;10 -->
<g id="edge10" class="edge">
<title>0&#45;&gt;10</title>
<path fill="none" stroke="black" d="M811.04,-520.97C824.83,-511.24 839.43,-500.93 853.49,-491.01"/>
<polygon fill="black" stroke="black" points="855.55,-493.84 861.7,-485.21 851.51,-488.12 855.55,-493.84"/>
<text text-anchor="middle" x="857.45" y="-506.15" font-family="Times,serif" font-size="14.00">False</text>
</g>
<!-- 2 -->
<g id="node3" class="node">
<title>2</title>
<polygon fill="none" stroke="black" points="523,-343.5 335,-343.5 335,-260.5 523,-260.5 523,-343.5"/>
<text text-anchor="middle" x="429" y="-328.3" font-family="Times,serif" font-size="14.00">node #2</text>
<text text-anchor="middle" x="429" y="-313.3" font-family="Times,serif" font-size="14.00">gini = 0.0</text>
<text text-anchor="middle" x="429" y="-298.3" font-family="Times,serif" font-size="14.00">samples = 1</text>
<text text-anchor="middle" x="429" y="-283.3" font-family="Times,serif" font-size="14.00">value = [2.806, 0.0]</text>
<text text-anchor="middle" x="429" y="-268.3" font-family="Times,serif" font-size="14.00">class = Non&#45;obstructive</text>
</g>
<!-- 1&#45;&gt;2 -->
<g id="edge2" class="edge">
<title>1&#45;&gt;2</title>
<path fill="none" stroke="black" d="M559.41,-386.97C540.25,-374.63 519.68,-361.39 500.67,-349.15"/>
<polygon fill="black" stroke="black" points="502.36,-346.07 492.06,-343.6 498.57,-351.96 502.36,-346.07"/>
</g>
<!-- 3 -->
<g id="node4" class="node">
<title>3</title>
<polygon fill="none" stroke="black" points="726.5,-351 541.5,-351 541.5,-253 726.5,-253 726.5,-351"/>
<text text-anchor="middle" x="634" y="-335.8" font-family="Times,serif" font-size="14.00">node #3</text>
<text text-anchor="middle" x="634" y="-320.8" font-family="Times,serif" font-size="14.00">FVCPreVal &lt;= 1.085</text>
<text text-anchor="middle" x="634" y="-305.8" font-family="Times,serif" font-size="14.00">gini = 0.147</text>
<text text-anchor="middle" x="634" y="-290.8" font-family="Times,serif" font-size="14.00">samples = 64</text>
<text text-anchor="middle" x="634" y="-275.8" font-family="Times,serif" font-size="14.00">value = [7.483, 85.935]</text>
<text text-anchor="middle" x="634" y="-260.8" font-family="Times,serif" font-size="14.00">class = Obstructive</text>
</g>
<!-- 1&#45;&gt;3 -->
<g id="edge3" class="edge">
<title>1&#45;&gt;3</title>
<path fill="none" stroke="black" d="M634,-386.97C634,-378.69 634,-370 634,-361.48"/>
<polygon fill="black" stroke="black" points="637.5,-361.21 634,-351.21 630.5,-361.21 637.5,-361.21"/>
</g>
<!-- 4 -->
<g id="node5" class="node">
<title>4</title>
<polygon fill="none" stroke="black" points="373,-217 197,-217 197,-119 373,-119 373,-217"/>
<text text-anchor="middle" x="285" y="-201.8" font-family="Times,serif" font-size="14.00">node #4</text>
<text text-anchor="middle" x="285" y="-186.8" font-family="Times,serif" font-size="14.00">FEFPostVal &lt;= 1.025</text>
<text text-anchor="middle" x="285" y="-171.8" font-family="Times,serif" font-size="14.00">gini = 0.456</text>
<text text-anchor="middle" x="285" y="-156.8" font-family="Times,serif" font-size="14.00">samples = 7</text>
<text text-anchor="middle" x="285" y="-141.8" font-family="Times,serif" font-size="14.00">value = [4.677, 8.594]</text>
<text text-anchor="middle" x="285" y="-126.8" font-family="Times,serif" font-size="14.00">class = Obstructive</text>
</g>
<!-- 3&#45;&gt;4 -->
<g id="edge4" class="edge">
<title>3&#45;&gt;4</title>
<path fill="none" stroke="black" d="M541.36,-256.86C538.21,-255.54 535.09,-254.25 532,-253 483.48,-233.4 428.45,-214.39 382.66,-199.42"/>
<polygon fill="black" stroke="black" points="383.63,-196.05 373.04,-196.29 381.46,-202.71 383.63,-196.05"/>
</g>
<!-- 7 -->
<g id="node8" class="node">
<title>7</title>
<polygon fill="none" stroke="black" points="732.5,-217 535.5,-217 535.5,-119 732.5,-119 732.5,-217"/>
<text text-anchor="middle" x="634" y="-201.8" font-family="Times,serif" font-size="14.00">node #7</text>
<text text-anchor="middle" x="634" y="-186.8" font-family="Times,serif" font-size="14.00">FEFPostPercent &lt;= 22.0</text>
<text text-anchor="middle" x="634" y="-171.8" font-family="Times,serif" font-size="14.00">gini = 0.068</text>
<text text-anchor="middle" x="634" y="-156.8" font-family="Times,serif" font-size="14.00">samples = 57</text>
<text text-anchor="middle" x="634" y="-141.8" font-family="Times,serif" font-size="14.00">value = [2.806, 77.342]</text>
<text text-anchor="middle" x="634" y="-126.8" font-family="Times,serif" font-size="14.00">class = Obstructive</text>
</g>
<!-- 3&#45;&gt;7 -->
<g id="edge7" class="edge">
<title>3&#45;&gt;7</title>
<path fill="none" stroke="black" d="M634,-252.97C634,-244.69 634,-236 634,-227.48"/>
<polygon fill="black" stroke="black" points="637.5,-227.21 634,-217.21 630.5,-227.21 637.5,-227.21"/>
</g>
<!-- 5 -->
<g id="node6" class="node">
<title>5</title>
<polygon fill="none" stroke="black" points="188,-83 0,-83 0,0 188,0 188,-83"/>
<text text-anchor="middle" x="94" y="-67.8" font-family="Times,serif" font-size="14.00">node #5</text>
<text text-anchor="middle" x="94" y="-52.8" font-family="Times,serif" font-size="14.00">gini = 0.304</text>
<text text-anchor="middle" x="94" y="-37.8" font-family="Times,serif" font-size="14.00">samples = 5</text>
<text text-anchor="middle" x="94" y="-22.8" font-family="Times,serif" font-size="14.00">value = [4.677, 1.074]</text>
<text text-anchor="middle" x="94" y="-7.8" font-family="Times,serif" font-size="14.00">class = Non&#45;obstructive</text>
</g>
<!-- 4&#45;&gt;5 -->
<g id="edge5" class="edge">
<title>4&#45;&gt;5</title>
<path fill="none" stroke="black" d="M211.15,-118.87C195.97,-108.97 180.02,-98.57 164.95,-88.74"/>
<polygon fill="black" stroke="black" points="166.47,-85.56 156.18,-83.03 162.65,-91.43 166.47,-85.56"/>
</g>
<!-- 6 -->
<g id="node7" class="node">
<title>6</title>
<polygon fill="none" stroke="black" points="364,-83 206,-83 206,0 364,0 364,-83"/>
<text text-anchor="middle" x="285" y="-67.8" font-family="Times,serif" font-size="14.00">node #6</text>
<text text-anchor="middle" x="285" y="-52.8" font-family="Times,serif" font-size="14.00">gini = 0.0</text>
<text text-anchor="middle" x="285" y="-37.8" font-family="Times,serif" font-size="14.00">samples = 2</text>
<text text-anchor="middle" x="285" y="-22.8" font-family="Times,serif" font-size="14.00">value = [0.0, 7.519]</text>
<text text-anchor="middle" x="285" y="-7.8" font-family="Times,serif" font-size="14.00">class = Obstructive</text>
</g>
<!-- 4&#45;&gt;6 -->
<g id="edge6" class="edge">
<title>4&#45;&gt;6</title>
<path fill="none" stroke="black" d="M285,-118.87C285,-110.5 285,-101.77 285,-93.33"/>
<polygon fill="black" stroke="black" points="288.5,-93.23 285,-83.23 281.5,-93.23 288.5,-93.23"/>
</g>
<!-- 8 -->
<g id="node9" class="node">
<title>8</title>
<polygon fill="none" stroke="black" points="548.5,-83 381.5,-83 381.5,0 548.5,0 548.5,-83"/>
<text text-anchor="middle" x="465" y="-67.8" font-family="Times,serif" font-size="14.00">node #8</text>
<text text-anchor="middle" x="465" y="-52.8" font-family="Times,serif" font-size="14.00">gini = 0.0</text>
<text text-anchor="middle" x="465" y="-37.8" font-family="Times,serif" font-size="14.00">samples = 37</text>
<text text-anchor="middle" x="465" y="-22.8" font-family="Times,serif" font-size="14.00">value = [0.0, 51.561]</text>
<text text-anchor="middle" x="465" y="-7.8" font-family="Times,serif" font-size="14.00">class = Obstructive</text>
</g>
<!-- 7&#45;&gt;8 -->
<g id="edge8" class="edge">
<title>7&#45;&gt;8</title>
<path fill="none" stroke="black" d="M568.66,-118.87C555.35,-109.06 541.38,-98.77 528.15,-89.02"/>
<polygon fill="black" stroke="black" points="530.15,-86.15 520.02,-83.03 526,-91.78 530.15,-86.15"/>
</g>
<!-- 9 -->
<g id="node10" class="node">
<title>9</title>
<polygon fill="none" stroke="black" points="751.5,-83 566.5,-83 566.5,0 751.5,0 751.5,-83"/>
<text text-anchor="middle" x="659" y="-67.8" font-family="Times,serif" font-size="14.00">node #9</text>
<text text-anchor="middle" x="659" y="-52.8" font-family="Times,serif" font-size="14.00">gini = 0.177</text>
<text text-anchor="middle" x="659" y="-37.8" font-family="Times,serif" font-size="14.00">samples = 20</text>
<text text-anchor="middle" x="659" y="-22.8" font-family="Times,serif" font-size="14.00">value = [2.806, 25.781]</text>
<text text-anchor="middle" x="659" y="-7.8" font-family="Times,serif" font-size="14.00">class = Obstructive</text>
</g>
<!-- 7&#45;&gt;9 -->
<g id="edge9" class="edge">
<title>7&#45;&gt;9</title>
<path fill="none" stroke="black" d="M643.67,-118.87C645.36,-110.41 647.14,-101.58 648.85,-93.06"/>
<polygon fill="black" stroke="black" points="652.28,-93.72 650.82,-83.23 645.42,-92.35 652.28,-93.72"/>
</g>
<!-- 11 -->
<g id="node12" class="node">
<title>11</title>
<polygon fill="none" stroke="black" points="1030,-351 830,-351 830,-253 1030,-253 1030,-351"/>
<text text-anchor="middle" x="930" y="-335.8" font-family="Times,serif" font-size="14.00">node #11</text>
<text text-anchor="middle" x="930" y="-320.8" font-family="Times,serif" font-size="14.00">FEFPrePercent &lt;= 56.43</text>
<text text-anchor="middle" x="930" y="-305.8" font-family="Times,serif" font-size="14.00">gini = 0.153</text>
<text text-anchor="middle" x="930" y="-290.8" font-family="Times,serif" font-size="14.00">samples = 60</text>
<text text-anchor="middle" x="930" y="-275.8" font-family="Times,serif" font-size="14.00">value = [94.475, 8.594]</text>
<text text-anchor="middle" x="930" y="-260.8" font-family="Times,serif" font-size="14.00">class = Non&#45;obstructive</text>
</g>
<!-- 10&#45;&gt;11 -->
<g id="edge11" class="edge">
<title>10&#45;&gt;11</title>
<path fill="none" stroke="black" d="M930,-386.97C930,-378.69 930,-370 930,-361.48"/>
<polygon fill="black" stroke="black" points="933.5,-361.21 930,-351.21 926.5,-361.21 933.5,-361.21"/>
</g>
<!-- 16 -->
<g id="node17" class="node">
<title>16</title>
<polygon fill="none" stroke="black" points="1483,-351 1289,-351 1289,-253 1483,-253 1483,-351"/>
<text text-anchor="middle" x="1386" y="-335.8" font-family="Times,serif" font-size="14.00">node #16</text>
<text text-anchor="middle" x="1386" y="-320.8" font-family="Times,serif" font-size="14.00">FEFPrePercent &lt;= 64.5</text>
<text text-anchor="middle" x="1386" y="-305.8" font-family="Times,serif" font-size="14.00">gini = 0.497</text>
<text text-anchor="middle" x="1386" y="-290.8" font-family="Times,serif" font-size="14.00">samples = 76</text>
<text text-anchor="middle" x="1386" y="-275.8" font-family="Times,serif" font-size="14.00">value = [61.736, 71.971]</text>
<text text-anchor="middle" x="1386" y="-260.8" font-family="Times,serif" font-size="14.00">class = Obstructive</text>
</g>
<!-- 10&#45;&gt;16 -->
<g id="edge16" class="edge">
<title>10&#45;&gt;16</title>
<path fill="none" stroke="black" d="M1031.77,-405.54C1105.25,-384.27 1204.27,-355.61 1278.93,-333.99"/>
<polygon fill="black" stroke="black" points="1280.21,-337.27 1288.84,-331.13 1278.26,-330.54 1280.21,-337.27"/>
</g>
<!-- 12 -->
<g id="node13" class="node">
<title>12</title>
<polygon fill="none" stroke="black" points="982,-217 794,-217 794,-119 982,-119 982,-217"/>
<text text-anchor="middle" x="888" y="-201.8" font-family="Times,serif" font-size="14.00">node #12</text>
<text text-anchor="middle" x="888" y="-186.8" font-family="Times,serif" font-size="14.00">FEV1PostVal &lt;= 1.005</text>
<text text-anchor="middle" x="888" y="-171.8" font-family="Times,serif" font-size="14.00">gini = 0.478</text>
<text text-anchor="middle" x="888" y="-156.8" font-family="Times,serif" font-size="14.00">samples = 13</text>
<text text-anchor="middle" x="888" y="-141.8" font-family="Times,serif" font-size="14.00">value = [13.096, 8.594]</text>
<text text-anchor="middle" x="888" y="-126.8" font-family="Times,serif" font-size="14.00">class = Non&#45;obstructive</text>
</g>
<!-- 11&#45;&gt;12 -->
<g id="edge12" class="edge">
<title>11&#45;&gt;12</title>
<path fill="none" stroke="black" d="M914.72,-252.97C912.03,-244.51 909.2,-235.62 906.43,-226.92"/>
<polygon fill="black" stroke="black" points="909.71,-225.68 903.34,-217.21 903.04,-227.8 909.71,-225.68"/>
</g>
<!-- 15 -->
<g id="node16" class="node">
<title>15</title>
<polygon fill="none" stroke="black" points="1188,-209.5 1000,-209.5 1000,-126.5 1188,-126.5 1188,-209.5"/>
<text text-anchor="middle" x="1094" y="-194.3" font-family="Times,serif" font-size="14.00">node #15</text>
<text text-anchor="middle" x="1094" y="-179.3" font-family="Times,serif" font-size="14.00">gini = &#45;0.0</text>
<text text-anchor="middle" x="1094" y="-164.3" font-family="Times,serif" font-size="14.00">samples = 47</text>
<text text-anchor="middle" x="1094" y="-149.3" font-family="Times,serif" font-size="14.00">value = [81.379, 0.0]</text>
<text text-anchor="middle" x="1094" y="-134.3" font-family="Times,serif" font-size="14.00">class = Non&#45;obstructive</text>
</g>
<!-- 11&#45;&gt;15 -->
<g id="edge15" class="edge">
<title>11&#45;&gt;15</title>
<path fill="none" stroke="black" d="M989.67,-252.97C1004.59,-240.97 1020.57,-228.1 1035.43,-216.14"/>
<polygon fill="black" stroke="black" points="1037.96,-218.6 1043.55,-209.6 1033.57,-213.15 1037.96,-218.6"/>
</g>
<!-- 13 -->
<g id="node14" class="node">
<title>13</title>
<polygon fill="none" stroke="black" points="958,-83 770,-83 770,0 958,0 958,-83"/>
<text text-anchor="middle" x="864" y="-67.8" font-family="Times,serif" font-size="14.00">node #13</text>
<text text-anchor="middle" x="864" y="-52.8" font-family="Times,serif" font-size="14.00">gini = 0.0</text>
<text text-anchor="middle" x="864" y="-37.8" font-family="Times,serif" font-size="14.00">samples = 5</text>
<text text-anchor="middle" x="864" y="-22.8" font-family="Times,serif" font-size="14.00">value = [7.483, 0.0]</text>
<text text-anchor="middle" x="864" y="-7.8" font-family="Times,serif" font-size="14.00">class = Non&#45;obstructive</text>
</g>
<!-- 12&#45;&gt;13 -->
<g id="edge13" class="edge">
<title>12&#45;&gt;13</title>
<path fill="none" stroke="black" d="M878.72,-118.87C877.09,-110.41 875.39,-101.58 873.75,-93.06"/>
<polygon fill="black" stroke="black" points="877.18,-92.39 871.85,-83.23 870.31,-93.71 877.18,-92.39"/>
</g>
<!-- 14 -->
<g id="node15" class="node">
<title>14</title>
<polygon fill="none" stroke="black" points="1152,-83 976,-83 976,0 1152,0 1152,-83"/>
<text text-anchor="middle" x="1064" y="-67.8" font-family="Times,serif" font-size="14.00">node #14</text>
<text text-anchor="middle" x="1064" y="-52.8" font-family="Times,serif" font-size="14.00">gini = 0.478</text>
<text text-anchor="middle" x="1064" y="-37.8" font-family="Times,serif" font-size="14.00">samples = 8</text>
<text text-anchor="middle" x="1064" y="-22.8" font-family="Times,serif" font-size="14.00">value = [5.612, 8.594]</text>
<text text-anchor="middle" x="1064" y="-7.8" font-family="Times,serif" font-size="14.00">class = Obstructive</text>
</g>
<!-- 12&#45;&gt;14 -->
<g id="edge14" class="edge">
<title>12&#45;&gt;14</title>
<path fill="none" stroke="black" d="M956.05,-118.87C969.9,-109.06 984.46,-98.77 998.24,-89.02"/>
<polygon fill="black" stroke="black" points="1000.56,-91.66 1006.7,-83.03 996.52,-85.95 1000.56,-91.66"/>
</g>
<!-- 17 -->
<g id="node18" class="node">
<title>17</title>
<polygon fill="none" stroke="black" points="1489,-217 1283,-217 1283,-119 1489,-119 1489,-217"/>
<text text-anchor="middle" x="1386" y="-201.8" font-family="Times,serif" font-size="14.00">node #17</text>
<text text-anchor="middle" x="1386" y="-186.8" font-family="Times,serif" font-size="14.00">FEV1PostPercent &lt;= 82.0</text>
<text text-anchor="middle" x="1386" y="-171.8" font-family="Times,serif" font-size="14.00">gini = 0.256</text>
<text text-anchor="middle" x="1386" y="-156.8" font-family="Times,serif" font-size="14.00">samples = 38</text>
<text text-anchor="middle" x="1386" y="-141.8" font-family="Times,serif" font-size="14.00">value = [9.354, 52.635]</text>
<text text-anchor="middle" x="1386" y="-126.8" font-family="Times,serif" font-size="14.00">class = Obstructive</text>
</g>
<!-- 16&#45;&gt;17 -->
<g id="edge17" class="edge">
<title>16&#45;&gt;17</title>
<path fill="none" stroke="black" d="M1386,-252.97C1386,-244.69 1386,-236 1386,-227.48"/>
<polygon fill="black" stroke="black" points="1389.5,-227.21 1386,-217.21 1382.5,-227.21 1389.5,-227.21"/>
</g>
<!-- 20 -->
<g id="node21" class="node">
<title>20</title>
<polygon fill="none" stroke="black" points="1758.5,-217 1561.5,-217 1561.5,-119 1758.5,-119 1758.5,-217"/>
<text text-anchor="middle" x="1660" y="-201.8" font-family="Times,serif" font-size="14.00">node #20</text>
<text text-anchor="middle" x="1660" y="-186.8" font-family="Times,serif" font-size="14.00">FVCPostPercent &lt;= 80.5</text>
<text text-anchor="middle" x="1660" y="-171.8" font-family="Times,serif" font-size="14.00">gini = 0.394</text>
<text text-anchor="middle" x="1660" y="-156.8" font-family="Times,serif" font-size="14.00">samples = 38</text>
<text text-anchor="middle" x="1660" y="-141.8" font-family="Times,serif" font-size="14.00">value = [52.382, 19.335]</text>
<text text-anchor="middle" x="1660" y="-126.8" font-family="Times,serif" font-size="14.00">class = Non&#45;obstructive</text>
</g>
<!-- 16&#45;&gt;20 -->
<g id="edge20" class="edge">
<title>16&#45;&gt;20</title>
<path fill="none" stroke="black" d="M1483.37,-254.09C1505.55,-243.41 1529.23,-232 1551.82,-221.11"/>
<polygon fill="black" stroke="black" points="1553.6,-224.14 1561.09,-216.65 1550.56,-217.84 1553.6,-224.14"/>
</g>
<!-- 18 -->
<g id="node19" class="node">
<title>18</title>
<polygon fill="none" stroke="black" points="1354.5,-83 1169.5,-83 1169.5,0 1354.5,0 1354.5,-83"/>
<text text-anchor="middle" x="1262" y="-67.8" font-family="Times,serif" font-size="14.00">node #18</text>
<text text-anchor="middle" x="1262" y="-52.8" font-family="Times,serif" font-size="14.00">gini = 0.186</text>
<text text-anchor="middle" x="1262" y="-37.8" font-family="Times,serif" font-size="14.00">samples = 31</text>
<text text-anchor="middle" x="1262" y="-22.8" font-family="Times,serif" font-size="14.00">value = [5.612, 48.339]</text>
<text text-anchor="middle" x="1262" y="-7.8" font-family="Times,serif" font-size="14.00">class = Obstructive</text>
</g>
<!-- 17&#45;&gt;18 -->
<g id="edge18" class="edge">
<title>17&#45;&gt;18</title>
<path fill="none" stroke="black" d="M1338.06,-118.87C1328.81,-109.58 1319.12,-99.85 1309.87,-90.56"/>
<polygon fill="black" stroke="black" points="1312.1,-87.85 1302.57,-83.23 1307.14,-92.79 1312.1,-87.85"/>
</g>
<!-- 19 -->
<g id="node20" class="node">
<title>19</title>
<polygon fill="none" stroke="black" points="1548,-83 1372,-83 1372,0 1548,0 1548,-83"/>
<text text-anchor="middle" x="1460" y="-67.8" font-family="Times,serif" font-size="14.00">node #19</text>
<text text-anchor="middle" x="1460" y="-52.8" font-family="Times,serif" font-size="14.00">gini = 0.498</text>
<text text-anchor="middle" x="1460" y="-37.8" font-family="Times,serif" font-size="14.00">samples = 7</text>
<text text-anchor="middle" x="1460" y="-22.8" font-family="Times,serif" font-size="14.00">value = [3.742, 4.297]</text>
<text text-anchor="middle" x="1460" y="-7.8" font-family="Times,serif" font-size="14.00">class = Obstructive</text>
</g>
<!-- 17&#45;&gt;19 -->
<g id="edge19" class="edge">
<title>17&#45;&gt;19</title>
<path fill="none" stroke="black" d="M1414.61,-118.87C1419.86,-110.04 1425.34,-100.81 1430.61,-91.95"/>
<polygon fill="black" stroke="black" points="1433.69,-93.62 1435.79,-83.23 1427.67,-90.04 1433.69,-93.62"/>
</g>
<!-- 21 -->
<g id="node22" class="node">
<title>21</title>
<polygon fill="none" stroke="black" points="1754,-83 1566,-83 1566,0 1754,0 1754,-83"/>
<text text-anchor="middle" x="1660" y="-67.8" font-family="Times,serif" font-size="14.00">node #21</text>
<text text-anchor="middle" x="1660" y="-52.8" font-family="Times,serif" font-size="14.00">gini = 0.191</text>
<text text-anchor="middle" x="1660" y="-37.8" font-family="Times,serif" font-size="14.00">samples = 26</text>
<text text-anchor="middle" x="1660" y="-22.8" font-family="Times,serif" font-size="14.00">value = [44.899, 5.371]</text>
<text text-anchor="middle" x="1660" y="-7.8" font-family="Times,serif" font-size="14.00">class = Non&#45;obstructive</text>
</g>
<!-- 20&#45;&gt;21 -->
<g id="edge21" class="edge">
<title>20&#45;&gt;21</title>
<path fill="none" stroke="black" d="M1660,-118.87C1660,-110.5 1660,-101.77 1660,-93.33"/>
<polygon fill="black" stroke="black" points="1663.5,-93.23 1660,-83.23 1656.5,-93.23 1663.5,-93.23"/>
</g>
<!-- 22 -->
<g id="node23" class="node">
<title>22</title>
<polygon fill="none" stroke="black" points="1957.5,-83 1772.5,-83 1772.5,0 1957.5,0 1957.5,-83"/>
<text text-anchor="middle" x="1865" y="-67.8" font-family="Times,serif" font-size="14.00">node #22</text>
<text text-anchor="middle" x="1865" y="-52.8" font-family="Times,serif" font-size="14.00">gini = 0.454</text>
<text text-anchor="middle" x="1865" y="-37.8" font-family="Times,serif" font-size="14.00">samples = 12</text>
<text text-anchor="middle" x="1865" y="-22.8" font-family="Times,serif" font-size="14.00">value = [7.483, 13.965]</text>
<text text-anchor="middle" x="1865" y="-7.8" font-family="Times,serif" font-size="14.00">class = Obstructive</text>
</g>
<!-- 20&#45;&gt;22 -->
<g id="edge22" class="edge">
<title>20&#45;&gt;22</title>
<path fill="none" stroke="black" d="M1739.26,-118.87C1755.7,-108.88 1772.99,-98.38 1789.31,-88.47"/>
<polygon fill="black" stroke="black" points="1791.53,-91.21 1798.26,-83.03 1787.9,-85.23 1791.53,-91.21"/>
</g>
</g>
</svg>
