<?xml version="1.0" encoding="UTF-8" standalone="no"?>
<!DOCTYPE svg PUBLIC "-//W3C//DTD SVG 1.1//EN"
 "http://www.w3.org/Graphics/SVG/1.1/DTD/svg11.dtd">
<!-- Generated by graphviz version 2.43.0 (0)
 -->
<!-- Title: Tree Pages: 1 -->
<svg width="1399pt" height="627pt"
 viewBox="0.00 0.00 1399.00 627.00" xmlns="http://www.w3.org/2000/svg" xmlns:xlink="http://www.w3.org/1999/xlink">
<g id="graph0" class="graph" transform="scale(1 1) rotate(0) translate(4 623)">
<title>Tree</title>
<polygon fill="white" stroke="transparent" points="-4,4 -4,-623 1395,-623 1395,4 -4,4"/>
<!-- 0 -->
<g id="node1" class="node">
<title>0</title>
<polygon fill="none" stroke="black" points="887.5,-619 690.5,-619 690.5,-521 887.5,-521 887.5,-619"/>
<text text-anchor="middle" x="789" y="-603.8" font-family="Times,serif" font-size="14.00">node #0</text>
<text text-anchor="middle" x="789" y="-588.8" font-family="Times,serif" font-size="14.00">FEFPostPercent &lt;= 81.5</text>
<text text-anchor="middle" x="789" y="-573.8" font-family="Times,serif" font-size="14.00">gini = 0.5</text>
<text text-anchor="middle" x="789" y="-558.8" font-family="Times,serif" font-size="14.00">samples = 197</text>
<text text-anchor="middle" x="789" y="-543.8" font-family="Times,serif" font-size="14.00">value = [166.5, 166.5]</text>
<text text-anchor="middle" x="789" y="-528.8" font-family="Times,serif" font-size="14.00">class = Non&#45;obstructive</text>
</g>
<!-- 1 -->
<g id="node2" class="node">
<title>1</title>
<polygon fill="none" stroke="black" points="693.5,-485 490.5,-485 490.5,-387 693.5,-387 693.5,-485"/>
<text text-anchor="middle" x="592" y="-469.8" font-family="Times,serif" font-size="14.00">node #1</text>
<text text-anchor="middle" x="592" y="-454.8" font-family="Times,serif" font-size="14.00">FVCPostVal &lt;= 1.21</text>
<text text-anchor="middle" x="592" y="-439.8" font-family="Times,serif" font-size="14.00">gini = 0.429</text>
<text text-anchor="middle" x="592" y="-424.8" font-family="Times,serif" font-size="14.00">samples = 132</text>
<text text-anchor="middle" x="592" y="-409.8" font-family="Times,serif" font-size="14.00">value = [70.257, 155.053]</text>
<text text-anchor="middle" x="592" y="-394.8" font-family="Times,serif" font-size="14.00">class = Obstructive</text>
</g>
<!-- 0&#45;&gt;1 -->
<g id="edge1" class="edge">
<title>0&#45;&gt;1</title>
<path fill="none" stroke="black" d="M717.32,-520.97C702.79,-511.24 687.42,-500.93 672.6,-491.01"/>
<polygon fill="black" stroke="black" points="674.21,-487.87 663.96,-485.21 670.31,-493.69 674.21,-487.87"/>
<text text-anchor="middle" x="668.8" y="-506.04" font-family="Times,serif" font-size="14.00">True</text>
</g>
<!-- 12 -->
<g id="node13" class="node">
<title>12</title>
<polygon fill="none" stroke="black" points="995,-485 801,-485 801,-387 995,-387 995,-485"/>
<text text-anchor="middle" x="898" y="-469.8" font-family="Times,serif" font-size="14.00">node #12</text>
<text text-anchor="middle" x="898" y="-454.8" font-family="Times,serif" font-size="14.00">FVCPostVal &lt;= 4.285</text>
<text text-anchor="middle" x="898" y="-439.8" font-family="Times,serif" font-size="14.00">gini = 0.19</text>
<text text-anchor="middle" x="898" y="-424.8" font-family="Times,serif" font-size="14.00">samples = 65</text>
<text text-anchor="middle" x="898" y="-409.8" font-family="Times,serif" font-size="14.00">value = [96.243, 11.447]</text>
<text text-anchor="middle" x="898" y="-394.8" font-family="Times,serif" font-size="14.00">class = Non&#45;obstructive</text>
</g>
<!-- 0&#45;&gt;12 -->
<g id="edge12" class="edge">
<title>0&#45;&gt;12</title>
<path fill="none" stroke="black" d="M828.66,-520.97C836.17,-511.87 844.09,-502.28 851.79,-492.96"/>
<polygon fill="black" stroke="black" points="854.52,-495.15 858.19,-485.21 849.12,-490.7 854.52,-495.15"/>
<text text-anchor="middle" x="860.56" y="-506.4" font-family="Times,serif" font-size="14.00">False</text>
</g>
<!-- 2 -->
<g id="node3" class="node">
<title>2</title>
<polygon fill="none" stroke="black" points="383.5,-351 186.5,-351 186.5,-253 383.5,-253 383.5,-351"/>
<text text-anchor="middle" x="285" y="-335.8" font-family="Times,serif" font-size="14.00">node #2</text>
<text text-anchor="middle" x="285" y="-320.8" font-family="Times,serif" font-size="14.00">FVCPostPercent &lt;= 62.0</text>
<text text-anchor="middle" x="285" y="-305.8" font-family="Times,serif" font-size="14.00">gini = 0.232</text>
<text text-anchor="middle" x="285" y="-290.8" font-family="Times,serif" font-size="14.00">samples = 15</text>
<text text-anchor="middle" x="285" y="-275.8" font-family="Times,serif" font-size="14.00">value = [20.211, 3.122]</text>
<text text-anchor="middle" x="285" y="-260.8" font-family="Times,serif" font-size="14.00">class = Non&#45;obstructive</text>
</g>
<!-- 1&#45;&gt;2 -->
<g id="edge2" class="edge">
<title>1&#45;&gt;2</title>
<path fill="none" stroke="black" d="M490.2,-391.23C458.98,-377.81 424.54,-363 392.93,-349.41"/>
<polygon fill="black" stroke="black" points="394.23,-346.15 383.66,-345.42 391.46,-352.58 394.23,-346.15"/>
</g>
<!-- 5 -->
<g id="node6" class="node">
<title>5</title>
<polygon fill="none" stroke="black" points="693.5,-351 490.5,-351 490.5,-253 693.5,-253 693.5,-351"/>
<text text-anchor="middle" x="592" y="-335.8" font-family="Times,serif" font-size="14.00">node #5</text>
<text text-anchor="middle" x="592" y="-320.8" font-family="Times,serif" font-size="14.00">FEFPostVal &lt;= 1.3</text>
<text text-anchor="middle" x="592" y="-305.8" font-family="Times,serif" font-size="14.00">gini = 0.373</text>
<text text-anchor="middle" x="592" y="-290.8" font-family="Times,serif" font-size="14.00">samples = 117</text>
<text text-anchor="middle" x="592" y="-275.8" font-family="Times,serif" font-size="14.00">value = [50.046, 151.931]</text>
<text text-anchor="middle" x="592" y="-260.8" font-family="Times,serif" font-size="14.00">class = Obstructive</text>
</g>
<!-- 1&#45;&gt;5 -->
<g id="edge5" class="edge">
<title>1&#45;&gt;5</title>
<path fill="none" stroke="black" d="M592,-386.97C592,-378.69 592,-370 592,-361.48"/>
<polygon fill="black" stroke="black" points="595.5,-361.21 592,-351.21 588.5,-361.21 595.5,-361.21"/>
</g>
<!-- 3 -->
<g id="node4" class="node">
<title>3</title>
<polygon fill="none" stroke="black" points="188,-209.5 0,-209.5 0,-126.5 188,-126.5 188,-209.5"/>
<text text-anchor="middle" x="94" y="-194.3" font-family="Times,serif" font-size="14.00">node #3</text>
<text text-anchor="middle" x="94" y="-179.3" font-family="Times,serif" font-size="14.00">gini = 0.0</text>
<text text-anchor="middle" x="94" y="-164.3" font-family="Times,serif" font-size="14.00">samples = 13</text>
<text text-anchor="middle" x="94" y="-149.3" font-family="Times,serif" font-size="14.00">value = [20.211, 0.0]</text>
<text text-anchor="middle" x="94" y="-134.3" font-family="Times,serif" font-size="14.00">class = Non&#45;obstructive</text>
</g>
<!-- 2&#45;&gt;3 -->
<g id="edge3" class="edge">
<title>2&#45;&gt;3</title>
<path fill="none" stroke="black" d="M215.5,-252.97C197.81,-240.75 178.83,-227.63 161.26,-215.48"/>
<polygon fill="black" stroke="black" points="162.97,-212.41 152.75,-209.6 158.99,-218.17 162.97,-212.41"/>
</g>
<!-- 4 -->
<g id="node5" class="node">
<title>4</title>
<polygon fill="none" stroke="black" points="364,-209.5 206,-209.5 206,-126.5 364,-126.5 364,-209.5"/>
<text text-anchor="middle" x="285" y="-194.3" font-family="Times,serif" font-size="14.00">node #4</text>
<text text-anchor="middle" x="285" y="-179.3" font-family="Times,serif" font-size="14.00">gini = &#45;0.0</text>
<text text-anchor="middle" x="285" y="-164.3" font-family="Times,serif" font-size="14.00">samples = 2</text>
<text text-anchor="middle" x="285" y="-149.3" font-family="Times,serif" font-size="14.00">value = [0.0, 3.122]</text>
<text text-anchor="middle" x="285" y="-134.3" font-family="Times,serif" font-size="14.00">class = Obstructive</text>
</g>
<!-- 2&#45;&gt;4 -->
<g id="edge4" class="edge">
<title>2&#45;&gt;4</title>
<path fill="none" stroke="black" d="M285,-252.97C285,-242.25 285,-230.84 285,-219.99"/>
<polygon fill="black" stroke="black" points="288.5,-219.82 285,-209.82 281.5,-219.82 288.5,-219.82"/>
</g>
<!-- 6 -->
<g id="node7" class="node">
<title>6</title>
<polygon fill="none" stroke="black" points="573.5,-217 382.5,-217 382.5,-119 573.5,-119 573.5,-217"/>
<text text-anchor="middle" x="478" y="-201.8" font-family="Times,serif" font-size="14.00">node #6</text>
<text text-anchor="middle" x="478" y="-186.8" font-family="Times,serif" font-size="14.00">FVCPrePercent &lt;= 33.0</text>
<text text-anchor="middle" x="478" y="-171.8" font-family="Times,serif" font-size="14.00">gini = 0.116</text>
<text text-anchor="middle" x="478" y="-156.8" font-family="Times,serif" font-size="14.00">samples = 58</text>
<text text-anchor="middle" x="478" y="-141.8" font-family="Times,serif" font-size="14.00">value = [5.775, 87.413]</text>
<text text-anchor="middle" x="478" y="-126.8" font-family="Times,serif" font-size="14.00">class = Obstructive</text>
</g>
<!-- 5&#45;&gt;6 -->
<g id="edge6" class="edge">
<title>5&#45;&gt;6</title>
<path fill="none" stroke="black" d="M550.52,-252.97C542.66,-243.87 534.38,-234.28 526.33,-224.96"/>
<polygon fill="black" stroke="black" points="528.82,-222.49 519.64,-217.21 523.53,-227.07 528.82,-222.49"/>
</g>
<!-- 9 -->
<g id="node10" class="node">
<title>9</title>
<polygon fill="none" stroke="black" points="786,-217 592,-217 592,-119 786,-119 786,-217"/>
<text text-anchor="middle" x="689" y="-201.8" font-family="Times,serif" font-size="14.00">node #9</text>
<text text-anchor="middle" x="689" y="-186.8" font-family="Times,serif" font-size="14.00">FVCPostVal &lt;= 2.955</text>
<text text-anchor="middle" x="689" y="-171.8" font-family="Times,serif" font-size="14.00">gini = 0.483</text>
<text text-anchor="middle" x="689" y="-156.8" font-family="Times,serif" font-size="14.00">samples = 59</text>
<text text-anchor="middle" x="689" y="-141.8" font-family="Times,serif" font-size="14.00">value = [44.272, 64.519]</text>
<text text-anchor="middle" x="689" y="-126.8" font-family="Times,serif" font-size="14.00">class = Obstructive</text>
</g>
<!-- 5&#45;&gt;9 -->
<g id="edge9" class="edge">
<title>5&#45;&gt;9</title>
<path fill="none" stroke="black" d="M627.29,-252.97C633.85,-244.05 640.75,-234.66 647.47,-225.52"/>
<polygon fill="black" stroke="black" points="650.47,-227.34 653.57,-217.21 644.83,-223.2 650.47,-227.34"/>
</g>
<!-- 7 -->
<g id="node8" class="node">
<title>7</title>
<polygon fill="none" stroke="black" points="368,-83 180,-83 180,0 368,0 368,-83"/>
<text text-anchor="middle" x="274" y="-67.8" font-family="Times,serif" font-size="14.00">node #7</text>
<text text-anchor="middle" x="274" y="-52.8" font-family="Times,serif" font-size="14.00">gini = 0.0</text>
<text text-anchor="middle" x="274" y="-37.8" font-family="Times,serif" font-size="14.00">samples = 1</text>
<text text-anchor="middle" x="274" y="-22.8" font-family="Times,serif" font-size="14.00">value = [2.887, 0.0]</text>
<text text-anchor="middle" x="274" y="-7.8" font-family="Times,serif" font-size="14.00">class = Non&#45;obstructive</text>
</g>
<!-- 6&#45;&gt;7 -->
<g id="edge7" class="edge">
<title>6&#45;&gt;7</title>
<path fill="none" stroke="black" d="M399.13,-118.87C382.76,-108.88 365.56,-98.38 349.32,-88.47"/>
<polygon fill="black" stroke="black" points="350.77,-85.25 340.41,-83.03 347.13,-91.23 350.77,-85.25"/>
</g>
<!-- 8 -->
<g id="node9" class="node">
<title>8</title>
<polygon fill="none" stroke="black" points="571.5,-83 386.5,-83 386.5,0 571.5,0 571.5,-83"/>
<text text-anchor="middle" x="479" y="-67.8" font-family="Times,serif" font-size="14.00">node #8</text>
<text text-anchor="middle" x="479" y="-52.8" font-family="Times,serif" font-size="14.00">gini = 0.062</text>
<text text-anchor="middle" x="479" y="-37.8" font-family="Times,serif" font-size="14.00">samples = 57</text>
<text text-anchor="middle" x="479" y="-22.8" font-family="Times,serif" font-size="14.00">value = [2.887, 87.413]</text>
<text text-anchor="middle" x="479" y="-7.8" font-family="Times,serif" font-size="14.00">class = Obstructive</text>
</g>
<!-- 6&#45;&gt;8 -->
<g id="edge8" class="edge">
<title>6&#45;&gt;8</title>
<path fill="none" stroke="black" d="M478.39,-118.87C478.45,-110.5 478.52,-101.77 478.59,-93.33"/>
<polygon fill="black" stroke="black" points="482.09,-93.26 478.67,-83.23 475.09,-93.2 482.09,-93.26"/>
</g>
<!-- 10 -->
<g id="node11" class="node">
<title>10</title>
<polygon fill="none" stroke="black" points="781,-83 593,-83 593,0 781,0 781,-83"/>
<text text-anchor="middle" x="687" y="-67.8" font-family="Times,serif" font-size="14.00">node #10</text>
<text text-anchor="middle" x="687" y="-52.8" font-family="Times,serif" font-size="14.00">gini = 0.496</text>
<text text-anchor="middle" x="687" y="-37.8" font-family="Times,serif" font-size="14.00">samples = 42</text>
<text text-anchor="middle" x="687" y="-22.8" font-family="Times,serif" font-size="14.00">value = [39.46, 33.3]</text>
<text text-anchor="middle" x="687" y="-7.8" font-family="Times,serif" font-size="14.00">class = Non&#45;obstructive</text>
</g>
<!-- 9&#45;&gt;10 -->
<g id="edge10" class="edge">
<title>9&#45;&gt;10</title>
<path fill="none" stroke="black" d="M688.23,-118.87C688.09,-110.5 687.95,-101.77 687.82,-93.33"/>
<polygon fill="black" stroke="black" points="691.31,-93.17 687.65,-83.23 684.32,-93.29 691.31,-93.17"/>
</g>
<!-- 11 -->
<g id="node12" class="node">
<title>11</title>
<polygon fill="none" stroke="black" points="984.5,-83 799.5,-83 799.5,0 984.5,0 984.5,-83"/>
<text text-anchor="middle" x="892" y="-67.8" font-family="Times,serif" font-size="14.00">node #11</text>
<text text-anchor="middle" x="892" y="-52.8" font-family="Times,serif" font-size="14.00">gini = 0.231</text>
<text text-anchor="middle" x="892" y="-37.8" font-family="Times,serif" font-size="14.00">samples = 17</text>
<text text-anchor="middle" x="892" y="-22.8" font-family="Times,serif" font-size="14.00">value = [4.812, 31.219]</text>
<text text-anchor="middle" x="892" y="-7.8" font-family="Times,serif" font-size="14.00">class = Obstructive</text>
</g>
<!-- 9&#45;&gt;11 -->
<g id="edge11" class="edge">
<title>9&#45;&gt;11</title>
<path fill="none" stroke="black" d="M767.49,-118.87C783.77,-108.88 800.89,-98.38 817.05,-88.47"/>
<polygon fill="black" stroke="black" points="819.22,-91.24 825.91,-83.03 815.56,-85.28 819.22,-91.24"/>
</g>
<!-- 13 -->
<g id="node14" class="node">
<title>13</title>
<polygon fill="none" stroke="black" points="992,-351 804,-351 804,-253 992,-253 992,-351"/>
<text text-anchor="middle" x="898" y="-335.8" font-family="Times,serif" font-size="14.00">node #13</text>
<text text-anchor="middle" x="898" y="-320.8" font-family="Times,serif" font-size="14.00">FEV1PostVal &lt;= 1.935</text>
<text text-anchor="middle" x="898" y="-305.8" font-family="Times,serif" font-size="14.00">gini = 0.147</text>
<text text-anchor="middle" x="898" y="-290.8" font-family="Times,serif" font-size="14.00">samples = 64</text>
<text text-anchor="middle" x="898" y="-275.8" font-family="Times,serif" font-size="14.00">value = [96.243, 8.325]</text>
<text text-anchor="middle" x="898" y="-260.8" font-family="Times,serif" font-size="14.00">class = Non&#45;obstructive</text>
</g>
<!-- 12&#45;&gt;13 -->
<g id="edge13" class="edge">
<title>12&#45;&gt;13</title>
<path fill="none" stroke="black" d="M898,-386.97C898,-378.69 898,-370 898,-361.48"/>
<polygon fill="black" stroke="black" points="901.5,-361.21 898,-351.21 894.5,-361.21 901.5,-361.21"/>
</g>
<!-- 18 -->
<g id="node19" class="node">
<title>18</title>
<polygon fill="none" stroke="black" points="1168,-343.5 1010,-343.5 1010,-260.5 1168,-260.5 1168,-343.5"/>
<text text-anchor="middle" x="1089" y="-328.3" font-family="Times,serif" font-size="14.00">node #18</text>
<text text-anchor="middle" x="1089" y="-313.3" font-family="Times,serif" font-size="14.00">gini = 0.0</text>
<text text-anchor="middle" x="1089" y="-298.3" font-family="Times,serif" font-size="14.00">samples = 1</text>
<text text-anchor="middle" x="1089" y="-283.3" font-family="Times,serif" font-size="14.00">value = [0.0, 3.122]</text>
<text text-anchor="middle" x="1089" y="-268.3" font-family="Times,serif" font-size="14.00">class = Obstructive</text>
</g>
<!-- 12&#45;&gt;18 -->
<g id="edge18" class="edge">
<title>12&#45;&gt;18</title>
<path fill="none" stroke="black" d="M967.5,-386.97C985.19,-374.75 1004.17,-361.63 1021.74,-349.48"/>
<polygon fill="black" stroke="black" points="1024.01,-352.17 1030.25,-343.6 1020.03,-346.41 1024.01,-352.17"/>
</g>
<!-- 14 -->
<g id="node15" class="node">
<title>14</title>
<polygon fill="none" stroke="black" points="992,-209.5 804,-209.5 804,-126.5 992,-126.5 992,-209.5"/>
<text text-anchor="middle" x="898" y="-194.3" font-family="Times,serif" font-size="14.00">node #14</text>
<text text-anchor="middle" x="898" y="-179.3" font-family="Times,serif" font-size="14.00">gini = &#45;0.0</text>
<text text-anchor="middle" x="898" y="-164.3" font-family="Times,serif" font-size="14.00">samples = 42</text>
<text text-anchor="middle" x="898" y="-149.3" font-family="Times,serif" font-size="14.00">value = [62.558, 0.0]</text>
<text text-anchor="middle" x="898" y="-134.3" font-family="Times,serif" font-size="14.00">class = Non&#45;obstructive</text>
</g>
<!-- 13&#45;&gt;14 -->
<g id="edge14" class="edge">
<title>13&#45;&gt;14</title>
<path fill="none" stroke="black" d="M898,-252.97C898,-242.25 898,-230.84 898,-219.99"/>
<polygon fill="black" stroke="black" points="901.5,-219.82 898,-209.82 894.5,-219.82 901.5,-219.82"/>
</g>
<!-- 15 -->
<g id="node16" class="node">
<title>15</title>
<polygon fill="none" stroke="black" points="1198,-217 1010,-217 1010,-119 1198,-119 1198,-217"/>
<text text-anchor="middle" x="1104" y="-201.8" font-family="Times,serif" font-size="14.00">node #15</text>
<text text-anchor="middle" x="1104" y="-186.8" font-family="Times,serif" font-size="14.00">FVCPostVal &lt;= 2.45</text>
<text text-anchor="middle" x="1104" y="-171.8" font-family="Times,serif" font-size="14.00">gini = 0.318</text>
<text text-anchor="middle" x="1104" y="-156.8" font-family="Times,serif" font-size="14.00">samples = 22</text>
<text text-anchor="middle" x="1104" y="-141.8" font-family="Times,serif" font-size="14.00">value = [33.685, 8.325]</text>
<text text-anchor="middle" x="1104" y="-126.8" font-family="Times,serif" font-size="14.00">class = Non&#45;obstructive</text>
</g>
<!-- 13&#45;&gt;15 -->
<g id="edge15" class="edge">
<title>13&#45;&gt;15</title>
<path fill="none" stroke="black" d="M972.95,-252.97C988.29,-243.14 1004.52,-232.74 1020.15,-222.73"/>
<polygon fill="black" stroke="black" points="1022.23,-225.56 1028.76,-217.21 1018.45,-219.66 1022.23,-225.56"/>
</g>
<!-- 16 -->
<g id="node17" class="node">
<title>16</title>
<polygon fill="none" stroke="black" points="1185,-83 1009,-83 1009,0 1185,0 1185,-83"/>
<text text-anchor="middle" x="1097" y="-67.8" font-family="Times,serif" font-size="14.00">node #16</text>
<text text-anchor="middle" x="1097" y="-52.8" font-family="Times,serif" font-size="14.00">gini = 0.394</text>
<text text-anchor="middle" x="1097" y="-37.8" font-family="Times,serif" font-size="14.00">samples = 4</text>
<text text-anchor="middle" x="1097" y="-22.8" font-family="Times,serif" font-size="14.00">value = [1.925, 5.203]</text>
<text text-anchor="middle" x="1097" y="-7.8" font-family="Times,serif" font-size="14.00">class = Obstructive</text>
</g>
<!-- 15&#45;&gt;16 -->
<g id="edge16" class="edge">
<title>15&#45;&gt;16</title>
<path fill="none" stroke="black" d="M1101.29,-118.87C1100.82,-110.5 1100.33,-101.77 1099.86,-93.33"/>
<polygon fill="black" stroke="black" points="1103.35,-93.02 1099.29,-83.23 1096.36,-93.41 1103.35,-93.02"/>
</g>
<!-- 17 -->
<g id="node18" class="node">
<title>17</title>
<polygon fill="none" stroke="black" points="1391,-83 1203,-83 1203,0 1391,0 1391,-83"/>
<text text-anchor="middle" x="1297" y="-67.8" font-family="Times,serif" font-size="14.00">node #17</text>
<text text-anchor="middle" x="1297" y="-52.8" font-family="Times,serif" font-size="14.00">gini = 0.163</text>
<text text-anchor="middle" x="1297" y="-37.8" font-family="Times,serif" font-size="14.00">samples = 18</text>
<text text-anchor="middle" x="1297" y="-22.8" font-family="Times,serif" font-size="14.00">value = [31.76, 3.122]</text>
<text text-anchor="middle" x="1297" y="-7.8" font-family="Times,serif" font-size="14.00">class = Non&#45;obstructive</text>
</g>
<!-- 15&#45;&gt;17 -->
<g id="edge17" class="edge">
<title>15&#45;&gt;17</title>
<path fill="none" stroke="black" d="M1178.62,-118.87C1194.1,-108.88 1210.38,-98.38 1225.74,-88.47"/>
<polygon fill="black" stroke="black" points="1227.66,-91.39 1234.17,-83.03 1223.87,-85.51 1227.66,-91.39"/>
</g>
</g>
</svg>
