<?xml version="1.0" encoding="UTF-8" standalone="no"?>
<!DOCTYPE svg PUBLIC "-//W3C//DTD SVG 1.1//EN"
 "http://www.w3.org/Graphics/SVG/1.1/DTD/svg11.dtd">
<!-- Generated by graphviz version 2.43.0 (0)
 -->
<!-- Title: Tree Pages: 1 -->
<svg width="2354pt" height="627pt"
 viewBox="0.00 0.00 2354.00 627.00" xmlns="http://www.w3.org/2000/svg" xmlns:xlink="http://www.w3.org/1999/xlink">
<g id="graph0" class="graph" transform="scale(1 1) rotate(0) translate(4 623)">
<title>Tree</title>
<polygon fill="white" stroke="transparent" points="-4,4 -4,-623 2350,-623 2350,4 -4,4"/>
<!-- 0 -->
<g id="node1" class="node">
<title>0</title>
<polygon fill="none" stroke="black" points="1161,-619 985,-619 985,-521 1161,-521 1161,-619"/>
<text text-anchor="middle" x="1073" y="-603.8" font-family="Times,serif" font-size="14.00">node #0</text>
<text text-anchor="middle" x="1073" y="-588.8" font-family="Times,serif" font-size="14.00">FEFPostVal &lt;= 1.485</text>
<text text-anchor="middle" x="1073" y="-573.8" font-family="Times,serif" font-size="14.00">gini = 0.5</text>
<text text-anchor="middle" x="1073" y="-558.8" font-family="Times,serif" font-size="14.00">samples = 207</text>
<text text-anchor="middle" x="1073" y="-543.8" font-family="Times,serif" font-size="14.00">value = [166.5, 166.5]</text>
<text text-anchor="middle" x="1073" y="-528.8" font-family="Times,serif" font-size="14.00">class = Obstructive</text>
</g>
<!-- 1 -->
<g id="node2" class="node">
<title>1</title>
<polygon fill="none" stroke="black" points="882.5,-485 679.5,-485 679.5,-387 882.5,-387 882.5,-485"/>
<text text-anchor="middle" x="781" y="-469.8" font-family="Times,serif" font-size="14.00">node #1</text>
<text text-anchor="middle" x="781" y="-454.8" font-family="Times,serif" font-size="14.00">FEV1PrePercent &lt;= 40.5</text>
<text text-anchor="middle" x="781" y="-439.8" font-family="Times,serif" font-size="14.00">gini = 0.306</text>
<text text-anchor="middle" x="781" y="-424.8" font-family="Times,serif" font-size="14.00">samples = 88</text>
<text text-anchor="middle" x="781" y="-409.8" font-family="Times,serif" font-size="14.00">value = [26.558, 114.591]</text>
<text text-anchor="middle" x="781" y="-394.8" font-family="Times,serif" font-size="14.00">class = Obstructive</text>
</g>
<!-- 0&#45;&gt;1 -->
<g id="edge1" class="edge">
<title>0&#45;&gt;1</title>
<path fill="none" stroke="black" d="M984.99,-529.22C955.78,-516.01 922.86,-501.13 892.13,-487.24"/>
<polygon fill="black" stroke="black" points="893.22,-483.89 882.67,-482.96 890.34,-490.27 893.22,-483.89"/>
<text text-anchor="middle" x="891.49" y="-502.65" font-family="Times,serif" font-size="14.00">True</text>
</g>
<!-- 14 -->
<g id="node15" class="node">
<title>14</title>
<polygon fill="none" stroke="black" points="1511.5,-485 1308.5,-485 1308.5,-387 1511.5,-387 1511.5,-485"/>
<text text-anchor="middle" x="1410" y="-469.8" font-family="Times,serif" font-size="14.00">node #14</text>
<text text-anchor="middle" x="1410" y="-454.8" font-family="Times,serif" font-size="14.00">FVCPostVal &lt;= 2.165</text>
<text text-anchor="middle" x="1410" y="-439.8" font-family="Times,serif" font-size="14.00">gini = 0.395</text>
<text text-anchor="middle" x="1410" y="-424.8" font-family="Times,serif" font-size="14.00">samples = 119</text>
<text text-anchor="middle" x="1410" y="-409.8" font-family="Times,serif" font-size="14.00">value = [139.942, 51.909]</text>
<text text-anchor="middle" x="1410" y="-394.8" font-family="Times,serif" font-size="14.00">class = Non&#45;obstructive</text>
</g>
<!-- 0&#45;&gt;14 -->
<g id="edge14" class="edge">
<title>0&#45;&gt;14</title>
<path fill="none" stroke="black" d="M1161.1,-534.49C1203.25,-517.98 1254.17,-498.04 1298.94,-480.5"/>
<polygon fill="black" stroke="black" points="1300.36,-483.71 1308.39,-476.8 1297.8,-477.19 1300.36,-483.71"/>
<text text-anchor="middle" x="1298.38" y="-496.01" font-family="Times,serif" font-size="14.00">False</text>
</g>
<!-- 2 -->
<g id="node3" class="node">
<title>2</title>
<polygon fill="none" stroke="black" points="565.5,-351 374.5,-351 374.5,-253 565.5,-253 565.5,-351"/>
<text text-anchor="middle" x="470" y="-335.8" font-family="Times,serif" font-size="14.00">node #2</text>
<text text-anchor="middle" x="470" y="-320.8" font-family="Times,serif" font-size="14.00">FEFPrePercent &lt;= 36.0</text>
<text text-anchor="middle" x="470" y="-305.8" font-family="Times,serif" font-size="14.00">gini = 0.115</text>
<text text-anchor="middle" x="470" y="-290.8" font-family="Times,serif" font-size="14.00">samples = 41</text>
<text text-anchor="middle" x="470" y="-275.8" font-family="Times,serif" font-size="14.00">value = [4.086, 62.682]</text>
<text text-anchor="middle" x="470" y="-260.8" font-family="Times,serif" font-size="14.00">class = Obstructive</text>
</g>
<!-- 1&#45;&gt;2 -->
<g id="edge2" class="edge">
<title>1&#45;&gt;2</title>
<path fill="none" stroke="black" d="M679.17,-391.78C645.81,-377.62 608.7,-361.87 575.1,-347.61"/>
<polygon fill="black" stroke="black" points="576.3,-344.32 565.73,-343.63 573.57,-350.76 576.3,-344.32"/>
</g>
<!-- 7 -->
<g id="node8" class="node">
<title>7</title>
<polygon fill="none" stroke="black" points="879.5,-351 682.5,-351 682.5,-253 879.5,-253 879.5,-351"/>
<text text-anchor="middle" x="781" y="-335.8" font-family="Times,serif" font-size="14.00">node #7</text>
<text text-anchor="middle" x="781" y="-320.8" font-family="Times,serif" font-size="14.00">FVCPostPercent &lt;= 60.5</text>
<text text-anchor="middle" x="781" y="-305.8" font-family="Times,serif" font-size="14.00">gini = 0.422</text>
<text text-anchor="middle" x="781" y="-290.8" font-family="Times,serif" font-size="14.00">samples = 47</text>
<text text-anchor="middle" x="781" y="-275.8" font-family="Times,serif" font-size="14.00">value = [22.472, 51.909]</text>
<text text-anchor="middle" x="781" y="-260.8" font-family="Times,serif" font-size="14.00">class = Obstructive</text>
</g>
<!-- 1&#45;&gt;7 -->
<g id="edge7" class="edge">
<title>1&#45;&gt;7</title>
<path fill="none" stroke="black" d="M781,-386.97C781,-378.69 781,-370 781,-361.48"/>
<polygon fill="black" stroke="black" points="784.5,-361.21 781,-351.21 777.5,-361.21 784.5,-361.21"/>
</g>
<!-- 3 -->
<g id="node4" class="node">
<title>3</title>
<polygon fill="none" stroke="black" points="357.5,-217 172.5,-217 172.5,-119 357.5,-119 357.5,-217"/>
<text text-anchor="middle" x="265" y="-201.8" font-family="Times,serif" font-size="14.00">node #3</text>
<text text-anchor="middle" x="265" y="-186.8" font-family="Times,serif" font-size="14.00">FVCPostVal &lt;= 1.23</text>
<text text-anchor="middle" x="265" y="-171.8" font-family="Times,serif" font-size="14.00">gini = 0.032</text>
<text text-anchor="middle" x="265" y="-156.8" font-family="Times,serif" font-size="14.00">samples = 39</text>
<text text-anchor="middle" x="265" y="-141.8" font-family="Times,serif" font-size="14.00">value = [1.021, 62.682]</text>
<text text-anchor="middle" x="265" y="-126.8" font-family="Times,serif" font-size="14.00">class = Obstructive</text>
</g>
<!-- 2&#45;&gt;3 -->
<g id="edge3" class="edge">
<title>2&#45;&gt;3</title>
<path fill="none" stroke="black" d="M395.41,-252.97C380.15,-243.14 363.99,-232.74 348.44,-222.73"/>
<polygon fill="black" stroke="black" points="350.18,-219.68 339.88,-217.21 346.39,-225.57 350.18,-219.68"/>
</g>
<!-- 6 -->
<g id="node7" class="node">
<title>6</title>
<polygon fill="none" stroke="black" points="564,-209.5 376,-209.5 376,-126.5 564,-126.5 564,-209.5"/>
<text text-anchor="middle" x="470" y="-194.3" font-family="Times,serif" font-size="14.00">node #6</text>
<text text-anchor="middle" x="470" y="-179.3" font-family="Times,serif" font-size="14.00">gini = &#45;0.0</text>
<text text-anchor="middle" x="470" y="-164.3" font-family="Times,serif" font-size="14.00">samples = 2</text>
<text text-anchor="middle" x="470" y="-149.3" font-family="Times,serif" font-size="14.00">value = [3.064, 0.0]</text>
<text text-anchor="middle" x="470" y="-134.3" font-family="Times,serif" font-size="14.00">class = Non&#45;obstructive</text>
</g>
<!-- 2&#45;&gt;6 -->
<g id="edge6" class="edge">
<title>2&#45;&gt;6</title>
<path fill="none" stroke="black" d="M470,-252.97C470,-242.25 470,-230.84 470,-219.99"/>
<polygon fill="black" stroke="black" points="473.5,-219.82 470,-209.82 466.5,-219.82 473.5,-219.82"/>
</g>
<!-- 4 -->
<g id="node5" class="node">
<title>4</title>
<polygon fill="none" stroke="black" points="176,-83 0,-83 0,0 176,0 176,-83"/>
<text text-anchor="middle" x="88" y="-67.8" font-family="Times,serif" font-size="14.00">node #4</text>
<text text-anchor="middle" x="88" y="-52.8" font-family="Times,serif" font-size="14.00">gini = 0.451</text>
<text text-anchor="middle" x="88" y="-37.8" font-family="Times,serif" font-size="14.00">samples = 3</text>
<text text-anchor="middle" x="88" y="-22.8" font-family="Times,serif" font-size="14.00">value = [1.021, 1.959]</text>
<text text-anchor="middle" x="88" y="-7.8" font-family="Times,serif" font-size="14.00">class = Obstructive</text>
</g>
<!-- 3&#45;&gt;4 -->
<g id="edge4" class="edge">
<title>3&#45;&gt;4</title>
<path fill="none" stroke="black" d="M196.57,-118.87C182.63,-109.06 167.99,-98.77 154.14,-89.02"/>
<polygon fill="black" stroke="black" points="155.82,-85.92 145.62,-83.03 151.79,-91.65 155.82,-85.92"/>
</g>
<!-- 5 -->
<g id="node6" class="node">
<title>5</title>
<polygon fill="none" stroke="black" points="360.5,-83 193.5,-83 193.5,0 360.5,0 360.5,-83"/>
<text text-anchor="middle" x="277" y="-67.8" font-family="Times,serif" font-size="14.00">node #5</text>
<text text-anchor="middle" x="277" y="-52.8" font-family="Times,serif" font-size="14.00">gini = 0.0</text>
<text text-anchor="middle" x="277" y="-37.8" font-family="Times,serif" font-size="14.00">samples = 36</text>
<text text-anchor="middle" x="277" y="-22.8" font-family="Times,serif" font-size="14.00">value = [0.0, 60.724]</text>
<text text-anchor="middle" x="277" y="-7.8" font-family="Times,serif" font-size="14.00">class = Obstructive</text>
</g>
<!-- 3&#45;&gt;5 -->
<g id="edge5" class="edge">
<title>3&#45;&gt;5</title>
<path fill="none" stroke="black" d="M269.64,-118.87C270.45,-110.5 271.29,-101.77 272.1,-93.33"/>
<polygon fill="black" stroke="black" points="275.6,-93.52 273.07,-83.23 268.63,-92.85 275.6,-93.52"/>
</g>
<!-- 8 -->
<g id="node9" class="node">
<title>8</title>
<polygon fill="none" stroke="black" points="770,-217 582,-217 582,-119 770,-119 770,-217"/>
<text text-anchor="middle" x="676" y="-201.8" font-family="Times,serif" font-size="14.00">node #8</text>
<text text-anchor="middle" x="676" y="-186.8" font-family="Times,serif" font-size="14.00">FEFPostVal &lt;= 1.44</text>
<text text-anchor="middle" x="676" y="-171.8" font-family="Times,serif" font-size="14.00">gini = 0.297</text>
<text text-anchor="middle" x="676" y="-156.8" font-family="Times,serif" font-size="14.00">samples = 8</text>
<text text-anchor="middle" x="676" y="-141.8" font-family="Times,serif" font-size="14.00">value = [13.279, 2.938]</text>
<text text-anchor="middle" x="676" y="-126.8" font-family="Times,serif" font-size="14.00">class = Non&#45;obstructive</text>
</g>
<!-- 7&#45;&gt;8 -->
<g id="edge8" class="edge">
<title>7&#45;&gt;8</title>
<path fill="none" stroke="black" d="M742.8,-252.97C735.63,-243.96 728.08,-234.47 720.74,-225.24"/>
<polygon fill="black" stroke="black" points="723.32,-222.86 714.35,-217.21 717.84,-227.22 723.32,-222.86"/>
</g>
<!-- 11 -->
<g id="node12" class="node">
<title>11</title>
<polygon fill="none" stroke="black" points="973.5,-217 788.5,-217 788.5,-119 973.5,-119 973.5,-217"/>
<text text-anchor="middle" x="881" y="-201.8" font-family="Times,serif" font-size="14.00">node #11</text>
<text text-anchor="middle" x="881" y="-186.8" font-family="Times,serif" font-size="14.00">FEV1PreVal &lt;= 0.985</text>
<text text-anchor="middle" x="881" y="-171.8" font-family="Times,serif" font-size="14.00">gini = 0.266</text>
<text text-anchor="middle" x="881" y="-156.8" font-family="Times,serif" font-size="14.00">samples = 39</text>
<text text-anchor="middle" x="881" y="-141.8" font-family="Times,serif" font-size="14.00">value = [9.193, 48.971]</text>
<text text-anchor="middle" x="881" y="-126.8" font-family="Times,serif" font-size="14.00">class = Obstructive</text>
</g>
<!-- 7&#45;&gt;11 -->
<g id="edge11" class="edge">
<title>7&#45;&gt;11</title>
<path fill="none" stroke="black" d="M817.39,-252.97C824.21,-243.96 831.4,-234.47 838.39,-225.24"/>
<polygon fill="black" stroke="black" points="841.23,-227.3 844.47,-217.21 835.65,-223.07 841.23,-227.3"/>
</g>
<!-- 9 -->
<g id="node10" class="node">
<title>9</title>
<polygon fill="none" stroke="black" points="579,-83 391,-83 391,0 579,0 579,-83"/>
<text text-anchor="middle" x="485" y="-67.8" font-family="Times,serif" font-size="14.00">node #9</text>
<text text-anchor="middle" x="485" y="-52.8" font-family="Times,serif" font-size="14.00">gini = 0.128</text>
<text text-anchor="middle" x="485" y="-37.8" font-family="Times,serif" font-size="14.00">samples = 7</text>
<text text-anchor="middle" x="485" y="-22.8" font-family="Times,serif" font-size="14.00">value = [13.279, 0.979]</text>
<text text-anchor="middle" x="485" y="-7.8" font-family="Times,serif" font-size="14.00">class = Non&#45;obstructive</text>
</g>
<!-- 8&#45;&gt;9 -->
<g id="edge9" class="edge">
<title>8&#45;&gt;9</title>
<path fill="none" stroke="black" d="M602.15,-118.87C586.97,-108.97 571.02,-98.57 555.95,-88.74"/>
<polygon fill="black" stroke="black" points="557.47,-85.56 547.18,-83.03 553.65,-91.43 557.47,-85.56"/>
</g>
<!-- 10 -->
<g id="node11" class="node">
<title>10</title>
<polygon fill="none" stroke="black" points="755,-83 597,-83 597,0 755,0 755,-83"/>
<text text-anchor="middle" x="676" y="-67.8" font-family="Times,serif" font-size="14.00">node #10</text>
<text text-anchor="middle" x="676" y="-52.8" font-family="Times,serif" font-size="14.00">gini = 0.0</text>
<text text-anchor="middle" x="676" y="-37.8" font-family="Times,serif" font-size="14.00">samples = 1</text>
<text text-anchor="middle" x="676" y="-22.8" font-family="Times,serif" font-size="14.00">value = [0.0, 1.959]</text>
<text text-anchor="middle" x="676" y="-7.8" font-family="Times,serif" font-size="14.00">class = Obstructive</text>
</g>
<!-- 8&#45;&gt;10 -->
<g id="edge10" class="edge">
<title>8&#45;&gt;10</title>
<path fill="none" stroke="black" d="M676,-118.87C676,-110.5 676,-101.77 676,-93.33"/>
<polygon fill="black" stroke="black" points="679.5,-93.23 676,-83.23 672.5,-93.23 679.5,-93.23"/>
</g>
<!-- 12 -->
<g id="node13" class="node">
<title>12</title>
<polygon fill="none" stroke="black" points="961,-83 773,-83 773,0 961,0 961,-83"/>
<text text-anchor="middle" x="867" y="-67.8" font-family="Times,serif" font-size="14.00">node #12</text>
<text text-anchor="middle" x="867" y="-52.8" font-family="Times,serif" font-size="14.00">gini = 0.0</text>
<text text-anchor="middle" x="867" y="-37.8" font-family="Times,serif" font-size="14.00">samples = 1</text>
<text text-anchor="middle" x="867" y="-22.8" font-family="Times,serif" font-size="14.00">value = [2.043, 0.0]</text>
<text text-anchor="middle" x="867" y="-7.8" font-family="Times,serif" font-size="14.00">class = Non&#45;obstructive</text>
</g>
<!-- 11&#45;&gt;12 -->
<g id="edge12" class="edge">
<title>11&#45;&gt;12</title>
<path fill="none" stroke="black" d="M875.59,-118.87C874.65,-110.5 873.67,-101.77 872.72,-93.33"/>
<polygon fill="black" stroke="black" points="876.18,-92.78 871.58,-83.23 869.22,-93.56 876.18,-92.78"/>
</g>
<!-- 13 -->
<g id="node14" class="node">
<title>13</title>
<polygon fill="none" stroke="black" points="1155,-83 979,-83 979,0 1155,0 1155,-83"/>
<text text-anchor="middle" x="1067" y="-67.8" font-family="Times,serif" font-size="14.00">node #13</text>
<text text-anchor="middle" x="1067" y="-52.8" font-family="Times,serif" font-size="14.00">gini = 0.222</text>
<text text-anchor="middle" x="1067" y="-37.8" font-family="Times,serif" font-size="14.00">samples = 38</text>
<text text-anchor="middle" x="1067" y="-22.8" font-family="Times,serif" font-size="14.00">value = [7.15, 48.971]</text>
<text text-anchor="middle" x="1067" y="-7.8" font-family="Times,serif" font-size="14.00">class = Obstructive</text>
</g>
<!-- 11&#45;&gt;13 -->
<g id="edge13" class="edge">
<title>11&#45;&gt;13</title>
<path fill="none" stroke="black" d="M952.91,-118.87C967.7,-108.97 983.23,-98.57 997.91,-88.74"/>
<polygon fill="black" stroke="black" points="1000.08,-91.5 1006.45,-83.03 996.19,-85.69 1000.08,-91.5"/>
</g>
<!-- 15 -->
<g id="node16" class="node">
<title>15</title>
<polygon fill="none" stroke="black" points="1510,-351 1310,-351 1310,-253 1510,-253 1510,-351"/>
<text text-anchor="middle" x="1410" y="-335.8" font-family="Times,serif" font-size="14.00">node #15</text>
<text text-anchor="middle" x="1410" y="-320.8" font-family="Times,serif" font-size="14.00">FEV1PrePercent &lt;= 94.0</text>
<text text-anchor="middle" x="1410" y="-305.8" font-family="Times,serif" font-size="14.00">gini = 0.144</text>
<text text-anchor="middle" x="1410" y="-290.8" font-family="Times,serif" font-size="14.00">samples = 65</text>
<text text-anchor="middle" x="1410" y="-275.8" font-family="Times,serif" font-size="14.00">value = [104.19, 8.815]</text>
<text text-anchor="middle" x="1410" y="-260.8" font-family="Times,serif" font-size="14.00">class = Non&#45;obstructive</text>
</g>
<!-- 14&#45;&gt;15 -->
<g id="edge15" class="edge">
<title>14&#45;&gt;15</title>
<path fill="none" stroke="black" d="M1410,-386.97C1410,-378.69 1410,-370 1410,-361.48"/>
<polygon fill="black" stroke="black" points="1413.5,-361.21 1410,-351.21 1406.5,-361.21 1413.5,-361.21"/>
</g>
<!-- 20 -->
<g id="node21" class="node">
<title>20</title>
<polygon fill="none" stroke="black" points="1848,-351 1654,-351 1654,-253 1848,-253 1848,-351"/>
<text text-anchor="middle" x="1751" y="-335.8" font-family="Times,serif" font-size="14.00">node #20</text>
<text text-anchor="middle" x="1751" y="-320.8" font-family="Times,serif" font-size="14.00">FEFPreVal &lt;= 2.85</text>
<text text-anchor="middle" x="1751" y="-305.8" font-family="Times,serif" font-size="14.00">gini = 0.496</text>
<text text-anchor="middle" x="1751" y="-290.8" font-family="Times,serif" font-size="14.00">samples = 54</text>
<text text-anchor="middle" x="1751" y="-275.8" font-family="Times,serif" font-size="14.00">value = [35.752, 43.094]</text>
<text text-anchor="middle" x="1751" y="-260.8" font-family="Times,serif" font-size="14.00">class = Obstructive</text>
</g>
<!-- 14&#45;&gt;20 -->
<g id="edge20" class="edge">
<title>14&#45;&gt;20</title>
<path fill="none" stroke="black" d="M1511.85,-395.57C1553.63,-379.4 1602.02,-360.67 1644.29,-344.31"/>
<polygon fill="black" stroke="black" points="1645.71,-347.51 1653.77,-340.64 1643.18,-340.98 1645.71,-347.51"/>
</g>
<!-- 16 -->
<g id="node17" class="node">
<title>16</title>
<polygon fill="none" stroke="black" points="1409,-217 1221,-217 1221,-119 1409,-119 1409,-217"/>
<text text-anchor="middle" x="1315" y="-201.8" font-family="Times,serif" font-size="14.00">node #16</text>
<text text-anchor="middle" x="1315" y="-186.8" font-family="Times,serif" font-size="14.00">FEV1PostVal &lt;= 1.965</text>
<text text-anchor="middle" x="1315" y="-171.8" font-family="Times,serif" font-size="14.00">gini = 0.101</text>
<text text-anchor="middle" x="1315" y="-156.8" font-family="Times,serif" font-size="14.00">samples = 64</text>
<text text-anchor="middle" x="1315" y="-141.8" font-family="Times,serif" font-size="14.00">value = [104.19, 5.876]</text>
<text text-anchor="middle" x="1315" y="-126.8" font-family="Times,serif" font-size="14.00">class = Non&#45;obstructive</text>
</g>
<!-- 15&#45;&gt;16 -->
<g id="edge16" class="edge">
<title>15&#45;&gt;16</title>
<path fill="none" stroke="black" d="M1375.43,-252.97C1369.02,-244.05 1362.26,-234.66 1355.68,-225.52"/>
<polygon fill="black" stroke="black" points="1358.38,-223.29 1349.7,-217.21 1352.7,-227.37 1358.38,-223.29"/>
</g>
<!-- 19 -->
<g id="node20" class="node">
<title>19</title>
<polygon fill="none" stroke="black" points="1585,-209.5 1427,-209.5 1427,-126.5 1585,-126.5 1585,-209.5"/>
<text text-anchor="middle" x="1506" y="-194.3" font-family="Times,serif" font-size="14.00">node #19</text>
<text text-anchor="middle" x="1506" y="-179.3" font-family="Times,serif" font-size="14.00">gini = 0.0</text>
<text text-anchor="middle" x="1506" y="-164.3" font-family="Times,serif" font-size="14.00">samples = 1</text>
<text text-anchor="middle" x="1506" y="-149.3" font-family="Times,serif" font-size="14.00">value = [0.0, 2.938]</text>
<text text-anchor="middle" x="1506" y="-134.3" font-family="Times,serif" font-size="14.00">class = Obstructive</text>
</g>
<!-- 15&#45;&gt;19 -->
<g id="edge19" class="edge">
<title>15&#45;&gt;19</title>
<path fill="none" stroke="black" d="M1444.93,-252.97C1453.21,-241.58 1462.06,-229.42 1470.37,-217.99"/>
<polygon fill="black" stroke="black" points="1473.26,-219.96 1476.32,-209.82 1467.6,-215.85 1473.26,-219.96"/>
</g>
<!-- 17 -->
<g id="node18" class="node">
<title>17</title>
<polygon fill="none" stroke="black" points="1361,-83 1173,-83 1173,0 1361,0 1361,-83"/>
<text text-anchor="middle" x="1267" y="-67.8" font-family="Times,serif" font-size="14.00">node #17</text>
<text text-anchor="middle" x="1267" y="-52.8" font-family="Times,serif" font-size="14.00">gini = 0.086</text>
<text text-anchor="middle" x="1267" y="-37.8" font-family="Times,serif" font-size="14.00">samples = 63</text>
<text text-anchor="middle" x="1267" y="-22.8" font-family="Times,serif" font-size="14.00">value = [104.19, 4.897]</text>
<text text-anchor="middle" x="1267" y="-7.8" font-family="Times,serif" font-size="14.00">class = Non&#45;obstructive</text>
</g>
<!-- 16&#45;&gt;17 -->
<g id="edge17" class="edge">
<title>16&#45;&gt;17</title>
<path fill="none" stroke="black" d="M1296.44,-118.87C1293.15,-110.31 1289.7,-101.39 1286.38,-92.78"/>
<polygon fill="black" stroke="black" points="1289.57,-91.3 1282.7,-83.23 1283.04,-93.82 1289.57,-91.3"/>
</g>
<!-- 18 -->
<g id="node19" class="node">
<title>18</title>
<polygon fill="none" stroke="black" points="1537,-83 1379,-83 1379,0 1537,0 1537,-83"/>
<text text-anchor="middle" x="1458" y="-67.8" font-family="Times,serif" font-size="14.00">node #18</text>
<text text-anchor="middle" x="1458" y="-52.8" font-family="Times,serif" font-size="14.00">gini = 0.0</text>
<text text-anchor="middle" x="1458" y="-37.8" font-family="Times,serif" font-size="14.00">samples = 1</text>
<text text-anchor="middle" x="1458" y="-22.8" font-family="Times,serif" font-size="14.00">value = [0.0, 0.979]</text>
<text text-anchor="middle" x="1458" y="-7.8" font-family="Times,serif" font-size="14.00">class = Obstructive</text>
</g>
<!-- 16&#45;&gt;18 -->
<g id="edge18" class="edge">
<title>16&#45;&gt;18</title>
<path fill="none" stroke="black" d="M1370.29,-118.87C1381.17,-109.39 1392.57,-99.46 1403.43,-90.01"/>
<polygon fill="black" stroke="black" points="1405.97,-92.44 1411.22,-83.23 1401.38,-87.16 1405.97,-92.44"/>
</g>
<!-- 21 -->
<g id="node22" class="node">
<title>21</title>
<polygon fill="none" stroke="black" points="1851,-217 1651,-217 1651,-119 1851,-119 1851,-217"/>
<text text-anchor="middle" x="1751" y="-201.8" font-family="Times,serif" font-size="14.00">node #21</text>
<text text-anchor="middle" x="1751" y="-186.8" font-family="Times,serif" font-size="14.00">FEV1PrePercent &lt;= 76.5</text>
<text text-anchor="middle" x="1751" y="-171.8" font-family="Times,serif" font-size="14.00">gini = 0.417</text>
<text text-anchor="middle" x="1751" y="-156.8" font-family="Times,serif" font-size="14.00">samples = 40</text>
<text text-anchor="middle" x="1751" y="-141.8" font-family="Times,serif" font-size="14.00">value = [17.365, 41.135]</text>
<text text-anchor="middle" x="1751" y="-126.8" font-family="Times,serif" font-size="14.00">class = Obstructive</text>
</g>
<!-- 20&#45;&gt;21 -->
<g id="edge21" class="edge">
<title>20&#45;&gt;21</title>
<path fill="none" stroke="black" d="M1751,-252.97C1751,-244.69 1751,-236 1751,-227.48"/>
<polygon fill="black" stroke="black" points="1754.5,-227.21 1751,-217.21 1747.5,-227.21 1754.5,-227.21"/>
</g>
<!-- 24 -->
<g id="node25" class="node">
<title>24</title>
<polygon fill="none" stroke="black" points="2152,-217 1964,-217 1964,-119 2152,-119 2152,-217"/>
<text text-anchor="middle" x="2058" y="-201.8" font-family="Times,serif" font-size="14.00">node #24</text>
<text text-anchor="middle" x="2058" y="-186.8" font-family="Times,serif" font-size="14.00">FEV1PreVal &lt;= 2.96</text>
<text text-anchor="middle" x="2058" y="-171.8" font-family="Times,serif" font-size="14.00">gini = 0.174</text>
<text text-anchor="middle" x="2058" y="-156.8" font-family="Times,serif" font-size="14.00">samples = 14</text>
<text text-anchor="middle" x="2058" y="-141.8" font-family="Times,serif" font-size="14.00">value = [18.387, 1.959]</text>
<text text-anchor="middle" x="2058" y="-126.8" font-family="Times,serif" font-size="14.00">class = Non&#45;obstructive</text>
</g>
<!-- 20&#45;&gt;24 -->
<g id="edge24" class="edge">
<title>20&#45;&gt;24</title>
<path fill="none" stroke="black" d="M1848.14,-259.23C1881.94,-244.7 1919.97,-228.35 1954.28,-213.59"/>
<polygon fill="black" stroke="black" points="1956.05,-216.64 1963.86,-209.48 1953.29,-210.21 1956.05,-216.64"/>
</g>
<!-- 22 -->
<g id="node23" class="node">
<title>22</title>
<polygon fill="none" stroke="black" points="1739.5,-83 1554.5,-83 1554.5,0 1739.5,0 1739.5,-83"/>
<text text-anchor="middle" x="1647" y="-67.8" font-family="Times,serif" font-size="14.00">node #22</text>
<text text-anchor="middle" x="1647" y="-52.8" font-family="Times,serif" font-size="14.00">gini = 0.257</text>
<text text-anchor="middle" x="1647" y="-37.8" font-family="Times,serif" font-size="14.00">samples = 27</text>
<text text-anchor="middle" x="1647" y="-22.8" font-family="Times,serif" font-size="14.00">value = [6.129, 34.279]</text>
<text text-anchor="middle" x="1647" y="-7.8" font-family="Times,serif" font-size="14.00">class = Obstructive</text>
</g>
<!-- 21&#45;&gt;22 -->
<g id="edge22" class="edge">
<title>21&#45;&gt;22</title>
<path fill="none" stroke="black" d="M1710.79,-118.87C1703.19,-109.76 1695.23,-100.23 1687.61,-91.12"/>
<polygon fill="black" stroke="black" points="1690.12,-88.66 1681.02,-83.23 1684.75,-93.15 1690.12,-88.66"/>
</g>
<!-- 23 -->
<g id="node24" class="node">
<title>23</title>
<polygon fill="none" stroke="black" points="1946,-83 1758,-83 1758,0 1946,0 1946,-83"/>
<text text-anchor="middle" x="1852" y="-67.8" font-family="Times,serif" font-size="14.00">node #23</text>
<text text-anchor="middle" x="1852" y="-52.8" font-family="Times,serif" font-size="14.00">gini = 0.471</text>
<text text-anchor="middle" x="1852" y="-37.8" font-family="Times,serif" font-size="14.00">samples = 13</text>
<text text-anchor="middle" x="1852" y="-22.8" font-family="Times,serif" font-size="14.00">value = [11.236, 6.856]</text>
<text text-anchor="middle" x="1852" y="-7.8" font-family="Times,serif" font-size="14.00">class = Non&#45;obstructive</text>
</g>
<!-- 21&#45;&gt;23 -->
<g id="edge23" class="edge">
<title>21&#45;&gt;23</title>
<path fill="none" stroke="black" d="M1790.05,-118.87C1797.43,-109.76 1805.16,-100.23 1812.56,-91.12"/>
<polygon fill="black" stroke="black" points="1815.38,-93.2 1818.96,-83.23 1809.94,-88.79 1815.38,-93.2"/>
</g>
<!-- 25 -->
<g id="node26" class="node">
<title>25</title>
<polygon fill="none" stroke="black" points="2152,-83 1964,-83 1964,0 2152,0 2152,-83"/>
<text text-anchor="middle" x="2058" y="-67.8" font-family="Times,serif" font-size="14.00">node #25</text>
<text text-anchor="middle" x="2058" y="-52.8" font-family="Times,serif" font-size="14.00">gini = &#45;0.0</text>
<text text-anchor="middle" x="2058" y="-37.8" font-family="Times,serif" font-size="14.00">samples = 11</text>
<text text-anchor="middle" x="2058" y="-22.8" font-family="Times,serif" font-size="14.00">value = [17.365, 0.0]</text>
<text text-anchor="middle" x="2058" y="-7.8" font-family="Times,serif" font-size="14.00">class = Non&#45;obstructive</text>
</g>
<!-- 24&#45;&gt;25 -->
<g id="edge25" class="edge">
<title>24&#45;&gt;25</title>
<path fill="none" stroke="black" d="M2058,-118.87C2058,-110.5 2058,-101.77 2058,-93.33"/>
<polygon fill="black" stroke="black" points="2061.5,-93.23 2058,-83.23 2054.5,-93.23 2061.5,-93.23"/>
</g>
<!-- 26 -->
<g id="node27" class="node">
<title>26</title>
<polygon fill="none" stroke="black" points="2346,-83 2170,-83 2170,0 2346,0 2346,-83"/>
<text text-anchor="middle" x="2258" y="-67.8" font-family="Times,serif" font-size="14.00">node #26</text>
<text text-anchor="middle" x="2258" y="-52.8" font-family="Times,serif" font-size="14.00">gini = 0.451</text>
<text text-anchor="middle" x="2258" y="-37.8" font-family="Times,serif" font-size="14.00">samples = 3</text>
<text text-anchor="middle" x="2258" y="-22.8" font-family="Times,serif" font-size="14.00">value = [1.021, 1.959]</text>
<text text-anchor="middle" x="2258" y="-7.8" font-family="Times,serif" font-size="14.00">class = Obstructive</text>
</g>
<!-- 24&#45;&gt;26 -->
<g id="edge26" class="edge">
<title>24&#45;&gt;26</title>
<path fill="none" stroke="black" d="M2135.33,-118.87C2151.37,-108.88 2168.24,-98.38 2184.15,-88.47"/>
<polygon fill="black" stroke="black" points="2186.25,-91.29 2192.89,-83.03 2182.55,-85.35 2186.25,-91.29"/>
</g>
</g>
</svg>
