<?xml version="1.0" encoding="UTF-8" standalone="no"?>
<!DOCTYPE svg PUBLIC "-//W3C//DTD SVG 1.1//EN"
 "http://www.w3.org/Graphics/SVG/1.1/DTD/svg11.dtd">
<!-- Generated by graphviz version 2.43.0 (0)
 -->
<!-- Title: Tree Pages: 1 -->
<svg width="3115pt" height="627pt"
 viewBox="0.00 0.00 3115.00 627.00" xmlns="http://www.w3.org/2000/svg" xmlns:xlink="http://www.w3.org/1999/xlink">
<g id="graph0" class="graph" transform="scale(1 1) rotate(0) translate(4 623)">
<title>Tree</title>
<polygon fill="white" stroke="transparent" points="-4,4 -4,-623 3111,-623 3111,4 -4,4"/>
<!-- 0 -->
<g id="node1" class="node">
<title>0</title>
<polygon fill="none" stroke="black" points="1636,-619 1460,-619 1460,-521 1636,-521 1636,-619"/>
<text text-anchor="middle" x="1548" y="-603.8" font-family="Times,serif" font-size="14.00">node #0</text>
<text text-anchor="middle" x="1548" y="-588.8" font-family="Times,serif" font-size="14.00">FEFPreVal &lt;= 1.3</text>
<text text-anchor="middle" x="1548" y="-573.8" font-family="Times,serif" font-size="14.00">gini = 0.5</text>
<text text-anchor="middle" x="1548" y="-558.8" font-family="Times,serif" font-size="14.00">samples = 216</text>
<text text-anchor="middle" x="1548" y="-543.8" font-family="Times,serif" font-size="14.00">value = [166.5, 166.5]</text>
<text text-anchor="middle" x="1548" y="-528.8" font-family="Times,serif" font-size="14.00">class = Obstructive</text>
</g>
<!-- 1 -->
<g id="node2" class="node">
<title>1</title>
<polygon fill="none" stroke="black" points="1254.5,-485 1051.5,-485 1051.5,-387 1254.5,-387 1254.5,-485"/>
<text text-anchor="middle" x="1153" y="-469.8" font-family="Times,serif" font-size="14.00">node #1</text>
<text text-anchor="middle" x="1153" y="-454.8" font-family="Times,serif" font-size="14.00">FEFPreVal &lt;= 0.705</text>
<text text-anchor="middle" x="1153" y="-439.8" font-family="Times,serif" font-size="14.00">gini = 0.159</text>
<text text-anchor="middle" x="1153" y="-424.8" font-family="Times,serif" font-size="14.00">samples = 95</text>
<text text-anchor="middle" x="1153" y="-409.8" font-family="Times,serif" font-size="14.00">value = [12.258, 128.303]</text>
<text text-anchor="middle" x="1153" y="-394.8" font-family="Times,serif" font-size="14.00">class = Obstructive</text>
</g>
<!-- 0&#45;&gt;1 -->
<g id="edge1" class="edge">
<title>0&#45;&gt;1</title>
<path fill="none" stroke="black" d="M1459.85,-539.54C1402.22,-520.28 1326.46,-494.97 1264.64,-474.31"/>
<polygon fill="black" stroke="black" points="1265.43,-470.88 1254.84,-471.03 1263.21,-477.52 1265.43,-470.88"/>
<text text-anchor="middle" x="1266" y="-489.7" font-family="Times,serif" font-size="14.00">True</text>
</g>
<!-- 16 -->
<g id="node17" class="node">
<title>16</title>
<polygon fill="none" stroke="black" points="2045.5,-485 1842.5,-485 1842.5,-387 2045.5,-387 2045.5,-485"/>
<text text-anchor="middle" x="1944" y="-469.8" font-family="Times,serif" font-size="14.00">node #16</text>
<text text-anchor="middle" x="1944" y="-454.8" font-family="Times,serif" font-size="14.00">FEFPrePercent &lt;= 64.5</text>
<text text-anchor="middle" x="1944" y="-439.8" font-family="Times,serif" font-size="14.00">gini = 0.318</text>
<text text-anchor="middle" x="1944" y="-424.8" font-family="Times,serif" font-size="14.00">samples = 121</text>
<text text-anchor="middle" x="1944" y="-409.8" font-family="Times,serif" font-size="14.00">value = [154.242, 38.197]</text>
<text text-anchor="middle" x="1944" y="-394.8" font-family="Times,serif" font-size="14.00">class = Non&#45;obstructive</text>
</g>
<!-- 0&#45;&gt;16 -->
<g id="edge16" class="edge">
<title>0&#45;&gt;16</title>
<path fill="none" stroke="black" d="M1636.38,-539.54C1694.26,-520.25 1770.39,-494.87 1832.43,-474.19"/>
<polygon fill="black" stroke="black" points="1833.88,-477.4 1842.26,-470.91 1831.67,-470.75 1833.88,-477.4"/>
<text text-anchor="middle" x="1831.08" y="-489.57" font-family="Times,serif" font-size="14.00">False</text>
</g>
<!-- 2 -->
<g id="node3" class="node">
<title>2</title>
<polygon fill="none" stroke="black" points="692,-351 492,-351 492,-253 692,-253 692,-351"/>
<text text-anchor="middle" x="592" y="-335.8" font-family="Times,serif" font-size="14.00">node #2</text>
<text text-anchor="middle" x="592" y="-320.8" font-family="Times,serif" font-size="14.00">FEV1PrePercent &lt;= 50.5</text>
<text text-anchor="middle" x="592" y="-305.8" font-family="Times,serif" font-size="14.00">gini = 0.05</text>
<text text-anchor="middle" x="592" y="-290.8" font-family="Times,serif" font-size="14.00">samples = 53</text>
<text text-anchor="middle" x="592" y="-275.8" font-family="Times,serif" font-size="14.00">value = [2.043, 78.353]</text>
<text text-anchor="middle" x="592" y="-260.8" font-family="Times,serif" font-size="14.00">class = Obstructive</text>
</g>
<!-- 1&#45;&gt;2 -->
<g id="edge2" class="edge">
<title>1&#45;&gt;2</title>
<path fill="none" stroke="black" d="M1051.41,-411.1C952.86,-387.91 803.75,-352.82 702.33,-328.96"/>
<polygon fill="black" stroke="black" points="702.9,-325.5 692.37,-326.62 701.3,-332.31 702.9,-325.5"/>
</g>
<!-- 9 -->
<g id="node10" class="node">
<title>9</title>
<polygon fill="none" stroke="black" points="1245.5,-351 1060.5,-351 1060.5,-253 1245.5,-253 1245.5,-351"/>
<text text-anchor="middle" x="1153" y="-335.8" font-family="Times,serif" font-size="14.00">node #9</text>
<text text-anchor="middle" x="1153" y="-320.8" font-family="Times,serif" font-size="14.00">FVCPostVal &lt;= 1.595</text>
<text text-anchor="middle" x="1153" y="-305.8" font-family="Times,serif" font-size="14.00">gini = 0.282</text>
<text text-anchor="middle" x="1153" y="-290.8" font-family="Times,serif" font-size="14.00">samples = 42</text>
<text text-anchor="middle" x="1153" y="-275.8" font-family="Times,serif" font-size="14.00">value = [10.215, 49.95]</text>
<text text-anchor="middle" x="1153" y="-260.8" font-family="Times,serif" font-size="14.00">class = Obstructive</text>
</g>
<!-- 1&#45;&gt;9 -->
<g id="edge9" class="edge">
<title>1&#45;&gt;9</title>
<path fill="none" stroke="black" d="M1153,-386.97C1153,-378.69 1153,-370 1153,-361.48"/>
<polygon fill="black" stroke="black" points="1156.5,-361.21 1153,-351.21 1149.5,-361.21 1156.5,-361.21"/>
</g>
<!-- 3 -->
<g id="node4" class="node">
<title>3</title>
<polygon fill="none" stroke="black" points="388.5,-217 191.5,-217 191.5,-119 388.5,-119 388.5,-217"/>
<text text-anchor="middle" x="290" y="-201.8" font-family="Times,serif" font-size="14.00">node #3</text>
<text text-anchor="middle" x="290" y="-186.8" font-family="Times,serif" font-size="14.00">FVCPostPercent &lt;= 34.5</text>
<text text-anchor="middle" x="290" y="-171.8" font-family="Times,serif" font-size="14.00">gini = 0.026</text>
<text text-anchor="middle" x="290" y="-156.8" font-family="Times,serif" font-size="14.00">samples = 49</text>
<text text-anchor="middle" x="290" y="-141.8" font-family="Times,serif" font-size="14.00">value = [1.021, 75.415]</text>
<text text-anchor="middle" x="290" y="-126.8" font-family="Times,serif" font-size="14.00">class = Obstructive</text>
</g>
<!-- 2&#45;&gt;3 -->
<g id="edge3" class="edge">
<title>2&#45;&gt;3</title>
<path fill="none" stroke="black" d="M491.86,-257.23C461.75,-244.07 428.59,-229.57 397.99,-216.2"/>
<polygon fill="black" stroke="black" points="399.15,-212.89 388.59,-212.09 396.35,-219.3 399.15,-212.89"/>
</g>
<!-- 6 -->
<g id="node7" class="node">
<title>6</title>
<polygon fill="none" stroke="black" points="692,-217 492,-217 492,-119 692,-119 692,-217"/>
<text text-anchor="middle" x="592" y="-201.8" font-family="Times,serif" font-size="14.00">node #6</text>
<text text-anchor="middle" x="592" y="-186.8" font-family="Times,serif" font-size="14.00">FEV1PrePercent &lt;= 52.5</text>
<text text-anchor="middle" x="592" y="-171.8" font-family="Times,serif" font-size="14.00">gini = 0.383</text>
<text text-anchor="middle" x="592" y="-156.8" font-family="Times,serif" font-size="14.00">samples = 4</text>
<text text-anchor="middle" x="592" y="-141.8" font-family="Times,serif" font-size="14.00">value = [1.021, 2.938]</text>
<text text-anchor="middle" x="592" y="-126.8" font-family="Times,serif" font-size="14.00">class = Obstructive</text>
</g>
<!-- 2&#45;&gt;6 -->
<g id="edge6" class="edge">
<title>2&#45;&gt;6</title>
<path fill="none" stroke="black" d="M592,-252.97C592,-244.69 592,-236 592,-227.48"/>
<polygon fill="black" stroke="black" points="595.5,-227.21 592,-217.21 588.5,-227.21 595.5,-227.21"/>
</g>
<!-- 4 -->
<g id="node5" class="node">
<title>4</title>
<polygon fill="none" stroke="black" points="188,-83 0,-83 0,0 188,0 188,-83"/>
<text text-anchor="middle" x="94" y="-67.8" font-family="Times,serif" font-size="14.00">node #4</text>
<text text-anchor="middle" x="94" y="-52.8" font-family="Times,serif" font-size="14.00">gini = 0.0</text>
<text text-anchor="middle" x="94" y="-37.8" font-family="Times,serif" font-size="14.00">samples = 1</text>
<text text-anchor="middle" x="94" y="-22.8" font-family="Times,serif" font-size="14.00">value = [1.021, 0.0]</text>
<text text-anchor="middle" x="94" y="-7.8" font-family="Times,serif" font-size="14.00">class = Non&#45;obstructive</text>
</g>
<!-- 3&#45;&gt;4 -->
<g id="edge4" class="edge">
<title>3&#45;&gt;4</title>
<path fill="none" stroke="black" d="M214.22,-118.87C198.5,-108.88 181.97,-98.38 166.37,-88.47"/>
<polygon fill="black" stroke="black" points="168.13,-85.44 157.81,-83.03 164.37,-91.35 168.13,-85.44"/>
</g>
<!-- 5 -->
<g id="node6" class="node">
<title>5</title>
<polygon fill="none" stroke="black" points="373.5,-83 206.5,-83 206.5,0 373.5,0 373.5,-83"/>
<text text-anchor="middle" x="290" y="-67.8" font-family="Times,serif" font-size="14.00">node #5</text>
<text text-anchor="middle" x="290" y="-52.8" font-family="Times,serif" font-size="14.00">gini = 0.0</text>
<text text-anchor="middle" x="290" y="-37.8" font-family="Times,serif" font-size="14.00">samples = 48</text>
<text text-anchor="middle" x="290" y="-22.8" font-family="Times,serif" font-size="14.00">value = [0.0, 75.415]</text>
<text text-anchor="middle" x="290" y="-7.8" font-family="Times,serif" font-size="14.00">class = Obstructive</text>
</g>
<!-- 3&#45;&gt;5 -->
<g id="edge5" class="edge">
<title>3&#45;&gt;5</title>
<path fill="none" stroke="black" d="M290,-118.87C290,-110.5 290,-101.77 290,-93.33"/>
<polygon fill="black" stroke="black" points="293.5,-93.23 290,-83.23 286.5,-93.23 293.5,-93.23"/>
</g>
<!-- 7 -->
<g id="node8" class="node">
<title>7</title>
<polygon fill="none" stroke="black" points="580,-83 392,-83 392,0 580,0 580,-83"/>
<text text-anchor="middle" x="486" y="-67.8" font-family="Times,serif" font-size="14.00">node #7</text>
<text text-anchor="middle" x="486" y="-52.8" font-family="Times,serif" font-size="14.00">gini = 0.0</text>
<text text-anchor="middle" x="486" y="-37.8" font-family="Times,serif" font-size="14.00">samples = 1</text>
<text text-anchor="middle" x="486" y="-22.8" font-family="Times,serif" font-size="14.00">value = [1.021, 0.0]</text>
<text text-anchor="middle" x="486" y="-7.8" font-family="Times,serif" font-size="14.00">class = Non&#45;obstructive</text>
</g>
<!-- 6&#45;&gt;7 -->
<g id="edge7" class="edge">
<title>6&#45;&gt;7</title>
<path fill="none" stroke="black" d="M551.02,-118.87C543.27,-109.76 535.16,-100.23 527.39,-91.12"/>
<polygon fill="black" stroke="black" points="529.83,-88.58 520.68,-83.23 524.5,-93.11 529.83,-88.58"/>
</g>
<!-- 8 -->
<g id="node9" class="node">
<title>8</title>
<polygon fill="none" stroke="black" points="756,-83 598,-83 598,0 756,0 756,-83"/>
<text text-anchor="middle" x="677" y="-67.8" font-family="Times,serif" font-size="14.00">node #8</text>
<text text-anchor="middle" x="677" y="-52.8" font-family="Times,serif" font-size="14.00">gini = 0.0</text>
<text text-anchor="middle" x="677" y="-37.8" font-family="Times,serif" font-size="14.00">samples = 3</text>
<text text-anchor="middle" x="677" y="-22.8" font-family="Times,serif" font-size="14.00">value = [0.0, 2.938]</text>
<text text-anchor="middle" x="677" y="-7.8" font-family="Times,serif" font-size="14.00">class = Obstructive</text>
</g>
<!-- 6&#45;&gt;8 -->
<g id="edge8" class="edge">
<title>6&#45;&gt;8</title>
<path fill="none" stroke="black" d="M624.86,-118.87C630.95,-109.95 637.32,-100.62 643.43,-91.67"/>
<polygon fill="black" stroke="black" points="646.44,-93.46 649.19,-83.23 640.66,-89.52 646.44,-93.46"/>
</g>
<!-- 10 -->
<g id="node11" class="node">
<title>10</title>
<polygon fill="none" stroke="black" points="1146,-217 946,-217 946,-119 1146,-119 1146,-217"/>
<text text-anchor="middle" x="1046" y="-201.8" font-family="Times,serif" font-size="14.00">node #10</text>
<text text-anchor="middle" x="1046" y="-186.8" font-family="Times,serif" font-size="14.00">FEV1PrePercent &lt;= 73.5</text>
<text text-anchor="middle" x="1046" y="-171.8" font-family="Times,serif" font-size="14.00">gini = 0.338</text>
<text text-anchor="middle" x="1046" y="-156.8" font-family="Times,serif" font-size="14.00">samples = 9</text>
<text text-anchor="middle" x="1046" y="-141.8" font-family="Times,serif" font-size="14.00">value = [7.15, 1.959]</text>
<text text-anchor="middle" x="1046" y="-126.8" font-family="Times,serif" font-size="14.00">class = Non&#45;obstructive</text>
</g>
<!-- 9&#45;&gt;10 -->
<g id="edge10" class="edge">
<title>9&#45;&gt;10</title>
<path fill="none" stroke="black" d="M1114.07,-252.97C1106.77,-243.96 1099.07,-234.47 1091.59,-225.24"/>
<polygon fill="black" stroke="black" points="1094.1,-222.78 1085.08,-217.21 1088.66,-227.19 1094.1,-222.78"/>
</g>
<!-- 13 -->
<g id="node14" class="node">
<title>13</title>
<polygon fill="none" stroke="black" points="1355.5,-217 1164.5,-217 1164.5,-119 1355.5,-119 1355.5,-217"/>
<text text-anchor="middle" x="1260" y="-201.8" font-family="Times,serif" font-size="14.00">node #13</text>
<text text-anchor="middle" x="1260" y="-186.8" font-family="Times,serif" font-size="14.00">FEFPrePercent &lt;= 61.0</text>
<text text-anchor="middle" x="1260" y="-171.8" font-family="Times,serif" font-size="14.00">gini = 0.113</text>
<text text-anchor="middle" x="1260" y="-156.8" font-family="Times,serif" font-size="14.00">samples = 33</text>
<text text-anchor="middle" x="1260" y="-141.8" font-family="Times,serif" font-size="14.00">value = [3.064, 47.991]</text>
<text text-anchor="middle" x="1260" y="-126.8" font-family="Times,serif" font-size="14.00">class = Obstructive</text>
</g>
<!-- 9&#45;&gt;13 -->
<g id="edge13" class="edge">
<title>9&#45;&gt;13</title>
<path fill="none" stroke="black" d="M1191.93,-252.97C1199.23,-243.96 1206.93,-234.47 1214.41,-225.24"/>
<polygon fill="black" stroke="black" points="1217.34,-227.19 1220.92,-217.21 1211.9,-222.78 1217.34,-227.19"/>
</g>
<!-- 11 -->
<g id="node12" class="node">
<title>11</title>
<polygon fill="none" stroke="black" points="962,-83 774,-83 774,0 962,0 962,-83"/>
<text text-anchor="middle" x="868" y="-67.8" font-family="Times,serif" font-size="14.00">node #11</text>
<text text-anchor="middle" x="868" y="-52.8" font-family="Times,serif" font-size="14.00">gini = 0.212</text>
<text text-anchor="middle" x="868" y="-37.8" font-family="Times,serif" font-size="14.00">samples = 8</text>
<text text-anchor="middle" x="868" y="-22.8" font-family="Times,serif" font-size="14.00">value = [7.15, 0.979]</text>
<text text-anchor="middle" x="868" y="-7.8" font-family="Times,serif" font-size="14.00">class = Non&#45;obstructive</text>
</g>
<!-- 10&#45;&gt;11 -->
<g id="edge11" class="edge">
<title>10&#45;&gt;11</title>
<path fill="none" stroke="black" d="M977.18,-118.87C963.16,-109.06 948.44,-98.77 934.51,-89.02"/>
<polygon fill="black" stroke="black" points="936.15,-85.9 925.95,-83.03 932.14,-91.63 936.15,-85.9"/>
</g>
<!-- 12 -->
<g id="node13" class="node">
<title>12</title>
<polygon fill="none" stroke="black" points="1138,-83 980,-83 980,0 1138,0 1138,-83"/>
<text text-anchor="middle" x="1059" y="-67.8" font-family="Times,serif" font-size="14.00">node #12</text>
<text text-anchor="middle" x="1059" y="-52.8" font-family="Times,serif" font-size="14.00">gini = &#45;0.0</text>
<text text-anchor="middle" x="1059" y="-37.8" font-family="Times,serif" font-size="14.00">samples = 1</text>
<text text-anchor="middle" x="1059" y="-22.8" font-family="Times,serif" font-size="14.00">value = [0.0, 0.979]</text>
<text text-anchor="middle" x="1059" y="-7.8" font-family="Times,serif" font-size="14.00">class = Obstructive</text>
</g>
<!-- 10&#45;&gt;12 -->
<g id="edge12" class="edge">
<title>10&#45;&gt;12</title>
<path fill="none" stroke="black" d="M1051.03,-118.87C1051.9,-110.5 1052.81,-101.77 1053.69,-93.33"/>
<polygon fill="black" stroke="black" points="1057.19,-93.54 1054.75,-83.23 1050.23,-92.81 1057.19,-93.54"/>
</g>
<!-- 14 -->
<g id="node15" class="node">
<title>14</title>
<polygon fill="none" stroke="black" points="1340.5,-83 1155.5,-83 1155.5,0 1340.5,0 1340.5,-83"/>
<text text-anchor="middle" x="1248" y="-67.8" font-family="Times,serif" font-size="14.00">node #14</text>
<text text-anchor="middle" x="1248" y="-52.8" font-family="Times,serif" font-size="14.00">gini = 0.041</text>
<text text-anchor="middle" x="1248" y="-37.8" font-family="Times,serif" font-size="14.00">samples = 31</text>
<text text-anchor="middle" x="1248" y="-22.8" font-family="Times,serif" font-size="14.00">value = [1.021, 47.991]</text>
<text text-anchor="middle" x="1248" y="-7.8" font-family="Times,serif" font-size="14.00">class = Obstructive</text>
</g>
<!-- 13&#45;&gt;14 -->
<g id="edge14" class="edge">
<title>13&#45;&gt;14</title>
<path fill="none" stroke="black" d="M1255.36,-118.87C1254.55,-110.5 1253.71,-101.77 1252.9,-93.33"/>
<polygon fill="black" stroke="black" points="1256.37,-92.85 1251.93,-83.23 1249.4,-93.52 1256.37,-92.85"/>
</g>
<!-- 15 -->
<g id="node16" class="node">
<title>15</title>
<polygon fill="none" stroke="black" points="1547,-83 1359,-83 1359,0 1547,0 1547,-83"/>
<text text-anchor="middle" x="1453" y="-67.8" font-family="Times,serif" font-size="14.00">node #15</text>
<text text-anchor="middle" x="1453" y="-52.8" font-family="Times,serif" font-size="14.00">gini = 0.0</text>
<text text-anchor="middle" x="1453" y="-37.8" font-family="Times,serif" font-size="14.00">samples = 2</text>
<text text-anchor="middle" x="1453" y="-22.8" font-family="Times,serif" font-size="14.00">value = [2.043, 0.0]</text>
<text text-anchor="middle" x="1453" y="-7.8" font-family="Times,serif" font-size="14.00">class = Non&#45;obstructive</text>
</g>
<!-- 13&#45;&gt;15 -->
<g id="edge15" class="edge">
<title>13&#45;&gt;15</title>
<path fill="none" stroke="black" d="M1334.62,-118.87C1350.1,-108.88 1366.38,-98.38 1381.74,-88.47"/>
<polygon fill="black" stroke="black" points="1383.66,-91.39 1390.17,-83.03 1379.87,-85.51 1383.66,-91.39"/>
</g>
<!-- 17 -->
<g id="node18" class="node">
<title>17</title>
<polygon fill="none" stroke="black" points="2041,-351 1847,-351 1847,-253 2041,-253 2041,-351"/>
<text text-anchor="middle" x="1944" y="-335.8" font-family="Times,serif" font-size="14.00">node #17</text>
<text text-anchor="middle" x="1944" y="-320.8" font-family="Times,serif" font-size="14.00">FEV1PostVal &lt;= 1.637</text>
<text text-anchor="middle" x="1944" y="-305.8" font-family="Times,serif" font-size="14.00">gini = 0.498</text>
<text text-anchor="middle" x="1944" y="-290.8" font-family="Times,serif" font-size="14.00">samples = 38</text>
<text text-anchor="middle" x="1944" y="-275.8" font-family="Times,serif" font-size="14.00">value = [26.558, 30.362]</text>
<text text-anchor="middle" x="1944" y="-260.8" font-family="Times,serif" font-size="14.00">class = Obstructive</text>
</g>
<!-- 16&#45;&gt;17 -->
<g id="edge17" class="edge">
<title>16&#45;&gt;17</title>
<path fill="none" stroke="black" d="M1944,-386.97C1944,-378.69 1944,-370 1944,-361.48"/>
<polygon fill="black" stroke="black" points="1947.5,-361.21 1944,-351.21 1940.5,-361.21 1947.5,-361.21"/>
</g>
<!-- 24 -->
<g id="node25" class="node">
<title>24</title>
<polygon fill="none" stroke="black" points="2613,-351 2419,-351 2419,-253 2613,-253 2613,-351"/>
<text text-anchor="middle" x="2516" y="-335.8" font-family="Times,serif" font-size="14.00">node #24</text>
<text text-anchor="middle" x="2516" y="-320.8" font-family="Times,serif" font-size="14.00">FVCPostVal &lt;= 3.565</text>
<text text-anchor="middle" x="2516" y="-305.8" font-family="Times,serif" font-size="14.00">gini = 0.109</text>
<text text-anchor="middle" x="2516" y="-290.8" font-family="Times,serif" font-size="14.00">samples = 83</text>
<text text-anchor="middle" x="2516" y="-275.8" font-family="Times,serif" font-size="14.00">value = [127.684, 7.835]</text>
<text text-anchor="middle" x="2516" y="-260.8" font-family="Times,serif" font-size="14.00">class = Non&#45;obstructive</text>
</g>
<!-- 16&#45;&gt;24 -->
<g id="edge24" class="edge">
<title>16&#45;&gt;24</title>
<path fill="none" stroke="black" d="M2045.6,-411.55C2147.77,-387.98 2304.66,-351.77 2408.78,-327.74"/>
<polygon fill="black" stroke="black" points="2409.73,-331.12 2418.68,-325.46 2408.15,-324.3 2409.73,-331.12"/>
</g>
<!-- 18 -->
<g id="node19" class="node">
<title>18</title>
<polygon fill="none" stroke="black" points="1935.5,-217 1738.5,-217 1738.5,-119 1935.5,-119 1935.5,-217"/>
<text text-anchor="middle" x="1837" y="-201.8" font-family="Times,serif" font-size="14.00">node #18</text>
<text text-anchor="middle" x="1837" y="-186.8" font-family="Times,serif" font-size="14.00">FVCPostPercent &lt;= 65.5</text>
<text text-anchor="middle" x="1837" y="-171.8" font-family="Times,serif" font-size="14.00">gini = 0.147</text>
<text text-anchor="middle" x="1837" y="-156.8" font-family="Times,serif" font-size="14.00">samples = 8</text>
<text text-anchor="middle" x="1837" y="-141.8" font-family="Times,serif" font-size="14.00">value = [11.236, 0.979]</text>
<text text-anchor="middle" x="1837" y="-126.8" font-family="Times,serif" font-size="14.00">class = Non&#45;obstructive</text>
</g>
<!-- 17&#45;&gt;18 -->
<g id="edge18" class="edge">
<title>17&#45;&gt;18</title>
<path fill="none" stroke="black" d="M1905.07,-252.97C1897.77,-243.96 1890.07,-234.47 1882.59,-225.24"/>
<polygon fill="black" stroke="black" points="1885.1,-222.78 1876.08,-217.21 1879.66,-227.19 1885.1,-222.78"/>
</g>
<!-- 21 -->
<g id="node22" class="node">
<title>21</title>
<polygon fill="none" stroke="black" points="2148,-217 1954,-217 1954,-119 2148,-119 2148,-217"/>
<text text-anchor="middle" x="2051" y="-201.8" font-family="Times,serif" font-size="14.00">node #21</text>
<text text-anchor="middle" x="2051" y="-186.8" font-family="Times,serif" font-size="14.00">FEV1PostVal &lt;= 2.055</text>
<text text-anchor="middle" x="2051" y="-171.8" font-family="Times,serif" font-size="14.00">gini = 0.451</text>
<text text-anchor="middle" x="2051" y="-156.8" font-family="Times,serif" font-size="14.00">samples = 30</text>
<text text-anchor="middle" x="2051" y="-141.8" font-family="Times,serif" font-size="14.00">value = [15.322, 29.382]</text>
<text text-anchor="middle" x="2051" y="-126.8" font-family="Times,serif" font-size="14.00">class = Obstructive</text>
</g>
<!-- 17&#45;&gt;21 -->
<g id="edge21" class="edge">
<title>17&#45;&gt;21</title>
<path fill="none" stroke="black" d="M1982.93,-252.97C1990.23,-243.96 1997.93,-234.47 2005.41,-225.24"/>
<polygon fill="black" stroke="black" points="2008.34,-227.19 2011.92,-217.21 2002.9,-222.78 2008.34,-227.19"/>
</g>
<!-- 19 -->
<g id="node20" class="node">
<title>19</title>
<polygon fill="none" stroke="black" points="1753,-83 1565,-83 1565,0 1753,0 1753,-83"/>
<text text-anchor="middle" x="1659" y="-67.8" font-family="Times,serif" font-size="14.00">node #19</text>
<text text-anchor="middle" x="1659" y="-52.8" font-family="Times,serif" font-size="14.00">gini = 0.0</text>
<text text-anchor="middle" x="1659" y="-37.8" font-family="Times,serif" font-size="14.00">samples = 7</text>
<text text-anchor="middle" x="1659" y="-22.8" font-family="Times,serif" font-size="14.00">value = [11.236, 0.0]</text>
<text text-anchor="middle" x="1659" y="-7.8" font-family="Times,serif" font-size="14.00">class = Non&#45;obstructive</text>
</g>
<!-- 18&#45;&gt;19 -->
<g id="edge19" class="edge">
<title>18&#45;&gt;19</title>
<path fill="none" stroke="black" d="M1768.18,-118.87C1754.16,-109.06 1739.44,-98.77 1725.51,-89.02"/>
<polygon fill="black" stroke="black" points="1727.15,-85.9 1716.95,-83.03 1723.14,-91.63 1727.15,-85.9"/>
</g>
<!-- 20 -->
<g id="node21" class="node">
<title>20</title>
<polygon fill="none" stroke="black" points="1929,-83 1771,-83 1771,0 1929,0 1929,-83"/>
<text text-anchor="middle" x="1850" y="-67.8" font-family="Times,serif" font-size="14.00">node #20</text>
<text text-anchor="middle" x="1850" y="-52.8" font-family="Times,serif" font-size="14.00">gini = &#45;0.0</text>
<text text-anchor="middle" x="1850" y="-37.8" font-family="Times,serif" font-size="14.00">samples = 1</text>
<text text-anchor="middle" x="1850" y="-22.8" font-family="Times,serif" font-size="14.00">value = [0.0, 0.979]</text>
<text text-anchor="middle" x="1850" y="-7.8" font-family="Times,serif" font-size="14.00">class = Obstructive</text>
</g>
<!-- 18&#45;&gt;20 -->
<g id="edge20" class="edge">
<title>18&#45;&gt;20</title>
<path fill="none" stroke="black" d="M1842.03,-118.87C1842.9,-110.5 1843.81,-101.77 1844.69,-93.33"/>
<polygon fill="black" stroke="black" points="1848.19,-93.54 1845.75,-83.23 1841.23,-92.81 1848.19,-93.54"/>
</g>
<!-- 22 -->
<g id="node23" class="node">
<title>22</title>
<polygon fill="none" stroke="black" points="2131.5,-83 1946.5,-83 1946.5,0 2131.5,0 2131.5,-83"/>
<text text-anchor="middle" x="2039" y="-67.8" font-family="Times,serif" font-size="14.00">node #22</text>
<text text-anchor="middle" x="2039" y="-52.8" font-family="Times,serif" font-size="14.00">gini = 0.104</text>
<text text-anchor="middle" x="2039" y="-37.8" font-family="Times,serif" font-size="14.00">samples = 11</text>
<text text-anchor="middle" x="2039" y="-22.8" font-family="Times,serif" font-size="14.00">value = [1.021, 17.629]</text>
<text text-anchor="middle" x="2039" y="-7.8" font-family="Times,serif" font-size="14.00">class = Obstructive</text>
</g>
<!-- 21&#45;&gt;22 -->
<g id="edge22" class="edge">
<title>21&#45;&gt;22</title>
<path fill="none" stroke="black" d="M2046.36,-118.87C2045.55,-110.5 2044.71,-101.77 2043.9,-93.33"/>
<polygon fill="black" stroke="black" points="2047.37,-92.85 2042.93,-83.23 2040.4,-93.52 2047.37,-92.85"/>
</g>
<!-- 23 -->
<g id="node24" class="node">
<title>23</title>
<polygon fill="none" stroke="black" points="2343,-83 2149,-83 2149,0 2343,0 2343,-83"/>
<text text-anchor="middle" x="2246" y="-67.8" font-family="Times,serif" font-size="14.00">node #23</text>
<text text-anchor="middle" x="2246" y="-52.8" font-family="Times,serif" font-size="14.00">gini = 0.495</text>
<text text-anchor="middle" x="2246" y="-37.8" font-family="Times,serif" font-size="14.00">samples = 19</text>
<text text-anchor="middle" x="2246" y="-22.8" font-family="Times,serif" font-size="14.00">value = [14.301, 11.753]</text>
<text text-anchor="middle" x="2246" y="-7.8" font-family="Times,serif" font-size="14.00">class = Non&#45;obstructive</text>
</g>
<!-- 21&#45;&gt;23 -->
<g id="edge23" class="edge">
<title>21&#45;&gt;23</title>
<path fill="none" stroke="black" d="M2126.39,-118.87C2142.04,-108.88 2158.48,-98.38 2174,-88.47"/>
<polygon fill="black" stroke="black" points="2175.97,-91.36 2182.52,-83.03 2172.2,-85.46 2175.97,-91.36"/>
</g>
<!-- 25 -->
<g id="node26" class="node">
<title>25</title>
<polygon fill="none" stroke="black" points="2623.5,-217 2408.5,-217 2408.5,-119 2623.5,-119 2623.5,-217"/>
<text text-anchor="middle" x="2516" y="-201.8" font-family="Times,serif" font-size="14.00">node #25</text>
<text text-anchor="middle" x="2516" y="-186.8" font-family="Times,serif" font-size="14.00">FEFPostPercent &lt;= 42.889</text>
<text text-anchor="middle" x="2516" y="-171.8" font-family="Times,serif" font-size="14.00">gini = 0.073</text>
<text text-anchor="middle" x="2516" y="-156.8" font-family="Times,serif" font-size="14.00">samples = 78</text>
<text text-anchor="middle" x="2516" y="-141.8" font-family="Times,serif" font-size="14.00">value = [124.62, 4.897]</text>
<text text-anchor="middle" x="2516" y="-126.8" font-family="Times,serif" font-size="14.00">class = Non&#45;obstructive</text>
</g>
<!-- 24&#45;&gt;25 -->
<g id="edge25" class="edge">
<title>24&#45;&gt;25</title>
<path fill="none" stroke="black" d="M2516,-252.97C2516,-244.69 2516,-236 2516,-227.48"/>
<polygon fill="black" stroke="black" points="2519.5,-227.21 2516,-217.21 2512.5,-227.21 2519.5,-227.21"/>
</g>
<!-- 28 -->
<g id="node29" class="node">
<title>28</title>
<polygon fill="none" stroke="black" points="2925,-217 2719,-217 2719,-119 2925,-119 2925,-217"/>
<text text-anchor="middle" x="2822" y="-201.8" font-family="Times,serif" font-size="14.00">node #28</text>
<text text-anchor="middle" x="2822" y="-186.8" font-family="Times,serif" font-size="14.00">FVCPostPercent &lt;= 100.0</text>
<text text-anchor="middle" x="2822" y="-171.8" font-family="Times,serif" font-size="14.00">gini = 0.5</text>
<text text-anchor="middle" x="2822" y="-156.8" font-family="Times,serif" font-size="14.00">samples = 5</text>
<text text-anchor="middle" x="2822" y="-141.8" font-family="Times,serif" font-size="14.00">value = [3.064, 2.938]</text>
<text text-anchor="middle" x="2822" y="-126.8" font-family="Times,serif" font-size="14.00">class = Non&#45;obstructive</text>
</g>
<!-- 24&#45;&gt;28 -->
<g id="edge28" class="edge">
<title>24&#45;&gt;28</title>
<path fill="none" stroke="black" d="M2613.24,-259.05C2643.9,-245.83 2678.02,-231.11 2709.65,-217.47"/>
<polygon fill="black" stroke="black" points="2711.14,-220.63 2718.94,-213.46 2708.37,-214.21 2711.14,-220.63"/>
</g>
<!-- 26 -->
<g id="node27" class="node">
<title>26</title>
<polygon fill="none" stroke="black" points="2519,-83 2361,-83 2361,0 2519,0 2519,-83"/>
<text text-anchor="middle" x="2440" y="-67.8" font-family="Times,serif" font-size="14.00">node #26</text>
<text text-anchor="middle" x="2440" y="-52.8" font-family="Times,serif" font-size="14.00">gini = 0.0</text>
<text text-anchor="middle" x="2440" y="-37.8" font-family="Times,serif" font-size="14.00">samples = 1</text>
<text text-anchor="middle" x="2440" y="-22.8" font-family="Times,serif" font-size="14.00">value = [0.0, 0.979]</text>
<text text-anchor="middle" x="2440" y="-7.8" font-family="Times,serif" font-size="14.00">class = Obstructive</text>
</g>
<!-- 25&#45;&gt;26 -->
<g id="edge26" class="edge">
<title>25&#45;&gt;26</title>
<path fill="none" stroke="black" d="M2486.62,-118.87C2481.23,-110.04 2475.6,-100.81 2470.18,-91.95"/>
<polygon fill="black" stroke="black" points="2473.06,-89.94 2464.86,-83.23 2467.09,-93.59 2473.06,-89.94"/>
</g>
<!-- 27 -->
<g id="node28" class="node">
<title>27</title>
<polygon fill="none" stroke="black" points="2725,-83 2537,-83 2537,0 2725,0 2725,-83"/>
<text text-anchor="middle" x="2631" y="-67.8" font-family="Times,serif" font-size="14.00">node #27</text>
<text text-anchor="middle" x="2631" y="-52.8" font-family="Times,serif" font-size="14.00">gini = 0.059</text>
<text text-anchor="middle" x="2631" y="-37.8" font-family="Times,serif" font-size="14.00">samples = 77</text>
<text text-anchor="middle" x="2631" y="-22.8" font-family="Times,serif" font-size="14.00">value = [124.62, 3.918]</text>
<text text-anchor="middle" x="2631" y="-7.8" font-family="Times,serif" font-size="14.00">class = Non&#45;obstructive</text>
</g>
<!-- 25&#45;&gt;27 -->
<g id="edge27" class="edge">
<title>25&#45;&gt;27</title>
<path fill="none" stroke="black" d="M2560.46,-118.87C2568.96,-109.67 2577.85,-100.04 2586.35,-90.84"/>
<polygon fill="black" stroke="black" points="2589.16,-92.95 2593.38,-83.23 2584.02,-88.2 2589.16,-92.95"/>
</g>
<!-- 29 -->
<g id="node30" class="node">
<title>29</title>
<polygon fill="none" stroke="black" points="2901,-83 2743,-83 2743,0 2901,0 2901,-83"/>
<text text-anchor="middle" x="2822" y="-67.8" font-family="Times,serif" font-size="14.00">node #29</text>
<text text-anchor="middle" x="2822" y="-52.8" font-family="Times,serif" font-size="14.00">gini = 0.0</text>
<text text-anchor="middle" x="2822" y="-37.8" font-family="Times,serif" font-size="14.00">samples = 3</text>
<text text-anchor="middle" x="2822" y="-22.8" font-family="Times,serif" font-size="14.00">value = [0.0, 2.938]</text>
<text text-anchor="middle" x="2822" y="-7.8" font-family="Times,serif" font-size="14.00">class = Obstructive</text>
</g>
<!-- 28&#45;&gt;29 -->
<g id="edge29" class="edge">
<title>28&#45;&gt;29</title>
<path fill="none" stroke="black" d="M2822,-118.87C2822,-110.5 2822,-101.77 2822,-93.33"/>
<polygon fill="black" stroke="black" points="2825.5,-93.23 2822,-83.23 2818.5,-93.23 2825.5,-93.23"/>
</g>
<!-- 30 -->
<g id="node31" class="node">
<title>30</title>
<polygon fill="none" stroke="black" points="3107,-83 2919,-83 2919,0 3107,0 3107,-83"/>
<text text-anchor="middle" x="3013" y="-67.8" font-family="Times,serif" font-size="14.00">node #30</text>
<text text-anchor="middle" x="3013" y="-52.8" font-family="Times,serif" font-size="14.00">gini = 0.0</text>
<text text-anchor="middle" x="3013" y="-37.8" font-family="Times,serif" font-size="14.00">samples = 2</text>
<text text-anchor="middle" x="3013" y="-22.8" font-family="Times,serif" font-size="14.00">value = [3.064, 0.0]</text>
<text text-anchor="middle" x="3013" y="-7.8" font-family="Times,serif" font-size="14.00">class = Non&#45;obstructive</text>
</g>
<!-- 28&#45;&gt;30 -->
<g id="edge30" class="edge">
<title>28&#45;&gt;30</title>
<path fill="none" stroke="black" d="M2895.85,-118.87C2911.03,-108.97 2926.98,-98.57 2942.05,-88.74"/>
<polygon fill="black" stroke="black" points="2944.35,-91.43 2950.82,-83.03 2940.53,-85.56 2944.35,-91.43"/>
</g>
</g>
</svg>
