<?xml version="1.0" encoding="UTF-8" standalone="no"?>
<!DOCTYPE svg PUBLIC "-//W3C//DTD SVG 1.1//EN"
 "http://www.w3.org/Graphics/SVG/1.1/DTD/svg11.dtd">
<!-- Generated by graphviz version 2.43.0 (0)
 -->
<!-- Title: Tree Pages: 1 -->
<svg width="2335pt" height="627pt"
 viewBox="0.00 0.00 2335.00 627.00" xmlns="http://www.w3.org/2000/svg" xmlns:xlink="http://www.w3.org/1999/xlink">
<g id="graph0" class="graph" transform="scale(1 1) rotate(0) translate(4 623)">
<title>Tree</title>
<polygon fill="white" stroke="transparent" points="-4,4 -4,-623 2331,-623 2331,4 -4,4"/>
<!-- 0 -->
<g id="node1" class="node">
<title>0</title>
<polygon fill="none" stroke="black" points="859.5,-619 671.5,-619 671.5,-521 859.5,-521 859.5,-619"/>
<text text-anchor="middle" x="765.5" y="-603.8" font-family="Times,serif" font-size="14.00">node #0</text>
<text text-anchor="middle" x="765.5" y="-588.8" font-family="Times,serif" font-size="14.00">FEFPreVal &lt;= 1.085</text>
<text text-anchor="middle" x="765.5" y="-573.8" font-family="Times,serif" font-size="14.00">gini = 0.5</text>
<text text-anchor="middle" x="765.5" y="-558.8" font-family="Times,serif" font-size="14.00">samples = 204</text>
<text text-anchor="middle" x="765.5" y="-543.8" font-family="Times,serif" font-size="14.00">value = [166.5, 166.5]</text>
<text text-anchor="middle" x="765.5" y="-528.8" font-family="Times,serif" font-size="14.00">class = Non&#45;obstructive</text>
</g>
<!-- 1 -->
<g id="node2" class="node">
<title>1</title>
<polygon fill="none" stroke="black" points="673.5,-485 479.5,-485 479.5,-387 673.5,-387 673.5,-485"/>
<text text-anchor="middle" x="576.5" y="-469.8" font-family="Times,serif" font-size="14.00">node #1</text>
<text text-anchor="middle" x="576.5" y="-454.8" font-family="Times,serif" font-size="14.00">FVCPostVal &lt;= 1.175</text>
<text text-anchor="middle" x="576.5" y="-439.8" font-family="Times,serif" font-size="14.00">gini = 0.151</text>
<text text-anchor="middle" x="576.5" y="-424.8" font-family="Times,serif" font-size="14.00">samples = 64</text>
<text text-anchor="middle" x="576.5" y="-409.8" font-family="Times,serif" font-size="14.00">value = [9.027, 100.698]</text>
<text text-anchor="middle" x="576.5" y="-394.8" font-family="Times,serif" font-size="14.00">class = Obstructive</text>
</g>
<!-- 0&#45;&gt;1 -->
<g id="edge1" class="edge">
<title>0&#45;&gt;1</title>
<path fill="none" stroke="black" d="M696.73,-520.97C682.79,-511.24 668.04,-500.93 653.83,-491.01"/>
<polygon fill="black" stroke="black" points="655.74,-488.07 645.53,-485.21 651.73,-493.81 655.74,-488.07"/>
<text text-anchor="middle" x="649.9" y="-506.13" font-family="Times,serif" font-size="14.00">True</text>
</g>
<!-- 10 -->
<g id="node11" class="node">
<title>10</title>
<polygon fill="none" stroke="black" points="1270,-485 1067,-485 1067,-387 1270,-387 1270,-485"/>
<text text-anchor="middle" x="1168.5" y="-469.8" font-family="Times,serif" font-size="14.00">node #10</text>
<text text-anchor="middle" x="1168.5" y="-454.8" font-family="Times,serif" font-size="14.00">FVCPostVal &lt;= 2.945</text>
<text text-anchor="middle" x="1168.5" y="-439.8" font-family="Times,serif" font-size="14.00">gini = 0.416</text>
<text text-anchor="middle" x="1168.5" y="-424.8" font-family="Times,serif" font-size="14.00">samples = 140</text>
<text text-anchor="middle" x="1168.5" y="-409.8" font-family="Times,serif" font-size="14.00">value = [157.473, 65.802]</text>
<text text-anchor="middle" x="1168.5" y="-394.8" font-family="Times,serif" font-size="14.00">class = Non&#45;obstructive</text>
</g>
<!-- 0&#45;&gt;10 -->
<g id="edge10" class="edge">
<title>0&#45;&gt;10</title>
<path fill="none" stroke="black" d="M859.73,-538.14C918.69,-518.83 994.93,-493.85 1056.91,-473.55"/>
<polygon fill="black" stroke="black" points="1058.31,-476.77 1066.72,-470.34 1056.13,-470.12 1058.31,-476.77"/>
<text text-anchor="middle" x="1055.43" y="-488.94" font-family="Times,serif" font-size="14.00">False</text>
</g>
<!-- 2 -->
<g id="node3" class="node">
<title>2</title>
<polygon fill="none" stroke="black" points="461.5,-343.5 273.5,-343.5 273.5,-260.5 461.5,-260.5 461.5,-343.5"/>
<text text-anchor="middle" x="367.5" y="-328.3" font-family="Times,serif" font-size="14.00">node #2</text>
<text text-anchor="middle" x="367.5" y="-313.3" font-family="Times,serif" font-size="14.00">gini = 0.0</text>
<text text-anchor="middle" x="367.5" y="-298.3" font-family="Times,serif" font-size="14.00">samples = 2</text>
<text text-anchor="middle" x="367.5" y="-283.3" font-family="Times,serif" font-size="14.00">value = [5.015, 0.0]</text>
<text text-anchor="middle" x="367.5" y="-268.3" font-family="Times,serif" font-size="14.00">class = Non&#45;obstructive</text>
</g>
<!-- 1&#45;&gt;2 -->
<g id="edge2" class="edge">
<title>1&#45;&gt;2</title>
<path fill="none" stroke="black" d="M500.45,-386.97C480.83,-374.58 459.76,-361.27 440.31,-348.98"/>
<polygon fill="black" stroke="black" points="442.11,-345.98 431.79,-343.6 438.37,-351.9 442.11,-345.98"/>
</g>
<!-- 3 -->
<g id="node4" class="node">
<title>3</title>
<polygon fill="none" stroke="black" points="673.5,-351 479.5,-351 479.5,-253 673.5,-253 673.5,-351"/>
<text text-anchor="middle" x="576.5" y="-335.8" font-family="Times,serif" font-size="14.00">node #3</text>
<text text-anchor="middle" x="576.5" y="-320.8" font-family="Times,serif" font-size="14.00">FEFPostVal &lt;= 1.025</text>
<text text-anchor="middle" x="576.5" y="-305.8" font-family="Times,serif" font-size="14.00">gini = 0.074</text>
<text text-anchor="middle" x="576.5" y="-290.8" font-family="Times,serif" font-size="14.00">samples = 62</text>
<text text-anchor="middle" x="576.5" y="-275.8" font-family="Times,serif" font-size="14.00">value = [4.012, 100.698]</text>
<text text-anchor="middle" x="576.5" y="-260.8" font-family="Times,serif" font-size="14.00">class = Obstructive</text>
</g>
<!-- 1&#45;&gt;3 -->
<g id="edge3" class="edge">
<title>1&#45;&gt;3</title>
<path fill="none" stroke="black" d="M576.5,-386.97C576.5,-378.69 576.5,-370 576.5,-361.48"/>
<polygon fill="black" stroke="black" points="580,-361.21 576.5,-351.21 573,-361.21 580,-361.21"/>
</g>
<!-- 4 -->
<g id="node5" class="node">
<title>4</title>
<polygon fill="none" stroke="black" points="368,-217 177,-217 177,-119 368,-119 368,-217"/>
<text text-anchor="middle" x="272.5" y="-201.8" font-family="Times,serif" font-size="14.00">node #4</text>
<text text-anchor="middle" x="272.5" y="-186.8" font-family="Times,serif" font-size="14.00">FVCPrePercent &lt;= 70.5</text>
<text text-anchor="middle" x="272.5" y="-171.8" font-family="Times,serif" font-size="14.00">gini = 0.023</text>
<text text-anchor="middle" x="272.5" y="-156.8" font-family="Times,serif" font-size="14.00">samples = 51</text>
<text text-anchor="middle" x="272.5" y="-141.8" font-family="Times,serif" font-size="14.00">value = [1.003, 84.746]</text>
<text text-anchor="middle" x="272.5" y="-126.8" font-family="Times,serif" font-size="14.00">class = Obstructive</text>
</g>
<!-- 3&#45;&gt;4 -->
<g id="edge4" class="edge">
<title>3&#45;&gt;4</title>
<path fill="none" stroke="black" d="M479.5,-256.96C476.46,-255.62 473.46,-254.3 470.5,-253 440.36,-239.79 407.51,-225.71 377.38,-212.94"/>
<polygon fill="black" stroke="black" points="378.69,-209.7 368.12,-209.02 375.97,-216.14 378.69,-209.7"/>
</g>
<!-- 7 -->
<g id="node8" class="node">
<title>7</title>
<polygon fill="none" stroke="black" points="675,-217 478,-217 478,-119 675,-119 675,-217"/>
<text text-anchor="middle" x="576.5" y="-201.8" font-family="Times,serif" font-size="14.00">node #7</text>
<text text-anchor="middle" x="576.5" y="-186.8" font-family="Times,serif" font-size="14.00">FVCPostPercent &lt;= 61.5</text>
<text text-anchor="middle" x="576.5" y="-171.8" font-family="Times,serif" font-size="14.00">gini = 0.267</text>
<text text-anchor="middle" x="576.5" y="-156.8" font-family="Times,serif" font-size="14.00">samples = 11</text>
<text text-anchor="middle" x="576.5" y="-141.8" font-family="Times,serif" font-size="14.00">value = [3.009, 15.952]</text>
<text text-anchor="middle" x="576.5" y="-126.8" font-family="Times,serif" font-size="14.00">class = Obstructive</text>
</g>
<!-- 3&#45;&gt;7 -->
<g id="edge7" class="edge">
<title>3&#45;&gt;7</title>
<path fill="none" stroke="black" d="M576.5,-252.97C576.5,-244.69 576.5,-236 576.5,-227.48"/>
<polygon fill="black" stroke="black" points="580,-227.21 576.5,-217.21 573,-227.21 580,-227.21"/>
</g>
<!-- 5 -->
<g id="node6" class="node">
<title>5</title>
<polygon fill="none" stroke="black" points="167,-83 0,-83 0,0 167,0 167,-83"/>
<text text-anchor="middle" x="83.5" y="-67.8" font-family="Times,serif" font-size="14.00">node #5</text>
<text text-anchor="middle" x="83.5" y="-52.8" font-family="Times,serif" font-size="14.00">gini = 0.0</text>
<text text-anchor="middle" x="83.5" y="-37.8" font-family="Times,serif" font-size="14.00">samples = 44</text>
<text text-anchor="middle" x="83.5" y="-22.8" font-family="Times,serif" font-size="14.00">value = [0.0, 75.772]</text>
<text text-anchor="middle" x="83.5" y="-7.8" font-family="Times,serif" font-size="14.00">class = Obstructive</text>
</g>
<!-- 4&#45;&gt;5 -->
<g id="edge5" class="edge">
<title>4&#45;&gt;5</title>
<path fill="none" stroke="black" d="M199.43,-118.87C184.41,-108.97 168.62,-98.57 153.7,-88.74"/>
<polygon fill="black" stroke="black" points="155.31,-85.61 145.03,-83.03 151.46,-91.46 155.31,-85.61"/>
</g>
<!-- 6 -->
<g id="node7" class="node">
<title>6</title>
<polygon fill="none" stroke="black" points="360.5,-83 184.5,-83 184.5,0 360.5,0 360.5,-83"/>
<text text-anchor="middle" x="272.5" y="-67.8" font-family="Times,serif" font-size="14.00">node #6</text>
<text text-anchor="middle" x="272.5" y="-52.8" font-family="Times,serif" font-size="14.00">gini = 0.181</text>
<text text-anchor="middle" x="272.5" y="-37.8" font-family="Times,serif" font-size="14.00">samples = 7</text>
<text text-anchor="middle" x="272.5" y="-22.8" font-family="Times,serif" font-size="14.00">value = [1.003, 8.973]</text>
<text text-anchor="middle" x="272.5" y="-7.8" font-family="Times,serif" font-size="14.00">class = Obstructive</text>
</g>
<!-- 4&#45;&gt;6 -->
<g id="edge6" class="edge">
<title>4&#45;&gt;6</title>
<path fill="none" stroke="black" d="M272.5,-118.87C272.5,-110.5 272.5,-101.77 272.5,-93.33"/>
<polygon fill="black" stroke="black" points="276,-93.23 272.5,-83.23 269,-93.23 276,-93.23"/>
</g>
<!-- 8 -->
<g id="node9" class="node">
<title>8</title>
<polygon fill="none" stroke="black" points="566.5,-83 378.5,-83 378.5,0 566.5,0 566.5,-83"/>
<text text-anchor="middle" x="472.5" y="-67.8" font-family="Times,serif" font-size="14.00">node #8</text>
<text text-anchor="middle" x="472.5" y="-52.8" font-family="Times,serif" font-size="14.00">gini = 0.374</text>
<text text-anchor="middle" x="472.5" y="-37.8" font-family="Times,serif" font-size="14.00">samples = 3</text>
<text text-anchor="middle" x="472.5" y="-22.8" font-family="Times,serif" font-size="14.00">value = [3.009, 0.997]</text>
<text text-anchor="middle" x="472.5" y="-7.8" font-family="Times,serif" font-size="14.00">class = Non&#45;obstructive</text>
</g>
<!-- 7&#45;&gt;8 -->
<g id="edge8" class="edge">
<title>7&#45;&gt;8</title>
<path fill="none" stroke="black" d="M536.29,-118.87C528.69,-109.76 520.73,-100.23 513.11,-91.12"/>
<polygon fill="black" stroke="black" points="515.62,-88.66 506.52,-83.23 510.25,-93.15 515.62,-88.66"/>
</g>
<!-- 9 -->
<g id="node10" class="node">
<title>9</title>
<polygon fill="none" stroke="black" points="752,-83 585,-83 585,0 752,0 752,-83"/>
<text text-anchor="middle" x="668.5" y="-67.8" font-family="Times,serif" font-size="14.00">node #9</text>
<text text-anchor="middle" x="668.5" y="-52.8" font-family="Times,serif" font-size="14.00">gini = 0.0</text>
<text text-anchor="middle" x="668.5" y="-37.8" font-family="Times,serif" font-size="14.00">samples = 8</text>
<text text-anchor="middle" x="668.5" y="-22.8" font-family="Times,serif" font-size="14.00">value = [0.0, 14.955]</text>
<text text-anchor="middle" x="668.5" y="-7.8" font-family="Times,serif" font-size="14.00">class = Obstructive</text>
</g>
<!-- 7&#45;&gt;9 -->
<g id="edge9" class="edge">
<title>7&#45;&gt;9</title>
<path fill="none" stroke="black" d="M612.07,-118.87C618.73,-109.85 625.69,-100.43 632.37,-91.39"/>
<polygon fill="black" stroke="black" points="635.27,-93.35 638.4,-83.23 629.64,-89.19 635.27,-93.35"/>
</g>
<!-- 11 -->
<g id="node12" class="node">
<title>11</title>
<polygon fill="none" stroke="black" points="1270,-351 1067,-351 1067,-253 1270,-253 1270,-351"/>
<text text-anchor="middle" x="1168.5" y="-335.8" font-family="Times,serif" font-size="14.00">node #11</text>
<text text-anchor="middle" x="1168.5" y="-320.8" font-family="Times,serif" font-size="14.00">FVCPostPercent &lt;= 84.5</text>
<text text-anchor="middle" x="1168.5" y="-305.8" font-family="Times,serif" font-size="14.00">gini = 0.249</text>
<text text-anchor="middle" x="1168.5" y="-290.8" font-family="Times,serif" font-size="14.00">samples = 104</text>
<text text-anchor="middle" x="1168.5" y="-275.8" font-family="Times,serif" font-size="14.00">value = [140.422, 23.928]</text>
<text text-anchor="middle" x="1168.5" y="-260.8" font-family="Times,serif" font-size="14.00">class = Non&#45;obstructive</text>
</g>
<!-- 10&#45;&gt;11 -->
<g id="edge11" class="edge">
<title>10&#45;&gt;11</title>
<path fill="none" stroke="black" d="M1168.5,-386.97C1168.5,-378.69 1168.5,-370 1168.5,-361.48"/>
<polygon fill="black" stroke="black" points="1172,-361.21 1168.5,-351.21 1165,-361.21 1172,-361.21"/>
</g>
<!-- 18 -->
<g id="node19" class="node">
<title>18</title>
<polygon fill="none" stroke="black" points="1841.5,-351 1647.5,-351 1647.5,-253 1841.5,-253 1841.5,-351"/>
<text text-anchor="middle" x="1744.5" y="-335.8" font-family="Times,serif" font-size="14.00">node #18</text>
<text text-anchor="middle" x="1744.5" y="-320.8" font-family="Times,serif" font-size="14.00">FEFPostVal &lt;= 2.965</text>
<text text-anchor="middle" x="1744.5" y="-305.8" font-family="Times,serif" font-size="14.00">gini = 0.411</text>
<text text-anchor="middle" x="1744.5" y="-290.8" font-family="Times,serif" font-size="14.00">samples = 36</text>
<text text-anchor="middle" x="1744.5" y="-275.8" font-family="Times,serif" font-size="14.00">value = [17.051, 41.874]</text>
<text text-anchor="middle" x="1744.5" y="-260.8" font-family="Times,serif" font-size="14.00">class = Obstructive</text>
</g>
<!-- 10&#45;&gt;18 -->
<g id="edge18" class="edge">
<title>10&#45;&gt;18</title>
<path fill="none" stroke="black" d="M1270.15,-411.7C1373.24,-388.08 1532.16,-351.66 1637.23,-327.58"/>
<polygon fill="black" stroke="black" points="1638.26,-330.94 1647.22,-325.29 1636.69,-324.11 1638.26,-330.94"/>
</g>
<!-- 12 -->
<g id="node13" class="node">
<title>12</title>
<polygon fill="none" stroke="black" points="1160,-217 957,-217 957,-119 1160,-119 1160,-217"/>
<text text-anchor="middle" x="1058.5" y="-201.8" font-family="Times,serif" font-size="14.00">node #12</text>
<text text-anchor="middle" x="1058.5" y="-186.8" font-family="Times,serif" font-size="14.00">FEFPreVal &lt;= 1.94</text>
<text text-anchor="middle" x="1058.5" y="-171.8" font-family="Times,serif" font-size="14.00">gini = 0.167</text>
<text text-anchor="middle" x="1058.5" y="-156.8" font-family="Times,serif" font-size="14.00">samples = 95</text>
<text text-anchor="middle" x="1058.5" y="-141.8" font-family="Times,serif" font-size="14.00">value = [137.413, 13.958]</text>
<text text-anchor="middle" x="1058.5" y="-126.8" font-family="Times,serif" font-size="14.00">class = Non&#45;obstructive</text>
</g>
<!-- 11&#45;&gt;12 -->
<g id="edge12" class="edge">
<title>11&#45;&gt;12</title>
<path fill="none" stroke="black" d="M1128.48,-252.97C1120.89,-243.87 1112.9,-234.28 1105.13,-224.96"/>
<polygon fill="black" stroke="black" points="1107.77,-222.66 1098.68,-217.21 1102.39,-227.14 1107.77,-222.66"/>
</g>
<!-- 15 -->
<g id="node16" class="node">
<title>15</title>
<polygon fill="none" stroke="black" points="1378.5,-217 1178.5,-217 1178.5,-119 1378.5,-119 1378.5,-217"/>
<text text-anchor="middle" x="1278.5" y="-201.8" font-family="Times,serif" font-size="14.00">node #15</text>
<text text-anchor="middle" x="1278.5" y="-186.8" font-family="Times,serif" font-size="14.00">FEV1PrePercent &lt;= 99.0</text>
<text text-anchor="middle" x="1278.5" y="-171.8" font-family="Times,serif" font-size="14.00">gini = 0.356</text>
<text text-anchor="middle" x="1278.5" y="-156.8" font-family="Times,serif" font-size="14.00">samples = 9</text>
<text text-anchor="middle" x="1278.5" y="-141.8" font-family="Times,serif" font-size="14.00">value = [3.009, 9.97]</text>
<text text-anchor="middle" x="1278.5" y="-126.8" font-family="Times,serif" font-size="14.00">class = Obstructive</text>
</g>
<!-- 11&#45;&gt;15 -->
<g id="edge15" class="edge">
<title>11&#45;&gt;15</title>
<path fill="none" stroke="black" d="M1208.52,-252.97C1216.11,-243.87 1224.1,-234.28 1231.87,-224.96"/>
<polygon fill="black" stroke="black" points="1234.61,-227.14 1238.32,-217.21 1229.23,-222.66 1234.61,-227.14"/>
</g>
<!-- 13 -->
<g id="node14" class="node">
<title>13</title>
<polygon fill="none" stroke="black" points="958.5,-83 770.5,-83 770.5,0 958.5,0 958.5,-83"/>
<text text-anchor="middle" x="864.5" y="-67.8" font-family="Times,serif" font-size="14.00">node #13</text>
<text text-anchor="middle" x="864.5" y="-52.8" font-family="Times,serif" font-size="14.00">gini = 0.329</text>
<text text-anchor="middle" x="864.5" y="-37.8" font-family="Times,serif" font-size="14.00">samples = 34</text>
<text text-anchor="middle" x="864.5" y="-22.8" font-family="Times,serif" font-size="14.00">value = [38.114, 9.97]</text>
<text text-anchor="middle" x="864.5" y="-7.8" font-family="Times,serif" font-size="14.00">class = Non&#45;obstructive</text>
</g>
<!-- 12&#45;&gt;13 -->
<g id="edge13" class="edge">
<title>12&#45;&gt;13</title>
<path fill="none" stroke="black" d="M983.49,-118.87C967.93,-108.88 951.57,-98.38 936.13,-88.47"/>
<polygon fill="black" stroke="black" points="937.97,-85.49 927.66,-83.03 934.18,-91.38 937.97,-85.49"/>
</g>
<!-- 14 -->
<g id="node15" class="node">
<title>14</title>
<polygon fill="none" stroke="black" points="1164.5,-83 976.5,-83 976.5,0 1164.5,0 1164.5,-83"/>
<text text-anchor="middle" x="1070.5" y="-67.8" font-family="Times,serif" font-size="14.00">node #14</text>
<text text-anchor="middle" x="1070.5" y="-52.8" font-family="Times,serif" font-size="14.00">gini = 0.074</text>
<text text-anchor="middle" x="1070.5" y="-37.8" font-family="Times,serif" font-size="14.00">samples = 61</text>
<text text-anchor="middle" x="1070.5" y="-22.8" font-family="Times,serif" font-size="14.00">value = [99.298, 3.988]</text>
<text text-anchor="middle" x="1070.5" y="-7.8" font-family="Times,serif" font-size="14.00">class = Non&#45;obstructive</text>
</g>
<!-- 12&#45;&gt;14 -->
<g id="edge14" class="edge">
<title>12&#45;&gt;14</title>
<path fill="none" stroke="black" d="M1063.14,-118.87C1063.95,-110.5 1064.79,-101.77 1065.6,-93.33"/>
<polygon fill="black" stroke="black" points="1069.1,-93.52 1066.57,-83.23 1062.13,-92.85 1069.1,-93.52"/>
</g>
<!-- 16 -->
<g id="node17" class="node">
<title>16</title>
<polygon fill="none" stroke="black" points="1350,-83 1183,-83 1183,0 1350,0 1350,-83"/>
<text text-anchor="middle" x="1266.5" y="-67.8" font-family="Times,serif" font-size="14.00">node #16</text>
<text text-anchor="middle" x="1266.5" y="-52.8" font-family="Times,serif" font-size="14.00">gini = 0.166</text>
<text text-anchor="middle" x="1266.5" y="-37.8" font-family="Times,serif" font-size="14.00">samples = 7</text>
<text text-anchor="middle" x="1266.5" y="-22.8" font-family="Times,serif" font-size="14.00">value = [1.003, 9.97]</text>
<text text-anchor="middle" x="1266.5" y="-7.8" font-family="Times,serif" font-size="14.00">class = Obstructive</text>
</g>
<!-- 15&#45;&gt;16 -->
<g id="edge16" class="edge">
<title>15&#45;&gt;16</title>
<path fill="none" stroke="black" d="M1273.86,-118.87C1273.05,-110.5 1272.21,-101.77 1271.4,-93.33"/>
<polygon fill="black" stroke="black" points="1274.87,-92.85 1270.43,-83.23 1267.9,-93.52 1274.87,-92.85"/>
</g>
<!-- 17 -->
<g id="node18" class="node">
<title>17</title>
<polygon fill="none" stroke="black" points="1556.5,-83 1368.5,-83 1368.5,0 1556.5,0 1556.5,-83"/>
<text text-anchor="middle" x="1462.5" y="-67.8" font-family="Times,serif" font-size="14.00">node #17</text>
<text text-anchor="middle" x="1462.5" y="-52.8" font-family="Times,serif" font-size="14.00">gini = &#45;0.0</text>
<text text-anchor="middle" x="1462.5" y="-37.8" font-family="Times,serif" font-size="14.00">samples = 2</text>
<text text-anchor="middle" x="1462.5" y="-22.8" font-family="Times,serif" font-size="14.00">value = [2.006, 0.0]</text>
<text text-anchor="middle" x="1462.5" y="-7.8" font-family="Times,serif" font-size="14.00">class = Non&#45;obstructive</text>
</g>
<!-- 15&#45;&gt;17 -->
<g id="edge17" class="edge">
<title>15&#45;&gt;17</title>
<path fill="none" stroke="black" d="M1349.64,-118.87C1364.26,-108.97 1379.63,-98.57 1394.15,-88.74"/>
<polygon fill="black" stroke="black" points="1396.28,-91.54 1402.6,-83.03 1392.35,-85.74 1396.28,-91.54"/>
</g>
<!-- 19 -->
<g id="node20" class="node">
<title>19</title>
<polygon fill="none" stroke="black" points="1847.5,-217 1641.5,-217 1641.5,-119 1847.5,-119 1847.5,-217"/>
<text text-anchor="middle" x="1744.5" y="-201.8" font-family="Times,serif" font-size="14.00">node #19</text>
<text text-anchor="middle" x="1744.5" y="-186.8" font-family="Times,serif" font-size="14.00">FEV1PostPercent &lt;= 69.0</text>
<text text-anchor="middle" x="1744.5" y="-171.8" font-family="Times,serif" font-size="14.00">gini = 0.129</text>
<text text-anchor="middle" x="1744.5" y="-156.8" font-family="Times,serif" font-size="14.00">samples = 17</text>
<text text-anchor="middle" x="1744.5" y="-141.8" font-family="Times,serif" font-size="14.00">value = [2.006, 26.919]</text>
<text text-anchor="middle" x="1744.5" y="-126.8" font-family="Times,serif" font-size="14.00">class = Obstructive</text>
</g>
<!-- 18&#45;&gt;19 -->
<g id="edge19" class="edge">
<title>18&#45;&gt;19</title>
<path fill="none" stroke="black" d="M1744.5,-252.97C1744.5,-244.69 1744.5,-236 1744.5,-227.48"/>
<polygon fill="black" stroke="black" points="1748,-227.21 1744.5,-217.21 1741,-227.21 1748,-227.21"/>
</g>
<!-- 22 -->
<g id="node23" class="node">
<title>22</title>
<polygon fill="none" stroke="black" points="2146,-217 1949,-217 1949,-119 2146,-119 2146,-217"/>
<text text-anchor="middle" x="2047.5" y="-201.8" font-family="Times,serif" font-size="14.00">node #22</text>
<text text-anchor="middle" x="2047.5" y="-186.8" font-family="Times,serif" font-size="14.00">FVCPostPercent &lt;= 90.0</text>
<text text-anchor="middle" x="2047.5" y="-171.8" font-family="Times,serif" font-size="14.00">gini = 0.5</text>
<text text-anchor="middle" x="2047.5" y="-156.8" font-family="Times,serif" font-size="14.00">samples = 19</text>
<text text-anchor="middle" x="2047.5" y="-141.8" font-family="Times,serif" font-size="14.00">value = [15.045, 14.955]</text>
<text text-anchor="middle" x="2047.5" y="-126.8" font-family="Times,serif" font-size="14.00">class = Non&#45;obstructive</text>
</g>
<!-- 18&#45;&gt;22 -->
<g id="edge22" class="edge">
<title>18&#45;&gt;22</title>
<path fill="none" stroke="black" d="M1841.62,-258.69C1872.82,-245.1 1907.56,-229.97 1939.48,-216.06"/>
<polygon fill="black" stroke="black" points="1941.08,-219.18 1948.85,-211.98 1938.28,-212.76 1941.08,-219.18"/>
</g>
<!-- 20 -->
<g id="node21" class="node">
<title>20</title>
<polygon fill="none" stroke="black" points="1750.5,-83 1574.5,-83 1574.5,0 1750.5,0 1750.5,-83"/>
<text text-anchor="middle" x="1662.5" y="-67.8" font-family="Times,serif" font-size="14.00">node #20</text>
<text text-anchor="middle" x="1662.5" y="-52.8" font-family="Times,serif" font-size="14.00">gini = 0.445</text>
<text text-anchor="middle" x="1662.5" y="-37.8" font-family="Times,serif" font-size="14.00">samples = 4</text>
<text text-anchor="middle" x="1662.5" y="-22.8" font-family="Times,serif" font-size="14.00">value = [2.006, 3.988]</text>
<text text-anchor="middle" x="1662.5" y="-7.8" font-family="Times,serif" font-size="14.00">class = Obstructive</text>
</g>
<!-- 19&#45;&gt;20 -->
<g id="edge20" class="edge">
<title>19&#45;&gt;20</title>
<path fill="none" stroke="black" d="M1712.8,-118.87C1706.92,-109.95 1700.78,-100.62 1694.88,-91.67"/>
<polygon fill="black" stroke="black" points="1697.75,-89.66 1689.33,-83.23 1691.9,-93.51 1697.75,-89.66"/>
</g>
<!-- 21 -->
<g id="node22" class="node">
<title>21</title>
<polygon fill="none" stroke="black" points="1935,-83 1768,-83 1768,0 1935,0 1935,-83"/>
<text text-anchor="middle" x="1851.5" y="-67.8" font-family="Times,serif" font-size="14.00">node #21</text>
<text text-anchor="middle" x="1851.5" y="-52.8" font-family="Times,serif" font-size="14.00">gini = 0.0</text>
<text text-anchor="middle" x="1851.5" y="-37.8" font-family="Times,serif" font-size="14.00">samples = 13</text>
<text text-anchor="middle" x="1851.5" y="-22.8" font-family="Times,serif" font-size="14.00">value = [0.0, 22.931]</text>
<text text-anchor="middle" x="1851.5" y="-7.8" font-family="Times,serif" font-size="14.00">class = Obstructive</text>
</g>
<!-- 19&#45;&gt;21 -->
<g id="edge21" class="edge">
<title>19&#45;&gt;21</title>
<path fill="none" stroke="black" d="M1785.87,-118.87C1793.77,-109.67 1802.05,-100.04 1809.95,-90.84"/>
<polygon fill="black" stroke="black" points="1812.63,-93.1 1816.49,-83.23 1807.32,-88.53 1812.63,-93.1"/>
</g>
<!-- 23 -->
<g id="node24" class="node">
<title>23</title>
<polygon fill="none" stroke="black" points="2141.5,-83 1953.5,-83 1953.5,0 2141.5,0 2141.5,-83"/>
<text text-anchor="middle" x="2047.5" y="-67.8" font-family="Times,serif" font-size="14.00">node #23</text>
<text text-anchor="middle" x="2047.5" y="-52.8" font-family="Times,serif" font-size="14.00">gini = 0.4</text>
<text text-anchor="middle" x="2047.5" y="-37.8" font-family="Times,serif" font-size="14.00">samples = 11</text>
<text text-anchor="middle" x="2047.5" y="-22.8" font-family="Times,serif" font-size="14.00">value = [13.039, 4.985]</text>
<text text-anchor="middle" x="2047.5" y="-7.8" font-family="Times,serif" font-size="14.00">class = Non&#45;obstructive</text>
</g>
<!-- 22&#45;&gt;23 -->
<g id="edge23" class="edge">
<title>22&#45;&gt;23</title>
<path fill="none" stroke="black" d="M2047.5,-118.87C2047.5,-110.5 2047.5,-101.77 2047.5,-93.33"/>
<polygon fill="black" stroke="black" points="2051,-93.23 2047.5,-83.23 2044,-93.23 2051,-93.23"/>
</g>
<!-- 24 -->
<g id="node25" class="node">
<title>24</title>
<polygon fill="none" stroke="black" points="2327,-83 2160,-83 2160,0 2327,0 2327,-83"/>
<text text-anchor="middle" x="2243.5" y="-67.8" font-family="Times,serif" font-size="14.00">node #24</text>
<text text-anchor="middle" x="2243.5" y="-52.8" font-family="Times,serif" font-size="14.00">gini = 0.279</text>
<text text-anchor="middle" x="2243.5" y="-37.8" font-family="Times,serif" font-size="14.00">samples = 8</text>
<text text-anchor="middle" x="2243.5" y="-22.8" font-family="Times,serif" font-size="14.00">value = [2.006, 9.97]</text>
<text text-anchor="middle" x="2243.5" y="-7.8" font-family="Times,serif" font-size="14.00">class = Obstructive</text>
</g>
<!-- 22&#45;&gt;24 -->
<g id="edge24" class="edge">
<title>22&#45;&gt;24</title>
<path fill="none" stroke="black" d="M2123.28,-118.87C2139,-108.88 2155.53,-98.38 2171.13,-88.47"/>
<polygon fill="black" stroke="black" points="2173.13,-91.35 2179.69,-83.03 2169.37,-85.44 2173.13,-91.35"/>
</g>
</g>
</svg>
