<?xml version="1.0" encoding="UTF-8" standalone="no"?>
<!DOCTYPE svg PUBLIC "-//W3C//DTD SVG 1.1//EN"
 "http://www.w3.org/Graphics/SVG/1.1/DTD/svg11.dtd">
<!-- Generated by graphviz version 2.43.0 (0)
 -->
<!-- Title: Tree Pages: 1 -->
<svg width="2398pt" height="627pt"
 viewBox="0.00 0.00 2398.00 627.00" xmlns="http://www.w3.org/2000/svg" xmlns:xlink="http://www.w3.org/1999/xlink">
<g id="graph0" class="graph" transform="scale(1 1) rotate(0) translate(4 623)">
<title>Tree</title>
<polygon fill="white" stroke="transparent" points="-4,4 -4,-623 2394,-623 2394,4 -4,4"/>
<!-- 0 -->
<g id="node1" class="node">
<title>0</title>
<polygon fill="none" stroke="black" points="953,-619 777,-619 777,-521 953,-521 953,-619"/>
<text text-anchor="middle" x="865" y="-603.8" font-family="Times,serif" font-size="14.00">node #0</text>
<text text-anchor="middle" x="865" y="-588.8" font-family="Times,serif" font-size="14.00">FEFPreVal &lt;= 1.11</text>
<text text-anchor="middle" x="865" y="-573.8" font-family="Times,serif" font-size="14.00">gini = 0.5</text>
<text text-anchor="middle" x="865" y="-558.8" font-family="Times,serif" font-size="14.00">samples = 212</text>
<text text-anchor="middle" x="865" y="-543.8" font-family="Times,serif" font-size="14.00">value = [166.5, 166.5]</text>
<text text-anchor="middle" x="865" y="-528.8" font-family="Times,serif" font-size="14.00">class = Obstructive</text>
</g>
<!-- 1 -->
<g id="node2" class="node">
<title>1</title>
<polygon fill="none" stroke="black" points="684.5,-485 487.5,-485 487.5,-387 684.5,-387 684.5,-485"/>
<text text-anchor="middle" x="586" y="-469.8" font-family="Times,serif" font-size="14.00">node #1</text>
<text text-anchor="middle" x="586" y="-454.8" font-family="Times,serif" font-size="14.00">FVCPostPercent &lt;= 40.5</text>
<text text-anchor="middle" x="586" y="-439.8" font-family="Times,serif" font-size="14.00">gini = 0.156</text>
<text text-anchor="middle" x="586" y="-424.8" font-family="Times,serif" font-size="14.00">samples = 64</text>
<text text-anchor="middle" x="586" y="-409.8" font-family="Times,serif" font-size="14.00">value = [8.466, 90.721]</text>
<text text-anchor="middle" x="586" y="-394.8" font-family="Times,serif" font-size="14.00">class = Obstructive</text>
</g>
<!-- 0&#45;&gt;1 -->
<g id="edge1" class="edge">
<title>0&#45;&gt;1</title>
<path fill="none" stroke="black" d="M776.72,-527.23C750.47,-514.82 721.42,-501.07 694.06,-488.13"/>
<polygon fill="black" stroke="black" points="695.39,-484.88 684.86,-483.77 692.4,-491.21 695.39,-484.88"/>
<text text-anchor="middle" x="693.28" y="-503.61" font-family="Times,serif" font-size="14.00">True</text>
</g>
<!-- 12 -->
<g id="node13" class="node">
<title>12</title>
<polygon fill="none" stroke="black" points="1291.5,-485 1088.5,-485 1088.5,-387 1291.5,-387 1291.5,-485"/>
<text text-anchor="middle" x="1190" y="-469.8" font-family="Times,serif" font-size="14.00">node #12</text>
<text text-anchor="middle" x="1190" y="-454.8" font-family="Times,serif" font-size="14.00">FVCPostVal &lt;= 2.61</text>
<text text-anchor="middle" x="1190" y="-439.8" font-family="Times,serif" font-size="14.00">gini = 0.438</text>
<text text-anchor="middle" x="1190" y="-424.8" font-family="Times,serif" font-size="14.00">samples = 148</text>
<text text-anchor="middle" x="1190" y="-409.8" font-family="Times,serif" font-size="14.00">value = [158.034, 75.779]</text>
<text text-anchor="middle" x="1190" y="-394.8" font-family="Times,serif" font-size="14.00">class = Non&#45;obstructive</text>
</g>
<!-- 0&#45;&gt;12 -->
<g id="edge12" class="edge">
<title>0&#45;&gt;12</title>
<path fill="none" stroke="black" d="M953.38,-533.1C992.09,-517.38 1037.95,-498.76 1078.94,-482.11"/>
<polygon fill="black" stroke="black" points="1080.47,-485.26 1088.42,-478.26 1077.84,-478.78 1080.47,-485.26"/>
<text text-anchor="middle" x="1078.69" y="-497.59" font-family="Times,serif" font-size="14.00">False</text>
</g>
<!-- 2 -->
<g id="node3" class="node">
<title>2</title>
<polygon fill="none" stroke="black" points="388,-351 200,-351 200,-253 388,-253 388,-351"/>
<text text-anchor="middle" x="294" y="-335.8" font-family="Times,serif" font-size="14.00">node #2</text>
<text text-anchor="middle" x="294" y="-320.8" font-family="Times,serif" font-size="14.00">FVCPostVal &lt;= 1.21</text>
<text text-anchor="middle" x="294" y="-305.8" font-family="Times,serif" font-size="14.00">gini = 0.462</text>
<text text-anchor="middle" x="294" y="-290.8" font-family="Times,serif" font-size="14.00">samples = 6</text>
<text text-anchor="middle" x="294" y="-275.8" font-family="Times,serif" font-size="14.00">value = [5.644, 3.202]</text>
<text text-anchor="middle" x="294" y="-260.8" font-family="Times,serif" font-size="14.00">class = Non&#45;obstructive</text>
</g>
<!-- 1&#45;&gt;2 -->
<g id="edge2" class="edge">
<title>1&#45;&gt;2</title>
<path fill="none" stroke="black" d="M487.14,-390.31C458.33,-377.29 426.77,-363.02 397.67,-349.86"/>
<polygon fill="black" stroke="black" points="398.87,-346.56 388.31,-345.63 395.98,-352.94 398.87,-346.56"/>
</g>
<!-- 7 -->
<g id="node8" class="node">
<title>7</title>
<polygon fill="none" stroke="black" points="684.5,-351 487.5,-351 487.5,-253 684.5,-253 684.5,-351"/>
<text text-anchor="middle" x="586" y="-335.8" font-family="Times,serif" font-size="14.00">node #7</text>
<text text-anchor="middle" x="586" y="-320.8" font-family="Times,serif" font-size="14.00">FVCPostPercent &lt;= 62.5</text>
<text text-anchor="middle" x="586" y="-305.8" font-family="Times,serif" font-size="14.00">gini = 0.061</text>
<text text-anchor="middle" x="586" y="-290.8" font-family="Times,serif" font-size="14.00">samples = 58</text>
<text text-anchor="middle" x="586" y="-275.8" font-family="Times,serif" font-size="14.00">value = [2.822, 87.519]</text>
<text text-anchor="middle" x="586" y="-260.8" font-family="Times,serif" font-size="14.00">class = Obstructive</text>
</g>
<!-- 1&#45;&gt;7 -->
<g id="edge7" class="edge">
<title>1&#45;&gt;7</title>
<path fill="none" stroke="black" d="M586,-386.97C586,-378.69 586,-370 586,-361.48"/>
<polygon fill="black" stroke="black" points="589.5,-361.21 586,-351.21 582.5,-361.21 589.5,-361.21"/>
</g>
<!-- 3 -->
<g id="node4" class="node">
<title>3</title>
<polygon fill="none" stroke="black" points="188,-209.5 0,-209.5 0,-126.5 188,-126.5 188,-209.5"/>
<text text-anchor="middle" x="94" y="-194.3" font-family="Times,serif" font-size="14.00">node #3</text>
<text text-anchor="middle" x="94" y="-179.3" font-family="Times,serif" font-size="14.00">gini = 0.0</text>
<text text-anchor="middle" x="94" y="-164.3" font-family="Times,serif" font-size="14.00">samples = 3</text>
<text text-anchor="middle" x="94" y="-149.3" font-family="Times,serif" font-size="14.00">value = [4.703, 0.0]</text>
<text text-anchor="middle" x="94" y="-134.3" font-family="Times,serif" font-size="14.00">class = Non&#45;obstructive</text>
</g>
<!-- 2&#45;&gt;3 -->
<g id="edge3" class="edge">
<title>2&#45;&gt;3</title>
<path fill="none" stroke="black" d="M221.23,-252.97C202.54,-240.63 182.47,-227.39 163.92,-215.15"/>
<polygon fill="black" stroke="black" points="165.79,-212.19 155.52,-209.6 161.94,-218.03 165.79,-212.19"/>
</g>
<!-- 4 -->
<g id="node5" class="node">
<title>4</title>
<polygon fill="none" stroke="black" points="382,-217 206,-217 206,-119 382,-119 382,-217"/>
<text text-anchor="middle" x="294" y="-201.8" font-family="Times,serif" font-size="14.00">node #4</text>
<text text-anchor="middle" x="294" y="-186.8" font-family="Times,serif" font-size="14.00">FEFPostVal &lt;= 0.4</text>
<text text-anchor="middle" x="294" y="-171.8" font-family="Times,serif" font-size="14.00">gini = 0.351</text>
<text text-anchor="middle" x="294" y="-156.8" font-family="Times,serif" font-size="14.00">samples = 3</text>
<text text-anchor="middle" x="294" y="-141.8" font-family="Times,serif" font-size="14.00">value = [0.941, 3.202]</text>
<text text-anchor="middle" x="294" y="-126.8" font-family="Times,serif" font-size="14.00">class = Obstructive</text>
</g>
<!-- 2&#45;&gt;4 -->
<g id="edge4" class="edge">
<title>2&#45;&gt;4</title>
<path fill="none" stroke="black" d="M294,-252.97C294,-244.69 294,-236 294,-227.48"/>
<polygon fill="black" stroke="black" points="297.5,-227.21 294,-217.21 290.5,-227.21 297.5,-227.21"/>
</g>
<!-- 5 -->
<g id="node6" class="node">
<title>5</title>
<polygon fill="none" stroke="black" points="182,-83 24,-83 24,0 182,0 182,-83"/>
<text text-anchor="middle" x="103" y="-67.8" font-family="Times,serif" font-size="14.00">node #5</text>
<text text-anchor="middle" x="103" y="-52.8" font-family="Times,serif" font-size="14.00">gini = &#45;0.0</text>
<text text-anchor="middle" x="103" y="-37.8" font-family="Times,serif" font-size="14.00">samples = 2</text>
<text text-anchor="middle" x="103" y="-22.8" font-family="Times,serif" font-size="14.00">value = [0.0, 3.202]</text>
<text text-anchor="middle" x="103" y="-7.8" font-family="Times,serif" font-size="14.00">class = Obstructive</text>
</g>
<!-- 4&#45;&gt;5 -->
<g id="edge5" class="edge">
<title>4&#45;&gt;5</title>
<path fill="none" stroke="black" d="M220.15,-118.87C204.97,-108.97 189.02,-98.57 173.95,-88.74"/>
<polygon fill="black" stroke="black" points="175.47,-85.56 165.18,-83.03 171.65,-91.43 175.47,-85.56"/>
</g>
<!-- 6 -->
<g id="node7" class="node">
<title>6</title>
<polygon fill="none" stroke="black" points="388,-83 200,-83 200,0 388,0 388,-83"/>
<text text-anchor="middle" x="294" y="-67.8" font-family="Times,serif" font-size="14.00">node #6</text>
<text text-anchor="middle" x="294" y="-52.8" font-family="Times,serif" font-size="14.00">gini = 0.0</text>
<text text-anchor="middle" x="294" y="-37.8" font-family="Times,serif" font-size="14.00">samples = 1</text>
<text text-anchor="middle" x="294" y="-22.8" font-family="Times,serif" font-size="14.00">value = [0.941, 0.0]</text>
<text text-anchor="middle" x="294" y="-7.8" font-family="Times,serif" font-size="14.00">class = Non&#45;obstructive</text>
</g>
<!-- 4&#45;&gt;6 -->
<g id="edge6" class="edge">
<title>4&#45;&gt;6</title>
<path fill="none" stroke="black" d="M294,-118.87C294,-110.5 294,-101.77 294,-93.33"/>
<polygon fill="black" stroke="black" points="297.5,-93.23 294,-83.23 290.5,-93.23 297.5,-93.23"/>
</g>
<!-- 8 -->
<g id="node9" class="node">
<title>8</title>
<polygon fill="none" stroke="black" points="675.5,-217 490.5,-217 490.5,-119 675.5,-119 675.5,-217"/>
<text text-anchor="middle" x="583" y="-201.8" font-family="Times,serif" font-size="14.00">node #8</text>
<text text-anchor="middle" x="583" y="-186.8" font-family="Times,serif" font-size="14.00">FEFPreVal &lt;= 0.86</text>
<text text-anchor="middle" x="583" y="-171.8" font-family="Times,serif" font-size="14.00">gini = 0.149</text>
<text text-anchor="middle" x="583" y="-156.8" font-family="Times,serif" font-size="14.00">samples = 21</text>
<text text-anchor="middle" x="583" y="-141.8" font-family="Times,serif" font-size="14.00">value = [2.822, 32.019]</text>
<text text-anchor="middle" x="583" y="-126.8" font-family="Times,serif" font-size="14.00">class = Obstructive</text>
</g>
<!-- 7&#45;&gt;8 -->
<g id="edge8" class="edge">
<title>7&#45;&gt;8</title>
<path fill="none" stroke="black" d="M584.91,-252.97C584.72,-244.69 584.52,-236 584.33,-227.48"/>
<polygon fill="black" stroke="black" points="587.82,-227.13 584.1,-217.21 580.82,-227.29 587.82,-227.13"/>
</g>
<!-- 11 -->
<g id="node12" class="node">
<title>11</title>
<polygon fill="none" stroke="black" points="850.5,-209.5 693.5,-209.5 693.5,-126.5 850.5,-126.5 850.5,-209.5"/>
<text text-anchor="middle" x="772" y="-194.3" font-family="Times,serif" font-size="14.00">node #11</text>
<text text-anchor="middle" x="772" y="-179.3" font-family="Times,serif" font-size="14.00">gini = &#45;0.0</text>
<text text-anchor="middle" x="772" y="-164.3" font-family="Times,serif" font-size="14.00">samples = 37</text>
<text text-anchor="middle" x="772" y="-149.3" font-family="Times,serif" font-size="14.00">value = [0.0, 55.5]</text>
<text text-anchor="middle" x="772" y="-134.3" font-family="Times,serif" font-size="14.00">class = Obstructive</text>
</g>
<!-- 7&#45;&gt;11 -->
<g id="edge11" class="edge">
<title>7&#45;&gt;11</title>
<path fill="none" stroke="black" d="M653.68,-252.97C670.9,-240.75 689.39,-227.63 706.5,-215.48"/>
<polygon fill="black" stroke="black" points="708.66,-218.25 714.79,-209.6 704.61,-212.54 708.66,-218.25"/>
</g>
<!-- 9 -->
<g id="node10" class="node">
<title>9</title>
<polygon fill="none" stroke="black" points="591.5,-83 406.5,-83 406.5,0 591.5,0 591.5,-83"/>
<text text-anchor="middle" x="499" y="-67.8" font-family="Times,serif" font-size="14.00">node #9</text>
<text text-anchor="middle" x="499" y="-52.8" font-family="Times,serif" font-size="14.00">gini = 0.055</text>
<text text-anchor="middle" x="499" y="-37.8" font-family="Times,serif" font-size="14.00">samples = 19</text>
<text text-anchor="middle" x="499" y="-22.8" font-family="Times,serif" font-size="14.00">value = [0.941, 32.019]</text>
<text text-anchor="middle" x="499" y="-7.8" font-family="Times,serif" font-size="14.00">class = Obstructive</text>
</g>
<!-- 8&#45;&gt;9 -->
<g id="edge9" class="edge">
<title>8&#45;&gt;9</title>
<path fill="none" stroke="black" d="M550.52,-118.87C544.51,-109.95 538.21,-100.62 532.17,-91.67"/>
<polygon fill="black" stroke="black" points="534.98,-89.56 526.48,-83.23 529.17,-93.48 534.98,-89.56"/>
</g>
<!-- 10 -->
<g id="node11" class="node">
<title>10</title>
<polygon fill="none" stroke="black" points="798,-83 610,-83 610,0 798,0 798,-83"/>
<text text-anchor="middle" x="704" y="-67.8" font-family="Times,serif" font-size="14.00">node #10</text>
<text text-anchor="middle" x="704" y="-52.8" font-family="Times,serif" font-size="14.00">gini = 0.0</text>
<text text-anchor="middle" x="704" y="-37.8" font-family="Times,serif" font-size="14.00">samples = 2</text>
<text text-anchor="middle" x="704" y="-22.8" font-family="Times,serif" font-size="14.00">value = [1.881, 0.0]</text>
<text text-anchor="middle" x="704" y="-7.8" font-family="Times,serif" font-size="14.00">class = Non&#45;obstructive</text>
</g>
<!-- 8&#45;&gt;10 -->
<g id="edge10" class="edge">
<title>8&#45;&gt;10</title>
<path fill="none" stroke="black" d="M629.78,-118.87C638.81,-109.58 648.26,-99.85 657.29,-90.56"/>
<polygon fill="black" stroke="black" points="659.95,-92.84 664.41,-83.23 654.93,-87.96 659.95,-92.84"/>
</g>
<!-- 13 -->
<g id="node14" class="node">
<title>13</title>
<polygon fill="none" stroke="black" points="1291.5,-351 1088.5,-351 1088.5,-253 1291.5,-253 1291.5,-351"/>
<text text-anchor="middle" x="1190" y="-335.8" font-family="Times,serif" font-size="14.00">node #13</text>
<text text-anchor="middle" x="1190" y="-320.8" font-family="Times,serif" font-size="14.00">FEFPostPercent &lt;= 31.5</text>
<text text-anchor="middle" x="1190" y="-305.8" font-family="Times,serif" font-size="14.00">gini = 0.202</text>
<text text-anchor="middle" x="1190" y="-290.8" font-family="Times,serif" font-size="14.00">samples = 97</text>
<text text-anchor="middle" x="1190" y="-275.8" font-family="Times,serif" font-size="14.00">value = [132.636, 17.077]</text>
<text text-anchor="middle" x="1190" y="-260.8" font-family="Times,serif" font-size="14.00">class = Non&#45;obstructive</text>
</g>
<!-- 12&#45;&gt;13 -->
<g id="edge13" class="edge">
<title>12&#45;&gt;13</title>
<path fill="none" stroke="black" d="M1190,-386.97C1190,-378.69 1190,-370 1190,-361.48"/>
<polygon fill="black" stroke="black" points="1193.5,-361.21 1190,-351.21 1186.5,-361.21 1193.5,-361.21"/>
</g>
<!-- 20 -->
<g id="node21" class="node">
<title>20</title>
<polygon fill="none" stroke="black" points="1907,-351 1713,-351 1713,-253 1907,-253 1907,-351"/>
<text text-anchor="middle" x="1810" y="-335.8" font-family="Times,serif" font-size="14.00">node #20</text>
<text text-anchor="middle" x="1810" y="-320.8" font-family="Times,serif" font-size="14.00">FEFPrePercent &lt;= 85.5</text>
<text text-anchor="middle" x="1810" y="-305.8" font-family="Times,serif" font-size="14.00">gini = 0.422</text>
<text text-anchor="middle" x="1810" y="-290.8" font-family="Times,serif" font-size="14.00">samples = 51</text>
<text text-anchor="middle" x="1810" y="-275.8" font-family="Times,serif" font-size="14.00">value = [25.398, 58.702]</text>
<text text-anchor="middle" x="1810" y="-260.8" font-family="Times,serif" font-size="14.00">class = Obstructive</text>
</g>
<!-- 12&#45;&gt;20 -->
<g id="edge20" class="edge">
<title>12&#45;&gt;20</title>
<path fill="none" stroke="black" d="M1291.69,-413.35C1405.01,-389.22 1587.48,-350.38 1702.94,-325.79"/>
<polygon fill="black" stroke="black" points="1703.81,-329.19 1712.86,-323.68 1702.35,-322.34 1703.81,-329.19"/>
</g>
<!-- 14 -->
<g id="node15" class="node">
<title>14</title>
<polygon fill="none" stroke="black" points="1186,-217 962,-217 962,-119 1186,-119 1186,-217"/>
<text text-anchor="middle" x="1074" y="-201.8" font-family="Times,serif" font-size="14.00">node #14</text>
<text text-anchor="middle" x="1074" y="-186.8" font-family="Times,serif" font-size="14.00">FEV1PostPercent &lt;= 43.215</text>
<text text-anchor="middle" x="1074" y="-171.8" font-family="Times,serif" font-size="14.00">gini = 0.296</text>
<text text-anchor="middle" x="1074" y="-156.8" font-family="Times,serif" font-size="14.00">samples = 3</text>
<text text-anchor="middle" x="1074" y="-141.8" font-family="Times,serif" font-size="14.00">value = [0.941, 4.269]</text>
<text text-anchor="middle" x="1074" y="-126.8" font-family="Times,serif" font-size="14.00">class = Obstructive</text>
</g>
<!-- 13&#45;&gt;14 -->
<g id="edge14" class="edge">
<title>13&#45;&gt;14</title>
<path fill="none" stroke="black" d="M1147.79,-252.97C1139.8,-243.87 1131.37,-234.28 1123.18,-224.96"/>
<polygon fill="black" stroke="black" points="1125.6,-222.42 1116.37,-217.21 1120.34,-227.04 1125.6,-222.42"/>
</g>
<!-- 17 -->
<g id="node18" class="node">
<title>17</title>
<polygon fill="none" stroke="black" points="1407.5,-217 1204.5,-217 1204.5,-119 1407.5,-119 1407.5,-217"/>
<text text-anchor="middle" x="1306" y="-201.8" font-family="Times,serif" font-size="14.00">node #17</text>
<text text-anchor="middle" x="1306" y="-186.8" font-family="Times,serif" font-size="14.00">FEFPrePercent &lt;= 69.5</text>
<text text-anchor="middle" x="1306" y="-171.8" font-family="Times,serif" font-size="14.00">gini = 0.162</text>
<text text-anchor="middle" x="1306" y="-156.8" font-family="Times,serif" font-size="14.00">samples = 94</text>
<text text-anchor="middle" x="1306" y="-141.8" font-family="Times,serif" font-size="14.00">value = [131.695, 12.808]</text>
<text text-anchor="middle" x="1306" y="-126.8" font-family="Times,serif" font-size="14.00">class = Non&#45;obstructive</text>
</g>
<!-- 13&#45;&gt;17 -->
<g id="edge17" class="edge">
<title>13&#45;&gt;17</title>
<path fill="none" stroke="black" d="M1232.21,-252.97C1240.2,-243.87 1248.63,-234.28 1256.82,-224.96"/>
<polygon fill="black" stroke="black" points="1259.66,-227.04 1263.63,-217.21 1254.4,-222.42 1259.66,-227.04"/>
</g>
<!-- 15 -->
<g id="node16" class="node">
<title>15</title>
<polygon fill="none" stroke="black" points="974,-83 816,-83 816,0 974,0 974,-83"/>
<text text-anchor="middle" x="895" y="-67.8" font-family="Times,serif" font-size="14.00">node #15</text>
<text text-anchor="middle" x="895" y="-52.8" font-family="Times,serif" font-size="14.00">gini = 0.0</text>
<text text-anchor="middle" x="895" y="-37.8" font-family="Times,serif" font-size="14.00">samples = 2</text>
<text text-anchor="middle" x="895" y="-22.8" font-family="Times,serif" font-size="14.00">value = [0.0, 4.269]</text>
<text text-anchor="middle" x="895" y="-7.8" font-family="Times,serif" font-size="14.00">class = Obstructive</text>
</g>
<!-- 14&#45;&gt;15 -->
<g id="edge15" class="edge">
<title>14&#45;&gt;15</title>
<path fill="none" stroke="black" d="M1004.79,-118.87C990.57,-108.97 975.62,-98.57 961.49,-88.74"/>
<polygon fill="black" stroke="black" points="963.48,-85.87 953.28,-83.03 959.49,-91.62 963.48,-85.87"/>
</g>
<!-- 16 -->
<g id="node17" class="node">
<title>16</title>
<polygon fill="none" stroke="black" points="1180,-83 992,-83 992,0 1180,0 1180,-83"/>
<text text-anchor="middle" x="1086" y="-67.8" font-family="Times,serif" font-size="14.00">node #16</text>
<text text-anchor="middle" x="1086" y="-52.8" font-family="Times,serif" font-size="14.00">gini = &#45;0.0</text>
<text text-anchor="middle" x="1086" y="-37.8" font-family="Times,serif" font-size="14.00">samples = 1</text>
<text text-anchor="middle" x="1086" y="-22.8" font-family="Times,serif" font-size="14.00">value = [0.941, 0.0]</text>
<text text-anchor="middle" x="1086" y="-7.8" font-family="Times,serif" font-size="14.00">class = Non&#45;obstructive</text>
</g>
<!-- 14&#45;&gt;16 -->
<g id="edge16" class="edge">
<title>14&#45;&gt;16</title>
<path fill="none" stroke="black" d="M1078.64,-118.87C1079.45,-110.5 1080.29,-101.77 1081.1,-93.33"/>
<polygon fill="black" stroke="black" points="1084.6,-93.52 1082.07,-83.23 1077.63,-92.85 1084.6,-93.52"/>
</g>
<!-- 18 -->
<g id="node19" class="node">
<title>18</title>
<polygon fill="none" stroke="black" points="1392,-83 1198,-83 1198,0 1392,0 1392,-83"/>
<text text-anchor="middle" x="1295" y="-67.8" font-family="Times,serif" font-size="14.00">node #18</text>
<text text-anchor="middle" x="1295" y="-52.8" font-family="Times,serif" font-size="14.00">gini = 0.325</text>
<text text-anchor="middle" x="1295" y="-37.8" font-family="Times,serif" font-size="14.00">samples = 39</text>
<text text-anchor="middle" x="1295" y="-22.8" font-family="Times,serif" font-size="14.00">value = [49.856, 12.808]</text>
<text text-anchor="middle" x="1295" y="-7.8" font-family="Times,serif" font-size="14.00">class = Non&#45;obstructive</text>
</g>
<!-- 17&#45;&gt;18 -->
<g id="edge18" class="edge">
<title>17&#45;&gt;18</title>
<path fill="none" stroke="black" d="M1301.75,-118.87C1301.01,-110.5 1300.24,-101.77 1299.49,-93.33"/>
<polygon fill="black" stroke="black" points="1302.97,-92.88 1298.6,-83.23 1295.99,-93.5 1302.97,-92.88"/>
</g>
<!-- 19 -->
<g id="node20" class="node">
<title>19</title>
<polygon fill="none" stroke="black" points="1598,-83 1410,-83 1410,0 1598,0 1598,-83"/>
<text text-anchor="middle" x="1504" y="-67.8" font-family="Times,serif" font-size="14.00">node #19</text>
<text text-anchor="middle" x="1504" y="-52.8" font-family="Times,serif" font-size="14.00">gini = &#45;0.0</text>
<text text-anchor="middle" x="1504" y="-37.8" font-family="Times,serif" font-size="14.00">samples = 55</text>
<text text-anchor="middle" x="1504" y="-22.8" font-family="Times,serif" font-size="14.00">value = [81.839, 0.0]</text>
<text text-anchor="middle" x="1504" y="-7.8" font-family="Times,serif" font-size="14.00">class = Non&#45;obstructive</text>
</g>
<!-- 17&#45;&gt;19 -->
<g id="edge19" class="edge">
<title>17&#45;&gt;19</title>
<path fill="none" stroke="black" d="M1382.55,-118.87C1398.44,-108.88 1415.14,-98.38 1430.89,-88.47"/>
<polygon fill="black" stroke="black" points="1432.94,-91.32 1439.54,-83.03 1429.21,-85.39 1432.94,-91.32"/>
</g>
<!-- 21 -->
<g id="node22" class="node">
<title>21</title>
<polygon fill="none" stroke="black" points="1907,-217 1713,-217 1713,-119 1907,-119 1907,-217"/>
<text text-anchor="middle" x="1810" y="-201.8" font-family="Times,serif" font-size="14.00">node #21</text>
<text text-anchor="middle" x="1810" y="-186.8" font-family="Times,serif" font-size="14.00">FEFPreVal &lt;= 3.59</text>
<text text-anchor="middle" x="1810" y="-171.8" font-family="Times,serif" font-size="14.00">gini = 0.28</text>
<text text-anchor="middle" x="1810" y="-156.8" font-family="Times,serif" font-size="14.00">samples = 37</text>
<text text-anchor="middle" x="1810" y="-141.8" font-family="Times,serif" font-size="14.00">value = [10.347, 51.231]</text>
<text text-anchor="middle" x="1810" y="-126.8" font-family="Times,serif" font-size="14.00">class = Obstructive</text>
</g>
<!-- 20&#45;&gt;21 -->
<g id="edge21" class="edge">
<title>20&#45;&gt;21</title>
<path fill="none" stroke="black" d="M1810,-252.97C1810,-244.69 1810,-236 1810,-227.48"/>
<polygon fill="black" stroke="black" points="1813.5,-227.21 1810,-217.21 1806.5,-227.21 1813.5,-227.21"/>
</g>
<!-- 24 -->
<g id="node25" class="node">
<title>24</title>
<polygon fill="none" stroke="black" points="2214,-217 2026,-217 2026,-119 2214,-119 2214,-217"/>
<text text-anchor="middle" x="2120" y="-201.8" font-family="Times,serif" font-size="14.00">node #24</text>
<text text-anchor="middle" x="2120" y="-186.8" font-family="Times,serif" font-size="14.00">FVCPreVal &lt;= 3.22</text>
<text text-anchor="middle" x="2120" y="-171.8" font-family="Times,serif" font-size="14.00">gini = 0.443</text>
<text text-anchor="middle" x="2120" y="-156.8" font-family="Times,serif" font-size="14.00">samples = 14</text>
<text text-anchor="middle" x="2120" y="-141.8" font-family="Times,serif" font-size="14.00">value = [15.051, 7.471]</text>
<text text-anchor="middle" x="2120" y="-126.8" font-family="Times,serif" font-size="14.00">class = Non&#45;obstructive</text>
</g>
<!-- 20&#45;&gt;24 -->
<g id="edge24" class="edge">
<title>20&#45;&gt;24</title>
<path fill="none" stroke="black" d="M1907.24,-259.6C1941.95,-244.81 1981.18,-228.11 2016.42,-213.11"/>
<polygon fill="black" stroke="black" points="2017.93,-216.27 2025.76,-209.13 2015.19,-209.82 2017.93,-216.27"/>
</g>
<!-- 22 -->
<g id="node23" class="node">
<title>22</title>
<polygon fill="none" stroke="black" points="1801.5,-83 1616.5,-83 1616.5,0 1801.5,0 1801.5,-83"/>
<text text-anchor="middle" x="1709" y="-67.8" font-family="Times,serif" font-size="14.00">node #22</text>
<text text-anchor="middle" x="1709" y="-52.8" font-family="Times,serif" font-size="14.00">gini = 0.243</text>
<text text-anchor="middle" x="1709" y="-37.8" font-family="Times,serif" font-size="14.00">samples = 36</text>
<text text-anchor="middle" x="1709" y="-22.8" font-family="Times,serif" font-size="14.00">value = [8.466, 51.231]</text>
<text text-anchor="middle" x="1709" y="-7.8" font-family="Times,serif" font-size="14.00">class = Obstructive</text>
</g>
<!-- 21&#45;&gt;22 -->
<g id="edge22" class="edge">
<title>21&#45;&gt;22</title>
<path fill="none" stroke="black" d="M1770.95,-118.87C1763.57,-109.76 1755.84,-100.23 1748.44,-91.12"/>
<polygon fill="black" stroke="black" points="1751.06,-88.79 1742.04,-83.23 1745.62,-93.2 1751.06,-88.79"/>
</g>
<!-- 23 -->
<g id="node24" class="node">
<title>23</title>
<polygon fill="none" stroke="black" points="2008,-83 1820,-83 1820,0 2008,0 2008,-83"/>
<text text-anchor="middle" x="1914" y="-67.8" font-family="Times,serif" font-size="14.00">node #23</text>
<text text-anchor="middle" x="1914" y="-52.8" font-family="Times,serif" font-size="14.00">gini = 0.0</text>
<text text-anchor="middle" x="1914" y="-37.8" font-family="Times,serif" font-size="14.00">samples = 1</text>
<text text-anchor="middle" x="1914" y="-22.8" font-family="Times,serif" font-size="14.00">value = [1.881, 0.0]</text>
<text text-anchor="middle" x="1914" y="-7.8" font-family="Times,serif" font-size="14.00">class = Non&#45;obstructive</text>
</g>
<!-- 21&#45;&gt;23 -->
<g id="edge23" class="edge">
<title>21&#45;&gt;23</title>
<path fill="none" stroke="black" d="M1850.21,-118.87C1857.81,-109.76 1865.77,-100.23 1873.39,-91.12"/>
<polygon fill="black" stroke="black" points="1876.25,-93.15 1879.98,-83.23 1870.88,-88.66 1876.25,-93.15"/>
</g>
<!-- 25 -->
<g id="node26" class="node">
<title>25</title>
<polygon fill="none" stroke="black" points="2214,-83 2026,-83 2026,0 2214,0 2214,-83"/>
<text text-anchor="middle" x="2120" y="-67.8" font-family="Times,serif" font-size="14.00">node #25</text>
<text text-anchor="middle" x="2120" y="-52.8" font-family="Times,serif" font-size="14.00">gini = 0.0</text>
<text text-anchor="middle" x="2120" y="-37.8" font-family="Times,serif" font-size="14.00">samples = 10</text>
<text text-anchor="middle" x="2120" y="-22.8" font-family="Times,serif" font-size="14.00">value = [15.051, 0.0]</text>
<text text-anchor="middle" x="2120" y="-7.8" font-family="Times,serif" font-size="14.00">class = Non&#45;obstructive</text>
</g>
<!-- 24&#45;&gt;25 -->
<g id="edge25" class="edge">
<title>24&#45;&gt;25</title>
<path fill="none" stroke="black" d="M2120,-118.87C2120,-110.5 2120,-101.77 2120,-93.33"/>
<polygon fill="black" stroke="black" points="2123.5,-93.23 2120,-83.23 2116.5,-93.23 2123.5,-93.23"/>
</g>
<!-- 26 -->
<g id="node27" class="node">
<title>26</title>
<polygon fill="none" stroke="black" points="2390,-83 2232,-83 2232,0 2390,0 2390,-83"/>
<text text-anchor="middle" x="2311" y="-67.8" font-family="Times,serif" font-size="14.00">node #26</text>
<text text-anchor="middle" x="2311" y="-52.8" font-family="Times,serif" font-size="14.00">gini = &#45;0.0</text>
<text text-anchor="middle" x="2311" y="-37.8" font-family="Times,serif" font-size="14.00">samples = 4</text>
<text text-anchor="middle" x="2311" y="-22.8" font-family="Times,serif" font-size="14.00">value = [0.0, 7.471]</text>
<text text-anchor="middle" x="2311" y="-7.8" font-family="Times,serif" font-size="14.00">class = Obstructive</text>
</g>
<!-- 24&#45;&gt;26 -->
<g id="edge26" class="edge">
<title>24&#45;&gt;26</title>
<path fill="none" stroke="black" d="M2193.85,-118.87C2209.03,-108.97 2224.98,-98.57 2240.05,-88.74"/>
<polygon fill="black" stroke="black" points="2242.35,-91.43 2248.82,-83.03 2238.53,-85.56 2242.35,-91.43"/>
</g>
</g>
</svg>
