<?xml version="1.0" encoding="UTF-8" standalone="no"?>
<!DOCTYPE svg PUBLIC "-//W3C//DTD SVG 1.1//EN"
 "http://www.w3.org/Graphics/SVG/1.1/DTD/svg11.dtd">
<!-- Generated by graphviz version 2.43.0 (0)
 -->
<!-- Title: Tree Pages: 1 -->
<svg width="1975pt" height="627pt"
 viewBox="0.00 0.00 1975.00 627.00" xmlns="http://www.w3.org/2000/svg" xmlns:xlink="http://www.w3.org/1999/xlink">
<g id="graph0" class="graph" transform="scale(1 1) rotate(0) translate(4 623)">
<title>Tree</title>
<polygon fill="white" stroke="transparent" points="-4,4 -4,-623 1971,-623 1971,4 -4,4"/>
<!-- 0 -->
<g id="node1" class="node">
<title>0</title>
<polygon fill="none" stroke="black" points="597,-619 409,-619 409,-521 597,-521 597,-619"/>
<text text-anchor="middle" x="503" y="-603.8" font-family="Times,serif" font-size="14.00">node #0</text>
<text text-anchor="middle" x="503" y="-588.8" font-family="Times,serif" font-size="14.00">FEFPreVal &lt;= 1.145</text>
<text text-anchor="middle" x="503" y="-573.8" font-family="Times,serif" font-size="14.00">gini = 0.5</text>
<text text-anchor="middle" x="503" y="-558.8" font-family="Times,serif" font-size="14.00">samples = 211</text>
<text text-anchor="middle" x="503" y="-543.8" font-family="Times,serif" font-size="14.00">value = [166.5, 166.5]</text>
<text text-anchor="middle" x="503" y="-528.8" font-family="Times,serif" font-size="14.00">class = Non&#45;obstructive</text>
</g>
<!-- 1 -->
<g id="node2" class="node">
<title>1</title>
<polygon fill="none" stroke="black" points="406.5,-485 203.5,-485 203.5,-387 406.5,-387 406.5,-485"/>
<text text-anchor="middle" x="305" y="-469.8" font-family="Times,serif" font-size="14.00">node #1</text>
<text text-anchor="middle" x="305" y="-454.8" font-family="Times,serif" font-size="14.00">FEFPostPercent &lt;= 23.0</text>
<text text-anchor="middle" x="305" y="-439.8" font-family="Times,serif" font-size="14.00">gini = 0.276</text>
<text text-anchor="middle" x="305" y="-424.8" font-family="Times,serif" font-size="14.00">samples = 71</text>
<text text-anchor="middle" x="305" y="-409.8" font-family="Times,serif" font-size="14.00">value = [20.095, 101.575]</text>
<text text-anchor="middle" x="305" y="-394.8" font-family="Times,serif" font-size="14.00">class = Obstructive</text>
</g>
<!-- 0&#45;&gt;1 -->
<g id="edge1" class="edge">
<title>0&#45;&gt;1</title>
<path fill="none" stroke="black" d="M430.96,-520.97C416.35,-511.24 400.9,-500.93 386.01,-491.01"/>
<polygon fill="black" stroke="black" points="387.58,-487.85 377.32,-485.21 383.7,-493.67 387.58,-487.85"/>
<text text-anchor="middle" x="382.22" y="-506.03" font-family="Times,serif" font-size="14.00">True</text>
</g>
<!-- 8 -->
<g id="node9" class="node">
<title>8</title>
<polygon fill="none" stroke="black" points="913.5,-485 710.5,-485 710.5,-387 913.5,-387 913.5,-485"/>
<text text-anchor="middle" x="812" y="-469.8" font-family="Times,serif" font-size="14.00">node #8</text>
<text text-anchor="middle" x="812" y="-454.8" font-family="Times,serif" font-size="14.00">FVCPostPercent &lt;= 86.5</text>
<text text-anchor="middle" x="812" y="-439.8" font-family="Times,serif" font-size="14.00">gini = 0.426</text>
<text text-anchor="middle" x="812" y="-424.8" font-family="Times,serif" font-size="14.00">samples = 140</text>
<text text-anchor="middle" x="812" y="-409.8" font-family="Times,serif" font-size="14.00">value = [146.405, 64.925]</text>
<text text-anchor="middle" x="812" y="-394.8" font-family="Times,serif" font-size="14.00">class = Non&#45;obstructive</text>
</g>
<!-- 0&#45;&gt;8 -->
<g id="edge8" class="edge">
<title>0&#45;&gt;8</title>
<path fill="none" stroke="black" d="M597.39,-528.68C630.08,-514.71 667.02,-498.93 700.93,-484.45"/>
<polygon fill="black" stroke="black" points="702.58,-487.55 710.4,-480.4 699.83,-481.11 702.58,-487.55"/>
<text text-anchor="middle" x="701.09" y="-499.9" font-family="Times,serif" font-size="14.00">False</text>
</g>
<!-- 2 -->
<g id="node3" class="node">
<title>2</title>
<polygon fill="none" stroke="black" points="190.5,-343.5 23.5,-343.5 23.5,-260.5 190.5,-260.5 190.5,-343.5"/>
<text text-anchor="middle" x="107" y="-328.3" font-family="Times,serif" font-size="14.00">node #2</text>
<text text-anchor="middle" x="107" y="-313.3" font-family="Times,serif" font-size="14.00">gini = &#45;0.0</text>
<text text-anchor="middle" x="107" y="-298.3" font-family="Times,serif" font-size="14.00">samples = 36</text>
<text text-anchor="middle" x="107" y="-283.3" font-family="Times,serif" font-size="14.00">value = [0.0, 65.972]</text>
<text text-anchor="middle" x="107" y="-268.3" font-family="Times,serif" font-size="14.00">class = Obstructive</text>
</g>
<!-- 1&#45;&gt;2 -->
<g id="edge2" class="edge">
<title>1&#45;&gt;2</title>
<path fill="none" stroke="black" d="M232.96,-386.97C214.62,-374.75 194.94,-361.63 176.72,-349.48"/>
<polygon fill="black" stroke="black" points="178.17,-346.24 167.91,-343.6 174.28,-352.06 178.17,-346.24"/>
</g>
<!-- 3 -->
<g id="node4" class="node">
<title>3</title>
<polygon fill="none" stroke="black" points="402,-351 208,-351 208,-253 402,-253 402,-351"/>
<text text-anchor="middle" x="305" y="-335.8" font-family="Times,serif" font-size="14.00">node #3</text>
<text text-anchor="middle" x="305" y="-320.8" font-family="Times,serif" font-size="14.00">FEV1PostVal &lt;= 0.99</text>
<text text-anchor="middle" x="305" y="-305.8" font-family="Times,serif" font-size="14.00">gini = 0.461</text>
<text text-anchor="middle" x="305" y="-290.8" font-family="Times,serif" font-size="14.00">samples = 35</text>
<text text-anchor="middle" x="305" y="-275.8" font-family="Times,serif" font-size="14.00">value = [20.095, 35.604]</text>
<text text-anchor="middle" x="305" y="-260.8" font-family="Times,serif" font-size="14.00">class = Obstructive</text>
</g>
<!-- 1&#45;&gt;3 -->
<g id="edge3" class="edge">
<title>1&#45;&gt;3</title>
<path fill="none" stroke="black" d="M305,-386.97C305,-378.69 305,-370 305,-361.48"/>
<polygon fill="black" stroke="black" points="308.5,-361.21 305,-351.21 301.5,-361.21 308.5,-361.21"/>
</g>
<!-- 4 -->
<g id="node5" class="node">
<title>4</title>
<polygon fill="none" stroke="black" points="188,-209.5 0,-209.5 0,-126.5 188,-126.5 188,-209.5"/>
<text text-anchor="middle" x="94" y="-194.3" font-family="Times,serif" font-size="14.00">node #4</text>
<text text-anchor="middle" x="94" y="-179.3" font-family="Times,serif" font-size="14.00">gini = 0.0</text>
<text text-anchor="middle" x="94" y="-164.3" font-family="Times,serif" font-size="14.00">samples = 4</text>
<text text-anchor="middle" x="94" y="-149.3" font-family="Times,serif" font-size="14.00">value = [9.569, 0.0]</text>
<text text-anchor="middle" x="94" y="-134.3" font-family="Times,serif" font-size="14.00">class = Non&#45;obstructive</text>
</g>
<!-- 3&#45;&gt;4 -->
<g id="edge4" class="edge">
<title>3&#45;&gt;4</title>
<path fill="none" stroke="black" d="M228.23,-252.97C208.42,-240.58 187.14,-227.27 167.51,-214.98"/>
<polygon fill="black" stroke="black" points="169.24,-211.94 158.9,-209.6 165.53,-217.87 169.24,-211.94"/>
</g>
<!-- 5 -->
<g id="node6" class="node">
<title>5</title>
<polygon fill="none" stroke="black" points="403.5,-217 206.5,-217 206.5,-119 403.5,-119 403.5,-217"/>
<text text-anchor="middle" x="305" y="-201.8" font-family="Times,serif" font-size="14.00">node #5</text>
<text text-anchor="middle" x="305" y="-186.8" font-family="Times,serif" font-size="14.00">FEFPostPercent &lt;= 55.5</text>
<text text-anchor="middle" x="305" y="-171.8" font-family="Times,serif" font-size="14.00">gini = 0.352</text>
<text text-anchor="middle" x="305" y="-156.8" font-family="Times,serif" font-size="14.00">samples = 31</text>
<text text-anchor="middle" x="305" y="-141.8" font-family="Times,serif" font-size="14.00">value = [10.526, 35.604]</text>
<text text-anchor="middle" x="305" y="-126.8" font-family="Times,serif" font-size="14.00">class = Obstructive</text>
</g>
<!-- 3&#45;&gt;5 -->
<g id="edge5" class="edge">
<title>3&#45;&gt;5</title>
<path fill="none" stroke="black" d="M305,-252.97C305,-244.69 305,-236 305,-227.48"/>
<polygon fill="black" stroke="black" points="308.5,-227.21 305,-217.21 301.5,-227.21 308.5,-227.21"/>
</g>
<!-- 6 -->
<g id="node7" class="node">
<title>6</title>
<polygon fill="none" stroke="black" points="192.5,-83 7.5,-83 7.5,0 192.5,0 192.5,-83"/>
<text text-anchor="middle" x="100" y="-67.8" font-family="Times,serif" font-size="14.00">node #6</text>
<text text-anchor="middle" x="100" y="-52.8" font-family="Times,serif" font-size="14.00">gini = 0.291</text>
<text text-anchor="middle" x="100" y="-37.8" font-family="Times,serif" font-size="14.00">samples = 29</text>
<text text-anchor="middle" x="100" y="-22.8" font-family="Times,serif" font-size="14.00">value = [7.655, 35.604]</text>
<text text-anchor="middle" x="100" y="-7.8" font-family="Times,serif" font-size="14.00">class = Obstructive</text>
</g>
<!-- 5&#45;&gt;6 -->
<g id="edge6" class="edge">
<title>5&#45;&gt;6</title>
<path fill="none" stroke="black" d="M225.74,-118.87C209.3,-108.88 192.01,-98.38 175.69,-88.47"/>
<polygon fill="black" stroke="black" points="177.1,-85.23 166.74,-83.03 173.47,-91.21 177.1,-85.23"/>
</g>
<!-- 7 -->
<g id="node8" class="node">
<title>7</title>
<polygon fill="none" stroke="black" points="399,-83 211,-83 211,0 399,0 399,-83"/>
<text text-anchor="middle" x="305" y="-67.8" font-family="Times,serif" font-size="14.00">node #7</text>
<text text-anchor="middle" x="305" y="-52.8" font-family="Times,serif" font-size="14.00">gini = &#45;0.0</text>
<text text-anchor="middle" x="305" y="-37.8" font-family="Times,serif" font-size="14.00">samples = 2</text>
<text text-anchor="middle" x="305" y="-22.8" font-family="Times,serif" font-size="14.00">value = [2.871, 0.0]</text>
<text text-anchor="middle" x="305" y="-7.8" font-family="Times,serif" font-size="14.00">class = Non&#45;obstructive</text>
</g>
<!-- 5&#45;&gt;7 -->
<g id="edge7" class="edge">
<title>5&#45;&gt;7</title>
<path fill="none" stroke="black" d="M305,-118.87C305,-110.5 305,-101.77 305,-93.33"/>
<polygon fill="black" stroke="black" points="308.5,-93.23 305,-83.23 301.5,-93.23 308.5,-93.23"/>
</g>
<!-- 9 -->
<g id="node10" class="node">
<title>9</title>
<polygon fill="none" stroke="black" points="913.5,-351 710.5,-351 710.5,-253 913.5,-253 913.5,-351"/>
<text text-anchor="middle" x="812" y="-335.8" font-family="Times,serif" font-size="14.00">node #9</text>
<text text-anchor="middle" x="812" y="-320.8" font-family="Times,serif" font-size="14.00">FVCPreVal &lt;= 3.34</text>
<text text-anchor="middle" x="812" y="-305.8" font-family="Times,serif" font-size="14.00">gini = 0.305</text>
<text text-anchor="middle" x="812" y="-290.8" font-family="Times,serif" font-size="14.00">samples = 118</text>
<text text-anchor="middle" x="812" y="-275.8" font-family="Times,serif" font-size="14.00">value = [140.664, 32.462]</text>
<text text-anchor="middle" x="812" y="-260.8" font-family="Times,serif" font-size="14.00">class = Non&#45;obstructive</text>
</g>
<!-- 8&#45;&gt;9 -->
<g id="edge9" class="edge">
<title>8&#45;&gt;9</title>
<path fill="none" stroke="black" d="M812,-386.97C812,-378.69 812,-370 812,-361.48"/>
<polygon fill="black" stroke="black" points="815.5,-361.21 812,-351.21 808.5,-361.21 815.5,-361.21"/>
</g>
<!-- 16 -->
<g id="node17" class="node">
<title>16</title>
<polygon fill="none" stroke="black" points="1469.5,-351 1284.5,-351 1284.5,-253 1469.5,-253 1469.5,-351"/>
<text text-anchor="middle" x="1377" y="-335.8" font-family="Times,serif" font-size="14.00">node #16</text>
<text text-anchor="middle" x="1377" y="-320.8" font-family="Times,serif" font-size="14.00">FEV1PostVal &lt;= 3.225</text>
<text text-anchor="middle" x="1377" y="-305.8" font-family="Times,serif" font-size="14.00">gini = 0.255</text>
<text text-anchor="middle" x="1377" y="-290.8" font-family="Times,serif" font-size="14.00">samples = 22</text>
<text text-anchor="middle" x="1377" y="-275.8" font-family="Times,serif" font-size="14.00">value = [5.741, 32.462]</text>
<text text-anchor="middle" x="1377" y="-260.8" font-family="Times,serif" font-size="14.00">class = Obstructive</text>
</g>
<!-- 8&#45;&gt;16 -->
<g id="edge16" class="edge">
<title>8&#45;&gt;16</title>
<path fill="none" stroke="black" d="M913.66,-411.25C1015.59,-387.44 1171.7,-350.96 1274.07,-327.05"/>
<polygon fill="black" stroke="black" points="1275.17,-330.38 1284.12,-324.7 1273.58,-323.57 1275.17,-330.38"/>
</g>
<!-- 10 -->
<g id="node11" class="node">
<title>10</title>
<polygon fill="none" stroke="black" points="806,-217 612,-217 612,-119 806,-119 806,-217"/>
<text text-anchor="middle" x="709" y="-201.8" font-family="Times,serif" font-size="14.00">node #10</text>
<text text-anchor="middle" x="709" y="-186.8" font-family="Times,serif" font-size="14.00">FVCPostVal &lt;= 2.55</text>
<text text-anchor="middle" x="709" y="-171.8" font-family="Times,serif" font-size="14.00">gini = 0.236</text>
<text text-anchor="middle" x="709" y="-156.8" font-family="Times,serif" font-size="14.00">samples = 109</text>
<text text-anchor="middle" x="709" y="-141.8" font-family="Times,serif" font-size="14.00">value = [138.75, 21.991]</text>
<text text-anchor="middle" x="709" y="-126.8" font-family="Times,serif" font-size="14.00">class = Non&#45;obstructive</text>
</g>
<!-- 9&#45;&gt;10 -->
<g id="edge10" class="edge">
<title>9&#45;&gt;10</title>
<path fill="none" stroke="black" d="M774.52,-252.97C767.49,-243.96 760.09,-234.47 752.88,-225.24"/>
<polygon fill="black" stroke="black" points="755.53,-222.94 746.62,-217.21 750.01,-227.25 755.53,-222.94"/>
</g>
<!-- 13 -->
<g id="node14" class="node">
<title>13</title>
<polygon fill="none" stroke="black" points="1008.5,-217 823.5,-217 823.5,-119 1008.5,-119 1008.5,-217"/>
<text text-anchor="middle" x="916" y="-201.8" font-family="Times,serif" font-size="14.00">node #13</text>
<text text-anchor="middle" x="916" y="-186.8" font-family="Times,serif" font-size="14.00">FVCPostVal &lt;= 4.195</text>
<text text-anchor="middle" x="916" y="-171.8" font-family="Times,serif" font-size="14.00">gini = 0.261</text>
<text text-anchor="middle" x="916" y="-156.8" font-family="Times,serif" font-size="14.00">samples = 9</text>
<text text-anchor="middle" x="916" y="-141.8" font-family="Times,serif" font-size="14.00">value = [1.914, 10.472]</text>
<text text-anchor="middle" x="916" y="-126.8" font-family="Times,serif" font-size="14.00">class = Obstructive</text>
</g>
<!-- 9&#45;&gt;13 -->
<g id="edge13" class="edge">
<title>9&#45;&gt;13</title>
<path fill="none" stroke="black" d="M849.84,-252.97C856.94,-243.96 864.42,-234.47 871.69,-225.24"/>
<polygon fill="black" stroke="black" points="874.57,-227.23 878.01,-217.21 869.08,-222.9 874.57,-227.23"/>
</g>
<!-- 11 -->
<g id="node12" class="node">
<title>11</title>
<polygon fill="none" stroke="black" points="605,-83 417,-83 417,0 605,0 605,-83"/>
<text text-anchor="middle" x="511" y="-67.8" font-family="Times,serif" font-size="14.00">node #11</text>
<text text-anchor="middle" x="511" y="-52.8" font-family="Times,serif" font-size="14.00">gini = 0.131</text>
<text text-anchor="middle" x="511" y="-37.8" font-family="Times,serif" font-size="14.00">samples = 81</text>
<text text-anchor="middle" x="511" y="-22.8" font-family="Times,serif" font-size="14.00">value = [111.0, 8.377]</text>
<text text-anchor="middle" x="511" y="-7.8" font-family="Times,serif" font-size="14.00">class = Non&#45;obstructive</text>
</g>
<!-- 10&#45;&gt;11 -->
<g id="edge11" class="edge">
<title>10&#45;&gt;11</title>
<path fill="none" stroke="black" d="M632.45,-118.87C616.56,-108.88 599.86,-98.38 584.11,-88.47"/>
<polygon fill="black" stroke="black" points="585.79,-85.39 575.46,-83.03 582.06,-91.32 585.79,-85.39"/>
</g>
<!-- 12 -->
<g id="node13" class="node">
<title>12</title>
<polygon fill="none" stroke="black" points="811,-83 623,-83 623,0 811,0 811,-83"/>
<text text-anchor="middle" x="717" y="-67.8" font-family="Times,serif" font-size="14.00">node #12</text>
<text text-anchor="middle" x="717" y="-52.8" font-family="Times,serif" font-size="14.00">gini = 0.442</text>
<text text-anchor="middle" x="717" y="-37.8" font-family="Times,serif" font-size="14.00">samples = 28</text>
<text text-anchor="middle" x="717" y="-22.8" font-family="Times,serif" font-size="14.00">value = [27.75, 13.613]</text>
<text text-anchor="middle" x="717" y="-7.8" font-family="Times,serif" font-size="14.00">class = Non&#45;obstructive</text>
</g>
<!-- 10&#45;&gt;12 -->
<g id="edge12" class="edge">
<title>10&#45;&gt;12</title>
<path fill="none" stroke="black" d="M712.09,-118.87C712.63,-110.5 713.19,-101.77 713.73,-93.33"/>
<polygon fill="black" stroke="black" points="717.23,-93.43 714.38,-83.23 710.25,-92.99 717.23,-93.43"/>
</g>
<!-- 14 -->
<g id="node15" class="node">
<title>14</title>
<polygon fill="none" stroke="black" points="987,-83 829,-83 829,0 987,0 987,-83"/>
<text text-anchor="middle" x="908" y="-67.8" font-family="Times,serif" font-size="14.00">node #14</text>
<text text-anchor="middle" x="908" y="-52.8" font-family="Times,serif" font-size="14.00">gini = 0.0</text>
<text text-anchor="middle" x="908" y="-37.8" font-family="Times,serif" font-size="14.00">samples = 7</text>
<text text-anchor="middle" x="908" y="-22.8" font-family="Times,serif" font-size="14.00">value = [0.0, 9.425]</text>
<text text-anchor="middle" x="908" y="-7.8" font-family="Times,serif" font-size="14.00">class = Obstructive</text>
</g>
<!-- 13&#45;&gt;14 -->
<g id="edge14" class="edge">
<title>13&#45;&gt;14</title>
<path fill="none" stroke="black" d="M912.91,-118.87C912.37,-110.5 911.81,-101.77 911.27,-93.33"/>
<polygon fill="black" stroke="black" points="914.75,-92.99 910.62,-83.23 907.77,-93.43 914.75,-92.99"/>
</g>
<!-- 15 -->
<g id="node16" class="node">
<title>15</title>
<polygon fill="none" stroke="black" points="1193,-83 1005,-83 1005,0 1193,0 1193,-83"/>
<text text-anchor="middle" x="1099" y="-67.8" font-family="Times,serif" font-size="14.00">node #15</text>
<text text-anchor="middle" x="1099" y="-52.8" font-family="Times,serif" font-size="14.00">gini = 0.457</text>
<text text-anchor="middle" x="1099" y="-37.8" font-family="Times,serif" font-size="14.00">samples = 2</text>
<text text-anchor="middle" x="1099" y="-22.8" font-family="Times,serif" font-size="14.00">value = [1.914, 1.047]</text>
<text text-anchor="middle" x="1099" y="-7.8" font-family="Times,serif" font-size="14.00">class = Non&#45;obstructive</text>
</g>
<!-- 13&#45;&gt;15 -->
<g id="edge15" class="edge">
<title>13&#45;&gt;15</title>
<path fill="none" stroke="black" d="M986.75,-118.87C1001.3,-108.97 1016.58,-98.57 1031.03,-88.74"/>
<polygon fill="black" stroke="black" points="1033.12,-91.55 1039.42,-83.03 1029.19,-85.76 1033.12,-91.55"/>
</g>
<!-- 17 -->
<g id="node18" class="node">
<title>17</title>
<polygon fill="none" stroke="black" points="1481.5,-217 1272.5,-217 1272.5,-119 1481.5,-119 1481.5,-217"/>
<text text-anchor="middle" x="1377" y="-201.8" font-family="Times,serif" font-size="14.00">node #17</text>
<text text-anchor="middle" x="1377" y="-186.8" font-family="Times,serif" font-size="14.00">FEV1PrePercent &lt;= 104.0</text>
<text text-anchor="middle" x="1377" y="-171.8" font-family="Times,serif" font-size="14.00">gini = 0.108</text>
<text text-anchor="middle" x="1377" y="-156.8" font-family="Times,serif" font-size="14.00">samples = 19</text>
<text text-anchor="middle" x="1377" y="-141.8" font-family="Times,serif" font-size="14.00">value = [1.914, 31.415]</text>
<text text-anchor="middle" x="1377" y="-126.8" font-family="Times,serif" font-size="14.00">class = Obstructive</text>
</g>
<!-- 16&#45;&gt;17 -->
<g id="edge17" class="edge">
<title>16&#45;&gt;17</title>
<path fill="none" stroke="black" d="M1377,-252.97C1377,-244.69 1377,-236 1377,-227.48"/>
<polygon fill="black" stroke="black" points="1380.5,-227.21 1377,-217.21 1373.5,-227.21 1380.5,-227.21"/>
</g>
<!-- 20 -->
<g id="node21" class="node">
<title>20</title>
<polygon fill="none" stroke="black" points="1782,-217 1582,-217 1582,-119 1782,-119 1782,-217"/>
<text text-anchor="middle" x="1682" y="-201.8" font-family="Times,serif" font-size="14.00">node #20</text>
<text text-anchor="middle" x="1682" y="-186.8" font-family="Times,serif" font-size="14.00">FEV1PrePercent &lt;= 90.5</text>
<text text-anchor="middle" x="1682" y="-171.8" font-family="Times,serif" font-size="14.00">gini = 0.337</text>
<text text-anchor="middle" x="1682" y="-156.8" font-family="Times,serif" font-size="14.00">samples = 3</text>
<text text-anchor="middle" x="1682" y="-141.8" font-family="Times,serif" font-size="14.00">value = [3.828, 1.047]</text>
<text text-anchor="middle" x="1682" y="-126.8" font-family="Times,serif" font-size="14.00">class = Non&#45;obstructive</text>
</g>
<!-- 16&#45;&gt;20 -->
<g id="edge20" class="edge">
<title>16&#45;&gt;20</title>
<path fill="none" stroke="black" d="M1469.75,-260.86C1502.19,-246.82 1538.92,-230.92 1572.59,-216.35"/>
<polygon fill="black" stroke="black" points="1574.21,-219.46 1582,-212.28 1571.43,-213.04 1574.21,-219.46"/>
</g>
<!-- 18 -->
<g id="node19" class="node">
<title>18</title>
<polygon fill="none" stroke="black" points="1378.5,-83 1211.5,-83 1211.5,0 1378.5,0 1378.5,-83"/>
<text text-anchor="middle" x="1295" y="-67.8" font-family="Times,serif" font-size="14.00">node #18</text>
<text text-anchor="middle" x="1295" y="-52.8" font-family="Times,serif" font-size="14.00">gini = 0.0</text>
<text text-anchor="middle" x="1295" y="-37.8" font-family="Times,serif" font-size="14.00">samples = 16</text>
<text text-anchor="middle" x="1295" y="-22.8" font-family="Times,serif" font-size="14.00">value = [0.0, 30.368]</text>
<text text-anchor="middle" x="1295" y="-7.8" font-family="Times,serif" font-size="14.00">class = Obstructive</text>
</g>
<!-- 17&#45;&gt;18 -->
<g id="edge18" class="edge">
<title>17&#45;&gt;18</title>
<path fill="none" stroke="black" d="M1345.3,-118.87C1339.42,-109.95 1333.28,-100.62 1327.38,-91.67"/>
<polygon fill="black" stroke="black" points="1330.25,-89.66 1321.83,-83.23 1324.4,-93.51 1330.25,-89.66"/>
</g>
<!-- 19 -->
<g id="node20" class="node">
<title>19</title>
<polygon fill="none" stroke="black" points="1585,-83 1397,-83 1397,0 1585,0 1585,-83"/>
<text text-anchor="middle" x="1491" y="-67.8" font-family="Times,serif" font-size="14.00">node #19</text>
<text text-anchor="middle" x="1491" y="-52.8" font-family="Times,serif" font-size="14.00">gini = 0.457</text>
<text text-anchor="middle" x="1491" y="-37.8" font-family="Times,serif" font-size="14.00">samples = 3</text>
<text text-anchor="middle" x="1491" y="-22.8" font-family="Times,serif" font-size="14.00">value = [1.914, 1.047]</text>
<text text-anchor="middle" x="1491" y="-7.8" font-family="Times,serif" font-size="14.00">class = Non&#45;obstructive</text>
</g>
<!-- 17&#45;&gt;19 -->
<g id="edge19" class="edge">
<title>17&#45;&gt;19</title>
<path fill="none" stroke="black" d="M1421.08,-118.87C1429.49,-109.67 1438.31,-100.04 1446.74,-90.84"/>
<polygon fill="black" stroke="black" points="1449.53,-92.97 1453.7,-83.23 1444.37,-88.24 1449.53,-92.97"/>
</g>
<!-- 21 -->
<g id="node22" class="node">
<title>21</title>
<polygon fill="none" stroke="black" points="1761,-83 1603,-83 1603,0 1761,0 1761,-83"/>
<text text-anchor="middle" x="1682" y="-67.8" font-family="Times,serif" font-size="14.00">node #21</text>
<text text-anchor="middle" x="1682" y="-52.8" font-family="Times,serif" font-size="14.00">gini = 0.0</text>
<text text-anchor="middle" x="1682" y="-37.8" font-family="Times,serif" font-size="14.00">samples = 1</text>
<text text-anchor="middle" x="1682" y="-22.8" font-family="Times,serif" font-size="14.00">value = [0.0, 1.047]</text>
<text text-anchor="middle" x="1682" y="-7.8" font-family="Times,serif" font-size="14.00">class = Obstructive</text>
</g>
<!-- 20&#45;&gt;21 -->
<g id="edge21" class="edge">
<title>20&#45;&gt;21</title>
<path fill="none" stroke="black" d="M1682,-118.87C1682,-110.5 1682,-101.77 1682,-93.33"/>
<polygon fill="black" stroke="black" points="1685.5,-93.23 1682,-83.23 1678.5,-93.23 1685.5,-93.23"/>
</g>
<!-- 22 -->
<g id="node23" class="node">
<title>22</title>
<polygon fill="none" stroke="black" points="1967,-83 1779,-83 1779,0 1967,0 1967,-83"/>
<text text-anchor="middle" x="1873" y="-67.8" font-family="Times,serif" font-size="14.00">node #22</text>
<text text-anchor="middle" x="1873" y="-52.8" font-family="Times,serif" font-size="14.00">gini = 0.0</text>
<text text-anchor="middle" x="1873" y="-37.8" font-family="Times,serif" font-size="14.00">samples = 2</text>
<text text-anchor="middle" x="1873" y="-22.8" font-family="Times,serif" font-size="14.00">value = [3.828, 0.0]</text>
<text text-anchor="middle" x="1873" y="-7.8" font-family="Times,serif" font-size="14.00">class = Non&#45;obstructive</text>
</g>
<!-- 20&#45;&gt;22 -->
<g id="edge22" class="edge">
<title>20&#45;&gt;22</title>
<path fill="none" stroke="black" d="M1755.85,-118.87C1771.03,-108.97 1786.98,-98.57 1802.05,-88.74"/>
<polygon fill="black" stroke="black" points="1804.35,-91.43 1810.82,-83.03 1800.53,-85.56 1804.35,-91.43"/>
</g>
</g>
</svg>
