<?xml version="1.0" encoding="UTF-8" standalone="no"?>
<!DOCTYPE svg PUBLIC "-//W3C//DTD SVG 1.1//EN"
 "http://www.w3.org/Graphics/SVG/1.1/DTD/svg11.dtd">
<!-- Generated by graphviz version 2.43.0 (0)
 -->
<!-- Title: Tree Pages: 1 -->
<svg width="2795pt" height="627pt"
 viewBox="0.00 0.00 2795.00 627.00" xmlns="http://www.w3.org/2000/svg" xmlns:xlink="http://www.w3.org/1999/xlink">
<g id="graph0" class="graph" transform="scale(1 1) rotate(0) translate(4 623)">
<title>Tree</title>
<polygon fill="white" stroke="transparent" points="-4,4 -4,-623 2791,-623 2791,4 -4,4"/>
<!-- 0 -->
<g id="node1" class="node">
<title>0</title>
<polygon fill="none" stroke="black" points="1669.5,-619 1478.5,-619 1478.5,-521 1669.5,-521 1669.5,-619"/>
<text text-anchor="middle" x="1574" y="-603.8" font-family="Times,serif" font-size="14.00">node #0</text>
<text text-anchor="middle" x="1574" y="-588.8" font-family="Times,serif" font-size="14.00">FEFPrePercent &lt;= 52.5</text>
<text text-anchor="middle" x="1574" y="-573.8" font-family="Times,serif" font-size="14.00">gini = 0.5</text>
<text text-anchor="middle" x="1574" y="-558.8" font-family="Times,serif" font-size="14.00">samples = 214</text>
<text text-anchor="middle" x="1574" y="-543.8" font-family="Times,serif" font-size="14.00">value = [166.5, 166.5]</text>
<text text-anchor="middle" x="1574" y="-528.8" font-family="Times,serif" font-size="14.00">class = Obstructive</text>
</g>
<!-- 1 -->
<g id="node2" class="node">
<title>1</title>
<polygon fill="none" stroke="black" points="1275.5,-485 1090.5,-485 1090.5,-387 1275.5,-387 1275.5,-485"/>
<text text-anchor="middle" x="1183" y="-469.8" font-family="Times,serif" font-size="14.00">node #1</text>
<text text-anchor="middle" x="1183" y="-454.8" font-family="Times,serif" font-size="14.00">FEFPreVal &lt;= 1.085</text>
<text text-anchor="middle" x="1183" y="-439.8" font-family="Times,serif" font-size="14.00">gini = 0.28</text>
<text text-anchor="middle" x="1183" y="-424.8" font-family="Times,serif" font-size="14.00">samples = 100</text>
<text text-anchor="middle" x="1183" y="-409.8" font-family="Times,serif" font-size="14.00">value = [26.948, 133.2]</text>
<text text-anchor="middle" x="1183" y="-394.8" font-family="Times,serif" font-size="14.00">class = Obstructive</text>
</g>
<!-- 0&#45;&gt;1 -->
<g id="edge1" class="edge">
<title>0&#45;&gt;1</title>
<path fill="none" stroke="black" d="M1478.35,-536.71C1419.88,-516.97 1345.13,-491.74 1285.46,-471.59"/>
<polygon fill="black" stroke="black" points="1286.23,-468.16 1275.64,-468.27 1284,-474.79 1286.23,-468.16"/>
<text text-anchor="middle" x="1286.73" y="-486.98" font-family="Times,serif" font-size="14.00">True</text>
</g>
<!-- 16 -->
<g id="node17" class="node">
<title>16</title>
<polygon fill="none" stroke="black" points="2097,-485 1891,-485 1891,-387 2097,-387 2097,-485"/>
<text text-anchor="middle" x="1994" y="-469.8" font-family="Times,serif" font-size="14.00">node #16</text>
<text text-anchor="middle" x="1994" y="-454.8" font-family="Times,serif" font-size="14.00">FEFPostPercent &lt;= 105.0</text>
<text text-anchor="middle" x="1994" y="-439.8" font-family="Times,serif" font-size="14.00">gini = 0.311</text>
<text text-anchor="middle" x="1994" y="-424.8" font-family="Times,serif" font-size="14.00">samples = 114</text>
<text text-anchor="middle" x="1994" y="-409.8" font-family="Times,serif" font-size="14.00">value = [139.552, 33.3]</text>
<text text-anchor="middle" x="1994" y="-394.8" font-family="Times,serif" font-size="14.00">class = Non&#45;obstructive</text>
</g>
<!-- 0&#45;&gt;16 -->
<g id="edge16" class="edge">
<title>0&#45;&gt;16</title>
<path fill="none" stroke="black" d="M1669.57,-538.96C1732.44,-519.21 1815.01,-493.25 1881.12,-472.48"/>
<polygon fill="black" stroke="black" points="1882.26,-475.79 1890.75,-469.45 1880.16,-469.11 1882.26,-475.79"/>
<text text-anchor="middle" x="1879.18" y="-487.92" font-family="Times,serif" font-size="14.00">False</text>
</g>
<!-- 2 -->
<g id="node3" class="node">
<title>2</title>
<polygon fill="none" stroke="black" points="669.5,-351 484.5,-351 484.5,-253 669.5,-253 669.5,-351"/>
<text text-anchor="middle" x="577" y="-335.8" font-family="Times,serif" font-size="14.00">node #2</text>
<text text-anchor="middle" x="577" y="-320.8" font-family="Times,serif" font-size="14.00">FVCPostVal &lt;= 1.225</text>
<text text-anchor="middle" x="577" y="-305.8" font-family="Times,serif" font-size="14.00">gini = 0.121</text>
<text text-anchor="middle" x="577" y="-290.8" font-family="Times,serif" font-size="14.00">samples = 66</text>
<text text-anchor="middle" x="577" y="-275.8" font-family="Times,serif" font-size="14.00">value = [6.737, 97.819]</text>
<text text-anchor="middle" x="577" y="-260.8" font-family="Times,serif" font-size="14.00">class = Obstructive</text>
</g>
<!-- 1&#45;&gt;2 -->
<g id="edge2" class="edge">
<title>1&#45;&gt;2</title>
<path fill="none" stroke="black" d="M1090.3,-414.81C979.48,-390.67 794.58,-350.39 679.56,-325.34"/>
<polygon fill="black" stroke="black" points="680.2,-321.9 669.69,-323.19 678.71,-328.74 680.2,-321.9"/>
</g>
<!-- 9 -->
<g id="node10" class="node">
<title>9</title>
<polygon fill="none" stroke="black" points="1280,-351 1086,-351 1086,-253 1280,-253 1280,-351"/>
<text text-anchor="middle" x="1183" y="-335.8" font-family="Times,serif" font-size="14.00">node #9</text>
<text text-anchor="middle" x="1183" y="-320.8" font-family="Times,serif" font-size="14.00">FVCPrePercent &lt;= 69.0</text>
<text text-anchor="middle" x="1183" y="-305.8" font-family="Times,serif" font-size="14.00">gini = 0.463</text>
<text text-anchor="middle" x="1183" y="-290.8" font-family="Times,serif" font-size="14.00">samples = 34</text>
<text text-anchor="middle" x="1183" y="-275.8" font-family="Times,serif" font-size="14.00">value = [20.211, 35.381]</text>
<text text-anchor="middle" x="1183" y="-260.8" font-family="Times,serif" font-size="14.00">class = Obstructive</text>
</g>
<!-- 1&#45;&gt;9 -->
<g id="edge9" class="edge">
<title>1&#45;&gt;9</title>
<path fill="none" stroke="black" d="M1183,-386.97C1183,-378.69 1183,-370 1183,-361.48"/>
<polygon fill="black" stroke="black" points="1186.5,-361.21 1183,-351.21 1179.5,-361.21 1186.5,-361.21"/>
</g>
<!-- 3 -->
<g id="node4" class="node">
<title>3</title>
<polygon fill="none" stroke="black" points="364,-217 176,-217 176,-119 364,-119 364,-217"/>
<text text-anchor="middle" x="270" y="-201.8" font-family="Times,serif" font-size="14.00">node #3</text>
<text text-anchor="middle" x="270" y="-186.8" font-family="Times,serif" font-size="14.00">FVCPostVal &lt;= 1.08</text>
<text text-anchor="middle" x="270" y="-171.8" font-family="Times,serif" font-size="14.00">gini = 0.456</text>
<text text-anchor="middle" x="270" y="-156.8" font-family="Times,serif" font-size="14.00">samples = 3</text>
<text text-anchor="middle" x="270" y="-141.8" font-family="Times,serif" font-size="14.00">value = [1.925, 1.041]</text>
<text text-anchor="middle" x="270" y="-126.8" font-family="Times,serif" font-size="14.00">class = Non&#45;obstructive</text>
</g>
<!-- 2&#45;&gt;3 -->
<g id="edge3" class="edge">
<title>2&#45;&gt;3</title>
<path fill="none" stroke="black" d="M484.47,-261.22C449.55,-246.2 409.59,-229.02 373.71,-213.59"/>
<polygon fill="black" stroke="black" points="374.76,-210.24 364.19,-209.5 372,-216.67 374.76,-210.24"/>
</g>
<!-- 6 -->
<g id="node7" class="node">
<title>6</title>
<polygon fill="none" stroke="black" points="669.5,-217 484.5,-217 484.5,-119 669.5,-119 669.5,-217"/>
<text text-anchor="middle" x="577" y="-201.8" font-family="Times,serif" font-size="14.00">node #6</text>
<text text-anchor="middle" x="577" y="-186.8" font-family="Times,serif" font-size="14.00">FVCPreVal &lt;= 1.395</text>
<text text-anchor="middle" x="577" y="-171.8" font-family="Times,serif" font-size="14.00">gini = 0.09</text>
<text text-anchor="middle" x="577" y="-156.8" font-family="Times,serif" font-size="14.00">samples = 63</text>
<text text-anchor="middle" x="577" y="-141.8" font-family="Times,serif" font-size="14.00">value = [4.812, 96.778]</text>
<text text-anchor="middle" x="577" y="-126.8" font-family="Times,serif" font-size="14.00">class = Obstructive</text>
</g>
<!-- 2&#45;&gt;6 -->
<g id="edge6" class="edge">
<title>2&#45;&gt;6</title>
<path fill="none" stroke="black" d="M577,-252.97C577,-244.69 577,-236 577,-227.48"/>
<polygon fill="black" stroke="black" points="580.5,-227.21 577,-217.21 573.5,-227.21 580.5,-227.21"/>
</g>
<!-- 4 -->
<g id="node5" class="node">
<title>4</title>
<polygon fill="none" stroke="black" points="158,-83 0,-83 0,0 158,0 158,-83"/>
<text text-anchor="middle" x="79" y="-67.8" font-family="Times,serif" font-size="14.00">node #4</text>
<text text-anchor="middle" x="79" y="-52.8" font-family="Times,serif" font-size="14.00">gini = 0.0</text>
<text text-anchor="middle" x="79" y="-37.8" font-family="Times,serif" font-size="14.00">samples = 1</text>
<text text-anchor="middle" x="79" y="-22.8" font-family="Times,serif" font-size="14.00">value = [0.0, 1.041]</text>
<text text-anchor="middle" x="79" y="-7.8" font-family="Times,serif" font-size="14.00">class = Obstructive</text>
</g>
<!-- 3&#45;&gt;4 -->
<g id="edge4" class="edge">
<title>3&#45;&gt;4</title>
<path fill="none" stroke="black" d="M196.15,-118.87C180.97,-108.97 165.02,-98.57 149.95,-88.74"/>
<polygon fill="black" stroke="black" points="151.47,-85.56 141.18,-83.03 147.65,-91.43 151.47,-85.56"/>
</g>
<!-- 5 -->
<g id="node6" class="node">
<title>5</title>
<polygon fill="none" stroke="black" points="364,-83 176,-83 176,0 364,0 364,-83"/>
<text text-anchor="middle" x="270" y="-67.8" font-family="Times,serif" font-size="14.00">node #5</text>
<text text-anchor="middle" x="270" y="-52.8" font-family="Times,serif" font-size="14.00">gini = 0.0</text>
<text text-anchor="middle" x="270" y="-37.8" font-family="Times,serif" font-size="14.00">samples = 2</text>
<text text-anchor="middle" x="270" y="-22.8" font-family="Times,serif" font-size="14.00">value = [1.925, 0.0]</text>
<text text-anchor="middle" x="270" y="-7.8" font-family="Times,serif" font-size="14.00">class = Non&#45;obstructive</text>
</g>
<!-- 3&#45;&gt;5 -->
<g id="edge5" class="edge">
<title>3&#45;&gt;5</title>
<path fill="none" stroke="black" d="M270,-118.87C270,-110.5 270,-101.77 270,-93.33"/>
<polygon fill="black" stroke="black" points="273.5,-93.23 270,-83.23 266.5,-93.23 273.5,-93.23"/>
</g>
<!-- 7 -->
<g id="node8" class="node">
<title>7</title>
<polygon fill="none" stroke="black" points="567.5,-83 382.5,-83 382.5,0 567.5,0 567.5,-83"/>
<text text-anchor="middle" x="475" y="-67.8" font-family="Times,serif" font-size="14.00">node #7</text>
<text text-anchor="middle" x="475" y="-52.8" font-family="Times,serif" font-size="14.00">gini = 0.231</text>
<text text-anchor="middle" x="475" y="-37.8" font-family="Times,serif" font-size="14.00">samples = 10</text>
<text text-anchor="middle" x="475" y="-22.8" font-family="Times,serif" font-size="14.00">value = [2.887, 18.731]</text>
<text text-anchor="middle" x="475" y="-7.8" font-family="Times,serif" font-size="14.00">class = Obstructive</text>
</g>
<!-- 6&#45;&gt;7 -->
<g id="edge7" class="edge">
<title>6&#45;&gt;7</title>
<path fill="none" stroke="black" d="M537.56,-118.87C530.11,-109.76 522.3,-100.23 514.83,-91.12"/>
<polygon fill="black" stroke="black" points="517.41,-88.75 508.37,-83.23 512,-93.18 517.41,-88.75"/>
</g>
<!-- 8 -->
<g id="node9" class="node">
<title>8</title>
<polygon fill="none" stroke="black" points="770.5,-83 585.5,-83 585.5,0 770.5,0 770.5,-83"/>
<text text-anchor="middle" x="678" y="-67.8" font-family="Times,serif" font-size="14.00">node #8</text>
<text text-anchor="middle" x="678" y="-52.8" font-family="Times,serif" font-size="14.00">gini = 0.047</text>
<text text-anchor="middle" x="678" y="-37.8" font-family="Times,serif" font-size="14.00">samples = 53</text>
<text text-anchor="middle" x="678" y="-22.8" font-family="Times,serif" font-size="14.00">value = [1.925, 78.047]</text>
<text text-anchor="middle" x="678" y="-7.8" font-family="Times,serif" font-size="14.00">class = Obstructive</text>
</g>
<!-- 6&#45;&gt;8 -->
<g id="edge8" class="edge">
<title>6&#45;&gt;8</title>
<path fill="none" stroke="black" d="M616.05,-118.87C623.43,-109.76 631.16,-100.23 638.56,-91.12"/>
<polygon fill="black" stroke="black" points="641.38,-93.2 644.96,-83.23 635.94,-88.79 641.38,-93.2"/>
</g>
<!-- 10 -->
<g id="node11" class="node">
<title>10</title>
<polygon fill="none" stroke="black" points="1181.5,-217 966.5,-217 966.5,-119 1181.5,-119 1181.5,-217"/>
<text text-anchor="middle" x="1074" y="-201.8" font-family="Times,serif" font-size="14.00">node #10</text>
<text text-anchor="middle" x="1074" y="-186.8" font-family="Times,serif" font-size="14.00">FVCPostPercent &lt;= 69.492</text>
<text text-anchor="middle" x="1074" y="-171.8" font-family="Times,serif" font-size="14.00">gini = 0.389</text>
<text text-anchor="middle" x="1074" y="-156.8" font-family="Times,serif" font-size="14.00">samples = 15</text>
<text text-anchor="middle" x="1074" y="-141.8" font-family="Times,serif" font-size="14.00">value = [17.324, 6.244]</text>
<text text-anchor="middle" x="1074" y="-126.8" font-family="Times,serif" font-size="14.00">class = Non&#45;obstructive</text>
</g>
<!-- 9&#45;&gt;10 -->
<g id="edge10" class="edge">
<title>9&#45;&gt;10</title>
<path fill="none" stroke="black" d="M1143.34,-252.97C1135.83,-243.87 1127.91,-234.28 1120.21,-224.96"/>
<polygon fill="black" stroke="black" points="1122.88,-222.7 1113.81,-217.21 1117.48,-227.15 1122.88,-222.7"/>
</g>
<!-- 13 -->
<g id="node14" class="node">
<title>13</title>
<polygon fill="none" stroke="black" points="1384.5,-217 1199.5,-217 1199.5,-119 1384.5,-119 1384.5,-217"/>
<text text-anchor="middle" x="1292" y="-201.8" font-family="Times,serif" font-size="14.00">node #13</text>
<text text-anchor="middle" x="1292" y="-186.8" font-family="Times,serif" font-size="14.00">FEFPreVal &lt;= 1.17</text>
<text text-anchor="middle" x="1292" y="-171.8" font-family="Times,serif" font-size="14.00">gini = 0.164</text>
<text text-anchor="middle" x="1292" y="-156.8" font-family="Times,serif" font-size="14.00">samples = 19</text>
<text text-anchor="middle" x="1292" y="-141.8" font-family="Times,serif" font-size="14.00">value = [2.887, 29.138]</text>
<text text-anchor="middle" x="1292" y="-126.8" font-family="Times,serif" font-size="14.00">class = Obstructive</text>
</g>
<!-- 9&#45;&gt;13 -->
<g id="edge13" class="edge">
<title>9&#45;&gt;13</title>
<path fill="none" stroke="black" d="M1222.66,-252.97C1230.17,-243.87 1238.09,-234.28 1245.79,-224.96"/>
<polygon fill="black" stroke="black" points="1248.52,-227.15 1252.19,-217.21 1243.12,-222.7 1248.52,-227.15"/>
</g>
<!-- 11 -->
<g id="node12" class="node">
<title>11</title>
<polygon fill="none" stroke="black" points="977,-83 789,-83 789,0 977,0 977,-83"/>
<text text-anchor="middle" x="883" y="-67.8" font-family="Times,serif" font-size="14.00">node #11</text>
<text text-anchor="middle" x="883" y="-52.8" font-family="Times,serif" font-size="14.00">gini = 0.2</text>
<text text-anchor="middle" x="883" y="-37.8" font-family="Times,serif" font-size="14.00">samples = 11</text>
<text text-anchor="middle" x="883" y="-22.8" font-family="Times,serif" font-size="14.00">value = [16.361, 2.081]</text>
<text text-anchor="middle" x="883" y="-7.8" font-family="Times,serif" font-size="14.00">class = Non&#45;obstructive</text>
</g>
<!-- 10&#45;&gt;11 -->
<g id="edge11" class="edge">
<title>10&#45;&gt;11</title>
<path fill="none" stroke="black" d="M1000.15,-118.87C984.97,-108.97 969.02,-98.57 953.95,-88.74"/>
<polygon fill="black" stroke="black" points="955.47,-85.56 945.18,-83.03 951.65,-91.43 955.47,-85.56"/>
</g>
<!-- 12 -->
<g id="node13" class="node">
<title>12</title>
<polygon fill="none" stroke="black" points="1171,-83 995,-83 995,0 1171,0 1171,-83"/>
<text text-anchor="middle" x="1083" y="-67.8" font-family="Times,serif" font-size="14.00">node #12</text>
<text text-anchor="middle" x="1083" y="-52.8" font-family="Times,serif" font-size="14.00">gini = 0.305</text>
<text text-anchor="middle" x="1083" y="-37.8" font-family="Times,serif" font-size="14.00">samples = 4</text>
<text text-anchor="middle" x="1083" y="-22.8" font-family="Times,serif" font-size="14.00">value = [0.962, 4.162]</text>
<text text-anchor="middle" x="1083" y="-7.8" font-family="Times,serif" font-size="14.00">class = Obstructive</text>
</g>
<!-- 10&#45;&gt;12 -->
<g id="edge12" class="edge">
<title>10&#45;&gt;12</title>
<path fill="none" stroke="black" d="M1077.48,-118.87C1078.08,-110.5 1078.72,-101.77 1079.33,-93.33"/>
<polygon fill="black" stroke="black" points="1082.83,-93.46 1080.06,-83.23 1075.84,-92.95 1082.83,-93.46"/>
</g>
<!-- 14 -->
<g id="node15" class="node">
<title>14</title>
<polygon fill="none" stroke="black" points="1377,-83 1189,-83 1189,0 1377,0 1377,-83"/>
<text text-anchor="middle" x="1283" y="-67.8" font-family="Times,serif" font-size="14.00">node #14</text>
<text text-anchor="middle" x="1283" y="-52.8" font-family="Times,serif" font-size="14.00">gini = 0.456</text>
<text text-anchor="middle" x="1283" y="-37.8" font-family="Times,serif" font-size="14.00">samples = 2</text>
<text text-anchor="middle" x="1283" y="-22.8" font-family="Times,serif" font-size="14.00">value = [1.925, 1.041]</text>
<text text-anchor="middle" x="1283" y="-7.8" font-family="Times,serif" font-size="14.00">class = Non&#45;obstructive</text>
</g>
<!-- 13&#45;&gt;14 -->
<g id="edge14" class="edge">
<title>13&#45;&gt;14</title>
<path fill="none" stroke="black" d="M1288.52,-118.87C1287.92,-110.5 1287.28,-101.77 1286.67,-93.33"/>
<polygon fill="black" stroke="black" points="1290.16,-92.95 1285.94,-83.23 1283.17,-93.46 1290.16,-92.95"/>
</g>
<!-- 15 -->
<g id="node16" class="node">
<title>15</title>
<polygon fill="none" stroke="black" points="1580.5,-83 1395.5,-83 1395.5,0 1580.5,0 1580.5,-83"/>
<text text-anchor="middle" x="1488" y="-67.8" font-family="Times,serif" font-size="14.00">node #15</text>
<text text-anchor="middle" x="1488" y="-52.8" font-family="Times,serif" font-size="14.00">gini = 0.064</text>
<text text-anchor="middle" x="1488" y="-37.8" font-family="Times,serif" font-size="14.00">samples = 17</text>
<text text-anchor="middle" x="1488" y="-22.8" font-family="Times,serif" font-size="14.00">value = [0.962, 28.097]</text>
<text text-anchor="middle" x="1488" y="-7.8" font-family="Times,serif" font-size="14.00">class = Obstructive</text>
</g>
<!-- 13&#45;&gt;15 -->
<g id="edge15" class="edge">
<title>13&#45;&gt;15</title>
<path fill="none" stroke="black" d="M1367.78,-118.87C1383.5,-108.88 1400.03,-98.38 1415.63,-88.47"/>
<polygon fill="black" stroke="black" points="1417.63,-91.35 1424.19,-83.03 1413.87,-85.44 1417.63,-91.35"/>
</g>
<!-- 17 -->
<g id="node18" class="node">
<title>17</title>
<polygon fill="none" stroke="black" points="2091,-351 1897,-351 1897,-253 2091,-253 2091,-351"/>
<text text-anchor="middle" x="1994" y="-335.8" font-family="Times,serif" font-size="14.00">node #17</text>
<text text-anchor="middle" x="1994" y="-320.8" font-family="Times,serif" font-size="14.00">FVCPreVal &lt;= 2.9</text>
<text text-anchor="middle" x="1994" y="-305.8" font-family="Times,serif" font-size="14.00">gini = 0.414</text>
<text text-anchor="middle" x="1994" y="-290.8" font-family="Times,serif" font-size="14.00">samples = 67</text>
<text text-anchor="middle" x="1994" y="-275.8" font-family="Times,serif" font-size="14.00">value = [70.257, 29.137]</text>
<text text-anchor="middle" x="1994" y="-260.8" font-family="Times,serif" font-size="14.00">class = Non&#45;obstructive</text>
</g>
<!-- 16&#45;&gt;17 -->
<g id="edge17" class="edge">
<title>16&#45;&gt;17</title>
<path fill="none" stroke="black" d="M1994,-386.97C1994,-378.69 1994,-370 1994,-361.48"/>
<polygon fill="black" stroke="black" points="1997.5,-361.21 1994,-351.21 1990.5,-361.21 1997.5,-361.21"/>
</g>
<!-- 24 -->
<g id="node25" class="node">
<title>24</title>
<polygon fill="none" stroke="black" points="2581,-351 2393,-351 2393,-253 2581,-253 2581,-351"/>
<text text-anchor="middle" x="2487" y="-335.8" font-family="Times,serif" font-size="14.00">node #24</text>
<text text-anchor="middle" x="2487" y="-320.8" font-family="Times,serif" font-size="14.00">FEV1PostVal &lt;= 2.745</text>
<text text-anchor="middle" x="2487" y="-305.8" font-family="Times,serif" font-size="14.00">gini = 0.107</text>
<text text-anchor="middle" x="2487" y="-290.8" font-family="Times,serif" font-size="14.00">samples = 47</text>
<text text-anchor="middle" x="2487" y="-275.8" font-family="Times,serif" font-size="14.00">value = [69.295, 4.162]</text>
<text text-anchor="middle" x="2487" y="-260.8" font-family="Times,serif" font-size="14.00">class = Non&#45;obstructive</text>
</g>
<!-- 16&#45;&gt;24 -->
<g id="edge24" class="edge">
<title>16&#45;&gt;24</title>
<path fill="none" stroke="black" d="M2097.05,-407.41C2180.95,-384.94 2298.86,-353.38 2383.01,-330.84"/>
<polygon fill="black" stroke="black" points="2384.09,-334.18 2392.84,-328.21 2382.28,-327.42 2384.09,-334.18"/>
</g>
<!-- 18 -->
<g id="node19" class="node">
<title>18</title>
<polygon fill="none" stroke="black" points="1985,-217 1779,-217 1779,-119 1985,-119 1985,-217"/>
<text text-anchor="middle" x="1882" y="-201.8" font-family="Times,serif" font-size="14.00">node #18</text>
<text text-anchor="middle" x="1882" y="-186.8" font-family="Times,serif" font-size="14.00">FEV1PostPercent &lt;= 60.5</text>
<text text-anchor="middle" x="1882" y="-171.8" font-family="Times,serif" font-size="14.00">gini = 0.25</text>
<text text-anchor="middle" x="1882" y="-156.8" font-family="Times,serif" font-size="14.00">samples = 50</text>
<text text-anchor="middle" x="1882" y="-141.8" font-family="Times,serif" font-size="14.00">value = [60.633, 10.406]</text>
<text text-anchor="middle" x="1882" y="-126.8" font-family="Times,serif" font-size="14.00">class = Non&#45;obstructive</text>
</g>
<!-- 17&#45;&gt;18 -->
<g id="edge18" class="edge">
<title>17&#45;&gt;18</title>
<path fill="none" stroke="black" d="M1953.25,-252.97C1945.53,-243.87 1937.39,-234.28 1929.48,-224.96"/>
<polygon fill="black" stroke="black" points="1932.05,-222.57 1922.91,-217.21 1926.71,-227.1 1932.05,-222.57"/>
</g>
<!-- 21 -->
<g id="node22" class="node">
<title>21</title>
<polygon fill="none" stroke="black" points="2209,-217 2003,-217 2003,-119 2209,-119 2209,-217"/>
<text text-anchor="middle" x="2106" y="-201.8" font-family="Times,serif" font-size="14.00">node #21</text>
<text text-anchor="middle" x="2106" y="-186.8" font-family="Times,serif" font-size="14.00">FEV1PostPercent &lt;= 74.5</text>
<text text-anchor="middle" x="2106" y="-171.8" font-family="Times,serif" font-size="14.00">gini = 0.448</text>
<text text-anchor="middle" x="2106" y="-156.8" font-family="Times,serif" font-size="14.00">samples = 17</text>
<text text-anchor="middle" x="2106" y="-141.8" font-family="Times,serif" font-size="14.00">value = [9.624, 18.731]</text>
<text text-anchor="middle" x="2106" y="-126.8" font-family="Times,serif" font-size="14.00">class = Obstructive</text>
</g>
<!-- 17&#45;&gt;21 -->
<g id="edge21" class="edge">
<title>17&#45;&gt;21</title>
<path fill="none" stroke="black" d="M2034.75,-252.97C2042.47,-243.87 2050.61,-234.28 2058.52,-224.96"/>
<polygon fill="black" stroke="black" points="2061.29,-227.1 2065.09,-217.21 2055.95,-222.57 2061.29,-227.1"/>
</g>
<!-- 19 -->
<g id="node20" class="node">
<title>19</title>
<polygon fill="none" stroke="black" points="1787,-83 1599,-83 1599,0 1787,0 1787,-83"/>
<text text-anchor="middle" x="1693" y="-67.8" font-family="Times,serif" font-size="14.00">node #19</text>
<text text-anchor="middle" x="1693" y="-52.8" font-family="Times,serif" font-size="14.00">gini = 0.06</text>
<text text-anchor="middle" x="1693" y="-37.8" font-family="Times,serif" font-size="14.00">samples = 24</text>
<text text-anchor="middle" x="1693" y="-22.8" font-family="Times,serif" font-size="14.00">value = [32.723, 1.041]</text>
<text text-anchor="middle" x="1693" y="-7.8" font-family="Times,serif" font-size="14.00">class = Non&#45;obstructive</text>
</g>
<!-- 18&#45;&gt;19 -->
<g id="edge19" class="edge">
<title>18&#45;&gt;19</title>
<path fill="none" stroke="black" d="M1808.93,-118.87C1793.91,-108.97 1778.12,-98.57 1763.2,-88.74"/>
<polygon fill="black" stroke="black" points="1764.81,-85.61 1754.53,-83.03 1760.96,-91.46 1764.81,-85.61"/>
</g>
<!-- 20 -->
<g id="node21" class="node">
<title>20</title>
<polygon fill="none" stroke="black" points="1993,-83 1805,-83 1805,0 1993,0 1993,-83"/>
<text text-anchor="middle" x="1899" y="-67.8" font-family="Times,serif" font-size="14.00">node #20</text>
<text text-anchor="middle" x="1899" y="-52.8" font-family="Times,serif" font-size="14.00">gini = 0.376</text>
<text text-anchor="middle" x="1899" y="-37.8" font-family="Times,serif" font-size="14.00">samples = 26</text>
<text text-anchor="middle" x="1899" y="-22.8" font-family="Times,serif" font-size="14.00">value = [27.91, 9.366]</text>
<text text-anchor="middle" x="1899" y="-7.8" font-family="Times,serif" font-size="14.00">class = Non&#45;obstructive</text>
</g>
<!-- 18&#45;&gt;20 -->
<g id="edge20" class="edge">
<title>18&#45;&gt;20</title>
<path fill="none" stroke="black" d="M1888.57,-118.87C1889.72,-110.5 1890.91,-101.77 1892.06,-93.33"/>
<polygon fill="black" stroke="black" points="1895.55,-93.61 1893.44,-83.23 1888.62,-92.67 1895.55,-93.61"/>
</g>
<!-- 22 -->
<g id="node23" class="node">
<title>22</title>
<polygon fill="none" stroke="black" points="2169,-83 2011,-83 2011,0 2169,0 2169,-83"/>
<text text-anchor="middle" x="2090" y="-67.8" font-family="Times,serif" font-size="14.00">node #22</text>
<text text-anchor="middle" x="2090" y="-52.8" font-family="Times,serif" font-size="14.00">gini = 0.0</text>
<text text-anchor="middle" x="2090" y="-37.8" font-family="Times,serif" font-size="14.00">samples = 6</text>
<text text-anchor="middle" x="2090" y="-22.8" font-family="Times,serif" font-size="14.00">value = [0.0, 9.366]</text>
<text text-anchor="middle" x="2090" y="-7.8" font-family="Times,serif" font-size="14.00">class = Obstructive</text>
</g>
<!-- 21&#45;&gt;22 -->
<g id="edge22" class="edge">
<title>21&#45;&gt;22</title>
<path fill="none" stroke="black" d="M2099.81,-118.87C2098.74,-110.5 2097.62,-101.77 2096.53,-93.33"/>
<polygon fill="black" stroke="black" points="2099.98,-92.7 2095.23,-83.23 2093.04,-93.6 2099.98,-92.7"/>
</g>
<!-- 23 -->
<g id="node24" class="node">
<title>23</title>
<polygon fill="none" stroke="black" points="2375,-83 2187,-83 2187,0 2375,0 2375,-83"/>
<text text-anchor="middle" x="2281" y="-67.8" font-family="Times,serif" font-size="14.00">node #23</text>
<text text-anchor="middle" x="2281" y="-52.8" font-family="Times,serif" font-size="14.00">gini = 0.5</text>
<text text-anchor="middle" x="2281" y="-37.8" font-family="Times,serif" font-size="14.00">samples = 11</text>
<text text-anchor="middle" x="2281" y="-22.8" font-family="Times,serif" font-size="14.00">value = [9.624, 9.366]</text>
<text text-anchor="middle" x="2281" y="-7.8" font-family="Times,serif" font-size="14.00">class = Non&#45;obstructive</text>
</g>
<!-- 21&#45;&gt;23 -->
<g id="edge23" class="edge">
<title>21&#45;&gt;23</title>
<path fill="none" stroke="black" d="M2173.66,-118.87C2187.44,-109.06 2201.91,-98.77 2215.61,-89.02"/>
<polygon fill="black" stroke="black" points="2217.91,-91.68 2224.03,-83.03 2213.85,-85.98 2217.91,-91.68"/>
</g>
<!-- 25 -->
<g id="node26" class="node">
<title>25</title>
<polygon fill="none" stroke="black" points="2581,-217 2393,-217 2393,-119 2581,-119 2581,-217"/>
<text text-anchor="middle" x="2487" y="-201.8" font-family="Times,serif" font-size="14.00">node #25</text>
<text text-anchor="middle" x="2487" y="-186.8" font-family="Times,serif" font-size="14.00">FEV1PostVal &lt;= 2.33</text>
<text text-anchor="middle" x="2487" y="-171.8" font-family="Times,serif" font-size="14.00">gini = 0.029</text>
<text text-anchor="middle" x="2487" y="-156.8" font-family="Times,serif" font-size="14.00">samples = 45</text>
<text text-anchor="middle" x="2487" y="-141.8" font-family="Times,serif" font-size="14.00">value = [69.295, 1.041]</text>
<text text-anchor="middle" x="2487" y="-126.8" font-family="Times,serif" font-size="14.00">class = Non&#45;obstructive</text>
</g>
<!-- 24&#45;&gt;25 -->
<g id="edge25" class="edge">
<title>24&#45;&gt;25</title>
<path fill="none" stroke="black" d="M2487,-252.97C2487,-244.69 2487,-236 2487,-227.48"/>
<polygon fill="black" stroke="black" points="2490.5,-227.21 2487,-217.21 2483.5,-227.21 2490.5,-227.21"/>
</g>
<!-- 28 -->
<g id="node29" class="node">
<title>28</title>
<polygon fill="none" stroke="black" points="2757,-209.5 2599,-209.5 2599,-126.5 2757,-126.5 2757,-209.5"/>
<text text-anchor="middle" x="2678" y="-194.3" font-family="Times,serif" font-size="14.00">node #28</text>
<text text-anchor="middle" x="2678" y="-179.3" font-family="Times,serif" font-size="14.00">gini = 0.0</text>
<text text-anchor="middle" x="2678" y="-164.3" font-family="Times,serif" font-size="14.00">samples = 2</text>
<text text-anchor="middle" x="2678" y="-149.3" font-family="Times,serif" font-size="14.00">value = [0.0, 3.122]</text>
<text text-anchor="middle" x="2678" y="-134.3" font-family="Times,serif" font-size="14.00">class = Obstructive</text>
</g>
<!-- 24&#45;&gt;28 -->
<g id="edge28" class="edge">
<title>24&#45;&gt;28</title>
<path fill="none" stroke="black" d="M2556.5,-252.97C2574.19,-240.75 2593.17,-227.63 2610.74,-215.48"/>
<polygon fill="black" stroke="black" points="2613.01,-218.17 2619.25,-209.6 2609.03,-212.41 2613.01,-218.17"/>
</g>
<!-- 26 -->
<g id="node27" class="node">
<title>26</title>
<polygon fill="none" stroke="black" points="2581,-83 2393,-83 2393,0 2581,0 2581,-83"/>
<text text-anchor="middle" x="2487" y="-67.8" font-family="Times,serif" font-size="14.00">node #26</text>
<text text-anchor="middle" x="2487" y="-52.8" font-family="Times,serif" font-size="14.00">gini = 0.0</text>
<text text-anchor="middle" x="2487" y="-37.8" font-family="Times,serif" font-size="14.00">samples = 37</text>
<text text-anchor="middle" x="2487" y="-22.8" font-family="Times,serif" font-size="14.00">value = [58.708, 0.0]</text>
<text text-anchor="middle" x="2487" y="-7.8" font-family="Times,serif" font-size="14.00">class = Non&#45;obstructive</text>
</g>
<!-- 25&#45;&gt;26 -->
<g id="edge26" class="edge">
<title>25&#45;&gt;26</title>
<path fill="none" stroke="black" d="M2487,-118.87C2487,-110.5 2487,-101.77 2487,-93.33"/>
<polygon fill="black" stroke="black" points="2490.5,-93.23 2487,-83.23 2483.5,-93.23 2490.5,-93.23"/>
</g>
<!-- 27 -->
<g id="node28" class="node">
<title>27</title>
<polygon fill="none" stroke="black" points="2787,-83 2599,-83 2599,0 2787,0 2787,-83"/>
<text text-anchor="middle" x="2693" y="-67.8" font-family="Times,serif" font-size="14.00">node #27</text>
<text text-anchor="middle" x="2693" y="-52.8" font-family="Times,serif" font-size="14.00">gini = 0.163</text>
<text text-anchor="middle" x="2693" y="-37.8" font-family="Times,serif" font-size="14.00">samples = 8</text>
<text text-anchor="middle" x="2693" y="-22.8" font-family="Times,serif" font-size="14.00">value = [10.587, 1.041]</text>
<text text-anchor="middle" x="2693" y="-7.8" font-family="Times,serif" font-size="14.00">class = Non&#45;obstructive</text>
</g>
<!-- 25&#45;&gt;27 -->
<g id="edge27" class="edge">
<title>25&#45;&gt;27</title>
<path fill="none" stroke="black" d="M2566.64,-118.87C2583.17,-108.88 2600.54,-98.38 2616.94,-88.47"/>
<polygon fill="black" stroke="black" points="2619.19,-91.2 2625.93,-83.03 2615.57,-85.21 2619.19,-91.2"/>
</g>
</g>
</svg>
