<?xml version="1.0" encoding="UTF-8" standalone="no"?>
<!DOCTYPE svg PUBLIC "-//W3C//DTD SVG 1.1//EN"
 "http://www.w3.org/Graphics/SVG/1.1/DTD/svg11.dtd">
<!-- Generated by graphviz version 2.43.0 (0)
 -->
<!-- Title: Tree Pages: 1 -->
<svg width="3094pt" height="627pt"
 viewBox="0.00 0.00 3093.50 627.00" xmlns="http://www.w3.org/2000/svg" xmlns:xlink="http://www.w3.org/1999/xlink">
<g id="graph0" class="graph" transform="scale(1 1) rotate(0) translate(4 623)">
<title>Tree</title>
<polygon fill="white" stroke="transparent" points="-4,4 -4,-623 3089.5,-623 3089.5,4 -4,4"/>
<!-- 0 -->
<g id="node1" class="node">
<title>0</title>
<polygon fill="none" stroke="black" points="1612,-619 1421,-619 1421,-521 1612,-521 1612,-619"/>
<text text-anchor="middle" x="1516.5" y="-603.8" font-family="Times,serif" font-size="14.00">node #0</text>
<text text-anchor="middle" x="1516.5" y="-588.8" font-family="Times,serif" font-size="14.00">FEFPrePercent &lt;= 42.5</text>
<text text-anchor="middle" x="1516.5" y="-573.8" font-family="Times,serif" font-size="14.00">gini = 0.5</text>
<text text-anchor="middle" x="1516.5" y="-558.8" font-family="Times,serif" font-size="14.00">samples = 209</text>
<text text-anchor="middle" x="1516.5" y="-543.8" font-family="Times,serif" font-size="14.00">value = [166.5, 166.5]</text>
<text text-anchor="middle" x="1516.5" y="-528.8" font-family="Times,serif" font-size="14.00">class = Non&#45;obstructive</text>
</g>
<!-- 1 -->
<g id="node2" class="node">
<title>1</title>
<polygon fill="none" stroke="black" points="1250,-485 1047,-485 1047,-387 1250,-387 1250,-485"/>
<text text-anchor="middle" x="1148.5" y="-469.8" font-family="Times,serif" font-size="14.00">node #1</text>
<text text-anchor="middle" x="1148.5" y="-454.8" font-family="Times,serif" font-size="14.00">FVCPreVal &lt;= 1.6</text>
<text text-anchor="middle" x="1148.5" y="-439.8" font-family="Times,serif" font-size="14.00">gini = 0.292</text>
<text text-anchor="middle" x="1148.5" y="-424.8" font-family="Times,serif" font-size="14.00">samples = 81</text>
<text text-anchor="middle" x="1148.5" y="-409.8" font-family="Times,serif" font-size="14.00">value = [23.645, 109.646]</text>
<text text-anchor="middle" x="1148.5" y="-394.8" font-family="Times,serif" font-size="14.00">class = Obstructive</text>
</g>
<!-- 0&#45;&gt;1 -->
<g id="edge1" class="edge">
<title>0&#45;&gt;1</title>
<path fill="none" stroke="black" d="M1420.77,-534.66C1371.45,-516.97 1311.05,-495.3 1259.67,-476.88"/>
<polygon fill="black" stroke="black" points="1260.78,-473.56 1250.19,-473.48 1258.42,-480.15 1260.78,-473.56"/>
<text text-anchor="middle" x="1260.86" y="-492.38" font-family="Times,serif" font-size="14.00">True</text>
</g>
<!-- 16 -->
<g id="node17" class="node">
<title>16</title>
<polygon fill="none" stroke="black" points="2006,-485 1803,-485 1803,-387 2006,-387 2006,-485"/>
<text text-anchor="middle" x="1904.5" y="-469.8" font-family="Times,serif" font-size="14.00">node #16</text>
<text text-anchor="middle" x="1904.5" y="-454.8" font-family="Times,serif" font-size="14.00">FVCPrePercent &lt;= 73.5</text>
<text text-anchor="middle" x="1904.5" y="-439.8" font-family="Times,serif" font-size="14.00">gini = 0.407</text>
<text text-anchor="middle" x="1904.5" y="-424.8" font-family="Times,serif" font-size="14.00">samples = 128</text>
<text text-anchor="middle" x="1904.5" y="-409.8" font-family="Times,serif" font-size="14.00">value = [142.855, 56.854]</text>
<text text-anchor="middle" x="1904.5" y="-394.8" font-family="Times,serif" font-size="14.00">class = Non&#45;obstructive</text>
</g>
<!-- 0&#45;&gt;16 -->
<g id="edge16" class="edge">
<title>0&#45;&gt;16</title>
<path fill="none" stroke="black" d="M1612.41,-536.37C1667.14,-517.75 1736.01,-494.32 1793.12,-474.89"/>
<polygon fill="black" stroke="black" points="1794.57,-478.09 1802.91,-471.56 1792.32,-471.47 1794.57,-478.09"/>
<text text-anchor="middle" x="1791.87" y="-490.29" font-family="Times,serif" font-size="14.00">False</text>
</g>
<!-- 2 -->
<g id="node3" class="node">
<title>2</title>
<polygon fill="none" stroke="black" points="666.5,-351 472.5,-351 472.5,-253 666.5,-253 666.5,-351"/>
<text text-anchor="middle" x="569.5" y="-335.8" font-family="Times,serif" font-size="14.00">node #2</text>
<text text-anchor="middle" x="569.5" y="-320.8" font-family="Times,serif" font-size="14.00">FEFPostVal &lt;= 0.535</text>
<text text-anchor="middle" x="569.5" y="-305.8" font-family="Times,serif" font-size="14.00">gini = 0.477</text>
<text text-anchor="middle" x="569.5" y="-290.8" font-family="Times,serif" font-size="14.00">samples = 28</text>
<text text-anchor="middle" x="569.5" y="-275.8" font-family="Times,serif" font-size="14.00">value = [17.734, 27.412]</text>
<text text-anchor="middle" x="569.5" y="-260.8" font-family="Times,serif" font-size="14.00">class = Obstructive</text>
</g>
<!-- 1&#45;&gt;2 -->
<g id="edge2" class="edge">
<title>1&#45;&gt;2</title>
<path fill="none" stroke="black" d="M1046.98,-411.86C943.14,-388.18 782.46,-351.55 676.62,-327.42"/>
<polygon fill="black" stroke="black" points="677.09,-323.94 666.56,-325.13 675.53,-330.76 677.09,-323.94"/>
</g>
<!-- 9 -->
<g id="node10" class="node">
<title>9</title>
<polygon fill="none" stroke="black" points="1241,-351 1056,-351 1056,-253 1241,-253 1241,-351"/>
<text text-anchor="middle" x="1148.5" y="-335.8" font-family="Times,serif" font-size="14.00">node #9</text>
<text text-anchor="middle" x="1148.5" y="-320.8" font-family="Times,serif" font-size="14.00">FEFPreVal &lt;= 1.125</text>
<text text-anchor="middle" x="1148.5" y="-305.8" font-family="Times,serif" font-size="14.00">gini = 0.125</text>
<text text-anchor="middle" x="1148.5" y="-290.8" font-family="Times,serif" font-size="14.00">samples = 53</text>
<text text-anchor="middle" x="1148.5" y="-275.8" font-family="Times,serif" font-size="14.00">value = [5.911, 82.235]</text>
<text text-anchor="middle" x="1148.5" y="-260.8" font-family="Times,serif" font-size="14.00">class = Obstructive</text>
</g>
<!-- 1&#45;&gt;9 -->
<g id="edge9" class="edge">
<title>1&#45;&gt;9</title>
<path fill="none" stroke="black" d="M1148.5,-386.97C1148.5,-378.69 1148.5,-370 1148.5,-361.48"/>
<polygon fill="black" stroke="black" points="1152,-361.21 1148.5,-351.21 1145,-361.21 1152,-361.21"/>
</g>
<!-- 3 -->
<g id="node4" class="node">
<title>3</title>
<polygon fill="none" stroke="black" points="360.5,-217 184.5,-217 184.5,-119 360.5,-119 360.5,-217"/>
<text text-anchor="middle" x="272.5" y="-201.8" font-family="Times,serif" font-size="14.00">node #3</text>
<text text-anchor="middle" x="272.5" y="-186.8" font-family="Times,serif" font-size="14.00">FEFPreVal &lt;= 0.355</text>
<text text-anchor="middle" x="272.5" y="-171.8" font-family="Times,serif" font-size="14.00">gini = 0.084</text>
<text text-anchor="middle" x="272.5" y="-156.8" font-family="Times,serif" font-size="14.00">samples = 17</text>
<text text-anchor="middle" x="272.5" y="-141.8" font-family="Times,serif" font-size="14.00">value = [0.985, 21.32]</text>
<text text-anchor="middle" x="272.5" y="-126.8" font-family="Times,serif" font-size="14.00">class = Obstructive</text>
</g>
<!-- 2&#45;&gt;3 -->
<g id="edge3" class="edge">
<title>2&#45;&gt;3</title>
<path fill="none" stroke="black" d="M472.25,-257.78C439.47,-243.21 402.89,-226.95 370.08,-212.37"/>
<polygon fill="black" stroke="black" points="371.49,-209.17 360.93,-208.3 368.65,-215.56 371.49,-209.17"/>
</g>
<!-- 6 -->
<g id="node7" class="node">
<title>6</title>
<polygon fill="none" stroke="black" points="665,-217 474,-217 474,-119 665,-119 665,-217"/>
<text text-anchor="middle" x="569.5" y="-201.8" font-family="Times,serif" font-size="14.00">node #6</text>
<text text-anchor="middle" x="569.5" y="-186.8" font-family="Times,serif" font-size="14.00">FVCPrePercent &lt;= 72.0</text>
<text text-anchor="middle" x="569.5" y="-171.8" font-family="Times,serif" font-size="14.00">gini = 0.391</text>
<text text-anchor="middle" x="569.5" y="-156.8" font-family="Times,serif" font-size="14.00">samples = 11</text>
<text text-anchor="middle" x="569.5" y="-141.8" font-family="Times,serif" font-size="14.00">value = [16.749, 6.091]</text>
<text text-anchor="middle" x="569.5" y="-126.8" font-family="Times,serif" font-size="14.00">class = Non&#45;obstructive</text>
</g>
<!-- 2&#45;&gt;6 -->
<g id="edge6" class="edge">
<title>2&#45;&gt;6</title>
<path fill="none" stroke="black" d="M569.5,-252.97C569.5,-244.69 569.5,-236 569.5,-227.48"/>
<polygon fill="black" stroke="black" points="573,-227.21 569.5,-217.21 566,-227.21 573,-227.21"/>
</g>
<!-- 4 -->
<g id="node5" class="node">
<title>4</title>
<polygon fill="none" stroke="black" points="167,-83 0,-83 0,0 167,0 167,-83"/>
<text text-anchor="middle" x="83.5" y="-67.8" font-family="Times,serif" font-size="14.00">node #4</text>
<text text-anchor="middle" x="83.5" y="-52.8" font-family="Times,serif" font-size="14.00">gini = 0.0</text>
<text text-anchor="middle" x="83.5" y="-37.8" font-family="Times,serif" font-size="14.00">samples = 13</text>
<text text-anchor="middle" x="83.5" y="-22.8" font-family="Times,serif" font-size="14.00">value = [0.0, 18.274]</text>
<text text-anchor="middle" x="83.5" y="-7.8" font-family="Times,serif" font-size="14.00">class = Obstructive</text>
</g>
<!-- 3&#45;&gt;4 -->
<g id="edge4" class="edge">
<title>3&#45;&gt;4</title>
<path fill="none" stroke="black" d="M199.43,-118.87C184.41,-108.97 168.62,-98.57 153.7,-88.74"/>
<polygon fill="black" stroke="black" points="155.31,-85.61 145.03,-83.03 151.46,-91.46 155.31,-85.61"/>
</g>
<!-- 5 -->
<g id="node6" class="node">
<title>5</title>
<polygon fill="none" stroke="black" points="360.5,-83 184.5,-83 184.5,0 360.5,0 360.5,-83"/>
<text text-anchor="middle" x="272.5" y="-67.8" font-family="Times,serif" font-size="14.00">node #5</text>
<text text-anchor="middle" x="272.5" y="-52.8" font-family="Times,serif" font-size="14.00">gini = 0.369</text>
<text text-anchor="middle" x="272.5" y="-37.8" font-family="Times,serif" font-size="14.00">samples = 4</text>
<text text-anchor="middle" x="272.5" y="-22.8" font-family="Times,serif" font-size="14.00">value = [0.985, 3.046]</text>
<text text-anchor="middle" x="272.5" y="-7.8" font-family="Times,serif" font-size="14.00">class = Obstructive</text>
</g>
<!-- 3&#45;&gt;5 -->
<g id="edge5" class="edge">
<title>3&#45;&gt;5</title>
<path fill="none" stroke="black" d="M272.5,-118.87C272.5,-110.5 272.5,-101.77 272.5,-93.33"/>
<polygon fill="black" stroke="black" points="276,-93.23 272.5,-83.23 269,-93.23 276,-93.23"/>
</g>
<!-- 7 -->
<g id="node8" class="node">
<title>7</title>
<polygon fill="none" stroke="black" points="566.5,-83 378.5,-83 378.5,0 566.5,0 566.5,-83"/>
<text text-anchor="middle" x="472.5" y="-67.8" font-family="Times,serif" font-size="14.00">node #7</text>
<text text-anchor="middle" x="472.5" y="-52.8" font-family="Times,serif" font-size="14.00">gini = 0.26</text>
<text text-anchor="middle" x="472.5" y="-37.8" font-family="Times,serif" font-size="14.00">samples = 10</text>
<text text-anchor="middle" x="472.5" y="-22.8" font-family="Times,serif" font-size="14.00">value = [16.749, 3.046]</text>
<text text-anchor="middle" x="472.5" y="-7.8" font-family="Times,serif" font-size="14.00">class = Non&#45;obstructive</text>
</g>
<!-- 6&#45;&gt;7 -->
<g id="edge7" class="edge">
<title>6&#45;&gt;7</title>
<path fill="none" stroke="black" d="M532,-118.87C524.98,-109.85 517.63,-100.43 510.59,-91.39"/>
<polygon fill="black" stroke="black" points="513.14,-88.97 504.23,-83.23 507.62,-93.27 513.14,-88.97"/>
</g>
<!-- 8 -->
<g id="node9" class="node">
<title>8</title>
<polygon fill="none" stroke="black" points="742.5,-83 584.5,-83 584.5,0 742.5,0 742.5,-83"/>
<text text-anchor="middle" x="663.5" y="-67.8" font-family="Times,serif" font-size="14.00">node #8</text>
<text text-anchor="middle" x="663.5" y="-52.8" font-family="Times,serif" font-size="14.00">gini = 0.0</text>
<text text-anchor="middle" x="663.5" y="-37.8" font-family="Times,serif" font-size="14.00">samples = 1</text>
<text text-anchor="middle" x="663.5" y="-22.8" font-family="Times,serif" font-size="14.00">value = [0.0, 3.046]</text>
<text text-anchor="middle" x="663.5" y="-7.8" font-family="Times,serif" font-size="14.00">class = Obstructive</text>
</g>
<!-- 6&#45;&gt;8 -->
<g id="edge8" class="edge">
<title>6&#45;&gt;8</title>
<path fill="none" stroke="black" d="M605.84,-118.87C612.65,-109.85 619.76,-100.43 626.58,-91.39"/>
<polygon fill="black" stroke="black" points="629.51,-93.32 632.75,-83.23 623.93,-89.1 629.51,-93.32"/>
</g>
<!-- 10 -->
<g id="node11" class="node">
<title>10</title>
<polygon fill="none" stroke="black" points="1134.5,-217 958.5,-217 958.5,-119 1134.5,-119 1134.5,-217"/>
<text text-anchor="middle" x="1046.5" y="-201.8" font-family="Times,serif" font-size="14.00">node #10</text>
<text text-anchor="middle" x="1046.5" y="-186.8" font-family="Times,serif" font-size="14.00">FVCPreVal &lt;= 1.645</text>
<text text-anchor="middle" x="1046.5" y="-171.8" font-family="Times,serif" font-size="14.00">gini = 0.05</text>
<text text-anchor="middle" x="1046.5" y="-156.8" font-family="Times,serif" font-size="14.00">samples = 46</text>
<text text-anchor="middle" x="1046.5" y="-141.8" font-family="Times,serif" font-size="14.00">value = [1.97, 75.128]</text>
<text text-anchor="middle" x="1046.5" y="-126.8" font-family="Times,serif" font-size="14.00">class = Obstructive</text>
</g>
<!-- 9&#45;&gt;10 -->
<g id="edge10" class="edge">
<title>9&#45;&gt;10</title>
<path fill="none" stroke="black" d="M1111.39,-252.97C1104.43,-243.96 1097.09,-234.47 1089.96,-225.24"/>
<polygon fill="black" stroke="black" points="1092.64,-222.99 1083.76,-217.21 1087.1,-227.27 1092.64,-222.99"/>
</g>
<!-- 13 -->
<g id="node14" class="node">
<title>13</title>
<polygon fill="none" stroke="black" points="1350,-217 1153,-217 1153,-119 1350,-119 1350,-217"/>
<text text-anchor="middle" x="1251.5" y="-201.8" font-family="Times,serif" font-size="14.00">node #13</text>
<text text-anchor="middle" x="1251.5" y="-186.8" font-family="Times,serif" font-size="14.00">FVCPostPercent &lt;= 66.0</text>
<text text-anchor="middle" x="1251.5" y="-171.8" font-family="Times,serif" font-size="14.00">gini = 0.459</text>
<text text-anchor="middle" x="1251.5" y="-156.8" font-family="Times,serif" font-size="14.00">samples = 7</text>
<text text-anchor="middle" x="1251.5" y="-141.8" font-family="Times,serif" font-size="14.00">value = [3.941, 7.107]</text>
<text text-anchor="middle" x="1251.5" y="-126.8" font-family="Times,serif" font-size="14.00">class = Obstructive</text>
</g>
<!-- 9&#45;&gt;13 -->
<g id="edge13" class="edge">
<title>9&#45;&gt;13</title>
<path fill="none" stroke="black" d="M1185.98,-252.97C1193.01,-243.96 1200.41,-234.47 1207.62,-225.24"/>
<polygon fill="black" stroke="black" points="1210.49,-227.25 1213.88,-217.21 1204.97,-222.94 1210.49,-227.25"/>
</g>
<!-- 11 -->
<g id="node12" class="node">
<title>11</title>
<polygon fill="none" stroke="black" points="936.5,-83 760.5,-83 760.5,0 936.5,0 936.5,-83"/>
<text text-anchor="middle" x="848.5" y="-67.8" font-family="Times,serif" font-size="14.00">node #11</text>
<text text-anchor="middle" x="848.5" y="-52.8" font-family="Times,serif" font-size="14.00">gini = 0.214</text>
<text text-anchor="middle" x="848.5" y="-37.8" font-family="Times,serif" font-size="14.00">samples = 3</text>
<text text-anchor="middle" x="848.5" y="-22.8" font-family="Times,serif" font-size="14.00">value = [0.985, 7.107]</text>
<text text-anchor="middle" x="848.5" y="-7.8" font-family="Times,serif" font-size="14.00">class = Obstructive</text>
</g>
<!-- 10&#45;&gt;11 -->
<g id="edge11" class="edge">
<title>10&#45;&gt;11</title>
<path fill="none" stroke="black" d="M969.95,-118.87C954.06,-108.88 937.36,-98.38 921.61,-88.47"/>
<polygon fill="black" stroke="black" points="923.29,-85.39 912.96,-83.03 919.56,-91.32 923.29,-85.39"/>
</g>
<!-- 12 -->
<g id="node13" class="node">
<title>12</title>
<polygon fill="none" stroke="black" points="1139,-83 954,-83 954,0 1139,0 1139,-83"/>
<text text-anchor="middle" x="1046.5" y="-67.8" font-family="Times,serif" font-size="14.00">node #12</text>
<text text-anchor="middle" x="1046.5" y="-52.8" font-family="Times,serif" font-size="14.00">gini = 0.028</text>
<text text-anchor="middle" x="1046.5" y="-37.8" font-family="Times,serif" font-size="14.00">samples = 43</text>
<text text-anchor="middle" x="1046.5" y="-22.8" font-family="Times,serif" font-size="14.00">value = [0.985, 68.021]</text>
<text text-anchor="middle" x="1046.5" y="-7.8" font-family="Times,serif" font-size="14.00">class = Obstructive</text>
</g>
<!-- 10&#45;&gt;12 -->
<g id="edge12" class="edge">
<title>10&#45;&gt;12</title>
<path fill="none" stroke="black" d="M1046.5,-118.87C1046.5,-110.5 1046.5,-101.77 1046.5,-93.33"/>
<polygon fill="black" stroke="black" points="1050,-93.23 1046.5,-83.23 1043,-93.23 1050,-93.23"/>
</g>
<!-- 14 -->
<g id="node15" class="node">
<title>14</title>
<polygon fill="none" stroke="black" points="1345.5,-83 1157.5,-83 1157.5,0 1345.5,0 1345.5,-83"/>
<text text-anchor="middle" x="1251.5" y="-67.8" font-family="Times,serif" font-size="14.00">node #14</text>
<text text-anchor="middle" x="1251.5" y="-52.8" font-family="Times,serif" font-size="14.00">gini = 0.0</text>
<text text-anchor="middle" x="1251.5" y="-37.8" font-family="Times,serif" font-size="14.00">samples = 2</text>
<text text-anchor="middle" x="1251.5" y="-22.8" font-family="Times,serif" font-size="14.00">value = [3.941, 0.0]</text>
<text text-anchor="middle" x="1251.5" y="-7.8" font-family="Times,serif" font-size="14.00">class = Non&#45;obstructive</text>
</g>
<!-- 13&#45;&gt;14 -->
<g id="edge14" class="edge">
<title>13&#45;&gt;14</title>
<path fill="none" stroke="black" d="M1251.5,-118.87C1251.5,-110.5 1251.5,-101.77 1251.5,-93.33"/>
<polygon fill="black" stroke="black" points="1255,-93.23 1251.5,-83.23 1248,-93.23 1255,-93.23"/>
</g>
<!-- 15 -->
<g id="node16" class="node">
<title>15</title>
<polygon fill="none" stroke="black" points="1521.5,-83 1363.5,-83 1363.5,0 1521.5,0 1521.5,-83"/>
<text text-anchor="middle" x="1442.5" y="-67.8" font-family="Times,serif" font-size="14.00">node #15</text>
<text text-anchor="middle" x="1442.5" y="-52.8" font-family="Times,serif" font-size="14.00">gini = 0.0</text>
<text text-anchor="middle" x="1442.5" y="-37.8" font-family="Times,serif" font-size="14.00">samples = 5</text>
<text text-anchor="middle" x="1442.5" y="-22.8" font-family="Times,serif" font-size="14.00">value = [0.0, 7.107]</text>
<text text-anchor="middle" x="1442.5" y="-7.8" font-family="Times,serif" font-size="14.00">class = Obstructive</text>
</g>
<!-- 13&#45;&gt;15 -->
<g id="edge15" class="edge">
<title>13&#45;&gt;15</title>
<path fill="none" stroke="black" d="M1325.35,-118.87C1340.53,-108.97 1356.48,-98.57 1371.55,-88.74"/>
<polygon fill="black" stroke="black" points="1373.85,-91.43 1380.32,-83.03 1370.03,-85.56 1373.85,-91.43"/>
</g>
<!-- 17 -->
<g id="node18" class="node">
<title>17</title>
<polygon fill="none" stroke="black" points="2001.5,-351 1807.5,-351 1807.5,-253 2001.5,-253 2001.5,-351"/>
<text text-anchor="middle" x="1904.5" y="-335.8" font-family="Times,serif" font-size="14.00">node #17</text>
<text text-anchor="middle" x="1904.5" y="-320.8" font-family="Times,serif" font-size="14.00">FEV1PostVal &lt;= 2.58</text>
<text text-anchor="middle" x="1904.5" y="-305.8" font-family="Times,serif" font-size="14.00">gini = 0.221</text>
<text text-anchor="middle" x="1904.5" y="-290.8" font-family="Times,serif" font-size="14.00">samples = 87</text>
<text text-anchor="middle" x="1904.5" y="-275.8" font-family="Times,serif" font-size="14.00">value = [119.21, 17.259]</text>
<text text-anchor="middle" x="1904.5" y="-260.8" font-family="Times,serif" font-size="14.00">class = Non&#45;obstructive</text>
</g>
<!-- 16&#45;&gt;17 -->
<g id="edge17" class="edge">
<title>16&#45;&gt;17</title>
<path fill="none" stroke="black" d="M1904.5,-386.97C1904.5,-378.69 1904.5,-370 1904.5,-361.48"/>
<polygon fill="black" stroke="black" points="1908,-361.21 1904.5,-351.21 1901,-361.21 1908,-361.21"/>
</g>
<!-- 24 -->
<g id="node25" class="node">
<title>24</title>
<polygon fill="none" stroke="black" points="2579,-351 2382,-351 2382,-253 2579,-253 2579,-351"/>
<text text-anchor="middle" x="2480.5" y="-335.8" font-family="Times,serif" font-size="14.00">node #24</text>
<text text-anchor="middle" x="2480.5" y="-320.8" font-family="Times,serif" font-size="14.00">FVCPostPercent &lt;= 86.5</text>
<text text-anchor="middle" x="2480.5" y="-305.8" font-family="Times,serif" font-size="14.00">gini = 0.468</text>
<text text-anchor="middle" x="2480.5" y="-290.8" font-family="Times,serif" font-size="14.00">samples = 41</text>
<text text-anchor="middle" x="2480.5" y="-275.8" font-family="Times,serif" font-size="14.00">value = [23.645, 39.595]</text>
<text text-anchor="middle" x="2480.5" y="-260.8" font-family="Times,serif" font-size="14.00">class = Obstructive</text>
</g>
<!-- 16&#45;&gt;24 -->
<g id="edge24" class="edge">
<title>16&#45;&gt;24</title>
<path fill="none" stroke="black" d="M2006.15,-411.7C2108.77,-388.19 2266.72,-351.99 2371.79,-327.91"/>
<polygon fill="black" stroke="black" points="2372.82,-331.27 2381.79,-325.62 2371.26,-324.44 2372.82,-331.27"/>
</g>
<!-- 18 -->
<g id="node19" class="node">
<title>18</title>
<polygon fill="none" stroke="black" points="1895,-217 1698,-217 1698,-119 1895,-119 1895,-217"/>
<text text-anchor="middle" x="1796.5" y="-201.8" font-family="Times,serif" font-size="14.00">node #18</text>
<text text-anchor="middle" x="1796.5" y="-186.8" font-family="Times,serif" font-size="14.00">FEFPostPercent &lt;= 21.5</text>
<text text-anchor="middle" x="1796.5" y="-171.8" font-family="Times,serif" font-size="14.00">gini = 0.159</text>
<text text-anchor="middle" x="1796.5" y="-156.8" font-family="Times,serif" font-size="14.00">samples = 79</text>
<text text-anchor="middle" x="1796.5" y="-141.8" font-family="Times,serif" font-size="14.00">value = [117.24, 11.168]</text>
<text text-anchor="middle" x="1796.5" y="-126.8" font-family="Times,serif" font-size="14.00">class = Non&#45;obstructive</text>
</g>
<!-- 17&#45;&gt;18 -->
<g id="edge18" class="edge">
<title>17&#45;&gt;18</title>
<path fill="none" stroke="black" d="M1865.2,-252.97C1857.76,-243.87 1849.91,-234.28 1842.29,-224.96"/>
<polygon fill="black" stroke="black" points="1844.99,-222.74 1835.95,-217.21 1839.57,-227.17 1844.99,-222.74"/>
</g>
<!-- 21 -->
<g id="node22" class="node">
<title>21</title>
<polygon fill="none" stroke="black" points="2113.5,-217 1913.5,-217 1913.5,-119 2113.5,-119 2113.5,-217"/>
<text text-anchor="middle" x="2013.5" y="-201.8" font-family="Times,serif" font-size="14.00">node #21</text>
<text text-anchor="middle" x="2013.5" y="-186.8" font-family="Times,serif" font-size="14.00">FEV1PrePercent &lt;= 68.5</text>
<text text-anchor="middle" x="2013.5" y="-171.8" font-family="Times,serif" font-size="14.00">gini = 0.369</text>
<text text-anchor="middle" x="2013.5" y="-156.8" font-family="Times,serif" font-size="14.00">samples = 8</text>
<text text-anchor="middle" x="2013.5" y="-141.8" font-family="Times,serif" font-size="14.00">value = [1.97, 6.091]</text>
<text text-anchor="middle" x="2013.5" y="-126.8" font-family="Times,serif" font-size="14.00">class = Obstructive</text>
</g>
<!-- 17&#45;&gt;21 -->
<g id="edge21" class="edge">
<title>17&#45;&gt;21</title>
<path fill="none" stroke="black" d="M1944.16,-252.97C1951.67,-243.87 1959.59,-234.28 1967.29,-224.96"/>
<polygon fill="black" stroke="black" points="1970.02,-227.15 1973.69,-217.21 1964.62,-222.7 1970.02,-227.15"/>
</g>
<!-- 19 -->
<g id="node20" class="node">
<title>19</title>
<polygon fill="none" stroke="black" points="1697.5,-83 1539.5,-83 1539.5,0 1697.5,0 1697.5,-83"/>
<text text-anchor="middle" x="1618.5" y="-67.8" font-family="Times,serif" font-size="14.00">node #19</text>
<text text-anchor="middle" x="1618.5" y="-52.8" font-family="Times,serif" font-size="14.00">gini = 0.0</text>
<text text-anchor="middle" x="1618.5" y="-37.8" font-family="Times,serif" font-size="14.00">samples = 1</text>
<text text-anchor="middle" x="1618.5" y="-22.8" font-family="Times,serif" font-size="14.00">value = [0.0, 4.061]</text>
<text text-anchor="middle" x="1618.5" y="-7.8" font-family="Times,serif" font-size="14.00">class = Obstructive</text>
</g>
<!-- 18&#45;&gt;19 -->
<g id="edge19" class="edge">
<title>18&#45;&gt;19</title>
<path fill="none" stroke="black" d="M1727.68,-118.87C1713.66,-109.06 1698.94,-98.77 1685.01,-89.02"/>
<polygon fill="black" stroke="black" points="1686.65,-85.9 1676.45,-83.03 1682.64,-91.63 1686.65,-85.9"/>
</g>
<!-- 20 -->
<g id="node21" class="node">
<title>20</title>
<polygon fill="none" stroke="black" points="1903.5,-83 1715.5,-83 1715.5,0 1903.5,0 1903.5,-83"/>
<text text-anchor="middle" x="1809.5" y="-67.8" font-family="Times,serif" font-size="14.00">node #20</text>
<text text-anchor="middle" x="1809.5" y="-52.8" font-family="Times,serif" font-size="14.00">gini = 0.108</text>
<text text-anchor="middle" x="1809.5" y="-37.8" font-family="Times,serif" font-size="14.00">samples = 78</text>
<text text-anchor="middle" x="1809.5" y="-22.8" font-family="Times,serif" font-size="14.00">value = [117.24, 7.107]</text>
<text text-anchor="middle" x="1809.5" y="-7.8" font-family="Times,serif" font-size="14.00">class = Non&#45;obstructive</text>
</g>
<!-- 18&#45;&gt;20 -->
<g id="edge20" class="edge">
<title>18&#45;&gt;20</title>
<path fill="none" stroke="black" d="M1801.53,-118.87C1802.4,-110.5 1803.31,-101.77 1804.19,-93.33"/>
<polygon fill="black" stroke="black" points="1807.69,-93.54 1805.25,-83.23 1800.73,-92.81 1807.69,-93.54"/>
</g>
<!-- 22 -->
<g id="node23" class="node">
<title>22</title>
<polygon fill="none" stroke="black" points="2079.5,-83 1921.5,-83 1921.5,0 2079.5,0 2079.5,-83"/>
<text text-anchor="middle" x="2000.5" y="-67.8" font-family="Times,serif" font-size="14.00">node #22</text>
<text text-anchor="middle" x="2000.5" y="-52.8" font-family="Times,serif" font-size="14.00">gini = 0.0</text>
<text text-anchor="middle" x="2000.5" y="-37.8" font-family="Times,serif" font-size="14.00">samples = 6</text>
<text text-anchor="middle" x="2000.5" y="-22.8" font-family="Times,serif" font-size="14.00">value = [0.0, 6.091]</text>
<text text-anchor="middle" x="2000.5" y="-7.8" font-family="Times,serif" font-size="14.00">class = Obstructive</text>
</g>
<!-- 21&#45;&gt;22 -->
<g id="edge22" class="edge">
<title>21&#45;&gt;22</title>
<path fill="none" stroke="black" d="M2008.47,-118.87C2007.6,-110.5 2006.69,-101.77 2005.81,-93.33"/>
<polygon fill="black" stroke="black" points="2009.27,-92.81 2004.75,-83.23 2002.31,-93.54 2009.27,-92.81"/>
</g>
<!-- 23 -->
<g id="node24" class="node">
<title>23</title>
<polygon fill="none" stroke="black" points="2285.5,-83 2097.5,-83 2097.5,0 2285.5,0 2285.5,-83"/>
<text text-anchor="middle" x="2191.5" y="-67.8" font-family="Times,serif" font-size="14.00">node #23</text>
<text text-anchor="middle" x="2191.5" y="-52.8" font-family="Times,serif" font-size="14.00">gini = 0.0</text>
<text text-anchor="middle" x="2191.5" y="-37.8" font-family="Times,serif" font-size="14.00">samples = 2</text>
<text text-anchor="middle" x="2191.5" y="-22.8" font-family="Times,serif" font-size="14.00">value = [1.97, 0.0]</text>
<text text-anchor="middle" x="2191.5" y="-7.8" font-family="Times,serif" font-size="14.00">class = Non&#45;obstructive</text>
</g>
<!-- 21&#45;&gt;23 -->
<g id="edge23" class="edge">
<title>21&#45;&gt;23</title>
<path fill="none" stroke="black" d="M2082.32,-118.87C2096.34,-109.06 2111.06,-98.77 2124.99,-89.02"/>
<polygon fill="black" stroke="black" points="2127.36,-91.63 2133.55,-83.03 2123.35,-85.9 2127.36,-91.63"/>
</g>
<!-- 25 -->
<g id="node26" class="node">
<title>25</title>
<polygon fill="none" stroke="black" points="2579,-217 2382,-217 2382,-119 2579,-119 2579,-217"/>
<text text-anchor="middle" x="2480.5" y="-201.8" font-family="Times,serif" font-size="14.00">node #25</text>
<text text-anchor="middle" x="2480.5" y="-186.8" font-family="Times,serif" font-size="14.00">FVCPostPercent &lt;= 76.5</text>
<text text-anchor="middle" x="2480.5" y="-171.8" font-family="Times,serif" font-size="14.00">gini = 0.495</text>
<text text-anchor="middle" x="2480.5" y="-156.8" font-family="Times,serif" font-size="14.00">samples = 21</text>
<text text-anchor="middle" x="2480.5" y="-141.8" font-family="Times,serif" font-size="14.00">value = [19.704, 16.244]</text>
<text text-anchor="middle" x="2480.5" y="-126.8" font-family="Times,serif" font-size="14.00">class = Non&#45;obstructive</text>
</g>
<!-- 24&#45;&gt;25 -->
<g id="edge25" class="edge">
<title>24&#45;&gt;25</title>
<path fill="none" stroke="black" d="M2480.5,-252.97C2480.5,-244.69 2480.5,-236 2480.5,-227.48"/>
<polygon fill="black" stroke="black" points="2484,-227.21 2480.5,-217.21 2477,-227.21 2484,-227.21"/>
</g>
<!-- 28 -->
<g id="node29" class="node">
<title>28</title>
<polygon fill="none" stroke="black" points="2896,-217 2687,-217 2687,-119 2896,-119 2896,-217"/>
<text text-anchor="middle" x="2791.5" y="-201.8" font-family="Times,serif" font-size="14.00">node #28</text>
<text text-anchor="middle" x="2791.5" y="-186.8" font-family="Times,serif" font-size="14.00">FEV1PrePercent &lt;= 105.5</text>
<text text-anchor="middle" x="2791.5" y="-171.8" font-family="Times,serif" font-size="14.00">gini = 0.247</text>
<text text-anchor="middle" x="2791.5" y="-156.8" font-family="Times,serif" font-size="14.00">samples = 20</text>
<text text-anchor="middle" x="2791.5" y="-141.8" font-family="Times,serif" font-size="14.00">value = [3.941, 23.351]</text>
<text text-anchor="middle" x="2791.5" y="-126.8" font-family="Times,serif" font-size="14.00">class = Obstructive</text>
</g>
<!-- 24&#45;&gt;28 -->
<g id="edge28" class="edge">
<title>24&#45;&gt;28</title>
<path fill="none" stroke="black" d="M2579.33,-259.05C2610.49,-245.83 2645.17,-231.11 2677.31,-217.47"/>
<polygon fill="black" stroke="black" points="2678.91,-220.59 2686.75,-213.46 2676.18,-214.14 2678.91,-220.59"/>
</g>
<!-- 26 -->
<g id="node27" class="node">
<title>26</title>
<polygon fill="none" stroke="black" points="2479.5,-83 2303.5,-83 2303.5,0 2479.5,0 2479.5,-83"/>
<text text-anchor="middle" x="2391.5" y="-67.8" font-family="Times,serif" font-size="14.00">node #26</text>
<text text-anchor="middle" x="2391.5" y="-52.8" font-family="Times,serif" font-size="14.00">gini = 0.214</text>
<text text-anchor="middle" x="2391.5" y="-37.8" font-family="Times,serif" font-size="14.00">samples = 4</text>
<text text-anchor="middle" x="2391.5" y="-22.8" font-family="Times,serif" font-size="14.00">value = [0.985, 7.107]</text>
<text text-anchor="middle" x="2391.5" y="-7.8" font-family="Times,serif" font-size="14.00">class = Obstructive</text>
</g>
<!-- 25&#45;&gt;26 -->
<g id="edge26" class="edge">
<title>25&#45;&gt;26</title>
<path fill="none" stroke="black" d="M2446.09,-118.87C2439.65,-109.85 2432.91,-100.43 2426.45,-91.39"/>
<polygon fill="black" stroke="black" points="2429.28,-89.33 2420.62,-83.23 2423.59,-93.4 2429.28,-89.33"/>
</g>
<!-- 27 -->
<g id="node28" class="node">
<title>27</title>
<polygon fill="none" stroke="black" points="2685.5,-83 2497.5,-83 2497.5,0 2685.5,0 2685.5,-83"/>
<text text-anchor="middle" x="2591.5" y="-67.8" font-family="Times,serif" font-size="14.00">node #27</text>
<text text-anchor="middle" x="2591.5" y="-52.8" font-family="Times,serif" font-size="14.00">gini = 0.441</text>
<text text-anchor="middle" x="2591.5" y="-37.8" font-family="Times,serif" font-size="14.00">samples = 17</text>
<text text-anchor="middle" x="2591.5" y="-22.8" font-family="Times,serif" font-size="14.00">value = [18.719, 9.137]</text>
<text text-anchor="middle" x="2591.5" y="-7.8" font-family="Times,serif" font-size="14.00">class = Non&#45;obstructive</text>
</g>
<!-- 25&#45;&gt;27 -->
<g id="edge27" class="edge">
<title>25&#45;&gt;27</title>
<path fill="none" stroke="black" d="M2523.42,-118.87C2531.61,-109.67 2540.2,-100.04 2548.4,-90.84"/>
<polygon fill="black" stroke="black" points="2551.14,-93.02 2555.19,-83.23 2545.92,-88.37 2551.14,-93.02"/>
</g>
<!-- 29 -->
<g id="node30" class="node">
<title>29</title>
<polygon fill="none" stroke="black" points="2879.5,-83 2703.5,-83 2703.5,0 2879.5,0 2879.5,-83"/>
<text text-anchor="middle" x="2791.5" y="-67.8" font-family="Times,serif" font-size="14.00">node #29</text>
<text text-anchor="middle" x="2791.5" y="-52.8" font-family="Times,serif" font-size="14.00">gini = 0.149</text>
<text text-anchor="middle" x="2791.5" y="-37.8" font-family="Times,serif" font-size="14.00">samples = 17</text>
<text text-anchor="middle" x="2791.5" y="-22.8" font-family="Times,serif" font-size="14.00">value = [1.97, 22.335]</text>
<text text-anchor="middle" x="2791.5" y="-7.8" font-family="Times,serif" font-size="14.00">class = Obstructive</text>
</g>
<!-- 28&#45;&gt;29 -->
<g id="edge29" class="edge">
<title>28&#45;&gt;29</title>
<path fill="none" stroke="black" d="M2791.5,-118.87C2791.5,-110.5 2791.5,-101.77 2791.5,-93.33"/>
<polygon fill="black" stroke="black" points="2795,-93.23 2791.5,-83.23 2788,-93.23 2795,-93.23"/>
</g>
<!-- 30 -->
<g id="node31" class="node">
<title>30</title>
<polygon fill="none" stroke="black" points="3085.5,-83 2897.5,-83 2897.5,0 3085.5,0 3085.5,-83"/>
<text text-anchor="middle" x="2991.5" y="-67.8" font-family="Times,serif" font-size="14.00">node #30</text>
<text text-anchor="middle" x="2991.5" y="-52.8" font-family="Times,serif" font-size="14.00">gini = 0.449</text>
<text text-anchor="middle" x="2991.5" y="-37.8" font-family="Times,serif" font-size="14.00">samples = 3</text>
<text text-anchor="middle" x="2991.5" y="-22.8" font-family="Times,serif" font-size="14.00">value = [1.97, 1.015]</text>
<text text-anchor="middle" x="2991.5" y="-7.8" font-family="Times,serif" font-size="14.00">class = Non&#45;obstructive</text>
</g>
<!-- 28&#45;&gt;30 -->
<g id="edge30" class="edge">
<title>28&#45;&gt;30</title>
<path fill="none" stroke="black" d="M2868.83,-118.87C2884.87,-108.88 2901.74,-98.38 2917.65,-88.47"/>
<polygon fill="black" stroke="black" points="2919.75,-91.29 2926.39,-83.03 2916.05,-85.35 2919.75,-91.29"/>
</g>
</g>
</svg>
