<?xml version="1.0" encoding="UTF-8" standalone="no"?>
<!DOCTYPE svg PUBLIC "-//W3C//DTD SVG 1.1//EN"
 "http://www.w3.org/Graphics/SVG/1.1/DTD/svg11.dtd">
<!-- Generated by graphviz version 2.43.0 (0)
 -->
<!-- Title: Tree Pages: 1 -->
<svg width="1775pt" height="627pt"
 viewBox="0.00 0.00 1774.50 627.00" xmlns="http://www.w3.org/2000/svg" xmlns:xlink="http://www.w3.org/1999/xlink">
<g id="graph0" class="graph" transform="scale(1 1) rotate(0) translate(4 623)">
<title>Tree</title>
<polygon fill="white" stroke="transparent" points="-4,4 -4,-623 1770.5,-623 1770.5,4 -4,4"/>
<!-- 0 -->
<g id="node1" class="node">
<title>0</title>
<polygon fill="none" stroke="black" points="977.5,-619 786.5,-619 786.5,-521 977.5,-521 977.5,-619"/>
<text text-anchor="middle" x="882" y="-603.8" font-family="Times,serif" font-size="14.00">node #0</text>
<text text-anchor="middle" x="882" y="-588.8" font-family="Times,serif" font-size="14.00">FEFPrePercent &lt;= 42.5</text>
<text text-anchor="middle" x="882" y="-573.8" font-family="Times,serif" font-size="14.00">gini = 0.5</text>
<text text-anchor="middle" x="882" y="-558.8" font-family="Times,serif" font-size="14.00">samples = 213</text>
<text text-anchor="middle" x="882" y="-543.8" font-family="Times,serif" font-size="14.00">value = [166.5, 166.5]</text>
<text text-anchor="middle" x="882" y="-528.8" font-family="Times,serif" font-size="14.00">class = Non&#45;obstructive</text>
</g>
<!-- 1 -->
<g id="node2" class="node">
<title>1</title>
<polygon fill="none" stroke="black" points="697,-485 491,-485 491,-387 697,-387 697,-485"/>
<text text-anchor="middle" x="594" y="-469.8" font-family="Times,serif" font-size="14.00">node #1</text>
<text text-anchor="middle" x="594" y="-454.8" font-family="Times,serif" font-size="14.00">FEFPostPercent &lt;= 3.325</text>
<text text-anchor="middle" x="594" y="-439.8" font-family="Times,serif" font-size="14.00">gini = 0.24</text>
<text text-anchor="middle" x="594" y="-424.8" font-family="Times,serif" font-size="14.00">samples = 93</text>
<text text-anchor="middle" x="594" y="-409.8" font-family="Times,serif" font-size="14.00">value = [19.588, 121.175]</text>
<text text-anchor="middle" x="594" y="-394.8" font-family="Times,serif" font-size="14.00">class = Obstructive</text>
</g>
<!-- 0&#45;&gt;1 -->
<g id="edge1" class="edge">
<title>0&#45;&gt;1</title>
<path fill="none" stroke="black" d="M786.1,-525.05C760.63,-513.37 732.89,-500.66 706.62,-488.62"/>
<polygon fill="black" stroke="black" points="707.95,-485.37 697.4,-484.39 705.03,-491.74 707.95,-485.37"/>
<text text-anchor="middle" x="706.1" y="-504.13" font-family="Times,serif" font-size="14.00">True</text>
</g>
<!-- 12 -->
<g id="node13" class="node">
<title>12</title>
<polygon fill="none" stroke="black" points="1263.5,-485 1060.5,-485 1060.5,-387 1263.5,-387 1263.5,-485"/>
<text text-anchor="middle" x="1162" y="-469.8" font-family="Times,serif" font-size="14.00">node #12</text>
<text text-anchor="middle" x="1162" y="-454.8" font-family="Times,serif" font-size="14.00">FVCPreVal &lt;= 2.415</text>
<text text-anchor="middle" x="1162" y="-439.8" font-family="Times,serif" font-size="14.00">gini = 0.36</text>
<text text-anchor="middle" x="1162" y="-424.8" font-family="Times,serif" font-size="14.00">samples = 120</text>
<text text-anchor="middle" x="1162" y="-409.8" font-family="Times,serif" font-size="14.00">value = [146.912, 45.325]</text>
<text text-anchor="middle" x="1162" y="-394.8" font-family="Times,serif" font-size="14.00">class = Non&#45;obstructive</text>
</g>
<!-- 0&#45;&gt;12 -->
<g id="edge12" class="edge">
<title>0&#45;&gt;12</title>
<path fill="none" stroke="black" d="M977.58,-523.94C1001.18,-512.82 1026.66,-500.8 1050.92,-489.36"/>
<polygon fill="black" stroke="black" points="1052.61,-492.44 1060.16,-485.01 1049.62,-486.11 1052.61,-492.44"/>
<text text-anchor="middle" x="1051.71" y="-504.84" font-family="Times,serif" font-size="14.00">False</text>
</g>
<!-- 2 -->
<g id="node3" class="node">
<title>2</title>
<polygon fill="none" stroke="black" points="389.5,-351 180.5,-351 180.5,-253 389.5,-253 389.5,-351"/>
<text text-anchor="middle" x="285" y="-335.8" font-family="Times,serif" font-size="14.00">node #2</text>
<text text-anchor="middle" x="285" y="-320.8" font-family="Times,serif" font-size="14.00">FVCPrePercent &lt;= 48.925</text>
<text text-anchor="middle" x="285" y="-305.8" font-family="Times,serif" font-size="14.00">gini = 0.344</text>
<text text-anchor="middle" x="285" y="-290.8" font-family="Times,serif" font-size="14.00">samples = 3</text>
<text text-anchor="middle" x="285" y="-275.8" font-family="Times,serif" font-size="14.00">value = [3.265, 0.925]</text>
<text text-anchor="middle" x="285" y="-260.8" font-family="Times,serif" font-size="14.00">class = Non&#45;obstructive</text>
</g>
<!-- 1&#45;&gt;2 -->
<g id="edge2" class="edge">
<title>1&#45;&gt;2</title>
<path fill="none" stroke="black" d="M490.68,-390.86C461.18,-378.26 428.88,-364.47 398.8,-351.61"/>
<polygon fill="black" stroke="black" points="400.11,-348.37 389.54,-347.66 397.36,-354.81 400.11,-348.37"/>
</g>
<!-- 5 -->
<g id="node6" class="node">
<title>5</title>
<polygon fill="none" stroke="black" points="691,-351 497,-351 497,-253 691,-253 691,-351"/>
<text text-anchor="middle" x="594" y="-335.8" font-family="Times,serif" font-size="14.00">node #5</text>
<text text-anchor="middle" x="594" y="-320.8" font-family="Times,serif" font-size="14.00">FEFPrePercent &lt;= 32.5</text>
<text text-anchor="middle" x="594" y="-305.8" font-family="Times,serif" font-size="14.00">gini = 0.21</text>
<text text-anchor="middle" x="594" y="-290.8" font-family="Times,serif" font-size="14.00">samples = 90</text>
<text text-anchor="middle" x="594" y="-275.8" font-family="Times,serif" font-size="14.00">value = [16.324, 120.25]</text>
<text text-anchor="middle" x="594" y="-260.8" font-family="Times,serif" font-size="14.00">class = Obstructive</text>
</g>
<!-- 1&#45;&gt;5 -->
<g id="edge5" class="edge">
<title>1&#45;&gt;5</title>
<path fill="none" stroke="black" d="M594,-386.97C594,-378.69 594,-370 594,-361.48"/>
<polygon fill="black" stroke="black" points="597.5,-361.21 594,-351.21 590.5,-361.21 597.5,-361.21"/>
</g>
<!-- 3 -->
<g id="node4" class="node">
<title>3</title>
<polygon fill="none" stroke="black" points="188,-209.5 0,-209.5 0,-126.5 188,-126.5 188,-209.5"/>
<text text-anchor="middle" x="94" y="-194.3" font-family="Times,serif" font-size="14.00">node #3</text>
<text text-anchor="middle" x="94" y="-179.3" font-family="Times,serif" font-size="14.00">gini = 0.0</text>
<text text-anchor="middle" x="94" y="-164.3" font-family="Times,serif" font-size="14.00">samples = 2</text>
<text text-anchor="middle" x="94" y="-149.3" font-family="Times,serif" font-size="14.00">value = [3.265, 0.0]</text>
<text text-anchor="middle" x="94" y="-134.3" font-family="Times,serif" font-size="14.00">class = Non&#45;obstructive</text>
</g>
<!-- 2&#45;&gt;3 -->
<g id="edge3" class="edge">
<title>2&#45;&gt;3</title>
<path fill="none" stroke="black" d="M215.5,-252.97C197.81,-240.75 178.83,-227.63 161.26,-215.48"/>
<polygon fill="black" stroke="black" points="162.97,-212.41 152.75,-209.6 158.99,-218.17 162.97,-212.41"/>
</g>
<!-- 4 -->
<g id="node5" class="node">
<title>4</title>
<polygon fill="none" stroke="black" points="364,-209.5 206,-209.5 206,-126.5 364,-126.5 364,-209.5"/>
<text text-anchor="middle" x="285" y="-194.3" font-family="Times,serif" font-size="14.00">node #4</text>
<text text-anchor="middle" x="285" y="-179.3" font-family="Times,serif" font-size="14.00">gini = &#45;0.0</text>
<text text-anchor="middle" x="285" y="-164.3" font-family="Times,serif" font-size="14.00">samples = 1</text>
<text text-anchor="middle" x="285" y="-149.3" font-family="Times,serif" font-size="14.00">value = [0.0, 0.925]</text>
<text text-anchor="middle" x="285" y="-134.3" font-family="Times,serif" font-size="14.00">class = Obstructive</text>
</g>
<!-- 2&#45;&gt;4 -->
<g id="edge4" class="edge">
<title>2&#45;&gt;4</title>
<path fill="none" stroke="black" d="M285,-252.97C285,-242.25 285,-230.84 285,-219.99"/>
<polygon fill="black" stroke="black" points="288.5,-219.82 285,-209.82 281.5,-219.82 288.5,-219.82"/>
</g>
<!-- 6 -->
<g id="node7" class="node">
<title>6</title>
<polygon fill="none" stroke="black" points="566.5,-217 381.5,-217 381.5,-119 566.5,-119 566.5,-217"/>
<text text-anchor="middle" x="474" y="-201.8" font-family="Times,serif" font-size="14.00">node #6</text>
<text text-anchor="middle" x="474" y="-186.8" font-family="Times,serif" font-size="14.00">FVCPreVal &lt;= 1.645</text>
<text text-anchor="middle" x="474" y="-171.8" font-family="Times,serif" font-size="14.00">gini = 0.11</text>
<text text-anchor="middle" x="474" y="-156.8" font-family="Times,serif" font-size="14.00">samples = 69</text>
<text text-anchor="middle" x="474" y="-141.8" font-family="Times,serif" font-size="14.00">value = [6.529, 105.45]</text>
<text text-anchor="middle" x="474" y="-126.8" font-family="Times,serif" font-size="14.00">class = Obstructive</text>
</g>
<!-- 5&#45;&gt;6 -->
<g id="edge6" class="edge">
<title>5&#45;&gt;6</title>
<path fill="none" stroke="black" d="M550.34,-252.97C541.98,-243.78 533.17,-234.09 524.62,-224.68"/>
<polygon fill="black" stroke="black" points="527.15,-222.26 517.83,-217.21 521.97,-226.97 527.15,-222.26"/>
</g>
<!-- 9 -->
<g id="node10" class="node">
<title>9</title>
<polygon fill="none" stroke="black" points="781.5,-217 584.5,-217 584.5,-119 781.5,-119 781.5,-217"/>
<text text-anchor="middle" x="683" y="-201.8" font-family="Times,serif" font-size="14.00">node #9</text>
<text text-anchor="middle" x="683" y="-186.8" font-family="Times,serif" font-size="14.00">FEFPostPercent &lt;= 46.5</text>
<text text-anchor="middle" x="683" y="-171.8" font-family="Times,serif" font-size="14.00">gini = 0.479</text>
<text text-anchor="middle" x="683" y="-156.8" font-family="Times,serif" font-size="14.00">samples = 21</text>
<text text-anchor="middle" x="683" y="-141.8" font-family="Times,serif" font-size="14.00">value = [9.794, 14.8]</text>
<text text-anchor="middle" x="683" y="-126.8" font-family="Times,serif" font-size="14.00">class = Obstructive</text>
</g>
<!-- 5&#45;&gt;9 -->
<g id="edge9" class="edge">
<title>5&#45;&gt;9</title>
<path fill="none" stroke="black" d="M626.38,-252.97C632.4,-244.05 638.73,-234.66 644.89,-225.52"/>
<polygon fill="black" stroke="black" points="647.8,-227.46 650.49,-217.21 642,-223.55 647.8,-227.46"/>
</g>
<!-- 7 -->
<g id="node8" class="node">
<title>7</title>
<polygon fill="none" stroke="black" points="372.5,-83 187.5,-83 187.5,0 372.5,0 372.5,-83"/>
<text text-anchor="middle" x="280" y="-67.8" font-family="Times,serif" font-size="14.00">node #7</text>
<text text-anchor="middle" x="280" y="-52.8" font-family="Times,serif" font-size="14.00">gini = 0.279</text>
<text text-anchor="middle" x="280" y="-37.8" font-family="Times,serif" font-size="14.00">samples = 27</text>
<text text-anchor="middle" x="280" y="-22.8" font-family="Times,serif" font-size="14.00">value = [6.529, 32.375]</text>
<text text-anchor="middle" x="280" y="-7.8" font-family="Times,serif" font-size="14.00">class = Obstructive</text>
</g>
<!-- 6&#45;&gt;7 -->
<g id="edge7" class="edge">
<title>6&#45;&gt;7</title>
<path fill="none" stroke="black" d="M398.99,-118.87C383.43,-108.88 367.07,-98.38 351.63,-88.47"/>
<polygon fill="black" stroke="black" points="353.47,-85.49 343.16,-83.03 349.68,-91.38 353.47,-85.49"/>
</g>
<!-- 8 -->
<g id="node9" class="node">
<title>8</title>
<polygon fill="none" stroke="black" points="557.5,-83 390.5,-83 390.5,0 557.5,0 557.5,-83"/>
<text text-anchor="middle" x="474" y="-67.8" font-family="Times,serif" font-size="14.00">node #8</text>
<text text-anchor="middle" x="474" y="-52.8" font-family="Times,serif" font-size="14.00">gini = 0.0</text>
<text text-anchor="middle" x="474" y="-37.8" font-family="Times,serif" font-size="14.00">samples = 42</text>
<text text-anchor="middle" x="474" y="-22.8" font-family="Times,serif" font-size="14.00">value = [0.0, 73.075]</text>
<text text-anchor="middle" x="474" y="-7.8" font-family="Times,serif" font-size="14.00">class = Obstructive</text>
</g>
<!-- 6&#45;&gt;8 -->
<g id="edge8" class="edge">
<title>6&#45;&gt;8</title>
<path fill="none" stroke="black" d="M474,-118.87C474,-110.5 474,-101.77 474,-93.33"/>
<polygon fill="black" stroke="black" points="477.5,-93.23 474,-83.23 470.5,-93.23 477.5,-93.23"/>
</g>
<!-- 10 -->
<g id="node11" class="node">
<title>10</title>
<polygon fill="none" stroke="black" points="764,-83 576,-83 576,0 764,0 764,-83"/>
<text text-anchor="middle" x="670" y="-67.8" font-family="Times,serif" font-size="14.00">node #10</text>
<text text-anchor="middle" x="670" y="-52.8" font-family="Times,serif" font-size="14.00">gini = 0.479</text>
<text text-anchor="middle" x="670" y="-37.8" font-family="Times,serif" font-size="14.00">samples = 13</text>
<text text-anchor="middle" x="670" y="-22.8" font-family="Times,serif" font-size="14.00">value = [9.794, 6.475]</text>
<text text-anchor="middle" x="670" y="-7.8" font-family="Times,serif" font-size="14.00">class = Non&#45;obstructive</text>
</g>
<!-- 9&#45;&gt;10 -->
<g id="edge10" class="edge">
<title>9&#45;&gt;10</title>
<path fill="none" stroke="black" d="M677.97,-118.87C677.1,-110.5 676.19,-101.77 675.31,-93.33"/>
<polygon fill="black" stroke="black" points="678.77,-92.81 674.25,-83.23 671.81,-93.54 678.77,-92.81"/>
</g>
<!-- 11 -->
<g id="node12" class="node">
<title>11</title>
<polygon fill="none" stroke="black" points="940,-83 782,-83 782,0 940,0 940,-83"/>
<text text-anchor="middle" x="861" y="-67.8" font-family="Times,serif" font-size="14.00">node #11</text>
<text text-anchor="middle" x="861" y="-52.8" font-family="Times,serif" font-size="14.00">gini = 0.0</text>
<text text-anchor="middle" x="861" y="-37.8" font-family="Times,serif" font-size="14.00">samples = 8</text>
<text text-anchor="middle" x="861" y="-22.8" font-family="Times,serif" font-size="14.00">value = [0.0, 8.325]</text>
<text text-anchor="middle" x="861" y="-7.8" font-family="Times,serif" font-size="14.00">class = Obstructive</text>
</g>
<!-- 9&#45;&gt;11 -->
<g id="edge11" class="edge">
<title>9&#45;&gt;11</title>
<path fill="none" stroke="black" d="M751.82,-118.87C765.84,-109.06 780.56,-98.77 794.49,-89.02"/>
<polygon fill="black" stroke="black" points="796.86,-91.63 803.05,-83.03 792.85,-85.9 796.86,-91.63"/>
</g>
<!-- 13 -->
<g id="node14" class="node">
<title>13</title>
<polygon fill="none" stroke="black" points="1256,-351 1068,-351 1068,-253 1256,-253 1256,-351"/>
<text text-anchor="middle" x="1162" y="-335.8" font-family="Times,serif" font-size="14.00">node #13</text>
<text text-anchor="middle" x="1162" y="-320.8" font-family="Times,serif" font-size="14.00">FEV1PostVal &lt;= 2.485</text>
<text text-anchor="middle" x="1162" y="-305.8" font-family="Times,serif" font-size="14.00">gini = 0.161</text>
<text text-anchor="middle" x="1162" y="-290.8" font-family="Times,serif" font-size="14.00">samples = 71</text>
<text text-anchor="middle" x="1162" y="-275.8" font-family="Times,serif" font-size="14.00">value = [114.265, 11.1]</text>
<text text-anchor="middle" x="1162" y="-260.8" font-family="Times,serif" font-size="14.00">class = Non&#45;obstructive</text>
</g>
<!-- 12&#45;&gt;13 -->
<g id="edge13" class="edge">
<title>12&#45;&gt;13</title>
<path fill="none" stroke="black" d="M1162,-386.97C1162,-378.69 1162,-370 1162,-361.48"/>
<polygon fill="black" stroke="black" points="1165.5,-361.21 1162,-351.21 1158.5,-361.21 1165.5,-361.21"/>
</g>
<!-- 18 -->
<g id="node19" class="node">
<title>18</title>
<polygon fill="none" stroke="black" points="1564,-351 1370,-351 1370,-253 1564,-253 1564,-351"/>
<text text-anchor="middle" x="1467" y="-335.8" font-family="Times,serif" font-size="14.00">node #18</text>
<text text-anchor="middle" x="1467" y="-320.8" font-family="Times,serif" font-size="14.00">FEFPreVal &lt;= 4.295</text>
<text text-anchor="middle" x="1467" y="-305.8" font-family="Times,serif" font-size="14.00">gini = 0.5</text>
<text text-anchor="middle" x="1467" y="-290.8" font-family="Times,serif" font-size="14.00">samples = 49</text>
<text text-anchor="middle" x="1467" y="-275.8" font-family="Times,serif" font-size="14.00">value = [32.647, 34.225]</text>
<text text-anchor="middle" x="1467" y="-260.8" font-family="Times,serif" font-size="14.00">class = Obstructive</text>
</g>
<!-- 12&#45;&gt;18 -->
<g id="edge18" class="edge">
<title>12&#45;&gt;18</title>
<path fill="none" stroke="black" d="M1263.56,-391.05C1294.71,-377.56 1329.06,-362.7 1360.53,-349.08"/>
<polygon fill="black" stroke="black" points="1361.97,-352.27 1369.76,-345.08 1359.19,-345.84 1361.97,-352.27"/>
</g>
<!-- 14 -->
<g id="node15" class="node">
<title>14</title>
<polygon fill="none" stroke="black" points="1161,-217 973,-217 973,-119 1161,-119 1161,-217"/>
<text text-anchor="middle" x="1067" y="-201.8" font-family="Times,serif" font-size="14.00">node #14</text>
<text text-anchor="middle" x="1067" y="-186.8" font-family="Times,serif" font-size="14.00">FVCPostVal &lt;= 2.18</text>
<text text-anchor="middle" x="1067" y="-171.8" font-family="Times,serif" font-size="14.00">gini = 0.139</text>
<text text-anchor="middle" x="1067" y="-156.8" font-family="Times,serif" font-size="14.00">samples = 70</text>
<text text-anchor="middle" x="1067" y="-141.8" font-family="Times,serif" font-size="14.00">value = [114.265, 9.25]</text>
<text text-anchor="middle" x="1067" y="-126.8" font-family="Times,serif" font-size="14.00">class = Non&#45;obstructive</text>
</g>
<!-- 13&#45;&gt;14 -->
<g id="edge14" class="edge">
<title>13&#45;&gt;14</title>
<path fill="none" stroke="black" d="M1127.43,-252.97C1121.02,-244.05 1114.26,-234.66 1107.68,-225.52"/>
<polygon fill="black" stroke="black" points="1110.38,-223.29 1101.7,-217.21 1104.7,-227.37 1110.38,-223.29"/>
</g>
<!-- 17 -->
<g id="node18" class="node">
<title>17</title>
<polygon fill="none" stroke="black" points="1336.5,-209.5 1179.5,-209.5 1179.5,-126.5 1336.5,-126.5 1336.5,-209.5"/>
<text text-anchor="middle" x="1258" y="-194.3" font-family="Times,serif" font-size="14.00">node #17</text>
<text text-anchor="middle" x="1258" y="-179.3" font-family="Times,serif" font-size="14.00">gini = &#45;0.0</text>
<text text-anchor="middle" x="1258" y="-164.3" font-family="Times,serif" font-size="14.00">samples = 1</text>
<text text-anchor="middle" x="1258" y="-149.3" font-family="Times,serif" font-size="14.00">value = [0.0, 1.85]</text>
<text text-anchor="middle" x="1258" y="-134.3" font-family="Times,serif" font-size="14.00">class = Obstructive</text>
</g>
<!-- 13&#45;&gt;17 -->
<g id="edge17" class="edge">
<title>13&#45;&gt;17</title>
<path fill="none" stroke="black" d="M1196.93,-252.97C1205.21,-241.58 1214.06,-229.42 1222.37,-217.99"/>
<polygon fill="black" stroke="black" points="1225.26,-219.96 1228.32,-209.82 1219.6,-215.85 1225.26,-219.96"/>
</g>
<!-- 15 -->
<g id="node16" class="node">
<title>15</title>
<polygon fill="none" stroke="black" points="1146,-83 958,-83 958,0 1146,0 1146,-83"/>
<text text-anchor="middle" x="1052" y="-67.8" font-family="Times,serif" font-size="14.00">node #15</text>
<text text-anchor="middle" x="1052" y="-52.8" font-family="Times,serif" font-size="14.00">gini = 0.065</text>
<text text-anchor="middle" x="1052" y="-37.8" font-family="Times,serif" font-size="14.00">samples = 60</text>
<text text-anchor="middle" x="1052" y="-22.8" font-family="Times,serif" font-size="14.00">value = [105.559, 3.7]</text>
<text text-anchor="middle" x="1052" y="-7.8" font-family="Times,serif" font-size="14.00">class = Non&#45;obstructive</text>
</g>
<!-- 14&#45;&gt;15 -->
<g id="edge15" class="edge">
<title>14&#45;&gt;15</title>
<path fill="none" stroke="black" d="M1061.2,-118.87C1060.19,-110.5 1059.14,-101.77 1058.12,-93.33"/>
<polygon fill="black" stroke="black" points="1061.58,-92.74 1056.91,-83.23 1054.63,-93.58 1061.58,-92.74"/>
</g>
<!-- 16 -->
<g id="node17" class="node">
<title>16</title>
<polygon fill="none" stroke="black" points="1352,-83 1164,-83 1164,0 1352,0 1352,-83"/>
<text text-anchor="middle" x="1258" y="-67.8" font-family="Times,serif" font-size="14.00">node #16</text>
<text text-anchor="middle" x="1258" y="-52.8" font-family="Times,serif" font-size="14.00">gini = 0.475</text>
<text text-anchor="middle" x="1258" y="-37.8" font-family="Times,serif" font-size="14.00">samples = 10</text>
<text text-anchor="middle" x="1258" y="-22.8" font-family="Times,serif" font-size="14.00">value = [8.706, 5.55]</text>
<text text-anchor="middle" x="1258" y="-7.8" font-family="Times,serif" font-size="14.00">class = Non&#45;obstructive</text>
</g>
<!-- 14&#45;&gt;16 -->
<g id="edge16" class="edge">
<title>14&#45;&gt;16</title>
<path fill="none" stroke="black" d="M1140.85,-118.87C1156.03,-108.97 1171.98,-98.57 1187.05,-88.74"/>
<polygon fill="black" stroke="black" points="1189.35,-91.43 1195.82,-83.03 1185.53,-85.56 1189.35,-91.43"/>
</g>
<!-- 19 -->
<g id="node20" class="node">
<title>19</title>
<polygon fill="none" stroke="black" points="1565.5,-217 1368.5,-217 1368.5,-119 1565.5,-119 1565.5,-217"/>
<text text-anchor="middle" x="1467" y="-201.8" font-family="Times,serif" font-size="14.00">node #19</text>
<text text-anchor="middle" x="1467" y="-186.8" font-family="Times,serif" font-size="14.00">FVCPostPercent &lt;= 91.0</text>
<text text-anchor="middle" x="1467" y="-171.8" font-family="Times,serif" font-size="14.00">gini = 0.497</text>
<text text-anchor="middle" x="1467" y="-156.8" font-family="Times,serif" font-size="14.00">samples = 46</text>
<text text-anchor="middle" x="1467" y="-141.8" font-family="Times,serif" font-size="14.00">value = [32.647, 27.75]</text>
<text text-anchor="middle" x="1467" y="-126.8" font-family="Times,serif" font-size="14.00">class = Non&#45;obstructive</text>
</g>
<!-- 18&#45;&gt;19 -->
<g id="edge19" class="edge">
<title>18&#45;&gt;19</title>
<path fill="none" stroke="black" d="M1467,-252.97C1467,-244.69 1467,-236 1467,-227.48"/>
<polygon fill="black" stroke="black" points="1470.5,-227.21 1467,-217.21 1463.5,-227.21 1470.5,-227.21"/>
</g>
<!-- 22 -->
<g id="node23" class="node">
<title>22</title>
<polygon fill="none" stroke="black" points="1742,-209.5 1584,-209.5 1584,-126.5 1742,-126.5 1742,-209.5"/>
<text text-anchor="middle" x="1663" y="-194.3" font-family="Times,serif" font-size="14.00">node #22</text>
<text text-anchor="middle" x="1663" y="-179.3" font-family="Times,serif" font-size="14.00">gini = 0.0</text>
<text text-anchor="middle" x="1663" y="-164.3" font-family="Times,serif" font-size="14.00">samples = 3</text>
<text text-anchor="middle" x="1663" y="-149.3" font-family="Times,serif" font-size="14.00">value = [0.0, 6.475]</text>
<text text-anchor="middle" x="1663" y="-134.3" font-family="Times,serif" font-size="14.00">class = Obstructive</text>
</g>
<!-- 18&#45;&gt;22 -->
<g id="edge22" class="edge">
<title>18&#45;&gt;22</title>
<path fill="none" stroke="black" d="M1538.31,-252.97C1556.47,-240.75 1575.95,-227.63 1593.98,-215.48"/>
<polygon fill="black" stroke="black" points="1596.37,-218.09 1602.71,-209.6 1592.46,-212.29 1596.37,-218.09"/>
</g>
<!-- 20 -->
<g id="node21" class="node">
<title>20</title>
<polygon fill="none" stroke="black" points="1564,-83 1370,-83 1370,0 1564,0 1564,-83"/>
<text text-anchor="middle" x="1467" y="-67.8" font-family="Times,serif" font-size="14.00">node #20</text>
<text text-anchor="middle" x="1467" y="-52.8" font-family="Times,serif" font-size="14.00">gini = 0.449</text>
<text text-anchor="middle" x="1467" y="-37.8" font-family="Times,serif" font-size="14.00">samples = 35</text>
<text text-anchor="middle" x="1467" y="-22.8" font-family="Times,serif" font-size="14.00">value = [30.471, 15.725]</text>
<text text-anchor="middle" x="1467" y="-7.8" font-family="Times,serif" font-size="14.00">class = Non&#45;obstructive</text>
</g>
<!-- 19&#45;&gt;20 -->
<g id="edge20" class="edge">
<title>19&#45;&gt;20</title>
<path fill="none" stroke="black" d="M1467,-118.87C1467,-110.5 1467,-101.77 1467,-93.33"/>
<polygon fill="black" stroke="black" points="1470.5,-93.23 1467,-83.23 1463.5,-93.23 1470.5,-93.23"/>
</g>
<!-- 21 -->
<g id="node22" class="node">
<title>21</title>
<polygon fill="none" stroke="black" points="1766.5,-83 1581.5,-83 1581.5,0 1766.5,0 1766.5,-83"/>
<text text-anchor="middle" x="1674" y="-67.8" font-family="Times,serif" font-size="14.00">node #21</text>
<text text-anchor="middle" x="1674" y="-52.8" font-family="Times,serif" font-size="14.00">gini = 0.26</text>
<text text-anchor="middle" x="1674" y="-37.8" font-family="Times,serif" font-size="14.00">samples = 11</text>
<text text-anchor="middle" x="1674" y="-22.8" font-family="Times,serif" font-size="14.00">value = [2.176, 12.025]</text>
<text text-anchor="middle" x="1674" y="-7.8" font-family="Times,serif" font-size="14.00">class = Obstructive</text>
</g>
<!-- 19&#45;&gt;21 -->
<g id="edge21" class="edge">
<title>19&#45;&gt;21</title>
<path fill="none" stroke="black" d="M1547.03,-118.87C1563.79,-108.78 1581.42,-98.18 1598.03,-88.19"/>
<polygon fill="black" stroke="black" points="1599.84,-91.19 1606.61,-83.03 1596.24,-85.19 1599.84,-91.19"/>
</g>
</g>
</svg>
