<?xml version="1.0" encoding="UTF-8" standalone="no"?>
<!DOCTYPE svg PUBLIC "-//W3C//DTD SVG 1.1//EN"
 "http://www.w3.org/Graphics/SVG/1.1/DTD/svg11.dtd">
<!-- Generated by graphviz version 2.43.0 (0)
 -->
<!-- Title: Tree Pages: 1 -->
<svg width="2442pt" height="627pt"
 viewBox="0.00 0.00 2441.50 627.00" xmlns="http://www.w3.org/2000/svg" xmlns:xlink="http://www.w3.org/1999/xlink">
<g id="graph0" class="graph" transform="scale(1 1) rotate(0) translate(4 623)">
<title>Tree</title>
<polygon fill="white" stroke="transparent" points="-4,4 -4,-623 2437.5,-623 2437.5,4 -4,4"/>
<!-- 0 -->
<g id="node1" class="node">
<title>0</title>
<polygon fill="none" stroke="black" points="1153,-619 977,-619 977,-521 1153,-521 1153,-619"/>
<text text-anchor="middle" x="1065" y="-603.8" font-family="Times,serif" font-size="14.00">node #0</text>
<text text-anchor="middle" x="1065" y="-588.8" font-family="Times,serif" font-size="14.00">FEFPreVal &lt;= 1.085</text>
<text text-anchor="middle" x="1065" y="-573.8" font-family="Times,serif" font-size="14.00">gini = 0.5</text>
<text text-anchor="middle" x="1065" y="-558.8" font-family="Times,serif" font-size="14.00">samples = 216</text>
<text text-anchor="middle" x="1065" y="-543.8" font-family="Times,serif" font-size="14.00">value = [166.5, 166.5]</text>
<text text-anchor="middle" x="1065" y="-528.8" font-family="Times,serif" font-size="14.00">class = Obstructive</text>
</g>
<!-- 1 -->
<g id="node2" class="node">
<title>1</title>
<polygon fill="none" stroke="black" points="951.5,-485 766.5,-485 766.5,-387 951.5,-387 951.5,-485"/>
<text text-anchor="middle" x="859" y="-469.8" font-family="Times,serif" font-size="14.00">node #1</text>
<text text-anchor="middle" x="859" y="-454.8" font-family="Times,serif" font-size="14.00">FEV1PostVal &lt;= 2.47</text>
<text text-anchor="middle" x="859" y="-439.8" font-family="Times,serif" font-size="14.00">gini = 0.141</text>
<text text-anchor="middle" x="859" y="-424.8" font-family="Times,serif" font-size="14.00">samples = 73</text>
<text text-anchor="middle" x="859" y="-409.8" font-family="Times,serif" font-size="14.00">value = [8.172, 98.921]</text>
<text text-anchor="middle" x="859" y="-394.8" font-family="Times,serif" font-size="14.00">class = Obstructive</text>
</g>
<!-- 0&#45;&gt;1 -->
<g id="edge1" class="edge">
<title>0&#45;&gt;1</title>
<path fill="none" stroke="black" d="M990.05,-520.97C974.71,-511.14 958.48,-500.74 942.85,-490.73"/>
<polygon fill="black" stroke="black" points="944.55,-487.66 934.24,-485.21 940.77,-493.56 944.55,-487.66"/>
<text text-anchor="middle" x="939.59" y="-505.94" font-family="Times,serif" font-size="14.00">True</text>
</g>
<!-- 10 -->
<g id="node11" class="node">
<title>10</title>
<polygon fill="none" stroke="black" points="1318.5,-485 1115.5,-485 1115.5,-387 1318.5,-387 1318.5,-485"/>
<text text-anchor="middle" x="1217" y="-469.8" font-family="Times,serif" font-size="14.00">node #10</text>
<text text-anchor="middle" x="1217" y="-454.8" font-family="Times,serif" font-size="14.00">FEV1PostVal &lt;= 1.915</text>
<text text-anchor="middle" x="1217" y="-439.8" font-family="Times,serif" font-size="14.00">gini = 0.419</text>
<text text-anchor="middle" x="1217" y="-424.8" font-family="Times,serif" font-size="14.00">samples = 143</text>
<text text-anchor="middle" x="1217" y="-409.8" font-family="Times,serif" font-size="14.00">value = [158.328, 67.579]</text>
<text text-anchor="middle" x="1217" y="-394.8" font-family="Times,serif" font-size="14.00">class = Non&#45;obstructive</text>
</g>
<!-- 0&#45;&gt;10 -->
<g id="edge10" class="edge">
<title>0&#45;&gt;10</title>
<path fill="none" stroke="black" d="M1120.31,-520.97C1131.2,-511.51 1142.71,-501.51 1153.85,-491.84"/>
<polygon fill="black" stroke="black" points="1156.23,-494.41 1161.48,-485.21 1151.64,-489.13 1156.23,-494.41"/>
<text text-anchor="middle" x="1159.72" y="-506.45" font-family="Times,serif" font-size="14.00">False</text>
</g>
<!-- 2 -->
<g id="node3" class="node">
<title>2</title>
<polygon fill="none" stroke="black" points="697,-351 521,-351 521,-253 697,-253 697,-351"/>
<text text-anchor="middle" x="609" y="-335.8" font-family="Times,serif" font-size="14.00">node #2</text>
<text text-anchor="middle" x="609" y="-320.8" font-family="Times,serif" font-size="14.00">FEFPreVal &lt;= 0.835</text>
<text text-anchor="middle" x="609" y="-305.8" font-family="Times,serif" font-size="14.00">gini = 0.126</text>
<text text-anchor="middle" x="609" y="-290.8" font-family="Times,serif" font-size="14.00">samples = 72</text>
<text text-anchor="middle" x="609" y="-275.8" font-family="Times,serif" font-size="14.00">value = [7.15, 98.921]</text>
<text text-anchor="middle" x="609" y="-260.8" font-family="Times,serif" font-size="14.00">class = Obstructive</text>
</g>
<!-- 1&#45;&gt;2 -->
<g id="edge2" class="edge">
<title>1&#45;&gt;2</title>
<path fill="none" stroke="black" d="M768.04,-386.97C747.97,-376.38 726.64,-365.11 706.33,-354.39"/>
<polygon fill="black" stroke="black" points="707.87,-351.24 697.39,-349.67 704.6,-357.43 707.87,-351.24"/>
</g>
<!-- 9 -->
<g id="node10" class="node">
<title>9</title>
<polygon fill="none" stroke="black" points="953,-343.5 765,-343.5 765,-260.5 953,-260.5 953,-343.5"/>
<text text-anchor="middle" x="859" y="-328.3" font-family="Times,serif" font-size="14.00">node #9</text>
<text text-anchor="middle" x="859" y="-313.3" font-family="Times,serif" font-size="14.00">gini = &#45;0.0</text>
<text text-anchor="middle" x="859" y="-298.3" font-family="Times,serif" font-size="14.00">samples = 1</text>
<text text-anchor="middle" x="859" y="-283.3" font-family="Times,serif" font-size="14.00">value = [1.021, 0.0]</text>
<text text-anchor="middle" x="859" y="-268.3" font-family="Times,serif" font-size="14.00">class = Non&#45;obstructive</text>
</g>
<!-- 1&#45;&gt;9 -->
<g id="edge9" class="edge">
<title>1&#45;&gt;9</title>
<path fill="none" stroke="black" d="M859,-386.97C859,-376.25 859,-364.84 859,-353.99"/>
<polygon fill="black" stroke="black" points="862.5,-353.82 859,-343.82 855.5,-353.82 862.5,-353.82"/>
</g>
<!-- 3 -->
<g id="node4" class="node">
<title>3</title>
<polygon fill="none" stroke="black" points="397.5,-217 200.5,-217 200.5,-119 397.5,-119 397.5,-217"/>
<text text-anchor="middle" x="299" y="-201.8" font-family="Times,serif" font-size="14.00">node #3</text>
<text text-anchor="middle" x="299" y="-186.8" font-family="Times,serif" font-size="14.00">FVCPostPercent &lt;= 35.5</text>
<text text-anchor="middle" x="299" y="-171.8" font-family="Times,serif" font-size="14.00">gini = 0.048</text>
<text text-anchor="middle" x="299" y="-156.8" font-family="Times,serif" font-size="14.00">samples = 56</text>
<text text-anchor="middle" x="299" y="-141.8" font-family="Times,serif" font-size="14.00">value = [2.043, 81.291]</text>
<text text-anchor="middle" x="299" y="-126.8" font-family="Times,serif" font-size="14.00">class = Obstructive</text>
</g>
<!-- 2&#45;&gt;3 -->
<g id="edge3" class="edge">
<title>2&#45;&gt;3</title>
<path fill="none" stroke="black" d="M521,-263.53C485.52,-248.42 444.24,-230.84 406.97,-214.97"/>
<polygon fill="black" stroke="black" points="408.16,-211.68 397.59,-210.98 405.41,-218.12 408.16,-211.68"/>
</g>
<!-- 6 -->
<g id="node7" class="node">
<title>6</title>
<polygon fill="none" stroke="black" points="701.5,-217 516.5,-217 516.5,-119 701.5,-119 701.5,-217"/>
<text text-anchor="middle" x="609" y="-201.8" font-family="Times,serif" font-size="14.00">node #6</text>
<text text-anchor="middle" x="609" y="-186.8" font-family="Times,serif" font-size="14.00">FVCPostVal &lt;= 1.755</text>
<text text-anchor="middle" x="609" y="-171.8" font-family="Times,serif" font-size="14.00">gini = 0.348</text>
<text text-anchor="middle" x="609" y="-156.8" font-family="Times,serif" font-size="14.00">samples = 16</text>
<text text-anchor="middle" x="609" y="-141.8" font-family="Times,serif" font-size="14.00">value = [5.107, 17.629]</text>
<text text-anchor="middle" x="609" y="-126.8" font-family="Times,serif" font-size="14.00">class = Obstructive</text>
</g>
<!-- 2&#45;&gt;6 -->
<g id="edge6" class="edge">
<title>2&#45;&gt;6</title>
<path fill="none" stroke="black" d="M609,-252.97C609,-244.69 609,-236 609,-227.48"/>
<polygon fill="black" stroke="black" points="612.5,-227.21 609,-217.21 605.5,-227.21 612.5,-227.21"/>
</g>
<!-- 4 -->
<g id="node5" class="node">
<title>4</title>
<polygon fill="none" stroke="black" points="188,-83 0,-83 0,0 188,0 188,-83"/>
<text text-anchor="middle" x="94" y="-67.8" font-family="Times,serif" font-size="14.00">node #4</text>
<text text-anchor="middle" x="94" y="-52.8" font-family="Times,serif" font-size="14.00">gini = 0.0</text>
<text text-anchor="middle" x="94" y="-37.8" font-family="Times,serif" font-size="14.00">samples = 1</text>
<text text-anchor="middle" x="94" y="-22.8" font-family="Times,serif" font-size="14.00">value = [1.021, 0.0]</text>
<text text-anchor="middle" x="94" y="-7.8" font-family="Times,serif" font-size="14.00">class = Non&#45;obstructive</text>
</g>
<!-- 3&#45;&gt;4 -->
<g id="edge4" class="edge">
<title>3&#45;&gt;4</title>
<path fill="none" stroke="black" d="M219.74,-118.87C203.3,-108.88 186.01,-98.38 169.69,-88.47"/>
<polygon fill="black" stroke="black" points="171.1,-85.23 160.74,-83.03 167.47,-91.21 171.1,-85.23"/>
</g>
<!-- 5 -->
<g id="node6" class="node">
<title>5</title>
<polygon fill="none" stroke="black" points="391.5,-83 206.5,-83 206.5,0 391.5,0 391.5,-83"/>
<text text-anchor="middle" x="299" y="-67.8" font-family="Times,serif" font-size="14.00">node #5</text>
<text text-anchor="middle" x="299" y="-52.8" font-family="Times,serif" font-size="14.00">gini = 0.025</text>
<text text-anchor="middle" x="299" y="-37.8" font-family="Times,serif" font-size="14.00">samples = 55</text>
<text text-anchor="middle" x="299" y="-22.8" font-family="Times,serif" font-size="14.00">value = [1.021, 81.291]</text>
<text text-anchor="middle" x="299" y="-7.8" font-family="Times,serif" font-size="14.00">class = Obstructive</text>
</g>
<!-- 3&#45;&gt;5 -->
<g id="edge5" class="edge">
<title>3&#45;&gt;5</title>
<path fill="none" stroke="black" d="M299,-118.87C299,-110.5 299,-101.77 299,-93.33"/>
<polygon fill="black" stroke="black" points="302.5,-93.23 299,-83.23 295.5,-93.23 302.5,-93.23"/>
</g>
<!-- 7 -->
<g id="node8" class="node">
<title>7</title>
<polygon fill="none" stroke="black" points="598,-83 410,-83 410,0 598,0 598,-83"/>
<text text-anchor="middle" x="504" y="-67.8" font-family="Times,serif" font-size="14.00">node #7</text>
<text text-anchor="middle" x="504" y="-52.8" font-family="Times,serif" font-size="14.00">gini = 0.0</text>
<text text-anchor="middle" x="504" y="-37.8" font-family="Times,serif" font-size="14.00">samples = 4</text>
<text text-anchor="middle" x="504" y="-22.8" font-family="Times,serif" font-size="14.00">value = [4.086, 0.0]</text>
<text text-anchor="middle" x="504" y="-7.8" font-family="Times,serif" font-size="14.00">class = Non&#45;obstructive</text>
</g>
<!-- 6&#45;&gt;7 -->
<g id="edge7" class="edge">
<title>6&#45;&gt;7</title>
<path fill="none" stroke="black" d="M568.4,-118.87C560.73,-109.76 552.69,-100.23 545,-91.12"/>
<polygon fill="black" stroke="black" points="547.47,-88.62 538.35,-83.23 542.12,-93.13 547.47,-88.62"/>
</g>
<!-- 8 -->
<g id="node9" class="node">
<title>8</title>
<polygon fill="none" stroke="black" points="801.5,-83 616.5,-83 616.5,0 801.5,0 801.5,-83"/>
<text text-anchor="middle" x="709" y="-67.8" font-family="Times,serif" font-size="14.00">node #8</text>
<text text-anchor="middle" x="709" y="-52.8" font-family="Times,serif" font-size="14.00">gini = 0.104</text>
<text text-anchor="middle" x="709" y="-37.8" font-family="Times,serif" font-size="14.00">samples = 12</text>
<text text-anchor="middle" x="709" y="-22.8" font-family="Times,serif" font-size="14.00">value = [1.021, 17.629]</text>
<text text-anchor="middle" x="709" y="-7.8" font-family="Times,serif" font-size="14.00">class = Obstructive</text>
</g>
<!-- 6&#45;&gt;8 -->
<g id="edge8" class="edge">
<title>6&#45;&gt;8</title>
<path fill="none" stroke="black" d="M647.66,-118.87C654.97,-109.76 662.63,-100.23 669.95,-91.12"/>
<polygon fill="black" stroke="black" points="672.75,-93.22 676.28,-83.23 667.29,-88.84 672.75,-93.22"/>
</g>
<!-- 11 -->
<g id="node12" class="node">
<title>11</title>
<polygon fill="none" stroke="black" points="1314,-351 1120,-351 1120,-253 1314,-253 1314,-351"/>
<text text-anchor="middle" x="1217" y="-335.8" font-family="Times,serif" font-size="14.00">node #11</text>
<text text-anchor="middle" x="1217" y="-320.8" font-family="Times,serif" font-size="14.00">FEFPreVal &lt;= 1.52</text>
<text text-anchor="middle" x="1217" y="-305.8" font-family="Times,serif" font-size="14.00">gini = 0.11</text>
<text text-anchor="middle" x="1217" y="-290.8" font-family="Times,serif" font-size="14.00">samples = 72</text>
<text text-anchor="middle" x="1217" y="-275.8" font-family="Times,serif" font-size="14.00">value = [110.319, 6.856]</text>
<text text-anchor="middle" x="1217" y="-260.8" font-family="Times,serif" font-size="14.00">class = Non&#45;obstructive</text>
</g>
<!-- 10&#45;&gt;11 -->
<g id="edge11" class="edge">
<title>10&#45;&gt;11</title>
<path fill="none" stroke="black" d="M1217,-386.97C1217,-378.69 1217,-370 1217,-361.48"/>
<polygon fill="black" stroke="black" points="1220.5,-361.21 1217,-351.21 1213.5,-361.21 1220.5,-361.21"/>
</g>
<!-- 18 -->
<g id="node19" class="node">
<title>18</title>
<polygon fill="none" stroke="black" points="1923,-351 1729,-351 1729,-253 1923,-253 1923,-351"/>
<text text-anchor="middle" x="1826" y="-335.8" font-family="Times,serif" font-size="14.00">node #18</text>
<text text-anchor="middle" x="1826" y="-320.8" font-family="Times,serif" font-size="14.00">FVCPostVal &lt;= 2.95</text>
<text text-anchor="middle" x="1826" y="-305.8" font-family="Times,serif" font-size="14.00">gini = 0.493</text>
<text text-anchor="middle" x="1826" y="-290.8" font-family="Times,serif" font-size="14.00">samples = 71</text>
<text text-anchor="middle" x="1826" y="-275.8" font-family="Times,serif" font-size="14.00">value = [48.009, 60.724]</text>
<text text-anchor="middle" x="1826" y="-260.8" font-family="Times,serif" font-size="14.00">class = Obstructive</text>
</g>
<!-- 10&#45;&gt;18 -->
<g id="edge18" class="edge">
<title>10&#45;&gt;18</title>
<path fill="none" stroke="black" d="M1318.59,-412.98C1429.3,-388.99 1605.67,-350.76 1718.61,-326.28"/>
<polygon fill="black" stroke="black" points="1719.63,-329.64 1728.66,-324.1 1718.14,-322.8 1719.63,-329.64"/>
</g>
<!-- 12 -->
<g id="node13" class="node">
<title>12</title>
<polygon fill="none" stroke="black" points="1198.5,-217 1007.5,-217 1007.5,-119 1198.5,-119 1198.5,-217"/>
<text text-anchor="middle" x="1103" y="-201.8" font-family="Times,serif" font-size="14.00">node #12</text>
<text text-anchor="middle" x="1103" y="-186.8" font-family="Times,serif" font-size="14.00">FEFPrePercent &lt;= 52.0</text>
<text text-anchor="middle" x="1103" y="-171.8" font-family="Times,serif" font-size="14.00">gini = 0.329</text>
<text text-anchor="middle" x="1103" y="-156.8" font-family="Times,serif" font-size="14.00">samples = 19</text>
<text text-anchor="middle" x="1103" y="-141.8" font-family="Times,serif" font-size="14.00">value = [22.472, 5.876]</text>
<text text-anchor="middle" x="1103" y="-126.8" font-family="Times,serif" font-size="14.00">class = Non&#45;obstructive</text>
</g>
<!-- 11&#45;&gt;12 -->
<g id="edge12" class="edge">
<title>11&#45;&gt;12</title>
<path fill="none" stroke="black" d="M1175.52,-252.97C1167.66,-243.87 1159.38,-234.28 1151.33,-224.96"/>
<polygon fill="black" stroke="black" points="1153.82,-222.49 1144.64,-217.21 1148.53,-227.07 1153.82,-222.49"/>
</g>
<!-- 15 -->
<g id="node16" class="node">
<title>15</title>
<polygon fill="none" stroke="black" points="1417,-217 1217,-217 1217,-119 1417,-119 1417,-217"/>
<text text-anchor="middle" x="1317" y="-201.8" font-family="Times,serif" font-size="14.00">node #15</text>
<text text-anchor="middle" x="1317" y="-186.8" font-family="Times,serif" font-size="14.00">FEV1PrePercent &lt;= 90.0</text>
<text text-anchor="middle" x="1317" y="-171.8" font-family="Times,serif" font-size="14.00">gini = 0.022</text>
<text text-anchor="middle" x="1317" y="-156.8" font-family="Times,serif" font-size="14.00">samples = 53</text>
<text text-anchor="middle" x="1317" y="-141.8" font-family="Times,serif" font-size="14.00">value = [87.847, 0.979]</text>
<text text-anchor="middle" x="1317" y="-126.8" font-family="Times,serif" font-size="14.00">class = Non&#45;obstructive</text>
</g>
<!-- 11&#45;&gt;15 -->
<g id="edge15" class="edge">
<title>11&#45;&gt;15</title>
<path fill="none" stroke="black" d="M1253.39,-252.97C1260.21,-243.96 1267.4,-234.47 1274.39,-225.24"/>
<polygon fill="black" stroke="black" points="1277.23,-227.3 1280.47,-217.21 1271.65,-223.07 1277.23,-227.3"/>
</g>
<!-- 13 -->
<g id="node14" class="node">
<title>13</title>
<polygon fill="none" stroke="black" points="995,-83 819,-83 819,0 995,0 995,-83"/>
<text text-anchor="middle" x="907" y="-67.8" font-family="Times,serif" font-size="14.00">node #13</text>
<text text-anchor="middle" x="907" y="-52.8" font-family="Times,serif" font-size="14.00">gini = 0.498</text>
<text text-anchor="middle" x="907" y="-37.8" font-family="Times,serif" font-size="14.00">samples = 9</text>
<text text-anchor="middle" x="907" y="-22.8" font-family="Times,serif" font-size="14.00">value = [5.107, 5.876]</text>
<text text-anchor="middle" x="907" y="-7.8" font-family="Times,serif" font-size="14.00">class = Obstructive</text>
</g>
<!-- 12&#45;&gt;13 -->
<g id="edge13" class="edge">
<title>12&#45;&gt;13</title>
<path fill="none" stroke="black" d="M1027.22,-118.87C1011.5,-108.88 994.97,-98.38 979.37,-88.47"/>
<polygon fill="black" stroke="black" points="981.13,-85.44 970.81,-83.03 977.37,-91.35 981.13,-85.44"/>
</g>
<!-- 14 -->
<g id="node15" class="node">
<title>14</title>
<polygon fill="none" stroke="black" points="1201,-83 1013,-83 1013,0 1201,0 1201,-83"/>
<text text-anchor="middle" x="1107" y="-67.8" font-family="Times,serif" font-size="14.00">node #14</text>
<text text-anchor="middle" x="1107" y="-52.8" font-family="Times,serif" font-size="14.00">gini = 0.0</text>
<text text-anchor="middle" x="1107" y="-37.8" font-family="Times,serif" font-size="14.00">samples = 10</text>
<text text-anchor="middle" x="1107" y="-22.8" font-family="Times,serif" font-size="14.00">value = [17.365, 0.0]</text>
<text text-anchor="middle" x="1107" y="-7.8" font-family="Times,serif" font-size="14.00">class = Non&#45;obstructive</text>
</g>
<!-- 12&#45;&gt;14 -->
<g id="edge14" class="edge">
<title>12&#45;&gt;14</title>
<path fill="none" stroke="black" d="M1104.55,-118.87C1104.82,-110.5 1105.1,-101.77 1105.37,-93.33"/>
<polygon fill="black" stroke="black" points="1108.87,-93.34 1105.69,-83.23 1101.87,-93.11 1108.87,-93.34"/>
</g>
<!-- 16 -->
<g id="node17" class="node">
<title>16</title>
<polygon fill="none" stroke="black" points="1407,-83 1219,-83 1219,0 1407,0 1407,-83"/>
<text text-anchor="middle" x="1313" y="-67.8" font-family="Times,serif" font-size="14.00">node #16</text>
<text text-anchor="middle" x="1313" y="-52.8" font-family="Times,serif" font-size="14.00">gini = &#45;0.0</text>
<text text-anchor="middle" x="1313" y="-37.8" font-family="Times,serif" font-size="14.00">samples = 51</text>
<text text-anchor="middle" x="1313" y="-22.8" font-family="Times,serif" font-size="14.00">value = [85.804, 0.0]</text>
<text text-anchor="middle" x="1313" y="-7.8" font-family="Times,serif" font-size="14.00">class = Non&#45;obstructive</text>
</g>
<!-- 15&#45;&gt;16 -->
<g id="edge16" class="edge">
<title>15&#45;&gt;16</title>
<path fill="none" stroke="black" d="M1315.45,-118.87C1315.18,-110.5 1314.9,-101.77 1314.63,-93.33"/>
<polygon fill="black" stroke="black" points="1318.13,-93.11 1314.31,-83.23 1311.13,-93.34 1318.13,-93.11"/>
</g>
<!-- 17 -->
<g id="node18" class="node">
<title>17</title>
<polygon fill="none" stroke="black" points="1613,-83 1425,-83 1425,0 1613,0 1613,-83"/>
<text text-anchor="middle" x="1519" y="-67.8" font-family="Times,serif" font-size="14.00">node #17</text>
<text text-anchor="middle" x="1519" y="-52.8" font-family="Times,serif" font-size="14.00">gini = 0.438</text>
<text text-anchor="middle" x="1519" y="-37.8" font-family="Times,serif" font-size="14.00">samples = 2</text>
<text text-anchor="middle" x="1519" y="-22.8" font-family="Times,serif" font-size="14.00">value = [2.043, 0.979]</text>
<text text-anchor="middle" x="1519" y="-7.8" font-family="Times,serif" font-size="14.00">class = Non&#45;obstructive</text>
</g>
<!-- 15&#45;&gt;17 -->
<g id="edge17" class="edge">
<title>15&#45;&gt;17</title>
<path fill="none" stroke="black" d="M1395.1,-118.87C1411.3,-108.88 1428.34,-98.38 1444.42,-88.47"/>
<polygon fill="black" stroke="black" points="1446.56,-91.26 1453.24,-83.03 1442.89,-85.3 1446.56,-91.26"/>
</g>
<!-- 19 -->
<g id="node20" class="node">
<title>19</title>
<polygon fill="none" stroke="black" points="1924.5,-217 1727.5,-217 1727.5,-119 1924.5,-119 1924.5,-217"/>
<text text-anchor="middle" x="1826" y="-201.8" font-family="Times,serif" font-size="14.00">node #19</text>
<text text-anchor="middle" x="1826" y="-186.8" font-family="Times,serif" font-size="14.00">FVCPostPercent &lt;= 90.0</text>
<text text-anchor="middle" x="1826" y="-171.8" font-family="Times,serif" font-size="14.00">gini = 0.492</text>
<text text-anchor="middle" x="1826" y="-156.8" font-family="Times,serif" font-size="14.00">samples = 35</text>
<text text-anchor="middle" x="1826" y="-141.8" font-family="Times,serif" font-size="14.00">value = [31.666, 24.485]</text>
<text text-anchor="middle" x="1826" y="-126.8" font-family="Times,serif" font-size="14.00">class = Non&#45;obstructive</text>
</g>
<!-- 18&#45;&gt;19 -->
<g id="edge19" class="edge">
<title>18&#45;&gt;19</title>
<path fill="none" stroke="black" d="M1826,-252.97C1826,-244.69 1826,-236 1826,-227.48"/>
<polygon fill="black" stroke="black" points="1829.5,-227.21 1826,-217.21 1822.5,-227.21 1829.5,-227.21"/>
</g>
<!-- 22 -->
<g id="node23" class="node">
<title>22</title>
<polygon fill="none" stroke="black" points="2235,-217 2041,-217 2041,-119 2235,-119 2235,-217"/>
<text text-anchor="middle" x="2138" y="-201.8" font-family="Times,serif" font-size="14.00">node #22</text>
<text text-anchor="middle" x="2138" y="-186.8" font-family="Times,serif" font-size="14.00">FEFPrePercent &lt;= 59.0</text>
<text text-anchor="middle" x="2138" y="-171.8" font-family="Times,serif" font-size="14.00">gini = 0.428</text>
<text text-anchor="middle" x="2138" y="-156.8" font-family="Times,serif" font-size="14.00">samples = 36</text>
<text text-anchor="middle" x="2138" y="-141.8" font-family="Times,serif" font-size="14.00">value = [16.344, 36.238]</text>
<text text-anchor="middle" x="2138" y="-126.8" font-family="Times,serif" font-size="14.00">class = Obstructive</text>
</g>
<!-- 18&#45;&gt;22 -->
<g id="edge22" class="edge">
<title>18&#45;&gt;22</title>
<path fill="none" stroke="black" d="M1923.01,-259.96C1957.41,-245.4 1996.3,-228.95 2031.45,-214.08"/>
<polygon fill="black" stroke="black" points="2032.94,-217.25 2040.78,-210.13 2030.21,-210.8 2032.94,-217.25"/>
</g>
<!-- 20 -->
<g id="node21" class="node">
<title>20</title>
<polygon fill="none" stroke="black" points="1825,-83 1631,-83 1631,0 1825,0 1825,-83"/>
<text text-anchor="middle" x="1728" y="-67.8" font-family="Times,serif" font-size="14.00">node #20</text>
<text text-anchor="middle" x="1728" y="-52.8" font-family="Times,serif" font-size="14.00">gini = 0.407</text>
<text text-anchor="middle" x="1728" y="-37.8" font-family="Times,serif" font-size="14.00">samples = 28</text>
<text text-anchor="middle" x="1728" y="-22.8" font-family="Times,serif" font-size="14.00">value = [29.623, 11.753]</text>
<text text-anchor="middle" x="1728" y="-7.8" font-family="Times,serif" font-size="14.00">class = Non&#45;obstructive</text>
</g>
<!-- 19&#45;&gt;20 -->
<g id="edge20" class="edge">
<title>19&#45;&gt;20</title>
<path fill="none" stroke="black" d="M1788.11,-118.87C1780.95,-109.76 1773.45,-100.23 1766.27,-91.12"/>
<polygon fill="black" stroke="black" points="1769,-88.92 1760.06,-83.23 1763.5,-93.25 1769,-88.92"/>
</g>
<!-- 21 -->
<g id="node22" class="node">
<title>21</title>
<polygon fill="none" stroke="black" points="2027.5,-83 1842.5,-83 1842.5,0 2027.5,0 2027.5,-83"/>
<text text-anchor="middle" x="1935" y="-67.8" font-family="Times,serif" font-size="14.00">node #21</text>
<text text-anchor="middle" x="1935" y="-52.8" font-family="Times,serif" font-size="14.00">gini = 0.238</text>
<text text-anchor="middle" x="1935" y="-37.8" font-family="Times,serif" font-size="14.00">samples = 7</text>
<text text-anchor="middle" x="1935" y="-22.8" font-family="Times,serif" font-size="14.00">value = [2.043, 12.732]</text>
<text text-anchor="middle" x="1935" y="-7.8" font-family="Times,serif" font-size="14.00">class = Obstructive</text>
</g>
<!-- 19&#45;&gt;21 -->
<g id="edge21" class="edge">
<title>19&#45;&gt;21</title>
<path fill="none" stroke="black" d="M1868.14,-118.87C1876.19,-109.67 1884.62,-100.04 1892.68,-90.84"/>
<polygon fill="black" stroke="black" points="1895.39,-93.06 1899.34,-83.23 1890.12,-88.45 1895.39,-93.06"/>
</g>
<!-- 23 -->
<g id="node24" class="node">
<title>23</title>
<polygon fill="none" stroke="black" points="2230.5,-83 2045.5,-83 2045.5,0 2230.5,0 2230.5,-83"/>
<text text-anchor="middle" x="2138" y="-67.8" font-family="Times,serif" font-size="14.00">node #23</text>
<text text-anchor="middle" x="2138" y="-52.8" font-family="Times,serif" font-size="14.00">gini = 0.094</text>
<text text-anchor="middle" x="2138" y="-37.8" font-family="Times,serif" font-size="14.00">samples = 12</text>
<text text-anchor="middle" x="2138" y="-22.8" font-family="Times,serif" font-size="14.00">value = [1.021, 19.588]</text>
<text text-anchor="middle" x="2138" y="-7.8" font-family="Times,serif" font-size="14.00">class = Obstructive</text>
</g>
<!-- 22&#45;&gt;23 -->
<g id="edge23" class="edge">
<title>22&#45;&gt;23</title>
<path fill="none" stroke="black" d="M2138,-118.87C2138,-110.5 2138,-101.77 2138,-93.33"/>
<polygon fill="black" stroke="black" points="2141.5,-93.23 2138,-83.23 2134.5,-93.23 2141.5,-93.23"/>
</g>
<!-- 24 -->
<g id="node25" class="node">
<title>24</title>
<polygon fill="none" stroke="black" points="2433.5,-83 2248.5,-83 2248.5,0 2433.5,0 2433.5,-83"/>
<text text-anchor="middle" x="2341" y="-67.8" font-family="Times,serif" font-size="14.00">node #24</text>
<text text-anchor="middle" x="2341" y="-52.8" font-family="Times,serif" font-size="14.00">gini = 0.499</text>
<text text-anchor="middle" x="2341" y="-37.8" font-family="Times,serif" font-size="14.00">samples = 24</text>
<text text-anchor="middle" x="2341" y="-22.8" font-family="Times,serif" font-size="14.00">value = [15.322, 16.65]</text>
<text text-anchor="middle" x="2341" y="-7.8" font-family="Times,serif" font-size="14.00">class = Obstructive</text>
</g>
<!-- 22&#45;&gt;24 -->
<g id="edge24" class="edge">
<title>22&#45;&gt;24</title>
<path fill="none" stroke="black" d="M2216.49,-118.87C2232.77,-108.88 2249.89,-98.38 2266.05,-88.47"/>
<polygon fill="black" stroke="black" points="2268.22,-91.24 2274.91,-83.03 2264.56,-85.28 2268.22,-91.24"/>
</g>
</g>
</svg>
