<?xml version="1.0" encoding="UTF-8" standalone="no"?>
<!DOCTYPE svg PUBLIC "-//W3C//DTD SVG 1.1//EN"
 "http://www.w3.org/Graphics/SVG/1.1/DTD/svg11.dtd">
<!-- Generated by graphviz version 2.43.0 (0)
 -->
<!-- Title: Tree Pages: 1 -->
<svg width="2404pt" height="627pt"
 viewBox="0.00 0.00 2404.00 627.00" xmlns="http://www.w3.org/2000/svg" xmlns:xlink="http://www.w3.org/1999/xlink">
<g id="graph0" class="graph" transform="scale(1 1) rotate(0) translate(4 623)">
<title>Tree</title>
<polygon fill="white" stroke="transparent" points="-4,4 -4,-623 2400,-623 2400,4 -4,4"/>
<!-- 0 -->
<g id="node1" class="node">
<title>0</title>
<polygon fill="none" stroke="black" points="1181.5,-619 972.5,-619 972.5,-521 1181.5,-521 1181.5,-619"/>
<text text-anchor="middle" x="1077" y="-603.8" font-family="Times,serif" font-size="14.00">node #0</text>
<text text-anchor="middle" x="1077" y="-588.8" font-family="Times,serif" font-size="14.00">FEFPrePercent &lt;= 35.275</text>
<text text-anchor="middle" x="1077" y="-573.8" font-family="Times,serif" font-size="14.00">gini = 0.5</text>
<text text-anchor="middle" x="1077" y="-558.8" font-family="Times,serif" font-size="14.00">samples = 211</text>
<text text-anchor="middle" x="1077" y="-543.8" font-family="Times,serif" font-size="14.00">value = [167.0, 167.0]</text>
<text text-anchor="middle" x="1077" y="-528.8" font-family="Times,serif" font-size="14.00">class = Non&#45;obstructive</text>
</g>
<!-- 1 -->
<g id="node2" class="node">
<title>1</title>
<polygon fill="none" stroke="black" points="865,-485 671,-485 671,-387 865,-387 865,-485"/>
<text text-anchor="middle" x="768" y="-469.8" font-family="Times,serif" font-size="14.00">node #1</text>
<text text-anchor="middle" x="768" y="-454.8" font-family="Times,serif" font-size="14.00">FEFPrePercent &lt;= 27.5</text>
<text text-anchor="middle" x="768" y="-439.8" font-family="Times,serif" font-size="14.00">gini = 0.225</text>
<text text-anchor="middle" x="768" y="-424.8" font-family="Times,serif" font-size="14.00">samples = 69</text>
<text text-anchor="middle" x="768" y="-409.8" font-family="Times,serif" font-size="14.00">value = [14.256, 96.271]</text>
<text text-anchor="middle" x="768" y="-394.8" font-family="Times,serif" font-size="14.00">class = Obstructive</text>
</g>
<!-- 0&#45;&gt;1 -->
<g id="edge1" class="edge">
<title>0&#45;&gt;1</title>
<path fill="none" stroke="black" d="M972.39,-524.31C940.83,-510.83 906.17,-496.03 874.5,-482.49"/>
<polygon fill="black" stroke="black" points="875.78,-479.24 865.21,-478.53 873.03,-485.67 875.78,-479.24"/>
<text text-anchor="middle" x="874.52" y="-498.03" font-family="Times,serif" font-size="14.00">True</text>
</g>
<!-- 14 -->
<g id="node15" class="node">
<title>14</title>
<polygon fill="none" stroke="black" points="1572.5,-485 1369.5,-485 1369.5,-387 1572.5,-387 1572.5,-485"/>
<text text-anchor="middle" x="1471" y="-469.8" font-family="Times,serif" font-size="14.00">node #14</text>
<text text-anchor="middle" x="1471" y="-454.8" font-family="Times,serif" font-size="14.00">FVCPrePercent &lt;= 69.5</text>
<text text-anchor="middle" x="1471" y="-439.8" font-family="Times,serif" font-size="14.00">gini = 0.433</text>
<text text-anchor="middle" x="1471" y="-424.8" font-family="Times,serif" font-size="14.00">samples = 142</text>
<text text-anchor="middle" x="1471" y="-409.8" font-family="Times,serif" font-size="14.00">value = [152.744, 70.729]</text>
<text text-anchor="middle" x="1471" y="-394.8" font-family="Times,serif" font-size="14.00">class = Non&#45;obstructive</text>
</g>
<!-- 0&#45;&gt;14 -->
<g id="edge14" class="edge">
<title>0&#45;&gt;14</title>
<path fill="none" stroke="black" d="M1181.55,-533.97C1236.51,-515.56 1303.87,-492.99 1359.79,-474.26"/>
<polygon fill="black" stroke="black" points="1361,-477.54 1369.37,-471.05 1358.78,-470.91 1361,-477.54"/>
<text text-anchor="middle" x="1358.22" y="-489.73" font-family="Times,serif" font-size="14.00">False</text>
</g>
<!-- 2 -->
<g id="node3" class="node">
<title>2</title>
<polygon fill="none" stroke="black" points="397.5,-351 200.5,-351 200.5,-253 397.5,-253 397.5,-351"/>
<text text-anchor="middle" x="299" y="-335.8" font-family="Times,serif" font-size="14.00">node #2</text>
<text text-anchor="middle" x="299" y="-320.8" font-family="Times,serif" font-size="14.00">FVCPostPercent &lt;= 34.0</text>
<text text-anchor="middle" x="299" y="-305.8" font-family="Times,serif" font-size="14.00">gini = 0.127</text>
<text text-anchor="middle" x="299" y="-290.8" font-family="Times,serif" font-size="14.00">samples = 48</text>
<text text-anchor="middle" x="299" y="-275.8" font-family="Times,serif" font-size="14.00">value = [5.091, 69.747]</text>
<text text-anchor="middle" x="299" y="-260.8" font-family="Times,serif" font-size="14.00">class = Obstructive</text>
</g>
<!-- 1&#45;&gt;2 -->
<g id="edge2" class="edge">
<title>1&#45;&gt;2</title>
<path fill="none" stroke="black" d="M670.82,-407.65C594.15,-386.07 487.23,-355.98 407.71,-333.6"/>
<polygon fill="black" stroke="black" points="408.24,-330.11 397.67,-330.77 406.34,-336.85 408.24,-330.11"/>
</g>
<!-- 7 -->
<g id="node8" class="node">
<title>7</title>
<polygon fill="none" stroke="black" points="860.5,-351 675.5,-351 675.5,-253 860.5,-253 860.5,-351"/>
<text text-anchor="middle" x="768" y="-335.8" font-family="Times,serif" font-size="14.00">node #7</text>
<text text-anchor="middle" x="768" y="-320.8" font-family="Times,serif" font-size="14.00">FEV1PostVal &lt;= 1.57</text>
<text text-anchor="middle" x="768" y="-305.8" font-family="Times,serif" font-size="14.00">gini = 0.382</text>
<text text-anchor="middle" x="768" y="-290.8" font-family="Times,serif" font-size="14.00">samples = 21</text>
<text text-anchor="middle" x="768" y="-275.8" font-family="Times,serif" font-size="14.00">value = [9.165, 26.524]</text>
<text text-anchor="middle" x="768" y="-260.8" font-family="Times,serif" font-size="14.00">class = Obstructive</text>
</g>
<!-- 1&#45;&gt;7 -->
<g id="edge7" class="edge">
<title>1&#45;&gt;7</title>
<path fill="none" stroke="black" d="M768,-386.97C768,-378.69 768,-370 768,-361.48"/>
<polygon fill="black" stroke="black" points="771.5,-361.21 768,-351.21 764.5,-361.21 771.5,-361.21"/>
</g>
<!-- 3 -->
<g id="node4" class="node">
<title>3</title>
<polygon fill="none" stroke="black" points="188,-209.5 0,-209.5 0,-126.5 188,-126.5 188,-209.5"/>
<text text-anchor="middle" x="94" y="-194.3" font-family="Times,serif" font-size="14.00">node #3</text>
<text text-anchor="middle" x="94" y="-179.3" font-family="Times,serif" font-size="14.00">gini = 0.0</text>
<text text-anchor="middle" x="94" y="-164.3" font-family="Times,serif" font-size="14.00">samples = 1</text>
<text text-anchor="middle" x="94" y="-149.3" font-family="Times,serif" font-size="14.00">value = [1.018, 0.0]</text>
<text text-anchor="middle" x="94" y="-134.3" font-family="Times,serif" font-size="14.00">class = Non&#45;obstructive</text>
</g>
<!-- 2&#45;&gt;3 -->
<g id="edge3" class="edge">
<title>2&#45;&gt;3</title>
<path fill="none" stroke="black" d="M224.41,-252.97C205.25,-240.63 184.68,-227.39 165.67,-215.15"/>
<polygon fill="black" stroke="black" points="167.36,-212.07 157.06,-209.6 163.57,-217.96 167.36,-212.07"/>
</g>
<!-- 4 -->
<g id="node5" class="node">
<title>4</title>
<polygon fill="none" stroke="black" points="391.5,-217 206.5,-217 206.5,-119 391.5,-119 391.5,-217"/>
<text text-anchor="middle" x="299" y="-201.8" font-family="Times,serif" font-size="14.00">node #4</text>
<text text-anchor="middle" x="299" y="-186.8" font-family="Times,serif" font-size="14.00">FVCPreVal &lt;= 1.645</text>
<text text-anchor="middle" x="299" y="-171.8" font-family="Times,serif" font-size="14.00">gini = 0.104</text>
<text text-anchor="middle" x="299" y="-156.8" font-family="Times,serif" font-size="14.00">samples = 47</text>
<text text-anchor="middle" x="299" y="-141.8" font-family="Times,serif" font-size="14.00">value = [4.073, 69.747]</text>
<text text-anchor="middle" x="299" y="-126.8" font-family="Times,serif" font-size="14.00">class = Obstructive</text>
</g>
<!-- 2&#45;&gt;4 -->
<g id="edge4" class="edge">
<title>2&#45;&gt;4</title>
<path fill="none" stroke="black" d="M299,-252.97C299,-244.69 299,-236 299,-227.48"/>
<polygon fill="black" stroke="black" points="302.5,-227.21 299,-217.21 295.5,-227.21 302.5,-227.21"/>
</g>
<!-- 5 -->
<g id="node6" class="node">
<title>5</title>
<polygon fill="none" stroke="black" points="197.5,-83 12.5,-83 12.5,0 197.5,0 197.5,-83"/>
<text text-anchor="middle" x="105" y="-67.8" font-family="Times,serif" font-size="14.00">node #5</text>
<text text-anchor="middle" x="105" y="-52.8" font-family="Times,serif" font-size="14.00">gini = 0.275</text>
<text text-anchor="middle" x="105" y="-37.8" font-family="Times,serif" font-size="14.00">samples = 16</text>
<text text-anchor="middle" x="105" y="-22.8" font-family="Times,serif" font-size="14.00">value = [4.073, 20.629]</text>
<text text-anchor="middle" x="105" y="-7.8" font-family="Times,serif" font-size="14.00">class = Obstructive</text>
</g>
<!-- 4&#45;&gt;5 -->
<g id="edge5" class="edge">
<title>4&#45;&gt;5</title>
<path fill="none" stroke="black" d="M223.99,-118.87C208.43,-108.88 192.07,-98.38 176.63,-88.47"/>
<polygon fill="black" stroke="black" points="178.47,-85.49 168.16,-83.03 174.68,-91.38 178.47,-85.49"/>
</g>
<!-- 6 -->
<g id="node7" class="node">
<title>6</title>
<polygon fill="none" stroke="black" points="382.5,-83 215.5,-83 215.5,0 382.5,0 382.5,-83"/>
<text text-anchor="middle" x="299" y="-67.8" font-family="Times,serif" font-size="14.00">node #6</text>
<text text-anchor="middle" x="299" y="-52.8" font-family="Times,serif" font-size="14.00">gini = 0.0</text>
<text text-anchor="middle" x="299" y="-37.8" font-family="Times,serif" font-size="14.00">samples = 31</text>
<text text-anchor="middle" x="299" y="-22.8" font-family="Times,serif" font-size="14.00">value = [0.0, 49.118]</text>
<text text-anchor="middle" x="299" y="-7.8" font-family="Times,serif" font-size="14.00">class = Obstructive</text>
</g>
<!-- 4&#45;&gt;6 -->
<g id="edge6" class="edge">
<title>4&#45;&gt;6</title>
<path fill="none" stroke="black" d="M299,-118.87C299,-110.5 299,-101.77 299,-93.33"/>
<polygon fill="black" stroke="black" points="302.5,-93.23 299,-83.23 295.5,-93.23 302.5,-93.23"/>
</g>
<!-- 8 -->
<g id="node9" class="node">
<title>8</title>
<polygon fill="none" stroke="black" points="760,-217 572,-217 572,-119 760,-119 760,-217"/>
<text text-anchor="middle" x="666" y="-201.8" font-family="Times,serif" font-size="14.00">node #8</text>
<text text-anchor="middle" x="666" y="-186.8" font-family="Times,serif" font-size="14.00">FEFPostVal &lt;= 0.755</text>
<text text-anchor="middle" x="666" y="-171.8" font-family="Times,serif" font-size="14.00">gini = 0.439</text>
<text text-anchor="middle" x="666" y="-156.8" font-family="Times,serif" font-size="14.00">samples = 7</text>
<text text-anchor="middle" x="666" y="-141.8" font-family="Times,serif" font-size="14.00">value = [8.146, 3.929]</text>
<text text-anchor="middle" x="666" y="-126.8" font-family="Times,serif" font-size="14.00">class = Non&#45;obstructive</text>
</g>
<!-- 7&#45;&gt;8 -->
<g id="edge8" class="edge">
<title>7&#45;&gt;8</title>
<path fill="none" stroke="black" d="M730.89,-252.97C723.93,-243.96 716.59,-234.47 709.46,-225.24"/>
<polygon fill="black" stroke="black" points="712.14,-222.99 703.26,-217.21 706.6,-227.27 712.14,-222.99"/>
</g>
<!-- 11 -->
<g id="node12" class="node">
<title>11</title>
<polygon fill="none" stroke="black" points="963.5,-217 778.5,-217 778.5,-119 963.5,-119 963.5,-217"/>
<text text-anchor="middle" x="871" y="-201.8" font-family="Times,serif" font-size="14.00">node #11</text>
<text text-anchor="middle" x="871" y="-186.8" font-family="Times,serif" font-size="14.00">FEV1PostVal &lt;= 2.275</text>
<text text-anchor="middle" x="871" y="-171.8" font-family="Times,serif" font-size="14.00">gini = 0.083</text>
<text text-anchor="middle" x="871" y="-156.8" font-family="Times,serif" font-size="14.00">samples = 14</text>
<text text-anchor="middle" x="871" y="-141.8" font-family="Times,serif" font-size="14.00">value = [1.018, 22.594]</text>
<text text-anchor="middle" x="871" y="-126.8" font-family="Times,serif" font-size="14.00">class = Obstructive</text>
</g>
<!-- 7&#45;&gt;11 -->
<g id="edge11" class="edge">
<title>7&#45;&gt;11</title>
<path fill="none" stroke="black" d="M805.48,-252.97C812.51,-243.96 819.91,-234.47 827.12,-225.24"/>
<polygon fill="black" stroke="black" points="829.99,-227.25 833.38,-217.21 824.47,-222.94 829.99,-227.25"/>
</g>
<!-- 9 -->
<g id="node10" class="node">
<title>9</title>
<polygon fill="none" stroke="black" points="558,-83 400,-83 400,0 558,0 558,-83"/>
<text text-anchor="middle" x="479" y="-67.8" font-family="Times,serif" font-size="14.00">node #9</text>
<text text-anchor="middle" x="479" y="-52.8" font-family="Times,serif" font-size="14.00">gini = 0.0</text>
<text text-anchor="middle" x="479" y="-37.8" font-family="Times,serif" font-size="14.00">samples = 1</text>
<text text-anchor="middle" x="479" y="-22.8" font-family="Times,serif" font-size="14.00">value = [0.0, 2.947]</text>
<text text-anchor="middle" x="479" y="-7.8" font-family="Times,serif" font-size="14.00">class = Obstructive</text>
</g>
<!-- 8&#45;&gt;9 -->
<g id="edge9" class="edge">
<title>8&#45;&gt;9</title>
<path fill="none" stroke="black" d="M593.7,-118.87C578.84,-108.97 563.22,-98.57 548.46,-88.74"/>
<polygon fill="black" stroke="black" points="550.14,-85.66 539.88,-83.03 546.26,-91.49 550.14,-85.66"/>
</g>
<!-- 10 -->
<g id="node11" class="node">
<title>10</title>
<polygon fill="none" stroke="black" points="764,-83 576,-83 576,0 764,0 764,-83"/>
<text text-anchor="middle" x="670" y="-67.8" font-family="Times,serif" font-size="14.00">node #10</text>
<text text-anchor="middle" x="670" y="-52.8" font-family="Times,serif" font-size="14.00">gini = 0.192</text>
<text text-anchor="middle" x="670" y="-37.8" font-family="Times,serif" font-size="14.00">samples = 6</text>
<text text-anchor="middle" x="670" y="-22.8" font-family="Times,serif" font-size="14.00">value = [8.146, 0.982]</text>
<text text-anchor="middle" x="670" y="-7.8" font-family="Times,serif" font-size="14.00">class = Non&#45;obstructive</text>
</g>
<!-- 8&#45;&gt;10 -->
<g id="edge10" class="edge">
<title>8&#45;&gt;10</title>
<path fill="none" stroke="black" d="M667.55,-118.87C667.82,-110.5 668.1,-101.77 668.37,-93.33"/>
<polygon fill="black" stroke="black" points="671.87,-93.34 668.69,-83.23 664.87,-93.11 671.87,-93.34"/>
</g>
<!-- 12 -->
<g id="node13" class="node">
<title>12</title>
<polygon fill="none" stroke="black" points="949.5,-83 782.5,-83 782.5,0 949.5,0 949.5,-83"/>
<text text-anchor="middle" x="866" y="-67.8" font-family="Times,serif" font-size="14.00">node #12</text>
<text text-anchor="middle" x="866" y="-52.8" font-family="Times,serif" font-size="14.00">gini = 0.0</text>
<text text-anchor="middle" x="866" y="-37.8" font-family="Times,serif" font-size="14.00">samples = 13</text>
<text text-anchor="middle" x="866" y="-22.8" font-family="Times,serif" font-size="14.00">value = [0.0, 22.594]</text>
<text text-anchor="middle" x="866" y="-7.8" font-family="Times,serif" font-size="14.00">class = Obstructive</text>
</g>
<!-- 11&#45;&gt;12 -->
<g id="edge12" class="edge">
<title>11&#45;&gt;12</title>
<path fill="none" stroke="black" d="M869.07,-118.87C868.73,-110.5 868.38,-101.77 868.04,-93.33"/>
<polygon fill="black" stroke="black" points="871.53,-93.08 867.64,-83.23 864.54,-93.36 871.53,-93.08"/>
</g>
<!-- 13 -->
<g id="node14" class="node">
<title>13</title>
<polygon fill="none" stroke="black" points="1156,-83 968,-83 968,0 1156,0 1156,-83"/>
<text text-anchor="middle" x="1062" y="-67.8" font-family="Times,serif" font-size="14.00">node #13</text>
<text text-anchor="middle" x="1062" y="-52.8" font-family="Times,serif" font-size="14.00">gini = 0.0</text>
<text text-anchor="middle" x="1062" y="-37.8" font-family="Times,serif" font-size="14.00">samples = 1</text>
<text text-anchor="middle" x="1062" y="-22.8" font-family="Times,serif" font-size="14.00">value = [1.018, 0.0]</text>
<text text-anchor="middle" x="1062" y="-7.8" font-family="Times,serif" font-size="14.00">class = Non&#45;obstructive</text>
</g>
<!-- 11&#45;&gt;13 -->
<g id="edge13" class="edge">
<title>11&#45;&gt;13</title>
<path fill="none" stroke="black" d="M944.85,-118.87C960.03,-108.97 975.98,-98.57 991.05,-88.74"/>
<polygon fill="black" stroke="black" points="993.35,-91.43 999.82,-83.03 989.53,-85.56 993.35,-91.43"/>
</g>
<!-- 15 -->
<g id="node16" class="node">
<title>15</title>
<polygon fill="none" stroke="black" points="1572.5,-351 1369.5,-351 1369.5,-253 1572.5,-253 1572.5,-351"/>
<text text-anchor="middle" x="1471" y="-335.8" font-family="Times,serif" font-size="14.00">node #15</text>
<text text-anchor="middle" x="1471" y="-320.8" font-family="Times,serif" font-size="14.00">FEV1PrePercent &lt;= 90.5</text>
<text text-anchor="middle" x="1471" y="-305.8" font-family="Times,serif" font-size="14.00">gini = 0.155</text>
<text text-anchor="middle" x="1471" y="-290.8" font-family="Times,serif" font-size="14.00">samples = 80</text>
<text text-anchor="middle" x="1471" y="-275.8" font-family="Times,serif" font-size="14.00">value = [117.104, 10.806]</text>
<text text-anchor="middle" x="1471" y="-260.8" font-family="Times,serif" font-size="14.00">class = Non&#45;obstructive</text>
</g>
<!-- 14&#45;&gt;15 -->
<g id="edge15" class="edge">
<title>14&#45;&gt;15</title>
<path fill="none" stroke="black" d="M1471,-386.97C1471,-378.69 1471,-370 1471,-361.48"/>
<polygon fill="black" stroke="black" points="1474.5,-361.21 1471,-351.21 1467.5,-361.21 1474.5,-361.21"/>
</g>
<!-- 20 -->
<g id="node21" class="node">
<title>20</title>
<polygon fill="none" stroke="black" points="1871.5,-351 1686.5,-351 1686.5,-253 1871.5,-253 1871.5,-351"/>
<text text-anchor="middle" x="1779" y="-335.8" font-family="Times,serif" font-size="14.00">node #20</text>
<text text-anchor="middle" x="1779" y="-320.8" font-family="Times,serif" font-size="14.00">FEV1PostVal &lt;= 2.675</text>
<text text-anchor="middle" x="1779" y="-305.8" font-family="Times,serif" font-size="14.00">gini = 0.468</text>
<text text-anchor="middle" x="1779" y="-290.8" font-family="Times,serif" font-size="14.00">samples = 62</text>
<text text-anchor="middle" x="1779" y="-275.8" font-family="Times,serif" font-size="14.00">value = [35.64, 59.924]</text>
<text text-anchor="middle" x="1779" y="-260.8" font-family="Times,serif" font-size="14.00">class = Obstructive</text>
</g>
<!-- 14&#45;&gt;20 -->
<g id="edge20" class="edge">
<title>14&#45;&gt;20</title>
<path fill="none" stroke="black" d="M1572.7,-391.41C1606.26,-377.03 1643.57,-361.04 1677.14,-346.66"/>
<polygon fill="black" stroke="black" points="1678.69,-349.8 1686.5,-342.64 1675.93,-343.37 1678.69,-349.8"/>
</g>
<!-- 16 -->
<g id="node17" class="node">
<title>16</title>
<polygon fill="none" stroke="black" points="1472,-217 1278,-217 1278,-119 1472,-119 1472,-217"/>
<text text-anchor="middle" x="1375" y="-201.8" font-family="Times,serif" font-size="14.00">node #16</text>
<text text-anchor="middle" x="1375" y="-186.8" font-family="Times,serif" font-size="14.00">FEFPrePercent &lt;= 52.5</text>
<text text-anchor="middle" x="1375" y="-171.8" font-family="Times,serif" font-size="14.00">gini = 0.131</text>
<text text-anchor="middle" x="1375" y="-156.8" font-family="Times,serif" font-size="14.00">samples = 79</text>
<text text-anchor="middle" x="1375" y="-141.8" font-family="Times,serif" font-size="14.00">value = [117.104, 8.841]</text>
<text text-anchor="middle" x="1375" y="-126.8" font-family="Times,serif" font-size="14.00">class = Non&#45;obstructive</text>
</g>
<!-- 15&#45;&gt;16 -->
<g id="edge16" class="edge">
<title>15&#45;&gt;16</title>
<path fill="none" stroke="black" d="M1436.07,-252.97C1429.58,-244.05 1422.76,-234.66 1416.11,-225.52"/>
<polygon fill="black" stroke="black" points="1418.78,-223.24 1410.06,-217.21 1413.12,-227.36 1418.78,-223.24"/>
</g>
<!-- 19 -->
<g id="node20" class="node">
<title>19</title>
<polygon fill="none" stroke="black" points="1648,-209.5 1490,-209.5 1490,-126.5 1648,-126.5 1648,-209.5"/>
<text text-anchor="middle" x="1569" y="-194.3" font-family="Times,serif" font-size="14.00">node #19</text>
<text text-anchor="middle" x="1569" y="-179.3" font-family="Times,serif" font-size="14.00">gini = 0.0</text>
<text text-anchor="middle" x="1569" y="-164.3" font-family="Times,serif" font-size="14.00">samples = 1</text>
<text text-anchor="middle" x="1569" y="-149.3" font-family="Times,serif" font-size="14.00">value = [0.0, 1.965]</text>
<text text-anchor="middle" x="1569" y="-134.3" font-family="Times,serif" font-size="14.00">class = Obstructive</text>
</g>
<!-- 15&#45;&gt;19 -->
<g id="edge19" class="edge">
<title>15&#45;&gt;19</title>
<path fill="none" stroke="black" d="M1506.66,-252.97C1515.11,-241.58 1524.14,-229.42 1532.63,-217.99"/>
<polygon fill="black" stroke="black" points="1535.55,-219.93 1538.7,-209.82 1529.93,-215.76 1535.55,-219.93"/>
</g>
<!-- 17 -->
<g id="node18" class="node">
<title>17</title>
<polygon fill="none" stroke="black" points="1362,-83 1174,-83 1174,0 1362,0 1362,-83"/>
<text text-anchor="middle" x="1268" y="-67.8" font-family="Times,serif" font-size="14.00">node #17</text>
<text text-anchor="middle" x="1268" y="-52.8" font-family="Times,serif" font-size="14.00">gini = 0.313</text>
<text text-anchor="middle" x="1268" y="-37.8" font-family="Times,serif" font-size="14.00">samples = 15</text>
<text text-anchor="middle" x="1268" y="-22.8" font-family="Times,serif" font-size="14.00">value = [24.439, 5.894]</text>
<text text-anchor="middle" x="1268" y="-7.8" font-family="Times,serif" font-size="14.00">class = Non&#45;obstructive</text>
</g>
<!-- 16&#45;&gt;17 -->
<g id="edge17" class="edge">
<title>16&#45;&gt;17</title>
<path fill="none" stroke="black" d="M1333.63,-118.87C1325.73,-109.67 1317.45,-100.04 1309.55,-90.84"/>
<polygon fill="black" stroke="black" points="1312.18,-88.53 1303.01,-83.23 1306.87,-93.1 1312.18,-88.53"/>
</g>
<!-- 18 -->
<g id="node19" class="node">
<title>18</title>
<polygon fill="none" stroke="black" points="1568,-83 1380,-83 1380,0 1568,0 1568,-83"/>
<text text-anchor="middle" x="1474" y="-67.8" font-family="Times,serif" font-size="14.00">node #18</text>
<text text-anchor="middle" x="1474" y="-52.8" font-family="Times,serif" font-size="14.00">gini = 0.06</text>
<text text-anchor="middle" x="1474" y="-37.8" font-family="Times,serif" font-size="14.00">samples = 64</text>
<text text-anchor="middle" x="1474" y="-22.8" font-family="Times,serif" font-size="14.00">value = [92.665, 2.947]</text>
<text text-anchor="middle" x="1474" y="-7.8" font-family="Times,serif" font-size="14.00">class = Non&#45;obstructive</text>
</g>
<!-- 16&#45;&gt;18 -->
<g id="edge18" class="edge">
<title>16&#45;&gt;18</title>
<path fill="none" stroke="black" d="M1413.28,-118.87C1420.51,-109.76 1428.09,-100.23 1435.34,-91.12"/>
<polygon fill="black" stroke="black" points="1438.13,-93.24 1441.61,-83.23 1432.65,-88.88 1438.13,-93.24"/>
</g>
<!-- 21 -->
<g id="node22" class="node">
<title>21</title>
<polygon fill="none" stroke="black" points="1882,-217 1676,-217 1676,-119 1882,-119 1882,-217"/>
<text text-anchor="middle" x="1779" y="-201.8" font-family="Times,serif" font-size="14.00">node #21</text>
<text text-anchor="middle" x="1779" y="-186.8" font-family="Times,serif" font-size="14.00">FEFPostPercent &lt;= 104.5</text>
<text text-anchor="middle" x="1779" y="-171.8" font-family="Times,serif" font-size="14.00">gini = 0.499</text>
<text text-anchor="middle" x="1779" y="-156.8" font-family="Times,serif" font-size="14.00">samples = 39</text>
<text text-anchor="middle" x="1779" y="-141.8" font-family="Times,serif" font-size="14.00">value = [31.567, 28.488]</text>
<text text-anchor="middle" x="1779" y="-126.8" font-family="Times,serif" font-size="14.00">class = Non&#45;obstructive</text>
</g>
<!-- 20&#45;&gt;21 -->
<g id="edge21" class="edge">
<title>20&#45;&gt;21</title>
<path fill="none" stroke="black" d="M1779,-252.97C1779,-244.69 1779,-236 1779,-227.48"/>
<polygon fill="black" stroke="black" points="1782.5,-227.21 1779,-217.21 1775.5,-227.21 1782.5,-227.21"/>
</g>
<!-- 24 -->
<g id="node25" class="node">
<title>24</title>
<polygon fill="none" stroke="black" points="2197,-217 1997,-217 1997,-119 2197,-119 2197,-217"/>
<text text-anchor="middle" x="2097" y="-201.8" font-family="Times,serif" font-size="14.00">node #24</text>
<text text-anchor="middle" x="2097" y="-186.8" font-family="Times,serif" font-size="14.00">FVCPrePercent &lt;= 102.5</text>
<text text-anchor="middle" x="2097" y="-171.8" font-family="Times,serif" font-size="14.00">gini = 0.203</text>
<text text-anchor="middle" x="2097" y="-156.8" font-family="Times,serif" font-size="14.00">samples = 23</text>
<text text-anchor="middle" x="2097" y="-141.8" font-family="Times,serif" font-size="14.00">value = [4.073, 31.435]</text>
<text text-anchor="middle" x="2097" y="-126.8" font-family="Times,serif" font-size="14.00">class = Obstructive</text>
</g>
<!-- 20&#45;&gt;24 -->
<g id="edge24" class="edge">
<title>20&#45;&gt;24</title>
<path fill="none" stroke="black" d="M1871.83,-262.47C1908,-247.45 1949.73,-230.13 1987.36,-214.51"/>
<polygon fill="black" stroke="black" points="1988.94,-217.65 1996.83,-210.58 1986.25,-211.18 1988.94,-217.65"/>
</g>
<!-- 22 -->
<g id="node23" class="node">
<title>22</title>
<polygon fill="none" stroke="black" points="1780,-83 1586,-83 1586,0 1780,0 1780,-83"/>
<text text-anchor="middle" x="1683" y="-67.8" font-family="Times,serif" font-size="14.00">node #22</text>
<text text-anchor="middle" x="1683" y="-52.8" font-family="Times,serif" font-size="14.00">gini = 0.488</text>
<text text-anchor="middle" x="1683" y="-37.8" font-family="Times,serif" font-size="14.00">samples = 32</text>
<text text-anchor="middle" x="1683" y="-22.8" font-family="Times,serif" font-size="14.00">value = [19.348, 26.524]</text>
<text text-anchor="middle" x="1683" y="-7.8" font-family="Times,serif" font-size="14.00">class = Obstructive</text>
</g>
<!-- 21&#45;&gt;22 -->
<g id="edge22" class="edge">
<title>21&#45;&gt;22</title>
<path fill="none" stroke="black" d="M1741.88,-118.87C1734.94,-109.85 1727.67,-100.43 1720.7,-91.39"/>
<polygon fill="black" stroke="black" points="1723.29,-89.01 1714.41,-83.23 1717.74,-93.29 1723.29,-89.01"/>
</g>
<!-- 23 -->
<g id="node24" class="node">
<title>23</title>
<polygon fill="none" stroke="black" points="1986,-83 1798,-83 1798,0 1986,0 1986,-83"/>
<text text-anchor="middle" x="1892" y="-67.8" font-family="Times,serif" font-size="14.00">node #23</text>
<text text-anchor="middle" x="1892" y="-52.8" font-family="Times,serif" font-size="14.00">gini = 0.239</text>
<text text-anchor="middle" x="1892" y="-37.8" font-family="Times,serif" font-size="14.00">samples = 7</text>
<text text-anchor="middle" x="1892" y="-22.8" font-family="Times,serif" font-size="14.00">value = [12.22, 1.965]</text>
<text text-anchor="middle" x="1892" y="-7.8" font-family="Times,serif" font-size="14.00">class = Non&#45;obstructive</text>
</g>
<!-- 21&#45;&gt;23 -->
<g id="edge23" class="edge">
<title>21&#45;&gt;23</title>
<path fill="none" stroke="black" d="M1822.69,-118.87C1831.03,-109.67 1839.77,-100.04 1848.12,-90.84"/>
<polygon fill="black" stroke="black" points="1850.9,-92.99 1855.03,-83.23 1845.72,-88.28 1850.9,-92.99"/>
</g>
<!-- 25 -->
<g id="node26" class="node">
<title>25</title>
<polygon fill="none" stroke="black" points="2189.5,-83 2004.5,-83 2004.5,0 2189.5,0 2189.5,-83"/>
<text text-anchor="middle" x="2097" y="-67.8" font-family="Times,serif" font-size="14.00">node #25</text>
<text text-anchor="middle" x="2097" y="-52.8" font-family="Times,serif" font-size="14.00">gini = 0.166</text>
<text text-anchor="middle" x="2097" y="-37.8" font-family="Times,serif" font-size="14.00">samples = 21</text>
<text text-anchor="middle" x="2097" y="-22.8" font-family="Times,serif" font-size="14.00">value = [3.055, 30.453]</text>
<text text-anchor="middle" x="2097" y="-7.8" font-family="Times,serif" font-size="14.00">class = Obstructive</text>
</g>
<!-- 24&#45;&gt;25 -->
<g id="edge25" class="edge">
<title>24&#45;&gt;25</title>
<path fill="none" stroke="black" d="M2097,-118.87C2097,-110.5 2097,-101.77 2097,-93.33"/>
<polygon fill="black" stroke="black" points="2100.5,-93.23 2097,-83.23 2093.5,-93.23 2100.5,-93.23"/>
</g>
<!-- 26 -->
<g id="node27" class="node">
<title>26</title>
<polygon fill="none" stroke="black" points="2396,-83 2208,-83 2208,0 2396,0 2396,-83"/>
<text text-anchor="middle" x="2302" y="-67.8" font-family="Times,serif" font-size="14.00">node #26</text>
<text text-anchor="middle" x="2302" y="-52.8" font-family="Times,serif" font-size="14.00">gini = 0.5</text>
<text text-anchor="middle" x="2302" y="-37.8" font-family="Times,serif" font-size="14.00">samples = 2</text>
<text text-anchor="middle" x="2302" y="-22.8" font-family="Times,serif" font-size="14.00">value = [1.018, 0.982]</text>
<text text-anchor="middle" x="2302" y="-7.8" font-family="Times,serif" font-size="14.00">class = Non&#45;obstructive</text>
</g>
<!-- 24&#45;&gt;26 -->
<g id="edge26" class="edge">
<title>24&#45;&gt;26</title>
<path fill="none" stroke="black" d="M2176.26,-118.87C2192.7,-108.88 2209.99,-98.38 2226.31,-88.47"/>
<polygon fill="black" stroke="black" points="2228.53,-91.21 2235.26,-83.03 2224.9,-85.23 2228.53,-91.21"/>
</g>
</g>
</svg>
