<?xml version="1.0" encoding="UTF-8" standalone="no"?>
<!DOCTYPE svg PUBLIC "-//W3C//DTD SVG 1.1//EN"
 "http://www.w3.org/Graphics/SVG/1.1/DTD/svg11.dtd">
<!-- Generated by graphviz version 2.43.0 (0)
 -->
<!-- Title: Tree Pages: 1 -->
<svg width="2760pt" height="627pt"
 viewBox="0.00 0.00 2759.50 627.00" xmlns="http://www.w3.org/2000/svg" xmlns:xlink="http://www.w3.org/1999/xlink">
<g id="graph0" class="graph" transform="scale(1 1) rotate(0) translate(4 623)">
<title>Tree</title>
<polygon fill="white" stroke="transparent" points="-4,4 -4,-623 2755.5,-623 2755.5,4 -4,4"/>
<!-- 0 -->
<g id="node1" class="node">
<title>0</title>
<polygon fill="none" stroke="black" points="1224,-619 1036,-619 1036,-521 1224,-521 1224,-619"/>
<text text-anchor="middle" x="1130" y="-603.8" font-family="Times,serif" font-size="14.00">node #0</text>
<text text-anchor="middle" x="1130" y="-588.8" font-family="Times,serif" font-size="14.00">FEFPreVal &lt;= 1.145</text>
<text text-anchor="middle" x="1130" y="-573.8" font-family="Times,serif" font-size="14.00">gini = 0.5</text>
<text text-anchor="middle" x="1130" y="-558.8" font-family="Times,serif" font-size="14.00">samples = 205</text>
<text text-anchor="middle" x="1130" y="-543.8" font-family="Times,serif" font-size="14.00">value = [167.0, 167.0]</text>
<text text-anchor="middle" x="1130" y="-528.8" font-family="Times,serif" font-size="14.00">class = Non&#45;obstructive</text>
</g>
<!-- 1 -->
<g id="node2" class="node">
<title>1</title>
<polygon fill="none" stroke="black" points="840,-485 646,-485 646,-387 840,-387 840,-485"/>
<text text-anchor="middle" x="743" y="-469.8" font-family="Times,serif" font-size="14.00">node #1</text>
<text text-anchor="middle" x="743" y="-454.8" font-family="Times,serif" font-size="14.00">FVCPostVal &lt;= 1.525</text>
<text text-anchor="middle" x="743" y="-439.8" font-family="Times,serif" font-size="14.00">gini = 0.297</text>
<text text-anchor="middle" x="743" y="-424.8" font-family="Times,serif" font-size="14.00">samples = 72</text>
<text text-anchor="middle" x="743" y="-409.8" font-family="Times,serif" font-size="14.00">value = [21.255, 95.852]</text>
<text text-anchor="middle" x="743" y="-394.8" font-family="Times,serif" font-size="14.00">class = Obstructive</text>
</g>
<!-- 0&#45;&gt;1 -->
<g id="edge1" class="edge">
<title>0&#45;&gt;1</title>
<path fill="none" stroke="black" d="M1035.82,-536.88C979.66,-517.72 908.18,-493.34 849.9,-473.46"/>
<polygon fill="black" stroke="black" points="850.89,-470.1 840.3,-470.19 848.63,-476.73 850.89,-470.1"/>
<text text-anchor="middle" x="851.32" y="-488.92" font-family="Times,serif" font-size="14.00">True</text>
</g>
<!-- 14 -->
<g id="node15" class="node">
<title>14</title>
<polygon fill="none" stroke="black" points="1626.5,-485 1423.5,-485 1423.5,-387 1626.5,-387 1626.5,-485"/>
<text text-anchor="middle" x="1525" y="-469.8" font-family="Times,serif" font-size="14.00">node #14</text>
<text text-anchor="middle" x="1525" y="-454.8" font-family="Times,serif" font-size="14.00">FVCPrePercent &lt;= 59.5</text>
<text text-anchor="middle" x="1525" y="-439.8" font-family="Times,serif" font-size="14.00">gini = 0.441</text>
<text text-anchor="middle" x="1525" y="-424.8" font-family="Times,serif" font-size="14.00">samples = 133</text>
<text text-anchor="middle" x="1525" y="-409.8" font-family="Times,serif" font-size="14.00">value = [145.745, 71.148]</text>
<text text-anchor="middle" x="1525" y="-394.8" font-family="Times,serif" font-size="14.00">class = Non&#45;obstructive</text>
</g>
<!-- 0&#45;&gt;14 -->
<g id="edge14" class="edge">
<title>0&#45;&gt;14</title>
<path fill="none" stroke="black" d="M1224.11,-537.55C1280.96,-518.55 1353.72,-494.24 1413.46,-474.28"/>
<polygon fill="black" stroke="black" points="1414.93,-477.47 1423.31,-470.98 1412.71,-470.83 1414.93,-477.47"/>
<text text-anchor="middle" x="1412.14" y="-489.65" font-family="Times,serif" font-size="14.00">False</text>
</g>
<!-- 2 -->
<g id="node3" class="node">
<title>2</title>
<polygon fill="none" stroke="black" points="382,-351 188,-351 188,-253 382,-253 382,-351"/>
<text text-anchor="middle" x="285" y="-335.8" font-family="Times,serif" font-size="14.00">node #2</text>
<text text-anchor="middle" x="285" y="-320.8" font-family="Times,serif" font-size="14.00">FEFPostVal &lt;= 0.47</text>
<text text-anchor="middle" x="285" y="-305.8" font-family="Times,serif" font-size="14.00">gini = 0.492</text>
<text text-anchor="middle" x="285" y="-290.8" font-family="Times,serif" font-size="14.00">samples = 15</text>
<text text-anchor="middle" x="285" y="-275.8" font-family="Times,serif" font-size="14.00">value = [15.182, 11.858]</text>
<text text-anchor="middle" x="285" y="-260.8" font-family="Times,serif" font-size="14.00">class = Non&#45;obstructive</text>
</g>
<!-- 1&#45;&gt;2 -->
<g id="edge2" class="edge">
<title>1&#45;&gt;2</title>
<path fill="none" stroke="black" d="M645.87,-407.01C571.46,-385.56 468.87,-355.99 392.09,-333.86"/>
<polygon fill="black" stroke="black" points="392.96,-330.47 382.38,-331.07 391.02,-337.2 392.96,-330.47"/>
</g>
<!-- 7 -->
<g id="node8" class="node">
<title>7</title>
<polygon fill="none" stroke="black" points="835.5,-351 650.5,-351 650.5,-253 835.5,-253 835.5,-351"/>
<text text-anchor="middle" x="743" y="-335.8" font-family="Times,serif" font-size="14.00">node #7</text>
<text text-anchor="middle" x="743" y="-320.8" font-family="Times,serif" font-size="14.00">FVCPostVal &lt;= 1.7</text>
<text text-anchor="middle" x="743" y="-305.8" font-family="Times,serif" font-size="14.00">gini = 0.126</text>
<text text-anchor="middle" x="743" y="-290.8" font-family="Times,serif" font-size="14.00">samples = 57</text>
<text text-anchor="middle" x="743" y="-275.8" font-family="Times,serif" font-size="14.00">value = [6.073, 83.994]</text>
<text text-anchor="middle" x="743" y="-260.8" font-family="Times,serif" font-size="14.00">class = Obstructive</text>
</g>
<!-- 1&#45;&gt;7 -->
<g id="edge7" class="edge">
<title>1&#45;&gt;7</title>
<path fill="none" stroke="black" d="M743,-386.97C743,-378.69 743,-370 743,-361.48"/>
<polygon fill="black" stroke="black" points="746.5,-361.21 743,-351.21 739.5,-361.21 746.5,-361.21"/>
</g>
<!-- 3 -->
<g id="node4" class="node">
<title>3</title>
<polygon fill="none" stroke="black" points="171,-209.5 13,-209.5 13,-126.5 171,-126.5 171,-209.5"/>
<text text-anchor="middle" x="92" y="-194.3" font-family="Times,serif" font-size="14.00">node #3</text>
<text text-anchor="middle" x="92" y="-179.3" font-family="Times,serif" font-size="14.00">gini = 0.0</text>
<text text-anchor="middle" x="92" y="-164.3" font-family="Times,serif" font-size="14.00">samples = 4</text>
<text text-anchor="middle" x="92" y="-149.3" font-family="Times,serif" font-size="14.00">value = [0.0, 6.917]</text>
<text text-anchor="middle" x="92" y="-134.3" font-family="Times,serif" font-size="14.00">class = Obstructive</text>
</g>
<!-- 2&#45;&gt;3 -->
<g id="edge3" class="edge">
<title>2&#45;&gt;3</title>
<path fill="none" stroke="black" d="M214.78,-252.97C196.9,-240.75 177.72,-227.63 159.96,-215.48"/>
<polygon fill="black" stroke="black" points="161.6,-212.36 151.37,-209.6 157.65,-218.14 161.6,-212.36"/>
</g>
<!-- 4 -->
<g id="node5" class="node">
<title>4</title>
<polygon fill="none" stroke="black" points="380.5,-217 189.5,-217 189.5,-119 380.5,-119 380.5,-217"/>
<text text-anchor="middle" x="285" y="-201.8" font-family="Times,serif" font-size="14.00">node #4</text>
<text text-anchor="middle" x="285" y="-186.8" font-family="Times,serif" font-size="14.00">FEFPrePercent &lt;= 54.5</text>
<text text-anchor="middle" x="285" y="-171.8" font-family="Times,serif" font-size="14.00">gini = 0.37</text>
<text text-anchor="middle" x="285" y="-156.8" font-family="Times,serif" font-size="14.00">samples = 11</text>
<text text-anchor="middle" x="285" y="-141.8" font-family="Times,serif" font-size="14.00">value = [15.182, 4.941]</text>
<text text-anchor="middle" x="285" y="-126.8" font-family="Times,serif" font-size="14.00">class = Non&#45;obstructive</text>
</g>
<!-- 2&#45;&gt;4 -->
<g id="edge4" class="edge">
<title>2&#45;&gt;4</title>
<path fill="none" stroke="black" d="M285,-252.97C285,-244.69 285,-236 285,-227.48"/>
<polygon fill="black" stroke="black" points="288.5,-227.21 285,-217.21 281.5,-227.21 288.5,-227.21"/>
</g>
<!-- 5 -->
<g id="node6" class="node">
<title>5</title>
<polygon fill="none" stroke="black" points="188,-83 0,-83 0,0 188,0 188,-83"/>
<text text-anchor="middle" x="94" y="-67.8" font-family="Times,serif" font-size="14.00">node #5</text>
<text text-anchor="middle" x="94" y="-52.8" font-family="Times,serif" font-size="14.00">gini = 0.273</text>
<text text-anchor="middle" x="94" y="-37.8" font-family="Times,serif" font-size="14.00">samples = 10</text>
<text text-anchor="middle" x="94" y="-22.8" font-family="Times,serif" font-size="14.00">value = [15.182, 2.964]</text>
<text text-anchor="middle" x="94" y="-7.8" font-family="Times,serif" font-size="14.00">class = Non&#45;obstructive</text>
</g>
<!-- 4&#45;&gt;5 -->
<g id="edge5" class="edge">
<title>4&#45;&gt;5</title>
<path fill="none" stroke="black" d="M211.15,-118.87C195.97,-108.97 180.02,-98.57 164.95,-88.74"/>
<polygon fill="black" stroke="black" points="166.47,-85.56 156.18,-83.03 162.65,-91.43 166.47,-85.56"/>
</g>
<!-- 6 -->
<g id="node7" class="node">
<title>6</title>
<polygon fill="none" stroke="black" points="364,-83 206,-83 206,0 364,0 364,-83"/>
<text text-anchor="middle" x="285" y="-67.8" font-family="Times,serif" font-size="14.00">node #6</text>
<text text-anchor="middle" x="285" y="-52.8" font-family="Times,serif" font-size="14.00">gini = &#45;0.0</text>
<text text-anchor="middle" x="285" y="-37.8" font-family="Times,serif" font-size="14.00">samples = 1</text>
<text text-anchor="middle" x="285" y="-22.8" font-family="Times,serif" font-size="14.00">value = [0.0, 1.976]</text>
<text text-anchor="middle" x="285" y="-7.8" font-family="Times,serif" font-size="14.00">class = Obstructive</text>
</g>
<!-- 4&#45;&gt;6 -->
<g id="edge6" class="edge">
<title>4&#45;&gt;6</title>
<path fill="none" stroke="black" d="M285,-118.87C285,-110.5 285,-101.77 285,-93.33"/>
<polygon fill="black" stroke="black" points="288.5,-93.23 285,-83.23 281.5,-93.23 288.5,-93.23"/>
</g>
<!-- 8 -->
<g id="node9" class="node">
<title>8</title>
<polygon fill="none" stroke="black" points="736.5,-217 551.5,-217 551.5,-119 736.5,-119 736.5,-217"/>
<text text-anchor="middle" x="644" y="-201.8" font-family="Times,serif" font-size="14.00">node #8</text>
<text text-anchor="middle" x="644" y="-186.8" font-family="Times,serif" font-size="14.00">FVCPostVal &lt;= 1.665</text>
<text text-anchor="middle" x="644" y="-171.8" font-family="Times,serif" font-size="14.00">gini = 0.35</text>
<text text-anchor="middle" x="644" y="-156.8" font-family="Times,serif" font-size="14.00">samples = 7</text>
<text text-anchor="middle" x="644" y="-141.8" font-family="Times,serif" font-size="14.00">value = [4.048, 13.834]</text>
<text text-anchor="middle" x="644" y="-126.8" font-family="Times,serif" font-size="14.00">class = Obstructive</text>
</g>
<!-- 7&#45;&gt;8 -->
<g id="edge8" class="edge">
<title>7&#45;&gt;8</title>
<path fill="none" stroke="black" d="M706.98,-252.97C700.22,-243.96 693.1,-234.47 686.18,-225.24"/>
<polygon fill="black" stroke="black" points="688.96,-223.11 680.16,-217.21 683.36,-227.31 688.96,-223.11"/>
</g>
<!-- 11 -->
<g id="node12" class="node">
<title>11</title>
<polygon fill="none" stroke="black" points="930,-217 754,-217 754,-119 930,-119 930,-217"/>
<text text-anchor="middle" x="842" y="-201.8" font-family="Times,serif" font-size="14.00">node #11</text>
<text text-anchor="middle" x="842" y="-186.8" font-family="Times,serif" font-size="14.00">FEV1PostVal &lt;= 2.42</text>
<text text-anchor="middle" x="842" y="-171.8" font-family="Times,serif" font-size="14.00">gini = 0.055</text>
<text text-anchor="middle" x="842" y="-156.8" font-family="Times,serif" font-size="14.00">samples = 50</text>
<text text-anchor="middle" x="842" y="-141.8" font-family="Times,serif" font-size="14.00">value = [2.024, 70.16]</text>
<text text-anchor="middle" x="842" y="-126.8" font-family="Times,serif" font-size="14.00">class = Obstructive</text>
</g>
<!-- 7&#45;&gt;11 -->
<g id="edge11" class="edge">
<title>7&#45;&gt;11</title>
<path fill="none" stroke="black" d="M779.02,-252.97C785.78,-243.96 792.9,-234.47 799.82,-225.24"/>
<polygon fill="black" stroke="black" points="802.64,-227.31 805.84,-217.21 797.04,-223.11 802.64,-227.31"/>
</g>
<!-- 9 -->
<g id="node10" class="node">
<title>9</title>
<polygon fill="none" stroke="black" points="540,-83 382,-83 382,0 540,0 540,-83"/>
<text text-anchor="middle" x="461" y="-67.8" font-family="Times,serif" font-size="14.00">node #9</text>
<text text-anchor="middle" x="461" y="-52.8" font-family="Times,serif" font-size="14.00">gini = 0.0</text>
<text text-anchor="middle" x="461" y="-37.8" font-family="Times,serif" font-size="14.00">samples = 5</text>
<text text-anchor="middle" x="461" y="-22.8" font-family="Times,serif" font-size="14.00">value = [0.0, 8.893]</text>
<text text-anchor="middle" x="461" y="-7.8" font-family="Times,serif" font-size="14.00">class = Obstructive</text>
</g>
<!-- 8&#45;&gt;9 -->
<g id="edge9" class="edge">
<title>8&#45;&gt;9</title>
<path fill="none" stroke="black" d="M573.25,-118.87C558.7,-108.97 543.42,-98.57 528.97,-88.74"/>
<polygon fill="black" stroke="black" points="530.81,-85.76 520.58,-83.03 526.88,-91.55 530.81,-85.76"/>
</g>
<!-- 10 -->
<g id="node11" class="node">
<title>10</title>
<polygon fill="none" stroke="black" points="734,-83 558,-83 558,0 734,0 734,-83"/>
<text text-anchor="middle" x="646" y="-67.8" font-family="Times,serif" font-size="14.00">node #10</text>
<text text-anchor="middle" x="646" y="-52.8" font-family="Times,serif" font-size="14.00">gini = 0.495</text>
<text text-anchor="middle" x="646" y="-37.8" font-family="Times,serif" font-size="14.00">samples = 2</text>
<text text-anchor="middle" x="646" y="-22.8" font-family="Times,serif" font-size="14.00">value = [4.048, 4.941]</text>
<text text-anchor="middle" x="646" y="-7.8" font-family="Times,serif" font-size="14.00">class = Obstructive</text>
</g>
<!-- 8&#45;&gt;10 -->
<g id="edge10" class="edge">
<title>8&#45;&gt;10</title>
<path fill="none" stroke="black" d="M644.77,-118.87C644.91,-110.5 645.05,-101.77 645.18,-93.33"/>
<polygon fill="black" stroke="black" points="648.68,-93.29 645.35,-83.23 641.69,-93.17 648.68,-93.29"/>
</g>
<!-- 12 -->
<g id="node13" class="node">
<title>12</title>
<polygon fill="none" stroke="black" points="928,-83 752,-83 752,0 928,0 928,-83"/>
<text text-anchor="middle" x="840" y="-67.8" font-family="Times,serif" font-size="14.00">node #12</text>
<text text-anchor="middle" x="840" y="-52.8" font-family="Times,serif" font-size="14.00">gini = 0.028</text>
<text text-anchor="middle" x="840" y="-37.8" font-family="Times,serif" font-size="14.00">samples = 49</text>
<text text-anchor="middle" x="840" y="-22.8" font-family="Times,serif" font-size="14.00">value = [1.012, 70.16]</text>
<text text-anchor="middle" x="840" y="-7.8" font-family="Times,serif" font-size="14.00">class = Obstructive</text>
</g>
<!-- 11&#45;&gt;12 -->
<g id="edge12" class="edge">
<title>11&#45;&gt;12</title>
<path fill="none" stroke="black" d="M841.23,-118.87C841.09,-110.5 840.95,-101.77 840.82,-93.33"/>
<polygon fill="black" stroke="black" points="844.31,-93.17 840.65,-83.23 837.32,-93.29 844.31,-93.17"/>
</g>
<!-- 13 -->
<g id="node14" class="node">
<title>13</title>
<polygon fill="none" stroke="black" points="1134,-83 946,-83 946,0 1134,0 1134,-83"/>
<text text-anchor="middle" x="1040" y="-67.8" font-family="Times,serif" font-size="14.00">node #13</text>
<text text-anchor="middle" x="1040" y="-52.8" font-family="Times,serif" font-size="14.00">gini = 0.0</text>
<text text-anchor="middle" x="1040" y="-37.8" font-family="Times,serif" font-size="14.00">samples = 1</text>
<text text-anchor="middle" x="1040" y="-22.8" font-family="Times,serif" font-size="14.00">value = [1.012, 0.0]</text>
<text text-anchor="middle" x="1040" y="-7.8" font-family="Times,serif" font-size="14.00">class = Non&#45;obstructive</text>
</g>
<!-- 11&#45;&gt;13 -->
<g id="edge13" class="edge">
<title>11&#45;&gt;13</title>
<path fill="none" stroke="black" d="M918.55,-118.87C934.44,-108.88 951.14,-98.38 966.89,-88.47"/>
<polygon fill="black" stroke="black" points="968.94,-91.32 975.54,-83.03 965.21,-85.39 968.94,-91.32"/>
</g>
<!-- 15 -->
<g id="node16" class="node">
<title>15</title>
<polygon fill="none" stroke="black" points="1628,-351 1422,-351 1422,-253 1628,-253 1628,-351"/>
<text text-anchor="middle" x="1525" y="-335.8" font-family="Times,serif" font-size="14.00">node #15</text>
<text text-anchor="middle" x="1525" y="-320.8" font-family="Times,serif" font-size="14.00">FEV1PostPercent &lt;= 45.5</text>
<text text-anchor="middle" x="1525" y="-305.8" font-family="Times,serif" font-size="14.00">gini = 0.113</text>
<text text-anchor="middle" x="1525" y="-290.8" font-family="Times,serif" font-size="14.00">samples = 52</text>
<text text-anchor="middle" x="1525" y="-275.8" font-family="Times,serif" font-size="14.00">value = [76.921, 4.941]</text>
<text text-anchor="middle" x="1525" y="-260.8" font-family="Times,serif" font-size="14.00">class = Non&#45;obstructive</text>
</g>
<!-- 14&#45;&gt;15 -->
<g id="edge15" class="edge">
<title>14&#45;&gt;15</title>
<path fill="none" stroke="black" d="M1525,-386.97C1525,-378.69 1525,-370 1525,-361.48"/>
<polygon fill="black" stroke="black" points="1528.5,-361.21 1525,-351.21 1521.5,-361.21 1528.5,-361.21"/>
</g>
<!-- 22 -->
<g id="node23" class="node">
<title>22</title>
<polygon fill="none" stroke="black" points="2239,-351 2045,-351 2045,-253 2239,-253 2239,-351"/>
<text text-anchor="middle" x="2142" y="-335.8" font-family="Times,serif" font-size="14.00">node #22</text>
<text text-anchor="middle" x="2142" y="-320.8" font-family="Times,serif" font-size="14.00">FEFPrePercent &lt;= 59.5</text>
<text text-anchor="middle" x="2142" y="-305.8" font-family="Times,serif" font-size="14.00">gini = 0.5</text>
<text text-anchor="middle" x="2142" y="-290.8" font-family="Times,serif" font-size="14.00">samples = 81</text>
<text text-anchor="middle" x="2142" y="-275.8" font-family="Times,serif" font-size="14.00">value = [68.824, 66.207]</text>
<text text-anchor="middle" x="2142" y="-260.8" font-family="Times,serif" font-size="14.00">class = Non&#45;obstructive</text>
</g>
<!-- 14&#45;&gt;22 -->
<g id="edge22" class="edge">
<title>14&#45;&gt;22</title>
<path fill="none" stroke="black" d="M1626.54,-413.28C1739.22,-389.17 1920.27,-350.44 2035.07,-325.88"/>
<polygon fill="black" stroke="black" points="2035.89,-329.28 2044.94,-323.77 2034.43,-322.43 2035.89,-329.28"/>
</g>
<!-- 16 -->
<g id="node17" class="node">
<title>16</title>
<polygon fill="none" stroke="black" points="1515,-217 1327,-217 1327,-119 1515,-119 1515,-217"/>
<text text-anchor="middle" x="1421" y="-201.8" font-family="Times,serif" font-size="14.00">node #16</text>
<text text-anchor="middle" x="1421" y="-186.8" font-family="Times,serif" font-size="14.00">FEFPostVal &lt;= 1.185</text>
<text text-anchor="middle" x="1421" y="-171.8" font-family="Times,serif" font-size="14.00">gini = 0.248</text>
<text text-anchor="middle" x="1421" y="-156.8" font-family="Times,serif" font-size="14.00">samples = 17</text>
<text text-anchor="middle" x="1421" y="-141.8" font-family="Times,serif" font-size="14.00">value = [23.279, 3.953]</text>
<text text-anchor="middle" x="1421" y="-126.8" font-family="Times,serif" font-size="14.00">class = Non&#45;obstructive</text>
</g>
<!-- 15&#45;&gt;16 -->
<g id="edge16" class="edge">
<title>15&#45;&gt;16</title>
<path fill="none" stroke="black" d="M1487.16,-252.97C1480.06,-243.96 1472.58,-234.47 1465.31,-225.24"/>
<polygon fill="black" stroke="black" points="1467.92,-222.9 1458.99,-217.21 1462.43,-227.23 1467.92,-222.9"/>
</g>
<!-- 19 -->
<g id="node20" class="node">
<title>19</title>
<polygon fill="none" stroke="black" points="1724.5,-217 1533.5,-217 1533.5,-119 1724.5,-119 1724.5,-217"/>
<text text-anchor="middle" x="1629" y="-201.8" font-family="Times,serif" font-size="14.00">node #19</text>
<text text-anchor="middle" x="1629" y="-186.8" font-family="Times,serif" font-size="14.00">FVCPrePercent &lt;= 54.5</text>
<text text-anchor="middle" x="1629" y="-171.8" font-family="Times,serif" font-size="14.00">gini = 0.036</text>
<text text-anchor="middle" x="1629" y="-156.8" font-family="Times,serif" font-size="14.00">samples = 35</text>
<text text-anchor="middle" x="1629" y="-141.8" font-family="Times,serif" font-size="14.00">value = [53.642, 0.988]</text>
<text text-anchor="middle" x="1629" y="-126.8" font-family="Times,serif" font-size="14.00">class = Non&#45;obstructive</text>
</g>
<!-- 15&#45;&gt;19 -->
<g id="edge19" class="edge">
<title>15&#45;&gt;19</title>
<path fill="none" stroke="black" d="M1562.84,-252.97C1569.94,-243.96 1577.42,-234.47 1584.69,-225.24"/>
<polygon fill="black" stroke="black" points="1587.57,-227.23 1591.01,-217.21 1582.08,-222.9 1587.57,-227.23"/>
</g>
<!-- 17 -->
<g id="node18" class="node">
<title>17</title>
<polygon fill="none" stroke="black" points="1310,-83 1152,-83 1152,0 1310,0 1310,-83"/>
<text text-anchor="middle" x="1231" y="-67.8" font-family="Times,serif" font-size="14.00">node #17</text>
<text text-anchor="middle" x="1231" y="-52.8" font-family="Times,serif" font-size="14.00">gini = 0.0</text>
<text text-anchor="middle" x="1231" y="-37.8" font-family="Times,serif" font-size="14.00">samples = 1</text>
<text text-anchor="middle" x="1231" y="-22.8" font-family="Times,serif" font-size="14.00">value = [0.0, 3.953]</text>
<text text-anchor="middle" x="1231" y="-7.8" font-family="Times,serif" font-size="14.00">class = Obstructive</text>
</g>
<!-- 16&#45;&gt;17 -->
<g id="edge17" class="edge">
<title>16&#45;&gt;17</title>
<path fill="none" stroke="black" d="M1347.54,-118.87C1332.44,-108.97 1316.57,-98.57 1301.57,-88.74"/>
<polygon fill="black" stroke="black" points="1303.14,-85.59 1292.86,-83.03 1299.3,-91.44 1303.14,-85.59"/>
</g>
<!-- 18 -->
<g id="node19" class="node">
<title>18</title>
<polygon fill="none" stroke="black" points="1516,-83 1328,-83 1328,0 1516,0 1516,-83"/>
<text text-anchor="middle" x="1422" y="-67.8" font-family="Times,serif" font-size="14.00">node #18</text>
<text text-anchor="middle" x="1422" y="-52.8" font-family="Times,serif" font-size="14.00">gini = 0.0</text>
<text text-anchor="middle" x="1422" y="-37.8" font-family="Times,serif" font-size="14.00">samples = 16</text>
<text text-anchor="middle" x="1422" y="-22.8" font-family="Times,serif" font-size="14.00">value = [23.279, 0.0]</text>
<text text-anchor="middle" x="1422" y="-7.8" font-family="Times,serif" font-size="14.00">class = Non&#45;obstructive</text>
</g>
<!-- 16&#45;&gt;18 -->
<g id="edge18" class="edge">
<title>16&#45;&gt;18</title>
<path fill="none" stroke="black" d="M1421.39,-118.87C1421.45,-110.5 1421.52,-101.77 1421.59,-93.33"/>
<polygon fill="black" stroke="black" points="1425.09,-93.26 1421.67,-83.23 1418.09,-93.2 1425.09,-93.26"/>
</g>
<!-- 20 -->
<g id="node21" class="node">
<title>20</title>
<polygon fill="none" stroke="black" points="1722,-83 1534,-83 1534,0 1722,0 1722,-83"/>
<text text-anchor="middle" x="1628" y="-67.8" font-family="Times,serif" font-size="14.00">node #20</text>
<text text-anchor="middle" x="1628" y="-52.8" font-family="Times,serif" font-size="14.00">gini = 0.0</text>
<text text-anchor="middle" x="1628" y="-37.8" font-family="Times,serif" font-size="14.00">samples = 27</text>
<text text-anchor="middle" x="1628" y="-22.8" font-family="Times,serif" font-size="14.00">value = [41.497, 0.0]</text>
<text text-anchor="middle" x="1628" y="-7.8" font-family="Times,serif" font-size="14.00">class = Non&#45;obstructive</text>
</g>
<!-- 19&#45;&gt;20 -->
<g id="edge20" class="edge">
<title>19&#45;&gt;20</title>
<path fill="none" stroke="black" d="M1628.61,-118.87C1628.55,-110.5 1628.48,-101.77 1628.41,-93.33"/>
<polygon fill="black" stroke="black" points="1631.91,-93.2 1628.33,-83.23 1624.91,-93.26 1631.91,-93.2"/>
</g>
<!-- 21 -->
<g id="node22" class="node">
<title>21</title>
<polygon fill="none" stroke="black" points="1928,-83 1740,-83 1740,0 1928,0 1928,-83"/>
<text text-anchor="middle" x="1834" y="-67.8" font-family="Times,serif" font-size="14.00">node #21</text>
<text text-anchor="middle" x="1834" y="-52.8" font-family="Times,serif" font-size="14.00">gini = 0.139</text>
<text text-anchor="middle" x="1834" y="-37.8" font-family="Times,serif" font-size="14.00">samples = 8</text>
<text text-anchor="middle" x="1834" y="-22.8" font-family="Times,serif" font-size="14.00">value = [12.145, 0.988]</text>
<text text-anchor="middle" x="1834" y="-7.8" font-family="Times,serif" font-size="14.00">class = Non&#45;obstructive</text>
</g>
<!-- 19&#45;&gt;21 -->
<g id="edge21" class="edge">
<title>19&#45;&gt;21</title>
<path fill="none" stroke="black" d="M1708.26,-118.87C1724.7,-108.88 1741.99,-98.38 1758.31,-88.47"/>
<polygon fill="black" stroke="black" points="1760.53,-91.21 1767.26,-83.03 1756.9,-85.23 1760.53,-91.21"/>
</g>
<!-- 23 -->
<g id="node24" class="node">
<title>23</title>
<polygon fill="none" stroke="black" points="2234.5,-217 2049.5,-217 2049.5,-119 2234.5,-119 2234.5,-217"/>
<text text-anchor="middle" x="2142" y="-201.8" font-family="Times,serif" font-size="14.00">node #23</text>
<text text-anchor="middle" x="2142" y="-186.8" font-family="Times,serif" font-size="14.00">FEFPreVal &lt;= 1.185</text>
<text text-anchor="middle" x="2142" y="-171.8" font-family="Times,serif" font-size="14.00">gini = 0.259</text>
<text text-anchor="middle" x="2142" y="-156.8" font-family="Times,serif" font-size="14.00">samples = 22</text>
<text text-anchor="middle" x="2142" y="-141.8" font-family="Times,serif" font-size="14.00">value = [6.073, 33.598]</text>
<text text-anchor="middle" x="2142" y="-126.8" font-family="Times,serif" font-size="14.00">class = Obstructive</text>
</g>
<!-- 22&#45;&gt;23 -->
<g id="edge23" class="edge">
<title>22&#45;&gt;23</title>
<path fill="none" stroke="black" d="M2142,-252.97C2142,-244.69 2142,-236 2142,-227.48"/>
<polygon fill="black" stroke="black" points="2145.5,-227.21 2142,-217.21 2138.5,-227.21 2145.5,-227.21"/>
</g>
<!-- 26 -->
<g id="node27" class="node">
<title>26</title>
<polygon fill="none" stroke="black" points="2549,-217 2355,-217 2355,-119 2549,-119 2549,-217"/>
<text text-anchor="middle" x="2452" y="-201.8" font-family="Times,serif" font-size="14.00">node #26</text>
<text text-anchor="middle" x="2452" y="-186.8" font-family="Times,serif" font-size="14.00">FEV1PostVal &lt;= 2.965</text>
<text text-anchor="middle" x="2452" y="-171.8" font-family="Times,serif" font-size="14.00">gini = 0.45</text>
<text text-anchor="middle" x="2452" y="-156.8" font-family="Times,serif" font-size="14.00">samples = 59</text>
<text text-anchor="middle" x="2452" y="-141.8" font-family="Times,serif" font-size="14.00">value = [62.752, 32.609]</text>
<text text-anchor="middle" x="2452" y="-126.8" font-family="Times,serif" font-size="14.00">class = Non&#45;obstructive</text>
</g>
<!-- 22&#45;&gt;26 -->
<g id="edge26" class="edge">
<title>22&#45;&gt;26</title>
<path fill="none" stroke="black" d="M2239.24,-259.6C2272.91,-245.26 2310.84,-229.11 2345.24,-214.46"/>
<polygon fill="black" stroke="black" points="2347.01,-217.51 2354.84,-210.37 2344.27,-211.07 2347.01,-217.51"/>
</g>
<!-- 24 -->
<g id="node25" class="node">
<title>24</title>
<polygon fill="none" stroke="black" points="2134,-83 1946,-83 1946,0 2134,0 2134,-83"/>
<text text-anchor="middle" x="2040" y="-67.8" font-family="Times,serif" font-size="14.00">node #24</text>
<text text-anchor="middle" x="2040" y="-52.8" font-family="Times,serif" font-size="14.00">gini = 0.0</text>
<text text-anchor="middle" x="2040" y="-37.8" font-family="Times,serif" font-size="14.00">samples = 1</text>
<text text-anchor="middle" x="2040" y="-22.8" font-family="Times,serif" font-size="14.00">value = [2.024, 0.0]</text>
<text text-anchor="middle" x="2040" y="-7.8" font-family="Times,serif" font-size="14.00">class = Non&#45;obstructive</text>
</g>
<!-- 23&#45;&gt;24 -->
<g id="edge24" class="edge">
<title>23&#45;&gt;24</title>
<path fill="none" stroke="black" d="M2102.56,-118.87C2095.11,-109.76 2087.3,-100.23 2079.83,-91.12"/>
<polygon fill="black" stroke="black" points="2082.41,-88.75 2073.37,-83.23 2077,-93.18 2082.41,-88.75"/>
</g>
<!-- 25 -->
<g id="node26" class="node">
<title>25</title>
<polygon fill="none" stroke="black" points="2337.5,-83 2152.5,-83 2152.5,0 2337.5,0 2337.5,-83"/>
<text text-anchor="middle" x="2245" y="-67.8" font-family="Times,serif" font-size="14.00">node #25</text>
<text text-anchor="middle" x="2245" y="-52.8" font-family="Times,serif" font-size="14.00">gini = 0.192</text>
<text text-anchor="middle" x="2245" y="-37.8" font-family="Times,serif" font-size="14.00">samples = 21</text>
<text text-anchor="middle" x="2245" y="-22.8" font-family="Times,serif" font-size="14.00">value = [4.048, 33.598]</text>
<text text-anchor="middle" x="2245" y="-7.8" font-family="Times,serif" font-size="14.00">class = Obstructive</text>
</g>
<!-- 23&#45;&gt;25 -->
<g id="edge25" class="edge">
<title>23&#45;&gt;25</title>
<path fill="none" stroke="black" d="M2181.82,-118.87C2189.35,-109.76 2197.24,-100.23 2204.78,-91.12"/>
<polygon fill="black" stroke="black" points="2207.63,-93.17 2211.3,-83.23 2202.23,-88.7 2207.63,-93.17"/>
</g>
<!-- 27 -->
<g id="node28" class="node">
<title>27</title>
<polygon fill="none" stroke="black" points="2549,-83 2355,-83 2355,0 2549,0 2549,-83"/>
<text text-anchor="middle" x="2452" y="-67.8" font-family="Times,serif" font-size="14.00">node #27</text>
<text text-anchor="middle" x="2452" y="-52.8" font-family="Times,serif" font-size="14.00">gini = 0.361</text>
<text text-anchor="middle" x="2452" y="-37.8" font-family="Times,serif" font-size="14.00">samples = 48</text>
<text text-anchor="middle" x="2452" y="-22.8" font-family="Times,serif" font-size="14.00">value = [60.727, 18.775]</text>
<text text-anchor="middle" x="2452" y="-7.8" font-family="Times,serif" font-size="14.00">class = Non&#45;obstructive</text>
</g>
<!-- 26&#45;&gt;27 -->
<g id="edge27" class="edge">
<title>26&#45;&gt;27</title>
<path fill="none" stroke="black" d="M2452,-118.87C2452,-110.5 2452,-101.77 2452,-93.33"/>
<polygon fill="black" stroke="black" points="2455.5,-93.23 2452,-83.23 2448.5,-93.23 2455.5,-93.23"/>
</g>
<!-- 28 -->
<g id="node29" class="node">
<title>28</title>
<polygon fill="none" stroke="black" points="2751.5,-83 2566.5,-83 2566.5,0 2751.5,0 2751.5,-83"/>
<text text-anchor="middle" x="2659" y="-67.8" font-family="Times,serif" font-size="14.00">node #28</text>
<text text-anchor="middle" x="2659" y="-52.8" font-family="Times,serif" font-size="14.00">gini = 0.223</text>
<text text-anchor="middle" x="2659" y="-37.8" font-family="Times,serif" font-size="14.00">samples = 11</text>
<text text-anchor="middle" x="2659" y="-22.8" font-family="Times,serif" font-size="14.00">value = [2.024, 13.834]</text>
<text text-anchor="middle" x="2659" y="-7.8" font-family="Times,serif" font-size="14.00">class = Obstructive</text>
</g>
<!-- 26&#45;&gt;28 -->
<g id="edge28" class="edge">
<title>26&#45;&gt;28</title>
<path fill="none" stroke="black" d="M2532.03,-118.87C2548.79,-108.78 2566.42,-98.18 2583.03,-88.19"/>
<polygon fill="black" stroke="black" points="2584.84,-91.19 2591.61,-83.03 2581.24,-85.19 2584.84,-91.19"/>
</g>
</g>
</svg>
