<?xml version="1.0" encoding="UTF-8" standalone="no"?>
<!DOCTYPE svg PUBLIC "-//W3C//DTD SVG 1.1//EN"
 "http://www.w3.org/Graphics/SVG/1.1/DTD/svg11.dtd">
<!-- Generated by graphviz version 2.43.0 (0)
 -->
<!-- Title: Tree Pages: 1 -->
<svg width="2737pt" height="627pt"
 viewBox="0.00 0.00 2737.00 627.00" xmlns="http://www.w3.org/2000/svg" xmlns:xlink="http://www.w3.org/1999/xlink">
<g id="graph0" class="graph" transform="scale(1 1) rotate(0) translate(4 623)">
<title>Tree</title>
<polygon fill="white" stroke="transparent" points="-4,4 -4,-623 2733,-623 2733,4 -4,4"/>
<!-- 0 -->
<g id="node1" class="node">
<title>0</title>
<polygon fill="none" stroke="black" points="1333.5,-619 1136.5,-619 1136.5,-521 1333.5,-521 1333.5,-619"/>
<text text-anchor="middle" x="1235" y="-603.8" font-family="Times,serif" font-size="14.00">node #0</text>
<text text-anchor="middle" x="1235" y="-588.8" font-family="Times,serif" font-size="14.00">FEFPostPercent &lt;= 45.5</text>
<text text-anchor="middle" x="1235" y="-573.8" font-family="Times,serif" font-size="14.00">gini = 0.5</text>
<text text-anchor="middle" x="1235" y="-558.8" font-family="Times,serif" font-size="14.00">samples = 209</text>
<text text-anchor="middle" x="1235" y="-543.8" font-family="Times,serif" font-size="14.00">value = [167.0, 167.0]</text>
<text text-anchor="middle" x="1235" y="-528.8" font-family="Times,serif" font-size="14.00">class = Obstructive</text>
</g>
<!-- 1 -->
<g id="node2" class="node">
<title>1</title>
<polygon fill="none" stroke="black" points="1027.5,-485 824.5,-485 824.5,-387 1027.5,-387 1027.5,-485"/>
<text text-anchor="middle" x="926" y="-469.8" font-family="Times,serif" font-size="14.00">node #1</text>
<text text-anchor="middle" x="926" y="-454.8" font-family="Times,serif" font-size="14.00">FEFPrePercent &lt;= 41.0</text>
<text text-anchor="middle" x="926" y="-439.8" font-family="Times,serif" font-size="14.00">gini = 0.216</text>
<text text-anchor="middle" x="926" y="-424.8" font-family="Times,serif" font-size="14.00">samples = 74</text>
<text text-anchor="middle" x="926" y="-409.8" font-family="Times,serif" font-size="14.00">value = [14.522, 103.289]</text>
<text text-anchor="middle" x="926" y="-394.8" font-family="Times,serif" font-size="14.00">class = Obstructive</text>
</g>
<!-- 0&#45;&gt;1 -->
<g id="edge1" class="edge">
<title>0&#45;&gt;1</title>
<path fill="none" stroke="black" d="M1136.38,-526.87C1104.79,-513.38 1069.6,-498.34 1037.18,-484.49"/>
<polygon fill="black" stroke="black" points="1038.24,-481.14 1027.67,-480.43 1035.49,-487.58 1038.24,-481.14"/>
<text text-anchor="middle" x="1036.98" y="-499.93" font-family="Times,serif" font-size="14.00">True</text>
</g>
<!-- 14 -->
<g id="node15" class="node">
<title>14</title>
<polygon fill="none" stroke="black" points="1670.5,-485 1467.5,-485 1467.5,-387 1670.5,-387 1670.5,-485"/>
<text text-anchor="middle" x="1569" y="-469.8" font-family="Times,serif" font-size="14.00">node #14</text>
<text text-anchor="middle" x="1569" y="-454.8" font-family="Times,serif" font-size="14.00">FEV1PostVal &lt;= 1.905</text>
<text text-anchor="middle" x="1569" y="-439.8" font-family="Times,serif" font-size="14.00">gini = 0.416</text>
<text text-anchor="middle" x="1569" y="-424.8" font-family="Times,serif" font-size="14.00">samples = 135</text>
<text text-anchor="middle" x="1569" y="-409.8" font-family="Times,serif" font-size="14.00">value = [152.478, 63.711]</text>
<text text-anchor="middle" x="1569" y="-394.8" font-family="Times,serif" font-size="14.00">class = Non&#45;obstructive</text>
</g>
<!-- 0&#45;&gt;14 -->
<g id="edge14" class="edge">
<title>0&#45;&gt;14</title>
<path fill="none" stroke="black" d="M1333.86,-529.93C1372.77,-514.55 1417.64,-496.82 1457.68,-480.99"/>
<polygon fill="black" stroke="black" points="1459.2,-484.16 1467.21,-477.23 1456.63,-477.65 1459.2,-484.16"/>
<text text-anchor="middle" x="1457.27" y="-496.46" font-family="Times,serif" font-size="14.00">False</text>
</g>
<!-- 2 -->
<g id="node3" class="node">
<title>2</title>
<polygon fill="none" stroke="black" points="644,-351 450,-351 450,-253 644,-253 644,-351"/>
<text text-anchor="middle" x="547" y="-335.8" font-family="Times,serif" font-size="14.00">node #2</text>
<text text-anchor="middle" x="547" y="-320.8" font-family="Times,serif" font-size="14.00">FEFPostVal &lt;= 1.315</text>
<text text-anchor="middle" x="547" y="-305.8" font-family="Times,serif" font-size="14.00">gini = 0.181</text>
<text text-anchor="middle" x="547" y="-290.8" font-family="Times,serif" font-size="14.00">samples = 70</text>
<text text-anchor="middle" x="547" y="-275.8" font-family="Times,serif" font-size="14.00">value = [11.41, 102.324]</text>
<text text-anchor="middle" x="547" y="-260.8" font-family="Times,serif" font-size="14.00">class = Obstructive</text>
</g>
<!-- 1&#45;&gt;2 -->
<g id="edge2" class="edge">
<title>1&#45;&gt;2</title>
<path fill="none" stroke="black" d="M824.43,-399.63C771.69,-381.26 707.26,-358.82 653.78,-340.19"/>
<polygon fill="black" stroke="black" points="654.86,-336.86 644.27,-336.88 652.56,-343.47 654.86,-336.86"/>
</g>
<!-- 9 -->
<g id="node10" class="node">
<title>9</title>
<polygon fill="none" stroke="black" points="1020,-351 832,-351 832,-253 1020,-253 1020,-351"/>
<text text-anchor="middle" x="926" y="-335.8" font-family="Times,serif" font-size="14.00">node #9</text>
<text text-anchor="middle" x="926" y="-320.8" font-family="Times,serif" font-size="14.00">FEV1PreVal &lt;= 1.23</text>
<text text-anchor="middle" x="926" y="-305.8" font-family="Times,serif" font-size="14.00">gini = 0.361</text>
<text text-anchor="middle" x="926" y="-290.8" font-family="Times,serif" font-size="14.00">samples = 4</text>
<text text-anchor="middle" x="926" y="-275.8" font-family="Times,serif" font-size="14.00">value = [3.112, 0.965]</text>
<text text-anchor="middle" x="926" y="-260.8" font-family="Times,serif" font-size="14.00">class = Non&#45;obstructive</text>
</g>
<!-- 1&#45;&gt;9 -->
<g id="edge9" class="edge">
<title>1&#45;&gt;9</title>
<path fill="none" stroke="black" d="M926,-386.97C926,-378.69 926,-370 926,-361.48"/>
<polygon fill="black" stroke="black" points="929.5,-361.21 926,-351.21 922.5,-361.21 929.5,-361.21"/>
</g>
<!-- 3 -->
<g id="node4" class="node">
<title>3</title>
<polygon fill="none" stroke="black" points="397.5,-217 200.5,-217 200.5,-119 397.5,-119 397.5,-217"/>
<text text-anchor="middle" x="299" y="-201.8" font-family="Times,serif" font-size="14.00">node #3</text>
<text text-anchor="middle" x="299" y="-186.8" font-family="Times,serif" font-size="14.00">FVCPostPercent &lt;= 41.5</text>
<text text-anchor="middle" x="299" y="-171.8" font-family="Times,serif" font-size="14.00">gini = 0.13</text>
<text text-anchor="middle" x="299" y="-156.8" font-family="Times,serif" font-size="14.00">samples = 62</text>
<text text-anchor="middle" x="299" y="-141.8" font-family="Times,serif" font-size="14.00">value = [7.261, 96.532]</text>
<text text-anchor="middle" x="299" y="-126.8" font-family="Times,serif" font-size="14.00">class = Obstructive</text>
</g>
<!-- 2&#45;&gt;3 -->
<g id="edge3" class="edge">
<title>2&#45;&gt;3</title>
<path fill="none" stroke="black" d="M456.76,-252.97C437.87,-242.92 417.85,-232.26 398.64,-222.04"/>
<polygon fill="black" stroke="black" points="400.06,-218.82 389.58,-217.21 396.77,-225 400.06,-218.82"/>
</g>
<!-- 6 -->
<g id="node7" class="node">
<title>6</title>
<polygon fill="none" stroke="black" points="645.5,-217 448.5,-217 448.5,-119 645.5,-119 645.5,-217"/>
<text text-anchor="middle" x="547" y="-201.8" font-family="Times,serif" font-size="14.00">node #6</text>
<text text-anchor="middle" x="547" y="-186.8" font-family="Times,serif" font-size="14.00">FVCPostPercent &lt;= 65.0</text>
<text text-anchor="middle" x="547" y="-171.8" font-family="Times,serif" font-size="14.00">gini = 0.486</text>
<text text-anchor="middle" x="547" y="-156.8" font-family="Times,serif" font-size="14.00">samples = 8</text>
<text text-anchor="middle" x="547" y="-141.8" font-family="Times,serif" font-size="14.00">value = [4.149, 5.792]</text>
<text text-anchor="middle" x="547" y="-126.8" font-family="Times,serif" font-size="14.00">class = Obstructive</text>
</g>
<!-- 2&#45;&gt;6 -->
<g id="edge6" class="edge">
<title>2&#45;&gt;6</title>
<path fill="none" stroke="black" d="M547,-252.97C547,-244.69 547,-236 547,-227.48"/>
<polygon fill="black" stroke="black" points="550.5,-227.21 547,-217.21 543.5,-227.21 550.5,-227.21"/>
</g>
<!-- 4 -->
<g id="node5" class="node">
<title>4</title>
<polygon fill="none" stroke="black" points="188,-83 0,-83 0,0 188,0 188,-83"/>
<text text-anchor="middle" x="94" y="-67.8" font-family="Times,serif" font-size="14.00">node #4</text>
<text text-anchor="middle" x="94" y="-52.8" font-family="Times,serif" font-size="14.00">gini = 0.499</text>
<text text-anchor="middle" x="94" y="-37.8" font-family="Times,serif" font-size="14.00">samples = 5</text>
<text text-anchor="middle" x="94" y="-22.8" font-family="Times,serif" font-size="14.00">value = [4.149, 3.861]</text>
<text text-anchor="middle" x="94" y="-7.8" font-family="Times,serif" font-size="14.00">class = Non&#45;obstructive</text>
</g>
<!-- 3&#45;&gt;4 -->
<g id="edge4" class="edge">
<title>3&#45;&gt;4</title>
<path fill="none" stroke="black" d="M219.74,-118.87C203.3,-108.88 186.01,-98.38 169.69,-88.47"/>
<polygon fill="black" stroke="black" points="171.1,-85.23 160.74,-83.03 167.47,-91.21 171.1,-85.23"/>
</g>
<!-- 5 -->
<g id="node6" class="node">
<title>5</title>
<polygon fill="none" stroke="black" points="391.5,-83 206.5,-83 206.5,0 391.5,0 391.5,-83"/>
<text text-anchor="middle" x="299" y="-67.8" font-family="Times,serif" font-size="14.00">node #5</text>
<text text-anchor="middle" x="299" y="-52.8" font-family="Times,serif" font-size="14.00">gini = 0.063</text>
<text text-anchor="middle" x="299" y="-37.8" font-family="Times,serif" font-size="14.00">samples = 57</text>
<text text-anchor="middle" x="299" y="-22.8" font-family="Times,serif" font-size="14.00">value = [3.112, 92.671]</text>
<text text-anchor="middle" x="299" y="-7.8" font-family="Times,serif" font-size="14.00">class = Obstructive</text>
</g>
<!-- 3&#45;&gt;5 -->
<g id="edge5" class="edge">
<title>3&#45;&gt;5</title>
<path fill="none" stroke="black" d="M299,-118.87C299,-110.5 299,-101.77 299,-93.33"/>
<polygon fill="black" stroke="black" points="302.5,-93.23 299,-83.23 295.5,-93.23 302.5,-93.23"/>
</g>
<!-- 7 -->
<g id="node8" class="node">
<title>7</title>
<polygon fill="none" stroke="black" points="598,-83 410,-83 410,0 598,0 598,-83"/>
<text text-anchor="middle" x="504" y="-67.8" font-family="Times,serif" font-size="14.00">node #7</text>
<text text-anchor="middle" x="504" y="-52.8" font-family="Times,serif" font-size="14.00">gini = 0.0</text>
<text text-anchor="middle" x="504" y="-37.8" font-family="Times,serif" font-size="14.00">samples = 2</text>
<text text-anchor="middle" x="504" y="-22.8" font-family="Times,serif" font-size="14.00">value = [4.149, 0.0]</text>
<text text-anchor="middle" x="504" y="-7.8" font-family="Times,serif" font-size="14.00">class = Non&#45;obstructive</text>
</g>
<!-- 6&#45;&gt;7 -->
<g id="edge7" class="edge">
<title>6&#45;&gt;7</title>
<path fill="none" stroke="black" d="M530.38,-118.87C527.42,-110.31 524.34,-101.39 521.37,-92.78"/>
<polygon fill="black" stroke="black" points="524.64,-91.54 518.07,-83.23 518.02,-93.83 524.64,-91.54"/>
</g>
<!-- 8 -->
<g id="node9" class="node">
<title>8</title>
<polygon fill="none" stroke="black" points="774,-83 616,-83 616,0 774,0 774,-83"/>
<text text-anchor="middle" x="695" y="-67.8" font-family="Times,serif" font-size="14.00">node #8</text>
<text text-anchor="middle" x="695" y="-52.8" font-family="Times,serif" font-size="14.00">gini = 0.0</text>
<text text-anchor="middle" x="695" y="-37.8" font-family="Times,serif" font-size="14.00">samples = 6</text>
<text text-anchor="middle" x="695" y="-22.8" font-family="Times,serif" font-size="14.00">value = [0.0, 5.792]</text>
<text text-anchor="middle" x="695" y="-7.8" font-family="Times,serif" font-size="14.00">class = Obstructive</text>
</g>
<!-- 6&#45;&gt;8 -->
<g id="edge8" class="edge">
<title>6&#45;&gt;8</title>
<path fill="none" stroke="black" d="M604.22,-118.87C615.59,-109.3 627.51,-99.27 638.84,-89.74"/>
<polygon fill="black" stroke="black" points="641.18,-92.35 646.58,-83.23 636.68,-86.99 641.18,-92.35"/>
</g>
<!-- 10 -->
<g id="node11" class="node">
<title>10</title>
<polygon fill="none" stroke="black" points="917,-209.5 729,-209.5 729,-126.5 917,-126.5 917,-209.5"/>
<text text-anchor="middle" x="823" y="-194.3" font-family="Times,serif" font-size="14.00">node #10</text>
<text text-anchor="middle" x="823" y="-179.3" font-family="Times,serif" font-size="14.00">gini = 0.0</text>
<text text-anchor="middle" x="823" y="-164.3" font-family="Times,serif" font-size="14.00">samples = 2</text>
<text text-anchor="middle" x="823" y="-149.3" font-family="Times,serif" font-size="14.00">value = [2.075, 0.0]</text>
<text text-anchor="middle" x="823" y="-134.3" font-family="Times,serif" font-size="14.00">class = Non&#45;obstructive</text>
</g>
<!-- 9&#45;&gt;10 -->
<g id="edge10" class="edge">
<title>9&#45;&gt;10</title>
<path fill="none" stroke="black" d="M888.52,-252.97C879.64,-241.58 870.15,-229.42 861.23,-217.99"/>
<polygon fill="black" stroke="black" points="863.76,-215.55 854.85,-209.82 858.24,-219.85 863.76,-215.55"/>
</g>
<!-- 11 -->
<g id="node12" class="node">
<title>11</title>
<polygon fill="none" stroke="black" points="1123,-217 935,-217 935,-119 1123,-119 1123,-217"/>
<text text-anchor="middle" x="1029" y="-201.8" font-family="Times,serif" font-size="14.00">node #11</text>
<text text-anchor="middle" x="1029" y="-186.8" font-family="Times,serif" font-size="14.00">FVCPostVal &lt;= 2.27</text>
<text text-anchor="middle" x="1029" y="-171.8" font-family="Times,serif" font-size="14.00">gini = 0.499</text>
<text text-anchor="middle" x="1029" y="-156.8" font-family="Times,serif" font-size="14.00">samples = 2</text>
<text text-anchor="middle" x="1029" y="-141.8" font-family="Times,serif" font-size="14.00">value = [1.037, 0.965]</text>
<text text-anchor="middle" x="1029" y="-126.8" font-family="Times,serif" font-size="14.00">class = Non&#45;obstructive</text>
</g>
<!-- 9&#45;&gt;11 -->
<g id="edge11" class="edge">
<title>9&#45;&gt;11</title>
<path fill="none" stroke="black" d="M963.48,-252.97C970.51,-243.96 977.91,-234.47 985.12,-225.24"/>
<polygon fill="black" stroke="black" points="987.99,-227.25 991.38,-217.21 982.47,-222.94 987.99,-227.25"/>
</g>
<!-- 12 -->
<g id="node13" class="node">
<title>12</title>
<polygon fill="none" stroke="black" points="950,-83 792,-83 792,0 950,0 950,-83"/>
<text text-anchor="middle" x="871" y="-67.8" font-family="Times,serif" font-size="14.00">node #12</text>
<text text-anchor="middle" x="871" y="-52.8" font-family="Times,serif" font-size="14.00">gini = 0.0</text>
<text text-anchor="middle" x="871" y="-37.8" font-family="Times,serif" font-size="14.00">samples = 1</text>
<text text-anchor="middle" x="871" y="-22.8" font-family="Times,serif" font-size="14.00">value = [0.0, 0.965]</text>
<text text-anchor="middle" x="871" y="-7.8" font-family="Times,serif" font-size="14.00">class = Obstructive</text>
</g>
<!-- 11&#45;&gt;12 -->
<g id="edge12" class="edge">
<title>11&#45;&gt;12</title>
<path fill="none" stroke="black" d="M967.91,-118.87C955.59,-109.15 942.65,-98.96 930.39,-89.3"/>
<polygon fill="black" stroke="black" points="932.46,-86.47 922.44,-83.03 928.13,-91.97 932.46,-86.47"/>
</g>
<!-- 13 -->
<g id="node14" class="node">
<title>13</title>
<polygon fill="none" stroke="black" points="1156,-83 968,-83 968,0 1156,0 1156,-83"/>
<text text-anchor="middle" x="1062" y="-67.8" font-family="Times,serif" font-size="14.00">node #13</text>
<text text-anchor="middle" x="1062" y="-52.8" font-family="Times,serif" font-size="14.00">gini = &#45;0.0</text>
<text text-anchor="middle" x="1062" y="-37.8" font-family="Times,serif" font-size="14.00">samples = 1</text>
<text text-anchor="middle" x="1062" y="-22.8" font-family="Times,serif" font-size="14.00">value = [1.037, 0.0]</text>
<text text-anchor="middle" x="1062" y="-7.8" font-family="Times,serif" font-size="14.00">class = Non&#45;obstructive</text>
</g>
<!-- 11&#45;&gt;13 -->
<g id="edge13" class="edge">
<title>11&#45;&gt;13</title>
<path fill="none" stroke="black" d="M1041.76,-118.87C1044,-110.41 1046.34,-101.58 1048.6,-93.06"/>
<polygon fill="black" stroke="black" points="1052.02,-93.79 1051.2,-83.23 1045.26,-92 1052.02,-93.79"/>
</g>
<!-- 15 -->
<g id="node16" class="node">
<title>15</title>
<polygon fill="none" stroke="black" points="1666,-351 1472,-351 1472,-253 1666,-253 1666,-351"/>
<text text-anchor="middle" x="1569" y="-335.8" font-family="Times,serif" font-size="14.00">node #15</text>
<text text-anchor="middle" x="1569" y="-320.8" font-family="Times,serif" font-size="14.00">FVCPrePercent &lt;= 76.0</text>
<text text-anchor="middle" x="1569" y="-305.8" font-family="Times,serif" font-size="14.00">gini = 0.133</text>
<text text-anchor="middle" x="1569" y="-290.8" font-family="Times,serif" font-size="14.00">samples = 75</text>
<text text-anchor="middle" x="1569" y="-275.8" font-family="Times,serif" font-size="14.00">value = [113.062, 8.688]</text>
<text text-anchor="middle" x="1569" y="-260.8" font-family="Times,serif" font-size="14.00">class = Non&#45;obstructive</text>
</g>
<!-- 14&#45;&gt;15 -->
<g id="edge15" class="edge">
<title>14&#45;&gt;15</title>
<path fill="none" stroke="black" d="M1569,-386.97C1569,-378.69 1569,-370 1569,-361.48"/>
<polygon fill="black" stroke="black" points="1572.5,-361.21 1569,-351.21 1565.5,-361.21 1572.5,-361.21"/>
</g>
<!-- 22 -->
<g id="node23" class="node">
<title>22</title>
<polygon fill="none" stroke="black" points="2260.5,-351 2051.5,-351 2051.5,-253 2260.5,-253 2260.5,-351"/>
<text text-anchor="middle" x="2156" y="-335.8" font-family="Times,serif" font-size="14.00">node #22</text>
<text text-anchor="middle" x="2156" y="-320.8" font-family="Times,serif" font-size="14.00">FEV1PrePercent &lt;= 101.0</text>
<text text-anchor="middle" x="2156" y="-305.8" font-family="Times,serif" font-size="14.00">gini = 0.486</text>
<text text-anchor="middle" x="2156" y="-290.8" font-family="Times,serif" font-size="14.00">samples = 60</text>
<text text-anchor="middle" x="2156" y="-275.8" font-family="Times,serif" font-size="14.00">value = [39.416, 55.023]</text>
<text text-anchor="middle" x="2156" y="-260.8" font-family="Times,serif" font-size="14.00">class = Obstructive</text>
</g>
<!-- 14&#45;&gt;22 -->
<g id="edge22" class="edge">
<title>14&#45;&gt;22</title>
<path fill="none" stroke="black" d="M1670.58,-412.16C1773.83,-388.94 1933.53,-353.03 2041.28,-328.8"/>
<polygon fill="black" stroke="black" points="2042.23,-332.17 2051.22,-326.56 2040.7,-325.34 2042.23,-332.17"/>
</g>
<!-- 16 -->
<g id="node17" class="node">
<title>16</title>
<polygon fill="none" stroke="black" points="1562,-217 1368,-217 1368,-119 1562,-119 1562,-217"/>
<text text-anchor="middle" x="1465" y="-201.8" font-family="Times,serif" font-size="14.00">node #16</text>
<text text-anchor="middle" x="1465" y="-186.8" font-family="Times,serif" font-size="14.00">FEV1PreVal &lt;= 1.715</text>
<text text-anchor="middle" x="1465" y="-171.8" font-family="Times,serif" font-size="14.00">gini = 0.053</text>
<text text-anchor="middle" x="1465" y="-156.8" font-family="Times,serif" font-size="14.00">samples = 67</text>
<text text-anchor="middle" x="1465" y="-141.8" font-family="Times,serif" font-size="14.00">value = [102.689, 2.896]</text>
<text text-anchor="middle" x="1465" y="-126.8" font-family="Times,serif" font-size="14.00">class = Non&#45;obstructive</text>
</g>
<!-- 15&#45;&gt;16 -->
<g id="edge16" class="edge">
<title>15&#45;&gt;16</title>
<path fill="none" stroke="black" d="M1531.16,-252.97C1524.06,-243.96 1516.58,-234.47 1509.31,-225.24"/>
<polygon fill="black" stroke="black" points="1511.92,-222.9 1502.99,-217.21 1506.43,-227.23 1511.92,-222.9"/>
</g>
<!-- 19 -->
<g id="node20" class="node">
<title>19</title>
<polygon fill="none" stroke="black" points="1768,-217 1580,-217 1580,-119 1768,-119 1768,-217"/>
<text text-anchor="middle" x="1674" y="-201.8" font-family="Times,serif" font-size="14.00">node #19</text>
<text text-anchor="middle" x="1674" y="-186.8" font-family="Times,serif" font-size="14.00">FVCPreVal &lt;= 2.055</text>
<text text-anchor="middle" x="1674" y="-171.8" font-family="Times,serif" font-size="14.00">gini = 0.46</text>
<text text-anchor="middle" x="1674" y="-156.8" font-family="Times,serif" font-size="14.00">samples = 8</text>
<text text-anchor="middle" x="1674" y="-141.8" font-family="Times,serif" font-size="14.00">value = [10.373, 5.792]</text>
<text text-anchor="middle" x="1674" y="-126.8" font-family="Times,serif" font-size="14.00">class = Non&#45;obstructive</text>
</g>
<!-- 15&#45;&gt;19 -->
<g id="edge19" class="edge">
<title>15&#45;&gt;19</title>
<path fill="none" stroke="black" d="M1607.2,-252.97C1614.37,-243.96 1621.92,-234.47 1629.26,-225.24"/>
<polygon fill="black" stroke="black" points="1632.16,-227.22 1635.65,-217.21 1626.68,-222.86 1632.16,-227.22"/>
</g>
<!-- 17 -->
<g id="node18" class="node">
<title>17</title>
<polygon fill="none" stroke="black" points="1362,-83 1174,-83 1174,0 1362,0 1362,-83"/>
<text text-anchor="middle" x="1268" y="-67.8" font-family="Times,serif" font-size="14.00">node #17</text>
<text text-anchor="middle" x="1268" y="-52.8" font-family="Times,serif" font-size="14.00">gini = 0.023</text>
<text text-anchor="middle" x="1268" y="-37.8" font-family="Times,serif" font-size="14.00">samples = 53</text>
<text text-anchor="middle" x="1268" y="-22.8" font-family="Times,serif" font-size="14.00">value = [82.981, 0.965]</text>
<text text-anchor="middle" x="1268" y="-7.8" font-family="Times,serif" font-size="14.00">class = Non&#45;obstructive</text>
</g>
<!-- 16&#45;&gt;17 -->
<g id="edge17" class="edge">
<title>16&#45;&gt;17</title>
<path fill="none" stroke="black" d="M1388.83,-118.87C1373.03,-108.88 1356.42,-98.38 1340.74,-88.47"/>
<polygon fill="black" stroke="black" points="1342.46,-85.42 1332.14,-83.03 1338.72,-91.33 1342.46,-85.42"/>
</g>
<!-- 18 -->
<g id="node19" class="node">
<title>18</title>
<polygon fill="none" stroke="black" points="1568,-83 1380,-83 1380,0 1568,0 1568,-83"/>
<text text-anchor="middle" x="1474" y="-67.8" font-family="Times,serif" font-size="14.00">node #18</text>
<text text-anchor="middle" x="1474" y="-52.8" font-family="Times,serif" font-size="14.00">gini = 0.163</text>
<text text-anchor="middle" x="1474" y="-37.8" font-family="Times,serif" font-size="14.00">samples = 14</text>
<text text-anchor="middle" x="1474" y="-22.8" font-family="Times,serif" font-size="14.00">value = [19.708, 1.931]</text>
<text text-anchor="middle" x="1474" y="-7.8" font-family="Times,serif" font-size="14.00">class = Non&#45;obstructive</text>
</g>
<!-- 16&#45;&gt;18 -->
<g id="edge18" class="edge">
<title>16&#45;&gt;18</title>
<path fill="none" stroke="black" d="M1468.48,-118.87C1469.08,-110.5 1469.72,-101.77 1470.33,-93.33"/>
<polygon fill="black" stroke="black" points="1473.83,-93.46 1471.06,-83.23 1466.84,-92.95 1473.83,-93.46"/>
</g>
<!-- 20 -->
<g id="node21" class="node">
<title>20</title>
<polygon fill="none" stroke="black" points="1744,-83 1586,-83 1586,0 1744,0 1744,-83"/>
<text text-anchor="middle" x="1665" y="-67.8" font-family="Times,serif" font-size="14.00">node #20</text>
<text text-anchor="middle" x="1665" y="-52.8" font-family="Times,serif" font-size="14.00">gini = 0.0</text>
<text text-anchor="middle" x="1665" y="-37.8" font-family="Times,serif" font-size="14.00">samples = 2</text>
<text text-anchor="middle" x="1665" y="-22.8" font-family="Times,serif" font-size="14.00">value = [0.0, 4.827]</text>
<text text-anchor="middle" x="1665" y="-7.8" font-family="Times,serif" font-size="14.00">class = Obstructive</text>
</g>
<!-- 19&#45;&gt;20 -->
<g id="edge20" class="edge">
<title>19&#45;&gt;20</title>
<path fill="none" stroke="black" d="M1670.52,-118.87C1669.92,-110.5 1669.28,-101.77 1668.67,-93.33"/>
<polygon fill="black" stroke="black" points="1672.16,-92.95 1667.94,-83.23 1665.17,-93.46 1672.16,-92.95"/>
</g>
<!-- 21 -->
<g id="node22" class="node">
<title>21</title>
<polygon fill="none" stroke="black" points="1950,-83 1762,-83 1762,0 1950,0 1950,-83"/>
<text text-anchor="middle" x="1856" y="-67.8" font-family="Times,serif" font-size="14.00">node #21</text>
<text text-anchor="middle" x="1856" y="-52.8" font-family="Times,serif" font-size="14.00">gini = 0.156</text>
<text text-anchor="middle" x="1856" y="-37.8" font-family="Times,serif" font-size="14.00">samples = 6</text>
<text text-anchor="middle" x="1856" y="-22.8" font-family="Times,serif" font-size="14.00">value = [10.373, 0.965]</text>
<text text-anchor="middle" x="1856" y="-7.8" font-family="Times,serif" font-size="14.00">class = Non&#45;obstructive</text>
</g>
<!-- 19&#45;&gt;21 -->
<g id="edge21" class="edge">
<title>19&#45;&gt;21</title>
<path fill="none" stroke="black" d="M1744.37,-118.87C1758.83,-108.97 1774.03,-98.57 1788.4,-88.74"/>
<polygon fill="black" stroke="black" points="1790.47,-91.57 1796.75,-83.03 1786.52,-85.79 1790.47,-91.57"/>
</g>
<!-- 23 -->
<g id="node24" class="node">
<title>23</title>
<polygon fill="none" stroke="black" points="2254.5,-217 2057.5,-217 2057.5,-119 2254.5,-119 2254.5,-217"/>
<text text-anchor="middle" x="2156" y="-201.8" font-family="Times,serif" font-size="14.00">node #23</text>
<text text-anchor="middle" x="2156" y="-186.8" font-family="Times,serif" font-size="14.00">FVCPostPercent &lt;= 86.5</text>
<text text-anchor="middle" x="2156" y="-171.8" font-family="Times,serif" font-size="14.00">gini = 0.459</text>
<text text-anchor="middle" x="2156" y="-156.8" font-family="Times,serif" font-size="14.00">samples = 53</text>
<text text-anchor="middle" x="2156" y="-141.8" font-family="Times,serif" font-size="14.00">value = [30.081, 54.058]</text>
<text text-anchor="middle" x="2156" y="-126.8" font-family="Times,serif" font-size="14.00">class = Obstructive</text>
</g>
<!-- 22&#45;&gt;23 -->
<g id="edge23" class="edge">
<title>22&#45;&gt;23</title>
<path fill="none" stroke="black" d="M2156,-252.97C2156,-244.69 2156,-236 2156,-227.48"/>
<polygon fill="black" stroke="black" points="2159.5,-227.21 2156,-217.21 2152.5,-227.21 2159.5,-227.21"/>
</g>
<!-- 26 -->
<g id="node27" class="node">
<title>26</title>
<polygon fill="none" stroke="black" points="2553,-217 2365,-217 2365,-119 2553,-119 2553,-217"/>
<text text-anchor="middle" x="2459" y="-201.8" font-family="Times,serif" font-size="14.00">node #26</text>
<text text-anchor="middle" x="2459" y="-186.8" font-family="Times,serif" font-size="14.00">FEV1PostVal &lt;= 3.95</text>
<text text-anchor="middle" x="2459" y="-171.8" font-family="Times,serif" font-size="14.00">gini = 0.17</text>
<text text-anchor="middle" x="2459" y="-156.8" font-family="Times,serif" font-size="14.00">samples = 7</text>
<text text-anchor="middle" x="2459" y="-141.8" font-family="Times,serif" font-size="14.00">value = [9.335, 0.965]</text>
<text text-anchor="middle" x="2459" y="-126.8" font-family="Times,serif" font-size="14.00">class = Non&#45;obstructive</text>
</g>
<!-- 22&#45;&gt;26 -->
<g id="edge26" class="edge">
<title>22&#45;&gt;26</title>
<path fill="none" stroke="black" d="M2260.7,-255.39C2291.39,-242.02 2324.93,-227.41 2355.55,-214.07"/>
<polygon fill="black" stroke="black" points="2357.18,-217.18 2364.95,-209.97 2354.38,-210.76 2357.18,-217.18"/>
</g>
<!-- 24 -->
<g id="node25" class="node">
<title>24</title>
<polygon fill="none" stroke="black" points="2162,-83 1968,-83 1968,0 2162,0 2162,-83"/>
<text text-anchor="middle" x="2065" y="-67.8" font-family="Times,serif" font-size="14.00">node #24</text>
<text text-anchor="middle" x="2065" y="-52.8" font-family="Times,serif" font-size="14.00">gini = 0.496</text>
<text text-anchor="middle" x="2065" y="-37.8" font-family="Times,serif" font-size="14.00">samples = 42</text>
<text text-anchor="middle" x="2065" y="-22.8" font-family="Times,serif" font-size="14.00">value = [30.081, 35.717]</text>
<text text-anchor="middle" x="2065" y="-7.8" font-family="Times,serif" font-size="14.00">class = Obstructive</text>
</g>
<!-- 23&#45;&gt;24 -->
<g id="edge24" class="edge">
<title>23&#45;&gt;24</title>
<path fill="none" stroke="black" d="M2120.82,-118.87C2114.23,-109.85 2107.34,-100.43 2100.74,-91.39"/>
<polygon fill="black" stroke="black" points="2103.5,-89.24 2094.77,-83.23 2097.85,-93.37 2103.5,-89.24"/>
</g>
<!-- 25 -->
<g id="node26" class="node">
<title>25</title>
<polygon fill="none" stroke="black" points="2346.5,-83 2179.5,-83 2179.5,0 2346.5,0 2346.5,-83"/>
<text text-anchor="middle" x="2263" y="-67.8" font-family="Times,serif" font-size="14.00">node #25</text>
<text text-anchor="middle" x="2263" y="-52.8" font-family="Times,serif" font-size="14.00">gini = 0.0</text>
<text text-anchor="middle" x="2263" y="-37.8" font-family="Times,serif" font-size="14.00">samples = 11</text>
<text text-anchor="middle" x="2263" y="-22.8" font-family="Times,serif" font-size="14.00">value = [0.0, 18.341]</text>
<text text-anchor="middle" x="2263" y="-7.8" font-family="Times,serif" font-size="14.00">class = Obstructive</text>
</g>
<!-- 23&#45;&gt;25 -->
<g id="edge25" class="edge">
<title>23&#45;&gt;25</title>
<path fill="none" stroke="black" d="M2197.37,-118.87C2205.27,-109.67 2213.55,-100.04 2221.45,-90.84"/>
<polygon fill="black" stroke="black" points="2224.13,-93.1 2227.99,-83.23 2218.82,-88.53 2224.13,-93.1"/>
</g>
<!-- 27 -->
<g id="node28" class="node">
<title>27</title>
<polygon fill="none" stroke="black" points="2553,-83 2365,-83 2365,0 2553,0 2553,-83"/>
<text text-anchor="middle" x="2459" y="-67.8" font-family="Times,serif" font-size="14.00">node #27</text>
<text text-anchor="middle" x="2459" y="-52.8" font-family="Times,serif" font-size="14.00">gini = 0.0</text>
<text text-anchor="middle" x="2459" y="-37.8" font-family="Times,serif" font-size="14.00">samples = 6</text>
<text text-anchor="middle" x="2459" y="-22.8" font-family="Times,serif" font-size="14.00">value = [9.335, 0.0]</text>
<text text-anchor="middle" x="2459" y="-7.8" font-family="Times,serif" font-size="14.00">class = Non&#45;obstructive</text>
</g>
<!-- 26&#45;&gt;27 -->
<g id="edge27" class="edge">
<title>26&#45;&gt;27</title>
<path fill="none" stroke="black" d="M2459,-118.87C2459,-110.5 2459,-101.77 2459,-93.33"/>
<polygon fill="black" stroke="black" points="2462.5,-93.23 2459,-83.23 2455.5,-93.23 2462.5,-93.23"/>
</g>
<!-- 28 -->
<g id="node29" class="node">
<title>28</title>
<polygon fill="none" stroke="black" points="2729,-83 2571,-83 2571,0 2729,0 2729,-83"/>
<text text-anchor="middle" x="2650" y="-67.8" font-family="Times,serif" font-size="14.00">node #28</text>
<text text-anchor="middle" x="2650" y="-52.8" font-family="Times,serif" font-size="14.00">gini = &#45;0.0</text>
<text text-anchor="middle" x="2650" y="-37.8" font-family="Times,serif" font-size="14.00">samples = 1</text>
<text text-anchor="middle" x="2650" y="-22.8" font-family="Times,serif" font-size="14.00">value = [0.0, 0.965]</text>
<text text-anchor="middle" x="2650" y="-7.8" font-family="Times,serif" font-size="14.00">class = Obstructive</text>
</g>
<!-- 26&#45;&gt;28 -->
<g id="edge28" class="edge">
<title>26&#45;&gt;28</title>
<path fill="none" stroke="black" d="M2532.85,-118.87C2548.03,-108.97 2563.98,-98.57 2579.05,-88.74"/>
<polygon fill="black" stroke="black" points="2581.35,-91.43 2587.82,-83.03 2577.53,-85.56 2581.35,-91.43"/>
</g>
</g>
</svg>
