<?xml version="1.0" encoding="UTF-8" standalone="no"?>
<!DOCTYPE svg PUBLIC "-//W3C//DTD SVG 1.1//EN"
 "http://www.w3.org/Graphics/SVG/1.1/DTD/svg11.dtd">
<!-- Generated by graphviz version 2.43.0 (0)
 -->
<!-- Title: Tree Pages: 1 -->
<svg width="2080pt" height="627pt"
 viewBox="0.00 0.00 2079.50 627.00" xmlns="http://www.w3.org/2000/svg" xmlns:xlink="http://www.w3.org/1999/xlink">
<g id="graph0" class="graph" transform="scale(1 1) rotate(0) translate(4 623)">
<title>Tree</title>
<polygon fill="white" stroke="transparent" points="-4,4 -4,-623 2075.5,-623 2075.5,4 -4,4"/>
<!-- 0 -->
<g id="node1" class="node">
<title>0</title>
<polygon fill="none" stroke="black" points="961.5,-619 764.5,-619 764.5,-521 961.5,-521 961.5,-619"/>
<text text-anchor="middle" x="863" y="-603.8" font-family="Times,serif" font-size="14.00">node #0</text>
<text text-anchor="middle" x="863" y="-588.8" font-family="Times,serif" font-size="14.00">FEFPostPercent &lt;= 39.5</text>
<text text-anchor="middle" x="863" y="-573.8" font-family="Times,serif" font-size="14.00">gini = 0.5</text>
<text text-anchor="middle" x="863" y="-558.8" font-family="Times,serif" font-size="14.00">samples = 213</text>
<text text-anchor="middle" x="863" y="-543.8" font-family="Times,serif" font-size="14.00">value = [167.0, 167.0]</text>
<text text-anchor="middle" x="863" y="-528.8" font-family="Times,serif" font-size="14.00">class = Non&#45;obstructive</text>
</g>
<!-- 1 -->
<g id="node2" class="node">
<title>1</title>
<polygon fill="none" stroke="black" points="855.5,-485 658.5,-485 658.5,-387 855.5,-387 855.5,-485"/>
<text text-anchor="middle" x="757" y="-469.8" font-family="Times,serif" font-size="14.00">node #1</text>
<text text-anchor="middle" x="757" y="-454.8" font-family="Times,serif" font-size="14.00">FVCPostPercent &lt;= 41.0</text>
<text text-anchor="middle" x="757" y="-439.8" font-family="Times,serif" font-size="14.00">gini = 0.251</text>
<text text-anchor="middle" x="757" y="-424.8" font-family="Times,serif" font-size="14.00">samples = 70</text>
<text text-anchor="middle" x="757" y="-409.8" font-family="Times,serif" font-size="14.00">value = [17.276, 100.2]</text>
<text text-anchor="middle" x="757" y="-394.8" font-family="Times,serif" font-size="14.00">class = Obstructive</text>
</g>
<!-- 0&#45;&gt;1 -->
<g id="edge1" class="edge">
<title>0&#45;&gt;1</title>
<path fill="none" stroke="black" d="M824.43,-520.97C817.2,-511.96 809.58,-502.47 802.16,-493.24"/>
<polygon fill="black" stroke="black" points="804.71,-490.82 795.72,-485.21 799.25,-495.2 804.71,-490.82"/>
<text text-anchor="middle" x="793" y="-506.37" font-family="Times,serif" font-size="14.00">True</text>
</g>
<!-- 12 -->
<g id="node13" class="node">
<title>12</title>
<polygon fill="none" stroke="black" points="1147,-485 959,-485 959,-387 1147,-387 1147,-485"/>
<text text-anchor="middle" x="1053" y="-469.8" font-family="Times,serif" font-size="14.00">node #12</text>
<text text-anchor="middle" x="1053" y="-454.8" font-family="Times,serif" font-size="14.00">FEV1PostVal &lt;= 1.905</text>
<text text-anchor="middle" x="1053" y="-439.8" font-family="Times,serif" font-size="14.00">gini = 0.427</text>
<text text-anchor="middle" x="1053" y="-424.8" font-family="Times,serif" font-size="14.00">samples = 143</text>
<text text-anchor="middle" x="1053" y="-409.8" font-family="Times,serif" font-size="14.00">value = [149.724, 66.8]</text>
<text text-anchor="middle" x="1053" y="-394.8" font-family="Times,serif" font-size="14.00">class = Non&#45;obstructive</text>
</g>
<!-- 0&#45;&gt;12 -->
<g id="edge12" class="edge">
<title>0&#45;&gt;12</title>
<path fill="none" stroke="black" d="M932.13,-520.97C946.15,-511.24 960.97,-500.93 975.26,-491.01"/>
<polygon fill="black" stroke="black" points="977.39,-493.79 983.6,-485.21 973.39,-488.05 977.39,-493.79"/>
<text text-anchor="middle" x="979.17" y="-506.12" font-family="Times,serif" font-size="14.00">False</text>
</g>
<!-- 2 -->
<g id="node3" class="node">
<title>2</title>
<polygon fill="none" stroke="black" points="510,-351 322,-351 322,-253 510,-253 510,-351"/>
<text text-anchor="middle" x="416" y="-335.8" font-family="Times,serif" font-size="14.00">node #2</text>
<text text-anchor="middle" x="416" y="-320.8" font-family="Times,serif" font-size="14.00">FVCPostVal &lt;= 1.52</text>
<text text-anchor="middle" x="416" y="-305.8" font-family="Times,serif" font-size="14.00">gini = 0.276</text>
<text text-anchor="middle" x="416" y="-290.8" font-family="Times,serif" font-size="14.00">samples = 8</text>
<text text-anchor="middle" x="416" y="-275.8" font-family="Times,serif" font-size="14.00">value = [10.557, 2.088]</text>
<text text-anchor="middle" x="416" y="-260.8" font-family="Times,serif" font-size="14.00">class = Non&#45;obstructive</text>
</g>
<!-- 1&#45;&gt;2 -->
<g id="edge2" class="edge">
<title>1&#45;&gt;2</title>
<path fill="none" stroke="black" d="M658.37,-396.82C614.85,-379.97 563.68,-360.16 519.6,-343.1"/>
<polygon fill="black" stroke="black" points="520.6,-339.74 510.01,-339.39 518.08,-346.27 520.6,-339.74"/>
</g>
<!-- 7 -->
<g id="node8" class="node">
<title>7</title>
<polygon fill="none" stroke="black" points="849.5,-351 664.5,-351 664.5,-253 849.5,-253 849.5,-351"/>
<text text-anchor="middle" x="757" y="-335.8" font-family="Times,serif" font-size="14.00">node #7</text>
<text text-anchor="middle" x="757" y="-320.8" font-family="Times,serif" font-size="14.00">FEV1PreVal &lt;= 2.14</text>
<text text-anchor="middle" x="757" y="-305.8" font-family="Times,serif" font-size="14.00">gini = 0.12</text>
<text text-anchor="middle" x="757" y="-290.8" font-family="Times,serif" font-size="14.00">samples = 62</text>
<text text-anchor="middle" x="757" y="-275.8" font-family="Times,serif" font-size="14.00">value = [6.718, 98.113]</text>
<text text-anchor="middle" x="757" y="-260.8" font-family="Times,serif" font-size="14.00">class = Obstructive</text>
</g>
<!-- 1&#45;&gt;7 -->
<g id="edge7" class="edge">
<title>1&#45;&gt;7</title>
<path fill="none" stroke="black" d="M757,-386.97C757,-378.69 757,-370 757,-361.48"/>
<polygon fill="black" stroke="black" points="760.5,-361.21 757,-351.21 753.5,-361.21 760.5,-361.21"/>
</g>
<!-- 3 -->
<g id="node4" class="node">
<title>3</title>
<polygon fill="none" stroke="black" points="319,-217 131,-217 131,-119 319,-119 319,-217"/>
<text text-anchor="middle" x="225" y="-201.8" font-family="Times,serif" font-size="14.00">node #3</text>
<text text-anchor="middle" x="225" y="-186.8" font-family="Times,serif" font-size="14.00">FEFPostVal &lt;= 0.39</text>
<text text-anchor="middle" x="225" y="-171.8" font-family="Times,serif" font-size="14.00">gini = 0.164</text>
<text text-anchor="middle" x="225" y="-156.8" font-family="Times,serif" font-size="14.00">samples = 7</text>
<text text-anchor="middle" x="225" y="-141.8" font-family="Times,serif" font-size="14.00">value = [10.557, 1.044]</text>
<text text-anchor="middle" x="225" y="-126.8" font-family="Times,serif" font-size="14.00">class = Non&#45;obstructive</text>
</g>
<!-- 2&#45;&gt;3 -->
<g id="edge3" class="edge">
<title>2&#45;&gt;3</title>
<path fill="none" stroke="black" d="M346.5,-252.97C332.42,-243.24 317.51,-232.93 303.15,-223.01"/>
<polygon fill="black" stroke="black" points="304.98,-220.02 294.76,-217.21 301,-225.78 304.98,-220.02"/>
</g>
<!-- 6 -->
<g id="node7" class="node">
<title>6</title>
<polygon fill="none" stroke="black" points="495,-209.5 337,-209.5 337,-126.5 495,-126.5 495,-209.5"/>
<text text-anchor="middle" x="416" y="-194.3" font-family="Times,serif" font-size="14.00">node #6</text>
<text text-anchor="middle" x="416" y="-179.3" font-family="Times,serif" font-size="14.00">gini = &#45;0.0</text>
<text text-anchor="middle" x="416" y="-164.3" font-family="Times,serif" font-size="14.00">samples = 1</text>
<text text-anchor="middle" x="416" y="-149.3" font-family="Times,serif" font-size="14.00">value = [0.0, 1.044]</text>
<text text-anchor="middle" x="416" y="-134.3" font-family="Times,serif" font-size="14.00">class = Obstructive</text>
</g>
<!-- 2&#45;&gt;6 -->
<g id="edge6" class="edge">
<title>2&#45;&gt;6</title>
<path fill="none" stroke="black" d="M416,-252.97C416,-242.25 416,-230.84 416,-219.99"/>
<polygon fill="black" stroke="black" points="419.5,-219.82 416,-209.82 412.5,-219.82 419.5,-219.82"/>
</g>
<!-- 4 -->
<g id="node5" class="node">
<title>4</title>
<polygon fill="none" stroke="black" points="158,-83 0,-83 0,0 158,0 158,-83"/>
<text text-anchor="middle" x="79" y="-67.8" font-family="Times,serif" font-size="14.00">node #4</text>
<text text-anchor="middle" x="79" y="-52.8" font-family="Times,serif" font-size="14.00">gini = 0.0</text>
<text text-anchor="middle" x="79" y="-37.8" font-family="Times,serif" font-size="14.00">samples = 1</text>
<text text-anchor="middle" x="79" y="-22.8" font-family="Times,serif" font-size="14.00">value = [0.0, 1.044]</text>
<text text-anchor="middle" x="79" y="-7.8" font-family="Times,serif" font-size="14.00">class = Obstructive</text>
</g>
<!-- 3&#45;&gt;4 -->
<g id="edge4" class="edge">
<title>3&#45;&gt;4</title>
<path fill="none" stroke="black" d="M168.55,-118.87C157.34,-109.3 145.57,-99.27 134.4,-89.74"/>
<polygon fill="black" stroke="black" points="136.64,-87.06 126.76,-83.23 132.1,-92.38 136.64,-87.06"/>
</g>
<!-- 5 -->
<g id="node6" class="node">
<title>5</title>
<polygon fill="none" stroke="black" points="364,-83 176,-83 176,0 364,0 364,-83"/>
<text text-anchor="middle" x="270" y="-67.8" font-family="Times,serif" font-size="14.00">node #5</text>
<text text-anchor="middle" x="270" y="-52.8" font-family="Times,serif" font-size="14.00">gini = 0.0</text>
<text text-anchor="middle" x="270" y="-37.8" font-family="Times,serif" font-size="14.00">samples = 6</text>
<text text-anchor="middle" x="270" y="-22.8" font-family="Times,serif" font-size="14.00">value = [10.557, 0.0]</text>
<text text-anchor="middle" x="270" y="-7.8" font-family="Times,serif" font-size="14.00">class = Non&#45;obstructive</text>
</g>
<!-- 3&#45;&gt;5 -->
<g id="edge5" class="edge">
<title>3&#45;&gt;5</title>
<path fill="none" stroke="black" d="M242.4,-118.87C245.49,-110.31 248.72,-101.39 251.83,-92.78"/>
<polygon fill="black" stroke="black" points="255.17,-93.83 255.28,-83.23 248.59,-91.45 255.17,-93.83"/>
</g>
<!-- 8 -->
<g id="node9" class="node">
<title>8</title>
<polygon fill="none" stroke="black" points="697.5,-217 512.5,-217 512.5,-119 697.5,-119 697.5,-217"/>
<text text-anchor="middle" x="605" y="-201.8" font-family="Times,serif" font-size="14.00">node #8</text>
<text text-anchor="middle" x="605" y="-186.8" font-family="Times,serif" font-size="14.00">FEV1PreVal &lt;= 1.155</text>
<text text-anchor="middle" x="605" y="-171.8" font-family="Times,serif" font-size="14.00">gini = 0.105</text>
<text text-anchor="middle" x="605" y="-156.8" font-family="Times,serif" font-size="14.00">samples = 61</text>
<text text-anchor="middle" x="605" y="-141.8" font-family="Times,serif" font-size="14.00">value = [5.759, 98.113]</text>
<text text-anchor="middle" x="605" y="-126.8" font-family="Times,serif" font-size="14.00">class = Obstructive</text>
</g>
<!-- 7&#45;&gt;8 -->
<g id="edge8" class="edge">
<title>7&#45;&gt;8</title>
<path fill="none" stroke="black" d="M701.69,-252.97C690.8,-243.51 679.29,-233.51 668.15,-223.84"/>
<polygon fill="black" stroke="black" points="670.36,-221.13 660.52,-217.21 665.77,-226.41 670.36,-221.13"/>
</g>
<!-- 11 -->
<g id="node12" class="node">
<title>11</title>
<polygon fill="none" stroke="black" points="904,-209.5 716,-209.5 716,-126.5 904,-126.5 904,-209.5"/>
<text text-anchor="middle" x="810" y="-194.3" font-family="Times,serif" font-size="14.00">node #11</text>
<text text-anchor="middle" x="810" y="-179.3" font-family="Times,serif" font-size="14.00">gini = 0.0</text>
<text text-anchor="middle" x="810" y="-164.3" font-family="Times,serif" font-size="14.00">samples = 1</text>
<text text-anchor="middle" x="810" y="-149.3" font-family="Times,serif" font-size="14.00">value = [0.96, 0.0]</text>
<text text-anchor="middle" x="810" y="-134.3" font-family="Times,serif" font-size="14.00">class = Non&#45;obstructive</text>
</g>
<!-- 7&#45;&gt;11 -->
<g id="edge11" class="edge">
<title>7&#45;&gt;11</title>
<path fill="none" stroke="black" d="M776.28,-252.97C780.68,-242.02 785.36,-230.36 789.79,-219.32"/>
<polygon fill="black" stroke="black" points="793.13,-220.4 793.61,-209.82 786.64,-217.79 793.13,-220.4"/>
</g>
<!-- 9 -->
<g id="node10" class="node">
<title>9</title>
<polygon fill="none" stroke="black" points="647,-83 471,-83 471,0 647,0 647,-83"/>
<text text-anchor="middle" x="559" y="-67.8" font-family="Times,serif" font-size="14.00">node #9</text>
<text text-anchor="middle" x="559" y="-52.8" font-family="Times,serif" font-size="14.00">gini = 0.213</text>
<text text-anchor="middle" x="559" y="-37.8" font-family="Times,serif" font-size="14.00">samples = 30</text>
<text text-anchor="middle" x="559" y="-22.8" font-family="Times,serif" font-size="14.00">value = [5.759, 41.75]</text>
<text text-anchor="middle" x="559" y="-7.8" font-family="Times,serif" font-size="14.00">class = Obstructive</text>
</g>
<!-- 8&#45;&gt;9 -->
<g id="edge9" class="edge">
<title>8&#45;&gt;9</title>
<path fill="none" stroke="black" d="M587.22,-118.87C584.06,-110.31 580.76,-101.39 577.58,-92.78"/>
<polygon fill="black" stroke="black" points="580.8,-91.4 574.05,-83.23 574.23,-93.82 580.8,-91.4"/>
</g>
<!-- 10 -->
<g id="node11" class="node">
<title>10</title>
<polygon fill="none" stroke="black" points="831.5,-83 664.5,-83 664.5,0 831.5,0 831.5,-83"/>
<text text-anchor="middle" x="748" y="-67.8" font-family="Times,serif" font-size="14.00">node #10</text>
<text text-anchor="middle" x="748" y="-52.8" font-family="Times,serif" font-size="14.00">gini = 0.0</text>
<text text-anchor="middle" x="748" y="-37.8" font-family="Times,serif" font-size="14.00">samples = 31</text>
<text text-anchor="middle" x="748" y="-22.8" font-family="Times,serif" font-size="14.00">value = [0.0, 56.363]</text>
<text text-anchor="middle" x="748" y="-7.8" font-family="Times,serif" font-size="14.00">class = Obstructive</text>
</g>
<!-- 8&#45;&gt;10 -->
<g id="edge10" class="edge">
<title>8&#45;&gt;10</title>
<path fill="none" stroke="black" d="M660.29,-118.87C671.17,-109.39 682.57,-99.46 693.43,-90.01"/>
<polygon fill="black" stroke="black" points="695.97,-92.44 701.22,-83.23 691.38,-87.16 695.97,-92.44"/>
</g>
<!-- 13 -->
<g id="node14" class="node">
<title>13</title>
<polygon fill="none" stroke="black" points="1154.5,-351 951.5,-351 951.5,-253 1154.5,-253 1154.5,-351"/>
<text text-anchor="middle" x="1053" y="-335.8" font-family="Times,serif" font-size="14.00">node #13</text>
<text text-anchor="middle" x="1053" y="-320.8" font-family="Times,serif" font-size="14.00">FEFPreVal &lt;= 0.91</text>
<text text-anchor="middle" x="1053" y="-305.8" font-family="Times,serif" font-size="14.00">gini = 0.196</text>
<text text-anchor="middle" x="1053" y="-290.8" font-family="Times,serif" font-size="14.00">samples = 82</text>
<text text-anchor="middle" x="1053" y="-275.8" font-family="Times,serif" font-size="14.00">value = [109.414, 13.569]</text>
<text text-anchor="middle" x="1053" y="-260.8" font-family="Times,serif" font-size="14.00">class = Non&#45;obstructive</text>
</g>
<!-- 12&#45;&gt;13 -->
<g id="edge13" class="edge">
<title>12&#45;&gt;13</title>
<path fill="none" stroke="black" d="M1053,-386.97C1053,-378.69 1053,-370 1053,-361.48"/>
<polygon fill="black" stroke="black" points="1056.5,-361.21 1053,-351.21 1049.5,-361.21 1056.5,-361.21"/>
</g>
<!-- 18 -->
<g id="node19" class="node">
<title>18</title>
<polygon fill="none" stroke="black" points="1596,-351 1390,-351 1390,-253 1596,-253 1596,-351"/>
<text text-anchor="middle" x="1493" y="-335.8" font-family="Times,serif" font-size="14.00">node #18</text>
<text text-anchor="middle" x="1493" y="-320.8" font-family="Times,serif" font-size="14.00">FEV1PostPercent &lt;= 70.5</text>
<text text-anchor="middle" x="1493" y="-305.8" font-family="Times,serif" font-size="14.00">gini = 0.49</text>
<text text-anchor="middle" x="1493" y="-290.8" font-family="Times,serif" font-size="14.00">samples = 61</text>
<text text-anchor="middle" x="1493" y="-275.8" font-family="Times,serif" font-size="14.00">value = [40.31, 53.231]</text>
<text text-anchor="middle" x="1493" y="-260.8" font-family="Times,serif" font-size="14.00">class = Obstructive</text>
</g>
<!-- 12&#45;&gt;18 -->
<g id="edge18" class="edge">
<title>12&#45;&gt;18</title>
<path fill="none" stroke="black" d="M1147.12,-406.76C1215.37,-386.29 1307.99,-358.5 1380.21,-336.84"/>
<polygon fill="black" stroke="black" points="1381.23,-340.18 1389.81,-333.96 1379.22,-333.48 1381.23,-340.18"/>
</g>
<!-- 14 -->
<g id="node15" class="node">
<title>14</title>
<polygon fill="none" stroke="black" points="1080,-209.5 922,-209.5 922,-126.5 1080,-126.5 1080,-209.5"/>
<text text-anchor="middle" x="1001" y="-194.3" font-family="Times,serif" font-size="14.00">node #14</text>
<text text-anchor="middle" x="1001" y="-179.3" font-family="Times,serif" font-size="14.00">gini = 0.0</text>
<text text-anchor="middle" x="1001" y="-164.3" font-family="Times,serif" font-size="14.00">samples = 2</text>
<text text-anchor="middle" x="1001" y="-149.3" font-family="Times,serif" font-size="14.00">value = [0.0, 2.088]</text>
<text text-anchor="middle" x="1001" y="-134.3" font-family="Times,serif" font-size="14.00">class = Obstructive</text>
</g>
<!-- 13&#45;&gt;14 -->
<g id="edge14" class="edge">
<title>13&#45;&gt;14</title>
<path fill="none" stroke="black" d="M1034.08,-252.97C1029.77,-242.02 1025.17,-230.36 1020.82,-219.32"/>
<polygon fill="black" stroke="black" points="1024,-217.84 1017.08,-209.82 1017.49,-220.4 1024,-217.84"/>
</g>
<!-- 15 -->
<g id="node16" class="node">
<title>15</title>
<polygon fill="none" stroke="black" points="1300.5,-217 1097.5,-217 1097.5,-119 1300.5,-119 1300.5,-217"/>
<text text-anchor="middle" x="1199" y="-201.8" font-family="Times,serif" font-size="14.00">node #15</text>
<text text-anchor="middle" x="1199" y="-186.8" font-family="Times,serif" font-size="14.00">FEFPostVal &lt;= 1.97</text>
<text text-anchor="middle" x="1199" y="-171.8" font-family="Times,serif" font-size="14.00">gini = 0.172</text>
<text text-anchor="middle" x="1199" y="-156.8" font-family="Times,serif" font-size="14.00">samples = 80</text>
<text text-anchor="middle" x="1199" y="-141.8" font-family="Times,serif" font-size="14.00">value = [109.414, 11.481]</text>
<text text-anchor="middle" x="1199" y="-126.8" font-family="Times,serif" font-size="14.00">class = Non&#45;obstructive</text>
</g>
<!-- 13&#45;&gt;15 -->
<g id="edge15" class="edge">
<title>13&#45;&gt;15</title>
<path fill="none" stroke="black" d="M1106.12,-252.97C1116.49,-243.6 1127.43,-233.7 1138.03,-224.12"/>
<polygon fill="black" stroke="black" points="1140.6,-226.52 1145.67,-217.21 1135.91,-221.32 1140.6,-226.52"/>
</g>
<!-- 16 -->
<g id="node17" class="node">
<title>16</title>
<polygon fill="none" stroke="black" points="1087,-83 893,-83 893,0 1087,0 1087,-83"/>
<text text-anchor="middle" x="990" y="-67.8" font-family="Times,serif" font-size="14.00">node #16</text>
<text text-anchor="middle" x="990" y="-52.8" font-family="Times,serif" font-size="14.00">gini = 0.336</text>
<text text-anchor="middle" x="990" y="-37.8" font-family="Times,serif" font-size="14.00">samples = 32</text>
<text text-anchor="middle" x="990" y="-22.8" font-family="Times,serif" font-size="14.00">value = [38.391, 10.438]</text>
<text text-anchor="middle" x="990" y="-7.8" font-family="Times,serif" font-size="14.00">class = Non&#45;obstructive</text>
</g>
<!-- 15&#45;&gt;16 -->
<g id="edge16" class="edge">
<title>15&#45;&gt;16</title>
<path fill="none" stroke="black" d="M1118.2,-118.87C1101.27,-108.78 1083.48,-98.18 1066.71,-88.19"/>
<polygon fill="black" stroke="black" points="1068.42,-85.14 1058.04,-83.03 1064.84,-91.16 1068.42,-85.14"/>
</g>
<!-- 17 -->
<g id="node18" class="node">
<title>17</title>
<polygon fill="none" stroke="black" points="1293,-83 1105,-83 1105,0 1293,0 1293,-83"/>
<text text-anchor="middle" x="1199" y="-67.8" font-family="Times,serif" font-size="14.00">node #17</text>
<text text-anchor="middle" x="1199" y="-52.8" font-family="Times,serif" font-size="14.00">gini = 0.029</text>
<text text-anchor="middle" x="1199" y="-37.8" font-family="Times,serif" font-size="14.00">samples = 48</text>
<text text-anchor="middle" x="1199" y="-22.8" font-family="Times,serif" font-size="14.00">value = [71.023, 1.044]</text>
<text text-anchor="middle" x="1199" y="-7.8" font-family="Times,serif" font-size="14.00">class = Non&#45;obstructive</text>
</g>
<!-- 15&#45;&gt;17 -->
<g id="edge17" class="edge">
<title>15&#45;&gt;17</title>
<path fill="none" stroke="black" d="M1199,-118.87C1199,-110.5 1199,-101.77 1199,-93.33"/>
<polygon fill="black" stroke="black" points="1202.5,-93.23 1199,-83.23 1195.5,-93.23 1202.5,-93.23"/>
</g>
<!-- 19 -->
<g id="node20" class="node">
<title>19</title>
<polygon fill="none" stroke="black" points="1587,-217 1399,-217 1399,-119 1587,-119 1587,-217"/>
<text text-anchor="middle" x="1493" y="-201.8" font-family="Times,serif" font-size="14.00">node #19</text>
<text text-anchor="middle" x="1493" y="-186.8" font-family="Times,serif" font-size="14.00">FEV1PreVal &lt;= 1.635</text>
<text text-anchor="middle" x="1493" y="-171.8" font-family="Times,serif" font-size="14.00">gini = 0.324</text>
<text text-anchor="middle" x="1493" y="-156.8" font-family="Times,serif" font-size="14.00">samples = 15</text>
<text text-anchor="middle" x="1493" y="-141.8" font-family="Times,serif" font-size="14.00">value = [16.316, 4.175]</text>
<text text-anchor="middle" x="1493" y="-126.8" font-family="Times,serif" font-size="14.00">class = Non&#45;obstructive</text>
</g>
<!-- 18&#45;&gt;19 -->
<g id="edge19" class="edge">
<title>18&#45;&gt;19</title>
<path fill="none" stroke="black" d="M1493,-252.97C1493,-244.69 1493,-236 1493,-227.48"/>
<polygon fill="black" stroke="black" points="1496.5,-227.21 1493,-217.21 1489.5,-227.21 1496.5,-227.21"/>
</g>
<!-- 22 -->
<g id="node23" class="node">
<title>22</title>
<polygon fill="none" stroke="black" points="1878,-217 1684,-217 1684,-119 1878,-119 1878,-217"/>
<text text-anchor="middle" x="1781" y="-201.8" font-family="Times,serif" font-size="14.00">node #22</text>
<text text-anchor="middle" x="1781" y="-186.8" font-family="Times,serif" font-size="14.00">FEFPreVal &lt;= 2.18</text>
<text text-anchor="middle" x="1781" y="-171.8" font-family="Times,serif" font-size="14.00">gini = 0.441</text>
<text text-anchor="middle" x="1781" y="-156.8" font-family="Times,serif" font-size="14.00">samples = 46</text>
<text text-anchor="middle" x="1781" y="-141.8" font-family="Times,serif" font-size="14.00">value = [23.994, 49.056]</text>
<text text-anchor="middle" x="1781" y="-126.8" font-family="Times,serif" font-size="14.00">class = Obstructive</text>
</g>
<!-- 18&#45;&gt;22 -->
<g id="edge22" class="edge">
<title>18&#45;&gt;22</title>
<path fill="none" stroke="black" d="M1596.16,-253.72C1621.6,-242.06 1648.9,-229.54 1674.5,-217.81"/>
<polygon fill="black" stroke="black" points="1676.22,-220.88 1683.85,-213.53 1673.3,-214.51 1676.22,-220.88"/>
</g>
<!-- 20 -->
<g id="node21" class="node">
<title>20</title>
<polygon fill="none" stroke="black" points="1469,-83 1311,-83 1311,0 1469,0 1469,-83"/>
<text text-anchor="middle" x="1390" y="-67.8" font-family="Times,serif" font-size="14.00">node #20</text>
<text text-anchor="middle" x="1390" y="-52.8" font-family="Times,serif" font-size="14.00">gini = 0.0</text>
<text text-anchor="middle" x="1390" y="-37.8" font-family="Times,serif" font-size="14.00">samples = 2</text>
<text text-anchor="middle" x="1390" y="-22.8" font-family="Times,serif" font-size="14.00">value = [0.0, 2.088]</text>
<text text-anchor="middle" x="1390" y="-7.8" font-family="Times,serif" font-size="14.00">class = Obstructive</text>
</g>
<!-- 19&#45;&gt;20 -->
<g id="edge20" class="edge">
<title>19&#45;&gt;20</title>
<path fill="none" stroke="black" d="M1453.18,-118.87C1445.65,-109.76 1437.76,-100.23 1430.22,-91.12"/>
<polygon fill="black" stroke="black" points="1432.77,-88.7 1423.7,-83.23 1427.37,-93.17 1432.77,-88.7"/>
</g>
<!-- 21 -->
<g id="node22" class="node">
<title>21</title>
<polygon fill="none" stroke="black" points="1675,-83 1487,-83 1487,0 1675,0 1675,-83"/>
<text text-anchor="middle" x="1581" y="-67.8" font-family="Times,serif" font-size="14.00">node #21</text>
<text text-anchor="middle" x="1581" y="-52.8" font-family="Times,serif" font-size="14.00">gini = 0.201</text>
<text text-anchor="middle" x="1581" y="-37.8" font-family="Times,serif" font-size="14.00">samples = 13</text>
<text text-anchor="middle" x="1581" y="-22.8" font-family="Times,serif" font-size="14.00">value = [16.316, 2.088]</text>
<text text-anchor="middle" x="1581" y="-7.8" font-family="Times,serif" font-size="14.00">class = Non&#45;obstructive</text>
</g>
<!-- 19&#45;&gt;21 -->
<g id="edge21" class="edge">
<title>19&#45;&gt;21</title>
<path fill="none" stroke="black" d="M1527.02,-118.87C1533.33,-109.95 1539.92,-100.62 1546.25,-91.67"/>
<polygon fill="black" stroke="black" points="1549.3,-93.42 1552.21,-83.23 1543.58,-89.38 1549.3,-93.42"/>
</g>
<!-- 23 -->
<g id="node24" class="node">
<title>23</title>
<polygon fill="none" stroke="black" points="1869,-83 1693,-83 1693,0 1869,0 1869,-83"/>
<text text-anchor="middle" x="1781" y="-67.8" font-family="Times,serif" font-size="14.00">node #23</text>
<text text-anchor="middle" x="1781" y="-52.8" font-family="Times,serif" font-size="14.00">gini = 0.137</text>
<text text-anchor="middle" x="1781" y="-37.8" font-family="Times,serif" font-size="14.00">samples = 14</text>
<text text-anchor="middle" x="1781" y="-22.8" font-family="Times,serif" font-size="14.00">value = [1.92, 24.006]</text>
<text text-anchor="middle" x="1781" y="-7.8" font-family="Times,serif" font-size="14.00">class = Obstructive</text>
</g>
<!-- 22&#45;&gt;23 -->
<g id="edge23" class="edge">
<title>22&#45;&gt;23</title>
<path fill="none" stroke="black" d="M1781,-118.87C1781,-110.5 1781,-101.77 1781,-93.33"/>
<polygon fill="black" stroke="black" points="1784.5,-93.23 1781,-83.23 1777.5,-93.23 1784.5,-93.23"/>
</g>
<!-- 24 -->
<g id="node25" class="node">
<title>24</title>
<polygon fill="none" stroke="black" points="2071.5,-83 1886.5,-83 1886.5,0 2071.5,0 2071.5,-83"/>
<text text-anchor="middle" x="1979" y="-67.8" font-family="Times,serif" font-size="14.00">node #24</text>
<text text-anchor="middle" x="1979" y="-52.8" font-family="Times,serif" font-size="14.00">gini = 0.498</text>
<text text-anchor="middle" x="1979" y="-37.8" font-family="Times,serif" font-size="14.00">samples = 32</text>
<text text-anchor="middle" x="1979" y="-22.8" font-family="Times,serif" font-size="14.00">value = [22.075, 25.05]</text>
<text text-anchor="middle" x="1979" y="-7.8" font-family="Times,serif" font-size="14.00">class = Obstructive</text>
</g>
<!-- 22&#45;&gt;24 -->
<g id="edge24" class="edge">
<title>22&#45;&gt;24</title>
<path fill="none" stroke="black" d="M1857.55,-118.87C1873.44,-108.88 1890.14,-98.38 1905.89,-88.47"/>
<polygon fill="black" stroke="black" points="1907.94,-91.32 1914.54,-83.03 1904.21,-85.39 1907.94,-91.32"/>
</g>
</g>
</svg>
