<?xml version="1.0" encoding="UTF-8" standalone="no"?>
<!DOCTYPE svg PUBLIC "-//W3C//DTD SVG 1.1//EN"
 "http://www.w3.org/Graphics/SVG/1.1/DTD/svg11.dtd">
<!-- Generated by graphviz version 2.43.0 (0)
 -->
<!-- Title: Tree Pages: 1 -->
<svg width="2421pt" height="627pt"
 viewBox="0.00 0.00 2421.00 627.00" xmlns="http://www.w3.org/2000/svg" xmlns:xlink="http://www.w3.org/1999/xlink">
<g id="graph0" class="graph" transform="scale(1 1) rotate(0) translate(4 623)">
<title>Tree</title>
<polygon fill="white" stroke="transparent" points="-4,4 -4,-623 2417,-623 2417,4 -4,4"/>
<!-- 0 -->
<g id="node1" class="node">
<title>0</title>
<polygon fill="none" stroke="black" points="1219.5,-619 1022.5,-619 1022.5,-521 1219.5,-521 1219.5,-619"/>
<text text-anchor="middle" x="1121" y="-603.8" font-family="Times,serif" font-size="14.00">node #0</text>
<text text-anchor="middle" x="1121" y="-588.8" font-family="Times,serif" font-size="14.00">FEFPostPercent &lt;= 42.5</text>
<text text-anchor="middle" x="1121" y="-573.8" font-family="Times,serif" font-size="14.00">gini = 0.5</text>
<text text-anchor="middle" x="1121" y="-558.8" font-family="Times,serif" font-size="14.00">samples = 221</text>
<text text-anchor="middle" x="1121" y="-543.8" font-family="Times,serif" font-size="14.00">value = [167.0, 167.0]</text>
<text text-anchor="middle" x="1121" y="-528.8" font-family="Times,serif" font-size="14.00">class = Obstructive</text>
</g>
<!-- 1 -->
<g id="node2" class="node">
<title>1</title>
<polygon fill="none" stroke="black" points="1105,-485 911,-485 911,-387 1105,-387 1105,-485"/>
<text text-anchor="middle" x="1008" y="-469.8" font-family="Times,serif" font-size="14.00">node #1</text>
<text text-anchor="middle" x="1008" y="-454.8" font-family="Times,serif" font-size="14.00">FVCPreVal &lt;= 1.245</text>
<text text-anchor="middle" x="1008" y="-439.8" font-family="Times,serif" font-size="14.00">gini = 0.335</text>
<text text-anchor="middle" x="1008" y="-424.8" font-family="Times,serif" font-size="14.00">samples = 81</text>
<text text-anchor="middle" x="1008" y="-409.8" font-family="Times,serif" font-size="14.00">value = [26.802, 99.035]</text>
<text text-anchor="middle" x="1008" y="-394.8" font-family="Times,serif" font-size="14.00">class = Obstructive</text>
</g>
<!-- 0&#45;&gt;1 -->
<g id="edge1" class="edge">
<title>0&#45;&gt;1</title>
<path fill="none" stroke="black" d="M1079.88,-520.97C1072.1,-511.87 1063.88,-502.28 1055.91,-492.96"/>
<polygon fill="black" stroke="black" points="1058.44,-490.53 1049.27,-485.21 1053.12,-495.09 1058.44,-490.53"/>
<text text-anchor="middle" x="1047.34" y="-506.44" font-family="Times,serif" font-size="14.00">True</text>
</g>
<!-- 14 -->
<g id="node15" class="node">
<title>14</title>
<polygon fill="none" stroke="black" points="1431.5,-485 1228.5,-485 1228.5,-387 1431.5,-387 1431.5,-485"/>
<text text-anchor="middle" x="1330" y="-469.8" font-family="Times,serif" font-size="14.00">node #14</text>
<text text-anchor="middle" x="1330" y="-454.8" font-family="Times,serif" font-size="14.00">FVCPostPercent &lt;= 63.5</text>
<text text-anchor="middle" x="1330" y="-439.8" font-family="Times,serif" font-size="14.00">gini = 0.44</text>
<text text-anchor="middle" x="1330" y="-424.8" font-family="Times,serif" font-size="14.00">samples = 140</text>
<text text-anchor="middle" x="1330" y="-409.8" font-family="Times,serif" font-size="14.00">value = [140.198, 67.965]</text>
<text text-anchor="middle" x="1330" y="-394.8" font-family="Times,serif" font-size="14.00">class = Non&#45;obstructive</text>
</g>
<!-- 0&#45;&gt;14 -->
<g id="edge14" class="edge">
<title>0&#45;&gt;14</title>
<path fill="none" stroke="black" d="M1197.05,-520.97C1212.6,-511.14 1229.08,-500.74 1244.93,-490.73"/>
<polygon fill="black" stroke="black" points="1247.08,-493.51 1253.66,-485.21 1243.34,-487.59 1247.08,-493.51"/>
<text text-anchor="middle" x="1248.15" y="-505.9" font-family="Times,serif" font-size="14.00">False</text>
</g>
<!-- 2 -->
<g id="node3" class="node">
<title>2</title>
<polygon fill="none" stroke="black" points="659,-351 465,-351 465,-253 659,-253 659,-351"/>
<text text-anchor="middle" x="562" y="-335.8" font-family="Times,serif" font-size="14.00">node #2</text>
<text text-anchor="middle" x="562" y="-320.8" font-family="Times,serif" font-size="14.00">FEFPrePercent &lt;= 25.5</text>
<text text-anchor="middle" x="562" y="-305.8" font-family="Times,serif" font-size="14.00">gini = 0.498</text>
<text text-anchor="middle" x="562" y="-290.8" font-family="Times,serif" font-size="14.00">samples = 15</text>
<text text-anchor="middle" x="562" y="-275.8" font-family="Times,serif" font-size="14.00">value = [13.401, 11.651]</text>
<text text-anchor="middle" x="562" y="-260.8" font-family="Times,serif" font-size="14.00">class = Non&#45;obstructive</text>
</g>
<!-- 1&#45;&gt;2 -->
<g id="edge2" class="edge">
<title>1&#45;&gt;2</title>
<path fill="none" stroke="black" d="M910.95,-406.28C839.58,-385.15 742.61,-356.45 669.01,-334.67"/>
<polygon fill="black" stroke="black" points="669.82,-331.26 659.24,-331.78 667.83,-337.97 669.82,-331.26"/>
</g>
<!-- 9 -->
<g id="node10" class="node">
<title>9</title>
<polygon fill="none" stroke="black" points="1105,-351 911,-351 911,-253 1105,-253 1105,-351"/>
<text text-anchor="middle" x="1008" y="-335.8" font-family="Times,serif" font-size="14.00">node #9</text>
<text text-anchor="middle" x="1008" y="-320.8" font-family="Times,serif" font-size="14.00">FVCPostVal &lt;= 1.51</text>
<text text-anchor="middle" x="1008" y="-305.8" font-family="Times,serif" font-size="14.00">gini = 0.231</text>
<text text-anchor="middle" x="1008" y="-290.8" font-family="Times,serif" font-size="14.00">samples = 66</text>
<text text-anchor="middle" x="1008" y="-275.8" font-family="Times,serif" font-size="14.00">value = [13.401, 87.384]</text>
<text text-anchor="middle" x="1008" y="-260.8" font-family="Times,serif" font-size="14.00">class = Obstructive</text>
</g>
<!-- 1&#45;&gt;9 -->
<g id="edge9" class="edge">
<title>1&#45;&gt;9</title>
<path fill="none" stroke="black" d="M1008,-386.97C1008,-378.69 1008,-370 1008,-361.48"/>
<polygon fill="black" stroke="black" points="1011.5,-361.21 1008,-351.21 1004.5,-361.21 1011.5,-361.21"/>
</g>
<!-- 3 -->
<g id="node4" class="node">
<title>3</title>
<polygon fill="none" stroke="black" points="392.5,-217 195.5,-217 195.5,-119 392.5,-119 392.5,-217"/>
<text text-anchor="middle" x="294" y="-201.8" font-family="Times,serif" font-size="14.00">node #3</text>
<text text-anchor="middle" x="294" y="-186.8" font-family="Times,serif" font-size="14.00">FVCPostPercent &lt;= 38.0</text>
<text text-anchor="middle" x="294" y="-171.8" font-family="Times,serif" font-size="14.00">gini = 0.348</text>
<text text-anchor="middle" x="294" y="-156.8" font-family="Times,serif" font-size="14.00">samples = 9</text>
<text text-anchor="middle" x="294" y="-141.8" font-family="Times,serif" font-size="14.00">value = [3.093, 10.68]</text>
<text text-anchor="middle" x="294" y="-126.8" font-family="Times,serif" font-size="14.00">class = Obstructive</text>
</g>
<!-- 2&#45;&gt;3 -->
<g id="edge3" class="edge">
<title>2&#45;&gt;3</title>
<path fill="none" stroke="black" d="M464.87,-253.16C444.03,-242.89 421.9,-231.99 400.71,-221.56"/>
<polygon fill="black" stroke="black" points="402.22,-218.4 391.7,-217.12 399.13,-224.68 402.22,-218.4"/>
</g>
<!-- 6 -->
<g id="node7" class="node">
<title>6</title>
<polygon fill="none" stroke="black" points="662,-217 462,-217 462,-119 662,-119 662,-217"/>
<text text-anchor="middle" x="562" y="-201.8" font-family="Times,serif" font-size="14.00">node #6</text>
<text text-anchor="middle" x="562" y="-186.8" font-family="Times,serif" font-size="14.00">FEV1PrePercent &lt;= 36.0</text>
<text text-anchor="middle" x="562" y="-171.8" font-family="Times,serif" font-size="14.00">gini = 0.157</text>
<text text-anchor="middle" x="562" y="-156.8" font-family="Times,serif" font-size="14.00">samples = 6</text>
<text text-anchor="middle" x="562" y="-141.8" font-family="Times,serif" font-size="14.00">value = [10.309, 0.971]</text>
<text text-anchor="middle" x="562" y="-126.8" font-family="Times,serif" font-size="14.00">class = Non&#45;obstructive</text>
</g>
<!-- 2&#45;&gt;6 -->
<g id="edge6" class="edge">
<title>2&#45;&gt;6</title>
<path fill="none" stroke="black" d="M562,-252.97C562,-244.69 562,-236 562,-227.48"/>
<polygon fill="black" stroke="black" points="565.5,-227.21 562,-217.21 558.5,-227.21 565.5,-227.21"/>
</g>
<!-- 4 -->
<g id="node5" class="node">
<title>4</title>
<polygon fill="none" stroke="black" points="188,-83 0,-83 0,0 188,0 188,-83"/>
<text text-anchor="middle" x="94" y="-67.8" font-family="Times,serif" font-size="14.00">node #4</text>
<text text-anchor="middle" x="94" y="-52.8" font-family="Times,serif" font-size="14.00">gini = 0.435</text>
<text text-anchor="middle" x="94" y="-37.8" font-family="Times,serif" font-size="14.00">samples = 2</text>
<text text-anchor="middle" x="94" y="-22.8" font-family="Times,serif" font-size="14.00">value = [2.062, 0.971]</text>
<text text-anchor="middle" x="94" y="-7.8" font-family="Times,serif" font-size="14.00">class = Non&#45;obstructive</text>
</g>
<!-- 3&#45;&gt;4 -->
<g id="edge4" class="edge">
<title>3&#45;&gt;4</title>
<path fill="none" stroke="black" d="M216.67,-118.87C200.63,-108.88 183.76,-98.38 167.85,-88.47"/>
<polygon fill="black" stroke="black" points="169.45,-85.35 159.11,-83.03 165.75,-91.29 169.45,-85.35"/>
</g>
<!-- 5 -->
<g id="node6" class="node">
<title>5</title>
<polygon fill="none" stroke="black" points="382,-83 206,-83 206,0 382,0 382,-83"/>
<text text-anchor="middle" x="294" y="-67.8" font-family="Times,serif" font-size="14.00">node #5</text>
<text text-anchor="middle" x="294" y="-52.8" font-family="Times,serif" font-size="14.00">gini = 0.174</text>
<text text-anchor="middle" x="294" y="-37.8" font-family="Times,serif" font-size="14.00">samples = 7</text>
<text text-anchor="middle" x="294" y="-22.8" font-family="Times,serif" font-size="14.00">value = [1.031, 9.709]</text>
<text text-anchor="middle" x="294" y="-7.8" font-family="Times,serif" font-size="14.00">class = Obstructive</text>
</g>
<!-- 3&#45;&gt;5 -->
<g id="edge5" class="edge">
<title>3&#45;&gt;5</title>
<path fill="none" stroke="black" d="M294,-118.87C294,-110.5 294,-101.77 294,-93.33"/>
<polygon fill="black" stroke="black" points="297.5,-93.23 294,-83.23 290.5,-93.23 297.5,-93.23"/>
</g>
<!-- 7 -->
<g id="node8" class="node">
<title>7</title>
<polygon fill="none" stroke="black" points="588,-83 400,-83 400,0 588,0 588,-83"/>
<text text-anchor="middle" x="494" y="-67.8" font-family="Times,serif" font-size="14.00">node #7</text>
<text text-anchor="middle" x="494" y="-52.8" font-family="Times,serif" font-size="14.00">gini = 0.364</text>
<text text-anchor="middle" x="494" y="-37.8" font-family="Times,serif" font-size="14.00">samples = 3</text>
<text text-anchor="middle" x="494" y="-22.8" font-family="Times,serif" font-size="14.00">value = [3.093, 0.971]</text>
<text text-anchor="middle" x="494" y="-7.8" font-family="Times,serif" font-size="14.00">class = Non&#45;obstructive</text>
</g>
<!-- 6&#45;&gt;7 -->
<g id="edge7" class="edge">
<title>6&#45;&gt;7</title>
<path fill="none" stroke="black" d="M535.71,-118.87C530.94,-110.13 525.95,-101 521.16,-92.22"/>
<polygon fill="black" stroke="black" points="524.11,-90.33 516.25,-83.23 517.97,-93.68 524.11,-90.33"/>
</g>
<!-- 8 -->
<g id="node9" class="node">
<title>8</title>
<polygon fill="none" stroke="black" points="794,-83 606,-83 606,0 794,0 794,-83"/>
<text text-anchor="middle" x="700" y="-67.8" font-family="Times,serif" font-size="14.00">node #8</text>
<text text-anchor="middle" x="700" y="-52.8" font-family="Times,serif" font-size="14.00">gini = 0.0</text>
<text text-anchor="middle" x="700" y="-37.8" font-family="Times,serif" font-size="14.00">samples = 3</text>
<text text-anchor="middle" x="700" y="-22.8" font-family="Times,serif" font-size="14.00">value = [7.216, 0.0]</text>
<text text-anchor="middle" x="700" y="-7.8" font-family="Times,serif" font-size="14.00">class = Non&#45;obstructive</text>
</g>
<!-- 6&#45;&gt;8 -->
<g id="edge8" class="edge">
<title>6&#45;&gt;8</title>
<path fill="none" stroke="black" d="M615.35,-118.87C625.85,-109.39 636.86,-99.46 647.33,-90.01"/>
<polygon fill="black" stroke="black" points="649.77,-92.53 654.85,-83.23 645.08,-87.33 649.77,-92.53"/>
</g>
<!-- 10 -->
<g id="node11" class="node">
<title>10</title>
<polygon fill="none" stroke="black" points="919,-209.5 731,-209.5 731,-126.5 919,-126.5 919,-209.5"/>
<text text-anchor="middle" x="825" y="-194.3" font-family="Times,serif" font-size="14.00">node #10</text>
<text text-anchor="middle" x="825" y="-179.3" font-family="Times,serif" font-size="14.00">gini = 0.0</text>
<text text-anchor="middle" x="825" y="-164.3" font-family="Times,serif" font-size="14.00">samples = 3</text>
<text text-anchor="middle" x="825" y="-149.3" font-family="Times,serif" font-size="14.00">value = [3.093, 0.0]</text>
<text text-anchor="middle" x="825" y="-134.3" font-family="Times,serif" font-size="14.00">class = Non&#45;obstructive</text>
</g>
<!-- 9&#45;&gt;10 -->
<g id="edge10" class="edge">
<title>9&#45;&gt;10</title>
<path fill="none" stroke="black" d="M941.42,-252.97C924.47,-240.75 906.28,-227.63 889.44,-215.48"/>
<polygon fill="black" stroke="black" points="891.45,-212.61 881.29,-209.6 887.35,-218.29 891.45,-212.61"/>
</g>
<!-- 11 -->
<g id="node12" class="node">
<title>11</title>
<polygon fill="none" stroke="black" points="1131,-217 937,-217 937,-119 1131,-119 1131,-217"/>
<text text-anchor="middle" x="1034" y="-201.8" font-family="Times,serif" font-size="14.00">node #11</text>
<text text-anchor="middle" x="1034" y="-186.8" font-family="Times,serif" font-size="14.00">FEFPostVal &lt;= 0.715</text>
<text text-anchor="middle" x="1034" y="-171.8" font-family="Times,serif" font-size="14.00">gini = 0.189</text>
<text text-anchor="middle" x="1034" y="-156.8" font-family="Times,serif" font-size="14.00">samples = 63</text>
<text text-anchor="middle" x="1034" y="-141.8" font-family="Times,serif" font-size="14.00">value = [10.309, 87.384]</text>
<text text-anchor="middle" x="1034" y="-126.8" font-family="Times,serif" font-size="14.00">class = Obstructive</text>
</g>
<!-- 9&#45;&gt;11 -->
<g id="edge11" class="edge">
<title>9&#45;&gt;11</title>
<path fill="none" stroke="black" d="M1017.46,-252.97C1019.11,-244.6 1020.84,-235.81 1022.54,-227.2"/>
<polygon fill="black" stroke="black" points="1026,-227.7 1024.5,-217.21 1019.14,-226.35 1026,-227.7"/>
</g>
<!-- 12 -->
<g id="node13" class="node">
<title>12</title>
<polygon fill="none" stroke="black" points="979.5,-83 812.5,-83 812.5,0 979.5,0 979.5,-83"/>
<text text-anchor="middle" x="896" y="-67.8" font-family="Times,serif" font-size="14.00">node #12</text>
<text text-anchor="middle" x="896" y="-52.8" font-family="Times,serif" font-size="14.00">gini = 0.0</text>
<text text-anchor="middle" x="896" y="-37.8" font-family="Times,serif" font-size="14.00">samples = 30</text>
<text text-anchor="middle" x="896" y="-22.8" font-family="Times,serif" font-size="14.00">value = [0.0, 45.634]</text>
<text text-anchor="middle" x="896" y="-7.8" font-family="Times,serif" font-size="14.00">class = Obstructive</text>
</g>
<!-- 11&#45;&gt;12 -->
<g id="edge12" class="edge">
<title>11&#45;&gt;12</title>
<path fill="none" stroke="black" d="M980.65,-118.87C970.15,-109.39 959.14,-99.46 948.67,-90.01"/>
<polygon fill="black" stroke="black" points="950.92,-87.33 941.15,-83.23 946.23,-92.53 950.92,-87.33"/>
</g>
<!-- 13 -->
<g id="node14" class="node">
<title>13</title>
<polygon fill="none" stroke="black" points="1182.5,-83 997.5,-83 997.5,0 1182.5,0 1182.5,-83"/>
<text text-anchor="middle" x="1090" y="-67.8" font-family="Times,serif" font-size="14.00">node #13</text>
<text text-anchor="middle" x="1090" y="-52.8" font-family="Times,serif" font-size="14.00">gini = 0.318</text>
<text text-anchor="middle" x="1090" y="-37.8" font-family="Times,serif" font-size="14.00">samples = 33</text>
<text text-anchor="middle" x="1090" y="-22.8" font-family="Times,serif" font-size="14.00">value = [10.309, 41.75]</text>
<text text-anchor="middle" x="1090" y="-7.8" font-family="Times,serif" font-size="14.00">class = Obstructive</text>
</g>
<!-- 11&#45;&gt;13 -->
<g id="edge13" class="edge">
<title>11&#45;&gt;13</title>
<path fill="none" stroke="black" d="M1055.65,-118.87C1059.54,-110.22 1063.6,-101.2 1067.51,-92.5"/>
<polygon fill="black" stroke="black" points="1070.77,-93.79 1071.68,-83.23 1064.39,-90.92 1070.77,-93.79"/>
</g>
<!-- 15 -->
<g id="node16" class="node">
<title>15</title>
<polygon fill="none" stroke="black" points="1442,-351 1218,-351 1218,-253 1442,-253 1442,-351"/>
<text text-anchor="middle" x="1330" y="-335.8" font-family="Times,serif" font-size="14.00">node #15</text>
<text text-anchor="middle" x="1330" y="-320.8" font-family="Times,serif" font-size="14.00">FEV1PostPercent &lt;= 15.145</text>
<text text-anchor="middle" x="1330" y="-305.8" font-family="Times,serif" font-size="14.00">gini = 0.133</text>
<text text-anchor="middle" x="1330" y="-290.8" font-family="Times,serif" font-size="14.00">samples = 56</text>
<text text-anchor="middle" x="1330" y="-275.8" font-family="Times,serif" font-size="14.00">value = [75.253, 5.826]</text>
<text text-anchor="middle" x="1330" y="-260.8" font-family="Times,serif" font-size="14.00">class = Non&#45;obstructive</text>
</g>
<!-- 14&#45;&gt;15 -->
<g id="edge15" class="edge">
<title>14&#45;&gt;15</title>
<path fill="none" stroke="black" d="M1330,-386.97C1330,-378.69 1330,-370 1330,-361.48"/>
<polygon fill="black" stroke="black" points="1333.5,-361.21 1330,-351.21 1326.5,-361.21 1333.5,-361.21"/>
</g>
<!-- 20 -->
<g id="node21" class="node">
<title>20</title>
<polygon fill="none" stroke="black" points="1824,-351 1636,-351 1636,-253 1824,-253 1824,-351"/>
<text text-anchor="middle" x="1730" y="-335.8" font-family="Times,serif" font-size="14.00">node #20</text>
<text text-anchor="middle" x="1730" y="-320.8" font-family="Times,serif" font-size="14.00">FEV1PreVal &lt;= 2.725</text>
<text text-anchor="middle" x="1730" y="-305.8" font-family="Times,serif" font-size="14.00">gini = 0.5</text>
<text text-anchor="middle" x="1730" y="-290.8" font-family="Times,serif" font-size="14.00">samples = 84</text>
<text text-anchor="middle" x="1730" y="-275.8" font-family="Times,serif" font-size="14.00">value = [64.944, 62.14]</text>
<text text-anchor="middle" x="1730" y="-260.8" font-family="Times,serif" font-size="14.00">class = Non&#45;obstructive</text>
</g>
<!-- 14&#45;&gt;20 -->
<g id="edge20" class="edge">
<title>14&#45;&gt;20</title>
<path fill="none" stroke="black" d="M1431.71,-401.43C1491.24,-381.79 1566.23,-357.04 1626.12,-337.28"/>
<polygon fill="black" stroke="black" points="1627.58,-340.48 1635.98,-334.03 1625.39,-333.84 1627.58,-340.48"/>
</g>
<!-- 16 -->
<g id="node17" class="node">
<title>16</title>
<polygon fill="none" stroke="black" points="1363,-209.5 1205,-209.5 1205,-126.5 1363,-126.5 1363,-209.5"/>
<text text-anchor="middle" x="1284" y="-194.3" font-family="Times,serif" font-size="14.00">node #16</text>
<text text-anchor="middle" x="1284" y="-179.3" font-family="Times,serif" font-size="14.00">gini = 0.0</text>
<text text-anchor="middle" x="1284" y="-164.3" font-family="Times,serif" font-size="14.00">samples = 1</text>
<text text-anchor="middle" x="1284" y="-149.3" font-family="Times,serif" font-size="14.00">value = [0.0, 1.942]</text>
<text text-anchor="middle" x="1284" y="-134.3" font-family="Times,serif" font-size="14.00">class = Obstructive</text>
</g>
<!-- 15&#45;&gt;16 -->
<g id="edge16" class="edge">
<title>15&#45;&gt;16</title>
<path fill="none" stroke="black" d="M1313.26,-252.97C1309.45,-242.02 1305.38,-230.36 1301.54,-219.32"/>
<polygon fill="black" stroke="black" points="1304.82,-218.11 1298.22,-209.82 1298.21,-220.41 1304.82,-218.11"/>
</g>
<!-- 17 -->
<g id="node18" class="node">
<title>17</title>
<polygon fill="none" stroke="black" points="1581,-217 1381,-217 1381,-119 1581,-119 1581,-217"/>
<text text-anchor="middle" x="1481" y="-201.8" font-family="Times,serif" font-size="14.00">node #17</text>
<text text-anchor="middle" x="1481" y="-186.8" font-family="Times,serif" font-size="14.00">FEV1PrePercent &lt;= 68.5</text>
<text text-anchor="middle" x="1481" y="-171.8" font-family="Times,serif" font-size="14.00">gini = 0.093</text>
<text text-anchor="middle" x="1481" y="-156.8" font-family="Times,serif" font-size="14.00">samples = 55</text>
<text text-anchor="middle" x="1481" y="-141.8" font-family="Times,serif" font-size="14.00">value = [75.253, 3.884]</text>
<text text-anchor="middle" x="1481" y="-126.8" font-family="Times,serif" font-size="14.00">class = Non&#45;obstructive</text>
</g>
<!-- 15&#45;&gt;17 -->
<g id="edge17" class="edge">
<title>15&#45;&gt;17</title>
<path fill="none" stroke="black" d="M1384.94,-252.97C1395.77,-243.51 1407.2,-233.51 1418.26,-223.84"/>
<polygon fill="black" stroke="black" points="1420.62,-226.43 1425.85,-217.21 1416.01,-221.16 1420.62,-226.43"/>
</g>
<!-- 18 -->
<g id="node19" class="node">
<title>18</title>
<polygon fill="none" stroke="black" points="1389,-83 1201,-83 1201,0 1389,0 1389,-83"/>
<text text-anchor="middle" x="1295" y="-67.8" font-family="Times,serif" font-size="14.00">node #18</text>
<text text-anchor="middle" x="1295" y="-52.8" font-family="Times,serif" font-size="14.00">gini = 0.051</text>
<text text-anchor="middle" x="1295" y="-37.8" font-family="Times,serif" font-size="14.00">samples = 51</text>
<text text-anchor="middle" x="1295" y="-22.8" font-family="Times,serif" font-size="14.00">value = [72.16, 1.942]</text>
<text text-anchor="middle" x="1295" y="-7.8" font-family="Times,serif" font-size="14.00">class = Non&#45;obstructive</text>
</g>
<!-- 17&#45;&gt;18 -->
<g id="edge18" class="edge">
<title>17&#45;&gt;18</title>
<path fill="none" stroke="black" d="M1409.09,-118.87C1394.3,-108.97 1378.77,-98.57 1364.09,-88.74"/>
<polygon fill="black" stroke="black" points="1365.81,-85.69 1355.55,-83.03 1361.92,-91.5 1365.81,-85.69"/>
</g>
<!-- 19 -->
<g id="node20" class="node">
<title>19</title>
<polygon fill="none" stroke="black" points="1595,-83 1407,-83 1407,0 1595,0 1595,-83"/>
<text text-anchor="middle" x="1501" y="-67.8" font-family="Times,serif" font-size="14.00">node #19</text>
<text text-anchor="middle" x="1501" y="-52.8" font-family="Times,serif" font-size="14.00">gini = 0.474</text>
<text text-anchor="middle" x="1501" y="-37.8" font-family="Times,serif" font-size="14.00">samples = 4</text>
<text text-anchor="middle" x="1501" y="-22.8" font-family="Times,serif" font-size="14.00">value = [3.093, 1.942]</text>
<text text-anchor="middle" x="1501" y="-7.8" font-family="Times,serif" font-size="14.00">class = Non&#45;obstructive</text>
</g>
<!-- 17&#45;&gt;19 -->
<g id="edge19" class="edge">
<title>17&#45;&gt;19</title>
<path fill="none" stroke="black" d="M1488.73,-118.87C1490.08,-110.5 1491.48,-101.77 1492.83,-93.33"/>
<polygon fill="black" stroke="black" points="1496.33,-93.66 1494.46,-83.23 1489.42,-92.55 1496.33,-93.66"/>
</g>
<!-- 21 -->
<g id="node22" class="node">
<title>21</title>
<polygon fill="none" stroke="black" points="1825.5,-217 1634.5,-217 1634.5,-119 1825.5,-119 1825.5,-217"/>
<text text-anchor="middle" x="1730" y="-201.8" font-family="Times,serif" font-size="14.00">node #21</text>
<text text-anchor="middle" x="1730" y="-186.8" font-family="Times,serif" font-size="14.00">FEFPrePercent &lt;= 80.5</text>
<text text-anchor="middle" x="1730" y="-171.8" font-family="Times,serif" font-size="14.00">gini = 0.48</text>
<text text-anchor="middle" x="1730" y="-156.8" font-family="Times,serif" font-size="14.00">samples = 67</text>
<text text-anchor="middle" x="1730" y="-141.8" font-family="Times,serif" font-size="14.00">value = [59.79, 39.808]</text>
<text text-anchor="middle" x="1730" y="-126.8" font-family="Times,serif" font-size="14.00">class = Non&#45;obstructive</text>
</g>
<!-- 20&#45;&gt;21 -->
<g id="edge21" class="edge">
<title>20&#45;&gt;21</title>
<path fill="none" stroke="black" d="M1730,-252.97C1730,-244.69 1730,-236 1730,-227.48"/>
<polygon fill="black" stroke="black" points="1733.5,-227.21 1730,-217.21 1726.5,-227.21 1733.5,-227.21"/>
</g>
<!-- 24 -->
<g id="node25" class="node">
<title>24</title>
<polygon fill="none" stroke="black" points="2219,-217 2019,-217 2019,-119 2219,-119 2219,-217"/>
<text text-anchor="middle" x="2119" y="-201.8" font-family="Times,serif" font-size="14.00">node #24</text>
<text text-anchor="middle" x="2119" y="-186.8" font-family="Times,serif" font-size="14.00">FVCPrePercent &lt;= 101.5</text>
<text text-anchor="middle" x="2119" y="-171.8" font-family="Times,serif" font-size="14.00">gini = 0.305</text>
<text text-anchor="middle" x="2119" y="-156.8" font-family="Times,serif" font-size="14.00">samples = 17</text>
<text text-anchor="middle" x="2119" y="-141.8" font-family="Times,serif" font-size="14.00">value = [5.154, 22.331]</text>
<text text-anchor="middle" x="2119" y="-126.8" font-family="Times,serif" font-size="14.00">class = Obstructive</text>
</g>
<!-- 20&#45;&gt;24 -->
<g id="edge24" class="edge">
<title>20&#45;&gt;24</title>
<path fill="none" stroke="black" d="M1824.17,-269.05C1879.97,-250.11 1950.95,-226.02 2009.28,-206.23"/>
<polygon fill="black" stroke="black" points="2010.56,-209.49 2018.9,-202.97 2008.31,-202.87 2010.56,-209.49"/>
</g>
<!-- 22 -->
<g id="node23" class="node">
<title>22</title>
<polygon fill="none" stroke="black" points="1807,-83 1613,-83 1613,0 1807,0 1807,-83"/>
<text text-anchor="middle" x="1710" y="-67.8" font-family="Times,serif" font-size="14.00">node #22</text>
<text text-anchor="middle" x="1710" y="-52.8" font-family="Times,serif" font-size="14.00">gini = 0.47</text>
<text text-anchor="middle" x="1710" y="-37.8" font-family="Times,serif" font-size="14.00">samples = 39</text>
<text text-anchor="middle" x="1710" y="-22.8" font-family="Times,serif" font-size="14.00">value = [20.617, 33.983]</text>
<text text-anchor="middle" x="1710" y="-7.8" font-family="Times,serif" font-size="14.00">class = Obstructive</text>
</g>
<!-- 21&#45;&gt;22 -->
<g id="edge22" class="edge">
<title>21&#45;&gt;22</title>
<path fill="none" stroke="black" d="M1722.27,-118.87C1720.92,-110.5 1719.52,-101.77 1718.17,-93.33"/>
<polygon fill="black" stroke="black" points="1721.58,-92.55 1716.54,-83.23 1714.67,-93.66 1721.58,-92.55"/>
</g>
<!-- 23 -->
<g id="node24" class="node">
<title>23</title>
<polygon fill="none" stroke="black" points="2013,-83 1825,-83 1825,0 2013,0 2013,-83"/>
<text text-anchor="middle" x="1919" y="-67.8" font-family="Times,serif" font-size="14.00">node #23</text>
<text text-anchor="middle" x="1919" y="-52.8" font-family="Times,serif" font-size="14.00">gini = 0.225</text>
<text text-anchor="middle" x="1919" y="-37.8" font-family="Times,serif" font-size="14.00">samples = 28</text>
<text text-anchor="middle" x="1919" y="-22.8" font-family="Times,serif" font-size="14.00">value = [39.173, 5.826]</text>
<text text-anchor="middle" x="1919" y="-7.8" font-family="Times,serif" font-size="14.00">class = Non&#45;obstructive</text>
</g>
<!-- 21&#45;&gt;23 -->
<g id="edge23" class="edge">
<title>21&#45;&gt;23</title>
<path fill="none" stroke="black" d="M1803.07,-118.87C1818.09,-108.97 1833.88,-98.57 1848.8,-88.74"/>
<polygon fill="black" stroke="black" points="1851.04,-91.46 1857.47,-83.03 1847.19,-85.61 1851.04,-91.46"/>
</g>
<!-- 25 -->
<g id="node26" class="node">
<title>25</title>
<polygon fill="none" stroke="black" points="2207,-83 2031,-83 2031,0 2207,0 2207,-83"/>
<text text-anchor="middle" x="2119" y="-67.8" font-family="Times,serif" font-size="14.00">node #25</text>
<text text-anchor="middle" x="2119" y="-52.8" font-family="Times,serif" font-size="14.00">gini = 0.161</text>
<text text-anchor="middle" x="2119" y="-37.8" font-family="Times,serif" font-size="14.00">samples = 14</text>
<text text-anchor="middle" x="2119" y="-22.8" font-family="Times,serif" font-size="14.00">value = [2.062, 21.36]</text>
<text text-anchor="middle" x="2119" y="-7.8" font-family="Times,serif" font-size="14.00">class = Obstructive</text>
</g>
<!-- 24&#45;&gt;25 -->
<g id="edge25" class="edge">
<title>24&#45;&gt;25</title>
<path fill="none" stroke="black" d="M2119,-118.87C2119,-110.5 2119,-101.77 2119,-93.33"/>
<polygon fill="black" stroke="black" points="2122.5,-93.23 2119,-83.23 2115.5,-93.23 2122.5,-93.23"/>
</g>
<!-- 26 -->
<g id="node27" class="node">
<title>26</title>
<polygon fill="none" stroke="black" points="2413,-83 2225,-83 2225,0 2413,0 2413,-83"/>
<text text-anchor="middle" x="2319" y="-67.8" font-family="Times,serif" font-size="14.00">node #26</text>
<text text-anchor="middle" x="2319" y="-52.8" font-family="Times,serif" font-size="14.00">gini = 0.364</text>
<text text-anchor="middle" x="2319" y="-37.8" font-family="Times,serif" font-size="14.00">samples = 3</text>
<text text-anchor="middle" x="2319" y="-22.8" font-family="Times,serif" font-size="14.00">value = [3.093, 0.971]</text>
<text text-anchor="middle" x="2319" y="-7.8" font-family="Times,serif" font-size="14.00">class = Non&#45;obstructive</text>
</g>
<!-- 24&#45;&gt;26 -->
<g id="edge26" class="edge">
<title>24&#45;&gt;26</title>
<path fill="none" stroke="black" d="M2196.33,-118.87C2212.37,-108.88 2229.24,-98.38 2245.15,-88.47"/>
<polygon fill="black" stroke="black" points="2247.25,-91.29 2253.89,-83.03 2243.55,-85.35 2247.25,-91.29"/>
</g>
</g>
</svg>
