<?xml version="1.0" encoding="UTF-8" standalone="no"?>
<!DOCTYPE svg PUBLIC "-//W3C//DTD SVG 1.1//EN"
 "http://www.w3.org/Graphics/SVG/1.1/DTD/svg11.dtd">
<!-- Generated by graphviz version 2.43.0 (0)
 -->
<!-- Title: Tree Pages: 1 -->
<svg width="2373pt" height="627pt"
 viewBox="0.00 0.00 2373.00 627.00" xmlns="http://www.w3.org/2000/svg" xmlns:xlink="http://www.w3.org/1999/xlink">
<g id="graph0" class="graph" transform="scale(1 1) rotate(0) translate(4 623)">
<title>Tree</title>
<polygon fill="white" stroke="transparent" points="-4,4 -4,-623 2369,-623 2369,4 -4,4"/>
<!-- 0 -->
<g id="node1" class="node">
<title>0</title>
<polygon fill="none" stroke="black" points="1560.5,-619 1369.5,-619 1369.5,-521 1560.5,-521 1560.5,-619"/>
<text text-anchor="middle" x="1465" y="-603.8" font-family="Times,serif" font-size="14.00">node #0</text>
<text text-anchor="middle" x="1465" y="-588.8" font-family="Times,serif" font-size="14.00">FEFPrePercent &lt;= 56.5</text>
<text text-anchor="middle" x="1465" y="-573.8" font-family="Times,serif" font-size="14.00">gini = 0.5</text>
<text text-anchor="middle" x="1465" y="-558.8" font-family="Times,serif" font-size="14.00">samples = 209</text>
<text text-anchor="middle" x="1465" y="-543.8" font-family="Times,serif" font-size="14.00">value = [167.0, 167.0]</text>
<text text-anchor="middle" x="1465" y="-528.8" font-family="Times,serif" font-size="14.00">class = Obstructive</text>
</g>
<!-- 1 -->
<g id="node2" class="node">
<title>1</title>
<polygon fill="none" stroke="black" points="1278,-485 1084,-485 1084,-387 1278,-387 1278,-485"/>
<text text-anchor="middle" x="1181" y="-469.8" font-family="Times,serif" font-size="14.00">node #1</text>
<text text-anchor="middle" x="1181" y="-454.8" font-family="Times,serif" font-size="14.00">FEFPostVal &lt;= 1.305</text>
<text text-anchor="middle" x="1181" y="-439.8" font-family="Times,serif" font-size="14.00">gini = 0.309</text>
<text text-anchor="middle" x="1181" y="-424.8" font-family="Times,serif" font-size="14.00">samples = 109</text>
<text text-anchor="middle" x="1181" y="-409.8" font-family="Times,serif" font-size="14.00">value = [32.418, 137.47]</text>
<text text-anchor="middle" x="1181" y="-394.8" font-family="Times,serif" font-size="14.00">class = Obstructive</text>
</g>
<!-- 0&#45;&gt;1 -->
<g id="edge1" class="edge">
<title>0&#45;&gt;1</title>
<path fill="none" stroke="black" d="M1369.25,-524.49C1343.03,-512.31 1314.45,-499.03 1287.67,-486.58"/>
<polygon fill="black" stroke="black" points="1288.82,-483.25 1278.27,-482.21 1285.87,-489.6 1288.82,-483.25"/>
<text text-anchor="middle" x="1286.85" y="-501.99" font-family="Times,serif" font-size="14.00">True</text>
</g>
<!-- 16 -->
<g id="node17" class="node">
<title>16</title>
<polygon fill="none" stroke="black" points="1768,-485 1574,-485 1574,-387 1768,-387 1768,-485"/>
<text text-anchor="middle" x="1671" y="-469.8" font-family="Times,serif" font-size="14.00">node #16</text>
<text text-anchor="middle" x="1671" y="-454.8" font-family="Times,serif" font-size="14.00">FVCPrePercent &lt;= 73.5</text>
<text text-anchor="middle" x="1671" y="-439.8" font-family="Times,serif" font-size="14.00">gini = 0.295</text>
<text text-anchor="middle" x="1671" y="-424.8" font-family="Times,serif" font-size="14.00">samples = 100</text>
<text text-anchor="middle" x="1671" y="-409.8" font-family="Times,serif" font-size="14.00">value = [134.582, 29.53]</text>
<text text-anchor="middle" x="1671" y="-394.8" font-family="Times,serif" font-size="14.00">class = Non&#45;obstructive</text>
</g>
<!-- 0&#45;&gt;16 -->
<g id="edge16" class="edge">
<title>0&#45;&gt;16</title>
<path fill="none" stroke="black" d="M1539.95,-520.97C1555.29,-511.14 1571.52,-500.74 1587.15,-490.73"/>
<polygon fill="black" stroke="black" points="1589.23,-493.56 1595.76,-485.21 1585.45,-487.66 1589.23,-493.56"/>
<text text-anchor="middle" x="1590.41" y="-505.94" font-family="Times,serif" font-size="14.00">False</text>
</g>
<!-- 2 -->
<g id="node3" class="node">
<title>2</title>
<polygon fill="none" stroke="black" points="687.5,-351 484.5,-351 484.5,-253 687.5,-253 687.5,-351"/>
<text text-anchor="middle" x="586" y="-335.8" font-family="Times,serif" font-size="14.00">node #2</text>
<text text-anchor="middle" x="586" y="-320.8" font-family="Times,serif" font-size="14.00">FVCPostVal &lt;= 1.5</text>
<text text-anchor="middle" x="586" y="-305.8" font-family="Times,serif" font-size="14.00">gini = 0.171</text>
<text text-anchor="middle" x="586" y="-290.8" font-family="Times,serif" font-size="14.00">samples = 69</text>
<text text-anchor="middle" x="586" y="-275.8" font-family="Times,serif" font-size="14.00">value = [10.806, 103.866]</text>
<text text-anchor="middle" x="586" y="-260.8" font-family="Times,serif" font-size="14.00">class = Obstructive</text>
</g>
<!-- 1&#45;&gt;2 -->
<g id="edge2" class="edge">
<title>1&#45;&gt;2</title>
<path fill="none" stroke="black" d="M1083.75,-413.42C977.88,-389.94 808.87,-352.44 697.65,-327.77"/>
<polygon fill="black" stroke="black" points="698.27,-324.32 687.74,-325.57 696.75,-331.15 698.27,-324.32"/>
</g>
<!-- 9 -->
<g id="node10" class="node">
<title>9</title>
<polygon fill="none" stroke="black" points="1278,-351 1084,-351 1084,-253 1278,-253 1278,-351"/>
<text text-anchor="middle" x="1181" y="-335.8" font-family="Times,serif" font-size="14.00">node #9</text>
<text text-anchor="middle" x="1181" y="-320.8" font-family="Times,serif" font-size="14.00">FEV1PostVal &lt;= 1.735</text>
<text text-anchor="middle" x="1181" y="-305.8" font-family="Times,serif" font-size="14.00">gini = 0.476</text>
<text text-anchor="middle" x="1181" y="-290.8" font-family="Times,serif" font-size="14.00">samples = 40</text>
<text text-anchor="middle" x="1181" y="-275.8" font-family="Times,serif" font-size="14.00">value = [21.612, 33.604]</text>
<text text-anchor="middle" x="1181" y="-260.8" font-family="Times,serif" font-size="14.00">class = Obstructive</text>
</g>
<!-- 1&#45;&gt;9 -->
<g id="edge9" class="edge">
<title>1&#45;&gt;9</title>
<path fill="none" stroke="black" d="M1181,-386.97C1181,-378.69 1181,-370 1181,-361.48"/>
<polygon fill="black" stroke="black" points="1184.5,-361.21 1181,-351.21 1177.5,-361.21 1184.5,-361.21"/>
</g>
<!-- 3 -->
<g id="node4" class="node">
<title>3</title>
<polygon fill="none" stroke="black" points="376,-217 200,-217 200,-119 376,-119 376,-217"/>
<text text-anchor="middle" x="288" y="-201.8" font-family="Times,serif" font-size="14.00">node #3</text>
<text text-anchor="middle" x="288" y="-186.8" font-family="Times,serif" font-size="14.00">FVCPreVal &lt;= 1.22</text>
<text text-anchor="middle" x="288" y="-171.8" font-family="Times,serif" font-size="14.00">gini = 0.476</text>
<text text-anchor="middle" x="288" y="-156.8" font-family="Times,serif" font-size="14.00">samples = 16</text>
<text text-anchor="middle" x="288" y="-141.8" font-family="Times,serif" font-size="14.00">value = [7.859, 12.22]</text>
<text text-anchor="middle" x="288" y="-126.8" font-family="Times,serif" font-size="14.00">class = Obstructive</text>
</g>
<!-- 2&#45;&gt;3 -->
<g id="edge3" class="edge">
<title>2&#45;&gt;3</title>
<path fill="none" stroke="black" d="M484.28,-255.94C452.36,-241.8 417.21,-226.23 385.58,-212.22"/>
<polygon fill="black" stroke="black" points="386.89,-208.97 376.33,-208.12 384.05,-215.37 386.89,-208.97"/>
</g>
<!-- 6 -->
<g id="node7" class="node">
<title>6</title>
<polygon fill="none" stroke="black" points="684.5,-217 487.5,-217 487.5,-119 684.5,-119 684.5,-217"/>
<text text-anchor="middle" x="586" y="-201.8" font-family="Times,serif" font-size="14.00">node #6</text>
<text text-anchor="middle" x="586" y="-186.8" font-family="Times,serif" font-size="14.00">FEFPostPercent &lt;= 23.5</text>
<text text-anchor="middle" x="586" y="-171.8" font-family="Times,serif" font-size="14.00">gini = 0.06</text>
<text text-anchor="middle" x="586" y="-156.8" font-family="Times,serif" font-size="14.00">samples = 53</text>
<text text-anchor="middle" x="586" y="-141.8" font-family="Times,serif" font-size="14.00">value = [2.947, 91.646]</text>
<text text-anchor="middle" x="586" y="-126.8" font-family="Times,serif" font-size="14.00">class = Obstructive</text>
</g>
<!-- 2&#45;&gt;6 -->
<g id="edge6" class="edge">
<title>2&#45;&gt;6</title>
<path fill="none" stroke="black" d="M586,-252.97C586,-244.69 586,-236 586,-227.48"/>
<polygon fill="black" stroke="black" points="589.5,-227.21 586,-217.21 582.5,-227.21 589.5,-227.21"/>
</g>
<!-- 4 -->
<g id="node5" class="node">
<title>4</title>
<polygon fill="none" stroke="black" points="176,-83 0,-83 0,0 176,0 176,-83"/>
<text text-anchor="middle" x="88" y="-67.8" font-family="Times,serif" font-size="14.00">node #4</text>
<text text-anchor="middle" x="88" y="-52.8" font-family="Times,serif" font-size="14.00">gini = 0.368</text>
<text text-anchor="middle" x="88" y="-37.8" font-family="Times,serif" font-size="14.00">samples = 12</text>
<text text-anchor="middle" x="88" y="-22.8" font-family="Times,serif" font-size="14.00">value = [3.929, 12.22]</text>
<text text-anchor="middle" x="88" y="-7.8" font-family="Times,serif" font-size="14.00">class = Obstructive</text>
</g>
<!-- 3&#45;&gt;4 -->
<g id="edge4" class="edge">
<title>3&#45;&gt;4</title>
<path fill="none" stroke="black" d="M210.67,-118.87C194.63,-108.88 177.76,-98.38 161.85,-88.47"/>
<polygon fill="black" stroke="black" points="163.45,-85.35 153.11,-83.03 159.75,-91.29 163.45,-85.35"/>
</g>
<!-- 5 -->
<g id="node6" class="node">
<title>5</title>
<polygon fill="none" stroke="black" points="382,-83 194,-83 194,0 382,0 382,-83"/>
<text text-anchor="middle" x="288" y="-67.8" font-family="Times,serif" font-size="14.00">node #5</text>
<text text-anchor="middle" x="288" y="-52.8" font-family="Times,serif" font-size="14.00">gini = &#45;0.0</text>
<text text-anchor="middle" x="288" y="-37.8" font-family="Times,serif" font-size="14.00">samples = 4</text>
<text text-anchor="middle" x="288" y="-22.8" font-family="Times,serif" font-size="14.00">value = [3.929, 0.0]</text>
<text text-anchor="middle" x="288" y="-7.8" font-family="Times,serif" font-size="14.00">class = Non&#45;obstructive</text>
</g>
<!-- 3&#45;&gt;5 -->
<g id="edge5" class="edge">
<title>3&#45;&gt;5</title>
<path fill="none" stroke="black" d="M288,-118.87C288,-110.5 288,-101.77 288,-93.33"/>
<polygon fill="black" stroke="black" points="291.5,-93.23 288,-83.23 284.5,-93.23 291.5,-93.23"/>
</g>
<!-- 7 -->
<g id="node8" class="node">
<title>7</title>
<polygon fill="none" stroke="black" points="567.5,-83 400.5,-83 400.5,0 567.5,0 567.5,-83"/>
<text text-anchor="middle" x="484" y="-67.8" font-family="Times,serif" font-size="14.00">node #7</text>
<text text-anchor="middle" x="484" y="-52.8" font-family="Times,serif" font-size="14.00">gini = &#45;0.0</text>
<text text-anchor="middle" x="484" y="-37.8" font-family="Times,serif" font-size="14.00">samples = 32</text>
<text text-anchor="middle" x="484" y="-22.8" font-family="Times,serif" font-size="14.00">value = [0.0, 61.098]</text>
<text text-anchor="middle" x="484" y="-7.8" font-family="Times,serif" font-size="14.00">class = Obstructive</text>
</g>
<!-- 6&#45;&gt;7 -->
<g id="edge7" class="edge">
<title>6&#45;&gt;7</title>
<path fill="none" stroke="black" d="M546.56,-118.87C539.11,-109.76 531.3,-100.23 523.83,-91.12"/>
<polygon fill="black" stroke="black" points="526.41,-88.75 517.37,-83.23 521,-93.18 526.41,-88.75"/>
</g>
<!-- 8 -->
<g id="node9" class="node">
<title>8</title>
<polygon fill="none" stroke="black" points="770.5,-83 585.5,-83 585.5,0 770.5,0 770.5,-83"/>
<text text-anchor="middle" x="678" y="-67.8" font-family="Times,serif" font-size="14.00">node #8</text>
<text text-anchor="middle" x="678" y="-52.8" font-family="Times,serif" font-size="14.00">gini = 0.16</text>
<text text-anchor="middle" x="678" y="-37.8" font-family="Times,serif" font-size="14.00">samples = 21</text>
<text text-anchor="middle" x="678" y="-22.8" font-family="Times,serif" font-size="14.00">value = [2.947, 30.549]</text>
<text text-anchor="middle" x="678" y="-7.8" font-family="Times,serif" font-size="14.00">class = Obstructive</text>
</g>
<!-- 6&#45;&gt;8 -->
<g id="edge8" class="edge">
<title>6&#45;&gt;8</title>
<path fill="none" stroke="black" d="M621.57,-118.87C628.23,-109.85 635.19,-100.43 641.87,-91.39"/>
<polygon fill="black" stroke="black" points="644.77,-93.35 647.9,-83.23 639.14,-89.19 644.77,-93.35"/>
</g>
<!-- 10 -->
<g id="node11" class="node">
<title>10</title>
<polygon fill="none" stroke="black" points="1180,-217 980,-217 980,-119 1180,-119 1180,-217"/>
<text text-anchor="middle" x="1080" y="-201.8" font-family="Times,serif" font-size="14.00">node #10</text>
<text text-anchor="middle" x="1080" y="-186.8" font-family="Times,serif" font-size="14.00">FEV1PrePercent &lt;= 61.0</text>
<text text-anchor="middle" x="1080" y="-171.8" font-family="Times,serif" font-size="14.00">gini = 0.304</text>
<text text-anchor="middle" x="1080" y="-156.8" font-family="Times,serif" font-size="14.00">samples = 17</text>
<text text-anchor="middle" x="1080" y="-141.8" font-family="Times,serif" font-size="14.00">value = [17.682, 4.073]</text>
<text text-anchor="middle" x="1080" y="-126.8" font-family="Times,serif" font-size="14.00">class = Non&#45;obstructive</text>
</g>
<!-- 9&#45;&gt;10 -->
<g id="edge10" class="edge">
<title>9&#45;&gt;10</title>
<path fill="none" stroke="black" d="M1144.25,-252.97C1137.36,-243.96 1130.1,-234.47 1123.03,-225.24"/>
<polygon fill="black" stroke="black" points="1125.75,-223.03 1116.89,-217.21 1120.19,-227.28 1125.75,-223.03"/>
</g>
<!-- 13 -->
<g id="node14" class="node">
<title>13</title>
<polygon fill="none" stroke="black" points="1374,-217 1198,-217 1198,-119 1374,-119 1374,-217"/>
<text text-anchor="middle" x="1286" y="-201.8" font-family="Times,serif" font-size="14.00">node #13</text>
<text text-anchor="middle" x="1286" y="-186.8" font-family="Times,serif" font-size="14.00">FEFPostVal &lt;= 1.315</text>
<text text-anchor="middle" x="1286" y="-171.8" font-family="Times,serif" font-size="14.00">gini = 0.207</text>
<text text-anchor="middle" x="1286" y="-156.8" font-family="Times,serif" font-size="14.00">samples = 23</text>
<text text-anchor="middle" x="1286" y="-141.8" font-family="Times,serif" font-size="14.00">value = [3.929, 29.53]</text>
<text text-anchor="middle" x="1286" y="-126.8" font-family="Times,serif" font-size="14.00">class = Obstructive</text>
</g>
<!-- 9&#45;&gt;13 -->
<g id="edge13" class="edge">
<title>9&#45;&gt;13</title>
<path fill="none" stroke="black" d="M1219.2,-252.97C1226.37,-243.96 1233.92,-234.47 1241.26,-225.24"/>
<polygon fill="black" stroke="black" points="1244.16,-227.22 1247.65,-217.21 1238.68,-222.86 1244.16,-227.22"/>
</g>
<!-- 11 -->
<g id="node12" class="node">
<title>11</title>
<polygon fill="none" stroke="black" points="977,-83 789,-83 789,0 977,0 977,-83"/>
<text text-anchor="middle" x="883" y="-67.8" font-family="Times,serif" font-size="14.00">node #11</text>
<text text-anchor="middle" x="883" y="-52.8" font-family="Times,serif" font-size="14.00">gini = &#45;0.0</text>
<text text-anchor="middle" x="883" y="-37.8" font-family="Times,serif" font-size="14.00">samples = 13</text>
<text text-anchor="middle" x="883" y="-22.8" font-family="Times,serif" font-size="14.00">value = [16.7, 0.0]</text>
<text text-anchor="middle" x="883" y="-7.8" font-family="Times,serif" font-size="14.00">class = Non&#45;obstructive</text>
</g>
<!-- 10&#45;&gt;11 -->
<g id="edge11" class="edge">
<title>10&#45;&gt;11</title>
<path fill="none" stroke="black" d="M1003.83,-118.87C988.03,-108.88 971.42,-98.38 955.74,-88.47"/>
<polygon fill="black" stroke="black" points="957.46,-85.42 947.14,-83.03 953.72,-91.33 957.46,-85.42"/>
</g>
<!-- 12 -->
<g id="node13" class="node">
<title>12</title>
<polygon fill="none" stroke="black" points="1171,-83 995,-83 995,0 1171,0 1171,-83"/>
<text text-anchor="middle" x="1083" y="-67.8" font-family="Times,serif" font-size="14.00">node #12</text>
<text text-anchor="middle" x="1083" y="-52.8" font-family="Times,serif" font-size="14.00">gini = 0.313</text>
<text text-anchor="middle" x="1083" y="-37.8" font-family="Times,serif" font-size="14.00">samples = 4</text>
<text text-anchor="middle" x="1083" y="-22.8" font-family="Times,serif" font-size="14.00">value = [0.982, 4.073]</text>
<text text-anchor="middle" x="1083" y="-7.8" font-family="Times,serif" font-size="14.00">class = Obstructive</text>
</g>
<!-- 10&#45;&gt;12 -->
<g id="edge12" class="edge">
<title>10&#45;&gt;12</title>
<path fill="none" stroke="black" d="M1081.16,-118.87C1081.36,-110.5 1081.57,-101.77 1081.78,-93.33"/>
<polygon fill="black" stroke="black" points="1085.28,-93.31 1082.02,-83.23 1078.28,-93.14 1085.28,-93.31"/>
</g>
<!-- 14 -->
<g id="node15" class="node">
<title>14</title>
<polygon fill="none" stroke="black" points="1377,-83 1189,-83 1189,0 1377,0 1377,-83"/>
<text text-anchor="middle" x="1283" y="-67.8" font-family="Times,serif" font-size="14.00">node #14</text>
<text text-anchor="middle" x="1283" y="-52.8" font-family="Times,serif" font-size="14.00">gini = 0.0</text>
<text text-anchor="middle" x="1283" y="-37.8" font-family="Times,serif" font-size="14.00">samples = 1</text>
<text text-anchor="middle" x="1283" y="-22.8" font-family="Times,serif" font-size="14.00">value = [0.982, 0.0]</text>
<text text-anchor="middle" x="1283" y="-7.8" font-family="Times,serif" font-size="14.00">class = Non&#45;obstructive</text>
</g>
<!-- 13&#45;&gt;14 -->
<g id="edge14" class="edge">
<title>13&#45;&gt;14</title>
<path fill="none" stroke="black" d="M1284.84,-118.87C1284.64,-110.5 1284.43,-101.77 1284.22,-93.33"/>
<polygon fill="black" stroke="black" points="1287.72,-93.14 1283.98,-83.23 1280.72,-93.31 1287.72,-93.14"/>
</g>
<!-- 15 -->
<g id="node16" class="node">
<title>15</title>
<polygon fill="none" stroke="black" points="1571,-83 1395,-83 1395,0 1571,0 1571,-83"/>
<text text-anchor="middle" x="1483" y="-67.8" font-family="Times,serif" font-size="14.00">node #15</text>
<text text-anchor="middle" x="1483" y="-52.8" font-family="Times,serif" font-size="14.00">gini = 0.165</text>
<text text-anchor="middle" x="1483" y="-37.8" font-family="Times,serif" font-size="14.00">samples = 22</text>
<text text-anchor="middle" x="1483" y="-22.8" font-family="Times,serif" font-size="14.00">value = [2.947, 29.53]</text>
<text text-anchor="middle" x="1483" y="-7.8" font-family="Times,serif" font-size="14.00">class = Obstructive</text>
</g>
<!-- 13&#45;&gt;15 -->
<g id="edge15" class="edge">
<title>13&#45;&gt;15</title>
<path fill="none" stroke="black" d="M1362.17,-118.87C1377.97,-108.88 1394.58,-98.38 1410.26,-88.47"/>
<polygon fill="black" stroke="black" points="1412.28,-91.33 1418.86,-83.03 1408.54,-85.42 1412.28,-91.33"/>
</g>
<!-- 17 -->
<g id="node18" class="node">
<title>17</title>
<polygon fill="none" stroke="black" points="1768,-351 1574,-351 1574,-253 1768,-253 1768,-351"/>
<text text-anchor="middle" x="1671" y="-335.8" font-family="Times,serif" font-size="14.00">node #17</text>
<text text-anchor="middle" x="1671" y="-320.8" font-family="Times,serif" font-size="14.00">FEV1PostVal &lt;= 1.735</text>
<text text-anchor="middle" x="1671" y="-305.8" font-family="Times,serif" font-size="14.00">gini = 0.037</text>
<text text-anchor="middle" x="1671" y="-290.8" font-family="Times,serif" font-size="14.00">samples = 66</text>
<text text-anchor="middle" x="1671" y="-275.8" font-family="Times,serif" font-size="14.00">value = [105.112, 2.037]</text>
<text text-anchor="middle" x="1671" y="-260.8" font-family="Times,serif" font-size="14.00">class = Non&#45;obstructive</text>
</g>
<!-- 16&#45;&gt;17 -->
<g id="edge17" class="edge">
<title>16&#45;&gt;17</title>
<path fill="none" stroke="black" d="M1671,-386.97C1671,-378.69 1671,-370 1671,-361.48"/>
<polygon fill="black" stroke="black" points="1674.5,-361.21 1671,-351.21 1667.5,-361.21 1674.5,-361.21"/>
</g>
<!-- 22 -->
<g id="node23" class="node">
<title>22</title>
<polygon fill="none" stroke="black" points="2177,-351 1983,-351 1983,-253 2177,-253 2177,-351"/>
<text text-anchor="middle" x="2080" y="-335.8" font-family="Times,serif" font-size="14.00">node #22</text>
<text text-anchor="middle" x="2080" y="-320.8" font-family="Times,serif" font-size="14.00">FVCPostVal &lt;= 3.33</text>
<text text-anchor="middle" x="2080" y="-305.8" font-family="Times,serif" font-size="14.00">gini = 0.499</text>
<text text-anchor="middle" x="2080" y="-290.8" font-family="Times,serif" font-size="14.00">samples = 34</text>
<text text-anchor="middle" x="2080" y="-275.8" font-family="Times,serif" font-size="14.00">value = [29.471, 27.494]</text>
<text text-anchor="middle" x="2080" y="-260.8" font-family="Times,serif" font-size="14.00">class = Non&#45;obstructive</text>
</g>
<!-- 16&#45;&gt;22 -->
<g id="edge22" class="edge">
<title>16&#45;&gt;22</title>
<path fill="none" stroke="black" d="M1768.19,-403.63C1829.87,-383.73 1909.73,-357.95 1973.19,-337.47"/>
<polygon fill="black" stroke="black" points="1974.38,-340.76 1982.83,-334.36 1972.23,-334.1 1974.38,-340.76"/>
</g>
<!-- 18 -->
<g id="node19" class="node">
<title>18</title>
<polygon fill="none" stroke="black" points="1658,-209.5 1470,-209.5 1470,-126.5 1658,-126.5 1658,-209.5"/>
<text text-anchor="middle" x="1564" y="-194.3" font-family="Times,serif" font-size="14.00">node #18</text>
<text text-anchor="middle" x="1564" y="-179.3" font-family="Times,serif" font-size="14.00">gini = 0.0</text>
<text text-anchor="middle" x="1564" y="-164.3" font-family="Times,serif" font-size="14.00">samples = 42</text>
<text text-anchor="middle" x="1564" y="-149.3" font-family="Times,serif" font-size="14.00">value = [70.729, 0.0]</text>
<text text-anchor="middle" x="1564" y="-134.3" font-family="Times,serif" font-size="14.00">class = Non&#45;obstructive</text>
</g>
<!-- 17&#45;&gt;18 -->
<g id="edge18" class="edge">
<title>17&#45;&gt;18</title>
<path fill="none" stroke="black" d="M1632.07,-252.97C1622.75,-241.47 1612.79,-229.18 1603.44,-217.66"/>
<polygon fill="black" stroke="black" points="1606.1,-215.38 1597.09,-209.82 1600.66,-219.79 1606.1,-215.38"/>
</g>
<!-- 19 -->
<g id="node20" class="node">
<title>19</title>
<polygon fill="none" stroke="black" points="1882,-217 1676,-217 1676,-119 1882,-119 1882,-217"/>
<text text-anchor="middle" x="1779" y="-201.8" font-family="Times,serif" font-size="14.00">node #19</text>
<text text-anchor="middle" x="1779" y="-186.8" font-family="Times,serif" font-size="14.00">FEFPostPercent &lt;= 109.5</text>
<text text-anchor="middle" x="1779" y="-171.8" font-family="Times,serif" font-size="14.00">gini = 0.106</text>
<text text-anchor="middle" x="1779" y="-156.8" font-family="Times,serif" font-size="14.00">samples = 24</text>
<text text-anchor="middle" x="1779" y="-141.8" font-family="Times,serif" font-size="14.00">value = [34.382, 2.037]</text>
<text text-anchor="middle" x="1779" y="-126.8" font-family="Times,serif" font-size="14.00">class = Non&#45;obstructive</text>
</g>
<!-- 17&#45;&gt;19 -->
<g id="edge19" class="edge">
<title>17&#45;&gt;19</title>
<path fill="none" stroke="black" d="M1710.3,-252.97C1717.74,-243.87 1725.59,-234.28 1733.21,-224.96"/>
<polygon fill="black" stroke="black" points="1735.93,-227.17 1739.55,-217.21 1730.51,-222.74 1735.93,-227.17"/>
</g>
<!-- 20 -->
<g id="node21" class="node">
<title>20</title>
<polygon fill="none" stroke="black" points="1777,-83 1589,-83 1589,0 1777,0 1777,-83"/>
<text text-anchor="middle" x="1683" y="-67.8" font-family="Times,serif" font-size="14.00">node #20</text>
<text text-anchor="middle" x="1683" y="-52.8" font-family="Times,serif" font-size="14.00">gini = 0.0</text>
<text text-anchor="middle" x="1683" y="-37.8" font-family="Times,serif" font-size="14.00">samples = 13</text>
<text text-anchor="middle" x="1683" y="-22.8" font-family="Times,serif" font-size="14.00">value = [18.665, 0.0]</text>
<text text-anchor="middle" x="1683" y="-7.8" font-family="Times,serif" font-size="14.00">class = Non&#45;obstructive</text>
</g>
<!-- 19&#45;&gt;20 -->
<g id="edge20" class="edge">
<title>19&#45;&gt;20</title>
<path fill="none" stroke="black" d="M1741.88,-118.87C1734.94,-109.85 1727.67,-100.43 1720.7,-91.39"/>
<polygon fill="black" stroke="black" points="1723.29,-89.01 1714.41,-83.23 1717.74,-93.29 1723.29,-89.01"/>
</g>
<!-- 21 -->
<g id="node22" class="node">
<title>21</title>
<polygon fill="none" stroke="black" points="1983,-83 1795,-83 1795,0 1983,0 1983,-83"/>
<text text-anchor="middle" x="1889" y="-67.8" font-family="Times,serif" font-size="14.00">node #21</text>
<text text-anchor="middle" x="1889" y="-52.8" font-family="Times,serif" font-size="14.00">gini = 0.203</text>
<text text-anchor="middle" x="1889" y="-37.8" font-family="Times,serif" font-size="14.00">samples = 11</text>
<text text-anchor="middle" x="1889" y="-22.8" font-family="Times,serif" font-size="14.00">value = [15.718, 2.037]</text>
<text text-anchor="middle" x="1889" y="-7.8" font-family="Times,serif" font-size="14.00">class = Non&#45;obstructive</text>
</g>
<!-- 19&#45;&gt;21 -->
<g id="edge21" class="edge">
<title>19&#45;&gt;21</title>
<path fill="none" stroke="black" d="M1821.53,-118.87C1829.65,-109.67 1838.16,-100.04 1846.29,-90.84"/>
<polygon fill="black" stroke="black" points="1849.01,-93.04 1853.01,-83.23 1843.77,-88.41 1849.01,-93.04"/>
</g>
<!-- 23 -->
<g id="node24" class="node">
<title>23</title>
<polygon fill="none" stroke="black" points="2178.5,-217 1981.5,-217 1981.5,-119 2178.5,-119 2178.5,-217"/>
<text text-anchor="middle" x="2080" y="-201.8" font-family="Times,serif" font-size="14.00">node #23</text>
<text text-anchor="middle" x="2080" y="-186.8" font-family="Times,serif" font-size="14.00">FVCPostPercent &lt;= 71.5</text>
<text text-anchor="middle" x="2080" y="-171.8" font-family="Times,serif" font-size="14.00">gini = 0.428</text>
<text text-anchor="middle" x="2080" y="-156.8" font-family="Times,serif" font-size="14.00">samples = 23</text>
<text text-anchor="middle" x="2080" y="-141.8" font-family="Times,serif" font-size="14.00">value = [29.471, 13.238]</text>
<text text-anchor="middle" x="2080" y="-126.8" font-family="Times,serif" font-size="14.00">class = Non&#45;obstructive</text>
</g>
<!-- 22&#45;&gt;23 -->
<g id="edge23" class="edge">
<title>22&#45;&gt;23</title>
<path fill="none" stroke="black" d="M2080,-252.97C2080,-244.69 2080,-236 2080,-227.48"/>
<polygon fill="black" stroke="black" points="2083.5,-227.21 2080,-217.21 2076.5,-227.21 2083.5,-227.21"/>
</g>
<!-- 26 -->
<g id="node27" class="node">
<title>26</title>
<polygon fill="none" stroke="black" points="2363.5,-209.5 2196.5,-209.5 2196.5,-126.5 2363.5,-126.5 2363.5,-209.5"/>
<text text-anchor="middle" x="2280" y="-194.3" font-family="Times,serif" font-size="14.00">node #26</text>
<text text-anchor="middle" x="2280" y="-179.3" font-family="Times,serif" font-size="14.00">gini = &#45;0.0</text>
<text text-anchor="middle" x="2280" y="-164.3" font-family="Times,serif" font-size="14.00">samples = 11</text>
<text text-anchor="middle" x="2280" y="-149.3" font-family="Times,serif" font-size="14.00">value = [0.0, 14.256]</text>
<text text-anchor="middle" x="2280" y="-134.3" font-family="Times,serif" font-size="14.00">class = Obstructive</text>
</g>
<!-- 22&#45;&gt;26 -->
<g id="edge26" class="edge">
<title>22&#45;&gt;26</title>
<path fill="none" stroke="black" d="M2152.77,-252.97C2171.46,-240.63 2191.53,-227.39 2210.08,-215.15"/>
<polygon fill="black" stroke="black" points="2212.06,-218.03 2218.48,-209.6 2208.21,-212.19 2212.06,-218.03"/>
</g>
<!-- 24 -->
<g id="node25" class="node">
<title>24</title>
<polygon fill="none" stroke="black" points="2159,-83 2001,-83 2001,0 2159,0 2159,-83"/>
<text text-anchor="middle" x="2080" y="-67.8" font-family="Times,serif" font-size="14.00">node #24</text>
<text text-anchor="middle" x="2080" y="-52.8" font-family="Times,serif" font-size="14.00">gini = 0.0</text>
<text text-anchor="middle" x="2080" y="-37.8" font-family="Times,serif" font-size="14.00">samples = 1</text>
<text text-anchor="middle" x="2080" y="-22.8" font-family="Times,serif" font-size="14.00">value = [0.0, 5.091]</text>
<text text-anchor="middle" x="2080" y="-7.8" font-family="Times,serif" font-size="14.00">class = Obstructive</text>
</g>
<!-- 23&#45;&gt;24 -->
<g id="edge24" class="edge">
<title>23&#45;&gt;24</title>
<path fill="none" stroke="black" d="M2080,-118.87C2080,-110.5 2080,-101.77 2080,-93.33"/>
<polygon fill="black" stroke="black" points="2083.5,-93.23 2080,-83.23 2076.5,-93.23 2083.5,-93.23"/>
</g>
<!-- 25 -->
<g id="node26" class="node">
<title>25</title>
<polygon fill="none" stroke="black" points="2365,-83 2177,-83 2177,0 2365,0 2365,-83"/>
<text text-anchor="middle" x="2271" y="-67.8" font-family="Times,serif" font-size="14.00">node #25</text>
<text text-anchor="middle" x="2271" y="-52.8" font-family="Times,serif" font-size="14.00">gini = 0.339</text>
<text text-anchor="middle" x="2271" y="-37.8" font-family="Times,serif" font-size="14.00">samples = 22</text>
<text text-anchor="middle" x="2271" y="-22.8" font-family="Times,serif" font-size="14.00">value = [29.471, 8.146]</text>
<text text-anchor="middle" x="2271" y="-7.8" font-family="Times,serif" font-size="14.00">class = Non&#45;obstructive</text>
</g>
<!-- 23&#45;&gt;25 -->
<g id="edge25" class="edge">
<title>23&#45;&gt;25</title>
<path fill="none" stroke="black" d="M2153.85,-118.87C2169.03,-108.97 2184.98,-98.57 2200.05,-88.74"/>
<polygon fill="black" stroke="black" points="2202.35,-91.43 2208.82,-83.03 2198.53,-85.56 2202.35,-91.43"/>
</g>
</g>
</svg>
