<?xml version="1.0" encoding="UTF-8" standalone="no"?>
<!DOCTYPE svg PUBLIC "-//W3C//DTD SVG 1.1//EN"
 "http://www.w3.org/Graphics/SVG/1.1/DTD/svg11.dtd">
<!-- Generated by graphviz version 2.43.0 (0)
 -->
<!-- Title: Tree Pages: 1 -->
<svg width="2364pt" height="627pt"
 viewBox="0.00 0.00 2364.00 627.00" xmlns="http://www.w3.org/2000/svg" xmlns:xlink="http://www.w3.org/1999/xlink">
<g id="graph0" class="graph" transform="scale(1 1) rotate(0) translate(4 623)">
<title>Tree</title>
<polygon fill="white" stroke="transparent" points="-4,4 -4,-623 2360,-623 2360,4 -4,4"/>
<!-- 0 -->
<g id="node1" class="node">
<title>0</title>
<polygon fill="none" stroke="black" points="1164,-619 976,-619 976,-521 1164,-521 1164,-619"/>
<text text-anchor="middle" x="1070" y="-603.8" font-family="Times,serif" font-size="14.00">node #0</text>
<text text-anchor="middle" x="1070" y="-588.8" font-family="Times,serif" font-size="14.00">FEFPostVal &lt;= 1.14</text>
<text text-anchor="middle" x="1070" y="-573.8" font-family="Times,serif" font-size="14.00">gini = 0.5</text>
<text text-anchor="middle" x="1070" y="-558.8" font-family="Times,serif" font-size="14.00">samples = 201</text>
<text text-anchor="middle" x="1070" y="-543.8" font-family="Times,serif" font-size="14.00">value = [167.0, 167.0]</text>
<text text-anchor="middle" x="1070" y="-528.8" font-family="Times,serif" font-size="14.00">class = Non&#45;obstructive</text>
</g>
<!-- 1 -->
<g id="node2" class="node">
<title>1</title>
<polygon fill="none" stroke="black" points="879.5,-485 688.5,-485 688.5,-387 879.5,-387 879.5,-485"/>
<text text-anchor="middle" x="784" y="-469.8" font-family="Times,serif" font-size="14.00">node #1</text>
<text text-anchor="middle" x="784" y="-454.8" font-family="Times,serif" font-size="14.00">FEFPrePercent &lt;= 26.5</text>
<text text-anchor="middle" x="784" y="-439.8" font-family="Times,serif" font-size="14.00">gini = 0.187</text>
<text text-anchor="middle" x="784" y="-424.8" font-family="Times,serif" font-size="14.00">samples = 54</text>
<text text-anchor="middle" x="784" y="-409.8" font-family="Times,serif" font-size="14.00">value = [8.589, 73.522]</text>
<text text-anchor="middle" x="784" y="-394.8" font-family="Times,serif" font-size="14.00">class = Obstructive</text>
</g>
<!-- 0&#45;&gt;1 -->
<g id="edge1" class="edge">
<title>0&#45;&gt;1</title>
<path fill="none" stroke="black" d="M975.96,-525.6C948.04,-512.71 917.3,-498.52 888.75,-485.35"/>
<polygon fill="black" stroke="black" points="890.11,-482.12 879.57,-481.11 887.18,-488.48 890.11,-482.12"/>
<text text-anchor="middle" x="888.21" y="-500.87" font-family="Times,serif" font-size="14.00">True</text>
</g>
<!-- 14 -->
<g id="node15" class="node">
<title>14</title>
<polygon fill="none" stroke="black" points="1425.5,-485 1210.5,-485 1210.5,-387 1425.5,-387 1425.5,-485"/>
<text text-anchor="middle" x="1318" y="-469.8" font-family="Times,serif" font-size="14.00">node #14</text>
<text text-anchor="middle" x="1318" y="-454.8" font-family="Times,serif" font-size="14.00">FVCPostPercent &lt;= 68.992</text>
<text text-anchor="middle" x="1318" y="-439.8" font-family="Times,serif" font-size="14.00">gini = 0.467</text>
<text text-anchor="middle" x="1318" y="-424.8" font-family="Times,serif" font-size="14.00">samples = 147</text>
<text text-anchor="middle" x="1318" y="-409.8" font-family="Times,serif" font-size="14.00">value = [158.411, 93.478]</text>
<text text-anchor="middle" x="1318" y="-394.8" font-family="Times,serif" font-size="14.00">class = Non&#45;obstructive</text>
</g>
<!-- 0&#45;&gt;14 -->
<g id="edge14" class="edge">
<title>0&#45;&gt;14</title>
<path fill="none" stroke="black" d="M1160.24,-520.97C1179.13,-510.92 1199.15,-500.26 1218.36,-490.04"/>
<polygon fill="black" stroke="black" points="1220.23,-493 1227.42,-485.21 1216.94,-486.82 1220.23,-493"/>
<text text-anchor="middle" x="1220.12" y="-505.42" font-family="Times,serif" font-size="14.00">False</text>
</g>
<!-- 2 -->
<g id="node3" class="node">
<title>2</title>
<polygon fill="none" stroke="black" points="571.5,-351 374.5,-351 374.5,-253 571.5,-253 571.5,-351"/>
<text text-anchor="middle" x="473" y="-335.8" font-family="Times,serif" font-size="14.00">node #2</text>
<text text-anchor="middle" x="473" y="-320.8" font-family="Times,serif" font-size="14.00">FVCPostPercent &lt;= 38.0</text>
<text text-anchor="middle" x="473" y="-305.8" font-family="Times,serif" font-size="14.00">gini = 0.055</text>
<text text-anchor="middle" x="473" y="-290.8" font-family="Times,serif" font-size="14.00">samples = 43</text>
<text text-anchor="middle" x="473" y="-275.8" font-family="Times,serif" font-size="14.00">value = [1.909, 65.119]</text>
<text text-anchor="middle" x="473" y="-260.8" font-family="Times,serif" font-size="14.00">class = Obstructive</text>
</g>
<!-- 1&#45;&gt;2 -->
<g id="edge2" class="edge">
<title>1&#45;&gt;2</title>
<path fill="none" stroke="black" d="M688.15,-394.32C654.24,-379.92 615.86,-363.64 581.01,-348.84"/>
<polygon fill="black" stroke="black" points="582.33,-345.6 571.75,-344.92 579.59,-352.04 582.33,-345.6"/>
</g>
<!-- 7 -->
<g id="node8" class="node">
<title>7</title>
<polygon fill="none" stroke="black" points="882.5,-351 685.5,-351 685.5,-253 882.5,-253 882.5,-351"/>
<text text-anchor="middle" x="784" y="-335.8" font-family="Times,serif" font-size="14.00">node #7</text>
<text text-anchor="middle" x="784" y="-320.8" font-family="Times,serif" font-size="14.00">FEFPostPercent &lt;= 34.0</text>
<text text-anchor="middle" x="784" y="-305.8" font-family="Times,serif" font-size="14.00">gini = 0.493</text>
<text text-anchor="middle" x="784" y="-290.8" font-family="Times,serif" font-size="14.00">samples = 11</text>
<text text-anchor="middle" x="784" y="-275.8" font-family="Times,serif" font-size="14.00">value = [6.68, 8.403]</text>
<text text-anchor="middle" x="784" y="-260.8" font-family="Times,serif" font-size="14.00">class = Obstructive</text>
</g>
<!-- 1&#45;&gt;7 -->
<g id="edge7" class="edge">
<title>1&#45;&gt;7</title>
<path fill="none" stroke="black" d="M784,-386.97C784,-378.69 784,-370 784,-361.48"/>
<polygon fill="black" stroke="black" points="787.5,-361.21 784,-351.21 780.5,-361.21 787.5,-361.21"/>
</g>
<!-- 3 -->
<g id="node4" class="node">
<title>3</title>
<polygon fill="none" stroke="black" points="370,-217 170,-217 170,-119 370,-119 370,-217"/>
<text text-anchor="middle" x="270" y="-201.8" font-family="Times,serif" font-size="14.00">node #3</text>
<text text-anchor="middle" x="270" y="-186.8" font-family="Times,serif" font-size="14.00">FEV1PrePercent &lt;= 23.5</text>
<text text-anchor="middle" x="270" y="-171.8" font-family="Times,serif" font-size="14.00">gini = 0.327</text>
<text text-anchor="middle" x="270" y="-156.8" font-family="Times,serif" font-size="14.00">samples = 5</text>
<text text-anchor="middle" x="270" y="-141.8" font-family="Times,serif" font-size="14.00">value = [1.909, 7.352]</text>
<text text-anchor="middle" x="270" y="-126.8" font-family="Times,serif" font-size="14.00">class = Obstructive</text>
</g>
<!-- 2&#45;&gt;3 -->
<g id="edge3" class="edge">
<title>2&#45;&gt;3</title>
<path fill="none" stroke="black" d="M399.14,-252.97C384.03,-243.14 368.03,-232.74 352.63,-222.73"/>
<polygon fill="black" stroke="black" points="354.44,-219.73 344.15,-217.21 350.62,-225.6 354.44,-219.73"/>
</g>
<!-- 6 -->
<g id="node7" class="node">
<title>6</title>
<polygon fill="none" stroke="black" points="556.5,-209.5 389.5,-209.5 389.5,-126.5 556.5,-126.5 556.5,-209.5"/>
<text text-anchor="middle" x="473" y="-194.3" font-family="Times,serif" font-size="14.00">node #6</text>
<text text-anchor="middle" x="473" y="-179.3" font-family="Times,serif" font-size="14.00">gini = &#45;0.0</text>
<text text-anchor="middle" x="473" y="-164.3" font-family="Times,serif" font-size="14.00">samples = 38</text>
<text text-anchor="middle" x="473" y="-149.3" font-family="Times,serif" font-size="14.00">value = [0.0, 57.767]</text>
<text text-anchor="middle" x="473" y="-134.3" font-family="Times,serif" font-size="14.00">class = Obstructive</text>
</g>
<!-- 2&#45;&gt;6 -->
<g id="edge6" class="edge">
<title>2&#45;&gt;6</title>
<path fill="none" stroke="black" d="M473,-252.97C473,-242.25 473,-230.84 473,-219.99"/>
<polygon fill="black" stroke="black" points="476.5,-219.82 473,-209.82 469.5,-219.82 476.5,-219.82"/>
</g>
<!-- 4 -->
<g id="node5" class="node">
<title>4</title>
<polygon fill="none" stroke="black" points="158,-83 0,-83 0,0 158,0 158,-83"/>
<text text-anchor="middle" x="79" y="-67.8" font-family="Times,serif" font-size="14.00">node #4</text>
<text text-anchor="middle" x="79" y="-52.8" font-family="Times,serif" font-size="14.00">gini = 0.0</text>
<text text-anchor="middle" x="79" y="-37.8" font-family="Times,serif" font-size="14.00">samples = 3</text>
<text text-anchor="middle" x="79" y="-22.8" font-family="Times,serif" font-size="14.00">value = [0.0, 7.352]</text>
<text text-anchor="middle" x="79" y="-7.8" font-family="Times,serif" font-size="14.00">class = Obstructive</text>
</g>
<!-- 3&#45;&gt;4 -->
<g id="edge4" class="edge">
<title>3&#45;&gt;4</title>
<path fill="none" stroke="black" d="M196.15,-118.87C180.97,-108.97 165.02,-98.57 149.95,-88.74"/>
<polygon fill="black" stroke="black" points="151.47,-85.56 141.18,-83.03 147.65,-91.43 151.47,-85.56"/>
</g>
<!-- 5 -->
<g id="node6" class="node">
<title>5</title>
<polygon fill="none" stroke="black" points="364,-83 176,-83 176,0 364,0 364,-83"/>
<text text-anchor="middle" x="270" y="-67.8" font-family="Times,serif" font-size="14.00">node #5</text>
<text text-anchor="middle" x="270" y="-52.8" font-family="Times,serif" font-size="14.00">gini = &#45;0.0</text>
<text text-anchor="middle" x="270" y="-37.8" font-family="Times,serif" font-size="14.00">samples = 2</text>
<text text-anchor="middle" x="270" y="-22.8" font-family="Times,serif" font-size="14.00">value = [1.909, 0.0]</text>
<text text-anchor="middle" x="270" y="-7.8" font-family="Times,serif" font-size="14.00">class = Non&#45;obstructive</text>
</g>
<!-- 3&#45;&gt;5 -->
<g id="edge5" class="edge">
<title>3&#45;&gt;5</title>
<path fill="none" stroke="black" d="M270,-118.87C270,-110.5 270,-101.77 270,-93.33"/>
<polygon fill="black" stroke="black" points="273.5,-93.23 270,-83.23 266.5,-93.23 273.5,-93.23"/>
</g>
<!-- 8 -->
<g id="node9" class="node">
<title>8</title>
<polygon fill="none" stroke="black" points="775,-217 575,-217 575,-119 775,-119 775,-217"/>
<text text-anchor="middle" x="675" y="-201.8" font-family="Times,serif" font-size="14.00">node #8</text>
<text text-anchor="middle" x="675" y="-186.8" font-family="Times,serif" font-size="14.00">FEV1PrePercent &lt;= 40.5</text>
<text text-anchor="middle" x="675" y="-171.8" font-family="Times,serif" font-size="14.00">gini = 0.424</text>
<text text-anchor="middle" x="675" y="-156.8" font-family="Times,serif" font-size="14.00">samples = 5</text>
<text text-anchor="middle" x="675" y="-141.8" font-family="Times,serif" font-size="14.00">value = [4.771, 2.101]</text>
<text text-anchor="middle" x="675" y="-126.8" font-family="Times,serif" font-size="14.00">class = Non&#45;obstructive</text>
</g>
<!-- 7&#45;&gt;8 -->
<g id="edge8" class="edge">
<title>7&#45;&gt;8</title>
<path fill="none" stroke="black" d="M744.34,-252.97C736.83,-243.87 728.91,-234.28 721.21,-224.96"/>
<polygon fill="black" stroke="black" points="723.88,-222.7 714.81,-217.21 718.48,-227.15 723.88,-222.7"/>
</g>
<!-- 11 -->
<g id="node12" class="node">
<title>11</title>
<polygon fill="none" stroke="black" points="969,-217 793,-217 793,-119 969,-119 969,-217"/>
<text text-anchor="middle" x="881" y="-201.8" font-family="Times,serif" font-size="14.00">node #11</text>
<text text-anchor="middle" x="881" y="-186.8" font-family="Times,serif" font-size="14.00">FEV1PostVal &lt;= 2.32</text>
<text text-anchor="middle" x="881" y="-171.8" font-family="Times,serif" font-size="14.00">gini = 0.357</text>
<text text-anchor="middle" x="881" y="-156.8" font-family="Times,serif" font-size="14.00">samples = 6</text>
<text text-anchor="middle" x="881" y="-141.8" font-family="Times,serif" font-size="14.00">value = [1.909, 6.302]</text>
<text text-anchor="middle" x="881" y="-126.8" font-family="Times,serif" font-size="14.00">class = Obstructive</text>
</g>
<!-- 7&#45;&gt;11 -->
<g id="edge11" class="edge">
<title>7&#45;&gt;11</title>
<path fill="none" stroke="black" d="M819.29,-252.97C825.85,-244.05 832.75,-234.66 839.47,-225.52"/>
<polygon fill="black" stroke="black" points="842.47,-227.34 845.57,-217.21 836.83,-223.2 842.47,-227.34"/>
</g>
<!-- 9 -->
<g id="node10" class="node">
<title>9</title>
<polygon fill="none" stroke="black" points="570,-83 382,-83 382,0 570,0 570,-83"/>
<text text-anchor="middle" x="476" y="-67.8" font-family="Times,serif" font-size="14.00">node #9</text>
<text text-anchor="middle" x="476" y="-52.8" font-family="Times,serif" font-size="14.00">gini = 0.0</text>
<text text-anchor="middle" x="476" y="-37.8" font-family="Times,serif" font-size="14.00">samples = 2</text>
<text text-anchor="middle" x="476" y="-22.8" font-family="Times,serif" font-size="14.00">value = [3.817, 0.0]</text>
<text text-anchor="middle" x="476" y="-7.8" font-family="Times,serif" font-size="14.00">class = Non&#45;obstructive</text>
</g>
<!-- 8&#45;&gt;9 -->
<g id="edge9" class="edge">
<title>8&#45;&gt;9</title>
<path fill="none" stroke="black" d="M598.06,-118.87C582.1,-108.88 565.31,-98.38 549.48,-88.47"/>
<polygon fill="black" stroke="black" points="551.12,-85.37 540.79,-83.03 547.41,-91.3 551.12,-85.37"/>
</g>
<!-- 10 -->
<g id="node11" class="node">
<title>10</title>
<polygon fill="none" stroke="black" points="764,-83 588,-83 588,0 764,0 764,-83"/>
<text text-anchor="middle" x="676" y="-67.8" font-family="Times,serif" font-size="14.00">node #10</text>
<text text-anchor="middle" x="676" y="-52.8" font-family="Times,serif" font-size="14.00">gini = 0.43</text>
<text text-anchor="middle" x="676" y="-37.8" font-family="Times,serif" font-size="14.00">samples = 3</text>
<text text-anchor="middle" x="676" y="-22.8" font-family="Times,serif" font-size="14.00">value = [0.954, 2.101]</text>
<text text-anchor="middle" x="676" y="-7.8" font-family="Times,serif" font-size="14.00">class = Obstructive</text>
</g>
<!-- 8&#45;&gt;10 -->
<g id="edge10" class="edge">
<title>8&#45;&gt;10</title>
<path fill="none" stroke="black" d="M675.39,-118.87C675.45,-110.5 675.52,-101.77 675.59,-93.33"/>
<polygon fill="black" stroke="black" points="679.09,-93.26 675.67,-83.23 672.09,-93.2 679.09,-93.26"/>
</g>
<!-- 12 -->
<g id="node13" class="node">
<title>12</title>
<polygon fill="none" stroke="black" points="940,-83 782,-83 782,0 940,0 940,-83"/>
<text text-anchor="middle" x="861" y="-67.8" font-family="Times,serif" font-size="14.00">node #12</text>
<text text-anchor="middle" x="861" y="-52.8" font-family="Times,serif" font-size="14.00">gini = &#45;0.0</text>
<text text-anchor="middle" x="861" y="-37.8" font-family="Times,serif" font-size="14.00">samples = 5</text>
<text text-anchor="middle" x="861" y="-22.8" font-family="Times,serif" font-size="14.00">value = [0.0, 6.302]</text>
<text text-anchor="middle" x="861" y="-7.8" font-family="Times,serif" font-size="14.00">class = Obstructive</text>
</g>
<!-- 11&#45;&gt;12 -->
<g id="edge12" class="edge">
<title>11&#45;&gt;12</title>
<path fill="none" stroke="black" d="M873.27,-118.87C871.92,-110.5 870.52,-101.77 869.17,-93.33"/>
<polygon fill="black" stroke="black" points="872.58,-92.55 867.54,-83.23 865.67,-93.66 872.58,-92.55"/>
</g>
<!-- 13 -->
<g id="node14" class="node">
<title>13</title>
<polygon fill="none" stroke="black" points="1146,-83 958,-83 958,0 1146,0 1146,-83"/>
<text text-anchor="middle" x="1052" y="-67.8" font-family="Times,serif" font-size="14.00">node #13</text>
<text text-anchor="middle" x="1052" y="-52.8" font-family="Times,serif" font-size="14.00">gini = &#45;0.0</text>
<text text-anchor="middle" x="1052" y="-37.8" font-family="Times,serif" font-size="14.00">samples = 1</text>
<text text-anchor="middle" x="1052" y="-22.8" font-family="Times,serif" font-size="14.00">value = [1.909, 0.0]</text>
<text text-anchor="middle" x="1052" y="-7.8" font-family="Times,serif" font-size="14.00">class = Non&#45;obstructive</text>
</g>
<!-- 11&#45;&gt;13 -->
<g id="edge13" class="edge">
<title>11&#45;&gt;13</title>
<path fill="none" stroke="black" d="M947.11,-118.87C960.58,-109.06 974.72,-98.77 988.1,-89.02"/>
<polygon fill="black" stroke="black" points="990.3,-91.75 996.33,-83.03 986.18,-86.09 990.3,-91.75"/>
</g>
<!-- 15 -->
<g id="node16" class="node">
<title>15</title>
<polygon fill="none" stroke="black" points="1419.5,-351 1216.5,-351 1216.5,-253 1419.5,-253 1419.5,-351"/>
<text text-anchor="middle" x="1318" y="-335.8" font-family="Times,serif" font-size="14.00">node #15</text>
<text text-anchor="middle" x="1318" y="-320.8" font-family="Times,serif" font-size="14.00">FEFPrePercent &lt;= 31.0</text>
<text text-anchor="middle" x="1318" y="-305.8" font-family="Times,serif" font-size="14.00">gini = 0.173</text>
<text text-anchor="middle" x="1318" y="-290.8" font-family="Times,serif" font-size="14.00">samples = 79</text>
<text text-anchor="middle" x="1318" y="-275.8" font-family="Times,serif" font-size="14.00">value = [128.829, 13.654]</text>
<text text-anchor="middle" x="1318" y="-260.8" font-family="Times,serif" font-size="14.00">class = Non&#45;obstructive</text>
</g>
<!-- 14&#45;&gt;15 -->
<g id="edge15" class="edge">
<title>14&#45;&gt;15</title>
<path fill="none" stroke="black" d="M1318,-386.97C1318,-378.69 1318,-370 1318,-361.48"/>
<polygon fill="black" stroke="black" points="1321.5,-361.21 1318,-351.21 1314.5,-361.21 1321.5,-361.21"/>
</g>
<!-- 20 -->
<g id="node21" class="node">
<title>20</title>
<polygon fill="none" stroke="black" points="1829,-351 1629,-351 1629,-253 1829,-253 1829,-351"/>
<text text-anchor="middle" x="1729" y="-335.8" font-family="Times,serif" font-size="14.00">node #20</text>
<text text-anchor="middle" x="1729" y="-320.8" font-family="Times,serif" font-size="14.00">FVCPrePercent &lt;= 100.0</text>
<text text-anchor="middle" x="1729" y="-305.8" font-family="Times,serif" font-size="14.00">gini = 0.395</text>
<text text-anchor="middle" x="1729" y="-290.8" font-family="Times,serif" font-size="14.00">samples = 68</text>
<text text-anchor="middle" x="1729" y="-275.8" font-family="Times,serif" font-size="14.00">value = [29.583, 79.824]</text>
<text text-anchor="middle" x="1729" y="-260.8" font-family="Times,serif" font-size="14.00">class = Obstructive</text>
</g>
<!-- 14&#45;&gt;20 -->
<g id="edge20" class="edge">
<title>14&#45;&gt;20</title>
<path fill="none" stroke="black" d="M1425.72,-400.4C1485.2,-381.3 1558.92,-357.62 1618.79,-338.39"/>
<polygon fill="black" stroke="black" points="1620.21,-341.62 1628.66,-335.23 1618.07,-334.95 1620.21,-341.62"/>
</g>
<!-- 16 -->
<g id="node17" class="node">
<title>16</title>
<polygon fill="none" stroke="black" points="1298,-209.5 1140,-209.5 1140,-126.5 1298,-126.5 1298,-209.5"/>
<text text-anchor="middle" x="1219" y="-194.3" font-family="Times,serif" font-size="14.00">node #16</text>
<text text-anchor="middle" x="1219" y="-179.3" font-family="Times,serif" font-size="14.00">gini = 0.0</text>
<text text-anchor="middle" x="1219" y="-164.3" font-family="Times,serif" font-size="14.00">samples = 2</text>
<text text-anchor="middle" x="1219" y="-149.3" font-family="Times,serif" font-size="14.00">value = [0.0, 2.101]</text>
<text text-anchor="middle" x="1219" y="-134.3" font-family="Times,serif" font-size="14.00">class = Obstructive</text>
</g>
<!-- 15&#45;&gt;16 -->
<g id="edge16" class="edge">
<title>15&#45;&gt;16</title>
<path fill="none" stroke="black" d="M1281.98,-252.97C1273.44,-241.58 1264.32,-229.42 1255.74,-217.99"/>
<polygon fill="black" stroke="black" points="1258.41,-215.72 1249.61,-209.82 1252.81,-219.92 1258.41,-215.72"/>
</g>
<!-- 17 -->
<g id="node18" class="node">
<title>17</title>
<polygon fill="none" stroke="black" points="1518.5,-217 1315.5,-217 1315.5,-119 1518.5,-119 1518.5,-217"/>
<text text-anchor="middle" x="1417" y="-201.8" font-family="Times,serif" font-size="14.00">node #17</text>
<text text-anchor="middle" x="1417" y="-186.8" font-family="Times,serif" font-size="14.00">FVCPreVal &lt;= 1.855</text>
<text text-anchor="middle" x="1417" y="-171.8" font-family="Times,serif" font-size="14.00">gini = 0.151</text>
<text text-anchor="middle" x="1417" y="-156.8" font-family="Times,serif" font-size="14.00">samples = 77</text>
<text text-anchor="middle" x="1417" y="-141.8" font-family="Times,serif" font-size="14.00">value = [128.829, 11.553]</text>
<text text-anchor="middle" x="1417" y="-126.8" font-family="Times,serif" font-size="14.00">class = Non&#45;obstructive</text>
</g>
<!-- 15&#45;&gt;17 -->
<g id="edge17" class="edge">
<title>15&#45;&gt;17</title>
<path fill="none" stroke="black" d="M1354.02,-252.97C1360.78,-243.96 1367.9,-234.47 1374.82,-225.24"/>
<polygon fill="black" stroke="black" points="1377.64,-227.31 1380.84,-217.21 1372.04,-223.11 1377.64,-227.31"/>
</g>
<!-- 18 -->
<g id="node19" class="node">
<title>18</title>
<polygon fill="none" stroke="black" points="1358,-83 1164,-83 1164,0 1358,0 1358,-83"/>
<text text-anchor="middle" x="1261" y="-67.8" font-family="Times,serif" font-size="14.00">node #18</text>
<text text-anchor="middle" x="1261" y="-52.8" font-family="Times,serif" font-size="14.00">gini = 0.057</text>
<text text-anchor="middle" x="1261" y="-37.8" font-family="Times,serif" font-size="14.00">samples = 53</text>
<text text-anchor="middle" x="1261" y="-22.8" font-family="Times,serif" font-size="14.00">value = [104.971, 3.151]</text>
<text text-anchor="middle" x="1261" y="-7.8" font-family="Times,serif" font-size="14.00">class = Non&#45;obstructive</text>
</g>
<!-- 17&#45;&gt;18 -->
<g id="edge18" class="edge">
<title>17&#45;&gt;18</title>
<path fill="none" stroke="black" d="M1356.69,-118.87C1344.7,-109.3 1332.13,-99.27 1320.19,-89.74"/>
<polygon fill="black" stroke="black" points="1322.04,-86.73 1312.04,-83.23 1317.67,-92.2 1322.04,-86.73"/>
</g>
<!-- 19 -->
<g id="node20" class="node">
<title>19</title>
<polygon fill="none" stroke="black" points="1564,-83 1376,-83 1376,0 1564,0 1564,-83"/>
<text text-anchor="middle" x="1470" y="-67.8" font-family="Times,serif" font-size="14.00">node #19</text>
<text text-anchor="middle" x="1470" y="-52.8" font-family="Times,serif" font-size="14.00">gini = 0.385</text>
<text text-anchor="middle" x="1470" y="-37.8" font-family="Times,serif" font-size="14.00">samples = 24</text>
<text text-anchor="middle" x="1470" y="-22.8" font-family="Times,serif" font-size="14.00">value = [23.857, 8.403]</text>
<text text-anchor="middle" x="1470" y="-7.8" font-family="Times,serif" font-size="14.00">class = Non&#45;obstructive</text>
</g>
<!-- 17&#45;&gt;19 -->
<g id="edge19" class="edge">
<title>17&#45;&gt;19</title>
<path fill="none" stroke="black" d="M1437.49,-118.87C1441.17,-110.22 1445.01,-101.2 1448.71,-92.5"/>
<polygon fill="black" stroke="black" points="1451.96,-93.8 1452.66,-83.23 1445.52,-91.06 1451.96,-93.8"/>
</g>
<!-- 21 -->
<g id="node22" class="node">
<title>21</title>
<polygon fill="none" stroke="black" points="1826,-217 1632,-217 1632,-119 1826,-119 1826,-217"/>
<text text-anchor="middle" x="1729" y="-201.8" font-family="Times,serif" font-size="14.00">node #21</text>
<text text-anchor="middle" x="1729" y="-186.8" font-family="Times,serif" font-size="14.00">FVCPreVal &lt;= 1.905</text>
<text text-anchor="middle" x="1729" y="-171.8" font-family="Times,serif" font-size="14.00">gini = 0.359</text>
<text text-anchor="middle" x="1729" y="-156.8" font-family="Times,serif" font-size="14.00">samples = 63</text>
<text text-anchor="middle" x="1729" y="-141.8" font-family="Times,serif" font-size="14.00">value = [23.857, 77.723]</text>
<text text-anchor="middle" x="1729" y="-126.8" font-family="Times,serif" font-size="14.00">class = Obstructive</text>
</g>
<!-- 20&#45;&gt;21 -->
<g id="edge21" class="edge">
<title>20&#45;&gt;21</title>
<path fill="none" stroke="black" d="M1729,-252.97C1729,-244.69 1729,-236 1729,-227.48"/>
<polygon fill="black" stroke="black" points="1732.5,-227.21 1729,-217.21 1725.5,-227.21 1732.5,-227.21"/>
</g>
<!-- 24 -->
<g id="node25" class="node">
<title>24</title>
<polygon fill="none" stroke="black" points="2180,-217 1992,-217 1992,-119 2180,-119 2180,-217"/>
<text text-anchor="middle" x="2086" y="-201.8" font-family="Times,serif" font-size="14.00">node #24</text>
<text text-anchor="middle" x="2086" y="-186.8" font-family="Times,serif" font-size="14.00">FEV1PreVal &lt;= 3.95</text>
<text text-anchor="middle" x="2086" y="-171.8" font-family="Times,serif" font-size="14.00">gini = 0.393</text>
<text text-anchor="middle" x="2086" y="-156.8" font-family="Times,serif" font-size="14.00">samples = 5</text>
<text text-anchor="middle" x="2086" y="-141.8" font-family="Times,serif" font-size="14.00">value = [5.726, 2.101]</text>
<text text-anchor="middle" x="2086" y="-126.8" font-family="Times,serif" font-size="14.00">class = Non&#45;obstructive</text>
</g>
<!-- 20&#45;&gt;24 -->
<g id="edge24" class="edge">
<title>20&#45;&gt;24</title>
<path fill="none" stroke="black" d="M1829.39,-263.88C1877.15,-246.22 1934.2,-225.13 1982.36,-207.32"/>
<polygon fill="black" stroke="black" points="1983.71,-210.55 1991.87,-203.8 1981.28,-203.99 1983.71,-210.55"/>
</g>
<!-- 22 -->
<g id="node23" class="node">
<title>22</title>
<polygon fill="none" stroke="black" points="1770,-83 1582,-83 1582,0 1770,0 1770,-83"/>
<text text-anchor="middle" x="1676" y="-67.8" font-family="Times,serif" font-size="14.00">node #22</text>
<text text-anchor="middle" x="1676" y="-52.8" font-family="Times,serif" font-size="14.00">gini = 0.0</text>
<text text-anchor="middle" x="1676" y="-37.8" font-family="Times,serif" font-size="14.00">samples = 3</text>
<text text-anchor="middle" x="1676" y="-22.8" font-family="Times,serif" font-size="14.00">value = [3.817, 0.0]</text>
<text text-anchor="middle" x="1676" y="-7.8" font-family="Times,serif" font-size="14.00">class = Non&#45;obstructive</text>
</g>
<!-- 21&#45;&gt;22 -->
<g id="edge22" class="edge">
<title>21&#45;&gt;22</title>
<path fill="none" stroke="black" d="M1708.51,-118.87C1704.83,-110.22 1700.99,-101.2 1697.29,-92.5"/>
<polygon fill="black" stroke="black" points="1700.48,-91.06 1693.34,-83.23 1694.04,-93.8 1700.48,-91.06"/>
</g>
<!-- 23 -->
<g id="node24" class="node">
<title>23</title>
<polygon fill="none" stroke="black" points="1973.5,-83 1788.5,-83 1788.5,0 1973.5,0 1973.5,-83"/>
<text text-anchor="middle" x="1881" y="-67.8" font-family="Times,serif" font-size="14.00">node #23</text>
<text text-anchor="middle" x="1881" y="-52.8" font-family="Times,serif" font-size="14.00">gini = 0.326</text>
<text text-anchor="middle" x="1881" y="-37.8" font-family="Times,serif" font-size="14.00">samples = 60</text>
<text text-anchor="middle" x="1881" y="-22.8" font-family="Times,serif" font-size="14.00">value = [20.04, 77.723]</text>
<text text-anchor="middle" x="1881" y="-7.8" font-family="Times,serif" font-size="14.00">class = Obstructive</text>
</g>
<!-- 21&#45;&gt;23 -->
<g id="edge23" class="edge">
<title>21&#45;&gt;23</title>
<path fill="none" stroke="black" d="M1787.77,-118.87C1799.44,-109.3 1811.69,-99.27 1823.33,-89.74"/>
<polygon fill="black" stroke="black" points="1825.75,-92.28 1831.27,-83.23 1821.32,-86.86 1825.75,-92.28"/>
</g>
<!-- 25 -->
<g id="node26" class="node">
<title>25</title>
<polygon fill="none" stroke="black" points="2180,-83 1992,-83 1992,0 2180,0 2180,-83"/>
<text text-anchor="middle" x="2086" y="-67.8" font-family="Times,serif" font-size="14.00">node #25</text>
<text text-anchor="middle" x="2086" y="-52.8" font-family="Times,serif" font-size="14.00">gini = 0.0</text>
<text text-anchor="middle" x="2086" y="-37.8" font-family="Times,serif" font-size="14.00">samples = 4</text>
<text text-anchor="middle" x="2086" y="-22.8" font-family="Times,serif" font-size="14.00">value = [5.726, 0.0]</text>
<text text-anchor="middle" x="2086" y="-7.8" font-family="Times,serif" font-size="14.00">class = Non&#45;obstructive</text>
</g>
<!-- 24&#45;&gt;25 -->
<g id="edge25" class="edge">
<title>24&#45;&gt;25</title>
<path fill="none" stroke="black" d="M2086,-118.87C2086,-110.5 2086,-101.77 2086,-93.33"/>
<polygon fill="black" stroke="black" points="2089.5,-93.23 2086,-83.23 2082.5,-93.23 2089.5,-93.23"/>
</g>
<!-- 26 -->
<g id="node27" class="node">
<title>26</title>
<polygon fill="none" stroke="black" points="2356,-83 2198,-83 2198,0 2356,0 2356,-83"/>
<text text-anchor="middle" x="2277" y="-67.8" font-family="Times,serif" font-size="14.00">node #26</text>
<text text-anchor="middle" x="2277" y="-52.8" font-family="Times,serif" font-size="14.00">gini = 0.0</text>
<text text-anchor="middle" x="2277" y="-37.8" font-family="Times,serif" font-size="14.00">samples = 1</text>
<text text-anchor="middle" x="2277" y="-22.8" font-family="Times,serif" font-size="14.00">value = [0.0, 2.101]</text>
<text text-anchor="middle" x="2277" y="-7.8" font-family="Times,serif" font-size="14.00">class = Obstructive</text>
</g>
<!-- 24&#45;&gt;26 -->
<g id="edge26" class="edge">
<title>24&#45;&gt;26</title>
<path fill="none" stroke="black" d="M2159.85,-118.87C2175.03,-108.97 2190.98,-98.57 2206.05,-88.74"/>
<polygon fill="black" stroke="black" points="2208.35,-91.43 2214.82,-83.03 2204.53,-85.56 2208.35,-91.43"/>
</g>
</g>
</svg>
