<?xml version="1.0" encoding="UTF-8" standalone="no"?>
<!DOCTYPE svg PUBLIC "-//W3C//DTD SVG 1.1//EN"
 "http://www.w3.org/Graphics/SVG/1.1/DTD/svg11.dtd">
<!-- Generated by graphviz version 2.43.0 (0)
 -->
<!-- Title: Tree Pages: 1 -->
<svg width="2417pt" height="627pt"
 viewBox="0.00 0.00 2417.00 627.00" xmlns="http://www.w3.org/2000/svg" xmlns:xlink="http://www.w3.org/1999/xlink">
<g id="graph0" class="graph" transform="scale(1 1) rotate(0) translate(4 623)">
<title>Tree</title>
<polygon fill="white" stroke="transparent" points="-4,4 -4,-623 2413,-623 2413,4 -4,4"/>
<!-- 0 -->
<g id="node1" class="node">
<title>0</title>
<polygon fill="none" stroke="black" points="1073.5,-619 876.5,-619 876.5,-521 1073.5,-521 1073.5,-619"/>
<text text-anchor="middle" x="975" y="-603.8" font-family="Times,serif" font-size="14.00">node #0</text>
<text text-anchor="middle" x="975" y="-588.8" font-family="Times,serif" font-size="14.00">FEFPostPercent &lt;= 42.5</text>
<text text-anchor="middle" x="975" y="-573.8" font-family="Times,serif" font-size="14.00">gini = 0.5</text>
<text text-anchor="middle" x="975" y="-558.8" font-family="Times,serif" font-size="14.00">samples = 197</text>
<text text-anchor="middle" x="975" y="-543.8" font-family="Times,serif" font-size="14.00">value = [167.0, 167.0]</text>
<text text-anchor="middle" x="975" y="-528.8" font-family="Times,serif" font-size="14.00">class = Non&#45;obstructive</text>
</g>
<!-- 1 -->
<g id="node2" class="node">
<title>1</title>
<polygon fill="none" stroke="black" points="876,-485 682,-485 682,-387 876,-387 876,-485"/>
<text text-anchor="middle" x="779" y="-469.8" font-family="Times,serif" font-size="14.00">node #1</text>
<text text-anchor="middle" x="779" y="-454.8" font-family="Times,serif" font-size="14.00">FVCPostVal &lt;= 1.505</text>
<text text-anchor="middle" x="779" y="-439.8" font-family="Times,serif" font-size="14.00">gini = 0.211</text>
<text text-anchor="middle" x="779" y="-424.8" font-family="Times,serif" font-size="14.00">samples = 60</text>
<text text-anchor="middle" x="779" y="-409.8" font-family="Times,serif" font-size="14.00">value = [11.584, 85.056]</text>
<text text-anchor="middle" x="779" y="-394.8" font-family="Times,serif" font-size="14.00">class = Obstructive</text>
</g>
<!-- 0&#45;&gt;1 -->
<g id="edge1" class="edge">
<title>0&#45;&gt;1</title>
<path fill="none" stroke="black" d="M903.69,-520.97C889.23,-511.24 873.93,-500.93 859.19,-491.01"/>
<polygon fill="black" stroke="black" points="860.84,-487.9 850.59,-485.21 856.93,-493.7 860.84,-487.9"/>
<text text-anchor="middle" x="855.38" y="-506.05" font-family="Times,serif" font-size="14.00">True</text>
</g>
<!-- 14 -->
<g id="node15" class="node">
<title>14</title>
<polygon fill="none" stroke="black" points="1384.5,-485 1181.5,-485 1181.5,-387 1384.5,-387 1384.5,-485"/>
<text text-anchor="middle" x="1283" y="-469.8" font-family="Times,serif" font-size="14.00">node #14</text>
<text text-anchor="middle" x="1283" y="-454.8" font-family="Times,serif" font-size="14.00">FEV1PostVal &lt;= 1.93</text>
<text text-anchor="middle" x="1283" y="-439.8" font-family="Times,serif" font-size="14.00">gini = 0.452</text>
<text text-anchor="middle" x="1283" y="-424.8" font-family="Times,serif" font-size="14.00">samples = 137</text>
<text text-anchor="middle" x="1283" y="-409.8" font-family="Times,serif" font-size="14.00">value = [155.416, 81.944]</text>
<text text-anchor="middle" x="1283" y="-394.8" font-family="Times,serif" font-size="14.00">class = Non&#45;obstructive</text>
</g>
<!-- 0&#45;&gt;14 -->
<g id="edge14" class="edge">
<title>0&#45;&gt;14</title>
<path fill="none" stroke="black" d="M1073.72,-526.69C1105.03,-513.27 1139.86,-498.35 1171.97,-484.58"/>
<polygon fill="black" stroke="black" points="1173.58,-487.7 1181.39,-480.55 1170.82,-481.27 1173.58,-487.7"/>
<text text-anchor="middle" x="1172.11" y="-500.06" font-family="Times,serif" font-size="14.00">False</text>
</g>
<!-- 2 -->
<g id="node3" class="node">
<title>2</title>
<polygon fill="none" stroke="black" points="580,-351 374,-351 374,-253 580,-253 580,-351"/>
<text text-anchor="middle" x="477" y="-335.8" font-family="Times,serif" font-size="14.00">node #2</text>
<text text-anchor="middle" x="477" y="-320.8" font-family="Times,serif" font-size="14.00">FEV1PostPercent &lt;= 39.5</text>
<text text-anchor="middle" x="477" y="-305.8" font-family="Times,serif" font-size="14.00">gini = 0.486</text>
<text text-anchor="middle" x="477" y="-290.8" font-family="Times,serif" font-size="14.00">samples = 11</text>
<text text-anchor="middle" x="477" y="-275.8" font-family="Times,serif" font-size="14.00">value = [8.688, 6.224]</text>
<text text-anchor="middle" x="477" y="-260.8" font-family="Times,serif" font-size="14.00">class = Non&#45;obstructive</text>
</g>
<!-- 1&#45;&gt;2 -->
<g id="edge2" class="edge">
<title>1&#45;&gt;2</title>
<path fill="none" stroke="black" d="M681.78,-392.51C652.33,-379.63 619.73,-365.39 589.37,-352.11"/>
<polygon fill="black" stroke="black" points="590.59,-348.83 580.02,-348.03 587.78,-355.24 590.59,-348.83"/>
</g>
<!-- 7 -->
<g id="node8" class="node">
<title>7</title>
<polygon fill="none" stroke="black" points="871.5,-351 686.5,-351 686.5,-253 871.5,-253 871.5,-351"/>
<text text-anchor="middle" x="779" y="-335.8" font-family="Times,serif" font-size="14.00">node #7</text>
<text text-anchor="middle" x="779" y="-320.8" font-family="Times,serif" font-size="14.00">FEV1PostVal &lt;= 2.22</text>
<text text-anchor="middle" x="779" y="-305.8" font-family="Times,serif" font-size="14.00">gini = 0.068</text>
<text text-anchor="middle" x="779" y="-290.8" font-family="Times,serif" font-size="14.00">samples = 49</text>
<text text-anchor="middle" x="779" y="-275.8" font-family="Times,serif" font-size="14.00">value = [2.896, 78.832]</text>
<text text-anchor="middle" x="779" y="-260.8" font-family="Times,serif" font-size="14.00">class = Obstructive</text>
</g>
<!-- 1&#45;&gt;7 -->
<g id="edge7" class="edge">
<title>1&#45;&gt;7</title>
<path fill="none" stroke="black" d="M779,-386.97C779,-378.69 779,-370 779,-361.48"/>
<polygon fill="black" stroke="black" points="782.5,-361.21 779,-351.21 775.5,-361.21 782.5,-361.21"/>
</g>
<!-- 3 -->
<g id="node4" class="node">
<title>3</title>
<polygon fill="none" stroke="black" points="365,-217 189,-217 189,-119 365,-119 365,-217"/>
<text text-anchor="middle" x="277" y="-201.8" font-family="Times,serif" font-size="14.00">node #3</text>
<text text-anchor="middle" x="277" y="-186.8" font-family="Times,serif" font-size="14.00">FVCPostVal &lt;= 1.29</text>
<text text-anchor="middle" x="277" y="-171.8" font-family="Times,serif" font-size="14.00">gini = 0.361</text>
<text text-anchor="middle" x="277" y="-156.8" font-family="Times,serif" font-size="14.00">samples = 6</text>
<text text-anchor="middle" x="277" y="-141.8" font-family="Times,serif" font-size="14.00">value = [1.931, 6.224]</text>
<text text-anchor="middle" x="277" y="-126.8" font-family="Times,serif" font-size="14.00">class = Obstructive</text>
</g>
<!-- 2&#45;&gt;3 -->
<g id="edge3" class="edge">
<title>2&#45;&gt;3</title>
<path fill="none" stroke="black" d="M404.23,-252.97C389.34,-243.14 373.58,-232.74 358.41,-222.73"/>
<polygon fill="black" stroke="black" points="360.33,-219.8 350.05,-217.21 356.47,-225.64 360.33,-219.8"/>
</g>
<!-- 6 -->
<g id="node7" class="node">
<title>6</title>
<polygon fill="none" stroke="black" points="571,-209.5 383,-209.5 383,-126.5 571,-126.5 571,-209.5"/>
<text text-anchor="middle" x="477" y="-194.3" font-family="Times,serif" font-size="14.00">node #6</text>
<text text-anchor="middle" x="477" y="-179.3" font-family="Times,serif" font-size="14.00">gini = &#45;0.0</text>
<text text-anchor="middle" x="477" y="-164.3" font-family="Times,serif" font-size="14.00">samples = 5</text>
<text text-anchor="middle" x="477" y="-149.3" font-family="Times,serif" font-size="14.00">value = [6.757, 0.0]</text>
<text text-anchor="middle" x="477" y="-134.3" font-family="Times,serif" font-size="14.00">class = Non&#45;obstructive</text>
</g>
<!-- 2&#45;&gt;6 -->
<g id="edge6" class="edge">
<title>2&#45;&gt;6</title>
<path fill="none" stroke="black" d="M477,-252.97C477,-242.25 477,-230.84 477,-219.99"/>
<polygon fill="black" stroke="black" points="480.5,-219.82 477,-209.82 473.5,-219.82 480.5,-219.82"/>
</g>
<!-- 4 -->
<g id="node5" class="node">
<title>4</title>
<polygon fill="none" stroke="black" points="176,-83 0,-83 0,0 176,0 176,-83"/>
<text text-anchor="middle" x="88" y="-67.8" font-family="Times,serif" font-size="14.00">node #4</text>
<text text-anchor="middle" x="88" y="-52.8" font-family="Times,serif" font-size="14.00">gini = 0.232</text>
<text text-anchor="middle" x="88" y="-37.8" font-family="Times,serif" font-size="14.00">samples = 5</text>
<text text-anchor="middle" x="88" y="-22.8" font-family="Times,serif" font-size="14.00">value = [0.965, 6.224]</text>
<text text-anchor="middle" x="88" y="-7.8" font-family="Times,serif" font-size="14.00">class = Obstructive</text>
</g>
<!-- 3&#45;&gt;4 -->
<g id="edge4" class="edge">
<title>3&#45;&gt;4</title>
<path fill="none" stroke="black" d="M203.93,-118.87C188.91,-108.97 173.12,-98.57 158.2,-88.74"/>
<polygon fill="black" stroke="black" points="159.81,-85.61 149.53,-83.03 155.96,-91.46 159.81,-85.61"/>
</g>
<!-- 5 -->
<g id="node6" class="node">
<title>5</title>
<polygon fill="none" stroke="black" points="382,-83 194,-83 194,0 382,0 382,-83"/>
<text text-anchor="middle" x="288" y="-67.8" font-family="Times,serif" font-size="14.00">node #5</text>
<text text-anchor="middle" x="288" y="-52.8" font-family="Times,serif" font-size="14.00">gini = 0.0</text>
<text text-anchor="middle" x="288" y="-37.8" font-family="Times,serif" font-size="14.00">samples = 1</text>
<text text-anchor="middle" x="288" y="-22.8" font-family="Times,serif" font-size="14.00">value = [0.965, 0.0]</text>
<text text-anchor="middle" x="288" y="-7.8" font-family="Times,serif" font-size="14.00">class = Non&#45;obstructive</text>
</g>
<!-- 3&#45;&gt;5 -->
<g id="edge5" class="edge">
<title>3&#45;&gt;5</title>
<path fill="none" stroke="black" d="M281.25,-118.87C281.99,-110.5 282.76,-101.77 283.51,-93.33"/>
<polygon fill="black" stroke="black" points="287.01,-93.5 284.4,-83.23 280.03,-92.88 287.01,-93.5"/>
</g>
<!-- 8 -->
<g id="node9" class="node">
<title>8</title>
<polygon fill="none" stroke="black" points="786.5,-217 589.5,-217 589.5,-119 786.5,-119 786.5,-217"/>
<text text-anchor="middle" x="688" y="-201.8" font-family="Times,serif" font-size="14.00">node #8</text>
<text text-anchor="middle" x="688" y="-186.8" font-family="Times,serif" font-size="14.00">FEFPostPercent &lt;= 32.5</text>
<text text-anchor="middle" x="688" y="-171.8" font-family="Times,serif" font-size="14.00">gini = 0.025</text>
<text text-anchor="middle" x="688" y="-156.8" font-family="Times,serif" font-size="14.00">samples = 46</text>
<text text-anchor="middle" x="688" y="-141.8" font-family="Times,serif" font-size="14.00">value = [0.965, 74.683]</text>
<text text-anchor="middle" x="688" y="-126.8" font-family="Times,serif" font-size="14.00">class = Obstructive</text>
</g>
<!-- 7&#45;&gt;8 -->
<g id="edge8" class="edge">
<title>7&#45;&gt;8</title>
<path fill="none" stroke="black" d="M745.89,-252.97C739.74,-244.05 733.27,-234.66 726.96,-225.52"/>
<polygon fill="black" stroke="black" points="729.8,-223.46 721.24,-217.21 724.03,-227.43 729.8,-223.46"/>
</g>
<!-- 11 -->
<g id="node12" class="node">
<title>11</title>
<polygon fill="none" stroke="black" points="981,-217 805,-217 805,-119 981,-119 981,-217"/>
<text text-anchor="middle" x="893" y="-201.8" font-family="Times,serif" font-size="14.00">node #11</text>
<text text-anchor="middle" x="893" y="-186.8" font-family="Times,serif" font-size="14.00">FVCPostVal &lt;= 3.04</text>
<text text-anchor="middle" x="893" y="-171.8" font-family="Times,serif" font-size="14.00">gini = 0.433</text>
<text text-anchor="middle" x="893" y="-156.8" font-family="Times,serif" font-size="14.00">samples = 3</text>
<text text-anchor="middle" x="893" y="-141.8" font-family="Times,serif" font-size="14.00">value = [1.931, 4.149]</text>
<text text-anchor="middle" x="893" y="-126.8" font-family="Times,serif" font-size="14.00">class = Obstructive</text>
</g>
<!-- 7&#45;&gt;11 -->
<g id="edge11" class="edge">
<title>7&#45;&gt;11</title>
<path fill="none" stroke="black" d="M820.48,-252.97C828.34,-243.87 836.62,-234.28 844.67,-224.96"/>
<polygon fill="black" stroke="black" points="847.47,-227.07 851.36,-217.21 842.18,-222.49 847.47,-227.07"/>
</g>
<!-- 9 -->
<g id="node10" class="node">
<title>9</title>
<polygon fill="none" stroke="black" points="577.5,-83 410.5,-83 410.5,0 577.5,0 577.5,-83"/>
<text text-anchor="middle" x="494" y="-67.8" font-family="Times,serif" font-size="14.00">node #9</text>
<text text-anchor="middle" x="494" y="-52.8" font-family="Times,serif" font-size="14.00">gini = &#45;0.0</text>
<text text-anchor="middle" x="494" y="-37.8" font-family="Times,serif" font-size="14.00">samples = 37</text>
<text text-anchor="middle" x="494" y="-22.8" font-family="Times,serif" font-size="14.00">value = [0.0, 58.087]</text>
<text text-anchor="middle" x="494" y="-7.8" font-family="Times,serif" font-size="14.00">class = Obstructive</text>
</g>
<!-- 8&#45;&gt;9 -->
<g id="edge9" class="edge">
<title>8&#45;&gt;9</title>
<path fill="none" stroke="black" d="M612.99,-118.87C597.43,-108.88 581.07,-98.38 565.63,-88.47"/>
<polygon fill="black" stroke="black" points="567.47,-85.49 557.16,-83.03 563.68,-91.38 567.47,-85.49"/>
</g>
<!-- 10 -->
<g id="node11" class="node">
<title>10</title>
<polygon fill="none" stroke="black" points="780.5,-83 595.5,-83 595.5,0 780.5,0 780.5,-83"/>
<text text-anchor="middle" x="688" y="-67.8" font-family="Times,serif" font-size="14.00">node #10</text>
<text text-anchor="middle" x="688" y="-52.8" font-family="Times,serif" font-size="14.00">gini = 0.104</text>
<text text-anchor="middle" x="688" y="-37.8" font-family="Times,serif" font-size="14.00">samples = 9</text>
<text text-anchor="middle" x="688" y="-22.8" font-family="Times,serif" font-size="14.00">value = [0.965, 16.596]</text>
<text text-anchor="middle" x="688" y="-7.8" font-family="Times,serif" font-size="14.00">class = Obstructive</text>
</g>
<!-- 8&#45;&gt;10 -->
<g id="edge10" class="edge">
<title>8&#45;&gt;10</title>
<path fill="none" stroke="black" d="M688,-118.87C688,-110.5 688,-101.77 688,-93.33"/>
<polygon fill="black" stroke="black" points="691.5,-93.23 688,-83.23 684.5,-93.23 691.5,-93.23"/>
</g>
<!-- 12 -->
<g id="node13" class="node">
<title>12</title>
<polygon fill="none" stroke="black" points="987,-83 799,-83 799,0 987,0 987,-83"/>
<text text-anchor="middle" x="893" y="-67.8" font-family="Times,serif" font-size="14.00">node #12</text>
<text text-anchor="middle" x="893" y="-52.8" font-family="Times,serif" font-size="14.00">gini = 0.0</text>
<text text-anchor="middle" x="893" y="-37.8" font-family="Times,serif" font-size="14.00">samples = 1</text>
<text text-anchor="middle" x="893" y="-22.8" font-family="Times,serif" font-size="14.00">value = [1.931, 0.0]</text>
<text text-anchor="middle" x="893" y="-7.8" font-family="Times,serif" font-size="14.00">class = Non&#45;obstructive</text>
</g>
<!-- 11&#45;&gt;12 -->
<g id="edge12" class="edge">
<title>11&#45;&gt;12</title>
<path fill="none" stroke="black" d="M893,-118.87C893,-110.5 893,-101.77 893,-93.33"/>
<polygon fill="black" stroke="black" points="896.5,-93.23 893,-83.23 889.5,-93.23 896.5,-93.23"/>
</g>
<!-- 13 -->
<g id="node14" class="node">
<title>13</title>
<polygon fill="none" stroke="black" points="1163,-83 1005,-83 1005,0 1163,0 1163,-83"/>
<text text-anchor="middle" x="1084" y="-67.8" font-family="Times,serif" font-size="14.00">node #13</text>
<text text-anchor="middle" x="1084" y="-52.8" font-family="Times,serif" font-size="14.00">gini = 0.0</text>
<text text-anchor="middle" x="1084" y="-37.8" font-family="Times,serif" font-size="14.00">samples = 2</text>
<text text-anchor="middle" x="1084" y="-22.8" font-family="Times,serif" font-size="14.00">value = [0.0, 4.149]</text>
<text text-anchor="middle" x="1084" y="-7.8" font-family="Times,serif" font-size="14.00">class = Obstructive</text>
</g>
<!-- 11&#45;&gt;13 -->
<g id="edge13" class="edge">
<title>11&#45;&gt;13</title>
<path fill="none" stroke="black" d="M966.85,-118.87C982.03,-108.97 997.98,-98.57 1013.05,-88.74"/>
<polygon fill="black" stroke="black" points="1015.35,-91.43 1021.82,-83.03 1011.53,-85.56 1015.35,-91.43"/>
</g>
<!-- 15 -->
<g id="node16" class="node">
<title>15</title>
<polygon fill="none" stroke="black" points="1384.5,-351 1181.5,-351 1181.5,-253 1384.5,-253 1384.5,-351"/>
<text text-anchor="middle" x="1283" y="-335.8" font-family="Times,serif" font-size="14.00">node #15</text>
<text text-anchor="middle" x="1283" y="-320.8" font-family="Times,serif" font-size="14.00">FEFPreVal &lt;= 0.865</text>
<text text-anchor="middle" x="1283" y="-305.8" font-family="Times,serif" font-size="14.00">gini = 0.15</text>
<text text-anchor="middle" x="1283" y="-290.8" font-family="Times,serif" font-size="14.00">samples = 76</text>
<text text-anchor="middle" x="1283" y="-275.8" font-family="Times,serif" font-size="14.00">value = [116.803, 10.373]</text>
<text text-anchor="middle" x="1283" y="-260.8" font-family="Times,serif" font-size="14.00">class = Non&#45;obstructive</text>
</g>
<!-- 14&#45;&gt;15 -->
<g id="edge15" class="edge">
<title>14&#45;&gt;15</title>
<path fill="none" stroke="black" d="M1283,-386.97C1283,-378.69 1283,-370 1283,-361.48"/>
<polygon fill="black" stroke="black" points="1286.5,-361.21 1283,-351.21 1279.5,-361.21 1286.5,-361.21"/>
</g>
<!-- 20 -->
<g id="node21" class="node">
<title>20</title>
<polygon fill="none" stroke="black" points="1890.5,-351 1693.5,-351 1693.5,-253 1890.5,-253 1890.5,-351"/>
<text text-anchor="middle" x="1792" y="-335.8" font-family="Times,serif" font-size="14.00">node #20</text>
<text text-anchor="middle" x="1792" y="-320.8" font-family="Times,serif" font-size="14.00">FVCPostPercent &lt;= 80.0</text>
<text text-anchor="middle" x="1792" y="-305.8" font-family="Times,serif" font-size="14.00">gini = 0.455</text>
<text text-anchor="middle" x="1792" y="-290.8" font-family="Times,serif" font-size="14.00">samples = 61</text>
<text text-anchor="middle" x="1792" y="-275.8" font-family="Times,serif" font-size="14.00">value = [38.613, 71.571]</text>
<text text-anchor="middle" x="1792" y="-260.8" font-family="Times,serif" font-size="14.00">class = Obstructive</text>
</g>
<!-- 14&#45;&gt;20 -->
<g id="edge20" class="edge">
<title>14&#45;&gt;20</title>
<path fill="none" stroke="black" d="M1384.78,-408.61C1471.33,-386.16 1595.26,-354.02 1683.64,-331.1"/>
<polygon fill="black" stroke="black" points="1684.62,-334.46 1693.42,-328.56 1682.87,-327.69 1684.62,-334.46"/>
</g>
<!-- 16 -->
<g id="node17" class="node">
<title>16</title>
<polygon fill="none" stroke="black" points="1265,-209.5 1107,-209.5 1107,-126.5 1265,-126.5 1265,-209.5"/>
<text text-anchor="middle" x="1186" y="-194.3" font-family="Times,serif" font-size="14.00">node #16</text>
<text text-anchor="middle" x="1186" y="-179.3" font-family="Times,serif" font-size="14.00">gini = 0.0</text>
<text text-anchor="middle" x="1186" y="-164.3" font-family="Times,serif" font-size="14.00">samples = 2</text>
<text text-anchor="middle" x="1186" y="-149.3" font-family="Times,serif" font-size="14.00">value = [0.0, 3.112]</text>
<text text-anchor="middle" x="1186" y="-134.3" font-family="Times,serif" font-size="14.00">class = Obstructive</text>
</g>
<!-- 15&#45;&gt;16 -->
<g id="edge16" class="edge">
<title>15&#45;&gt;16</title>
<path fill="none" stroke="black" d="M1247.71,-252.97C1239.34,-241.58 1230.4,-229.42 1222,-217.99"/>
<polygon fill="black" stroke="black" points="1224.74,-215.8 1215.99,-209.82 1219.1,-219.95 1224.74,-215.8"/>
</g>
<!-- 17 -->
<g id="node18" class="node">
<title>17</title>
<polygon fill="none" stroke="black" points="1477,-217 1283,-217 1283,-119 1477,-119 1477,-217"/>
<text text-anchor="middle" x="1380" y="-201.8" font-family="Times,serif" font-size="14.00">node #17</text>
<text text-anchor="middle" x="1380" y="-186.8" font-family="Times,serif" font-size="14.00">FEFPreVal &lt;= 3.565</text>
<text text-anchor="middle" x="1380" y="-171.8" font-family="Times,serif" font-size="14.00">gini = 0.11</text>
<text text-anchor="middle" x="1380" y="-156.8" font-family="Times,serif" font-size="14.00">samples = 74</text>
<text text-anchor="middle" x="1380" y="-141.8" font-family="Times,serif" font-size="14.00">value = [116.803, 7.261]</text>
<text text-anchor="middle" x="1380" y="-126.8" font-family="Times,serif" font-size="14.00">class = Non&#45;obstructive</text>
</g>
<!-- 15&#45;&gt;17 -->
<g id="edge17" class="edge">
<title>15&#45;&gt;17</title>
<path fill="none" stroke="black" d="M1318.29,-252.97C1324.85,-244.05 1331.75,-234.66 1338.47,-225.52"/>
<polygon fill="black" stroke="black" points="1341.47,-227.34 1344.57,-217.21 1335.83,-223.2 1341.47,-227.34"/>
</g>
<!-- 18 -->
<g id="node19" class="node">
<title>18</title>
<polygon fill="none" stroke="black" points="1375,-83 1181,-83 1181,0 1375,0 1375,-83"/>
<text text-anchor="middle" x="1278" y="-67.8" font-family="Times,serif" font-size="14.00">node #18</text>
<text text-anchor="middle" x="1278" y="-52.8" font-family="Times,serif" font-size="14.00">gini = 0.071</text>
<text text-anchor="middle" x="1278" y="-37.8" font-family="Times,serif" font-size="14.00">samples = 66</text>
<text text-anchor="middle" x="1278" y="-22.8" font-family="Times,serif" font-size="14.00">value = [109.081, 4.149]</text>
<text text-anchor="middle" x="1278" y="-7.8" font-family="Times,serif" font-size="14.00">class = Non&#45;obstructive</text>
</g>
<!-- 17&#45;&gt;18 -->
<g id="edge18" class="edge">
<title>17&#45;&gt;18</title>
<path fill="none" stroke="black" d="M1340.56,-118.87C1333.11,-109.76 1325.3,-100.23 1317.83,-91.12"/>
<polygon fill="black" stroke="black" points="1320.41,-88.75 1311.37,-83.23 1315,-93.18 1320.41,-88.75"/>
</g>
<!-- 19 -->
<g id="node20" class="node">
<title>19</title>
<polygon fill="none" stroke="black" points="1581,-83 1393,-83 1393,0 1581,0 1581,-83"/>
<text text-anchor="middle" x="1487" y="-67.8" font-family="Times,serif" font-size="14.00">node #19</text>
<text text-anchor="middle" x="1487" y="-52.8" font-family="Times,serif" font-size="14.00">gini = 0.409</text>
<text text-anchor="middle" x="1487" y="-37.8" font-family="Times,serif" font-size="14.00">samples = 8</text>
<text text-anchor="middle" x="1487" y="-22.8" font-family="Times,serif" font-size="14.00">value = [7.723, 3.112]</text>
<text text-anchor="middle" x="1487" y="-7.8" font-family="Times,serif" font-size="14.00">class = Non&#45;obstructive</text>
</g>
<!-- 17&#45;&gt;19 -->
<g id="edge19" class="edge">
<title>17&#45;&gt;19</title>
<path fill="none" stroke="black" d="M1421.37,-118.87C1429.27,-109.67 1437.55,-100.04 1445.45,-90.84"/>
<polygon fill="black" stroke="black" points="1448.13,-93.1 1451.99,-83.23 1442.82,-88.53 1448.13,-93.1"/>
</g>
<!-- 21 -->
<g id="node22" class="node">
<title>21</title>
<polygon fill="none" stroke="black" points="1890.5,-217 1693.5,-217 1693.5,-119 1890.5,-119 1890.5,-217"/>
<text text-anchor="middle" x="1792" y="-201.8" font-family="Times,serif" font-size="14.00">node #21</text>
<text text-anchor="middle" x="1792" y="-186.8" font-family="Times,serif" font-size="14.00">FVCPostPercent &lt;= 76.5</text>
<text text-anchor="middle" x="1792" y="-171.8" font-family="Times,serif" font-size="14.00">gini = 0.5</text>
<text text-anchor="middle" x="1792" y="-156.8" font-family="Times,serif" font-size="14.00">samples = 33</text>
<text text-anchor="middle" x="1792" y="-141.8" font-family="Times,serif" font-size="14.00">value = [29.925, 31.118]</text>
<text text-anchor="middle" x="1792" y="-126.8" font-family="Times,serif" font-size="14.00">class = Obstructive</text>
</g>
<!-- 20&#45;&gt;21 -->
<g id="edge21" class="edge">
<title>20&#45;&gt;21</title>
<path fill="none" stroke="black" d="M1792,-252.97C1792,-244.69 1792,-236 1792,-227.48"/>
<polygon fill="black" stroke="black" points="1795.5,-227.21 1792,-217.21 1788.5,-227.21 1795.5,-227.21"/>
</g>
<!-- 24 -->
<g id="node25" class="node">
<title>24</title>
<polygon fill="none" stroke="black" points="2214.5,-217 2005.5,-217 2005.5,-119 2214.5,-119 2214.5,-217"/>
<text text-anchor="middle" x="2110" y="-201.8" font-family="Times,serif" font-size="14.00">node #24</text>
<text text-anchor="middle" x="2110" y="-186.8" font-family="Times,serif" font-size="14.00">FEV1PrePercent &lt;= 104.5</text>
<text text-anchor="middle" x="2110" y="-171.8" font-family="Times,serif" font-size="14.00">gini = 0.291</text>
<text text-anchor="middle" x="2110" y="-156.8" font-family="Times,serif" font-size="14.00">samples = 28</text>
<text text-anchor="middle" x="2110" y="-141.8" font-family="Times,serif" font-size="14.00">value = [8.688, 40.453]</text>
<text text-anchor="middle" x="2110" y="-126.8" font-family="Times,serif" font-size="14.00">class = Obstructive</text>
</g>
<!-- 20&#45;&gt;24 -->
<g id="edge24" class="edge">
<title>20&#45;&gt;24</title>
<path fill="none" stroke="black" d="M1890.87,-259.96C1924.12,-246.16 1961.48,-230.65 1995.81,-216.4"/>
<polygon fill="black" stroke="black" points="1997.51,-219.48 2005.41,-212.42 1994.83,-213.02 1997.51,-219.48"/>
</g>
<!-- 22 -->
<g id="node23" class="node">
<title>22</title>
<polygon fill="none" stroke="black" points="1793,-83 1599,-83 1599,0 1793,0 1793,-83"/>
<text text-anchor="middle" x="1696" y="-67.8" font-family="Times,serif" font-size="14.00">node #22</text>
<text text-anchor="middle" x="1696" y="-52.8" font-family="Times,serif" font-size="14.00">gini = 0.467</text>
<text text-anchor="middle" x="1696" y="-37.8" font-family="Times,serif" font-size="14.00">samples = 29</text>
<text text-anchor="middle" x="1696" y="-22.8" font-family="Times,serif" font-size="14.00">value = [18.341, 31.118]</text>
<text text-anchor="middle" x="1696" y="-7.8" font-family="Times,serif" font-size="14.00">class = Obstructive</text>
</g>
<!-- 21&#45;&gt;22 -->
<g id="edge22" class="edge">
<title>21&#45;&gt;22</title>
<path fill="none" stroke="black" d="M1754.88,-118.87C1747.94,-109.85 1740.67,-100.43 1733.7,-91.39"/>
<polygon fill="black" stroke="black" points="1736.29,-89.01 1727.41,-83.23 1730.74,-93.29 1736.29,-89.01"/>
</g>
<!-- 23 -->
<g id="node24" class="node">
<title>23</title>
<polygon fill="none" stroke="black" points="1999,-83 1811,-83 1811,0 1999,0 1999,-83"/>
<text text-anchor="middle" x="1905" y="-67.8" font-family="Times,serif" font-size="14.00">node #23</text>
<text text-anchor="middle" x="1905" y="-52.8" font-family="Times,serif" font-size="14.00">gini = &#45;0.0</text>
<text text-anchor="middle" x="1905" y="-37.8" font-family="Times,serif" font-size="14.00">samples = 4</text>
<text text-anchor="middle" x="1905" y="-22.8" font-family="Times,serif" font-size="14.00">value = [11.584, 0.0]</text>
<text text-anchor="middle" x="1905" y="-7.8" font-family="Times,serif" font-size="14.00">class = Non&#45;obstructive</text>
</g>
<!-- 21&#45;&gt;23 -->
<g id="edge23" class="edge">
<title>21&#45;&gt;23</title>
<path fill="none" stroke="black" d="M1835.69,-118.87C1844.03,-109.67 1852.77,-100.04 1861.12,-90.84"/>
<polygon fill="black" stroke="black" points="1863.9,-92.99 1868.03,-83.23 1858.72,-88.28 1863.9,-92.99"/>
</g>
<!-- 25 -->
<g id="node26" class="node">
<title>25</title>
<polygon fill="none" stroke="black" points="2202.5,-83 2017.5,-83 2017.5,0 2202.5,0 2202.5,-83"/>
<text text-anchor="middle" x="2110" y="-67.8" font-family="Times,serif" font-size="14.00">node #25</text>
<text text-anchor="middle" x="2110" y="-52.8" font-family="Times,serif" font-size="14.00">gini = 0.198</text>
<text text-anchor="middle" x="2110" y="-37.8" font-family="Times,serif" font-size="14.00">samples = 24</text>
<text text-anchor="middle" x="2110" y="-22.8" font-family="Times,serif" font-size="14.00">value = [4.827, 38.379]</text>
<text text-anchor="middle" x="2110" y="-7.8" font-family="Times,serif" font-size="14.00">class = Obstructive</text>
</g>
<!-- 24&#45;&gt;25 -->
<g id="edge25" class="edge">
<title>24&#45;&gt;25</title>
<path fill="none" stroke="black" d="M2110,-118.87C2110,-110.5 2110,-101.77 2110,-93.33"/>
<polygon fill="black" stroke="black" points="2113.5,-93.23 2110,-83.23 2106.5,-93.23 2113.5,-93.23"/>
</g>
<!-- 26 -->
<g id="node27" class="node">
<title>26</title>
<polygon fill="none" stroke="black" points="2409,-83 2221,-83 2221,0 2409,0 2409,-83"/>
<text text-anchor="middle" x="2315" y="-67.8" font-family="Times,serif" font-size="14.00">node #26</text>
<text text-anchor="middle" x="2315" y="-52.8" font-family="Times,serif" font-size="14.00">gini = 0.455</text>
<text text-anchor="middle" x="2315" y="-37.8" font-family="Times,serif" font-size="14.00">samples = 4</text>
<text text-anchor="middle" x="2315" y="-22.8" font-family="Times,serif" font-size="14.00">value = [3.861, 2.075]</text>
<text text-anchor="middle" x="2315" y="-7.8" font-family="Times,serif" font-size="14.00">class = Non&#45;obstructive</text>
</g>
<!-- 24&#45;&gt;26 -->
<g id="edge26" class="edge">
<title>24&#45;&gt;26</title>
<path fill="none" stroke="black" d="M2189.26,-118.87C2205.7,-108.88 2222.99,-98.38 2239.31,-88.47"/>
<polygon fill="black" stroke="black" points="2241.53,-91.21 2248.26,-83.03 2237.9,-85.23 2241.53,-91.21"/>
</g>
</g>
</svg>
