<?xml version="1.0" encoding="UTF-8" standalone="no"?>
<!DOCTYPE svg PUBLIC "-//W3C//DTD SVG 1.1//EN"
 "http://www.w3.org/Graphics/SVG/1.1/DTD/svg11.dtd">
<!-- Generated by graphviz version 2.43.0 (0)
 -->
<!-- Title: Tree Pages: 1 -->
<svg width="1995pt" height="627pt"
 viewBox="0.00 0.00 1994.50 627.00" xmlns="http://www.w3.org/2000/svg" xmlns:xlink="http://www.w3.org/1999/xlink">
<g id="graph0" class="graph" transform="scale(1 1) rotate(0) translate(4 623)">
<title>Tree</title>
<polygon fill="white" stroke="transparent" points="-4,4 -4,-623 1990.5,-623 1990.5,4 -4,4"/>
<!-- 0 -->
<g id="node1" class="node">
<title>0</title>
<polygon fill="none" stroke="black" points="707,-619 498,-619 498,-521 707,-521 707,-619"/>
<text text-anchor="middle" x="602.5" y="-603.8" font-family="Times,serif" font-size="14.00">node #0</text>
<text text-anchor="middle" x="602.5" y="-588.8" font-family="Times,serif" font-size="14.00">FEFPrePercent &lt;= 35.275</text>
<text text-anchor="middle" x="602.5" y="-573.8" font-family="Times,serif" font-size="14.00">gini = 0.5</text>
<text text-anchor="middle" x="602.5" y="-558.8" font-family="Times,serif" font-size="14.00">samples = 214</text>
<text text-anchor="middle" x="602.5" y="-543.8" font-family="Times,serif" font-size="14.00">value = [167.0, 167.0]</text>
<text text-anchor="middle" x="602.5" y="-528.8" font-family="Times,serif" font-size="14.00">class = Obstructive</text>
</g>
<!-- 1 -->
<g id="node2" class="node">
<title>1</title>
<polygon fill="none" stroke="black" points="594,-485 397,-485 397,-387 594,-387 594,-485"/>
<text text-anchor="middle" x="495.5" y="-469.8" font-family="Times,serif" font-size="14.00">node #1</text>
<text text-anchor="middle" x="495.5" y="-454.8" font-family="Times,serif" font-size="14.00">FEFPostPercent &lt;= 24.5</text>
<text text-anchor="middle" x="495.5" y="-439.8" font-family="Times,serif" font-size="14.00">gini = 0.13</text>
<text text-anchor="middle" x="495.5" y="-424.8" font-family="Times,serif" font-size="14.00">samples = 74</text>
<text text-anchor="middle" x="495.5" y="-409.8" font-family="Times,serif" font-size="14.00">value = [7.542, 100.76]</text>
<text text-anchor="middle" x="495.5" y="-394.8" font-family="Times,serif" font-size="14.00">class = Obstructive</text>
</g>
<!-- 0&#45;&gt;1 -->
<g id="edge1" class="edge">
<title>0&#45;&gt;1</title>
<path fill="none" stroke="black" d="M563.57,-520.97C556.27,-511.96 548.57,-502.47 541.09,-493.24"/>
<polygon fill="black" stroke="black" points="543.6,-490.78 534.58,-485.21 538.16,-495.19 543.6,-490.78"/>
<text text-anchor="middle" x="531.98" y="-506.38" font-family="Times,serif" font-size="14.00">True</text>
</g>
<!-- 8 -->
<g id="node9" class="node">
<title>8</title>
<polygon fill="none" stroke="black" points="904.5,-485 710.5,-485 710.5,-387 904.5,-387 904.5,-485"/>
<text text-anchor="middle" x="807.5" y="-469.8" font-family="Times,serif" font-size="14.00">node #8</text>
<text text-anchor="middle" x="807.5" y="-454.8" font-family="Times,serif" font-size="14.00">FVCPreVal &lt;= 2.035</text>
<text text-anchor="middle" x="807.5" y="-439.8" font-family="Times,serif" font-size="14.00">gini = 0.415</text>
<text text-anchor="middle" x="807.5" y="-424.8" font-family="Times,serif" font-size="14.00">samples = 140</text>
<text text-anchor="middle" x="807.5" y="-409.8" font-family="Times,serif" font-size="14.00">value = [159.458, 66.24]</text>
<text text-anchor="middle" x="807.5" y="-394.8" font-family="Times,serif" font-size="14.00">class = Non&#45;obstructive</text>
</g>
<!-- 0&#45;&gt;8 -->
<g id="edge8" class="edge">
<title>0&#45;&gt;8</title>
<path fill="none" stroke="black" d="M677.09,-520.97C692.35,-511.14 708.51,-500.74 724.06,-490.73"/>
<polygon fill="black" stroke="black" points="726.11,-493.57 732.62,-485.21 722.32,-487.68 726.11,-493.57"/>
<text text-anchor="middle" x="727.33" y="-505.95" font-family="Times,serif" font-size="14.00">False</text>
</g>
<!-- 2 -->
<g id="node3" class="node">
<title>2</title>
<polygon fill="none" stroke="black" points="385,-343.5 218,-343.5 218,-260.5 385,-260.5 385,-343.5"/>
<text text-anchor="middle" x="301.5" y="-328.3" font-family="Times,serif" font-size="14.00">node #2</text>
<text text-anchor="middle" x="301.5" y="-313.3" font-family="Times,serif" font-size="14.00">gini = 0.0</text>
<text text-anchor="middle" x="301.5" y="-298.3" font-family="Times,serif" font-size="14.00">samples = 36</text>
<text text-anchor="middle" x="301.5" y="-283.3" font-family="Times,serif" font-size="14.00">value = [0.0, 54.112]</text>
<text text-anchor="middle" x="301.5" y="-268.3" font-family="Times,serif" font-size="14.00">class = Obstructive</text>
</g>
<!-- 1&#45;&gt;2 -->
<g id="edge2" class="edge">
<title>1&#45;&gt;2</title>
<path fill="none" stroke="black" d="M424.91,-386.97C406.94,-374.75 387.67,-361.63 369.81,-349.48"/>
<polygon fill="black" stroke="black" points="371.41,-346.34 361.17,-343.6 367.47,-352.12 371.41,-346.34"/>
</g>
<!-- 3 -->
<g id="node4" class="node">
<title>3</title>
<polygon fill="none" stroke="black" points="588,-351 403,-351 403,-253 588,-253 588,-351"/>
<text text-anchor="middle" x="495.5" y="-335.8" font-family="Times,serif" font-size="14.00">node #3</text>
<text text-anchor="middle" x="495.5" y="-320.8" font-family="Times,serif" font-size="14.00">FEV1PostVal &lt;= 1.57</text>
<text text-anchor="middle" x="495.5" y="-305.8" font-family="Times,serif" font-size="14.00">gini = 0.24</text>
<text text-anchor="middle" x="495.5" y="-290.8" font-family="Times,serif" font-size="14.00">samples = 38</text>
<text text-anchor="middle" x="495.5" y="-275.8" font-family="Times,serif" font-size="14.00">value = [7.542, 46.648]</text>
<text text-anchor="middle" x="495.5" y="-260.8" font-family="Times,serif" font-size="14.00">class = Obstructive</text>
</g>
<!-- 1&#45;&gt;3 -->
<g id="edge3" class="edge">
<title>1&#45;&gt;3</title>
<path fill="none" stroke="black" d="M495.5,-386.97C495.5,-378.69 495.5,-370 495.5,-361.48"/>
<polygon fill="black" stroke="black" points="499,-361.21 495.5,-351.21 492,-361.21 499,-361.21"/>
</g>
<!-- 4 -->
<g id="node5" class="node">
<title>4</title>
<polygon fill="none" stroke="black" points="394,-217 197,-217 197,-119 394,-119 394,-217"/>
<text text-anchor="middle" x="295.5" y="-201.8" font-family="Times,serif" font-size="14.00">node #4</text>
<text text-anchor="middle" x="295.5" y="-186.8" font-family="Times,serif" font-size="14.00">FEFPostPercent &lt;= 39.5</text>
<text text-anchor="middle" x="295.5" y="-171.8" font-family="Times,serif" font-size="14.00">gini = 0.377</text>
<text text-anchor="middle" x="295.5" y="-156.8" font-family="Times,serif" font-size="14.00">samples = 22</text>
<text text-anchor="middle" x="295.5" y="-141.8" font-family="Times,serif" font-size="14.00">value = [7.542, 22.391]</text>
<text text-anchor="middle" x="295.5" y="-126.8" font-family="Times,serif" font-size="14.00">class = Obstructive</text>
</g>
<!-- 3&#45;&gt;4 -->
<g id="edge4" class="edge">
<title>3&#45;&gt;4</title>
<path fill="none" stroke="black" d="M422.73,-252.97C407.84,-243.14 392.08,-232.74 376.91,-222.73"/>
<polygon fill="black" stroke="black" points="378.83,-219.8 368.55,-217.21 374.97,-225.64 378.83,-219.8"/>
</g>
<!-- 7 -->
<g id="node8" class="node">
<title>7</title>
<polygon fill="none" stroke="black" points="579,-209.5 412,-209.5 412,-126.5 579,-126.5 579,-209.5"/>
<text text-anchor="middle" x="495.5" y="-194.3" font-family="Times,serif" font-size="14.00">node #7</text>
<text text-anchor="middle" x="495.5" y="-179.3" font-family="Times,serif" font-size="14.00">gini = 0.0</text>
<text text-anchor="middle" x="495.5" y="-164.3" font-family="Times,serif" font-size="14.00">samples = 16</text>
<text text-anchor="middle" x="495.5" y="-149.3" font-family="Times,serif" font-size="14.00">value = [0.0, 24.257]</text>
<text text-anchor="middle" x="495.5" y="-134.3" font-family="Times,serif" font-size="14.00">class = Obstructive</text>
</g>
<!-- 3&#45;&gt;7 -->
<g id="edge7" class="edge">
<title>3&#45;&gt;7</title>
<path fill="none" stroke="black" d="M495.5,-252.97C495.5,-242.25 495.5,-230.84 495.5,-219.99"/>
<polygon fill="black" stroke="black" points="499,-219.82 495.5,-209.82 492,-219.82 499,-219.82"/>
</g>
<!-- 5 -->
<g id="node6" class="node">
<title>5</title>
<polygon fill="none" stroke="black" points="185,-83 0,-83 0,0 185,0 185,-83"/>
<text text-anchor="middle" x="92.5" y="-67.8" font-family="Times,serif" font-size="14.00">node #5</text>
<text text-anchor="middle" x="92.5" y="-52.8" font-family="Times,serif" font-size="14.00">gini = 0.313</text>
<text text-anchor="middle" x="92.5" y="-37.8" font-family="Times,serif" font-size="14.00">samples = 20</text>
<text text-anchor="middle" x="92.5" y="-22.8" font-family="Times,serif" font-size="14.00">value = [5.387, 22.391]</text>
<text text-anchor="middle" x="92.5" y="-7.8" font-family="Times,serif" font-size="14.00">class = Obstructive</text>
</g>
<!-- 4&#45;&gt;5 -->
<g id="edge5" class="edge">
<title>4&#45;&gt;5</title>
<path fill="none" stroke="black" d="M217.01,-118.87C200.73,-108.88 183.61,-98.38 167.45,-88.47"/>
<polygon fill="black" stroke="black" points="168.94,-85.28 158.59,-83.03 165.28,-91.24 168.94,-85.28"/>
</g>
<!-- 6 -->
<g id="node7" class="node">
<title>6</title>
<polygon fill="none" stroke="black" points="391.5,-83 203.5,-83 203.5,0 391.5,0 391.5,-83"/>
<text text-anchor="middle" x="297.5" y="-67.8" font-family="Times,serif" font-size="14.00">node #6</text>
<text text-anchor="middle" x="297.5" y="-52.8" font-family="Times,serif" font-size="14.00">gini = 0.0</text>
<text text-anchor="middle" x="297.5" y="-37.8" font-family="Times,serif" font-size="14.00">samples = 2</text>
<text text-anchor="middle" x="297.5" y="-22.8" font-family="Times,serif" font-size="14.00">value = [2.155, 0.0]</text>
<text text-anchor="middle" x="297.5" y="-7.8" font-family="Times,serif" font-size="14.00">class = Non&#45;obstructive</text>
</g>
<!-- 4&#45;&gt;6 -->
<g id="edge6" class="edge">
<title>4&#45;&gt;6</title>
<path fill="none" stroke="black" d="M296.27,-118.87C296.41,-110.5 296.55,-101.77 296.68,-93.33"/>
<polygon fill="black" stroke="black" points="300.18,-93.29 296.85,-83.23 293.19,-93.17 300.18,-93.29"/>
</g>
<!-- 9 -->
<g id="node10" class="node">
<title>9</title>
<polygon fill="none" stroke="black" points="904.5,-351 710.5,-351 710.5,-253 904.5,-253 904.5,-351"/>
<text text-anchor="middle" x="807.5" y="-335.8" font-family="Times,serif" font-size="14.00">node #9</text>
<text text-anchor="middle" x="807.5" y="-320.8" font-family="Times,serif" font-size="14.00">FEFPrePercent &lt;= 48.5</text>
<text text-anchor="middle" x="807.5" y="-305.8" font-family="Times,serif" font-size="14.00">gini = 0.122</text>
<text text-anchor="middle" x="807.5" y="-290.8" font-family="Times,serif" font-size="14.00">samples = 66</text>
<text text-anchor="middle" x="807.5" y="-275.8" font-family="Times,serif" font-size="14.00">value = [106.665, 7.464]</text>
<text text-anchor="middle" x="807.5" y="-260.8" font-family="Times,serif" font-size="14.00">class = Non&#45;obstructive</text>
</g>
<!-- 8&#45;&gt;9 -->
<g id="edge9" class="edge">
<title>8&#45;&gt;9</title>
<path fill="none" stroke="black" d="M807.5,-386.97C807.5,-378.69 807.5,-370 807.5,-361.48"/>
<polygon fill="black" stroke="black" points="811,-361.21 807.5,-351.21 804,-361.21 811,-361.21"/>
</g>
<!-- 16 -->
<g id="node17" class="node">
<title>16</title>
<polygon fill="none" stroke="black" points="1474.5,-351 1280.5,-351 1280.5,-253 1474.5,-253 1474.5,-351"/>
<text text-anchor="middle" x="1377.5" y="-335.8" font-family="Times,serif" font-size="14.00">node #16</text>
<text text-anchor="middle" x="1377.5" y="-320.8" font-family="Times,serif" font-size="14.00">FVCPostVal &lt;= 2.18</text>
<text text-anchor="middle" x="1377.5" y="-305.8" font-family="Times,serif" font-size="14.00">gini = 0.499</text>
<text text-anchor="middle" x="1377.5" y="-290.8" font-family="Times,serif" font-size="14.00">samples = 74</text>
<text text-anchor="middle" x="1377.5" y="-275.8" font-family="Times,serif" font-size="14.00">value = [52.794, 58.777]</text>
<text text-anchor="middle" x="1377.5" y="-260.8" font-family="Times,serif" font-size="14.00">class = Obstructive</text>
</g>
<!-- 8&#45;&gt;16 -->
<g id="edge16" class="edge">
<title>8&#45;&gt;16</title>
<path fill="none" stroke="black" d="M904.52,-412.53C1006.11,-389.01 1165.23,-352.16 1270.44,-327.79"/>
<polygon fill="black" stroke="black" points="1271.5,-331.14 1280.45,-325.48 1269.92,-324.32 1271.5,-331.14"/>
</g>
<!-- 10 -->
<g id="node11" class="node">
<title>10</title>
<polygon fill="none" stroke="black" points="794,-217 597,-217 597,-119 794,-119 794,-217"/>
<text text-anchor="middle" x="695.5" y="-201.8" font-family="Times,serif" font-size="14.00">node #10</text>
<text text-anchor="middle" x="695.5" y="-186.8" font-family="Times,serif" font-size="14.00">FEFPostPercent &lt;= 50.5</text>
<text text-anchor="middle" x="695.5" y="-171.8" font-family="Times,serif" font-size="14.00">gini = 0.464</text>
<text text-anchor="middle" x="695.5" y="-156.8" font-family="Times,serif" font-size="14.00">samples = 13</text>
<text text-anchor="middle" x="695.5" y="-141.8" font-family="Times,serif" font-size="14.00">value = [9.697, 5.598]</text>
<text text-anchor="middle" x="695.5" y="-126.8" font-family="Times,serif" font-size="14.00">class = Non&#45;obstructive</text>
</g>
<!-- 9&#45;&gt;10 -->
<g id="edge10" class="edge">
<title>9&#45;&gt;10</title>
<path fill="none" stroke="black" d="M766.75,-252.97C759.03,-243.87 750.89,-234.28 742.98,-224.96"/>
<polygon fill="black" stroke="black" points="745.55,-222.57 736.41,-217.21 740.21,-227.1 745.55,-222.57"/>
</g>
<!-- 13 -->
<g id="node14" class="node">
<title>13</title>
<polygon fill="none" stroke="black" points="1000.5,-217 812.5,-217 812.5,-119 1000.5,-119 1000.5,-217"/>
<text text-anchor="middle" x="906.5" y="-201.8" font-family="Times,serif" font-size="14.00">node #13</text>
<text text-anchor="middle" x="906.5" y="-186.8" font-family="Times,serif" font-size="14.00">FEV1PostVal &lt;= 1.145</text>
<text text-anchor="middle" x="906.5" y="-171.8" font-family="Times,serif" font-size="14.00">gini = 0.037</text>
<text text-anchor="middle" x="906.5" y="-156.8" font-family="Times,serif" font-size="14.00">samples = 53</text>
<text text-anchor="middle" x="906.5" y="-141.8" font-family="Times,serif" font-size="14.00">value = [96.968, 1.866]</text>
<text text-anchor="middle" x="906.5" y="-126.8" font-family="Times,serif" font-size="14.00">class = Non&#45;obstructive</text>
</g>
<!-- 9&#45;&gt;13 -->
<g id="edge13" class="edge">
<title>9&#45;&gt;13</title>
<path fill="none" stroke="black" d="M843.52,-252.97C850.28,-243.96 857.4,-234.47 864.32,-225.24"/>
<polygon fill="black" stroke="black" points="867.14,-227.31 870.34,-217.21 861.54,-223.11 867.14,-227.31"/>
</g>
<!-- 11 -->
<g id="node12" class="node">
<title>11</title>
<polygon fill="none" stroke="black" points="598.5,-83 410.5,-83 410.5,0 598.5,0 598.5,-83"/>
<text text-anchor="middle" x="504.5" y="-67.8" font-family="Times,serif" font-size="14.00">node #11</text>
<text text-anchor="middle" x="504.5" y="-52.8" font-family="Times,serif" font-size="14.00">gini = 0.401</text>
<text text-anchor="middle" x="504.5" y="-37.8" font-family="Times,serif" font-size="14.00">samples = 11</text>
<text text-anchor="middle" x="504.5" y="-22.8" font-family="Times,serif" font-size="14.00">value = [9.697, 3.732]</text>
<text text-anchor="middle" x="504.5" y="-7.8" font-family="Times,serif" font-size="14.00">class = Non&#45;obstructive</text>
</g>
<!-- 10&#45;&gt;11 -->
<g id="edge11" class="edge">
<title>10&#45;&gt;11</title>
<path fill="none" stroke="black" d="M621.65,-118.87C606.47,-108.97 590.52,-98.57 575.45,-88.74"/>
<polygon fill="black" stroke="black" points="576.97,-85.56 566.68,-83.03 573.15,-91.43 576.97,-85.56"/>
</g>
<!-- 12 -->
<g id="node13" class="node">
<title>12</title>
<polygon fill="none" stroke="black" points="774.5,-83 616.5,-83 616.5,0 774.5,0 774.5,-83"/>
<text text-anchor="middle" x="695.5" y="-67.8" font-family="Times,serif" font-size="14.00">node #12</text>
<text text-anchor="middle" x="695.5" y="-52.8" font-family="Times,serif" font-size="14.00">gini = &#45;0.0</text>
<text text-anchor="middle" x="695.5" y="-37.8" font-family="Times,serif" font-size="14.00">samples = 2</text>
<text text-anchor="middle" x="695.5" y="-22.8" font-family="Times,serif" font-size="14.00">value = [0.0, 1.866]</text>
<text text-anchor="middle" x="695.5" y="-7.8" font-family="Times,serif" font-size="14.00">class = Obstructive</text>
</g>
<!-- 10&#45;&gt;12 -->
<g id="edge12" class="edge">
<title>10&#45;&gt;12</title>
<path fill="none" stroke="black" d="M695.5,-118.87C695.5,-110.5 695.5,-101.77 695.5,-93.33"/>
<polygon fill="black" stroke="black" points="699,-93.23 695.5,-83.23 692,-93.23 699,-93.23"/>
</g>
<!-- 14 -->
<g id="node15" class="node">
<title>14</title>
<polygon fill="none" stroke="black" points="980.5,-83 792.5,-83 792.5,0 980.5,0 980.5,-83"/>
<text text-anchor="middle" x="886.5" y="-67.8" font-family="Times,serif" font-size="14.00">node #14</text>
<text text-anchor="middle" x="886.5" y="-52.8" font-family="Times,serif" font-size="14.00">gini = 0.097</text>
<text text-anchor="middle" x="886.5" y="-37.8" font-family="Times,serif" font-size="14.00">samples = 20</text>
<text text-anchor="middle" x="886.5" y="-22.8" font-family="Times,serif" font-size="14.00">value = [34.477, 1.866]</text>
<text text-anchor="middle" x="886.5" y="-7.8" font-family="Times,serif" font-size="14.00">class = Non&#45;obstructive</text>
</g>
<!-- 13&#45;&gt;14 -->
<g id="edge14" class="edge">
<title>13&#45;&gt;14</title>
<path fill="none" stroke="black" d="M898.77,-118.87C897.42,-110.5 896.02,-101.77 894.67,-93.33"/>
<polygon fill="black" stroke="black" points="898.08,-92.55 893.04,-83.23 891.17,-93.66 898.08,-92.55"/>
</g>
<!-- 15 -->
<g id="node16" class="node">
<title>15</title>
<polygon fill="none" stroke="black" points="1186.5,-83 998.5,-83 998.5,0 1186.5,0 1186.5,-83"/>
<text text-anchor="middle" x="1092.5" y="-67.8" font-family="Times,serif" font-size="14.00">node #15</text>
<text text-anchor="middle" x="1092.5" y="-52.8" font-family="Times,serif" font-size="14.00">gini = 0.0</text>
<text text-anchor="middle" x="1092.5" y="-37.8" font-family="Times,serif" font-size="14.00">samples = 33</text>
<text text-anchor="middle" x="1092.5" y="-22.8" font-family="Times,serif" font-size="14.00">value = [62.49, 0.0]</text>
<text text-anchor="middle" x="1092.5" y="-7.8" font-family="Times,serif" font-size="14.00">class = Non&#45;obstructive</text>
</g>
<!-- 13&#45;&gt;15 -->
<g id="edge15" class="edge">
<title>13&#45;&gt;15</title>
<path fill="none" stroke="black" d="M978.41,-118.87C993.2,-108.97 1008.73,-98.57 1023.41,-88.74"/>
<polygon fill="black" stroke="black" points="1025.58,-91.5 1031.95,-83.03 1021.69,-85.69 1025.58,-91.5"/>
</g>
<!-- 17 -->
<g id="node18" class="node">
<title>17</title>
<polygon fill="none" stroke="black" points="1471.5,-217 1283.5,-217 1283.5,-119 1471.5,-119 1471.5,-217"/>
<text text-anchor="middle" x="1377.5" y="-201.8" font-family="Times,serif" font-size="14.00">node #17</text>
<text text-anchor="middle" x="1377.5" y="-186.8" font-family="Times,serif" font-size="14.00">FEFPreVal &lt;= 1.27</text>
<text text-anchor="middle" x="1377.5" y="-171.8" font-family="Times,serif" font-size="14.00">gini = 0.207</text>
<text text-anchor="middle" x="1377.5" y="-156.8" font-family="Times,serif" font-size="14.00">samples = 12</text>
<text text-anchor="middle" x="1377.5" y="-141.8" font-family="Times,serif" font-size="14.00">value = [14.006, 1.866]</text>
<text text-anchor="middle" x="1377.5" y="-126.8" font-family="Times,serif" font-size="14.00">class = Non&#45;obstructive</text>
</g>
<!-- 16&#45;&gt;17 -->
<g id="edge17" class="edge">
<title>16&#45;&gt;17</title>
<path fill="none" stroke="black" d="M1377.5,-252.97C1377.5,-244.69 1377.5,-236 1377.5,-227.48"/>
<polygon fill="black" stroke="black" points="1381,-227.21 1377.5,-217.21 1374,-227.21 1381,-227.21"/>
</g>
<!-- 20 -->
<g id="node21" class="node">
<title>20</title>
<polygon fill="none" stroke="black" points="1782,-217 1585,-217 1585,-119 1782,-119 1782,-217"/>
<text text-anchor="middle" x="1683.5" y="-201.8" font-family="Times,serif" font-size="14.00">node #20</text>
<text text-anchor="middle" x="1683.5" y="-186.8" font-family="Times,serif" font-size="14.00">FEFPostPercent &lt;= 99.0</text>
<text text-anchor="middle" x="1683.5" y="-171.8" font-family="Times,serif" font-size="14.00">gini = 0.482</text>
<text text-anchor="middle" x="1683.5" y="-156.8" font-family="Times,serif" font-size="14.00">samples = 62</text>
<text text-anchor="middle" x="1683.5" y="-141.8" font-family="Times,serif" font-size="14.00">value = [38.787, 56.911]</text>
<text text-anchor="middle" x="1683.5" y="-126.8" font-family="Times,serif" font-size="14.00">class = Obstructive</text>
</g>
<!-- 16&#45;&gt;20 -->
<g id="edge20" class="edge">
<title>16&#45;&gt;20</title>
<path fill="none" stroke="black" d="M1474.74,-259.05C1506.89,-245.18 1542.85,-229.67 1575.74,-215.48"/>
<polygon fill="black" stroke="black" points="1577.14,-218.69 1584.94,-211.52 1574.37,-212.27 1577.14,-218.69"/>
</g>
<!-- 18 -->
<g id="node19" class="node">
<title>18</title>
<polygon fill="none" stroke="black" points="1362.5,-83 1204.5,-83 1204.5,0 1362.5,0 1362.5,-83"/>
<text text-anchor="middle" x="1283.5" y="-67.8" font-family="Times,serif" font-size="14.00">node #18</text>
<text text-anchor="middle" x="1283.5" y="-52.8" font-family="Times,serif" font-size="14.00">gini = 0.0</text>
<text text-anchor="middle" x="1283.5" y="-37.8" font-family="Times,serif" font-size="14.00">samples = 1</text>
<text text-anchor="middle" x="1283.5" y="-22.8" font-family="Times,serif" font-size="14.00">value = [0.0, 0.933]</text>
<text text-anchor="middle" x="1283.5" y="-7.8" font-family="Times,serif" font-size="14.00">class = Obstructive</text>
</g>
<!-- 17&#45;&gt;18 -->
<g id="edge18" class="edge">
<title>17&#45;&gt;18</title>
<path fill="none" stroke="black" d="M1341.16,-118.87C1334.35,-109.85 1327.24,-100.43 1320.42,-91.39"/>
<polygon fill="black" stroke="black" points="1323.07,-89.1 1314.25,-83.23 1317.49,-93.32 1323.07,-89.1"/>
</g>
<!-- 19 -->
<g id="node20" class="node">
<title>19</title>
<polygon fill="none" stroke="black" points="1568.5,-83 1380.5,-83 1380.5,0 1568.5,0 1568.5,-83"/>
<text text-anchor="middle" x="1474.5" y="-67.8" font-family="Times,serif" font-size="14.00">node #19</text>
<text text-anchor="middle" x="1474.5" y="-52.8" font-family="Times,serif" font-size="14.00">gini = 0.117</text>
<text text-anchor="middle" x="1474.5" y="-37.8" font-family="Times,serif" font-size="14.00">samples = 11</text>
<text text-anchor="middle" x="1474.5" y="-22.8" font-family="Times,serif" font-size="14.00">value = [14.006, 0.933]</text>
<text text-anchor="middle" x="1474.5" y="-7.8" font-family="Times,serif" font-size="14.00">class = Non&#45;obstructive</text>
</g>
<!-- 17&#45;&gt;19 -->
<g id="edge19" class="edge">
<title>17&#45;&gt;19</title>
<path fill="none" stroke="black" d="M1415,-118.87C1422.02,-109.85 1429.37,-100.43 1436.41,-91.39"/>
<polygon fill="black" stroke="black" points="1439.38,-93.27 1442.77,-83.23 1433.86,-88.97 1439.38,-93.27"/>
</g>
<!-- 21 -->
<g id="node22" class="node">
<title>21</title>
<polygon fill="none" stroke="black" points="1780.5,-83 1586.5,-83 1586.5,0 1780.5,0 1780.5,-83"/>
<text text-anchor="middle" x="1683.5" y="-67.8" font-family="Times,serif" font-size="14.00">node #21</text>
<text text-anchor="middle" x="1683.5" y="-52.8" font-family="Times,serif" font-size="14.00">gini = 0.425</text>
<text text-anchor="middle" x="1683.5" y="-37.8" font-family="Times,serif" font-size="14.00">samples = 47</text>
<text text-anchor="middle" x="1683.5" y="-22.8" font-family="Times,serif" font-size="14.00">value = [22.626, 51.313]</text>
<text text-anchor="middle" x="1683.5" y="-7.8" font-family="Times,serif" font-size="14.00">class = Obstructive</text>
</g>
<!-- 20&#45;&gt;21 -->
<g id="edge21" class="edge">
<title>20&#45;&gt;21</title>
<path fill="none" stroke="black" d="M1683.5,-118.87C1683.5,-110.5 1683.5,-101.77 1683.5,-93.33"/>
<polygon fill="black" stroke="black" points="1687,-93.23 1683.5,-83.23 1680,-93.23 1687,-93.23"/>
</g>
<!-- 22 -->
<g id="node23" class="node">
<title>22</title>
<polygon fill="none" stroke="black" points="1986.5,-83 1798.5,-83 1798.5,0 1986.5,0 1986.5,-83"/>
<text text-anchor="middle" x="1892.5" y="-67.8" font-family="Times,serif" font-size="14.00">node #22</text>
<text text-anchor="middle" x="1892.5" y="-52.8" font-family="Times,serif" font-size="14.00">gini = 0.382</text>
<text text-anchor="middle" x="1892.5" y="-37.8" font-family="Times,serif" font-size="14.00">samples = 15</text>
<text text-anchor="middle" x="1892.5" y="-22.8" font-family="Times,serif" font-size="14.00">value = [16.161, 5.598]</text>
<text text-anchor="middle" x="1892.5" y="-7.8" font-family="Times,serif" font-size="14.00">class = Non&#45;obstructive</text>
</g>
<!-- 20&#45;&gt;22 -->
<g id="edge22" class="edge">
<title>20&#45;&gt;22</title>
<path fill="none" stroke="black" d="M1764.3,-118.87C1781.23,-108.78 1799.02,-98.18 1815.79,-88.19"/>
<polygon fill="black" stroke="black" points="1817.66,-91.16 1824.46,-83.03 1814.08,-85.14 1817.66,-91.16"/>
</g>
</g>
</svg>
