<?xml version="1.0" encoding="UTF-8" standalone="no"?>
<!DOCTYPE svg PUBLIC "-//W3C//DTD SVG 1.1//EN"
 "http://www.w3.org/Graphics/SVG/1.1/DTD/svg11.dtd">
<!-- Generated by graphviz version 2.43.0 (0)
 -->
<!-- Title: Tree Pages: 1 -->
<svg width="2385pt" height="627pt"
 viewBox="0.00 0.00 2384.50 627.00" xmlns="http://www.w3.org/2000/svg" xmlns:xlink="http://www.w3.org/1999/xlink">
<g id="graph0" class="graph" transform="scale(1 1) rotate(0) translate(4 623)">
<title>Tree</title>
<polygon fill="white" stroke="transparent" points="-4,4 -4,-623 2380.5,-623 2380.5,4 -4,4"/>
<!-- 0 -->
<g id="node1" class="node">
<title>0</title>
<polygon fill="none" stroke="black" points="1156,-619 980,-619 980,-521 1156,-521 1156,-619"/>
<text text-anchor="middle" x="1068" y="-603.8" font-family="Times,serif" font-size="14.00">node #0</text>
<text text-anchor="middle" x="1068" y="-588.8" font-family="Times,serif" font-size="14.00">FEFPostVal &lt;= 1.14</text>
<text text-anchor="middle" x="1068" y="-573.8" font-family="Times,serif" font-size="14.00">gini = 0.5</text>
<text text-anchor="middle" x="1068" y="-558.8" font-family="Times,serif" font-size="14.00">samples = 208</text>
<text text-anchor="middle" x="1068" y="-543.8" font-family="Times,serif" font-size="14.00">value = [167.0, 167.0]</text>
<text text-anchor="middle" x="1068" y="-528.8" font-family="Times,serif" font-size="14.00">class = Obstructive</text>
</g>
<!-- 1 -->
<g id="node2" class="node">
<title>1</title>
<polygon fill="none" stroke="black" points="864.5,-485 667.5,-485 667.5,-387 864.5,-387 864.5,-485"/>
<text text-anchor="middle" x="766" y="-469.8" font-family="Times,serif" font-size="14.00">node #1</text>
<text text-anchor="middle" x="766" y="-454.8" font-family="Times,serif" font-size="14.00">FVCPostPercent &lt;= 41.0</text>
<text text-anchor="middle" x="766" y="-439.8" font-family="Times,serif" font-size="14.00">gini = 0.175</text>
<text text-anchor="middle" x="766" y="-424.8" font-family="Times,serif" font-size="14.00">samples = 64</text>
<text text-anchor="middle" x="766" y="-409.8" font-family="Times,serif" font-size="14.00">value = [9.394, 87.339]</text>
<text text-anchor="middle" x="766" y="-394.8" font-family="Times,serif" font-size="14.00">class = Obstructive</text>
</g>
<!-- 0&#45;&gt;1 -->
<g id="edge1" class="edge">
<title>0&#45;&gt;1</title>
<path fill="none" stroke="black" d="M979.84,-530.47C946.67,-515.97 908.59,-499.32 873.84,-484.13"/>
<polygon fill="black" stroke="black" points="875.17,-480.9 864.61,-480.1 872.37,-487.31 875.17,-480.9"/>
<text text-anchor="middle" x="873.72" y="-499.68" font-family="Times,serif" font-size="14.00">True</text>
</g>
<!-- 14 -->
<g id="node15" class="node">
<title>14</title>
<polygon fill="none" stroke="black" points="1484.5,-485 1281.5,-485 1281.5,-387 1484.5,-387 1484.5,-485"/>
<text text-anchor="middle" x="1383" y="-469.8" font-family="Times,serif" font-size="14.00">node #14</text>
<text text-anchor="middle" x="1383" y="-454.8" font-family="Times,serif" font-size="14.00">FVCPreVal &lt;= 1.925</text>
<text text-anchor="middle" x="1383" y="-439.8" font-family="Times,serif" font-size="14.00">gini = 0.446</text>
<text text-anchor="middle" x="1383" y="-424.8" font-family="Times,serif" font-size="14.00">samples = 144</text>
<text text-anchor="middle" x="1383" y="-409.8" font-family="Times,serif" font-size="14.00">value = [157.606, 79.661]</text>
<text text-anchor="middle" x="1383" y="-394.8" font-family="Times,serif" font-size="14.00">class = Non&#45;obstructive</text>
</g>
<!-- 0&#45;&gt;14 -->
<g id="edge14" class="edge">
<title>0&#45;&gt;14</title>
<path fill="none" stroke="black" d="M1156.16,-532.06C1191.99,-517.04 1233.79,-499.53 1271.68,-483.65"/>
<polygon fill="black" stroke="black" points="1273.35,-486.74 1281.22,-479.65 1270.65,-480.29 1273.35,-486.74"/>
<text text-anchor="middle" x="1271.75" y="-499.09" font-family="Times,serif" font-size="14.00">False</text>
</g>
<!-- 2 -->
<g id="node3" class="node">
<title>2</title>
<polygon fill="none" stroke="black" points="373,-351 167,-351 167,-253 373,-253 373,-351"/>
<text text-anchor="middle" x="270" y="-335.8" font-family="Times,serif" font-size="14.00">node #2</text>
<text text-anchor="middle" x="270" y="-320.8" font-family="Times,serif" font-size="14.00">FEV1PostPercent &lt;= 33.5</text>
<text text-anchor="middle" x="270" y="-305.8" font-family="Times,serif" font-size="14.00">gini = 0.478</text>
<text text-anchor="middle" x="270" y="-290.8" font-family="Times,serif" font-size="14.00">samples = 6</text>
<text text-anchor="middle" x="270" y="-275.8" font-family="Times,serif" font-size="14.00">value = [3.131, 4.799]</text>
<text text-anchor="middle" x="270" y="-260.8" font-family="Times,serif" font-size="14.00">class = Obstructive</text>
</g>
<!-- 1&#45;&gt;2 -->
<g id="edge2" class="edge">
<title>1&#45;&gt;2</title>
<path fill="none" stroke="black" d="M667.41,-408.76C585.4,-386.94 468.62,-355.86 382.87,-333.04"/>
<polygon fill="black" stroke="black" points="383.66,-329.63 373.1,-330.44 381.86,-336.39 383.66,-329.63"/>
</g>
<!-- 7 -->
<g id="node8" class="node">
<title>7</title>
<polygon fill="none" stroke="black" points="864.5,-351 667.5,-351 667.5,-253 864.5,-253 864.5,-351"/>
<text text-anchor="middle" x="766" y="-335.8" font-family="Times,serif" font-size="14.00">node #7</text>
<text text-anchor="middle" x="766" y="-320.8" font-family="Times,serif" font-size="14.00">FEFPostPercent &lt;= 26.5</text>
<text text-anchor="middle" x="766" y="-305.8" font-family="Times,serif" font-size="14.00">gini = 0.131</text>
<text text-anchor="middle" x="766" y="-290.8" font-family="Times,serif" font-size="14.00">samples = 58</text>
<text text-anchor="middle" x="766" y="-275.8" font-family="Times,serif" font-size="14.00">value = [6.262, 82.54]</text>
<text text-anchor="middle" x="766" y="-260.8" font-family="Times,serif" font-size="14.00">class = Obstructive</text>
</g>
<!-- 1&#45;&gt;7 -->
<g id="edge7" class="edge">
<title>1&#45;&gt;7</title>
<path fill="none" stroke="black" d="M766,-386.97C766,-378.69 766,-370 766,-361.48"/>
<polygon fill="black" stroke="black" points="769.5,-361.21 766,-351.21 762.5,-361.21 769.5,-361.21"/>
</g>
<!-- 3 -->
<g id="node4" class="node">
<title>3</title>
<polygon fill="none" stroke="black" points="158,-209.5 0,-209.5 0,-126.5 158,-126.5 158,-209.5"/>
<text text-anchor="middle" x="79" y="-194.3" font-family="Times,serif" font-size="14.00">node #3</text>
<text text-anchor="middle" x="79" y="-179.3" font-family="Times,serif" font-size="14.00">gini = 0.0</text>
<text text-anchor="middle" x="79" y="-164.3" font-family="Times,serif" font-size="14.00">samples = 3</text>
<text text-anchor="middle" x="79" y="-149.3" font-family="Times,serif" font-size="14.00">value = [0.0, 3.839]</text>
<text text-anchor="middle" x="79" y="-134.3" font-family="Times,serif" font-size="14.00">class = Obstructive</text>
</g>
<!-- 2&#45;&gt;3 -->
<g id="edge3" class="edge">
<title>2&#45;&gt;3</title>
<path fill="none" stroke="black" d="M200.5,-252.97C182.81,-240.75 163.83,-227.63 146.26,-215.48"/>
<polygon fill="black" stroke="black" points="147.97,-212.41 137.75,-209.6 143.99,-218.17 147.97,-212.41"/>
</g>
<!-- 4 -->
<g id="node5" class="node">
<title>4</title>
<polygon fill="none" stroke="black" points="364,-217 176,-217 176,-119 364,-119 364,-217"/>
<text text-anchor="middle" x="270" y="-201.8" font-family="Times,serif" font-size="14.00">node #4</text>
<text text-anchor="middle" x="270" y="-186.8" font-family="Times,serif" font-size="14.00">FEV1PreVal &lt;= 0.74</text>
<text text-anchor="middle" x="270" y="-171.8" font-family="Times,serif" font-size="14.00">gini = 0.359</text>
<text text-anchor="middle" x="270" y="-156.8" font-family="Times,serif" font-size="14.00">samples = 3</text>
<text text-anchor="middle" x="270" y="-141.8" font-family="Times,serif" font-size="14.00">value = [3.131, 0.96]</text>
<text text-anchor="middle" x="270" y="-126.8" font-family="Times,serif" font-size="14.00">class = Non&#45;obstructive</text>
</g>
<!-- 2&#45;&gt;4 -->
<g id="edge4" class="edge">
<title>2&#45;&gt;4</title>
<path fill="none" stroke="black" d="M270,-252.97C270,-244.69 270,-236 270,-227.48"/>
<polygon fill="black" stroke="black" points="273.5,-227.21 270,-217.21 266.5,-227.21 273.5,-227.21"/>
</g>
<!-- 5 -->
<g id="node6" class="node">
<title>5</title>
<polygon fill="none" stroke="black" points="157.5,-83 0.5,-83 0.5,0 157.5,0 157.5,-83"/>
<text text-anchor="middle" x="79" y="-67.8" font-family="Times,serif" font-size="14.00">node #5</text>
<text text-anchor="middle" x="79" y="-52.8" font-family="Times,serif" font-size="14.00">gini = 0.0</text>
<text text-anchor="middle" x="79" y="-37.8" font-family="Times,serif" font-size="14.00">samples = 1</text>
<text text-anchor="middle" x="79" y="-22.8" font-family="Times,serif" font-size="14.00">value = [0.0, 0.96]</text>
<text text-anchor="middle" x="79" y="-7.8" font-family="Times,serif" font-size="14.00">class = Obstructive</text>
</g>
<!-- 4&#45;&gt;5 -->
<g id="edge5" class="edge">
<title>4&#45;&gt;5</title>
<path fill="none" stroke="black" d="M196.15,-118.87C180.97,-108.97 165.02,-98.57 149.95,-88.74"/>
<polygon fill="black" stroke="black" points="151.47,-85.56 141.18,-83.03 147.65,-91.43 151.47,-85.56"/>
</g>
<!-- 6 -->
<g id="node7" class="node">
<title>6</title>
<polygon fill="none" stroke="black" points="364,-83 176,-83 176,0 364,0 364,-83"/>
<text text-anchor="middle" x="270" y="-67.8" font-family="Times,serif" font-size="14.00">node #6</text>
<text text-anchor="middle" x="270" y="-52.8" font-family="Times,serif" font-size="14.00">gini = 0.0</text>
<text text-anchor="middle" x="270" y="-37.8" font-family="Times,serif" font-size="14.00">samples = 2</text>
<text text-anchor="middle" x="270" y="-22.8" font-family="Times,serif" font-size="14.00">value = [3.131, 0.0]</text>
<text text-anchor="middle" x="270" y="-7.8" font-family="Times,serif" font-size="14.00">class = Non&#45;obstructive</text>
</g>
<!-- 4&#45;&gt;6 -->
<g id="edge6" class="edge">
<title>4&#45;&gt;6</title>
<path fill="none" stroke="black" d="M270,-118.87C270,-110.5 270,-101.77 270,-93.33"/>
<polygon fill="black" stroke="black" points="273.5,-93.23 270,-83.23 266.5,-93.23 273.5,-93.23"/>
</g>
<!-- 8 -->
<g id="node9" class="node">
<title>8</title>
<polygon fill="none" stroke="black" points="755.5,-217 570.5,-217 570.5,-119 755.5,-119 755.5,-217"/>
<text text-anchor="middle" x="663" y="-201.8" font-family="Times,serif" font-size="14.00">node #8</text>
<text text-anchor="middle" x="663" y="-186.8" font-family="Times,serif" font-size="14.00">FEV1PostVal &lt;= 0.87</text>
<text text-anchor="middle" x="663" y="-171.8" font-family="Times,serif" font-size="14.00">gini = 0.029</text>
<text text-anchor="middle" x="663" y="-156.8" font-family="Times,serif" font-size="14.00">samples = 43</text>
<text text-anchor="middle" x="663" y="-141.8" font-family="Times,serif" font-size="14.00">value = [1.044, 70.063]</text>
<text text-anchor="middle" x="663" y="-126.8" font-family="Times,serif" font-size="14.00">class = Obstructive</text>
</g>
<!-- 7&#45;&gt;8 -->
<g id="edge8" class="edge">
<title>7&#45;&gt;8</title>
<path fill="none" stroke="black" d="M728.52,-252.97C721.49,-243.96 714.09,-234.47 706.88,-225.24"/>
<polygon fill="black" stroke="black" points="709.53,-222.94 700.62,-217.21 704.01,-227.25 709.53,-222.94"/>
</g>
<!-- 11 -->
<g id="node12" class="node">
<title>11</title>
<polygon fill="none" stroke="black" points="964.5,-217 773.5,-217 773.5,-119 964.5,-119 964.5,-217"/>
<text text-anchor="middle" x="869" y="-201.8" font-family="Times,serif" font-size="14.00">node #11</text>
<text text-anchor="middle" x="869" y="-186.8" font-family="Times,serif" font-size="14.00">FEFPrePercent &lt;= 64.5</text>
<text text-anchor="middle" x="869" y="-171.8" font-family="Times,serif" font-size="14.00">gini = 0.416</text>
<text text-anchor="middle" x="869" y="-156.8" font-family="Times,serif" font-size="14.00">samples = 15</text>
<text text-anchor="middle" x="869" y="-141.8" font-family="Times,serif" font-size="14.00">value = [5.219, 12.477]</text>
<text text-anchor="middle" x="869" y="-126.8" font-family="Times,serif" font-size="14.00">class = Obstructive</text>
</g>
<!-- 7&#45;&gt;11 -->
<g id="edge11" class="edge">
<title>7&#45;&gt;11</title>
<path fill="none" stroke="black" d="M803.48,-252.97C810.51,-243.96 817.91,-234.47 825.12,-225.24"/>
<polygon fill="black" stroke="black" points="827.99,-227.25 831.38,-217.21 822.47,-222.94 827.99,-227.25"/>
</g>
<!-- 9 -->
<g id="node10" class="node">
<title>9</title>
<polygon fill="none" stroke="black" points="567.5,-83 382.5,-83 382.5,0 567.5,0 567.5,-83"/>
<text text-anchor="middle" x="475" y="-67.8" font-family="Times,serif" font-size="14.00">node #9</text>
<text text-anchor="middle" x="475" y="-52.8" font-family="Times,serif" font-size="14.00">gini = 0.134</text>
<text text-anchor="middle" x="475" y="-37.8" font-family="Times,serif" font-size="14.00">samples = 11</text>
<text text-anchor="middle" x="475" y="-22.8" font-family="Times,serif" font-size="14.00">value = [1.044, 13.437]</text>
<text text-anchor="middle" x="475" y="-7.8" font-family="Times,serif" font-size="14.00">class = Obstructive</text>
</g>
<!-- 8&#45;&gt;9 -->
<g id="edge9" class="edge">
<title>8&#45;&gt;9</title>
<path fill="none" stroke="black" d="M590.31,-118.87C575.37,-108.97 559.67,-98.57 544.83,-88.74"/>
<polygon fill="black" stroke="black" points="546.48,-85.64 536.21,-83.03 542.61,-91.47 546.48,-85.64"/>
</g>
<!-- 10 -->
<g id="node11" class="node">
<title>10</title>
<polygon fill="none" stroke="black" points="752.5,-83 585.5,-83 585.5,0 752.5,0 752.5,-83"/>
<text text-anchor="middle" x="669" y="-67.8" font-family="Times,serif" font-size="14.00">node #10</text>
<text text-anchor="middle" x="669" y="-52.8" font-family="Times,serif" font-size="14.00">gini = 0.0</text>
<text text-anchor="middle" x="669" y="-37.8" font-family="Times,serif" font-size="14.00">samples = 32</text>
<text text-anchor="middle" x="669" y="-22.8" font-family="Times,serif" font-size="14.00">value = [0.0, 56.626]</text>
<text text-anchor="middle" x="669" y="-7.8" font-family="Times,serif" font-size="14.00">class = Obstructive</text>
</g>
<!-- 8&#45;&gt;10 -->
<g id="edge10" class="edge">
<title>8&#45;&gt;10</title>
<path fill="none" stroke="black" d="M665.32,-118.87C665.72,-110.5 666.14,-101.77 666.55,-93.33"/>
<polygon fill="black" stroke="black" points="670.05,-93.39 667.04,-83.23 663.06,-93.05 670.05,-93.39"/>
</g>
<!-- 12 -->
<g id="node13" class="node">
<title>12</title>
<polygon fill="none" stroke="black" points="955.5,-83 770.5,-83 770.5,0 955.5,0 955.5,-83"/>
<text text-anchor="middle" x="863" y="-67.8" font-family="Times,serif" font-size="14.00">node #12</text>
<text text-anchor="middle" x="863" y="-52.8" font-family="Times,serif" font-size="14.00">gini = 0.376</text>
<text text-anchor="middle" x="863" y="-37.8" font-family="Times,serif" font-size="14.00">samples = 14</text>
<text text-anchor="middle" x="863" y="-22.8" font-family="Times,serif" font-size="14.00">value = [4.175, 12.477]</text>
<text text-anchor="middle" x="863" y="-7.8" font-family="Times,serif" font-size="14.00">class = Obstructive</text>
</g>
<!-- 11&#45;&gt;12 -->
<g id="edge12" class="edge">
<title>11&#45;&gt;12</title>
<path fill="none" stroke="black" d="M866.68,-118.87C866.28,-110.5 865.86,-101.77 865.45,-93.33"/>
<polygon fill="black" stroke="black" points="868.94,-93.05 864.96,-83.23 861.95,-93.39 868.94,-93.05"/>
</g>
<!-- 13 -->
<g id="node14" class="node">
<title>13</title>
<polygon fill="none" stroke="black" points="1162,-83 974,-83 974,0 1162,0 1162,-83"/>
<text text-anchor="middle" x="1068" y="-67.8" font-family="Times,serif" font-size="14.00">node #13</text>
<text text-anchor="middle" x="1068" y="-52.8" font-family="Times,serif" font-size="14.00">gini = &#45;0.0</text>
<text text-anchor="middle" x="1068" y="-37.8" font-family="Times,serif" font-size="14.00">samples = 1</text>
<text text-anchor="middle" x="1068" y="-22.8" font-family="Times,serif" font-size="14.00">value = [1.044, 0.0]</text>
<text text-anchor="middle" x="1068" y="-7.8" font-family="Times,serif" font-size="14.00">class = Non&#45;obstructive</text>
</g>
<!-- 11&#45;&gt;13 -->
<g id="edge13" class="edge">
<title>11&#45;&gt;13</title>
<path fill="none" stroke="black" d="M945.94,-118.87C961.9,-108.88 978.69,-98.38 994.52,-88.47"/>
<polygon fill="black" stroke="black" points="996.59,-91.3 1003.21,-83.03 992.88,-85.37 996.59,-91.3"/>
</g>
<!-- 15 -->
<g id="node16" class="node">
<title>15</title>
<polygon fill="none" stroke="black" points="1480,-351 1286,-351 1286,-253 1480,-253 1480,-351"/>
<text text-anchor="middle" x="1383" y="-335.8" font-family="Times,serif" font-size="14.00">node #15</text>
<text text-anchor="middle" x="1383" y="-320.8" font-family="Times,serif" font-size="14.00">FEV1PostVal &lt;= 1.96</text>
<text text-anchor="middle" x="1383" y="-305.8" font-family="Times,serif" font-size="14.00">gini = 0.085</text>
<text text-anchor="middle" x="1383" y="-290.8" font-family="Times,serif" font-size="14.00">samples = 62</text>
<text text-anchor="middle" x="1383" y="-275.8" font-family="Times,serif" font-size="14.00">value = [103.331, 4.799]</text>
<text text-anchor="middle" x="1383" y="-260.8" font-family="Times,serif" font-size="14.00">class = Non&#45;obstructive</text>
</g>
<!-- 14&#45;&gt;15 -->
<g id="edge15" class="edge">
<title>14&#45;&gt;15</title>
<path fill="none" stroke="black" d="M1383,-386.97C1383,-378.69 1383,-370 1383,-361.48"/>
<polygon fill="black" stroke="black" points="1386.5,-361.21 1383,-351.21 1379.5,-361.21 1386.5,-361.21"/>
</g>
<!-- 20 -->
<g id="node21" class="node">
<title>20</title>
<polygon fill="none" stroke="black" points="1881,-351 1687,-351 1687,-253 1881,-253 1881,-351"/>
<text text-anchor="middle" x="1784" y="-335.8" font-family="Times,serif" font-size="14.00">node #20</text>
<text text-anchor="middle" x="1784" y="-320.8" font-family="Times,serif" font-size="14.00">FVCPostVal &lt;= 3.045</text>
<text text-anchor="middle" x="1784" y="-305.8" font-family="Times,serif" font-size="14.00">gini = 0.487</text>
<text text-anchor="middle" x="1784" y="-290.8" font-family="Times,serif" font-size="14.00">samples = 82</text>
<text text-anchor="middle" x="1784" y="-275.8" font-family="Times,serif" font-size="14.00">value = [54.275, 74.862]</text>
<text text-anchor="middle" x="1784" y="-260.8" font-family="Times,serif" font-size="14.00">class = Obstructive</text>
</g>
<!-- 14&#45;&gt;20 -->
<g id="edge20" class="edge">
<title>14&#45;&gt;20</title>
<path fill="none" stroke="black" d="M1484.71,-401.52C1543.5,-382.17 1617.41,-357.84 1677.07,-338.2"/>
<polygon fill="black" stroke="black" points="1678.49,-341.42 1686.89,-334.97 1676.3,-334.77 1678.49,-341.42"/>
</g>
<!-- 16 -->
<g id="node17" class="node">
<title>16</title>
<polygon fill="none" stroke="black" points="1384.5,-217 1187.5,-217 1187.5,-119 1384.5,-119 1384.5,-217"/>
<text text-anchor="middle" x="1286" y="-201.8" font-family="Times,serif" font-size="14.00">node #16</text>
<text text-anchor="middle" x="1286" y="-186.8" font-family="Times,serif" font-size="14.00">FVCPostPercent &lt;= 49.5</text>
<text text-anchor="middle" x="1286" y="-171.8" font-family="Times,serif" font-size="14.00">gini = 0.069</text>
<text text-anchor="middle" x="1286" y="-156.8" font-family="Times,serif" font-size="14.00">samples = 61</text>
<text text-anchor="middle" x="1286" y="-141.8" font-family="Times,serif" font-size="14.00">value = [103.331, 3.839]</text>
<text text-anchor="middle" x="1286" y="-126.8" font-family="Times,serif" font-size="14.00">class = Non&#45;obstructive</text>
</g>
<!-- 15&#45;&gt;16 -->
<g id="edge16" class="edge">
<title>15&#45;&gt;16</title>
<path fill="none" stroke="black" d="M1347.71,-252.97C1341.15,-244.05 1334.25,-234.66 1327.53,-225.52"/>
<polygon fill="black" stroke="black" points="1330.17,-223.2 1321.43,-217.21 1324.53,-227.34 1330.17,-223.2"/>
</g>
<!-- 19 -->
<g id="node20" class="node">
<title>19</title>
<polygon fill="none" stroke="black" points="1559.5,-209.5 1402.5,-209.5 1402.5,-126.5 1559.5,-126.5 1559.5,-209.5"/>
<text text-anchor="middle" x="1481" y="-194.3" font-family="Times,serif" font-size="14.00">node #19</text>
<text text-anchor="middle" x="1481" y="-179.3" font-family="Times,serif" font-size="14.00">gini = 0.0</text>
<text text-anchor="middle" x="1481" y="-164.3" font-family="Times,serif" font-size="14.00">samples = 1</text>
<text text-anchor="middle" x="1481" y="-149.3" font-family="Times,serif" font-size="14.00">value = [0.0, 0.96]</text>
<text text-anchor="middle" x="1481" y="-134.3" font-family="Times,serif" font-size="14.00">class = Obstructive</text>
</g>
<!-- 15&#45;&gt;19 -->
<g id="edge19" class="edge">
<title>15&#45;&gt;19</title>
<path fill="none" stroke="black" d="M1418.66,-252.97C1427.11,-241.58 1436.14,-229.42 1444.63,-217.99"/>
<polygon fill="black" stroke="black" points="1447.55,-219.93 1450.7,-209.82 1441.93,-215.76 1447.55,-219.93"/>
</g>
<!-- 17 -->
<g id="node18" class="node">
<title>17</title>
<polygon fill="none" stroke="black" points="1368,-83 1180,-83 1180,0 1368,0 1368,-83"/>
<text text-anchor="middle" x="1274" y="-67.8" font-family="Times,serif" font-size="14.00">node #17</text>
<text text-anchor="middle" x="1274" y="-52.8" font-family="Times,serif" font-size="14.00">gini = 0.0</text>
<text text-anchor="middle" x="1274" y="-37.8" font-family="Times,serif" font-size="14.00">samples = 31</text>
<text text-anchor="middle" x="1274" y="-22.8" font-family="Times,serif" font-size="14.00">value = [50.1, 0.0]</text>
<text text-anchor="middle" x="1274" y="-7.8" font-family="Times,serif" font-size="14.00">class = Non&#45;obstructive</text>
</g>
<!-- 16&#45;&gt;17 -->
<g id="edge17" class="edge">
<title>16&#45;&gt;17</title>
<path fill="none" stroke="black" d="M1281.36,-118.87C1280.55,-110.5 1279.71,-101.77 1278.9,-93.33"/>
<polygon fill="black" stroke="black" points="1282.37,-92.85 1277.93,-83.23 1275.4,-93.52 1282.37,-92.85"/>
</g>
<!-- 18 -->
<g id="node19" class="node">
<title>18</title>
<polygon fill="none" stroke="black" points="1574,-83 1386,-83 1386,0 1574,0 1574,-83"/>
<text text-anchor="middle" x="1480" y="-67.8" font-family="Times,serif" font-size="14.00">node #18</text>
<text text-anchor="middle" x="1480" y="-52.8" font-family="Times,serif" font-size="14.00">gini = 0.125</text>
<text text-anchor="middle" x="1480" y="-37.8" font-family="Times,serif" font-size="14.00">samples = 30</text>
<text text-anchor="middle" x="1480" y="-22.8" font-family="Times,serif" font-size="14.00">value = [53.231, 3.839]</text>
<text text-anchor="middle" x="1480" y="-7.8" font-family="Times,serif" font-size="14.00">class = Non&#45;obstructive</text>
</g>
<!-- 16&#45;&gt;18 -->
<g id="edge18" class="edge">
<title>16&#45;&gt;18</title>
<path fill="none" stroke="black" d="M1361.01,-118.87C1376.57,-108.88 1392.93,-98.38 1408.37,-88.47"/>
<polygon fill="black" stroke="black" points="1410.32,-91.38 1416.84,-83.03 1406.53,-85.49 1410.32,-91.38"/>
</g>
<!-- 21 -->
<g id="node22" class="node">
<title>21</title>
<polygon fill="none" stroke="black" points="1879.5,-217 1688.5,-217 1688.5,-119 1879.5,-119 1879.5,-217"/>
<text text-anchor="middle" x="1784" y="-201.8" font-family="Times,serif" font-size="14.00">node #21</text>
<text text-anchor="middle" x="1784" y="-186.8" font-family="Times,serif" font-size="14.00">FEFPrePercent &lt;= 41.0</text>
<text text-anchor="middle" x="1784" y="-171.8" font-family="Times,serif" font-size="14.00">gini = 0.497</text>
<text text-anchor="middle" x="1784" y="-156.8" font-family="Times,serif" font-size="14.00">samples = 52</text>
<text text-anchor="middle" x="1784" y="-141.8" font-family="Times,serif" font-size="14.00">value = [46.969, 40.31]</text>
<text text-anchor="middle" x="1784" y="-126.8" font-family="Times,serif" font-size="14.00">class = Non&#45;obstructive</text>
</g>
<!-- 20&#45;&gt;21 -->
<g id="edge21" class="edge">
<title>20&#45;&gt;21</title>
<path fill="none" stroke="black" d="M1784,-252.97C1784,-244.69 1784,-236 1784,-227.48"/>
<polygon fill="black" stroke="black" points="1787.5,-227.21 1784,-217.21 1780.5,-227.21 1787.5,-227.21"/>
</g>
<!-- 24 -->
<g id="node25" class="node">
<title>24</title>
<polygon fill="none" stroke="black" points="2182.5,-217 1997.5,-217 1997.5,-119 2182.5,-119 2182.5,-217"/>
<text text-anchor="middle" x="2090" y="-201.8" font-family="Times,serif" font-size="14.00">node #24</text>
<text text-anchor="middle" x="2090" y="-186.8" font-family="Times,serif" font-size="14.00">FEV1PreVal &lt;= 2.33</text>
<text text-anchor="middle" x="2090" y="-171.8" font-family="Times,serif" font-size="14.00">gini = 0.288</text>
<text text-anchor="middle" x="2090" y="-156.8" font-family="Times,serif" font-size="14.00">samples = 30</text>
<text text-anchor="middle" x="2090" y="-141.8" font-family="Times,serif" font-size="14.00">value = [7.306, 34.552]</text>
<text text-anchor="middle" x="2090" y="-126.8" font-family="Times,serif" font-size="14.00">class = Obstructive</text>
</g>
<!-- 20&#45;&gt;24 -->
<g id="edge24" class="edge">
<title>20&#45;&gt;24</title>
<path fill="none" stroke="black" d="M1881.24,-259.05C1915.23,-244.39 1953.48,-227.89 1987.86,-213.06"/>
<polygon fill="black" stroke="black" points="1989.65,-216.1 1997.45,-208.92 1986.88,-209.67 1989.65,-216.1"/>
</g>
<!-- 22 -->
<g id="node23" class="node">
<title>22</title>
<polygon fill="none" stroke="black" points="1777.5,-83 1592.5,-83 1592.5,0 1777.5,0 1777.5,-83"/>
<text text-anchor="middle" x="1685" y="-67.8" font-family="Times,serif" font-size="14.00">node #22</text>
<text text-anchor="middle" x="1685" y="-52.8" font-family="Times,serif" font-size="14.00">gini = 0.113</text>
<text text-anchor="middle" x="1685" y="-37.8" font-family="Times,serif" font-size="14.00">samples = 9</text>
<text text-anchor="middle" x="1685" y="-22.8" font-family="Times,serif" font-size="14.00">value = [1.044, 16.316]</text>
<text text-anchor="middle" x="1685" y="-7.8" font-family="Times,serif" font-size="14.00">class = Obstructive</text>
</g>
<!-- 21&#45;&gt;22 -->
<g id="edge22" class="edge">
<title>21&#45;&gt;22</title>
<path fill="none" stroke="black" d="M1745.72,-118.87C1738.49,-109.76 1730.91,-100.23 1723.66,-91.12"/>
<polygon fill="black" stroke="black" points="1726.35,-88.88 1717.39,-83.23 1720.87,-93.24 1726.35,-88.88"/>
</g>
<!-- 23 -->
<g id="node24" class="node">
<title>23</title>
<polygon fill="none" stroke="black" points="1989,-83 1795,-83 1795,0 1989,0 1989,-83"/>
<text text-anchor="middle" x="1892" y="-67.8" font-family="Times,serif" font-size="14.00">node #23</text>
<text text-anchor="middle" x="1892" y="-52.8" font-family="Times,serif" font-size="14.00">gini = 0.451</text>
<text text-anchor="middle" x="1892" y="-37.8" font-family="Times,serif" font-size="14.00">samples = 43</text>
<text text-anchor="middle" x="1892" y="-22.8" font-family="Times,serif" font-size="14.00">value = [45.925, 23.994]</text>
<text text-anchor="middle" x="1892" y="-7.8" font-family="Times,serif" font-size="14.00">class = Non&#45;obstructive</text>
</g>
<!-- 21&#45;&gt;23 -->
<g id="edge23" class="edge">
<title>21&#45;&gt;23</title>
<path fill="none" stroke="black" d="M1825.76,-118.87C1833.73,-109.67 1842.08,-100.04 1850.07,-90.84"/>
<polygon fill="black" stroke="black" points="1852.76,-93.08 1856.67,-83.23 1847.47,-88.49 1852.76,-93.08"/>
</g>
<!-- 25 -->
<g id="node26" class="node">
<title>25</title>
<polygon fill="none" stroke="black" points="2173.5,-83 2006.5,-83 2006.5,0 2173.5,0 2173.5,-83"/>
<text text-anchor="middle" x="2090" y="-67.8" font-family="Times,serif" font-size="14.00">node #25</text>
<text text-anchor="middle" x="2090" y="-52.8" font-family="Times,serif" font-size="14.00">gini = 0.0</text>
<text text-anchor="middle" x="2090" y="-37.8" font-family="Times,serif" font-size="14.00">samples = 9</text>
<text text-anchor="middle" x="2090" y="-22.8" font-family="Times,serif" font-size="14.00">value = [0.0, 14.397]</text>
<text text-anchor="middle" x="2090" y="-7.8" font-family="Times,serif" font-size="14.00">class = Obstructive</text>
</g>
<!-- 24&#45;&gt;25 -->
<g id="edge25" class="edge">
<title>24&#45;&gt;25</title>
<path fill="none" stroke="black" d="M2090,-118.87C2090,-110.5 2090,-101.77 2090,-93.33"/>
<polygon fill="black" stroke="black" points="2093.5,-93.23 2090,-83.23 2086.5,-93.23 2093.5,-93.23"/>
</g>
<!-- 26 -->
<g id="node27" class="node">
<title>26</title>
<polygon fill="none" stroke="black" points="2376.5,-83 2191.5,-83 2191.5,0 2376.5,0 2376.5,-83"/>
<text text-anchor="middle" x="2284" y="-67.8" font-family="Times,serif" font-size="14.00">node #26</text>
<text text-anchor="middle" x="2284" y="-52.8" font-family="Times,serif" font-size="14.00">gini = 0.391</text>
<text text-anchor="middle" x="2284" y="-37.8" font-family="Times,serif" font-size="14.00">samples = 21</text>
<text text-anchor="middle" x="2284" y="-22.8" font-family="Times,serif" font-size="14.00">value = [7.306, 20.155]</text>
<text text-anchor="middle" x="2284" y="-7.8" font-family="Times,serif" font-size="14.00">class = Obstructive</text>
</g>
<!-- 24&#45;&gt;26 -->
<g id="edge26" class="edge">
<title>24&#45;&gt;26</title>
<path fill="none" stroke="black" d="M2165.01,-118.87C2180.57,-108.88 2196.93,-98.38 2212.37,-88.47"/>
<polygon fill="black" stroke="black" points="2214.32,-91.38 2220.84,-83.03 2210.53,-85.49 2214.32,-91.38"/>
</g>
</g>
</svg>
