<?xml version="1.0" encoding="UTF-8" standalone="no"?>
<!DOCTYPE svg PUBLIC "-//W3C//DTD SVG 1.1//EN"
 "http://www.w3.org/Graphics/SVG/1.1/DTD/svg11.dtd">
<!-- Generated by graphviz version 2.43.0 (0)
 -->
<!-- Title: Tree Pages: 1 -->
<svg width="1990pt" height="627pt"
 viewBox="0.00 0.00 1989.50 627.00" xmlns="http://www.w3.org/2000/svg" xmlns:xlink="http://www.w3.org/1999/xlink">
<g id="graph0" class="graph" transform="scale(1 1) rotate(0) translate(4 623)">
<title>Tree</title>
<polygon fill="white" stroke="transparent" points="-4,4 -4,-623 1985.5,-623 1985.5,4 -4,4"/>
<!-- 0 -->
<g id="node1" class="node">
<title>0</title>
<polygon fill="none" stroke="black" points="1072,-619 884,-619 884,-521 1072,-521 1072,-619"/>
<text text-anchor="middle" x="978" y="-603.8" font-family="Times,serif" font-size="14.00">node #0</text>
<text text-anchor="middle" x="978" y="-588.8" font-family="Times,serif" font-size="14.00">FEFPreVal &lt;= 1.145</text>
<text text-anchor="middle" x="978" y="-573.8" font-family="Times,serif" font-size="14.00">gini = 0.5</text>
<text text-anchor="middle" x="978" y="-558.8" font-family="Times,serif" font-size="14.00">samples = 216</text>
<text text-anchor="middle" x="978" y="-543.8" font-family="Times,serif" font-size="14.00">value = [167.0, 167.0]</text>
<text text-anchor="middle" x="978" y="-528.8" font-family="Times,serif" font-size="14.00">class = Non&#45;obstructive</text>
</g>
<!-- 1 -->
<g id="node2" class="node">
<title>1</title>
<polygon fill="none" stroke="black" points="891.5,-485 688.5,-485 688.5,-387 891.5,-387 891.5,-485"/>
<text text-anchor="middle" x="790" y="-469.8" font-family="Times,serif" font-size="14.00">node #1</text>
<text text-anchor="middle" x="790" y="-454.8" font-family="Times,serif" font-size="14.00">FEV1PreVal &lt;= 2.0</text>
<text text-anchor="middle" x="790" y="-439.8" font-family="Times,serif" font-size="14.00">gini = 0.2</text>
<text text-anchor="middle" x="790" y="-424.8" font-family="Times,serif" font-size="14.00">samples = 72</text>
<text text-anchor="middle" x="790" y="-409.8" font-family="Times,serif" font-size="14.00">value = [13.158, 103.757]</text>
<text text-anchor="middle" x="790" y="-394.8" font-family="Times,serif" font-size="14.00">class = Obstructive</text>
</g>
<!-- 0&#45;&gt;1 -->
<g id="edge1" class="edge">
<title>0&#45;&gt;1</title>
<path fill="none" stroke="black" d="M909.6,-520.97C895.73,-511.24 881.06,-500.93 866.92,-491.01"/>
<polygon fill="black" stroke="black" points="868.86,-488.1 858.67,-485.21 864.84,-493.82 868.86,-488.1"/>
<text text-anchor="middle" x="862.98" y="-506.14" font-family="Times,serif" font-size="14.00">True</text>
</g>
<!-- 10 -->
<g id="node11" class="node">
<title>10</title>
<polygon fill="none" stroke="black" points="1143.5,-485 940.5,-485 940.5,-387 1143.5,-387 1143.5,-485"/>
<text text-anchor="middle" x="1042" y="-469.8" font-family="Times,serif" font-size="14.00">node #10</text>
<text text-anchor="middle" x="1042" y="-454.8" font-family="Times,serif" font-size="14.00">FVCPostVal &lt;= 2.175</text>
<text text-anchor="middle" x="1042" y="-439.8" font-family="Times,serif" font-size="14.00">gini = 0.413</text>
<text text-anchor="middle" x="1042" y="-424.8" font-family="Times,serif" font-size="14.00">samples = 144</text>
<text text-anchor="middle" x="1042" y="-409.8" font-family="Times,serif" font-size="14.00">value = [153.842, 63.243]</text>
<text text-anchor="middle" x="1042" y="-394.8" font-family="Times,serif" font-size="14.00">class = Non&#45;obstructive</text>
</g>
<!-- 0&#45;&gt;10 -->
<g id="edge10" class="edge">
<title>0&#45;&gt;10</title>
<path fill="none" stroke="black" d="M1001.29,-520.97C1005.48,-512.33 1009.88,-503.24 1014.19,-494.36"/>
<polygon fill="black" stroke="black" points="1017.41,-495.74 1018.62,-485.21 1011.11,-492.69 1017.41,-495.74"/>
<text text-anchor="middle" x="1026.82" y="-505.13" font-family="Times,serif" font-size="14.00">False</text>
</g>
<!-- 2 -->
<g id="node3" class="node">
<title>2</title>
<polygon fill="none" stroke="black" points="601,-351 395,-351 395,-253 601,-253 601,-351"/>
<text text-anchor="middle" x="498" y="-335.8" font-family="Times,serif" font-size="14.00">node #2</text>
<text text-anchor="middle" x="498" y="-320.8" font-family="Times,serif" font-size="14.00">FEFPostPercent &lt;= 5.325</text>
<text text-anchor="middle" x="498" y="-305.8" font-family="Times,serif" font-size="14.00">gini = 0.175</text>
<text text-anchor="middle" x="498" y="-290.8" font-family="Times,serif" font-size="14.00">samples = 71</text>
<text text-anchor="middle" x="498" y="-275.8" font-family="Times,serif" font-size="14.00">value = [11.133, 103.757]</text>
<text text-anchor="middle" x="498" y="-260.8" font-family="Times,serif" font-size="14.00">class = Obstructive</text>
</g>
<!-- 1&#45;&gt;2 -->
<g id="edge2" class="edge">
<title>1&#45;&gt;2</title>
<path fill="none" stroke="black" d="M688.28,-389.02C663.22,-377.69 636.23,-365.49 610.67,-353.93"/>
<polygon fill="black" stroke="black" points="611.89,-350.64 601.33,-349.71 609,-357.02 611.89,-350.64"/>
</g>
<!-- 9 -->
<g id="node10" class="node">
<title>9</title>
<polygon fill="none" stroke="black" points="884,-343.5 696,-343.5 696,-260.5 884,-260.5 884,-343.5"/>
<text text-anchor="middle" x="790" y="-328.3" font-family="Times,serif" font-size="14.00">node #9</text>
<text text-anchor="middle" x="790" y="-313.3" font-family="Times,serif" font-size="14.00">gini = 0.0</text>
<text text-anchor="middle" x="790" y="-298.3" font-family="Times,serif" font-size="14.00">samples = 1</text>
<text text-anchor="middle" x="790" y="-283.3" font-family="Times,serif" font-size="14.00">value = [2.024, 0.0]</text>
<text text-anchor="middle" x="790" y="-268.3" font-family="Times,serif" font-size="14.00">class = Non&#45;obstructive</text>
</g>
<!-- 1&#45;&gt;9 -->
<g id="edge9" class="edge">
<title>1&#45;&gt;9</title>
<path fill="none" stroke="black" d="M790,-386.97C790,-376.25 790,-364.84 790,-353.99"/>
<polygon fill="black" stroke="black" points="793.5,-353.82 790,-343.82 786.5,-353.82 793.5,-353.82"/>
</g>
<!-- 3 -->
<g id="node4" class="node">
<title>3</title>
<polygon fill="none" stroke="black" points="364,-217 176,-217 176,-119 364,-119 364,-217"/>
<text text-anchor="middle" x="270" y="-201.8" font-family="Times,serif" font-size="14.00">node #3</text>
<text text-anchor="middle" x="270" y="-186.8" font-family="Times,serif" font-size="14.00">FEFPreVal &lt;= 0.45</text>
<text text-anchor="middle" x="270" y="-171.8" font-family="Times,serif" font-size="14.00">gini = 0.488</text>
<text text-anchor="middle" x="270" y="-156.8" font-family="Times,serif" font-size="14.00">samples = 4</text>
<text text-anchor="middle" x="270" y="-141.8" font-family="Times,serif" font-size="14.00">value = [4.048, 2.964]</text>
<text text-anchor="middle" x="270" y="-126.8" font-family="Times,serif" font-size="14.00">class = Non&#45;obstructive</text>
</g>
<!-- 2&#45;&gt;3 -->
<g id="edge3" class="edge">
<title>2&#45;&gt;3</title>
<path fill="none" stroke="black" d="M415.04,-252.97C397.91,-243.05 379.77,-232.55 362.33,-222.45"/>
<polygon fill="black" stroke="black" points="363.69,-219.2 353.28,-217.21 360.18,-225.25 363.69,-219.2"/>
</g>
<!-- 6 -->
<g id="node7" class="node">
<title>6</title>
<polygon fill="none" stroke="black" points="595,-217 401,-217 401,-119 595,-119 595,-217"/>
<text text-anchor="middle" x="498" y="-201.8" font-family="Times,serif" font-size="14.00">node #6</text>
<text text-anchor="middle" x="498" y="-186.8" font-family="Times,serif" font-size="14.00">FEFPreVal &lt;= 0.845</text>
<text text-anchor="middle" x="498" y="-171.8" font-family="Times,serif" font-size="14.00">gini = 0.123</text>
<text text-anchor="middle" x="498" y="-156.8" font-family="Times,serif" font-size="14.00">samples = 67</text>
<text text-anchor="middle" x="498" y="-141.8" font-family="Times,serif" font-size="14.00">value = [7.085, 100.793]</text>
<text text-anchor="middle" x="498" y="-126.8" font-family="Times,serif" font-size="14.00">class = Obstructive</text>
</g>
<!-- 2&#45;&gt;6 -->
<g id="edge6" class="edge">
<title>2&#45;&gt;6</title>
<path fill="none" stroke="black" d="M498,-252.97C498,-244.69 498,-236 498,-227.48"/>
<polygon fill="black" stroke="black" points="501.5,-227.21 498,-217.21 494.5,-227.21 501.5,-227.21"/>
</g>
<!-- 4 -->
<g id="node5" class="node">
<title>4</title>
<polygon fill="none" stroke="black" points="158,-83 0,-83 0,0 158,0 158,-83"/>
<text text-anchor="middle" x="79" y="-67.8" font-family="Times,serif" font-size="14.00">node #4</text>
<text text-anchor="middle" x="79" y="-52.8" font-family="Times,serif" font-size="14.00">gini = 0.0</text>
<text text-anchor="middle" x="79" y="-37.8" font-family="Times,serif" font-size="14.00">samples = 2</text>
<text text-anchor="middle" x="79" y="-22.8" font-family="Times,serif" font-size="14.00">value = [0.0, 2.964]</text>
<text text-anchor="middle" x="79" y="-7.8" font-family="Times,serif" font-size="14.00">class = Obstructive</text>
</g>
<!-- 3&#45;&gt;4 -->
<g id="edge4" class="edge">
<title>3&#45;&gt;4</title>
<path fill="none" stroke="black" d="M196.15,-118.87C180.97,-108.97 165.02,-98.57 149.95,-88.74"/>
<polygon fill="black" stroke="black" points="151.47,-85.56 141.18,-83.03 147.65,-91.43 151.47,-85.56"/>
</g>
<!-- 5 -->
<g id="node6" class="node">
<title>5</title>
<polygon fill="none" stroke="black" points="364,-83 176,-83 176,0 364,0 364,-83"/>
<text text-anchor="middle" x="270" y="-67.8" font-family="Times,serif" font-size="14.00">node #5</text>
<text text-anchor="middle" x="270" y="-52.8" font-family="Times,serif" font-size="14.00">gini = 0.0</text>
<text text-anchor="middle" x="270" y="-37.8" font-family="Times,serif" font-size="14.00">samples = 2</text>
<text text-anchor="middle" x="270" y="-22.8" font-family="Times,serif" font-size="14.00">value = [4.048, 0.0]</text>
<text text-anchor="middle" x="270" y="-7.8" font-family="Times,serif" font-size="14.00">class = Non&#45;obstructive</text>
</g>
<!-- 3&#45;&gt;5 -->
<g id="edge5" class="edge">
<title>3&#45;&gt;5</title>
<path fill="none" stroke="black" d="M270,-118.87C270,-110.5 270,-101.77 270,-93.33"/>
<polygon fill="black" stroke="black" points="273.5,-93.23 270,-83.23 266.5,-93.23 273.5,-93.23"/>
</g>
<!-- 7 -->
<g id="node8" class="node">
<title>7</title>
<polygon fill="none" stroke="black" points="567.5,-83 382.5,-83 382.5,0 567.5,0 567.5,-83"/>
<text text-anchor="middle" x="475" y="-67.8" font-family="Times,serif" font-size="14.00">node #7</text>
<text text-anchor="middle" x="475" y="-52.8" font-family="Times,serif" font-size="14.00">gini = 0.026</text>
<text text-anchor="middle" x="475" y="-37.8" font-family="Times,serif" font-size="14.00">samples = 46</text>
<text text-anchor="middle" x="475" y="-22.8" font-family="Times,serif" font-size="14.00">value = [1.012, 75.101]</text>
<text text-anchor="middle" x="475" y="-7.8" font-family="Times,serif" font-size="14.00">class = Obstructive</text>
</g>
<!-- 6&#45;&gt;7 -->
<g id="edge7" class="edge">
<title>6&#45;&gt;7</title>
<path fill="none" stroke="black" d="M489.11,-118.87C487.56,-110.5 485.95,-101.77 484.39,-93.33"/>
<polygon fill="black" stroke="black" points="487.78,-92.43 482.52,-83.23 480.9,-93.7 487.78,-92.43"/>
</g>
<!-- 8 -->
<g id="node9" class="node">
<title>8</title>
<polygon fill="none" stroke="black" points="770.5,-83 585.5,-83 585.5,0 770.5,0 770.5,-83"/>
<text text-anchor="middle" x="678" y="-67.8" font-family="Times,serif" font-size="14.00">node #8</text>
<text text-anchor="middle" x="678" y="-52.8" font-family="Times,serif" font-size="14.00">gini = 0.309</text>
<text text-anchor="middle" x="678" y="-37.8" font-family="Times,serif" font-size="14.00">samples = 21</text>
<text text-anchor="middle" x="678" y="-22.8" font-family="Times,serif" font-size="14.00">value = [6.073, 25.692]</text>
<text text-anchor="middle" x="678" y="-7.8" font-family="Times,serif" font-size="14.00">class = Obstructive</text>
</g>
<!-- 6&#45;&gt;8 -->
<g id="edge8" class="edge">
<title>6&#45;&gt;8</title>
<path fill="none" stroke="black" d="M567.59,-118.87C581.9,-108.97 596.93,-98.57 611.14,-88.74"/>
<polygon fill="black" stroke="black" points="613.17,-91.6 619.4,-83.03 609.18,-85.84 613.17,-91.6"/>
</g>
<!-- 11 -->
<g id="node12" class="node">
<title>11</title>
<polygon fill="none" stroke="black" points="1139,-351 945,-351 945,-253 1139,-253 1139,-351"/>
<text text-anchor="middle" x="1042" y="-335.8" font-family="Times,serif" font-size="14.00">node #11</text>
<text text-anchor="middle" x="1042" y="-320.8" font-family="Times,serif" font-size="14.00">FVCPostVal &lt;= 1.48</text>
<text text-anchor="middle" x="1042" y="-305.8" font-family="Times,serif" font-size="14.00">gini = 0.148</text>
<text text-anchor="middle" x="1042" y="-290.8" font-family="Times,serif" font-size="14.00">samples = 69</text>
<text text-anchor="middle" x="1042" y="-275.8" font-family="Times,serif" font-size="14.00">value = [101.212, 8.893]</text>
<text text-anchor="middle" x="1042" y="-260.8" font-family="Times,serif" font-size="14.00">class = Non&#45;obstructive</text>
</g>
<!-- 10&#45;&gt;11 -->
<g id="edge11" class="edge">
<title>10&#45;&gt;11</title>
<path fill="none" stroke="black" d="M1042,-386.97C1042,-378.69 1042,-370 1042,-361.48"/>
<polygon fill="black" stroke="black" points="1045.5,-361.21 1042,-351.21 1038.5,-361.21 1045.5,-361.21"/>
</g>
<!-- 16 -->
<g id="node17" class="node">
<title>16</title>
<polygon fill="none" stroke="black" points="1387.5,-351 1196.5,-351 1196.5,-253 1387.5,-253 1387.5,-351"/>
<text text-anchor="middle" x="1292" y="-335.8" font-family="Times,serif" font-size="14.00">node #16</text>
<text text-anchor="middle" x="1292" y="-320.8" font-family="Times,serif" font-size="14.00">FEFPrePercent &lt;= 53.0</text>
<text text-anchor="middle" x="1292" y="-305.8" font-family="Times,serif" font-size="14.00">gini = 0.5</text>
<text text-anchor="middle" x="1292" y="-290.8" font-family="Times,serif" font-size="14.00">samples = 75</text>
<text text-anchor="middle" x="1292" y="-275.8" font-family="Times,serif" font-size="14.00">value = [52.63, 54.349]</text>
<text text-anchor="middle" x="1292" y="-260.8" font-family="Times,serif" font-size="14.00">class = Obstructive</text>
</g>
<!-- 10&#45;&gt;16 -->
<g id="edge16" class="edge">
<title>10&#45;&gt;16</title>
<path fill="none" stroke="black" d="M1132.96,-386.97C1152.09,-376.87 1172.37,-366.16 1191.82,-355.9"/>
<polygon fill="black" stroke="black" points="1193.48,-358.98 1200.69,-351.21 1190.21,-352.79 1193.48,-358.98"/>
</g>
<!-- 12 -->
<g id="node13" class="node">
<title>12</title>
<polygon fill="none" stroke="black" points="950,-209.5 762,-209.5 762,-126.5 950,-126.5 950,-209.5"/>
<text text-anchor="middle" x="856" y="-194.3" font-family="Times,serif" font-size="14.00">node #12</text>
<text text-anchor="middle" x="856" y="-179.3" font-family="Times,serif" font-size="14.00">gini = 0.0</text>
<text text-anchor="middle" x="856" y="-164.3" font-family="Times,serif" font-size="14.00">samples = 32</text>
<text text-anchor="middle" x="856" y="-149.3" font-family="Times,serif" font-size="14.00">value = [54.655, 0.0]</text>
<text text-anchor="middle" x="856" y="-134.3" font-family="Times,serif" font-size="14.00">class = Non&#45;obstructive</text>
</g>
<!-- 11&#45;&gt;12 -->
<g id="edge12" class="edge">
<title>11&#45;&gt;12</title>
<path fill="none" stroke="black" d="M974.32,-252.97C957.1,-240.75 938.61,-227.63 921.5,-215.48"/>
<polygon fill="black" stroke="black" points="923.39,-212.54 913.21,-209.6 919.34,-218.25 923.39,-212.54"/>
</g>
<!-- 13 -->
<g id="node14" class="node">
<title>13</title>
<polygon fill="none" stroke="black" points="1159.5,-217 968.5,-217 968.5,-119 1159.5,-119 1159.5,-217"/>
<text text-anchor="middle" x="1064" y="-201.8" font-family="Times,serif" font-size="14.00">node #13</text>
<text text-anchor="middle" x="1064" y="-186.8" font-family="Times,serif" font-size="14.00">FEFPrePercent &lt;= 45.0</text>
<text text-anchor="middle" x="1064" y="-171.8" font-family="Times,serif" font-size="14.00">gini = 0.269</text>
<text text-anchor="middle" x="1064" y="-156.8" font-family="Times,serif" font-size="14.00">samples = 37</text>
<text text-anchor="middle" x="1064" y="-141.8" font-family="Times,serif" font-size="14.00">value = [46.558, 8.893]</text>
<text text-anchor="middle" x="1064" y="-126.8" font-family="Times,serif" font-size="14.00">class = Non&#45;obstructive</text>
</g>
<!-- 11&#45;&gt;13 -->
<g id="edge13" class="edge">
<title>11&#45;&gt;13</title>
<path fill="none" stroke="black" d="M1050,-252.97C1051.4,-244.6 1052.86,-235.81 1054.3,-227.2"/>
<polygon fill="black" stroke="black" points="1057.77,-227.65 1055.96,-217.21 1050.87,-226.5 1057.77,-227.65"/>
</g>
<!-- 14 -->
<g id="node15" class="node">
<title>14</title>
<polygon fill="none" stroke="black" points="964,-83 788,-83 788,0 964,0 964,-83"/>
<text text-anchor="middle" x="876" y="-67.8" font-family="Times,serif" font-size="14.00">node #14</text>
<text text-anchor="middle" x="876" y="-52.8" font-family="Times,serif" font-size="14.00">gini = 0.448</text>
<text text-anchor="middle" x="876" y="-37.8" font-family="Times,serif" font-size="14.00">samples = 4</text>
<text text-anchor="middle" x="876" y="-22.8" font-family="Times,serif" font-size="14.00">value = [2.024, 3.953]</text>
<text text-anchor="middle" x="876" y="-7.8" font-family="Times,serif" font-size="14.00">class = Obstructive</text>
</g>
<!-- 13&#45;&gt;14 -->
<g id="edge14" class="edge">
<title>13&#45;&gt;14</title>
<path fill="none" stroke="black" d="M991.31,-118.87C976.37,-108.97 960.67,-98.57 945.83,-88.74"/>
<polygon fill="black" stroke="black" points="947.48,-85.64 937.21,-83.03 943.61,-91.47 947.48,-85.64"/>
</g>
<!-- 15 -->
<g id="node16" class="node">
<title>15</title>
<polygon fill="none" stroke="black" points="1170,-83 982,-83 982,0 1170,0 1170,-83"/>
<text text-anchor="middle" x="1076" y="-67.8" font-family="Times,serif" font-size="14.00">node #15</text>
<text text-anchor="middle" x="1076" y="-52.8" font-family="Times,serif" font-size="14.00">gini = 0.18</text>
<text text-anchor="middle" x="1076" y="-37.8" font-family="Times,serif" font-size="14.00">samples = 33</text>
<text text-anchor="middle" x="1076" y="-22.8" font-family="Times,serif" font-size="14.00">value = [44.533, 4.941]</text>
<text text-anchor="middle" x="1076" y="-7.8" font-family="Times,serif" font-size="14.00">class = Non&#45;obstructive</text>
</g>
<!-- 13&#45;&gt;15 -->
<g id="edge15" class="edge">
<title>13&#45;&gt;15</title>
<path fill="none" stroke="black" d="M1068.64,-118.87C1069.45,-110.5 1070.29,-101.77 1071.1,-93.33"/>
<polygon fill="black" stroke="black" points="1074.6,-93.52 1072.07,-83.23 1067.63,-92.85 1074.6,-93.52"/>
</g>
<!-- 17 -->
<g id="node18" class="node">
<title>17</title>
<polygon fill="none" stroke="black" points="1384.5,-217 1199.5,-217 1199.5,-119 1384.5,-119 1384.5,-217"/>
<text text-anchor="middle" x="1292" y="-201.8" font-family="Times,serif" font-size="14.00">node #17</text>
<text text-anchor="middle" x="1292" y="-186.8" font-family="Times,serif" font-size="14.00">FEV1PostVal &lt;= 2.23</text>
<text text-anchor="middle" x="1292" y="-171.8" font-family="Times,serif" font-size="14.00">gini = 0.257</text>
<text text-anchor="middle" x="1292" y="-156.8" font-family="Times,serif" font-size="14.00">samples = 20</text>
<text text-anchor="middle" x="1292" y="-141.8" font-family="Times,serif" font-size="14.00">value = [4.048, 22.728]</text>
<text text-anchor="middle" x="1292" y="-126.8" font-family="Times,serif" font-size="14.00">class = Obstructive</text>
</g>
<!-- 16&#45;&gt;17 -->
<g id="edge17" class="edge">
<title>16&#45;&gt;17</title>
<path fill="none" stroke="black" d="M1292,-252.97C1292,-244.69 1292,-236 1292,-227.48"/>
<polygon fill="black" stroke="black" points="1295.5,-227.21 1292,-217.21 1288.5,-227.21 1295.5,-227.21"/>
</g>
<!-- 20 -->
<g id="node21" class="node">
<title>20</title>
<polygon fill="none" stroke="black" points="1779,-217 1585,-217 1585,-119 1779,-119 1779,-217"/>
<text text-anchor="middle" x="1682" y="-201.8" font-family="Times,serif" font-size="14.00">node #20</text>
<text text-anchor="middle" x="1682" y="-186.8" font-family="Times,serif" font-size="14.00">FEV1PreVal &lt;= 2.725</text>
<text text-anchor="middle" x="1682" y="-171.8" font-family="Times,serif" font-size="14.00">gini = 0.478</text>
<text text-anchor="middle" x="1682" y="-156.8" font-family="Times,serif" font-size="14.00">samples = 55</text>
<text text-anchor="middle" x="1682" y="-141.8" font-family="Times,serif" font-size="14.00">value = [48.582, 31.621]</text>
<text text-anchor="middle" x="1682" y="-126.8" font-family="Times,serif" font-size="14.00">class = Non&#45;obstructive</text>
</g>
<!-- 16&#45;&gt;20 -->
<g id="edge20" class="edge">
<title>16&#45;&gt;20</title>
<path fill="none" stroke="black" d="M1387.9,-268.54C1444.63,-249.34 1516.59,-224.99 1575.13,-205.17"/>
<polygon fill="black" stroke="black" points="1576.42,-208.43 1584.77,-201.91 1574.18,-201.8 1576.42,-208.43"/>
</g>
<!-- 18 -->
<g id="node19" class="node">
<title>18</title>
<polygon fill="none" stroke="black" points="1373.5,-83 1188.5,-83 1188.5,0 1373.5,0 1373.5,-83"/>
<text text-anchor="middle" x="1281" y="-67.8" font-family="Times,serif" font-size="14.00">node #18</text>
<text text-anchor="middle" x="1281" y="-52.8" font-family="Times,serif" font-size="14.00">gini = 0.107</text>
<text text-anchor="middle" x="1281" y="-37.8" font-family="Times,serif" font-size="14.00">samples = 13</text>
<text text-anchor="middle" x="1281" y="-22.8" font-family="Times,serif" font-size="14.00">value = [1.012, 16.799]</text>
<text text-anchor="middle" x="1281" y="-7.8" font-family="Times,serif" font-size="14.00">class = Obstructive</text>
</g>
<!-- 17&#45;&gt;18 -->
<g id="edge18" class="edge">
<title>17&#45;&gt;18</title>
<path fill="none" stroke="black" d="M1287.75,-118.87C1287.01,-110.5 1286.24,-101.77 1285.49,-93.33"/>
<polygon fill="black" stroke="black" points="1288.97,-92.88 1284.6,-83.23 1281.99,-93.5 1288.97,-92.88"/>
</g>
<!-- 19 -->
<g id="node20" class="node">
<title>19</title>
<polygon fill="none" stroke="black" points="1567,-83 1391,-83 1391,0 1567,0 1567,-83"/>
<text text-anchor="middle" x="1479" y="-67.8" font-family="Times,serif" font-size="14.00">node #19</text>
<text text-anchor="middle" x="1479" y="-52.8" font-family="Times,serif" font-size="14.00">gini = 0.448</text>
<text text-anchor="middle" x="1479" y="-37.8" font-family="Times,serif" font-size="14.00">samples = 7</text>
<text text-anchor="middle" x="1479" y="-22.8" font-family="Times,serif" font-size="14.00">value = [3.036, 5.929]</text>
<text text-anchor="middle" x="1479" y="-7.8" font-family="Times,serif" font-size="14.00">class = Obstructive</text>
</g>
<!-- 17&#45;&gt;19 -->
<g id="edge19" class="edge">
<title>17&#45;&gt;19</title>
<path fill="none" stroke="black" d="M1364.3,-118.87C1379.16,-108.97 1394.78,-98.57 1409.54,-88.74"/>
<polygon fill="black" stroke="black" points="1411.74,-91.49 1418.12,-83.03 1407.86,-85.66 1411.74,-91.49"/>
</g>
<!-- 21 -->
<g id="node22" class="node">
<title>21</title>
<polygon fill="none" stroke="black" points="1779,-83 1585,-83 1585,0 1779,0 1779,-83"/>
<text text-anchor="middle" x="1682" y="-67.8" font-family="Times,serif" font-size="14.00">node #21</text>
<text text-anchor="middle" x="1682" y="-52.8" font-family="Times,serif" font-size="14.00">gini = 0.379</text>
<text text-anchor="middle" x="1682" y="-37.8" font-family="Times,serif" font-size="14.00">samples = 40</text>
<text text-anchor="middle" x="1682" y="-22.8" font-family="Times,serif" font-size="14.00">value = [43.521, 14.822]</text>
<text text-anchor="middle" x="1682" y="-7.8" font-family="Times,serif" font-size="14.00">class = Non&#45;obstructive</text>
</g>
<!-- 20&#45;&gt;21 -->
<g id="edge21" class="edge">
<title>20&#45;&gt;21</title>
<path fill="none" stroke="black" d="M1682,-118.87C1682,-110.5 1682,-101.77 1682,-93.33"/>
<polygon fill="black" stroke="black" points="1685.5,-93.23 1682,-83.23 1678.5,-93.23 1685.5,-93.23"/>
</g>
<!-- 22 -->
<g id="node23" class="node">
<title>22</title>
<polygon fill="none" stroke="black" points="1981.5,-83 1796.5,-83 1796.5,0 1981.5,0 1981.5,-83"/>
<text text-anchor="middle" x="1889" y="-67.8" font-family="Times,serif" font-size="14.00">node #22</text>
<text text-anchor="middle" x="1889" y="-52.8" font-family="Times,serif" font-size="14.00">gini = 0.356</text>
<text text-anchor="middle" x="1889" y="-37.8" font-family="Times,serif" font-size="14.00">samples = 15</text>
<text text-anchor="middle" x="1889" y="-22.8" font-family="Times,serif" font-size="14.00">value = [5.061, 16.799]</text>
<text text-anchor="middle" x="1889" y="-7.8" font-family="Times,serif" font-size="14.00">class = Obstructive</text>
</g>
<!-- 20&#45;&gt;22 -->
<g id="edge22" class="edge">
<title>20&#45;&gt;22</title>
<path fill="none" stroke="black" d="M1762.03,-118.87C1778.79,-108.78 1796.42,-98.18 1813.03,-88.19"/>
<polygon fill="black" stroke="black" points="1814.84,-91.19 1821.61,-83.03 1811.24,-85.19 1814.84,-91.19"/>
</g>
</g>
</svg>
