<?xml version="1.0" encoding="UTF-8" standalone="no"?>
<!DOCTYPE svg PUBLIC "-//W3C//DTD SVG 1.1//EN"
 "http://www.w3.org/Graphics/SVG/1.1/DTD/svg11.dtd">
<!-- Generated by graphviz version 2.43.0 (0)
 -->
<!-- Title: Tree Pages: 1 -->
<svg width="2829pt" height="627pt"
 viewBox="0.00 0.00 2828.50 627.00" xmlns="http://www.w3.org/2000/svg" xmlns:xlink="http://www.w3.org/1999/xlink">
<g id="graph0" class="graph" transform="scale(1 1) rotate(0) translate(4 623)">
<title>Tree</title>
<polygon fill="white" stroke="transparent" points="-4,4 -4,-623 2824.5,-623 2824.5,4 -4,4"/>
<!-- 0 -->
<g id="node1" class="node">
<title>0</title>
<polygon fill="none" stroke="black" points="1355,-619 1164,-619 1164,-521 1355,-521 1355,-619"/>
<text text-anchor="middle" x="1259.5" y="-603.8" font-family="Times,serif" font-size="14.00">node #0</text>
<text text-anchor="middle" x="1259.5" y="-588.8" font-family="Times,serif" font-size="14.00">FEFPrePercent &lt;= 35.5</text>
<text text-anchor="middle" x="1259.5" y="-573.8" font-family="Times,serif" font-size="14.00">gini = 0.5</text>
<text text-anchor="middle" x="1259.5" y="-558.8" font-family="Times,serif" font-size="14.00">samples = 205</text>
<text text-anchor="middle" x="1259.5" y="-543.8" font-family="Times,serif" font-size="14.00">value = [167.0, 167.0]</text>
<text text-anchor="middle" x="1259.5" y="-528.8" font-family="Times,serif" font-size="14.00">class = Non&#45;obstructive</text>
</g>
<!-- 1 -->
<g id="node2" class="node">
<title>1</title>
<polygon fill="none" stroke="black" points="1065,-485 862,-485 862,-387 1065,-387 1065,-485"/>
<text text-anchor="middle" x="963.5" y="-469.8" font-family="Times,serif" font-size="14.00">node #1</text>
<text text-anchor="middle" x="963.5" y="-454.8" font-family="Times,serif" font-size="14.00">FVCPrePercent &lt;= 53.5</text>
<text text-anchor="middle" x="963.5" y="-439.8" font-family="Times,serif" font-size="14.00">gini = 0.234</text>
<text text-anchor="middle" x="963.5" y="-424.8" font-family="Times,serif" font-size="14.00">samples = 70</text>
<text text-anchor="middle" x="963.5" y="-409.8" font-family="Times,serif" font-size="14.00">value = [16.194, 103.757]</text>
<text text-anchor="middle" x="963.5" y="-394.8" font-family="Times,serif" font-size="14.00">class = Obstructive</text>
</g>
<!-- 0&#45;&gt;1 -->
<g id="edge1" class="edge">
<title>0&#45;&gt;1</title>
<path fill="none" stroke="black" d="M1163.81,-526.33C1135.38,-513.65 1104,-499.66 1074.68,-486.58"/>
<polygon fill="black" stroke="black" points="1075.8,-483.25 1065.24,-482.37 1072.95,-489.64 1075.8,-483.25"/>
<text text-anchor="middle" x="1074.19" y="-502.02" font-family="Times,serif" font-size="14.00">True</text>
</g>
<!-- 14 -->
<g id="node15" class="node">
<title>14</title>
<polygon fill="none" stroke="black" points="1722,-485 1519,-485 1519,-387 1722,-387 1722,-485"/>
<text text-anchor="middle" x="1620.5" y="-469.8" font-family="Times,serif" font-size="14.00">node #14</text>
<text text-anchor="middle" x="1620.5" y="-454.8" font-family="Times,serif" font-size="14.00">FVCPrePercent &lt;= 71.5</text>
<text text-anchor="middle" x="1620.5" y="-439.8" font-family="Times,serif" font-size="14.00">gini = 0.416</text>
<text text-anchor="middle" x="1620.5" y="-424.8" font-family="Times,serif" font-size="14.00">samples = 135</text>
<text text-anchor="middle" x="1620.5" y="-409.8" font-family="Times,serif" font-size="14.00">value = [150.806, 63.243]</text>
<text text-anchor="middle" x="1620.5" y="-394.8" font-family="Times,serif" font-size="14.00">class = Non&#45;obstructive</text>
</g>
<!-- 0&#45;&gt;14 -->
<g id="edge14" class="edge">
<title>0&#45;&gt;14</title>
<path fill="none" stroke="black" d="M1355.29,-533.97C1402.68,-516.64 1460.15,-495.63 1509.46,-477.6"/>
<polygon fill="black" stroke="black" points="1510.69,-480.88 1518.88,-474.16 1508.29,-474.3 1510.69,-480.88"/>
<text text-anchor="middle" x="1508.35" y="-493.13" font-family="Times,serif" font-size="14.00">False</text>
</g>
<!-- 2 -->
<g id="node3" class="node">
<title>2</title>
<polygon fill="none" stroke="black" points="702,-351 517,-351 517,-253 702,-253 702,-351"/>
<text text-anchor="middle" x="609.5" y="-335.8" font-family="Times,serif" font-size="14.00">node #2</text>
<text text-anchor="middle" x="609.5" y="-320.8" font-family="Times,serif" font-size="14.00">FEFPostVal &lt;= 0.86</text>
<text text-anchor="middle" x="609.5" y="-305.8" font-family="Times,serif" font-size="14.00">gini = 0.384</text>
<text text-anchor="middle" x="609.5" y="-290.8" font-family="Times,serif" font-size="14.00">samples = 30</text>
<text text-anchor="middle" x="609.5" y="-275.8" font-family="Times,serif" font-size="14.00">value = [13.158, 37.55]</text>
<text text-anchor="middle" x="609.5" y="-260.8" font-family="Times,serif" font-size="14.00">class = Obstructive</text>
</g>
<!-- 1&#45;&gt;2 -->
<g id="edge2" class="edge">
<title>1&#45;&gt;2</title>
<path fill="none" stroke="black" d="M861.58,-397C814.58,-379.47 758.89,-358.71 711.83,-341.16"/>
<polygon fill="black" stroke="black" points="712.83,-337.79 702.24,-337.58 710.38,-344.35 712.83,-337.79"/>
</g>
<!-- 9 -->
<g id="node10" class="node">
<title>9</title>
<polygon fill="none" stroke="black" points="1059,-351 868,-351 868,-253 1059,-253 1059,-351"/>
<text text-anchor="middle" x="963.5" y="-335.8" font-family="Times,serif" font-size="14.00">node #9</text>
<text text-anchor="middle" x="963.5" y="-320.8" font-family="Times,serif" font-size="14.00">FVCPrePercent &lt;= 63.5</text>
<text text-anchor="middle" x="963.5" y="-305.8" font-family="Times,serif" font-size="14.00">gini = 0.084</text>
<text text-anchor="middle" x="963.5" y="-290.8" font-family="Times,serif" font-size="14.00">samples = 40</text>
<text text-anchor="middle" x="963.5" y="-275.8" font-family="Times,serif" font-size="14.00">value = [3.036, 66.207]</text>
<text text-anchor="middle" x="963.5" y="-260.8" font-family="Times,serif" font-size="14.00">class = Obstructive</text>
</g>
<!-- 1&#45;&gt;9 -->
<g id="edge9" class="edge">
<title>1&#45;&gt;9</title>
<path fill="none" stroke="black" d="M963.5,-386.97C963.5,-378.69 963.5,-370 963.5,-361.48"/>
<polygon fill="black" stroke="black" points="967,-361.21 963.5,-351.21 960,-361.21 967,-361.21"/>
</g>
<!-- 3 -->
<g id="node4" class="node">
<title>3</title>
<polygon fill="none" stroke="black" points="397.5,-217 197.5,-217 197.5,-119 397.5,-119 397.5,-217"/>
<text text-anchor="middle" x="297.5" y="-201.8" font-family="Times,serif" font-size="14.00">node #3</text>
<text text-anchor="middle" x="297.5" y="-186.8" font-family="Times,serif" font-size="14.00">FEV1PrePercent &lt;= 40.0</text>
<text text-anchor="middle" x="297.5" y="-171.8" font-family="Times,serif" font-size="14.00">gini = 0.218</text>
<text text-anchor="middle" x="297.5" y="-156.8" font-family="Times,serif" font-size="14.00">samples = 26</text>
<text text-anchor="middle" x="297.5" y="-141.8" font-family="Times,serif" font-size="14.00">value = [5.061, 35.574]</text>
<text text-anchor="middle" x="297.5" y="-126.8" font-family="Times,serif" font-size="14.00">class = Obstructive</text>
</g>
<!-- 2&#45;&gt;3 -->
<g id="edge3" class="edge">
<title>2&#45;&gt;3</title>
<path fill="none" stroke="black" d="M516.73,-261.75C482.27,-247.17 442.85,-230.5 407.03,-215.34"/>
<polygon fill="black" stroke="black" points="408.09,-211.99 397.52,-211.32 405.37,-218.44 408.09,-211.99"/>
</g>
<!-- 6 -->
<g id="node7" class="node">
<title>6</title>
<polygon fill="none" stroke="black" points="703.5,-217 515.5,-217 515.5,-119 703.5,-119 703.5,-217"/>
<text text-anchor="middle" x="609.5" y="-201.8" font-family="Times,serif" font-size="14.00">node #6</text>
<text text-anchor="middle" x="609.5" y="-186.8" font-family="Times,serif" font-size="14.00">FEFPostVal &lt;= 1.15</text>
<text text-anchor="middle" x="609.5" y="-171.8" font-family="Times,serif" font-size="14.00">gini = 0.315</text>
<text text-anchor="middle" x="609.5" y="-156.8" font-family="Times,serif" font-size="14.00">samples = 4</text>
<text text-anchor="middle" x="609.5" y="-141.8" font-family="Times,serif" font-size="14.00">value = [8.097, 1.976]</text>
<text text-anchor="middle" x="609.5" y="-126.8" font-family="Times,serif" font-size="14.00">class = Non&#45;obstructive</text>
</g>
<!-- 2&#45;&gt;6 -->
<g id="edge6" class="edge">
<title>2&#45;&gt;6</title>
<path fill="none" stroke="black" d="M609.5,-252.97C609.5,-244.69 609.5,-236 609.5,-227.48"/>
<polygon fill="black" stroke="black" points="613,-227.21 609.5,-217.21 606,-227.21 613,-227.21"/>
</g>
<!-- 4 -->
<g id="node5" class="node">
<title>4</title>
<polygon fill="none" stroke="black" points="185,-83 0,-83 0,0 185,0 185,-83"/>
<text text-anchor="middle" x="92.5" y="-67.8" font-family="Times,serif" font-size="14.00">node #4</text>
<text text-anchor="middle" x="92.5" y="-52.8" font-family="Times,serif" font-size="14.00">gini = 0.058</text>
<text text-anchor="middle" x="92.5" y="-37.8" font-family="Times,serif" font-size="14.00">samples = 23</text>
<text text-anchor="middle" x="92.5" y="-22.8" font-family="Times,serif" font-size="14.00">value = [1.012, 32.609]</text>
<text text-anchor="middle" x="92.5" y="-7.8" font-family="Times,serif" font-size="14.00">class = Obstructive</text>
</g>
<!-- 3&#45;&gt;4 -->
<g id="edge4" class="edge">
<title>3&#45;&gt;4</title>
<path fill="none" stroke="black" d="M218.24,-118.87C201.8,-108.88 184.51,-98.38 168.19,-88.47"/>
<polygon fill="black" stroke="black" points="169.6,-85.23 159.24,-83.03 165.97,-91.21 169.6,-85.23"/>
</g>
<!-- 5 -->
<g id="node6" class="node">
<title>5</title>
<polygon fill="none" stroke="black" points="391.5,-83 203.5,-83 203.5,0 391.5,0 391.5,-83"/>
<text text-anchor="middle" x="297.5" y="-67.8" font-family="Times,serif" font-size="14.00">node #5</text>
<text text-anchor="middle" x="297.5" y="-52.8" font-family="Times,serif" font-size="14.00">gini = 0.488</text>
<text text-anchor="middle" x="297.5" y="-37.8" font-family="Times,serif" font-size="14.00">samples = 3</text>
<text text-anchor="middle" x="297.5" y="-22.8" font-family="Times,serif" font-size="14.00">value = [4.048, 2.964]</text>
<text text-anchor="middle" x="297.5" y="-7.8" font-family="Times,serif" font-size="14.00">class = Non&#45;obstructive</text>
</g>
<!-- 3&#45;&gt;5 -->
<g id="edge5" class="edge">
<title>3&#45;&gt;5</title>
<path fill="none" stroke="black" d="M297.5,-118.87C297.5,-110.5 297.5,-101.77 297.5,-93.33"/>
<polygon fill="black" stroke="black" points="301,-93.23 297.5,-83.23 294,-93.23 301,-93.23"/>
</g>
<!-- 7 -->
<g id="node8" class="node">
<title>7</title>
<polygon fill="none" stroke="black" points="597.5,-83 409.5,-83 409.5,0 597.5,0 597.5,-83"/>
<text text-anchor="middle" x="503.5" y="-67.8" font-family="Times,serif" font-size="14.00">node #7</text>
<text text-anchor="middle" x="503.5" y="-52.8" font-family="Times,serif" font-size="14.00">gini = 0.0</text>
<text text-anchor="middle" x="503.5" y="-37.8" font-family="Times,serif" font-size="14.00">samples = 2</text>
<text text-anchor="middle" x="503.5" y="-22.8" font-family="Times,serif" font-size="14.00">value = [6.073, 0.0]</text>
<text text-anchor="middle" x="503.5" y="-7.8" font-family="Times,serif" font-size="14.00">class = Non&#45;obstructive</text>
</g>
<!-- 6&#45;&gt;7 -->
<g id="edge7" class="edge">
<title>6&#45;&gt;7</title>
<path fill="none" stroke="black" d="M568.52,-118.87C560.77,-109.76 552.66,-100.23 544.89,-91.12"/>
<polygon fill="black" stroke="black" points="547.33,-88.58 538.18,-83.23 542,-93.11 547.33,-88.58"/>
</g>
<!-- 8 -->
<g id="node9" class="node">
<title>8</title>
<polygon fill="none" stroke="black" points="803.5,-83 615.5,-83 615.5,0 803.5,0 803.5,-83"/>
<text text-anchor="middle" x="709.5" y="-67.8" font-family="Times,serif" font-size="14.00">node #8</text>
<text text-anchor="middle" x="709.5" y="-52.8" font-family="Times,serif" font-size="14.00">gini = 0.5</text>
<text text-anchor="middle" x="709.5" y="-37.8" font-family="Times,serif" font-size="14.00">samples = 2</text>
<text text-anchor="middle" x="709.5" y="-22.8" font-family="Times,serif" font-size="14.00">value = [2.024, 1.976]</text>
<text text-anchor="middle" x="709.5" y="-7.8" font-family="Times,serif" font-size="14.00">class = Non&#45;obstructive</text>
</g>
<!-- 6&#45;&gt;8 -->
<g id="edge8" class="edge">
<title>6&#45;&gt;8</title>
<path fill="none" stroke="black" d="M648.16,-118.87C655.47,-109.76 663.13,-100.23 670.45,-91.12"/>
<polygon fill="black" stroke="black" points="673.25,-93.22 676.78,-83.23 667.79,-88.84 673.25,-93.22"/>
</g>
<!-- 10 -->
<g id="node11" class="node">
<title>10</title>
<polygon fill="none" stroke="black" points="950,-209.5 783,-209.5 783,-126.5 950,-126.5 950,-209.5"/>
<text text-anchor="middle" x="866.5" y="-194.3" font-family="Times,serif" font-size="14.00">node #10</text>
<text text-anchor="middle" x="866.5" y="-179.3" font-family="Times,serif" font-size="14.00">gini = 0.0</text>
<text text-anchor="middle" x="866.5" y="-164.3" font-family="Times,serif" font-size="14.00">samples = 18</text>
<text text-anchor="middle" x="866.5" y="-149.3" font-family="Times,serif" font-size="14.00">value = [0.0, 32.609]</text>
<text text-anchor="middle" x="866.5" y="-134.3" font-family="Times,serif" font-size="14.00">class = Obstructive</text>
</g>
<!-- 9&#45;&gt;10 -->
<g id="edge10" class="edge">
<title>9&#45;&gt;10</title>
<path fill="none" stroke="black" d="M928.21,-252.97C919.84,-241.58 910.9,-229.42 902.5,-217.99"/>
<polygon fill="black" stroke="black" points="905.24,-215.8 896.49,-209.82 899.6,-219.95 905.24,-215.8"/>
</g>
<!-- 11 -->
<g id="node12" class="node">
<title>11</title>
<polygon fill="none" stroke="black" points="1153,-217 968,-217 968,-119 1153,-119 1153,-217"/>
<text text-anchor="middle" x="1060.5" y="-201.8" font-family="Times,serif" font-size="14.00">node #11</text>
<text text-anchor="middle" x="1060.5" y="-186.8" font-family="Times,serif" font-size="14.00">FVCPreVal &lt;= 1.7</text>
<text text-anchor="middle" x="1060.5" y="-171.8" font-family="Times,serif" font-size="14.00">gini = 0.152</text>
<text text-anchor="middle" x="1060.5" y="-156.8" font-family="Times,serif" font-size="14.00">samples = 22</text>
<text text-anchor="middle" x="1060.5" y="-141.8" font-family="Times,serif" font-size="14.00">value = [3.036, 33.598]</text>
<text text-anchor="middle" x="1060.5" y="-126.8" font-family="Times,serif" font-size="14.00">class = Obstructive</text>
</g>
<!-- 9&#45;&gt;11 -->
<g id="edge11" class="edge">
<title>9&#45;&gt;11</title>
<path fill="none" stroke="black" d="M998.79,-252.97C1005.35,-244.05 1012.25,-234.66 1018.97,-225.52"/>
<polygon fill="black" stroke="black" points="1021.97,-227.34 1025.07,-217.21 1016.33,-223.2 1021.97,-227.34"/>
</g>
<!-- 12 -->
<g id="node13" class="node">
<title>12</title>
<polygon fill="none" stroke="black" points="1009.5,-83 821.5,-83 821.5,0 1009.5,0 1009.5,-83"/>
<text text-anchor="middle" x="915.5" y="-67.8" font-family="Times,serif" font-size="14.00">node #12</text>
<text text-anchor="middle" x="915.5" y="-52.8" font-family="Times,serif" font-size="14.00">gini = 0.0</text>
<text text-anchor="middle" x="915.5" y="-37.8" font-family="Times,serif" font-size="14.00">samples = 1</text>
<text text-anchor="middle" x="915.5" y="-22.8" font-family="Times,serif" font-size="14.00">value = [1.012, 0.0]</text>
<text text-anchor="middle" x="915.5" y="-7.8" font-family="Times,serif" font-size="14.00">class = Non&#45;obstructive</text>
</g>
<!-- 11&#45;&gt;12 -->
<g id="edge12" class="edge">
<title>11&#45;&gt;12</title>
<path fill="none" stroke="black" d="M1004.44,-118.87C993.41,-109.39 981.84,-99.46 970.84,-90.01"/>
<polygon fill="black" stroke="black" points="972.8,-87.09 962.94,-83.23 968.24,-92.4 972.8,-87.09"/>
</g>
<!-- 13 -->
<g id="node14" class="node">
<title>13</title>
<polygon fill="none" stroke="black" points="1213,-83 1028,-83 1028,0 1213,0 1213,-83"/>
<text text-anchor="middle" x="1120.5" y="-67.8" font-family="Times,serif" font-size="14.00">node #13</text>
<text text-anchor="middle" x="1120.5" y="-52.8" font-family="Times,serif" font-size="14.00">gini = 0.107</text>
<text text-anchor="middle" x="1120.5" y="-37.8" font-family="Times,serif" font-size="14.00">samples = 21</text>
<text text-anchor="middle" x="1120.5" y="-22.8" font-family="Times,serif" font-size="14.00">value = [2.024, 33.598]</text>
<text text-anchor="middle" x="1120.5" y="-7.8" font-family="Times,serif" font-size="14.00">class = Obstructive</text>
</g>
<!-- 11&#45;&gt;13 -->
<g id="edge13" class="edge">
<title>11&#45;&gt;13</title>
<path fill="none" stroke="black" d="M1083.7,-118.87C1087.86,-110.22 1092.21,-101.2 1096.4,-92.5"/>
<polygon fill="black" stroke="black" points="1099.68,-93.76 1100.87,-83.23 1093.38,-90.72 1099.68,-93.76"/>
</g>
<!-- 15 -->
<g id="node16" class="node">
<title>15</title>
<polygon fill="none" stroke="black" points="1722,-351 1519,-351 1519,-253 1722,-253 1722,-351"/>
<text text-anchor="middle" x="1620.5" y="-335.8" font-family="Times,serif" font-size="14.00">node #15</text>
<text text-anchor="middle" x="1620.5" y="-320.8" font-family="Times,serif" font-size="14.00">FEV1PostVal &lt;= 1.935</text>
<text text-anchor="middle" x="1620.5" y="-305.8" font-family="Times,serif" font-size="14.00">gini = 0.293</text>
<text text-anchor="middle" x="1620.5" y="-290.8" font-family="Times,serif" font-size="14.00">samples = 88</text>
<text text-anchor="middle" x="1620.5" y="-275.8" font-family="Times,serif" font-size="14.00">value = [118.418, 25.692]</text>
<text text-anchor="middle" x="1620.5" y="-260.8" font-family="Times,serif" font-size="14.00">class = Non&#45;obstructive</text>
</g>
<!-- 14&#45;&gt;15 -->
<g id="edge15" class="edge">
<title>14&#45;&gt;15</title>
<path fill="none" stroke="black" d="M1620.5,-386.97C1620.5,-378.69 1620.5,-370 1620.5,-361.48"/>
<polygon fill="black" stroke="black" points="1624,-361.21 1620.5,-351.21 1617,-361.21 1624,-361.21"/>
</g>
<!-- 22 -->
<g id="node23" class="node">
<title>22</title>
<polygon fill="none" stroke="black" points="2325,-351 2140,-351 2140,-253 2325,-253 2325,-351"/>
<text text-anchor="middle" x="2232.5" y="-335.8" font-family="Times,serif" font-size="14.00">node #22</text>
<text text-anchor="middle" x="2232.5" y="-320.8" font-family="Times,serif" font-size="14.00">FVCPostVal &lt;= 3.015</text>
<text text-anchor="middle" x="2232.5" y="-305.8" font-family="Times,serif" font-size="14.00">gini = 0.497</text>
<text text-anchor="middle" x="2232.5" y="-290.8" font-family="Times,serif" font-size="14.00">samples = 47</text>
<text text-anchor="middle" x="2232.5" y="-275.8" font-family="Times,serif" font-size="14.00">value = [32.388, 37.55]</text>
<text text-anchor="middle" x="2232.5" y="-260.8" font-family="Times,serif" font-size="14.00">class = Obstructive</text>
</g>
<!-- 14&#45;&gt;22 -->
<g id="edge22" class="edge">
<title>14&#45;&gt;22</title>
<path fill="none" stroke="black" d="M1722.25,-413.05C1835.08,-388.72 2016.12,-349.67 2129.47,-325.22"/>
<polygon fill="black" stroke="black" points="2130.51,-328.58 2139.54,-323.05 2129.03,-321.74 2130.51,-328.58"/>
</g>
<!-- 16 -->
<g id="node17" class="node">
<title>16</title>
<polygon fill="none" stroke="black" points="1610.5,-217 1422.5,-217 1422.5,-119 1610.5,-119 1610.5,-217"/>
<text text-anchor="middle" x="1516.5" y="-201.8" font-family="Times,serif" font-size="14.00">node #16</text>
<text text-anchor="middle" x="1516.5" y="-186.8" font-family="Times,serif" font-size="14.00">FEFPostVal &lt;= 1.185</text>
<text text-anchor="middle" x="1516.5" y="-171.8" font-family="Times,serif" font-size="14.00">gini = 0.168</text>
<text text-anchor="middle" x="1516.5" y="-156.8" font-family="Times,serif" font-size="14.00">samples = 66</text>
<text text-anchor="middle" x="1516.5" y="-141.8" font-family="Times,serif" font-size="14.00">value = [97.164, 9.882]</text>
<text text-anchor="middle" x="1516.5" y="-126.8" font-family="Times,serif" font-size="14.00">class = Non&#45;obstructive</text>
</g>
<!-- 15&#45;&gt;16 -->
<g id="edge16" class="edge">
<title>15&#45;&gt;16</title>
<path fill="none" stroke="black" d="M1582.66,-252.97C1575.56,-243.96 1568.08,-234.47 1560.81,-225.24"/>
<polygon fill="black" stroke="black" points="1563.42,-222.9 1554.49,-217.21 1557.93,-227.23 1563.42,-222.9"/>
</g>
<!-- 19 -->
<g id="node20" class="node">
<title>19</title>
<polygon fill="none" stroke="black" points="1822.5,-217 1628.5,-217 1628.5,-119 1822.5,-119 1822.5,-217"/>
<text text-anchor="middle" x="1725.5" y="-201.8" font-family="Times,serif" font-size="14.00">node #19</text>
<text text-anchor="middle" x="1725.5" y="-186.8" font-family="Times,serif" font-size="14.00">FEFPreVal &lt;= 2.665</text>
<text text-anchor="middle" x="1725.5" y="-171.8" font-family="Times,serif" font-size="14.00">gini = 0.489</text>
<text text-anchor="middle" x="1725.5" y="-156.8" font-family="Times,serif" font-size="14.00">samples = 22</text>
<text text-anchor="middle" x="1725.5" y="-141.8" font-family="Times,serif" font-size="14.00">value = [21.255, 15.811]</text>
<text text-anchor="middle" x="1725.5" y="-126.8" font-family="Times,serif" font-size="14.00">class = Non&#45;obstructive</text>
</g>
<!-- 15&#45;&gt;19 -->
<g id="edge19" class="edge">
<title>15&#45;&gt;19</title>
<path fill="none" stroke="black" d="M1658.7,-252.97C1665.87,-243.96 1673.42,-234.47 1680.76,-225.24"/>
<polygon fill="black" stroke="black" points="1683.66,-227.22 1687.15,-217.21 1678.18,-222.86 1683.66,-227.22"/>
</g>
<!-- 17 -->
<g id="node18" class="node">
<title>17</title>
<polygon fill="none" stroke="black" points="1406.5,-83 1230.5,-83 1230.5,0 1406.5,0 1406.5,-83"/>
<text text-anchor="middle" x="1318.5" y="-67.8" font-family="Times,serif" font-size="14.00">node #17</text>
<text text-anchor="middle" x="1318.5" y="-52.8" font-family="Times,serif" font-size="14.00">gini = 0.482</text>
<text text-anchor="middle" x="1318.5" y="-37.8" font-family="Times,serif" font-size="14.00">samples = 3</text>
<text text-anchor="middle" x="1318.5" y="-22.8" font-family="Times,serif" font-size="14.00">value = [2.024, 2.964]</text>
<text text-anchor="middle" x="1318.5" y="-7.8" font-family="Times,serif" font-size="14.00">class = Obstructive</text>
</g>
<!-- 16&#45;&gt;17 -->
<g id="edge17" class="edge">
<title>16&#45;&gt;17</title>
<path fill="none" stroke="black" d="M1439.95,-118.87C1424.06,-108.88 1407.36,-98.38 1391.61,-88.47"/>
<polygon fill="black" stroke="black" points="1393.29,-85.39 1382.96,-83.03 1389.56,-91.32 1393.29,-85.39"/>
</g>
<!-- 18 -->
<g id="node19" class="node">
<title>18</title>
<polygon fill="none" stroke="black" points="1612.5,-83 1424.5,-83 1424.5,0 1612.5,0 1612.5,-83"/>
<text text-anchor="middle" x="1518.5" y="-67.8" font-family="Times,serif" font-size="14.00">node #18</text>
<text text-anchor="middle" x="1518.5" y="-52.8" font-family="Times,serif" font-size="14.00">gini = 0.126</text>
<text text-anchor="middle" x="1518.5" y="-37.8" font-family="Times,serif" font-size="14.00">samples = 63</text>
<text text-anchor="middle" x="1518.5" y="-22.8" font-family="Times,serif" font-size="14.00">value = [95.139, 6.917]</text>
<text text-anchor="middle" x="1518.5" y="-7.8" font-family="Times,serif" font-size="14.00">class = Non&#45;obstructive</text>
</g>
<!-- 16&#45;&gt;18 -->
<g id="edge18" class="edge">
<title>16&#45;&gt;18</title>
<path fill="none" stroke="black" d="M1517.27,-118.87C1517.41,-110.5 1517.55,-101.77 1517.68,-93.33"/>
<polygon fill="black" stroke="black" points="1521.18,-93.29 1517.85,-83.23 1514.19,-93.17 1521.18,-93.29"/>
</g>
<!-- 20 -->
<g id="node21" class="node">
<title>20</title>
<polygon fill="none" stroke="black" points="1816,-83 1631,-83 1631,0 1816,0 1816,-83"/>
<text text-anchor="middle" x="1723.5" y="-67.8" font-family="Times,serif" font-size="14.00">node #20</text>
<text text-anchor="middle" x="1723.5" y="-52.8" font-family="Times,serif" font-size="14.00">gini = 0.401</text>
<text text-anchor="middle" x="1723.5" y="-37.8" font-family="Times,serif" font-size="14.00">samples = 13</text>
<text text-anchor="middle" x="1723.5" y="-22.8" font-family="Times,serif" font-size="14.00">value = [6.073, 15.811]</text>
<text text-anchor="middle" x="1723.5" y="-7.8" font-family="Times,serif" font-size="14.00">class = Obstructive</text>
</g>
<!-- 19&#45;&gt;20 -->
<g id="edge20" class="edge">
<title>19&#45;&gt;20</title>
<path fill="none" stroke="black" d="M1724.73,-118.87C1724.59,-110.5 1724.45,-101.77 1724.32,-93.33"/>
<polygon fill="black" stroke="black" points="1727.81,-93.17 1724.15,-83.23 1720.82,-93.29 1727.81,-93.17"/>
</g>
<!-- 21 -->
<g id="node22" class="node">
<title>21</title>
<polygon fill="none" stroke="black" points="2022.5,-83 1834.5,-83 1834.5,0 2022.5,0 2022.5,-83"/>
<text text-anchor="middle" x="1928.5" y="-67.8" font-family="Times,serif" font-size="14.00">node #21</text>
<text text-anchor="middle" x="1928.5" y="-52.8" font-family="Times,serif" font-size="14.00">gini = 0.0</text>
<text text-anchor="middle" x="1928.5" y="-37.8" font-family="Times,serif" font-size="14.00">samples = 9</text>
<text text-anchor="middle" x="1928.5" y="-22.8" font-family="Times,serif" font-size="14.00">value = [15.182, 0.0]</text>
<text text-anchor="middle" x="1928.5" y="-7.8" font-family="Times,serif" font-size="14.00">class = Non&#45;obstructive</text>
</g>
<!-- 19&#45;&gt;21 -->
<g id="edge21" class="edge">
<title>19&#45;&gt;21</title>
<path fill="none" stroke="black" d="M1803.99,-118.87C1820.27,-108.88 1837.39,-98.38 1853.55,-88.47"/>
<polygon fill="black" stroke="black" points="1855.72,-91.24 1862.41,-83.03 1852.06,-85.28 1855.72,-91.24"/>
</g>
<!-- 23 -->
<g id="node24" class="node">
<title>23</title>
<polygon fill="none" stroke="black" points="2332.5,-217 2132.5,-217 2132.5,-119 2332.5,-119 2332.5,-217"/>
<text text-anchor="middle" x="2232.5" y="-201.8" font-family="Times,serif" font-size="14.00">node #23</text>
<text text-anchor="middle" x="2232.5" y="-186.8" font-family="Times,serif" font-size="14.00">FEV1PrePercent &lt;= 81.5</text>
<text text-anchor="middle" x="2232.5" y="-171.8" font-family="Times,serif" font-size="14.00">gini = 0.484</text>
<text text-anchor="middle" x="2232.5" y="-156.8" font-family="Times,serif" font-size="14.00">samples = 24</text>
<text text-anchor="middle" x="2232.5" y="-141.8" font-family="Times,serif" font-size="14.00">value = [21.255, 14.822]</text>
<text text-anchor="middle" x="2232.5" y="-126.8" font-family="Times,serif" font-size="14.00">class = Non&#45;obstructive</text>
</g>
<!-- 22&#45;&gt;23 -->
<g id="edge23" class="edge">
<title>22&#45;&gt;23</title>
<path fill="none" stroke="black" d="M2232.5,-252.97C2232.5,-244.69 2232.5,-236 2232.5,-227.48"/>
<polygon fill="black" stroke="black" points="2236,-227.21 2232.5,-217.21 2229,-227.21 2236,-227.21"/>
</g>
<!-- 26 -->
<g id="node27" class="node">
<title>26</title>
<polygon fill="none" stroke="black" points="2644.5,-217 2450.5,-217 2450.5,-119 2644.5,-119 2644.5,-217"/>
<text text-anchor="middle" x="2547.5" y="-201.8" font-family="Times,serif" font-size="14.00">node #26</text>
<text text-anchor="middle" x="2547.5" y="-186.8" font-family="Times,serif" font-size="14.00">FEFPreVal &lt;= 3.4</text>
<text text-anchor="middle" x="2547.5" y="-171.8" font-family="Times,serif" font-size="14.00">gini = 0.441</text>
<text text-anchor="middle" x="2547.5" y="-156.8" font-family="Times,serif" font-size="14.00">samples = 23</text>
<text text-anchor="middle" x="2547.5" y="-141.8" font-family="Times,serif" font-size="14.00">value = [11.133, 22.728]</text>
<text text-anchor="middle" x="2547.5" y="-126.8" font-family="Times,serif" font-size="14.00">class = Obstructive</text>
</g>
<!-- 22&#45;&gt;26 -->
<g id="edge26" class="edge">
<title>22&#45;&gt;26</title>
<path fill="none" stroke="black" d="M2325.31,-262.11C2361.61,-246.9 2403.47,-229.36 2440.99,-213.63"/>
<polygon fill="black" stroke="black" points="2442.56,-216.77 2450.43,-209.68 2439.86,-210.31 2442.56,-216.77"/>
</g>
<!-- 24 -->
<g id="node25" class="node">
<title>24</title>
<polygon fill="none" stroke="black" points="2226,-83 2041,-83 2041,0 2226,0 2226,-83"/>
<text text-anchor="middle" x="2133.5" y="-67.8" font-family="Times,serif" font-size="14.00">node #24</text>
<text text-anchor="middle" x="2133.5" y="-52.8" font-family="Times,serif" font-size="14.00">gini = 0.448</text>
<text text-anchor="middle" x="2133.5" y="-37.8" font-family="Times,serif" font-size="14.00">samples = 12</text>
<text text-anchor="middle" x="2133.5" y="-22.8" font-family="Times,serif" font-size="14.00">value = [6.073, 11.858]</text>
<text text-anchor="middle" x="2133.5" y="-7.8" font-family="Times,serif" font-size="14.00">class = Obstructive</text>
</g>
<!-- 23&#45;&gt;24 -->
<g id="edge24" class="edge">
<title>23&#45;&gt;24</title>
<path fill="none" stroke="black" d="M2194.22,-118.87C2186.99,-109.76 2179.41,-100.23 2172.16,-91.12"/>
<polygon fill="black" stroke="black" points="2174.85,-88.88 2165.89,-83.23 2169.37,-93.24 2174.85,-88.88"/>
</g>
<!-- 25 -->
<g id="node26" class="node">
<title>25</title>
<polygon fill="none" stroke="black" points="2432.5,-83 2244.5,-83 2244.5,0 2432.5,0 2432.5,-83"/>
<text text-anchor="middle" x="2338.5" y="-67.8" font-family="Times,serif" font-size="14.00">node #25</text>
<text text-anchor="middle" x="2338.5" y="-52.8" font-family="Times,serif" font-size="14.00">gini = 0.273</text>
<text text-anchor="middle" x="2338.5" y="-37.8" font-family="Times,serif" font-size="14.00">samples = 12</text>
<text text-anchor="middle" x="2338.5" y="-22.8" font-family="Times,serif" font-size="14.00">value = [15.182, 2.964]</text>
<text text-anchor="middle" x="2338.5" y="-7.8" font-family="Times,serif" font-size="14.00">class = Non&#45;obstructive</text>
</g>
<!-- 23&#45;&gt;25 -->
<g id="edge25" class="edge">
<title>23&#45;&gt;25</title>
<path fill="none" stroke="black" d="M2273.48,-118.87C2281.23,-109.76 2289.34,-100.23 2297.11,-91.12"/>
<polygon fill="black" stroke="black" points="2300,-93.11 2303.82,-83.23 2294.67,-88.58 2300,-93.11"/>
</g>
<!-- 27 -->
<g id="node28" class="node">
<title>27</title>
<polygon fill="none" stroke="black" points="2644.5,-83 2450.5,-83 2450.5,0 2644.5,0 2644.5,-83"/>
<text text-anchor="middle" x="2547.5" y="-67.8" font-family="Times,serif" font-size="14.00">node #27</text>
<text text-anchor="middle" x="2547.5" y="-52.8" font-family="Times,serif" font-size="14.00">gini = 0.494</text>
<text text-anchor="middle" x="2547.5" y="-37.8" font-family="Times,serif" font-size="14.00">samples = 17</text>
<text text-anchor="middle" x="2547.5" y="-22.8" font-family="Times,serif" font-size="14.00">value = [11.133, 13.834]</text>
<text text-anchor="middle" x="2547.5" y="-7.8" font-family="Times,serif" font-size="14.00">class = Obstructive</text>
</g>
<!-- 26&#45;&gt;27 -->
<g id="edge27" class="edge">
<title>26&#45;&gt;27</title>
<path fill="none" stroke="black" d="M2547.5,-118.87C2547.5,-110.5 2547.5,-101.77 2547.5,-93.33"/>
<polygon fill="black" stroke="black" points="2551,-93.23 2547.5,-83.23 2544,-93.23 2551,-93.23"/>
</g>
<!-- 28 -->
<g id="node29" class="node">
<title>28</title>
<polygon fill="none" stroke="black" points="2820.5,-83 2662.5,-83 2662.5,0 2820.5,0 2820.5,-83"/>
<text text-anchor="middle" x="2741.5" y="-67.8" font-family="Times,serif" font-size="14.00">node #28</text>
<text text-anchor="middle" x="2741.5" y="-52.8" font-family="Times,serif" font-size="14.00">gini = 0.0</text>
<text text-anchor="middle" x="2741.5" y="-37.8" font-family="Times,serif" font-size="14.00">samples = 6</text>
<text text-anchor="middle" x="2741.5" y="-22.8" font-family="Times,serif" font-size="14.00">value = [0.0, 8.893]</text>
<text text-anchor="middle" x="2741.5" y="-7.8" font-family="Times,serif" font-size="14.00">class = Obstructive</text>
</g>
<!-- 26&#45;&gt;28 -->
<g id="edge28" class="edge">
<title>26&#45;&gt;28</title>
<path fill="none" stroke="black" d="M2622.51,-118.87C2638.07,-108.88 2654.43,-98.38 2669.87,-88.47"/>
<polygon fill="black" stroke="black" points="2671.82,-91.38 2678.34,-83.03 2668.03,-85.49 2671.82,-91.38"/>
</g>
</g>
</svg>
