<?xml version="1.0" encoding="UTF-8" standalone="no"?>
<!DOCTYPE svg PUBLIC "-//W3C//DTD SVG 1.1//EN"
 "http://www.w3.org/Graphics/SVG/1.1/DTD/svg11.dtd">
<!-- Generated by graphviz version 2.43.0 (0)
 -->
<!-- Title: Tree Pages: 1 -->
<svg width="1598pt" height="627pt"
 viewBox="0.00 0.00 1598.00 627.00" xmlns="http://www.w3.org/2000/svg" xmlns:xlink="http://www.w3.org/1999/xlink">
<g id="graph0" class="graph" transform="scale(1 1) rotate(0) translate(4 623)">
<title>Tree</title>
<polygon fill="white" stroke="transparent" points="-4,4 -4,-623 1594,-623 1594,4 -4,4"/>
<!-- 0 -->
<g id="node1" class="node">
<title>0</title>
<polygon fill="none" stroke="black" points="697.5,-619 506.5,-619 506.5,-521 697.5,-521 697.5,-619"/>
<text text-anchor="middle" x="602" y="-603.8" font-family="Times,serif" font-size="14.00">node #0</text>
<text text-anchor="middle" x="602" y="-588.8" font-family="Times,serif" font-size="14.00">FEFPrePercent &lt;= 33.5</text>
<text text-anchor="middle" x="602" y="-573.8" font-family="Times,serif" font-size="14.00">gini = 0.5</text>
<text text-anchor="middle" x="602" y="-558.8" font-family="Times,serif" font-size="14.00">samples = 210</text>
<text text-anchor="middle" x="602" y="-543.8" font-family="Times,serif" font-size="14.00">value = [166.5, 166.5]</text>
<text text-anchor="middle" x="602" y="-528.8" font-family="Times,serif" font-size="14.00">class = Obstructive</text>
</g>
<!-- 1 -->
<g id="node2" class="node">
<title>1</title>
<polygon fill="none" stroke="black" points="586.5,-485 395.5,-485 395.5,-387 586.5,-387 586.5,-485"/>
<text text-anchor="middle" x="491" y="-469.8" font-family="Times,serif" font-size="14.00">node #1</text>
<text text-anchor="middle" x="491" y="-454.8" font-family="Times,serif" font-size="14.00">FEFPrePercent &lt;= 16.5</text>
<text text-anchor="middle" x="491" y="-439.8" font-family="Times,serif" font-size="14.00">gini = 0.123</text>
<text text-anchor="middle" x="491" y="-424.8" font-family="Times,serif" font-size="14.00">samples = 60</text>
<text text-anchor="middle" x="491" y="-409.8" font-family="Times,serif" font-size="14.00">value = [6.167, 87.632]</text>
<text text-anchor="middle" x="491" y="-394.8" font-family="Times,serif" font-size="14.00">class = Obstructive</text>
</g>
<!-- 0&#45;&gt;1 -->
<g id="edge1" class="edge">
<title>0&#45;&gt;1</title>
<path fill="none" stroke="black" d="M561.61,-520.97C553.96,-511.87 545.89,-502.28 538.06,-492.96"/>
<polygon fill="black" stroke="black" points="540.66,-490.61 531.54,-485.21 535.3,-495.12 540.66,-490.61"/>
<text text-anchor="middle" x="529.39" y="-506.42" font-family="Times,serif" font-size="14.00">True</text>
</g>
<!-- 8 -->
<g id="node9" class="node">
<title>8</title>
<polygon fill="none" stroke="black" points="906.5,-485 703.5,-485 703.5,-387 906.5,-387 906.5,-485"/>
<text text-anchor="middle" x="805" y="-469.8" font-family="Times,serif" font-size="14.00">node #8</text>
<text text-anchor="middle" x="805" y="-454.8" font-family="Times,serif" font-size="14.00">FEV1PostVal &lt;= 1.965</text>
<text text-anchor="middle" x="805" y="-439.8" font-family="Times,serif" font-size="14.00">gini = 0.442</text>
<text text-anchor="middle" x="805" y="-424.8" font-family="Times,serif" font-size="14.00">samples = 150</text>
<text text-anchor="middle" x="805" y="-409.8" font-family="Times,serif" font-size="14.00">value = [160.333, 78.868]</text>
<text text-anchor="middle" x="805" y="-394.8" font-family="Times,serif" font-size="14.00">class = Non&#45;obstructive</text>
</g>
<!-- 0&#45;&gt;8 -->
<g id="edge8" class="edge">
<title>0&#45;&gt;8</title>
<path fill="none" stroke="black" d="M675.86,-520.97C690.97,-511.14 706.97,-500.74 722.37,-490.73"/>
<polygon fill="black" stroke="black" points="724.38,-493.6 730.85,-485.21 720.56,-487.73 724.38,-493.6"/>
<text text-anchor="middle" x="725.67" y="-505.97" font-family="Times,serif" font-size="14.00">False</text>
</g>
<!-- 2 -->
<g id="node3" class="node">
<title>2</title>
<polygon fill="none" stroke="black" points="369.5,-343.5 202.5,-343.5 202.5,-260.5 369.5,-260.5 369.5,-343.5"/>
<text text-anchor="middle" x="286" y="-328.3" font-family="Times,serif" font-size="14.00">node #2</text>
<text text-anchor="middle" x="286" y="-313.3" font-family="Times,serif" font-size="14.00">gini = 0.0</text>
<text text-anchor="middle" x="286" y="-298.3" font-family="Times,serif" font-size="14.00">samples = 28</text>
<text text-anchor="middle" x="286" y="-283.3" font-family="Times,serif" font-size="14.00">value = [0.0, 46.737]</text>
<text text-anchor="middle" x="286" y="-268.3" font-family="Times,serif" font-size="14.00">class = Obstructive</text>
</g>
<!-- 1&#45;&gt;2 -->
<g id="edge2" class="edge">
<title>1&#45;&gt;2</title>
<path fill="none" stroke="black" d="M416.41,-386.97C397.25,-374.63 376.68,-361.39 357.67,-349.15"/>
<polygon fill="black" stroke="black" points="359.36,-346.07 349.06,-343.6 355.57,-351.96 359.36,-346.07"/>
</g>
<!-- 3 -->
<g id="node4" class="node">
<title>3</title>
<polygon fill="none" stroke="black" points="594,-351 388,-351 388,-253 594,-253 594,-351"/>
<text text-anchor="middle" x="491" y="-335.8" font-family="Times,serif" font-size="14.00">node #3</text>
<text text-anchor="middle" x="491" y="-320.8" font-family="Times,serif" font-size="14.00">FEV1PostPercent &lt;= 52.5</text>
<text text-anchor="middle" x="491" y="-305.8" font-family="Times,serif" font-size="14.00">gini = 0.228</text>
<text text-anchor="middle" x="491" y="-290.8" font-family="Times,serif" font-size="14.00">samples = 32</text>
<text text-anchor="middle" x="491" y="-275.8" font-family="Times,serif" font-size="14.00">value = [6.167, 40.895]</text>
<text text-anchor="middle" x="491" y="-260.8" font-family="Times,serif" font-size="14.00">class = Obstructive</text>
</g>
<!-- 1&#45;&gt;3 -->
<g id="edge3" class="edge">
<title>1&#45;&gt;3</title>
<path fill="none" stroke="black" d="M491,-386.97C491,-378.69 491,-370 491,-361.48"/>
<polygon fill="black" stroke="black" points="494.5,-361.21 491,-351.21 487.5,-361.21 494.5,-361.21"/>
</g>
<!-- 4 -->
<g id="node5" class="node">
<title>4</title>
<polygon fill="none" stroke="black" points="382,-217 206,-217 206,-119 382,-119 382,-217"/>
<text text-anchor="middle" x="294" y="-201.8" font-family="Times,serif" font-size="14.00">node #4</text>
<text text-anchor="middle" x="294" y="-186.8" font-family="Times,serif" font-size="14.00">FVCPreVal &lt;= 1.395</text>
<text text-anchor="middle" x="294" y="-171.8" font-family="Times,serif" font-size="14.00">gini = 0.499</text>
<text text-anchor="middle" x="294" y="-156.8" font-family="Times,serif" font-size="14.00">samples = 11</text>
<text text-anchor="middle" x="294" y="-141.8" font-family="Times,serif" font-size="14.00">value = [6.167, 6.816]</text>
<text text-anchor="middle" x="294" y="-126.8" font-family="Times,serif" font-size="14.00">class = Obstructive</text>
</g>
<!-- 3&#45;&gt;4 -->
<g id="edge4" class="edge">
<title>3&#45;&gt;4</title>
<path fill="none" stroke="black" d="M419.32,-252.97C404.79,-243.24 389.42,-232.93 374.6,-223.01"/>
<polygon fill="black" stroke="black" points="376.21,-219.87 365.96,-217.21 372.31,-225.69 376.21,-219.87"/>
</g>
<!-- 7 -->
<g id="node8" class="node">
<title>7</title>
<polygon fill="none" stroke="black" points="574.5,-209.5 407.5,-209.5 407.5,-126.5 574.5,-126.5 574.5,-209.5"/>
<text text-anchor="middle" x="491" y="-194.3" font-family="Times,serif" font-size="14.00">node #7</text>
<text text-anchor="middle" x="491" y="-179.3" font-family="Times,serif" font-size="14.00">gini = 0.0</text>
<text text-anchor="middle" x="491" y="-164.3" font-family="Times,serif" font-size="14.00">samples = 21</text>
<text text-anchor="middle" x="491" y="-149.3" font-family="Times,serif" font-size="14.00">value = [0.0, 34.079]</text>
<text text-anchor="middle" x="491" y="-134.3" font-family="Times,serif" font-size="14.00">class = Obstructive</text>
</g>
<!-- 3&#45;&gt;7 -->
<g id="edge7" class="edge">
<title>3&#45;&gt;7</title>
<path fill="none" stroke="black" d="M491,-252.97C491,-242.25 491,-230.84 491,-219.99"/>
<polygon fill="black" stroke="black" points="494.5,-219.82 491,-209.82 487.5,-219.82 494.5,-219.82"/>
</g>
<!-- 5 -->
<g id="node6" class="node">
<title>5</title>
<polygon fill="none" stroke="black" points="188,-83 0,-83 0,0 188,0 188,-83"/>
<text text-anchor="middle" x="94" y="-67.8" font-family="Times,serif" font-size="14.00">node #5</text>
<text text-anchor="middle" x="94" y="-52.8" font-family="Times,serif" font-size="14.00">gini = 0.0</text>
<text text-anchor="middle" x="94" y="-37.8" font-family="Times,serif" font-size="14.00">samples = 4</text>
<text text-anchor="middle" x="94" y="-22.8" font-family="Times,serif" font-size="14.00">value = [4.111, 0.0]</text>
<text text-anchor="middle" x="94" y="-7.8" font-family="Times,serif" font-size="14.00">class = Non&#45;obstructive</text>
</g>
<!-- 4&#45;&gt;5 -->
<g id="edge5" class="edge">
<title>4&#45;&gt;5</title>
<path fill="none" stroke="black" d="M216.67,-118.87C200.63,-108.88 183.76,-98.38 167.85,-88.47"/>
<polygon fill="black" stroke="black" points="169.45,-85.35 159.11,-83.03 165.75,-91.29 169.45,-85.35"/>
</g>
<!-- 6 -->
<g id="node7" class="node">
<title>6</title>
<polygon fill="none" stroke="black" points="382,-83 206,-83 206,0 382,0 382,-83"/>
<text text-anchor="middle" x="294" y="-67.8" font-family="Times,serif" font-size="14.00">node #6</text>
<text text-anchor="middle" x="294" y="-52.8" font-family="Times,serif" font-size="14.00">gini = 0.356</text>
<text text-anchor="middle" x="294" y="-37.8" font-family="Times,serif" font-size="14.00">samples = 7</text>
<text text-anchor="middle" x="294" y="-22.8" font-family="Times,serif" font-size="14.00">value = [2.056, 6.816]</text>
<text text-anchor="middle" x="294" y="-7.8" font-family="Times,serif" font-size="14.00">class = Obstructive</text>
</g>
<!-- 4&#45;&gt;6 -->
<g id="edge6" class="edge">
<title>4&#45;&gt;6</title>
<path fill="none" stroke="black" d="M294,-118.87C294,-110.5 294,-101.77 294,-93.33"/>
<polygon fill="black" stroke="black" points="297.5,-93.23 294,-83.23 290.5,-93.23 297.5,-93.23"/>
</g>
<!-- 9 -->
<g id="node10" class="node">
<title>9</title>
<polygon fill="none" stroke="black" points="906.5,-351 703.5,-351 703.5,-253 906.5,-253 906.5,-351"/>
<text text-anchor="middle" x="805" y="-335.8" font-family="Times,serif" font-size="14.00">node #9</text>
<text text-anchor="middle" x="805" y="-320.8" font-family="Times,serif" font-size="14.00">FEFPostVal &lt;= 1.11</text>
<text text-anchor="middle" x="805" y="-305.8" font-family="Times,serif" font-size="14.00">gini = 0.203</text>
<text text-anchor="middle" x="805" y="-290.8" font-family="Times,serif" font-size="14.00">samples = 83</text>
<text text-anchor="middle" x="805" y="-275.8" font-family="Times,serif" font-size="14.00">value = [113.056, 14.605]</text>
<text text-anchor="middle" x="805" y="-260.8" font-family="Times,serif" font-size="14.00">class = Non&#45;obstructive</text>
</g>
<!-- 8&#45;&gt;9 -->
<g id="edge9" class="edge">
<title>8&#45;&gt;9</title>
<path fill="none" stroke="black" d="M805,-386.97C805,-378.69 805,-370 805,-361.48"/>
<polygon fill="black" stroke="black" points="808.5,-361.21 805,-351.21 801.5,-361.21 808.5,-361.21"/>
</g>
<!-- 16 -->
<g id="node17" class="node">
<title>16</title>
<polygon fill="none" stroke="black" points="1389.5,-351 1180.5,-351 1180.5,-253 1389.5,-253 1389.5,-351"/>
<text text-anchor="middle" x="1285" y="-335.8" font-family="Times,serif" font-size="14.00">node #16</text>
<text text-anchor="middle" x="1285" y="-320.8" font-family="Times,serif" font-size="14.00">FEV1PrePercent &lt;= 105.5</text>
<text text-anchor="middle" x="1285" y="-305.8" font-family="Times,serif" font-size="14.00">gini = 0.488</text>
<text text-anchor="middle" x="1285" y="-290.8" font-family="Times,serif" font-size="14.00">samples = 67</text>
<text text-anchor="middle" x="1285" y="-275.8" font-family="Times,serif" font-size="14.00">value = [47.278, 64.263]</text>
<text text-anchor="middle" x="1285" y="-260.8" font-family="Times,serif" font-size="14.00">class = Obstructive</text>
</g>
<!-- 8&#45;&gt;16 -->
<g id="edge16" class="edge">
<title>8&#45;&gt;16</title>
<path fill="none" stroke="black" d="M906.5,-407.09C983.83,-385.82 1090.33,-356.54 1170.66,-334.44"/>
<polygon fill="black" stroke="black" points="1171.61,-337.81 1180.32,-331.79 1169.75,-331.06 1171.61,-337.81"/>
</g>
<!-- 10 -->
<g id="node11" class="node">
<title>10</title>
<polygon fill="none" stroke="black" points="776,-217 600,-217 600,-119 776,-119 776,-217"/>
<text text-anchor="middle" x="688" y="-201.8" font-family="Times,serif" font-size="14.00">node #10</text>
<text text-anchor="middle" x="688" y="-186.8" font-family="Times,serif" font-size="14.00">FEV1PostVal &lt;= 1.47</text>
<text text-anchor="middle" x="688" y="-171.8" font-family="Times,serif" font-size="14.00">gini = 0.429</text>
<text text-anchor="middle" x="688" y="-156.8" font-family="Times,serif" font-size="14.00">samples = 7</text>
<text text-anchor="middle" x="688" y="-141.8" font-family="Times,serif" font-size="14.00">value = [3.083, 6.816]</text>
<text text-anchor="middle" x="688" y="-126.8" font-family="Times,serif" font-size="14.00">class = Obstructive</text>
</g>
<!-- 9&#45;&gt;10 -->
<g id="edge10" class="edge">
<title>9&#45;&gt;10</title>
<path fill="none" stroke="black" d="M762.43,-252.97C754.36,-243.87 745.86,-234.28 737.6,-224.96"/>
<polygon fill="black" stroke="black" points="739.99,-222.38 730.74,-217.21 734.75,-227.02 739.99,-222.38"/>
</g>
<!-- 13 -->
<g id="node14" class="node">
<title>13</title>
<polygon fill="none" stroke="black" points="994,-217 800,-217 800,-119 994,-119 994,-217"/>
<text text-anchor="middle" x="897" y="-201.8" font-family="Times,serif" font-size="14.00">node #13</text>
<text text-anchor="middle" x="897" y="-186.8" font-family="Times,serif" font-size="14.00">FVCPrePercent &lt;= 88.0</text>
<text text-anchor="middle" x="897" y="-171.8" font-family="Times,serif" font-size="14.00">gini = 0.124</text>
<text text-anchor="middle" x="897" y="-156.8" font-family="Times,serif" font-size="14.00">samples = 76</text>
<text text-anchor="middle" x="897" y="-141.8" font-family="Times,serif" font-size="14.00">value = [109.972, 7.789]</text>
<text text-anchor="middle" x="897" y="-126.8" font-family="Times,serif" font-size="14.00">class = Non&#45;obstructive</text>
</g>
<!-- 9&#45;&gt;13 -->
<g id="edge13" class="edge">
<title>9&#45;&gt;13</title>
<path fill="none" stroke="black" d="M838.47,-252.97C844.69,-244.05 851.23,-234.66 857.61,-225.52"/>
<polygon fill="black" stroke="black" points="860.55,-227.42 863.4,-217.21 854.81,-223.42 860.55,-227.42"/>
</g>
<!-- 11 -->
<g id="node12" class="node">
<title>11</title>
<polygon fill="none" stroke="black" points="576,-83 400,-83 400,0 576,0 576,-83"/>
<text text-anchor="middle" x="488" y="-67.8" font-family="Times,serif" font-size="14.00">node #11</text>
<text text-anchor="middle" x="488" y="-52.8" font-family="Times,serif" font-size="14.00">gini = 0.228</text>
<text text-anchor="middle" x="488" y="-37.8" font-family="Times,serif" font-size="14.00">samples = 6</text>
<text text-anchor="middle" x="488" y="-22.8" font-family="Times,serif" font-size="14.00">value = [1.028, 6.816]</text>
<text text-anchor="middle" x="488" y="-7.8" font-family="Times,serif" font-size="14.00">class = Obstructive</text>
</g>
<!-- 10&#45;&gt;11 -->
<g id="edge11" class="edge">
<title>10&#45;&gt;11</title>
<path fill="none" stroke="black" d="M610.67,-118.87C594.63,-108.88 577.76,-98.38 561.85,-88.47"/>
<polygon fill="black" stroke="black" points="563.45,-85.35 553.11,-83.03 559.75,-91.29 563.45,-85.35"/>
</g>
<!-- 12 -->
<g id="node13" class="node">
<title>12</title>
<polygon fill="none" stroke="black" points="782,-83 594,-83 594,0 782,0 782,-83"/>
<text text-anchor="middle" x="688" y="-67.8" font-family="Times,serif" font-size="14.00">node #12</text>
<text text-anchor="middle" x="688" y="-52.8" font-family="Times,serif" font-size="14.00">gini = 0.0</text>
<text text-anchor="middle" x="688" y="-37.8" font-family="Times,serif" font-size="14.00">samples = 1</text>
<text text-anchor="middle" x="688" y="-22.8" font-family="Times,serif" font-size="14.00">value = [2.056, 0.0]</text>
<text text-anchor="middle" x="688" y="-7.8" font-family="Times,serif" font-size="14.00">class = Non&#45;obstructive</text>
</g>
<!-- 10&#45;&gt;12 -->
<g id="edge12" class="edge">
<title>10&#45;&gt;12</title>
<path fill="none" stroke="black" d="M688,-118.87C688,-110.5 688,-101.77 688,-93.33"/>
<polygon fill="black" stroke="black" points="691.5,-93.23 688,-83.23 684.5,-93.23 691.5,-93.23"/>
</g>
<!-- 14 -->
<g id="node15" class="node">
<title>14</title>
<polygon fill="none" stroke="black" points="994,-83 800,-83 800,0 994,0 994,-83"/>
<text text-anchor="middle" x="897" y="-67.8" font-family="Times,serif" font-size="14.00">node #14</text>
<text text-anchor="middle" x="897" y="-52.8" font-family="Times,serif" font-size="14.00">gini = 0.081</text>
<text text-anchor="middle" x="897" y="-37.8" font-family="Times,serif" font-size="14.00">samples = 74</text>
<text text-anchor="middle" x="897" y="-22.8" font-family="Times,serif" font-size="14.00">value = [109.972, 4.868]</text>
<text text-anchor="middle" x="897" y="-7.8" font-family="Times,serif" font-size="14.00">class = Non&#45;obstructive</text>
</g>
<!-- 13&#45;&gt;14 -->
<g id="edge14" class="edge">
<title>13&#45;&gt;14</title>
<path fill="none" stroke="black" d="M897,-118.87C897,-110.5 897,-101.77 897,-93.33"/>
<polygon fill="black" stroke="black" points="900.5,-93.23 897,-83.23 893.5,-93.23 900.5,-93.23"/>
</g>
<!-- 15 -->
<g id="node16" class="node">
<title>15</title>
<polygon fill="none" stroke="black" points="1170,-83 1012,-83 1012,0 1170,0 1170,-83"/>
<text text-anchor="middle" x="1091" y="-67.8" font-family="Times,serif" font-size="14.00">node #15</text>
<text text-anchor="middle" x="1091" y="-52.8" font-family="Times,serif" font-size="14.00">gini = &#45;0.0</text>
<text text-anchor="middle" x="1091" y="-37.8" font-family="Times,serif" font-size="14.00">samples = 2</text>
<text text-anchor="middle" x="1091" y="-22.8" font-family="Times,serif" font-size="14.00">value = [0.0, 2.921]</text>
<text text-anchor="middle" x="1091" y="-7.8" font-family="Times,serif" font-size="14.00">class = Obstructive</text>
</g>
<!-- 13&#45;&gt;15 -->
<g id="edge15" class="edge">
<title>13&#45;&gt;15</title>
<path fill="none" stroke="black" d="M972.01,-118.87C987.57,-108.88 1003.93,-98.38 1019.37,-88.47"/>
<polygon fill="black" stroke="black" points="1021.32,-91.38 1027.84,-83.03 1017.53,-85.49 1021.32,-91.38"/>
</g>
<!-- 17 -->
<g id="node18" class="node">
<title>17</title>
<polygon fill="none" stroke="black" points="1383.5,-217 1186.5,-217 1186.5,-119 1383.5,-119 1383.5,-217"/>
<text text-anchor="middle" x="1285" y="-201.8" font-family="Times,serif" font-size="14.00">node #17</text>
<text text-anchor="middle" x="1285" y="-186.8" font-family="Times,serif" font-size="14.00">FVCPostPercent &lt;= 86.5</text>
<text text-anchor="middle" x="1285" y="-171.8" font-family="Times,serif" font-size="14.00">gini = 0.473</text>
<text text-anchor="middle" x="1285" y="-156.8" font-family="Times,serif" font-size="14.00">samples = 65</text>
<text text-anchor="middle" x="1285" y="-141.8" font-family="Times,serif" font-size="14.00">value = [40.083, 64.263]</text>
<text text-anchor="middle" x="1285" y="-126.8" font-family="Times,serif" font-size="14.00">class = Obstructive</text>
</g>
<!-- 16&#45;&gt;17 -->
<g id="edge17" class="edge">
<title>16&#45;&gt;17</title>
<path fill="none" stroke="black" d="M1285,-252.97C1285,-244.69 1285,-236 1285,-227.48"/>
<polygon fill="black" stroke="black" points="1288.5,-227.21 1285,-217.21 1281.5,-227.21 1288.5,-227.21"/>
</g>
<!-- 20 -->
<g id="node21" class="node">
<title>20</title>
<polygon fill="none" stroke="black" points="1590,-209.5 1402,-209.5 1402,-126.5 1590,-126.5 1590,-209.5"/>
<text text-anchor="middle" x="1496" y="-194.3" font-family="Times,serif" font-size="14.00">node #20</text>
<text text-anchor="middle" x="1496" y="-179.3" font-family="Times,serif" font-size="14.00">gini = 0.0</text>
<text text-anchor="middle" x="1496" y="-164.3" font-family="Times,serif" font-size="14.00">samples = 2</text>
<text text-anchor="middle" x="1496" y="-149.3" font-family="Times,serif" font-size="14.00">value = [7.194, 0.0]</text>
<text text-anchor="middle" x="1496" y="-134.3" font-family="Times,serif" font-size="14.00">class = Non&#45;obstructive</text>
</g>
<!-- 16&#45;&gt;20 -->
<g id="edge20" class="edge">
<title>16&#45;&gt;20</title>
<path fill="none" stroke="black" d="M1361.77,-252.97C1381.58,-240.58 1402.86,-227.27 1422.49,-214.98"/>
<polygon fill="black" stroke="black" points="1424.47,-217.87 1431.1,-209.6 1420.76,-211.94 1424.47,-217.87"/>
</g>
<!-- 18 -->
<g id="node19" class="node">
<title>18</title>
<polygon fill="none" stroke="black" points="1382,-83 1188,-83 1188,0 1382,0 1382,-83"/>
<text text-anchor="middle" x="1285" y="-67.8" font-family="Times,serif" font-size="14.00">node #18</text>
<text text-anchor="middle" x="1285" y="-52.8" font-family="Times,serif" font-size="14.00">gini = 0.492</text>
<text text-anchor="middle" x="1285" y="-37.8" font-family="Times,serif" font-size="14.00">samples = 44</text>
<text text-anchor="middle" x="1285" y="-22.8" font-family="Times,serif" font-size="14.00">value = [39.056, 30.184]</text>
<text text-anchor="middle" x="1285" y="-7.8" font-family="Times,serif" font-size="14.00">class = Non&#45;obstructive</text>
</g>
<!-- 17&#45;&gt;18 -->
<g id="edge18" class="edge">
<title>17&#45;&gt;18</title>
<path fill="none" stroke="black" d="M1285,-118.87C1285,-110.5 1285,-101.77 1285,-93.33"/>
<polygon fill="black" stroke="black" points="1288.5,-93.23 1285,-83.23 1281.5,-93.23 1288.5,-93.23"/>
</g>
<!-- 19 -->
<g id="node20" class="node">
<title>19</title>
<polygon fill="none" stroke="black" points="1584.5,-83 1399.5,-83 1399.5,0 1584.5,0 1584.5,-83"/>
<text text-anchor="middle" x="1492" y="-67.8" font-family="Times,serif" font-size="14.00">node #19</text>
<text text-anchor="middle" x="1492" y="-52.8" font-family="Times,serif" font-size="14.00">gini = 0.057</text>
<text text-anchor="middle" x="1492" y="-37.8" font-family="Times,serif" font-size="14.00">samples = 21</text>
<text text-anchor="middle" x="1492" y="-22.8" font-family="Times,serif" font-size="14.00">value = [1.028, 34.079]</text>
<text text-anchor="middle" x="1492" y="-7.8" font-family="Times,serif" font-size="14.00">class = Obstructive</text>
</g>
<!-- 17&#45;&gt;19 -->
<g id="edge19" class="edge">
<title>17&#45;&gt;19</title>
<path fill="none" stroke="black" d="M1365.03,-118.87C1381.79,-108.78 1399.42,-98.18 1416.03,-88.19"/>
<polygon fill="black" stroke="black" points="1417.84,-91.19 1424.61,-83.03 1414.24,-85.19 1417.84,-91.19"/>
</g>
</g>
</svg>
