<?xml version="1.0" encoding="UTF-8" standalone="no"?>
<!DOCTYPE svg PUBLIC "-//W3C//DTD SVG 1.1//EN"
 "http://www.w3.org/Graphics/SVG/1.1/DTD/svg11.dtd">
<!-- Generated by graphviz version 2.43.0 (0)
 -->
<!-- Title: Tree Pages: 1 -->
<svg width="1980pt" height="627pt"
 viewBox="0.00 0.00 1979.50 627.00" xmlns="http://www.w3.org/2000/svg" xmlns:xlink="http://www.w3.org/1999/xlink">
<g id="graph0" class="graph" transform="scale(1 1) rotate(0) translate(4 623)">
<title>Tree</title>
<polygon fill="white" stroke="transparent" points="-4,4 -4,-623 1975.5,-623 1975.5,4 -4,4"/>
<!-- 0 -->
<g id="node1" class="node">
<title>0</title>
<polygon fill="none" stroke="black" points="859.5,-619 662.5,-619 662.5,-521 859.5,-521 859.5,-619"/>
<text text-anchor="middle" x="761" y="-603.8" font-family="Times,serif" font-size="14.00">node #0</text>
<text text-anchor="middle" x="761" y="-588.8" font-family="Times,serif" font-size="14.00">FEFPostPercent &lt;= 38.5</text>
<text text-anchor="middle" x="761" y="-573.8" font-family="Times,serif" font-size="14.00">gini = 0.5</text>
<text text-anchor="middle" x="761" y="-558.8" font-family="Times,serif" font-size="14.00">samples = 208</text>
<text text-anchor="middle" x="761" y="-543.8" font-family="Times,serif" font-size="14.00">value = [166.5, 166.5]</text>
<text text-anchor="middle" x="761" y="-528.8" font-family="Times,serif" font-size="14.00">class = Non&#45;obstructive</text>
</g>
<!-- 1 -->
<g id="node2" class="node">
<title>1</title>
<polygon fill="none" stroke="black" points="682.5,-485 473.5,-485 473.5,-387 682.5,-387 682.5,-485"/>
<text text-anchor="middle" x="578" y="-469.8" font-family="Times,serif" font-size="14.00">node #1</text>
<text text-anchor="middle" x="578" y="-454.8" font-family="Times,serif" font-size="14.00">FEFPrePercent &lt;= 35.275</text>
<text text-anchor="middle" x="578" y="-439.8" font-family="Times,serif" font-size="14.00">gini = 0.161</text>
<text text-anchor="middle" x="578" y="-424.8" font-family="Times,serif" font-size="14.00">samples = 60</text>
<text text-anchor="middle" x="578" y="-409.8" font-family="Times,serif" font-size="14.00">value = [8.325, 85.656]</text>
<text text-anchor="middle" x="578" y="-394.8" font-family="Times,serif" font-size="14.00">class = Obstructive</text>
</g>
<!-- 0&#45;&gt;1 -->
<g id="edge1" class="edge">
<title>0&#45;&gt;1</title>
<path fill="none" stroke="black" d="M694.42,-520.97C681.04,-511.33 666.9,-501.13 653.26,-491.29"/>
<polygon fill="black" stroke="black" points="655,-488.23 644.84,-485.21 650.9,-493.9 655,-488.23"/>
<text text-anchor="middle" x="648.84" y="-506.19" font-family="Times,serif" font-size="14.00">True</text>
</g>
<!-- 12 -->
<g id="node13" class="node">
<title>12</title>
<polygon fill="none" stroke="black" points="1076.5,-485 873.5,-485 873.5,-387 1076.5,-387 1076.5,-485"/>
<text text-anchor="middle" x="975" y="-469.8" font-family="Times,serif" font-size="14.00">node #12</text>
<text text-anchor="middle" x="975" y="-454.8" font-family="Times,serif" font-size="14.00">FVCPostVal &lt;= 2.145</text>
<text text-anchor="middle" x="975" y="-439.8" font-family="Times,serif" font-size="14.00">gini = 0.448</text>
<text text-anchor="middle" x="975" y="-424.8" font-family="Times,serif" font-size="14.00">samples = 148</text>
<text text-anchor="middle" x="975" y="-409.8" font-family="Times,serif" font-size="14.00">value = [158.175, 80.844]</text>
<text text-anchor="middle" x="975" y="-394.8" font-family="Times,serif" font-size="14.00">class = Non&#45;obstructive</text>
</g>
<!-- 0&#45;&gt;12 -->
<g id="edge12" class="edge">
<title>0&#45;&gt;12</title>
<path fill="none" stroke="black" d="M838.86,-520.97C854.8,-511.14 871.66,-500.74 887.89,-490.73"/>
<polygon fill="black" stroke="black" points="890.16,-493.44 896.84,-485.21 886.49,-487.48 890.16,-493.44"/>
<text text-anchor="middle" x="891.07" y="-505.84" font-family="Times,serif" font-size="14.00">False</text>
</g>
<!-- 2 -->
<g id="node3" class="node">
<title>2</title>
<polygon fill="none" stroke="black" points="382.5,-351 197.5,-351 197.5,-253 382.5,-253 382.5,-351"/>
<text text-anchor="middle" x="290" y="-335.8" font-family="Times,serif" font-size="14.00">node #2</text>
<text text-anchor="middle" x="290" y="-320.8" font-family="Times,serif" font-size="14.00">FEFPostVal &lt;= 0.48</text>
<text text-anchor="middle" x="290" y="-305.8" font-family="Times,serif" font-size="14.00">gini = 0.092</text>
<text text-anchor="middle" x="290" y="-290.8" font-family="Times,serif" font-size="14.00">samples = 55</text>
<text text-anchor="middle" x="290" y="-275.8" font-family="Times,serif" font-size="14.00">value = [4.162, 81.806]</text>
<text text-anchor="middle" x="290" y="-260.8" font-family="Times,serif" font-size="14.00">class = Obstructive</text>
</g>
<!-- 1&#45;&gt;2 -->
<g id="edge2" class="edge">
<title>1&#45;&gt;2</title>
<path fill="none" stroke="black" d="M473.21,-386.97C446.74,-374.84 418.35,-361.83 392.02,-349.76"/>
<polygon fill="black" stroke="black" points="393.35,-346.52 382.8,-345.53 390.43,-352.88 393.35,-346.52"/>
</g>
<!-- 7 -->
<g id="node8" class="node">
<title>7</title>
<polygon fill="none" stroke="black" points="685.5,-351 470.5,-351 470.5,-253 685.5,-253 685.5,-351"/>
<text text-anchor="middle" x="578" y="-335.8" font-family="Times,serif" font-size="14.00">node #7</text>
<text text-anchor="middle" x="578" y="-320.8" font-family="Times,serif" font-size="14.00">FVCPostPercent &lt;= 74.992</text>
<text text-anchor="middle" x="578" y="-305.8" font-family="Times,serif" font-size="14.00">gini = 0.499</text>
<text text-anchor="middle" x="578" y="-290.8" font-family="Times,serif" font-size="14.00">samples = 5</text>
<text text-anchor="middle" x="578" y="-275.8" font-family="Times,serif" font-size="14.00">value = [4.162, 3.85]</text>
<text text-anchor="middle" x="578" y="-260.8" font-family="Times,serif" font-size="14.00">class = Non&#45;obstructive</text>
</g>
<!-- 1&#45;&gt;7 -->
<g id="edge7" class="edge">
<title>1&#45;&gt;7</title>
<path fill="none" stroke="black" d="M578,-386.97C578,-378.69 578,-370 578,-361.48"/>
<polygon fill="black" stroke="black" points="581.5,-361.21 578,-351.21 574.5,-361.21 581.5,-361.21"/>
</g>
<!-- 3 -->
<g id="node4" class="node">
<title>3</title>
<polygon fill="none" stroke="black" points="179.5,-209.5 12.5,-209.5 12.5,-126.5 179.5,-126.5 179.5,-209.5"/>
<text text-anchor="middle" x="96" y="-194.3" font-family="Times,serif" font-size="14.00">node #3</text>
<text text-anchor="middle" x="96" y="-179.3" font-family="Times,serif" font-size="14.00">gini = 0.0</text>
<text text-anchor="middle" x="96" y="-164.3" font-family="Times,serif" font-size="14.00">samples = 25</text>
<text text-anchor="middle" x="96" y="-149.3" font-family="Times,serif" font-size="14.00">value = [0.0, 41.384]</text>
<text text-anchor="middle" x="96" y="-134.3" font-family="Times,serif" font-size="14.00">class = Obstructive</text>
</g>
<!-- 2&#45;&gt;3 -->
<g id="edge3" class="edge">
<title>2&#45;&gt;3</title>
<path fill="none" stroke="black" d="M219.41,-252.97C201.44,-240.75 182.17,-227.63 164.31,-215.48"/>
<polygon fill="black" stroke="black" points="165.91,-212.34 155.67,-209.6 161.97,-218.12 165.91,-212.34"/>
</g>
<!-- 4 -->
<g id="node5" class="node">
<title>4</title>
<polygon fill="none" stroke="black" points="382.5,-217 197.5,-217 197.5,-119 382.5,-119 382.5,-217"/>
<text text-anchor="middle" x="290" y="-201.8" font-family="Times,serif" font-size="14.00">node #4</text>
<text text-anchor="middle" x="290" y="-186.8" font-family="Times,serif" font-size="14.00">FEV1PreVal &lt;= 0.875</text>
<text text-anchor="middle" x="290" y="-171.8" font-family="Times,serif" font-size="14.00">gini = 0.169</text>
<text text-anchor="middle" x="290" y="-156.8" font-family="Times,serif" font-size="14.00">samples = 30</text>
<text text-anchor="middle" x="290" y="-141.8" font-family="Times,serif" font-size="14.00">value = [4.162, 40.422]</text>
<text text-anchor="middle" x="290" y="-126.8" font-family="Times,serif" font-size="14.00">class = Obstructive</text>
</g>
<!-- 2&#45;&gt;4 -->
<g id="edge4" class="edge">
<title>2&#45;&gt;4</title>
<path fill="none" stroke="black" d="M290,-252.97C290,-244.69 290,-236 290,-227.48"/>
<polygon fill="black" stroke="black" points="293.5,-227.21 290,-217.21 286.5,-227.21 293.5,-227.21"/>
</g>
<!-- 5 -->
<g id="node6" class="node">
<title>5</title>
<polygon fill="none" stroke="black" points="188,-83 0,-83 0,0 188,0 188,-83"/>
<text text-anchor="middle" x="94" y="-67.8" font-family="Times,serif" font-size="14.00">node #5</text>
<text text-anchor="middle" x="94" y="-52.8" font-family="Times,serif" font-size="14.00">gini = 0.484</text>
<text text-anchor="middle" x="94" y="-37.8" font-family="Times,serif" font-size="14.00">samples = 5</text>
<text text-anchor="middle" x="94" y="-22.8" font-family="Times,serif" font-size="14.00">value = [4.162, 2.887]</text>
<text text-anchor="middle" x="94" y="-7.8" font-family="Times,serif" font-size="14.00">class = Non&#45;obstructive</text>
</g>
<!-- 4&#45;&gt;5 -->
<g id="edge5" class="edge">
<title>4&#45;&gt;5</title>
<path fill="none" stroke="black" d="M214.22,-118.87C198.5,-108.88 181.97,-98.38 166.37,-88.47"/>
<polygon fill="black" stroke="black" points="168.13,-85.44 157.81,-83.03 164.37,-91.35 168.13,-85.44"/>
</g>
<!-- 6 -->
<g id="node7" class="node">
<title>6</title>
<polygon fill="none" stroke="black" points="373.5,-83 206.5,-83 206.5,0 373.5,0 373.5,-83"/>
<text text-anchor="middle" x="290" y="-67.8" font-family="Times,serif" font-size="14.00">node #6</text>
<text text-anchor="middle" x="290" y="-52.8" font-family="Times,serif" font-size="14.00">gini = 0.0</text>
<text text-anchor="middle" x="290" y="-37.8" font-family="Times,serif" font-size="14.00">samples = 25</text>
<text text-anchor="middle" x="290" y="-22.8" font-family="Times,serif" font-size="14.00">value = [0.0, 37.535]</text>
<text text-anchor="middle" x="290" y="-7.8" font-family="Times,serif" font-size="14.00">class = Obstructive</text>
</g>
<!-- 4&#45;&gt;6 -->
<g id="edge6" class="edge">
<title>4&#45;&gt;6</title>
<path fill="none" stroke="black" d="M290,-118.87C290,-110.5 290,-101.77 290,-93.33"/>
<polygon fill="black" stroke="black" points="293.5,-93.23 290,-83.23 286.5,-93.23 293.5,-93.23"/>
</g>
<!-- 8 -->
<g id="node9" class="node">
<title>8</title>
<polygon fill="none" stroke="black" points="603.5,-217 412.5,-217 412.5,-119 603.5,-119 603.5,-217"/>
<text text-anchor="middle" x="508" y="-201.8" font-family="Times,serif" font-size="14.00">node #8</text>
<text text-anchor="middle" x="508" y="-186.8" font-family="Times,serif" font-size="14.00">FVCPrePercent &lt;= 37.0</text>
<text text-anchor="middle" x="508" y="-171.8" font-family="Times,serif" font-size="14.00">gini = 0.432</text>
<text text-anchor="middle" x="508" y="-156.8" font-family="Times,serif" font-size="14.00">samples = 4</text>
<text text-anchor="middle" x="508" y="-141.8" font-family="Times,serif" font-size="14.00">value = [4.162, 1.925]</text>
<text text-anchor="middle" x="508" y="-126.8" font-family="Times,serif" font-size="14.00">class = Non&#45;obstructive</text>
</g>
<!-- 7&#45;&gt;8 -->
<g id="edge8" class="edge">
<title>7&#45;&gt;8</title>
<path fill="none" stroke="black" d="M552.53,-252.97C547.9,-244.24 543.02,-235.05 538.27,-226.08"/>
<polygon fill="black" stroke="black" points="541.35,-224.41 533.57,-217.21 535.16,-227.69 541.35,-224.41"/>
</g>
<!-- 11 -->
<g id="node12" class="node">
<title>11</title>
<polygon fill="none" stroke="black" points="780,-209.5 622,-209.5 622,-126.5 780,-126.5 780,-209.5"/>
<text text-anchor="middle" x="701" y="-194.3" font-family="Times,serif" font-size="14.00">node #11</text>
<text text-anchor="middle" x="701" y="-179.3" font-family="Times,serif" font-size="14.00">gini = &#45;0.0</text>
<text text-anchor="middle" x="701" y="-164.3" font-family="Times,serif" font-size="14.00">samples = 1</text>
<text text-anchor="middle" x="701" y="-149.3" font-family="Times,serif" font-size="14.00">value = [0.0, 1.925]</text>
<text text-anchor="middle" x="701" y="-134.3" font-family="Times,serif" font-size="14.00">class = Obstructive</text>
</g>
<!-- 7&#45;&gt;11 -->
<g id="edge11" class="edge">
<title>7&#45;&gt;11</title>
<path fill="none" stroke="black" d="M622.75,-252.97C633.57,-241.36 645.14,-228.95 655.97,-217.32"/>
<polygon fill="black" stroke="black" points="658.71,-219.52 662.97,-209.82 653.59,-214.75 658.71,-219.52"/>
</g>
<!-- 9 -->
<g id="node10" class="node">
<title>9</title>
<polygon fill="none" stroke="black" points="567,-83 391,-83 391,0 567,0 567,-83"/>
<text text-anchor="middle" x="479" y="-67.8" font-family="Times,serif" font-size="14.00">node #9</text>
<text text-anchor="middle" x="479" y="-52.8" font-family="Times,serif" font-size="14.00">gini = 0.456</text>
<text text-anchor="middle" x="479" y="-37.8" font-family="Times,serif" font-size="14.00">samples = 2</text>
<text text-anchor="middle" x="479" y="-22.8" font-family="Times,serif" font-size="14.00">value = [1.041, 1.925]</text>
<text text-anchor="middle" x="479" y="-7.8" font-family="Times,serif" font-size="14.00">class = Obstructive</text>
</g>
<!-- 8&#45;&gt;9 -->
<g id="edge9" class="edge">
<title>8&#45;&gt;9</title>
<path fill="none" stroke="black" d="M496.79,-118.87C494.82,-110.41 492.76,-101.58 490.78,-93.06"/>
<polygon fill="black" stroke="black" points="494.16,-92.18 488.49,-83.23 487.35,-93.76 494.16,-92.18"/>
</g>
<!-- 10 -->
<g id="node11" class="node">
<title>10</title>
<polygon fill="none" stroke="black" points="773,-83 585,-83 585,0 773,0 773,-83"/>
<text text-anchor="middle" x="679" y="-67.8" font-family="Times,serif" font-size="14.00">node #10</text>
<text text-anchor="middle" x="679" y="-52.8" font-family="Times,serif" font-size="14.00">gini = 0.0</text>
<text text-anchor="middle" x="679" y="-37.8" font-family="Times,serif" font-size="14.00">samples = 2</text>
<text text-anchor="middle" x="679" y="-22.8" font-family="Times,serif" font-size="14.00">value = [3.122, 0.0]</text>
<text text-anchor="middle" x="679" y="-7.8" font-family="Times,serif" font-size="14.00">class = Non&#45;obstructive</text>
</g>
<!-- 8&#45;&gt;10 -->
<g id="edge10" class="edge">
<title>8&#45;&gt;10</title>
<path fill="none" stroke="black" d="M574.11,-118.87C587.58,-109.06 601.72,-98.77 615.1,-89.02"/>
<polygon fill="black" stroke="black" points="617.3,-91.75 623.33,-83.03 613.18,-86.09 617.3,-91.75"/>
</g>
<!-- 13 -->
<g id="node14" class="node">
<title>13</title>
<polygon fill="none" stroke="black" points="1072,-351 878,-351 878,-253 1072,-253 1072,-351"/>
<text text-anchor="middle" x="975" y="-335.8" font-family="Times,serif" font-size="14.00">node #13</text>
<text text-anchor="middle" x="975" y="-320.8" font-family="Times,serif" font-size="14.00">FEFPrePercent &lt;= 32.5</text>
<text text-anchor="middle" x="975" y="-305.8" font-family="Times,serif" font-size="14.00">gini = 0.103</text>
<text text-anchor="middle" x="975" y="-290.8" font-family="Times,serif" font-size="14.00">samples = 76</text>
<text text-anchor="middle" x="975" y="-275.8" font-family="Times,serif" font-size="14.00">value = [117.591, 6.737]</text>
<text text-anchor="middle" x="975" y="-260.8" font-family="Times,serif" font-size="14.00">class = Non&#45;obstructive</text>
</g>
<!-- 12&#45;&gt;13 -->
<g id="edge13" class="edge">
<title>12&#45;&gt;13</title>
<path fill="none" stroke="black" d="M975,-386.97C975,-378.69 975,-370 975,-361.48"/>
<polygon fill="black" stroke="black" points="978.5,-361.21 975,-351.21 971.5,-361.21 978.5,-361.21"/>
</g>
<!-- 18 -->
<g id="node19" class="node">
<title>18</title>
<polygon fill="none" stroke="black" points="1377,-351 1183,-351 1183,-253 1377,-253 1377,-351"/>
<text text-anchor="middle" x="1280" y="-335.8" font-family="Times,serif" font-size="14.00">node #18</text>
<text text-anchor="middle" x="1280" y="-320.8" font-family="Times,serif" font-size="14.00">FEFPrePercent &lt;= 54.5</text>
<text text-anchor="middle" x="1280" y="-305.8" font-family="Times,serif" font-size="14.00">gini = 0.457</text>
<text text-anchor="middle" x="1280" y="-290.8" font-family="Times,serif" font-size="14.00">samples = 72</text>
<text text-anchor="middle" x="1280" y="-275.8" font-family="Times,serif" font-size="14.00">value = [40.584, 74.107]</text>
<text text-anchor="middle" x="1280" y="-260.8" font-family="Times,serif" font-size="14.00">class = Obstructive</text>
</g>
<!-- 12&#45;&gt;18 -->
<g id="edge18" class="edge">
<title>12&#45;&gt;18</title>
<path fill="none" stroke="black" d="M1076.56,-391.05C1107.71,-377.56 1142.06,-362.7 1173.53,-349.08"/>
<polygon fill="black" stroke="black" points="1174.97,-352.27 1182.76,-345.08 1172.19,-345.84 1174.97,-352.27"/>
</g>
<!-- 14 -->
<g id="node15" class="node">
<title>14</title>
<polygon fill="none" stroke="black" points="961,-209.5 803,-209.5 803,-126.5 961,-126.5 961,-209.5"/>
<text text-anchor="middle" x="882" y="-194.3" font-family="Times,serif" font-size="14.00">node #14</text>
<text text-anchor="middle" x="882" y="-179.3" font-family="Times,serif" font-size="14.00">gini = 0.0</text>
<text text-anchor="middle" x="882" y="-164.3" font-family="Times,serif" font-size="14.00">samples = 1</text>
<text text-anchor="middle" x="882" y="-149.3" font-family="Times,serif" font-size="14.00">value = [0.0, 2.887]</text>
<text text-anchor="middle" x="882" y="-134.3" font-family="Times,serif" font-size="14.00">class = Obstructive</text>
</g>
<!-- 13&#45;&gt;14 -->
<g id="edge14" class="edge">
<title>13&#45;&gt;14</title>
<path fill="none" stroke="black" d="M941.16,-252.97C933.22,-241.69 924.74,-229.66 916.75,-218.32"/>
<polygon fill="black" stroke="black" points="919.38,-215.98 910.76,-209.82 913.66,-220.01 919.38,-215.98"/>
</g>
<!-- 15 -->
<g id="node16" class="node">
<title>15</title>
<polygon fill="none" stroke="black" points="1167,-217 979,-217 979,-119 1167,-119 1167,-217"/>
<text text-anchor="middle" x="1073" y="-201.8" font-family="Times,serif" font-size="14.00">node #15</text>
<text text-anchor="middle" x="1073" y="-186.8" font-family="Times,serif" font-size="14.00">FEV1PostVal &lt;= 2.04</text>
<text text-anchor="middle" x="1073" y="-171.8" font-family="Times,serif" font-size="14.00">gini = 0.061</text>
<text text-anchor="middle" x="1073" y="-156.8" font-family="Times,serif" font-size="14.00">samples = 75</text>
<text text-anchor="middle" x="1073" y="-141.8" font-family="Times,serif" font-size="14.00">value = [117.591, 3.85]</text>
<text text-anchor="middle" x="1073" y="-126.8" font-family="Times,serif" font-size="14.00">class = Non&#45;obstructive</text>
</g>
<!-- 13&#45;&gt;15 -->
<g id="edge15" class="edge">
<title>13&#45;&gt;15</title>
<path fill="none" stroke="black" d="M1010.66,-252.97C1017.28,-244.05 1024.25,-234.66 1031.04,-225.52"/>
<polygon fill="black" stroke="black" points="1034.05,-227.33 1037.2,-217.21 1028.43,-223.16 1034.05,-227.33"/>
</g>
<!-- 16 -->
<g id="node17" class="node">
<title>16</title>
<polygon fill="none" stroke="black" points="985,-83 791,-83 791,0 985,0 985,-83"/>
<text text-anchor="middle" x="888" y="-67.8" font-family="Times,serif" font-size="14.00">node #16</text>
<text text-anchor="middle" x="888" y="-52.8" font-family="Times,serif" font-size="14.00">gini = 0.047</text>
<text text-anchor="middle" x="888" y="-37.8" font-family="Times,serif" font-size="14.00">samples = 74</text>
<text text-anchor="middle" x="888" y="-22.8" font-family="Times,serif" font-size="14.00">value = [117.591, 2.887]</text>
<text text-anchor="middle" x="888" y="-7.8" font-family="Times,serif" font-size="14.00">class = Non&#45;obstructive</text>
</g>
<!-- 15&#45;&gt;16 -->
<g id="edge16" class="edge">
<title>15&#45;&gt;16</title>
<path fill="none" stroke="black" d="M1001.47,-118.87C986.77,-108.97 971.32,-98.57 956.72,-88.74"/>
<polygon fill="black" stroke="black" points="958.48,-85.71 948.23,-83.03 954.57,-91.52 958.48,-85.71"/>
</g>
<!-- 17 -->
<g id="node18" class="node">
<title>17</title>
<polygon fill="none" stroke="black" points="1161,-83 1003,-83 1003,0 1161,0 1161,-83"/>
<text text-anchor="middle" x="1082" y="-67.8" font-family="Times,serif" font-size="14.00">node #17</text>
<text text-anchor="middle" x="1082" y="-52.8" font-family="Times,serif" font-size="14.00">gini = 0.0</text>
<text text-anchor="middle" x="1082" y="-37.8" font-family="Times,serif" font-size="14.00">samples = 1</text>
<text text-anchor="middle" x="1082" y="-22.8" font-family="Times,serif" font-size="14.00">value = [0.0, 0.962]</text>
<text text-anchor="middle" x="1082" y="-7.8" font-family="Times,serif" font-size="14.00">class = Obstructive</text>
</g>
<!-- 15&#45;&gt;17 -->
<g id="edge17" class="edge">
<title>15&#45;&gt;17</title>
<path fill="none" stroke="black" d="M1076.48,-118.87C1077.08,-110.5 1077.72,-101.77 1078.33,-93.33"/>
<polygon fill="black" stroke="black" points="1081.83,-93.46 1079.06,-83.23 1074.84,-92.95 1081.83,-93.46"/>
</g>
<!-- 19 -->
<g id="node20" class="node">
<title>19</title>
<polygon fill="none" stroke="black" points="1372.5,-217 1187.5,-217 1187.5,-119 1372.5,-119 1372.5,-217"/>
<text text-anchor="middle" x="1280" y="-201.8" font-family="Times,serif" font-size="14.00">node #19</text>
<text text-anchor="middle" x="1280" y="-186.8" font-family="Times,serif" font-size="14.00">FEFPreVal &lt;= 1.585</text>
<text text-anchor="middle" x="1280" y="-171.8" font-family="Times,serif" font-size="14.00">gini = 0.21</text>
<text text-anchor="middle" x="1280" y="-156.8" font-family="Times,serif" font-size="14.00">samples = 28</text>
<text text-anchor="middle" x="1280" y="-141.8" font-family="Times,serif" font-size="14.00">value = [6.244, 46.197]</text>
<text text-anchor="middle" x="1280" y="-126.8" font-family="Times,serif" font-size="14.00">class = Obstructive</text>
</g>
<!-- 18&#45;&gt;19 -->
<g id="edge19" class="edge">
<title>18&#45;&gt;19</title>
<path fill="none" stroke="black" d="M1280,-252.97C1280,-244.69 1280,-236 1280,-227.48"/>
<polygon fill="black" stroke="black" points="1283.5,-227.21 1280,-217.21 1276.5,-227.21 1283.5,-227.21"/>
</g>
<!-- 22 -->
<g id="node23" class="node">
<title>22</title>
<polygon fill="none" stroke="black" points="1766,-217 1578,-217 1578,-119 1766,-119 1766,-217"/>
<text text-anchor="middle" x="1672" y="-201.8" font-family="Times,serif" font-size="14.00">node #22</text>
<text text-anchor="middle" x="1672" y="-186.8" font-family="Times,serif" font-size="14.00">FEV1PreVal &lt;= 2.725</text>
<text text-anchor="middle" x="1672" y="-171.8" font-family="Times,serif" font-size="14.00">gini = 0.495</text>
<text text-anchor="middle" x="1672" y="-156.8" font-family="Times,serif" font-size="14.00">samples = 44</text>
<text text-anchor="middle" x="1672" y="-141.8" font-family="Times,serif" font-size="14.00">value = [34.341, 27.91]</text>
<text text-anchor="middle" x="1672" y="-126.8" font-family="Times,serif" font-size="14.00">class = Non&#45;obstructive</text>
</g>
<!-- 18&#45;&gt;22 -->
<g id="edge22" class="edge">
<title>18&#45;&gt;22</title>
<path fill="none" stroke="black" d="M1377.15,-268.29C1435.14,-248.76 1508.77,-223.97 1567.94,-204.04"/>
<polygon fill="black" stroke="black" points="1569.33,-207.27 1577.69,-200.76 1567.09,-200.63 1569.33,-207.27"/>
</g>
<!-- 20 -->
<g id="node21" class="node">
<title>20</title>
<polygon fill="none" stroke="black" points="1363.5,-83 1178.5,-83 1178.5,0 1363.5,0 1363.5,-83"/>
<text text-anchor="middle" x="1271" y="-67.8" font-family="Times,serif" font-size="14.00">node #20</text>
<text text-anchor="middle" x="1271" y="-52.8" font-family="Times,serif" font-size="14.00">gini = 0.054</text>
<text text-anchor="middle" x="1271" y="-37.8" font-family="Times,serif" font-size="14.00">samples = 19</text>
<text text-anchor="middle" x="1271" y="-22.8" font-family="Times,serif" font-size="14.00">value = [1.041, 36.572]</text>
<text text-anchor="middle" x="1271" y="-7.8" font-family="Times,serif" font-size="14.00">class = Obstructive</text>
</g>
<!-- 19&#45;&gt;20 -->
<g id="edge20" class="edge">
<title>19&#45;&gt;20</title>
<path fill="none" stroke="black" d="M1276.52,-118.87C1275.92,-110.5 1275.28,-101.77 1274.67,-93.33"/>
<polygon fill="black" stroke="black" points="1278.16,-92.95 1273.94,-83.23 1271.17,-93.46 1278.16,-92.95"/>
</g>
<!-- 21 -->
<g id="node22" class="node">
<title>21</title>
<polygon fill="none" stroke="black" points="1557,-83 1381,-83 1381,0 1557,0 1557,-83"/>
<text text-anchor="middle" x="1469" y="-67.8" font-family="Times,serif" font-size="14.00">node #21</text>
<text text-anchor="middle" x="1469" y="-52.8" font-family="Times,serif" font-size="14.00">gini = 0.456</text>
<text text-anchor="middle" x="1469" y="-37.8" font-family="Times,serif" font-size="14.00">samples = 9</text>
<text text-anchor="middle" x="1469" y="-22.8" font-family="Times,serif" font-size="14.00">value = [5.203, 9.624]</text>
<text text-anchor="middle" x="1469" y="-7.8" font-family="Times,serif" font-size="14.00">class = Obstructive</text>
</g>
<!-- 19&#45;&gt;21 -->
<g id="edge21" class="edge">
<title>19&#45;&gt;21</title>
<path fill="none" stroke="black" d="M1353.07,-118.87C1368.09,-108.97 1383.88,-98.57 1398.8,-88.74"/>
<polygon fill="black" stroke="black" points="1401.04,-91.46 1407.47,-83.03 1397.19,-85.61 1401.04,-91.46"/>
</g>
<!-- 23 -->
<g id="node24" class="node">
<title>23</title>
<polygon fill="none" stroke="black" points="1769,-83 1575,-83 1575,0 1769,0 1769,-83"/>
<text text-anchor="middle" x="1672" y="-67.8" font-family="Times,serif" font-size="14.00">node #23</text>
<text text-anchor="middle" x="1672" y="-52.8" font-family="Times,serif" font-size="14.00">gini = 0.455</text>
<text text-anchor="middle" x="1672" y="-37.8" font-family="Times,serif" font-size="14.00">samples = 35</text>
<text text-anchor="middle" x="1672" y="-22.8" font-family="Times,serif" font-size="14.00">value = [32.259, 17.324]</text>
<text text-anchor="middle" x="1672" y="-7.8" font-family="Times,serif" font-size="14.00">class = Non&#45;obstructive</text>
</g>
<!-- 22&#45;&gt;23 -->
<g id="edge23" class="edge">
<title>22&#45;&gt;23</title>
<path fill="none" stroke="black" d="M1672,-118.87C1672,-110.5 1672,-101.77 1672,-93.33"/>
<polygon fill="black" stroke="black" points="1675.5,-93.23 1672,-83.23 1668.5,-93.23 1675.5,-93.23"/>
</g>
<!-- 24 -->
<g id="node25" class="node">
<title>24</title>
<polygon fill="none" stroke="black" points="1971.5,-83 1786.5,-83 1786.5,0 1971.5,0 1971.5,-83"/>
<text text-anchor="middle" x="1879" y="-67.8" font-family="Times,serif" font-size="14.00">node #24</text>
<text text-anchor="middle" x="1879" y="-52.8" font-family="Times,serif" font-size="14.00">gini = 0.275</text>
<text text-anchor="middle" x="1879" y="-37.8" font-family="Times,serif" font-size="14.00">samples = 9</text>
<text text-anchor="middle" x="1879" y="-22.8" font-family="Times,serif" font-size="14.00">value = [2.081, 10.587]</text>
<text text-anchor="middle" x="1879" y="-7.8" font-family="Times,serif" font-size="14.00">class = Obstructive</text>
</g>
<!-- 22&#45;&gt;24 -->
<g id="edge24" class="edge">
<title>22&#45;&gt;24</title>
<path fill="none" stroke="black" d="M1752.03,-118.87C1768.79,-108.78 1786.42,-98.18 1803.03,-88.19"/>
<polygon fill="black" stroke="black" points="1804.84,-91.19 1811.61,-83.03 1801.24,-85.19 1804.84,-91.19"/>
</g>
</g>
</svg>
