<?xml version="1.0" encoding="UTF-8" standalone="no"?>
<!DOCTYPE svg PUBLIC "-//W3C//DTD SVG 1.1//EN"
 "http://www.w3.org/Graphics/SVG/1.1/DTD/svg11.dtd">
<!-- Generated by graphviz version 2.43.0 (0)
 -->
<!-- Title: Tree Pages: 1 -->
<svg width="2776pt" height="627pt"
 viewBox="0.00 0.00 2775.50 627.00" xmlns="http://www.w3.org/2000/svg" xmlns:xlink="http://www.w3.org/1999/xlink">
<g id="graph0" class="graph" transform="scale(1 1) rotate(0) translate(4 623)">
<title>Tree</title>
<polygon fill="white" stroke="transparent" points="-4,4 -4,-623 2771.5,-623 2771.5,4 -4,4"/>
<!-- 0 -->
<g id="node1" class="node">
<title>0</title>
<polygon fill="none" stroke="black" points="1553,-619 1362,-619 1362,-521 1553,-521 1553,-619"/>
<text text-anchor="middle" x="1457.5" y="-603.8" font-family="Times,serif" font-size="14.00">node #0</text>
<text text-anchor="middle" x="1457.5" y="-588.8" font-family="Times,serif" font-size="14.00">FEFPrePercent &lt;= 42.0</text>
<text text-anchor="middle" x="1457.5" y="-573.8" font-family="Times,serif" font-size="14.00">gini = 0.5</text>
<text text-anchor="middle" x="1457.5" y="-558.8" font-family="Times,serif" font-size="14.00">samples = 213</text>
<text text-anchor="middle" x="1457.5" y="-543.8" font-family="Times,serif" font-size="14.00">value = [166.5, 166.5]</text>
<text text-anchor="middle" x="1457.5" y="-528.8" font-family="Times,serif" font-size="14.00">class = Non&#45;obstructive</text>
</g>
<!-- 1 -->
<g id="node2" class="node">
<title>1</title>
<polygon fill="none" stroke="black" points="1260.5,-485 1066.5,-485 1066.5,-387 1260.5,-387 1260.5,-485"/>
<text text-anchor="middle" x="1163.5" y="-469.8" font-family="Times,serif" font-size="14.00">node #1</text>
<text text-anchor="middle" x="1163.5" y="-454.8" font-family="Times,serif" font-size="14.00">FVCPostVal &lt;= 1.69</text>
<text text-anchor="middle" x="1163.5" y="-439.8" font-family="Times,serif" font-size="14.00">gini = 0.26</text>
<text text-anchor="middle" x="1163.5" y="-424.8" font-family="Times,serif" font-size="14.00">samples = 77</text>
<text text-anchor="middle" x="1163.5" y="-409.8" font-family="Times,serif" font-size="14.00">value = [18.054, 99.701]</text>
<text text-anchor="middle" x="1163.5" y="-394.8" font-family="Times,serif" font-size="14.00">class = Obstructive</text>
</g>
<!-- 0&#45;&gt;1 -->
<g id="edge1" class="edge">
<title>0&#45;&gt;1</title>
<path fill="none" stroke="black" d="M1361.64,-525.96C1332.33,-512.8 1299.92,-498.25 1269.96,-484.8"/>
<polygon fill="black" stroke="black" points="1271.3,-481.56 1260.74,-480.66 1268.43,-487.95 1271.3,-481.56"/>
<text text-anchor="middle" x="1269.63" y="-500.33" font-family="Times,serif" font-size="14.00">True</text>
</g>
<!-- 16 -->
<g id="node17" class="node">
<title>16</title>
<polygon fill="none" stroke="black" points="1903,-485 1700,-485 1700,-387 1903,-387 1903,-485"/>
<text text-anchor="middle" x="1801.5" y="-469.8" font-family="Times,serif" font-size="14.00">node #16</text>
<text text-anchor="middle" x="1801.5" y="-454.8" font-family="Times,serif" font-size="14.00">FEV1PostVal &lt;= 1.965</text>
<text text-anchor="middle" x="1801.5" y="-439.8" font-family="Times,serif" font-size="14.00">gini = 0.428</text>
<text text-anchor="middle" x="1801.5" y="-424.8" font-family="Times,serif" font-size="14.00">samples = 136</text>
<text text-anchor="middle" x="1801.5" y="-409.8" font-family="Times,serif" font-size="14.00">value = [148.446, 66.799]</text>
<text text-anchor="middle" x="1801.5" y="-394.8" font-family="Times,serif" font-size="14.00">class = Non&#45;obstructive</text>
</g>
<!-- 0&#45;&gt;16 -->
<g id="edge16" class="edge">
<title>0&#45;&gt;16</title>
<path fill="none" stroke="black" d="M1553.32,-532.23C1595.92,-515.89 1646.32,-496.54 1690.55,-479.58"/>
<polygon fill="black" stroke="black" points="1691.8,-482.84 1699.88,-475.99 1689.29,-476.31 1691.8,-482.84"/>
<text text-anchor="middle" x="1689.71" y="-495.13" font-family="Times,serif" font-size="14.00">False</text>
</g>
<!-- 2 -->
<g id="node3" class="node">
<title>2</title>
<polygon fill="none" stroke="black" points="686,-351 501,-351 501,-253 686,-253 686,-351"/>
<text text-anchor="middle" x="593.5" y="-335.8" font-family="Times,serif" font-size="14.00">node #2</text>
<text text-anchor="middle" x="593.5" y="-320.8" font-family="Times,serif" font-size="14.00">FEFPreVal &lt;= 0.73</text>
<text text-anchor="middle" x="593.5" y="-305.8" font-family="Times,serif" font-size="14.00">gini = 0.423</text>
<text text-anchor="middle" x="593.5" y="-290.8" font-family="Times,serif" font-size="14.00">samples = 26</text>
<text text-anchor="middle" x="593.5" y="-275.8" font-family="Times,serif" font-size="14.00">value = [13.039, 29.91]</text>
<text text-anchor="middle" x="593.5" y="-260.8" font-family="Times,serif" font-size="14.00">class = Obstructive</text>
</g>
<!-- 1&#45;&gt;2 -->
<g id="edge2" class="edge">
<title>1&#45;&gt;2</title>
<path fill="none" stroke="black" d="M1066.48,-412.53C963.5,-388.69 801.41,-351.15 696.29,-326.8"/>
<polygon fill="black" stroke="black" points="696.83,-323.34 686.3,-324.49 695.25,-330.16 696.83,-323.34"/>
</g>
<!-- 9 -->
<g id="node10" class="node">
<title>9</title>
<polygon fill="none" stroke="black" points="1262,-351 1065,-351 1065,-253 1262,-253 1262,-351"/>
<text text-anchor="middle" x="1163.5" y="-335.8" font-family="Times,serif" font-size="14.00">node #9</text>
<text text-anchor="middle" x="1163.5" y="-320.8" font-family="Times,serif" font-size="14.00">FVCPostPercent &lt;= 60.5</text>
<text text-anchor="middle" x="1163.5" y="-305.8" font-family="Times,serif" font-size="14.00">gini = 0.125</text>
<text text-anchor="middle" x="1163.5" y="-290.8" font-family="Times,serif" font-size="14.00">samples = 51</text>
<text text-anchor="middle" x="1163.5" y="-275.8" font-family="Times,serif" font-size="14.00">value = [5.015, 69.79]</text>
<text text-anchor="middle" x="1163.5" y="-260.8" font-family="Times,serif" font-size="14.00">class = Obstructive</text>
</g>
<!-- 1&#45;&gt;9 -->
<g id="edge9" class="edge">
<title>1&#45;&gt;9</title>
<path fill="none" stroke="black" d="M1163.5,-386.97C1163.5,-378.69 1163.5,-370 1163.5,-361.48"/>
<polygon fill="black" stroke="black" points="1167,-361.21 1163.5,-351.21 1160,-361.21 1167,-361.21"/>
</g>
<!-- 3 -->
<g id="node4" class="node">
<title>3</title>
<polygon fill="none" stroke="black" points="390,-217 205,-217 205,-119 390,-119 390,-217"/>
<text text-anchor="middle" x="297.5" y="-201.8" font-family="Times,serif" font-size="14.00">node #3</text>
<text text-anchor="middle" x="297.5" y="-186.8" font-family="Times,serif" font-size="14.00">FEV1PreVal &lt;= 0.96</text>
<text text-anchor="middle" x="297.5" y="-171.8" font-family="Times,serif" font-size="14.00">gini = 0.176</text>
<text text-anchor="middle" x="297.5" y="-156.8" font-family="Times,serif" font-size="14.00">samples = 19</text>
<text text-anchor="middle" x="297.5" y="-141.8" font-family="Times,serif" font-size="14.00">value = [3.009, 27.916]</text>
<text text-anchor="middle" x="297.5" y="-126.8" font-family="Times,serif" font-size="14.00">class = Obstructive</text>
</g>
<!-- 2&#45;&gt;3 -->
<g id="edge3" class="edge">
<title>2&#45;&gt;3</title>
<path fill="none" stroke="black" d="M500.66,-259.6C468.42,-245.22 432.11,-229.03 399.2,-214.35"/>
<polygon fill="black" stroke="black" points="400.57,-211.13 390.01,-210.26 397.72,-217.53 400.57,-211.13"/>
</g>
<!-- 6 -->
<g id="node7" class="node">
<title>6</title>
<polygon fill="none" stroke="black" points="692,-217 495,-217 495,-119 692,-119 692,-217"/>
<text text-anchor="middle" x="593.5" y="-201.8" font-family="Times,serif" font-size="14.00">node #6</text>
<text text-anchor="middle" x="593.5" y="-186.8" font-family="Times,serif" font-size="14.00">FVCPostPercent &lt;= 37.5</text>
<text text-anchor="middle" x="593.5" y="-171.8" font-family="Times,serif" font-size="14.00">gini = 0.277</text>
<text text-anchor="middle" x="593.5" y="-156.8" font-family="Times,serif" font-size="14.00">samples = 7</text>
<text text-anchor="middle" x="593.5" y="-141.8" font-family="Times,serif" font-size="14.00">value = [10.03, 1.994]</text>
<text text-anchor="middle" x="593.5" y="-126.8" font-family="Times,serif" font-size="14.00">class = Non&#45;obstructive</text>
</g>
<!-- 2&#45;&gt;6 -->
<g id="edge6" class="edge">
<title>2&#45;&gt;6</title>
<path fill="none" stroke="black" d="M593.5,-252.97C593.5,-244.69 593.5,-236 593.5,-227.48"/>
<polygon fill="black" stroke="black" points="597,-227.21 593.5,-217.21 590,-227.21 597,-227.21"/>
</g>
<!-- 4 -->
<g id="node5" class="node">
<title>4</title>
<polygon fill="none" stroke="black" points="185,-83 0,-83 0,0 185,0 185,-83"/>
<text text-anchor="middle" x="92.5" y="-67.8" font-family="Times,serif" font-size="14.00">node #4</text>
<text text-anchor="middle" x="92.5" y="-52.8" font-family="Times,serif" font-size="14.00">gini = 0.067</text>
<text text-anchor="middle" x="92.5" y="-37.8" font-family="Times,serif" font-size="14.00">samples = 18</text>
<text text-anchor="middle" x="92.5" y="-22.8" font-family="Times,serif" font-size="14.00">value = [1.003, 27.916]</text>
<text text-anchor="middle" x="92.5" y="-7.8" font-family="Times,serif" font-size="14.00">class = Obstructive</text>
</g>
<!-- 3&#45;&gt;4 -->
<g id="edge4" class="edge">
<title>3&#45;&gt;4</title>
<path fill="none" stroke="black" d="M218.24,-118.87C201.8,-108.88 184.51,-98.38 168.19,-88.47"/>
<polygon fill="black" stroke="black" points="169.6,-85.23 159.24,-83.03 165.97,-91.21 169.6,-85.23"/>
</g>
<!-- 5 -->
<g id="node6" class="node">
<title>5</title>
<polygon fill="none" stroke="black" points="391.5,-83 203.5,-83 203.5,0 391.5,0 391.5,-83"/>
<text text-anchor="middle" x="297.5" y="-67.8" font-family="Times,serif" font-size="14.00">node #5</text>
<text text-anchor="middle" x="297.5" y="-52.8" font-family="Times,serif" font-size="14.00">gini = &#45;0.0</text>
<text text-anchor="middle" x="297.5" y="-37.8" font-family="Times,serif" font-size="14.00">samples = 1</text>
<text text-anchor="middle" x="297.5" y="-22.8" font-family="Times,serif" font-size="14.00">value = [2.006, 0.0]</text>
<text text-anchor="middle" x="297.5" y="-7.8" font-family="Times,serif" font-size="14.00">class = Non&#45;obstructive</text>
</g>
<!-- 3&#45;&gt;5 -->
<g id="edge5" class="edge">
<title>3&#45;&gt;5</title>
<path fill="none" stroke="black" d="M297.5,-118.87C297.5,-110.5 297.5,-101.77 297.5,-93.33"/>
<polygon fill="black" stroke="black" points="301,-93.23 297.5,-83.23 294,-93.23 301,-93.23"/>
</g>
<!-- 7 -->
<g id="node8" class="node">
<title>7</title>
<polygon fill="none" stroke="black" points="567.5,-83 409.5,-83 409.5,0 567.5,0 567.5,-83"/>
<text text-anchor="middle" x="488.5" y="-67.8" font-family="Times,serif" font-size="14.00">node #7</text>
<text text-anchor="middle" x="488.5" y="-52.8" font-family="Times,serif" font-size="14.00">gini = 0.0</text>
<text text-anchor="middle" x="488.5" y="-37.8" font-family="Times,serif" font-size="14.00">samples = 2</text>
<text text-anchor="middle" x="488.5" y="-22.8" font-family="Times,serif" font-size="14.00">value = [0.0, 1.994]</text>
<text text-anchor="middle" x="488.5" y="-7.8" font-family="Times,serif" font-size="14.00">class = Obstructive</text>
</g>
<!-- 6&#45;&gt;7 -->
<g id="edge7" class="edge">
<title>6&#45;&gt;7</title>
<path fill="none" stroke="black" d="M552.9,-118.87C545.23,-109.76 537.19,-100.23 529.5,-91.12"/>
<polygon fill="black" stroke="black" points="531.97,-88.62 522.85,-83.23 526.62,-93.13 531.97,-88.62"/>
</g>
<!-- 8 -->
<g id="node9" class="node">
<title>8</title>
<polygon fill="none" stroke="black" points="773.5,-83 585.5,-83 585.5,0 773.5,0 773.5,-83"/>
<text text-anchor="middle" x="679.5" y="-67.8" font-family="Times,serif" font-size="14.00">node #8</text>
<text text-anchor="middle" x="679.5" y="-52.8" font-family="Times,serif" font-size="14.00">gini = 0.0</text>
<text text-anchor="middle" x="679.5" y="-37.8" font-family="Times,serif" font-size="14.00">samples = 5</text>
<text text-anchor="middle" x="679.5" y="-22.8" font-family="Times,serif" font-size="14.00">value = [10.03, 0.0]</text>
<text text-anchor="middle" x="679.5" y="-7.8" font-family="Times,serif" font-size="14.00">class = Non&#45;obstructive</text>
</g>
<!-- 6&#45;&gt;8 -->
<g id="edge8" class="edge">
<title>6&#45;&gt;8</title>
<path fill="none" stroke="black" d="M626.75,-118.87C632.91,-109.95 639.35,-100.62 645.54,-91.67"/>
<polygon fill="black" stroke="black" points="648.56,-93.45 651.36,-83.23 642.8,-89.47 648.56,-93.45"/>
</g>
<!-- 10 -->
<g id="node11" class="node">
<title>10</title>
<polygon fill="none" stroke="black" points="1158,-217 961,-217 961,-119 1158,-119 1158,-217"/>
<text text-anchor="middle" x="1059.5" y="-201.8" font-family="Times,serif" font-size="14.00">node #10</text>
<text text-anchor="middle" x="1059.5" y="-186.8" font-family="Times,serif" font-size="14.00">FEFPostPercent &lt;= 22.0</text>
<text text-anchor="middle" x="1059.5" y="-171.8" font-family="Times,serif" font-size="14.00">gini = 0.445</text>
<text text-anchor="middle" x="1059.5" y="-156.8" font-family="Times,serif" font-size="14.00">samples = 9</text>
<text text-anchor="middle" x="1059.5" y="-141.8" font-family="Times,serif" font-size="14.00">value = [4.012, 7.976]</text>
<text text-anchor="middle" x="1059.5" y="-126.8" font-family="Times,serif" font-size="14.00">class = Obstructive</text>
</g>
<!-- 9&#45;&gt;10 -->
<g id="edge10" class="edge">
<title>9&#45;&gt;10</title>
<path fill="none" stroke="black" d="M1125.66,-252.97C1118.56,-243.96 1111.08,-234.47 1103.81,-225.24"/>
<polygon fill="black" stroke="black" points="1106.42,-222.9 1097.49,-217.21 1100.93,-227.23 1106.42,-222.9"/>
</g>
<!-- 13 -->
<g id="node14" class="node">
<title>13</title>
<polygon fill="none" stroke="black" points="1361,-217 1176,-217 1176,-119 1361,-119 1361,-217"/>
<text text-anchor="middle" x="1268.5" y="-201.8" font-family="Times,serif" font-size="14.00">node #13</text>
<text text-anchor="middle" x="1268.5" y="-186.8" font-family="Times,serif" font-size="14.00">FVCPostVal &lt;= 2.145</text>
<text text-anchor="middle" x="1268.5" y="-171.8" font-family="Times,serif" font-size="14.00">gini = 0.031</text>
<text text-anchor="middle" x="1268.5" y="-156.8" font-family="Times,serif" font-size="14.00">samples = 42</text>
<text text-anchor="middle" x="1268.5" y="-141.8" font-family="Times,serif" font-size="14.00">value = [1.003, 61.814]</text>
<text text-anchor="middle" x="1268.5" y="-126.8" font-family="Times,serif" font-size="14.00">class = Obstructive</text>
</g>
<!-- 9&#45;&gt;13 -->
<g id="edge13" class="edge">
<title>9&#45;&gt;13</title>
<path fill="none" stroke="black" d="M1201.7,-252.97C1208.87,-243.96 1216.42,-234.47 1223.76,-225.24"/>
<polygon fill="black" stroke="black" points="1226.66,-227.22 1230.15,-217.21 1221.18,-222.86 1226.66,-227.22"/>
</g>
<!-- 11 -->
<g id="node12" class="node">
<title>11</title>
<polygon fill="none" stroke="black" points="949.5,-83 791.5,-83 791.5,0 949.5,0 949.5,-83"/>
<text text-anchor="middle" x="870.5" y="-67.8" font-family="Times,serif" font-size="14.00">node #11</text>
<text text-anchor="middle" x="870.5" y="-52.8" font-family="Times,serif" font-size="14.00">gini = 0.0</text>
<text text-anchor="middle" x="870.5" y="-37.8" font-family="Times,serif" font-size="14.00">samples = 5</text>
<text text-anchor="middle" x="870.5" y="-22.8" font-family="Times,serif" font-size="14.00">value = [0.0, 7.976]</text>
<text text-anchor="middle" x="870.5" y="-7.8" font-family="Times,serif" font-size="14.00">class = Obstructive</text>
</g>
<!-- 10&#45;&gt;11 -->
<g id="edge11" class="edge">
<title>10&#45;&gt;11</title>
<path fill="none" stroke="black" d="M986.43,-118.87C971.41,-108.97 955.62,-98.57 940.7,-88.74"/>
<polygon fill="black" stroke="black" points="942.31,-85.61 932.03,-83.03 938.46,-91.46 942.31,-85.61"/>
</g>
<!-- 12 -->
<g id="node13" class="node">
<title>12</title>
<polygon fill="none" stroke="black" points="1155.5,-83 967.5,-83 967.5,0 1155.5,0 1155.5,-83"/>
<text text-anchor="middle" x="1061.5" y="-67.8" font-family="Times,serif" font-size="14.00">node #12</text>
<text text-anchor="middle" x="1061.5" y="-52.8" font-family="Times,serif" font-size="14.00">gini = &#45;0.0</text>
<text text-anchor="middle" x="1061.5" y="-37.8" font-family="Times,serif" font-size="14.00">samples = 4</text>
<text text-anchor="middle" x="1061.5" y="-22.8" font-family="Times,serif" font-size="14.00">value = [4.012, 0.0]</text>
<text text-anchor="middle" x="1061.5" y="-7.8" font-family="Times,serif" font-size="14.00">class = Non&#45;obstructive</text>
</g>
<!-- 10&#45;&gt;12 -->
<g id="edge12" class="edge">
<title>10&#45;&gt;12</title>
<path fill="none" stroke="black" d="M1060.27,-118.87C1060.41,-110.5 1060.55,-101.77 1060.68,-93.33"/>
<polygon fill="black" stroke="black" points="1064.18,-93.29 1060.85,-83.23 1057.19,-93.17 1064.18,-93.29"/>
</g>
<!-- 14 -->
<g id="node15" class="node">
<title>14</title>
<polygon fill="none" stroke="black" points="1359,-83 1174,-83 1174,0 1359,0 1359,-83"/>
<text text-anchor="middle" x="1266.5" y="-67.8" font-family="Times,serif" font-size="14.00">node #14</text>
<text text-anchor="middle" x="1266.5" y="-52.8" font-family="Times,serif" font-size="14.00">gini = 0.1</text>
<text text-anchor="middle" x="1266.5" y="-37.8" font-family="Times,serif" font-size="14.00">samples = 13</text>
<text text-anchor="middle" x="1266.5" y="-22.8" font-family="Times,serif" font-size="14.00">value = [1.003, 17.946]</text>
<text text-anchor="middle" x="1266.5" y="-7.8" font-family="Times,serif" font-size="14.00">class = Obstructive</text>
</g>
<!-- 13&#45;&gt;14 -->
<g id="edge14" class="edge">
<title>13&#45;&gt;14</title>
<path fill="none" stroke="black" d="M1267.73,-118.87C1267.59,-110.5 1267.45,-101.77 1267.32,-93.33"/>
<polygon fill="black" stroke="black" points="1270.81,-93.17 1267.15,-83.23 1263.82,-93.29 1270.81,-93.17"/>
</g>
<!-- 15 -->
<g id="node16" class="node">
<title>15</title>
<polygon fill="none" stroke="black" points="1544,-83 1377,-83 1377,0 1544,0 1544,-83"/>
<text text-anchor="middle" x="1460.5" y="-67.8" font-family="Times,serif" font-size="14.00">node #15</text>
<text text-anchor="middle" x="1460.5" y="-52.8" font-family="Times,serif" font-size="14.00">gini = 0.0</text>
<text text-anchor="middle" x="1460.5" y="-37.8" font-family="Times,serif" font-size="14.00">samples = 29</text>
<text text-anchor="middle" x="1460.5" y="-22.8" font-family="Times,serif" font-size="14.00">value = [0.0, 43.868]</text>
<text text-anchor="middle" x="1460.5" y="-7.8" font-family="Times,serif" font-size="14.00">class = Obstructive</text>
</g>
<!-- 13&#45;&gt;15 -->
<g id="edge15" class="edge">
<title>13&#45;&gt;15</title>
<path fill="none" stroke="black" d="M1342.73,-118.87C1357.99,-108.97 1374.03,-98.57 1389.18,-88.74"/>
<polygon fill="black" stroke="black" points="1391.51,-91.41 1397.99,-83.03 1387.7,-85.54 1391.51,-91.41"/>
</g>
<!-- 17 -->
<g id="node18" class="node">
<title>17</title>
<polygon fill="none" stroke="black" points="1903,-351 1700,-351 1700,-253 1903,-253 1903,-351"/>
<text text-anchor="middle" x="1801.5" y="-335.8" font-family="Times,serif" font-size="14.00">node #17</text>
<text text-anchor="middle" x="1801.5" y="-320.8" font-family="Times,serif" font-size="14.00">FEFPrePercent &lt;= 90.5</text>
<text text-anchor="middle" x="1801.5" y="-305.8" font-family="Times,serif" font-size="14.00">gini = 0.192</text>
<text text-anchor="middle" x="1801.5" y="-290.8" font-family="Times,serif" font-size="14.00">samples = 74</text>
<text text-anchor="middle" x="1801.5" y="-275.8" font-family="Times,serif" font-size="14.00">value = [107.322, 12.961]</text>
<text text-anchor="middle" x="1801.5" y="-260.8" font-family="Times,serif" font-size="14.00">class = Non&#45;obstructive</text>
</g>
<!-- 16&#45;&gt;17 -->
<g id="edge17" class="edge">
<title>16&#45;&gt;17</title>
<path fill="none" stroke="black" d="M1801.5,-386.97C1801.5,-378.69 1801.5,-370 1801.5,-361.48"/>
<polygon fill="black" stroke="black" points="1805,-361.21 1801.5,-351.21 1798,-361.21 1805,-361.21"/>
</g>
<!-- 22 -->
<g id="node23" class="node">
<title>22</title>
<polygon fill="none" stroke="black" points="2261.5,-351 2067.5,-351 2067.5,-253 2261.5,-253 2261.5,-351"/>
<text text-anchor="middle" x="2164.5" y="-335.8" font-family="Times,serif" font-size="14.00">node #22</text>
<text text-anchor="middle" x="2164.5" y="-320.8" font-family="Times,serif" font-size="14.00">FEV1PostVal &lt;= 2.715</text>
<text text-anchor="middle" x="2164.5" y="-305.8" font-family="Times,serif" font-size="14.00">gini = 0.491</text>
<text text-anchor="middle" x="2164.5" y="-290.8" font-family="Times,serif" font-size="14.00">samples = 62</text>
<text text-anchor="middle" x="2164.5" y="-275.8" font-family="Times,serif" font-size="14.00">value = [41.123, 53.838]</text>
<text text-anchor="middle" x="2164.5" y="-260.8" font-family="Times,serif" font-size="14.00">class = Obstructive</text>
</g>
<!-- 16&#45;&gt;22 -->
<g id="edge22" class="edge">
<title>16&#45;&gt;22</title>
<path fill="none" stroke="black" d="M1903.1,-398.06C1951.27,-380.54 2008.83,-359.61 2057.66,-341.85"/>
<polygon fill="black" stroke="black" points="2059.1,-345.05 2067.3,-338.34 2056.71,-338.47 2059.1,-345.05"/>
</g>
<!-- 18 -->
<g id="node19" class="node">
<title>18</title>
<polygon fill="none" stroke="black" points="1794.5,-217 1600.5,-217 1600.5,-119 1794.5,-119 1794.5,-217"/>
<text text-anchor="middle" x="1697.5" y="-201.8" font-family="Times,serif" font-size="14.00">node #18</text>
<text text-anchor="middle" x="1697.5" y="-186.8" font-family="Times,serif" font-size="14.00">FEFPreVal &lt;= 1.145</text>
<text text-anchor="middle" x="1697.5" y="-171.8" font-family="Times,serif" font-size="14.00">gini = 0.308</text>
<text text-anchor="middle" x="1697.5" y="-156.8" font-family="Times,serif" font-size="14.00">samples = 43</text>
<text text-anchor="middle" x="1697.5" y="-141.8" font-family="Times,serif" font-size="14.00">value = [55.166, 12.961]</text>
<text text-anchor="middle" x="1697.5" y="-126.8" font-family="Times,serif" font-size="14.00">class = Non&#45;obstructive</text>
</g>
<!-- 17&#45;&gt;18 -->
<g id="edge18" class="edge">
<title>17&#45;&gt;18</title>
<path fill="none" stroke="black" d="M1763.66,-252.97C1756.56,-243.96 1749.08,-234.47 1741.81,-225.24"/>
<polygon fill="black" stroke="black" points="1744.42,-222.9 1735.49,-217.21 1738.93,-227.23 1744.42,-222.9"/>
</g>
<!-- 21 -->
<g id="node22" class="node">
<title>21</title>
<polygon fill="none" stroke="black" points="2000.5,-209.5 1812.5,-209.5 1812.5,-126.5 2000.5,-126.5 2000.5,-209.5"/>
<text text-anchor="middle" x="1906.5" y="-194.3" font-family="Times,serif" font-size="14.00">node #21</text>
<text text-anchor="middle" x="1906.5" y="-179.3" font-family="Times,serif" font-size="14.00">gini = 0.0</text>
<text text-anchor="middle" x="1906.5" y="-164.3" font-family="Times,serif" font-size="14.00">samples = 31</text>
<text text-anchor="middle" x="1906.5" y="-149.3" font-family="Times,serif" font-size="14.00">value = [52.157, 0.0]</text>
<text text-anchor="middle" x="1906.5" y="-134.3" font-family="Times,serif" font-size="14.00">class = Non&#45;obstructive</text>
</g>
<!-- 17&#45;&gt;21 -->
<g id="edge21" class="edge">
<title>17&#45;&gt;21</title>
<path fill="none" stroke="black" d="M1839.7,-252.97C1848.85,-241.47 1858.63,-229.18 1867.8,-217.66"/>
<polygon fill="black" stroke="black" points="1870.55,-219.82 1874.03,-209.82 1865.07,-215.46 1870.55,-219.82"/>
</g>
<!-- 19 -->
<g id="node20" class="node">
<title>19</title>
<polygon fill="none" stroke="black" points="1737.5,-83 1561.5,-83 1561.5,0 1737.5,0 1737.5,-83"/>
<text text-anchor="middle" x="1649.5" y="-67.8" font-family="Times,serif" font-size="14.00">node #19</text>
<text text-anchor="middle" x="1649.5" y="-52.8" font-family="Times,serif" font-size="14.00">gini = 0.376</text>
<text text-anchor="middle" x="1649.5" y="-37.8" font-family="Times,serif" font-size="14.00">samples = 5</text>
<text text-anchor="middle" x="1649.5" y="-22.8" font-family="Times,serif" font-size="14.00">value = [2.006, 5.982]</text>
<text text-anchor="middle" x="1649.5" y="-7.8" font-family="Times,serif" font-size="14.00">class = Obstructive</text>
</g>
<!-- 18&#45;&gt;19 -->
<g id="edge19" class="edge">
<title>18&#45;&gt;19</title>
<path fill="none" stroke="black" d="M1678.94,-118.87C1675.65,-110.31 1672.2,-101.39 1668.88,-92.78"/>
<polygon fill="black" stroke="black" points="1672.07,-91.3 1665.2,-83.23 1665.54,-93.82 1672.07,-91.3"/>
</g>
<!-- 20 -->
<g id="node21" class="node">
<title>20</title>
<polygon fill="none" stroke="black" points="1943.5,-83 1755.5,-83 1755.5,0 1943.5,0 1943.5,-83"/>
<text text-anchor="middle" x="1849.5" y="-67.8" font-family="Times,serif" font-size="14.00">node #20</text>
<text text-anchor="middle" x="1849.5" y="-52.8" font-family="Times,serif" font-size="14.00">gini = 0.205</text>
<text text-anchor="middle" x="1849.5" y="-37.8" font-family="Times,serif" font-size="14.00">samples = 38</text>
<text text-anchor="middle" x="1849.5" y="-22.8" font-family="Times,serif" font-size="14.00">value = [53.16, 6.979]</text>
<text text-anchor="middle" x="1849.5" y="-7.8" font-family="Times,serif" font-size="14.00">class = Non&#45;obstructive</text>
</g>
<!-- 18&#45;&gt;20 -->
<g id="edge20" class="edge">
<title>18&#45;&gt;20</title>
<path fill="none" stroke="black" d="M1756.27,-118.87C1767.94,-109.3 1780.19,-99.27 1791.83,-89.74"/>
<polygon fill="black" stroke="black" points="1794.25,-92.28 1799.77,-83.23 1789.82,-86.86 1794.25,-92.28"/>
</g>
<!-- 23 -->
<g id="node24" class="node">
<title>23</title>
<polygon fill="none" stroke="black" points="2261.5,-217 2067.5,-217 2067.5,-119 2261.5,-119 2261.5,-217"/>
<text text-anchor="middle" x="2164.5" y="-201.8" font-family="Times,serif" font-size="14.00">node #23</text>
<text text-anchor="middle" x="2164.5" y="-186.8" font-family="Times,serif" font-size="14.00">FEFPrePercent &lt;= 56.0</text>
<text text-anchor="middle" x="2164.5" y="-171.8" font-family="Times,serif" font-size="14.00">gini = 0.489</text>
<text text-anchor="middle" x="2164.5" y="-156.8" font-family="Times,serif" font-size="14.00">samples = 40</text>
<text text-anchor="middle" x="2164.5" y="-141.8" font-family="Times,serif" font-size="14.00">value = [35.105, 25.922]</text>
<text text-anchor="middle" x="2164.5" y="-126.8" font-family="Times,serif" font-size="14.00">class = Non&#45;obstructive</text>
</g>
<!-- 22&#45;&gt;23 -->
<g id="edge23" class="edge">
<title>22&#45;&gt;23</title>
<path fill="none" stroke="black" d="M2164.5,-252.97C2164.5,-244.69 2164.5,-236 2164.5,-227.48"/>
<polygon fill="black" stroke="black" points="2168,-227.21 2164.5,-217.21 2161,-227.21 2168,-227.21"/>
</g>
<!-- 26 -->
<g id="node27" class="node">
<title>26</title>
<polygon fill="none" stroke="black" points="2561,-217 2376,-217 2376,-119 2561,-119 2561,-217"/>
<text text-anchor="middle" x="2468.5" y="-201.8" font-family="Times,serif" font-size="14.00">node #26</text>
<text text-anchor="middle" x="2468.5" y="-186.8" font-family="Times,serif" font-size="14.00">FEV1PreVal &lt;= 3.37</text>
<text text-anchor="middle" x="2468.5" y="-171.8" font-family="Times,serif" font-size="14.00">gini = 0.292</text>
<text text-anchor="middle" x="2468.5" y="-156.8" font-family="Times,serif" font-size="14.00">samples = 22</text>
<text text-anchor="middle" x="2468.5" y="-141.8" font-family="Times,serif" font-size="14.00">value = [6.018, 27.916]</text>
<text text-anchor="middle" x="2468.5" y="-126.8" font-family="Times,serif" font-size="14.00">class = Obstructive</text>
</g>
<!-- 22&#45;&gt;26 -->
<g id="edge26" class="edge">
<title>22&#45;&gt;26</title>
<path fill="none" stroke="black" d="M2261.52,-258.87C2294.96,-244.35 2332.49,-228.06 2366.33,-213.37"/>
<polygon fill="black" stroke="black" points="2367.98,-216.46 2375.76,-209.27 2365.2,-210.04 2367.98,-216.46"/>
</g>
<!-- 24 -->
<g id="node25" class="node">
<title>24</title>
<polygon fill="none" stroke="black" points="2147,-83 1962,-83 1962,0 2147,0 2147,-83"/>
<text text-anchor="middle" x="2054.5" y="-67.8" font-family="Times,serif" font-size="14.00">node #24</text>
<text text-anchor="middle" x="2054.5" y="-52.8" font-family="Times,serif" font-size="14.00">gini = 0.334</text>
<text text-anchor="middle" x="2054.5" y="-37.8" font-family="Times,serif" font-size="14.00">samples = 13</text>
<text text-anchor="middle" x="2054.5" y="-22.8" font-family="Times,serif" font-size="14.00">value = [4.012, 14.955]</text>
<text text-anchor="middle" x="2054.5" y="-7.8" font-family="Times,serif" font-size="14.00">class = Obstructive</text>
</g>
<!-- 23&#45;&gt;24 -->
<g id="edge24" class="edge">
<title>23&#45;&gt;24</title>
<path fill="none" stroke="black" d="M2121.97,-118.87C2113.85,-109.67 2105.34,-100.04 2097.21,-90.84"/>
<polygon fill="black" stroke="black" points="2099.73,-88.41 2090.49,-83.23 2094.49,-93.04 2099.73,-88.41"/>
</g>
<!-- 25 -->
<g id="node26" class="node">
<title>25</title>
<polygon fill="none" stroke="black" points="2358.5,-83 2164.5,-83 2164.5,0 2358.5,0 2358.5,-83"/>
<text text-anchor="middle" x="2261.5" y="-67.8" font-family="Times,serif" font-size="14.00">node #25</text>
<text text-anchor="middle" x="2261.5" y="-52.8" font-family="Times,serif" font-size="14.00">gini = 0.386</text>
<text text-anchor="middle" x="2261.5" y="-37.8" font-family="Times,serif" font-size="14.00">samples = 27</text>
<text text-anchor="middle" x="2261.5" y="-22.8" font-family="Times,serif" font-size="14.00">value = [31.093, 10.967]</text>
<text text-anchor="middle" x="2261.5" y="-7.8" font-family="Times,serif" font-size="14.00">class = Non&#45;obstructive</text>
</g>
<!-- 23&#45;&gt;25 -->
<g id="edge25" class="edge">
<title>23&#45;&gt;25</title>
<path fill="none" stroke="black" d="M2202,-118.87C2209.02,-109.85 2216.37,-100.43 2223.41,-91.39"/>
<polygon fill="black" stroke="black" points="2226.38,-93.27 2229.77,-83.23 2220.86,-88.97 2226.38,-93.27"/>
</g>
<!-- 27 -->
<g id="node28" class="node">
<title>27</title>
<polygon fill="none" stroke="black" points="2561,-83 2376,-83 2376,0 2561,0 2561,-83"/>
<text text-anchor="middle" x="2468.5" y="-67.8" font-family="Times,serif" font-size="14.00">node #27</text>
<text text-anchor="middle" x="2468.5" y="-52.8" font-family="Times,serif" font-size="14.00">gini = 0.226</text>
<text text-anchor="middle" x="2468.5" y="-37.8" font-family="Times,serif" font-size="14.00">samples = 19</text>
<text text-anchor="middle" x="2468.5" y="-22.8" font-family="Times,serif" font-size="14.00">value = [4.012, 26.919]</text>
<text text-anchor="middle" x="2468.5" y="-7.8" font-family="Times,serif" font-size="14.00">class = Obstructive</text>
</g>
<!-- 26&#45;&gt;27 -->
<g id="edge27" class="edge">
<title>26&#45;&gt;27</title>
<path fill="none" stroke="black" d="M2468.5,-118.87C2468.5,-110.5 2468.5,-101.77 2468.5,-93.33"/>
<polygon fill="black" stroke="black" points="2472,-93.23 2468.5,-83.23 2465,-93.23 2472,-93.23"/>
</g>
<!-- 28 -->
<g id="node29" class="node">
<title>28</title>
<polygon fill="none" stroke="black" points="2767.5,-83 2579.5,-83 2579.5,0 2767.5,0 2767.5,-83"/>
<text text-anchor="middle" x="2673.5" y="-67.8" font-family="Times,serif" font-size="14.00">node #28</text>
<text text-anchor="middle" x="2673.5" y="-52.8" font-family="Times,serif" font-size="14.00">gini = 0.444</text>
<text text-anchor="middle" x="2673.5" y="-37.8" font-family="Times,serif" font-size="14.00">samples = 3</text>
<text text-anchor="middle" x="2673.5" y="-22.8" font-family="Times,serif" font-size="14.00">value = [2.006, 0.997]</text>
<text text-anchor="middle" x="2673.5" y="-7.8" font-family="Times,serif" font-size="14.00">class = Non&#45;obstructive</text>
</g>
<!-- 26&#45;&gt;28 -->
<g id="edge28" class="edge">
<title>26&#45;&gt;28</title>
<path fill="none" stroke="black" d="M2547.76,-118.87C2564.2,-108.88 2581.49,-98.38 2597.81,-88.47"/>
<polygon fill="black" stroke="black" points="2600.03,-91.21 2606.76,-83.03 2596.4,-85.23 2600.03,-91.21"/>
</g>
</g>
</svg>
