<?xml version="1.0" encoding="UTF-8" standalone="no"?>
<!DOCTYPE svg PUBLIC "-//W3C//DTD SVG 1.1//EN"
 "http://www.w3.org/Graphics/SVG/1.1/DTD/svg11.dtd">
<!-- Generated by graphviz version 2.43.0 (0)
 -->
<!-- Title: Tree Pages: 1 -->
<svg width="2376pt" height="627pt"
 viewBox="0.00 0.00 2375.50 627.00" xmlns="http://www.w3.org/2000/svg" xmlns:xlink="http://www.w3.org/1999/xlink">
<g id="graph0" class="graph" transform="scale(1 1) rotate(0) translate(4 623)">
<title>Tree</title>
<polygon fill="white" stroke="transparent" points="-4,4 -4,-623 2371.5,-623 2371.5,4 -4,4"/>
<!-- 0 -->
<g id="node1" class="node">
<title>0</title>
<polygon fill="none" stroke="black" points="1110.5,-619 913.5,-619 913.5,-521 1110.5,-521 1110.5,-619"/>
<text text-anchor="middle" x="1012" y="-603.8" font-family="Times,serif" font-size="14.00">node #0</text>
<text text-anchor="middle" x="1012" y="-588.8" font-family="Times,serif" font-size="14.00">FEFPostPercent &lt;= 30.5</text>
<text text-anchor="middle" x="1012" y="-573.8" font-family="Times,serif" font-size="14.00">gini = 0.5</text>
<text text-anchor="middle" x="1012" y="-558.8" font-family="Times,serif" font-size="14.00">samples = 222</text>
<text text-anchor="middle" x="1012" y="-543.8" font-family="Times,serif" font-size="14.00">value = [166.5, 166.5]</text>
<text text-anchor="middle" x="1012" y="-528.8" font-family="Times,serif" font-size="14.00">class = Non&#45;obstructive</text>
</g>
<!-- 1 -->
<g id="node2" class="node">
<title>1</title>
<polygon fill="none" stroke="black" points="997.5,-485 812.5,-485 812.5,-387 997.5,-387 997.5,-485"/>
<text text-anchor="middle" x="905" y="-469.8" font-family="Times,serif" font-size="14.00">node #1</text>
<text text-anchor="middle" x="905" y="-454.8" font-family="Times,serif" font-size="14.00">FEFPostVal &lt;= 1.13</text>
<text text-anchor="middle" x="905" y="-439.8" font-family="Times,serif" font-size="14.00">gini = 0.152</text>
<text text-anchor="middle" x="905" y="-424.8" font-family="Times,serif" font-size="14.00">samples = 58</text>
<text text-anchor="middle" x="905" y="-409.8" font-family="Times,serif" font-size="14.00">value = [7.021, 77.766]</text>
<text text-anchor="middle" x="905" y="-394.8" font-family="Times,serif" font-size="14.00">class = Obstructive</text>
</g>
<!-- 0&#45;&gt;1 -->
<g id="edge1" class="edge">
<title>0&#45;&gt;1</title>
<path fill="none" stroke="black" d="M973.07,-520.97C965.77,-511.96 958.07,-502.47 950.59,-493.24"/>
<polygon fill="black" stroke="black" points="953.1,-490.78 944.08,-485.21 947.66,-495.19 953.1,-490.78"/>
<text text-anchor="middle" x="941.48" y="-506.38" font-family="Times,serif" font-size="14.00">True</text>
</g>
<!-- 10 -->
<g id="node11" class="node">
<title>10</title>
<polygon fill="none" stroke="black" points="1268.5,-485 1065.5,-485 1065.5,-387 1268.5,-387 1268.5,-485"/>
<text text-anchor="middle" x="1167" y="-469.8" font-family="Times,serif" font-size="14.00">node #10</text>
<text text-anchor="middle" x="1167" y="-454.8" font-family="Times,serif" font-size="14.00">FVCPostVal &lt;= 2.155</text>
<text text-anchor="middle" x="1167" y="-439.8" font-family="Times,serif" font-size="14.00">gini = 0.459</text>
<text text-anchor="middle" x="1167" y="-424.8" font-family="Times,serif" font-size="14.00">samples = 164</text>
<text text-anchor="middle" x="1167" y="-409.8" font-family="Times,serif" font-size="14.00">value = [159.479, 88.734]</text>
<text text-anchor="middle" x="1167" y="-394.8" font-family="Times,serif" font-size="14.00">class = Non&#45;obstructive</text>
</g>
<!-- 0&#45;&gt;10 -->
<g id="edge10" class="edge">
<title>0&#45;&gt;10</title>
<path fill="none" stroke="black" d="M1068.4,-520.97C1079.51,-511.51 1091.25,-501.51 1102.6,-491.84"/>
<polygon fill="black" stroke="black" points="1105.04,-494.36 1110.39,-485.21 1100.5,-489.03 1105.04,-494.36"/>
<text text-anchor="middle" x="1108.39" y="-506.43" font-family="Times,serif" font-size="14.00">False</text>
</g>
<!-- 2 -->
<g id="node3" class="node">
<title>2</title>
<polygon fill="none" stroke="black" points="676.5,-351 479.5,-351 479.5,-253 676.5,-253 676.5,-351"/>
<text text-anchor="middle" x="578" y="-335.8" font-family="Times,serif" font-size="14.00">node #2</text>
<text text-anchor="middle" x="578" y="-320.8" font-family="Times,serif" font-size="14.00">FVCPostPercent &lt;= 38.5</text>
<text text-anchor="middle" x="578" y="-305.8" font-family="Times,serif" font-size="14.00">gini = 0.133</text>
<text text-anchor="middle" x="578" y="-290.8" font-family="Times,serif" font-size="14.00">samples = 57</text>
<text text-anchor="middle" x="578" y="-275.8" font-family="Times,serif" font-size="14.00">value = [6.018, 77.766]</text>
<text text-anchor="middle" x="578" y="-260.8" font-family="Times,serif" font-size="14.00">class = Obstructive</text>
</g>
<!-- 1&#45;&gt;2 -->
<g id="edge2" class="edge">
<title>1&#45;&gt;2</title>
<path fill="none" stroke="black" d="M812.17,-397.53C772.93,-381.69 726.97,-363.13 686.2,-346.68"/>
<polygon fill="black" stroke="black" points="687.36,-343.37 676.78,-342.87 684.74,-349.86 687.36,-343.37"/>
</g>
<!-- 9 -->
<g id="node10" class="node">
<title>9</title>
<polygon fill="none" stroke="black" points="999,-343.5 811,-343.5 811,-260.5 999,-260.5 999,-343.5"/>
<text text-anchor="middle" x="905" y="-328.3" font-family="Times,serif" font-size="14.00">node #9</text>
<text text-anchor="middle" x="905" y="-313.3" font-family="Times,serif" font-size="14.00">gini = 0.0</text>
<text text-anchor="middle" x="905" y="-298.3" font-family="Times,serif" font-size="14.00">samples = 1</text>
<text text-anchor="middle" x="905" y="-283.3" font-family="Times,serif" font-size="14.00">value = [1.003, 0.0]</text>
<text text-anchor="middle" x="905" y="-268.3" font-family="Times,serif" font-size="14.00">class = Non&#45;obstructive</text>
</g>
<!-- 1&#45;&gt;9 -->
<g id="edge9" class="edge">
<title>1&#45;&gt;9</title>
<path fill="none" stroke="black" d="M905,-386.97C905,-376.25 905,-364.84 905,-353.99"/>
<polygon fill="black" stroke="black" points="908.5,-353.82 905,-343.82 901.5,-353.82 908.5,-353.82"/>
</g>
<!-- 3 -->
<g id="node4" class="node">
<title>3</title>
<polygon fill="none" stroke="black" points="379,-217 191,-217 191,-119 379,-119 379,-217"/>
<text text-anchor="middle" x="285" y="-201.8" font-family="Times,serif" font-size="14.00">node #3</text>
<text text-anchor="middle" x="285" y="-186.8" font-family="Times,serif" font-size="14.00">FEFPreVal &lt;= 0.87</text>
<text text-anchor="middle" x="285" y="-171.8" font-family="Times,serif" font-size="14.00">gini = 0.444</text>
<text text-anchor="middle" x="285" y="-156.8" font-family="Times,serif" font-size="14.00">samples = 3</text>
<text text-anchor="middle" x="285" y="-141.8" font-family="Times,serif" font-size="14.00">value = [2.006, 0.997]</text>
<text text-anchor="middle" x="285" y="-126.8" font-family="Times,serif" font-size="14.00">class = Non&#45;obstructive</text>
</g>
<!-- 2&#45;&gt;3 -->
<g id="edge3" class="edge">
<title>2&#45;&gt;3</title>
<path fill="none" stroke="black" d="M479.21,-256.49C450.13,-243.39 418.23,-229.02 388.84,-215.78"/>
<polygon fill="black" stroke="black" points="389.95,-212.44 379.39,-211.53 387.07,-218.82 389.95,-212.44"/>
</g>
<!-- 6 -->
<g id="node7" class="node">
<title>6</title>
<polygon fill="none" stroke="black" points="678,-217 478,-217 478,-119 678,-119 678,-217"/>
<text text-anchor="middle" x="578" y="-201.8" font-family="Times,serif" font-size="14.00">node #6</text>
<text text-anchor="middle" x="578" y="-186.8" font-family="Times,serif" font-size="14.00">FEV1PrePercent &lt;= 40.5</text>
<text text-anchor="middle" x="578" y="-171.8" font-family="Times,serif" font-size="14.00">gini = 0.094</text>
<text text-anchor="middle" x="578" y="-156.8" font-family="Times,serif" font-size="14.00">samples = 54</text>
<text text-anchor="middle" x="578" y="-141.8" font-family="Times,serif" font-size="14.00">value = [4.012, 76.769]</text>
<text text-anchor="middle" x="578" y="-126.8" font-family="Times,serif" font-size="14.00">class = Obstructive</text>
</g>
<!-- 2&#45;&gt;6 -->
<g id="edge6" class="edge">
<title>2&#45;&gt;6</title>
<path fill="none" stroke="black" d="M578,-252.97C578,-244.69 578,-236 578,-227.48"/>
<polygon fill="black" stroke="black" points="581.5,-227.21 578,-217.21 574.5,-227.21 581.5,-227.21"/>
</g>
<!-- 4 -->
<g id="node5" class="node">
<title>4</title>
<polygon fill="none" stroke="black" points="188,-83 0,-83 0,0 188,0 188,-83"/>
<text text-anchor="middle" x="94" y="-67.8" font-family="Times,serif" font-size="14.00">node #4</text>
<text text-anchor="middle" x="94" y="-52.8" font-family="Times,serif" font-size="14.00">gini = 0.0</text>
<text text-anchor="middle" x="94" y="-37.8" font-family="Times,serif" font-size="14.00">samples = 2</text>
<text text-anchor="middle" x="94" y="-22.8" font-family="Times,serif" font-size="14.00">value = [2.006, 0.0]</text>
<text text-anchor="middle" x="94" y="-7.8" font-family="Times,serif" font-size="14.00">class = Non&#45;obstructive</text>
</g>
<!-- 3&#45;&gt;4 -->
<g id="edge4" class="edge">
<title>3&#45;&gt;4</title>
<path fill="none" stroke="black" d="M211.15,-118.87C195.97,-108.97 180.02,-98.57 164.95,-88.74"/>
<polygon fill="black" stroke="black" points="166.47,-85.56 156.18,-83.03 162.65,-91.43 166.47,-85.56"/>
</g>
<!-- 5 -->
<g id="node6" class="node">
<title>5</title>
<polygon fill="none" stroke="black" points="364,-83 206,-83 206,0 364,0 364,-83"/>
<text text-anchor="middle" x="285" y="-67.8" font-family="Times,serif" font-size="14.00">node #5</text>
<text text-anchor="middle" x="285" y="-52.8" font-family="Times,serif" font-size="14.00">gini = 0.0</text>
<text text-anchor="middle" x="285" y="-37.8" font-family="Times,serif" font-size="14.00">samples = 1</text>
<text text-anchor="middle" x="285" y="-22.8" font-family="Times,serif" font-size="14.00">value = [0.0, 0.997]</text>
<text text-anchor="middle" x="285" y="-7.8" font-family="Times,serif" font-size="14.00">class = Obstructive</text>
</g>
<!-- 3&#45;&gt;5 -->
<g id="edge5" class="edge">
<title>3&#45;&gt;5</title>
<path fill="none" stroke="black" d="M285,-118.87C285,-110.5 285,-101.77 285,-93.33"/>
<polygon fill="black" stroke="black" points="288.5,-93.23 285,-83.23 281.5,-93.23 288.5,-93.23"/>
</g>
<!-- 7 -->
<g id="node8" class="node">
<title>7</title>
<polygon fill="none" stroke="black" points="548.5,-83 381.5,-83 381.5,0 548.5,0 548.5,-83"/>
<text text-anchor="middle" x="465" y="-67.8" font-family="Times,serif" font-size="14.00">node #7</text>
<text text-anchor="middle" x="465" y="-52.8" font-family="Times,serif" font-size="14.00">gini = &#45;0.0</text>
<text text-anchor="middle" x="465" y="-37.8" font-family="Times,serif" font-size="14.00">samples = 30</text>
<text text-anchor="middle" x="465" y="-22.8" font-family="Times,serif" font-size="14.00">value = [0.0, 48.853]</text>
<text text-anchor="middle" x="465" y="-7.8" font-family="Times,serif" font-size="14.00">class = Obstructive</text>
</g>
<!-- 6&#45;&gt;7 -->
<g id="edge7" class="edge">
<title>6&#45;&gt;7</title>
<path fill="none" stroke="black" d="M534.31,-118.87C525.97,-109.67 517.23,-100.04 508.88,-90.84"/>
<polygon fill="black" stroke="black" points="511.28,-88.28 501.97,-83.23 506.1,-92.99 511.28,-88.28"/>
</g>
<!-- 8 -->
<g id="node9" class="node">
<title>8</title>
<polygon fill="none" stroke="black" points="751.5,-83 566.5,-83 566.5,0 751.5,0 751.5,-83"/>
<text text-anchor="middle" x="659" y="-67.8" font-family="Times,serif" font-size="14.00">node #8</text>
<text text-anchor="middle" x="659" y="-52.8" font-family="Times,serif" font-size="14.00">gini = 0.22</text>
<text text-anchor="middle" x="659" y="-37.8" font-family="Times,serif" font-size="14.00">samples = 24</text>
<text text-anchor="middle" x="659" y="-22.8" font-family="Times,serif" font-size="14.00">value = [4.012, 27.916]</text>
<text text-anchor="middle" x="659" y="-7.8" font-family="Times,serif" font-size="14.00">class = Obstructive</text>
</g>
<!-- 6&#45;&gt;8 -->
<g id="edge8" class="edge">
<title>6&#45;&gt;8</title>
<path fill="none" stroke="black" d="M609.32,-118.87C615.12,-109.95 621.19,-100.62 627.01,-91.67"/>
<polygon fill="black" stroke="black" points="629.98,-93.52 632.5,-83.23 624.11,-89.7 629.98,-93.52"/>
</g>
<!-- 11 -->
<g id="node12" class="node">
<title>11</title>
<polygon fill="none" stroke="black" points="1268.5,-351 1065.5,-351 1065.5,-253 1268.5,-253 1268.5,-351"/>
<text text-anchor="middle" x="1167" y="-335.8" font-family="Times,serif" font-size="14.00">node #11</text>
<text text-anchor="middle" x="1167" y="-320.8" font-family="Times,serif" font-size="14.00">FEFPostVal &lt;= 1.11</text>
<text text-anchor="middle" x="1167" y="-305.8" font-family="Times,serif" font-size="14.00">gini = 0.273</text>
<text text-anchor="middle" x="1167" y="-290.8" font-family="Times,serif" font-size="14.00">samples = 86</text>
<text text-anchor="middle" x="1167" y="-275.8" font-family="Times,serif" font-size="14.00">value = [107.322, 20.937]</text>
<text text-anchor="middle" x="1167" y="-260.8" font-family="Times,serif" font-size="14.00">class = Non&#45;obstructive</text>
</g>
<!-- 10&#45;&gt;11 -->
<g id="edge11" class="edge">
<title>10&#45;&gt;11</title>
<path fill="none" stroke="black" d="M1167,-386.97C1167,-378.69 1167,-370 1167,-361.48"/>
<polygon fill="black" stroke="black" points="1170.5,-361.21 1167,-351.21 1163.5,-361.21 1170.5,-361.21"/>
</g>
<!-- 18 -->
<g id="node19" class="node">
<title>18</title>
<polygon fill="none" stroke="black" points="1852,-351 1658,-351 1658,-253 1852,-253 1852,-351"/>
<text text-anchor="middle" x="1755" y="-335.8" font-family="Times,serif" font-size="14.00">node #18</text>
<text text-anchor="middle" x="1755" y="-320.8" font-family="Times,serif" font-size="14.00">FEFPostVal &lt;= 2.86</text>
<text text-anchor="middle" x="1755" y="-305.8" font-family="Times,serif" font-size="14.00">gini = 0.492</text>
<text text-anchor="middle" x="1755" y="-290.8" font-family="Times,serif" font-size="14.00">samples = 78</text>
<text text-anchor="middle" x="1755" y="-275.8" font-family="Times,serif" font-size="14.00">value = [52.157, 67.796]</text>
<text text-anchor="middle" x="1755" y="-260.8" font-family="Times,serif" font-size="14.00">class = Obstructive</text>
</g>
<!-- 10&#45;&gt;18 -->
<g id="edge18" class="edge">
<title>10&#45;&gt;18</title>
<path fill="none" stroke="black" d="M1268.75,-412.16C1374.73,-388.37 1540.07,-351.25 1647.98,-327.03"/>
<polygon fill="black" stroke="black" points="1648.92,-330.4 1657.91,-324.8 1647.39,-323.57 1648.92,-330.4"/>
</g>
<!-- 12 -->
<g id="node13" class="node">
<title>12</title>
<polygon fill="none" stroke="black" points="1140.5,-217 943.5,-217 943.5,-119 1140.5,-119 1140.5,-217"/>
<text text-anchor="middle" x="1042" y="-201.8" font-family="Times,serif" font-size="14.00">node #12</text>
<text text-anchor="middle" x="1042" y="-186.8" font-family="Times,serif" font-size="14.00">FEFPostPercent &lt;= 33.5</text>
<text text-anchor="middle" x="1042" y="-171.8" font-family="Times,serif" font-size="14.00">gini = 0.299</text>
<text text-anchor="middle" x="1042" y="-156.8" font-family="Times,serif" font-size="14.00">samples = 6</text>
<text text-anchor="middle" x="1042" y="-141.8" font-family="Times,serif" font-size="14.00">value = [2.006, 8.973]</text>
<text text-anchor="middle" x="1042" y="-126.8" font-family="Times,serif" font-size="14.00">class = Obstructive</text>
</g>
<!-- 11&#45;&gt;12 -->
<g id="edge12" class="edge">
<title>11&#45;&gt;12</title>
<path fill="none" stroke="black" d="M1121.52,-252.97C1112.82,-243.78 1103.64,-234.09 1094.73,-224.68"/>
<polygon fill="black" stroke="black" points="1097.07,-222.07 1087.66,-217.21 1091.99,-226.88 1097.07,-222.07"/>
</g>
<!-- 15 -->
<g id="node16" class="node">
<title>15</title>
<polygon fill="none" stroke="black" points="1365,-217 1159,-217 1159,-119 1365,-119 1365,-217"/>
<text text-anchor="middle" x="1262" y="-201.8" font-family="Times,serif" font-size="14.00">node #15</text>
<text text-anchor="middle" x="1262" y="-186.8" font-family="Times,serif" font-size="14.00">FEV1PostPercent &lt;= 96.0</text>
<text text-anchor="middle" x="1262" y="-171.8" font-family="Times,serif" font-size="14.00">gini = 0.183</text>
<text text-anchor="middle" x="1262" y="-156.8" font-family="Times,serif" font-size="14.00">samples = 80</text>
<text text-anchor="middle" x="1262" y="-141.8" font-family="Times,serif" font-size="14.00">value = [105.316, 11.964]</text>
<text text-anchor="middle" x="1262" y="-126.8" font-family="Times,serif" font-size="14.00">class = Non&#45;obstructive</text>
</g>
<!-- 11&#45;&gt;15 -->
<g id="edge15" class="edge">
<title>11&#45;&gt;15</title>
<path fill="none" stroke="black" d="M1201.57,-252.97C1207.98,-244.05 1214.74,-234.66 1221.32,-225.52"/>
<polygon fill="black" stroke="black" points="1224.3,-227.37 1227.3,-217.21 1218.62,-223.29 1224.3,-227.37"/>
</g>
<!-- 13 -->
<g id="node14" class="node">
<title>13</title>
<polygon fill="none" stroke="black" points="958,-83 770,-83 770,0 958,0 958,-83"/>
<text text-anchor="middle" x="864" y="-67.8" font-family="Times,serif" font-size="14.00">node #13</text>
<text text-anchor="middle" x="864" y="-52.8" font-family="Times,serif" font-size="14.00">gini = 0.0</text>
<text text-anchor="middle" x="864" y="-37.8" font-family="Times,serif" font-size="14.00">samples = 1</text>
<text text-anchor="middle" x="864" y="-22.8" font-family="Times,serif" font-size="14.00">value = [2.006, 0.0]</text>
<text text-anchor="middle" x="864" y="-7.8" font-family="Times,serif" font-size="14.00">class = Non&#45;obstructive</text>
</g>
<!-- 12&#45;&gt;13 -->
<g id="edge13" class="edge">
<title>12&#45;&gt;13</title>
<path fill="none" stroke="black" d="M973.18,-118.87C959.16,-109.06 944.44,-98.77 930.51,-89.02"/>
<polygon fill="black" stroke="black" points="932.15,-85.9 921.95,-83.03 928.14,-91.63 932.15,-85.9"/>
</g>
<!-- 14 -->
<g id="node15" class="node">
<title>14</title>
<polygon fill="none" stroke="black" points="1134,-83 976,-83 976,0 1134,0 1134,-83"/>
<text text-anchor="middle" x="1055" y="-67.8" font-family="Times,serif" font-size="14.00">node #14</text>
<text text-anchor="middle" x="1055" y="-52.8" font-family="Times,serif" font-size="14.00">gini = 0.0</text>
<text text-anchor="middle" x="1055" y="-37.8" font-family="Times,serif" font-size="14.00">samples = 5</text>
<text text-anchor="middle" x="1055" y="-22.8" font-family="Times,serif" font-size="14.00">value = [0.0, 8.973]</text>
<text text-anchor="middle" x="1055" y="-7.8" font-family="Times,serif" font-size="14.00">class = Obstructive</text>
</g>
<!-- 12&#45;&gt;14 -->
<g id="edge14" class="edge">
<title>12&#45;&gt;14</title>
<path fill="none" stroke="black" d="M1047.03,-118.87C1047.9,-110.5 1048.81,-101.77 1049.69,-93.33"/>
<polygon fill="black" stroke="black" points="1053.19,-93.54 1050.75,-83.23 1046.23,-92.81 1053.19,-93.54"/>
</g>
<!-- 16 -->
<g id="node17" class="node">
<title>16</title>
<polygon fill="none" stroke="black" points="1346,-83 1152,-83 1152,0 1346,0 1346,-83"/>
<text text-anchor="middle" x="1249" y="-67.8" font-family="Times,serif" font-size="14.00">node #16</text>
<text text-anchor="middle" x="1249" y="-52.8" font-family="Times,serif" font-size="14.00">gini = 0.118</text>
<text text-anchor="middle" x="1249" y="-37.8" font-family="Times,serif" font-size="14.00">samples = 77</text>
<text text-anchor="middle" x="1249" y="-22.8" font-family="Times,serif" font-size="14.00">value = [104.313, 6.979]</text>
<text text-anchor="middle" x="1249" y="-7.8" font-family="Times,serif" font-size="14.00">class = Non&#45;obstructive</text>
</g>
<!-- 15&#45;&gt;16 -->
<g id="edge16" class="edge">
<title>15&#45;&gt;16</title>
<path fill="none" stroke="black" d="M1256.97,-118.87C1256.1,-110.5 1255.19,-101.77 1254.31,-93.33"/>
<polygon fill="black" stroke="black" points="1257.77,-92.81 1253.25,-83.23 1250.81,-93.54 1257.77,-92.81"/>
</g>
<!-- 17 -->
<g id="node18" class="node">
<title>17</title>
<polygon fill="none" stroke="black" points="1540,-83 1364,-83 1364,0 1540,0 1540,-83"/>
<text text-anchor="middle" x="1452" y="-67.8" font-family="Times,serif" font-size="14.00">node #17</text>
<text text-anchor="middle" x="1452" y="-52.8" font-family="Times,serif" font-size="14.00">gini = 0.279</text>
<text text-anchor="middle" x="1452" y="-37.8" font-family="Times,serif" font-size="14.00">samples = 3</text>
<text text-anchor="middle" x="1452" y="-22.8" font-family="Times,serif" font-size="14.00">value = [1.003, 4.985]</text>
<text text-anchor="middle" x="1452" y="-7.8" font-family="Times,serif" font-size="14.00">class = Obstructive</text>
</g>
<!-- 15&#45;&gt;17 -->
<g id="edge17" class="edge">
<title>15&#45;&gt;17</title>
<path fill="none" stroke="black" d="M1335.46,-118.87C1350.56,-108.97 1366.43,-98.57 1381.43,-88.74"/>
<polygon fill="black" stroke="black" points="1383.7,-91.44 1390.14,-83.03 1379.86,-85.59 1383.7,-91.44"/>
</g>
<!-- 19 -->
<g id="node20" class="node">
<title>19</title>
<polygon fill="none" stroke="black" points="1852,-217 1658,-217 1658,-119 1852,-119 1852,-217"/>
<text text-anchor="middle" x="1755" y="-201.8" font-family="Times,serif" font-size="14.00">node #19</text>
<text text-anchor="middle" x="1755" y="-186.8" font-family="Times,serif" font-size="14.00">FEFPostVal &lt;= 1.015</text>
<text text-anchor="middle" x="1755" y="-171.8" font-family="Times,serif" font-size="14.00">gini = 0.399</text>
<text text-anchor="middle" x="1755" y="-156.8" font-family="Times,serif" font-size="14.00">samples = 44</text>
<text text-anchor="middle" x="1755" y="-141.8" font-family="Times,serif" font-size="14.00">value = [17.051, 44.865]</text>
<text text-anchor="middle" x="1755" y="-126.8" font-family="Times,serif" font-size="14.00">class = Obstructive</text>
</g>
<!-- 18&#45;&gt;19 -->
<g id="edge19" class="edge">
<title>18&#45;&gt;19</title>
<path fill="none" stroke="black" d="M1755,-252.97C1755,-244.69 1755,-236 1755,-227.48"/>
<polygon fill="black" stroke="black" points="1758.5,-227.21 1755,-217.21 1751.5,-227.21 1758.5,-227.21"/>
</g>
<!-- 22 -->
<g id="node23" class="node">
<title>22</title>
<polygon fill="none" stroke="black" points="2167,-217 1973,-217 1973,-119 2167,-119 2167,-217"/>
<text text-anchor="middle" x="2070" y="-201.8" font-family="Times,serif" font-size="14.00">node #22</text>
<text text-anchor="middle" x="2070" y="-186.8" font-family="Times,serif" font-size="14.00">FVCPrePercent &lt;= 91.5</text>
<text text-anchor="middle" x="2070" y="-171.8" font-family="Times,serif" font-size="14.00">gini = 0.478</text>
<text text-anchor="middle" x="2070" y="-156.8" font-family="Times,serif" font-size="14.00">samples = 34</text>
<text text-anchor="middle" x="2070" y="-141.8" font-family="Times,serif" font-size="14.00">value = [35.105, 22.931]</text>
<text text-anchor="middle" x="2070" y="-126.8" font-family="Times,serif" font-size="14.00">class = Non&#45;obstructive</text>
</g>
<!-- 18&#45;&gt;22 -->
<g id="edge22" class="edge">
<title>18&#45;&gt;22</title>
<path fill="none" stroke="black" d="M1852.08,-260.32C1887.34,-245.54 1927.37,-228.77 1963.41,-213.67"/>
<polygon fill="black" stroke="black" points="1965.1,-216.75 1972.97,-209.66 1962.39,-210.3 1965.1,-216.75"/>
</g>
<!-- 20 -->
<g id="node21" class="node">
<title>20</title>
<polygon fill="none" stroke="black" points="1746,-83 1558,-83 1558,0 1746,0 1746,-83"/>
<text text-anchor="middle" x="1652" y="-67.8" font-family="Times,serif" font-size="14.00">node #20</text>
<text text-anchor="middle" x="1652" y="-52.8" font-family="Times,serif" font-size="14.00">gini = 0.244</text>
<text text-anchor="middle" x="1652" y="-37.8" font-family="Times,serif" font-size="14.00">samples = 3</text>
<text text-anchor="middle" x="1652" y="-22.8" font-family="Times,serif" font-size="14.00">value = [6.018, 0.997]</text>
<text text-anchor="middle" x="1652" y="-7.8" font-family="Times,serif" font-size="14.00">class = Non&#45;obstructive</text>
</g>
<!-- 19&#45;&gt;20 -->
<g id="edge20" class="edge">
<title>19&#45;&gt;20</title>
<path fill="none" stroke="black" d="M1715.18,-118.87C1707.65,-109.76 1699.76,-100.23 1692.22,-91.12"/>
<polygon fill="black" stroke="black" points="1694.77,-88.7 1685.7,-83.23 1689.37,-93.17 1694.77,-88.7"/>
</g>
<!-- 21 -->
<g id="node22" class="node">
<title>21</title>
<polygon fill="none" stroke="black" points="1958,-83 1764,-83 1764,0 1958,0 1958,-83"/>
<text text-anchor="middle" x="1861" y="-67.8" font-family="Times,serif" font-size="14.00">node #21</text>
<text text-anchor="middle" x="1861" y="-52.8" font-family="Times,serif" font-size="14.00">gini = 0.321</text>
<text text-anchor="middle" x="1861" y="-37.8" font-family="Times,serif" font-size="14.00">samples = 41</text>
<text text-anchor="middle" x="1861" y="-22.8" font-family="Times,serif" font-size="14.00">value = [11.033, 43.868]</text>
<text text-anchor="middle" x="1861" y="-7.8" font-family="Times,serif" font-size="14.00">class = Obstructive</text>
</g>
<!-- 19&#45;&gt;21 -->
<g id="edge21" class="edge">
<title>19&#45;&gt;21</title>
<path fill="none" stroke="black" d="M1795.98,-118.87C1803.73,-109.76 1811.84,-100.23 1819.61,-91.12"/>
<polygon fill="black" stroke="black" points="1822.5,-93.11 1826.32,-83.23 1817.17,-88.58 1822.5,-93.11"/>
</g>
<!-- 23 -->
<g id="node24" class="node">
<title>23</title>
<polygon fill="none" stroke="black" points="2164,-83 1976,-83 1976,0 2164,0 2164,-83"/>
<text text-anchor="middle" x="2070" y="-67.8" font-family="Times,serif" font-size="14.00">node #23</text>
<text text-anchor="middle" x="2070" y="-52.8" font-family="Times,serif" font-size="14.00">gini = 0.387</text>
<text text-anchor="middle" x="2070" y="-37.8" font-family="Times,serif" font-size="14.00">samples = 23</text>
<text text-anchor="middle" x="2070" y="-22.8" font-family="Times,serif" font-size="14.00">value = [28.084, 9.97]</text>
<text text-anchor="middle" x="2070" y="-7.8" font-family="Times,serif" font-size="14.00">class = Non&#45;obstructive</text>
</g>
<!-- 22&#45;&gt;23 -->
<g id="edge23" class="edge">
<title>22&#45;&gt;23</title>
<path fill="none" stroke="black" d="M2070,-118.87C2070,-110.5 2070,-101.77 2070,-93.33"/>
<polygon fill="black" stroke="black" points="2073.5,-93.23 2070,-83.23 2066.5,-93.23 2073.5,-93.23"/>
</g>
<!-- 24 -->
<g id="node25" class="node">
<title>24</title>
<polygon fill="none" stroke="black" points="2367.5,-83 2182.5,-83 2182.5,0 2367.5,0 2367.5,-83"/>
<text text-anchor="middle" x="2275" y="-67.8" font-family="Times,serif" font-size="14.00">node #24</text>
<text text-anchor="middle" x="2275" y="-52.8" font-family="Times,serif" font-size="14.00">gini = 0.456</text>
<text text-anchor="middle" x="2275" y="-37.8" font-family="Times,serif" font-size="14.00">samples = 11</text>
<text text-anchor="middle" x="2275" y="-22.8" font-family="Times,serif" font-size="14.00">value = [7.021, 12.961]</text>
<text text-anchor="middle" x="2275" y="-7.8" font-family="Times,serif" font-size="14.00">class = Obstructive</text>
</g>
<!-- 22&#45;&gt;24 -->
<g id="edge24" class="edge">
<title>22&#45;&gt;24</title>
<path fill="none" stroke="black" d="M2149.26,-118.87C2165.7,-108.88 2182.99,-98.38 2199.31,-88.47"/>
<polygon fill="black" stroke="black" points="2201.53,-91.21 2208.26,-83.03 2197.9,-85.23 2201.53,-91.21"/>
</g>
</g>
</svg>
