<?xml version="1.0" encoding="UTF-8" standalone="no"?>
<!DOCTYPE svg PUBLIC "-//W3C//DTD SVG 1.1//EN"
 "http://www.w3.org/Graphics/SVG/1.1/DTD/svg11.dtd">
<!-- Generated by graphviz version 2.43.0 (0)
 -->
<!-- Title: Tree Pages: 1 -->
<svg width="2015pt" height="627pt"
 viewBox="0.00 0.00 2015.00 627.00" xmlns="http://www.w3.org/2000/svg" xmlns:xlink="http://www.w3.org/1999/xlink">
<g id="graph0" class="graph" transform="scale(1 1) rotate(0) translate(4 623)">
<title>Tree</title>
<polygon fill="white" stroke="transparent" points="-4,4 -4,-623 2011,-623 2011,4 -4,4"/>
<!-- 0 -->
<g id="node1" class="node">
<title>0</title>
<polygon fill="none" stroke="black" points="680.5,-619 504.5,-619 504.5,-521 680.5,-521 680.5,-619"/>
<text text-anchor="middle" x="592.5" y="-603.8" font-family="Times,serif" font-size="14.00">node #0</text>
<text text-anchor="middle" x="592.5" y="-588.8" font-family="Times,serif" font-size="14.00">FEFPostVal &lt;= 1.295</text>
<text text-anchor="middle" x="592.5" y="-573.8" font-family="Times,serif" font-size="14.00">gini = 0.5</text>
<text text-anchor="middle" x="592.5" y="-558.8" font-family="Times,serif" font-size="14.00">samples = 207</text>
<text text-anchor="middle" x="592.5" y="-543.8" font-family="Times,serif" font-size="14.00">value = [166.5, 166.5]</text>
<text text-anchor="middle" x="592.5" y="-528.8" font-family="Times,serif" font-size="14.00">class = Obstructive</text>
</g>
<!-- 1 -->
<g id="node2" class="node">
<title>1</title>
<polygon fill="none" stroke="black" points="580.5,-485 386.5,-485 386.5,-387 580.5,-387 580.5,-485"/>
<text text-anchor="middle" x="483.5" y="-469.8" font-family="Times,serif" font-size="14.00">node #1</text>
<text text-anchor="middle" x="483.5" y="-454.8" font-family="Times,serif" font-size="14.00">FVCPostVal &lt;= 0.975</text>
<text text-anchor="middle" x="483.5" y="-439.8" font-family="Times,serif" font-size="14.00">gini = 0.178</text>
<text text-anchor="middle" x="483.5" y="-424.8" font-family="Times,serif" font-size="14.00">samples = 71</text>
<text text-anchor="middle" x="483.5" y="-409.8" font-family="Times,serif" font-size="14.00">value = [10.812, 98.598]</text>
<text text-anchor="middle" x="483.5" y="-394.8" font-family="Times,serif" font-size="14.00">class = Obstructive</text>
</g>
<!-- 0&#45;&gt;1 -->
<g id="edge1" class="edge">
<title>0&#45;&gt;1</title>
<path fill="none" stroke="black" d="M552.84,-520.97C545.33,-511.87 537.41,-502.28 529.71,-492.96"/>
<polygon fill="black" stroke="black" points="532.38,-490.7 523.31,-485.21 526.98,-495.15 532.38,-490.7"/>
<text text-anchor="middle" x="520.94" y="-506.4" font-family="Times,serif" font-size="14.00">True</text>
</g>
<!-- 8 -->
<g id="node9" class="node">
<title>8</title>
<polygon fill="none" stroke="black" points="901,-485 698,-485 698,-387 901,-387 901,-485"/>
<text text-anchor="middle" x="799.5" y="-469.8" font-family="Times,serif" font-size="14.00">node #8</text>
<text text-anchor="middle" x="799.5" y="-454.8" font-family="Times,serif" font-size="14.00">FVCPreVal &lt;= 2.215</text>
<text text-anchor="middle" x="799.5" y="-439.8" font-family="Times,serif" font-size="14.00">gini = 0.423</text>
<text text-anchor="middle" x="799.5" y="-424.8" font-family="Times,serif" font-size="14.00">samples = 136</text>
<text text-anchor="middle" x="799.5" y="-409.8" font-family="Times,serif" font-size="14.00">value = [155.688, 67.902]</text>
<text text-anchor="middle" x="799.5" y="-394.8" font-family="Times,serif" font-size="14.00">class = Non&#45;obstructive</text>
</g>
<!-- 0&#45;&gt;8 -->
<g id="edge8" class="edge">
<title>0&#45;&gt;8</title>
<path fill="none" stroke="black" d="M667.82,-520.97C683.23,-511.14 699.54,-500.74 715.24,-490.73"/>
<polygon fill="black" stroke="black" points="717.34,-493.54 723.89,-485.21 713.58,-487.64 717.34,-493.54"/>
<text text-anchor="middle" x="718.49" y="-505.92" font-family="Times,serif" font-size="14.00">False</text>
</g>
<!-- 2 -->
<g id="node3" class="node">
<title>2</title>
<polygon fill="none" stroke="black" points="366.5,-343.5 178.5,-343.5 178.5,-260.5 366.5,-260.5 366.5,-343.5"/>
<text text-anchor="middle" x="272.5" y="-328.3" font-family="Times,serif" font-size="14.00">node #2</text>
<text text-anchor="middle" x="272.5" y="-313.3" font-family="Times,serif" font-size="14.00">gini = 0.0</text>
<text text-anchor="middle" x="272.5" y="-298.3" font-family="Times,serif" font-size="14.00">samples = 2</text>
<text text-anchor="middle" x="272.5" y="-283.3" font-family="Times,serif" font-size="14.00">value = [4.325, 0.0]</text>
<text text-anchor="middle" x="272.5" y="-268.3" font-family="Times,serif" font-size="14.00">class = Non&#45;obstructive</text>
</g>
<!-- 1&#45;&gt;2 -->
<g id="edge2" class="edge">
<title>1&#45;&gt;2</title>
<path fill="none" stroke="black" d="M406.73,-386.97C386.92,-374.58 365.64,-361.27 346.01,-348.98"/>
<polygon fill="black" stroke="black" points="347.74,-345.94 337.4,-343.6 344.03,-351.87 347.74,-345.94"/>
</g>
<!-- 3 -->
<g id="node4" class="node">
<title>3</title>
<polygon fill="none" stroke="black" points="582,-351 385,-351 385,-253 582,-253 582,-351"/>
<text text-anchor="middle" x="483.5" y="-335.8" font-family="Times,serif" font-size="14.00">node #3</text>
<text text-anchor="middle" x="483.5" y="-320.8" font-family="Times,serif" font-size="14.00">FEFPostPercent &lt;= 64.5</text>
<text text-anchor="middle" x="483.5" y="-305.8" font-family="Times,serif" font-size="14.00">gini = 0.116</text>
<text text-anchor="middle" x="483.5" y="-290.8" font-family="Times,serif" font-size="14.00">samples = 69</text>
<text text-anchor="middle" x="483.5" y="-275.8" font-family="Times,serif" font-size="14.00">value = [6.487, 98.598]</text>
<text text-anchor="middle" x="483.5" y="-260.8" font-family="Times,serif" font-size="14.00">class = Obstructive</text>
</g>
<!-- 1&#45;&gt;3 -->
<g id="edge3" class="edge">
<title>1&#45;&gt;3</title>
<path fill="none" stroke="black" d="M483.5,-386.97C483.5,-378.69 483.5,-370 483.5,-361.48"/>
<polygon fill="black" stroke="black" points="487,-361.21 483.5,-351.21 480,-361.21 487,-361.21"/>
</g>
<!-- 4 -->
<g id="node5" class="node">
<title>4</title>
<polygon fill="none" stroke="black" points="371,-217 180,-217 180,-119 371,-119 371,-217"/>
<text text-anchor="middle" x="275.5" y="-201.8" font-family="Times,serif" font-size="14.00">node #4</text>
<text text-anchor="middle" x="275.5" y="-186.8" font-family="Times,serif" font-size="14.00">FEFPrePercent &lt;= 29.5</text>
<text text-anchor="middle" x="275.5" y="-171.8" font-family="Times,serif" font-size="14.00">gini = 0.081</text>
<text text-anchor="middle" x="275.5" y="-156.8" font-family="Times,serif" font-size="14.00">samples = 68</text>
<text text-anchor="middle" x="275.5" y="-141.8" font-family="Times,serif" font-size="14.00">value = [4.325, 98.598]</text>
<text text-anchor="middle" x="275.5" y="-126.8" font-family="Times,serif" font-size="14.00">class = Obstructive</text>
</g>
<!-- 3&#45;&gt;4 -->
<g id="edge4" class="edge">
<title>3&#45;&gt;4</title>
<path fill="none" stroke="black" d="M407.82,-252.97C392.33,-243.14 375.94,-232.74 360.17,-222.73"/>
<polygon fill="black" stroke="black" points="361.79,-219.62 351.47,-217.21 358.04,-225.53 361.79,-219.62"/>
</g>
<!-- 7 -->
<g id="node8" class="node">
<title>7</title>
<polygon fill="none" stroke="black" points="577.5,-209.5 389.5,-209.5 389.5,-126.5 577.5,-126.5 577.5,-209.5"/>
<text text-anchor="middle" x="483.5" y="-194.3" font-family="Times,serif" font-size="14.00">node #7</text>
<text text-anchor="middle" x="483.5" y="-179.3" font-family="Times,serif" font-size="14.00">gini = 0.0</text>
<text text-anchor="middle" x="483.5" y="-164.3" font-family="Times,serif" font-size="14.00">samples = 1</text>
<text text-anchor="middle" x="483.5" y="-149.3" font-family="Times,serif" font-size="14.00">value = [2.162, 0.0]</text>
<text text-anchor="middle" x="483.5" y="-134.3" font-family="Times,serif" font-size="14.00">class = Non&#45;obstructive</text>
</g>
<!-- 3&#45;&gt;7 -->
<g id="edge7" class="edge">
<title>3&#45;&gt;7</title>
<path fill="none" stroke="black" d="M483.5,-252.97C483.5,-242.25 483.5,-230.84 483.5,-219.99"/>
<polygon fill="black" stroke="black" points="487,-219.82 483.5,-209.82 480,-219.82 487,-219.82"/>
</g>
<!-- 5 -->
<g id="node6" class="node">
<title>5</title>
<polygon fill="none" stroke="black" points="167,-83 0,-83 0,0 167,0 167,-83"/>
<text text-anchor="middle" x="83.5" y="-67.8" font-family="Times,serif" font-size="14.00">node #5</text>
<text text-anchor="middle" x="83.5" y="-52.8" font-family="Times,serif" font-size="14.00">gini = 0.0</text>
<text text-anchor="middle" x="83.5" y="-37.8" font-family="Times,serif" font-size="14.00">samples = 56</text>
<text text-anchor="middle" x="83.5" y="-22.8" font-family="Times,serif" font-size="14.00">value = [0.0, 81.855]</text>
<text text-anchor="middle" x="83.5" y="-7.8" font-family="Times,serif" font-size="14.00">class = Obstructive</text>
</g>
<!-- 4&#45;&gt;5 -->
<g id="edge5" class="edge">
<title>4&#45;&gt;5</title>
<path fill="none" stroke="black" d="M201.27,-118.87C186.01,-108.97 169.97,-98.57 154.82,-88.74"/>
<polygon fill="black" stroke="black" points="156.3,-85.54 146.01,-83.03 152.49,-91.41 156.3,-85.54"/>
</g>
<!-- 6 -->
<g id="node7" class="node">
<title>6</title>
<polygon fill="none" stroke="black" points="370,-83 185,-83 185,0 370,0 370,-83"/>
<text text-anchor="middle" x="277.5" y="-67.8" font-family="Times,serif" font-size="14.00">node #6</text>
<text text-anchor="middle" x="277.5" y="-52.8" font-family="Times,serif" font-size="14.00">gini = 0.326</text>
<text text-anchor="middle" x="277.5" y="-37.8" font-family="Times,serif" font-size="14.00">samples = 12</text>
<text text-anchor="middle" x="277.5" y="-22.8" font-family="Times,serif" font-size="14.00">value = [4.325, 16.743]</text>
<text text-anchor="middle" x="277.5" y="-7.8" font-family="Times,serif" font-size="14.00">class = Obstructive</text>
</g>
<!-- 4&#45;&gt;6 -->
<g id="edge6" class="edge">
<title>4&#45;&gt;6</title>
<path fill="none" stroke="black" d="M276.27,-118.87C276.41,-110.5 276.55,-101.77 276.68,-93.33"/>
<polygon fill="black" stroke="black" points="280.18,-93.29 276.85,-83.23 273.19,-93.17 280.18,-93.29"/>
</g>
<!-- 9 -->
<g id="node10" class="node">
<title>9</title>
<polygon fill="none" stroke="black" points="901,-351 698,-351 698,-253 901,-253 901,-351"/>
<text text-anchor="middle" x="799.5" y="-335.8" font-family="Times,serif" font-size="14.00">node #9</text>
<text text-anchor="middle" x="799.5" y="-320.8" font-family="Times,serif" font-size="14.00">FEV1PostVal &lt;= 1.745</text>
<text text-anchor="middle" x="799.5" y="-305.8" font-family="Times,serif" font-size="14.00">gini = 0.163</text>
<text text-anchor="middle" x="799.5" y="-290.8" font-family="Times,serif" font-size="14.00">samples = 63</text>
<text text-anchor="middle" x="799.5" y="-275.8" font-family="Times,serif" font-size="14.00">value = [103.792, 10.232]</text>
<text text-anchor="middle" x="799.5" y="-260.8" font-family="Times,serif" font-size="14.00">class = Non&#45;obstructive</text>
</g>
<!-- 8&#45;&gt;9 -->
<g id="edge9" class="edge">
<title>8&#45;&gt;9</title>
<path fill="none" stroke="black" d="M799.5,-386.97C799.5,-378.69 799.5,-370 799.5,-361.48"/>
<polygon fill="black" stroke="black" points="803,-361.21 799.5,-351.21 796,-361.21 803,-361.21"/>
</g>
<!-- 16 -->
<g id="node17" class="node">
<title>16</title>
<polygon fill="none" stroke="black" points="1490,-351 1299,-351 1299,-253 1490,-253 1490,-351"/>
<text text-anchor="middle" x="1394.5" y="-335.8" font-family="Times,serif" font-size="14.00">node #16</text>
<text text-anchor="middle" x="1394.5" y="-320.8" font-family="Times,serif" font-size="14.00">FEFPrePercent &lt;= 57.5</text>
<text text-anchor="middle" x="1394.5" y="-305.8" font-family="Times,serif" font-size="14.00">gini = 0.499</text>
<text text-anchor="middle" x="1394.5" y="-290.8" font-family="Times,serif" font-size="14.00">samples = 73</text>
<text text-anchor="middle" x="1394.5" y="-275.8" font-family="Times,serif" font-size="14.00">value = [51.896, 57.67]</text>
<text text-anchor="middle" x="1394.5" y="-260.8" font-family="Times,serif" font-size="14.00">class = Obstructive</text>
</g>
<!-- 8&#45;&gt;16 -->
<g id="edge16" class="edge">
<title>8&#45;&gt;16</title>
<path fill="none" stroke="black" d="M901.11,-412.46C1009.09,-388.5 1179.06,-350.79 1288.64,-326.48"/>
<polygon fill="black" stroke="black" points="1289.72,-329.83 1298.73,-324.25 1288.2,-323 1289.72,-329.83"/>
</g>
<!-- 10 -->
<g id="node11" class="node">
<title>10</title>
<polygon fill="none" stroke="black" points="783.5,-217 595.5,-217 595.5,-119 783.5,-119 783.5,-217"/>
<text text-anchor="middle" x="689.5" y="-201.8" font-family="Times,serif" font-size="14.00">node #10</text>
<text text-anchor="middle" x="689.5" y="-186.8" font-family="Times,serif" font-size="14.00">FVCPostVal &lt;= 2.185</text>
<text text-anchor="middle" x="689.5" y="-171.8" font-family="Times,serif" font-size="14.00">gini = 0.022</text>
<text text-anchor="middle" x="689.5" y="-156.8" font-family="Times,serif" font-size="14.00">samples = 47</text>
<text text-anchor="middle" x="689.5" y="-141.8" font-family="Times,serif" font-size="14.00">value = [81.088, 0.93]</text>
<text text-anchor="middle" x="689.5" y="-126.8" font-family="Times,serif" font-size="14.00">class = Non&#45;obstructive</text>
</g>
<!-- 9&#45;&gt;10 -->
<g id="edge10" class="edge">
<title>9&#45;&gt;10</title>
<path fill="none" stroke="black" d="M759.48,-252.97C751.89,-243.87 743.9,-234.28 736.13,-224.96"/>
<polygon fill="black" stroke="black" points="738.77,-222.66 729.68,-217.21 733.39,-227.14 738.77,-222.66"/>
</g>
<!-- 13 -->
<g id="node14" class="node">
<title>13</title>
<polygon fill="none" stroke="black" points="993,-217 802,-217 802,-119 993,-119 993,-217"/>
<text text-anchor="middle" x="897.5" y="-201.8" font-family="Times,serif" font-size="14.00">node #13</text>
<text text-anchor="middle" x="897.5" y="-186.8" font-family="Times,serif" font-size="14.00">FEFPrePercent &lt;= 71.0</text>
<text text-anchor="middle" x="897.5" y="-171.8" font-family="Times,serif" font-size="14.00">gini = 0.412</text>
<text text-anchor="middle" x="897.5" y="-156.8" font-family="Times,serif" font-size="14.00">samples = 16</text>
<text text-anchor="middle" x="897.5" y="-141.8" font-family="Times,serif" font-size="14.00">value = [22.705, 9.302]</text>
<text text-anchor="middle" x="897.5" y="-126.8" font-family="Times,serif" font-size="14.00">class = Non&#45;obstructive</text>
</g>
<!-- 9&#45;&gt;13 -->
<g id="edge13" class="edge">
<title>9&#45;&gt;13</title>
<path fill="none" stroke="black" d="M835.16,-252.97C841.78,-244.05 848.75,-234.66 855.54,-225.52"/>
<polygon fill="black" stroke="black" points="858.55,-227.33 861.7,-217.21 852.93,-223.16 858.55,-227.33"/>
</g>
<!-- 11 -->
<g id="node12" class="node">
<title>11</title>
<polygon fill="none" stroke="black" points="577.5,-83 389.5,-83 389.5,0 577.5,0 577.5,-83"/>
<text text-anchor="middle" x="483.5" y="-67.8" font-family="Times,serif" font-size="14.00">node #11</text>
<text text-anchor="middle" x="483.5" y="-52.8" font-family="Times,serif" font-size="14.00">gini = 0.0</text>
<text text-anchor="middle" x="483.5" y="-37.8" font-family="Times,serif" font-size="14.00">samples = 45</text>
<text text-anchor="middle" x="483.5" y="-22.8" font-family="Times,serif" font-size="14.00">value = [80.006, 0.0]</text>
<text text-anchor="middle" x="483.5" y="-7.8" font-family="Times,serif" font-size="14.00">class = Non&#45;obstructive</text>
</g>
<!-- 10&#45;&gt;11 -->
<g id="edge11" class="edge">
<title>10&#45;&gt;11</title>
<path fill="none" stroke="black" d="M609.86,-118.87C593.33,-108.88 575.96,-98.38 559.56,-88.47"/>
<polygon fill="black" stroke="black" points="560.93,-85.21 550.57,-83.03 557.31,-91.2 560.93,-85.21"/>
</g>
<!-- 12 -->
<g id="node13" class="node">
<title>12</title>
<polygon fill="none" stroke="black" points="783.5,-83 595.5,-83 595.5,0 783.5,0 783.5,-83"/>
<text text-anchor="middle" x="689.5" y="-67.8" font-family="Times,serif" font-size="14.00">node #12</text>
<text text-anchor="middle" x="689.5" y="-52.8" font-family="Times,serif" font-size="14.00">gini = 0.497</text>
<text text-anchor="middle" x="689.5" y="-37.8" font-family="Times,serif" font-size="14.00">samples = 2</text>
<text text-anchor="middle" x="689.5" y="-22.8" font-family="Times,serif" font-size="14.00">value = [1.081, 0.93]</text>
<text text-anchor="middle" x="689.5" y="-7.8" font-family="Times,serif" font-size="14.00">class = Non&#45;obstructive</text>
</g>
<!-- 10&#45;&gt;12 -->
<g id="edge12" class="edge">
<title>10&#45;&gt;12</title>
<path fill="none" stroke="black" d="M689.5,-118.87C689.5,-110.5 689.5,-101.77 689.5,-93.33"/>
<polygon fill="black" stroke="black" points="693,-93.23 689.5,-83.23 686,-93.23 693,-93.23"/>
</g>
<!-- 14 -->
<g id="node15" class="node">
<title>14</title>
<polygon fill="none" stroke="black" points="977.5,-83 801.5,-83 801.5,0 977.5,0 977.5,-83"/>
<text text-anchor="middle" x="889.5" y="-67.8" font-family="Times,serif" font-size="14.00">node #14</text>
<text text-anchor="middle" x="889.5" y="-52.8" font-family="Times,serif" font-size="14.00">gini = 0.187</text>
<text text-anchor="middle" x="889.5" y="-37.8" font-family="Times,serif" font-size="14.00">samples = 6</text>
<text text-anchor="middle" x="889.5" y="-22.8" font-family="Times,serif" font-size="14.00">value = [1.081, 9.302]</text>
<text text-anchor="middle" x="889.5" y="-7.8" font-family="Times,serif" font-size="14.00">class = Obstructive</text>
</g>
<!-- 13&#45;&gt;14 -->
<g id="edge14" class="edge">
<title>13&#45;&gt;14</title>
<path fill="none" stroke="black" d="M894.41,-118.87C893.87,-110.5 893.31,-101.77 892.77,-93.33"/>
<polygon fill="black" stroke="black" points="896.25,-92.99 892.12,-83.23 889.27,-93.43 896.25,-92.99"/>
</g>
<!-- 15 -->
<g id="node16" class="node">
<title>15</title>
<polygon fill="none" stroke="black" points="1183.5,-83 995.5,-83 995.5,0 1183.5,0 1183.5,-83"/>
<text text-anchor="middle" x="1089.5" y="-67.8" font-family="Times,serif" font-size="14.00">node #15</text>
<text text-anchor="middle" x="1089.5" y="-52.8" font-family="Times,serif" font-size="14.00">gini = 0.0</text>
<text text-anchor="middle" x="1089.5" y="-37.8" font-family="Times,serif" font-size="14.00">samples = 10</text>
<text text-anchor="middle" x="1089.5" y="-22.8" font-family="Times,serif" font-size="14.00">value = [21.623, 0.0]</text>
<text text-anchor="middle" x="1089.5" y="-7.8" font-family="Times,serif" font-size="14.00">class = Non&#45;obstructive</text>
</g>
<!-- 13&#45;&gt;15 -->
<g id="edge15" class="edge">
<title>13&#45;&gt;15</title>
<path fill="none" stroke="black" d="M971.73,-118.87C986.99,-108.97 1003.03,-98.57 1018.18,-88.74"/>
<polygon fill="black" stroke="black" points="1020.51,-91.41 1026.99,-83.03 1016.7,-85.54 1020.51,-91.41"/>
</g>
<!-- 17 -->
<g id="node18" class="node">
<title>17</title>
<polygon fill="none" stroke="black" points="1493,-217 1296,-217 1296,-119 1493,-119 1493,-217"/>
<text text-anchor="middle" x="1394.5" y="-201.8" font-family="Times,serif" font-size="14.00">node #17</text>
<text text-anchor="middle" x="1394.5" y="-186.8" font-family="Times,serif" font-size="14.00">FVCPostPercent &lt;= 71.0</text>
<text text-anchor="middle" x="1394.5" y="-171.8" font-family="Times,serif" font-size="14.00">gini = 0.317</text>
<text text-anchor="middle" x="1394.5" y="-156.8" font-family="Times,serif" font-size="14.00">samples = 26</text>
<text text-anchor="middle" x="1394.5" y="-141.8" font-family="Times,serif" font-size="14.00">value = [7.568, 30.696]</text>
<text text-anchor="middle" x="1394.5" y="-126.8" font-family="Times,serif" font-size="14.00">class = Obstructive</text>
</g>
<!-- 16&#45;&gt;17 -->
<g id="edge17" class="edge">
<title>16&#45;&gt;17</title>
<path fill="none" stroke="black" d="M1394.5,-252.97C1394.5,-244.69 1394.5,-236 1394.5,-227.48"/>
<polygon fill="black" stroke="black" points="1398,-227.21 1394.5,-217.21 1391,-227.21 1398,-227.21"/>
</g>
<!-- 20 -->
<g id="node21" class="node">
<title>20</title>
<polygon fill="none" stroke="black" points="1804.5,-217 1610.5,-217 1610.5,-119 1804.5,-119 1804.5,-217"/>
<text text-anchor="middle" x="1707.5" y="-201.8" font-family="Times,serif" font-size="14.00">node #20</text>
<text text-anchor="middle" x="1707.5" y="-186.8" font-family="Times,serif" font-size="14.00">FVCPrePercent &lt;= 88.5</text>
<text text-anchor="middle" x="1707.5" y="-171.8" font-family="Times,serif" font-size="14.00">gini = 0.47</text>
<text text-anchor="middle" x="1707.5" y="-156.8" font-family="Times,serif" font-size="14.00">samples = 47</text>
<text text-anchor="middle" x="1707.5" y="-141.8" font-family="Times,serif" font-size="14.00">value = [44.328, 26.975]</text>
<text text-anchor="middle" x="1707.5" y="-126.8" font-family="Times,serif" font-size="14.00">class = Non&#45;obstructive</text>
</g>
<!-- 16&#45;&gt;20 -->
<g id="edge20" class="edge">
<title>16&#45;&gt;20</title>
<path fill="none" stroke="black" d="M1490.11,-260.68C1525.1,-245.92 1564.9,-229.14 1600.79,-214"/>
<polygon fill="black" stroke="black" points="1602.46,-217.1 1610.31,-209.99 1599.74,-210.65 1602.46,-217.1"/>
</g>
<!-- 18 -->
<g id="node19" class="node">
<title>18</title>
<polygon fill="none" stroke="black" points="1389.5,-83 1201.5,-83 1201.5,0 1389.5,0 1389.5,-83"/>
<text text-anchor="middle" x="1295.5" y="-67.8" font-family="Times,serif" font-size="14.00">node #18</text>
<text text-anchor="middle" x="1295.5" y="-52.8" font-family="Times,serif" font-size="14.00">gini = 0.0</text>
<text text-anchor="middle" x="1295.5" y="-37.8" font-family="Times,serif" font-size="14.00">samples = 2</text>
<text text-anchor="middle" x="1295.5" y="-22.8" font-family="Times,serif" font-size="14.00">value = [3.244, 0.0]</text>
<text text-anchor="middle" x="1295.5" y="-7.8" font-family="Times,serif" font-size="14.00">class = Non&#45;obstructive</text>
</g>
<!-- 17&#45;&gt;18 -->
<g id="edge18" class="edge">
<title>17&#45;&gt;18</title>
<path fill="none" stroke="black" d="M1356.22,-118.87C1348.99,-109.76 1341.41,-100.23 1334.16,-91.12"/>
<polygon fill="black" stroke="black" points="1336.85,-88.88 1327.89,-83.23 1331.37,-93.24 1336.85,-88.88"/>
</g>
<!-- 19 -->
<g id="node20" class="node">
<title>19</title>
<polygon fill="none" stroke="black" points="1593,-83 1408,-83 1408,0 1593,0 1593,-83"/>
<text text-anchor="middle" x="1500.5" y="-67.8" font-family="Times,serif" font-size="14.00">node #19</text>
<text text-anchor="middle" x="1500.5" y="-52.8" font-family="Times,serif" font-size="14.00">gini = 0.216</text>
<text text-anchor="middle" x="1500.5" y="-37.8" font-family="Times,serif" font-size="14.00">samples = 24</text>
<text text-anchor="middle" x="1500.5" y="-22.8" font-family="Times,serif" font-size="14.00">value = [4.325, 30.696]</text>
<text text-anchor="middle" x="1500.5" y="-7.8" font-family="Times,serif" font-size="14.00">class = Obstructive</text>
</g>
<!-- 17&#45;&gt;19 -->
<g id="edge19" class="edge">
<title>17&#45;&gt;19</title>
<path fill="none" stroke="black" d="M1435.48,-118.87C1443.23,-109.76 1451.34,-100.23 1459.11,-91.12"/>
<polygon fill="black" stroke="black" points="1462,-93.11 1465.82,-83.23 1456.67,-88.58 1462,-93.11"/>
</g>
<!-- 21 -->
<g id="node22" class="node">
<title>21</title>
<polygon fill="none" stroke="black" points="1804.5,-83 1610.5,-83 1610.5,0 1804.5,0 1804.5,-83"/>
<text text-anchor="middle" x="1707.5" y="-67.8" font-family="Times,serif" font-size="14.00">node #21</text>
<text text-anchor="middle" x="1707.5" y="-52.8" font-family="Times,serif" font-size="14.00">gini = 0.421</text>
<text text-anchor="middle" x="1707.5" y="-37.8" font-family="Times,serif" font-size="14.00">samples = 34</text>
<text text-anchor="middle" x="1707.5" y="-22.8" font-family="Times,serif" font-size="14.00">value = [38.922, 16.743]</text>
<text text-anchor="middle" x="1707.5" y="-7.8" font-family="Times,serif" font-size="14.00">class = Non&#45;obstructive</text>
</g>
<!-- 20&#45;&gt;21 -->
<g id="edge21" class="edge">
<title>20&#45;&gt;21</title>
<path fill="none" stroke="black" d="M1707.5,-118.87C1707.5,-110.5 1707.5,-101.77 1707.5,-93.33"/>
<polygon fill="black" stroke="black" points="1711,-93.23 1707.5,-83.23 1704,-93.23 1711,-93.23"/>
</g>
<!-- 22 -->
<g id="node23" class="node">
<title>22</title>
<polygon fill="none" stroke="black" points="2007,-83 1822,-83 1822,0 2007,0 2007,-83"/>
<text text-anchor="middle" x="1914.5" y="-67.8" font-family="Times,serif" font-size="14.00">node #22</text>
<text text-anchor="middle" x="1914.5" y="-52.8" font-family="Times,serif" font-size="14.00">gini = 0.452</text>
<text text-anchor="middle" x="1914.5" y="-37.8" font-family="Times,serif" font-size="14.00">samples = 13</text>
<text text-anchor="middle" x="1914.5" y="-22.8" font-family="Times,serif" font-size="14.00">value = [5.406, 10.232]</text>
<text text-anchor="middle" x="1914.5" y="-7.8" font-family="Times,serif" font-size="14.00">class = Obstructive</text>
</g>
<!-- 20&#45;&gt;22 -->
<g id="edge22" class="edge">
<title>20&#45;&gt;22</title>
<path fill="none" stroke="black" d="M1787.53,-118.87C1804.29,-108.78 1821.92,-98.18 1838.53,-88.19"/>
<polygon fill="black" stroke="black" points="1840.34,-91.19 1847.11,-83.03 1836.74,-85.19 1840.34,-91.19"/>
</g>
</g>
</svg>
