<?xml version="1.0" encoding="UTF-8" standalone="no"?>
<!DOCTYPE svg PUBLIC "-//W3C//DTD SVG 1.1//EN"
 "http://www.w3.org/Graphics/SVG/1.1/DTD/svg11.dtd">
<!-- Generated by graphviz version 2.43.0 (0)
 -->
<!-- Title: Tree Pages: 1 -->
<svg width="1964pt" height="627pt"
 viewBox="0.00 0.00 1964.00 627.00" xmlns="http://www.w3.org/2000/svg" xmlns:xlink="http://www.w3.org/1999/xlink">
<g id="graph0" class="graph" transform="scale(1 1) rotate(0) translate(4 623)">
<title>Tree</title>
<polygon fill="white" stroke="transparent" points="-4,4 -4,-623 1960,-623 1960,4 -4,4"/>
<!-- 0 -->
<g id="node1" class="node">
<title>0</title>
<polygon fill="none" stroke="black" points="833.5,-619 642.5,-619 642.5,-521 833.5,-521 833.5,-619"/>
<text text-anchor="middle" x="738" y="-603.8" font-family="Times,serif" font-size="14.00">node #0</text>
<text text-anchor="middle" x="738" y="-588.8" font-family="Times,serif" font-size="14.00">FEFPrePercent &lt;= 41.5</text>
<text text-anchor="middle" x="738" y="-573.8" font-family="Times,serif" font-size="14.00">gini = 0.5</text>
<text text-anchor="middle" x="738" y="-558.8" font-family="Times,serif" font-size="14.00">samples = 210</text>
<text text-anchor="middle" x="738" y="-543.8" font-family="Times,serif" font-size="14.00">value = [166.5, 166.5]</text>
<text text-anchor="middle" x="738" y="-528.8" font-family="Times,serif" font-size="14.00">class = Non&#45;obstructive</text>
</g>
<!-- 1 -->
<g id="node2" class="node">
<title>1</title>
<polygon fill="none" stroke="black" points="728.5,-485 525.5,-485 525.5,-387 728.5,-387 728.5,-485"/>
<text text-anchor="middle" x="627" y="-469.8" font-family="Times,serif" font-size="14.00">node #1</text>
<text text-anchor="middle" x="627" y="-454.8" font-family="Times,serif" font-size="14.00">FEFPostPercent &lt;= 24.5</text>
<text text-anchor="middle" x="627" y="-439.8" font-family="Times,serif" font-size="14.00">gini = 0.231</text>
<text text-anchor="middle" x="627" y="-424.8" font-family="Times,serif" font-size="14.00">samples = 77</text>
<text text-anchor="middle" x="627" y="-409.8" font-family="Times,serif" font-size="14.00">value = [16.145, 105.054]</text>
<text text-anchor="middle" x="627" y="-394.8" font-family="Times,serif" font-size="14.00">class = Obstructive</text>
</g>
<!-- 0&#45;&gt;1 -->
<g id="edge1" class="edge">
<title>0&#45;&gt;1</title>
<path fill="none" stroke="black" d="M697.61,-520.97C689.96,-511.87 681.89,-502.28 674.06,-492.96"/>
<polygon fill="black" stroke="black" points="676.66,-490.61 667.54,-485.21 671.3,-495.12 676.66,-490.61"/>
<text text-anchor="middle" x="665.39" y="-506.42" font-family="Times,serif" font-size="14.00">True</text>
</g>
<!-- 10 -->
<g id="node11" class="node">
<title>10</title>
<polygon fill="none" stroke="black" points="1018.5,-485 815.5,-485 815.5,-387 1018.5,-387 1018.5,-485"/>
<text text-anchor="middle" x="917" y="-469.8" font-family="Times,serif" font-size="14.00">node #10</text>
<text text-anchor="middle" x="917" y="-454.8" font-family="Times,serif" font-size="14.00">FVCPrePercent &lt;= 62.5</text>
<text text-anchor="middle" x="917" y="-439.8" font-family="Times,serif" font-size="14.00">gini = 0.412</text>
<text text-anchor="middle" x="917" y="-424.8" font-family="Times,serif" font-size="14.00">samples = 133</text>
<text text-anchor="middle" x="917" y="-409.8" font-family="Times,serif" font-size="14.00">value = [150.355, 61.446]</text>
<text text-anchor="middle" x="917" y="-394.8" font-family="Times,serif" font-size="14.00">class = Non&#45;obstructive</text>
</g>
<!-- 0&#45;&gt;10 -->
<g id="edge10" class="edge">
<title>0&#45;&gt;10</title>
<path fill="none" stroke="black" d="M803.13,-520.97C816.21,-511.33 830.04,-501.13 843.38,-491.29"/>
<polygon fill="black" stroke="black" points="845.65,-493.97 851.62,-485.21 841.49,-488.33 845.65,-493.97"/>
<text text-anchor="middle" x="847.88" y="-506.23" font-family="Times,serif" font-size="14.00">False</text>
</g>
<!-- 2 -->
<g id="node3" class="node">
<title>2</title>
<polygon fill="none" stroke="black" points="388.5,-351 191.5,-351 191.5,-253 388.5,-253 388.5,-351"/>
<text text-anchor="middle" x="290" y="-335.8" font-family="Times,serif" font-size="14.00">node #2</text>
<text text-anchor="middle" x="290" y="-320.8" font-family="Times,serif" font-size="14.00">FVCPostPercent &lt;= 35.0</text>
<text text-anchor="middle" x="290" y="-305.8" font-family="Times,serif" font-size="14.00">gini = 0.062</text>
<text text-anchor="middle" x="290" y="-290.8" font-family="Times,serif" font-size="14.00">samples = 40</text>
<text text-anchor="middle" x="290" y="-275.8" font-family="Times,serif" font-size="14.00">value = [2.018, 61.446]</text>
<text text-anchor="middle" x="290" y="-260.8" font-family="Times,serif" font-size="14.00">class = Obstructive</text>
</g>
<!-- 1&#45;&gt;2 -->
<g id="edge2" class="edge">
<title>1&#45;&gt;2</title>
<path fill="none" stroke="black" d="M525.43,-395.22C485.25,-379.48 439,-361.36 398.19,-345.38"/>
<polygon fill="black" stroke="black" points="399.34,-342.07 388.75,-341.68 396.79,-348.59 399.34,-342.07"/>
</g>
<!-- 5 -->
<g id="node6" class="node">
<title>5</title>
<polygon fill="none" stroke="black" points="724,-351 530,-351 530,-253 724,-253 724,-351"/>
<text text-anchor="middle" x="627" y="-335.8" font-family="Times,serif" font-size="14.00">node #5</text>
<text text-anchor="middle" x="627" y="-320.8" font-family="Times,serif" font-size="14.00">FVCPrePercent &lt;= 64.5</text>
<text text-anchor="middle" x="627" y="-305.8" font-family="Times,serif" font-size="14.00">gini = 0.37</text>
<text text-anchor="middle" x="627" y="-290.8" font-family="Times,serif" font-size="14.00">samples = 37</text>
<text text-anchor="middle" x="627" y="-275.8" font-family="Times,serif" font-size="14.00">value = [14.127, 43.607]</text>
<text text-anchor="middle" x="627" y="-260.8" font-family="Times,serif" font-size="14.00">class = Obstructive</text>
</g>
<!-- 1&#45;&gt;5 -->
<g id="edge5" class="edge">
<title>1&#45;&gt;5</title>
<path fill="none" stroke="black" d="M627,-386.97C627,-378.69 627,-370 627,-361.48"/>
<polygon fill="black" stroke="black" points="630.5,-361.21 627,-351.21 623.5,-361.21 630.5,-361.21"/>
</g>
<!-- 3 -->
<g id="node4" class="node">
<title>3</title>
<polygon fill="none" stroke="black" points="188,-209.5 0,-209.5 0,-126.5 188,-126.5 188,-209.5"/>
<text text-anchor="middle" x="94" y="-194.3" font-family="Times,serif" font-size="14.00">node #3</text>
<text text-anchor="middle" x="94" y="-179.3" font-family="Times,serif" font-size="14.00">gini = 0.0</text>
<text text-anchor="middle" x="94" y="-164.3" font-family="Times,serif" font-size="14.00">samples = 1</text>
<text text-anchor="middle" x="94" y="-149.3" font-family="Times,serif" font-size="14.00">value = [2.018, 0.0]</text>
<text text-anchor="middle" x="94" y="-134.3" font-family="Times,serif" font-size="14.00">class = Non&#45;obstructive</text>
</g>
<!-- 2&#45;&gt;3 -->
<g id="edge3" class="edge">
<title>2&#45;&gt;3</title>
<path fill="none" stroke="black" d="M218.69,-252.97C200.53,-240.75 181.05,-227.63 163.02,-215.48"/>
<polygon fill="black" stroke="black" points="164.54,-212.29 154.29,-209.6 160.63,-218.09 164.54,-212.29"/>
</g>
<!-- 4 -->
<g id="node5" class="node">
<title>4</title>
<polygon fill="none" stroke="black" points="373.5,-209.5 206.5,-209.5 206.5,-126.5 373.5,-126.5 373.5,-209.5"/>
<text text-anchor="middle" x="290" y="-194.3" font-family="Times,serif" font-size="14.00">node #4</text>
<text text-anchor="middle" x="290" y="-179.3" font-family="Times,serif" font-size="14.00">gini = 0.0</text>
<text text-anchor="middle" x="290" y="-164.3" font-family="Times,serif" font-size="14.00">samples = 39</text>
<text text-anchor="middle" x="290" y="-149.3" font-family="Times,serif" font-size="14.00">value = [0.0, 61.446]</text>
<text text-anchor="middle" x="290" y="-134.3" font-family="Times,serif" font-size="14.00">class = Obstructive</text>
</g>
<!-- 2&#45;&gt;4 -->
<g id="edge4" class="edge">
<title>2&#45;&gt;4</title>
<path fill="none" stroke="black" d="M290,-252.97C290,-242.25 290,-230.84 290,-219.99"/>
<polygon fill="black" stroke="black" points="293.5,-219.82 290,-209.82 286.5,-219.82 293.5,-219.82"/>
</g>
<!-- 6 -->
<g id="node7" class="node">
<title>6</title>
<polygon fill="none" stroke="black" points="580,-217 392,-217 392,-119 580,-119 580,-217"/>
<text text-anchor="middle" x="486" y="-201.8" font-family="Times,serif" font-size="14.00">node #6</text>
<text text-anchor="middle" x="486" y="-186.8" font-family="Times,serif" font-size="14.00">FVCPostVal &lt;= 2.18</text>
<text text-anchor="middle" x="486" y="-171.8" font-family="Times,serif" font-size="14.00">gini = 0.485</text>
<text text-anchor="middle" x="486" y="-156.8" font-family="Times,serif" font-size="14.00">samples = 15</text>
<text text-anchor="middle" x="486" y="-141.8" font-family="Times,serif" font-size="14.00">value = [14.127, 9.911]</text>
<text text-anchor="middle" x="486" y="-126.8" font-family="Times,serif" font-size="14.00">class = Non&#45;obstructive</text>
</g>
<!-- 5&#45;&gt;6 -->
<g id="edge6" class="edge">
<title>5&#45;&gt;6</title>
<path fill="none" stroke="black" d="M575.7,-252.97C565.69,-243.6 555.12,-233.7 544.88,-224.12"/>
<polygon fill="black" stroke="black" points="547.19,-221.49 537.5,-217.21 542.41,-226.6 547.19,-221.49"/>
</g>
<!-- 9 -->
<g id="node10" class="node">
<title>9</title>
<polygon fill="none" stroke="black" points="765.5,-209.5 598.5,-209.5 598.5,-126.5 765.5,-126.5 765.5,-209.5"/>
<text text-anchor="middle" x="682" y="-194.3" font-family="Times,serif" font-size="14.00">node #9</text>
<text text-anchor="middle" x="682" y="-179.3" font-family="Times,serif" font-size="14.00">gini = 0.0</text>
<text text-anchor="middle" x="682" y="-164.3" font-family="Times,serif" font-size="14.00">samples = 22</text>
<text text-anchor="middle" x="682" y="-149.3" font-family="Times,serif" font-size="14.00">value = [0.0, 33.696]</text>
<text text-anchor="middle" x="682" y="-134.3" font-family="Times,serif" font-size="14.00">class = Obstructive</text>
</g>
<!-- 5&#45;&gt;9 -->
<g id="edge9" class="edge">
<title>5&#45;&gt;9</title>
<path fill="none" stroke="black" d="M647.01,-252.97C651.57,-242.02 656.43,-230.36 661.03,-219.32"/>
<polygon fill="black" stroke="black" points="664.38,-220.39 664.99,-209.82 657.92,-217.7 664.38,-220.39"/>
</g>
<!-- 7 -->
<g id="node8" class="node">
<title>7</title>
<polygon fill="none" stroke="black" points="468,-83 280,-83 280,0 468,0 468,-83"/>
<text text-anchor="middle" x="374" y="-67.8" font-family="Times,serif" font-size="14.00">node #7</text>
<text text-anchor="middle" x="374" y="-52.8" font-family="Times,serif" font-size="14.00">gini = 0.333</text>
<text text-anchor="middle" x="374" y="-37.8" font-family="Times,serif" font-size="14.00">samples = 9</text>
<text text-anchor="middle" x="374" y="-22.8" font-family="Times,serif" font-size="14.00">value = [11.1, 2.973]</text>
<text text-anchor="middle" x="374" y="-7.8" font-family="Times,serif" font-size="14.00">class = Non&#45;obstructive</text>
</g>
<!-- 6&#45;&gt;7 -->
<g id="edge7" class="edge">
<title>6&#45;&gt;7</title>
<path fill="none" stroke="black" d="M442.7,-118.87C434.43,-109.67 425.76,-100.04 417.49,-90.84"/>
<polygon fill="black" stroke="black" points="419.93,-88.32 410.64,-83.23 414.73,-93.01 419.93,-88.32"/>
</g>
<!-- 8 -->
<g id="node9" class="node">
<title>8</title>
<polygon fill="none" stroke="black" points="662,-83 486,-83 486,0 662,0 662,-83"/>
<text text-anchor="middle" x="574" y="-67.8" font-family="Times,serif" font-size="14.00">node #8</text>
<text text-anchor="middle" x="574" y="-52.8" font-family="Times,serif" font-size="14.00">gini = 0.423</text>
<text text-anchor="middle" x="574" y="-37.8" font-family="Times,serif" font-size="14.00">samples = 6</text>
<text text-anchor="middle" x="574" y="-22.8" font-family="Times,serif" font-size="14.00">value = [3.027, 6.938]</text>
<text text-anchor="middle" x="574" y="-7.8" font-family="Times,serif" font-size="14.00">class = Obstructive</text>
</g>
<!-- 6&#45;&gt;8 -->
<g id="edge8" class="edge">
<title>6&#45;&gt;8</title>
<path fill="none" stroke="black" d="M520.02,-118.87C526.33,-109.95 532.92,-100.62 539.25,-91.67"/>
<polygon fill="black" stroke="black" points="542.3,-93.42 545.21,-83.23 536.58,-89.38 542.3,-93.42"/>
</g>
<!-- 11 -->
<g id="node12" class="node">
<title>11</title>
<polygon fill="none" stroke="black" points="1024.5,-351 809.5,-351 809.5,-253 1024.5,-253 1024.5,-351"/>
<text text-anchor="middle" x="917" y="-335.8" font-family="Times,serif" font-size="14.00">node #11</text>
<text text-anchor="middle" x="917" y="-320.8" font-family="Times,serif" font-size="14.00">FEFPostPercent &lt;= 46.889</text>
<text text-anchor="middle" x="917" y="-305.8" font-family="Times,serif" font-size="14.00">gini = 0.093</text>
<text text-anchor="middle" x="917" y="-290.8" font-family="Times,serif" font-size="14.00">samples = 63</text>
<text text-anchor="middle" x="917" y="-275.8" font-family="Times,serif" font-size="14.00">value = [95.864, 4.955]</text>
<text text-anchor="middle" x="917" y="-260.8" font-family="Times,serif" font-size="14.00">class = Non&#45;obstructive</text>
</g>
<!-- 10&#45;&gt;11 -->
<g id="edge11" class="edge">
<title>10&#45;&gt;11</title>
<path fill="none" stroke="black" d="M917,-386.97C917,-378.69 917,-370 917,-361.48"/>
<polygon fill="black" stroke="black" points="920.5,-361.21 917,-351.21 913.5,-361.21 920.5,-361.21"/>
</g>
<!-- 16 -->
<g id="node17" class="node">
<title>16</title>
<polygon fill="none" stroke="black" points="1453,-351 1259,-351 1259,-253 1453,-253 1453,-351"/>
<text text-anchor="middle" x="1356" y="-335.8" font-family="Times,serif" font-size="14.00">node #16</text>
<text text-anchor="middle" x="1356" y="-320.8" font-family="Times,serif" font-size="14.00">FVCPostVal &lt;= 3.015</text>
<text text-anchor="middle" x="1356" y="-305.8" font-family="Times,serif" font-size="14.00">gini = 0.5</text>
<text text-anchor="middle" x="1356" y="-290.8" font-family="Times,serif" font-size="14.00">samples = 70</text>
<text text-anchor="middle" x="1356" y="-275.8" font-family="Times,serif" font-size="14.00">value = [54.491, 56.491]</text>
<text text-anchor="middle" x="1356" y="-260.8" font-family="Times,serif" font-size="14.00">class = Obstructive</text>
</g>
<!-- 10&#45;&gt;16 -->
<g id="edge16" class="edge">
<title>10&#45;&gt;16</title>
<path fill="none" stroke="black" d="M1018.54,-404.47C1087.6,-383.7 1178.81,-356.28 1249,-335.17"/>
<polygon fill="black" stroke="black" points="1250.19,-338.47 1258.76,-332.24 1248.17,-331.77 1250.19,-338.47"/>
</g>
<!-- 12 -->
<g id="node13" class="node">
<title>12</title>
<polygon fill="none" stroke="black" points="941,-209.5 783,-209.5 783,-126.5 941,-126.5 941,-209.5"/>
<text text-anchor="middle" x="862" y="-194.3" font-family="Times,serif" font-size="14.00">node #12</text>
<text text-anchor="middle" x="862" y="-179.3" font-family="Times,serif" font-size="14.00">gini = 0.0</text>
<text text-anchor="middle" x="862" y="-164.3" font-family="Times,serif" font-size="14.00">samples = 1</text>
<text text-anchor="middle" x="862" y="-149.3" font-family="Times,serif" font-size="14.00">value = [0.0, 0.991]</text>
<text text-anchor="middle" x="862" y="-134.3" font-family="Times,serif" font-size="14.00">class = Obstructive</text>
</g>
<!-- 11&#45;&gt;12 -->
<g id="edge12" class="edge">
<title>11&#45;&gt;12</title>
<path fill="none" stroke="black" d="M896.99,-252.97C892.43,-242.02 887.57,-230.36 882.97,-219.32"/>
<polygon fill="black" stroke="black" points="886.08,-217.7 879.01,-209.82 879.62,-220.39 886.08,-217.7"/>
</g>
<!-- 13 -->
<g id="node14" class="node">
<title>13</title>
<polygon fill="none" stroke="black" points="1147,-217 959,-217 959,-119 1147,-119 1147,-217"/>
<text text-anchor="middle" x="1053" y="-201.8" font-family="Times,serif" font-size="14.00">node #13</text>
<text text-anchor="middle" x="1053" y="-186.8" font-family="Times,serif" font-size="14.00">FEV1PreVal &lt;= 2.565</text>
<text text-anchor="middle" x="1053" y="-171.8" font-family="Times,serif" font-size="14.00">gini = 0.076</text>
<text text-anchor="middle" x="1053" y="-156.8" font-family="Times,serif" font-size="14.00">samples = 62</text>
<text text-anchor="middle" x="1053" y="-141.8" font-family="Times,serif" font-size="14.00">value = [95.864, 3.964]</text>
<text text-anchor="middle" x="1053" y="-126.8" font-family="Times,serif" font-size="14.00">class = Non&#45;obstructive</text>
</g>
<!-- 11&#45;&gt;13 -->
<g id="edge13" class="edge">
<title>11&#45;&gt;13</title>
<path fill="none" stroke="black" d="M966.48,-252.97C976.05,-243.69 986.14,-233.9 995.92,-224.4"/>
<polygon fill="black" stroke="black" points="998.59,-226.69 1003.33,-217.21 993.71,-221.67 998.59,-226.69"/>
</g>
<!-- 14 -->
<g id="node15" class="node">
<title>14</title>
<polygon fill="none" stroke="black" points="956,-83 768,-83 768,0 956,0 956,-83"/>
<text text-anchor="middle" x="862" y="-67.8" font-family="Times,serif" font-size="14.00">node #14</text>
<text text-anchor="middle" x="862" y="-52.8" font-family="Times,serif" font-size="14.00">gini = 0.04</text>
<text text-anchor="middle" x="862" y="-37.8" font-family="Times,serif" font-size="14.00">samples = 60</text>
<text text-anchor="middle" x="862" y="-22.8" font-family="Times,serif" font-size="14.00">value = [95.864, 1.982]</text>
<text text-anchor="middle" x="862" y="-7.8" font-family="Times,serif" font-size="14.00">class = Non&#45;obstructive</text>
</g>
<!-- 13&#45;&gt;14 -->
<g id="edge14" class="edge">
<title>13&#45;&gt;14</title>
<path fill="none" stroke="black" d="M979.15,-118.87C963.97,-108.97 948.02,-98.57 932.95,-88.74"/>
<polygon fill="black" stroke="black" points="934.47,-85.56 924.18,-83.03 930.65,-91.43 934.47,-85.56"/>
</g>
<!-- 15 -->
<g id="node16" class="node">
<title>15</title>
<polygon fill="none" stroke="black" points="1132,-83 974,-83 974,0 1132,0 1132,-83"/>
<text text-anchor="middle" x="1053" y="-67.8" font-family="Times,serif" font-size="14.00">node #15</text>
<text text-anchor="middle" x="1053" y="-52.8" font-family="Times,serif" font-size="14.00">gini = 0.0</text>
<text text-anchor="middle" x="1053" y="-37.8" font-family="Times,serif" font-size="14.00">samples = 2</text>
<text text-anchor="middle" x="1053" y="-22.8" font-family="Times,serif" font-size="14.00">value = [0.0, 1.982]</text>
<text text-anchor="middle" x="1053" y="-7.8" font-family="Times,serif" font-size="14.00">class = Obstructive</text>
</g>
<!-- 13&#45;&gt;15 -->
<g id="edge15" class="edge">
<title>13&#45;&gt;15</title>
<path fill="none" stroke="black" d="M1053,-118.87C1053,-110.5 1053,-101.77 1053,-93.33"/>
<polygon fill="black" stroke="black" points="1056.5,-93.23 1053,-83.23 1049.5,-93.23 1056.5,-93.23"/>
</g>
<!-- 17 -->
<g id="node18" class="node">
<title>17</title>
<polygon fill="none" stroke="black" points="1454.5,-217 1257.5,-217 1257.5,-119 1454.5,-119 1454.5,-217"/>
<text text-anchor="middle" x="1356" y="-201.8" font-family="Times,serif" font-size="14.00">node #17</text>
<text text-anchor="middle" x="1356" y="-186.8" font-family="Times,serif" font-size="14.00">FVCPostPercent &lt;= 90.5</text>
<text text-anchor="middle" x="1356" y="-171.8" font-family="Times,serif" font-size="14.00">gini = 0.468</text>
<text text-anchor="middle" x="1356" y="-156.8" font-family="Times,serif" font-size="14.00">samples = 47</text>
<text text-anchor="middle" x="1356" y="-141.8" font-family="Times,serif" font-size="14.00">value = [46.418, 27.75]</text>
<text text-anchor="middle" x="1356" y="-126.8" font-family="Times,serif" font-size="14.00">class = Non&#45;obstructive</text>
</g>
<!-- 16&#45;&gt;17 -->
<g id="edge17" class="edge">
<title>16&#45;&gt;17</title>
<path fill="none" stroke="black" d="M1356,-252.97C1356,-244.69 1356,-236 1356,-227.48"/>
<polygon fill="black" stroke="black" points="1359.5,-227.21 1356,-217.21 1352.5,-227.21 1359.5,-227.21"/>
</g>
<!-- 20 -->
<g id="node21" class="node">
<title>20</title>
<polygon fill="none" stroke="black" points="1749.5,-217 1564.5,-217 1564.5,-119 1749.5,-119 1749.5,-217"/>
<text text-anchor="middle" x="1657" y="-201.8" font-family="Times,serif" font-size="14.00">node #20</text>
<text text-anchor="middle" x="1657" y="-186.8" font-family="Times,serif" font-size="14.00">FVCPostVal &lt;= 4.03</text>
<text text-anchor="middle" x="1657" y="-171.8" font-family="Times,serif" font-size="14.00">gini = 0.342</text>
<text text-anchor="middle" x="1657" y="-156.8" font-family="Times,serif" font-size="14.00">samples = 23</text>
<text text-anchor="middle" x="1657" y="-141.8" font-family="Times,serif" font-size="14.00">value = [8.073, 28.741]</text>
<text text-anchor="middle" x="1657" y="-126.8" font-family="Times,serif" font-size="14.00">class = Obstructive</text>
</g>
<!-- 16&#45;&gt;20 -->
<g id="edge20" class="edge">
<title>16&#45;&gt;20</title>
<path fill="none" stroke="black" d="M1453.31,-258.33C1485.89,-244.04 1522.28,-228.08 1555.19,-213.65"/>
<polygon fill="black" stroke="black" points="1556.62,-216.84 1564.38,-209.62 1553.81,-210.43 1556.62,-216.84"/>
</g>
<!-- 18 -->
<g id="node19" class="node">
<title>18</title>
<polygon fill="none" stroke="black" points="1344,-83 1150,-83 1150,0 1344,0 1344,-83"/>
<text text-anchor="middle" x="1247" y="-67.8" font-family="Times,serif" font-size="14.00">node #18</text>
<text text-anchor="middle" x="1247" y="-52.8" font-family="Times,serif" font-size="14.00">gini = 0.367</text>
<text text-anchor="middle" x="1247" y="-37.8" font-family="Times,serif" font-size="14.00">samples = 36</text>
<text text-anchor="middle" x="1247" y="-22.8" font-family="Times,serif" font-size="14.00">value = [43.391, 13.875]</text>
<text text-anchor="middle" x="1247" y="-7.8" font-family="Times,serif" font-size="14.00">class = Non&#45;obstructive</text>
</g>
<!-- 17&#45;&gt;18 -->
<g id="edge18" class="edge">
<title>17&#45;&gt;18</title>
<path fill="none" stroke="black" d="M1313.86,-118.87C1305.81,-109.67 1297.38,-100.04 1289.32,-90.84"/>
<polygon fill="black" stroke="black" points="1291.88,-88.45 1282.66,-83.23 1286.61,-93.06 1291.88,-88.45"/>
</g>
<!-- 19 -->
<g id="node20" class="node">
<title>19</title>
<polygon fill="none" stroke="black" points="1546.5,-83 1361.5,-83 1361.5,0 1546.5,0 1546.5,-83"/>
<text text-anchor="middle" x="1454" y="-67.8" font-family="Times,serif" font-size="14.00">node #19</text>
<text text-anchor="middle" x="1454" y="-52.8" font-family="Times,serif" font-size="14.00">gini = 0.294</text>
<text text-anchor="middle" x="1454" y="-37.8" font-family="Times,serif" font-size="14.00">samples = 11</text>
<text text-anchor="middle" x="1454" y="-22.8" font-family="Times,serif" font-size="14.00">value = [3.027, 13.875]</text>
<text text-anchor="middle" x="1454" y="-7.8" font-family="Times,serif" font-size="14.00">class = Obstructive</text>
</g>
<!-- 17&#45;&gt;19 -->
<g id="edge19" class="edge">
<title>17&#45;&gt;19</title>
<path fill="none" stroke="black" d="M1393.89,-118.87C1401.05,-109.76 1408.55,-100.23 1415.73,-91.12"/>
<polygon fill="black" stroke="black" points="1418.5,-93.25 1421.94,-83.23 1413,-88.92 1418.5,-93.25"/>
</g>
<!-- 21 -->
<g id="node22" class="node">
<title>21</title>
<polygon fill="none" stroke="black" points="1749.5,-83 1564.5,-83 1564.5,0 1749.5,0 1749.5,-83"/>
<text text-anchor="middle" x="1657" y="-67.8" font-family="Times,serif" font-size="14.00">node #21</text>
<text text-anchor="middle" x="1657" y="-52.8" font-family="Times,serif" font-size="14.00">gini = 0.216</text>
<text text-anchor="middle" x="1657" y="-37.8" font-family="Times,serif" font-size="14.00">samples = 21</text>
<text text-anchor="middle" x="1657" y="-22.8" font-family="Times,serif" font-size="14.00">value = [4.036, 28.741]</text>
<text text-anchor="middle" x="1657" y="-7.8" font-family="Times,serif" font-size="14.00">class = Obstructive</text>
</g>
<!-- 20&#45;&gt;21 -->
<g id="edge21" class="edge">
<title>20&#45;&gt;21</title>
<path fill="none" stroke="black" d="M1657,-118.87C1657,-110.5 1657,-101.77 1657,-93.33"/>
<polygon fill="black" stroke="black" points="1660.5,-93.23 1657,-83.23 1653.5,-93.23 1660.5,-93.23"/>
</g>
<!-- 22 -->
<g id="node23" class="node">
<title>22</title>
<polygon fill="none" stroke="black" points="1956,-83 1768,-83 1768,0 1956,0 1956,-83"/>
<text text-anchor="middle" x="1862" y="-67.8" font-family="Times,serif" font-size="14.00">node #22</text>
<text text-anchor="middle" x="1862" y="-52.8" font-family="Times,serif" font-size="14.00">gini = &#45;0.0</text>
<text text-anchor="middle" x="1862" y="-37.8" font-family="Times,serif" font-size="14.00">samples = 2</text>
<text text-anchor="middle" x="1862" y="-22.8" font-family="Times,serif" font-size="14.00">value = [4.036, 0.0]</text>
<text text-anchor="middle" x="1862" y="-7.8" font-family="Times,serif" font-size="14.00">class = Non&#45;obstructive</text>
</g>
<!-- 20&#45;&gt;22 -->
<g id="edge22" class="edge">
<title>20&#45;&gt;22</title>
<path fill="none" stroke="black" d="M1736.26,-118.87C1752.7,-108.88 1769.99,-98.38 1786.31,-88.47"/>
<polygon fill="black" stroke="black" points="1788.53,-91.21 1795.26,-83.03 1784.9,-85.23 1788.53,-91.21"/>
</g>
</g>
</svg>
