<?xml version="1.0" encoding="UTF-8" standalone="no"?>
<!DOCTYPE svg PUBLIC "-//W3C//DTD SVG 1.1//EN"
 "http://www.w3.org/Graphics/SVG/1.1/DTD/svg11.dtd">
<!-- Generated by graphviz version 2.43.0 (0)
 -->
<!-- Title: Tree Pages: 1 -->
<svg width="1600pt" height="627pt"
 viewBox="0.00 0.00 1600.00 627.00" xmlns="http://www.w3.org/2000/svg" xmlns:xlink="http://www.w3.org/1999/xlink">
<g id="graph0" class="graph" transform="scale(1 1) rotate(0) translate(4 623)">
<title>Tree</title>
<polygon fill="white" stroke="transparent" points="-4,4 -4,-623 1596,-623 1596,4 -4,4"/>
<!-- 0 -->
<g id="node1" class="node">
<title>0</title>
<polygon fill="none" stroke="black" points="511.5,-619 320.5,-619 320.5,-521 511.5,-521 511.5,-619"/>
<text text-anchor="middle" x="416" y="-603.8" font-family="Times,serif" font-size="14.00">node #0</text>
<text text-anchor="middle" x="416" y="-588.8" font-family="Times,serif" font-size="14.00">FEFPrePercent &lt;= 42.5</text>
<text text-anchor="middle" x="416" y="-573.8" font-family="Times,serif" font-size="14.00">gini = 0.5</text>
<text text-anchor="middle" x="416" y="-558.8" font-family="Times,serif" font-size="14.00">samples = 215</text>
<text text-anchor="middle" x="416" y="-543.8" font-family="Times,serif" font-size="14.00">value = [166.5, 166.5]</text>
<text text-anchor="middle" x="416" y="-528.8" font-family="Times,serif" font-size="14.00">class = Obstructive</text>
</g>
<!-- 1 -->
<g id="node2" class="node">
<title>1</title>
<polygon fill="none" stroke="black" points="407.5,-485 204.5,-485 204.5,-387 407.5,-387 407.5,-485"/>
<text text-anchor="middle" x="306" y="-469.8" font-family="Times,serif" font-size="14.00">node #1</text>
<text text-anchor="middle" x="306" y="-454.8" font-family="Times,serif" font-size="14.00">FVCPostVal &lt;= 1.21</text>
<text text-anchor="middle" x="306" y="-439.8" font-family="Times,serif" font-size="14.00">gini = 0.231</text>
<text text-anchor="middle" x="306" y="-424.8" font-family="Times,serif" font-size="14.00">samples = 78</text>
<text text-anchor="middle" x="306" y="-409.8" font-family="Times,serif" font-size="14.00">value = [16.361, 106.144]</text>
<text text-anchor="middle" x="306" y="-394.8" font-family="Times,serif" font-size="14.00">class = Obstructive</text>
</g>
<!-- 0&#45;&gt;1 -->
<g id="edge1" class="edge">
<title>0&#45;&gt;1</title>
<path fill="none" stroke="black" d="M375.98,-520.97C368.39,-511.87 360.4,-502.28 352.63,-492.96"/>
<polygon fill="black" stroke="black" points="355.27,-490.66 346.18,-485.21 349.89,-495.14 355.27,-490.66"/>
<text text-anchor="middle" x="343.91" y="-506.41" font-family="Times,serif" font-size="14.00">True</text>
</g>
<!-- 8 -->
<g id="node9" class="node">
<title>8</title>
<polygon fill="none" stroke="black" points="720.5,-485 517.5,-485 517.5,-387 720.5,-387 720.5,-485"/>
<text text-anchor="middle" x="619" y="-469.8" font-family="Times,serif" font-size="14.00">node #8</text>
<text text-anchor="middle" x="619" y="-454.8" font-family="Times,serif" font-size="14.00">FVCPostVal &lt;= 2.095</text>
<text text-anchor="middle" x="619" y="-439.8" font-family="Times,serif" font-size="14.00">gini = 0.409</text>
<text text-anchor="middle" x="619" y="-424.8" font-family="Times,serif" font-size="14.00">samples = 137</text>
<text text-anchor="middle" x="619" y="-409.8" font-family="Times,serif" font-size="14.00">value = [150.139, 60.356]</text>
<text text-anchor="middle" x="619" y="-394.8" font-family="Times,serif" font-size="14.00">class = Non&#45;obstructive</text>
</g>
<!-- 0&#45;&gt;8 -->
<g id="edge8" class="edge">
<title>0&#45;&gt;8</title>
<path fill="none" stroke="black" d="M489.86,-520.97C504.97,-511.14 520.97,-500.74 536.37,-490.73"/>
<polygon fill="black" stroke="black" points="538.38,-493.6 544.85,-485.21 534.56,-487.73 538.38,-493.6"/>
<text text-anchor="middle" x="539.67" y="-505.97" font-family="Times,serif" font-size="14.00">False</text>
</g>
<!-- 2 -->
<g id="node3" class="node">
<title>2</title>
<polygon fill="none" stroke="black" points="189,-343.5 1,-343.5 1,-260.5 189,-260.5 189,-343.5"/>
<text text-anchor="middle" x="95" y="-328.3" font-family="Times,serif" font-size="14.00">node #2</text>
<text text-anchor="middle" x="95" y="-313.3" font-family="Times,serif" font-size="14.00">gini = 0.0</text>
<text text-anchor="middle" x="95" y="-298.3" font-family="Times,serif" font-size="14.00">samples = 5</text>
<text text-anchor="middle" x="95" y="-283.3" font-family="Times,serif" font-size="14.00">value = [7.699, 0.0]</text>
<text text-anchor="middle" x="95" y="-268.3" font-family="Times,serif" font-size="14.00">class = Non&#45;obstructive</text>
</g>
<!-- 1&#45;&gt;2 -->
<g id="edge2" class="edge">
<title>1&#45;&gt;2</title>
<path fill="none" stroke="black" d="M229.23,-386.97C209.42,-374.58 188.14,-361.27 168.51,-348.98"/>
<polygon fill="black" stroke="black" points="170.24,-345.94 159.9,-343.6 166.53,-351.87 170.24,-345.94"/>
</g>
<!-- 3 -->
<g id="node4" class="node">
<title>3</title>
<polygon fill="none" stroke="black" points="404.5,-351 207.5,-351 207.5,-253 404.5,-253 404.5,-351"/>
<text text-anchor="middle" x="306" y="-335.8" font-family="Times,serif" font-size="14.00">node #3</text>
<text text-anchor="middle" x="306" y="-320.8" font-family="Times,serif" font-size="14.00">FVCPostPercent &lt;= 34.5</text>
<text text-anchor="middle" x="306" y="-305.8" font-family="Times,serif" font-size="14.00">gini = 0.14</text>
<text text-anchor="middle" x="306" y="-290.8" font-family="Times,serif" font-size="14.00">samples = 73</text>
<text text-anchor="middle" x="306" y="-275.8" font-family="Times,serif" font-size="14.00">value = [8.662, 106.144]</text>
<text text-anchor="middle" x="306" y="-260.8" font-family="Times,serif" font-size="14.00">class = Obstructive</text>
</g>
<!-- 1&#45;&gt;3 -->
<g id="edge3" class="edge">
<title>1&#45;&gt;3</title>
<path fill="none" stroke="black" d="M306,-386.97C306,-378.69 306,-370 306,-361.48"/>
<polygon fill="black" stroke="black" points="309.5,-361.21 306,-351.21 302.5,-361.21 309.5,-361.21"/>
</g>
<!-- 4 -->
<g id="node5" class="node">
<title>4</title>
<polygon fill="none" stroke="black" points="191,-209.5 3,-209.5 3,-126.5 191,-126.5 191,-209.5"/>
<text text-anchor="middle" x="97" y="-194.3" font-family="Times,serif" font-size="14.00">node #4</text>
<text text-anchor="middle" x="97" y="-179.3" font-family="Times,serif" font-size="14.00">gini = 0.0</text>
<text text-anchor="middle" x="97" y="-164.3" font-family="Times,serif" font-size="14.00">samples = 1</text>
<text text-anchor="middle" x="97" y="-149.3" font-family="Times,serif" font-size="14.00">value = [0.962, 0.0]</text>
<text text-anchor="middle" x="97" y="-134.3" font-family="Times,serif" font-size="14.00">class = Non&#45;obstructive</text>
</g>
<!-- 3&#45;&gt;4 -->
<g id="edge4" class="edge">
<title>3&#45;&gt;4</title>
<path fill="none" stroke="black" d="M229.95,-252.97C210.33,-240.58 189.26,-227.27 169.81,-214.98"/>
<polygon fill="black" stroke="black" points="171.61,-211.98 161.29,-209.6 167.87,-217.9 171.61,-211.98"/>
</g>
<!-- 5 -->
<g id="node6" class="node">
<title>5</title>
<polygon fill="none" stroke="black" points="403,-217 209,-217 209,-119 403,-119 403,-217"/>
<text text-anchor="middle" x="306" y="-201.8" font-family="Times,serif" font-size="14.00">node #5</text>
<text text-anchor="middle" x="306" y="-186.8" font-family="Times,serif" font-size="14.00">FEFPreVal &lt;= 1.575</text>
<text text-anchor="middle" x="306" y="-171.8" font-family="Times,serif" font-size="14.00">gini = 0.126</text>
<text text-anchor="middle" x="306" y="-156.8" font-family="Times,serif" font-size="14.00">samples = 72</text>
<text text-anchor="middle" x="306" y="-141.8" font-family="Times,serif" font-size="14.00">value = [7.699, 106.144]</text>
<text text-anchor="middle" x="306" y="-126.8" font-family="Times,serif" font-size="14.00">class = Obstructive</text>
</g>
<!-- 3&#45;&gt;5 -->
<g id="edge5" class="edge">
<title>3&#45;&gt;5</title>
<path fill="none" stroke="black" d="M306,-252.97C306,-244.69 306,-236 306,-227.48"/>
<polygon fill="black" stroke="black" points="309.5,-227.21 306,-217.21 302.5,-227.21 309.5,-227.21"/>
</g>
<!-- 6 -->
<g id="node7" class="node">
<title>6</title>
<polygon fill="none" stroke="black" points="194,-83 0,-83 0,0 194,0 194,-83"/>
<text text-anchor="middle" x="97" y="-67.8" font-family="Times,serif" font-size="14.00">node #6</text>
<text text-anchor="middle" x="97" y="-52.8" font-family="Times,serif" font-size="14.00">gini = 0.112</text>
<text text-anchor="middle" x="97" y="-37.8" font-family="Times,serif" font-size="14.00">samples = 71</text>
<text text-anchor="middle" x="97" y="-22.8" font-family="Times,serif" font-size="14.00">value = [6.737, 106.144]</text>
<text text-anchor="middle" x="97" y="-7.8" font-family="Times,serif" font-size="14.00">class = Obstructive</text>
</g>
<!-- 5&#45;&gt;6 -->
<g id="edge6" class="edge">
<title>5&#45;&gt;6</title>
<path fill="none" stroke="black" d="M225.2,-118.87C208.27,-108.78 190.48,-98.18 173.71,-88.19"/>
<polygon fill="black" stroke="black" points="175.42,-85.14 165.04,-83.03 171.84,-91.16 175.42,-85.14"/>
</g>
<!-- 7 -->
<g id="node8" class="node">
<title>7</title>
<polygon fill="none" stroke="black" points="400,-83 212,-83 212,0 400,0 400,-83"/>
<text text-anchor="middle" x="306" y="-67.8" font-family="Times,serif" font-size="14.00">node #7</text>
<text text-anchor="middle" x="306" y="-52.8" font-family="Times,serif" font-size="14.00">gini = 0.0</text>
<text text-anchor="middle" x="306" y="-37.8" font-family="Times,serif" font-size="14.00">samples = 1</text>
<text text-anchor="middle" x="306" y="-22.8" font-family="Times,serif" font-size="14.00">value = [0.962, 0.0]</text>
<text text-anchor="middle" x="306" y="-7.8" font-family="Times,serif" font-size="14.00">class = Non&#45;obstructive</text>
</g>
<!-- 5&#45;&gt;7 -->
<g id="edge7" class="edge">
<title>5&#45;&gt;7</title>
<path fill="none" stroke="black" d="M306,-118.87C306,-110.5 306,-101.77 306,-93.33"/>
<polygon fill="black" stroke="black" points="309.5,-93.23 306,-83.23 302.5,-93.23 309.5,-93.23"/>
</g>
<!-- 9 -->
<g id="node10" class="node">
<title>9</title>
<polygon fill="none" stroke="black" points="714.5,-351 523.5,-351 523.5,-253 714.5,-253 714.5,-351"/>
<text text-anchor="middle" x="619" y="-335.8" font-family="Times,serif" font-size="14.00">node #9</text>
<text text-anchor="middle" x="619" y="-320.8" font-family="Times,serif" font-size="14.00">FVCPrePercent &lt;= 82.0</text>
<text text-anchor="middle" x="619" y="-305.8" font-family="Times,serif" font-size="14.00">gini = 0.145</text>
<text text-anchor="middle" x="619" y="-290.8" font-family="Times,serif" font-size="14.00">samples = 66</text>
<text text-anchor="middle" x="619" y="-275.8" font-family="Times,serif" font-size="14.00">value = [97.205, 8.325]</text>
<text text-anchor="middle" x="619" y="-260.8" font-family="Times,serif" font-size="14.00">class = Non&#45;obstructive</text>
</g>
<!-- 8&#45;&gt;9 -->
<g id="edge9" class="edge">
<title>8&#45;&gt;9</title>
<path fill="none" stroke="black" d="M619,-386.97C619,-378.69 619,-370 619,-361.48"/>
<polygon fill="black" stroke="black" points="622.5,-361.21 619,-351.21 615.5,-361.21 622.5,-361.21"/>
</g>
<!-- 14 -->
<g id="node15" class="node">
<title>14</title>
<polygon fill="none" stroke="black" points="1088.5,-351 891.5,-351 891.5,-253 1088.5,-253 1088.5,-351"/>
<text text-anchor="middle" x="990" y="-335.8" font-family="Times,serif" font-size="14.00">node #14</text>
<text text-anchor="middle" x="990" y="-320.8" font-family="Times,serif" font-size="14.00">FVCPostPercent &lt;= 80.5</text>
<text text-anchor="middle" x="990" y="-305.8" font-family="Times,serif" font-size="14.00">gini = 0.5</text>
<text text-anchor="middle" x="990" y="-290.8" font-family="Times,serif" font-size="14.00">samples = 71</text>
<text text-anchor="middle" x="990" y="-275.8" font-family="Times,serif" font-size="14.00">value = [52.934, 52.031]</text>
<text text-anchor="middle" x="990" y="-260.8" font-family="Times,serif" font-size="14.00">class = Non&#45;obstructive</text>
</g>
<!-- 8&#45;&gt;14 -->
<g id="edge14" class="edge">
<title>8&#45;&gt;14</title>
<path fill="none" stroke="black" d="M720.87,-398.76C770.75,-381.01 830.83,-359.63 881.55,-341.58"/>
<polygon fill="black" stroke="black" points="882.99,-344.79 891.24,-338.14 880.65,-338.19 882.99,-344.79"/>
</g>
<!-- 10 -->
<g id="node11" class="node">
<title>10</title>
<polygon fill="none" stroke="black" points="615,-217 427,-217 427,-119 615,-119 615,-217"/>
<text text-anchor="middle" x="521" y="-201.8" font-family="Times,serif" font-size="14.00">node #10</text>
<text text-anchor="middle" x="521" y="-186.8" font-family="Times,serif" font-size="14.00">FEFPreVal &lt;= 1.135</text>
<text text-anchor="middle" x="521" y="-171.8" font-family="Times,serif" font-size="14.00">gini = 0.041</text>
<text text-anchor="middle" x="521" y="-156.8" font-family="Times,serif" font-size="14.00">samples = 64</text>
<text text-anchor="middle" x="521" y="-141.8" font-family="Times,serif" font-size="14.00">value = [97.205, 2.081]</text>
<text text-anchor="middle" x="521" y="-126.8" font-family="Times,serif" font-size="14.00">class = Non&#45;obstructive</text>
</g>
<!-- 9&#45;&gt;10 -->
<g id="edge10" class="edge">
<title>9&#45;&gt;10</title>
<path fill="none" stroke="black" d="M583.34,-252.97C576.72,-244.05 569.75,-234.66 562.96,-225.52"/>
<polygon fill="black" stroke="black" points="565.57,-223.16 556.8,-217.21 559.95,-227.33 565.57,-223.16"/>
</g>
<!-- 13 -->
<g id="node14" class="node">
<title>13</title>
<polygon fill="none" stroke="black" points="791,-209.5 633,-209.5 633,-126.5 791,-126.5 791,-209.5"/>
<text text-anchor="middle" x="712" y="-194.3" font-family="Times,serif" font-size="14.00">node #13</text>
<text text-anchor="middle" x="712" y="-179.3" font-family="Times,serif" font-size="14.00">gini = &#45;0.0</text>
<text text-anchor="middle" x="712" y="-164.3" font-family="Times,serif" font-size="14.00">samples = 2</text>
<text text-anchor="middle" x="712" y="-149.3" font-family="Times,serif" font-size="14.00">value = [0.0, 6.244]</text>
<text text-anchor="middle" x="712" y="-134.3" font-family="Times,serif" font-size="14.00">class = Obstructive</text>
</g>
<!-- 9&#45;&gt;13 -->
<g id="edge13" class="edge">
<title>9&#45;&gt;13</title>
<path fill="none" stroke="black" d="M652.84,-252.97C660.78,-241.69 669.26,-229.66 677.25,-218.32"/>
<polygon fill="black" stroke="black" points="680.34,-220.01 683.24,-209.82 674.62,-215.98 680.34,-220.01"/>
</g>
<!-- 11 -->
<g id="node12" class="node">
<title>11</title>
<polygon fill="none" stroke="black" points="576,-83 418,-83 418,0 576,0 576,-83"/>
<text text-anchor="middle" x="497" y="-67.8" font-family="Times,serif" font-size="14.00">node #11</text>
<text text-anchor="middle" x="497" y="-52.8" font-family="Times,serif" font-size="14.00">gini = 0.0</text>
<text text-anchor="middle" x="497" y="-37.8" font-family="Times,serif" font-size="14.00">samples = 1</text>
<text text-anchor="middle" x="497" y="-22.8" font-family="Times,serif" font-size="14.00">value = [0.0, 1.041]</text>
<text text-anchor="middle" x="497" y="-7.8" font-family="Times,serif" font-size="14.00">class = Obstructive</text>
</g>
<!-- 10&#45;&gt;11 -->
<g id="edge11" class="edge">
<title>10&#45;&gt;11</title>
<path fill="none" stroke="black" d="M511.72,-118.87C510.09,-110.41 508.39,-101.58 506.75,-93.06"/>
<polygon fill="black" stroke="black" points="510.18,-92.39 504.85,-83.23 503.31,-93.71 510.18,-92.39"/>
</g>
<!-- 12 -->
<g id="node13" class="node">
<title>12</title>
<polygon fill="none" stroke="black" points="782,-83 594,-83 594,0 782,0 782,-83"/>
<text text-anchor="middle" x="688" y="-67.8" font-family="Times,serif" font-size="14.00">node #12</text>
<text text-anchor="middle" x="688" y="-52.8" font-family="Times,serif" font-size="14.00">gini = 0.021</text>
<text text-anchor="middle" x="688" y="-37.8" font-family="Times,serif" font-size="14.00">samples = 63</text>
<text text-anchor="middle" x="688" y="-22.8" font-family="Times,serif" font-size="14.00">value = [97.205, 1.041]</text>
<text text-anchor="middle" x="688" y="-7.8" font-family="Times,serif" font-size="14.00">class = Non&#45;obstructive</text>
</g>
<!-- 10&#45;&gt;12 -->
<g id="edge12" class="edge">
<title>10&#45;&gt;12</title>
<path fill="none" stroke="black" d="M585.57,-118.87C598.72,-109.06 612.53,-98.77 625.6,-89.02"/>
<polygon fill="black" stroke="black" points="627.71,-91.82 633.63,-83.03 623.52,-86.2 627.71,-91.82"/>
</g>
<!-- 15 -->
<g id="node16" class="node">
<title>15</title>
<polygon fill="none" stroke="black" points="1090,-217 890,-217 890,-119 1090,-119 1090,-217"/>
<text text-anchor="middle" x="990" y="-201.8" font-family="Times,serif" font-size="14.00">node #15</text>
<text text-anchor="middle" x="990" y="-186.8" font-family="Times,serif" font-size="14.00">FEV1PrePercent &lt;= 61.5</text>
<text text-anchor="middle" x="990" y="-171.8" font-family="Times,serif" font-size="14.00">gini = 0.307</text>
<text text-anchor="middle" x="990" y="-156.8" font-family="Times,serif" font-size="14.00">samples = 36</text>
<text text-anchor="middle" x="990" y="-141.8" font-family="Times,serif" font-size="14.00">value = [35.61, 8.325]</text>
<text text-anchor="middle" x="990" y="-126.8" font-family="Times,serif" font-size="14.00">class = Non&#45;obstructive</text>
</g>
<!-- 14&#45;&gt;15 -->
<g id="edge15" class="edge">
<title>14&#45;&gt;15</title>
<path fill="none" stroke="black" d="M990,-252.97C990,-244.69 990,-236 990,-227.48"/>
<polygon fill="black" stroke="black" points="993.5,-227.21 990,-217.21 986.5,-227.21 993.5,-227.21"/>
</g>
<!-- 18 -->
<g id="node19" class="node">
<title>18</title>
<polygon fill="none" stroke="black" points="1396,-217 1190,-217 1190,-119 1396,-119 1396,-217"/>
<text text-anchor="middle" x="1293" y="-201.8" font-family="Times,serif" font-size="14.00">node #18</text>
<text text-anchor="middle" x="1293" y="-186.8" font-family="Times,serif" font-size="14.00">FEFPostPercent &lt;= 106.0</text>
<text text-anchor="middle" x="1293" y="-171.8" font-family="Times,serif" font-size="14.00">gini = 0.407</text>
<text text-anchor="middle" x="1293" y="-156.8" font-family="Times,serif" font-size="14.00">samples = 35</text>
<text text-anchor="middle" x="1293" y="-141.8" font-family="Times,serif" font-size="14.00">value = [17.324, 43.706]</text>
<text text-anchor="middle" x="1293" y="-126.8" font-family="Times,serif" font-size="14.00">class = Obstructive</text>
</g>
<!-- 14&#45;&gt;18 -->
<g id="edge18" class="edge">
<title>14&#45;&gt;18</title>
<path fill="none" stroke="black" d="M1088.79,-257.96C1118.14,-245.18 1150.5,-231.08 1180.64,-217.95"/>
<polygon fill="black" stroke="black" points="1182.15,-221.11 1189.92,-213.91 1179.35,-214.69 1182.15,-221.11"/>
</g>
<!-- 16 -->
<g id="node17" class="node">
<title>16</title>
<polygon fill="none" stroke="black" points="976,-83 800,-83 800,0 976,0 976,-83"/>
<text text-anchor="middle" x="888" y="-67.8" font-family="Times,serif" font-size="14.00">node #16</text>
<text text-anchor="middle" x="888" y="-52.8" font-family="Times,serif" font-size="14.00">gini = 0.499</text>
<text text-anchor="middle" x="888" y="-37.8" font-family="Times,serif" font-size="14.00">samples = 9</text>
<text text-anchor="middle" x="888" y="-22.8" font-family="Times,serif" font-size="14.00">value = [5.775, 6.244]</text>
<text text-anchor="middle" x="888" y="-7.8" font-family="Times,serif" font-size="14.00">class = Obstructive</text>
</g>
<!-- 15&#45;&gt;16 -->
<g id="edge16" class="edge">
<title>15&#45;&gt;16</title>
<path fill="none" stroke="black" d="M950.56,-118.87C943.11,-109.76 935.3,-100.23 927.83,-91.12"/>
<polygon fill="black" stroke="black" points="930.41,-88.75 921.37,-83.23 925,-93.18 930.41,-88.75"/>
</g>
<!-- 17 -->
<g id="node18" class="node">
<title>17</title>
<polygon fill="none" stroke="black" points="1182,-83 994,-83 994,0 1182,0 1182,-83"/>
<text text-anchor="middle" x="1088" y="-67.8" font-family="Times,serif" font-size="14.00">node #17</text>
<text text-anchor="middle" x="1088" y="-52.8" font-family="Times,serif" font-size="14.00">gini = 0.122</text>
<text text-anchor="middle" x="1088" y="-37.8" font-family="Times,serif" font-size="14.00">samples = 27</text>
<text text-anchor="middle" x="1088" y="-22.8" font-family="Times,serif" font-size="14.00">value = [29.835, 2.081]</text>
<text text-anchor="middle" x="1088" y="-7.8" font-family="Times,serif" font-size="14.00">class = Non&#45;obstructive</text>
</g>
<!-- 15&#45;&gt;17 -->
<g id="edge17" class="edge">
<title>15&#45;&gt;17</title>
<path fill="none" stroke="black" d="M1027.89,-118.87C1035.05,-109.76 1042.55,-100.23 1049.73,-91.12"/>
<polygon fill="black" stroke="black" points="1052.5,-93.25 1055.94,-83.23 1047,-88.92 1052.5,-93.25"/>
</g>
<!-- 19 -->
<g id="node20" class="node">
<title>19</title>
<polygon fill="none" stroke="black" points="1385.5,-83 1200.5,-83 1200.5,0 1385.5,0 1385.5,-83"/>
<text text-anchor="middle" x="1293" y="-67.8" font-family="Times,serif" font-size="14.00">node #19</text>
<text text-anchor="middle" x="1293" y="-52.8" font-family="Times,serif" font-size="14.00">gini = 0.285</text>
<text text-anchor="middle" x="1293" y="-37.8" font-family="Times,serif" font-size="14.00">samples = 28</text>
<text text-anchor="middle" x="1293" y="-22.8" font-family="Times,serif" font-size="14.00">value = [8.662, 41.625]</text>
<text text-anchor="middle" x="1293" y="-7.8" font-family="Times,serif" font-size="14.00">class = Obstructive</text>
</g>
<!-- 18&#45;&gt;19 -->
<g id="edge19" class="edge">
<title>18&#45;&gt;19</title>
<path fill="none" stroke="black" d="M1293,-118.87C1293,-110.5 1293,-101.77 1293,-93.33"/>
<polygon fill="black" stroke="black" points="1296.5,-93.23 1293,-83.23 1289.5,-93.23 1296.5,-93.23"/>
</g>
<!-- 20 -->
<g id="node21" class="node">
<title>20</title>
<polygon fill="none" stroke="black" points="1592,-83 1404,-83 1404,0 1592,0 1592,-83"/>
<text text-anchor="middle" x="1498" y="-67.8" font-family="Times,serif" font-size="14.00">node #20</text>
<text text-anchor="middle" x="1498" y="-52.8" font-family="Times,serif" font-size="14.00">gini = 0.312</text>
<text text-anchor="middle" x="1498" y="-37.8" font-family="Times,serif" font-size="14.00">samples = 7</text>
<text text-anchor="middle" x="1498" y="-22.8" font-family="Times,serif" font-size="14.00">value = [8.662, 2.081]</text>
<text text-anchor="middle" x="1498" y="-7.8" font-family="Times,serif" font-size="14.00">class = Non&#45;obstructive</text>
</g>
<!-- 18&#45;&gt;20 -->
<g id="edge20" class="edge">
<title>18&#45;&gt;20</title>
<path fill="none" stroke="black" d="M1372.26,-118.87C1388.7,-108.88 1405.99,-98.38 1422.31,-88.47"/>
<polygon fill="black" stroke="black" points="1424.53,-91.21 1431.26,-83.03 1420.9,-85.23 1424.53,-91.21"/>
</g>
</g>
</svg>
