<?xml version="1.0" encoding="UTF-8" standalone="no"?>
<!DOCTYPE svg PUBLIC "-//W3C//DTD SVG 1.1//EN"
 "http://www.w3.org/Graphics/SVG/1.1/DTD/svg11.dtd">
<!-- Generated by graphviz version 2.43.0 (0)
 -->
<!-- Title: Tree Pages: 1 -->
<svg width="2178pt" height="627pt"
 viewBox="0.00 0.00 2178.00 627.00" xmlns="http://www.w3.org/2000/svg" xmlns:xlink="http://www.w3.org/1999/xlink">
<g id="graph0" class="graph" transform="scale(1 1) rotate(0) translate(4 623)">
<title>Tree</title>
<polygon fill="white" stroke="transparent" points="-4,4 -4,-623 2174,-623 2174,4 -4,4"/>
<!-- 0 -->
<g id="node1" class="node">
<title>0</title>
<polygon fill="none" stroke="black" points="840,-619 664,-619 664,-521 840,-521 840,-619"/>
<text text-anchor="middle" x="752" y="-603.8" font-family="Times,serif" font-size="14.00">node #0</text>
<text text-anchor="middle" x="752" y="-588.8" font-family="Times,serif" font-size="14.00">FVCPreVal &lt;= 1.225</text>
<text text-anchor="middle" x="752" y="-573.8" font-family="Times,serif" font-size="14.00">gini = 0.5</text>
<text text-anchor="middle" x="752" y="-558.8" font-family="Times,serif" font-size="14.00">samples = 201</text>
<text text-anchor="middle" x="752" y="-543.8" font-family="Times,serif" font-size="14.00">value = [166.5, 166.5]</text>
<text text-anchor="middle" x="752" y="-528.8" font-family="Times,serif" font-size="14.00">class = Obstructive</text>
</g>
<!-- 1 -->
<g id="node2" class="node">
<title>1</title>
<polygon fill="none" stroke="black" points="663,-485 457,-485 457,-387 663,-387 663,-485"/>
<text text-anchor="middle" x="560" y="-469.8" font-family="Times,serif" font-size="14.00">node #1</text>
<text text-anchor="middle" x="560" y="-454.8" font-family="Times,serif" font-size="14.00">FEV1PostPercent &lt;= 21.0</text>
<text text-anchor="middle" x="560" y="-439.8" font-family="Times,serif" font-size="14.00">gini = 0.151</text>
<text text-anchor="middle" x="560" y="-424.8" font-family="Times,serif" font-size="14.00">samples = 32</text>
<text text-anchor="middle" x="560" y="-409.8" font-family="Times,serif" font-size="14.00">value = [44.865, 4.012]</text>
<text text-anchor="middle" x="560" y="-394.8" font-family="Times,serif" font-size="14.00">class = Non&#45;obstructive</text>
</g>
<!-- 0&#45;&gt;1 -->
<g id="edge1" class="edge">
<title>0&#45;&gt;1</title>
<path fill="none" stroke="black" d="M682.14,-520.97C667.98,-511.24 653,-500.93 638.56,-491.01"/>
<polygon fill="black" stroke="black" points="640.35,-488 630.13,-485.21 636.39,-493.76 640.35,-488"/>
<text text-anchor="middle" x="634.68" y="-506.1" font-family="Times,serif" font-size="14.00">True</text>
</g>
<!-- 8 -->
<g id="node9" class="node">
<title>8</title>
<polygon fill="none" stroke="black" points="1088.5,-485 873.5,-485 873.5,-387 1088.5,-387 1088.5,-485"/>
<text text-anchor="middle" x="981" y="-469.8" font-family="Times,serif" font-size="14.00">node #8</text>
<text text-anchor="middle" x="981" y="-454.8" font-family="Times,serif" font-size="14.00">FEFPostPercent &lt;= 47.389</text>
<text text-anchor="middle" x="981" y="-439.8" font-family="Times,serif" font-size="14.00">gini = 0.49</text>
<text text-anchor="middle" x="981" y="-424.8" font-family="Times,serif" font-size="14.00">samples = 169</text>
<text text-anchor="middle" x="981" y="-409.8" font-family="Times,serif" font-size="14.00">value = [121.635, 162.488]</text>
<text text-anchor="middle" x="981" y="-394.8" font-family="Times,serif" font-size="14.00">class = Obstructive</text>
</g>
<!-- 0&#45;&gt;8 -->
<g id="edge8" class="edge">
<title>0&#45;&gt;8</title>
<path fill="none" stroke="black" d="M835.32,-520.97C852.53,-511.05 870.75,-500.55 888.27,-490.45"/>
<polygon fill="black" stroke="black" points="890.44,-493.24 897.36,-485.21 886.94,-487.18 890.44,-493.24"/>
<text text-anchor="middle" x="890.87" y="-505.66" font-family="Times,serif" font-size="14.00">False</text>
</g>
<!-- 2 -->
<g id="node3" class="node">
<title>2</title>
<polygon fill="none" stroke="black" points="370,-351 170,-351 170,-253 370,-253 370,-351"/>
<text text-anchor="middle" x="270" y="-335.8" font-family="Times,serif" font-size="14.00">node #2</text>
<text text-anchor="middle" x="270" y="-320.8" font-family="Times,serif" font-size="14.00">FEV1PrePercent &lt;= 22.5</text>
<text text-anchor="middle" x="270" y="-305.8" font-family="Times,serif" font-size="14.00">gini = 0.444</text>
<text text-anchor="middle" x="270" y="-290.8" font-family="Times,serif" font-size="14.00">samples = 2</text>
<text text-anchor="middle" x="270" y="-275.8" font-family="Times,serif" font-size="14.00">value = [0.997, 2.006]</text>
<text text-anchor="middle" x="270" y="-260.8" font-family="Times,serif" font-size="14.00">class = Obstructive</text>
</g>
<!-- 1&#45;&gt;2 -->
<g id="edge2" class="edge">
<title>1&#45;&gt;2</title>
<path fill="none" stroke="black" d="M456.94,-388.09C431.86,-376.67 404.94,-364.42 379.57,-352.87"/>
<polygon fill="black" stroke="black" points="380.84,-349.61 370.29,-348.65 377.94,-355.98 380.84,-349.61"/>
</g>
<!-- 5 -->
<g id="node6" class="node">
<title>5</title>
<polygon fill="none" stroke="black" points="654,-351 466,-351 466,-253 654,-253 654,-351"/>
<text text-anchor="middle" x="560" y="-335.8" font-family="Times,serif" font-size="14.00">node #5</text>
<text text-anchor="middle" x="560" y="-320.8" font-family="Times,serif" font-size="14.00">FEFPostVal &lt;= 0.52</text>
<text text-anchor="middle" x="560" y="-305.8" font-family="Times,serif" font-size="14.00">gini = 0.084</text>
<text text-anchor="middle" x="560" y="-290.8" font-family="Times,serif" font-size="14.00">samples = 30</text>
<text text-anchor="middle" x="560" y="-275.8" font-family="Times,serif" font-size="14.00">value = [43.868, 2.006]</text>
<text text-anchor="middle" x="560" y="-260.8" font-family="Times,serif" font-size="14.00">class = Non&#45;obstructive</text>
</g>
<!-- 1&#45;&gt;5 -->
<g id="edge5" class="edge">
<title>1&#45;&gt;5</title>
<path fill="none" stroke="black" d="M560,-386.97C560,-378.69 560,-370 560,-361.48"/>
<polygon fill="black" stroke="black" points="563.5,-361.21 560,-351.21 556.5,-361.21 563.5,-361.21"/>
</g>
<!-- 3 -->
<g id="node4" class="node">
<title>3</title>
<polygon fill="none" stroke="black" points="158,-209.5 0,-209.5 0,-126.5 158,-126.5 158,-209.5"/>
<text text-anchor="middle" x="79" y="-194.3" font-family="Times,serif" font-size="14.00">node #3</text>
<text text-anchor="middle" x="79" y="-179.3" font-family="Times,serif" font-size="14.00">gini = 0.0</text>
<text text-anchor="middle" x="79" y="-164.3" font-family="Times,serif" font-size="14.00">samples = 1</text>
<text text-anchor="middle" x="79" y="-149.3" font-family="Times,serif" font-size="14.00">value = [0.0, 2.006]</text>
<text text-anchor="middle" x="79" y="-134.3" font-family="Times,serif" font-size="14.00">class = Obstructive</text>
</g>
<!-- 2&#45;&gt;3 -->
<g id="edge3" class="edge">
<title>2&#45;&gt;3</title>
<path fill="none" stroke="black" d="M200.5,-252.97C182.81,-240.75 163.83,-227.63 146.26,-215.48"/>
<polygon fill="black" stroke="black" points="147.97,-212.41 137.75,-209.6 143.99,-218.17 147.97,-212.41"/>
</g>
<!-- 4 -->
<g id="node5" class="node">
<title>4</title>
<polygon fill="none" stroke="black" points="364,-209.5 176,-209.5 176,-126.5 364,-126.5 364,-209.5"/>
<text text-anchor="middle" x="270" y="-194.3" font-family="Times,serif" font-size="14.00">node #4</text>
<text text-anchor="middle" x="270" y="-179.3" font-family="Times,serif" font-size="14.00">gini = 0.0</text>
<text text-anchor="middle" x="270" y="-164.3" font-family="Times,serif" font-size="14.00">samples = 1</text>
<text text-anchor="middle" x="270" y="-149.3" font-family="Times,serif" font-size="14.00">value = [0.997, 0.0]</text>
<text text-anchor="middle" x="270" y="-134.3" font-family="Times,serif" font-size="14.00">class = Non&#45;obstructive</text>
</g>
<!-- 2&#45;&gt;4 -->
<g id="edge4" class="edge">
<title>2&#45;&gt;4</title>
<path fill="none" stroke="black" d="M270,-252.97C270,-242.25 270,-230.84 270,-219.99"/>
<polygon fill="black" stroke="black" points="273.5,-219.82 270,-209.82 266.5,-219.82 273.5,-219.82"/>
</g>
<!-- 6 -->
<g id="node7" class="node">
<title>6</title>
<polygon fill="none" stroke="black" points="540,-209.5 382,-209.5 382,-126.5 540,-126.5 540,-209.5"/>
<text text-anchor="middle" x="461" y="-194.3" font-family="Times,serif" font-size="14.00">node #6</text>
<text text-anchor="middle" x="461" y="-179.3" font-family="Times,serif" font-size="14.00">gini = 0.0</text>
<text text-anchor="middle" x="461" y="-164.3" font-family="Times,serif" font-size="14.00">samples = 2</text>
<text text-anchor="middle" x="461" y="-149.3" font-family="Times,serif" font-size="14.00">value = [0.0, 2.006]</text>
<text text-anchor="middle" x="461" y="-134.3" font-family="Times,serif" font-size="14.00">class = Obstructive</text>
</g>
<!-- 5&#45;&gt;6 -->
<g id="edge6" class="edge">
<title>5&#45;&gt;6</title>
<path fill="none" stroke="black" d="M523.98,-252.97C515.44,-241.58 506.32,-229.42 497.74,-217.99"/>
<polygon fill="black" stroke="black" points="500.41,-215.72 491.61,-209.82 494.81,-219.92 500.41,-215.72"/>
</g>
<!-- 7 -->
<g id="node8" class="node">
<title>7</title>
<polygon fill="none" stroke="black" points="746,-209.5 558,-209.5 558,-126.5 746,-126.5 746,-209.5"/>
<text text-anchor="middle" x="652" y="-194.3" font-family="Times,serif" font-size="14.00">node #7</text>
<text text-anchor="middle" x="652" y="-179.3" font-family="Times,serif" font-size="14.00">gini = 0.0</text>
<text text-anchor="middle" x="652" y="-164.3" font-family="Times,serif" font-size="14.00">samples = 28</text>
<text text-anchor="middle" x="652" y="-149.3" font-family="Times,serif" font-size="14.00">value = [43.868, 0.0]</text>
<text text-anchor="middle" x="652" y="-134.3" font-family="Times,serif" font-size="14.00">class = Non&#45;obstructive</text>
</g>
<!-- 5&#45;&gt;7 -->
<g id="edge7" class="edge">
<title>5&#45;&gt;7</title>
<path fill="none" stroke="black" d="M593.47,-252.97C601.34,-241.69 609.72,-229.66 617.62,-218.32"/>
<polygon fill="black" stroke="black" points="620.71,-220.02 623.55,-209.82 614.96,-216.02 620.71,-220.02"/>
</g>
<!-- 9 -->
<g id="node10" class="node">
<title>9</title>
<polygon fill="none" stroke="black" points="1082.5,-351 879.5,-351 879.5,-253 1082.5,-253 1082.5,-351"/>
<text text-anchor="middle" x="981" y="-335.8" font-family="Times,serif" font-size="14.00">node #9</text>
<text text-anchor="middle" x="981" y="-320.8" font-family="Times,serif" font-size="14.00">FEFPostVal &lt;= 0.81</text>
<text text-anchor="middle" x="981" y="-305.8" font-family="Times,serif" font-size="14.00">gini = 0.213</text>
<text text-anchor="middle" x="981" y="-290.8" font-family="Times,serif" font-size="14.00">samples = 68</text>
<text text-anchor="middle" x="981" y="-275.8" font-family="Times,serif" font-size="14.00">value = [13.958, 101.304]</text>
<text text-anchor="middle" x="981" y="-260.8" font-family="Times,serif" font-size="14.00">class = Obstructive</text>
</g>
<!-- 8&#45;&gt;9 -->
<g id="edge9" class="edge">
<title>8&#45;&gt;9</title>
<path fill="none" stroke="black" d="M981,-386.97C981,-378.69 981,-370 981,-361.48"/>
<polygon fill="black" stroke="black" points="984.5,-361.21 981,-351.21 977.5,-361.21 984.5,-361.21"/>
</g>
<!-- 16 -->
<g id="node17" class="node">
<title>16</title>
<polygon fill="none" stroke="black" points="1659.5,-351 1456.5,-351 1456.5,-253 1659.5,-253 1659.5,-351"/>
<text text-anchor="middle" x="1558" y="-335.8" font-family="Times,serif" font-size="14.00">node #16</text>
<text text-anchor="middle" x="1558" y="-320.8" font-family="Times,serif" font-size="14.00">FEV1PostVal &lt;= 2.735</text>
<text text-anchor="middle" x="1558" y="-305.8" font-family="Times,serif" font-size="14.00">gini = 0.462</text>
<text text-anchor="middle" x="1558" y="-290.8" font-family="Times,serif" font-size="14.00">samples = 101</text>
<text text-anchor="middle" x="1558" y="-275.8" font-family="Times,serif" font-size="14.00">value = [107.677, 61.184]</text>
<text text-anchor="middle" x="1558" y="-260.8" font-family="Times,serif" font-size="14.00">class = Non&#45;obstructive</text>
</g>
<!-- 8&#45;&gt;16 -->
<g id="edge16" class="edge">
<title>8&#45;&gt;16</title>
<path fill="none" stroke="black" d="M1088.51,-410.4C1190.54,-387.06 1343.21,-352.14 1446.52,-328.5"/>
<polygon fill="black" stroke="black" points="1447.39,-331.89 1456.36,-326.25 1445.83,-325.07 1447.39,-331.89"/>
</g>
<!-- 10 -->
<g id="node11" class="node">
<title>10</title>
<polygon fill="none" stroke="black" points="970,-217 764,-217 764,-119 970,-119 970,-217"/>
<text text-anchor="middle" x="867" y="-201.8" font-family="Times,serif" font-size="14.00">node #10</text>
<text text-anchor="middle" x="867" y="-186.8" font-family="Times,serif" font-size="14.00">FEV1PostPercent &lt;= 28.5</text>
<text text-anchor="middle" x="867" y="-171.8" font-family="Times,serif" font-size="14.00">gini = 0.028</text>
<text text-anchor="middle" x="867" y="-156.8" font-family="Times,serif" font-size="14.00">samples = 40</text>
<text text-anchor="middle" x="867" y="-141.8" font-family="Times,serif" font-size="14.00">value = [0.997, 70.211]</text>
<text text-anchor="middle" x="867" y="-126.8" font-family="Times,serif" font-size="14.00">class = Obstructive</text>
</g>
<!-- 9&#45;&gt;10 -->
<g id="edge10" class="edge">
<title>9&#45;&gt;10</title>
<path fill="none" stroke="black" d="M939.52,-252.97C931.66,-243.87 923.38,-234.28 915.33,-224.96"/>
<polygon fill="black" stroke="black" points="917.82,-222.49 908.64,-217.21 912.53,-227.07 917.82,-222.49"/>
</g>
<!-- 13 -->
<g id="node14" class="node">
<title>13</title>
<polygon fill="none" stroke="black" points="1203.5,-217 988.5,-217 988.5,-119 1203.5,-119 1203.5,-217"/>
<text text-anchor="middle" x="1096" y="-201.8" font-family="Times,serif" font-size="14.00">node #13</text>
<text text-anchor="middle" x="1096" y="-186.8" font-family="Times,serif" font-size="14.00">FVCPostPercent &lt;= 68.992</text>
<text text-anchor="middle" x="1096" y="-171.8" font-family="Times,serif" font-size="14.00">gini = 0.415</text>
<text text-anchor="middle" x="1096" y="-156.8" font-family="Times,serif" font-size="14.00">samples = 28</text>
<text text-anchor="middle" x="1096" y="-141.8" font-family="Times,serif" font-size="14.00">value = [12.961, 31.093]</text>
<text text-anchor="middle" x="1096" y="-126.8" font-family="Times,serif" font-size="14.00">class = Obstructive</text>
</g>
<!-- 9&#45;&gt;13 -->
<g id="edge13" class="edge">
<title>9&#45;&gt;13</title>
<path fill="none" stroke="black" d="M1022.84,-252.97C1030.77,-243.87 1039.13,-234.28 1047.25,-224.96"/>
<polygon fill="black" stroke="black" points="1050.07,-227.05 1054,-217.21 1044.79,-222.45 1050.07,-227.05"/>
</g>
<!-- 11 -->
<g id="node12" class="node">
<title>11</title>
<polygon fill="none" stroke="black" points="766,-83 590,-83 590,0 766,0 766,-83"/>
<text text-anchor="middle" x="678" y="-67.8" font-family="Times,serif" font-size="14.00">node #11</text>
<text text-anchor="middle" x="678" y="-52.8" font-family="Times,serif" font-size="14.00">gini = 0.179</text>
<text text-anchor="middle" x="678" y="-37.8" font-family="Times,serif" font-size="14.00">samples = 7</text>
<text text-anchor="middle" x="678" y="-22.8" font-family="Times,serif" font-size="14.00">value = [0.997, 9.027]</text>
<text text-anchor="middle" x="678" y="-7.8" font-family="Times,serif" font-size="14.00">class = Obstructive</text>
</g>
<!-- 10&#45;&gt;11 -->
<g id="edge11" class="edge">
<title>10&#45;&gt;11</title>
<path fill="none" stroke="black" d="M793.93,-118.87C778.91,-108.97 763.12,-98.57 748.2,-88.74"/>
<polygon fill="black" stroke="black" points="749.81,-85.61 739.53,-83.03 745.96,-91.46 749.81,-85.61"/>
</g>
<!-- 12 -->
<g id="node13" class="node">
<title>12</title>
<polygon fill="none" stroke="black" points="950.5,-83 783.5,-83 783.5,0 950.5,0 950.5,-83"/>
<text text-anchor="middle" x="867" y="-67.8" font-family="Times,serif" font-size="14.00">node #12</text>
<text text-anchor="middle" x="867" y="-52.8" font-family="Times,serif" font-size="14.00">gini = &#45;0.0</text>
<text text-anchor="middle" x="867" y="-37.8" font-family="Times,serif" font-size="14.00">samples = 33</text>
<text text-anchor="middle" x="867" y="-22.8" font-family="Times,serif" font-size="14.00">value = [0.0, 61.184]</text>
<text text-anchor="middle" x="867" y="-7.8" font-family="Times,serif" font-size="14.00">class = Obstructive</text>
</g>
<!-- 10&#45;&gt;12 -->
<g id="edge12" class="edge">
<title>10&#45;&gt;12</title>
<path fill="none" stroke="black" d="M867,-118.87C867,-110.5 867,-101.77 867,-93.33"/>
<polygon fill="black" stroke="black" points="870.5,-93.23 867,-83.23 863.5,-93.23 870.5,-93.23"/>
</g>
<!-- 14 -->
<g id="node15" class="node">
<title>14</title>
<polygon fill="none" stroke="black" points="1157,-83 969,-83 969,0 1157,0 1157,-83"/>
<text text-anchor="middle" x="1063" y="-67.8" font-family="Times,serif" font-size="14.00">node #14</text>
<text text-anchor="middle" x="1063" y="-52.8" font-family="Times,serif" font-size="14.00">gini = 0.472</text>
<text text-anchor="middle" x="1063" y="-37.8" font-family="Times,serif" font-size="14.00">samples = 12</text>
<text text-anchor="middle" x="1063" y="-22.8" font-family="Times,serif" font-size="14.00">value = [12.961, 8.024]</text>
<text text-anchor="middle" x="1063" y="-7.8" font-family="Times,serif" font-size="14.00">class = Non&#45;obstructive</text>
</g>
<!-- 13&#45;&gt;14 -->
<g id="edge14" class="edge">
<title>13&#45;&gt;14</title>
<path fill="none" stroke="black" d="M1083.24,-118.87C1081,-110.41 1078.66,-101.58 1076.4,-93.06"/>
<polygon fill="black" stroke="black" points="1079.74,-92 1073.8,-83.23 1072.98,-93.79 1079.74,-92"/>
</g>
<!-- 15 -->
<g id="node16" class="node">
<title>15</title>
<polygon fill="none" stroke="black" points="1342.5,-83 1175.5,-83 1175.5,0 1342.5,0 1342.5,-83"/>
<text text-anchor="middle" x="1259" y="-67.8" font-family="Times,serif" font-size="14.00">node #15</text>
<text text-anchor="middle" x="1259" y="-52.8" font-family="Times,serif" font-size="14.00">gini = &#45;0.0</text>
<text text-anchor="middle" x="1259" y="-37.8" font-family="Times,serif" font-size="14.00">samples = 16</text>
<text text-anchor="middle" x="1259" y="-22.8" font-family="Times,serif" font-size="14.00">value = [0.0, 23.069]</text>
<text text-anchor="middle" x="1259" y="-7.8" font-family="Times,serif" font-size="14.00">class = Obstructive</text>
</g>
<!-- 13&#45;&gt;15 -->
<g id="edge15" class="edge">
<title>13&#45;&gt;15</title>
<path fill="none" stroke="black" d="M1159.02,-118.87C1171.73,-109.15 1185.08,-98.96 1197.73,-89.3"/>
<polygon fill="black" stroke="black" points="1200.11,-91.88 1205.93,-83.03 1195.86,-86.32 1200.11,-91.88"/>
</g>
<!-- 17 -->
<g id="node18" class="node">
<title>17</title>
<polygon fill="none" stroke="black" points="1659.5,-217 1456.5,-217 1456.5,-119 1659.5,-119 1659.5,-217"/>
<text text-anchor="middle" x="1558" y="-201.8" font-family="Times,serif" font-size="14.00">node #17</text>
<text text-anchor="middle" x="1558" y="-186.8" font-family="Times,serif" font-size="14.00">FEFPostVal &lt;= 2.855</text>
<text text-anchor="middle" x="1558" y="-171.8" font-family="Times,serif" font-size="14.00">gini = 0.408</text>
<text text-anchor="middle" x="1558" y="-156.8" font-family="Times,serif" font-size="14.00">samples = 87</text>
<text text-anchor="middle" x="1558" y="-141.8" font-family="Times,serif" font-size="14.00">value = [105.683, 42.127]</text>
<text text-anchor="middle" x="1558" y="-126.8" font-family="Times,serif" font-size="14.00">class = Non&#45;obstructive</text>
</g>
<!-- 16&#45;&gt;17 -->
<g id="edge17" class="edge">
<title>16&#45;&gt;17</title>
<path fill="none" stroke="black" d="M1558,-252.97C1558,-244.69 1558,-236 1558,-227.48"/>
<polygon fill="black" stroke="black" points="1561.5,-227.21 1558,-217.21 1554.5,-227.21 1561.5,-227.21"/>
</g>
<!-- 20 -->
<g id="node21" class="node">
<title>20</title>
<polygon fill="none" stroke="black" points="1963.5,-217 1778.5,-217 1778.5,-119 1963.5,-119 1963.5,-217"/>
<text text-anchor="middle" x="1871" y="-201.8" font-family="Times,serif" font-size="14.00">node #20</text>
<text text-anchor="middle" x="1871" y="-186.8" font-family="Times,serif" font-size="14.00">FEFPreVal &lt;= 3.7</text>
<text text-anchor="middle" x="1871" y="-171.8" font-family="Times,serif" font-size="14.00">gini = 0.171</text>
<text text-anchor="middle" x="1871" y="-156.8" font-family="Times,serif" font-size="14.00">samples = 14</text>
<text text-anchor="middle" x="1871" y="-141.8" font-family="Times,serif" font-size="14.00">value = [1.994, 19.057]</text>
<text text-anchor="middle" x="1871" y="-126.8" font-family="Times,serif" font-size="14.00">class = Obstructive</text>
</g>
<!-- 16&#45;&gt;20 -->
<g id="edge20" class="edge">
<title>16&#45;&gt;20</title>
<path fill="none" stroke="black" d="M1659.62,-258.14C1694.69,-243.36 1733.96,-226.79 1769.06,-211.99"/>
<polygon fill="black" stroke="black" points="1770.5,-215.18 1778.36,-208.07 1767.78,-208.73 1770.5,-215.18"/>
</g>
<!-- 18 -->
<g id="node19" class="node">
<title>18</title>
<polygon fill="none" stroke="black" points="1554,-83 1360,-83 1360,0 1554,0 1554,-83"/>
<text text-anchor="middle" x="1457" y="-67.8" font-family="Times,serif" font-size="14.00">node #18</text>
<text text-anchor="middle" x="1457" y="-52.8" font-family="Times,serif" font-size="14.00">gini = 0.482</text>
<text text-anchor="middle" x="1457" y="-37.8" font-family="Times,serif" font-size="14.00">samples = 54</text>
<text text-anchor="middle" x="1457" y="-22.8" font-family="Times,serif" font-size="14.00">value = [55.832, 38.114]</text>
<text text-anchor="middle" x="1457" y="-7.8" font-family="Times,serif" font-size="14.00">class = Non&#45;obstructive</text>
</g>
<!-- 17&#45;&gt;18 -->
<g id="edge18" class="edge">
<title>17&#45;&gt;18</title>
<path fill="none" stroke="black" d="M1518.95,-118.87C1511.57,-109.76 1503.84,-100.23 1496.44,-91.12"/>
<polygon fill="black" stroke="black" points="1499.06,-88.79 1490.04,-83.23 1493.62,-93.2 1499.06,-88.79"/>
</g>
<!-- 19 -->
<g id="node20" class="node">
<title>19</title>
<polygon fill="none" stroke="black" points="1760,-83 1572,-83 1572,0 1760,0 1760,-83"/>
<text text-anchor="middle" x="1666" y="-67.8" font-family="Times,serif" font-size="14.00">node #19</text>
<text text-anchor="middle" x="1666" y="-52.8" font-family="Times,serif" font-size="14.00">gini = 0.138</text>
<text text-anchor="middle" x="1666" y="-37.8" font-family="Times,serif" font-size="14.00">samples = 33</text>
<text text-anchor="middle" x="1666" y="-22.8" font-family="Times,serif" font-size="14.00">value = [49.85, 4.012]</text>
<text text-anchor="middle" x="1666" y="-7.8" font-family="Times,serif" font-size="14.00">class = Non&#45;obstructive</text>
</g>
<!-- 17&#45;&gt;19 -->
<g id="edge19" class="edge">
<title>17&#45;&gt;19</title>
<path fill="none" stroke="black" d="M1599.76,-118.87C1607.73,-109.67 1616.08,-100.04 1624.07,-90.84"/>
<polygon fill="black" stroke="black" points="1626.76,-93.08 1630.67,-83.23 1621.47,-88.49 1626.76,-93.08"/>
</g>
<!-- 21 -->
<g id="node22" class="node">
<title>21</title>
<polygon fill="none" stroke="black" points="1963.5,-83 1778.5,-83 1778.5,0 1963.5,0 1963.5,-83"/>
<text text-anchor="middle" x="1871" y="-67.8" font-family="Times,serif" font-size="14.00">node #21</text>
<text text-anchor="middle" x="1871" y="-52.8" font-family="Times,serif" font-size="14.00">gini = 0.094</text>
<text text-anchor="middle" x="1871" y="-37.8" font-family="Times,serif" font-size="14.00">samples = 13</text>
<text text-anchor="middle" x="1871" y="-22.8" font-family="Times,serif" font-size="14.00">value = [0.997, 19.057]</text>
<text text-anchor="middle" x="1871" y="-7.8" font-family="Times,serif" font-size="14.00">class = Obstructive</text>
</g>
<!-- 20&#45;&gt;21 -->
<g id="edge21" class="edge">
<title>20&#45;&gt;21</title>
<path fill="none" stroke="black" d="M1871,-118.87C1871,-110.5 1871,-101.77 1871,-93.33"/>
<polygon fill="black" stroke="black" points="1874.5,-93.23 1871,-83.23 1867.5,-93.23 1874.5,-93.23"/>
</g>
<!-- 22 -->
<g id="node23" class="node">
<title>22</title>
<polygon fill="none" stroke="black" points="2170,-83 1982,-83 1982,0 2170,0 2170,-83"/>
<text text-anchor="middle" x="2076" y="-67.8" font-family="Times,serif" font-size="14.00">node #22</text>
<text text-anchor="middle" x="2076" y="-52.8" font-family="Times,serif" font-size="14.00">gini = 0.0</text>
<text text-anchor="middle" x="2076" y="-37.8" font-family="Times,serif" font-size="14.00">samples = 1</text>
<text text-anchor="middle" x="2076" y="-22.8" font-family="Times,serif" font-size="14.00">value = [0.997, 0.0]</text>
<text text-anchor="middle" x="2076" y="-7.8" font-family="Times,serif" font-size="14.00">class = Non&#45;obstructive</text>
</g>
<!-- 20&#45;&gt;22 -->
<g id="edge22" class="edge">
<title>20&#45;&gt;22</title>
<path fill="none" stroke="black" d="M1950.26,-118.87C1966.7,-108.88 1983.99,-98.38 2000.31,-88.47"/>
<polygon fill="black" stroke="black" points="2002.53,-91.21 2009.26,-83.03 1998.9,-85.23 2002.53,-91.21"/>
</g>
</g>
</svg>
