<?xml version="1.0" encoding="UTF-8" standalone="no"?>
<!DOCTYPE svg PUBLIC "-//W3C//DTD SVG 1.1//EN"
 "http://www.w3.org/Graphics/SVG/1.1/DTD/svg11.dtd">
<!-- Generated by graphviz version 2.43.0 (0)
 -->
<!-- Title: Tree Pages: 1 -->
<svg width="2001pt" height="627pt"
 viewBox="0.00 0.00 2000.50 627.00" xmlns="http://www.w3.org/2000/svg" xmlns:xlink="http://www.w3.org/1999/xlink">
<g id="graph0" class="graph" transform="scale(1 1) rotate(0) translate(4 623)">
<title>Tree</title>
<polygon fill="white" stroke="transparent" points="-4,4 -4,-623 1996.5,-623 1996.5,4 -4,4"/>
<!-- 0 -->
<g id="node1" class="node">
<title>0</title>
<polygon fill="none" stroke="black" points="857.5,-619 681.5,-619 681.5,-521 857.5,-521 857.5,-619"/>
<text text-anchor="middle" x="769.5" y="-603.8" font-family="Times,serif" font-size="14.00">node #0</text>
<text text-anchor="middle" x="769.5" y="-588.8" font-family="Times,serif" font-size="14.00">FVCPreVal &lt;= 1.565</text>
<text text-anchor="middle" x="769.5" y="-573.8" font-family="Times,serif" font-size="14.00">gini = 0.5</text>
<text text-anchor="middle" x="769.5" y="-558.8" font-family="Times,serif" font-size="14.00">samples = 201</text>
<text text-anchor="middle" x="769.5" y="-543.8" font-family="Times,serif" font-size="14.00">value = [166.5, 166.5]</text>
<text text-anchor="middle" x="769.5" y="-528.8" font-family="Times,serif" font-size="14.00">class = Obstructive</text>
</g>
<!-- 1 -->
<g id="node2" class="node">
<title>1</title>
<polygon fill="none" stroke="black" points="675,-485 478,-485 478,-387 675,-387 675,-485"/>
<text text-anchor="middle" x="576.5" y="-469.8" font-family="Times,serif" font-size="14.00">node #1</text>
<text text-anchor="middle" x="576.5" y="-454.8" font-family="Times,serif" font-size="14.00">FEFPostPercent &lt;= 30.5</text>
<text text-anchor="middle" x="576.5" y="-439.8" font-family="Times,serif" font-size="14.00">gini = 0.265</text>
<text text-anchor="middle" x="576.5" y="-424.8" font-family="Times,serif" font-size="14.00">samples = 58</text>
<text text-anchor="middle" x="576.5" y="-409.8" font-family="Times,serif" font-size="14.00">value = [80.444, 15.039]</text>
<text text-anchor="middle" x="576.5" y="-394.8" font-family="Times,serif" font-size="14.00">class = Non&#45;obstructive</text>
</g>
<!-- 0&#45;&gt;1 -->
<g id="edge1" class="edge">
<title>0&#45;&gt;1</title>
<path fill="none" stroke="black" d="M699.28,-520.97C685.04,-511.24 669.98,-500.93 655.47,-491.01"/>
<polygon fill="black" stroke="black" points="657.22,-487.97 646.99,-485.21 653.27,-493.75 657.22,-487.97"/>
<text text-anchor="middle" x="651.61" y="-506.08" font-family="Times,serif" font-size="14.00">True</text>
</g>
<!-- 12 -->
<g id="node13" class="node">
<title>12</title>
<polygon fill="none" stroke="black" points="1086,-485 883,-485 883,-387 1086,-387 1086,-485"/>
<text text-anchor="middle" x="984.5" y="-469.8" font-family="Times,serif" font-size="14.00">node #12</text>
<text text-anchor="middle" x="984.5" y="-454.8" font-family="Times,serif" font-size="14.00">FEFPrePercent &lt;= 58.5</text>
<text text-anchor="middle" x="984.5" y="-439.8" font-family="Times,serif" font-size="14.00">gini = 0.462</text>
<text text-anchor="middle" x="984.5" y="-424.8" font-family="Times,serif" font-size="14.00">samples = 143</text>
<text text-anchor="middle" x="984.5" y="-409.8" font-family="Times,serif" font-size="14.00">value = [86.056, 151.461]</text>
<text text-anchor="middle" x="984.5" y="-394.8" font-family="Times,serif" font-size="14.00">class = Obstructive</text>
</g>
<!-- 0&#45;&gt;12 -->
<g id="edge12" class="edge">
<title>0&#45;&gt;12</title>
<path fill="none" stroke="black" d="M847.73,-520.97C863.88,-511.05 880.99,-500.55 897.44,-490.45"/>
<polygon fill="black" stroke="black" points="899.28,-493.43 905.97,-485.21 895.62,-487.46 899.28,-493.43"/>
<text text-anchor="middle" x="900.15" y="-505.83" font-family="Times,serif" font-size="14.00">False</text>
</g>
<!-- 2 -->
<g id="node3" class="node">
<title>2</title>
<polygon fill="none" stroke="black" points="368.5,-351 192.5,-351 192.5,-253 368.5,-253 368.5,-351"/>
<text text-anchor="middle" x="280.5" y="-335.8" font-family="Times,serif" font-size="14.00">node #2</text>
<text text-anchor="middle" x="280.5" y="-320.8" font-family="Times,serif" font-size="14.00">FEV1PreVal &lt;= 0.725</text>
<text text-anchor="middle" x="280.5" y="-305.8" font-family="Times,serif" font-size="14.00">gini = 0.391</text>
<text text-anchor="middle" x="280.5" y="-290.8" font-family="Times,serif" font-size="14.00">samples = 12</text>
<text text-anchor="middle" x="280.5" y="-275.8" font-family="Times,serif" font-size="14.00">value = [4.677, 12.89]</text>
<text text-anchor="middle" x="280.5" y="-260.8" font-family="Times,serif" font-size="14.00">class = Obstructive</text>
</g>
<!-- 1&#45;&gt;2 -->
<g id="edge2" class="edge">
<title>1&#45;&gt;2</title>
<path fill="none" stroke="black" d="M477.94,-391.05C445.79,-376.71 410.13,-360.81 378.06,-346.51"/>
<polygon fill="black" stroke="black" points="379.24,-343.2 368.68,-342.32 376.38,-349.59 379.24,-343.2"/>
</g>
<!-- 7 -->
<g id="node8" class="node">
<title>7</title>
<polygon fill="none" stroke="black" points="670.5,-351 482.5,-351 482.5,-253 670.5,-253 670.5,-351"/>
<text text-anchor="middle" x="576.5" y="-335.8" font-family="Times,serif" font-size="14.00">node #7</text>
<text text-anchor="middle" x="576.5" y="-320.8" font-family="Times,serif" font-size="14.00">FEV1PostVal &lt;= 2.135</text>
<text text-anchor="middle" x="576.5" y="-305.8" font-family="Times,serif" font-size="14.00">gini = 0.054</text>
<text text-anchor="middle" x="576.5" y="-290.8" font-family="Times,serif" font-size="14.00">samples = 46</text>
<text text-anchor="middle" x="576.5" y="-275.8" font-family="Times,serif" font-size="14.00">value = [75.767, 2.148]</text>
<text text-anchor="middle" x="576.5" y="-260.8" font-family="Times,serif" font-size="14.00">class = Non&#45;obstructive</text>
</g>
<!-- 1&#45;&gt;7 -->
<g id="edge7" class="edge">
<title>1&#45;&gt;7</title>
<path fill="none" stroke="black" d="M576.5,-386.97C576.5,-378.69 576.5,-370 576.5,-361.48"/>
<polygon fill="black" stroke="black" points="580,-361.21 576.5,-351.21 573,-361.21 580,-361.21"/>
</g>
<!-- 3 -->
<g id="node4" class="node">
<title>3</title>
<polygon fill="none" stroke="black" points="167,-209.5 0,-209.5 0,-126.5 167,-126.5 167,-209.5"/>
<text text-anchor="middle" x="83.5" y="-194.3" font-family="Times,serif" font-size="14.00">node #3</text>
<text text-anchor="middle" x="83.5" y="-179.3" font-family="Times,serif" font-size="14.00">gini = 0.0</text>
<text text-anchor="middle" x="83.5" y="-164.3" font-family="Times,serif" font-size="14.00">samples = 7</text>
<text text-anchor="middle" x="83.5" y="-149.3" font-family="Times,serif" font-size="14.00">value = [0.0, 10.742]</text>
<text text-anchor="middle" x="83.5" y="-134.3" font-family="Times,serif" font-size="14.00">class = Obstructive</text>
</g>
<!-- 2&#45;&gt;3 -->
<g id="edge3" class="edge">
<title>2&#45;&gt;3</title>
<path fill="none" stroke="black" d="M208.82,-252.97C190.57,-240.75 171,-227.63 152.87,-215.48"/>
<polygon fill="black" stroke="black" points="154.35,-212.26 144.1,-209.6 150.46,-218.08 154.35,-212.26"/>
</g>
<!-- 4 -->
<g id="node5" class="node">
<title>4</title>
<polygon fill="none" stroke="black" points="376,-217 185,-217 185,-119 376,-119 376,-217"/>
<text text-anchor="middle" x="280.5" y="-201.8" font-family="Times,serif" font-size="14.00">node #4</text>
<text text-anchor="middle" x="280.5" y="-186.8" font-family="Times,serif" font-size="14.00">FEFPrePercent &lt;= 28.5</text>
<text text-anchor="middle" x="280.5" y="-171.8" font-family="Times,serif" font-size="14.00">gini = 0.431</text>
<text text-anchor="middle" x="280.5" y="-156.8" font-family="Times,serif" font-size="14.00">samples = 5</text>
<text text-anchor="middle" x="280.5" y="-141.8" font-family="Times,serif" font-size="14.00">value = [4.677, 2.148]</text>
<text text-anchor="middle" x="280.5" y="-126.8" font-family="Times,serif" font-size="14.00">class = Non&#45;obstructive</text>
</g>
<!-- 2&#45;&gt;4 -->
<g id="edge4" class="edge">
<title>2&#45;&gt;4</title>
<path fill="none" stroke="black" d="M280.5,-252.97C280.5,-244.69 280.5,-236 280.5,-227.48"/>
<polygon fill="black" stroke="black" points="284,-227.21 280.5,-217.21 277,-227.21 284,-227.21"/>
</g>
<!-- 5 -->
<g id="node6" class="node">
<title>5</title>
<polygon fill="none" stroke="black" points="189.5,-83 1.5,-83 1.5,0 189.5,0 189.5,-83"/>
<text text-anchor="middle" x="95.5" y="-67.8" font-family="Times,serif" font-size="14.00">node #5</text>
<text text-anchor="middle" x="95.5" y="-52.8" font-family="Times,serif" font-size="14.00">gini = 0.0</text>
<text text-anchor="middle" x="95.5" y="-37.8" font-family="Times,serif" font-size="14.00">samples = 3</text>
<text text-anchor="middle" x="95.5" y="-22.8" font-family="Times,serif" font-size="14.00">value = [4.677, 0.0]</text>
<text text-anchor="middle" x="95.5" y="-7.8" font-family="Times,serif" font-size="14.00">class = Non&#45;obstructive</text>
</g>
<!-- 4&#45;&gt;5 -->
<g id="edge5" class="edge">
<title>4&#45;&gt;5</title>
<path fill="none" stroke="black" d="M208.97,-118.87C194.27,-108.97 178.82,-98.57 164.22,-88.74"/>
<polygon fill="black" stroke="black" points="165.98,-85.71 155.73,-83.03 162.07,-91.52 165.98,-85.71"/>
</g>
<!-- 6 -->
<g id="node7" class="node">
<title>6</title>
<polygon fill="none" stroke="black" points="365.5,-83 207.5,-83 207.5,0 365.5,0 365.5,-83"/>
<text text-anchor="middle" x="286.5" y="-67.8" font-family="Times,serif" font-size="14.00">node #6</text>
<text text-anchor="middle" x="286.5" y="-52.8" font-family="Times,serif" font-size="14.00">gini = 0.0</text>
<text text-anchor="middle" x="286.5" y="-37.8" font-family="Times,serif" font-size="14.00">samples = 2</text>
<text text-anchor="middle" x="286.5" y="-22.8" font-family="Times,serif" font-size="14.00">value = [0.0, 2.148]</text>
<text text-anchor="middle" x="286.5" y="-7.8" font-family="Times,serif" font-size="14.00">class = Obstructive</text>
</g>
<!-- 4&#45;&gt;6 -->
<g id="edge6" class="edge">
<title>4&#45;&gt;6</title>
<path fill="none" stroke="black" d="M282.82,-118.87C283.22,-110.5 283.64,-101.77 284.05,-93.33"/>
<polygon fill="black" stroke="black" points="287.55,-93.39 284.54,-83.23 280.56,-93.05 287.55,-93.39"/>
</g>
<!-- 8 -->
<g id="node9" class="node">
<title>8</title>
<polygon fill="none" stroke="black" points="591,-217 394,-217 394,-119 591,-119 591,-217"/>
<text text-anchor="middle" x="492.5" y="-201.8" font-family="Times,serif" font-size="14.00">node #8</text>
<text text-anchor="middle" x="492.5" y="-186.8" font-family="Times,serif" font-size="14.00">FEFPostPercent &lt;= 50.5</text>
<text text-anchor="middle" x="492.5" y="-171.8" font-family="Times,serif" font-size="14.00">gini = 0.028</text>
<text text-anchor="middle" x="492.5" y="-156.8" font-family="Times,serif" font-size="14.00">samples = 45</text>
<text text-anchor="middle" x="492.5" y="-141.8" font-family="Times,serif" font-size="14.00">value = [75.767, 1.074]</text>
<text text-anchor="middle" x="492.5" y="-126.8" font-family="Times,serif" font-size="14.00">class = Non&#45;obstructive</text>
</g>
<!-- 7&#45;&gt;8 -->
<g id="edge8" class="edge">
<title>7&#45;&gt;8</title>
<path fill="none" stroke="black" d="M545.94,-252.97C540.32,-244.15 534.41,-234.85 528.65,-225.8"/>
<polygon fill="black" stroke="black" points="531.5,-223.77 523.18,-217.21 525.6,-227.53 531.5,-223.77"/>
</g>
<!-- 11 -->
<g id="node12" class="node">
<title>11</title>
<polygon fill="none" stroke="black" points="767.5,-209.5 609.5,-209.5 609.5,-126.5 767.5,-126.5 767.5,-209.5"/>
<text text-anchor="middle" x="688.5" y="-194.3" font-family="Times,serif" font-size="14.00">node #11</text>
<text text-anchor="middle" x="688.5" y="-179.3" font-family="Times,serif" font-size="14.00">gini = 0.0</text>
<text text-anchor="middle" x="688.5" y="-164.3" font-family="Times,serif" font-size="14.00">samples = 1</text>
<text text-anchor="middle" x="688.5" y="-149.3" font-family="Times,serif" font-size="14.00">value = [0.0, 1.074]</text>
<text text-anchor="middle" x="688.5" y="-134.3" font-family="Times,serif" font-size="14.00">class = Obstructive</text>
</g>
<!-- 7&#45;&gt;11 -->
<g id="edge11" class="edge">
<title>7&#45;&gt;11</title>
<path fill="none" stroke="black" d="M617.25,-252.97C627.01,-241.47 637.43,-229.18 647.22,-217.66"/>
<polygon fill="black" stroke="black" points="650.07,-219.71 653.87,-209.82 644.73,-215.18 650.07,-219.71"/>
</g>
<!-- 9 -->
<g id="node10" class="node">
<title>9</title>
<polygon fill="none" stroke="black" points="581.5,-83 393.5,-83 393.5,0 581.5,0 581.5,-83"/>
<text text-anchor="middle" x="487.5" y="-67.8" font-family="Times,serif" font-size="14.00">node #9</text>
<text text-anchor="middle" x="487.5" y="-52.8" font-family="Times,serif" font-size="14.00">gini = 0.113</text>
<text text-anchor="middle" x="487.5" y="-37.8" font-family="Times,serif" font-size="14.00">samples = 11</text>
<text text-anchor="middle" x="487.5" y="-22.8" font-family="Times,serif" font-size="14.00">value = [16.837, 1.074]</text>
<text text-anchor="middle" x="487.5" y="-7.8" font-family="Times,serif" font-size="14.00">class = Non&#45;obstructive</text>
</g>
<!-- 8&#45;&gt;9 -->
<g id="edge9" class="edge">
<title>8&#45;&gt;9</title>
<path fill="none" stroke="black" d="M490.57,-118.87C490.23,-110.5 489.88,-101.77 489.54,-93.33"/>
<polygon fill="black" stroke="black" points="493.03,-93.08 489.14,-83.23 486.04,-93.36 493.03,-93.08"/>
</g>
<!-- 10 -->
<g id="node11" class="node">
<title>10</title>
<polygon fill="none" stroke="black" points="787.5,-83 599.5,-83 599.5,0 787.5,0 787.5,-83"/>
<text text-anchor="middle" x="693.5" y="-67.8" font-family="Times,serif" font-size="14.00">node #10</text>
<text text-anchor="middle" x="693.5" y="-52.8" font-family="Times,serif" font-size="14.00">gini = 0.0</text>
<text text-anchor="middle" x="693.5" y="-37.8" font-family="Times,serif" font-size="14.00">samples = 34</text>
<text text-anchor="middle" x="693.5" y="-22.8" font-family="Times,serif" font-size="14.00">value = [58.93, 0.0]</text>
<text text-anchor="middle" x="693.5" y="-7.8" font-family="Times,serif" font-size="14.00">class = Non&#45;obstructive</text>
</g>
<!-- 8&#45;&gt;10 -->
<g id="edge10" class="edge">
<title>8&#45;&gt;10</title>
<path fill="none" stroke="black" d="M570.21,-118.87C586.34,-108.88 603.29,-98.38 619.28,-88.47"/>
<polygon fill="black" stroke="black" points="621.4,-91.27 628.06,-83.03 617.72,-85.32 621.4,-91.27"/>
</g>
<!-- 13 -->
<g id="node14" class="node">
<title>13</title>
<polygon fill="none" stroke="black" points="1083,-351 886,-351 886,-253 1083,-253 1083,-351"/>
<text text-anchor="middle" x="984.5" y="-335.8" font-family="Times,serif" font-size="14.00">node #13</text>
<text text-anchor="middle" x="984.5" y="-320.8" font-family="Times,serif" font-size="14.00">FVCPostPercent &lt;= 46.5</text>
<text text-anchor="middle" x="984.5" y="-305.8" font-family="Times,serif" font-size="14.00">gini = 0.176</text>
<text text-anchor="middle" x="984.5" y="-290.8" font-family="Times,serif" font-size="14.00">samples = 77</text>
<text text-anchor="middle" x="984.5" y="-275.8" font-family="Times,serif" font-size="14.00">value = [12.16, 112.79]</text>
<text text-anchor="middle" x="984.5" y="-260.8" font-family="Times,serif" font-size="14.00">class = Obstructive</text>
</g>
<!-- 12&#45;&gt;13 -->
<g id="edge13" class="edge">
<title>12&#45;&gt;13</title>
<path fill="none" stroke="black" d="M984.5,-386.97C984.5,-378.69 984.5,-370 984.5,-361.48"/>
<polygon fill="black" stroke="black" points="988,-361.21 984.5,-351.21 981,-361.21 988,-361.21"/>
</g>
<!-- 18 -->
<g id="node19" class="node">
<title>18</title>
<polygon fill="none" stroke="black" points="1489.5,-351 1295.5,-351 1295.5,-253 1489.5,-253 1489.5,-351"/>
<text text-anchor="middle" x="1392.5" y="-335.8" font-family="Times,serif" font-size="14.00">node #18</text>
<text text-anchor="middle" x="1392.5" y="-320.8" font-family="Times,serif" font-size="14.00">FVCPreVal &lt;= 2.775</text>
<text text-anchor="middle" x="1392.5" y="-305.8" font-family="Times,serif" font-size="14.00">gini = 0.451</text>
<text text-anchor="middle" x="1392.5" y="-290.8" font-family="Times,serif" font-size="14.00">samples = 66</text>
<text text-anchor="middle" x="1392.5" y="-275.8" font-family="Times,serif" font-size="14.00">value = [73.896, 38.671]</text>
<text text-anchor="middle" x="1392.5" y="-260.8" font-family="Times,serif" font-size="14.00">class = Non&#45;obstructive</text>
</g>
<!-- 12&#45;&gt;18 -->
<g id="edge18" class="edge">
<title>12&#45;&gt;18</title>
<path fill="none" stroke="black" d="M1086.14,-402.12C1146.85,-382.47 1223.89,-357.55 1285.53,-337.61"/>
<polygon fill="black" stroke="black" points="1286.84,-340.86 1295.28,-334.45 1284.69,-334.2 1286.84,-340.86"/>
</g>
<!-- 14 -->
<g id="node15" class="node">
<title>14</title>
<polygon fill="none" stroke="black" points="973.5,-209.5 785.5,-209.5 785.5,-126.5 973.5,-126.5 973.5,-209.5"/>
<text text-anchor="middle" x="879.5" y="-194.3" font-family="Times,serif" font-size="14.00">node #14</text>
<text text-anchor="middle" x="879.5" y="-179.3" font-family="Times,serif" font-size="14.00">gini = 0.0</text>
<text text-anchor="middle" x="879.5" y="-164.3" font-family="Times,serif" font-size="14.00">samples = 1</text>
<text text-anchor="middle" x="879.5" y="-149.3" font-family="Times,serif" font-size="14.00">value = [1.871, 0.0]</text>
<text text-anchor="middle" x="879.5" y="-134.3" font-family="Times,serif" font-size="14.00">class = Non&#45;obstructive</text>
</g>
<!-- 13&#45;&gt;14 -->
<g id="edge14" class="edge">
<title>13&#45;&gt;14</title>
<path fill="none" stroke="black" d="M946.3,-252.97C937.15,-241.47 927.37,-229.18 918.2,-217.66"/>
<polygon fill="black" stroke="black" points="920.93,-215.46 911.97,-209.82 915.45,-219.82 920.93,-215.46"/>
</g>
<!-- 15 -->
<g id="node16" class="node">
<title>15</title>
<polygon fill="none" stroke="black" points="1189,-217 992,-217 992,-119 1189,-119 1189,-217"/>
<text text-anchor="middle" x="1090.5" y="-201.8" font-family="Times,serif" font-size="14.00">node #15</text>
<text text-anchor="middle" x="1090.5" y="-186.8" font-family="Times,serif" font-size="14.00">FEFPostPercent &lt;= 23.0</text>
<text text-anchor="middle" x="1090.5" y="-171.8" font-family="Times,serif" font-size="14.00">gini = 0.153</text>
<text text-anchor="middle" x="1090.5" y="-156.8" font-family="Times,serif" font-size="14.00">samples = 76</text>
<text text-anchor="middle" x="1090.5" y="-141.8" font-family="Times,serif" font-size="14.00">value = [10.289, 112.79]</text>
<text text-anchor="middle" x="1090.5" y="-126.8" font-family="Times,serif" font-size="14.00">class = Obstructive</text>
</g>
<!-- 13&#45;&gt;15 -->
<g id="edge15" class="edge">
<title>13&#45;&gt;15</title>
<path fill="none" stroke="black" d="M1023.07,-252.97C1030.3,-243.96 1037.92,-234.47 1045.34,-225.24"/>
<polygon fill="black" stroke="black" points="1048.25,-227.2 1051.78,-217.21 1042.79,-222.82 1048.25,-227.2"/>
</g>
<!-- 16 -->
<g id="node17" class="node">
<title>16</title>
<polygon fill="none" stroke="black" points="980,-83 823,-83 823,0 980,0 980,-83"/>
<text text-anchor="middle" x="901.5" y="-67.8" font-family="Times,serif" font-size="14.00">node #16</text>
<text text-anchor="middle" x="901.5" y="-52.8" font-family="Times,serif" font-size="14.00">gini = 0.0</text>
<text text-anchor="middle" x="901.5" y="-37.8" font-family="Times,serif" font-size="14.00">samples = 22</text>
<text text-anchor="middle" x="901.5" y="-22.8" font-family="Times,serif" font-size="14.00">value = [0.0, 33.3]</text>
<text text-anchor="middle" x="901.5" y="-7.8" font-family="Times,serif" font-size="14.00">class = Obstructive</text>
</g>
<!-- 15&#45;&gt;16 -->
<g id="edge16" class="edge">
<title>15&#45;&gt;16</title>
<path fill="none" stroke="black" d="M1017.43,-118.87C1002.41,-108.97 986.62,-98.57 971.7,-88.74"/>
<polygon fill="black" stroke="black" points="973.31,-85.61 963.03,-83.03 969.46,-91.46 973.31,-85.61"/>
</g>
<!-- 17 -->
<g id="node18" class="node">
<title>17</title>
<polygon fill="none" stroke="black" points="1183,-83 998,-83 998,0 1183,0 1183,-83"/>
<text text-anchor="middle" x="1090.5" y="-67.8" font-family="Times,serif" font-size="14.00">node #17</text>
<text text-anchor="middle" x="1090.5" y="-52.8" font-family="Times,serif" font-size="14.00">gini = 0.203</text>
<text text-anchor="middle" x="1090.5" y="-37.8" font-family="Times,serif" font-size="14.00">samples = 54</text>
<text text-anchor="middle" x="1090.5" y="-22.8" font-family="Times,serif" font-size="14.00">value = [10.289, 79.49]</text>
<text text-anchor="middle" x="1090.5" y="-7.8" font-family="Times,serif" font-size="14.00">class = Obstructive</text>
</g>
<!-- 15&#45;&gt;17 -->
<g id="edge17" class="edge">
<title>15&#45;&gt;17</title>
<path fill="none" stroke="black" d="M1090.5,-118.87C1090.5,-110.5 1090.5,-101.77 1090.5,-93.33"/>
<polygon fill="black" stroke="black" points="1094,-93.23 1090.5,-83.23 1087,-93.23 1094,-93.23"/>
</g>
<!-- 19 -->
<g id="node20" class="node">
<title>19</title>
<polygon fill="none" stroke="black" points="1491,-217 1294,-217 1294,-119 1491,-119 1491,-217"/>
<text text-anchor="middle" x="1392.5" y="-201.8" font-family="Times,serif" font-size="14.00">node #19</text>
<text text-anchor="middle" x="1392.5" y="-186.8" font-family="Times,serif" font-size="14.00">FVCPostPercent &lt;= 84.5</text>
<text text-anchor="middle" x="1392.5" y="-171.8" font-family="Times,serif" font-size="14.00">gini = 0.21</text>
<text text-anchor="middle" x="1392.5" y="-156.8" font-family="Times,serif" font-size="14.00">samples = 42</text>
<text text-anchor="middle" x="1392.5" y="-141.8" font-family="Times,serif" font-size="14.00">value = [63.607, 8.594]</text>
<text text-anchor="middle" x="1392.5" y="-126.8" font-family="Times,serif" font-size="14.00">class = Non&#45;obstructive</text>
</g>
<!-- 18&#45;&gt;19 -->
<g id="edge19" class="edge">
<title>18&#45;&gt;19</title>
<path fill="none" stroke="black" d="M1392.5,-252.97C1392.5,-244.69 1392.5,-236 1392.5,-227.48"/>
<polygon fill="black" stroke="black" points="1396,-227.21 1392.5,-217.21 1389,-227.21 1396,-227.21"/>
</g>
<!-- 22 -->
<g id="node23" class="node">
<title>22</title>
<polygon fill="none" stroke="black" points="1790.5,-217 1596.5,-217 1596.5,-119 1790.5,-119 1790.5,-217"/>
<text text-anchor="middle" x="1693.5" y="-201.8" font-family="Times,serif" font-size="14.00">node #22</text>
<text text-anchor="middle" x="1693.5" y="-186.8" font-family="Times,serif" font-size="14.00">FVCPreVal &lt;= 3.99</text>
<text text-anchor="middle" x="1693.5" y="-171.8" font-family="Times,serif" font-size="14.00">gini = 0.38</text>
<text text-anchor="middle" x="1693.5" y="-156.8" font-family="Times,serif" font-size="14.00">samples = 24</text>
<text text-anchor="middle" x="1693.5" y="-141.8" font-family="Times,serif" font-size="14.00">value = [10.289, 30.077]</text>
<text text-anchor="middle" x="1693.5" y="-126.8" font-family="Times,serif" font-size="14.00">class = Obstructive</text>
</g>
<!-- 18&#45;&gt;22 -->
<g id="edge22" class="edge">
<title>18&#45;&gt;22</title>
<path fill="none" stroke="black" d="M1489.81,-258.33C1520.84,-244.72 1555.34,-229.59 1586.98,-215.71"/>
<polygon fill="black" stroke="black" points="1588.51,-218.86 1596.27,-211.64 1585.7,-212.45 1588.51,-218.86"/>
</g>
<!-- 20 -->
<g id="node21" class="node">
<title>20</title>
<polygon fill="none" stroke="black" points="1389.5,-83 1201.5,-83 1201.5,0 1389.5,0 1389.5,-83"/>
<text text-anchor="middle" x="1295.5" y="-67.8" font-family="Times,serif" font-size="14.00">node #20</text>
<text text-anchor="middle" x="1295.5" y="-52.8" font-family="Times,serif" font-size="14.00">gini = 0.066</text>
<text text-anchor="middle" x="1295.5" y="-37.8" font-family="Times,serif" font-size="14.00">samples = 36</text>
<text text-anchor="middle" x="1295.5" y="-22.8" font-family="Times,serif" font-size="14.00">value = [60.801, 2.148]</text>
<text text-anchor="middle" x="1295.5" y="-7.8" font-family="Times,serif" font-size="14.00">class = Non&#45;obstructive</text>
</g>
<!-- 19&#45;&gt;20 -->
<g id="edge20" class="edge">
<title>19&#45;&gt;20</title>
<path fill="none" stroke="black" d="M1355,-118.87C1347.98,-109.85 1340.63,-100.43 1333.59,-91.39"/>
<polygon fill="black" stroke="black" points="1336.14,-88.97 1327.23,-83.23 1330.62,-93.27 1336.14,-88.97"/>
</g>
<!-- 21 -->
<g id="node22" class="node">
<title>21</title>
<polygon fill="none" stroke="black" points="1583.5,-83 1407.5,-83 1407.5,0 1583.5,0 1583.5,-83"/>
<text text-anchor="middle" x="1495.5" y="-67.8" font-family="Times,serif" font-size="14.00">node #21</text>
<text text-anchor="middle" x="1495.5" y="-52.8" font-family="Times,serif" font-size="14.00">gini = 0.423</text>
<text text-anchor="middle" x="1495.5" y="-37.8" font-family="Times,serif" font-size="14.00">samples = 6</text>
<text text-anchor="middle" x="1495.5" y="-22.8" font-family="Times,serif" font-size="14.00">value = [2.806, 6.445]</text>
<text text-anchor="middle" x="1495.5" y="-7.8" font-family="Times,serif" font-size="14.00">class = Obstructive</text>
</g>
<!-- 19&#45;&gt;21 -->
<g id="edge21" class="edge">
<title>19&#45;&gt;21</title>
<path fill="none" stroke="black" d="M1432.32,-118.87C1439.85,-109.76 1447.74,-100.23 1455.28,-91.12"/>
<polygon fill="black" stroke="black" points="1458.13,-93.17 1461.8,-83.23 1452.73,-88.7 1458.13,-93.17"/>
</g>
<!-- 23 -->
<g id="node24" class="node">
<title>23</title>
<polygon fill="none" stroke="black" points="1786,-83 1601,-83 1601,0 1786,0 1786,-83"/>
<text text-anchor="middle" x="1693.5" y="-67.8" font-family="Times,serif" font-size="14.00">node #23</text>
<text text-anchor="middle" x="1693.5" y="-52.8" font-family="Times,serif" font-size="14.00">gini = 0.308</text>
<text text-anchor="middle" x="1693.5" y="-37.8" font-family="Times,serif" font-size="14.00">samples = 20</text>
<text text-anchor="middle" x="1693.5" y="-22.8" font-family="Times,serif" font-size="14.00">value = [6.548, 27.929]</text>
<text text-anchor="middle" x="1693.5" y="-7.8" font-family="Times,serif" font-size="14.00">class = Obstructive</text>
</g>
<!-- 22&#45;&gt;23 -->
<g id="edge23" class="edge">
<title>22&#45;&gt;23</title>
<path fill="none" stroke="black" d="M1693.5,-118.87C1693.5,-110.5 1693.5,-101.77 1693.5,-93.33"/>
<polygon fill="black" stroke="black" points="1697,-93.23 1693.5,-83.23 1690,-93.23 1697,-93.23"/>
</g>
<!-- 24 -->
<g id="node25" class="node">
<title>24</title>
<polygon fill="none" stroke="black" points="1992.5,-83 1804.5,-83 1804.5,0 1992.5,0 1992.5,-83"/>
<text text-anchor="middle" x="1898.5" y="-67.8" font-family="Times,serif" font-size="14.00">node #24</text>
<text text-anchor="middle" x="1898.5" y="-52.8" font-family="Times,serif" font-size="14.00">gini = 0.463</text>
<text text-anchor="middle" x="1898.5" y="-37.8" font-family="Times,serif" font-size="14.00">samples = 4</text>
<text text-anchor="middle" x="1898.5" y="-22.8" font-family="Times,serif" font-size="14.00">value = [3.742, 2.148]</text>
<text text-anchor="middle" x="1898.5" y="-7.8" font-family="Times,serif" font-size="14.00">class = Non&#45;obstructive</text>
</g>
<!-- 22&#45;&gt;24 -->
<g id="edge24" class="edge">
<title>22&#45;&gt;24</title>
<path fill="none" stroke="black" d="M1772.76,-118.87C1789.2,-108.88 1806.49,-98.38 1822.81,-88.47"/>
<polygon fill="black" stroke="black" points="1825.03,-91.21 1831.76,-83.03 1821.4,-85.23 1825.03,-91.21"/>
</g>
</g>
</svg>
