<?xml version="1.0" encoding="UTF-8" standalone="no"?>
<!DOCTYPE svg PUBLIC "-//W3C//DTD SVG 1.1//EN"
 "http://www.w3.org/Graphics/SVG/1.1/DTD/svg11.dtd">
<!-- Generated by graphviz version 2.43.0 (0)
 -->
<!-- Title: Tree Pages: 1 -->
<svg width="2344pt" height="627pt"
 viewBox="0.00 0.00 2344.00 627.00" xmlns="http://www.w3.org/2000/svg" xmlns:xlink="http://www.w3.org/1999/xlink">
<g id="graph0" class="graph" transform="scale(1 1) rotate(0) translate(4 623)">
<title>Tree</title>
<polygon fill="white" stroke="transparent" points="-4,4 -4,-623 2340,-623 2340,4 -4,4"/>
<!-- 0 -->
<g id="node1" class="node">
<title>0</title>
<polygon fill="none" stroke="black" points="1172,-619 984,-619 984,-521 1172,-521 1172,-619"/>
<text text-anchor="middle" x="1078" y="-603.8" font-family="Times,serif" font-size="14.00">node #0</text>
<text text-anchor="middle" x="1078" y="-588.8" font-family="Times,serif" font-size="14.00">FEFPreVal &lt;= 1.305</text>
<text text-anchor="middle" x="1078" y="-573.8" font-family="Times,serif" font-size="14.00">gini = 0.5</text>
<text text-anchor="middle" x="1078" y="-558.8" font-family="Times,serif" font-size="14.00">samples = 197</text>
<text text-anchor="middle" x="1078" y="-543.8" font-family="Times,serif" font-size="14.00">value = [166.5, 166.5]</text>
<text text-anchor="middle" x="1078" y="-528.8" font-family="Times,serif" font-size="14.00">class = Non&#45;obstructive</text>
</g>
<!-- 1 -->
<g id="node2" class="node">
<title>1</title>
<polygon fill="none" stroke="black" points="878.5,-485 675.5,-485 675.5,-387 878.5,-387 878.5,-485"/>
<text text-anchor="middle" x="777" y="-469.8" font-family="Times,serif" font-size="14.00">node #1</text>
<text text-anchor="middle" x="777" y="-454.8" font-family="Times,serif" font-size="14.00">FVCPostVal &lt;= 1.21</text>
<text text-anchor="middle" x="777" y="-439.8" font-family="Times,serif" font-size="14.00">gini = 0.301</text>
<text text-anchor="middle" x="777" y="-424.8" font-family="Times,serif" font-size="14.00">samples = 75</text>
<text text-anchor="middle" x="777" y="-409.8" font-family="Times,serif" font-size="14.00">value = [24.061, 106.144]</text>
<text text-anchor="middle" x="777" y="-394.8" font-family="Times,serif" font-size="14.00">class = Obstructive</text>
</g>
<!-- 0&#45;&gt;1 -->
<g id="edge1" class="edge">
<title>0&#45;&gt;1</title>
<path fill="none" stroke="black" d="M984,-527.78C953.54,-514.42 919.47,-499.48 887.91,-485.64"/>
<polygon fill="black" stroke="black" points="889.2,-482.38 878.64,-481.57 886.39,-488.79 889.2,-482.38"/>
<text text-anchor="middle" x="887.73" y="-501.16" font-family="Times,serif" font-size="14.00">True</text>
</g>
<!-- 14 -->
<g id="node15" class="node">
<title>14</title>
<polygon fill="none" stroke="black" points="1537.5,-485 1334.5,-485 1334.5,-387 1537.5,-387 1537.5,-485"/>
<text text-anchor="middle" x="1436" y="-469.8" font-family="Times,serif" font-size="14.00">node #14</text>
<text text-anchor="middle" x="1436" y="-454.8" font-family="Times,serif" font-size="14.00">FVCPreVal &lt;= 2.575</text>
<text text-anchor="middle" x="1436" y="-439.8" font-family="Times,serif" font-size="14.00">gini = 0.418</text>
<text text-anchor="middle" x="1436" y="-424.8" font-family="Times,serif" font-size="14.00">samples = 122</text>
<text text-anchor="middle" x="1436" y="-409.8" font-family="Times,serif" font-size="14.00">value = [142.439, 60.356]</text>
<text text-anchor="middle" x="1436" y="-394.8" font-family="Times,serif" font-size="14.00">class = Non&#45;obstructive</text>
</g>
<!-- 0&#45;&gt;14 -->
<g id="edge14" class="edge">
<title>0&#45;&gt;14</title>
<path fill="none" stroke="black" d="M1172.06,-534.32C1218.87,-517.06 1275.76,-496.08 1324.72,-478.03"/>
<polygon fill="black" stroke="black" points="1326.23,-481.2 1334.41,-474.46 1323.81,-474.63 1326.23,-481.2"/>
<text text-anchor="middle" x="1323.94" y="-493.46" font-family="Times,serif" font-size="14.00">False</text>
</g>
<!-- 2 -->
<g id="node3" class="node">
<title>2</title>
<polygon fill="none" stroke="black" points="549.5,-351 358.5,-351 358.5,-253 549.5,-253 549.5,-351"/>
<text text-anchor="middle" x="454" y="-335.8" font-family="Times,serif" font-size="14.00">node #2</text>
<text text-anchor="middle" x="454" y="-320.8" font-family="Times,serif" font-size="14.00">FVCPrePercent &lt;= 29.0</text>
<text text-anchor="middle" x="454" y="-305.8" font-family="Times,serif" font-size="14.00">gini = 0.21</text>
<text text-anchor="middle" x="454" y="-290.8" font-family="Times,serif" font-size="14.00">samples = 6</text>
<text text-anchor="middle" x="454" y="-275.8" font-family="Times,serif" font-size="14.00">value = [7.699, 1.041]</text>
<text text-anchor="middle" x="454" y="-260.8" font-family="Times,serif" font-size="14.00">class = Non&#45;obstructive</text>
</g>
<!-- 1&#45;&gt;2 -->
<g id="edge2" class="edge">
<title>1&#45;&gt;2</title>
<path fill="none" stroke="black" d="M675.24,-393.42C638.25,-378.3 596.39,-361.19 559.11,-345.96"/>
<polygon fill="black" stroke="black" points="560.32,-342.67 549.74,-342.13 557.67,-349.15 560.32,-342.67"/>
</g>
<!-- 7 -->
<g id="node8" class="node">
<title>7</title>
<polygon fill="none" stroke="black" points="878.5,-351 675.5,-351 675.5,-253 878.5,-253 878.5,-351"/>
<text text-anchor="middle" x="777" y="-335.8" font-family="Times,serif" font-size="14.00">node #7</text>
<text text-anchor="middle" x="777" y="-320.8" font-family="Times,serif" font-size="14.00">FEV1PostVal &lt;= 2.47</text>
<text text-anchor="middle" x="777" y="-305.8" font-family="Times,serif" font-size="14.00">gini = 0.233</text>
<text text-anchor="middle" x="777" y="-290.8" font-family="Times,serif" font-size="14.00">samples = 69</text>
<text text-anchor="middle" x="777" y="-275.8" font-family="Times,serif" font-size="14.00">value = [16.361, 105.103]</text>
<text text-anchor="middle" x="777" y="-260.8" font-family="Times,serif" font-size="14.00">class = Obstructive</text>
</g>
<!-- 1&#45;&gt;7 -->
<g id="edge7" class="edge">
<title>1&#45;&gt;7</title>
<path fill="none" stroke="black" d="M777,-386.97C777,-378.69 777,-370 777,-361.48"/>
<polygon fill="black" stroke="black" points="780.5,-361.21 777,-351.21 773.5,-361.21 780.5,-361.21"/>
</g>
<!-- 3 -->
<g id="node4" class="node">
<title>3</title>
<polygon fill="none" stroke="black" points="342,-217 166,-217 166,-119 342,-119 342,-217"/>
<text text-anchor="middle" x="254" y="-201.8" font-family="Times,serif" font-size="14.00">node #3</text>
<text text-anchor="middle" x="254" y="-186.8" font-family="Times,serif" font-size="14.00">FEV1PreVal &lt;= 0.495</text>
<text text-anchor="middle" x="254" y="-171.8" font-family="Times,serif" font-size="14.00">gini = 0.499</text>
<text text-anchor="middle" x="254" y="-156.8" font-family="Times,serif" font-size="14.00">samples = 2</text>
<text text-anchor="middle" x="254" y="-141.8" font-family="Times,serif" font-size="14.00">value = [0.962, 1.041]</text>
<text text-anchor="middle" x="254" y="-126.8" font-family="Times,serif" font-size="14.00">class = Obstructive</text>
</g>
<!-- 2&#45;&gt;3 -->
<g id="edge3" class="edge">
<title>2&#45;&gt;3</title>
<path fill="none" stroke="black" d="M381.23,-252.97C366.34,-243.14 350.58,-232.74 335.41,-222.73"/>
<polygon fill="black" stroke="black" points="337.33,-219.8 327.05,-217.21 333.47,-225.64 337.33,-219.8"/>
</g>
<!-- 6 -->
<g id="node7" class="node">
<title>6</title>
<polygon fill="none" stroke="black" points="548,-209.5 360,-209.5 360,-126.5 548,-126.5 548,-209.5"/>
<text text-anchor="middle" x="454" y="-194.3" font-family="Times,serif" font-size="14.00">node #6</text>
<text text-anchor="middle" x="454" y="-179.3" font-family="Times,serif" font-size="14.00">gini = 0.0</text>
<text text-anchor="middle" x="454" y="-164.3" font-family="Times,serif" font-size="14.00">samples = 4</text>
<text text-anchor="middle" x="454" y="-149.3" font-family="Times,serif" font-size="14.00">value = [6.737, 0.0]</text>
<text text-anchor="middle" x="454" y="-134.3" font-family="Times,serif" font-size="14.00">class = Non&#45;obstructive</text>
</g>
<!-- 2&#45;&gt;6 -->
<g id="edge6" class="edge">
<title>2&#45;&gt;6</title>
<path fill="none" stroke="black" d="M454,-252.97C454,-242.25 454,-230.84 454,-219.99"/>
<polygon fill="black" stroke="black" points="457.5,-219.82 454,-209.82 450.5,-219.82 457.5,-219.82"/>
</g>
<!-- 4 -->
<g id="node5" class="node">
<title>4</title>
<polygon fill="none" stroke="black" points="158,-83 0,-83 0,0 158,0 158,-83"/>
<text text-anchor="middle" x="79" y="-67.8" font-family="Times,serif" font-size="14.00">node #4</text>
<text text-anchor="middle" x="79" y="-52.8" font-family="Times,serif" font-size="14.00">gini = 0.0</text>
<text text-anchor="middle" x="79" y="-37.8" font-family="Times,serif" font-size="14.00">samples = 1</text>
<text text-anchor="middle" x="79" y="-22.8" font-family="Times,serif" font-size="14.00">value = [0.0, 1.041]</text>
<text text-anchor="middle" x="79" y="-7.8" font-family="Times,serif" font-size="14.00">class = Obstructive</text>
</g>
<!-- 3&#45;&gt;4 -->
<g id="edge4" class="edge">
<title>3&#45;&gt;4</title>
<path fill="none" stroke="black" d="M186.34,-118.87C172.56,-109.06 158.09,-98.77 144.39,-89.02"/>
<polygon fill="black" stroke="black" points="146.15,-85.98 135.97,-83.03 142.09,-91.68 146.15,-85.98"/>
</g>
<!-- 5 -->
<g id="node6" class="node">
<title>5</title>
<polygon fill="none" stroke="black" points="364,-83 176,-83 176,0 364,0 364,-83"/>
<text text-anchor="middle" x="270" y="-67.8" font-family="Times,serif" font-size="14.00">node #5</text>
<text text-anchor="middle" x="270" y="-52.8" font-family="Times,serif" font-size="14.00">gini = 0.0</text>
<text text-anchor="middle" x="270" y="-37.8" font-family="Times,serif" font-size="14.00">samples = 1</text>
<text text-anchor="middle" x="270" y="-22.8" font-family="Times,serif" font-size="14.00">value = [0.962, 0.0]</text>
<text text-anchor="middle" x="270" y="-7.8" font-family="Times,serif" font-size="14.00">class = Non&#45;obstructive</text>
</g>
<!-- 3&#45;&gt;5 -->
<g id="edge5" class="edge">
<title>3&#45;&gt;5</title>
<path fill="none" stroke="black" d="M260.19,-118.87C261.26,-110.5 262.38,-101.77 263.47,-93.33"/>
<polygon fill="black" stroke="black" points="266.96,-93.6 264.77,-83.23 260.02,-92.7 266.96,-93.6"/>
</g>
<!-- 8 -->
<g id="node9" class="node">
<title>8</title>
<polygon fill="none" stroke="black" points="769.5,-217 566.5,-217 566.5,-119 769.5,-119 769.5,-217"/>
<text text-anchor="middle" x="668" y="-201.8" font-family="Times,serif" font-size="14.00">node #8</text>
<text text-anchor="middle" x="668" y="-186.8" font-family="Times,serif" font-size="14.00">FEFPostPercent &lt;= 55.5</text>
<text text-anchor="middle" x="668" y="-171.8" font-family="Times,serif" font-size="14.00">gini = 0.18</text>
<text text-anchor="middle" x="668" y="-156.8" font-family="Times,serif" font-size="14.00">samples = 67</text>
<text text-anchor="middle" x="668" y="-141.8" font-family="Times,serif" font-size="14.00">value = [11.549, 104.062]</text>
<text text-anchor="middle" x="668" y="-126.8" font-family="Times,serif" font-size="14.00">class = Obstructive</text>
</g>
<!-- 7&#45;&gt;8 -->
<g id="edge8" class="edge">
<title>7&#45;&gt;8</title>
<path fill="none" stroke="black" d="M737.34,-252.97C729.83,-243.87 721.91,-234.28 714.21,-224.96"/>
<polygon fill="black" stroke="black" points="716.88,-222.7 707.81,-217.21 711.48,-227.15 716.88,-222.7"/>
</g>
<!-- 11 -->
<g id="node12" class="node">
<title>11</title>
<polygon fill="none" stroke="black" points="984.5,-217 787.5,-217 787.5,-119 984.5,-119 984.5,-217"/>
<text text-anchor="middle" x="886" y="-201.8" font-family="Times,serif" font-size="14.00">node #11</text>
<text text-anchor="middle" x="886" y="-186.8" font-family="Times,serif" font-size="14.00">FEFPostPercent &lt;= 76.5</text>
<text text-anchor="middle" x="886" y="-171.8" font-family="Times,serif" font-size="14.00">gini = 0.292</text>
<text text-anchor="middle" x="886" y="-156.8" font-family="Times,serif" font-size="14.00">samples = 2</text>
<text text-anchor="middle" x="886" y="-141.8" font-family="Times,serif" font-size="14.00">value = [4.812, 1.041]</text>
<text text-anchor="middle" x="886" y="-126.8" font-family="Times,serif" font-size="14.00">class = Non&#45;obstructive</text>
</g>
<!-- 7&#45;&gt;11 -->
<g id="edge11" class="edge">
<title>7&#45;&gt;11</title>
<path fill="none" stroke="black" d="M816.66,-252.97C824.17,-243.87 832.09,-234.28 839.79,-224.96"/>
<polygon fill="black" stroke="black" points="842.52,-227.15 846.19,-217.21 837.12,-222.7 842.52,-227.15"/>
</g>
<!-- 9 -->
<g id="node10" class="node">
<title>9</title>
<polygon fill="none" stroke="black" points="566.5,-83 399.5,-83 399.5,0 566.5,0 566.5,-83"/>
<text text-anchor="middle" x="483" y="-67.8" font-family="Times,serif" font-size="14.00">node #9</text>
<text text-anchor="middle" x="483" y="-52.8" font-family="Times,serif" font-size="14.00">gini = 0.133</text>
<text text-anchor="middle" x="483" y="-37.8" font-family="Times,serif" font-size="14.00">samples = 61</text>
<text text-anchor="middle" x="483" y="-22.8" font-family="Times,serif" font-size="14.00">value = [7.699, 99.9]</text>
<text text-anchor="middle" x="483" y="-7.8" font-family="Times,serif" font-size="14.00">class = Obstructive</text>
</g>
<!-- 8&#45;&gt;9 -->
<g id="edge9" class="edge">
<title>8&#45;&gt;9</title>
<path fill="none" stroke="black" d="M596.47,-118.87C581.77,-108.97 566.32,-98.57 551.72,-88.74"/>
<polygon fill="black" stroke="black" points="553.48,-85.71 543.23,-83.03 549.57,-91.52 553.48,-85.71"/>
</g>
<!-- 10 -->
<g id="node11" class="node">
<title>10</title>
<polygon fill="none" stroke="black" points="751.5,-83 584.5,-83 584.5,0 751.5,0 751.5,-83"/>
<text text-anchor="middle" x="668" y="-67.8" font-family="Times,serif" font-size="14.00">node #10</text>
<text text-anchor="middle" x="668" y="-52.8" font-family="Times,serif" font-size="14.00">gini = 0.499</text>
<text text-anchor="middle" x="668" y="-37.8" font-family="Times,serif" font-size="14.00">samples = 6</text>
<text text-anchor="middle" x="668" y="-22.8" font-family="Times,serif" font-size="14.00">value = [3.85, 4.162]</text>
<text text-anchor="middle" x="668" y="-7.8" font-family="Times,serif" font-size="14.00">class = Obstructive</text>
</g>
<!-- 8&#45;&gt;10 -->
<g id="edge10" class="edge">
<title>8&#45;&gt;10</title>
<path fill="none" stroke="black" d="M668,-118.87C668,-110.5 668,-101.77 668,-93.33"/>
<polygon fill="black" stroke="black" points="671.5,-93.23 668,-83.23 664.5,-93.23 671.5,-93.23"/>
</g>
<!-- 12 -->
<g id="node13" class="node">
<title>12</title>
<polygon fill="none" stroke="black" points="927,-83 769,-83 769,0 927,0 927,-83"/>
<text text-anchor="middle" x="848" y="-67.8" font-family="Times,serif" font-size="14.00">node #12</text>
<text text-anchor="middle" x="848" y="-52.8" font-family="Times,serif" font-size="14.00">gini = 0.0</text>
<text text-anchor="middle" x="848" y="-37.8" font-family="Times,serif" font-size="14.00">samples = 1</text>
<text text-anchor="middle" x="848" y="-22.8" font-family="Times,serif" font-size="14.00">value = [0.0, 1.041]</text>
<text text-anchor="middle" x="848" y="-7.8" font-family="Times,serif" font-size="14.00">class = Obstructive</text>
</g>
<!-- 11&#45;&gt;12 -->
<g id="edge12" class="edge">
<title>11&#45;&gt;12</title>
<path fill="none" stroke="black" d="M871.31,-118.87C868.73,-110.41 866.03,-101.58 863.43,-93.06"/>
<polygon fill="black" stroke="black" points="866.7,-91.77 860.43,-83.23 860,-93.82 866.7,-91.77"/>
</g>
<!-- 13 -->
<g id="node14" class="node">
<title>13</title>
<polygon fill="none" stroke="black" points="1133,-83 945,-83 945,0 1133,0 1133,-83"/>
<text text-anchor="middle" x="1039" y="-67.8" font-family="Times,serif" font-size="14.00">node #13</text>
<text text-anchor="middle" x="1039" y="-52.8" font-family="Times,serif" font-size="14.00">gini = 0.0</text>
<text text-anchor="middle" x="1039" y="-37.8" font-family="Times,serif" font-size="14.00">samples = 1</text>
<text text-anchor="middle" x="1039" y="-22.8" font-family="Times,serif" font-size="14.00">value = [4.812, 0.0]</text>
<text text-anchor="middle" x="1039" y="-7.8" font-family="Times,serif" font-size="14.00">class = Non&#45;obstructive</text>
</g>
<!-- 11&#45;&gt;13 -->
<g id="edge13" class="edge">
<title>11&#45;&gt;13</title>
<path fill="none" stroke="black" d="M945.15,-118.87C956.91,-109.3 969.23,-99.27 980.95,-89.74"/>
<polygon fill="black" stroke="black" points="983.4,-92.26 988.95,-83.23 978.98,-86.83 983.4,-92.26"/>
</g>
<!-- 15 -->
<g id="node16" class="node">
<title>15</title>
<polygon fill="none" stroke="black" points="1537.5,-351 1334.5,-351 1334.5,-253 1537.5,-253 1537.5,-351"/>
<text text-anchor="middle" x="1436" y="-335.8" font-family="Times,serif" font-size="14.00">node #15</text>
<text text-anchor="middle" x="1436" y="-320.8" font-family="Times,serif" font-size="14.00">FVCPostPercent &lt;= 83.5</text>
<text text-anchor="middle" x="1436" y="-305.8" font-family="Times,serif" font-size="14.00">gini = 0.189</text>
<text text-anchor="middle" x="1436" y="-290.8" font-family="Times,serif" font-size="14.00">samples = 75</text>
<text text-anchor="middle" x="1436" y="-275.8" font-family="Times,serif" font-size="14.00">value = [105.867, 12.488]</text>
<text text-anchor="middle" x="1436" y="-260.8" font-family="Times,serif" font-size="14.00">class = Non&#45;obstructive</text>
</g>
<!-- 14&#45;&gt;15 -->
<g id="edge15" class="edge">
<title>14&#45;&gt;15</title>
<path fill="none" stroke="black" d="M1436,-386.97C1436,-378.69 1436,-370 1436,-361.48"/>
<polygon fill="black" stroke="black" points="1439.5,-361.21 1436,-351.21 1432.5,-361.21 1439.5,-361.21"/>
</g>
<!-- 20 -->
<g id="node21" class="node">
<title>20</title>
<polygon fill="none" stroke="black" points="1842.5,-351 1645.5,-351 1645.5,-253 1842.5,-253 1842.5,-351"/>
<text text-anchor="middle" x="1744" y="-335.8" font-family="Times,serif" font-size="14.00">node #20</text>
<text text-anchor="middle" x="1744" y="-320.8" font-family="Times,serif" font-size="14.00">FVCPostPercent &lt;= 80.5</text>
<text text-anchor="middle" x="1744" y="-305.8" font-family="Times,serif" font-size="14.00">gini = 0.491</text>
<text text-anchor="middle" x="1744" y="-290.8" font-family="Times,serif" font-size="14.00">samples = 47</text>
<text text-anchor="middle" x="1744" y="-275.8" font-family="Times,serif" font-size="14.00">value = [36.572, 47.869]</text>
<text text-anchor="middle" x="1744" y="-260.8" font-family="Times,serif" font-size="14.00">class = Obstructive</text>
</g>
<!-- 14&#45;&gt;20 -->
<g id="edge20" class="edge">
<title>14&#45;&gt;20</title>
<path fill="none" stroke="black" d="M1537.7,-391.41C1569.2,-377.91 1604.01,-363 1635.92,-349.32"/>
<polygon fill="black" stroke="black" points="1637.47,-352.46 1645.28,-345.31 1634.71,-346.03 1637.47,-352.46"/>
</g>
<!-- 16 -->
<g id="node17" class="node">
<title>16</title>
<polygon fill="none" stroke="black" points="1443,-217 1249,-217 1249,-119 1443,-119 1443,-217"/>
<text text-anchor="middle" x="1346" y="-201.8" font-family="Times,serif" font-size="14.00">node #16</text>
<text text-anchor="middle" x="1346" y="-186.8" font-family="Times,serif" font-size="14.00">FEFPreVal &lt;= 1.495</text>
<text text-anchor="middle" x="1346" y="-171.8" font-family="Times,serif" font-size="14.00">gini = 0.105</text>
<text text-anchor="middle" x="1346" y="-156.8" font-family="Times,serif" font-size="14.00">samples = 71</text>
<text text-anchor="middle" x="1346" y="-141.8" font-family="Times,serif" font-size="14.00">value = [105.867, 6.244]</text>
<text text-anchor="middle" x="1346" y="-126.8" font-family="Times,serif" font-size="14.00">class = Non&#45;obstructive</text>
</g>
<!-- 15&#45;&gt;16 -->
<g id="edge16" class="edge">
<title>15&#45;&gt;16</title>
<path fill="none" stroke="black" d="M1403.25,-252.97C1397.17,-244.05 1390.77,-234.66 1384.54,-225.52"/>
<polygon fill="black" stroke="black" points="1387.4,-223.5 1378.87,-217.21 1381.61,-227.45 1387.4,-223.5"/>
</g>
<!-- 19 -->
<g id="node20" class="node">
<title>19</title>
<polygon fill="none" stroke="black" points="1619,-209.5 1461,-209.5 1461,-126.5 1619,-126.5 1619,-209.5"/>
<text text-anchor="middle" x="1540" y="-194.3" font-family="Times,serif" font-size="14.00">node #19</text>
<text text-anchor="middle" x="1540" y="-179.3" font-family="Times,serif" font-size="14.00">gini = 0.0</text>
<text text-anchor="middle" x="1540" y="-164.3" font-family="Times,serif" font-size="14.00">samples = 4</text>
<text text-anchor="middle" x="1540" y="-149.3" font-family="Times,serif" font-size="14.00">value = [0.0, 6.244]</text>
<text text-anchor="middle" x="1540" y="-134.3" font-family="Times,serif" font-size="14.00">class = Obstructive</text>
</g>
<!-- 15&#45;&gt;19 -->
<g id="edge19" class="edge">
<title>15&#45;&gt;19</title>
<path fill="none" stroke="black" d="M1473.84,-252.97C1482.81,-241.58 1492.4,-229.42 1501.4,-217.99"/>
<polygon fill="black" stroke="black" points="1504.4,-219.84 1507.84,-209.82 1498.9,-215.51 1504.4,-219.84"/>
</g>
<!-- 17 -->
<g id="node18" class="node">
<title>17</title>
<polygon fill="none" stroke="black" points="1339,-83 1151,-83 1151,0 1339,0 1339,-83"/>
<text text-anchor="middle" x="1245" y="-67.8" font-family="Times,serif" font-size="14.00">node #17</text>
<text text-anchor="middle" x="1245" y="-52.8" font-family="Times,serif" font-size="14.00">gini = 0.402</text>
<text text-anchor="middle" x="1245" y="-37.8" font-family="Times,serif" font-size="14.00">samples = 12</text>
<text text-anchor="middle" x="1245" y="-22.8" font-family="Times,serif" font-size="14.00">value = [13.474, 5.203]</text>
<text text-anchor="middle" x="1245" y="-7.8" font-family="Times,serif" font-size="14.00">class = Non&#45;obstructive</text>
</g>
<!-- 16&#45;&gt;17 -->
<g id="edge17" class="edge">
<title>16&#45;&gt;17</title>
<path fill="none" stroke="black" d="M1306.95,-118.87C1299.57,-109.76 1291.84,-100.23 1284.44,-91.12"/>
<polygon fill="black" stroke="black" points="1287.06,-88.79 1278.04,-83.23 1281.62,-93.2 1287.06,-88.79"/>
</g>
<!-- 18 -->
<g id="node19" class="node">
<title>18</title>
<polygon fill="none" stroke="black" points="1545,-83 1357,-83 1357,0 1545,0 1545,-83"/>
<text text-anchor="middle" x="1451" y="-67.8" font-family="Times,serif" font-size="14.00">node #18</text>
<text text-anchor="middle" x="1451" y="-52.8" font-family="Times,serif" font-size="14.00">gini = 0.022</text>
<text text-anchor="middle" x="1451" y="-37.8" font-family="Times,serif" font-size="14.00">samples = 59</text>
<text text-anchor="middle" x="1451" y="-22.8" font-family="Times,serif" font-size="14.00">value = [92.393, 1.041]</text>
<text text-anchor="middle" x="1451" y="-7.8" font-family="Times,serif" font-size="14.00">class = Non&#45;obstructive</text>
</g>
<!-- 16&#45;&gt;18 -->
<g id="edge18" class="edge">
<title>16&#45;&gt;18</title>
<path fill="none" stroke="black" d="M1386.6,-118.87C1394.27,-109.76 1402.31,-100.23 1410,-91.12"/>
<polygon fill="black" stroke="black" points="1412.88,-93.13 1416.65,-83.23 1407.53,-88.62 1412.88,-93.13"/>
</g>
<!-- 21 -->
<g id="node22" class="node">
<title>21</title>
<polygon fill="none" stroke="black" points="1838,-217 1650,-217 1650,-119 1838,-119 1838,-217"/>
<text text-anchor="middle" x="1744" y="-201.8" font-family="Times,serif" font-size="14.00">node #21</text>
<text text-anchor="middle" x="1744" y="-186.8" font-family="Times,serif" font-size="14.00">FEFPostVal &lt;= 4.835</text>
<text text-anchor="middle" x="1744" y="-171.8" font-family="Times,serif" font-size="14.00">gini = 0.468</text>
<text text-anchor="middle" x="1744" y="-156.8" font-family="Times,serif" font-size="14.00">samples = 24</text>
<text text-anchor="middle" x="1744" y="-141.8" font-family="Times,serif" font-size="14.00">value = [27.91, 16.65]</text>
<text text-anchor="middle" x="1744" y="-126.8" font-family="Times,serif" font-size="14.00">class = Non&#45;obstructive</text>
</g>
<!-- 20&#45;&gt;21 -->
<g id="edge21" class="edge">
<title>20&#45;&gt;21</title>
<path fill="none" stroke="black" d="M1744,-252.97C1744,-244.69 1744,-236 1744,-227.48"/>
<polygon fill="black" stroke="black" points="1747.5,-227.21 1744,-217.21 1740.5,-227.21 1747.5,-227.21"/>
</g>
<!-- 24 -->
<g id="node25" class="node">
<title>24</title>
<polygon fill="none" stroke="black" points="2129.5,-217 1944.5,-217 1944.5,-119 2129.5,-119 2129.5,-217"/>
<text text-anchor="middle" x="2037" y="-201.8" font-family="Times,serif" font-size="14.00">node #24</text>
<text text-anchor="middle" x="2037" y="-186.8" font-family="Times,serif" font-size="14.00">FEFPreVal &lt;= 2.885</text>
<text text-anchor="middle" x="2037" y="-171.8" font-family="Times,serif" font-size="14.00">gini = 0.34</text>
<text text-anchor="middle" x="2037" y="-156.8" font-family="Times,serif" font-size="14.00">samples = 23</text>
<text text-anchor="middle" x="2037" y="-141.8" font-family="Times,serif" font-size="14.00">value = [8.662, 31.219]</text>
<text text-anchor="middle" x="2037" y="-126.8" font-family="Times,serif" font-size="14.00">class = Obstructive</text>
</g>
<!-- 20&#45;&gt;24 -->
<g id="edge24" class="edge">
<title>20&#45;&gt;24</title>
<path fill="none" stroke="black" d="M1842.79,-256.49C1872.45,-243.13 1905.04,-228.45 1934.91,-214.99"/>
<polygon fill="black" stroke="black" points="1936.4,-218.16 1944.08,-210.86 1933.53,-211.78 1936.4,-218.16"/>
</g>
<!-- 22 -->
<g id="node23" class="node">
<title>22</title>
<polygon fill="none" stroke="black" points="1751,-83 1563,-83 1563,0 1751,0 1751,-83"/>
<text text-anchor="middle" x="1657" y="-67.8" font-family="Times,serif" font-size="14.00">node #22</text>
<text text-anchor="middle" x="1657" y="-52.8" font-family="Times,serif" font-size="14.00">gini = 0.413</text>
<text text-anchor="middle" x="1657" y="-37.8" font-family="Times,serif" font-size="14.00">samples = 22</text>
<text text-anchor="middle" x="1657" y="-22.8" font-family="Times,serif" font-size="14.00">value = [27.91, 11.447]</text>
<text text-anchor="middle" x="1657" y="-7.8" font-family="Times,serif" font-size="14.00">class = Non&#45;obstructive</text>
</g>
<!-- 21&#45;&gt;22 -->
<g id="edge22" class="edge">
<title>21&#45;&gt;22</title>
<path fill="none" stroke="black" d="M1710.36,-118.87C1704.13,-109.95 1697.61,-100.62 1691.36,-91.67"/>
<polygon fill="black" stroke="black" points="1694.06,-89.42 1685.46,-83.23 1688.32,-93.43 1694.06,-89.42"/>
</g>
<!-- 23 -->
<g id="node24" class="node">
<title>23</title>
<polygon fill="none" stroke="black" points="1927,-83 1769,-83 1769,0 1927,0 1927,-83"/>
<text text-anchor="middle" x="1848" y="-67.8" font-family="Times,serif" font-size="14.00">node #23</text>
<text text-anchor="middle" x="1848" y="-52.8" font-family="Times,serif" font-size="14.00">gini = 0.0</text>
<text text-anchor="middle" x="1848" y="-37.8" font-family="Times,serif" font-size="14.00">samples = 2</text>
<text text-anchor="middle" x="1848" y="-22.8" font-family="Times,serif" font-size="14.00">value = [0.0, 5.203]</text>
<text text-anchor="middle" x="1848" y="-7.8" font-family="Times,serif" font-size="14.00">class = Obstructive</text>
</g>
<!-- 21&#45;&gt;23 -->
<g id="edge23" class="edge">
<title>21&#45;&gt;23</title>
<path fill="none" stroke="black" d="M1784.21,-118.87C1791.81,-109.76 1799.77,-100.23 1807.39,-91.12"/>
<polygon fill="black" stroke="black" points="1810.25,-93.15 1813.98,-83.23 1804.88,-88.66 1810.25,-93.15"/>
</g>
<!-- 25 -->
<g id="node26" class="node">
<title>25</title>
<polygon fill="none" stroke="black" points="2129.5,-83 1944.5,-83 1944.5,0 2129.5,0 2129.5,-83"/>
<text text-anchor="middle" x="2037" y="-67.8" font-family="Times,serif" font-size="14.00">node #25</text>
<text text-anchor="middle" x="2037" y="-52.8" font-family="Times,serif" font-size="14.00">gini = 0.062</text>
<text text-anchor="middle" x="2037" y="-37.8" font-family="Times,serif" font-size="14.00">samples = 18</text>
<text text-anchor="middle" x="2037" y="-22.8" font-family="Times,serif" font-size="14.00">value = [0.962, 29.137]</text>
<text text-anchor="middle" x="2037" y="-7.8" font-family="Times,serif" font-size="14.00">class = Obstructive</text>
</g>
<!-- 24&#45;&gt;25 -->
<g id="edge25" class="edge">
<title>24&#45;&gt;25</title>
<path fill="none" stroke="black" d="M2037,-118.87C2037,-110.5 2037,-101.77 2037,-93.33"/>
<polygon fill="black" stroke="black" points="2040.5,-93.23 2037,-83.23 2033.5,-93.23 2040.5,-93.23"/>
</g>
<!-- 26 -->
<g id="node27" class="node">
<title>26</title>
<polygon fill="none" stroke="black" points="2336,-83 2148,-83 2148,0 2336,0 2336,-83"/>
<text text-anchor="middle" x="2242" y="-67.8" font-family="Times,serif" font-size="14.00">node #26</text>
<text text-anchor="middle" x="2242" y="-52.8" font-family="Times,serif" font-size="14.00">gini = 0.335</text>
<text text-anchor="middle" x="2242" y="-37.8" font-family="Times,serif" font-size="14.00">samples = 5</text>
<text text-anchor="middle" x="2242" y="-22.8" font-family="Times,serif" font-size="14.00">value = [7.699, 2.081]</text>
<text text-anchor="middle" x="2242" y="-7.8" font-family="Times,serif" font-size="14.00">class = Non&#45;obstructive</text>
</g>
<!-- 24&#45;&gt;26 -->
<g id="edge26" class="edge">
<title>24&#45;&gt;26</title>
<path fill="none" stroke="black" d="M2116.26,-118.87C2132.7,-108.88 2149.99,-98.38 2166.31,-88.47"/>
<polygon fill="black" stroke="black" points="2168.53,-91.21 2175.26,-83.03 2164.9,-85.23 2168.53,-91.21"/>
</g>
</g>
</svg>
