<?xml version="1.0" encoding="UTF-8" standalone="no"?>
<!DOCTYPE svg PUBLIC "-//W3C//DTD SVG 1.1//EN"
 "http://www.w3.org/Graphics/SVG/1.1/DTD/svg11.dtd">
<!-- Generated by graphviz version 2.43.0 (0)
 -->
<!-- Title: Tree Pages: 1 -->
<svg width="2049pt" height="627pt"
 viewBox="0.00 0.00 2048.50 627.00" xmlns="http://www.w3.org/2000/svg" xmlns:xlink="http://www.w3.org/1999/xlink">
<g id="graph0" class="graph" transform="scale(1 1) rotate(0) translate(4 623)">
<title>Tree</title>
<polygon fill="white" stroke="transparent" points="-4,4 -4,-623 2044.5,-623 2044.5,4 -4,4"/>
<!-- 0 -->
<g id="node1" class="node">
<title>0</title>
<polygon fill="none" stroke="black" points="909,-619 712,-619 712,-521 909,-521 909,-619"/>
<text text-anchor="middle" x="810.5" y="-603.8" font-family="Times,serif" font-size="14.00">node #0</text>
<text text-anchor="middle" x="810.5" y="-588.8" font-family="Times,serif" font-size="14.00">FVCPostPercent &lt;= 53.5</text>
<text text-anchor="middle" x="810.5" y="-573.8" font-family="Times,serif" font-size="14.00">gini = 0.5</text>
<text text-anchor="middle" x="810.5" y="-558.8" font-family="Times,serif" font-size="14.00">samples = 205</text>
<text text-anchor="middle" x="810.5" y="-543.8" font-family="Times,serif" font-size="14.00">value = [166.5, 166.5]</text>
<text text-anchor="middle" x="810.5" y="-528.8" font-family="Times,serif" font-size="14.00">class = Non&#45;obstructive</text>
</g>
<!-- 1 -->
<g id="node2" class="node">
<title>1</title>
<polygon fill="none" stroke="black" points="699.5,-485 505.5,-485 505.5,-387 699.5,-387 699.5,-485"/>
<text text-anchor="middle" x="602.5" y="-469.8" font-family="Times,serif" font-size="14.00">node #1</text>
<text text-anchor="middle" x="602.5" y="-454.8" font-family="Times,serif" font-size="14.00">FEFPrePercent &lt;= 36.5</text>
<text text-anchor="middle" x="602.5" y="-439.8" font-family="Times,serif" font-size="14.00">gini = 0.354</text>
<text text-anchor="middle" x="602.5" y="-424.8" font-family="Times,serif" font-size="14.00">samples = 60</text>
<text text-anchor="middle" x="602.5" y="-409.8" font-family="Times,serif" font-size="14.00">value = [68.832, 20.542]</text>
<text text-anchor="middle" x="602.5" y="-394.8" font-family="Times,serif" font-size="14.00">class = Non&#45;obstructive</text>
</g>
<!-- 0&#45;&gt;1 -->
<g id="edge1" class="edge">
<title>0&#45;&gt;1</title>
<path fill="none" stroke="black" d="M734.82,-520.97C719.33,-511.14 702.94,-500.74 687.17,-490.73"/>
<polygon fill="black" stroke="black" points="688.79,-487.62 678.47,-485.21 685.04,-493.53 688.79,-487.62"/>
<text text-anchor="middle" x="683.93" y="-505.91" font-family="Times,serif" font-size="14.00">True</text>
</g>
<!-- 12 -->
<g id="node13" class="node">
<title>12</title>
<polygon fill="none" stroke="black" points="1121,-485 918,-485 918,-387 1121,-387 1121,-485"/>
<text text-anchor="middle" x="1019.5" y="-469.8" font-family="Times,serif" font-size="14.00">node #12</text>
<text text-anchor="middle" x="1019.5" y="-454.8" font-family="Times,serif" font-size="14.00">FEFPreVal &lt;= 1.115</text>
<text text-anchor="middle" x="1019.5" y="-439.8" font-family="Times,serif" font-size="14.00">gini = 0.48</text>
<text text-anchor="middle" x="1019.5" y="-424.8" font-family="Times,serif" font-size="14.00">samples = 145</text>
<text text-anchor="middle" x="1019.5" y="-409.8" font-family="Times,serif" font-size="14.00">value = [97.668, 145.958]</text>
<text text-anchor="middle" x="1019.5" y="-394.8" font-family="Times,serif" font-size="14.00">class = Obstructive</text>
</g>
<!-- 0&#45;&gt;12 -->
<g id="edge12" class="edge">
<title>0&#45;&gt;12</title>
<path fill="none" stroke="black" d="M886.55,-520.97C902.1,-511.14 918.58,-500.74 934.43,-490.73"/>
<polygon fill="black" stroke="black" points="936.58,-493.51 943.16,-485.21 932.84,-487.59 936.58,-493.51"/>
<text text-anchor="middle" x="937.65" y="-505.9" font-family="Times,serif" font-size="14.00">False</text>
</g>
<!-- 2 -->
<g id="node3" class="node">
<title>2</title>
<polygon fill="none" stroke="black" points="378,-351 193,-351 193,-253 378,-253 378,-351"/>
<text text-anchor="middle" x="285.5" y="-335.8" font-family="Times,serif" font-size="14.00">node #2</text>
<text text-anchor="middle" x="285.5" y="-320.8" font-family="Times,serif" font-size="14.00">FEFPreVal &lt;= 0.355</text>
<text text-anchor="middle" x="285.5" y="-305.8" font-family="Times,serif" font-size="14.00">gini = 0.421</text>
<text text-anchor="middle" x="285.5" y="-290.8" font-family="Times,serif" font-size="14.00">samples = 18</text>
<text text-anchor="middle" x="285.5" y="-275.8" font-family="Times,serif" font-size="14.00">value = [8.372, 19.461]</text>
<text text-anchor="middle" x="285.5" y="-260.8" font-family="Times,serif" font-size="14.00">class = Obstructive</text>
</g>
<!-- 1&#45;&gt;2 -->
<g id="edge2" class="edge">
<title>1&#45;&gt;2</title>
<path fill="none" stroke="black" d="M505.24,-394.5C467.99,-378.99 425.41,-361.26 387.71,-345.56"/>
<polygon fill="black" stroke="black" points="388.82,-342.23 378.24,-341.62 386.13,-348.69 388.82,-342.23"/>
</g>
<!-- 7 -->
<g id="node8" class="node">
<title>7</title>
<polygon fill="none" stroke="black" points="696.5,-351 508.5,-351 508.5,-253 696.5,-253 696.5,-351"/>
<text text-anchor="middle" x="602.5" y="-335.8" font-family="Times,serif" font-size="14.00">node #7</text>
<text text-anchor="middle" x="602.5" y="-320.8" font-family="Times,serif" font-size="14.00">FEFPreVal &lt;= 1.16</text>
<text text-anchor="middle" x="602.5" y="-305.8" font-family="Times,serif" font-size="14.00">gini = 0.035</text>
<text text-anchor="middle" x="602.5" y="-290.8" font-family="Times,serif" font-size="14.00">samples = 42</text>
<text text-anchor="middle" x="602.5" y="-275.8" font-family="Times,serif" font-size="14.00">value = [60.461, 1.081]</text>
<text text-anchor="middle" x="602.5" y="-260.8" font-family="Times,serif" font-size="14.00">class = Non&#45;obstructive</text>
</g>
<!-- 1&#45;&gt;7 -->
<g id="edge7" class="edge">
<title>1&#45;&gt;7</title>
<path fill="none" stroke="black" d="M602.5,-386.97C602.5,-378.69 602.5,-370 602.5,-361.48"/>
<polygon fill="black" stroke="black" points="606,-361.21 602.5,-351.21 599,-361.21 606,-361.21"/>
</g>
<!-- 3 -->
<g id="node4" class="node">
<title>3</title>
<polygon fill="none" stroke="black" points="167,-209.5 0,-209.5 0,-126.5 167,-126.5 167,-209.5"/>
<text text-anchor="middle" x="83.5" y="-194.3" font-family="Times,serif" font-size="14.00">node #3</text>
<text text-anchor="middle" x="83.5" y="-179.3" font-family="Times,serif" font-size="14.00">gini = 0.0</text>
<text text-anchor="middle" x="83.5" y="-164.3" font-family="Times,serif" font-size="14.00">samples = 8</text>
<text text-anchor="middle" x="83.5" y="-149.3" font-family="Times,serif" font-size="14.00">value = [0.0, 10.812]</text>
<text text-anchor="middle" x="83.5" y="-134.3" font-family="Times,serif" font-size="14.00">class = Obstructive</text>
</g>
<!-- 2&#45;&gt;3 -->
<g id="edge3" class="edge">
<title>2&#45;&gt;3</title>
<path fill="none" stroke="black" d="M212,-252.97C193.12,-240.63 172.85,-227.39 154.12,-215.15"/>
<polygon fill="black" stroke="black" points="155.92,-212.14 145.64,-209.6 152.09,-218 155.92,-212.14"/>
</g>
<!-- 4 -->
<g id="node5" class="node">
<title>4</title>
<polygon fill="none" stroke="black" points="385.5,-217 185.5,-217 185.5,-119 385.5,-119 385.5,-217"/>
<text text-anchor="middle" x="285.5" y="-201.8" font-family="Times,serif" font-size="14.00">node #4</text>
<text text-anchor="middle" x="285.5" y="-186.8" font-family="Times,serif" font-size="14.00">FEV1PrePercent &lt;= 39.5</text>
<text text-anchor="middle" x="285.5" y="-171.8" font-family="Times,serif" font-size="14.00">gini = 0.5</text>
<text text-anchor="middle" x="285.5" y="-156.8" font-family="Times,serif" font-size="14.00">samples = 10</text>
<text text-anchor="middle" x="285.5" y="-141.8" font-family="Times,serif" font-size="14.00">value = [8.372, 8.649]</text>
<text text-anchor="middle" x="285.5" y="-126.8" font-family="Times,serif" font-size="14.00">class = Obstructive</text>
</g>
<!-- 2&#45;&gt;4 -->
<g id="edge4" class="edge">
<title>2&#45;&gt;4</title>
<path fill="none" stroke="black" d="M285.5,-252.97C285.5,-244.69 285.5,-236 285.5,-227.48"/>
<polygon fill="black" stroke="black" points="289,-227.21 285.5,-217.21 282,-227.21 289,-227.21"/>
</g>
<!-- 5 -->
<g id="node6" class="node">
<title>5</title>
<polygon fill="none" stroke="black" points="176.5,-83 0.5,-83 0.5,0 176.5,0 176.5,-83"/>
<text text-anchor="middle" x="88.5" y="-67.8" font-family="Times,serif" font-size="14.00">node #5</text>
<text text-anchor="middle" x="88.5" y="-52.8" font-family="Times,serif" font-size="14.00">gini = 0.421</text>
<text text-anchor="middle" x="88.5" y="-37.8" font-family="Times,serif" font-size="14.00">samples = 8</text>
<text text-anchor="middle" x="88.5" y="-22.8" font-family="Times,serif" font-size="14.00">value = [3.721, 8.649]</text>
<text text-anchor="middle" x="88.5" y="-7.8" font-family="Times,serif" font-size="14.00">class = Obstructive</text>
</g>
<!-- 4&#45;&gt;5 -->
<g id="edge5" class="edge">
<title>4&#45;&gt;5</title>
<path fill="none" stroke="black" d="M209.33,-118.87C193.53,-108.88 176.92,-98.38 161.24,-88.47"/>
<polygon fill="black" stroke="black" points="162.96,-85.42 152.64,-83.03 159.22,-91.33 162.96,-85.42"/>
</g>
<!-- 6 -->
<g id="node7" class="node">
<title>6</title>
<polygon fill="none" stroke="black" points="382.5,-83 194.5,-83 194.5,0 382.5,0 382.5,-83"/>
<text text-anchor="middle" x="288.5" y="-67.8" font-family="Times,serif" font-size="14.00">node #6</text>
<text text-anchor="middle" x="288.5" y="-52.8" font-family="Times,serif" font-size="14.00">gini = &#45;0.0</text>
<text text-anchor="middle" x="288.5" y="-37.8" font-family="Times,serif" font-size="14.00">samples = 2</text>
<text text-anchor="middle" x="288.5" y="-22.8" font-family="Times,serif" font-size="14.00">value = [4.651, 0.0]</text>
<text text-anchor="middle" x="288.5" y="-7.8" font-family="Times,serif" font-size="14.00">class = Non&#45;obstructive</text>
</g>
<!-- 4&#45;&gt;6 -->
<g id="edge6" class="edge">
<title>4&#45;&gt;6</title>
<path fill="none" stroke="black" d="M286.66,-118.87C286.86,-110.5 287.07,-101.77 287.28,-93.33"/>
<polygon fill="black" stroke="black" points="290.78,-93.31 287.52,-83.23 283.78,-93.14 290.78,-93.31"/>
</g>
<!-- 8 -->
<g id="node9" class="node">
<title>8</title>
<polygon fill="none" stroke="black" points="601,-217 404,-217 404,-119 601,-119 601,-217"/>
<text text-anchor="middle" x="502.5" y="-201.8" font-family="Times,serif" font-size="14.00">node #8</text>
<text text-anchor="middle" x="502.5" y="-186.8" font-family="Times,serif" font-size="14.00">FEFPostPercent &lt;= 40.5</text>
<text text-anchor="middle" x="502.5" y="-171.8" font-family="Times,serif" font-size="14.00">gini = 0.497</text>
<text text-anchor="middle" x="502.5" y="-156.8" font-family="Times,serif" font-size="14.00">samples = 2</text>
<text text-anchor="middle" x="502.5" y="-141.8" font-family="Times,serif" font-size="14.00">value = [0.93, 1.081]</text>
<text text-anchor="middle" x="502.5" y="-126.8" font-family="Times,serif" font-size="14.00">class = Obstructive</text>
</g>
<!-- 7&#45;&gt;8 -->
<g id="edge8" class="edge">
<title>7&#45;&gt;8</title>
<path fill="none" stroke="black" d="M566.11,-252.97C559.29,-243.96 552.1,-234.47 545.11,-225.24"/>
<polygon fill="black" stroke="black" points="547.85,-223.07 539.03,-217.21 542.27,-227.3 547.85,-223.07"/>
</g>
<!-- 11 -->
<g id="node12" class="node">
<title>11</title>
<polygon fill="none" stroke="black" points="807.5,-209.5 619.5,-209.5 619.5,-126.5 807.5,-126.5 807.5,-209.5"/>
<text text-anchor="middle" x="713.5" y="-194.3" font-family="Times,serif" font-size="14.00">node #11</text>
<text text-anchor="middle" x="713.5" y="-179.3" font-family="Times,serif" font-size="14.00">gini = 0.0</text>
<text text-anchor="middle" x="713.5" y="-164.3" font-family="Times,serif" font-size="14.00">samples = 40</text>
<text text-anchor="middle" x="713.5" y="-149.3" font-family="Times,serif" font-size="14.00">value = [59.531, 0.0]</text>
<text text-anchor="middle" x="713.5" y="-134.3" font-family="Times,serif" font-size="14.00">class = Non&#45;obstructive</text>
</g>
<!-- 7&#45;&gt;11 -->
<g id="edge11" class="edge">
<title>7&#45;&gt;11</title>
<path fill="none" stroke="black" d="M642.89,-252.97C652.56,-241.47 662.89,-229.18 672.58,-217.66"/>
<polygon fill="black" stroke="black" points="675.42,-219.72 679.18,-209.82 670.06,-215.22 675.42,-219.72"/>
</g>
<!-- 9 -->
<g id="node10" class="node">
<title>9</title>
<polygon fill="none" stroke="black" points="593.5,-83 405.5,-83 405.5,0 593.5,0 593.5,-83"/>
<text text-anchor="middle" x="499.5" y="-67.8" font-family="Times,serif" font-size="14.00">node #9</text>
<text text-anchor="middle" x="499.5" y="-52.8" font-family="Times,serif" font-size="14.00">gini = 0.0</text>
<text text-anchor="middle" x="499.5" y="-37.8" font-family="Times,serif" font-size="14.00">samples = 1</text>
<text text-anchor="middle" x="499.5" y="-22.8" font-family="Times,serif" font-size="14.00">value = [0.93, 0.0]</text>
<text text-anchor="middle" x="499.5" y="-7.8" font-family="Times,serif" font-size="14.00">class = Non&#45;obstructive</text>
</g>
<!-- 8&#45;&gt;9 -->
<g id="edge9" class="edge">
<title>8&#45;&gt;9</title>
<path fill="none" stroke="black" d="M501.34,-118.87C501.14,-110.5 500.93,-101.77 500.72,-93.33"/>
<polygon fill="black" stroke="black" points="504.22,-93.14 500.48,-83.23 497.22,-93.31 504.22,-93.14"/>
</g>
<!-- 10 -->
<g id="node11" class="node">
<title>10</title>
<polygon fill="none" stroke="black" points="769.5,-83 611.5,-83 611.5,0 769.5,0 769.5,-83"/>
<text text-anchor="middle" x="690.5" y="-67.8" font-family="Times,serif" font-size="14.00">node #10</text>
<text text-anchor="middle" x="690.5" y="-52.8" font-family="Times,serif" font-size="14.00">gini = 0.0</text>
<text text-anchor="middle" x="690.5" y="-37.8" font-family="Times,serif" font-size="14.00">samples = 1</text>
<text text-anchor="middle" x="690.5" y="-22.8" font-family="Times,serif" font-size="14.00">value = [0.0, 1.081]</text>
<text text-anchor="middle" x="690.5" y="-7.8" font-family="Times,serif" font-size="14.00">class = Obstructive</text>
</g>
<!-- 8&#45;&gt;10 -->
<g id="edge10" class="edge">
<title>8&#45;&gt;10</title>
<path fill="none" stroke="black" d="M575.19,-118.87C590.13,-108.97 605.83,-98.57 620.67,-88.74"/>
<polygon fill="black" stroke="black" points="622.89,-91.47 629.29,-83.03 619.02,-85.64 622.89,-91.47"/>
</g>
<!-- 13 -->
<g id="node14" class="node">
<title>13</title>
<polygon fill="none" stroke="black" points="1112,-351 927,-351 927,-253 1112,-253 1112,-351"/>
<text text-anchor="middle" x="1019.5" y="-335.8" font-family="Times,serif" font-size="14.00">node #13</text>
<text text-anchor="middle" x="1019.5" y="-320.8" font-family="Times,serif" font-size="14.00">FVCPostVal &lt;= 1.255</text>
<text text-anchor="middle" x="1019.5" y="-305.8" font-family="Times,serif" font-size="14.00">gini = 0.079</text>
<text text-anchor="middle" x="1019.5" y="-290.8" font-family="Times,serif" font-size="14.00">samples = 53</text>
<text text-anchor="middle" x="1019.5" y="-275.8" font-family="Times,serif" font-size="14.00">value = [3.721, 86.494]</text>
<text text-anchor="middle" x="1019.5" y="-260.8" font-family="Times,serif" font-size="14.00">class = Obstructive</text>
</g>
<!-- 12&#45;&gt;13 -->
<g id="edge13" class="edge">
<title>12&#45;&gt;13</title>
<path fill="none" stroke="black" d="M1019.5,-386.97C1019.5,-378.69 1019.5,-370 1019.5,-361.48"/>
<polygon fill="black" stroke="black" points="1023,-361.21 1019.5,-351.21 1016,-361.21 1023,-361.21"/>
</g>
<!-- 18 -->
<g id="node19" class="node">
<title>18</title>
<polygon fill="none" stroke="black" points="1527,-351 1330,-351 1330,-253 1527,-253 1527,-351"/>
<text text-anchor="middle" x="1428.5" y="-335.8" font-family="Times,serif" font-size="14.00">node #18</text>
<text text-anchor="middle" x="1428.5" y="-320.8" font-family="Times,serif" font-size="14.00">FEFPostPercent &lt;= 89.5</text>
<text text-anchor="middle" x="1428.5" y="-305.8" font-family="Times,serif" font-size="14.00">gini = 0.475</text>
<text text-anchor="middle" x="1428.5" y="-290.8" font-family="Times,serif" font-size="14.00">samples = 92</text>
<text text-anchor="middle" x="1428.5" y="-275.8" font-family="Times,serif" font-size="14.00">value = [93.947, 59.464]</text>
<text text-anchor="middle" x="1428.5" y="-260.8" font-family="Times,serif" font-size="14.00">class = Non&#45;obstructive</text>
</g>
<!-- 12&#45;&gt;18 -->
<g id="edge18" class="edge">
<title>12&#45;&gt;18</title>
<path fill="none" stroke="black" d="M1121.13,-402.2C1181.65,-382.67 1258.42,-357.89 1320.1,-337.98"/>
<polygon fill="black" stroke="black" points="1321.43,-341.23 1329.87,-334.83 1319.28,-334.57 1321.43,-341.23"/>
</g>
<!-- 14 -->
<g id="node15" class="node">
<title>14</title>
<polygon fill="none" stroke="black" points="1013.5,-209.5 825.5,-209.5 825.5,-126.5 1013.5,-126.5 1013.5,-209.5"/>
<text text-anchor="middle" x="919.5" y="-194.3" font-family="Times,serif" font-size="14.00">node #14</text>
<text text-anchor="middle" x="919.5" y="-179.3" font-family="Times,serif" font-size="14.00">gini = 0.0</text>
<text text-anchor="middle" x="919.5" y="-164.3" font-family="Times,serif" font-size="14.00">samples = 1</text>
<text text-anchor="middle" x="919.5" y="-149.3" font-family="Times,serif" font-size="14.00">value = [1.86, 0.0]</text>
<text text-anchor="middle" x="919.5" y="-134.3" font-family="Times,serif" font-size="14.00">class = Non&#45;obstructive</text>
</g>
<!-- 13&#45;&gt;14 -->
<g id="edge14" class="edge">
<title>13&#45;&gt;14</title>
<path fill="none" stroke="black" d="M983.11,-252.97C974.49,-241.58 965.27,-229.42 956.61,-217.99"/>
<polygon fill="black" stroke="black" points="959.25,-215.67 950.42,-209.82 953.67,-219.9 959.25,-215.67"/>
</g>
<!-- 15 -->
<g id="node16" class="node">
<title>15</title>
<polygon fill="none" stroke="black" points="1207.5,-217 1031.5,-217 1031.5,-119 1207.5,-119 1207.5,-217"/>
<text text-anchor="middle" x="1119.5" y="-201.8" font-family="Times,serif" font-size="14.00">node #15</text>
<text text-anchor="middle" x="1119.5" y="-186.8" font-family="Times,serif" font-size="14.00">FEV1PreVal &lt;= 1.995</text>
<text text-anchor="middle" x="1119.5" y="-171.8" font-family="Times,serif" font-size="14.00">gini = 0.041</text>
<text text-anchor="middle" x="1119.5" y="-156.8" font-family="Times,serif" font-size="14.00">samples = 52</text>
<text text-anchor="middle" x="1119.5" y="-141.8" font-family="Times,serif" font-size="14.00">value = [1.86, 86.494]</text>
<text text-anchor="middle" x="1119.5" y="-126.8" font-family="Times,serif" font-size="14.00">class = Obstructive</text>
</g>
<!-- 13&#45;&gt;15 -->
<g id="edge15" class="edge">
<title>13&#45;&gt;15</title>
<path fill="none" stroke="black" d="M1055.89,-252.97C1062.71,-243.96 1069.9,-234.47 1076.89,-225.24"/>
<polygon fill="black" stroke="black" points="1079.73,-227.3 1082.97,-217.21 1074.15,-223.07 1079.73,-227.3"/>
</g>
<!-- 16 -->
<g id="node17" class="node">
<title>16</title>
<polygon fill="none" stroke="black" points="1007.5,-83 831.5,-83 831.5,0 1007.5,0 1007.5,-83"/>
<text text-anchor="middle" x="919.5" y="-67.8" font-family="Times,serif" font-size="14.00">node #16</text>
<text text-anchor="middle" x="919.5" y="-52.8" font-family="Times,serif" font-size="14.00">gini = 0.021</text>
<text text-anchor="middle" x="919.5" y="-37.8" font-family="Times,serif" font-size="14.00">samples = 51</text>
<text text-anchor="middle" x="919.5" y="-22.8" font-family="Times,serif" font-size="14.00">value = [0.93, 86.494]</text>
<text text-anchor="middle" x="919.5" y="-7.8" font-family="Times,serif" font-size="14.00">class = Obstructive</text>
</g>
<!-- 15&#45;&gt;16 -->
<g id="edge16" class="edge">
<title>15&#45;&gt;16</title>
<path fill="none" stroke="black" d="M1042.17,-118.87C1026.13,-108.88 1009.26,-98.38 993.35,-88.47"/>
<polygon fill="black" stroke="black" points="994.95,-85.35 984.61,-83.03 991.25,-91.29 994.95,-85.35"/>
</g>
<!-- 17 -->
<g id="node18" class="node">
<title>17</title>
<polygon fill="none" stroke="black" points="1213.5,-83 1025.5,-83 1025.5,0 1213.5,0 1213.5,-83"/>
<text text-anchor="middle" x="1119.5" y="-67.8" font-family="Times,serif" font-size="14.00">node #17</text>
<text text-anchor="middle" x="1119.5" y="-52.8" font-family="Times,serif" font-size="14.00">gini = &#45;0.0</text>
<text text-anchor="middle" x="1119.5" y="-37.8" font-family="Times,serif" font-size="14.00">samples = 1</text>
<text text-anchor="middle" x="1119.5" y="-22.8" font-family="Times,serif" font-size="14.00">value = [0.93, 0.0]</text>
<text text-anchor="middle" x="1119.5" y="-7.8" font-family="Times,serif" font-size="14.00">class = Non&#45;obstructive</text>
</g>
<!-- 15&#45;&gt;17 -->
<g id="edge17" class="edge">
<title>15&#45;&gt;17</title>
<path fill="none" stroke="black" d="M1119.5,-118.87C1119.5,-110.5 1119.5,-101.77 1119.5,-93.33"/>
<polygon fill="black" stroke="black" points="1123,-93.23 1119.5,-83.23 1116,-93.23 1123,-93.23"/>
</g>
<!-- 19 -->
<g id="node20" class="node">
<title>19</title>
<polygon fill="none" stroke="black" points="1527,-217 1330,-217 1330,-119 1527,-119 1527,-217"/>
<text text-anchor="middle" x="1428.5" y="-201.8" font-family="Times,serif" font-size="14.00">node #19</text>
<text text-anchor="middle" x="1428.5" y="-186.8" font-family="Times,serif" font-size="14.00">FVCPostPercent &lt;= 86.5</text>
<text text-anchor="middle" x="1428.5" y="-171.8" font-family="Times,serif" font-size="14.00">gini = 0.5</text>
<text text-anchor="middle" x="1428.5" y="-156.8" font-family="Times,serif" font-size="14.00">samples = 58</text>
<text text-anchor="middle" x="1428.5" y="-141.8" font-family="Times,serif" font-size="14.00">value = [50.229, 49.734]</text>
<text text-anchor="middle" x="1428.5" y="-126.8" font-family="Times,serif" font-size="14.00">class = Non&#45;obstructive</text>
</g>
<!-- 18&#45;&gt;19 -->
<g id="edge19" class="edge">
<title>18&#45;&gt;19</title>
<path fill="none" stroke="black" d="M1428.5,-252.97C1428.5,-244.69 1428.5,-236 1428.5,-227.48"/>
<polygon fill="black" stroke="black" points="1432,-227.21 1428.5,-217.21 1425,-227.21 1432,-227.21"/>
</g>
<!-- 22 -->
<g id="node23" class="node">
<title>22</title>
<polygon fill="none" stroke="black" points="1834.5,-217 1646.5,-217 1646.5,-119 1834.5,-119 1834.5,-217"/>
<text text-anchor="middle" x="1740.5" y="-201.8" font-family="Times,serif" font-size="14.00">node #22</text>
<text text-anchor="middle" x="1740.5" y="-186.8" font-family="Times,serif" font-size="14.00">FEV1PostVal &lt;= 2.64</text>
<text text-anchor="middle" x="1740.5" y="-171.8" font-family="Times,serif" font-size="14.00">gini = 0.298</text>
<text text-anchor="middle" x="1740.5" y="-156.8" font-family="Times,serif" font-size="14.00">samples = 34</text>
<text text-anchor="middle" x="1740.5" y="-141.8" font-family="Times,serif" font-size="14.00">value = [43.718, 9.731]</text>
<text text-anchor="middle" x="1740.5" y="-126.8" font-family="Times,serif" font-size="14.00">class = Non&#45;obstructive</text>
</g>
<!-- 18&#45;&gt;22 -->
<g id="edge22" class="edge">
<title>18&#45;&gt;22</title>
<path fill="none" stroke="black" d="M1527.22,-259.23C1562.21,-244.43 1601.66,-227.74 1637.03,-212.77"/>
<polygon fill="black" stroke="black" points="1638.57,-215.93 1646.41,-208.81 1635.84,-209.48 1638.57,-215.93"/>
</g>
<!-- 20 -->
<g id="node21" class="node">
<title>20</title>
<polygon fill="none" stroke="black" points="1425.5,-83 1231.5,-83 1231.5,0 1425.5,0 1425.5,-83"/>
<text text-anchor="middle" x="1328.5" y="-67.8" font-family="Times,serif" font-size="14.00">node #20</text>
<text text-anchor="middle" x="1328.5" y="-52.8" font-family="Times,serif" font-size="14.00">gini = 0.438</text>
<text text-anchor="middle" x="1328.5" y="-37.8" font-family="Times,serif" font-size="14.00">samples = 43</text>
<text text-anchor="middle" x="1328.5" y="-22.8" font-family="Times,serif" font-size="14.00">value = [47.439, 22.705]</text>
<text text-anchor="middle" x="1328.5" y="-7.8" font-family="Times,serif" font-size="14.00">class = Non&#45;obstructive</text>
</g>
<!-- 19&#45;&gt;20 -->
<g id="edge20" class="edge">
<title>19&#45;&gt;20</title>
<path fill="none" stroke="black" d="M1389.84,-118.87C1382.53,-109.76 1374.87,-100.23 1367.55,-91.12"/>
<polygon fill="black" stroke="black" points="1370.21,-88.84 1361.22,-83.23 1364.75,-93.22 1370.21,-88.84"/>
</g>
<!-- 21 -->
<g id="node22" class="node">
<title>21</title>
<polygon fill="none" stroke="black" points="1628,-83 1443,-83 1443,0 1628,0 1628,-83"/>
<text text-anchor="middle" x="1535.5" y="-67.8" font-family="Times,serif" font-size="14.00">node #21</text>
<text text-anchor="middle" x="1535.5" y="-52.8" font-family="Times,serif" font-size="14.00">gini = 0.17</text>
<text text-anchor="middle" x="1535.5" y="-37.8" font-family="Times,serif" font-size="14.00">samples = 15</text>
<text text-anchor="middle" x="1535.5" y="-22.8" font-family="Times,serif" font-size="14.00">value = [2.791, 27.029]</text>
<text text-anchor="middle" x="1535.5" y="-7.8" font-family="Times,serif" font-size="14.00">class = Obstructive</text>
</g>
<!-- 19&#45;&gt;21 -->
<g id="edge21" class="edge">
<title>19&#45;&gt;21</title>
<path fill="none" stroke="black" d="M1469.87,-118.87C1477.77,-109.67 1486.05,-100.04 1493.95,-90.84"/>
<polygon fill="black" stroke="black" points="1496.63,-93.1 1500.49,-83.23 1491.32,-88.53 1496.63,-93.1"/>
</g>
<!-- 23 -->
<g id="node24" class="node">
<title>23</title>
<polygon fill="none" stroke="black" points="1834.5,-83 1646.5,-83 1646.5,0 1834.5,0 1834.5,-83"/>
<text text-anchor="middle" x="1740.5" y="-67.8" font-family="Times,serif" font-size="14.00">node #23</text>
<text text-anchor="middle" x="1740.5" y="-52.8" font-family="Times,serif" font-size="14.00">gini = 0.151</text>
<text text-anchor="middle" x="1740.5" y="-37.8" font-family="Times,serif" font-size="14.00">samples = 26</text>
<text text-anchor="middle" x="1740.5" y="-22.8" font-family="Times,serif" font-size="14.00">value = [36.277, 3.244]</text>
<text text-anchor="middle" x="1740.5" y="-7.8" font-family="Times,serif" font-size="14.00">class = Non&#45;obstructive</text>
</g>
<!-- 22&#45;&gt;23 -->
<g id="edge23" class="edge">
<title>22&#45;&gt;23</title>
<path fill="none" stroke="black" d="M1740.5,-118.87C1740.5,-110.5 1740.5,-101.77 1740.5,-93.33"/>
<polygon fill="black" stroke="black" points="1744,-93.23 1740.5,-83.23 1737,-93.23 1744,-93.23"/>
</g>
<!-- 24 -->
<g id="node25" class="node">
<title>24</title>
<polygon fill="none" stroke="black" points="2040.5,-83 1852.5,-83 1852.5,0 2040.5,0 2040.5,-83"/>
<text text-anchor="middle" x="1946.5" y="-67.8" font-family="Times,serif" font-size="14.00">node #24</text>
<text text-anchor="middle" x="1946.5" y="-52.8" font-family="Times,serif" font-size="14.00">gini = 0.498</text>
<text text-anchor="middle" x="1946.5" y="-37.8" font-family="Times,serif" font-size="14.00">samples = 8</text>
<text text-anchor="middle" x="1946.5" y="-22.8" font-family="Times,serif" font-size="14.00">value = [7.441, 6.487]</text>
<text text-anchor="middle" x="1946.5" y="-7.8" font-family="Times,serif" font-size="14.00">class = Non&#45;obstructive</text>
</g>
<!-- 22&#45;&gt;24 -->
<g id="edge24" class="edge">
<title>22&#45;&gt;24</title>
<path fill="none" stroke="black" d="M1820.14,-118.87C1836.67,-108.88 1854.04,-98.38 1870.44,-88.47"/>
<polygon fill="black" stroke="black" points="1872.69,-91.2 1879.43,-83.03 1869.07,-85.21 1872.69,-91.2"/>
</g>
</g>
</svg>
