<?xml version="1.0" encoding="UTF-8" standalone="no"?>
<!DOCTYPE svg PUBLIC "-//W3C//DTD SVG 1.1//EN"
 "http://www.w3.org/Graphics/SVG/1.1/DTD/svg11.dtd">
<!-- Generated by graphviz version 2.43.0 (0)
 -->
<!-- Title: Tree Pages: 1 -->
<svg width="2580pt" height="627pt"
 viewBox="0.00 0.00 2580.00 627.00" xmlns="http://www.w3.org/2000/svg" xmlns:xlink="http://www.w3.org/1999/xlink">
<g id="graph0" class="graph" transform="scale(1 1) rotate(0) translate(4 623)">
<title>Tree</title>
<polygon fill="white" stroke="transparent" points="-4,4 -4,-623 2576,-623 2576,4 -4,4"/>
<!-- 0 -->
<g id="node1" class="node">
<title>0</title>
<polygon fill="none" stroke="black" points="1079,-619 903,-619 903,-521 1079,-521 1079,-619"/>
<text text-anchor="middle" x="991" y="-603.8" font-family="Times,serif" font-size="14.00">node #0</text>
<text text-anchor="middle" x="991" y="-588.8" font-family="Times,serif" font-size="14.00">FEFPostVal &lt;= 1.135</text>
<text text-anchor="middle" x="991" y="-573.8" font-family="Times,serif" font-size="14.00">gini = 0.5</text>
<text text-anchor="middle" x="991" y="-558.8" font-family="Times,serif" font-size="14.00">samples = 207</text>
<text text-anchor="middle" x="991" y="-543.8" font-family="Times,serif" font-size="14.00">value = [166.5, 166.5]</text>
<text text-anchor="middle" x="991" y="-528.8" font-family="Times,serif" font-size="14.00">class = Obstructive</text>
</g>
<!-- 1 -->
<g id="node2" class="node">
<title>1</title>
<polygon fill="none" stroke="black" points="695.5,-485 498.5,-485 498.5,-387 695.5,-387 695.5,-485"/>
<text text-anchor="middle" x="597" y="-469.8" font-family="Times,serif" font-size="14.00">node #1</text>
<text text-anchor="middle" x="597" y="-454.8" font-family="Times,serif" font-size="14.00">FVCPostPercent &lt;= 53.5</text>
<text text-anchor="middle" x="597" y="-439.8" font-family="Times,serif" font-size="14.00">gini = 0.256</text>
<text text-anchor="middle" x="597" y="-424.8" font-family="Times,serif" font-size="14.00">samples = 60</text>
<text text-anchor="middle" x="597" y="-409.8" font-family="Times,serif" font-size="14.00">value = [15.322, 86.188]</text>
<text text-anchor="middle" x="597" y="-394.8" font-family="Times,serif" font-size="14.00">class = Obstructive</text>
</g>
<!-- 0&#45;&gt;1 -->
<g id="edge1" class="edge">
<title>0&#45;&gt;1</title>
<path fill="none" stroke="black" d="M902.58,-539.38C844.22,-519.82 767.36,-494.08 705.33,-473.29"/>
<polygon fill="black" stroke="black" points="706.1,-469.86 695.51,-470 703.88,-476.5 706.1,-469.86"/>
<text text-anchor="middle" x="706.65" y="-488.68" font-family="Times,serif" font-size="14.00">True</text>
</g>
<!-- 12 -->
<g id="node13" class="node">
<title>12</title>
<polygon fill="none" stroke="black" points="1485.5,-485 1282.5,-485 1282.5,-387 1485.5,-387 1485.5,-485"/>
<text text-anchor="middle" x="1384" y="-469.8" font-family="Times,serif" font-size="14.00">node #12</text>
<text text-anchor="middle" x="1384" y="-454.8" font-family="Times,serif" font-size="14.00">FEV1PreVal &lt;= 2.025</text>
<text text-anchor="middle" x="1384" y="-439.8" font-family="Times,serif" font-size="14.00">gini = 0.453</text>
<text text-anchor="middle" x="1384" y="-424.8" font-family="Times,serif" font-size="14.00">samples = 147</text>
<text text-anchor="middle" x="1384" y="-409.8" font-family="Times,serif" font-size="14.00">value = [151.178, 80.312]</text>
<text text-anchor="middle" x="1384" y="-394.8" font-family="Times,serif" font-size="14.00">class = Non&#45;obstructive</text>
</g>
<!-- 0&#45;&gt;12 -->
<g id="edge12" class="edge">
<title>0&#45;&gt;12</title>
<path fill="none" stroke="black" d="M1079.2,-539.38C1136.34,-520.18 1211.25,-495.02 1272.5,-474.45"/>
<polygon fill="black" stroke="black" points="1273.85,-477.69 1282.21,-471.19 1271.62,-471.05 1273.85,-477.69"/>
<text text-anchor="middle" x="1271.08" y="-489.87" font-family="Times,serif" font-size="14.00">False</text>
</g>
<!-- 2 -->
<g id="node3" class="node">
<title>2</title>
<polygon fill="none" stroke="black" points="382.5,-351 197.5,-351 197.5,-253 382.5,-253 382.5,-351"/>
<text text-anchor="middle" x="290" y="-335.8" font-family="Times,serif" font-size="14.00">node #2</text>
<text text-anchor="middle" x="290" y="-320.8" font-family="Times,serif" font-size="14.00">FVCPostVal &lt;= 1.215</text>
<text text-anchor="middle" x="290" y="-305.8" font-family="Times,serif" font-size="14.00">gini = 0.493</text>
<text text-anchor="middle" x="290" y="-290.8" font-family="Times,serif" font-size="14.00">samples = 12</text>
<text text-anchor="middle" x="290" y="-275.8" font-family="Times,serif" font-size="14.00">value = [9.193, 11.753]</text>
<text text-anchor="middle" x="290" y="-260.8" font-family="Times,serif" font-size="14.00">class = Obstructive</text>
</g>
<!-- 1&#45;&gt;2 -->
<g id="edge2" class="edge">
<title>1&#45;&gt;2</title>
<path fill="none" stroke="black" d="M498.17,-392.51C464.29,-377.94 426.31,-361.61 392.16,-346.93"/>
<polygon fill="black" stroke="black" points="393.21,-343.57 382.64,-342.83 390.45,-350 393.21,-343.57"/>
</g>
<!-- 5 -->
<g id="node6" class="node">
<title>5</title>
<polygon fill="none" stroke="black" points="689.5,-351 504.5,-351 504.5,-253 689.5,-253 689.5,-351"/>
<text text-anchor="middle" x="597" y="-335.8" font-family="Times,serif" font-size="14.00">node #5</text>
<text text-anchor="middle" x="597" y="-320.8" font-family="Times,serif" font-size="14.00">FEV1PreVal &lt;= 1.615</text>
<text text-anchor="middle" x="597" y="-305.8" font-family="Times,serif" font-size="14.00">gini = 0.141</text>
<text text-anchor="middle" x="597" y="-290.8" font-family="Times,serif" font-size="14.00">samples = 48</text>
<text text-anchor="middle" x="597" y="-275.8" font-family="Times,serif" font-size="14.00">value = [6.129, 74.435]</text>
<text text-anchor="middle" x="597" y="-260.8" font-family="Times,serif" font-size="14.00">class = Obstructive</text>
</g>
<!-- 1&#45;&gt;5 -->
<g id="edge5" class="edge">
<title>1&#45;&gt;5</title>
<path fill="none" stroke="black" d="M597,-386.97C597,-378.69 597,-370 597,-361.48"/>
<polygon fill="black" stroke="black" points="600.5,-361.21 597,-351.21 593.5,-361.21 600.5,-361.21"/>
</g>
<!-- 3 -->
<g id="node4" class="node">
<title>3</title>
<polygon fill="none" stroke="black" points="188,-209.5 0,-209.5 0,-126.5 188,-126.5 188,-209.5"/>
<text text-anchor="middle" x="94" y="-194.3" font-family="Times,serif" font-size="14.00">node #3</text>
<text text-anchor="middle" x="94" y="-179.3" font-family="Times,serif" font-size="14.00">gini = 0.0</text>
<text text-anchor="middle" x="94" y="-164.3" font-family="Times,serif" font-size="14.00">samples = 3</text>
<text text-anchor="middle" x="94" y="-149.3" font-family="Times,serif" font-size="14.00">value = [9.193, 0.0]</text>
<text text-anchor="middle" x="94" y="-134.3" font-family="Times,serif" font-size="14.00">class = Non&#45;obstructive</text>
</g>
<!-- 2&#45;&gt;3 -->
<g id="edge3" class="edge">
<title>2&#45;&gt;3</title>
<path fill="none" stroke="black" d="M218.69,-252.97C200.53,-240.75 181.05,-227.63 163.02,-215.48"/>
<polygon fill="black" stroke="black" points="164.54,-212.29 154.29,-209.6 160.63,-218.09 164.54,-212.29"/>
</g>
<!-- 4 -->
<g id="node5" class="node">
<title>4</title>
<polygon fill="none" stroke="black" points="373.5,-209.5 206.5,-209.5 206.5,-126.5 373.5,-126.5 373.5,-209.5"/>
<text text-anchor="middle" x="290" y="-194.3" font-family="Times,serif" font-size="14.00">node #4</text>
<text text-anchor="middle" x="290" y="-179.3" font-family="Times,serif" font-size="14.00">gini = 0.0</text>
<text text-anchor="middle" x="290" y="-164.3" font-family="Times,serif" font-size="14.00">samples = 9</text>
<text text-anchor="middle" x="290" y="-149.3" font-family="Times,serif" font-size="14.00">value = [0.0, 11.753]</text>
<text text-anchor="middle" x="290" y="-134.3" font-family="Times,serif" font-size="14.00">class = Obstructive</text>
</g>
<!-- 2&#45;&gt;4 -->
<g id="edge4" class="edge">
<title>2&#45;&gt;4</title>
<path fill="none" stroke="black" d="M290,-252.97C290,-242.25 290,-230.84 290,-219.99"/>
<polygon fill="black" stroke="black" points="293.5,-219.82 290,-209.82 286.5,-219.82 293.5,-219.82"/>
</g>
<!-- 6 -->
<g id="node7" class="node">
<title>6</title>
<polygon fill="none" stroke="black" points="588.5,-217 391.5,-217 391.5,-119 588.5,-119 588.5,-217"/>
<text text-anchor="middle" x="490" y="-201.8" font-family="Times,serif" font-size="14.00">node #6</text>
<text text-anchor="middle" x="490" y="-186.8" font-family="Times,serif" font-size="14.00">FEFPostPercent &lt;= 23.0</text>
<text text-anchor="middle" x="490" y="-171.8" font-family="Times,serif" font-size="14.00">gini = 0.077</text>
<text text-anchor="middle" x="490" y="-156.8" font-family="Times,serif" font-size="14.00">samples = 45</text>
<text text-anchor="middle" x="490" y="-141.8" font-family="Times,serif" font-size="14.00">value = [3.064, 73.456]</text>
<text text-anchor="middle" x="490" y="-126.8" font-family="Times,serif" font-size="14.00">class = Obstructive</text>
</g>
<!-- 5&#45;&gt;6 -->
<g id="edge6" class="edge">
<title>5&#45;&gt;6</title>
<path fill="none" stroke="black" d="M558.07,-252.97C550.77,-243.96 543.07,-234.47 535.59,-225.24"/>
<polygon fill="black" stroke="black" points="538.1,-222.78 529.08,-217.21 532.66,-227.19 538.1,-222.78"/>
</g>
<!-- 9 -->
<g id="node10" class="node">
<title>9</title>
<polygon fill="none" stroke="black" points="797.5,-217 606.5,-217 606.5,-119 797.5,-119 797.5,-217"/>
<text text-anchor="middle" x="702" y="-201.8" font-family="Times,serif" font-size="14.00">node #9</text>
<text text-anchor="middle" x="702" y="-186.8" font-family="Times,serif" font-size="14.00">FEFPrePercent &lt;= 29.0</text>
<text text-anchor="middle" x="702" y="-171.8" font-family="Times,serif" font-size="14.00">gini = 0.367</text>
<text text-anchor="middle" x="702" y="-156.8" font-family="Times,serif" font-size="14.00">samples = 3</text>
<text text-anchor="middle" x="702" y="-141.8" font-family="Times,serif" font-size="14.00">value = [3.064, 0.979]</text>
<text text-anchor="middle" x="702" y="-126.8" font-family="Times,serif" font-size="14.00">class = Non&#45;obstructive</text>
</g>
<!-- 5&#45;&gt;9 -->
<g id="edge9" class="edge">
<title>5&#45;&gt;9</title>
<path fill="none" stroke="black" d="M635.2,-252.97C642.37,-243.96 649.92,-234.47 657.26,-225.24"/>
<polygon fill="black" stroke="black" points="660.16,-227.22 663.65,-217.21 654.68,-222.86 660.16,-227.22"/>
</g>
<!-- 7 -->
<g id="node8" class="node">
<title>7</title>
<polygon fill="none" stroke="black" points="379.5,-83 212.5,-83 212.5,0 379.5,0 379.5,-83"/>
<text text-anchor="middle" x="296" y="-67.8" font-family="Times,serif" font-size="14.00">node #7</text>
<text text-anchor="middle" x="296" y="-52.8" font-family="Times,serif" font-size="14.00">gini = 0.0</text>
<text text-anchor="middle" x="296" y="-37.8" font-family="Times,serif" font-size="14.00">samples = 25</text>
<text text-anchor="middle" x="296" y="-22.8" font-family="Times,serif" font-size="14.00">value = [0.0, 39.176]</text>
<text text-anchor="middle" x="296" y="-7.8" font-family="Times,serif" font-size="14.00">class = Obstructive</text>
</g>
<!-- 6&#45;&gt;7 -->
<g id="edge7" class="edge">
<title>6&#45;&gt;7</title>
<path fill="none" stroke="black" d="M414.99,-118.87C399.43,-108.88 383.07,-98.38 367.63,-88.47"/>
<polygon fill="black" stroke="black" points="369.47,-85.49 359.16,-83.03 365.68,-91.38 369.47,-85.49"/>
</g>
<!-- 8 -->
<g id="node9" class="node">
<title>8</title>
<polygon fill="none" stroke="black" points="582.5,-83 397.5,-83 397.5,0 582.5,0 582.5,-83"/>
<text text-anchor="middle" x="490" y="-67.8" font-family="Times,serif" font-size="14.00">node #8</text>
<text text-anchor="middle" x="490" y="-52.8" font-family="Times,serif" font-size="14.00">gini = 0.151</text>
<text text-anchor="middle" x="490" y="-37.8" font-family="Times,serif" font-size="14.00">samples = 20</text>
<text text-anchor="middle" x="490" y="-22.8" font-family="Times,serif" font-size="14.00">value = [3.064, 34.279]</text>
<text text-anchor="middle" x="490" y="-7.8" font-family="Times,serif" font-size="14.00">class = Obstructive</text>
</g>
<!-- 6&#45;&gt;8 -->
<g id="edge8" class="edge">
<title>6&#45;&gt;8</title>
<path fill="none" stroke="black" d="M490,-118.87C490,-110.5 490,-101.77 490,-93.33"/>
<polygon fill="black" stroke="black" points="493.5,-93.23 490,-83.23 486.5,-93.23 493.5,-93.23"/>
</g>
<!-- 10 -->
<g id="node11" class="node">
<title>10</title>
<polygon fill="none" stroke="black" points="758,-83 600,-83 600,0 758,0 758,-83"/>
<text text-anchor="middle" x="679" y="-67.8" font-family="Times,serif" font-size="14.00">node #10</text>
<text text-anchor="middle" x="679" y="-52.8" font-family="Times,serif" font-size="14.00">gini = 0.0</text>
<text text-anchor="middle" x="679" y="-37.8" font-family="Times,serif" font-size="14.00">samples = 1</text>
<text text-anchor="middle" x="679" y="-22.8" font-family="Times,serif" font-size="14.00">value = [0.0, 0.979]</text>
<text text-anchor="middle" x="679" y="-7.8" font-family="Times,serif" font-size="14.00">class = Obstructive</text>
</g>
<!-- 9&#45;&gt;10 -->
<g id="edge10" class="edge">
<title>9&#45;&gt;10</title>
<path fill="none" stroke="black" d="M693.11,-118.87C691.56,-110.5 689.95,-101.77 688.39,-93.33"/>
<polygon fill="black" stroke="black" points="691.78,-92.43 686.52,-83.23 684.9,-93.7 691.78,-92.43"/>
</g>
<!-- 11 -->
<g id="node12" class="node">
<title>11</title>
<polygon fill="none" stroke="black" points="964,-83 776,-83 776,0 964,0 964,-83"/>
<text text-anchor="middle" x="870" y="-67.8" font-family="Times,serif" font-size="14.00">node #11</text>
<text text-anchor="middle" x="870" y="-52.8" font-family="Times,serif" font-size="14.00">gini = 0.0</text>
<text text-anchor="middle" x="870" y="-37.8" font-family="Times,serif" font-size="14.00">samples = 2</text>
<text text-anchor="middle" x="870" y="-22.8" font-family="Times,serif" font-size="14.00">value = [3.064, 0.0]</text>
<text text-anchor="middle" x="870" y="-7.8" font-family="Times,serif" font-size="14.00">class = Non&#45;obstructive</text>
</g>
<!-- 9&#45;&gt;11 -->
<g id="edge11" class="edge">
<title>9&#45;&gt;11</title>
<path fill="none" stroke="black" d="M766.95,-118.87C780.18,-109.06 794.08,-98.77 807.23,-89.02"/>
<polygon fill="black" stroke="black" points="809.36,-91.8 815.31,-83.03 805.19,-86.17 809.36,-91.8"/>
</g>
<!-- 13 -->
<g id="node14" class="node">
<title>13</title>
<polygon fill="none" stroke="black" points="1485.5,-351 1282.5,-351 1282.5,-253 1485.5,-253 1485.5,-351"/>
<text text-anchor="middle" x="1384" y="-335.8" font-family="Times,serif" font-size="14.00">node #13</text>
<text text-anchor="middle" x="1384" y="-320.8" font-family="Times,serif" font-size="14.00">FEFPrePercent &lt;= 42.5</text>
<text text-anchor="middle" x="1384" y="-305.8" font-family="Times,serif" font-size="14.00">gini = 0.242</text>
<text text-anchor="middle" x="1384" y="-290.8" font-family="Times,serif" font-size="14.00">samples = 91</text>
<text text-anchor="middle" x="1384" y="-275.8" font-family="Times,serif" font-size="14.00">value = [125.641, 20.568]</text>
<text text-anchor="middle" x="1384" y="-260.8" font-family="Times,serif" font-size="14.00">class = Non&#45;obstructive</text>
</g>
<!-- 12&#45;&gt;13 -->
<g id="edge13" class="edge">
<title>12&#45;&gt;13</title>
<path fill="none" stroke="black" d="M1384,-386.97C1384,-378.69 1384,-370 1384,-361.48"/>
<polygon fill="black" stroke="black" points="1387.5,-361.21 1384,-351.21 1380.5,-361.21 1387.5,-361.21"/>
</g>
<!-- 20 -->
<g id="node21" class="node">
<title>20</title>
<polygon fill="none" stroke="black" points="2068,-351 1874,-351 1874,-253 2068,-253 2068,-351"/>
<text text-anchor="middle" x="1971" y="-335.8" font-family="Times,serif" font-size="14.00">node #20</text>
<text text-anchor="middle" x="1971" y="-320.8" font-family="Times,serif" font-size="14.00">FVCPostVal &lt;= 3.345</text>
<text text-anchor="middle" x="1971" y="-305.8" font-family="Times,serif" font-size="14.00">gini = 0.42</text>
<text text-anchor="middle" x="1971" y="-290.8" font-family="Times,serif" font-size="14.00">samples = 56</text>
<text text-anchor="middle" x="1971" y="-275.8" font-family="Times,serif" font-size="14.00">value = [25.537, 59.744]</text>
<text text-anchor="middle" x="1971" y="-260.8" font-family="Times,serif" font-size="14.00">class = Obstructive</text>
</g>
<!-- 12&#45;&gt;20 -->
<g id="edge20" class="edge">
<title>12&#45;&gt;20</title>
<path fill="none" stroke="black" d="M1485.58,-412.16C1591.22,-388.4 1755.94,-351.36 1863.67,-327.14"/>
<polygon fill="black" stroke="black" points="1864.6,-330.51 1873.59,-324.9 1863.07,-323.68 1864.6,-330.51"/>
</g>
<!-- 14 -->
<g id="node15" class="node">
<title>14</title>
<polygon fill="none" stroke="black" points="1373.5,-217 1188.5,-217 1188.5,-119 1373.5,-119 1373.5,-217"/>
<text text-anchor="middle" x="1281" y="-201.8" font-family="Times,serif" font-size="14.00">node #14</text>
<text text-anchor="middle" x="1281" y="-186.8" font-family="Times,serif" font-size="14.00">FEV1PreVal &lt;= 1.17</text>
<text text-anchor="middle" x="1281" y="-171.8" font-family="Times,serif" font-size="14.00">gini = 0.328</text>
<text text-anchor="middle" x="1281" y="-156.8" font-family="Times,serif" font-size="14.00">samples = 15</text>
<text text-anchor="middle" x="1281" y="-141.8" font-family="Times,serif" font-size="14.00">value = [4.086, 15.671]</text>
<text text-anchor="middle" x="1281" y="-126.8" font-family="Times,serif" font-size="14.00">class = Obstructive</text>
</g>
<!-- 13&#45;&gt;14 -->
<g id="edge14" class="edge">
<title>13&#45;&gt;14</title>
<path fill="none" stroke="black" d="M1346.52,-252.97C1339.49,-243.96 1332.09,-234.47 1324.88,-225.24"/>
<polygon fill="black" stroke="black" points="1327.53,-222.94 1318.62,-217.21 1322.01,-227.25 1327.53,-222.94"/>
</g>
<!-- 17 -->
<g id="node18" class="node">
<title>17</title>
<polygon fill="none" stroke="black" points="1585,-217 1391,-217 1391,-119 1585,-119 1585,-217"/>
<text text-anchor="middle" x="1488" y="-201.8" font-family="Times,serif" font-size="14.00">node #17</text>
<text text-anchor="middle" x="1488" y="-186.8" font-family="Times,serif" font-size="14.00">FVCPostVal &lt;= 2.605</text>
<text text-anchor="middle" x="1488" y="-171.8" font-family="Times,serif" font-size="14.00">gini = 0.074</text>
<text text-anchor="middle" x="1488" y="-156.8" font-family="Times,serif" font-size="14.00">samples = 76</text>
<text text-anchor="middle" x="1488" y="-141.8" font-family="Times,serif" font-size="14.00">value = [121.555, 4.897]</text>
<text text-anchor="middle" x="1488" y="-126.8" font-family="Times,serif" font-size="14.00">class = Non&#45;obstructive</text>
</g>
<!-- 13&#45;&gt;17 -->
<g id="edge17" class="edge">
<title>13&#45;&gt;17</title>
<path fill="none" stroke="black" d="M1421.84,-252.97C1428.94,-243.96 1436.42,-234.47 1443.69,-225.24"/>
<polygon fill="black" stroke="black" points="1446.57,-227.23 1450.01,-217.21 1441.08,-222.9 1446.57,-227.23"/>
</g>
<!-- 15 -->
<g id="node16" class="node">
<title>15</title>
<polygon fill="none" stroke="black" points="1170,-83 982,-83 982,0 1170,0 1170,-83"/>
<text text-anchor="middle" x="1076" y="-67.8" font-family="Times,serif" font-size="14.00">node #15</text>
<text text-anchor="middle" x="1076" y="-52.8" font-family="Times,serif" font-size="14.00">gini = 0.0</text>
<text text-anchor="middle" x="1076" y="-37.8" font-family="Times,serif" font-size="14.00">samples = 2</text>
<text text-anchor="middle" x="1076" y="-22.8" font-family="Times,serif" font-size="14.00">value = [3.064, 0.0]</text>
<text text-anchor="middle" x="1076" y="-7.8" font-family="Times,serif" font-size="14.00">class = Non&#45;obstructive</text>
</g>
<!-- 14&#45;&gt;15 -->
<g id="edge15" class="edge">
<title>14&#45;&gt;15</title>
<path fill="none" stroke="black" d="M1201.74,-118.87C1185.3,-108.88 1168.01,-98.38 1151.69,-88.47"/>
<polygon fill="black" stroke="black" points="1153.1,-85.23 1142.74,-83.03 1149.47,-91.21 1153.1,-85.23"/>
</g>
<!-- 16 -->
<g id="node17" class="node">
<title>16</title>
<polygon fill="none" stroke="black" points="1373.5,-83 1188.5,-83 1188.5,0 1373.5,0 1373.5,-83"/>
<text text-anchor="middle" x="1281" y="-67.8" font-family="Times,serif" font-size="14.00">node #16</text>
<text text-anchor="middle" x="1281" y="-52.8" font-family="Times,serif" font-size="14.00">gini = 0.115</text>
<text text-anchor="middle" x="1281" y="-37.8" font-family="Times,serif" font-size="14.00">samples = 13</text>
<text text-anchor="middle" x="1281" y="-22.8" font-family="Times,serif" font-size="14.00">value = [1.021, 15.671]</text>
<text text-anchor="middle" x="1281" y="-7.8" font-family="Times,serif" font-size="14.00">class = Obstructive</text>
</g>
<!-- 14&#45;&gt;16 -->
<g id="edge16" class="edge">
<title>14&#45;&gt;16</title>
<path fill="none" stroke="black" d="M1281,-118.87C1281,-110.5 1281,-101.77 1281,-93.33"/>
<polygon fill="black" stroke="black" points="1284.5,-93.23 1281,-83.23 1277.5,-93.23 1284.5,-93.23"/>
</g>
<!-- 18 -->
<g id="node19" class="node">
<title>18</title>
<polygon fill="none" stroke="black" points="1585,-83 1391,-83 1391,0 1585,0 1585,-83"/>
<text text-anchor="middle" x="1488" y="-67.8" font-family="Times,serif" font-size="14.00">node #18</text>
<text text-anchor="middle" x="1488" y="-52.8" font-family="Times,serif" font-size="14.00">gini = 0.046</text>
<text text-anchor="middle" x="1488" y="-37.8" font-family="Times,serif" font-size="14.00">samples = 75</text>
<text text-anchor="middle" x="1488" y="-22.8" font-family="Times,serif" font-size="14.00">value = [121.555, 2.938]</text>
<text text-anchor="middle" x="1488" y="-7.8" font-family="Times,serif" font-size="14.00">class = Non&#45;obstructive</text>
</g>
<!-- 17&#45;&gt;18 -->
<g id="edge18" class="edge">
<title>17&#45;&gt;18</title>
<path fill="none" stroke="black" d="M1488,-118.87C1488,-110.5 1488,-101.77 1488,-93.33"/>
<polygon fill="black" stroke="black" points="1491.5,-93.23 1488,-83.23 1484.5,-93.23 1491.5,-93.23"/>
</g>
<!-- 19 -->
<g id="node20" class="node">
<title>19</title>
<polygon fill="none" stroke="black" points="1761,-83 1603,-83 1603,0 1761,0 1761,-83"/>
<text text-anchor="middle" x="1682" y="-67.8" font-family="Times,serif" font-size="14.00">node #19</text>
<text text-anchor="middle" x="1682" y="-52.8" font-family="Times,serif" font-size="14.00">gini = &#45;0.0</text>
<text text-anchor="middle" x="1682" y="-37.8" font-family="Times,serif" font-size="14.00">samples = 1</text>
<text text-anchor="middle" x="1682" y="-22.8" font-family="Times,serif" font-size="14.00">value = [0.0, 1.959]</text>
<text text-anchor="middle" x="1682" y="-7.8" font-family="Times,serif" font-size="14.00">class = Obstructive</text>
</g>
<!-- 17&#45;&gt;19 -->
<g id="edge19" class="edge">
<title>17&#45;&gt;19</title>
<path fill="none" stroke="black" d="M1563.01,-118.87C1578.57,-108.88 1594.93,-98.38 1610.37,-88.47"/>
<polygon fill="black" stroke="black" points="1612.32,-91.38 1618.84,-83.03 1608.53,-85.49 1612.32,-91.38"/>
</g>
<!-- 21 -->
<g id="node22" class="node">
<title>21</title>
<polygon fill="none" stroke="black" points="2069.5,-217 1872.5,-217 1872.5,-119 2069.5,-119 2069.5,-217"/>
<text text-anchor="middle" x="1971" y="-201.8" font-family="Times,serif" font-size="14.00">node #21</text>
<text text-anchor="middle" x="1971" y="-186.8" font-family="Times,serif" font-size="14.00">FVCPostPercent &lt;= 90.5</text>
<text text-anchor="middle" x="1971" y="-171.8" font-family="Times,serif" font-size="14.00">gini = 0.475</text>
<text text-anchor="middle" x="1971" y="-156.8" font-family="Times,serif" font-size="14.00">samples = 37</text>
<text text-anchor="middle" x="1971" y="-141.8" font-family="Times,serif" font-size="14.00">value = [22.472, 35.259]</text>
<text text-anchor="middle" x="1971" y="-126.8" font-family="Times,serif" font-size="14.00">class = Obstructive</text>
</g>
<!-- 20&#45;&gt;21 -->
<g id="edge21" class="edge">
<title>20&#45;&gt;21</title>
<path fill="none" stroke="black" d="M1971,-252.97C1971,-244.69 1971,-236 1971,-227.48"/>
<polygon fill="black" stroke="black" points="1974.5,-227.21 1971,-217.21 1967.5,-227.21 1974.5,-227.21"/>
</g>
<!-- 24 -->
<g id="node25" class="node">
<title>24</title>
<polygon fill="none" stroke="black" points="2389,-217 2183,-217 2183,-119 2389,-119 2389,-217"/>
<text text-anchor="middle" x="2286" y="-201.8" font-family="Times,serif" font-size="14.00">node #24</text>
<text text-anchor="middle" x="2286" y="-186.8" font-family="Times,serif" font-size="14.00">FEV1PostPercent &lt;= 98.5</text>
<text text-anchor="middle" x="2286" y="-171.8" font-family="Times,serif" font-size="14.00">gini = 0.198</text>
<text text-anchor="middle" x="2286" y="-156.8" font-family="Times,serif" font-size="14.00">samples = 19</text>
<text text-anchor="middle" x="2286" y="-141.8" font-family="Times,serif" font-size="14.00">value = [3.064, 24.485]</text>
<text text-anchor="middle" x="2286" y="-126.8" font-family="Times,serif" font-size="14.00">class = Obstructive</text>
</g>
<!-- 20&#45;&gt;24 -->
<g id="edge24" class="edge">
<title>20&#45;&gt;24</title>
<path fill="none" stroke="black" d="M2068.08,-260.32C2101.38,-246.37 2138.92,-230.63 2173.34,-216.21"/>
<polygon fill="black" stroke="black" points="2175.09,-219.27 2182.96,-212.18 2172.38,-212.82 2175.09,-219.27"/>
</g>
<!-- 22 -->
<g id="node23" class="node">
<title>22</title>
<polygon fill="none" stroke="black" points="1973,-83 1779,-83 1779,0 1973,0 1973,-83"/>
<text text-anchor="middle" x="1876" y="-67.8" font-family="Times,serif" font-size="14.00">node #22</text>
<text text-anchor="middle" x="1876" y="-52.8" font-family="Times,serif" font-size="14.00">gini = 0.495</text>
<text text-anchor="middle" x="1876" y="-37.8" font-family="Times,serif" font-size="14.00">samples = 26</text>
<text text-anchor="middle" x="1876" y="-22.8" font-family="Times,serif" font-size="14.00">value = [21.451, 17.629]</text>
<text text-anchor="middle" x="1876" y="-7.8" font-family="Times,serif" font-size="14.00">class = Non&#45;obstructive</text>
</g>
<!-- 21&#45;&gt;22 -->
<g id="edge22" class="edge">
<title>21&#45;&gt;22</title>
<path fill="none" stroke="black" d="M1934.27,-118.87C1927.39,-109.85 1920.2,-100.43 1913.31,-91.39"/>
<polygon fill="black" stroke="black" points="1915.93,-89.06 1907.08,-83.23 1910.36,-93.3 1915.93,-89.06"/>
</g>
<!-- 23 -->
<g id="node24" class="node">
<title>23</title>
<polygon fill="none" stroke="black" points="2175.5,-83 1990.5,-83 1990.5,0 2175.5,0 2175.5,-83"/>
<text text-anchor="middle" x="2083" y="-67.8" font-family="Times,serif" font-size="14.00">node #23</text>
<text text-anchor="middle" x="2083" y="-52.8" font-family="Times,serif" font-size="14.00">gini = 0.104</text>
<text text-anchor="middle" x="2083" y="-37.8" font-family="Times,serif" font-size="14.00">samples = 11</text>
<text text-anchor="middle" x="2083" y="-22.8" font-family="Times,serif" font-size="14.00">value = [1.021, 17.629]</text>
<text text-anchor="middle" x="2083" y="-7.8" font-family="Times,serif" font-size="14.00">class = Obstructive</text>
</g>
<!-- 21&#45;&gt;23 -->
<g id="edge23" class="edge">
<title>21&#45;&gt;23</title>
<path fill="none" stroke="black" d="M2014.3,-118.87C2022.57,-109.67 2031.24,-100.04 2039.51,-90.84"/>
<polygon fill="black" stroke="black" points="2042.27,-93.01 2046.36,-83.23 2037.07,-88.32 2042.27,-93.01"/>
</g>
<!-- 25 -->
<g id="node26" class="node">
<title>25</title>
<polygon fill="none" stroke="black" points="2378.5,-83 2193.5,-83 2193.5,0 2378.5,0 2378.5,-83"/>
<text text-anchor="middle" x="2286" y="-67.8" font-family="Times,serif" font-size="14.00">node #25</text>
<text text-anchor="middle" x="2286" y="-52.8" font-family="Times,serif" font-size="14.00">gini = 0.09</text>
<text text-anchor="middle" x="2286" y="-37.8" font-family="Times,serif" font-size="14.00">samples = 15</text>
<text text-anchor="middle" x="2286" y="-22.8" font-family="Times,serif" font-size="14.00">value = [1.021, 20.568]</text>
<text text-anchor="middle" x="2286" y="-7.8" font-family="Times,serif" font-size="14.00">class = Obstructive</text>
</g>
<!-- 24&#45;&gt;25 -->
<g id="edge25" class="edge">
<title>24&#45;&gt;25</title>
<path fill="none" stroke="black" d="M2286,-118.87C2286,-110.5 2286,-101.77 2286,-93.33"/>
<polygon fill="black" stroke="black" points="2289.5,-93.23 2286,-83.23 2282.5,-93.23 2289.5,-93.23"/>
</g>
<!-- 26 -->
<g id="node27" class="node">
<title>26</title>
<polygon fill="none" stroke="black" points="2572,-83 2396,-83 2396,0 2572,0 2572,-83"/>
<text text-anchor="middle" x="2484" y="-67.8" font-family="Times,serif" font-size="14.00">node #26</text>
<text text-anchor="middle" x="2484" y="-52.8" font-family="Times,serif" font-size="14.00">gini = 0.451</text>
<text text-anchor="middle" x="2484" y="-37.8" font-family="Times,serif" font-size="14.00">samples = 4</text>
<text text-anchor="middle" x="2484" y="-22.8" font-family="Times,serif" font-size="14.00">value = [2.043, 3.918]</text>
<text text-anchor="middle" x="2484" y="-7.8" font-family="Times,serif" font-size="14.00">class = Obstructive</text>
</g>
<!-- 24&#45;&gt;26 -->
<g id="edge26" class="edge">
<title>24&#45;&gt;26</title>
<path fill="none" stroke="black" d="M2362.55,-118.87C2378.44,-108.88 2395.14,-98.38 2410.89,-88.47"/>
<polygon fill="black" stroke="black" points="2412.94,-91.32 2419.54,-83.03 2409.21,-85.39 2412.94,-91.32"/>
</g>
</g>
</svg>
