<?xml version="1.0" encoding="UTF-8" standalone="no"?>
<!DOCTYPE svg PUBLIC "-//W3C//DTD SVG 1.1//EN"
 "http://www.w3.org/Graphics/SVG/1.1/DTD/svg11.dtd">
<!-- Generated by graphviz version 2.43.0 (0)
 -->
<!-- Title: Tree Pages: 1 -->
<svg width="2739pt" height="627pt"
 viewBox="0.00 0.00 2739.00 627.00" xmlns="http://www.w3.org/2000/svg" xmlns:xlink="http://www.w3.org/1999/xlink">
<g id="graph0" class="graph" transform="scale(1 1) rotate(0) translate(4 623)">
<title>Tree</title>
<polygon fill="white" stroke="transparent" points="-4,4 -4,-623 2735,-623 2735,4 -4,4"/>
<!-- 0 -->
<g id="node1" class="node">
<title>0</title>
<polygon fill="none" stroke="black" points="1246.5,-619 1055.5,-619 1055.5,-521 1246.5,-521 1246.5,-619"/>
<text text-anchor="middle" x="1151" y="-603.8" font-family="Times,serif" font-size="14.00">node #0</text>
<text text-anchor="middle" x="1151" y="-588.8" font-family="Times,serif" font-size="14.00">FEFPrePercent &lt;= 41.5</text>
<text text-anchor="middle" x="1151" y="-573.8" font-family="Times,serif" font-size="14.00">gini = 0.5</text>
<text text-anchor="middle" x="1151" y="-558.8" font-family="Times,serif" font-size="14.00">samples = 204</text>
<text text-anchor="middle" x="1151" y="-543.8" font-family="Times,serif" font-size="14.00">value = [166.5, 166.5]</text>
<text text-anchor="middle" x="1151" y="-528.8" font-family="Times,serif" font-size="14.00">class = Obstructive</text>
</g>
<!-- 1 -->
<g id="node2" class="node">
<title>1</title>
<polygon fill="none" stroke="black" points="949.5,-485 746.5,-485 746.5,-387 949.5,-387 949.5,-485"/>
<text text-anchor="middle" x="848" y="-469.8" font-family="Times,serif" font-size="14.00">node #1</text>
<text text-anchor="middle" x="848" y="-454.8" font-family="Times,serif" font-size="14.00">FEFPrePercent &lt;= 26.5</text>
<text text-anchor="middle" x="848" y="-439.8" font-family="Times,serif" font-size="14.00">gini = 0.175</text>
<text text-anchor="middle" x="848" y="-424.8" font-family="Times,serif" font-size="14.00">samples = 76</text>
<text text-anchor="middle" x="848" y="-409.8" font-family="Times,serif" font-size="14.00">value = [12.333, 114.895]</text>
<text text-anchor="middle" x="848" y="-394.8" font-family="Times,serif" font-size="14.00">class = Obstructive</text>
</g>
<!-- 0&#45;&gt;1 -->
<g id="edge1" class="edge">
<title>0&#45;&gt;1</title>
<path fill="none" stroke="black" d="M1055.13,-527.23C1024.52,-513.9 990.38,-499.03 958.8,-485.27"/>
<polygon fill="black" stroke="black" points="960.09,-482.01 949.53,-481.23 957.3,-488.43 960.09,-482.01"/>
<text text-anchor="middle" x="958.67" y="-500.8" font-family="Times,serif" font-size="14.00">True</text>
</g>
<!-- 14 -->
<g id="node15" class="node">
<title>14</title>
<polygon fill="none" stroke="black" points="1646.5,-485 1443.5,-485 1443.5,-387 1646.5,-387 1646.5,-485"/>
<text text-anchor="middle" x="1545" y="-469.8" font-family="Times,serif" font-size="14.00">node #14</text>
<text text-anchor="middle" x="1545" y="-454.8" font-family="Times,serif" font-size="14.00">FVCPrePercent &lt;= 73.5</text>
<text text-anchor="middle" x="1545" y="-439.8" font-family="Times,serif" font-size="14.00">gini = 0.376</text>
<text text-anchor="middle" x="1545" y="-424.8" font-family="Times,serif" font-size="14.00">samples = 128</text>
<text text-anchor="middle" x="1545" y="-409.8" font-family="Times,serif" font-size="14.00">value = [154.167, 51.605]</text>
<text text-anchor="middle" x="1545" y="-394.8" font-family="Times,serif" font-size="14.00">class = Non&#45;obstructive</text>
</g>
<!-- 0&#45;&gt;14 -->
<g id="edge14" class="edge">
<title>0&#45;&gt;14</title>
<path fill="none" stroke="black" d="M1246.63,-536.96C1303.05,-518.06 1374.71,-494.05 1433.67,-474.3"/>
<polygon fill="black" stroke="black" points="1435.02,-477.54 1443.39,-471.04 1432.8,-470.9 1435.02,-477.54"/>
<text text-anchor="middle" x="1432.25" y="-489.72" font-family="Times,serif" font-size="14.00">False</text>
</g>
<!-- 2 -->
<g id="node3" class="node">
<title>2</title>
<polygon fill="none" stroke="black" points="634,-351 428,-351 428,-253 634,-253 634,-351"/>
<text text-anchor="middle" x="531" y="-335.8" font-family="Times,serif" font-size="14.00">node #2</text>
<text text-anchor="middle" x="531" y="-320.8" font-family="Times,serif" font-size="14.00">FEFPostPercent &lt;= 2.605</text>
<text text-anchor="middle" x="531" y="-305.8" font-family="Times,serif" font-size="14.00">gini = 0.049</text>
<text text-anchor="middle" x="531" y="-290.8" font-family="Times,serif" font-size="14.00">samples = 47</text>
<text text-anchor="middle" x="531" y="-275.8" font-family="Times,serif" font-size="14.00">value = [2.056, 79.842]</text>
<text text-anchor="middle" x="531" y="-260.8" font-family="Times,serif" font-size="14.00">class = Obstructive</text>
</g>
<!-- 1&#45;&gt;2 -->
<g id="edge2" class="edge">
<title>1&#45;&gt;2</title>
<path fill="none" stroke="black" d="M746.39,-392.69C713.62,-379.04 677.1,-363.84 643.58,-349.88"/>
<polygon fill="black" stroke="black" points="644.79,-346.59 634.21,-345.98 642.1,-353.05 644.79,-346.59"/>
</g>
<!-- 9 -->
<g id="node10" class="node">
<title>9</title>
<polygon fill="none" stroke="black" points="945,-351 751,-351 751,-253 945,-253 945,-351"/>
<text text-anchor="middle" x="848" y="-335.8" font-family="Times,serif" font-size="14.00">node #9</text>
<text text-anchor="middle" x="848" y="-320.8" font-family="Times,serif" font-size="14.00">FEV1PostVal &lt;= 1.005</text>
<text text-anchor="middle" x="848" y="-305.8" font-family="Times,serif" font-size="14.00">gini = 0.351</text>
<text text-anchor="middle" x="848" y="-290.8" font-family="Times,serif" font-size="14.00">samples = 29</text>
<text text-anchor="middle" x="848" y="-275.8" font-family="Times,serif" font-size="14.00">value = [10.278, 35.053]</text>
<text text-anchor="middle" x="848" y="-260.8" font-family="Times,serif" font-size="14.00">class = Obstructive</text>
</g>
<!-- 1&#45;&gt;9 -->
<g id="edge9" class="edge">
<title>1&#45;&gt;9</title>
<path fill="none" stroke="black" d="M848,-386.97C848,-378.69 848,-370 848,-361.48"/>
<polygon fill="black" stroke="black" points="851.5,-361.21 848,-351.21 844.5,-361.21 851.5,-361.21"/>
</g>
<!-- 3 -->
<g id="node4" class="node">
<title>3</title>
<polygon fill="none" stroke="black" points="385,-217 185,-217 185,-119 385,-119 385,-217"/>
<text text-anchor="middle" x="285" y="-201.8" font-family="Times,serif" font-size="14.00">node #3</text>
<text text-anchor="middle" x="285" y="-186.8" font-family="Times,serif" font-size="14.00">FEV1PrePercent &lt;= 33.0</text>
<text text-anchor="middle" x="285" y="-171.8" font-family="Times,serif" font-size="14.00">gini = 0.452</text>
<text text-anchor="middle" x="285" y="-156.8" font-family="Times,serif" font-size="14.00">samples = 2</text>
<text text-anchor="middle" x="285" y="-141.8" font-family="Times,serif" font-size="14.00">value = [1.028, 1.947]</text>
<text text-anchor="middle" x="285" y="-126.8" font-family="Times,serif" font-size="14.00">class = Obstructive</text>
</g>
<!-- 2&#45;&gt;3 -->
<g id="edge3" class="edge">
<title>2&#45;&gt;3</title>
<path fill="none" stroke="black" d="M441.49,-252.97C422.75,-242.92 402.89,-232.26 383.84,-222.04"/>
<polygon fill="black" stroke="black" points="385.32,-218.86 374.85,-217.21 382.01,-225.03 385.32,-218.86"/>
</g>
<!-- 6 -->
<g id="node7" class="node">
<title>6</title>
<polygon fill="none" stroke="black" points="623.5,-217 438.5,-217 438.5,-119 623.5,-119 623.5,-217"/>
<text text-anchor="middle" x="531" y="-201.8" font-family="Times,serif" font-size="14.00">node #6</text>
<text text-anchor="middle" x="531" y="-186.8" font-family="Times,serif" font-size="14.00">FEFPostVal &lt;= 1.02</text>
<text text-anchor="middle" x="531" y="-171.8" font-family="Times,serif" font-size="14.00">gini = 0.026</text>
<text text-anchor="middle" x="531" y="-156.8" font-family="Times,serif" font-size="14.00">samples = 45</text>
<text text-anchor="middle" x="531" y="-141.8" font-family="Times,serif" font-size="14.00">value = [1.028, 77.895]</text>
<text text-anchor="middle" x="531" y="-126.8" font-family="Times,serif" font-size="14.00">class = Obstructive</text>
</g>
<!-- 2&#45;&gt;6 -->
<g id="edge6" class="edge">
<title>2&#45;&gt;6</title>
<path fill="none" stroke="black" d="M531,-252.97C531,-244.69 531,-236 531,-227.48"/>
<polygon fill="black" stroke="black" points="534.5,-227.21 531,-217.21 527.5,-227.21 534.5,-227.21"/>
</g>
<!-- 4 -->
<g id="node5" class="node">
<title>4</title>
<polygon fill="none" stroke="black" points="188,-83 0,-83 0,0 188,0 188,-83"/>
<text text-anchor="middle" x="94" y="-67.8" font-family="Times,serif" font-size="14.00">node #4</text>
<text text-anchor="middle" x="94" y="-52.8" font-family="Times,serif" font-size="14.00">gini = 0.0</text>
<text text-anchor="middle" x="94" y="-37.8" font-family="Times,serif" font-size="14.00">samples = 1</text>
<text text-anchor="middle" x="94" y="-22.8" font-family="Times,serif" font-size="14.00">value = [1.028, 0.0]</text>
<text text-anchor="middle" x="94" y="-7.8" font-family="Times,serif" font-size="14.00">class = Non&#45;obstructive</text>
</g>
<!-- 3&#45;&gt;4 -->
<g id="edge4" class="edge">
<title>3&#45;&gt;4</title>
<path fill="none" stroke="black" d="M211.15,-118.87C195.97,-108.97 180.02,-98.57 164.95,-88.74"/>
<polygon fill="black" stroke="black" points="166.47,-85.56 156.18,-83.03 162.65,-91.43 166.47,-85.56"/>
</g>
<!-- 5 -->
<g id="node6" class="node">
<title>5</title>
<polygon fill="none" stroke="black" points="364,-83 206,-83 206,0 364,0 364,-83"/>
<text text-anchor="middle" x="285" y="-67.8" font-family="Times,serif" font-size="14.00">node #5</text>
<text text-anchor="middle" x="285" y="-52.8" font-family="Times,serif" font-size="14.00">gini = 0.0</text>
<text text-anchor="middle" x="285" y="-37.8" font-family="Times,serif" font-size="14.00">samples = 1</text>
<text text-anchor="middle" x="285" y="-22.8" font-family="Times,serif" font-size="14.00">value = [0.0, 1.947]</text>
<text text-anchor="middle" x="285" y="-7.8" font-family="Times,serif" font-size="14.00">class = Obstructive</text>
</g>
<!-- 3&#45;&gt;5 -->
<g id="edge5" class="edge">
<title>3&#45;&gt;5</title>
<path fill="none" stroke="black" d="M285,-118.87C285,-110.5 285,-101.77 285,-93.33"/>
<polygon fill="black" stroke="black" points="288.5,-93.23 285,-83.23 281.5,-93.23 288.5,-93.23"/>
</g>
<!-- 7 -->
<g id="node8" class="node">
<title>7</title>
<polygon fill="none" stroke="black" points="539.5,-83 382.5,-83 382.5,0 539.5,0 539.5,-83"/>
<text text-anchor="middle" x="461" y="-67.8" font-family="Times,serif" font-size="14.00">node #7</text>
<text text-anchor="middle" x="461" y="-52.8" font-family="Times,serif" font-size="14.00">gini = 0.0</text>
<text text-anchor="middle" x="461" y="-37.8" font-family="Times,serif" font-size="14.00">samples = 41</text>
<text text-anchor="middle" x="461" y="-22.8" font-family="Times,serif" font-size="14.00">value = [0.0, 74.0]</text>
<text text-anchor="middle" x="461" y="-7.8" font-family="Times,serif" font-size="14.00">class = Obstructive</text>
</g>
<!-- 6&#45;&gt;7 -->
<g id="edge7" class="edge">
<title>6&#45;&gt;7</title>
<path fill="none" stroke="black" d="M503.94,-118.87C499.02,-110.13 493.89,-101 488.96,-92.22"/>
<polygon fill="black" stroke="black" points="491.85,-90.23 483.9,-83.23 485.75,-93.66 491.85,-90.23"/>
</g>
<!-- 8 -->
<g id="node9" class="node">
<title>8</title>
<polygon fill="none" stroke="black" points="734,-83 558,-83 558,0 734,0 734,-83"/>
<text text-anchor="middle" x="646" y="-67.8" font-family="Times,serif" font-size="14.00">node #8</text>
<text text-anchor="middle" x="646" y="-52.8" font-family="Times,serif" font-size="14.00">gini = 0.33</text>
<text text-anchor="middle" x="646" y="-37.8" font-family="Times,serif" font-size="14.00">samples = 4</text>
<text text-anchor="middle" x="646" y="-22.8" font-family="Times,serif" font-size="14.00">value = [1.028, 3.895]</text>
<text text-anchor="middle" x="646" y="-7.8" font-family="Times,serif" font-size="14.00">class = Obstructive</text>
</g>
<!-- 6&#45;&gt;8 -->
<g id="edge8" class="edge">
<title>6&#45;&gt;8</title>
<path fill="none" stroke="black" d="M575.46,-118.87C583.96,-109.67 592.85,-100.04 601.35,-90.84"/>
<polygon fill="black" stroke="black" points="604.16,-92.95 608.38,-83.23 599.02,-88.2 604.16,-92.95"/>
</g>
<!-- 10 -->
<g id="node11" class="node">
<title>10</title>
<polygon fill="none" stroke="black" points="886,-209.5 698,-209.5 698,-126.5 886,-126.5 886,-209.5"/>
<text text-anchor="middle" x="792" y="-194.3" font-family="Times,serif" font-size="14.00">node #10</text>
<text text-anchor="middle" x="792" y="-179.3" font-family="Times,serif" font-size="14.00">gini = 0.0</text>
<text text-anchor="middle" x="792" y="-164.3" font-family="Times,serif" font-size="14.00">samples = 4</text>
<text text-anchor="middle" x="792" y="-149.3" font-family="Times,serif" font-size="14.00">value = [5.139, 0.0]</text>
<text text-anchor="middle" x="792" y="-134.3" font-family="Times,serif" font-size="14.00">class = Non&#45;obstructive</text>
</g>
<!-- 9&#45;&gt;10 -->
<g id="edge10" class="edge">
<title>9&#45;&gt;10</title>
<path fill="none" stroke="black" d="M827.62,-252.97C822.98,-242.02 818.03,-230.36 813.35,-219.32"/>
<polygon fill="black" stroke="black" points="816.44,-217.66 809.32,-209.82 810,-220.39 816.44,-217.66"/>
</g>
<!-- 11 -->
<g id="node12" class="node">
<title>11</title>
<polygon fill="none" stroke="black" points="1104,-217 904,-217 904,-119 1104,-119 1104,-217"/>
<text text-anchor="middle" x="1004" y="-201.8" font-family="Times,serif" font-size="14.00">node #11</text>
<text text-anchor="middle" x="1004" y="-186.8" font-family="Times,serif" font-size="14.00">FEV1PrePercent &lt;= 56.0</text>
<text text-anchor="middle" x="1004" y="-171.8" font-family="Times,serif" font-size="14.00">gini = 0.223</text>
<text text-anchor="middle" x="1004" y="-156.8" font-family="Times,serif" font-size="14.00">samples = 25</text>
<text text-anchor="middle" x="1004" y="-141.8" font-family="Times,serif" font-size="14.00">value = [5.139, 35.053]</text>
<text text-anchor="middle" x="1004" y="-126.8" font-family="Times,serif" font-size="14.00">class = Obstructive</text>
</g>
<!-- 9&#45;&gt;11 -->
<g id="edge11" class="edge">
<title>9&#45;&gt;11</title>
<path fill="none" stroke="black" d="M904.76,-252.97C915.94,-243.51 927.76,-233.51 939.18,-223.84"/>
<polygon fill="black" stroke="black" points="941.65,-226.35 947.02,-217.21 937.13,-221 941.65,-226.35"/>
</g>
<!-- 12 -->
<g id="node13" class="node">
<title>12</title>
<polygon fill="none" stroke="black" points="936.5,-83 751.5,-83 751.5,0 936.5,0 936.5,-83"/>
<text text-anchor="middle" x="844" y="-67.8" font-family="Times,serif" font-size="14.00">node #12</text>
<text text-anchor="middle" x="844" y="-52.8" font-family="Times,serif" font-size="14.00">gini = 0.424</text>
<text text-anchor="middle" x="844" y="-37.8" font-family="Times,serif" font-size="14.00">samples = 12</text>
<text text-anchor="middle" x="844" y="-22.8" font-family="Times,serif" font-size="14.00">value = [5.139, 11.684]</text>
<text text-anchor="middle" x="844" y="-7.8" font-family="Times,serif" font-size="14.00">class = Obstructive</text>
</g>
<!-- 11&#45;&gt;12 -->
<g id="edge12" class="edge">
<title>11&#45;&gt;12</title>
<path fill="none" stroke="black" d="M942.14,-118.87C929.66,-109.15 916.56,-98.96 904.14,-89.3"/>
<polygon fill="black" stroke="black" points="906.13,-86.41 896.09,-83.03 901.83,-91.94 906.13,-86.41"/>
</g>
<!-- 13 -->
<g id="node14" class="node">
<title>13</title>
<polygon fill="none" stroke="black" points="1121.5,-83 954.5,-83 954.5,0 1121.5,0 1121.5,-83"/>
<text text-anchor="middle" x="1038" y="-67.8" font-family="Times,serif" font-size="14.00">node #13</text>
<text text-anchor="middle" x="1038" y="-52.8" font-family="Times,serif" font-size="14.00">gini = &#45;0.0</text>
<text text-anchor="middle" x="1038" y="-37.8" font-family="Times,serif" font-size="14.00">samples = 13</text>
<text text-anchor="middle" x="1038" y="-22.8" font-family="Times,serif" font-size="14.00">value = [0.0, 23.368]</text>
<text text-anchor="middle" x="1038" y="-7.8" font-family="Times,serif" font-size="14.00">class = Obstructive</text>
</g>
<!-- 11&#45;&gt;13 -->
<g id="edge13" class="edge">
<title>11&#45;&gt;13</title>
<path fill="none" stroke="black" d="M1017.15,-118.87C1019.46,-110.41 1021.87,-101.58 1024.19,-93.06"/>
<polygon fill="black" stroke="black" points="1027.62,-93.8 1026.88,-83.23 1020.87,-91.96 1027.62,-93.8"/>
</g>
<!-- 15 -->
<g id="node16" class="node">
<title>15</title>
<polygon fill="none" stroke="black" points="1646.5,-351 1443.5,-351 1443.5,-253 1646.5,-253 1646.5,-351"/>
<text text-anchor="middle" x="1545" y="-335.8" font-family="Times,serif" font-size="14.00">node #15</text>
<text text-anchor="middle" x="1545" y="-320.8" font-family="Times,serif" font-size="14.00">FEV1PostVal &lt;= 2.29</text>
<text text-anchor="middle" x="1545" y="-305.8" font-family="Times,serif" font-size="14.00">gini = 0.195</text>
<text text-anchor="middle" x="1545" y="-290.8" font-family="Times,serif" font-size="14.00">samples = 86</text>
<text text-anchor="middle" x="1545" y="-275.8" font-family="Times,serif" font-size="14.00">value = [126.417, 15.579]</text>
<text text-anchor="middle" x="1545" y="-260.8" font-family="Times,serif" font-size="14.00">class = Non&#45;obstructive</text>
</g>
<!-- 14&#45;&gt;15 -->
<g id="edge15" class="edge">
<title>14&#45;&gt;15</title>
<path fill="none" stroke="black" d="M1545,-386.97C1545,-378.69 1545,-370 1545,-361.48"/>
<polygon fill="black" stroke="black" points="1548.5,-361.21 1545,-351.21 1541.5,-361.21 1548.5,-361.21"/>
</g>
<!-- 22 -->
<g id="node23" class="node">
<title>22</title>
<polygon fill="none" stroke="black" points="2243.5,-351 2058.5,-351 2058.5,-253 2243.5,-253 2243.5,-351"/>
<text text-anchor="middle" x="2151" y="-335.8" font-family="Times,serif" font-size="14.00">node #22</text>
<text text-anchor="middle" x="2151" y="-320.8" font-family="Times,serif" font-size="14.00">FEFPostVal &lt;= 3.31</text>
<text text-anchor="middle" x="2151" y="-305.8" font-family="Times,serif" font-size="14.00">gini = 0.492</text>
<text text-anchor="middle" x="2151" y="-290.8" font-family="Times,serif" font-size="14.00">samples = 42</text>
<text text-anchor="middle" x="2151" y="-275.8" font-family="Times,serif" font-size="14.00">value = [27.75, 36.026]</text>
<text text-anchor="middle" x="2151" y="-260.8" font-family="Times,serif" font-size="14.00">class = Obstructive</text>
</g>
<!-- 14&#45;&gt;22 -->
<g id="edge22" class="edge">
<title>14&#45;&gt;22</title>
<path fill="none" stroke="black" d="M1646.77,-412.83C1758.37,-388.52 1936.42,-349.74 2048.36,-325.36"/>
<polygon fill="black" stroke="black" points="2049.28,-328.74 2058.31,-323.19 2047.79,-321.9 2049.28,-328.74"/>
</g>
<!-- 16 -->
<g id="node17" class="node">
<title>16</title>
<polygon fill="none" stroke="black" points="1543.5,-217 1346.5,-217 1346.5,-119 1543.5,-119 1543.5,-217"/>
<text text-anchor="middle" x="1445" y="-201.8" font-family="Times,serif" font-size="14.00">node #16</text>
<text text-anchor="middle" x="1445" y="-186.8" font-family="Times,serif" font-size="14.00">FVCPostPercent &lt;= 69.5</text>
<text text-anchor="middle" x="1445" y="-171.8" font-family="Times,serif" font-size="14.00">gini = 0.09</text>
<text text-anchor="middle" x="1445" y="-156.8" font-family="Times,serif" font-size="14.00">samples = 74</text>
<text text-anchor="middle" x="1445" y="-141.8" font-family="Times,serif" font-size="14.00">value = [117.167, 5.842]</text>
<text text-anchor="middle" x="1445" y="-126.8" font-family="Times,serif" font-size="14.00">class = Non&#45;obstructive</text>
</g>
<!-- 15&#45;&gt;16 -->
<g id="edge16" class="edge">
<title>15&#45;&gt;16</title>
<path fill="none" stroke="black" d="M1508.61,-252.97C1501.79,-243.96 1494.6,-234.47 1487.61,-225.24"/>
<polygon fill="black" stroke="black" points="1490.35,-223.07 1481.53,-217.21 1484.77,-227.3 1490.35,-223.07"/>
</g>
<!-- 19 -->
<g id="node20" class="node">
<title>19</title>
<polygon fill="none" stroke="black" points="1728.5,-217 1561.5,-217 1561.5,-119 1728.5,-119 1728.5,-217"/>
<text text-anchor="middle" x="1645" y="-201.8" font-family="Times,serif" font-size="14.00">node #19</text>
<text text-anchor="middle" x="1645" y="-186.8" font-family="Times,serif" font-size="14.00">FEFPreVal &lt;= 3.785</text>
<text text-anchor="middle" x="1645" y="-171.8" font-family="Times,serif" font-size="14.00">gini = 0.5</text>
<text text-anchor="middle" x="1645" y="-156.8" font-family="Times,serif" font-size="14.00">samples = 12</text>
<text text-anchor="middle" x="1645" y="-141.8" font-family="Times,serif" font-size="14.00">value = [9.25, 9.737]</text>
<text text-anchor="middle" x="1645" y="-126.8" font-family="Times,serif" font-size="14.00">class = Obstructive</text>
</g>
<!-- 15&#45;&gt;19 -->
<g id="edge19" class="edge">
<title>15&#45;&gt;19</title>
<path fill="none" stroke="black" d="M1581.39,-252.97C1588.21,-243.96 1595.4,-234.47 1602.39,-225.24"/>
<polygon fill="black" stroke="black" points="1605.23,-227.3 1608.47,-217.21 1599.65,-223.07 1605.23,-227.3"/>
</g>
<!-- 17 -->
<g id="node18" class="node">
<title>17</title>
<polygon fill="none" stroke="black" points="1333,-83 1139,-83 1139,0 1333,0 1333,-83"/>
<text text-anchor="middle" x="1236" y="-67.8" font-family="Times,serif" font-size="14.00">node #17</text>
<text text-anchor="middle" x="1236" y="-52.8" font-family="Times,serif" font-size="14.00">gini = 0.052</text>
<text text-anchor="middle" x="1236" y="-37.8" font-family="Times,serif" font-size="14.00">samples = 66</text>
<text text-anchor="middle" x="1236" y="-22.8" font-family="Times,serif" font-size="14.00">value = [106.889, 2.921]</text>
<text text-anchor="middle" x="1236" y="-7.8" font-family="Times,serif" font-size="14.00">class = Non&#45;obstructive</text>
</g>
<!-- 16&#45;&gt;17 -->
<g id="edge17" class="edge">
<title>16&#45;&gt;17</title>
<path fill="none" stroke="black" d="M1364.2,-118.87C1347.27,-108.78 1329.48,-98.18 1312.71,-88.19"/>
<polygon fill="black" stroke="black" points="1314.42,-85.14 1304.04,-83.03 1310.84,-91.16 1314.42,-85.14"/>
</g>
<!-- 18 -->
<g id="node19" class="node">
<title>18</title>
<polygon fill="none" stroke="black" points="1539,-83 1351,-83 1351,0 1539,0 1539,-83"/>
<text text-anchor="middle" x="1445" y="-67.8" font-family="Times,serif" font-size="14.00">node #18</text>
<text text-anchor="middle" x="1445" y="-52.8" font-family="Times,serif" font-size="14.00">gini = 0.345</text>
<text text-anchor="middle" x="1445" y="-37.8" font-family="Times,serif" font-size="14.00">samples = 8</text>
<text text-anchor="middle" x="1445" y="-22.8" font-family="Times,serif" font-size="14.00">value = [10.278, 2.921]</text>
<text text-anchor="middle" x="1445" y="-7.8" font-family="Times,serif" font-size="14.00">class = Non&#45;obstructive</text>
</g>
<!-- 16&#45;&gt;18 -->
<g id="edge18" class="edge">
<title>16&#45;&gt;18</title>
<path fill="none" stroke="black" d="M1445,-118.87C1445,-110.5 1445,-101.77 1445,-93.33"/>
<polygon fill="black" stroke="black" points="1448.5,-93.23 1445,-83.23 1441.5,-93.23 1448.5,-93.23"/>
</g>
<!-- 20 -->
<g id="node21" class="node">
<title>20</title>
<polygon fill="none" stroke="black" points="1733,-83 1557,-83 1557,0 1733,0 1733,-83"/>
<text text-anchor="middle" x="1645" y="-67.8" font-family="Times,serif" font-size="14.00">node #20</text>
<text text-anchor="middle" x="1645" y="-52.8" font-family="Times,serif" font-size="14.00">gini = 0.452</text>
<text text-anchor="middle" x="1645" y="-37.8" font-family="Times,serif" font-size="14.00">samples = 10</text>
<text text-anchor="middle" x="1645" y="-22.8" font-family="Times,serif" font-size="14.00">value = [5.139, 9.737]</text>
<text text-anchor="middle" x="1645" y="-7.8" font-family="Times,serif" font-size="14.00">class = Obstructive</text>
</g>
<!-- 19&#45;&gt;20 -->
<g id="edge20" class="edge">
<title>19&#45;&gt;20</title>
<path fill="none" stroke="black" d="M1645,-118.87C1645,-110.5 1645,-101.77 1645,-93.33"/>
<polygon fill="black" stroke="black" points="1648.5,-93.23 1645,-83.23 1641.5,-93.23 1648.5,-93.23"/>
</g>
<!-- 21 -->
<g id="node22" class="node">
<title>21</title>
<polygon fill="none" stroke="black" points="1939,-83 1751,-83 1751,0 1939,0 1939,-83"/>
<text text-anchor="middle" x="1845" y="-67.8" font-family="Times,serif" font-size="14.00">node #21</text>
<text text-anchor="middle" x="1845" y="-52.8" font-family="Times,serif" font-size="14.00">gini = 0.0</text>
<text text-anchor="middle" x="1845" y="-37.8" font-family="Times,serif" font-size="14.00">samples = 2</text>
<text text-anchor="middle" x="1845" y="-22.8" font-family="Times,serif" font-size="14.00">value = [4.111, 0.0]</text>
<text text-anchor="middle" x="1845" y="-7.8" font-family="Times,serif" font-size="14.00">class = Non&#45;obstructive</text>
</g>
<!-- 19&#45;&gt;21 -->
<g id="edge21" class="edge">
<title>19&#45;&gt;21</title>
<path fill="none" stroke="black" d="M1722.33,-118.87C1738.37,-108.88 1755.24,-98.38 1771.15,-88.47"/>
<polygon fill="black" stroke="black" points="1773.25,-91.29 1779.89,-83.03 1769.55,-85.35 1773.25,-91.29"/>
</g>
<!-- 23 -->
<g id="node24" class="node">
<title>23</title>
<polygon fill="none" stroke="black" points="2248,-217 2054,-217 2054,-119 2248,-119 2248,-217"/>
<text text-anchor="middle" x="2151" y="-201.8" font-family="Times,serif" font-size="14.00">node #23</text>
<text text-anchor="middle" x="2151" y="-186.8" font-family="Times,serif" font-size="14.00">FEV1PostVal &lt;= 1.93</text>
<text text-anchor="middle" x="2151" y="-171.8" font-family="Times,serif" font-size="14.00">gini = 0.396</text>
<text text-anchor="middle" x="2151" y="-156.8" font-family="Times,serif" font-size="14.00">samples = 32</text>
<text text-anchor="middle" x="2151" y="-141.8" font-family="Times,serif" font-size="14.00">value = [12.333, 33.105]</text>
<text text-anchor="middle" x="2151" y="-126.8" font-family="Times,serif" font-size="14.00">class = Obstructive</text>
</g>
<!-- 22&#45;&gt;23 -->
<g id="edge23" class="edge">
<title>22&#45;&gt;23</title>
<path fill="none" stroke="black" d="M2151,-252.97C2151,-244.69 2151,-236 2151,-227.48"/>
<polygon fill="black" stroke="black" points="2154.5,-227.21 2151,-217.21 2147.5,-227.21 2154.5,-227.21"/>
</g>
<!-- 26 -->
<g id="node27" class="node">
<title>26</title>
<polygon fill="none" stroke="black" points="2555,-217 2367,-217 2367,-119 2555,-119 2555,-217"/>
<text text-anchor="middle" x="2461" y="-201.8" font-family="Times,serif" font-size="14.00">node #26</text>
<text text-anchor="middle" x="2461" y="-186.8" font-family="Times,serif" font-size="14.00">FVCPostVal &lt;= 6.67</text>
<text text-anchor="middle" x="2461" y="-171.8" font-family="Times,serif" font-size="14.00">gini = 0.268</text>
<text text-anchor="middle" x="2461" y="-156.8" font-family="Times,serif" font-size="14.00">samples = 10</text>
<text text-anchor="middle" x="2461" y="-141.8" font-family="Times,serif" font-size="14.00">value = [15.417, 2.921]</text>
<text text-anchor="middle" x="2461" y="-126.8" font-family="Times,serif" font-size="14.00">class = Non&#45;obstructive</text>
</g>
<!-- 22&#45;&gt;26 -->
<g id="edge26" class="edge">
<title>22&#45;&gt;26</title>
<path fill="none" stroke="black" d="M2243.59,-261.57C2279.45,-246.31 2320.65,-228.76 2357.48,-213.08"/>
<polygon fill="black" stroke="black" points="2358.91,-216.27 2366.74,-209.14 2356.17,-209.83 2358.91,-216.27"/>
</g>
<!-- 24 -->
<g id="node25" class="node">
<title>24</title>
<polygon fill="none" stroke="black" points="2145,-83 1957,-83 1957,0 2145,0 2145,-83"/>
<text text-anchor="middle" x="2051" y="-67.8" font-family="Times,serif" font-size="14.00">node #24</text>
<text text-anchor="middle" x="2051" y="-52.8" font-family="Times,serif" font-size="14.00">gini = 0.495</text>
<text text-anchor="middle" x="2051" y="-37.8" font-family="Times,serif" font-size="14.00">samples = 9</text>
<text text-anchor="middle" x="2051" y="-22.8" font-family="Times,serif" font-size="14.00">value = [7.194, 5.842]</text>
<text text-anchor="middle" x="2051" y="-7.8" font-family="Times,serif" font-size="14.00">class = Non&#45;obstructive</text>
</g>
<!-- 23&#45;&gt;24 -->
<g id="edge24" class="edge">
<title>23&#45;&gt;24</title>
<path fill="none" stroke="black" d="M2112.34,-118.87C2105.03,-109.76 2097.37,-100.23 2090.05,-91.12"/>
<polygon fill="black" stroke="black" points="2092.71,-88.84 2083.72,-83.23 2087.25,-93.22 2092.71,-88.84"/>
</g>
<!-- 25 -->
<g id="node26" class="node">
<title>25</title>
<polygon fill="none" stroke="black" points="2348.5,-83 2163.5,-83 2163.5,0 2348.5,0 2348.5,-83"/>
<text text-anchor="middle" x="2256" y="-67.8" font-family="Times,serif" font-size="14.00">node #25</text>
<text text-anchor="middle" x="2256" y="-52.8" font-family="Times,serif" font-size="14.00">gini = 0.267</text>
<text text-anchor="middle" x="2256" y="-37.8" font-family="Times,serif" font-size="14.00">samples = 23</text>
<text text-anchor="middle" x="2256" y="-22.8" font-family="Times,serif" font-size="14.00">value = [5.139, 27.263]</text>
<text text-anchor="middle" x="2256" y="-7.8" font-family="Times,serif" font-size="14.00">class = Obstructive</text>
</g>
<!-- 23&#45;&gt;25 -->
<g id="edge25" class="edge">
<title>23&#45;&gt;25</title>
<path fill="none" stroke="black" d="M2191.6,-118.87C2199.27,-109.76 2207.31,-100.23 2215,-91.12"/>
<polygon fill="black" stroke="black" points="2217.88,-93.13 2221.65,-83.23 2212.53,-88.62 2217.88,-93.13"/>
</g>
<!-- 27 -->
<g id="node28" class="node">
<title>27</title>
<polygon fill="none" stroke="black" points="2555,-83 2367,-83 2367,0 2555,0 2555,-83"/>
<text text-anchor="middle" x="2461" y="-67.8" font-family="Times,serif" font-size="14.00">node #27</text>
<text text-anchor="middle" x="2461" y="-52.8" font-family="Times,serif" font-size="14.00">gini = 0.199</text>
<text text-anchor="middle" x="2461" y="-37.8" font-family="Times,serif" font-size="14.00">samples = 9</text>
<text text-anchor="middle" x="2461" y="-22.8" font-family="Times,serif" font-size="14.00">value = [15.417, 1.947]</text>
<text text-anchor="middle" x="2461" y="-7.8" font-family="Times,serif" font-size="14.00">class = Non&#45;obstructive</text>
</g>
<!-- 26&#45;&gt;27 -->
<g id="edge27" class="edge">
<title>26&#45;&gt;27</title>
<path fill="none" stroke="black" d="M2461,-118.87C2461,-110.5 2461,-101.77 2461,-93.33"/>
<polygon fill="black" stroke="black" points="2464.5,-93.23 2461,-83.23 2457.5,-93.23 2464.5,-93.23"/>
</g>
<!-- 28 -->
<g id="node29" class="node">
<title>28</title>
<polygon fill="none" stroke="black" points="2731,-83 2573,-83 2573,0 2731,0 2731,-83"/>
<text text-anchor="middle" x="2652" y="-67.8" font-family="Times,serif" font-size="14.00">node #28</text>
<text text-anchor="middle" x="2652" y="-52.8" font-family="Times,serif" font-size="14.00">gini = &#45;0.0</text>
<text text-anchor="middle" x="2652" y="-37.8" font-family="Times,serif" font-size="14.00">samples = 1</text>
<text text-anchor="middle" x="2652" y="-22.8" font-family="Times,serif" font-size="14.00">value = [0.0, 0.974]</text>
<text text-anchor="middle" x="2652" y="-7.8" font-family="Times,serif" font-size="14.00">class = Obstructive</text>
</g>
<!-- 26&#45;&gt;28 -->
<g id="edge28" class="edge">
<title>26&#45;&gt;28</title>
<path fill="none" stroke="black" d="M2534.85,-118.87C2550.03,-108.97 2565.98,-98.57 2581.05,-88.74"/>
<polygon fill="black" stroke="black" points="2583.35,-91.43 2589.82,-83.03 2579.53,-85.56 2583.35,-91.43"/>
</g>
</g>
</svg>
