<?xml version="1.0" encoding="UTF-8" standalone="no"?>
<!DOCTYPE svg PUBLIC "-//W3C//DTD SVG 1.1//EN"
 "http://www.w3.org/Graphics/SVG/1.1/DTD/svg11.dtd">
<!-- Generated by graphviz version 2.43.0 (0)
 -->
<!-- Title: Tree Pages: 1 -->
<svg width="1983pt" height="627pt"
 viewBox="0.00 0.00 1983.00 627.00" xmlns="http://www.w3.org/2000/svg" xmlns:xlink="http://www.w3.org/1999/xlink">
<g id="graph0" class="graph" transform="scale(1 1) rotate(0) translate(4 623)">
<title>Tree</title>
<polygon fill="white" stroke="transparent" points="-4,4 -4,-623 1979,-623 1979,4 -4,4"/>
<!-- 0 -->
<g id="node1" class="node">
<title>0</title>
<polygon fill="none" stroke="black" points="881,-619 693,-619 693,-521 881,-521 881,-619"/>
<text text-anchor="middle" x="787" y="-603.8" font-family="Times,serif" font-size="14.00">node #0</text>
<text text-anchor="middle" x="787" y="-588.8" font-family="Times,serif" font-size="14.00">FEFPreVal &lt;= 1.07</text>
<text text-anchor="middle" x="787" y="-573.8" font-family="Times,serif" font-size="14.00">gini = 0.5</text>
<text text-anchor="middle" x="787" y="-558.8" font-family="Times,serif" font-size="14.00">samples = 205</text>
<text text-anchor="middle" x="787" y="-543.8" font-family="Times,serif" font-size="14.00">value = [167.0, 167.0]</text>
<text text-anchor="middle" x="787" y="-528.8" font-family="Times,serif" font-size="14.00">class = Non&#45;obstructive</text>
</g>
<!-- 1 -->
<g id="node2" class="node">
<title>1</title>
<polygon fill="none" stroke="black" points="683.5,-485 480.5,-485 480.5,-387 683.5,-387 683.5,-485"/>
<text text-anchor="middle" x="582" y="-469.8" font-family="Times,serif" font-size="14.00">node #1</text>
<text text-anchor="middle" x="582" y="-454.8" font-family="Times,serif" font-size="14.00">FVCPostVal &lt;= 1.205</text>
<text text-anchor="middle" x="582" y="-439.8" font-family="Times,serif" font-size="14.00">gini = 0.224</text>
<text text-anchor="middle" x="582" y="-424.8" font-family="Times,serif" font-size="14.00">samples = 77</text>
<text text-anchor="middle" x="582" y="-409.8" font-family="Times,serif" font-size="14.00">value = [16.194, 109.686]</text>
<text text-anchor="middle" x="582" y="-394.8" font-family="Times,serif" font-size="14.00">class = Obstructive</text>
</g>
<!-- 0&#45;&gt;1 -->
<g id="edge1" class="edge">
<title>0&#45;&gt;1</title>
<path fill="none" stroke="black" d="M712.41,-520.97C697.15,-511.14 680.99,-500.74 665.44,-490.73"/>
<polygon fill="black" stroke="black" points="667.18,-487.68 656.88,-485.21 663.39,-493.57 667.18,-487.68"/>
<text text-anchor="middle" x="662.17" y="-505.95" font-family="Times,serif" font-size="14.00">True</text>
</g>
<!-- 12 -->
<g id="node13" class="node">
<title>12</title>
<polygon fill="none" stroke="black" points="1105.5,-485 902.5,-485 902.5,-387 1105.5,-387 1105.5,-485"/>
<text text-anchor="middle" x="1004" y="-469.8" font-family="Times,serif" font-size="14.00">node #12</text>
<text text-anchor="middle" x="1004" y="-454.8" font-family="Times,serif" font-size="14.00">FEV1PostVal &lt;= 1.875</text>
<text text-anchor="middle" x="1004" y="-439.8" font-family="Times,serif" font-size="14.00">gini = 0.399</text>
<text text-anchor="middle" x="1004" y="-424.8" font-family="Times,serif" font-size="14.00">samples = 128</text>
<text text-anchor="middle" x="1004" y="-409.8" font-family="Times,serif" font-size="14.00">value = [150.806, 57.314]</text>
<text text-anchor="middle" x="1004" y="-394.8" font-family="Times,serif" font-size="14.00">class = Non&#45;obstructive</text>
</g>
<!-- 0&#45;&gt;12 -->
<g id="edge12" class="edge">
<title>0&#45;&gt;12</title>
<path fill="none" stroke="black" d="M865.96,-520.97C882.26,-511.05 899.53,-500.55 916.13,-490.45"/>
<polygon fill="black" stroke="black" points="918.01,-493.4 924.74,-485.21 914.38,-487.42 918.01,-493.4"/>
<text text-anchor="middle" x="918.82" y="-505.8" font-family="Times,serif" font-size="14.00">False</text>
</g>
<!-- 2 -->
<g id="node3" class="node">
<title>2</title>
<polygon fill="none" stroke="black" points="368.5,-351 183.5,-351 183.5,-253 368.5,-253 368.5,-351"/>
<text text-anchor="middle" x="276" y="-335.8" font-family="Times,serif" font-size="14.00">node #2</text>
<text text-anchor="middle" x="276" y="-320.8" font-family="Times,serif" font-size="14.00">FVCPostVal &lt;= 0.855</text>
<text text-anchor="middle" x="276" y="-305.8" font-family="Times,serif" font-size="14.00">gini = 0.482</text>
<text text-anchor="middle" x="276" y="-290.8" font-family="Times,serif" font-size="14.00">samples = 10</text>
<text text-anchor="middle" x="276" y="-275.8" font-family="Times,serif" font-size="14.00">value = [8.097, 11.858]</text>
<text text-anchor="middle" x="276" y="-260.8" font-family="Times,serif" font-size="14.00">class = Obstructive</text>
</g>
<!-- 1&#45;&gt;2 -->
<g id="edge2" class="edge">
<title>1&#45;&gt;2</title>
<path fill="none" stroke="black" d="M480.11,-391.05C447.35,-376.92 411.07,-361.26 378.28,-347.12"/>
<polygon fill="black" stroke="black" points="379.25,-343.73 368.68,-342.98 376.48,-350.16 379.25,-343.73"/>
</g>
<!-- 7 -->
<g id="node8" class="node">
<title>7</title>
<polygon fill="none" stroke="black" points="680.5,-351 483.5,-351 483.5,-253 680.5,-253 680.5,-351"/>
<text text-anchor="middle" x="582" y="-335.8" font-family="Times,serif" font-size="14.00">node #7</text>
<text text-anchor="middle" x="582" y="-320.8" font-family="Times,serif" font-size="14.00">FEFPostPercent &lt;= 71.5</text>
<text text-anchor="middle" x="582" y="-305.8" font-family="Times,serif" font-size="14.00">gini = 0.141</text>
<text text-anchor="middle" x="582" y="-290.8" font-family="Times,serif" font-size="14.00">samples = 67</text>
<text text-anchor="middle" x="582" y="-275.8" font-family="Times,serif" font-size="14.00">value = [8.097, 97.828]</text>
<text text-anchor="middle" x="582" y="-260.8" font-family="Times,serif" font-size="14.00">class = Obstructive</text>
</g>
<!-- 1&#45;&gt;7 -->
<g id="edge7" class="edge">
<title>1&#45;&gt;7</title>
<path fill="none" stroke="black" d="M582,-386.97C582,-378.69 582,-370 582,-361.48"/>
<polygon fill="black" stroke="black" points="585.5,-361.21 582,-351.21 578.5,-361.21 585.5,-361.21"/>
</g>
<!-- 3 -->
<g id="node4" class="node">
<title>3</title>
<polygon fill="none" stroke="black" points="158,-209.5 0,-209.5 0,-126.5 158,-126.5 158,-209.5"/>
<text text-anchor="middle" x="79" y="-194.3" font-family="Times,serif" font-size="14.00">node #3</text>
<text text-anchor="middle" x="79" y="-179.3" font-family="Times,serif" font-size="14.00">gini = 0.0</text>
<text text-anchor="middle" x="79" y="-164.3" font-family="Times,serif" font-size="14.00">samples = 3</text>
<text text-anchor="middle" x="79" y="-149.3" font-family="Times,serif" font-size="14.00">value = [0.0, 5.929]</text>
<text text-anchor="middle" x="79" y="-134.3" font-family="Times,serif" font-size="14.00">class = Obstructive</text>
</g>
<!-- 2&#45;&gt;3 -->
<g id="edge3" class="edge">
<title>2&#45;&gt;3</title>
<path fill="none" stroke="black" d="M204.32,-252.97C186.07,-240.75 166.5,-227.63 148.37,-215.48"/>
<polygon fill="black" stroke="black" points="149.85,-212.26 139.6,-209.6 145.96,-218.08 149.85,-212.26"/>
</g>
<!-- 4 -->
<g id="node5" class="node">
<title>4</title>
<polygon fill="none" stroke="black" points="376,-217 176,-217 176,-119 376,-119 376,-217"/>
<text text-anchor="middle" x="276" y="-201.8" font-family="Times,serif" font-size="14.00">node #4</text>
<text text-anchor="middle" x="276" y="-186.8" font-family="Times,serif" font-size="14.00">FEV1PrePercent &lt;= 29.5</text>
<text text-anchor="middle" x="276" y="-171.8" font-family="Times,serif" font-size="14.00">gini = 0.488</text>
<text text-anchor="middle" x="276" y="-156.8" font-family="Times,serif" font-size="14.00">samples = 7</text>
<text text-anchor="middle" x="276" y="-141.8" font-family="Times,serif" font-size="14.00">value = [8.097, 5.929]</text>
<text text-anchor="middle" x="276" y="-126.8" font-family="Times,serif" font-size="14.00">class = Non&#45;obstructive</text>
</g>
<!-- 2&#45;&gt;4 -->
<g id="edge4" class="edge">
<title>2&#45;&gt;4</title>
<path fill="none" stroke="black" d="M276,-252.97C276,-244.69 276,-236 276,-227.48"/>
<polygon fill="black" stroke="black" points="279.5,-227.21 276,-217.21 272.5,-227.21 279.5,-227.21"/>
</g>
<!-- 5 -->
<g id="node6" class="node">
<title>5</title>
<polygon fill="none" stroke="black" points="166,-83 8,-83 8,0 166,0 166,-83"/>
<text text-anchor="middle" x="87" y="-67.8" font-family="Times,serif" font-size="14.00">node #5</text>
<text text-anchor="middle" x="87" y="-52.8" font-family="Times,serif" font-size="14.00">gini = 0.0</text>
<text text-anchor="middle" x="87" y="-37.8" font-family="Times,serif" font-size="14.00">samples = 3</text>
<text text-anchor="middle" x="87" y="-22.8" font-family="Times,serif" font-size="14.00">value = [0.0, 5.929]</text>
<text text-anchor="middle" x="87" y="-7.8" font-family="Times,serif" font-size="14.00">class = Obstructive</text>
</g>
<!-- 4&#45;&gt;5 -->
<g id="edge5" class="edge">
<title>4&#45;&gt;5</title>
<path fill="none" stroke="black" d="M202.93,-118.87C187.91,-108.97 172.12,-98.57 157.2,-88.74"/>
<polygon fill="black" stroke="black" points="158.81,-85.61 148.53,-83.03 154.96,-91.46 158.81,-85.61"/>
</g>
<!-- 6 -->
<g id="node7" class="node">
<title>6</title>
<polygon fill="none" stroke="black" points="372,-83 184,-83 184,0 372,0 372,-83"/>
<text text-anchor="middle" x="278" y="-67.8" font-family="Times,serif" font-size="14.00">node #6</text>
<text text-anchor="middle" x="278" y="-52.8" font-family="Times,serif" font-size="14.00">gini = &#45;0.0</text>
<text text-anchor="middle" x="278" y="-37.8" font-family="Times,serif" font-size="14.00">samples = 4</text>
<text text-anchor="middle" x="278" y="-22.8" font-family="Times,serif" font-size="14.00">value = [8.097, 0.0]</text>
<text text-anchor="middle" x="278" y="-7.8" font-family="Times,serif" font-size="14.00">class = Non&#45;obstructive</text>
</g>
<!-- 4&#45;&gt;6 -->
<g id="edge6" class="edge">
<title>4&#45;&gt;6</title>
<path fill="none" stroke="black" d="M276.77,-118.87C276.91,-110.5 277.05,-101.77 277.18,-93.33"/>
<polygon fill="black" stroke="black" points="280.68,-93.29 277.35,-83.23 273.69,-93.17 280.68,-93.29"/>
</g>
<!-- 8 -->
<g id="node9" class="node">
<title>8</title>
<polygon fill="none" stroke="black" points="579.5,-217 394.5,-217 394.5,-119 579.5,-119 579.5,-217"/>
<text text-anchor="middle" x="487" y="-201.8" font-family="Times,serif" font-size="14.00">node #8</text>
<text text-anchor="middle" x="487" y="-186.8" font-family="Times,serif" font-size="14.00">FVCPostVal &lt;= 1.68</text>
<text text-anchor="middle" x="487" y="-171.8" font-family="Times,serif" font-size="14.00">gini = 0.126</text>
<text text-anchor="middle" x="487" y="-156.8" font-family="Times,serif" font-size="14.00">samples = 66</text>
<text text-anchor="middle" x="487" y="-141.8" font-family="Times,serif" font-size="14.00">value = [7.085, 97.828]</text>
<text text-anchor="middle" x="487" y="-126.8" font-family="Times,serif" font-size="14.00">class = Obstructive</text>
</g>
<!-- 7&#45;&gt;8 -->
<g id="edge8" class="edge">
<title>7&#45;&gt;8</title>
<path fill="none" stroke="black" d="M547.43,-252.97C541.02,-244.05 534.26,-234.66 527.68,-225.52"/>
<polygon fill="black" stroke="black" points="530.38,-223.29 521.7,-217.21 524.7,-227.37 530.38,-223.29"/>
</g>
<!-- 11 -->
<g id="node12" class="node">
<title>11</title>
<polygon fill="none" stroke="black" points="786,-209.5 598,-209.5 598,-126.5 786,-126.5 786,-209.5"/>
<text text-anchor="middle" x="692" y="-194.3" font-family="Times,serif" font-size="14.00">node #11</text>
<text text-anchor="middle" x="692" y="-179.3" font-family="Times,serif" font-size="14.00">gini = 0.0</text>
<text text-anchor="middle" x="692" y="-164.3" font-family="Times,serif" font-size="14.00">samples = 1</text>
<text text-anchor="middle" x="692" y="-149.3" font-family="Times,serif" font-size="14.00">value = [1.012, 0.0]</text>
<text text-anchor="middle" x="692" y="-134.3" font-family="Times,serif" font-size="14.00">class = Non&#45;obstructive</text>
</g>
<!-- 7&#45;&gt;11 -->
<g id="edge11" class="edge">
<title>7&#45;&gt;11</title>
<path fill="none" stroke="black" d="M622.02,-252.97C631.61,-241.47 641.85,-229.18 651.45,-217.66"/>
<polygon fill="black" stroke="black" points="654.27,-219.74 657.99,-209.82 648.9,-215.26 654.27,-219.74"/>
</g>
<!-- 9 -->
<g id="node10" class="node">
<title>9</title>
<polygon fill="none" stroke="black" points="578.5,-83 393.5,-83 393.5,0 578.5,0 578.5,-83"/>
<text text-anchor="middle" x="486" y="-67.8" font-family="Times,serif" font-size="14.00">node #9</text>
<text text-anchor="middle" x="486" y="-52.8" font-family="Times,serif" font-size="14.00">gini = 0.295</text>
<text text-anchor="middle" x="486" y="-37.8" font-family="Times,serif" font-size="14.00">samples = 20</text>
<text text-anchor="middle" x="486" y="-22.8" font-family="Times,serif" font-size="14.00">value = [6.073, 27.669]</text>
<text text-anchor="middle" x="486" y="-7.8" font-family="Times,serif" font-size="14.00">class = Obstructive</text>
</g>
<!-- 8&#45;&gt;9 -->
<g id="edge9" class="edge">
<title>8&#45;&gt;9</title>
<path fill="none" stroke="black" d="M486.61,-118.87C486.55,-110.5 486.48,-101.77 486.41,-93.33"/>
<polygon fill="black" stroke="black" points="489.91,-93.2 486.33,-83.23 482.91,-93.26 489.91,-93.2"/>
</g>
<!-- 10 -->
<g id="node11" class="node">
<title>10</title>
<polygon fill="none" stroke="black" points="772,-83 596,-83 596,0 772,0 772,-83"/>
<text text-anchor="middle" x="684" y="-67.8" font-family="Times,serif" font-size="14.00">node #10</text>
<text text-anchor="middle" x="684" y="-52.8" font-family="Times,serif" font-size="14.00">gini = 0.028</text>
<text text-anchor="middle" x="684" y="-37.8" font-family="Times,serif" font-size="14.00">samples = 46</text>
<text text-anchor="middle" x="684" y="-22.8" font-family="Times,serif" font-size="14.00">value = [1.012, 70.16]</text>
<text text-anchor="middle" x="684" y="-7.8" font-family="Times,serif" font-size="14.00">class = Obstructive</text>
</g>
<!-- 8&#45;&gt;10 -->
<g id="edge10" class="edge">
<title>8&#45;&gt;10</title>
<path fill="none" stroke="black" d="M563.17,-118.87C578.97,-108.88 595.58,-98.38 611.26,-88.47"/>
<polygon fill="black" stroke="black" points="613.28,-91.33 619.86,-83.03 609.54,-85.42 613.28,-91.33"/>
</g>
<!-- 13 -->
<g id="node14" class="node">
<title>13</title>
<polygon fill="none" stroke="black" points="1099.5,-351 908.5,-351 908.5,-253 1099.5,-253 1099.5,-351"/>
<text text-anchor="middle" x="1004" y="-335.8" font-family="Times,serif" font-size="14.00">node #13</text>
<text text-anchor="middle" x="1004" y="-320.8" font-family="Times,serif" font-size="14.00">FVCPrePercent &lt;= 56.5</text>
<text text-anchor="middle" x="1004" y="-305.8" font-family="Times,serif" font-size="14.00">gini = 0.091</text>
<text text-anchor="middle" x="1004" y="-290.8" font-family="Times,serif" font-size="14.00">samples = 68</text>
<text text-anchor="middle" x="1004" y="-275.8" font-family="Times,serif" font-size="14.00">value = [98.176, 4.941]</text>
<text text-anchor="middle" x="1004" y="-260.8" font-family="Times,serif" font-size="14.00">class = Non&#45;obstructive</text>
</g>
<!-- 12&#45;&gt;13 -->
<g id="edge13" class="edge">
<title>12&#45;&gt;13</title>
<path fill="none" stroke="black" d="M1004,-386.97C1004,-378.69 1004,-370 1004,-361.48"/>
<polygon fill="black" stroke="black" points="1007.5,-361.21 1004,-351.21 1000.5,-361.21 1007.5,-361.21"/>
</g>
<!-- 18 -->
<g id="node19" class="node">
<title>18</title>
<polygon fill="none" stroke="black" points="1503,-351 1315,-351 1315,-253 1503,-253 1503,-351"/>
<text text-anchor="middle" x="1409" y="-335.8" font-family="Times,serif" font-size="14.00">node #18</text>
<text text-anchor="middle" x="1409" y="-320.8" font-family="Times,serif" font-size="14.00">FEFPostVal &lt;= 2.96</text>
<text text-anchor="middle" x="1409" y="-305.8" font-family="Times,serif" font-size="14.00">gini = 0.5</text>
<text text-anchor="middle" x="1409" y="-290.8" font-family="Times,serif" font-size="14.00">samples = 60</text>
<text text-anchor="middle" x="1409" y="-275.8" font-family="Times,serif" font-size="14.00">value = [52.63, 52.373]</text>
<text text-anchor="middle" x="1409" y="-260.8" font-family="Times,serif" font-size="14.00">class = Non&#45;obstructive</text>
</g>
<!-- 12&#45;&gt;18 -->
<g id="edge18" class="edge">
<title>12&#45;&gt;18</title>
<path fill="none" stroke="black" d="M1105.68,-401.86C1166.62,-382 1243.92,-356.81 1305.23,-336.82"/>
<polygon fill="black" stroke="black" points="1306.5,-340.09 1314.93,-333.66 1304.33,-333.43 1306.5,-340.09"/>
</g>
<!-- 14 -->
<g id="node15" class="node">
<title>14</title>
<polygon fill="none" stroke="black" points="992,-209.5 804,-209.5 804,-126.5 992,-126.5 992,-209.5"/>
<text text-anchor="middle" x="898" y="-194.3" font-family="Times,serif" font-size="14.00">node #14</text>
<text text-anchor="middle" x="898" y="-179.3" font-family="Times,serif" font-size="14.00">gini = 0.0</text>
<text text-anchor="middle" x="898" y="-164.3" font-family="Times,serif" font-size="14.00">samples = 48</text>
<text text-anchor="middle" x="898" y="-149.3" font-family="Times,serif" font-size="14.00">value = [74.897, 0.0]</text>
<text text-anchor="middle" x="898" y="-134.3" font-family="Times,serif" font-size="14.00">class = Non&#45;obstructive</text>
</g>
<!-- 13&#45;&gt;14 -->
<g id="edge14" class="edge">
<title>13&#45;&gt;14</title>
<path fill="none" stroke="black" d="M965.43,-252.97C956.2,-241.47 946.33,-229.18 937.07,-217.66"/>
<polygon fill="black" stroke="black" points="939.77,-215.42 930.78,-209.82 934.31,-219.81 939.77,-215.42"/>
</g>
<!-- 15 -->
<g id="node16" class="node">
<title>15</title>
<polygon fill="none" stroke="black" points="1210,-217 1010,-217 1010,-119 1210,-119 1210,-217"/>
<text text-anchor="middle" x="1110" y="-201.8" font-family="Times,serif" font-size="14.00">node #15</text>
<text text-anchor="middle" x="1110" y="-186.8" font-family="Times,serif" font-size="14.00">FEV1PrePercent &lt;= 58.5</text>
<text text-anchor="middle" x="1110" y="-171.8" font-family="Times,serif" font-size="14.00">gini = 0.289</text>
<text text-anchor="middle" x="1110" y="-156.8" font-family="Times,serif" font-size="14.00">samples = 20</text>
<text text-anchor="middle" x="1110" y="-141.8" font-family="Times,serif" font-size="14.00">value = [23.279, 4.941]</text>
<text text-anchor="middle" x="1110" y="-126.8" font-family="Times,serif" font-size="14.00">class = Non&#45;obstructive</text>
</g>
<!-- 13&#45;&gt;15 -->
<g id="edge15" class="edge">
<title>13&#45;&gt;15</title>
<path fill="none" stroke="black" d="M1042.57,-252.97C1049.8,-243.96 1057.42,-234.47 1064.84,-225.24"/>
<polygon fill="black" stroke="black" points="1067.75,-227.2 1071.28,-217.21 1062.29,-222.82 1067.75,-227.2"/>
</g>
<!-- 16 -->
<g id="node17" class="node">
<title>16</title>
<polygon fill="none" stroke="black" points="998,-83 840,-83 840,0 998,0 998,-83"/>
<text text-anchor="middle" x="919" y="-67.8" font-family="Times,serif" font-size="14.00">node #16</text>
<text text-anchor="middle" x="919" y="-52.8" font-family="Times,serif" font-size="14.00">gini = 0.0</text>
<text text-anchor="middle" x="919" y="-37.8" font-family="Times,serif" font-size="14.00">samples = 2</text>
<text text-anchor="middle" x="919" y="-22.8" font-family="Times,serif" font-size="14.00">value = [0.0, 2.964]</text>
<text text-anchor="middle" x="919" y="-7.8" font-family="Times,serif" font-size="14.00">class = Obstructive</text>
</g>
<!-- 15&#45;&gt;16 -->
<g id="edge16" class="edge">
<title>15&#45;&gt;16</title>
<path fill="none" stroke="black" d="M1036.15,-118.87C1020.97,-108.97 1005.02,-98.57 989.95,-88.74"/>
<polygon fill="black" stroke="black" points="991.47,-85.56 981.18,-83.03 987.65,-91.43 991.47,-85.56"/>
</g>
<!-- 17 -->
<g id="node18" class="node">
<title>17</title>
<polygon fill="none" stroke="black" points="1204,-83 1016,-83 1016,0 1204,0 1204,-83"/>
<text text-anchor="middle" x="1110" y="-67.8" font-family="Times,serif" font-size="14.00">node #17</text>
<text text-anchor="middle" x="1110" y="-52.8" font-family="Times,serif" font-size="14.00">gini = 0.144</text>
<text text-anchor="middle" x="1110" y="-37.8" font-family="Times,serif" font-size="14.00">samples = 18</text>
<text text-anchor="middle" x="1110" y="-22.8" font-family="Times,serif" font-size="14.00">value = [23.279, 1.976]</text>
<text text-anchor="middle" x="1110" y="-7.8" font-family="Times,serif" font-size="14.00">class = Non&#45;obstructive</text>
</g>
<!-- 15&#45;&gt;17 -->
<g id="edge17" class="edge">
<title>15&#45;&gt;17</title>
<path fill="none" stroke="black" d="M1110,-118.87C1110,-110.5 1110,-101.77 1110,-93.33"/>
<polygon fill="black" stroke="black" points="1113.5,-93.23 1110,-83.23 1106.5,-93.23 1113.5,-93.23"/>
</g>
<!-- 19 -->
<g id="node20" class="node">
<title>19</title>
<polygon fill="none" stroke="black" points="1501.5,-217 1316.5,-217 1316.5,-119 1501.5,-119 1501.5,-217"/>
<text text-anchor="middle" x="1409" y="-201.8" font-family="Times,serif" font-size="14.00">node #19</text>
<text text-anchor="middle" x="1409" y="-186.8" font-family="Times,serif" font-size="14.00">FEFPreVal &lt;= 1.595</text>
<text text-anchor="middle" x="1409" y="-171.8" font-family="Times,serif" font-size="14.00">gini = 0.403</text>
<text text-anchor="middle" x="1409" y="-156.8" font-family="Times,serif" font-size="14.00">samples = 31</text>
<text text-anchor="middle" x="1409" y="-141.8" font-family="Times,serif" font-size="14.00">value = [14.17, 36.562]</text>
<text text-anchor="middle" x="1409" y="-126.8" font-family="Times,serif" font-size="14.00">class = Obstructive</text>
</g>
<!-- 18&#45;&gt;19 -->
<g id="edge19" class="edge">
<title>18&#45;&gt;19</title>
<path fill="none" stroke="black" d="M1409,-252.97C1409,-244.69 1409,-236 1409,-227.48"/>
<polygon fill="black" stroke="black" points="1412.5,-227.21 1409,-217.21 1405.5,-227.21 1412.5,-227.21"/>
</g>
<!-- 22 -->
<g id="node23" class="node">
<title>22</title>
<polygon fill="none" stroke="black" points="1802,-217 1608,-217 1608,-119 1802,-119 1802,-217"/>
<text text-anchor="middle" x="1705" y="-201.8" font-family="Times,serif" font-size="14.00">node #22</text>
<text text-anchor="middle" x="1705" y="-186.8" font-family="Times,serif" font-size="14.00">FEV1PreVal &lt;= 3.48</text>
<text text-anchor="middle" x="1705" y="-171.8" font-family="Times,serif" font-size="14.00">gini = 0.413</text>
<text text-anchor="middle" x="1705" y="-156.8" font-family="Times,serif" font-size="14.00">samples = 29</text>
<text text-anchor="middle" x="1705" y="-141.8" font-family="Times,serif" font-size="14.00">value = [38.461, 15.811]</text>
<text text-anchor="middle" x="1705" y="-126.8" font-family="Times,serif" font-size="14.00">class = Non&#45;obstructive</text>
</g>
<!-- 18&#45;&gt;22 -->
<g id="edge22" class="edge">
<title>18&#45;&gt;22</title>
<path fill="none" stroke="black" d="M1503.06,-259.05C1533.49,-245.48 1567.45,-230.34 1598.7,-216.4"/>
<polygon fill="black" stroke="black" points="1600.16,-219.58 1607.87,-212.32 1597.31,-213.19 1600.16,-219.58"/>
</g>
<!-- 20 -->
<g id="node21" class="node">
<title>20</title>
<polygon fill="none" stroke="black" points="1389.5,-83 1222.5,-83 1222.5,0 1389.5,0 1389.5,-83"/>
<text text-anchor="middle" x="1306" y="-67.8" font-family="Times,serif" font-size="14.00">node #20</text>
<text text-anchor="middle" x="1306" y="-52.8" font-family="Times,serif" font-size="14.00">gini = 0.0</text>
<text text-anchor="middle" x="1306" y="-37.8" font-family="Times,serif" font-size="14.00">samples = 11</text>
<text text-anchor="middle" x="1306" y="-22.8" font-family="Times,serif" font-size="14.00">value = [0.0, 16.799]</text>
<text text-anchor="middle" x="1306" y="-7.8" font-family="Times,serif" font-size="14.00">class = Obstructive</text>
</g>
<!-- 19&#45;&gt;20 -->
<g id="edge20" class="edge">
<title>19&#45;&gt;20</title>
<path fill="none" stroke="black" d="M1369.18,-118.87C1361.65,-109.76 1353.76,-100.23 1346.22,-91.12"/>
<polygon fill="black" stroke="black" points="1348.77,-88.7 1339.7,-83.23 1343.37,-93.17 1348.77,-88.7"/>
</g>
<!-- 21 -->
<g id="node22" class="node">
<title>21</title>
<polygon fill="none" stroke="black" points="1592.5,-83 1407.5,-83 1407.5,0 1592.5,0 1592.5,-83"/>
<text text-anchor="middle" x="1500" y="-67.8" font-family="Times,serif" font-size="14.00">node #21</text>
<text text-anchor="middle" x="1500" y="-52.8" font-family="Times,serif" font-size="14.00">gini = 0.486</text>
<text text-anchor="middle" x="1500" y="-37.8" font-family="Times,serif" font-size="14.00">samples = 20</text>
<text text-anchor="middle" x="1500" y="-22.8" font-family="Times,serif" font-size="14.00">value = [14.17, 19.763]</text>
<text text-anchor="middle" x="1500" y="-7.8" font-family="Times,serif" font-size="14.00">class = Obstructive</text>
</g>
<!-- 19&#45;&gt;21 -->
<g id="edge21" class="edge">
<title>19&#45;&gt;21</title>
<path fill="none" stroke="black" d="M1444.18,-118.87C1450.77,-109.85 1457.66,-100.43 1464.26,-91.39"/>
<polygon fill="black" stroke="black" points="1467.15,-93.37 1470.23,-83.23 1461.5,-89.24 1467.15,-93.37"/>
</g>
<!-- 23 -->
<g id="node24" class="node">
<title>23</title>
<polygon fill="none" stroke="black" points="1799,-83 1611,-83 1611,0 1799,0 1799,-83"/>
<text text-anchor="middle" x="1705" y="-67.8" font-family="Times,serif" font-size="14.00">node #23</text>
<text text-anchor="middle" x="1705" y="-52.8" font-family="Times,serif" font-size="14.00">gini = 0.305</text>
<text text-anchor="middle" x="1705" y="-37.8" font-family="Times,serif" font-size="14.00">samples = 27</text>
<text text-anchor="middle" x="1705" y="-22.8" font-family="Times,serif" font-size="14.00">value = [38.461, 8.893]</text>
<text text-anchor="middle" x="1705" y="-7.8" font-family="Times,serif" font-size="14.00">class = Non&#45;obstructive</text>
</g>
<!-- 22&#45;&gt;23 -->
<g id="edge23" class="edge">
<title>22&#45;&gt;23</title>
<path fill="none" stroke="black" d="M1705,-118.87C1705,-110.5 1705,-101.77 1705,-93.33"/>
<polygon fill="black" stroke="black" points="1708.5,-93.23 1705,-83.23 1701.5,-93.23 1708.5,-93.23"/>
</g>
<!-- 24 -->
<g id="node25" class="node">
<title>24</title>
<polygon fill="none" stroke="black" points="1975,-83 1817,-83 1817,0 1975,0 1975,-83"/>
<text text-anchor="middle" x="1896" y="-67.8" font-family="Times,serif" font-size="14.00">node #24</text>
<text text-anchor="middle" x="1896" y="-52.8" font-family="Times,serif" font-size="14.00">gini = &#45;0.0</text>
<text text-anchor="middle" x="1896" y="-37.8" font-family="Times,serif" font-size="14.00">samples = 2</text>
<text text-anchor="middle" x="1896" y="-22.8" font-family="Times,serif" font-size="14.00">value = [0.0, 6.917]</text>
<text text-anchor="middle" x="1896" y="-7.8" font-family="Times,serif" font-size="14.00">class = Obstructive</text>
</g>
<!-- 22&#45;&gt;24 -->
<g id="edge24" class="edge">
<title>22&#45;&gt;24</title>
<path fill="none" stroke="black" d="M1778.85,-118.87C1794.03,-108.97 1809.98,-98.57 1825.05,-88.74"/>
<polygon fill="black" stroke="black" points="1827.35,-91.43 1833.82,-83.03 1823.53,-85.56 1827.35,-91.43"/>
</g>
</g>
</svg>
