<?xml version="1.0" encoding="UTF-8" standalone="no"?>
<!DOCTYPE svg PUBLIC "-//W3C//DTD SVG 1.1//EN"
 "http://www.w3.org/Graphics/SVG/1.1/DTD/svg11.dtd">
<!-- Generated by graphviz version 2.43.0 (0)
 -->
<!-- Title: Tree Pages: 1 -->
<svg width="2006pt" height="627pt"
 viewBox="0.00 0.00 2005.50 627.00" xmlns="http://www.w3.org/2000/svg" xmlns:xlink="http://www.w3.org/1999/xlink">
<g id="graph0" class="graph" transform="scale(1 1) rotate(0) translate(4 623)">
<title>Tree</title>
<polygon fill="white" stroke="transparent" points="-4,4 -4,-623 2001.5,-623 2001.5,4 -4,4"/>
<!-- 0 -->
<g id="node1" class="node">
<title>0</title>
<polygon fill="none" stroke="black" points="1077,-619 886,-619 886,-521 1077,-521 1077,-619"/>
<text text-anchor="middle" x="981.5" y="-603.8" font-family="Times,serif" font-size="14.00">node #0</text>
<text text-anchor="middle" x="981.5" y="-588.8" font-family="Times,serif" font-size="14.00">FEFPrePercent &lt;= 33.5</text>
<text text-anchor="middle" x="981.5" y="-573.8" font-family="Times,serif" font-size="14.00">gini = 0.5</text>
<text text-anchor="middle" x="981.5" y="-558.8" font-family="Times,serif" font-size="14.00">samples = 213</text>
<text text-anchor="middle" x="981.5" y="-543.8" font-family="Times,serif" font-size="14.00">value = [167.0, 167.0]</text>
<text text-anchor="middle" x="981.5" y="-528.8" font-family="Times,serif" font-size="14.00">class = Non&#45;obstructive</text>
</g>
<!-- 1 -->
<g id="node2" class="node">
<title>1</title>
<polygon fill="none" stroke="black" points="883.5,-485 689.5,-485 689.5,-387 883.5,-387 883.5,-485"/>
<text text-anchor="middle" x="786.5" y="-469.8" font-family="Times,serif" font-size="14.00">node #1</text>
<text text-anchor="middle" x="786.5" y="-454.8" font-family="Times,serif" font-size="14.00">FVCPostVal &lt;= 1.935</text>
<text text-anchor="middle" x="786.5" y="-439.8" font-family="Times,serif" font-size="14.00">gini = 0.137</text>
<text text-anchor="middle" x="786.5" y="-424.8" font-family="Times,serif" font-size="14.00">samples = 76</text>
<text text-anchor="middle" x="786.5" y="-409.8" font-family="Times,serif" font-size="14.00">value = [8.097, 101.781]</text>
<text text-anchor="middle" x="786.5" y="-394.8" font-family="Times,serif" font-size="14.00">class = Obstructive</text>
</g>
<!-- 0&#45;&gt;1 -->
<g id="edge1" class="edge">
<title>0&#45;&gt;1</title>
<path fill="none" stroke="black" d="M910.55,-520.97C896.17,-511.24 880.95,-500.93 866.28,-491.01"/>
<polygon fill="black" stroke="black" points="867.97,-487.92 857.73,-485.21 864.04,-493.72 867.97,-487.92"/>
<text text-anchor="middle" x="862.45" y="-506.06" font-family="Times,serif" font-size="14.00">True</text>
</g>
<!-- 12 -->
<g id="node13" class="node">
<title>12</title>
<polygon fill="none" stroke="black" points="1292,-485 1089,-485 1089,-387 1292,-387 1292,-485"/>
<text text-anchor="middle" x="1190.5" y="-469.8" font-family="Times,serif" font-size="14.00">node #12</text>
<text text-anchor="middle" x="1190.5" y="-454.8" font-family="Times,serif" font-size="14.00">FVCPrePercent &lt;= 61.5</text>
<text text-anchor="middle" x="1190.5" y="-439.8" font-family="Times,serif" font-size="14.00">gini = 0.413</text>
<text text-anchor="middle" x="1190.5" y="-424.8" font-family="Times,serif" font-size="14.00">samples = 137</text>
<text text-anchor="middle" x="1190.5" y="-409.8" font-family="Times,serif" font-size="14.00">value = [158.903, 65.219]</text>
<text text-anchor="middle" x="1190.5" y="-394.8" font-family="Times,serif" font-size="14.00">class = Non&#45;obstructive</text>
</g>
<!-- 0&#45;&gt;12 -->
<g id="edge12" class="edge">
<title>0&#45;&gt;12</title>
<path fill="none" stroke="black" d="M1057.55,-520.97C1073.1,-511.14 1089.58,-500.74 1105.43,-490.73"/>
<polygon fill="black" stroke="black" points="1107.58,-493.51 1114.16,-485.21 1103.84,-487.59 1107.58,-493.51"/>
<text text-anchor="middle" x="1108.65" y="-505.9" font-family="Times,serif" font-size="14.00">False</text>
</g>
<!-- 2 -->
<g id="node3" class="node">
<title>2</title>
<polygon fill="none" stroke="black" points="582.5,-351 382.5,-351 382.5,-253 582.5,-253 582.5,-351"/>
<text text-anchor="middle" x="482.5" y="-335.8" font-family="Times,serif" font-size="14.00">node #2</text>
<text text-anchor="middle" x="482.5" y="-320.8" font-family="Times,serif" font-size="14.00">FEV1PrePercent &lt;= 49.5</text>
<text text-anchor="middle" x="482.5" y="-305.8" font-family="Times,serif" font-size="14.00">gini = 0.272</text>
<text text-anchor="middle" x="482.5" y="-290.8" font-family="Times,serif" font-size="14.00">samples = 32</text>
<text text-anchor="middle" x="482.5" y="-275.8" font-family="Times,serif" font-size="14.00">value = [7.085, 36.562]</text>
<text text-anchor="middle" x="482.5" y="-260.8" font-family="Times,serif" font-size="14.00">class = Obstructive</text>
</g>
<!-- 1&#45;&gt;2 -->
<g id="edge2" class="edge">
<title>1&#45;&gt;2</title>
<path fill="none" stroke="black" d="M689.48,-392.87C658.4,-379.38 623.78,-364.34 591.88,-350.49"/>
<polygon fill="black" stroke="black" points="593.09,-347.2 582.52,-346.43 590.3,-353.62 593.09,-347.2"/>
</g>
<!-- 7 -->
<g id="node8" class="node">
<title>7</title>
<polygon fill="none" stroke="black" points="885,-351 688,-351 688,-253 885,-253 885,-351"/>
<text text-anchor="middle" x="786.5" y="-335.8" font-family="Times,serif" font-size="14.00">node #7</text>
<text text-anchor="middle" x="786.5" y="-320.8" font-family="Times,serif" font-size="14.00">FVCPostPercent &lt;= 66.5</text>
<text text-anchor="middle" x="786.5" y="-305.8" font-family="Times,serif" font-size="14.00">gini = 0.03</text>
<text text-anchor="middle" x="786.5" y="-290.8" font-family="Times,serif" font-size="14.00">samples = 44</text>
<text text-anchor="middle" x="786.5" y="-275.8" font-family="Times,serif" font-size="14.00">value = [1.012, 65.219]</text>
<text text-anchor="middle" x="786.5" y="-260.8" font-family="Times,serif" font-size="14.00">class = Obstructive</text>
</g>
<!-- 1&#45;&gt;7 -->
<g id="edge7" class="edge">
<title>1&#45;&gt;7</title>
<path fill="none" stroke="black" d="M786.5,-386.97C786.5,-378.69 786.5,-370 786.5,-361.48"/>
<polygon fill="black" stroke="black" points="790,-361.21 786.5,-351.21 783,-361.21 790,-361.21"/>
</g>
<!-- 3 -->
<g id="node4" class="node">
<title>3</title>
<polygon fill="none" stroke="black" points="370,-217 185,-217 185,-119 370,-119 370,-217"/>
<text text-anchor="middle" x="277.5" y="-201.8" font-family="Times,serif" font-size="14.00">node #3</text>
<text text-anchor="middle" x="277.5" y="-186.8" font-family="Times,serif" font-size="14.00">FVCPostVal &lt;= 1.925</text>
<text text-anchor="middle" x="277.5" y="-171.8" font-family="Times,serif" font-size="14.00">gini = 0.099</text>
<text text-anchor="middle" x="277.5" y="-156.8" font-family="Times,serif" font-size="14.00">samples = 29</text>
<text text-anchor="middle" x="277.5" y="-141.8" font-family="Times,serif" font-size="14.00">value = [2.024, 36.562]</text>
<text text-anchor="middle" x="277.5" y="-126.8" font-family="Times,serif" font-size="14.00">class = Obstructive</text>
</g>
<!-- 2&#45;&gt;3 -->
<g id="edge3" class="edge">
<title>2&#45;&gt;3</title>
<path fill="none" stroke="black" d="M407.91,-252.97C392.65,-243.14 376.49,-232.74 360.94,-222.73"/>
<polygon fill="black" stroke="black" points="362.68,-219.68 352.38,-217.21 358.89,-225.57 362.68,-219.68"/>
</g>
<!-- 6 -->
<g id="node7" class="node">
<title>6</title>
<polygon fill="none" stroke="black" points="576.5,-209.5 388.5,-209.5 388.5,-126.5 576.5,-126.5 576.5,-209.5"/>
<text text-anchor="middle" x="482.5" y="-194.3" font-family="Times,serif" font-size="14.00">node #6</text>
<text text-anchor="middle" x="482.5" y="-179.3" font-family="Times,serif" font-size="14.00">gini = 0.0</text>
<text text-anchor="middle" x="482.5" y="-164.3" font-family="Times,serif" font-size="14.00">samples = 3</text>
<text text-anchor="middle" x="482.5" y="-149.3" font-family="Times,serif" font-size="14.00">value = [5.061, 0.0]</text>
<text text-anchor="middle" x="482.5" y="-134.3" font-family="Times,serif" font-size="14.00">class = Non&#45;obstructive</text>
</g>
<!-- 2&#45;&gt;6 -->
<g id="edge6" class="edge">
<title>2&#45;&gt;6</title>
<path fill="none" stroke="black" d="M482.5,-252.97C482.5,-242.25 482.5,-230.84 482.5,-219.99"/>
<polygon fill="black" stroke="black" points="486,-219.82 482.5,-209.82 479,-219.82 486,-219.82"/>
</g>
<!-- 4 -->
<g id="node5" class="node">
<title>4</title>
<polygon fill="none" stroke="black" points="167,-83 0,-83 0,0 167,0 167,-83"/>
<text text-anchor="middle" x="83.5" y="-67.8" font-family="Times,serif" font-size="14.00">node #4</text>
<text text-anchor="middle" x="83.5" y="-52.8" font-family="Times,serif" font-size="14.00">gini = 0.0</text>
<text text-anchor="middle" x="83.5" y="-37.8" font-family="Times,serif" font-size="14.00">samples = 28</text>
<text text-anchor="middle" x="83.5" y="-22.8" font-family="Times,serif" font-size="14.00">value = [0.0, 36.562]</text>
<text text-anchor="middle" x="83.5" y="-7.8" font-family="Times,serif" font-size="14.00">class = Obstructive</text>
</g>
<!-- 3&#45;&gt;4 -->
<g id="edge4" class="edge">
<title>3&#45;&gt;4</title>
<path fill="none" stroke="black" d="M202.49,-118.87C186.93,-108.88 170.57,-98.38 155.13,-88.47"/>
<polygon fill="black" stroke="black" points="156.97,-85.49 146.66,-83.03 153.18,-91.38 156.97,-85.49"/>
</g>
<!-- 5 -->
<g id="node6" class="node">
<title>5</title>
<polygon fill="none" stroke="black" points="373.5,-83 185.5,-83 185.5,0 373.5,0 373.5,-83"/>
<text text-anchor="middle" x="279.5" y="-67.8" font-family="Times,serif" font-size="14.00">node #5</text>
<text text-anchor="middle" x="279.5" y="-52.8" font-family="Times,serif" font-size="14.00">gini = &#45;0.0</text>
<text text-anchor="middle" x="279.5" y="-37.8" font-family="Times,serif" font-size="14.00">samples = 1</text>
<text text-anchor="middle" x="279.5" y="-22.8" font-family="Times,serif" font-size="14.00">value = [2.024, 0.0]</text>
<text text-anchor="middle" x="279.5" y="-7.8" font-family="Times,serif" font-size="14.00">class = Non&#45;obstructive</text>
</g>
<!-- 3&#45;&gt;5 -->
<g id="edge5" class="edge">
<title>3&#45;&gt;5</title>
<path fill="none" stroke="black" d="M278.27,-118.87C278.41,-110.5 278.55,-101.77 278.68,-93.33"/>
<polygon fill="black" stroke="black" points="282.18,-93.29 278.85,-83.23 275.19,-93.17 282.18,-93.29"/>
</g>
<!-- 8 -->
<g id="node9" class="node">
<title>8</title>
<polygon fill="none" stroke="black" points="792,-217 595,-217 595,-119 792,-119 792,-217"/>
<text text-anchor="middle" x="693.5" y="-201.8" font-family="Times,serif" font-size="14.00">node #8</text>
<text text-anchor="middle" x="693.5" y="-186.8" font-family="Times,serif" font-size="14.00">FVCPostPercent &lt;= 65.0</text>
<text text-anchor="middle" x="693.5" y="-171.8" font-family="Times,serif" font-size="14.00">gini = 0.135</text>
<text text-anchor="middle" x="693.5" y="-156.8" font-family="Times,serif" font-size="14.00">samples = 12</text>
<text text-anchor="middle" x="693.5" y="-141.8" font-family="Times,serif" font-size="14.00">value = [1.012, 12.846]</text>
<text text-anchor="middle" x="693.5" y="-126.8" font-family="Times,serif" font-size="14.00">class = Obstructive</text>
</g>
<!-- 7&#45;&gt;8 -->
<g id="edge8" class="edge">
<title>7&#45;&gt;8</title>
<path fill="none" stroke="black" d="M752.66,-252.97C746.38,-244.05 739.76,-234.66 733.32,-225.52"/>
<polygon fill="black" stroke="black" points="736.09,-223.37 727.47,-217.21 730.37,-227.4 736.09,-223.37"/>
</g>
<!-- 11 -->
<g id="node12" class="node">
<title>11</title>
<polygon fill="none" stroke="black" points="977,-209.5 810,-209.5 810,-126.5 977,-126.5 977,-209.5"/>
<text text-anchor="middle" x="893.5" y="-194.3" font-family="Times,serif" font-size="14.00">node #11</text>
<text text-anchor="middle" x="893.5" y="-179.3" font-family="Times,serif" font-size="14.00">gini = 0.0</text>
<text text-anchor="middle" x="893.5" y="-164.3" font-family="Times,serif" font-size="14.00">samples = 32</text>
<text text-anchor="middle" x="893.5" y="-149.3" font-family="Times,serif" font-size="14.00">value = [0.0, 52.373]</text>
<text text-anchor="middle" x="893.5" y="-134.3" font-family="Times,serif" font-size="14.00">class = Obstructive</text>
</g>
<!-- 7&#45;&gt;11 -->
<g id="edge11" class="edge">
<title>7&#45;&gt;11</title>
<path fill="none" stroke="black" d="M825.43,-252.97C834.75,-241.47 844.71,-229.18 854.06,-217.66"/>
<polygon fill="black" stroke="black" points="856.84,-219.79 860.41,-209.82 851.4,-215.38 856.84,-219.79"/>
</g>
<!-- 9 -->
<g id="node10" class="node">
<title>9</title>
<polygon fill="none" stroke="black" points="588,-83 421,-83 421,0 588,0 588,-83"/>
<text text-anchor="middle" x="504.5" y="-67.8" font-family="Times,serif" font-size="14.00">node #9</text>
<text text-anchor="middle" x="504.5" y="-52.8" font-family="Times,serif" font-size="14.00">gini = 0.0</text>
<text text-anchor="middle" x="504.5" y="-37.8" font-family="Times,serif" font-size="14.00">samples = 11</text>
<text text-anchor="middle" x="504.5" y="-22.8" font-family="Times,serif" font-size="14.00">value = [0.0, 12.846]</text>
<text text-anchor="middle" x="504.5" y="-7.8" font-family="Times,serif" font-size="14.00">class = Obstructive</text>
</g>
<!-- 8&#45;&gt;9 -->
<g id="edge9" class="edge">
<title>8&#45;&gt;9</title>
<path fill="none" stroke="black" d="M620.43,-118.87C605.41,-108.97 589.62,-98.57 574.7,-88.74"/>
<polygon fill="black" stroke="black" points="576.31,-85.61 566.03,-83.03 572.46,-91.46 576.31,-85.61"/>
</g>
<!-- 10 -->
<g id="node11" class="node">
<title>10</title>
<polygon fill="none" stroke="black" points="794.5,-83 606.5,-83 606.5,0 794.5,0 794.5,-83"/>
<text text-anchor="middle" x="700.5" y="-67.8" font-family="Times,serif" font-size="14.00">node #10</text>
<text text-anchor="middle" x="700.5" y="-52.8" font-family="Times,serif" font-size="14.00">gini = &#45;0.0</text>
<text text-anchor="middle" x="700.5" y="-37.8" font-family="Times,serif" font-size="14.00">samples = 1</text>
<text text-anchor="middle" x="700.5" y="-22.8" font-family="Times,serif" font-size="14.00">value = [1.012, 0.0]</text>
<text text-anchor="middle" x="700.5" y="-7.8" font-family="Times,serif" font-size="14.00">class = Non&#45;obstructive</text>
</g>
<!-- 8&#45;&gt;10 -->
<g id="edge10" class="edge">
<title>8&#45;&gt;10</title>
<path fill="none" stroke="black" d="M696.21,-118.87C696.68,-110.5 697.17,-101.77 697.64,-93.33"/>
<polygon fill="black" stroke="black" points="701.14,-93.41 698.21,-83.23 694.15,-93.02 701.14,-93.41"/>
</g>
<!-- 13 -->
<g id="node14" class="node">
<title>13</title>
<polygon fill="none" stroke="black" points="1286,-351 1095,-351 1095,-253 1286,-253 1286,-351"/>
<text text-anchor="middle" x="1190.5" y="-335.8" font-family="Times,serif" font-size="14.00">node #13</text>
<text text-anchor="middle" x="1190.5" y="-320.8" font-family="Times,serif" font-size="14.00">FEFPrePercent &lt;= 46.5</text>
<text text-anchor="middle" x="1190.5" y="-305.8" font-family="Times,serif" font-size="14.00">gini = 0.11</text>
<text text-anchor="middle" x="1190.5" y="-290.8" font-family="Times,serif" font-size="14.00">samples = 60</text>
<text text-anchor="middle" x="1190.5" y="-275.8" font-family="Times,serif" font-size="14.00">value = [95.139, 5.929]</text>
<text text-anchor="middle" x="1190.5" y="-260.8" font-family="Times,serif" font-size="14.00">class = Non&#45;obstructive</text>
</g>
<!-- 12&#45;&gt;13 -->
<g id="edge13" class="edge">
<title>12&#45;&gt;13</title>
<path fill="none" stroke="black" d="M1190.5,-386.97C1190.5,-378.69 1190.5,-370 1190.5,-361.48"/>
<polygon fill="black" stroke="black" points="1194,-361.21 1190.5,-351.21 1187,-361.21 1194,-361.21"/>
</g>
<!-- 18 -->
<g id="node19" class="node">
<title>18</title>
<polygon fill="none" stroke="black" points="1596,-351 1405,-351 1405,-253 1596,-253 1596,-351"/>
<text text-anchor="middle" x="1500.5" y="-335.8" font-family="Times,serif" font-size="14.00">node #18</text>
<text text-anchor="middle" x="1500.5" y="-320.8" font-family="Times,serif" font-size="14.00">FEFPrePercent &lt;= 75.5</text>
<text text-anchor="middle" x="1500.5" y="-305.8" font-family="Times,serif" font-size="14.00">gini = 0.499</text>
<text text-anchor="middle" x="1500.5" y="-290.8" font-family="Times,serif" font-size="14.00">samples = 77</text>
<text text-anchor="middle" x="1500.5" y="-275.8" font-family="Times,serif" font-size="14.00">value = [63.764, 59.29]</text>
<text text-anchor="middle" x="1500.5" y="-260.8" font-family="Times,serif" font-size="14.00">class = Non&#45;obstructive</text>
</g>
<!-- 12&#45;&gt;18 -->
<g id="edge18" class="edge">
<title>12&#45;&gt;18</title>
<path fill="none" stroke="black" d="M1292.01,-391.78C1325.17,-377.65 1362.07,-361.95 1395.49,-347.71"/>
<polygon fill="black" stroke="black" points="1396.99,-350.88 1404.82,-343.74 1394.25,-344.44 1396.99,-350.88"/>
</g>
<!-- 14 -->
<g id="node15" class="node">
<title>14</title>
<polygon fill="none" stroke="black" points="1183.5,-217 995.5,-217 995.5,-119 1183.5,-119 1183.5,-217"/>
<text text-anchor="middle" x="1089.5" y="-201.8" font-family="Times,serif" font-size="14.00">node #14</text>
<text text-anchor="middle" x="1089.5" y="-186.8" font-family="Times,serif" font-size="14.00">FVCPreVal &lt;= 2.82</text>
<text text-anchor="middle" x="1089.5" y="-171.8" font-family="Times,serif" font-size="14.00">gini = 0.392</text>
<text text-anchor="middle" x="1089.5" y="-156.8" font-family="Times,serif" font-size="14.00">samples = 12</text>
<text text-anchor="middle" x="1089.5" y="-141.8" font-family="Times,serif" font-size="14.00">value = [16.194, 5.929]</text>
<text text-anchor="middle" x="1089.5" y="-126.8" font-family="Times,serif" font-size="14.00">class = Non&#45;obstructive</text>
</g>
<!-- 13&#45;&gt;14 -->
<g id="edge14" class="edge">
<title>13&#45;&gt;14</title>
<path fill="none" stroke="black" d="M1153.75,-252.97C1146.86,-243.96 1139.6,-234.47 1132.53,-225.24"/>
<polygon fill="black" stroke="black" points="1135.25,-223.03 1126.39,-217.21 1129.69,-227.28 1135.25,-223.03"/>
</g>
<!-- 17 -->
<g id="node18" class="node">
<title>17</title>
<polygon fill="none" stroke="black" points="1389.5,-209.5 1201.5,-209.5 1201.5,-126.5 1389.5,-126.5 1389.5,-209.5"/>
<text text-anchor="middle" x="1295.5" y="-194.3" font-family="Times,serif" font-size="14.00">node #17</text>
<text text-anchor="middle" x="1295.5" y="-179.3" font-family="Times,serif" font-size="14.00">gini = 0.0</text>
<text text-anchor="middle" x="1295.5" y="-164.3" font-family="Times,serif" font-size="14.00">samples = 48</text>
<text text-anchor="middle" x="1295.5" y="-149.3" font-family="Times,serif" font-size="14.00">value = [78.945, 0.0]</text>
<text text-anchor="middle" x="1295.5" y="-134.3" font-family="Times,serif" font-size="14.00">class = Non&#45;obstructive</text>
</g>
<!-- 13&#45;&gt;17 -->
<g id="edge17" class="edge">
<title>13&#45;&gt;17</title>
<path fill="none" stroke="black" d="M1228.7,-252.97C1237.85,-241.47 1247.63,-229.18 1256.8,-217.66"/>
<polygon fill="black" stroke="black" points="1259.55,-219.82 1263.03,-209.82 1254.07,-215.46 1259.55,-219.82"/>
</g>
<!-- 15 -->
<g id="node16" class="node">
<title>15</title>
<polygon fill="none" stroke="black" points="1014.5,-83 826.5,-83 826.5,0 1014.5,0 1014.5,-83"/>
<text text-anchor="middle" x="920.5" y="-67.8" font-family="Times,serif" font-size="14.00">node #15</text>
<text text-anchor="middle" x="920.5" y="-52.8" font-family="Times,serif" font-size="14.00">gini = 0.262</text>
<text text-anchor="middle" x="920.5" y="-37.8" font-family="Times,serif" font-size="14.00">samples = 11</text>
<text text-anchor="middle" x="920.5" y="-22.8" font-family="Times,serif" font-size="14.00">value = [16.194, 2.964]</text>
<text text-anchor="middle" x="920.5" y="-7.8" font-family="Times,serif" font-size="14.00">class = Non&#45;obstructive</text>
</g>
<!-- 14&#45;&gt;15 -->
<g id="edge15" class="edge">
<title>14&#45;&gt;15</title>
<path fill="none" stroke="black" d="M1024.16,-118.87C1010.85,-109.06 996.88,-98.77 983.65,-89.02"/>
<polygon fill="black" stroke="black" points="985.65,-86.15 975.52,-83.03 981.5,-91.78 985.65,-86.15"/>
</g>
<!-- 16 -->
<g id="node17" class="node">
<title>16</title>
<polygon fill="none" stroke="black" points="1190.5,-83 1032.5,-83 1032.5,0 1190.5,0 1190.5,-83"/>
<text text-anchor="middle" x="1111.5" y="-67.8" font-family="Times,serif" font-size="14.00">node #16</text>
<text text-anchor="middle" x="1111.5" y="-52.8" font-family="Times,serif" font-size="14.00">gini = &#45;0.0</text>
<text text-anchor="middle" x="1111.5" y="-37.8" font-family="Times,serif" font-size="14.00">samples = 1</text>
<text text-anchor="middle" x="1111.5" y="-22.8" font-family="Times,serif" font-size="14.00">value = [0.0, 2.964]</text>
<text text-anchor="middle" x="1111.5" y="-7.8" font-family="Times,serif" font-size="14.00">class = Obstructive</text>
</g>
<!-- 14&#45;&gt;16 -->
<g id="edge16" class="edge">
<title>14&#45;&gt;16</title>
<path fill="none" stroke="black" d="M1098.01,-118.87C1099.48,-110.5 1101.03,-101.77 1102.52,-93.33"/>
<polygon fill="black" stroke="black" points="1106.01,-93.69 1104.3,-83.23 1099.12,-92.47 1106.01,-93.69"/>
</g>
<!-- 19 -->
<g id="node20" class="node">
<title>19</title>
<polygon fill="none" stroke="black" points="1593,-217 1408,-217 1408,-119 1593,-119 1593,-217"/>
<text text-anchor="middle" x="1500.5" y="-201.8" font-family="Times,serif" font-size="14.00">node #19</text>
<text text-anchor="middle" x="1500.5" y="-186.8" font-family="Times,serif" font-size="14.00">FVCPostVal &lt;= 3.355</text>
<text text-anchor="middle" x="1500.5" y="-171.8" font-family="Times,serif" font-size="14.00">gini = 0.47</text>
<text text-anchor="middle" x="1500.5" y="-156.8" font-family="Times,serif" font-size="14.00">samples = 46</text>
<text text-anchor="middle" x="1500.5" y="-141.8" font-family="Times,serif" font-size="14.00">value = [29.352, 48.42]</text>
<text text-anchor="middle" x="1500.5" y="-126.8" font-family="Times,serif" font-size="14.00">class = Obstructive</text>
</g>
<!-- 18&#45;&gt;19 -->
<g id="edge19" class="edge">
<title>18&#45;&gt;19</title>
<path fill="none" stroke="black" d="M1500.5,-252.97C1500.5,-244.69 1500.5,-236 1500.5,-227.48"/>
<polygon fill="black" stroke="black" points="1504,-227.21 1500.5,-217.21 1497,-227.21 1504,-227.21"/>
</g>
<!-- 22 -->
<g id="node23" class="node">
<title>22</title>
<polygon fill="none" stroke="black" points="1817.5,-217 1611.5,-217 1611.5,-119 1817.5,-119 1817.5,-217"/>
<text text-anchor="middle" x="1714.5" y="-201.8" font-family="Times,serif" font-size="14.00">node #22</text>
<text text-anchor="middle" x="1714.5" y="-186.8" font-family="Times,serif" font-size="14.00">FEV1PostPercent &lt;= 66.5</text>
<text text-anchor="middle" x="1714.5" y="-171.8" font-family="Times,serif" font-size="14.00">gini = 0.365</text>
<text text-anchor="middle" x="1714.5" y="-156.8" font-family="Times,serif" font-size="14.00">samples = 31</text>
<text text-anchor="middle" x="1714.5" y="-141.8" font-family="Times,serif" font-size="14.00">value = [34.412, 10.87]</text>
<text text-anchor="middle" x="1714.5" y="-126.8" font-family="Times,serif" font-size="14.00">class = Non&#45;obstructive</text>
</g>
<!-- 18&#45;&gt;22 -->
<g id="edge22" class="edge">
<title>18&#45;&gt;22</title>
<path fill="none" stroke="black" d="M1578.36,-252.97C1594.3,-243.14 1611.16,-232.74 1627.39,-222.73"/>
<polygon fill="black" stroke="black" points="1629.66,-225.44 1636.34,-217.21 1625.99,-219.48 1629.66,-225.44"/>
</g>
<!-- 20 -->
<g id="node21" class="node">
<title>20</title>
<polygon fill="none" stroke="black" points="1409.5,-83 1215.5,-83 1215.5,0 1409.5,0 1409.5,-83"/>
<text text-anchor="middle" x="1312.5" y="-67.8" font-family="Times,serif" font-size="14.00">node #20</text>
<text text-anchor="middle" x="1312.5" y="-52.8" font-family="Times,serif" font-size="14.00">gini = 0.5</text>
<text text-anchor="middle" x="1312.5" y="-37.8" font-family="Times,serif" font-size="14.00">samples = 35</text>
<text text-anchor="middle" x="1312.5" y="-22.8" font-family="Times,serif" font-size="14.00">value = [28.339, 29.645]</text>
<text text-anchor="middle" x="1312.5" y="-7.8" font-family="Times,serif" font-size="14.00">class = Obstructive</text>
</g>
<!-- 19&#45;&gt;20 -->
<g id="edge20" class="edge">
<title>19&#45;&gt;20</title>
<path fill="none" stroke="black" d="M1427.81,-118.87C1412.87,-108.97 1397.17,-98.57 1382.33,-88.74"/>
<polygon fill="black" stroke="black" points="1383.98,-85.64 1373.71,-83.03 1380.11,-91.47 1383.98,-85.64"/>
</g>
<!-- 21 -->
<g id="node22" class="node">
<title>21</title>
<polygon fill="none" stroke="black" points="1612,-83 1427,-83 1427,0 1612,0 1612,-83"/>
<text text-anchor="middle" x="1519.5" y="-67.8" font-family="Times,serif" font-size="14.00">node #21</text>
<text text-anchor="middle" x="1519.5" y="-52.8" font-family="Times,serif" font-size="14.00">gini = 0.097</text>
<text text-anchor="middle" x="1519.5" y="-37.8" font-family="Times,serif" font-size="14.00">samples = 11</text>
<text text-anchor="middle" x="1519.5" y="-22.8" font-family="Times,serif" font-size="14.00">value = [1.012, 18.775]</text>
<text text-anchor="middle" x="1519.5" y="-7.8" font-family="Times,serif" font-size="14.00">class = Obstructive</text>
</g>
<!-- 19&#45;&gt;21 -->
<g id="edge21" class="edge">
<title>19&#45;&gt;21</title>
<path fill="none" stroke="black" d="M1507.85,-118.87C1509.12,-110.5 1510.45,-101.77 1511.74,-93.33"/>
<polygon fill="black" stroke="black" points="1515.24,-93.64 1513.28,-83.23 1508.32,-92.59 1515.24,-93.64"/>
</g>
<!-- 23 -->
<g id="node24" class="node">
<title>23</title>
<polygon fill="none" stroke="black" points="1791.5,-83 1633.5,-83 1633.5,0 1791.5,0 1791.5,-83"/>
<text text-anchor="middle" x="1712.5" y="-67.8" font-family="Times,serif" font-size="14.00">node #23</text>
<text text-anchor="middle" x="1712.5" y="-52.8" font-family="Times,serif" font-size="14.00">gini = 0.0</text>
<text text-anchor="middle" x="1712.5" y="-37.8" font-family="Times,serif" font-size="14.00">samples = 1</text>
<text text-anchor="middle" x="1712.5" y="-22.8" font-family="Times,serif" font-size="14.00">value = [0.0, 1.976]</text>
<text text-anchor="middle" x="1712.5" y="-7.8" font-family="Times,serif" font-size="14.00">class = Obstructive</text>
</g>
<!-- 22&#45;&gt;23 -->
<g id="edge23" class="edge">
<title>22&#45;&gt;23</title>
<path fill="none" stroke="black" d="M1713.73,-118.87C1713.59,-110.5 1713.45,-101.77 1713.32,-93.33"/>
<polygon fill="black" stroke="black" points="1716.81,-93.17 1713.15,-83.23 1709.82,-93.29 1716.81,-93.17"/>
</g>
<!-- 24 -->
<g id="node25" class="node">
<title>24</title>
<polygon fill="none" stroke="black" points="1997.5,-83 1809.5,-83 1809.5,0 1997.5,0 1997.5,-83"/>
<text text-anchor="middle" x="1903.5" y="-67.8" font-family="Times,serif" font-size="14.00">node #24</text>
<text text-anchor="middle" x="1903.5" y="-52.8" font-family="Times,serif" font-size="14.00">gini = 0.326</text>
<text text-anchor="middle" x="1903.5" y="-37.8" font-family="Times,serif" font-size="14.00">samples = 30</text>
<text text-anchor="middle" x="1903.5" y="-22.8" font-family="Times,serif" font-size="14.00">value = [34.412, 8.893]</text>
<text text-anchor="middle" x="1903.5" y="-7.8" font-family="Times,serif" font-size="14.00">class = Non&#45;obstructive</text>
</g>
<!-- 22&#45;&gt;24 -->
<g id="edge24" class="edge">
<title>22&#45;&gt;24</title>
<path fill="none" stroke="black" d="M1787.57,-118.87C1802.59,-108.97 1818.38,-98.57 1833.3,-88.74"/>
<polygon fill="black" stroke="black" points="1835.54,-91.46 1841.97,-83.03 1831.69,-85.61 1835.54,-91.46"/>
</g>
</g>
</svg>
