<?xml version="1.0" encoding="UTF-8" standalone="no"?>
<!DOCTYPE svg PUBLIC "-//W3C//DTD SVG 1.1//EN"
 "http://www.w3.org/Graphics/SVG/1.1/DTD/svg11.dtd">
<!-- Generated by graphviz version 2.43.0 (0)
 -->
<!-- Title: Tree Pages: 1 -->
<svg width="2841pt" height="627pt"
 viewBox="0.00 0.00 2841.00 627.00" xmlns="http://www.w3.org/2000/svg" xmlns:xlink="http://www.w3.org/1999/xlink">
<g id="graph0" class="graph" transform="scale(1 1) rotate(0) translate(4 623)">
<title>Tree</title>
<polygon fill="white" stroke="transparent" points="-4,4 -4,-623 2837,-623 2837,4 -4,4"/>
<!-- 0 -->
<g id="node1" class="node">
<title>0</title>
<polygon fill="none" stroke="black" points="1297,-619 1109,-619 1109,-521 1297,-521 1297,-619"/>
<text text-anchor="middle" x="1203" y="-603.8" font-family="Times,serif" font-size="14.00">node #0</text>
<text text-anchor="middle" x="1203" y="-588.8" font-family="Times,serif" font-size="14.00">FEFPreVal &lt;= 1.105</text>
<text text-anchor="middle" x="1203" y="-573.8" font-family="Times,serif" font-size="14.00">gini = 0.5</text>
<text text-anchor="middle" x="1203" y="-558.8" font-family="Times,serif" font-size="14.00">samples = 211</text>
<text text-anchor="middle" x="1203" y="-543.8" font-family="Times,serif" font-size="14.00">value = [167.0, 167.0]</text>
<text text-anchor="middle" x="1203" y="-528.8" font-family="Times,serif" font-size="14.00">class = Non&#45;obstructive</text>
</g>
<!-- 1 -->
<g id="node2" class="node">
<title>1</title>
<polygon fill="none" stroke="black" points="914.5,-485 711.5,-485 711.5,-387 914.5,-387 914.5,-485"/>
<text text-anchor="middle" x="813" y="-469.8" font-family="Times,serif" font-size="14.00">node #1</text>
<text text-anchor="middle" x="813" y="-454.8" font-family="Times,serif" font-size="14.00">FEFPrePercent &lt;= 32.5</text>
<text text-anchor="middle" x="813" y="-439.8" font-family="Times,serif" font-size="14.00">gini = 0.206</text>
<text text-anchor="middle" x="813" y="-424.8" font-family="Times,serif" font-size="14.00">samples = 80</text>
<text text-anchor="middle" x="813" y="-409.8" font-family="Times,serif" font-size="14.00">value = [14.911, 112.675]</text>
<text text-anchor="middle" x="813" y="-394.8" font-family="Times,serif" font-size="14.00">class = Obstructive</text>
</g>
<!-- 0&#45;&gt;1 -->
<g id="edge1" class="edge">
<title>0&#45;&gt;1</title>
<path fill="none" stroke="black" d="M1108.59,-537.05C1053.07,-518.25 982.57,-494.39 924.34,-474.68"/>
<polygon fill="black" stroke="black" points="925.33,-471.32 914.74,-471.43 923.09,-477.95 925.33,-471.32"/>
<text text-anchor="middle" x="925.81" y="-490.15" font-family="Times,serif" font-size="14.00">True</text>
</g>
<!-- 14 -->
<g id="node15" class="node">
<title>14</title>
<polygon fill="none" stroke="black" points="1706.5,-485 1503.5,-485 1503.5,-387 1706.5,-387 1706.5,-485"/>
<text text-anchor="middle" x="1605" y="-469.8" font-family="Times,serif" font-size="14.00">node #14</text>
<text text-anchor="middle" x="1605" y="-454.8" font-family="Times,serif" font-size="14.00">FEV1PostVal &lt;= 1.875</text>
<text text-anchor="middle" x="1605" y="-439.8" font-family="Times,serif" font-size="14.00">gini = 0.388</text>
<text text-anchor="middle" x="1605" y="-424.8" font-family="Times,serif" font-size="14.00">samples = 131</text>
<text text-anchor="middle" x="1605" y="-409.8" font-family="Times,serif" font-size="14.00">value = [152.089, 54.325]</text>
<text text-anchor="middle" x="1605" y="-394.8" font-family="Times,serif" font-size="14.00">class = Non&#45;obstructive</text>
</g>
<!-- 0&#45;&gt;14 -->
<g id="edge14" class="edge">
<title>0&#45;&gt;14</title>
<path fill="none" stroke="black" d="M1297.25,-538.05C1355.96,-518.78 1431.78,-493.88 1493.47,-473.62"/>
<polygon fill="black" stroke="black" points="1494.84,-476.86 1503.24,-470.41 1492.65,-470.21 1494.84,-476.86"/>
<text text-anchor="middle" x="1491.96" y="-489.02" font-family="Times,serif" font-size="14.00">False</text>
</g>
<!-- 2 -->
<g id="node3" class="node">
<title>2</title>
<polygon fill="none" stroke="black" points="409,-351 203,-351 203,-253 409,-253 409,-351"/>
<text text-anchor="middle" x="306" y="-335.8" font-family="Times,serif" font-size="14.00">node #2</text>
<text text-anchor="middle" x="306" y="-320.8" font-family="Times,serif" font-size="14.00">FEFPostPercent &lt;= 2.605</text>
<text text-anchor="middle" x="306" y="-305.8" font-family="Times,serif" font-size="14.00">gini = 0.104</text>
<text text-anchor="middle" x="306" y="-290.8" font-family="Times,serif" font-size="14.00">samples = 67</text>
<text text-anchor="middle" x="306" y="-275.8" font-family="Times,serif" font-size="14.00">value = [5.964, 102.614]</text>
<text text-anchor="middle" x="306" y="-260.8" font-family="Times,serif" font-size="14.00">class = Obstructive</text>
</g>
<!-- 1&#45;&gt;2 -->
<g id="edge2" class="edge">
<title>1&#45;&gt;2</title>
<path fill="none" stroke="black" d="M711.32,-408.53C626.75,-386.51 506.51,-355.2 418.96,-332.41"/>
<polygon fill="black" stroke="black" points="419.81,-329.02 409.25,-329.88 418.05,-335.79 419.81,-329.02"/>
</g>
<!-- 7 -->
<g id="node8" class="node">
<title>7</title>
<polygon fill="none" stroke="black" points="911.5,-351 714.5,-351 714.5,-253 911.5,-253 911.5,-351"/>
<text text-anchor="middle" x="813" y="-335.8" font-family="Times,serif" font-size="14.00">node #7</text>
<text text-anchor="middle" x="813" y="-320.8" font-family="Times,serif" font-size="14.00">FVCPostPercent &lt;= 62.0</text>
<text text-anchor="middle" x="813" y="-305.8" font-family="Times,serif" font-size="14.00">gini = 0.498</text>
<text text-anchor="middle" x="813" y="-290.8" font-family="Times,serif" font-size="14.00">samples = 13</text>
<text text-anchor="middle" x="813" y="-275.8" font-family="Times,serif" font-size="14.00">value = [8.946, 10.06]</text>
<text text-anchor="middle" x="813" y="-260.8" font-family="Times,serif" font-size="14.00">class = Obstructive</text>
</g>
<!-- 1&#45;&gt;7 -->
<g id="edge7" class="edge">
<title>1&#45;&gt;7</title>
<path fill="none" stroke="black" d="M813,-386.97C813,-378.69 813,-370 813,-361.48"/>
<polygon fill="black" stroke="black" points="816.5,-361.21 813,-351.21 809.5,-361.21 816.5,-361.21"/>
</g>
<!-- 3 -->
<g id="node4" class="node">
<title>3</title>
<polygon fill="none" stroke="black" points="188,-209.5 0,-209.5 0,-126.5 188,-126.5 188,-209.5"/>
<text text-anchor="middle" x="94" y="-194.3" font-family="Times,serif" font-size="14.00">node #3</text>
<text text-anchor="middle" x="94" y="-179.3" font-family="Times,serif" font-size="14.00">gini = 0.0</text>
<text text-anchor="middle" x="94" y="-164.3" font-family="Times,serif" font-size="14.00">samples = 1</text>
<text text-anchor="middle" x="94" y="-149.3" font-family="Times,serif" font-size="14.00">value = [0.994, 0.0]</text>
<text text-anchor="middle" x="94" y="-134.3" font-family="Times,serif" font-size="14.00">class = Non&#45;obstructive</text>
</g>
<!-- 2&#45;&gt;3 -->
<g id="edge3" class="edge">
<title>2&#45;&gt;3</title>
<path fill="none" stroke="black" d="M228.86,-252.97C208.96,-240.58 187.59,-227.27 167.85,-214.98"/>
<polygon fill="black" stroke="black" points="169.55,-211.92 159.21,-209.6 165.85,-217.86 169.55,-211.92"/>
</g>
<!-- 4 -->
<g id="node5" class="node">
<title>4</title>
<polygon fill="none" stroke="black" points="406,-217 206,-217 206,-119 406,-119 406,-217"/>
<text text-anchor="middle" x="306" y="-201.8" font-family="Times,serif" font-size="14.00">node #4</text>
<text text-anchor="middle" x="306" y="-186.8" font-family="Times,serif" font-size="14.00">FEV1PrePercent &lt;= 40.5</text>
<text text-anchor="middle" x="306" y="-171.8" font-family="Times,serif" font-size="14.00">gini = 0.088</text>
<text text-anchor="middle" x="306" y="-156.8" font-family="Times,serif" font-size="14.00">samples = 66</text>
<text text-anchor="middle" x="306" y="-141.8" font-family="Times,serif" font-size="14.00">value = [4.97, 102.614]</text>
<text text-anchor="middle" x="306" y="-126.8" font-family="Times,serif" font-size="14.00">class = Obstructive</text>
</g>
<!-- 2&#45;&gt;4 -->
<g id="edge4" class="edge">
<title>2&#45;&gt;4</title>
<path fill="none" stroke="black" d="M306,-252.97C306,-244.69 306,-236 306,-227.48"/>
<polygon fill="black" stroke="black" points="309.5,-227.21 306,-217.21 302.5,-227.21 309.5,-227.21"/>
</g>
<!-- 5 -->
<g id="node6" class="node">
<title>5</title>
<polygon fill="none" stroke="black" points="195.5,-83 10.5,-83 10.5,0 195.5,0 195.5,-83"/>
<text text-anchor="middle" x="103" y="-67.8" font-family="Times,serif" font-size="14.00">node #5</text>
<text text-anchor="middle" x="103" y="-52.8" font-family="Times,serif" font-size="14.00">gini = 0.03</text>
<text text-anchor="middle" x="103" y="-37.8" font-family="Times,serif" font-size="14.00">samples = 40</text>
<text text-anchor="middle" x="103" y="-22.8" font-family="Times,serif" font-size="14.00">value = [0.994, 64.386]</text>
<text text-anchor="middle" x="103" y="-7.8" font-family="Times,serif" font-size="14.00">class = Obstructive</text>
</g>
<!-- 4&#45;&gt;5 -->
<g id="edge5" class="edge">
<title>4&#45;&gt;5</title>
<path fill="none" stroke="black" d="M227.51,-118.87C211.23,-108.88 194.11,-98.38 177.95,-88.47"/>
<polygon fill="black" stroke="black" points="179.44,-85.28 169.09,-83.03 175.78,-91.24 179.44,-85.28"/>
</g>
<!-- 6 -->
<g id="node7" class="node">
<title>6</title>
<polygon fill="none" stroke="black" points="398.5,-83 213.5,-83 213.5,0 398.5,0 398.5,-83"/>
<text text-anchor="middle" x="306" y="-67.8" font-family="Times,serif" font-size="14.00">node #6</text>
<text text-anchor="middle" x="306" y="-52.8" font-family="Times,serif" font-size="14.00">gini = 0.171</text>
<text text-anchor="middle" x="306" y="-37.8" font-family="Times,serif" font-size="14.00">samples = 26</text>
<text text-anchor="middle" x="306" y="-22.8" font-family="Times,serif" font-size="14.00">value = [3.976, 38.229]</text>
<text text-anchor="middle" x="306" y="-7.8" font-family="Times,serif" font-size="14.00">class = Obstructive</text>
</g>
<!-- 4&#45;&gt;6 -->
<g id="edge6" class="edge">
<title>4&#45;&gt;6</title>
<path fill="none" stroke="black" d="M306,-118.87C306,-110.5 306,-101.77 306,-93.33"/>
<polygon fill="black" stroke="black" points="309.5,-93.23 306,-83.23 302.5,-93.23 309.5,-93.23"/>
</g>
<!-- 8 -->
<g id="node9" class="node">
<title>8</title>
<polygon fill="none" stroke="black" points="807,-217 619,-217 619,-119 807,-119 807,-217"/>
<text text-anchor="middle" x="713" y="-201.8" font-family="Times,serif" font-size="14.00">node #8</text>
<text text-anchor="middle" x="713" y="-186.8" font-family="Times,serif" font-size="14.00">FEV1PreVal &lt;= 1.17</text>
<text text-anchor="middle" x="713" y="-171.8" font-family="Times,serif" font-size="14.00">gini = 0.221</text>
<text text-anchor="middle" x="713" y="-156.8" font-family="Times,serif" font-size="14.00">samples = 4</text>
<text text-anchor="middle" x="713" y="-141.8" font-family="Times,serif" font-size="14.00">value = [6.958, 1.006]</text>
<text text-anchor="middle" x="713" y="-126.8" font-family="Times,serif" font-size="14.00">class = Non&#45;obstructive</text>
</g>
<!-- 7&#45;&gt;8 -->
<g id="edge8" class="edge">
<title>7&#45;&gt;8</title>
<path fill="none" stroke="black" d="M776.61,-252.97C769.79,-243.96 762.6,-234.47 755.61,-225.24"/>
<polygon fill="black" stroke="black" points="758.35,-223.07 749.53,-217.21 752.77,-227.3 758.35,-223.07"/>
</g>
<!-- 11 -->
<g id="node12" class="node">
<title>11</title>
<polygon fill="none" stroke="black" points="1001,-217 825,-217 825,-119 1001,-119 1001,-217"/>
<text text-anchor="middle" x="913" y="-201.8" font-family="Times,serif" font-size="14.00">node #11</text>
<text text-anchor="middle" x="913" y="-186.8" font-family="Times,serif" font-size="14.00">FVCPostVal &lt;= 3.445</text>
<text text-anchor="middle" x="913" y="-171.8" font-family="Times,serif" font-size="14.00">gini = 0.295</text>
<text text-anchor="middle" x="913" y="-156.8" font-family="Times,serif" font-size="14.00">samples = 9</text>
<text text-anchor="middle" x="913" y="-141.8" font-family="Times,serif" font-size="14.00">value = [1.988, 9.054]</text>
<text text-anchor="middle" x="913" y="-126.8" font-family="Times,serif" font-size="14.00">class = Obstructive</text>
</g>
<!-- 7&#45;&gt;11 -->
<g id="edge11" class="edge">
<title>7&#45;&gt;11</title>
<path fill="none" stroke="black" d="M849.39,-252.97C856.21,-243.96 863.4,-234.47 870.39,-225.24"/>
<polygon fill="black" stroke="black" points="873.23,-227.3 876.47,-217.21 867.65,-223.07 873.23,-227.3"/>
</g>
<!-- 9 -->
<g id="node10" class="node">
<title>9</title>
<polygon fill="none" stroke="black" points="605,-83 417,-83 417,0 605,0 605,-83"/>
<text text-anchor="middle" x="511" y="-67.8" font-family="Times,serif" font-size="14.00">node #9</text>
<text text-anchor="middle" x="511" y="-52.8" font-family="Times,serif" font-size="14.00">gini = 0.0</text>
<text text-anchor="middle" x="511" y="-37.8" font-family="Times,serif" font-size="14.00">samples = 2</text>
<text text-anchor="middle" x="511" y="-22.8" font-family="Times,serif" font-size="14.00">value = [4.97, 0.0]</text>
<text text-anchor="middle" x="511" y="-7.8" font-family="Times,serif" font-size="14.00">class = Non&#45;obstructive</text>
</g>
<!-- 8&#45;&gt;9 -->
<g id="edge9" class="edge">
<title>8&#45;&gt;9</title>
<path fill="none" stroke="black" d="M634.9,-118.87C618.7,-108.88 601.66,-98.38 585.58,-88.47"/>
<polygon fill="black" stroke="black" points="587.11,-85.3 576.76,-83.03 583.44,-91.26 587.11,-85.3"/>
</g>
<!-- 10 -->
<g id="node11" class="node">
<title>10</title>
<polygon fill="none" stroke="black" points="811,-83 623,-83 623,0 811,0 811,-83"/>
<text text-anchor="middle" x="717" y="-67.8" font-family="Times,serif" font-size="14.00">node #10</text>
<text text-anchor="middle" x="717" y="-52.8" font-family="Times,serif" font-size="14.00">gini = 0.446</text>
<text text-anchor="middle" x="717" y="-37.8" font-family="Times,serif" font-size="14.00">samples = 2</text>
<text text-anchor="middle" x="717" y="-22.8" font-family="Times,serif" font-size="14.00">value = [1.988, 1.006]</text>
<text text-anchor="middle" x="717" y="-7.8" font-family="Times,serif" font-size="14.00">class = Non&#45;obstructive</text>
</g>
<!-- 8&#45;&gt;10 -->
<g id="edge10" class="edge">
<title>8&#45;&gt;10</title>
<path fill="none" stroke="black" d="M714.55,-118.87C714.82,-110.5 715.1,-101.77 715.37,-93.33"/>
<polygon fill="black" stroke="black" points="718.87,-93.34 715.69,-83.23 711.87,-93.11 718.87,-93.34"/>
</g>
<!-- 12 -->
<g id="node13" class="node">
<title>12</title>
<polygon fill="none" stroke="black" points="987,-83 829,-83 829,0 987,0 987,-83"/>
<text text-anchor="middle" x="908" y="-67.8" font-family="Times,serif" font-size="14.00">node #12</text>
<text text-anchor="middle" x="908" y="-52.8" font-family="Times,serif" font-size="14.00">gini = 0.0</text>
<text text-anchor="middle" x="908" y="-37.8" font-family="Times,serif" font-size="14.00">samples = 8</text>
<text text-anchor="middle" x="908" y="-22.8" font-family="Times,serif" font-size="14.00">value = [0.0, 9.054]</text>
<text text-anchor="middle" x="908" y="-7.8" font-family="Times,serif" font-size="14.00">class = Obstructive</text>
</g>
<!-- 11&#45;&gt;12 -->
<g id="edge12" class="edge">
<title>11&#45;&gt;12</title>
<path fill="none" stroke="black" d="M911.07,-118.87C910.73,-110.5 910.38,-101.77 910.04,-93.33"/>
<polygon fill="black" stroke="black" points="913.53,-93.08 909.64,-83.23 906.54,-93.36 913.53,-93.08"/>
</g>
<!-- 13 -->
<g id="node14" class="node">
<title>13</title>
<polygon fill="none" stroke="black" points="1193,-83 1005,-83 1005,0 1193,0 1193,-83"/>
<text text-anchor="middle" x="1099" y="-67.8" font-family="Times,serif" font-size="14.00">node #13</text>
<text text-anchor="middle" x="1099" y="-52.8" font-family="Times,serif" font-size="14.00">gini = &#45;0.0</text>
<text text-anchor="middle" x="1099" y="-37.8" font-family="Times,serif" font-size="14.00">samples = 1</text>
<text text-anchor="middle" x="1099" y="-22.8" font-family="Times,serif" font-size="14.00">value = [1.988, 0.0]</text>
<text text-anchor="middle" x="1099" y="-7.8" font-family="Times,serif" font-size="14.00">class = Non&#45;obstructive</text>
</g>
<!-- 11&#45;&gt;13 -->
<g id="edge13" class="edge">
<title>11&#45;&gt;13</title>
<path fill="none" stroke="black" d="M984.91,-118.87C999.7,-108.97 1015.23,-98.57 1029.91,-88.74"/>
<polygon fill="black" stroke="black" points="1032.08,-91.5 1038.45,-83.03 1028.19,-85.69 1032.08,-91.5"/>
</g>
<!-- 15 -->
<g id="node16" class="node">
<title>15</title>
<polygon fill="none" stroke="black" points="1700.5,-351 1509.5,-351 1509.5,-253 1700.5,-253 1700.5,-351"/>
<text text-anchor="middle" x="1605" y="-335.8" font-family="Times,serif" font-size="14.00">node #15</text>
<text text-anchor="middle" x="1605" y="-320.8" font-family="Times,serif" font-size="14.00">FEFPrePercent &lt;= 50.0</text>
<text text-anchor="middle" x="1605" y="-305.8" font-family="Times,serif" font-size="14.00">gini = 0.086</text>
<text text-anchor="middle" x="1605" y="-290.8" font-family="Times,serif" font-size="14.00">samples = 69</text>
<text text-anchor="middle" x="1605" y="-275.8" font-family="Times,serif" font-size="14.00">value = [106.363, 5.03]</text>
<text text-anchor="middle" x="1605" y="-260.8" font-family="Times,serif" font-size="14.00">class = Non&#45;obstructive</text>
</g>
<!-- 14&#45;&gt;15 -->
<g id="edge15" class="edge">
<title>14&#45;&gt;15</title>
<path fill="none" stroke="black" d="M1605,-386.97C1605,-378.69 1605,-370 1605,-361.48"/>
<polygon fill="black" stroke="black" points="1608.5,-361.21 1605,-351.21 1601.5,-361.21 1608.5,-361.21"/>
</g>
<!-- 22 -->
<g id="node23" class="node">
<title>22</title>
<polygon fill="none" stroke="black" points="2316,-351 2122,-351 2122,-253 2316,-253 2316,-351"/>
<text text-anchor="middle" x="2219" y="-335.8" font-family="Times,serif" font-size="14.00">node #22</text>
<text text-anchor="middle" x="2219" y="-320.8" font-family="Times,serif" font-size="14.00">FVCPostVal &lt;= 3.345</text>
<text text-anchor="middle" x="2219" y="-305.8" font-family="Times,serif" font-size="14.00">gini = 0.499</text>
<text text-anchor="middle" x="2219" y="-290.8" font-family="Times,serif" font-size="14.00">samples = 62</text>
<text text-anchor="middle" x="2219" y="-275.8" font-family="Times,serif" font-size="14.00">value = [45.726, 49.295]</text>
<text text-anchor="middle" x="2219" y="-260.8" font-family="Times,serif" font-size="14.00">class = Obstructive</text>
</g>
<!-- 14&#45;&gt;22 -->
<g id="edge22" class="edge">
<title>14&#45;&gt;22</title>
<path fill="none" stroke="black" d="M1706.73,-413.13C1818.75,-389.05 1998.05,-350.5 2112.08,-325.99"/>
<polygon fill="black" stroke="black" points="2112.84,-329.4 2121.89,-323.88 2111.37,-322.56 2112.84,-329.4"/>
</g>
<!-- 16 -->
<g id="node17" class="node">
<title>16</title>
<polygon fill="none" stroke="black" points="1596.5,-217 1405.5,-217 1405.5,-119 1596.5,-119 1596.5,-217"/>
<text text-anchor="middle" x="1501" y="-201.8" font-family="Times,serif" font-size="14.00">node #16</text>
<text text-anchor="middle" x="1501" y="-186.8" font-family="Times,serif" font-size="14.00">FEFPrePercent &lt;= 48.5</text>
<text text-anchor="middle" x="1501" y="-171.8" font-family="Times,serif" font-size="14.00">gini = 0.393</text>
<text text-anchor="middle" x="1501" y="-156.8" font-family="Times,serif" font-size="14.00">samples = 10</text>
<text text-anchor="middle" x="1501" y="-141.8" font-family="Times,serif" font-size="14.00">value = [10.935, 4.024]</text>
<text text-anchor="middle" x="1501" y="-126.8" font-family="Times,serif" font-size="14.00">class = Non&#45;obstructive</text>
</g>
<!-- 15&#45;&gt;16 -->
<g id="edge16" class="edge">
<title>15&#45;&gt;16</title>
<path fill="none" stroke="black" d="M1567.16,-252.97C1560.06,-243.96 1552.58,-234.47 1545.31,-225.24"/>
<polygon fill="black" stroke="black" points="1547.92,-222.9 1538.99,-217.21 1542.43,-227.23 1547.92,-222.9"/>
</g>
<!-- 19 -->
<g id="node20" class="node">
<title>19</title>
<polygon fill="none" stroke="black" points="1803,-217 1615,-217 1615,-119 1803,-119 1803,-217"/>
<text text-anchor="middle" x="1709" y="-201.8" font-family="Times,serif" font-size="14.00">node #19</text>
<text text-anchor="middle" x="1709" y="-186.8" font-family="Times,serif" font-size="14.00">FEV1PostVal &lt;= 1.785</text>
<text text-anchor="middle" x="1709" y="-171.8" font-family="Times,serif" font-size="14.00">gini = 0.021</text>
<text text-anchor="middle" x="1709" y="-156.8" font-family="Times,serif" font-size="14.00">samples = 59</text>
<text text-anchor="middle" x="1709" y="-141.8" font-family="Times,serif" font-size="14.00">value = [95.429, 1.006]</text>
<text text-anchor="middle" x="1709" y="-126.8" font-family="Times,serif" font-size="14.00">class = Non&#45;obstructive</text>
</g>
<!-- 15&#45;&gt;19 -->
<g id="edge19" class="edge">
<title>15&#45;&gt;19</title>
<path fill="none" stroke="black" d="M1642.84,-252.97C1649.94,-243.96 1657.42,-234.47 1664.69,-225.24"/>
<polygon fill="black" stroke="black" points="1667.57,-227.23 1671.01,-217.21 1662.08,-222.9 1667.57,-227.23"/>
</g>
<!-- 17 -->
<g id="node18" class="node">
<title>17</title>
<polygon fill="none" stroke="black" points="1399,-83 1211,-83 1211,0 1399,0 1399,-83"/>
<text text-anchor="middle" x="1305" y="-67.8" font-family="Times,serif" font-size="14.00">node #17</text>
<text text-anchor="middle" x="1305" y="-52.8" font-family="Times,serif" font-size="14.00">gini = 0.167</text>
<text text-anchor="middle" x="1305" y="-37.8" font-family="Times,serif" font-size="14.00">samples = 8</text>
<text text-anchor="middle" x="1305" y="-22.8" font-family="Times,serif" font-size="14.00">value = [9.94, 1.006]</text>
<text text-anchor="middle" x="1305" y="-7.8" font-family="Times,serif" font-size="14.00">class = Non&#45;obstructive</text>
</g>
<!-- 16&#45;&gt;17 -->
<g id="edge17" class="edge">
<title>16&#45;&gt;17</title>
<path fill="none" stroke="black" d="M1425.22,-118.87C1409.5,-108.88 1392.97,-98.38 1377.37,-88.47"/>
<polygon fill="black" stroke="black" points="1379.13,-85.44 1368.81,-83.03 1375.37,-91.35 1379.13,-85.44"/>
</g>
<!-- 18 -->
<g id="node19" class="node">
<title>18</title>
<polygon fill="none" stroke="black" points="1593,-83 1417,-83 1417,0 1593,0 1593,-83"/>
<text text-anchor="middle" x="1505" y="-67.8" font-family="Times,serif" font-size="14.00">node #18</text>
<text text-anchor="middle" x="1505" y="-52.8" font-family="Times,serif" font-size="14.00">gini = 0.373</text>
<text text-anchor="middle" x="1505" y="-37.8" font-family="Times,serif" font-size="14.00">samples = 2</text>
<text text-anchor="middle" x="1505" y="-22.8" font-family="Times,serif" font-size="14.00">value = [0.994, 3.018]</text>
<text text-anchor="middle" x="1505" y="-7.8" font-family="Times,serif" font-size="14.00">class = Obstructive</text>
</g>
<!-- 16&#45;&gt;18 -->
<g id="edge18" class="edge">
<title>16&#45;&gt;18</title>
<path fill="none" stroke="black" d="M1502.55,-118.87C1502.82,-110.5 1503.1,-101.77 1503.37,-93.33"/>
<polygon fill="black" stroke="black" points="1506.87,-93.34 1503.69,-83.23 1499.87,-93.11 1506.87,-93.34"/>
</g>
<!-- 20 -->
<g id="node21" class="node">
<title>20</title>
<polygon fill="none" stroke="black" points="1799,-83 1611,-83 1611,0 1799,0 1799,-83"/>
<text text-anchor="middle" x="1705" y="-67.8" font-family="Times,serif" font-size="14.00">node #20</text>
<text text-anchor="middle" x="1705" y="-52.8" font-family="Times,serif" font-size="14.00">gini = 0.0</text>
<text text-anchor="middle" x="1705" y="-37.8" font-family="Times,serif" font-size="14.00">samples = 52</text>
<text text-anchor="middle" x="1705" y="-22.8" font-family="Times,serif" font-size="14.00">value = [85.488, 0.0]</text>
<text text-anchor="middle" x="1705" y="-7.8" font-family="Times,serif" font-size="14.00">class = Non&#45;obstructive</text>
</g>
<!-- 19&#45;&gt;20 -->
<g id="edge20" class="edge">
<title>19&#45;&gt;20</title>
<path fill="none" stroke="black" d="M1707.45,-118.87C1707.18,-110.5 1706.9,-101.77 1706.63,-93.33"/>
<polygon fill="black" stroke="black" points="1710.13,-93.11 1706.31,-83.23 1703.13,-93.34 1710.13,-93.11"/>
</g>
<!-- 21 -->
<g id="node22" class="node">
<title>21</title>
<polygon fill="none" stroke="black" points="2005,-83 1817,-83 1817,0 2005,0 2005,-83"/>
<text text-anchor="middle" x="1911" y="-67.8" font-family="Times,serif" font-size="14.00">node #21</text>
<text text-anchor="middle" x="1911" y="-52.8" font-family="Times,serif" font-size="14.00">gini = 0.167</text>
<text text-anchor="middle" x="1911" y="-37.8" font-family="Times,serif" font-size="14.00">samples = 7</text>
<text text-anchor="middle" x="1911" y="-22.8" font-family="Times,serif" font-size="14.00">value = [9.94, 1.006]</text>
<text text-anchor="middle" x="1911" y="-7.8" font-family="Times,serif" font-size="14.00">class = Non&#45;obstructive</text>
</g>
<!-- 19&#45;&gt;21 -->
<g id="edge21" class="edge">
<title>19&#45;&gt;21</title>
<path fill="none" stroke="black" d="M1787.1,-118.87C1803.3,-108.88 1820.34,-98.38 1836.42,-88.47"/>
<polygon fill="black" stroke="black" points="1838.56,-91.26 1845.24,-83.03 1834.89,-85.3 1838.56,-91.26"/>
</g>
<!-- 23 -->
<g id="node24" class="node">
<title>23</title>
<polygon fill="none" stroke="black" points="2316,-217 2122,-217 2122,-119 2316,-119 2316,-217"/>
<text text-anchor="middle" x="2219" y="-201.8" font-family="Times,serif" font-size="14.00">node #23</text>
<text text-anchor="middle" x="2219" y="-186.8" font-family="Times,serif" font-size="14.00">FEFPostVal &lt;= 3.075</text>
<text text-anchor="middle" x="2219" y="-171.8" font-family="Times,serif" font-size="14.00">gini = 0.479</text>
<text text-anchor="middle" x="2219" y="-156.8" font-family="Times,serif" font-size="14.00">samples = 47</text>
<text text-anchor="middle" x="2219" y="-141.8" font-family="Times,serif" font-size="14.00">value = [42.744, 28.169]</text>
<text text-anchor="middle" x="2219" y="-126.8" font-family="Times,serif" font-size="14.00">class = Non&#45;obstructive</text>
</g>
<!-- 22&#45;&gt;23 -->
<g id="edge23" class="edge">
<title>22&#45;&gt;23</title>
<path fill="none" stroke="black" d="M2219,-252.97C2219,-244.69 2219,-236 2219,-227.48"/>
<polygon fill="black" stroke="black" points="2222.5,-227.21 2219,-217.21 2215.5,-227.21 2222.5,-227.21"/>
</g>
<!-- 26 -->
<g id="node27" class="node">
<title>26</title>
<polygon fill="none" stroke="black" points="2634,-217 2434,-217 2434,-119 2634,-119 2634,-217"/>
<text text-anchor="middle" x="2534" y="-201.8" font-family="Times,serif" font-size="14.00">node #26</text>
<text text-anchor="middle" x="2534" y="-186.8" font-family="Times,serif" font-size="14.00">FEV1PrePercent &lt;= 97.0</text>
<text text-anchor="middle" x="2534" y="-171.8" font-family="Times,serif" font-size="14.00">gini = 0.217</text>
<text text-anchor="middle" x="2534" y="-156.8" font-family="Times,serif" font-size="14.00">samples = 15</text>
<text text-anchor="middle" x="2534" y="-141.8" font-family="Times,serif" font-size="14.00">value = [2.982, 21.127]</text>
<text text-anchor="middle" x="2534" y="-126.8" font-family="Times,serif" font-size="14.00">class = Obstructive</text>
</g>
<!-- 22&#45;&gt;26 -->
<g id="edge26" class="edge">
<title>22&#45;&gt;26</title>
<path fill="none" stroke="black" d="M2316.08,-260.32C2350.43,-245.92 2389.3,-229.64 2424.6,-214.84"/>
<polygon fill="black" stroke="black" points="2426.11,-218.01 2433.98,-210.92 2423.4,-211.55 2426.11,-218.01"/>
</g>
<!-- 24 -->
<g id="node25" class="node">
<title>24</title>
<polygon fill="none" stroke="black" points="2217,-83 2023,-83 2023,0 2217,0 2217,-83"/>
<text text-anchor="middle" x="2120" y="-67.8" font-family="Times,serif" font-size="14.00">node #24</text>
<text text-anchor="middle" x="2120" y="-52.8" font-family="Times,serif" font-size="14.00">gini = 0.488</text>
<text text-anchor="middle" x="2120" y="-37.8" font-family="Times,serif" font-size="14.00">samples = 27</text>
<text text-anchor="middle" x="2120" y="-22.8" font-family="Times,serif" font-size="14.00">value = [16.899, 23.139]</text>
<text text-anchor="middle" x="2120" y="-7.8" font-family="Times,serif" font-size="14.00">class = Obstructive</text>
</g>
<!-- 23&#45;&gt;24 -->
<g id="edge24" class="edge">
<title>23&#45;&gt;24</title>
<path fill="none" stroke="black" d="M2180.72,-118.87C2173.49,-109.76 2165.91,-100.23 2158.66,-91.12"/>
<polygon fill="black" stroke="black" points="2161.35,-88.88 2152.39,-83.23 2155.87,-93.24 2161.35,-88.88"/>
</g>
<!-- 25 -->
<g id="node26" class="node">
<title>25</title>
<polygon fill="none" stroke="black" points="2423,-83 2235,-83 2235,0 2423,0 2423,-83"/>
<text text-anchor="middle" x="2329" y="-67.8" font-family="Times,serif" font-size="14.00">node #25</text>
<text text-anchor="middle" x="2329" y="-52.8" font-family="Times,serif" font-size="14.00">gini = 0.273</text>
<text text-anchor="middle" x="2329" y="-37.8" font-family="Times,serif" font-size="14.00">samples = 20</text>
<text text-anchor="middle" x="2329" y="-22.8" font-family="Times,serif" font-size="14.00">value = [25.845, 5.03]</text>
<text text-anchor="middle" x="2329" y="-7.8" font-family="Times,serif" font-size="14.00">class = Non&#45;obstructive</text>
</g>
<!-- 23&#45;&gt;25 -->
<g id="edge25" class="edge">
<title>23&#45;&gt;25</title>
<path fill="none" stroke="black" d="M2261.53,-118.87C2269.65,-109.67 2278.16,-100.04 2286.29,-90.84"/>
<polygon fill="black" stroke="black" points="2289.01,-93.04 2293.01,-83.23 2283.77,-88.41 2289.01,-93.04"/>
</g>
<!-- 27 -->
<g id="node28" class="node">
<title>27</title>
<polygon fill="none" stroke="black" points="2626.5,-83 2441.5,-83 2441.5,0 2626.5,0 2626.5,-83"/>
<text text-anchor="middle" x="2534" y="-67.8" font-family="Times,serif" font-size="14.00">node #27</text>
<text text-anchor="middle" x="2534" y="-52.8" font-family="Times,serif" font-size="14.00">gini = 0.086</text>
<text text-anchor="middle" x="2534" y="-37.8" font-family="Times,serif" font-size="14.00">samples = 13</text>
<text text-anchor="middle" x="2534" y="-22.8" font-family="Times,serif" font-size="14.00">value = [0.994, 21.127]</text>
<text text-anchor="middle" x="2534" y="-7.8" font-family="Times,serif" font-size="14.00">class = Obstructive</text>
</g>
<!-- 26&#45;&gt;27 -->
<g id="edge27" class="edge">
<title>26&#45;&gt;27</title>
<path fill="none" stroke="black" d="M2534,-118.87C2534,-110.5 2534,-101.77 2534,-93.33"/>
<polygon fill="black" stroke="black" points="2537.5,-93.23 2534,-83.23 2530.5,-93.23 2537.5,-93.23"/>
</g>
<!-- 28 -->
<g id="node29" class="node">
<title>28</title>
<polygon fill="none" stroke="black" points="2833,-83 2645,-83 2645,0 2833,0 2833,-83"/>
<text text-anchor="middle" x="2739" y="-67.8" font-family="Times,serif" font-size="14.00">node #28</text>
<text text-anchor="middle" x="2739" y="-52.8" font-family="Times,serif" font-size="14.00">gini = 0.0</text>
<text text-anchor="middle" x="2739" y="-37.8" font-family="Times,serif" font-size="14.00">samples = 2</text>
<text text-anchor="middle" x="2739" y="-22.8" font-family="Times,serif" font-size="14.00">value = [1.988, 0.0]</text>
<text text-anchor="middle" x="2739" y="-7.8" font-family="Times,serif" font-size="14.00">class = Non&#45;obstructive</text>
</g>
<!-- 26&#45;&gt;28 -->
<g id="edge28" class="edge">
<title>26&#45;&gt;28</title>
<path fill="none" stroke="black" d="M2613.26,-118.87C2629.7,-108.88 2646.99,-98.38 2663.31,-88.47"/>
<polygon fill="black" stroke="black" points="2665.53,-91.21 2672.26,-83.03 2661.9,-85.23 2665.53,-91.21"/>
</g>
</g>
</svg>
