<?xml version="1.0" encoding="UTF-8" standalone="no"?>
<!DOCTYPE svg PUBLIC "-//W3C//DTD SVG 1.1//EN"
 "http://www.w3.org/Graphics/SVG/1.1/DTD/svg11.dtd">
<!-- Generated by graphviz version 2.43.0 (0)
 -->
<!-- Title: Tree Pages: 1 -->
<svg width="2746pt" height="627pt"
 viewBox="0.00 0.00 2746.00 627.00" xmlns="http://www.w3.org/2000/svg" xmlns:xlink="http://www.w3.org/1999/xlink">
<g id="graph0" class="graph" transform="scale(1 1) rotate(0) translate(4 623)">
<title>Tree</title>
<polygon fill="white" stroke="transparent" points="-4,4 -4,-623 2742,-623 2742,4 -4,4"/>
<!-- 0 -->
<g id="node1" class="node">
<title>0</title>
<polygon fill="none" stroke="black" points="1546.5,-619 1349.5,-619 1349.5,-521 1546.5,-521 1546.5,-619"/>
<text text-anchor="middle" x="1448" y="-603.8" font-family="Times,serif" font-size="14.00">node #0</text>
<text text-anchor="middle" x="1448" y="-588.8" font-family="Times,serif" font-size="14.00">FEFPostPercent &lt;= 32.5</text>
<text text-anchor="middle" x="1448" y="-573.8" font-family="Times,serif" font-size="14.00">gini = 0.5</text>
<text text-anchor="middle" x="1448" y="-558.8" font-family="Times,serif" font-size="14.00">samples = 221</text>
<text text-anchor="middle" x="1448" y="-543.8" font-family="Times,serif" font-size="14.00">value = [167.0, 167.0]</text>
<text text-anchor="middle" x="1448" y="-528.8" font-family="Times,serif" font-size="14.00">class = Obstructive</text>
</g>
<!-- 1 -->
<g id="node2" class="node">
<title>1</title>
<polygon fill="none" stroke="black" points="1251,-485 1057,-485 1057,-387 1251,-387 1251,-485"/>
<text text-anchor="middle" x="1154" y="-469.8" font-family="Times,serif" font-size="14.00">node #1</text>
<text text-anchor="middle" x="1154" y="-454.8" font-family="Times,serif" font-size="14.00">FEFPostVal &lt;= 0.72</text>
<text text-anchor="middle" x="1154" y="-439.8" font-family="Times,serif" font-size="14.00">gini = 0.227</text>
<text text-anchor="middle" x="1154" y="-424.8" font-family="Times,serif" font-size="14.00">samples = 69</text>
<text text-anchor="middle" x="1154" y="-409.8" font-family="Times,serif" font-size="14.00">value = [14.432, 96.122]</text>
<text text-anchor="middle" x="1154" y="-394.8" font-family="Times,serif" font-size="14.00">class = Obstructive</text>
</g>
<!-- 0&#45;&gt;1 -->
<g id="edge1" class="edge">
<title>0&#45;&gt;1</title>
<path fill="none" stroke="black" d="M1349.28,-524.68C1320.83,-511.91 1289.67,-497.91 1260.76,-484.93"/>
<polygon fill="black" stroke="black" points="1262.01,-481.66 1251.46,-480.76 1259.15,-488.04 1262.01,-481.66"/>
<text text-anchor="middle" x="1260.34" y="-500.42" font-family="Times,serif" font-size="14.00">True</text>
</g>
<!-- 16 -->
<g id="node17" class="node">
<title>16</title>
<polygon fill="none" stroke="black" points="1798.5,-485 1595.5,-485 1595.5,-387 1798.5,-387 1798.5,-485"/>
<text text-anchor="middle" x="1697" y="-469.8" font-family="Times,serif" font-size="14.00">node #16</text>
<text text-anchor="middle" x="1697" y="-454.8" font-family="Times,serif" font-size="14.00">FEV1PostVal &lt;= 1.875</text>
<text text-anchor="middle" x="1697" y="-439.8" font-family="Times,serif" font-size="14.00">gini = 0.433</text>
<text text-anchor="middle" x="1697" y="-424.8" font-family="Times,serif" font-size="14.00">samples = 152</text>
<text text-anchor="middle" x="1697" y="-409.8" font-family="Times,serif" font-size="14.00">value = [152.568, 70.878]</text>
<text text-anchor="middle" x="1697" y="-394.8" font-family="Times,serif" font-size="14.00">class = Non&#45;obstructive</text>
</g>
<!-- 0&#45;&gt;16 -->
<g id="edge16" class="edge">
<title>0&#45;&gt;16</title>
<path fill="none" stroke="black" d="M1538.6,-520.97C1557.57,-510.92 1577.67,-500.26 1596.96,-490.04"/>
<polygon fill="black" stroke="black" points="1598.86,-492.99 1606.05,-485.21 1595.58,-486.81 1598.86,-492.99"/>
<text text-anchor="middle" x="1598.71" y="-505.41" font-family="Times,serif" font-size="14.00">False</text>
</g>
<!-- 2 -->
<g id="node3" class="node">
<title>2</title>
<polygon fill="none" stroke="black" points="663.5,-351 466.5,-351 466.5,-253 663.5,-253 663.5,-351"/>
<text text-anchor="middle" x="565" y="-335.8" font-family="Times,serif" font-size="14.00">node #2</text>
<text text-anchor="middle" x="565" y="-320.8" font-family="Times,serif" font-size="14.00">FVCPostPercent &lt;= 37.5</text>
<text text-anchor="middle" x="565" y="-305.8" font-family="Times,serif" font-size="14.00">gini = 0.103</text>
<text text-anchor="middle" x="565" y="-290.8" font-family="Times,serif" font-size="14.00">samples = 46</text>
<text text-anchor="middle" x="565" y="-275.8" font-family="Times,serif" font-size="14.00">value = [4.123, 71.849]</text>
<text text-anchor="middle" x="565" y="-260.8" font-family="Times,serif" font-size="14.00">class = Obstructive</text>
</g>
<!-- 1&#45;&gt;2 -->
<g id="edge2" class="edge">
<title>1&#45;&gt;2</title>
<path fill="none" stroke="black" d="M1056.74,-413.2C951.28,-389.57 783.37,-351.94 673.65,-327.35"/>
<polygon fill="black" stroke="black" points="674.4,-323.93 663.88,-325.16 672.87,-330.76 674.4,-323.93"/>
</g>
<!-- 9 -->
<g id="node10" class="node">
<title>9</title>
<polygon fill="none" stroke="black" points="1251,-351 1057,-351 1057,-253 1251,-253 1251,-351"/>
<text text-anchor="middle" x="1154" y="-335.8" font-family="Times,serif" font-size="14.00">node #9</text>
<text text-anchor="middle" x="1154" y="-320.8" font-family="Times,serif" font-size="14.00">FVCPostVal &lt;= 1.985</text>
<text text-anchor="middle" x="1154" y="-305.8" font-family="Times,serif" font-size="14.00">gini = 0.418</text>
<text text-anchor="middle" x="1154" y="-290.8" font-family="Times,serif" font-size="14.00">samples = 23</text>
<text text-anchor="middle" x="1154" y="-275.8" font-family="Times,serif" font-size="14.00">value = [10.309, 24.273]</text>
<text text-anchor="middle" x="1154" y="-260.8" font-family="Times,serif" font-size="14.00">class = Obstructive</text>
</g>
<!-- 1&#45;&gt;9 -->
<g id="edge9" class="edge">
<title>1&#45;&gt;9</title>
<path fill="none" stroke="black" d="M1154,-386.97C1154,-378.69 1154,-370 1154,-361.48"/>
<polygon fill="black" stroke="black" points="1157.5,-361.21 1154,-351.21 1150.5,-361.21 1157.5,-361.21"/>
</g>
<!-- 3 -->
<g id="node4" class="node">
<title>3</title>
<polygon fill="none" stroke="black" points="358,-217 182,-217 182,-119 358,-119 358,-217"/>
<text text-anchor="middle" x="270" y="-201.8" font-family="Times,serif" font-size="14.00">node #3</text>
<text text-anchor="middle" x="270" y="-186.8" font-family="Times,serif" font-size="14.00">FEFPreVal &lt;= 0.365</text>
<text text-anchor="middle" x="270" y="-171.8" font-family="Times,serif" font-size="14.00">gini = 0.407</text>
<text text-anchor="middle" x="270" y="-156.8" font-family="Times,serif" font-size="14.00">samples = 7</text>
<text text-anchor="middle" x="270" y="-141.8" font-family="Times,serif" font-size="14.00">value = [3.093, 7.767]</text>
<text text-anchor="middle" x="270" y="-126.8" font-family="Times,serif" font-size="14.00">class = Obstructive</text>
</g>
<!-- 2&#45;&gt;3 -->
<g id="edge3" class="edge">
<title>2&#45;&gt;3</title>
<path fill="none" stroke="black" d="M466.36,-256.86C434.5,-242.61 399.21,-226.81 367.43,-212.6"/>
<polygon fill="black" stroke="black" points="368.69,-209.33 358.13,-208.44 365.83,-215.71 368.69,-209.33"/>
</g>
<!-- 6 -->
<g id="node7" class="node">
<title>6</title>
<polygon fill="none" stroke="black" points="657.5,-217 472.5,-217 472.5,-119 657.5,-119 657.5,-217"/>
<text text-anchor="middle" x="565" y="-201.8" font-family="Times,serif" font-size="14.00">node #6</text>
<text text-anchor="middle" x="565" y="-186.8" font-family="Times,serif" font-size="14.00">FVCPreVal &lt;= 1.035</text>
<text text-anchor="middle" x="565" y="-171.8" font-family="Times,serif" font-size="14.00">gini = 0.031</text>
<text text-anchor="middle" x="565" y="-156.8" font-family="Times,serif" font-size="14.00">samples = 39</text>
<text text-anchor="middle" x="565" y="-141.8" font-family="Times,serif" font-size="14.00">value = [1.031, 64.081]</text>
<text text-anchor="middle" x="565" y="-126.8" font-family="Times,serif" font-size="14.00">class = Obstructive</text>
</g>
<!-- 2&#45;&gt;6 -->
<g id="edge6" class="edge">
<title>2&#45;&gt;6</title>
<path fill="none" stroke="black" d="M565,-252.97C565,-244.69 565,-236 565,-227.48"/>
<polygon fill="black" stroke="black" points="568.5,-227.21 565,-217.21 561.5,-227.21 568.5,-227.21"/>
</g>
<!-- 4 -->
<g id="node5" class="node">
<title>4</title>
<polygon fill="none" stroke="black" points="158,-83 0,-83 0,0 158,0 158,-83"/>
<text text-anchor="middle" x="79" y="-67.8" font-family="Times,serif" font-size="14.00">node #4</text>
<text text-anchor="middle" x="79" y="-52.8" font-family="Times,serif" font-size="14.00">gini = 0.0</text>
<text text-anchor="middle" x="79" y="-37.8" font-family="Times,serif" font-size="14.00">samples = 4</text>
<text text-anchor="middle" x="79" y="-22.8" font-family="Times,serif" font-size="14.00">value = [0.0, 6.797]</text>
<text text-anchor="middle" x="79" y="-7.8" font-family="Times,serif" font-size="14.00">class = Obstructive</text>
</g>
<!-- 3&#45;&gt;4 -->
<g id="edge4" class="edge">
<title>3&#45;&gt;4</title>
<path fill="none" stroke="black" d="M196.15,-118.87C180.97,-108.97 165.02,-98.57 149.95,-88.74"/>
<polygon fill="black" stroke="black" points="151.47,-85.56 141.18,-83.03 147.65,-91.43 151.47,-85.56"/>
</g>
<!-- 5 -->
<g id="node6" class="node">
<title>5</title>
<polygon fill="none" stroke="black" points="364,-83 176,-83 176,0 364,0 364,-83"/>
<text text-anchor="middle" x="270" y="-67.8" font-family="Times,serif" font-size="14.00">node #5</text>
<text text-anchor="middle" x="270" y="-52.8" font-family="Times,serif" font-size="14.00">gini = 0.364</text>
<text text-anchor="middle" x="270" y="-37.8" font-family="Times,serif" font-size="14.00">samples = 3</text>
<text text-anchor="middle" x="270" y="-22.8" font-family="Times,serif" font-size="14.00">value = [3.093, 0.971]</text>
<text text-anchor="middle" x="270" y="-7.8" font-family="Times,serif" font-size="14.00">class = Non&#45;obstructive</text>
</g>
<!-- 3&#45;&gt;5 -->
<g id="edge5" class="edge">
<title>3&#45;&gt;5</title>
<path fill="none" stroke="black" d="M270,-118.87C270,-110.5 270,-101.77 270,-93.33"/>
<polygon fill="black" stroke="black" points="273.5,-93.23 270,-83.23 266.5,-93.23 273.5,-93.23"/>
</g>
<!-- 7 -->
<g id="node8" class="node">
<title>7</title>
<polygon fill="none" stroke="black" points="558,-83 382,-83 382,0 558,0 558,-83"/>
<text text-anchor="middle" x="470" y="-67.8" font-family="Times,serif" font-size="14.00">node #7</text>
<text text-anchor="middle" x="470" y="-52.8" font-family="Times,serif" font-size="14.00">gini = 0.229</text>
<text text-anchor="middle" x="470" y="-37.8" font-family="Times,serif" font-size="14.00">samples = 4</text>
<text text-anchor="middle" x="470" y="-22.8" font-family="Times,serif" font-size="14.00">value = [1.031, 6.797]</text>
<text text-anchor="middle" x="470" y="-7.8" font-family="Times,serif" font-size="14.00">class = Obstructive</text>
</g>
<!-- 6&#45;&gt;7 -->
<g id="edge7" class="edge">
<title>6&#45;&gt;7</title>
<path fill="none" stroke="black" d="M528.27,-118.87C521.39,-109.85 514.2,-100.43 507.31,-91.39"/>
<polygon fill="black" stroke="black" points="509.93,-89.06 501.08,-83.23 504.36,-93.3 509.93,-89.06"/>
</g>
<!-- 8 -->
<g id="node9" class="node">
<title>8</title>
<polygon fill="none" stroke="black" points="742.5,-83 575.5,-83 575.5,0 742.5,0 742.5,-83"/>
<text text-anchor="middle" x="659" y="-67.8" font-family="Times,serif" font-size="14.00">node #8</text>
<text text-anchor="middle" x="659" y="-52.8" font-family="Times,serif" font-size="14.00">gini = &#45;0.0</text>
<text text-anchor="middle" x="659" y="-37.8" font-family="Times,serif" font-size="14.00">samples = 35</text>
<text text-anchor="middle" x="659" y="-22.8" font-family="Times,serif" font-size="14.00">value = [0.0, 57.285]</text>
<text text-anchor="middle" x="659" y="-7.8" font-family="Times,serif" font-size="14.00">class = Obstructive</text>
</g>
<!-- 6&#45;&gt;8 -->
<g id="edge8" class="edge">
<title>6&#45;&gt;8</title>
<path fill="none" stroke="black" d="M601.34,-118.87C608.15,-109.85 615.26,-100.43 622.08,-91.39"/>
<polygon fill="black" stroke="black" points="625.01,-93.32 628.25,-83.23 619.43,-89.1 625.01,-93.32"/>
</g>
<!-- 10 -->
<g id="node11" class="node">
<title>10</title>
<polygon fill="none" stroke="black" points="1154.5,-217 945.5,-217 945.5,-119 1154.5,-119 1154.5,-217"/>
<text text-anchor="middle" x="1050" y="-201.8" font-family="Times,serif" font-size="14.00">node #10</text>
<text text-anchor="middle" x="1050" y="-186.8" font-family="Times,serif" font-size="14.00">FEV1PrePercent &lt;= 47.47</text>
<text text-anchor="middle" x="1050" y="-171.8" font-family="Times,serif" font-size="14.00">gini = 0.172</text>
<text text-anchor="middle" x="1050" y="-156.8" font-family="Times,serif" font-size="14.00">samples = 6</text>
<text text-anchor="middle" x="1050" y="-141.8" font-family="Times,serif" font-size="14.00">value = [9.278, 0.971]</text>
<text text-anchor="middle" x="1050" y="-126.8" font-family="Times,serif" font-size="14.00">class = Non&#45;obstructive</text>
</g>
<!-- 9&#45;&gt;10 -->
<g id="edge10" class="edge">
<title>9&#45;&gt;10</title>
<path fill="none" stroke="black" d="M1116.16,-252.97C1109.06,-243.96 1101.58,-234.47 1094.31,-225.24"/>
<polygon fill="black" stroke="black" points="1096.92,-222.9 1087.99,-217.21 1091.43,-227.23 1096.92,-222.9"/>
</g>
<!-- 13 -->
<g id="node14" class="node">
<title>13</title>
<polygon fill="none" stroke="black" points="1369.5,-217 1172.5,-217 1172.5,-119 1369.5,-119 1369.5,-217"/>
<text text-anchor="middle" x="1271" y="-201.8" font-family="Times,serif" font-size="14.00">node #13</text>
<text text-anchor="middle" x="1271" y="-186.8" font-family="Times,serif" font-size="14.00">FVCPostPercent &lt;= 69.5</text>
<text text-anchor="middle" x="1271" y="-171.8" font-family="Times,serif" font-size="14.00">gini = 0.081</text>
<text text-anchor="middle" x="1271" y="-156.8" font-family="Times,serif" font-size="14.00">samples = 17</text>
<text text-anchor="middle" x="1271" y="-141.8" font-family="Times,serif" font-size="14.00">value = [1.031, 23.302]</text>
<text text-anchor="middle" x="1271" y="-126.8" font-family="Times,serif" font-size="14.00">class = Obstructive</text>
</g>
<!-- 9&#45;&gt;13 -->
<g id="edge13" class="edge">
<title>9&#45;&gt;13</title>
<path fill="none" stroke="black" d="M1196.57,-252.97C1204.64,-243.87 1213.14,-234.28 1221.4,-224.96"/>
<polygon fill="black" stroke="black" points="1224.25,-227.02 1228.26,-217.21 1219.01,-222.38 1224.25,-227.02"/>
</g>
<!-- 11 -->
<g id="node12" class="node">
<title>11</title>
<polygon fill="none" stroke="black" points="949,-83 761,-83 761,0 949,0 949,-83"/>
<text text-anchor="middle" x="855" y="-67.8" font-family="Times,serif" font-size="14.00">node #11</text>
<text text-anchor="middle" x="855" y="-52.8" font-family="Times,serif" font-size="14.00">gini = 0.0</text>
<text text-anchor="middle" x="855" y="-37.8" font-family="Times,serif" font-size="14.00">samples = 4</text>
<text text-anchor="middle" x="855" y="-22.8" font-family="Times,serif" font-size="14.00">value = [8.247, 0.0]</text>
<text text-anchor="middle" x="855" y="-7.8" font-family="Times,serif" font-size="14.00">class = Non&#45;obstructive</text>
</g>
<!-- 10&#45;&gt;11 -->
<g id="edge11" class="edge">
<title>10&#45;&gt;11</title>
<path fill="none" stroke="black" d="M974.61,-118.87C958.96,-108.88 942.52,-98.38 927,-88.47"/>
<polygon fill="black" stroke="black" points="928.8,-85.46 918.48,-83.03 925.03,-91.36 928.8,-85.46"/>
</g>
<!-- 12 -->
<g id="node13" class="node">
<title>12</title>
<polygon fill="none" stroke="black" points="1155,-83 967,-83 967,0 1155,0 1155,-83"/>
<text text-anchor="middle" x="1061" y="-67.8" font-family="Times,serif" font-size="14.00">node #12</text>
<text text-anchor="middle" x="1061" y="-52.8" font-family="Times,serif" font-size="14.00">gini = 0.5</text>
<text text-anchor="middle" x="1061" y="-37.8" font-family="Times,serif" font-size="14.00">samples = 2</text>
<text text-anchor="middle" x="1061" y="-22.8" font-family="Times,serif" font-size="14.00">value = [1.031, 0.971]</text>
<text text-anchor="middle" x="1061" y="-7.8" font-family="Times,serif" font-size="14.00">class = Non&#45;obstructive</text>
</g>
<!-- 10&#45;&gt;12 -->
<g id="edge12" class="edge">
<title>10&#45;&gt;12</title>
<path fill="none" stroke="black" d="M1054.25,-118.87C1054.99,-110.5 1055.76,-101.77 1056.51,-93.33"/>
<polygon fill="black" stroke="black" points="1060.01,-93.5 1057.4,-83.23 1053.03,-92.88 1060.01,-93.5"/>
</g>
<!-- 14 -->
<g id="node15" class="node">
<title>14</title>
<polygon fill="none" stroke="black" points="1349,-83 1173,-83 1173,0 1349,0 1349,-83"/>
<text text-anchor="middle" x="1261" y="-67.8" font-family="Times,serif" font-size="14.00">node #14</text>
<text text-anchor="middle" x="1261" y="-52.8" font-family="Times,serif" font-size="14.00">gini = 0.189</text>
<text text-anchor="middle" x="1261" y="-37.8" font-family="Times,serif" font-size="14.00">samples = 7</text>
<text text-anchor="middle" x="1261" y="-22.8" font-family="Times,serif" font-size="14.00">value = [1.031, 8.738]</text>
<text text-anchor="middle" x="1261" y="-7.8" font-family="Times,serif" font-size="14.00">class = Obstructive</text>
</g>
<!-- 13&#45;&gt;14 -->
<g id="edge14" class="edge">
<title>13&#45;&gt;14</title>
<path fill="none" stroke="black" d="M1267.13,-118.87C1266.46,-110.5 1265.76,-101.77 1265.08,-93.33"/>
<polygon fill="black" stroke="black" points="1268.56,-92.92 1264.27,-83.23 1261.58,-93.48 1268.56,-92.92"/>
</g>
<!-- 15 -->
<g id="node16" class="node">
<title>15</title>
<polygon fill="none" stroke="black" points="1533.5,-83 1366.5,-83 1366.5,0 1533.5,0 1533.5,-83"/>
<text text-anchor="middle" x="1450" y="-67.8" font-family="Times,serif" font-size="14.00">node #15</text>
<text text-anchor="middle" x="1450" y="-52.8" font-family="Times,serif" font-size="14.00">gini = 0.0</text>
<text text-anchor="middle" x="1450" y="-37.8" font-family="Times,serif" font-size="14.00">samples = 10</text>
<text text-anchor="middle" x="1450" y="-22.8" font-family="Times,serif" font-size="14.00">value = [0.0, 14.564]</text>
<text text-anchor="middle" x="1450" y="-7.8" font-family="Times,serif" font-size="14.00">class = Obstructive</text>
</g>
<!-- 13&#45;&gt;15 -->
<g id="edge15" class="edge">
<title>13&#45;&gt;15</title>
<path fill="none" stroke="black" d="M1340.21,-118.87C1354.43,-108.97 1369.38,-98.57 1383.51,-88.74"/>
<polygon fill="black" stroke="black" points="1385.51,-91.62 1391.72,-83.03 1381.52,-85.87 1385.51,-91.62"/>
</g>
<!-- 17 -->
<g id="node18" class="node">
<title>17</title>
<polygon fill="none" stroke="black" points="1794,-351 1600,-351 1600,-253 1794,-253 1794,-351"/>
<text text-anchor="middle" x="1697" y="-335.8" font-family="Times,serif" font-size="14.00">node #17</text>
<text text-anchor="middle" x="1697" y="-320.8" font-family="Times,serif" font-size="14.00">FEFPostVal &lt;= 0.97</text>
<text text-anchor="middle" x="1697" y="-305.8" font-family="Times,serif" font-size="14.00">gini = 0.304</text>
<text text-anchor="middle" x="1697" y="-290.8" font-family="Times,serif" font-size="14.00">samples = 86</text>
<text text-anchor="middle" x="1697" y="-275.8" font-family="Times,serif" font-size="14.00">value = [96.901, 22.331]</text>
<text text-anchor="middle" x="1697" y="-260.8" font-family="Times,serif" font-size="14.00">class = Non&#45;obstructive</text>
</g>
<!-- 16&#45;&gt;17 -->
<g id="edge17" class="edge">
<title>16&#45;&gt;17</title>
<path fill="none" stroke="black" d="M1697,-386.97C1697,-378.69 1697,-370 1697,-361.48"/>
<polygon fill="black" stroke="black" points="1700.5,-361.21 1697,-351.21 1693.5,-361.21 1700.5,-361.21"/>
</g>
<!-- 22 -->
<g id="node23" class="node">
<title>22</title>
<polygon fill="none" stroke="black" points="2206,-351 2012,-351 2012,-253 2206,-253 2206,-351"/>
<text text-anchor="middle" x="2109" y="-335.8" font-family="Times,serif" font-size="14.00">node #22</text>
<text text-anchor="middle" x="2109" y="-320.8" font-family="Times,serif" font-size="14.00">FEFPrePercent &lt;= 85.0</text>
<text text-anchor="middle" x="2109" y="-305.8" font-family="Times,serif" font-size="14.00">gini = 0.498</text>
<text text-anchor="middle" x="2109" y="-290.8" font-family="Times,serif" font-size="14.00">samples = 66</text>
<text text-anchor="middle" x="2109" y="-275.8" font-family="Times,serif" font-size="14.00">value = [55.667, 48.547]</text>
<text text-anchor="middle" x="2109" y="-260.8" font-family="Times,serif" font-size="14.00">class = Non&#45;obstructive</text>
</g>
<!-- 16&#45;&gt;22 -->
<g id="edge22" class="edge">
<title>16&#45;&gt;22</title>
<path fill="none" stroke="black" d="M1798.58,-402.46C1860.45,-382.63 1939.41,-357.33 2002.21,-337.21"/>
<polygon fill="black" stroke="black" points="2003.29,-340.54 2011.75,-334.16 2001.16,-333.88 2003.29,-340.54"/>
</g>
<!-- 18 -->
<g id="node19" class="node">
<title>18</title>
<polygon fill="none" stroke="black" points="1674,-209.5 1516,-209.5 1516,-126.5 1674,-126.5 1674,-209.5"/>
<text text-anchor="middle" x="1595" y="-194.3" font-family="Times,serif" font-size="14.00">node #18</text>
<text text-anchor="middle" x="1595" y="-179.3" font-family="Times,serif" font-size="14.00">gini = 0.0</text>
<text text-anchor="middle" x="1595" y="-164.3" font-family="Times,serif" font-size="14.00">samples = 6</text>
<text text-anchor="middle" x="1595" y="-149.3" font-family="Times,serif" font-size="14.00">value = [0.0, 9.709]</text>
<text text-anchor="middle" x="1595" y="-134.3" font-family="Times,serif" font-size="14.00">class = Obstructive</text>
</g>
<!-- 17&#45;&gt;18 -->
<g id="edge18" class="edge">
<title>17&#45;&gt;18</title>
<path fill="none" stroke="black" d="M1659.89,-252.97C1651.09,-241.58 1641.69,-229.42 1632.86,-217.99"/>
<polygon fill="black" stroke="black" points="1635.42,-215.59 1626.54,-209.82 1629.89,-219.87 1635.42,-215.59"/>
</g>
<!-- 19 -->
<g id="node20" class="node">
<title>19</title>
<polygon fill="none" stroke="black" points="1907.5,-217 1692.5,-217 1692.5,-119 1907.5,-119 1907.5,-217"/>
<text text-anchor="middle" x="1800" y="-201.8" font-family="Times,serif" font-size="14.00">node #19</text>
<text text-anchor="middle" x="1800" y="-186.8" font-family="Times,serif" font-size="14.00">FVCPostPercent &lt;= 68.992</text>
<text text-anchor="middle" x="1800" y="-171.8" font-family="Times,serif" font-size="14.00">gini = 0.204</text>
<text text-anchor="middle" x="1800" y="-156.8" font-family="Times,serif" font-size="14.00">samples = 80</text>
<text text-anchor="middle" x="1800" y="-141.8" font-family="Times,serif" font-size="14.00">value = [96.901, 12.622]</text>
<text text-anchor="middle" x="1800" y="-126.8" font-family="Times,serif" font-size="14.00">class = Non&#45;obstructive</text>
</g>
<!-- 17&#45;&gt;19 -->
<g id="edge19" class="edge">
<title>17&#45;&gt;19</title>
<path fill="none" stroke="black" d="M1734.48,-252.97C1741.51,-243.96 1748.91,-234.47 1756.12,-225.24"/>
<polygon fill="black" stroke="black" points="1758.99,-227.25 1762.38,-217.21 1753.47,-222.94 1758.99,-227.25"/>
</g>
<!-- 20 -->
<g id="node21" class="node">
<title>20</title>
<polygon fill="none" stroke="black" points="1740,-83 1552,-83 1552,0 1740,0 1740,-83"/>
<text text-anchor="middle" x="1646" y="-67.8" font-family="Times,serif" font-size="14.00">node #20</text>
<text text-anchor="middle" x="1646" y="-52.8" font-family="Times,serif" font-size="14.00">gini = 0.118</text>
<text text-anchor="middle" x="1646" y="-37.8" font-family="Times,serif" font-size="14.00">samples = 65</text>
<text text-anchor="middle" x="1646" y="-22.8" font-family="Times,serif" font-size="14.00">value = [86.593, 5.826]</text>
<text text-anchor="middle" x="1646" y="-7.8" font-family="Times,serif" font-size="14.00">class = Non&#45;obstructive</text>
</g>
<!-- 19&#45;&gt;20 -->
<g id="edge20" class="edge">
<title>19&#45;&gt;20</title>
<path fill="none" stroke="black" d="M1740.46,-118.87C1728.63,-109.3 1716.22,-99.27 1704.43,-89.74"/>
<polygon fill="black" stroke="black" points="1706.36,-86.8 1696.38,-83.23 1701.96,-92.24 1706.36,-86.8"/>
</g>
<!-- 21 -->
<g id="node22" class="node">
<title>21</title>
<polygon fill="none" stroke="black" points="1946,-83 1758,-83 1758,0 1946,0 1946,-83"/>
<text text-anchor="middle" x="1852" y="-67.8" font-family="Times,serif" font-size="14.00">node #21</text>
<text text-anchor="middle" x="1852" y="-52.8" font-family="Times,serif" font-size="14.00">gini = 0.479</text>
<text text-anchor="middle" x="1852" y="-37.8" font-family="Times,serif" font-size="14.00">samples = 15</text>
<text text-anchor="middle" x="1852" y="-22.8" font-family="Times,serif" font-size="14.00">value = [10.309, 6.797]</text>
<text text-anchor="middle" x="1852" y="-7.8" font-family="Times,serif" font-size="14.00">class = Non&#45;obstructive</text>
</g>
<!-- 19&#45;&gt;21 -->
<g id="edge21" class="edge">
<title>19&#45;&gt;21</title>
<path fill="none" stroke="black" d="M1820.1,-118.87C1823.71,-110.22 1827.48,-101.2 1831.12,-92.5"/>
<polygon fill="black" stroke="black" points="1834.36,-93.81 1834.99,-83.23 1827.9,-91.11 1834.36,-93.81"/>
</g>
<!-- 23 -->
<g id="node24" class="node">
<title>23</title>
<polygon fill="none" stroke="black" points="2206,-217 2012,-217 2012,-119 2206,-119 2206,-217"/>
<text text-anchor="middle" x="2109" y="-201.8" font-family="Times,serif" font-size="14.00">node #23</text>
<text text-anchor="middle" x="2109" y="-186.8" font-family="Times,serif" font-size="14.00">FEV1PostVal &lt;= 2.14</text>
<text text-anchor="middle" x="2109" y="-171.8" font-family="Times,serif" font-size="14.00">gini = 0.461</text>
<text text-anchor="middle" x="2109" y="-156.8" font-family="Times,serif" font-size="14.00">samples = 47</text>
<text text-anchor="middle" x="2109" y="-141.8" font-family="Times,serif" font-size="14.00">value = [25.772, 45.634]</text>
<text text-anchor="middle" x="2109" y="-126.8" font-family="Times,serif" font-size="14.00">class = Obstructive</text>
</g>
<!-- 22&#45;&gt;23 -->
<g id="edge23" class="edge">
<title>22&#45;&gt;23</title>
<path fill="none" stroke="black" d="M2109,-252.97C2109,-244.69 2109,-236 2109,-227.48"/>
<polygon fill="black" stroke="black" points="2112.5,-227.21 2109,-217.21 2105.5,-227.21 2112.5,-227.21"/>
</g>
<!-- 26 -->
<g id="node27" class="node">
<title>26</title>
<polygon fill="none" stroke="black" points="2562,-217 2374,-217 2374,-119 2562,-119 2562,-217"/>
<text text-anchor="middle" x="2468" y="-201.8" font-family="Times,serif" font-size="14.00">node #26</text>
<text text-anchor="middle" x="2468" y="-186.8" font-family="Times,serif" font-size="14.00">FEV1PreVal &lt;= 3.215</text>
<text text-anchor="middle" x="2468" y="-171.8" font-family="Times,serif" font-size="14.00">gini = 0.162</text>
<text text-anchor="middle" x="2468" y="-156.8" font-family="Times,serif" font-size="14.00">samples = 19</text>
<text text-anchor="middle" x="2468" y="-141.8" font-family="Times,serif" font-size="14.00">value = [29.895, 2.913]</text>
<text text-anchor="middle" x="2468" y="-126.8" font-family="Times,serif" font-size="14.00">class = Non&#45;obstructive</text>
</g>
<!-- 22&#45;&gt;26 -->
<g id="edge26" class="edge">
<title>22&#45;&gt;26</title>
<path fill="none" stroke="black" d="M2206.15,-265.28C2255.12,-247.27 2314.52,-225.43 2364.36,-207.11"/>
<polygon fill="black" stroke="black" points="2365.7,-210.35 2373.87,-203.61 2363.28,-203.78 2365.7,-210.35"/>
</g>
<!-- 24 -->
<g id="node25" class="node">
<title>24</title>
<polygon fill="none" stroke="black" points="2149.5,-83 1964.5,-83 1964.5,0 2149.5,0 2149.5,-83"/>
<text text-anchor="middle" x="2057" y="-67.8" font-family="Times,serif" font-size="14.00">node #24</text>
<text text-anchor="middle" x="2057" y="-52.8" font-family="Times,serif" font-size="14.00">gini = 0.155</text>
<text text-anchor="middle" x="2057" y="-37.8" font-family="Times,serif" font-size="14.00">samples = 17</text>
<text text-anchor="middle" x="2057" y="-22.8" font-family="Times,serif" font-size="14.00">value = [2.062, 22.331]</text>
<text text-anchor="middle" x="2057" y="-7.8" font-family="Times,serif" font-size="14.00">class = Obstructive</text>
</g>
<!-- 23&#45;&gt;24 -->
<g id="edge24" class="edge">
<title>23&#45;&gt;24</title>
<path fill="none" stroke="black" d="M2088.9,-118.87C2085.29,-110.22 2081.52,-101.2 2077.88,-92.5"/>
<polygon fill="black" stroke="black" points="2081.1,-91.11 2074.01,-83.23 2074.64,-93.81 2081.1,-91.11"/>
</g>
<!-- 25 -->
<g id="node26" class="node">
<title>25</title>
<polygon fill="none" stroke="black" points="2356,-83 2168,-83 2168,0 2356,0 2356,-83"/>
<text text-anchor="middle" x="2262" y="-67.8" font-family="Times,serif" font-size="14.00">node #25</text>
<text text-anchor="middle" x="2262" y="-52.8" font-family="Times,serif" font-size="14.00">gini = 0.5</text>
<text text-anchor="middle" x="2262" y="-37.8" font-family="Times,serif" font-size="14.00">samples = 30</text>
<text text-anchor="middle" x="2262" y="-22.8" font-family="Times,serif" font-size="14.00">value = [23.71, 23.302]</text>
<text text-anchor="middle" x="2262" y="-7.8" font-family="Times,serif" font-size="14.00">class = Non&#45;obstructive</text>
</g>
<!-- 23&#45;&gt;25 -->
<g id="edge25" class="edge">
<title>23&#45;&gt;25</title>
<path fill="none" stroke="black" d="M2168.15,-118.87C2179.91,-109.3 2192.23,-99.27 2203.95,-89.74"/>
<polygon fill="black" stroke="black" points="2206.4,-92.26 2211.95,-83.23 2201.98,-86.83 2206.4,-92.26"/>
</g>
<!-- 27 -->
<g id="node28" class="node">
<title>27</title>
<polygon fill="none" stroke="black" points="2562,-83 2374,-83 2374,0 2562,0 2562,-83"/>
<text text-anchor="middle" x="2468" y="-67.8" font-family="Times,serif" font-size="14.00">node #27</text>
<text text-anchor="middle" x="2468" y="-52.8" font-family="Times,serif" font-size="14.00">gini = 0.115</text>
<text text-anchor="middle" x="2468" y="-37.8" font-family="Times,serif" font-size="14.00">samples = 18</text>
<text text-anchor="middle" x="2468" y="-22.8" font-family="Times,serif" font-size="14.00">value = [29.895, 1.942]</text>
<text text-anchor="middle" x="2468" y="-7.8" font-family="Times,serif" font-size="14.00">class = Non&#45;obstructive</text>
</g>
<!-- 26&#45;&gt;27 -->
<g id="edge27" class="edge">
<title>26&#45;&gt;27</title>
<path fill="none" stroke="black" d="M2468,-118.87C2468,-110.5 2468,-101.77 2468,-93.33"/>
<polygon fill="black" stroke="black" points="2471.5,-93.23 2468,-83.23 2464.5,-93.23 2471.5,-93.23"/>
</g>
<!-- 28 -->
<g id="node29" class="node">
<title>28</title>
<polygon fill="none" stroke="black" points="2738,-83 2580,-83 2580,0 2738,0 2738,-83"/>
<text text-anchor="middle" x="2659" y="-67.8" font-family="Times,serif" font-size="14.00">node #28</text>
<text text-anchor="middle" x="2659" y="-52.8" font-family="Times,serif" font-size="14.00">gini = &#45;0.0</text>
<text text-anchor="middle" x="2659" y="-37.8" font-family="Times,serif" font-size="14.00">samples = 1</text>
<text text-anchor="middle" x="2659" y="-22.8" font-family="Times,serif" font-size="14.00">value = [0.0, 0.971]</text>
<text text-anchor="middle" x="2659" y="-7.8" font-family="Times,serif" font-size="14.00">class = Obstructive</text>
</g>
<!-- 26&#45;&gt;28 -->
<g id="edge28" class="edge">
<title>26&#45;&gt;28</title>
<path fill="none" stroke="black" d="M2541.85,-118.87C2557.03,-108.97 2572.98,-98.57 2588.05,-88.74"/>
<polygon fill="black" stroke="black" points="2590.35,-91.43 2596.82,-83.03 2586.53,-85.56 2590.35,-91.43"/>
</g>
</g>
</svg>
