<?xml version="1.0" encoding="UTF-8" standalone="no"?>
<!DOCTYPE svg PUBLIC "-//W3C//DTD SVG 1.1//EN"
 "http://www.w3.org/Graphics/SVG/1.1/DTD/svg11.dtd">
<!-- Generated by graphviz version 2.43.0 (0)
 -->
<!-- Title: Tree Pages: 1 -->
<svg width="2388pt" height="627pt"
 viewBox="0.00 0.00 2387.50 627.00" xmlns="http://www.w3.org/2000/svg" xmlns:xlink="http://www.w3.org/1999/xlink">
<g id="graph0" class="graph" transform="scale(1 1) rotate(0) translate(4 623)">
<title>Tree</title>
<polygon fill="white" stroke="transparent" points="-4,4 -4,-623 2383.5,-623 2383.5,4 -4,4"/>
<!-- 0 -->
<g id="node1" class="node">
<title>0</title>
<polygon fill="none" stroke="black" points="1270,-619 1082,-619 1082,-521 1270,-521 1270,-619"/>
<text text-anchor="middle" x="1176" y="-603.8" font-family="Times,serif" font-size="14.00">node #0</text>
<text text-anchor="middle" x="1176" y="-588.8" font-family="Times,serif" font-size="14.00">FEFPostVal &lt;= 1.33</text>
<text text-anchor="middle" x="1176" y="-573.8" font-family="Times,serif" font-size="14.00">gini = 0.5</text>
<text text-anchor="middle" x="1176" y="-558.8" font-family="Times,serif" font-size="14.00">samples = 208</text>
<text text-anchor="middle" x="1176" y="-543.8" font-family="Times,serif" font-size="14.00">value = [167.0, 167.0]</text>
<text text-anchor="middle" x="1176" y="-528.8" font-family="Times,serif" font-size="14.00">class = Non&#45;obstructive</text>
</g>
<!-- 1 -->
<g id="node2" class="node">
<title>1</title>
<polygon fill="none" stroke="black" points="1071.5,-485 868.5,-485 868.5,-387 1071.5,-387 1071.5,-485"/>
<text text-anchor="middle" x="970" y="-469.8" font-family="Times,serif" font-size="14.00">node #1</text>
<text text-anchor="middle" x="970" y="-454.8" font-family="Times,serif" font-size="14.00">FVCPostVal &lt;= 1.495</text>
<text text-anchor="middle" x="970" y="-439.8" font-family="Times,serif" font-size="14.00">gini = 0.266</text>
<text text-anchor="middle" x="970" y="-424.8" font-family="Times,serif" font-size="14.00">samples = 85</text>
<text text-anchor="middle" x="970" y="-409.8" font-family="Times,serif" font-size="14.00">value = [20.739, 110.718]</text>
<text text-anchor="middle" x="970" y="-394.8" font-family="Times,serif" font-size="14.00">class = Obstructive</text>
</g>
<!-- 0&#45;&gt;1 -->
<g id="edge1" class="edge">
<title>0&#45;&gt;1</title>
<path fill="none" stroke="black" d="M1101.05,-520.97C1085.71,-511.14 1069.48,-500.74 1053.85,-490.73"/>
<polygon fill="black" stroke="black" points="1055.55,-487.66 1045.24,-485.21 1051.77,-493.56 1055.55,-487.66"/>
<text text-anchor="middle" x="1050.59" y="-505.94" font-family="Times,serif" font-size="14.00">True</text>
</g>
<!-- 14 -->
<g id="node15" class="node">
<title>14</title>
<polygon fill="none" stroke="black" points="1568.5,-485 1365.5,-485 1365.5,-387 1568.5,-387 1568.5,-485"/>
<text text-anchor="middle" x="1467" y="-469.8" font-family="Times,serif" font-size="14.00">node #14</text>
<text text-anchor="middle" x="1467" y="-454.8" font-family="Times,serif" font-size="14.00">FVCPreVal &lt;= 1.95</text>
<text text-anchor="middle" x="1467" y="-439.8" font-family="Times,serif" font-size="14.00">gini = 0.401</text>
<text text-anchor="middle" x="1467" y="-424.8" font-family="Times,serif" font-size="14.00">samples = 123</text>
<text text-anchor="middle" x="1467" y="-409.8" font-family="Times,serif" font-size="14.00">value = [146.261, 56.282]</text>
<text text-anchor="middle" x="1467" y="-394.8" font-family="Times,serif" font-size="14.00">class = Non&#45;obstructive</text>
</g>
<!-- 0&#45;&gt;14 -->
<g id="edge14" class="edge">
<title>0&#45;&gt;14</title>
<path fill="none" stroke="black" d="M1270.08,-526.33C1297.57,-513.85 1327.88,-500.11 1356.3,-487.21"/>
<polygon fill="black" stroke="black" points="1357.8,-490.38 1365.46,-483.06 1354.91,-484 1357.8,-490.38"/>
<text text-anchor="middle" x="1356.66" y="-502.76" font-family="Times,serif" font-size="14.00">False</text>
</g>
<!-- 2 -->
<g id="node3" class="node">
<title>2</title>
<polygon fill="none" stroke="black" points="685,-351 491,-351 491,-253 685,-253 685,-351"/>
<text text-anchor="middle" x="588" y="-335.8" font-family="Times,serif" font-size="14.00">node #2</text>
<text text-anchor="middle" x="588" y="-320.8" font-family="Times,serif" font-size="14.00">FVCPreVal &lt;= 1.18</text>
<text text-anchor="middle" x="588" y="-305.8" font-family="Times,serif" font-size="14.00">gini = 0.5</text>
<text text-anchor="middle" x="588" y="-290.8" font-family="Times,serif" font-size="14.00">samples = 23</text>
<text text-anchor="middle" x="588" y="-275.8" font-family="Times,serif" font-size="14.00">value = [16.373, 16.608]</text>
<text text-anchor="middle" x="588" y="-260.8" font-family="Times,serif" font-size="14.00">class = Obstructive</text>
</g>
<!-- 1&#45;&gt;2 -->
<g id="edge2" class="edge">
<title>1&#45;&gt;2</title>
<path fill="none" stroke="black" d="M868.38,-399.89C814.8,-381.37 749.09,-358.66 694.76,-339.89"/>
<polygon fill="black" stroke="black" points="695.69,-336.51 685.1,-336.55 693.41,-343.13 695.69,-336.51"/>
</g>
<!-- 9 -->
<g id="node10" class="node">
<title>9</title>
<polygon fill="none" stroke="black" points="1058,-351 882,-351 882,-253 1058,-253 1058,-351"/>
<text text-anchor="middle" x="970" y="-335.8" font-family="Times,serif" font-size="14.00">node #9</text>
<text text-anchor="middle" x="970" y="-320.8" font-family="Times,serif" font-size="14.00">FEV1PostVal &lt;= 2.44</text>
<text text-anchor="middle" x="970" y="-305.8" font-family="Times,serif" font-size="14.00">gini = 0.085</text>
<text text-anchor="middle" x="970" y="-290.8" font-family="Times,serif" font-size="14.00">samples = 62</text>
<text text-anchor="middle" x="970" y="-275.8" font-family="Times,serif" font-size="14.00">value = [4.366, 94.11]</text>
<text text-anchor="middle" x="970" y="-260.8" font-family="Times,serif" font-size="14.00">class = Obstructive</text>
</g>
<!-- 1&#45;&gt;9 -->
<g id="edge9" class="edge">
<title>1&#45;&gt;9</title>
<path fill="none" stroke="black" d="M970,-386.97C970,-378.69 970,-370 970,-361.48"/>
<polygon fill="black" stroke="black" points="973.5,-361.21 970,-351.21 966.5,-361.21 973.5,-361.21"/>
</g>
<!-- 3 -->
<g id="node4" class="node">
<title>3</title>
<polygon fill="none" stroke="black" points="388,-217 188,-217 188,-119 388,-119 388,-217"/>
<text text-anchor="middle" x="288" y="-201.8" font-family="Times,serif" font-size="14.00">node #3</text>
<text text-anchor="middle" x="288" y="-186.8" font-family="Times,serif" font-size="14.00">FEV1PrePercent &lt;= 30.5</text>
<text text-anchor="middle" x="288" y="-171.8" font-family="Times,serif" font-size="14.00">gini = 0.459</text>
<text text-anchor="middle" x="288" y="-156.8" font-family="Times,serif" font-size="14.00">samples = 17</text>
<text text-anchor="middle" x="288" y="-141.8" font-family="Times,serif" font-size="14.00">value = [8.732, 15.685]</text>
<text text-anchor="middle" x="288" y="-126.8" font-family="Times,serif" font-size="14.00">class = Obstructive</text>
</g>
<!-- 2&#45;&gt;3 -->
<g id="edge3" class="edge">
<title>2&#45;&gt;3</title>
<path fill="none" stroke="black" d="M490.6,-258.14C460.91,-245.08 428.07,-230.63 397.62,-217.23"/>
<polygon fill="black" stroke="black" points="398.82,-213.94 388.26,-213.11 396,-220.34 398.82,-213.94"/>
</g>
<!-- 6 -->
<g id="node7" class="node">
<title>6</title>
<polygon fill="none" stroke="black" points="691,-217 485,-217 485,-119 691,-119 691,-217"/>
<text text-anchor="middle" x="588" y="-201.8" font-family="Times,serif" font-size="14.00">node #6</text>
<text text-anchor="middle" x="588" y="-186.8" font-family="Times,serif" font-size="14.00">FEV1PostPercent &lt;= 25.0</text>
<text text-anchor="middle" x="588" y="-171.8" font-family="Times,serif" font-size="14.00">gini = 0.192</text>
<text text-anchor="middle" x="588" y="-156.8" font-family="Times,serif" font-size="14.00">samples = 6</text>
<text text-anchor="middle" x="588" y="-141.8" font-family="Times,serif" font-size="14.00">value = [7.641, 0.923]</text>
<text text-anchor="middle" x="588" y="-126.8" font-family="Times,serif" font-size="14.00">class = Non&#45;obstructive</text>
</g>
<!-- 2&#45;&gt;6 -->
<g id="edge6" class="edge">
<title>2&#45;&gt;6</title>
<path fill="none" stroke="black" d="M588,-252.97C588,-244.69 588,-236 588,-227.48"/>
<polygon fill="black" stroke="black" points="591.5,-227.21 588,-217.21 584.5,-227.21 591.5,-227.21"/>
</g>
<!-- 4 -->
<g id="node5" class="node">
<title>4</title>
<polygon fill="none" stroke="black" points="176,-83 0,-83 0,0 176,0 176,-83"/>
<text text-anchor="middle" x="88" y="-67.8" font-family="Times,serif" font-size="14.00">node #4</text>
<text text-anchor="middle" x="88" y="-52.8" font-family="Times,serif" font-size="14.00">gini = 0.136</text>
<text text-anchor="middle" x="88" y="-37.8" font-family="Times,serif" font-size="14.00">samples = 10</text>
<text text-anchor="middle" x="88" y="-22.8" font-family="Times,serif" font-size="14.00">value = [1.092, 13.84]</text>
<text text-anchor="middle" x="88" y="-7.8" font-family="Times,serif" font-size="14.00">class = Obstructive</text>
</g>
<!-- 3&#45;&gt;4 -->
<g id="edge4" class="edge">
<title>3&#45;&gt;4</title>
<path fill="none" stroke="black" d="M210.67,-118.87C194.63,-108.88 177.76,-98.38 161.85,-88.47"/>
<polygon fill="black" stroke="black" points="163.45,-85.35 153.11,-83.03 159.75,-91.29 163.45,-85.35"/>
</g>
<!-- 5 -->
<g id="node6" class="node">
<title>5</title>
<polygon fill="none" stroke="black" points="382,-83 194,-83 194,0 382,0 382,-83"/>
<text text-anchor="middle" x="288" y="-67.8" font-family="Times,serif" font-size="14.00">node #5</text>
<text text-anchor="middle" x="288" y="-52.8" font-family="Times,serif" font-size="14.00">gini = 0.313</text>
<text text-anchor="middle" x="288" y="-37.8" font-family="Times,serif" font-size="14.00">samples = 7</text>
<text text-anchor="middle" x="288" y="-22.8" font-family="Times,serif" font-size="14.00">value = [7.641, 1.845]</text>
<text text-anchor="middle" x="288" y="-7.8" font-family="Times,serif" font-size="14.00">class = Non&#45;obstructive</text>
</g>
<!-- 3&#45;&gt;5 -->
<g id="edge5" class="edge">
<title>3&#45;&gt;5</title>
<path fill="none" stroke="black" d="M288,-118.87C288,-110.5 288,-101.77 288,-93.33"/>
<polygon fill="black" stroke="black" points="291.5,-93.23 288,-83.23 284.5,-93.23 291.5,-93.23"/>
</g>
<!-- 7 -->
<g id="node8" class="node">
<title>7</title>
<polygon fill="none" stroke="black" points="558,-83 400,-83 400,0 558,0 558,-83"/>
<text text-anchor="middle" x="479" y="-67.8" font-family="Times,serif" font-size="14.00">node #7</text>
<text text-anchor="middle" x="479" y="-52.8" font-family="Times,serif" font-size="14.00">gini = 0.0</text>
<text text-anchor="middle" x="479" y="-37.8" font-family="Times,serif" font-size="14.00">samples = 1</text>
<text text-anchor="middle" x="479" y="-22.8" font-family="Times,serif" font-size="14.00">value = [0.0, 0.923]</text>
<text text-anchor="middle" x="479" y="-7.8" font-family="Times,serif" font-size="14.00">class = Obstructive</text>
</g>
<!-- 6&#45;&gt;7 -->
<g id="edge7" class="edge">
<title>6&#45;&gt;7</title>
<path fill="none" stroke="black" d="M545.86,-118.87C537.81,-109.67 529.38,-100.04 521.32,-90.84"/>
<polygon fill="black" stroke="black" points="523.88,-88.45 514.66,-83.23 518.61,-93.06 523.88,-88.45"/>
</g>
<!-- 8 -->
<g id="node9" class="node">
<title>8</title>
<polygon fill="none" stroke="black" points="764,-83 576,-83 576,0 764,0 764,-83"/>
<text text-anchor="middle" x="670" y="-67.8" font-family="Times,serif" font-size="14.00">node #8</text>
<text text-anchor="middle" x="670" y="-52.8" font-family="Times,serif" font-size="14.00">gini = &#45;0.0</text>
<text text-anchor="middle" x="670" y="-37.8" font-family="Times,serif" font-size="14.00">samples = 5</text>
<text text-anchor="middle" x="670" y="-22.8" font-family="Times,serif" font-size="14.00">value = [7.641, 0.0]</text>
<text text-anchor="middle" x="670" y="-7.8" font-family="Times,serif" font-size="14.00">class = Non&#45;obstructive</text>
</g>
<!-- 6&#45;&gt;8 -->
<g id="edge8" class="edge">
<title>6&#45;&gt;8</title>
<path fill="none" stroke="black" d="M619.7,-118.87C625.58,-109.95 631.72,-100.62 637.62,-91.67"/>
<polygon fill="black" stroke="black" points="640.6,-93.51 643.17,-83.23 634.75,-89.66 640.6,-93.51"/>
</g>
<!-- 10 -->
<g id="node11" class="node">
<title>10</title>
<polygon fill="none" stroke="black" points="963,-217 787,-217 787,-119 963,-119 963,-217"/>
<text text-anchor="middle" x="875" y="-201.8" font-family="Times,serif" font-size="14.00">node #10</text>
<text text-anchor="middle" x="875" y="-186.8" font-family="Times,serif" font-size="14.00">FEV1PreVal &lt;= 1.64</text>
<text text-anchor="middle" x="875" y="-171.8" font-family="Times,serif" font-size="14.00">gini = 0.065</text>
<text text-anchor="middle" x="875" y="-156.8" font-family="Times,serif" font-size="14.00">samples = 61</text>
<text text-anchor="middle" x="875" y="-141.8" font-family="Times,serif" font-size="14.00">value = [3.275, 94.11]</text>
<text text-anchor="middle" x="875" y="-126.8" font-family="Times,serif" font-size="14.00">class = Obstructive</text>
</g>
<!-- 9&#45;&gt;10 -->
<g id="edge10" class="edge">
<title>9&#45;&gt;10</title>
<path fill="none" stroke="black" d="M935.43,-252.97C929.02,-244.05 922.26,-234.66 915.68,-225.52"/>
<polygon fill="black" stroke="black" points="918.38,-223.29 909.7,-217.21 912.7,-227.37 918.38,-223.29"/>
</g>
<!-- 13 -->
<g id="node14" class="node">
<title>13</title>
<polygon fill="none" stroke="black" points="1169,-209.5 981,-209.5 981,-126.5 1169,-126.5 1169,-209.5"/>
<text text-anchor="middle" x="1075" y="-194.3" font-family="Times,serif" font-size="14.00">node #13</text>
<text text-anchor="middle" x="1075" y="-179.3" font-family="Times,serif" font-size="14.00">gini = 0.0</text>
<text text-anchor="middle" x="1075" y="-164.3" font-family="Times,serif" font-size="14.00">samples = 1</text>
<text text-anchor="middle" x="1075" y="-149.3" font-family="Times,serif" font-size="14.00">value = [1.092, 0.0]</text>
<text text-anchor="middle" x="1075" y="-134.3" font-family="Times,serif" font-size="14.00">class = Non&#45;obstructive</text>
</g>
<!-- 9&#45;&gt;13 -->
<g id="edge13" class="edge">
<title>9&#45;&gt;13</title>
<path fill="none" stroke="black" d="M1008.2,-252.97C1017.35,-241.47 1027.13,-229.18 1036.3,-217.66"/>
<polygon fill="black" stroke="black" points="1039.05,-219.82 1042.53,-209.82 1033.57,-215.46 1039.05,-219.82"/>
</g>
<!-- 11 -->
<g id="node12" class="node">
<title>11</title>
<polygon fill="none" stroke="black" points="967.5,-83 782.5,-83 782.5,0 967.5,0 967.5,-83"/>
<text text-anchor="middle" x="875" y="-67.8" font-family="Times,serif" font-size="14.00">node #11</text>
<text text-anchor="middle" x="875" y="-52.8" font-family="Times,serif" font-size="14.00">gini = 0.026</text>
<text text-anchor="middle" x="875" y="-37.8" font-family="Times,serif" font-size="14.00">samples = 54</text>
<text text-anchor="middle" x="875" y="-22.8" font-family="Times,serif" font-size="14.00">value = [1.092, 82.116]</text>
<text text-anchor="middle" x="875" y="-7.8" font-family="Times,serif" font-size="14.00">class = Obstructive</text>
</g>
<!-- 10&#45;&gt;11 -->
<g id="edge11" class="edge">
<title>10&#45;&gt;11</title>
<path fill="none" stroke="black" d="M875,-118.87C875,-110.5 875,-101.77 875,-93.33"/>
<polygon fill="black" stroke="black" points="878.5,-93.23 875,-83.23 871.5,-93.23 878.5,-93.23"/>
</g>
<!-- 12 -->
<g id="node13" class="node">
<title>12</title>
<polygon fill="none" stroke="black" points="1170.5,-83 985.5,-83 985.5,0 1170.5,0 1170.5,-83"/>
<text text-anchor="middle" x="1078" y="-67.8" font-family="Times,serif" font-size="14.00">node #12</text>
<text text-anchor="middle" x="1078" y="-52.8" font-family="Times,serif" font-size="14.00">gini = 0.261</text>
<text text-anchor="middle" x="1078" y="-37.8" font-family="Times,serif" font-size="14.00">samples = 7</text>
<text text-anchor="middle" x="1078" y="-22.8" font-family="Times,serif" font-size="14.00">value = [2.183, 11.994]</text>
<text text-anchor="middle" x="1078" y="-7.8" font-family="Times,serif" font-size="14.00">class = Obstructive</text>
</g>
<!-- 10&#45;&gt;12 -->
<g id="edge12" class="edge">
<title>10&#45;&gt;12</title>
<path fill="none" stroke="black" d="M953.49,-118.87C969.77,-108.88 986.89,-98.38 1003.05,-88.47"/>
<polygon fill="black" stroke="black" points="1005.22,-91.24 1011.91,-83.03 1001.56,-85.28 1005.22,-91.24"/>
</g>
<!-- 15 -->
<g id="node16" class="node">
<title>15</title>
<polygon fill="none" stroke="black" points="1570,-351 1364,-351 1364,-253 1570,-253 1570,-351"/>
<text text-anchor="middle" x="1467" y="-335.8" font-family="Times,serif" font-size="14.00">node #15</text>
<text text-anchor="middle" x="1467" y="-320.8" font-family="Times,serif" font-size="14.00">FEV1PostPercent &lt;= 87.5</text>
<text text-anchor="middle" x="1467" y="-305.8" font-family="Times,serif" font-size="14.00">gini = 0.062</text>
<text text-anchor="middle" x="1467" y="-290.8" font-family="Times,serif" font-size="14.00">samples = 46</text>
<text text-anchor="middle" x="1467" y="-275.8" font-family="Times,serif" font-size="14.00">value = [82.954, 2.768]</text>
<text text-anchor="middle" x="1467" y="-260.8" font-family="Times,serif" font-size="14.00">class = Non&#45;obstructive</text>
</g>
<!-- 14&#45;&gt;15 -->
<g id="edge15" class="edge">
<title>14&#45;&gt;15</title>
<path fill="none" stroke="black" d="M1467,-386.97C1467,-378.69 1467,-370 1467,-361.48"/>
<polygon fill="black" stroke="black" points="1470.5,-361.21 1467,-351.21 1463.5,-361.21 1470.5,-361.21"/>
</g>
<!-- 20 -->
<g id="node21" class="node">
<title>20</title>
<polygon fill="none" stroke="black" points="1870,-351 1676,-351 1676,-253 1870,-253 1870,-351"/>
<text text-anchor="middle" x="1773" y="-335.8" font-family="Times,serif" font-size="14.00">node #20</text>
<text text-anchor="middle" x="1773" y="-320.8" font-family="Times,serif" font-size="14.00">FVCPrePercent &lt;= 61.5</text>
<text text-anchor="middle" x="1773" y="-305.8" font-family="Times,serif" font-size="14.00">gini = 0.496</text>
<text text-anchor="middle" x="1773" y="-290.8" font-family="Times,serif" font-size="14.00">samples = 77</text>
<text text-anchor="middle" x="1773" y="-275.8" font-family="Times,serif" font-size="14.00">value = [63.307, 53.514]</text>
<text text-anchor="middle" x="1773" y="-260.8" font-family="Times,serif" font-size="14.00">class = Non&#45;obstructive</text>
</g>
<!-- 14&#45;&gt;20 -->
<g id="edge20" class="edge">
<title>14&#45;&gt;20</title>
<path fill="none" stroke="black" d="M1568.89,-391.05C1600.3,-377.5 1634.96,-362.55 1666.66,-348.87"/>
<polygon fill="black" stroke="black" points="1668.16,-352.04 1675.96,-344.86 1665.39,-345.61 1668.16,-352.04"/>
</g>
<!-- 16 -->
<g id="node17" class="node">
<title>16</title>
<polygon fill="none" stroke="black" points="1478.5,-217 1281.5,-217 1281.5,-119 1478.5,-119 1478.5,-217"/>
<text text-anchor="middle" x="1380" y="-201.8" font-family="Times,serif" font-size="14.00">node #16</text>
<text text-anchor="middle" x="1380" y="-186.8" font-family="Times,serif" font-size="14.00">FVCPostPercent &lt;= 73.5</text>
<text text-anchor="middle" x="1380" y="-171.8" font-family="Times,serif" font-size="14.00">gini = 0.043</text>
<text text-anchor="middle" x="1380" y="-156.8" font-family="Times,serif" font-size="14.00">samples = 45</text>
<text text-anchor="middle" x="1380" y="-141.8" font-family="Times,serif" font-size="14.00">value = [82.954, 1.845]</text>
<text text-anchor="middle" x="1380" y="-126.8" font-family="Times,serif" font-size="14.00">class = Non&#45;obstructive</text>
</g>
<!-- 15&#45;&gt;16 -->
<g id="edge16" class="edge">
<title>15&#45;&gt;16</title>
<path fill="none" stroke="black" d="M1435.34,-252.97C1429.53,-244.15 1423.4,-234.85 1417.44,-225.8"/>
<polygon fill="black" stroke="black" points="1420.2,-223.64 1411.78,-217.21 1414.36,-227.49 1420.2,-223.64"/>
</g>
<!-- 19 -->
<g id="node20" class="node">
<title>19</title>
<polygon fill="none" stroke="black" points="1655,-209.5 1497,-209.5 1497,-126.5 1655,-126.5 1655,-209.5"/>
<text text-anchor="middle" x="1576" y="-194.3" font-family="Times,serif" font-size="14.00">node #19</text>
<text text-anchor="middle" x="1576" y="-179.3" font-family="Times,serif" font-size="14.00">gini = 0.0</text>
<text text-anchor="middle" x="1576" y="-164.3" font-family="Times,serif" font-size="14.00">samples = 1</text>
<text text-anchor="middle" x="1576" y="-149.3" font-family="Times,serif" font-size="14.00">value = [0.0, 0.923]</text>
<text text-anchor="middle" x="1576" y="-134.3" font-family="Times,serif" font-size="14.00">class = Obstructive</text>
</g>
<!-- 15&#45;&gt;19 -->
<g id="edge19" class="edge">
<title>15&#45;&gt;19</title>
<path fill="none" stroke="black" d="M1506.66,-252.97C1516.16,-241.47 1526.3,-229.18 1535.82,-217.66"/>
<polygon fill="black" stroke="black" points="1538.63,-219.76 1542.3,-209.82 1533.23,-215.3 1538.63,-219.76"/>
</g>
<!-- 17 -->
<g id="node18" class="node">
<title>17</title>
<polygon fill="none" stroke="black" points="1377,-83 1189,-83 1189,0 1377,0 1377,-83"/>
<text text-anchor="middle" x="1283" y="-67.8" font-family="Times,serif" font-size="14.00">node #17</text>
<text text-anchor="middle" x="1283" y="-52.8" font-family="Times,serif" font-size="14.00">gini = 0.022</text>
<text text-anchor="middle" x="1283" y="-37.8" font-family="Times,serif" font-size="14.00">samples = 43</text>
<text text-anchor="middle" x="1283" y="-22.8" font-family="Times,serif" font-size="14.00">value = [80.771, 0.923]</text>
<text text-anchor="middle" x="1283" y="-7.8" font-family="Times,serif" font-size="14.00">class = Non&#45;obstructive</text>
</g>
<!-- 16&#45;&gt;17 -->
<g id="edge17" class="edge">
<title>16&#45;&gt;17</title>
<path fill="none" stroke="black" d="M1342.5,-118.87C1335.48,-109.85 1328.13,-100.43 1321.09,-91.39"/>
<polygon fill="black" stroke="black" points="1323.64,-88.97 1314.73,-83.23 1318.12,-93.27 1323.64,-88.97"/>
</g>
<!-- 18 -->
<g id="node19" class="node">
<title>18</title>
<polygon fill="none" stroke="black" points="1583,-83 1395,-83 1395,0 1583,0 1583,-83"/>
<text text-anchor="middle" x="1489" y="-67.8" font-family="Times,serif" font-size="14.00">node #18</text>
<text text-anchor="middle" x="1489" y="-52.8" font-family="Times,serif" font-size="14.00">gini = 0.418</text>
<text text-anchor="middle" x="1489" y="-37.8" font-family="Times,serif" font-size="14.00">samples = 2</text>
<text text-anchor="middle" x="1489" y="-22.8" font-family="Times,serif" font-size="14.00">value = [2.183, 0.923]</text>
<text text-anchor="middle" x="1489" y="-7.8" font-family="Times,serif" font-size="14.00">class = Non&#45;obstructive</text>
</g>
<!-- 16&#45;&gt;18 -->
<g id="edge18" class="edge">
<title>16&#45;&gt;18</title>
<path fill="none" stroke="black" d="M1422.14,-118.87C1430.19,-109.67 1438.62,-100.04 1446.68,-90.84"/>
<polygon fill="black" stroke="black" points="1449.39,-93.06 1453.34,-83.23 1444.12,-88.45 1449.39,-93.06"/>
</g>
<!-- 21 -->
<g id="node22" class="node">
<title>21</title>
<polygon fill="none" stroke="black" points="1871.5,-217 1674.5,-217 1674.5,-119 1871.5,-119 1871.5,-217"/>
<text text-anchor="middle" x="1773" y="-201.8" font-family="Times,serif" font-size="14.00">node #21</text>
<text text-anchor="middle" x="1773" y="-186.8" font-family="Times,serif" font-size="14.00">FEFPostPercent &lt;= 43.5</text>
<text text-anchor="middle" x="1773" y="-171.8" font-family="Times,serif" font-size="14.00">gini = 0.123</text>
<text text-anchor="middle" x="1773" y="-156.8" font-family="Times,serif" font-size="14.00">samples = 9</text>
<text text-anchor="middle" x="1773" y="-141.8" font-family="Times,serif" font-size="14.00">value = [13.098, 0.923]</text>
<text text-anchor="middle" x="1773" y="-126.8" font-family="Times,serif" font-size="14.00">class = Non&#45;obstructive</text>
</g>
<!-- 20&#45;&gt;21 -->
<g id="edge21" class="edge">
<title>20&#45;&gt;21</title>
<path fill="none" stroke="black" d="M1773,-252.97C1773,-244.69 1773,-236 1773,-227.48"/>
<polygon fill="black" stroke="black" points="1776.5,-227.21 1773,-217.21 1769.5,-227.21 1776.5,-227.21"/>
</g>
<!-- 24 -->
<g id="node25" class="node">
<title>24</title>
<polygon fill="none" stroke="black" points="2177,-217 1983,-217 1983,-119 2177,-119 2177,-217"/>
<text text-anchor="middle" x="2080" y="-201.8" font-family="Times,serif" font-size="14.00">node #24</text>
<text text-anchor="middle" x="2080" y="-186.8" font-family="Times,serif" font-size="14.00">FVCPostVal &lt;= 3.335</text>
<text text-anchor="middle" x="2080" y="-171.8" font-family="Times,serif" font-size="14.00">gini = 0.5</text>
<text text-anchor="middle" x="2080" y="-156.8" font-family="Times,serif" font-size="14.00">samples = 68</text>
<text text-anchor="middle" x="2080" y="-141.8" font-family="Times,serif" font-size="14.00">value = [50.209, 52.591]</text>
<text text-anchor="middle" x="2080" y="-126.8" font-family="Times,serif" font-size="14.00">class = Obstructive</text>
</g>
<!-- 20&#45;&gt;24 -->
<g id="edge24" class="edge">
<title>20&#45;&gt;24</title>
<path fill="none" stroke="black" d="M1870.14,-259.23C1903.05,-245.08 1939.99,-229.2 1973.59,-214.75"/>
<polygon fill="black" stroke="black" points="1975.16,-217.89 1982.97,-210.72 1972.4,-211.46 1975.16,-217.89"/>
</g>
<!-- 22 -->
<g id="node23" class="node">
<title>22</title>
<polygon fill="none" stroke="black" points="1759,-83 1601,-83 1601,0 1759,0 1759,-83"/>
<text text-anchor="middle" x="1680" y="-67.8" font-family="Times,serif" font-size="14.00">node #22</text>
<text text-anchor="middle" x="1680" y="-52.8" font-family="Times,serif" font-size="14.00">gini = 0.0</text>
<text text-anchor="middle" x="1680" y="-37.8" font-family="Times,serif" font-size="14.00">samples = 1</text>
<text text-anchor="middle" x="1680" y="-22.8" font-family="Times,serif" font-size="14.00">value = [0.0, 0.923]</text>
<text text-anchor="middle" x="1680" y="-7.8" font-family="Times,serif" font-size="14.00">class = Obstructive</text>
</g>
<!-- 21&#45;&gt;22 -->
<g id="edge22" class="edge">
<title>21&#45;&gt;22</title>
<path fill="none" stroke="black" d="M1737.04,-118.87C1730.31,-109.85 1723.27,-100.43 1716.52,-91.39"/>
<polygon fill="black" stroke="black" points="1719.21,-89.15 1710.43,-83.23 1713.61,-93.34 1719.21,-89.15"/>
</g>
<!-- 23 -->
<g id="node24" class="node">
<title>23</title>
<polygon fill="none" stroke="black" points="1965,-83 1777,-83 1777,0 1965,0 1965,-83"/>
<text text-anchor="middle" x="1871" y="-67.8" font-family="Times,serif" font-size="14.00">node #23</text>
<text text-anchor="middle" x="1871" y="-52.8" font-family="Times,serif" font-size="14.00">gini = &#45;0.0</text>
<text text-anchor="middle" x="1871" y="-37.8" font-family="Times,serif" font-size="14.00">samples = 8</text>
<text text-anchor="middle" x="1871" y="-22.8" font-family="Times,serif" font-size="14.00">value = [13.098, 0.0]</text>
<text text-anchor="middle" x="1871" y="-7.8" font-family="Times,serif" font-size="14.00">class = Non&#45;obstructive</text>
</g>
<!-- 21&#45;&gt;23 -->
<g id="edge23" class="edge">
<title>21&#45;&gt;23</title>
<path fill="none" stroke="black" d="M1810.89,-118.87C1818.05,-109.76 1825.55,-100.23 1832.73,-91.12"/>
<polygon fill="black" stroke="black" points="1835.5,-93.25 1838.94,-83.23 1830,-88.92 1835.5,-93.25"/>
</g>
<!-- 25 -->
<g id="node26" class="node">
<title>25</title>
<polygon fill="none" stroke="black" points="2177,-83 1983,-83 1983,0 2177,0 2177,-83"/>
<text text-anchor="middle" x="2080" y="-67.8" font-family="Times,serif" font-size="14.00">node #25</text>
<text text-anchor="middle" x="2080" y="-52.8" font-family="Times,serif" font-size="14.00">gini = 0.493</text>
<text text-anchor="middle" x="2080" y="-37.8" font-family="Times,serif" font-size="14.00">samples = 54</text>
<text text-anchor="middle" x="2080" y="-22.8" font-family="Times,serif" font-size="14.00">value = [46.935, 36.906]</text>
<text text-anchor="middle" x="2080" y="-7.8" font-family="Times,serif" font-size="14.00">class = Non&#45;obstructive</text>
</g>
<!-- 24&#45;&gt;25 -->
<g id="edge25" class="edge">
<title>24&#45;&gt;25</title>
<path fill="none" stroke="black" d="M2080,-118.87C2080,-110.5 2080,-101.77 2080,-93.33"/>
<polygon fill="black" stroke="black" points="2083.5,-93.23 2080,-83.23 2076.5,-93.23 2083.5,-93.23"/>
</g>
<!-- 26 -->
<g id="node27" class="node">
<title>26</title>
<polygon fill="none" stroke="black" points="2379.5,-83 2194.5,-83 2194.5,0 2379.5,0 2379.5,-83"/>
<text text-anchor="middle" x="2287" y="-67.8" font-family="Times,serif" font-size="14.00">node #26</text>
<text text-anchor="middle" x="2287" y="-52.8" font-family="Times,serif" font-size="14.00">gini = 0.286</text>
<text text-anchor="middle" x="2287" y="-37.8" font-family="Times,serif" font-size="14.00">samples = 14</text>
<text text-anchor="middle" x="2287" y="-22.8" font-family="Times,serif" font-size="14.00">value = [3.275, 15.685]</text>
<text text-anchor="middle" x="2287" y="-7.8" font-family="Times,serif" font-size="14.00">class = Obstructive</text>
</g>
<!-- 24&#45;&gt;26 -->
<g id="edge26" class="edge">
<title>24&#45;&gt;26</title>
<path fill="none" stroke="black" d="M2160.03,-118.87C2176.79,-108.78 2194.42,-98.18 2211.03,-88.19"/>
<polygon fill="black" stroke="black" points="2212.84,-91.19 2219.61,-83.03 2209.24,-85.19 2212.84,-91.19"/>
</g>
</g>
</svg>
