<?xml version="1.0" encoding="UTF-8" standalone="no"?>
<!DOCTYPE svg PUBLIC "-//W3C//DTD SVG 1.1//EN"
 "http://www.w3.org/Graphics/SVG/1.1/DTD/svg11.dtd">
<!-- Generated by graphviz version 2.43.0 (0)
 -->
<!-- Title: Tree Pages: 1 -->
<svg width="2356pt" height="627pt"
 viewBox="0.00 0.00 2356.00 627.00" xmlns="http://www.w3.org/2000/svg" xmlns:xlink="http://www.w3.org/1999/xlink">
<g id="graph0" class="graph" transform="scale(1 1) rotate(0) translate(4 623)">
<title>Tree</title>
<polygon fill="white" stroke="transparent" points="-4,4 -4,-623 2352,-623 2352,4 -4,4"/>
<!-- 0 -->
<g id="node1" class="node">
<title>0</title>
<polygon fill="none" stroke="black" points="1047.5,-619 856.5,-619 856.5,-521 1047.5,-521 1047.5,-619"/>
<text text-anchor="middle" x="952" y="-603.8" font-family="Times,serif" font-size="14.00">node #0</text>
<text text-anchor="middle" x="952" y="-588.8" font-family="Times,serif" font-size="14.00">FEFPrePercent &lt;= 41.5</text>
<text text-anchor="middle" x="952" y="-573.8" font-family="Times,serif" font-size="14.00">gini = 0.5</text>
<text text-anchor="middle" x="952" y="-558.8" font-family="Times,serif" font-size="14.00">samples = 215</text>
<text text-anchor="middle" x="952" y="-543.8" font-family="Times,serif" font-size="14.00">value = [167.0, 167.0]</text>
<text text-anchor="middle" x="952" y="-528.8" font-family="Times,serif" font-size="14.00">class = Obstructive</text>
</g>
<!-- 1 -->
<g id="node2" class="node">
<title>1</title>
<polygon fill="none" stroke="black" points="848.5,-485 645.5,-485 645.5,-387 848.5,-387 848.5,-485"/>
<text text-anchor="middle" x="747" y="-469.8" font-family="Times,serif" font-size="14.00">node #1</text>
<text text-anchor="middle" x="747" y="-454.8" font-family="Times,serif" font-size="14.00">FEFPreVal &lt;= 0.91</text>
<text text-anchor="middle" x="747" y="-439.8" font-family="Times,serif" font-size="14.00">gini = 0.202</text>
<text text-anchor="middle" x="747" y="-424.8" font-family="Times,serif" font-size="14.00">samples = 84</text>
<text text-anchor="middle" x="747" y="-409.8" font-family="Times,serif" font-size="14.00">value = [15.356, 118.988]</text>
<text text-anchor="middle" x="747" y="-394.8" font-family="Times,serif" font-size="14.00">class = Obstructive</text>
</g>
<!-- 0&#45;&gt;1 -->
<g id="edge1" class="edge">
<title>0&#45;&gt;1</title>
<path fill="none" stroke="black" d="M877.41,-520.97C862.15,-511.14 845.99,-500.74 830.44,-490.73"/>
<polygon fill="black" stroke="black" points="832.18,-487.68 821.88,-485.21 828.39,-493.57 832.18,-487.68"/>
<text text-anchor="middle" x="827.17" y="-505.95" font-family="Times,serif" font-size="14.00">True</text>
</g>
<!-- 14 -->
<g id="node15" class="node">
<title>14</title>
<polygon fill="none" stroke="black" points="1359.5,-485 1156.5,-485 1156.5,-387 1359.5,-387 1359.5,-485"/>
<text text-anchor="middle" x="1258" y="-469.8" font-family="Times,serif" font-size="14.00">node #14</text>
<text text-anchor="middle" x="1258" y="-454.8" font-family="Times,serif" font-size="14.00">FEV1PostVal &lt;= 1.875</text>
<text text-anchor="middle" x="1258" y="-439.8" font-family="Times,serif" font-size="14.00">gini = 0.365</text>
<text text-anchor="middle" x="1258" y="-424.8" font-family="Times,serif" font-size="14.00">samples = 131</text>
<text text-anchor="middle" x="1258" y="-409.8" font-family="Times,serif" font-size="14.00">value = [151.644, 48.012]</text>
<text text-anchor="middle" x="1258" y="-394.8" font-family="Times,serif" font-size="14.00">class = Non&#45;obstructive</text>
</g>
<!-- 0&#45;&gt;14 -->
<g id="edge14" class="edge">
<title>0&#45;&gt;14</title>
<path fill="none" stroke="black" d="M1047.56,-527.78C1079,-514.21 1114.23,-499.02 1146.74,-485"/>
<polygon fill="black" stroke="black" points="1148.48,-488.05 1156.28,-480.88 1145.71,-481.63 1148.48,-488.05"/>
<text text-anchor="middle" x="1147.05" y="-500.41" font-family="Times,serif" font-size="14.00">False</text>
</g>
<!-- 2 -->
<g id="node3" class="node">
<title>2</title>
<polygon fill="none" stroke="black" points="385,-351 179,-351 179,-253 385,-253 385,-351"/>
<text text-anchor="middle" x="282" y="-335.8" font-family="Times,serif" font-size="14.00">node #2</text>
<text text-anchor="middle" x="282" y="-320.8" font-family="Times,serif" font-size="14.00">FEV1PostPercent &lt;= 48.0</text>
<text text-anchor="middle" x="282" y="-305.8" font-family="Times,serif" font-size="14.00">gini = 0.077</text>
<text text-anchor="middle" x="282" y="-290.8" font-family="Times,serif" font-size="14.00">samples = 58</text>
<text text-anchor="middle" x="282" y="-275.8" font-family="Times,serif" font-size="14.00">value = [3.839, 91.85]</text>
<text text-anchor="middle" x="282" y="-260.8" font-family="Times,serif" font-size="14.00">class = Obstructive</text>
</g>
<!-- 1&#45;&gt;2 -->
<g id="edge2" class="edge">
<title>1&#45;&gt;2</title>
<path fill="none" stroke="black" d="M645.24,-406.11C571.29,-385.12 471.2,-356.71 394.81,-335.02"/>
<polygon fill="black" stroke="black" points="395.71,-331.64 385.14,-332.28 393.8,-338.38 395.71,-331.64"/>
</g>
<!-- 7 -->
<g id="node8" class="node">
<title>7</title>
<polygon fill="none" stroke="black" points="844,-351 650,-351 650,-253 844,-253 844,-351"/>
<text text-anchor="middle" x="747" y="-335.8" font-family="Times,serif" font-size="14.00">node #7</text>
<text text-anchor="middle" x="747" y="-320.8" font-family="Times,serif" font-size="14.00">FEV1PostVal &lt;= 1.67</text>
<text text-anchor="middle" x="747" y="-305.8" font-family="Times,serif" font-size="14.00">gini = 0.418</text>
<text text-anchor="middle" x="747" y="-290.8" font-family="Times,serif" font-size="14.00">samples = 26</text>
<text text-anchor="middle" x="747" y="-275.8" font-family="Times,serif" font-size="14.00">value = [11.517, 27.137]</text>
<text text-anchor="middle" x="747" y="-260.8" font-family="Times,serif" font-size="14.00">class = Obstructive</text>
</g>
<!-- 1&#45;&gt;7 -->
<g id="edge7" class="edge">
<title>1&#45;&gt;7</title>
<path fill="none" stroke="black" d="M747,-386.97C747,-378.69 747,-370 747,-361.48"/>
<polygon fill="black" stroke="black" points="750.5,-361.21 747,-351.21 743.5,-361.21 750.5,-361.21"/>
</g>
<!-- 3 -->
<g id="node4" class="node">
<title>3</title>
<polygon fill="none" stroke="black" points="165.5,-209.5 8.5,-209.5 8.5,-126.5 165.5,-126.5 165.5,-209.5"/>
<text text-anchor="middle" x="87" y="-194.3" font-family="Times,serif" font-size="14.00">node #3</text>
<text text-anchor="middle" x="87" y="-179.3" font-family="Times,serif" font-size="14.00">gini = 0.0</text>
<text text-anchor="middle" x="87" y="-164.3" font-family="Times,serif" font-size="14.00">samples = 36</text>
<text text-anchor="middle" x="87" y="-149.3" font-family="Times,serif" font-size="14.00">value = [0.0, 66.8]</text>
<text text-anchor="middle" x="87" y="-134.3" font-family="Times,serif" font-size="14.00">class = Obstructive</text>
</g>
<!-- 2&#45;&gt;3 -->
<g id="edge3" class="edge">
<title>2&#45;&gt;3</title>
<path fill="none" stroke="black" d="M211.05,-252.97C192.99,-240.75 173.61,-227.63 155.66,-215.48"/>
<polygon fill="black" stroke="black" points="157.23,-212.31 146.98,-209.6 153.3,-218.11 157.23,-212.31"/>
</g>
<!-- 4 -->
<g id="node5" class="node">
<title>4</title>
<polygon fill="none" stroke="black" points="380.5,-217 183.5,-217 183.5,-119 380.5,-119 380.5,-217"/>
<text text-anchor="middle" x="282" y="-201.8" font-family="Times,serif" font-size="14.00">node #4</text>
<text text-anchor="middle" x="282" y="-186.8" font-family="Times,serif" font-size="14.00">FEFPostPercent &lt;= 29.5</text>
<text text-anchor="middle" x="282" y="-171.8" font-family="Times,serif" font-size="14.00">gini = 0.23</text>
<text text-anchor="middle" x="282" y="-156.8" font-family="Times,serif" font-size="14.00">samples = 22</text>
<text text-anchor="middle" x="282" y="-141.8" font-family="Times,serif" font-size="14.00">value = [3.839, 25.05]</text>
<text text-anchor="middle" x="282" y="-126.8" font-family="Times,serif" font-size="14.00">class = Obstructive</text>
</g>
<!-- 2&#45;&gt;4 -->
<g id="edge4" class="edge">
<title>2&#45;&gt;4</title>
<path fill="none" stroke="black" d="M282,-252.97C282,-244.69 282,-236 282,-227.48"/>
<polygon fill="black" stroke="black" points="285.5,-227.21 282,-217.21 278.5,-227.21 285.5,-227.21"/>
</g>
<!-- 5 -->
<g id="node6" class="node">
<title>5</title>
<polygon fill="none" stroke="black" points="176,-83 0,-83 0,0 176,0 176,-83"/>
<text text-anchor="middle" x="88" y="-67.8" font-family="Times,serif" font-size="14.00">node #5</text>
<text text-anchor="middle" x="88" y="-52.8" font-family="Times,serif" font-size="14.00">gini = 0.458</text>
<text text-anchor="middle" x="88" y="-37.8" font-family="Times,serif" font-size="14.00">samples = 7</text>
<text text-anchor="middle" x="88" y="-22.8" font-family="Times,serif" font-size="14.00">value = [2.879, 5.219]</text>
<text text-anchor="middle" x="88" y="-7.8" font-family="Times,serif" font-size="14.00">class = Obstructive</text>
</g>
<!-- 4&#45;&gt;5 -->
<g id="edge5" class="edge">
<title>4&#45;&gt;5</title>
<path fill="none" stroke="black" d="M206.99,-118.87C191.43,-108.88 175.07,-98.38 159.63,-88.47"/>
<polygon fill="black" stroke="black" points="161.47,-85.49 151.16,-83.03 157.68,-91.38 161.47,-85.49"/>
</g>
<!-- 6 -->
<g id="node7" class="node">
<title>6</title>
<polygon fill="none" stroke="black" points="370,-83 194,-83 194,0 370,0 370,-83"/>
<text text-anchor="middle" x="282" y="-67.8" font-family="Times,serif" font-size="14.00">node #6</text>
<text text-anchor="middle" x="282" y="-52.8" font-family="Times,serif" font-size="14.00">gini = 0.088</text>
<text text-anchor="middle" x="282" y="-37.8" font-family="Times,serif" font-size="14.00">samples = 15</text>
<text text-anchor="middle" x="282" y="-22.8" font-family="Times,serif" font-size="14.00">value = [0.96, 19.831]</text>
<text text-anchor="middle" x="282" y="-7.8" font-family="Times,serif" font-size="14.00">class = Obstructive</text>
</g>
<!-- 4&#45;&gt;6 -->
<g id="edge6" class="edge">
<title>4&#45;&gt;6</title>
<path fill="none" stroke="black" d="M282,-118.87C282,-110.5 282,-101.77 282,-93.33"/>
<polygon fill="black" stroke="black" points="285.5,-93.23 282,-83.23 278.5,-93.23 285.5,-93.23"/>
</g>
<!-- 8 -->
<g id="node9" class="node">
<title>8</title>
<polygon fill="none" stroke="black" points="748.5,-217 557.5,-217 557.5,-119 748.5,-119 748.5,-217"/>
<text text-anchor="middle" x="653" y="-201.8" font-family="Times,serif" font-size="14.00">node #8</text>
<text text-anchor="middle" x="653" y="-186.8" font-family="Times,serif" font-size="14.00">FVCPrePercent &lt;= 64.5</text>
<text text-anchor="middle" x="653" y="-171.8" font-family="Times,serif" font-size="14.00">gini = 0.353</text>
<text text-anchor="middle" x="653" y="-156.8" font-family="Times,serif" font-size="14.00">samples = 9</text>
<text text-anchor="middle" x="653" y="-141.8" font-family="Times,serif" font-size="14.00">value = [10.557, 3.131]</text>
<text text-anchor="middle" x="653" y="-126.8" font-family="Times,serif" font-size="14.00">class = Non&#45;obstructive</text>
</g>
<!-- 7&#45;&gt;8 -->
<g id="edge8" class="edge">
<title>7&#45;&gt;8</title>
<path fill="none" stroke="black" d="M712.8,-252.97C706.45,-244.05 699.76,-234.66 693.25,-225.52"/>
<polygon fill="black" stroke="black" points="695.99,-223.33 687.33,-217.21 690.28,-227.39 695.99,-223.33"/>
</g>
<!-- 11 -->
<g id="node12" class="node">
<title>11</title>
<polygon fill="none" stroke="black" points="963.5,-217 766.5,-217 766.5,-119 963.5,-119 963.5,-217"/>
<text text-anchor="middle" x="865" y="-201.8" font-family="Times,serif" font-size="14.00">node #11</text>
<text text-anchor="middle" x="865" y="-186.8" font-family="Times,serif" font-size="14.00">FVCPostPercent &lt;= 63.5</text>
<text text-anchor="middle" x="865" y="-171.8" font-family="Times,serif" font-size="14.00">gini = 0.074</text>
<text text-anchor="middle" x="865" y="-156.8" font-family="Times,serif" font-size="14.00">samples = 17</text>
<text text-anchor="middle" x="865" y="-141.8" font-family="Times,serif" font-size="14.00">value = [0.96, 24.006]</text>
<text text-anchor="middle" x="865" y="-126.8" font-family="Times,serif" font-size="14.00">class = Obstructive</text>
</g>
<!-- 7&#45;&gt;11 -->
<g id="edge11" class="edge">
<title>7&#45;&gt;11</title>
<path fill="none" stroke="black" d="M789.93,-252.97C798.15,-243.78 806.82,-234.09 815.22,-224.68"/>
<polygon fill="black" stroke="black" points="817.84,-227 821.9,-217.21 812.63,-222.34 817.84,-227"/>
</g>
<!-- 9 -->
<g id="node10" class="node">
<title>9</title>
<polygon fill="none" stroke="black" points="576,-83 388,-83 388,0 576,0 576,-83"/>
<text text-anchor="middle" x="482" y="-67.8" font-family="Times,serif" font-size="14.00">node #9</text>
<text text-anchor="middle" x="482" y="-52.8" font-family="Times,serif" font-size="14.00">gini = 0.164</text>
<text text-anchor="middle" x="482" y="-37.8" font-family="Times,serif" font-size="14.00">samples = 7</text>
<text text-anchor="middle" x="482" y="-22.8" font-family="Times,serif" font-size="14.00">value = [10.557, 1.044]</text>
<text text-anchor="middle" x="482" y="-7.8" font-family="Times,serif" font-size="14.00">class = Non&#45;obstructive</text>
</g>
<!-- 8&#45;&gt;9 -->
<g id="edge9" class="edge">
<title>8&#45;&gt;9</title>
<path fill="none" stroke="black" d="M586.89,-118.87C573.42,-109.06 559.28,-98.77 545.9,-89.02"/>
<polygon fill="black" stroke="black" points="547.82,-86.09 537.67,-83.03 543.7,-91.75 547.82,-86.09"/>
</g>
<!-- 10 -->
<g id="node11" class="node">
<title>10</title>
<polygon fill="none" stroke="black" points="752,-83 594,-83 594,0 752,0 752,-83"/>
<text text-anchor="middle" x="673" y="-67.8" font-family="Times,serif" font-size="14.00">node #10</text>
<text text-anchor="middle" x="673" y="-52.8" font-family="Times,serif" font-size="14.00">gini = &#45;0.0</text>
<text text-anchor="middle" x="673" y="-37.8" font-family="Times,serif" font-size="14.00">samples = 2</text>
<text text-anchor="middle" x="673" y="-22.8" font-family="Times,serif" font-size="14.00">value = [0.0, 2.088]</text>
<text text-anchor="middle" x="673" y="-7.8" font-family="Times,serif" font-size="14.00">class = Obstructive</text>
</g>
<!-- 8&#45;&gt;10 -->
<g id="edge10" class="edge">
<title>8&#45;&gt;10</title>
<path fill="none" stroke="black" d="M660.73,-118.87C662.08,-110.5 663.48,-101.77 664.83,-93.33"/>
<polygon fill="black" stroke="black" points="668.33,-93.66 666.46,-83.23 661.42,-92.55 668.33,-93.66"/>
</g>
<!-- 12 -->
<g id="node13" class="node">
<title>12</title>
<polygon fill="none" stroke="black" points="958,-83 770,-83 770,0 958,0 958,-83"/>
<text text-anchor="middle" x="864" y="-67.8" font-family="Times,serif" font-size="14.00">node #12</text>
<text text-anchor="middle" x="864" y="-52.8" font-family="Times,serif" font-size="14.00">gini = 0.0</text>
<text text-anchor="middle" x="864" y="-37.8" font-family="Times,serif" font-size="14.00">samples = 1</text>
<text text-anchor="middle" x="864" y="-22.8" font-family="Times,serif" font-size="14.00">value = [0.96, 0.0]</text>
<text text-anchor="middle" x="864" y="-7.8" font-family="Times,serif" font-size="14.00">class = Non&#45;obstructive</text>
</g>
<!-- 11&#45;&gt;12 -->
<g id="edge12" class="edge">
<title>11&#45;&gt;12</title>
<path fill="none" stroke="black" d="M864.61,-118.87C864.55,-110.5 864.48,-101.77 864.41,-93.33"/>
<polygon fill="black" stroke="black" points="867.91,-93.2 864.33,-83.23 860.91,-93.26 867.91,-93.2"/>
</g>
<!-- 13 -->
<g id="node14" class="node">
<title>13</title>
<polygon fill="none" stroke="black" points="1143.5,-83 976.5,-83 976.5,0 1143.5,0 1143.5,-83"/>
<text text-anchor="middle" x="1060" y="-67.8" font-family="Times,serif" font-size="14.00">node #13</text>
<text text-anchor="middle" x="1060" y="-52.8" font-family="Times,serif" font-size="14.00">gini = 0.0</text>
<text text-anchor="middle" x="1060" y="-37.8" font-family="Times,serif" font-size="14.00">samples = 16</text>
<text text-anchor="middle" x="1060" y="-22.8" font-family="Times,serif" font-size="14.00">value = [0.0, 24.006]</text>
<text text-anchor="middle" x="1060" y="-7.8" font-family="Times,serif" font-size="14.00">class = Obstructive</text>
</g>
<!-- 11&#45;&gt;13 -->
<g id="edge13" class="edge">
<title>11&#45;&gt;13</title>
<path fill="none" stroke="black" d="M940.39,-118.87C956.04,-108.88 972.48,-98.38 988,-88.47"/>
<polygon fill="black" stroke="black" points="989.97,-91.36 996.52,-83.03 986.2,-85.46 989.97,-91.36"/>
</g>
<!-- 15 -->
<g id="node16" class="node">
<title>15</title>
<polygon fill="none" stroke="black" points="1352,-351 1164,-351 1164,-253 1352,-253 1352,-351"/>
<text text-anchor="middle" x="1258" y="-335.8" font-family="Times,serif" font-size="14.00">node #15</text>
<text text-anchor="middle" x="1258" y="-320.8" font-family="Times,serif" font-size="14.00">FEFPostVal &lt;= 1.09</text>
<text text-anchor="middle" x="1258" y="-305.8" font-family="Times,serif" font-size="14.00">gini = 0.137</text>
<text text-anchor="middle" x="1258" y="-290.8" font-family="Times,serif" font-size="14.00">samples = 76</text>
<text text-anchor="middle" x="1258" y="-275.8" font-family="Times,serif" font-size="14.00">value = [104.615, 8.35]</text>
<text text-anchor="middle" x="1258" y="-260.8" font-family="Times,serif" font-size="14.00">class = Non&#45;obstructive</text>
</g>
<!-- 14&#45;&gt;15 -->
<g id="edge15" class="edge">
<title>14&#45;&gt;15</title>
<path fill="none" stroke="black" d="M1258,-386.97C1258,-378.69 1258,-370 1258,-361.48"/>
<polygon fill="black" stroke="black" points="1261.5,-361.21 1258,-351.21 1254.5,-361.21 1261.5,-361.21"/>
</g>
<!-- 20 -->
<g id="node21" class="node">
<title>20</title>
<polygon fill="none" stroke="black" points="1863,-351 1669,-351 1669,-253 1863,-253 1863,-351"/>
<text text-anchor="middle" x="1766" y="-335.8" font-family="Times,serif" font-size="14.00">node #20</text>
<text text-anchor="middle" x="1766" y="-320.8" font-family="Times,serif" font-size="14.00">FEFPreVal &lt;= 2.86</text>
<text text-anchor="middle" x="1766" y="-305.8" font-family="Times,serif" font-size="14.00">gini = 0.496</text>
<text text-anchor="middle" x="1766" y="-290.8" font-family="Times,serif" font-size="14.00">samples = 55</text>
<text text-anchor="middle" x="1766" y="-275.8" font-family="Times,serif" font-size="14.00">value = [47.029, 39.662]</text>
<text text-anchor="middle" x="1766" y="-260.8" font-family="Times,serif" font-size="14.00">class = Non&#45;obstructive</text>
</g>
<!-- 14&#45;&gt;20 -->
<g id="edge20" class="edge">
<title>14&#45;&gt;20</title>
<path fill="none" stroke="black" d="M1359.58,-408.61C1446.38,-386.05 1570.85,-353.71 1659.13,-330.77"/>
<polygon fill="black" stroke="black" points="1660.11,-334.13 1668.9,-328.23 1658.35,-327.36 1660.11,-334.13"/>
</g>
<!-- 16 -->
<g id="node17" class="node">
<title>16</title>
<polygon fill="none" stroke="black" points="1240,-209.5 1082,-209.5 1082,-126.5 1240,-126.5 1240,-209.5"/>
<text text-anchor="middle" x="1161" y="-194.3" font-family="Times,serif" font-size="14.00">node #16</text>
<text text-anchor="middle" x="1161" y="-179.3" font-family="Times,serif" font-size="14.00">gini = 0.0</text>
<text text-anchor="middle" x="1161" y="-164.3" font-family="Times,serif" font-size="14.00">samples = 2</text>
<text text-anchor="middle" x="1161" y="-149.3" font-family="Times,serif" font-size="14.00">value = [0.0, 3.131]</text>
<text text-anchor="middle" x="1161" y="-134.3" font-family="Times,serif" font-size="14.00">class = Obstructive</text>
</g>
<!-- 15&#45;&gt;16 -->
<g id="edge16" class="edge">
<title>15&#45;&gt;16</title>
<path fill="none" stroke="black" d="M1222.71,-252.97C1214.34,-241.58 1205.4,-229.42 1197,-217.99"/>
<polygon fill="black" stroke="black" points="1199.74,-215.8 1190.99,-209.82 1194.1,-219.95 1199.74,-215.8"/>
</g>
<!-- 17 -->
<g id="node18" class="node">
<title>17</title>
<polygon fill="none" stroke="black" points="1452,-217 1258,-217 1258,-119 1452,-119 1452,-217"/>
<text text-anchor="middle" x="1355" y="-201.8" font-family="Times,serif" font-size="14.00">node #17</text>
<text text-anchor="middle" x="1355" y="-186.8" font-family="Times,serif" font-size="14.00">FVCPreVal &lt;= 1.955</text>
<text text-anchor="middle" x="1355" y="-171.8" font-family="Times,serif" font-size="14.00">gini = 0.091</text>
<text text-anchor="middle" x="1355" y="-156.8" font-family="Times,serif" font-size="14.00">samples = 74</text>
<text text-anchor="middle" x="1355" y="-141.8" font-family="Times,serif" font-size="14.00">value = [104.615, 5.219]</text>
<text text-anchor="middle" x="1355" y="-126.8" font-family="Times,serif" font-size="14.00">class = Non&#45;obstructive</text>
</g>
<!-- 15&#45;&gt;17 -->
<g id="edge17" class="edge">
<title>15&#45;&gt;17</title>
<path fill="none" stroke="black" d="M1293.29,-252.97C1299.85,-244.05 1306.75,-234.66 1313.47,-225.52"/>
<polygon fill="black" stroke="black" points="1316.47,-227.34 1319.57,-217.21 1310.83,-223.2 1316.47,-227.34"/>
</g>
<!-- 18 -->
<g id="node19" class="node">
<title>18</title>
<polygon fill="none" stroke="black" points="1350,-83 1162,-83 1162,0 1350,0 1350,-83"/>
<text text-anchor="middle" x="1256" y="-67.8" font-family="Times,serif" font-size="14.00">node #18</text>
<text text-anchor="middle" x="1256" y="-52.8" font-family="Times,serif" font-size="14.00">gini = 0.044</text>
<text text-anchor="middle" x="1256" y="-37.8" font-family="Times,serif" font-size="14.00">samples = 61</text>
<text text-anchor="middle" x="1256" y="-22.8" font-family="Times,serif" font-size="14.00">value = [90.218, 2.088]</text>
<text text-anchor="middle" x="1256" y="-7.8" font-family="Times,serif" font-size="14.00">class = Non&#45;obstructive</text>
</g>
<!-- 17&#45;&gt;18 -->
<g id="edge18" class="edge">
<title>17&#45;&gt;18</title>
<path fill="none" stroke="black" d="M1316.72,-118.87C1309.49,-109.76 1301.91,-100.23 1294.66,-91.12"/>
<polygon fill="black" stroke="black" points="1297.35,-88.88 1288.39,-83.23 1291.87,-93.24 1297.35,-88.88"/>
</g>
<!-- 19 -->
<g id="node20" class="node">
<title>19</title>
<polygon fill="none" stroke="black" points="1556,-83 1368,-83 1368,0 1556,0 1556,-83"/>
<text text-anchor="middle" x="1462" y="-67.8" font-family="Times,serif" font-size="14.00">node #19</text>
<text text-anchor="middle" x="1462" y="-52.8" font-family="Times,serif" font-size="14.00">gini = 0.293</text>
<text text-anchor="middle" x="1462" y="-37.8" font-family="Times,serif" font-size="14.00">samples = 13</text>
<text text-anchor="middle" x="1462" y="-22.8" font-family="Times,serif" font-size="14.00">value = [14.397, 3.131]</text>
<text text-anchor="middle" x="1462" y="-7.8" font-family="Times,serif" font-size="14.00">class = Non&#45;obstructive</text>
</g>
<!-- 17&#45;&gt;19 -->
<g id="edge19" class="edge">
<title>17&#45;&gt;19</title>
<path fill="none" stroke="black" d="M1396.37,-118.87C1404.27,-109.67 1412.55,-100.04 1420.45,-90.84"/>
<polygon fill="black" stroke="black" points="1423.13,-93.1 1426.99,-83.23 1417.82,-88.53 1423.13,-93.1"/>
</g>
<!-- 21 -->
<g id="node22" class="node">
<title>21</title>
<polygon fill="none" stroke="black" points="1864.5,-217 1667.5,-217 1667.5,-119 1864.5,-119 1864.5,-217"/>
<text text-anchor="middle" x="1766" y="-201.8" font-family="Times,serif" font-size="14.00">node #21</text>
<text text-anchor="middle" x="1766" y="-186.8" font-family="Times,serif" font-size="14.00">FEFPostPercent &lt;= 68.0</text>
<text text-anchor="middle" x="1766" y="-171.8" font-family="Times,serif" font-size="14.00">gini = 0.484</text>
<text text-anchor="middle" x="1766" y="-156.8" font-family="Times,serif" font-size="14.00">samples = 30</text>
<text text-anchor="middle" x="1766" y="-141.8" font-family="Times,serif" font-size="14.00">value = [18.236, 26.094]</text>
<text text-anchor="middle" x="1766" y="-126.8" font-family="Times,serif" font-size="14.00">class = Obstructive</text>
</g>
<!-- 20&#45;&gt;21 -->
<g id="edge21" class="edge">
<title>20&#45;&gt;21</title>
<path fill="none" stroke="black" d="M1766,-252.97C1766,-244.69 1766,-236 1766,-227.48"/>
<polygon fill="black" stroke="black" points="1769.5,-227.21 1766,-217.21 1762.5,-227.21 1769.5,-227.21"/>
</g>
<!-- 24 -->
<g id="node25" class="node">
<title>24</title>
<polygon fill="none" stroke="black" points="2175,-217 1981,-217 1981,-119 2175,-119 2175,-217"/>
<text text-anchor="middle" x="2078" y="-201.8" font-family="Times,serif" font-size="14.00">node #24</text>
<text text-anchor="middle" x="2078" y="-186.8" font-family="Times,serif" font-size="14.00">FEFPreVal &lt;= 4.125</text>
<text text-anchor="middle" x="2078" y="-171.8" font-family="Times,serif" font-size="14.00">gini = 0.435</text>
<text text-anchor="middle" x="2078" y="-156.8" font-family="Times,serif" font-size="14.00">samples = 25</text>
<text text-anchor="middle" x="2078" y="-141.8" font-family="Times,serif" font-size="14.00">value = [28.793, 13.569]</text>
<text text-anchor="middle" x="2078" y="-126.8" font-family="Times,serif" font-size="14.00">class = Non&#45;obstructive</text>
</g>
<!-- 20&#45;&gt;24 -->
<g id="edge24" class="edge">
<title>20&#45;&gt;24</title>
<path fill="none" stroke="black" d="M1863.01,-259.96C1897.41,-245.4 1936.3,-228.95 1971.45,-214.08"/>
<polygon fill="black" stroke="black" points="1972.94,-217.25 1980.78,-210.13 1970.21,-210.8 1972.94,-217.25"/>
</g>
<!-- 22 -->
<g id="node23" class="node">
<title>22</title>
<polygon fill="none" stroke="black" points="1762,-83 1574,-83 1574,0 1762,0 1762,-83"/>
<text text-anchor="middle" x="1668" y="-67.8" font-family="Times,serif" font-size="14.00">node #22</text>
<text text-anchor="middle" x="1668" y="-52.8" font-family="Times,serif" font-size="14.00">gini = 0.416</text>
<text text-anchor="middle" x="1668" y="-37.8" font-family="Times,serif" font-size="14.00">samples = 13</text>
<text text-anchor="middle" x="1668" y="-22.8" font-family="Times,serif" font-size="14.00">value = [12.477, 5.219]</text>
<text text-anchor="middle" x="1668" y="-7.8" font-family="Times,serif" font-size="14.00">class = Non&#45;obstructive</text>
</g>
<!-- 21&#45;&gt;22 -->
<g id="edge22" class="edge">
<title>21&#45;&gt;22</title>
<path fill="none" stroke="black" d="M1728.11,-118.87C1720.95,-109.76 1713.45,-100.23 1706.27,-91.12"/>
<polygon fill="black" stroke="black" points="1709,-88.92 1700.06,-83.23 1703.5,-93.25 1709,-88.92"/>
</g>
<!-- 23 -->
<g id="node24" class="node">
<title>23</title>
<polygon fill="none" stroke="black" points="1965.5,-83 1780.5,-83 1780.5,0 1965.5,0 1965.5,-83"/>
<text text-anchor="middle" x="1873" y="-67.8" font-family="Times,serif" font-size="14.00">node #23</text>
<text text-anchor="middle" x="1873" y="-52.8" font-family="Times,serif" font-size="14.00">gini = 0.339</text>
<text text-anchor="middle" x="1873" y="-37.8" font-family="Times,serif" font-size="14.00">samples = 17</text>
<text text-anchor="middle" x="1873" y="-22.8" font-family="Times,serif" font-size="14.00">value = [5.759, 20.875]</text>
<text text-anchor="middle" x="1873" y="-7.8" font-family="Times,serif" font-size="14.00">class = Obstructive</text>
</g>
<!-- 21&#45;&gt;23 -->
<g id="edge23" class="edge">
<title>21&#45;&gt;23</title>
<path fill="none" stroke="black" d="M1807.37,-118.87C1815.27,-109.67 1823.55,-100.04 1831.45,-90.84"/>
<polygon fill="black" stroke="black" points="1834.13,-93.1 1837.99,-83.23 1828.82,-88.53 1834.13,-93.1"/>
</g>
<!-- 25 -->
<g id="node26" class="node">
<title>25</title>
<polygon fill="none" stroke="black" points="2172,-83 1984,-83 1984,0 2172,0 2172,-83"/>
<text text-anchor="middle" x="2078" y="-67.8" font-family="Times,serif" font-size="14.00">node #25</text>
<text text-anchor="middle" x="2078" y="-52.8" font-family="Times,serif" font-size="14.00">gini = 0.371</text>
<text text-anchor="middle" x="2078" y="-37.8" font-family="Times,serif" font-size="14.00">samples = 23</text>
<text text-anchor="middle" x="2078" y="-22.8" font-family="Times,serif" font-size="14.00">value = [28.793, 9.394]</text>
<text text-anchor="middle" x="2078" y="-7.8" font-family="Times,serif" font-size="14.00">class = Non&#45;obstructive</text>
</g>
<!-- 24&#45;&gt;25 -->
<g id="edge25" class="edge">
<title>24&#45;&gt;25</title>
<path fill="none" stroke="black" d="M2078,-118.87C2078,-110.5 2078,-101.77 2078,-93.33"/>
<polygon fill="black" stroke="black" points="2081.5,-93.23 2078,-83.23 2074.5,-93.23 2081.5,-93.23"/>
</g>
<!-- 26 -->
<g id="node27" class="node">
<title>26</title>
<polygon fill="none" stroke="black" points="2348,-83 2190,-83 2190,0 2348,0 2348,-83"/>
<text text-anchor="middle" x="2269" y="-67.8" font-family="Times,serif" font-size="14.00">node #26</text>
<text text-anchor="middle" x="2269" y="-52.8" font-family="Times,serif" font-size="14.00">gini = &#45;0.0</text>
<text text-anchor="middle" x="2269" y="-37.8" font-family="Times,serif" font-size="14.00">samples = 2</text>
<text text-anchor="middle" x="2269" y="-22.8" font-family="Times,serif" font-size="14.00">value = [0.0, 4.175]</text>
<text text-anchor="middle" x="2269" y="-7.8" font-family="Times,serif" font-size="14.00">class = Obstructive</text>
</g>
<!-- 24&#45;&gt;26 -->
<g id="edge26" class="edge">
<title>24&#45;&gt;26</title>
<path fill="none" stroke="black" d="M2151.85,-118.87C2167.03,-108.97 2182.98,-98.57 2198.05,-88.74"/>
<polygon fill="black" stroke="black" points="2200.35,-91.43 2206.82,-83.03 2196.53,-85.56 2200.35,-91.43"/>
</g>
</g>
</svg>
