<?xml version="1.0" encoding="UTF-8" standalone="no"?>
<!DOCTYPE svg PUBLIC "-//W3C//DTD SVG 1.1//EN"
 "http://www.w3.org/Graphics/SVG/1.1/DTD/svg11.dtd">
<!-- Generated by graphviz version 2.43.0 (0)
 -->
<!-- Title: Tree Pages: 1 -->
<svg width="1957pt" height="627pt"
 viewBox="0.00 0.00 1957.00 627.00" xmlns="http://www.w3.org/2000/svg" xmlns:xlink="http://www.w3.org/1999/xlink">
<g id="graph0" class="graph" transform="scale(1 1) rotate(0) translate(4 623)">
<title>Tree</title>
<polygon fill="white" stroke="transparent" points="-4,4 -4,-623 1953,-623 1953,4 -4,4"/>
<!-- 0 -->
<g id="node1" class="node">
<title>0</title>
<polygon fill="none" stroke="black" points="1129,-619 938,-619 938,-521 1129,-521 1129,-619"/>
<text text-anchor="middle" x="1033.5" y="-603.8" font-family="Times,serif" font-size="14.00">node #0</text>
<text text-anchor="middle" x="1033.5" y="-588.8" font-family="Times,serif" font-size="14.00">FEFPrePercent &lt;= 46.5</text>
<text text-anchor="middle" x="1033.5" y="-573.8" font-family="Times,serif" font-size="14.00">gini = 0.5</text>
<text text-anchor="middle" x="1033.5" y="-558.8" font-family="Times,serif" font-size="14.00">samples = 209</text>
<text text-anchor="middle" x="1033.5" y="-543.8" font-family="Times,serif" font-size="14.00">value = [167.0, 167.0]</text>
<text text-anchor="middle" x="1033.5" y="-528.8" font-family="Times,serif" font-size="14.00">class = Obstructive</text>
</g>
<!-- 1 -->
<g id="node2" class="node">
<title>1</title>
<polygon fill="none" stroke="black" points="1022.5,-485 828.5,-485 828.5,-387 1022.5,-387 1022.5,-485"/>
<text text-anchor="middle" x="925.5" y="-469.8" font-family="Times,serif" font-size="14.00">node #1</text>
<text text-anchor="middle" x="925.5" y="-454.8" font-family="Times,serif" font-size="14.00">FEFPostVal &lt;= 1.315</text>
<text text-anchor="middle" x="925.5" y="-439.8" font-family="Times,serif" font-size="14.00">gini = 0.258</text>
<text text-anchor="middle" x="925.5" y="-424.8" font-family="Times,serif" font-size="14.00">samples = 98</text>
<text text-anchor="middle" x="925.5" y="-409.8" font-family="Times,serif" font-size="14.00">value = [23.576, 131.36]</text>
<text text-anchor="middle" x="925.5" y="-394.8" font-family="Times,serif" font-size="14.00">class = Obstructive</text>
</g>
<!-- 0&#45;&gt;1 -->
<g id="edge1" class="edge">
<title>0&#45;&gt;1</title>
<path fill="none" stroke="black" d="M994.2,-520.97C986.76,-511.87 978.91,-502.28 971.29,-492.96"/>
<polygon fill="black" stroke="black" points="973.99,-490.74 964.95,-485.21 968.57,-495.17 973.99,-490.74"/>
<text text-anchor="middle" x="962.46" y="-506.39" font-family="Times,serif" font-size="14.00">True</text>
</g>
<!-- 14 -->
<g id="node15" class="node">
<title>14</title>
<polygon fill="none" stroke="black" points="1337.5,-485 1143.5,-485 1143.5,-387 1337.5,-387 1337.5,-485"/>
<text text-anchor="middle" x="1240.5" y="-469.8" font-family="Times,serif" font-size="14.00">node #14</text>
<text text-anchor="middle" x="1240.5" y="-454.8" font-family="Times,serif" font-size="14.00">FVCPreVal &lt;= 3.205</text>
<text text-anchor="middle" x="1240.5" y="-439.8" font-family="Times,serif" font-size="14.00">gini = 0.319</text>
<text text-anchor="middle" x="1240.5" y="-424.8" font-family="Times,serif" font-size="14.00">samples = 111</text>
<text text-anchor="middle" x="1240.5" y="-409.8" font-family="Times,serif" font-size="14.00">value = [143.424, 35.64]</text>
<text text-anchor="middle" x="1240.5" y="-394.8" font-family="Times,serif" font-size="14.00">class = Non&#45;obstructive</text>
</g>
<!-- 0&#45;&gt;14 -->
<g id="edge14" class="edge">
<title>0&#45;&gt;14</title>
<path fill="none" stroke="black" d="M1108.82,-520.97C1124.23,-511.14 1140.54,-500.74 1156.24,-490.73"/>
<polygon fill="black" stroke="black" points="1158.34,-493.54 1164.89,-485.21 1154.58,-487.64 1158.34,-493.54"/>
<text text-anchor="middle" x="1159.49" y="-505.92" font-family="Times,serif" font-size="14.00">False</text>
</g>
<!-- 2 -->
<g id="node3" class="node">
<title>2</title>
<polygon fill="none" stroke="black" points="619.5,-351 425.5,-351 425.5,-253 619.5,-253 619.5,-351"/>
<text text-anchor="middle" x="522.5" y="-335.8" font-family="Times,serif" font-size="14.00">node #2</text>
<text text-anchor="middle" x="522.5" y="-320.8" font-family="Times,serif" font-size="14.00">FVCPostVal &lt;= 1.68</text>
<text text-anchor="middle" x="522.5" y="-305.8" font-family="Times,serif" font-size="14.00">gini = 0.151</text>
<text text-anchor="middle" x="522.5" y="-290.8" font-family="Times,serif" font-size="14.00">samples = 74</text>
<text text-anchor="middle" x="522.5" y="-275.8" font-family="Times,serif" font-size="14.00">value = [9.824, 109.976]</text>
<text text-anchor="middle" x="522.5" y="-260.8" font-family="Times,serif" font-size="14.00">class = Obstructive</text>
</g>
<!-- 1&#45;&gt;2 -->
<g id="edge2" class="edge">
<title>1&#45;&gt;2</title>
<path fill="none" stroke="black" d="M828.46,-403.21C768.44,-383.55 691.32,-358.3 629.53,-338.06"/>
<polygon fill="black" stroke="black" points="630.34,-334.64 619.75,-334.85 628.16,-341.29 630.34,-334.64"/>
</g>
<!-- 9 -->
<g id="node10" class="node">
<title>9</title>
<polygon fill="none" stroke="black" points="1022.5,-351 828.5,-351 828.5,-253 1022.5,-253 1022.5,-351"/>
<text text-anchor="middle" x="925.5" y="-335.8" font-family="Times,serif" font-size="14.00">node #9</text>
<text text-anchor="middle" x="925.5" y="-320.8" font-family="Times,serif" font-size="14.00">FVCPostVal &lt;= 2.2</text>
<text text-anchor="middle" x="925.5" y="-305.8" font-family="Times,serif" font-size="14.00">gini = 0.476</text>
<text text-anchor="middle" x="925.5" y="-290.8" font-family="Times,serif" font-size="14.00">samples = 24</text>
<text text-anchor="middle" x="925.5" y="-275.8" font-family="Times,serif" font-size="14.00">value = [13.753, 21.384]</text>
<text text-anchor="middle" x="925.5" y="-260.8" font-family="Times,serif" font-size="14.00">class = Obstructive</text>
</g>
<!-- 1&#45;&gt;9 -->
<g id="edge9" class="edge">
<title>1&#45;&gt;9</title>
<path fill="none" stroke="black" d="M925.5,-386.97C925.5,-378.69 925.5,-370 925.5,-361.48"/>
<polygon fill="black" stroke="black" points="929,-361.21 925.5,-351.21 922,-361.21 929,-361.21"/>
</g>
<!-- 3 -->
<g id="node4" class="node">
<title>3</title>
<polygon fill="none" stroke="black" points="390,-217 205,-217 205,-119 390,-119 390,-217"/>
<text text-anchor="middle" x="297.5" y="-201.8" font-family="Times,serif" font-size="14.00">node #3</text>
<text text-anchor="middle" x="297.5" y="-186.8" font-family="Times,serif" font-size="14.00">FEFPreVal &lt;= 0.83</text>
<text text-anchor="middle" x="297.5" y="-171.8" font-family="Times,serif" font-size="14.00">gini = 0.336</text>
<text text-anchor="middle" x="297.5" y="-156.8" font-family="Times,serif" font-size="14.00">samples = 29</text>
<text text-anchor="middle" x="297.5" y="-141.8" font-family="Times,serif" font-size="14.00">value = [8.841, 32.585]</text>
<text text-anchor="middle" x="297.5" y="-126.8" font-family="Times,serif" font-size="14.00">class = Obstructive</text>
</g>
<!-- 2&#45;&gt;3 -->
<g id="edge3" class="edge">
<title>2&#45;&gt;3</title>
<path fill="none" stroke="black" d="M440.63,-252.97C423.73,-243.05 405.82,-232.55 388.61,-222.45"/>
<polygon fill="black" stroke="black" points="390.08,-219.26 379.68,-217.21 386.54,-225.29 390.08,-219.26"/>
</g>
<!-- 6 -->
<g id="node7" class="node">
<title>6</title>
<polygon fill="none" stroke="black" points="621,-217 424,-217 424,-119 621,-119 621,-217"/>
<text text-anchor="middle" x="522.5" y="-201.8" font-family="Times,serif" font-size="14.00">node #6</text>
<text text-anchor="middle" x="522.5" y="-186.8" font-family="Times,serif" font-size="14.00">FEFPostPercent &lt;= 28.0</text>
<text text-anchor="middle" x="522.5" y="-171.8" font-family="Times,serif" font-size="14.00">gini = 0.025</text>
<text text-anchor="middle" x="522.5" y="-156.8" font-family="Times,serif" font-size="14.00">samples = 45</text>
<text text-anchor="middle" x="522.5" y="-141.8" font-family="Times,serif" font-size="14.00">value = [0.982, 77.39]</text>
<text text-anchor="middle" x="522.5" y="-126.8" font-family="Times,serif" font-size="14.00">class = Obstructive</text>
</g>
<!-- 2&#45;&gt;6 -->
<g id="edge6" class="edge">
<title>2&#45;&gt;6</title>
<path fill="none" stroke="black" d="M522.5,-252.97C522.5,-244.69 522.5,-236 522.5,-227.48"/>
<polygon fill="black" stroke="black" points="526,-227.21 522.5,-217.21 519,-227.21 526,-227.21"/>
</g>
<!-- 4 -->
<g id="node5" class="node">
<title>4</title>
<polygon fill="none" stroke="black" points="185,-83 0,-83 0,0 185,0 185,-83"/>
<text text-anchor="middle" x="92.5" y="-67.8" font-family="Times,serif" font-size="14.00">node #4</text>
<text text-anchor="middle" x="92.5" y="-52.8" font-family="Times,serif" font-size="14.00">gini = 0.259</text>
<text text-anchor="middle" x="92.5" y="-37.8" font-family="Times,serif" font-size="14.00">samples = 26</text>
<text text-anchor="middle" x="92.5" y="-22.8" font-family="Times,serif" font-size="14.00">value = [5.894, 32.585]</text>
<text text-anchor="middle" x="92.5" y="-7.8" font-family="Times,serif" font-size="14.00">class = Obstructive</text>
</g>
<!-- 3&#45;&gt;4 -->
<g id="edge4" class="edge">
<title>3&#45;&gt;4</title>
<path fill="none" stroke="black" d="M218.24,-118.87C201.8,-108.88 184.51,-98.38 168.19,-88.47"/>
<polygon fill="black" stroke="black" points="169.6,-85.23 159.24,-83.03 165.97,-91.21 169.6,-85.23"/>
</g>
<!-- 5 -->
<g id="node6" class="node">
<title>5</title>
<polygon fill="none" stroke="black" points="391.5,-83 203.5,-83 203.5,0 391.5,0 391.5,-83"/>
<text text-anchor="middle" x="297.5" y="-67.8" font-family="Times,serif" font-size="14.00">node #5</text>
<text text-anchor="middle" x="297.5" y="-52.8" font-family="Times,serif" font-size="14.00">gini = 0.0</text>
<text text-anchor="middle" x="297.5" y="-37.8" font-family="Times,serif" font-size="14.00">samples = 3</text>
<text text-anchor="middle" x="297.5" y="-22.8" font-family="Times,serif" font-size="14.00">value = [2.947, 0.0]</text>
<text text-anchor="middle" x="297.5" y="-7.8" font-family="Times,serif" font-size="14.00">class = Non&#45;obstructive</text>
</g>
<!-- 3&#45;&gt;5 -->
<g id="edge5" class="edge">
<title>3&#45;&gt;5</title>
<path fill="none" stroke="black" d="M297.5,-118.87C297.5,-110.5 297.5,-101.77 297.5,-93.33"/>
<polygon fill="black" stroke="black" points="301,-93.23 297.5,-83.23 294,-93.23 301,-93.23"/>
</g>
<!-- 7 -->
<g id="node8" class="node">
<title>7</title>
<polygon fill="none" stroke="black" points="577,-83 410,-83 410,0 577,0 577,-83"/>
<text text-anchor="middle" x="493.5" y="-67.8" font-family="Times,serif" font-size="14.00">node #7</text>
<text text-anchor="middle" x="493.5" y="-52.8" font-family="Times,serif" font-size="14.00">gini = 0.0</text>
<text text-anchor="middle" x="493.5" y="-37.8" font-family="Times,serif" font-size="14.00">samples = 28</text>
<text text-anchor="middle" x="493.5" y="-22.8" font-family="Times,serif" font-size="14.00">value = [0.0, 45.823]</text>
<text text-anchor="middle" x="493.5" y="-7.8" font-family="Times,serif" font-size="14.00">class = Obstructive</text>
</g>
<!-- 6&#45;&gt;7 -->
<g id="edge7" class="edge">
<title>6&#45;&gt;7</title>
<path fill="none" stroke="black" d="M511.29,-118.87C509.32,-110.41 507.26,-101.58 505.28,-93.06"/>
<polygon fill="black" stroke="black" points="508.66,-92.18 502.99,-83.23 501.85,-93.76 508.66,-92.18"/>
</g>
<!-- 8 -->
<g id="node9" class="node">
<title>8</title>
<polygon fill="none" stroke="black" points="780,-83 595,-83 595,0 780,0 780,-83"/>
<text text-anchor="middle" x="687.5" y="-67.8" font-family="Times,serif" font-size="14.00">node #8</text>
<text text-anchor="middle" x="687.5" y="-52.8" font-family="Times,serif" font-size="14.00">gini = 0.059</text>
<text text-anchor="middle" x="687.5" y="-37.8" font-family="Times,serif" font-size="14.00">samples = 17</text>
<text text-anchor="middle" x="687.5" y="-22.8" font-family="Times,serif" font-size="14.00">value = [0.982, 31.567]</text>
<text text-anchor="middle" x="687.5" y="-7.8" font-family="Times,serif" font-size="14.00">class = Obstructive</text>
</g>
<!-- 6&#45;&gt;8 -->
<g id="edge8" class="edge">
<title>6&#45;&gt;8</title>
<path fill="none" stroke="black" d="M586.29,-118.87C599.16,-109.15 612.67,-98.96 625.48,-89.3"/>
<polygon fill="black" stroke="black" points="627.91,-91.85 633.78,-83.03 623.69,-86.26 627.91,-91.85"/>
</g>
<!-- 10 -->
<g id="node11" class="node">
<title>10</title>
<polygon fill="none" stroke="black" points="857.5,-209.5 669.5,-209.5 669.5,-126.5 857.5,-126.5 857.5,-209.5"/>
<text text-anchor="middle" x="763.5" y="-194.3" font-family="Times,serif" font-size="14.00">node #10</text>
<text text-anchor="middle" x="763.5" y="-179.3" font-family="Times,serif" font-size="14.00">gini = 0.0</text>
<text text-anchor="middle" x="763.5" y="-164.3" font-family="Times,serif" font-size="14.00">samples = 9</text>
<text text-anchor="middle" x="763.5" y="-149.3" font-family="Times,serif" font-size="14.00">value = [12.771, 0.0]</text>
<text text-anchor="middle" x="763.5" y="-134.3" font-family="Times,serif" font-size="14.00">class = Non&#45;obstructive</text>
</g>
<!-- 9&#45;&gt;10 -->
<g id="edge10" class="edge">
<title>9&#45;&gt;10</title>
<path fill="none" stroke="black" d="M866.56,-252.97C851.82,-240.97 836.04,-228.1 821.36,-216.14"/>
<polygon fill="black" stroke="black" points="823.29,-213.21 813.33,-209.6 818.87,-218.63 823.29,-213.21"/>
</g>
<!-- 11 -->
<g id="node12" class="node">
<title>11</title>
<polygon fill="none" stroke="black" points="1067,-217 876,-217 876,-119 1067,-119 1067,-217"/>
<text text-anchor="middle" x="971.5" y="-201.8" font-family="Times,serif" font-size="14.00">node #11</text>
<text text-anchor="middle" x="971.5" y="-186.8" font-family="Times,serif" font-size="14.00">FEFPrePercent &lt;= 40.5</text>
<text text-anchor="middle" x="971.5" y="-171.8" font-family="Times,serif" font-size="14.00">gini = 0.084</text>
<text text-anchor="middle" x="971.5" y="-156.8" font-family="Times,serif" font-size="14.00">samples = 15</text>
<text text-anchor="middle" x="971.5" y="-141.8" font-family="Times,serif" font-size="14.00">value = [0.982, 21.384]</text>
<text text-anchor="middle" x="971.5" y="-126.8" font-family="Times,serif" font-size="14.00">class = Obstructive</text>
</g>
<!-- 9&#45;&gt;11 -->
<g id="edge11" class="edge">
<title>9&#45;&gt;11</title>
<path fill="none" stroke="black" d="M942.24,-252.97C945.19,-244.51 948.28,-235.62 951.32,-226.92"/>
<polygon fill="black" stroke="black" points="954.71,-227.81 954.7,-217.21 948.1,-225.51 954.71,-227.81"/>
</g>
<!-- 12 -->
<g id="node13" class="node">
<title>12</title>
<polygon fill="none" stroke="black" points="965,-83 798,-83 798,0 965,0 965,-83"/>
<text text-anchor="middle" x="881.5" y="-67.8" font-family="Times,serif" font-size="14.00">node #12</text>
<text text-anchor="middle" x="881.5" y="-52.8" font-family="Times,serif" font-size="14.00">gini = 0.0</text>
<text text-anchor="middle" x="881.5" y="-37.8" font-family="Times,serif" font-size="14.00">samples = 12</text>
<text text-anchor="middle" x="881.5" y="-22.8" font-family="Times,serif" font-size="14.00">value = [0.0, 19.348]</text>
<text text-anchor="middle" x="881.5" y="-7.8" font-family="Times,serif" font-size="14.00">class = Obstructive</text>
</g>
<!-- 11&#45;&gt;12 -->
<g id="edge12" class="edge">
<title>11&#45;&gt;12</title>
<path fill="none" stroke="black" d="M936.7,-118.87C930.19,-109.85 923.37,-100.43 916.84,-91.39"/>
<polygon fill="black" stroke="black" points="919.64,-89.28 910.94,-83.23 913.97,-93.39 919.64,-89.28"/>
</g>
<!-- 13 -->
<g id="node14" class="node">
<title>13</title>
<polygon fill="none" stroke="black" points="1158.5,-83 982.5,-83 982.5,0 1158.5,0 1158.5,-83"/>
<text text-anchor="middle" x="1070.5" y="-67.8" font-family="Times,serif" font-size="14.00">node #13</text>
<text text-anchor="middle" x="1070.5" y="-52.8" font-family="Times,serif" font-size="14.00">gini = 0.439</text>
<text text-anchor="middle" x="1070.5" y="-37.8" font-family="Times,serif" font-size="14.00">samples = 3</text>
<text text-anchor="middle" x="1070.5" y="-22.8" font-family="Times,serif" font-size="14.00">value = [0.982, 2.037]</text>
<text text-anchor="middle" x="1070.5" y="-7.8" font-family="Times,serif" font-size="14.00">class = Obstructive</text>
</g>
<!-- 11&#45;&gt;13 -->
<g id="edge13" class="edge">
<title>11&#45;&gt;13</title>
<path fill="none" stroke="black" d="M1009.78,-118.87C1017.01,-109.76 1024.59,-100.23 1031.84,-91.12"/>
<polygon fill="black" stroke="black" points="1034.63,-93.24 1038.11,-83.23 1029.15,-88.88 1034.63,-93.24"/>
</g>
<!-- 15 -->
<g id="node16" class="node">
<title>15</title>
<polygon fill="none" stroke="black" points="1342,-351 1139,-351 1139,-253 1342,-253 1342,-351"/>
<text text-anchor="middle" x="1240.5" y="-335.8" font-family="Times,serif" font-size="14.00">node #15</text>
<text text-anchor="middle" x="1240.5" y="-320.8" font-family="Times,serif" font-size="14.00">FVCPrePercent &lt;= 61.5</text>
<text text-anchor="middle" x="1240.5" y="-305.8" font-family="Times,serif" font-size="14.00">gini = 0.221</text>
<text text-anchor="middle" x="1240.5" y="-290.8" font-family="Times,serif" font-size="14.00">samples = 101</text>
<text text-anchor="middle" x="1240.5" y="-275.8" font-family="Times,serif" font-size="14.00">value = [140.476, 20.366]</text>
<text text-anchor="middle" x="1240.5" y="-260.8" font-family="Times,serif" font-size="14.00">class = Non&#45;obstructive</text>
</g>
<!-- 14&#45;&gt;15 -->
<g id="edge15" class="edge">
<title>14&#45;&gt;15</title>
<path fill="none" stroke="black" d="M1240.5,-386.97C1240.5,-378.69 1240.5,-370 1240.5,-361.48"/>
<polygon fill="black" stroke="black" points="1244,-361.21 1240.5,-351.21 1237,-361.21 1244,-361.21"/>
</g>
<!-- 20 -->
<g id="node21" class="node">
<title>20</title>
<polygon fill="none" stroke="black" points="1775,-351 1578,-351 1578,-253 1775,-253 1775,-351"/>
<text text-anchor="middle" x="1676.5" y="-335.8" font-family="Times,serif" font-size="14.00">node #20</text>
<text text-anchor="middle" x="1676.5" y="-320.8" font-family="Times,serif" font-size="14.00">FEFPostPercent &lt;= 86.5</text>
<text text-anchor="middle" x="1676.5" y="-305.8" font-family="Times,serif" font-size="14.00">gini = 0.271</text>
<text text-anchor="middle" x="1676.5" y="-290.8" font-family="Times,serif" font-size="14.00">samples = 10</text>
<text text-anchor="middle" x="1676.5" y="-275.8" font-family="Times,serif" font-size="14.00">value = [2.947, 15.274]</text>
<text text-anchor="middle" x="1676.5" y="-260.8" font-family="Times,serif" font-size="14.00">class = Obstructive</text>
</g>
<!-- 14&#45;&gt;20 -->
<g id="edge20" class="edge">
<title>14&#45;&gt;20</title>
<path fill="none" stroke="black" d="M1337.53,-405.62C1405.83,-384.94 1497.32,-357.25 1568.03,-335.84"/>
<polygon fill="black" stroke="black" points="1569.31,-339.11 1577.86,-332.86 1567.28,-332.41 1569.31,-339.11"/>
</g>
<!-- 16 -->
<g id="node17" class="node">
<title>16</title>
<polygon fill="none" stroke="black" points="1288.5,-209.5 1100.5,-209.5 1100.5,-126.5 1288.5,-126.5 1288.5,-209.5"/>
<text text-anchor="middle" x="1194.5" y="-194.3" font-family="Times,serif" font-size="14.00">node #16</text>
<text text-anchor="middle" x="1194.5" y="-179.3" font-family="Times,serif" font-size="14.00">gini = 0.0</text>
<text text-anchor="middle" x="1194.5" y="-164.3" font-family="Times,serif" font-size="14.00">samples = 49</text>
<text text-anchor="middle" x="1194.5" y="-149.3" font-family="Times,serif" font-size="14.00">value = [73.676, 0.0]</text>
<text text-anchor="middle" x="1194.5" y="-134.3" font-family="Times,serif" font-size="14.00">class = Non&#45;obstructive</text>
</g>
<!-- 15&#45;&gt;16 -->
<g id="edge16" class="edge">
<title>15&#45;&gt;16</title>
<path fill="none" stroke="black" d="M1223.76,-252.97C1219.95,-242.02 1215.88,-230.36 1212.04,-219.32"/>
<polygon fill="black" stroke="black" points="1215.32,-218.11 1208.72,-209.82 1208.71,-220.41 1215.32,-218.11"/>
</g>
<!-- 17 -->
<g id="node18" class="node">
<title>17</title>
<polygon fill="none" stroke="black" points="1506.5,-217 1306.5,-217 1306.5,-119 1506.5,-119 1506.5,-217"/>
<text text-anchor="middle" x="1406.5" y="-201.8" font-family="Times,serif" font-size="14.00">node #17</text>
<text text-anchor="middle" x="1406.5" y="-186.8" font-family="Times,serif" font-size="14.00">FEV1PrePercent &lt;= 67.0</text>
<text text-anchor="middle" x="1406.5" y="-171.8" font-family="Times,serif" font-size="14.00">gini = 0.358</text>
<text text-anchor="middle" x="1406.5" y="-156.8" font-family="Times,serif" font-size="14.00">samples = 52</text>
<text text-anchor="middle" x="1406.5" y="-141.8" font-family="Times,serif" font-size="14.00">value = [66.8, 20.366]</text>
<text text-anchor="middle" x="1406.5" y="-126.8" font-family="Times,serif" font-size="14.00">class = Non&#45;obstructive</text>
</g>
<!-- 15&#45;&gt;17 -->
<g id="edge17" class="edge">
<title>15&#45;&gt;17</title>
<path fill="none" stroke="black" d="M1300.9,-252.97C1312.91,-243.42 1325.61,-233.32 1337.88,-223.57"/>
<polygon fill="black" stroke="black" points="1340.22,-226.18 1345.87,-217.21 1335.86,-220.7 1340.22,-226.18"/>
</g>
<!-- 18 -->
<g id="node19" class="node">
<title>18</title>
<polygon fill="none" stroke="black" points="1352.5,-83 1176.5,-83 1176.5,0 1352.5,0 1352.5,-83"/>
<text text-anchor="middle" x="1264.5" y="-67.8" font-family="Times,serif" font-size="14.00">node #18</text>
<text text-anchor="middle" x="1264.5" y="-52.8" font-family="Times,serif" font-size="14.00">gini = 0.454</text>
<text text-anchor="middle" x="1264.5" y="-37.8" font-family="Times,serif" font-size="14.00">samples = 12</text>
<text text-anchor="middle" x="1264.5" y="-22.8" font-family="Times,serif" font-size="14.00">value = [4.912, 9.165]</text>
<text text-anchor="middle" x="1264.5" y="-7.8" font-family="Times,serif" font-size="14.00">class = Obstructive</text>
</g>
<!-- 17&#45;&gt;18 -->
<g id="edge18" class="edge">
<title>17&#45;&gt;18</title>
<path fill="none" stroke="black" d="M1351.6,-118.87C1340.8,-109.39 1329.47,-99.46 1318.69,-90.01"/>
<polygon fill="black" stroke="black" points="1320.78,-87.19 1310.96,-83.23 1316.17,-92.46 1320.78,-87.19"/>
</g>
<!-- 19 -->
<g id="node20" class="node">
<title>19</title>
<polygon fill="none" stroke="black" points="1564.5,-83 1370.5,-83 1370.5,0 1564.5,0 1564.5,-83"/>
<text text-anchor="middle" x="1467.5" y="-67.8" font-family="Times,serif" font-size="14.00">node #19</text>
<text text-anchor="middle" x="1467.5" y="-52.8" font-family="Times,serif" font-size="14.00">gini = 0.26</text>
<text text-anchor="middle" x="1467.5" y="-37.8" font-family="Times,serif" font-size="14.00">samples = 40</text>
<text text-anchor="middle" x="1467.5" y="-22.8" font-family="Times,serif" font-size="14.00">value = [61.888, 11.201]</text>
<text text-anchor="middle" x="1467.5" y="-7.8" font-family="Times,serif" font-size="14.00">class = Non&#45;obstructive</text>
</g>
<!-- 17&#45;&gt;19 -->
<g id="edge19" class="edge">
<title>17&#45;&gt;19</title>
<path fill="none" stroke="black" d="M1430.08,-118.87C1434.36,-110.13 1438.84,-101 1443.14,-92.22"/>
<polygon fill="black" stroke="black" points="1446.29,-93.75 1447.54,-83.23 1440,-90.67 1446.29,-93.75"/>
</g>
<!-- 21 -->
<g id="node22" class="node">
<title>21</title>
<polygon fill="none" stroke="black" points="1764.5,-217 1588.5,-217 1588.5,-119 1764.5,-119 1764.5,-217"/>
<text text-anchor="middle" x="1676.5" y="-201.8" font-family="Times,serif" font-size="14.00">node #21</text>
<text text-anchor="middle" x="1676.5" y="-186.8" font-family="Times,serif" font-size="14.00">FVCPostVal &lt;= 3.32</text>
<text text-anchor="middle" x="1676.5" y="-171.8" font-family="Times,serif" font-size="14.00">gini = 0.487</text>
<text text-anchor="middle" x="1676.5" y="-156.8" font-family="Times,serif" font-size="14.00">samples = 5</text>
<text text-anchor="middle" x="1676.5" y="-141.8" font-family="Times,serif" font-size="14.00">value = [2.947, 4.073]</text>
<text text-anchor="middle" x="1676.5" y="-126.8" font-family="Times,serif" font-size="14.00">class = Obstructive</text>
</g>
<!-- 20&#45;&gt;21 -->
<g id="edge21" class="edge">
<title>20&#45;&gt;21</title>
<path fill="none" stroke="black" d="M1676.5,-252.97C1676.5,-244.69 1676.5,-236 1676.5,-227.48"/>
<polygon fill="black" stroke="black" points="1680,-227.21 1676.5,-217.21 1673,-227.21 1680,-227.21"/>
</g>
<!-- 24 -->
<g id="node25" class="node">
<title>24</title>
<polygon fill="none" stroke="black" points="1949,-209.5 1782,-209.5 1782,-126.5 1949,-126.5 1949,-209.5"/>
<text text-anchor="middle" x="1865.5" y="-194.3" font-family="Times,serif" font-size="14.00">node #24</text>
<text text-anchor="middle" x="1865.5" y="-179.3" font-family="Times,serif" font-size="14.00">gini = 0.0</text>
<text text-anchor="middle" x="1865.5" y="-164.3" font-family="Times,serif" font-size="14.00">samples = 5</text>
<text text-anchor="middle" x="1865.5" y="-149.3" font-family="Times,serif" font-size="14.00">value = [0.0, 11.201]</text>
<text text-anchor="middle" x="1865.5" y="-134.3" font-family="Times,serif" font-size="14.00">class = Obstructive</text>
</g>
<!-- 20&#45;&gt;24 -->
<g id="edge24" class="edge">
<title>20&#45;&gt;24</title>
<path fill="none" stroke="black" d="M1745.27,-252.97C1762.77,-240.75 1781.55,-227.63 1798.95,-215.48"/>
<polygon fill="black" stroke="black" points="1801.17,-218.2 1807.36,-209.6 1797.16,-212.46 1801.17,-218.2"/>
</g>
<!-- 22 -->
<g id="node23" class="node">
<title>22</title>
<polygon fill="none" stroke="black" points="1770.5,-83 1582.5,-83 1582.5,0 1770.5,0 1770.5,-83"/>
<text text-anchor="middle" x="1676.5" y="-67.8" font-family="Times,serif" font-size="14.00">node #22</text>
<text text-anchor="middle" x="1676.5" y="-52.8" font-family="Times,serif" font-size="14.00">gini = 0.0</text>
<text text-anchor="middle" x="1676.5" y="-37.8" font-family="Times,serif" font-size="14.00">samples = 2</text>
<text text-anchor="middle" x="1676.5" y="-22.8" font-family="Times,serif" font-size="14.00">value = [2.947, 0.0]</text>
<text text-anchor="middle" x="1676.5" y="-7.8" font-family="Times,serif" font-size="14.00">class = Non&#45;obstructive</text>
</g>
<!-- 21&#45;&gt;22 -->
<g id="edge22" class="edge">
<title>21&#45;&gt;22</title>
<path fill="none" stroke="black" d="M1676.5,-118.87C1676.5,-110.5 1676.5,-101.77 1676.5,-93.33"/>
<polygon fill="black" stroke="black" points="1680,-93.23 1676.5,-83.23 1673,-93.23 1680,-93.23"/>
</g>
<!-- 23 -->
<g id="node24" class="node">
<title>23</title>
<polygon fill="none" stroke="black" points="1946.5,-83 1788.5,-83 1788.5,0 1946.5,0 1946.5,-83"/>
<text text-anchor="middle" x="1867.5" y="-67.8" font-family="Times,serif" font-size="14.00">node #23</text>
<text text-anchor="middle" x="1867.5" y="-52.8" font-family="Times,serif" font-size="14.00">gini = &#45;0.0</text>
<text text-anchor="middle" x="1867.5" y="-37.8" font-family="Times,serif" font-size="14.00">samples = 3</text>
<text text-anchor="middle" x="1867.5" y="-22.8" font-family="Times,serif" font-size="14.00">value = [0.0, 4.073]</text>
<text text-anchor="middle" x="1867.5" y="-7.8" font-family="Times,serif" font-size="14.00">class = Obstructive</text>
</g>
<!-- 21&#45;&gt;23 -->
<g id="edge23" class="edge">
<title>21&#45;&gt;23</title>
<path fill="none" stroke="black" d="M1750.35,-118.87C1765.53,-108.97 1781.48,-98.57 1796.55,-88.74"/>
<polygon fill="black" stroke="black" points="1798.85,-91.43 1805.32,-83.03 1795.03,-85.56 1798.85,-91.43"/>
</g>
</g>
</svg>
