<?xml version="1.0" encoding="UTF-8" standalone="no"?>
<!DOCTYPE svg PUBLIC "-//W3C//DTD SVG 1.1//EN"
 "http://www.w3.org/Graphics/SVG/1.1/DTD/svg11.dtd">
<!-- Generated by graphviz version 2.43.0 (0)
 -->
<!-- Title: Tree Pages: 1 -->
<svg width="1990pt" height="627pt"
 viewBox="0.00 0.00 1990.00 627.00" xmlns="http://www.w3.org/2000/svg" xmlns:xlink="http://www.w3.org/1999/xlink">
<g id="graph0" class="graph" transform="scale(1 1) rotate(0) translate(4 623)">
<title>Tree</title>
<polygon fill="white" stroke="transparent" points="-4,4 -4,-623 1986,-623 1986,4 -4,4"/>
<!-- 0 -->
<g id="node1" class="node">
<title>0</title>
<polygon fill="none" stroke="black" points="1102.5,-619 911.5,-619 911.5,-521 1102.5,-521 1102.5,-619"/>
<text text-anchor="middle" x="1007" y="-603.8" font-family="Times,serif" font-size="14.00">node #0</text>
<text text-anchor="middle" x="1007" y="-588.8" font-family="Times,serif" font-size="14.00">FEFPrePercent &lt;= 33.5</text>
<text text-anchor="middle" x="1007" y="-573.8" font-family="Times,serif" font-size="14.00">gini = 0.5</text>
<text text-anchor="middle" x="1007" y="-558.8" font-family="Times,serif" font-size="14.00">samples = 211</text>
<text text-anchor="middle" x="1007" y="-543.8" font-family="Times,serif" font-size="14.00">value = [167.0, 167.0]</text>
<text text-anchor="middle" x="1007" y="-528.8" font-family="Times,serif" font-size="14.00">class = Obstructive</text>
</g>
<!-- 1 -->
<g id="node2" class="node">
<title>1</title>
<polygon fill="none" stroke="black" points="903.5,-485 700.5,-485 700.5,-387 903.5,-387 903.5,-485"/>
<text text-anchor="middle" x="802" y="-469.8" font-family="Times,serif" font-size="14.00">node #1</text>
<text text-anchor="middle" x="802" y="-454.8" font-family="Times,serif" font-size="14.00">FEFPostPercent &lt;= 48.5</text>
<text text-anchor="middle" x="802" y="-439.8" font-family="Times,serif" font-size="14.00">gini = 0.164</text>
<text text-anchor="middle" x="802" y="-424.8" font-family="Times,serif" font-size="14.00">samples = 78</text>
<text text-anchor="middle" x="802" y="-409.8" font-family="Times,serif" font-size="14.00">value = [11.929, 120.723]</text>
<text text-anchor="middle" x="802" y="-394.8" font-family="Times,serif" font-size="14.00">class = Obstructive</text>
</g>
<!-- 0&#45;&gt;1 -->
<g id="edge1" class="edge">
<title>0&#45;&gt;1</title>
<path fill="none" stroke="black" d="M932.41,-520.97C917.15,-511.14 900.99,-500.74 885.44,-490.73"/>
<polygon fill="black" stroke="black" points="887.18,-487.68 876.88,-485.21 883.39,-493.57 887.18,-487.68"/>
<text text-anchor="middle" x="882.17" y="-505.95" font-family="Times,serif" font-size="14.00">True</text>
</g>
<!-- 10 -->
<g id="node11" class="node">
<title>10</title>
<polygon fill="none" stroke="black" points="1193.5,-485 990.5,-485 990.5,-387 1193.5,-387 1193.5,-485"/>
<text text-anchor="middle" x="1092" y="-469.8" font-family="Times,serif" font-size="14.00">node #10</text>
<text text-anchor="middle" x="1092" y="-454.8" font-family="Times,serif" font-size="14.00">FVCPrePercent &lt;= 61.5</text>
<text text-anchor="middle" x="1092" y="-439.8" font-family="Times,serif" font-size="14.00">gini = 0.354</text>
<text text-anchor="middle" x="1092" y="-424.8" font-family="Times,serif" font-size="14.00">samples = 133</text>
<text text-anchor="middle" x="1092" y="-409.8" font-family="Times,serif" font-size="14.00">value = [155.071, 46.277]</text>
<text text-anchor="middle" x="1092" y="-394.8" font-family="Times,serif" font-size="14.00">class = Non&#45;obstructive</text>
</g>
<!-- 0&#45;&gt;10 -->
<g id="edge10" class="edge">
<title>0&#45;&gt;10</title>
<path fill="none" stroke="black" d="M1037.93,-520.97C1043.61,-512.15 1049.59,-502.85 1055.42,-493.8"/>
<polygon fill="black" stroke="black" points="1058.48,-495.52 1060.95,-485.21 1052.6,-491.73 1058.48,-495.52"/>
<text text-anchor="middle" x="1066.25" y="-505.95" font-family="Times,serif" font-size="14.00">False</text>
</g>
<!-- 2 -->
<g id="node3" class="node">
<title>2</title>
<polygon fill="none" stroke="black" points="595.5,-351 392.5,-351 392.5,-253 595.5,-253 595.5,-351"/>
<text text-anchor="middle" x="494" y="-335.8" font-family="Times,serif" font-size="14.00">node #2</text>
<text text-anchor="middle" x="494" y="-320.8" font-family="Times,serif" font-size="14.00">FVCPostPercent &lt;= 39.5</text>
<text text-anchor="middle" x="494" y="-305.8" font-family="Times,serif" font-size="14.00">gini = 0.152</text>
<text text-anchor="middle" x="494" y="-290.8" font-family="Times,serif" font-size="14.00">samples = 77</text>
<text text-anchor="middle" x="494" y="-275.8" font-family="Times,serif" font-size="14.00">value = [10.935, 120.723]</text>
<text text-anchor="middle" x="494" y="-260.8" font-family="Times,serif" font-size="14.00">class = Obstructive</text>
</g>
<!-- 1&#45;&gt;2 -->
<g id="edge2" class="edge">
<title>1&#45;&gt;2</title>
<path fill="none" stroke="black" d="M700.3,-391.41C669.81,-378.35 636.22,-363.95 605.15,-350.64"/>
<polygon fill="black" stroke="black" points="606.17,-347.26 595.6,-346.54 603.41,-353.7 606.17,-347.26"/>
</g>
<!-- 9 -->
<g id="node10" class="node">
<title>9</title>
<polygon fill="none" stroke="black" points="896,-343.5 708,-343.5 708,-260.5 896,-260.5 896,-343.5"/>
<text text-anchor="middle" x="802" y="-328.3" font-family="Times,serif" font-size="14.00">node #9</text>
<text text-anchor="middle" x="802" y="-313.3" font-family="Times,serif" font-size="14.00">gini = 0.0</text>
<text text-anchor="middle" x="802" y="-298.3" font-family="Times,serif" font-size="14.00">samples = 1</text>
<text text-anchor="middle" x="802" y="-283.3" font-family="Times,serif" font-size="14.00">value = [0.994, 0.0]</text>
<text text-anchor="middle" x="802" y="-268.3" font-family="Times,serif" font-size="14.00">class = Non&#45;obstructive</text>
</g>
<!-- 1&#45;&gt;9 -->
<g id="edge9" class="edge">
<title>1&#45;&gt;9</title>
<path fill="none" stroke="black" d="M802,-386.97C802,-376.25 802,-364.84 802,-353.99"/>
<polygon fill="black" stroke="black" points="805.5,-353.82 802,-343.82 798.5,-353.82 805.5,-353.82"/>
</g>
<!-- 3 -->
<g id="node4" class="node">
<title>3</title>
<polygon fill="none" stroke="black" points="358,-217 182,-217 182,-119 358,-119 358,-217"/>
<text text-anchor="middle" x="270" y="-201.8" font-family="Times,serif" font-size="14.00">node #3</text>
<text text-anchor="middle" x="270" y="-186.8" font-family="Times,serif" font-size="14.00">FEFPreVal &lt;= 0.365</text>
<text text-anchor="middle" x="270" y="-171.8" font-family="Times,serif" font-size="14.00">gini = 0.5</text>
<text text-anchor="middle" x="270" y="-156.8" font-family="Times,serif" font-size="14.00">samples = 7</text>
<text text-anchor="middle" x="270" y="-141.8" font-family="Times,serif" font-size="14.00">value = [5.964, 6.036]</text>
<text text-anchor="middle" x="270" y="-126.8" font-family="Times,serif" font-size="14.00">class = Obstructive</text>
</g>
<!-- 2&#45;&gt;3 -->
<g id="edge3" class="edge">
<title>2&#45;&gt;3</title>
<path fill="none" stroke="black" d="M412.5,-252.97C395.67,-243.05 377.84,-232.55 360.71,-222.45"/>
<polygon fill="black" stroke="black" points="362.21,-219.28 351.82,-217.21 358.66,-225.31 362.21,-219.28"/>
</g>
<!-- 6 -->
<g id="node7" class="node">
<title>6</title>
<polygon fill="none" stroke="black" points="586.5,-217 401.5,-217 401.5,-119 586.5,-119 586.5,-217"/>
<text text-anchor="middle" x="494" y="-201.8" font-family="Times,serif" font-size="14.00">node #6</text>
<text text-anchor="middle" x="494" y="-186.8" font-family="Times,serif" font-size="14.00">FVCPostVal &lt;= 1.15</text>
<text text-anchor="middle" x="494" y="-171.8" font-family="Times,serif" font-size="14.00">gini = 0.08</text>
<text text-anchor="middle" x="494" y="-156.8" font-family="Times,serif" font-size="14.00">samples = 70</text>
<text text-anchor="middle" x="494" y="-141.8" font-family="Times,serif" font-size="14.00">value = [4.97, 114.687]</text>
<text text-anchor="middle" x="494" y="-126.8" font-family="Times,serif" font-size="14.00">class = Obstructive</text>
</g>
<!-- 2&#45;&gt;6 -->
<g id="edge6" class="edge">
<title>2&#45;&gt;6</title>
<path fill="none" stroke="black" d="M494,-252.97C494,-244.69 494,-236 494,-227.48"/>
<polygon fill="black" stroke="black" points="497.5,-227.21 494,-217.21 490.5,-227.21 497.5,-227.21"/>
</g>
<!-- 4 -->
<g id="node5" class="node">
<title>4</title>
<polygon fill="none" stroke="black" points="158,-83 0,-83 0,0 158,0 158,-83"/>
<text text-anchor="middle" x="79" y="-67.8" font-family="Times,serif" font-size="14.00">node #4</text>
<text text-anchor="middle" x="79" y="-52.8" font-family="Times,serif" font-size="14.00">gini = 0.0</text>
<text text-anchor="middle" x="79" y="-37.8" font-family="Times,serif" font-size="14.00">samples = 4</text>
<text text-anchor="middle" x="79" y="-22.8" font-family="Times,serif" font-size="14.00">value = [0.0, 6.036]</text>
<text text-anchor="middle" x="79" y="-7.8" font-family="Times,serif" font-size="14.00">class = Obstructive</text>
</g>
<!-- 3&#45;&gt;4 -->
<g id="edge4" class="edge">
<title>3&#45;&gt;4</title>
<path fill="none" stroke="black" d="M196.15,-118.87C180.97,-108.97 165.02,-98.57 149.95,-88.74"/>
<polygon fill="black" stroke="black" points="151.47,-85.56 141.18,-83.03 147.65,-91.43 151.47,-85.56"/>
</g>
<!-- 5 -->
<g id="node6" class="node">
<title>5</title>
<polygon fill="none" stroke="black" points="364,-83 176,-83 176,0 364,0 364,-83"/>
<text text-anchor="middle" x="270" y="-67.8" font-family="Times,serif" font-size="14.00">node #5</text>
<text text-anchor="middle" x="270" y="-52.8" font-family="Times,serif" font-size="14.00">gini = 0.0</text>
<text text-anchor="middle" x="270" y="-37.8" font-family="Times,serif" font-size="14.00">samples = 3</text>
<text text-anchor="middle" x="270" y="-22.8" font-family="Times,serif" font-size="14.00">value = [5.964, 0.0]</text>
<text text-anchor="middle" x="270" y="-7.8" font-family="Times,serif" font-size="14.00">class = Non&#45;obstructive</text>
</g>
<!-- 3&#45;&gt;5 -->
<g id="edge5" class="edge">
<title>3&#45;&gt;5</title>
<path fill="none" stroke="black" d="M270,-118.87C270,-110.5 270,-101.77 270,-93.33"/>
<polygon fill="black" stroke="black" points="273.5,-93.23 270,-83.23 266.5,-93.23 273.5,-93.23"/>
</g>
<!-- 7 -->
<g id="node8" class="node">
<title>7</title>
<polygon fill="none" stroke="black" points="558,-83 382,-83 382,0 558,0 558,-83"/>
<text text-anchor="middle" x="470" y="-67.8" font-family="Times,serif" font-size="14.00">node #7</text>
<text text-anchor="middle" x="470" y="-52.8" font-family="Times,serif" font-size="14.00">gini = 0.443</text>
<text text-anchor="middle" x="470" y="-37.8" font-family="Times,serif" font-size="14.00">samples = 4</text>
<text text-anchor="middle" x="470" y="-22.8" font-family="Times,serif" font-size="14.00">value = [1.988, 4.024]</text>
<text text-anchor="middle" x="470" y="-7.8" font-family="Times,serif" font-size="14.00">class = Obstructive</text>
</g>
<!-- 6&#45;&gt;7 -->
<g id="edge7" class="edge">
<title>6&#45;&gt;7</title>
<path fill="none" stroke="black" d="M484.72,-118.87C483.09,-110.41 481.39,-101.58 479.75,-93.06"/>
<polygon fill="black" stroke="black" points="483.18,-92.39 477.85,-83.23 476.31,-93.71 483.18,-92.39"/>
</g>
<!-- 8 -->
<g id="node9" class="node">
<title>8</title>
<polygon fill="none" stroke="black" points="770,-83 576,-83 576,0 770,0 770,-83"/>
<text text-anchor="middle" x="673" y="-67.8" font-family="Times,serif" font-size="14.00">node #8</text>
<text text-anchor="middle" x="673" y="-52.8" font-family="Times,serif" font-size="14.00">gini = 0.051</text>
<text text-anchor="middle" x="673" y="-37.8" font-family="Times,serif" font-size="14.00">samples = 66</text>
<text text-anchor="middle" x="673" y="-22.8" font-family="Times,serif" font-size="14.00">value = [2.982, 110.663]</text>
<text text-anchor="middle" x="673" y="-7.8" font-family="Times,serif" font-size="14.00">class = Obstructive</text>
</g>
<!-- 6&#45;&gt;8 -->
<g id="edge8" class="edge">
<title>6&#45;&gt;8</title>
<path fill="none" stroke="black" d="M563.21,-118.87C577.43,-108.97 592.38,-98.57 606.51,-88.74"/>
<polygon fill="black" stroke="black" points="608.51,-91.62 614.72,-83.03 604.52,-85.87 608.51,-91.62"/>
</g>
<!-- 11 -->
<g id="node12" class="node">
<title>11</title>
<polygon fill="none" stroke="black" points="1190.5,-351 993.5,-351 993.5,-253 1190.5,-253 1190.5,-351"/>
<text text-anchor="middle" x="1092" y="-335.8" font-family="Times,serif" font-size="14.00">node #11</text>
<text text-anchor="middle" x="1092" y="-320.8" font-family="Times,serif" font-size="14.00">FEFPostPercent &lt;= 59.5</text>
<text text-anchor="middle" x="1092" y="-305.8" font-family="Times,serif" font-size="14.00">gini = 0.021</text>
<text text-anchor="middle" x="1092" y="-290.8" font-family="Times,serif" font-size="14.00">samples = 56</text>
<text text-anchor="middle" x="1092" y="-275.8" font-family="Times,serif" font-size="14.00">value = [94.435, 1.006]</text>
<text text-anchor="middle" x="1092" y="-260.8" font-family="Times,serif" font-size="14.00">class = Non&#45;obstructive</text>
</g>
<!-- 10&#45;&gt;11 -->
<g id="edge11" class="edge">
<title>10&#45;&gt;11</title>
<path fill="none" stroke="black" d="M1092,-386.97C1092,-378.69 1092,-370 1092,-361.48"/>
<polygon fill="black" stroke="black" points="1095.5,-361.21 1092,-351.21 1088.5,-361.21 1095.5,-361.21"/>
</g>
<!-- 16 -->
<g id="node17" class="node">
<title>16</title>
<polygon fill="none" stroke="black" points="1487,-351 1293,-351 1293,-253 1487,-253 1487,-351"/>
<text text-anchor="middle" x="1390" y="-335.8" font-family="Times,serif" font-size="14.00">node #16</text>
<text text-anchor="middle" x="1390" y="-320.8" font-family="Times,serif" font-size="14.00">FVCPostVal &lt;= 2.215</text>
<text text-anchor="middle" x="1390" y="-305.8" font-family="Times,serif" font-size="14.00">gini = 0.489</text>
<text text-anchor="middle" x="1390" y="-290.8" font-family="Times,serif" font-size="14.00">samples = 77</text>
<text text-anchor="middle" x="1390" y="-275.8" font-family="Times,serif" font-size="14.00">value = [60.637, 45.271]</text>
<text text-anchor="middle" x="1390" y="-260.8" font-family="Times,serif" font-size="14.00">class = Non&#45;obstructive</text>
</g>
<!-- 10&#45;&gt;16 -->
<g id="edge16" class="edge">
<title>10&#45;&gt;16</title>
<path fill="none" stroke="black" d="M1193.72,-389.94C1222.63,-377.14 1254.18,-363.16 1283.37,-350.23"/>
<polygon fill="black" stroke="black" points="1285.04,-353.32 1292.76,-346.07 1282.2,-346.92 1285.04,-353.32"/>
</g>
<!-- 12 -->
<g id="node13" class="node">
<title>12</title>
<polygon fill="none" stroke="black" points="1027,-217 827,-217 827,-119 1027,-119 1027,-217"/>
<text text-anchor="middle" x="927" y="-201.8" font-family="Times,serif" font-size="14.00">node #12</text>
<text text-anchor="middle" x="927" y="-186.8" font-family="Times,serif" font-size="14.00">FEV1PrePercent &lt;= 44.5</text>
<text text-anchor="middle" x="927" y="-171.8" font-family="Times,serif" font-size="14.00">gini = 0.067</text>
<text text-anchor="middle" x="927" y="-156.8" font-family="Times,serif" font-size="14.00">samples = 17</text>
<text text-anchor="middle" x="927" y="-141.8" font-family="Times,serif" font-size="14.00">value = [27.833, 1.006]</text>
<text text-anchor="middle" x="927" y="-126.8" font-family="Times,serif" font-size="14.00">class = Non&#45;obstructive</text>
</g>
<!-- 11&#45;&gt;12 -->
<g id="edge12" class="edge">
<title>11&#45;&gt;12</title>
<path fill="none" stroke="black" d="M1031.96,-252.97C1020.02,-243.42 1007.4,-233.32 995.21,-223.57"/>
<polygon fill="black" stroke="black" points="997.26,-220.73 987.27,-217.21 992.89,-226.19 997.26,-220.73"/>
</g>
<!-- 15 -->
<g id="node16" class="node">
<title>15</title>
<polygon fill="none" stroke="black" points="1233,-209.5 1045,-209.5 1045,-126.5 1233,-126.5 1233,-209.5"/>
<text text-anchor="middle" x="1139" y="-194.3" font-family="Times,serif" font-size="14.00">node #15</text>
<text text-anchor="middle" x="1139" y="-179.3" font-family="Times,serif" font-size="14.00">gini = 0.0</text>
<text text-anchor="middle" x="1139" y="-164.3" font-family="Times,serif" font-size="14.00">samples = 39</text>
<text text-anchor="middle" x="1139" y="-149.3" font-family="Times,serif" font-size="14.00">value = [66.601, 0.0]</text>
<text text-anchor="middle" x="1139" y="-134.3" font-family="Times,serif" font-size="14.00">class = Non&#45;obstructive</text>
</g>
<!-- 11&#45;&gt;15 -->
<g id="edge15" class="edge">
<title>11&#45;&gt;15</title>
<path fill="none" stroke="black" d="M1109.1,-252.97C1113,-242.02 1117.15,-230.36 1121.08,-219.32"/>
<polygon fill="black" stroke="black" points="1124.41,-220.41 1124.47,-209.82 1117.82,-218.06 1124.41,-220.41"/>
</g>
<!-- 13 -->
<g id="node14" class="node">
<title>13</title>
<polygon fill="none" stroke="black" points="976,-83 788,-83 788,0 976,0 976,-83"/>
<text text-anchor="middle" x="882" y="-67.8" font-family="Times,serif" font-size="14.00">node #13</text>
<text text-anchor="middle" x="882" y="-52.8" font-family="Times,serif" font-size="14.00">gini = 0.247</text>
<text text-anchor="middle" x="882" y="-37.8" font-family="Times,serif" font-size="14.00">samples = 6</text>
<text text-anchor="middle" x="882" y="-22.8" font-family="Times,serif" font-size="14.00">value = [5.964, 1.006]</text>
<text text-anchor="middle" x="882" y="-7.8" font-family="Times,serif" font-size="14.00">class = Non&#45;obstructive</text>
</g>
<!-- 12&#45;&gt;13 -->
<g id="edge13" class="edge">
<title>12&#45;&gt;13</title>
<path fill="none" stroke="black" d="M909.6,-118.87C906.51,-110.31 903.28,-101.39 900.17,-92.78"/>
<polygon fill="black" stroke="black" points="903.41,-91.45 896.72,-83.23 896.83,-93.83 903.41,-91.45"/>
</g>
<!-- 14 -->
<g id="node15" class="node">
<title>14</title>
<polygon fill="none" stroke="black" points="1182,-83 994,-83 994,0 1182,0 1182,-83"/>
<text text-anchor="middle" x="1088" y="-67.8" font-family="Times,serif" font-size="14.00">node #14</text>
<text text-anchor="middle" x="1088" y="-52.8" font-family="Times,serif" font-size="14.00">gini = &#45;0.0</text>
<text text-anchor="middle" x="1088" y="-37.8" font-family="Times,serif" font-size="14.00">samples = 11</text>
<text text-anchor="middle" x="1088" y="-22.8" font-family="Times,serif" font-size="14.00">value = [21.869, 0.0]</text>
<text text-anchor="middle" x="1088" y="-7.8" font-family="Times,serif" font-size="14.00">class = Non&#45;obstructive</text>
</g>
<!-- 12&#45;&gt;14 -->
<g id="edge14" class="edge">
<title>12&#45;&gt;14</title>
<path fill="none" stroke="black" d="M989.25,-118.87C1001.8,-109.15 1014.99,-98.96 1027.48,-89.3"/>
<polygon fill="black" stroke="black" points="1029.81,-91.92 1035.58,-83.03 1025.53,-86.38 1029.81,-91.92"/>
</g>
<!-- 17 -->
<g id="node18" class="node">
<title>17</title>
<polygon fill="none" stroke="black" points="1484,-217 1296,-217 1296,-119 1484,-119 1484,-217"/>
<text text-anchor="middle" x="1390" y="-201.8" font-family="Times,serif" font-size="14.00">node #17</text>
<text text-anchor="middle" x="1390" y="-186.8" font-family="Times,serif" font-size="14.00">FEFPostVal &lt;= 1.675</text>
<text text-anchor="middle" x="1390" y="-171.8" font-family="Times,serif" font-size="14.00">gini = 0.309</text>
<text text-anchor="middle" x="1390" y="-156.8" font-family="Times,serif" font-size="14.00">samples = 25</text>
<text text-anchor="middle" x="1390" y="-141.8" font-family="Times,serif" font-size="14.00">value = [29.821, 7.042]</text>
<text text-anchor="middle" x="1390" y="-126.8" font-family="Times,serif" font-size="14.00">class = Non&#45;obstructive</text>
</g>
<!-- 16&#45;&gt;17 -->
<g id="edge17" class="edge">
<title>16&#45;&gt;17</title>
<path fill="none" stroke="black" d="M1390,-252.97C1390,-244.69 1390,-236 1390,-227.48"/>
<polygon fill="black" stroke="black" points="1393.5,-227.21 1390,-217.21 1386.5,-227.21 1393.5,-227.21"/>
</g>
<!-- 20 -->
<g id="node21" class="node">
<title>20</title>
<polygon fill="none" stroke="black" points="1785,-217 1591,-217 1591,-119 1785,-119 1785,-217"/>
<text text-anchor="middle" x="1688" y="-201.8" font-family="Times,serif" font-size="14.00">node #20</text>
<text text-anchor="middle" x="1688" y="-186.8" font-family="Times,serif" font-size="14.00">FEFPrePercent &lt;= 68.5</text>
<text text-anchor="middle" x="1688" y="-171.8" font-family="Times,serif" font-size="14.00">gini = 0.494</text>
<text text-anchor="middle" x="1688" y="-156.8" font-family="Times,serif" font-size="14.00">samples = 52</text>
<text text-anchor="middle" x="1688" y="-141.8" font-family="Times,serif" font-size="14.00">value = [30.815, 38.229]</text>
<text text-anchor="middle" x="1688" y="-126.8" font-family="Times,serif" font-size="14.00">class = Obstructive</text>
</g>
<!-- 16&#45;&gt;20 -->
<g id="edge20" class="edge">
<title>16&#45;&gt;20</title>
<path fill="none" stroke="black" d="M1487.16,-257.96C1517.33,-244.6 1550.74,-229.8 1581.51,-216.17"/>
<polygon fill="black" stroke="black" points="1583.24,-219.23 1590.97,-211.98 1580.41,-212.83 1583.24,-219.23"/>
</g>
<!-- 18 -->
<g id="node19" class="node">
<title>18</title>
<polygon fill="none" stroke="black" points="1376,-83 1200,-83 1200,0 1376,0 1376,-83"/>
<text text-anchor="middle" x="1288" y="-67.8" font-family="Times,serif" font-size="14.00">node #18</text>
<text text-anchor="middle" x="1288" y="-52.8" font-family="Times,serif" font-size="14.00">gini = 0.373</text>
<text text-anchor="middle" x="1288" y="-37.8" font-family="Times,serif" font-size="14.00">samples = 4</text>
<text text-anchor="middle" x="1288" y="-22.8" font-family="Times,serif" font-size="14.00">value = [0.994, 3.018]</text>
<text text-anchor="middle" x="1288" y="-7.8" font-family="Times,serif" font-size="14.00">class = Obstructive</text>
</g>
<!-- 17&#45;&gt;18 -->
<g id="edge18" class="edge">
<title>17&#45;&gt;18</title>
<path fill="none" stroke="black" d="M1350.56,-118.87C1343.11,-109.76 1335.3,-100.23 1327.83,-91.12"/>
<polygon fill="black" stroke="black" points="1330.41,-88.75 1321.37,-83.23 1325,-93.18 1330.41,-88.75"/>
</g>
<!-- 19 -->
<g id="node20" class="node">
<title>19</title>
<polygon fill="none" stroke="black" points="1582,-83 1394,-83 1394,0 1582,0 1582,-83"/>
<text text-anchor="middle" x="1488" y="-67.8" font-family="Times,serif" font-size="14.00">node #19</text>
<text text-anchor="middle" x="1488" y="-52.8" font-family="Times,serif" font-size="14.00">gini = 0.215</text>
<text text-anchor="middle" x="1488" y="-37.8" font-family="Times,serif" font-size="14.00">samples = 21</text>
<text text-anchor="middle" x="1488" y="-22.8" font-family="Times,serif" font-size="14.00">value = [28.827, 4.024]</text>
<text text-anchor="middle" x="1488" y="-7.8" font-family="Times,serif" font-size="14.00">class = Non&#45;obstructive</text>
</g>
<!-- 17&#45;&gt;19 -->
<g id="edge19" class="edge">
<title>17&#45;&gt;19</title>
<path fill="none" stroke="black" d="M1427.89,-118.87C1435.05,-109.76 1442.55,-100.23 1449.73,-91.12"/>
<polygon fill="black" stroke="black" points="1452.5,-93.25 1455.94,-83.23 1447,-88.92 1452.5,-93.25"/>
</g>
<!-- 21 -->
<g id="node22" class="node">
<title>21</title>
<polygon fill="none" stroke="black" points="1776,-83 1600,-83 1600,0 1776,0 1776,-83"/>
<text text-anchor="middle" x="1688" y="-67.8" font-family="Times,serif" font-size="14.00">node #21</text>
<text text-anchor="middle" x="1688" y="-52.8" font-family="Times,serif" font-size="14.00">gini = 0.42</text>
<text text-anchor="middle" x="1688" y="-37.8" font-family="Times,serif" font-size="14.00">samples = 24</text>
<text text-anchor="middle" x="1688" y="-22.8" font-family="Times,serif" font-size="14.00">value = [9.94, 23.139]</text>
<text text-anchor="middle" x="1688" y="-7.8" font-family="Times,serif" font-size="14.00">class = Obstructive</text>
</g>
<!-- 20&#45;&gt;21 -->
<g id="edge21" class="edge">
<title>20&#45;&gt;21</title>
<path fill="none" stroke="black" d="M1688,-118.87C1688,-110.5 1688,-101.77 1688,-93.33"/>
<polygon fill="black" stroke="black" points="1691.5,-93.23 1688,-83.23 1684.5,-93.23 1691.5,-93.23"/>
</g>
<!-- 22 -->
<g id="node23" class="node">
<title>22</title>
<polygon fill="none" stroke="black" points="1982,-83 1794,-83 1794,0 1982,0 1982,-83"/>
<text text-anchor="middle" x="1888" y="-67.8" font-family="Times,serif" font-size="14.00">node #22</text>
<text text-anchor="middle" x="1888" y="-52.8" font-family="Times,serif" font-size="14.00">gini = 0.487</text>
<text text-anchor="middle" x="1888" y="-37.8" font-family="Times,serif" font-size="14.00">samples = 28</text>
<text text-anchor="middle" x="1888" y="-22.8" font-family="Times,serif" font-size="14.00">value = [20.875, 15.09]</text>
<text text-anchor="middle" x="1888" y="-7.8" font-family="Times,serif" font-size="14.00">class = Non&#45;obstructive</text>
</g>
<!-- 20&#45;&gt;22 -->
<g id="edge22" class="edge">
<title>20&#45;&gt;22</title>
<path fill="none" stroke="black" d="M1765.33,-118.87C1781.37,-108.88 1798.24,-98.38 1814.15,-88.47"/>
<polygon fill="black" stroke="black" points="1816.25,-91.29 1822.89,-83.03 1812.55,-85.35 1816.25,-91.29"/>
</g>
</g>
</svg>
