<?xml version="1.0" encoding="UTF-8" standalone="no"?>
<!DOCTYPE svg PUBLIC "-//W3C//DTD SVG 1.1//EN"
 "http://www.w3.org/Graphics/SVG/1.1/DTD/svg11.dtd">
<!-- Generated by graphviz version 2.43.0 (0)
 -->
<!-- Title: Tree Pages: 1 -->
<svg width="2173pt" height="627pt"
 viewBox="0.00 0.00 2173.00 627.00" xmlns="http://www.w3.org/2000/svg" xmlns:xlink="http://www.w3.org/1999/xlink">
<g id="graph0" class="graph" transform="scale(1 1) rotate(0) translate(4 623)">
<title>Tree</title>
<polygon fill="white" stroke="transparent" points="-4,4 -4,-623 2169,-623 2169,4 -4,4"/>
<!-- 0 -->
<g id="node1" class="node">
<title>0</title>
<polygon fill="none" stroke="black" points="977.5,-619 786.5,-619 786.5,-521 977.5,-521 977.5,-619"/>
<text text-anchor="middle" x="882" y="-603.8" font-family="Times,serif" font-size="14.00">node #0</text>
<text text-anchor="middle" x="882" y="-588.8" font-family="Times,serif" font-size="14.00">FEFPrePercent &lt;= 38.5</text>
<text text-anchor="middle" x="882" y="-573.8" font-family="Times,serif" font-size="14.00">gini = 0.5</text>
<text text-anchor="middle" x="882" y="-558.8" font-family="Times,serif" font-size="14.00">samples = 216</text>
<text text-anchor="middle" x="882" y="-543.8" font-family="Times,serif" font-size="14.00">value = [167.0, 167.0]</text>
<text text-anchor="middle" x="882" y="-528.8" font-family="Times,serif" font-size="14.00">class = Obstructive</text>
</g>
<!-- 1 -->
<g id="node2" class="node">
<title>1</title>
<polygon fill="none" stroke="black" points="688,-485 482,-485 482,-387 688,-387 688,-485"/>
<text text-anchor="middle" x="585" y="-469.8" font-family="Times,serif" font-size="14.00">node #1</text>
<text text-anchor="middle" x="585" y="-454.8" font-family="Times,serif" font-size="14.00">FEFPostPercent &lt;= 3.825</text>
<text text-anchor="middle" x="585" y="-439.8" font-family="Times,serif" font-size="14.00">gini = 0.214</text>
<text text-anchor="middle" x="585" y="-424.8" font-family="Times,serif" font-size="14.00">samples = 88</text>
<text text-anchor="middle" x="585" y="-409.8" font-family="Times,serif" font-size="14.00">value = [17.682, 127.287]</text>
<text text-anchor="middle" x="585" y="-394.8" font-family="Times,serif" font-size="14.00">class = Obstructive</text>
</g>
<!-- 0&#45;&gt;1 -->
<g id="edge1" class="edge">
<title>0&#45;&gt;1</title>
<path fill="none" stroke="black" d="M786.39,-526.51C758.08,-513.93 726.83,-500.03 697.55,-487.02"/>
<polygon fill="black" stroke="black" points="698.68,-483.7 688.12,-482.83 695.84,-490.09 698.68,-483.7"/>
<text text-anchor="middle" x="697.1" y="-502.47" font-family="Times,serif" font-size="14.00">True</text>
</g>
<!-- 12 -->
<g id="node13" class="node">
<title>12</title>
<polygon fill="none" stroke="black" points="1179.5,-485 976.5,-485 976.5,-387 1179.5,-387 1179.5,-485"/>
<text text-anchor="middle" x="1078" y="-469.8" font-family="Times,serif" font-size="14.00">node #12</text>
<text text-anchor="middle" x="1078" y="-454.8" font-family="Times,serif" font-size="14.00">FVCPostVal &lt;= 2.06</text>
<text text-anchor="middle" x="1078" y="-439.8" font-family="Times,serif" font-size="14.00">gini = 0.332</text>
<text text-anchor="middle" x="1078" y="-424.8" font-family="Times,serif" font-size="14.00">samples = 128</text>
<text text-anchor="middle" x="1078" y="-409.8" font-family="Times,serif" font-size="14.00">value = [149.318, 39.713]</text>
<text text-anchor="middle" x="1078" y="-394.8" font-family="Times,serif" font-size="14.00">class = Non&#45;obstructive</text>
</g>
<!-- 0&#45;&gt;12 -->
<g id="edge12" class="edge">
<title>0&#45;&gt;12</title>
<path fill="none" stroke="black" d="M953.31,-520.97C967.77,-511.24 983.07,-500.93 997.81,-491.01"/>
<polygon fill="black" stroke="black" points="1000.07,-493.7 1006.41,-485.21 996.16,-487.9 1000.07,-493.7"/>
<text text-anchor="middle" x="1001.62" y="-506.05" font-family="Times,serif" font-size="14.00">False</text>
</g>
<!-- 2 -->
<g id="node3" class="node">
<title>2</title>
<polygon fill="none" stroke="black" points="365.5,-351 174.5,-351 174.5,-253 365.5,-253 365.5,-351"/>
<text text-anchor="middle" x="270" y="-335.8" font-family="Times,serif" font-size="14.00">node #2</text>
<text text-anchor="middle" x="270" y="-320.8" font-family="Times,serif" font-size="14.00">FEFPrePercent &lt;= 15.0</text>
<text text-anchor="middle" x="270" y="-305.8" font-family="Times,serif" font-size="14.00">gini = 0.327</text>
<text text-anchor="middle" x="270" y="-290.8" font-family="Times,serif" font-size="14.00">samples = 3</text>
<text text-anchor="middle" x="270" y="-275.8" font-family="Times,serif" font-size="14.00">value = [3.929, 1.018]</text>
<text text-anchor="middle" x="270" y="-260.8" font-family="Times,serif" font-size="14.00">class = Non&#45;obstructive</text>
</g>
<!-- 1&#45;&gt;2 -->
<g id="edge2" class="edge">
<title>1&#45;&gt;2</title>
<path fill="none" stroke="black" d="M481.86,-391.78C447.66,-377.45 409.57,-361.49 375.22,-347.09"/>
<polygon fill="black" stroke="black" points="376.21,-343.71 365.64,-343.08 373.51,-350.17 376.21,-343.71"/>
</g>
<!-- 5 -->
<g id="node6" class="node">
<title>5</title>
<polygon fill="none" stroke="black" points="686.5,-351 483.5,-351 483.5,-253 686.5,-253 686.5,-351"/>
<text text-anchor="middle" x="585" y="-335.8" font-family="Times,serif" font-size="14.00">node #5</text>
<text text-anchor="middle" x="585" y="-320.8" font-family="Times,serif" font-size="14.00">FEFPreVal &lt;= 0.685</text>
<text text-anchor="middle" x="585" y="-305.8" font-family="Times,serif" font-size="14.00">gini = 0.177</text>
<text text-anchor="middle" x="585" y="-290.8" font-family="Times,serif" font-size="14.00">samples = 85</text>
<text text-anchor="middle" x="585" y="-275.8" font-family="Times,serif" font-size="14.00">value = [13.753, 126.268]</text>
<text text-anchor="middle" x="585" y="-260.8" font-family="Times,serif" font-size="14.00">class = Obstructive</text>
</g>
<!-- 1&#45;&gt;5 -->
<g id="edge5" class="edge">
<title>1&#45;&gt;5</title>
<path fill="none" stroke="black" d="M585,-386.97C585,-378.69 585,-370 585,-361.48"/>
<polygon fill="black" stroke="black" points="588.5,-361.21 585,-351.21 581.5,-361.21 588.5,-361.21"/>
</g>
<!-- 3 -->
<g id="node4" class="node">
<title>3</title>
<polygon fill="none" stroke="black" points="158,-209.5 0,-209.5 0,-126.5 158,-126.5 158,-209.5"/>
<text text-anchor="middle" x="79" y="-194.3" font-family="Times,serif" font-size="14.00">node #3</text>
<text text-anchor="middle" x="79" y="-179.3" font-family="Times,serif" font-size="14.00">gini = 0.0</text>
<text text-anchor="middle" x="79" y="-164.3" font-family="Times,serif" font-size="14.00">samples = 1</text>
<text text-anchor="middle" x="79" y="-149.3" font-family="Times,serif" font-size="14.00">value = [0.0, 1.018]</text>
<text text-anchor="middle" x="79" y="-134.3" font-family="Times,serif" font-size="14.00">class = Obstructive</text>
</g>
<!-- 2&#45;&gt;3 -->
<g id="edge3" class="edge">
<title>2&#45;&gt;3</title>
<path fill="none" stroke="black" d="M200.5,-252.97C182.81,-240.75 163.83,-227.63 146.26,-215.48"/>
<polygon fill="black" stroke="black" points="147.97,-212.41 137.75,-209.6 143.99,-218.17 147.97,-212.41"/>
</g>
<!-- 4 -->
<g id="node5" class="node">
<title>4</title>
<polygon fill="none" stroke="black" points="364,-209.5 176,-209.5 176,-126.5 364,-126.5 364,-209.5"/>
<text text-anchor="middle" x="270" y="-194.3" font-family="Times,serif" font-size="14.00">node #4</text>
<text text-anchor="middle" x="270" y="-179.3" font-family="Times,serif" font-size="14.00">gini = &#45;0.0</text>
<text text-anchor="middle" x="270" y="-164.3" font-family="Times,serif" font-size="14.00">samples = 2</text>
<text text-anchor="middle" x="270" y="-149.3" font-family="Times,serif" font-size="14.00">value = [3.929, 0.0]</text>
<text text-anchor="middle" x="270" y="-134.3" font-family="Times,serif" font-size="14.00">class = Non&#45;obstructive</text>
</g>
<!-- 2&#45;&gt;4 -->
<g id="edge4" class="edge">
<title>2&#45;&gt;4</title>
<path fill="none" stroke="black" d="M270,-252.97C270,-242.25 270,-230.84 270,-219.99"/>
<polygon fill="black" stroke="black" points="273.5,-219.82 270,-209.82 266.5,-219.82 273.5,-219.82"/>
</g>
<!-- 6 -->
<g id="node7" class="node">
<title>6</title>
<polygon fill="none" stroke="black" points="573.5,-217 382.5,-217 382.5,-119 573.5,-119 573.5,-217"/>
<text text-anchor="middle" x="478" y="-201.8" font-family="Times,serif" font-size="14.00">node #6</text>
<text text-anchor="middle" x="478" y="-186.8" font-family="Times,serif" font-size="14.00">FEFPrePercent &lt;= 19.5</text>
<text text-anchor="middle" x="478" y="-171.8" font-family="Times,serif" font-size="14.00">gini = 0.024</text>
<text text-anchor="middle" x="478" y="-156.8" font-family="Times,serif" font-size="14.00">samples = 46</text>
<text text-anchor="middle" x="478" y="-141.8" font-family="Times,serif" font-size="14.00">value = [0.982, 78.409]</text>
<text text-anchor="middle" x="478" y="-126.8" font-family="Times,serif" font-size="14.00">class = Obstructive</text>
</g>
<!-- 5&#45;&gt;6 -->
<g id="edge6" class="edge">
<title>5&#45;&gt;6</title>
<path fill="none" stroke="black" d="M546.07,-252.97C538.77,-243.96 531.07,-234.47 523.59,-225.24"/>
<polygon fill="black" stroke="black" points="526.1,-222.78 517.08,-217.21 520.66,-227.19 526.1,-222.78"/>
</g>
<!-- 9 -->
<g id="node10" class="node">
<title>9</title>
<polygon fill="none" stroke="black" points="788.5,-217 591.5,-217 591.5,-119 788.5,-119 788.5,-217"/>
<text text-anchor="middle" x="690" y="-201.8" font-family="Times,serif" font-size="14.00">node #9</text>
<text text-anchor="middle" x="690" y="-186.8" font-family="Times,serif" font-size="14.00">FVCPostPercent &lt;= 61.5</text>
<text text-anchor="middle" x="690" y="-171.8" font-family="Times,serif" font-size="14.00">gini = 0.333</text>
<text text-anchor="middle" x="690" y="-156.8" font-family="Times,serif" font-size="14.00">samples = 39</text>
<text text-anchor="middle" x="690" y="-141.8" font-family="Times,serif" font-size="14.00">value = [12.771, 47.86]</text>
<text text-anchor="middle" x="690" y="-126.8" font-family="Times,serif" font-size="14.00">class = Obstructive</text>
</g>
<!-- 5&#45;&gt;9 -->
<g id="edge9" class="edge">
<title>5&#45;&gt;9</title>
<path fill="none" stroke="black" d="M623.2,-252.97C630.37,-243.96 637.92,-234.47 645.26,-225.24"/>
<polygon fill="black" stroke="black" points="648.16,-227.22 651.65,-217.21 642.68,-222.86 648.16,-227.22"/>
</g>
<!-- 7 -->
<g id="node8" class="node">
<title>7</title>
<polygon fill="none" stroke="black" points="367.5,-83 200.5,-83 200.5,0 367.5,0 367.5,-83"/>
<text text-anchor="middle" x="284" y="-67.8" font-family="Times,serif" font-size="14.00">node #7</text>
<text text-anchor="middle" x="284" y="-52.8" font-family="Times,serif" font-size="14.00">gini = &#45;0.0</text>
<text text-anchor="middle" x="284" y="-37.8" font-family="Times,serif" font-size="14.00">samples = 37</text>
<text text-anchor="middle" x="284" y="-22.8" font-family="Times,serif" font-size="14.00">value = [0.0, 68.226]</text>
<text text-anchor="middle" x="284" y="-7.8" font-family="Times,serif" font-size="14.00">class = Obstructive</text>
</g>
<!-- 6&#45;&gt;7 -->
<g id="edge7" class="edge">
<title>6&#45;&gt;7</title>
<path fill="none" stroke="black" d="M402.99,-118.87C387.43,-108.88 371.07,-98.38 355.63,-88.47"/>
<polygon fill="black" stroke="black" points="357.47,-85.49 347.16,-83.03 353.68,-91.38 357.47,-85.49"/>
</g>
<!-- 8 -->
<g id="node9" class="node">
<title>8</title>
<polygon fill="none" stroke="black" points="570.5,-83 385.5,-83 385.5,0 570.5,0 570.5,-83"/>
<text text-anchor="middle" x="478" y="-67.8" font-family="Times,serif" font-size="14.00">node #8</text>
<text text-anchor="middle" x="478" y="-52.8" font-family="Times,serif" font-size="14.00">gini = 0.16</text>
<text text-anchor="middle" x="478" y="-37.8" font-family="Times,serif" font-size="14.00">samples = 9</text>
<text text-anchor="middle" x="478" y="-22.8" font-family="Times,serif" font-size="14.00">value = [0.982, 10.183]</text>
<text text-anchor="middle" x="478" y="-7.8" font-family="Times,serif" font-size="14.00">class = Obstructive</text>
</g>
<!-- 6&#45;&gt;8 -->
<g id="edge8" class="edge">
<title>6&#45;&gt;8</title>
<path fill="none" stroke="black" d="M478,-118.87C478,-110.5 478,-101.77 478,-93.33"/>
<polygon fill="black" stroke="black" points="481.5,-93.23 478,-83.23 474.5,-93.23 481.5,-93.23"/>
</g>
<!-- 10 -->
<g id="node11" class="node">
<title>10</title>
<polygon fill="none" stroke="black" points="777,-83 589,-83 589,0 777,0 777,-83"/>
<text text-anchor="middle" x="683" y="-67.8" font-family="Times,serif" font-size="14.00">node #10</text>
<text text-anchor="middle" x="683" y="-52.8" font-family="Times,serif" font-size="14.00">gini = 0.5</text>
<text text-anchor="middle" x="683" y="-37.8" font-family="Times,serif" font-size="14.00">samples = 15</text>
<text text-anchor="middle" x="683" y="-22.8" font-family="Times,serif" font-size="14.00">value = [12.771, 12.22]</text>
<text text-anchor="middle" x="683" y="-7.8" font-family="Times,serif" font-size="14.00">class = Non&#45;obstructive</text>
</g>
<!-- 9&#45;&gt;10 -->
<g id="edge10" class="edge">
<title>9&#45;&gt;10</title>
<path fill="none" stroke="black" d="M687.29,-118.87C686.82,-110.5 686.33,-101.77 685.86,-93.33"/>
<polygon fill="black" stroke="black" points="689.35,-93.02 685.29,-83.23 682.36,-93.41 689.35,-93.02"/>
</g>
<!-- 11 -->
<g id="node12" class="node">
<title>11</title>
<polygon fill="none" stroke="black" points="953,-83 795,-83 795,0 953,0 953,-83"/>
<text text-anchor="middle" x="874" y="-67.8" font-family="Times,serif" font-size="14.00">node #11</text>
<text text-anchor="middle" x="874" y="-52.8" font-family="Times,serif" font-size="14.00">gini = 0.0</text>
<text text-anchor="middle" x="874" y="-37.8" font-family="Times,serif" font-size="14.00">samples = 24</text>
<text text-anchor="middle" x="874" y="-22.8" font-family="Times,serif" font-size="14.00">value = [0.0, 35.64]</text>
<text text-anchor="middle" x="874" y="-7.8" font-family="Times,serif" font-size="14.00">class = Obstructive</text>
</g>
<!-- 9&#45;&gt;11 -->
<g id="edge11" class="edge">
<title>9&#45;&gt;11</title>
<path fill="none" stroke="black" d="M761.14,-118.87C775.76,-108.97 791.13,-98.57 805.65,-88.74"/>
<polygon fill="black" stroke="black" points="807.78,-91.54 814.1,-83.03 803.85,-85.74 807.78,-91.54"/>
</g>
<!-- 13 -->
<g id="node14" class="node">
<title>13</title>
<polygon fill="none" stroke="black" points="1172,-351 984,-351 984,-253 1172,-253 1172,-351"/>
<text text-anchor="middle" x="1078" y="-335.8" font-family="Times,serif" font-size="14.00">node #13</text>
<text text-anchor="middle" x="1078" y="-320.8" font-family="Times,serif" font-size="14.00">FEFPostVal &lt;= 1.11</text>
<text text-anchor="middle" x="1078" y="-305.8" font-family="Times,serif" font-size="14.00">gini = 0.083</text>
<text text-anchor="middle" x="1078" y="-290.8" font-family="Times,serif" font-size="14.00">samples = 66</text>
<text text-anchor="middle" x="1078" y="-275.8" font-family="Times,serif" font-size="14.00">value = [90.376, 4.073]</text>
<text text-anchor="middle" x="1078" y="-260.8" font-family="Times,serif" font-size="14.00">class = Non&#45;obstructive</text>
</g>
<!-- 12&#45;&gt;13 -->
<g id="edge13" class="edge">
<title>12&#45;&gt;13</title>
<path fill="none" stroke="black" d="M1078,-386.97C1078,-378.69 1078,-370 1078,-361.48"/>
<polygon fill="black" stroke="black" points="1081.5,-361.21 1078,-351.21 1074.5,-361.21 1081.5,-361.21"/>
</g>
<!-- 18 -->
<g id="node19" class="node">
<title>18</title>
<polygon fill="none" stroke="black" points="1672,-351 1484,-351 1484,-253 1672,-253 1672,-351"/>
<text text-anchor="middle" x="1578" y="-335.8" font-family="Times,serif" font-size="14.00">node #18</text>
<text text-anchor="middle" x="1578" y="-320.8" font-family="Times,serif" font-size="14.00">FVCPostVal &lt;= 3.555</text>
<text text-anchor="middle" x="1578" y="-305.8" font-family="Times,serif" font-size="14.00">gini = 0.47</text>
<text text-anchor="middle" x="1578" y="-290.8" font-family="Times,serif" font-size="14.00">samples = 62</text>
<text text-anchor="middle" x="1578" y="-275.8" font-family="Times,serif" font-size="14.00">value = [58.941, 35.64]</text>
<text text-anchor="middle" x="1578" y="-260.8" font-family="Times,serif" font-size="14.00">class = Non&#45;obstructive</text>
</g>
<!-- 12&#45;&gt;18 -->
<g id="edge18" class="edge">
<title>12&#45;&gt;18</title>
<path fill="none" stroke="black" d="M1179.79,-408.13C1265.57,-385.48 1387.78,-353.22 1474.14,-330.42"/>
<polygon fill="black" stroke="black" points="1475.19,-333.76 1483.96,-327.83 1473.4,-326.99 1475.19,-333.76"/>
</g>
<!-- 14 -->
<g id="node15" class="node">
<title>14</title>
<polygon fill="none" stroke="black" points="1062,-209.5 904,-209.5 904,-126.5 1062,-126.5 1062,-209.5"/>
<text text-anchor="middle" x="983" y="-194.3" font-family="Times,serif" font-size="14.00">node #14</text>
<text text-anchor="middle" x="983" y="-179.3" font-family="Times,serif" font-size="14.00">gini = 0.0</text>
<text text-anchor="middle" x="983" y="-164.3" font-family="Times,serif" font-size="14.00">samples = 3</text>
<text text-anchor="middle" x="983" y="-149.3" font-family="Times,serif" font-size="14.00">value = [0.0, 3.055]</text>
<text text-anchor="middle" x="983" y="-134.3" font-family="Times,serif" font-size="14.00">class = Obstructive</text>
</g>
<!-- 13&#45;&gt;14 -->
<g id="edge14" class="edge">
<title>13&#45;&gt;14</title>
<path fill="none" stroke="black" d="M1043.43,-252.97C1035.24,-241.58 1026.48,-229.42 1018.26,-217.99"/>
<polygon fill="black" stroke="black" points="1021.06,-215.89 1012.38,-209.82 1015.38,-219.98 1021.06,-215.89"/>
</g>
<!-- 15 -->
<g id="node16" class="node">
<title>15</title>
<polygon fill="none" stroke="black" points="1268,-217 1080,-217 1080,-119 1268,-119 1268,-217"/>
<text text-anchor="middle" x="1174" y="-201.8" font-family="Times,serif" font-size="14.00">node #15</text>
<text text-anchor="middle" x="1174" y="-186.8" font-family="Times,serif" font-size="14.00">FEFPostVal &lt;= 1.635</text>
<text text-anchor="middle" x="1174" y="-171.8" font-family="Times,serif" font-size="14.00">gini = 0.022</text>
<text text-anchor="middle" x="1174" y="-156.8" font-family="Times,serif" font-size="14.00">samples = 63</text>
<text text-anchor="middle" x="1174" y="-141.8" font-family="Times,serif" font-size="14.00">value = [90.376, 1.018]</text>
<text text-anchor="middle" x="1174" y="-126.8" font-family="Times,serif" font-size="14.00">class = Non&#45;obstructive</text>
</g>
<!-- 13&#45;&gt;15 -->
<g id="edge15" class="edge">
<title>13&#45;&gt;15</title>
<path fill="none" stroke="black" d="M1112.93,-252.97C1119.42,-244.05 1126.24,-234.66 1132.89,-225.52"/>
<polygon fill="black" stroke="black" points="1135.88,-227.36 1138.94,-217.21 1130.22,-223.24 1135.88,-227.36"/>
</g>
<!-- 16 -->
<g id="node17" class="node">
<title>16</title>
<polygon fill="none" stroke="black" points="1159,-83 971,-83 971,0 1159,0 1159,-83"/>
<text text-anchor="middle" x="1065" y="-67.8" font-family="Times,serif" font-size="14.00">node #16</text>
<text text-anchor="middle" x="1065" y="-52.8" font-family="Times,serif" font-size="14.00">gini = 0.121</text>
<text text-anchor="middle" x="1065" y="-37.8" font-family="Times,serif" font-size="14.00">samples = 12</text>
<text text-anchor="middle" x="1065" y="-22.8" font-family="Times,serif" font-size="14.00">value = [14.735, 1.018]</text>
<text text-anchor="middle" x="1065" y="-7.8" font-family="Times,serif" font-size="14.00">class = Non&#45;obstructive</text>
</g>
<!-- 15&#45;&gt;16 -->
<g id="edge16" class="edge">
<title>15&#45;&gt;16</title>
<path fill="none" stroke="black" d="M1131.86,-118.87C1123.81,-109.67 1115.38,-100.04 1107.32,-90.84"/>
<polygon fill="black" stroke="black" points="1109.88,-88.45 1100.66,-83.23 1104.61,-93.06 1109.88,-88.45"/>
</g>
<!-- 17 -->
<g id="node18" class="node">
<title>17</title>
<polygon fill="none" stroke="black" points="1365,-83 1177,-83 1177,0 1365,0 1365,-83"/>
<text text-anchor="middle" x="1271" y="-67.8" font-family="Times,serif" font-size="14.00">node #17</text>
<text text-anchor="middle" x="1271" y="-52.8" font-family="Times,serif" font-size="14.00">gini = 0.0</text>
<text text-anchor="middle" x="1271" y="-37.8" font-family="Times,serif" font-size="14.00">samples = 51</text>
<text text-anchor="middle" x="1271" y="-22.8" font-family="Times,serif" font-size="14.00">value = [75.641, 0.0]</text>
<text text-anchor="middle" x="1271" y="-7.8" font-family="Times,serif" font-size="14.00">class = Non&#45;obstructive</text>
</g>
<!-- 15&#45;&gt;17 -->
<g id="edge17" class="edge">
<title>15&#45;&gt;17</title>
<path fill="none" stroke="black" d="M1211.5,-118.87C1218.52,-109.85 1225.87,-100.43 1232.91,-91.39"/>
<polygon fill="black" stroke="black" points="1235.88,-93.27 1239.27,-83.23 1230.36,-88.97 1235.88,-93.27"/>
</g>
<!-- 19 -->
<g id="node20" class="node">
<title>19</title>
<polygon fill="none" stroke="black" points="1675,-217 1481,-217 1481,-119 1675,-119 1675,-217"/>
<text text-anchor="middle" x="1578" y="-201.8" font-family="Times,serif" font-size="14.00">node #19</text>
<text text-anchor="middle" x="1578" y="-186.8" font-family="Times,serif" font-size="14.00">FEFPreVal &lt;= 2.415</text>
<text text-anchor="middle" x="1578" y="-171.8" font-family="Times,serif" font-size="14.00">gini = 0.436</text>
<text text-anchor="middle" x="1578" y="-156.8" font-family="Times,serif" font-size="14.00">samples = 53</text>
<text text-anchor="middle" x="1578" y="-141.8" font-family="Times,serif" font-size="14.00">value = [55.994, 26.476]</text>
<text text-anchor="middle" x="1578" y="-126.8" font-family="Times,serif" font-size="14.00">class = Non&#45;obstructive</text>
</g>
<!-- 18&#45;&gt;19 -->
<g id="edge19" class="edge">
<title>18&#45;&gt;19</title>
<path fill="none" stroke="black" d="M1578,-252.97C1578,-244.69 1578,-236 1578,-227.48"/>
<polygon fill="black" stroke="black" points="1581.5,-227.21 1578,-217.21 1574.5,-227.21 1581.5,-227.21"/>
</g>
<!-- 22 -->
<g id="node23" class="node">
<title>22</title>
<polygon fill="none" stroke="black" points="1968,-217 1792,-217 1792,-119 1968,-119 1968,-217"/>
<text text-anchor="middle" x="1880" y="-201.8" font-family="Times,serif" font-size="14.00">node #22</text>
<text text-anchor="middle" x="1880" y="-186.8" font-family="Times,serif" font-size="14.00">FEV1PreVal &lt;= 3.25</text>
<text text-anchor="middle" x="1880" y="-171.8" font-family="Times,serif" font-size="14.00">gini = 0.368</text>
<text text-anchor="middle" x="1880" y="-156.8" font-family="Times,serif" font-size="14.00">samples = 9</text>
<text text-anchor="middle" x="1880" y="-141.8" font-family="Times,serif" font-size="14.00">value = [2.947, 9.165]</text>
<text text-anchor="middle" x="1880" y="-126.8" font-family="Times,serif" font-size="14.00">class = Obstructive</text>
</g>
<!-- 18&#45;&gt;22 -->
<g id="edge22" class="edge">
<title>18&#45;&gt;22</title>
<path fill="none" stroke="black" d="M1672.31,-259.78C1707.34,-244.47 1747.14,-227.07 1782.45,-211.64"/>
<polygon fill="black" stroke="black" points="1784.04,-214.76 1791.8,-207.55 1781.24,-208.35 1784.04,-214.76"/>
</g>
<!-- 20 -->
<g id="node21" class="node">
<title>20</title>
<polygon fill="none" stroke="black" points="1577,-83 1383,-83 1383,0 1577,0 1577,-83"/>
<text text-anchor="middle" x="1480" y="-67.8" font-family="Times,serif" font-size="14.00">node #20</text>
<text text-anchor="middle" x="1480" y="-52.8" font-family="Times,serif" font-size="14.00">gini = 0.5</text>
<text text-anchor="middle" x="1480" y="-37.8" font-family="Times,serif" font-size="14.00">samples = 26</text>
<text text-anchor="middle" x="1480" y="-22.8" font-family="Times,serif" font-size="14.00">value = [21.612, 20.366]</text>
<text text-anchor="middle" x="1480" y="-7.8" font-family="Times,serif" font-size="14.00">class = Non&#45;obstructive</text>
</g>
<!-- 19&#45;&gt;20 -->
<g id="edge20" class="edge">
<title>19&#45;&gt;20</title>
<path fill="none" stroke="black" d="M1540.11,-118.87C1532.95,-109.76 1525.45,-100.23 1518.27,-91.12"/>
<polygon fill="black" stroke="black" points="1521,-88.92 1512.06,-83.23 1515.5,-93.25 1521,-88.92"/>
</g>
<!-- 21 -->
<g id="node22" class="node">
<title>21</title>
<polygon fill="none" stroke="black" points="1783,-83 1595,-83 1595,0 1783,0 1783,-83"/>
<text text-anchor="middle" x="1689" y="-67.8" font-family="Times,serif" font-size="14.00">node #21</text>
<text text-anchor="middle" x="1689" y="-52.8" font-family="Times,serif" font-size="14.00">gini = 0.256</text>
<text text-anchor="middle" x="1689" y="-37.8" font-family="Times,serif" font-size="14.00">samples = 27</text>
<text text-anchor="middle" x="1689" y="-22.8" font-family="Times,serif" font-size="14.00">value = [34.382, 6.11]</text>
<text text-anchor="middle" x="1689" y="-7.8" font-family="Times,serif" font-size="14.00">class = Non&#45;obstructive</text>
</g>
<!-- 19&#45;&gt;21 -->
<g id="edge21" class="edge">
<title>19&#45;&gt;21</title>
<path fill="none" stroke="black" d="M1620.92,-118.87C1629.11,-109.67 1637.7,-100.04 1645.9,-90.84"/>
<polygon fill="black" stroke="black" points="1648.64,-93.02 1652.69,-83.23 1643.42,-88.37 1648.64,-93.02"/>
</g>
<!-- 23 -->
<g id="node24" class="node">
<title>23</title>
<polygon fill="none" stroke="black" points="1959,-83 1801,-83 1801,0 1959,0 1959,-83"/>
<text text-anchor="middle" x="1880" y="-67.8" font-family="Times,serif" font-size="14.00">node #23</text>
<text text-anchor="middle" x="1880" y="-52.8" font-family="Times,serif" font-size="14.00">gini = 0.0</text>
<text text-anchor="middle" x="1880" y="-37.8" font-family="Times,serif" font-size="14.00">samples = 5</text>
<text text-anchor="middle" x="1880" y="-22.8" font-family="Times,serif" font-size="14.00">value = [0.0, 7.128]</text>
<text text-anchor="middle" x="1880" y="-7.8" font-family="Times,serif" font-size="14.00">class = Obstructive</text>
</g>
<!-- 22&#45;&gt;23 -->
<g id="edge23" class="edge">
<title>22&#45;&gt;23</title>
<path fill="none" stroke="black" d="M1880,-118.87C1880,-110.5 1880,-101.77 1880,-93.33"/>
<polygon fill="black" stroke="black" points="1883.5,-93.23 1880,-83.23 1876.5,-93.23 1883.5,-93.23"/>
</g>
<!-- 24 -->
<g id="node25" class="node">
<title>24</title>
<polygon fill="none" stroke="black" points="2165,-83 1977,-83 1977,0 2165,0 2165,-83"/>
<text text-anchor="middle" x="2071" y="-67.8" font-family="Times,serif" font-size="14.00">node #24</text>
<text text-anchor="middle" x="2071" y="-52.8" font-family="Times,serif" font-size="14.00">gini = 0.483</text>
<text text-anchor="middle" x="2071" y="-37.8" font-family="Times,serif" font-size="14.00">samples = 4</text>
<text text-anchor="middle" x="2071" y="-22.8" font-family="Times,serif" font-size="14.00">value = [2.947, 2.037]</text>
<text text-anchor="middle" x="2071" y="-7.8" font-family="Times,serif" font-size="14.00">class = Non&#45;obstructive</text>
</g>
<!-- 22&#45;&gt;24 -->
<g id="edge24" class="edge">
<title>22&#45;&gt;24</title>
<path fill="none" stroke="black" d="M1953.85,-118.87C1969.03,-108.97 1984.98,-98.57 2000.05,-88.74"/>
<polygon fill="black" stroke="black" points="2002.35,-91.43 2008.82,-83.03 1998.53,-85.56 2002.35,-91.43"/>
</g>
</g>
</svg>
