<?xml version="1.0" encoding="UTF-8" standalone="no"?>
<!DOCTYPE svg PUBLIC "-//W3C//DTD SVG 1.1//EN"
 "http://www.w3.org/Graphics/SVG/1.1/DTD/svg11.dtd">
<!-- Generated by graphviz version 2.43.0 (0)
 -->
<!-- Title: Tree Pages: 1 -->
<svg width="1988pt" height="627pt"
 viewBox="0.00 0.00 1987.50 627.00" xmlns="http://www.w3.org/2000/svg" xmlns:xlink="http://www.w3.org/1999/xlink">
<g id="graph0" class="graph" transform="scale(1 1) rotate(0) translate(4 623)">
<title>Tree</title>
<polygon fill="white" stroke="transparent" points="-4,4 -4,-623 1983.5,-623 1983.5,4 -4,4"/>
<!-- 0 -->
<g id="node1" class="node">
<title>0</title>
<polygon fill="none" stroke="black" points="1061.5,-619 873.5,-619 873.5,-521 1061.5,-521 1061.5,-619"/>
<text text-anchor="middle" x="967.5" y="-603.8" font-family="Times,serif" font-size="14.00">node #0</text>
<text text-anchor="middle" x="967.5" y="-588.8" font-family="Times,serif" font-size="14.00">FEFPreVal &lt;= 1.105</text>
<text text-anchor="middle" x="967.5" y="-573.8" font-family="Times,serif" font-size="14.00">gini = 0.5</text>
<text text-anchor="middle" x="967.5" y="-558.8" font-family="Times,serif" font-size="14.00">samples = 197</text>
<text text-anchor="middle" x="967.5" y="-543.8" font-family="Times,serif" font-size="14.00">value = [167.0, 167.0]</text>
<text text-anchor="middle" x="967.5" y="-528.8" font-family="Times,serif" font-size="14.00">class = Non&#45;obstructive</text>
</g>
<!-- 1 -->
<g id="node2" class="node">
<title>1</title>
<polygon fill="none" stroke="black" points="886.5,-485 692.5,-485 692.5,-387 886.5,-387 886.5,-485"/>
<text text-anchor="middle" x="789.5" y="-469.8" font-family="Times,serif" font-size="14.00">node #1</text>
<text text-anchor="middle" x="789.5" y="-454.8" font-family="Times,serif" font-size="14.00">FEV1PostVal &lt;= 2.445</text>
<text text-anchor="middle" x="789.5" y="-439.8" font-family="Times,serif" font-size="14.00">gini = 0.138</text>
<text text-anchor="middle" x="789.5" y="-424.8" font-family="Times,serif" font-size="14.00">samples = 74</text>
<text text-anchor="middle" x="789.5" y="-409.8" font-family="Times,serif" font-size="14.00">value = [9.653, 120.323]</text>
<text text-anchor="middle" x="789.5" y="-394.8" font-family="Times,serif" font-size="14.00">class = Obstructive</text>
</g>
<!-- 0&#45;&gt;1 -->
<g id="edge1" class="edge">
<title>0&#45;&gt;1</title>
<path fill="none" stroke="black" d="M902.73,-520.97C889.73,-511.33 875.97,-501.13 862.7,-491.29"/>
<polygon fill="black" stroke="black" points="864.63,-488.36 854.52,-485.21 860.46,-493.98 864.63,-488.36"/>
<text text-anchor="middle" x="858.19" y="-506.24" font-family="Times,serif" font-size="14.00">True</text>
</g>
<!-- 10 -->
<g id="node11" class="node">
<title>10</title>
<polygon fill="none" stroke="black" points="1136,-485 933,-485 933,-387 1136,-387 1136,-485"/>
<text text-anchor="middle" x="1034.5" y="-469.8" font-family="Times,serif" font-size="14.00">node #10</text>
<text text-anchor="middle" x="1034.5" y="-454.8" font-family="Times,serif" font-size="14.00">FVCPreVal &lt;= 1.955</text>
<text text-anchor="middle" x="1034.5" y="-439.8" font-family="Times,serif" font-size="14.00">gini = 0.353</text>
<text text-anchor="middle" x="1034.5" y="-424.8" font-family="Times,serif" font-size="14.00">samples = 123</text>
<text text-anchor="middle" x="1034.5" y="-409.8" font-family="Times,serif" font-size="14.00">value = [157.347, 46.677]</text>
<text text-anchor="middle" x="1034.5" y="-394.8" font-family="Times,serif" font-size="14.00">class = Non&#45;obstructive</text>
</g>
<!-- 0&#45;&gt;10 -->
<g id="edge10" class="edge">
<title>0&#45;&gt;10</title>
<path fill="none" stroke="black" d="M991.88,-520.97C996.27,-512.33 1000.88,-503.24 1005.39,-494.36"/>
<polygon fill="black" stroke="black" points="1008.62,-495.72 1010.03,-485.21 1002.38,-492.55 1008.62,-495.72"/>
<text text-anchor="middle" x="1017.79" y="-505.28" font-family="Times,serif" font-size="14.00">False</text>
</g>
<!-- 2 -->
<g id="node3" class="node">
<title>2</title>
<polygon fill="none" stroke="black" points="607.5,-351 413.5,-351 413.5,-253 607.5,-253 607.5,-351"/>
<text text-anchor="middle" x="510.5" y="-335.8" font-family="Times,serif" font-size="14.00">node #2</text>
<text text-anchor="middle" x="510.5" y="-320.8" font-family="Times,serif" font-size="14.00">FEFPrePercent &lt;= 30.0</text>
<text text-anchor="middle" x="510.5" y="-305.8" font-family="Times,serif" font-size="14.00">gini = 0.113</text>
<text text-anchor="middle" x="510.5" y="-290.8" font-family="Times,serif" font-size="14.00">samples = 73</text>
<text text-anchor="middle" x="510.5" y="-275.8" font-family="Times,serif" font-size="14.00">value = [7.723, 120.323]</text>
<text text-anchor="middle" x="510.5" y="-260.8" font-family="Times,serif" font-size="14.00">class = Obstructive</text>
</g>
<!-- 1&#45;&gt;2 -->
<g id="edge2" class="edge">
<title>1&#45;&gt;2</title>
<path fill="none" stroke="black" d="M692.31,-389.02C667.94,-377.49 641.67,-365.06 616.87,-353.33"/>
<polygon fill="black" stroke="black" points="618.35,-350.15 607.81,-349.04 615.36,-356.48 618.35,-350.15"/>
</g>
<!-- 9 -->
<g id="node10" class="node">
<title>9</title>
<polygon fill="none" stroke="black" points="883.5,-343.5 695.5,-343.5 695.5,-260.5 883.5,-260.5 883.5,-343.5"/>
<text text-anchor="middle" x="789.5" y="-328.3" font-family="Times,serif" font-size="14.00">node #9</text>
<text text-anchor="middle" x="789.5" y="-313.3" font-family="Times,serif" font-size="14.00">gini = 0.0</text>
<text text-anchor="middle" x="789.5" y="-298.3" font-family="Times,serif" font-size="14.00">samples = 1</text>
<text text-anchor="middle" x="789.5" y="-283.3" font-family="Times,serif" font-size="14.00">value = [1.931, 0.0]</text>
<text text-anchor="middle" x="789.5" y="-268.3" font-family="Times,serif" font-size="14.00">class = Non&#45;obstructive</text>
</g>
<!-- 1&#45;&gt;9 -->
<g id="edge9" class="edge">
<title>1&#45;&gt;9</title>
<path fill="none" stroke="black" d="M789.5,-386.97C789.5,-376.25 789.5,-364.84 789.5,-353.99"/>
<polygon fill="black" stroke="black" points="793,-353.82 789.5,-343.82 786,-353.82 793,-353.82"/>
</g>
<!-- 3 -->
<g id="node4" class="node">
<title>3</title>
<polygon fill="none" stroke="black" points="383.5,-217 189.5,-217 189.5,-119 383.5,-119 383.5,-217"/>
<text text-anchor="middle" x="286.5" y="-201.8" font-family="Times,serif" font-size="14.00">node #3</text>
<text text-anchor="middle" x="286.5" y="-186.8" font-family="Times,serif" font-size="14.00">FVCPostVal &lt;= 1.39</text>
<text text-anchor="middle" x="286.5" y="-171.8" font-family="Times,serif" font-size="14.00">gini = 0.052</text>
<text text-anchor="middle" x="286.5" y="-156.8" font-family="Times,serif" font-size="14.00">samples = 59</text>
<text text-anchor="middle" x="286.5" y="-141.8" font-family="Times,serif" font-size="14.00">value = [2.896, 105.801]</text>
<text text-anchor="middle" x="286.5" y="-126.8" font-family="Times,serif" font-size="14.00">class = Obstructive</text>
</g>
<!-- 2&#45;&gt;3 -->
<g id="edge3" class="edge">
<title>2&#45;&gt;3</title>
<path fill="none" stroke="black" d="M429,-252.97C412.17,-243.05 394.34,-232.55 377.21,-222.45"/>
<polygon fill="black" stroke="black" points="378.71,-219.28 368.32,-217.21 375.16,-225.31 378.71,-219.28"/>
</g>
<!-- 6 -->
<g id="node7" class="node">
<title>6</title>
<polygon fill="none" stroke="black" points="603,-217 418,-217 418,-119 603,-119 603,-217"/>
<text text-anchor="middle" x="510.5" y="-201.8" font-family="Times,serif" font-size="14.00">node #6</text>
<text text-anchor="middle" x="510.5" y="-186.8" font-family="Times,serif" font-size="14.00">FVCPreVal &lt;= 1.495</text>
<text text-anchor="middle" x="510.5" y="-171.8" font-family="Times,serif" font-size="14.00">gini = 0.374</text>
<text text-anchor="middle" x="510.5" y="-156.8" font-family="Times,serif" font-size="14.00">samples = 14</text>
<text text-anchor="middle" x="510.5" y="-141.8" font-family="Times,serif" font-size="14.00">value = [4.827, 14.522]</text>
<text text-anchor="middle" x="510.5" y="-126.8" font-family="Times,serif" font-size="14.00">class = Obstructive</text>
</g>
<!-- 2&#45;&gt;6 -->
<g id="edge6" class="edge">
<title>2&#45;&gt;6</title>
<path fill="none" stroke="black" d="M510.5,-252.97C510.5,-244.69 510.5,-236 510.5,-227.48"/>
<polygon fill="black" stroke="black" points="514,-227.21 510.5,-217.21 507,-227.21 514,-227.21"/>
</g>
<!-- 4 -->
<g id="node5" class="node">
<title>4</title>
<polygon fill="none" stroke="black" points="185,-83 0,-83 0,0 185,0 185,-83"/>
<text text-anchor="middle" x="92.5" y="-67.8" font-family="Times,serif" font-size="14.00">node #4</text>
<text text-anchor="middle" x="92.5" y="-52.8" font-family="Times,serif" font-size="14.00">gini = 0.215</text>
<text text-anchor="middle" x="92.5" y="-37.8" font-family="Times,serif" font-size="14.00">samples = 13</text>
<text text-anchor="middle" x="92.5" y="-22.8" font-family="Times,serif" font-size="14.00">value = [2.896, 20.745]</text>
<text text-anchor="middle" x="92.5" y="-7.8" font-family="Times,serif" font-size="14.00">class = Obstructive</text>
</g>
<!-- 3&#45;&gt;4 -->
<g id="edge4" class="edge">
<title>3&#45;&gt;4</title>
<path fill="none" stroke="black" d="M211.49,-118.87C195.93,-108.88 179.57,-98.38 164.13,-88.47"/>
<polygon fill="black" stroke="black" points="165.97,-85.49 155.66,-83.03 162.18,-91.38 165.97,-85.49"/>
</g>
<!-- 5 -->
<g id="node6" class="node">
<title>5</title>
<polygon fill="none" stroke="black" points="370,-83 203,-83 203,0 370,0 370,-83"/>
<text text-anchor="middle" x="286.5" y="-67.8" font-family="Times,serif" font-size="14.00">node #5</text>
<text text-anchor="middle" x="286.5" y="-52.8" font-family="Times,serif" font-size="14.00">gini = 0.0</text>
<text text-anchor="middle" x="286.5" y="-37.8" font-family="Times,serif" font-size="14.00">samples = 46</text>
<text text-anchor="middle" x="286.5" y="-22.8" font-family="Times,serif" font-size="14.00">value = [0.0, 85.056]</text>
<text text-anchor="middle" x="286.5" y="-7.8" font-family="Times,serif" font-size="14.00">class = Obstructive</text>
</g>
<!-- 3&#45;&gt;5 -->
<g id="edge5" class="edge">
<title>3&#45;&gt;5</title>
<path fill="none" stroke="black" d="M286.5,-118.87C286.5,-110.5 286.5,-101.77 286.5,-93.33"/>
<polygon fill="black" stroke="black" points="290,-93.23 286.5,-83.23 283,-93.23 290,-93.23"/>
</g>
<!-- 7 -->
<g id="node8" class="node">
<title>7</title>
<polygon fill="none" stroke="black" points="576.5,-83 388.5,-83 388.5,0 576.5,0 576.5,-83"/>
<text text-anchor="middle" x="482.5" y="-67.8" font-family="Times,serif" font-size="14.00">node #7</text>
<text text-anchor="middle" x="482.5" y="-52.8" font-family="Times,serif" font-size="14.00">gini = 0.0</text>
<text text-anchor="middle" x="482.5" y="-37.8" font-family="Times,serif" font-size="14.00">samples = 2</text>
<text text-anchor="middle" x="482.5" y="-22.8" font-family="Times,serif" font-size="14.00">value = [2.896, 0.0]</text>
<text text-anchor="middle" x="482.5" y="-7.8" font-family="Times,serif" font-size="14.00">class = Non&#45;obstructive</text>
</g>
<!-- 6&#45;&gt;7 -->
<g id="edge7" class="edge">
<title>6&#45;&gt;7</title>
<path fill="none" stroke="black" d="M499.67,-118.87C497.77,-110.41 495.79,-101.58 493.87,-93.06"/>
<polygon fill="black" stroke="black" points="497.27,-92.22 491.66,-83.23 490.44,-93.76 497.27,-92.22"/>
</g>
<!-- 8 -->
<g id="node9" class="node">
<title>8</title>
<polygon fill="none" stroke="black" points="780,-83 595,-83 595,0 780,0 780,-83"/>
<text text-anchor="middle" x="687.5" y="-67.8" font-family="Times,serif" font-size="14.00">node #8</text>
<text text-anchor="middle" x="687.5" y="-52.8" font-family="Times,serif" font-size="14.00">gini = 0.207</text>
<text text-anchor="middle" x="687.5" y="-37.8" font-family="Times,serif" font-size="14.00">samples = 12</text>
<text text-anchor="middle" x="687.5" y="-22.8" font-family="Times,serif" font-size="14.00">value = [1.931, 14.522]</text>
<text text-anchor="middle" x="687.5" y="-7.8" font-family="Times,serif" font-size="14.00">class = Obstructive</text>
</g>
<!-- 6&#45;&gt;8 -->
<g id="edge8" class="edge">
<title>6&#45;&gt;8</title>
<path fill="none" stroke="black" d="M578.93,-118.87C592.87,-109.06 607.51,-98.77 621.36,-89.02"/>
<polygon fill="black" stroke="black" points="623.71,-91.65 629.88,-83.03 619.68,-85.92 623.71,-91.65"/>
</g>
<!-- 11 -->
<g id="node12" class="node">
<title>11</title>
<polygon fill="none" stroke="black" points="1137.5,-351 931.5,-351 931.5,-253 1137.5,-253 1137.5,-351"/>
<text text-anchor="middle" x="1034.5" y="-335.8" font-family="Times,serif" font-size="14.00">node #11</text>
<text text-anchor="middle" x="1034.5" y="-320.8" font-family="Times,serif" font-size="14.00">FEFPostPercent &lt;= 156.5</text>
<text text-anchor="middle" x="1034.5" y="-305.8" font-family="Times,serif" font-size="14.00">gini = 0.041</text>
<text text-anchor="middle" x="1034.5" y="-290.8" font-family="Times,serif" font-size="14.00">samples = 59</text>
<text text-anchor="middle" x="1034.5" y="-275.8" font-family="Times,serif" font-size="14.00">value = [96.532, 2.075]</text>
<text text-anchor="middle" x="1034.5" y="-260.8" font-family="Times,serif" font-size="14.00">class = Non&#45;obstructive</text>
</g>
<!-- 10&#45;&gt;11 -->
<g id="edge11" class="edge">
<title>10&#45;&gt;11</title>
<path fill="none" stroke="black" d="M1034.5,-386.97C1034.5,-378.69 1034.5,-370 1034.5,-361.48"/>
<polygon fill="black" stroke="black" points="1038,-361.21 1034.5,-351.21 1031,-361.21 1038,-361.21"/>
</g>
<!-- 16 -->
<g id="node17" class="node">
<title>16</title>
<polygon fill="none" stroke="black" points="1384.5,-351 1190.5,-351 1190.5,-253 1384.5,-253 1384.5,-351"/>
<text text-anchor="middle" x="1287.5" y="-335.8" font-family="Times,serif" font-size="14.00">node #16</text>
<text text-anchor="middle" x="1287.5" y="-320.8" font-family="Times,serif" font-size="14.00">FEFPreVal &lt;= 2.195</text>
<text text-anchor="middle" x="1287.5" y="-305.8" font-family="Times,serif" font-size="14.00">gini = 0.488</text>
<text text-anchor="middle" x="1287.5" y="-290.8" font-family="Times,serif" font-size="14.00">samples = 64</text>
<text text-anchor="middle" x="1287.5" y="-275.8" font-family="Times,serif" font-size="14.00">value = [60.815, 44.602]</text>
<text text-anchor="middle" x="1287.5" y="-260.8" font-family="Times,serif" font-size="14.00">class = Non&#45;obstructive</text>
</g>
<!-- 10&#45;&gt;16 -->
<g id="edge16" class="edge">
<title>10&#45;&gt;16</title>
<path fill="none" stroke="black" d="M1126.55,-386.97C1145.91,-376.87 1166.44,-366.16 1186.12,-355.9"/>
<polygon fill="black" stroke="black" points="1187.84,-358.94 1195.09,-351.21 1184.61,-352.74 1187.84,-358.94"/>
</g>
<!-- 12 -->
<g id="node13" class="node">
<title>12</title>
<polygon fill="none" stroke="black" points="943.5,-209.5 755.5,-209.5 755.5,-126.5 943.5,-126.5 943.5,-209.5"/>
<text text-anchor="middle" x="849.5" y="-194.3" font-family="Times,serif" font-size="14.00">node #12</text>
<text text-anchor="middle" x="849.5" y="-179.3" font-family="Times,serif" font-size="14.00">gini = 0.0</text>
<text text-anchor="middle" x="849.5" y="-164.3" font-family="Times,serif" font-size="14.00">samples = 53</text>
<text text-anchor="middle" x="849.5" y="-149.3" font-family="Times,serif" font-size="14.00">value = [90.74, 0.0]</text>
<text text-anchor="middle" x="849.5" y="-134.3" font-family="Times,serif" font-size="14.00">class = Non&#45;obstructive</text>
</g>
<!-- 11&#45;&gt;12 -->
<g id="edge12" class="edge">
<title>11&#45;&gt;12</title>
<path fill="none" stroke="black" d="M967.19,-252.97C950.05,-240.75 931.67,-227.63 914.64,-215.48"/>
<polygon fill="black" stroke="black" points="916.58,-212.56 906.41,-209.6 912.51,-218.26 916.58,-212.56"/>
</g>
<!-- 13 -->
<g id="node14" class="node">
<title>13</title>
<polygon fill="none" stroke="black" points="1149.5,-217 961.5,-217 961.5,-119 1149.5,-119 1149.5,-217"/>
<text text-anchor="middle" x="1055.5" y="-201.8" font-family="Times,serif" font-size="14.00">node #13</text>
<text text-anchor="middle" x="1055.5" y="-186.8" font-family="Times,serif" font-size="14.00">FEFPreVal &lt;= 2.01</text>
<text text-anchor="middle" x="1055.5" y="-171.8" font-family="Times,serif" font-size="14.00">gini = 0.388</text>
<text text-anchor="middle" x="1055.5" y="-156.8" font-family="Times,serif" font-size="14.00">samples = 6</text>
<text text-anchor="middle" x="1055.5" y="-141.8" font-family="Times,serif" font-size="14.00">value = [5.792, 2.075]</text>
<text text-anchor="middle" x="1055.5" y="-126.8" font-family="Times,serif" font-size="14.00">class = Non&#45;obstructive</text>
</g>
<!-- 11&#45;&gt;13 -->
<g id="edge13" class="edge">
<title>11&#45;&gt;13</title>
<path fill="none" stroke="black" d="M1042.14,-252.97C1043.47,-244.6 1044.87,-235.81 1046.24,-227.2"/>
<polygon fill="black" stroke="black" points="1049.71,-227.64 1047.83,-217.21 1042.8,-226.54 1049.71,-227.64"/>
</g>
<!-- 14 -->
<g id="node15" class="node">
<title>14</title>
<polygon fill="none" stroke="black" points="955.5,-83 797.5,-83 797.5,0 955.5,0 955.5,-83"/>
<text text-anchor="middle" x="876.5" y="-67.8" font-family="Times,serif" font-size="14.00">node #14</text>
<text text-anchor="middle" x="876.5" y="-52.8" font-family="Times,serif" font-size="14.00">gini = 0.0</text>
<text text-anchor="middle" x="876.5" y="-37.8" font-family="Times,serif" font-size="14.00">samples = 1</text>
<text text-anchor="middle" x="876.5" y="-22.8" font-family="Times,serif" font-size="14.00">value = [0.0, 2.075]</text>
<text text-anchor="middle" x="876.5" y="-7.8" font-family="Times,serif" font-size="14.00">class = Obstructive</text>
</g>
<!-- 13&#45;&gt;14 -->
<g id="edge14" class="edge">
<title>13&#45;&gt;14</title>
<path fill="none" stroke="black" d="M986.29,-118.87C972.07,-108.97 957.12,-98.57 942.99,-88.74"/>
<polygon fill="black" stroke="black" points="944.98,-85.87 934.78,-83.03 940.99,-91.62 944.98,-85.87"/>
</g>
<!-- 15 -->
<g id="node16" class="node">
<title>15</title>
<polygon fill="none" stroke="black" points="1161.5,-83 973.5,-83 973.5,0 1161.5,0 1161.5,-83"/>
<text text-anchor="middle" x="1067.5" y="-67.8" font-family="Times,serif" font-size="14.00">node #15</text>
<text text-anchor="middle" x="1067.5" y="-52.8" font-family="Times,serif" font-size="14.00">gini = &#45;0.0</text>
<text text-anchor="middle" x="1067.5" y="-37.8" font-family="Times,serif" font-size="14.00">samples = 5</text>
<text text-anchor="middle" x="1067.5" y="-22.8" font-family="Times,serif" font-size="14.00">value = [5.792, 0.0]</text>
<text text-anchor="middle" x="1067.5" y="-7.8" font-family="Times,serif" font-size="14.00">class = Non&#45;obstructive</text>
</g>
<!-- 13&#45;&gt;15 -->
<g id="edge15" class="edge">
<title>13&#45;&gt;15</title>
<path fill="none" stroke="black" d="M1060.14,-118.87C1060.95,-110.5 1061.79,-101.77 1062.6,-93.33"/>
<polygon fill="black" stroke="black" points="1066.1,-93.52 1063.57,-83.23 1059.13,-92.85 1066.1,-93.52"/>
</g>
<!-- 17 -->
<g id="node18" class="node">
<title>17</title>
<polygon fill="none" stroke="black" points="1386,-217 1189,-217 1189,-119 1386,-119 1386,-217"/>
<text text-anchor="middle" x="1287.5" y="-201.8" font-family="Times,serif" font-size="14.00">node #17</text>
<text text-anchor="middle" x="1287.5" y="-186.8" font-family="Times,serif" font-size="14.00">FEFPostPercent &lt;= 83.5</text>
<text text-anchor="middle" x="1287.5" y="-171.8" font-family="Times,serif" font-size="14.00">gini = 0.451</text>
<text text-anchor="middle" x="1287.5" y="-156.8" font-family="Times,serif" font-size="14.00">samples = 29</text>
<text text-anchor="middle" x="1287.5" y="-141.8" font-family="Times,serif" font-size="14.00">value = [17.376, 33.193]</text>
<text text-anchor="middle" x="1287.5" y="-126.8" font-family="Times,serif" font-size="14.00">class = Obstructive</text>
</g>
<!-- 16&#45;&gt;17 -->
<g id="edge17" class="edge">
<title>16&#45;&gt;17</title>
<path fill="none" stroke="black" d="M1287.5,-252.97C1287.5,-244.69 1287.5,-236 1287.5,-227.48"/>
<polygon fill="black" stroke="black" points="1291,-227.21 1287.5,-217.21 1284,-227.21 1291,-227.21"/>
</g>
<!-- 20 -->
<g id="node21" class="node">
<title>20</title>
<polygon fill="none" stroke="black" points="1785.5,-217 1597.5,-217 1597.5,-119 1785.5,-119 1785.5,-217"/>
<text text-anchor="middle" x="1691.5" y="-201.8" font-family="Times,serif" font-size="14.00">node #20</text>
<text text-anchor="middle" x="1691.5" y="-186.8" font-family="Times,serif" font-size="14.00">FEV1PreVal &lt;= 2.81</text>
<text text-anchor="middle" x="1691.5" y="-171.8" font-family="Times,serif" font-size="14.00">gini = 0.329</text>
<text text-anchor="middle" x="1691.5" y="-156.8" font-family="Times,serif" font-size="14.00">samples = 35</text>
<text text-anchor="middle" x="1691.5" y="-141.8" font-family="Times,serif" font-size="14.00">value = [43.439, 11.41]</text>
<text text-anchor="middle" x="1691.5" y="-126.8" font-family="Times,serif" font-size="14.00">class = Non&#45;obstructive</text>
</g>
<!-- 16&#45;&gt;20 -->
<g id="edge20" class="edge">
<title>16&#45;&gt;20</title>
<path fill="none" stroke="black" d="M1384.53,-269.3C1445.92,-249.24 1525.24,-223.32 1587.87,-202.86"/>
<polygon fill="black" stroke="black" points="1588.96,-206.18 1597.38,-199.75 1586.79,-199.53 1588.96,-206.18"/>
</g>
<!-- 18 -->
<g id="node19" class="node">
<title>18</title>
<polygon fill="none" stroke="black" points="1373.5,-83 1179.5,-83 1179.5,0 1373.5,0 1373.5,-83"/>
<text text-anchor="middle" x="1276.5" y="-67.8" font-family="Times,serif" font-size="14.00">node #18</text>
<text text-anchor="middle" x="1276.5" y="-52.8" font-family="Times,serif" font-size="14.00">gini = 0.384</text>
<text text-anchor="middle" x="1276.5" y="-37.8" font-family="Times,serif" font-size="14.00">samples = 26</text>
<text text-anchor="middle" x="1276.5" y="-22.8" font-family="Times,serif" font-size="14.00">value = [11.584, 33.193]</text>
<text text-anchor="middle" x="1276.5" y="-7.8" font-family="Times,serif" font-size="14.00">class = Obstructive</text>
</g>
<!-- 17&#45;&gt;18 -->
<g id="edge18" class="edge">
<title>17&#45;&gt;18</title>
<path fill="none" stroke="black" d="M1283.25,-118.87C1282.51,-110.5 1281.74,-101.77 1280.99,-93.33"/>
<polygon fill="black" stroke="black" points="1284.47,-92.88 1280.1,-83.23 1277.49,-93.5 1284.47,-92.88"/>
</g>
<!-- 19 -->
<g id="node20" class="node">
<title>19</title>
<polygon fill="none" stroke="black" points="1579.5,-83 1391.5,-83 1391.5,0 1579.5,0 1579.5,-83"/>
<text text-anchor="middle" x="1485.5" y="-67.8" font-family="Times,serif" font-size="14.00">node #19</text>
<text text-anchor="middle" x="1485.5" y="-52.8" font-family="Times,serif" font-size="14.00">gini = 0.0</text>
<text text-anchor="middle" x="1485.5" y="-37.8" font-family="Times,serif" font-size="14.00">samples = 3</text>
<text text-anchor="middle" x="1485.5" y="-22.8" font-family="Times,serif" font-size="14.00">value = [5.792, 0.0]</text>
<text text-anchor="middle" x="1485.5" y="-7.8" font-family="Times,serif" font-size="14.00">class = Non&#45;obstructive</text>
</g>
<!-- 17&#45;&gt;19 -->
<g id="edge19" class="edge">
<title>17&#45;&gt;19</title>
<path fill="none" stroke="black" d="M1364.05,-118.87C1379.94,-108.88 1396.64,-98.38 1412.39,-88.47"/>
<polygon fill="black" stroke="black" points="1414.44,-91.32 1421.04,-83.03 1410.71,-85.39 1414.44,-91.32"/>
</g>
<!-- 21 -->
<g id="node22" class="node">
<title>21</title>
<polygon fill="none" stroke="black" points="1785.5,-83 1597.5,-83 1597.5,0 1785.5,0 1785.5,-83"/>
<text text-anchor="middle" x="1691.5" y="-67.8" font-family="Times,serif" font-size="14.00">node #21</text>
<text text-anchor="middle" x="1691.5" y="-52.8" font-family="Times,serif" font-size="14.00">gini = 0.227</text>
<text text-anchor="middle" x="1691.5" y="-37.8" font-family="Times,serif" font-size="14.00">samples = 29</text>
<text text-anchor="middle" x="1691.5" y="-22.8" font-family="Times,serif" font-size="14.00">value = [41.509, 6.224]</text>
<text text-anchor="middle" x="1691.5" y="-7.8" font-family="Times,serif" font-size="14.00">class = Non&#45;obstructive</text>
</g>
<!-- 20&#45;&gt;21 -->
<g id="edge21" class="edge">
<title>20&#45;&gt;21</title>
<path fill="none" stroke="black" d="M1691.5,-118.87C1691.5,-110.5 1691.5,-101.77 1691.5,-93.33"/>
<polygon fill="black" stroke="black" points="1695,-93.23 1691.5,-83.23 1688,-93.23 1695,-93.23"/>
</g>
<!-- 22 -->
<g id="node23" class="node">
<title>22</title>
<polygon fill="none" stroke="black" points="1979.5,-83 1803.5,-83 1803.5,0 1979.5,0 1979.5,-83"/>
<text text-anchor="middle" x="1891.5" y="-67.8" font-family="Times,serif" font-size="14.00">node #22</text>
<text text-anchor="middle" x="1891.5" y="-52.8" font-family="Times,serif" font-size="14.00">gini = 0.395</text>
<text text-anchor="middle" x="1891.5" y="-37.8" font-family="Times,serif" font-size="14.00">samples = 6</text>
<text text-anchor="middle" x="1891.5" y="-22.8" font-family="Times,serif" font-size="14.00">value = [1.931, 5.186]</text>
<text text-anchor="middle" x="1891.5" y="-7.8" font-family="Times,serif" font-size="14.00">class = Obstructive</text>
</g>
<!-- 20&#45;&gt;22 -->
<g id="edge22" class="edge">
<title>20&#45;&gt;22</title>
<path fill="none" stroke="black" d="M1768.83,-118.87C1784.87,-108.88 1801.74,-98.38 1817.65,-88.47"/>
<polygon fill="black" stroke="black" points="1819.75,-91.29 1826.39,-83.03 1816.05,-85.35 1819.75,-91.29"/>
</g>
</g>
</svg>
