<svg version="1.1" viewBox="0.0 0.0 960.0 75.0" fill="none" stroke="none" stroke-linecap="square" stroke-miterlimit="10" xmlns:xlink="http://www.w3.org/1999/xlink" xmlns="http://www.w3.org/2000/svg"><clipPath id="p.0"><path d="m0 0l960.0 0l0 75.0l-960.0 0l0 -75.0z" clip-rule="nonzero"/></clipPath><g clip-path="url(#p.0)"><path fill="#ffffff" d="m0 0l960.0 0l0 75.0l-960.0 0z" fill-rule="evenodd"/><defs><radialGradient id="p.1" gradientUnits="userSpaceOnUse" gradientTransform="matrix(11.711571839177939 0.0 0.0 11.711571839177939 0.0 0.0)" spreadMethod="pad" cx="11.852467416687142" cy="3.1387164692193616" fx="11.852467416687142" fy="3.1387164692193616" r="11.71157169342041"><stop offset="0.0" stop-color="#155151"/><stop offset="0.64" stop-color="#1a3247"/><stop offset="1.0" stop-color="#1e123d"/></radialGradient></defs><path fill="url(#p.1)" d="m5.8188977 3.2002482l265.98425 0l0 67.11811l-265.98425 0z" fill-rule="evenodd"/><path stroke="#155151" stroke-width="8.0" stroke-linejoin="round" stroke-linecap="butt" d="m5.8188977 3.2002482l265.98425 0l0 67.11811l-265.98425 0z" fill-rule="evenodd"/><path fill="#ffffff" d="m34.88461 41.71993l0 11.359375l-6.640625 0l0 -32.21875l12.578125 0q3.625 0 6.375 1.328125q2.765625 1.328125 4.25 3.78125q1.484375 2.4375 1.484375 5.546875q0 4.734375 -3.25 7.46875q-3.234375 2.734375 -8.96875 2.734375l-5.828125 0zm0 -5.375l5.9375 0q2.625 0 4.0 -1.234375q1.390625 -1.25 1.390625 -3.546875q0 -2.359375 -1.390625 -3.8125q-1.390625 -1.46875 -3.84375 -1.515625l-6.09375 0l0 10.109375zm36.518787 14.296875q-2.359375 2.875 -6.546875 2.875q-3.8593788 0 -5.890629 -2.203125q-2.015625 -2.21875 -2.0625 -6.484375l0 -15.703125l6.40625 0l0 15.46875q0 3.75 3.4062538 3.75q3.25 0 4.46875 -2.265625l0 -16.953125l6.421875 0l0 23.953125l-6.03125 0l-0.171875 -2.4375zm17.770523 2.4375l-6.421875 0l0 -34.0l6.421875 0l0 34.0zm11.268158 -23.953125l0.203125 2.6875q2.546875 -3.125 6.875 -3.125q4.625 0 6.359375 3.65625q2.515625 -3.65625 7.1875 -3.65625q3.90625 0 5.796875 2.265625q1.90625 2.265625 1.90625 6.828125l0 15.296875l-6.421875 0l0 -15.265625q0 -2.046875 -0.796875 -2.984375q-0.796875 -0.9375 -2.796875 -0.9375q-2.890625 0 -3.984375 2.75l0.015625 16.4375l-6.390625 0l0 -15.25q0 -2.078125 -0.828125 -3.0q-0.8125 -0.9375 -2.78125 -0.9375q-2.71875 0 -3.9375 2.25l0 16.9375l-6.40625 0l0 -23.953125l6.0 0zm32.241592 11.765625q0 -3.578125 1.375 -6.359375q1.375 -2.796875 3.953125 -4.3125q2.578125 -1.53125 5.984375 -1.53125q4.859375 0 7.921875 2.96875q3.0625 2.96875 3.421875 8.046875l0.03125 1.640625q0 5.515625 -3.078125 8.84375q-3.0625 3.328125 -8.25 3.328125q-5.171875 0 -8.265625 -3.3125q-3.09375 -3.328125 -3.09375 -9.03125l0 -0.28125zm6.40625 0.453125q0 3.40625 1.28125 5.21875q1.28125 1.796875 3.671875 1.796875q2.328125 0 3.625 -1.78125q1.3125 -1.78125 1.3125 -5.6875q0 -3.34375 -1.3125 -5.1875q-1.296875 -1.84375 -3.671875 -1.84375q-2.34375 0 -3.625 1.828125q-1.28125 1.828125 -1.28125 5.65625zm27.286102 0.375l0 11.359375l-6.640625 0l0 -32.21875l12.578125 0q3.625 0 6.375 1.328125q2.765625 1.328125 4.25 3.78125q1.484375 2.4375 1.484375 5.546875q0 4.734375 -3.25 7.46875q-3.234375 2.734375 -8.96875 2.734375l-5.828125 0zm0 -5.375l5.9375 0q2.625 0 4.0 -1.234375q1.390625 -1.25 1.390625 -3.546875q0 -2.359375 -1.390625 -3.8125q-1.390625 -1.46875 -3.84375 -1.515625l-6.09375 0l0 10.109375zm35.628174 -1.21875q-1.296875 -0.171875 -2.296875 -0.171875q-3.625 0 -4.75 2.453125l0 15.671875l-6.40625 0l0 -23.953125l6.046875 0l0.171875 2.859375q1.9375 -3.296875 5.34375 -3.296875q1.0625 0 1.984375 0.28125l-0.09375 6.15625zm13.690796 18.390625q-5.265625 0 -8.578125 -3.21875q-3.3125 -3.234375 -3.3125 -8.609375l0 -0.625q0 -3.609375 1.390625 -6.453125q1.390625 -2.84375 3.953125 -4.375q2.5625 -1.546875 5.828125 -1.546875q4.921875 0 7.734375 3.109375q2.828125 3.09375 2.828125 8.78125l0 2.609375l-15.25 0q0.3125 2.34375 1.875 3.765625q1.5625 1.40625 3.953125 1.40625q3.6875 0 5.765625 -2.671875l3.140625 3.515625q-1.4375 2.03125 -3.890625 3.171875q-2.453125 1.140625 -5.4375 1.140625zm-0.734375 -19.65625q-1.90625 0 -3.09375 1.296875q-1.171875 1.28125 -1.515625 3.671875l8.90625 0l0 -0.515625q-0.046875 -2.125 -1.15625 -3.28125q-1.109375 -1.171875 -3.140625 -1.171875zm13.204224 7.0625q0 -5.59375 2.515625 -8.90625q2.515625 -3.328125 6.875 -3.328125q3.5 0 5.78125 2.609375l0 -12.21875l6.421875 0l0 34.0l-5.78125 0l-0.3125 -2.546875q-2.390625 2.984375 -6.15625 2.984375q-4.21875 0 -6.78125 -3.328125q-2.5625 -3.328125 -2.5625 -9.265625zm6.40625 0.46875q0 3.359375 1.171875 5.15625q1.171875 1.796875 3.40625 1.796875q2.96875 0 4.1875 -2.5l0 -9.453125q-1.203125 -2.5 -4.140625 -2.5q-4.625 0 -4.625 7.5z" fill-rule="nonzero"/><path fill="#000000" fill-opacity="0.0" d="m271.76117 3.200711l683.7165 0l0 67.11811l-683.7165 0z" fill-rule="evenodd"/><path stroke="#155151" stroke-width="8.0" stroke-linejoin="round" stroke-linecap="butt" d="m271.76117 3.200711l683.7165 0l0 67.11811l-683.7165 0z" fill-rule="evenodd"/><path fill="#000000" d="m293.1839 24.98414l0 6.015625l-3.515625 0l0 -17.0625l6.65625 0q1.921875 0 3.375 0.703125q1.453125 0.703125 2.234375 1.999999q0.796875 1.296875 0.796875 2.9375q0 2.515625 -1.71875 3.96875q-1.71875 1.4375 -4.75 1.4375l-3.078125 0zm0 -2.84375l3.140625 0q1.390625 0 2.125 -0.65625q0.734375 -0.65625 0.734375 -1.875q0 -1.25 -0.75 -2.015625q-0.734375 -0.78125 -2.03125 -0.8125l-3.21875 0l0 5.359375zm18.855469 -0.640625q-0.6875 -0.09375 -1.21875 -0.09375q-1.921875 0 -2.515625 1.296875l0 8.296875l-3.390625 0l0 -12.6875l3.203125 0l0.09375 1.515625q1.015625 -1.75 2.828125 -1.75q0.5625 0 1.046875 0.15625l-0.046875 3.265625zm7.25 9.734375q-2.796875 0 -4.546875 -1.703125q-1.75 -1.71875 -1.75 -4.5625l0 -0.328125q0 -1.921875 0.734375 -3.421875q0.75 -1.5 2.09375 -2.3125q1.359375 -0.828125 3.09375 -0.828125q2.59375 0 4.09375 1.640625q1.5 1.640625 1.5 4.65625l0 1.390625l-8.078125 0q0.15625 1.234375 0.984375 1.984375q0.828125 0.75 2.09375 0.75q1.953125 0 3.0625 -1.421875l1.65625 1.875q-0.75 1.078125 -2.0625 1.6875q-1.296875 0.59375 -2.875 0.59375zm-0.390625 -10.40625q-1.0 0 -1.640625 0.6875q-0.625 0.671875 -0.796875 1.9375l4.71875 0l0 -0.265625q-0.03125 -1.125 -0.625 -1.734375q-0.578125 -0.625 -1.65625 -0.625zm7.0039062 3.734375q0 -2.96875 1.328125 -4.71875q1.328125 -1.765625 3.640625 -1.765625q1.84375 0 3.046875 1.390625l0 -6.468749l3.40625 0l0 18.0l-3.0625 0l-0.15625 -1.34375q-1.265625 1.578125 -3.265625 1.578125q-2.234375 0 -3.59375 -1.765625q-1.34375 -1.765625 -1.34375 -4.90625zm3.375 0.25q0 1.78125 0.625 2.734375q0.625 0.9375 1.8125 0.9375q1.5625 0 2.203125 -1.3125l0 -5.015625q-0.625 -1.3125 -2.1875 -1.3125q-2.453125 0 -2.453125 3.96875zm14.2421875 6.1875l-3.390625 0l0 -12.6875l3.390625 0l0 12.6875zm-3.59375 -15.968749q0 -0.75 0.5 -1.234375q0.515625 -0.5 1.390625 -0.5q0.875 0 1.390625 0.5q0.515625 0.484375 0.515625 1.234375q0 0.78125 -0.53125 1.281249q-0.515625 0.484375 -1.375 0.484375q-0.84375 0 -1.375 -0.484375q-0.515625 -0.49999905 -0.515625 -1.281249zm11.660156 13.468749q0.9375 0 1.515625 -0.515625q0.59375 -0.515625 0.609375 -1.375l3.1875 0q-0.015625 1.296875 -0.71875 2.375q-0.6875 1.0625 -1.890625 1.65625q-1.1875 0.59375 -2.640625 0.59375q-2.71875 0 -4.296875 -1.71875q-1.5625 -1.734375 -1.5625 -4.78125l0 -0.234375q0 -2.921875 1.546875 -4.671875q1.5625 -1.75 4.28125 -1.75q2.375 0 3.8125 1.359375q1.4375 1.359375 1.46875 3.609375l-3.1875 0q-0.015625 -0.984375 -0.609375 -1.59375q-0.578125 -0.625 -1.546875 -0.625q-1.171875 0 -1.78125 0.859375q-0.609375 0.859375 -0.609375 2.796875l0 0.34375q0 1.96875 0.59375 2.828125q0.609375 0.84375 1.828125 0.84375zm11.296875 -13.296874l0 3.109374l2.171875 0l0 2.484375l-2.171875 0l0 6.328125q0 0.703125 0.265625 1.015625q0.265625 0.296875 1.03125 0.296875q0.5625 0 1.0 -0.078125l0 2.5625q-1.0 0.3125 -2.046875 0.3125q-3.5625 0 -3.640625 -3.59375l0 -6.84375l-1.84375 0l0 -2.484375l1.84375 0l0 -3.109374l3.390625 0zm9.5078125 9.343749q0 -1.890625 0.71875 -3.359375q0.734375 -1.484375 2.09375 -2.296875q1.359375 -0.8125 3.171875 -0.8125q2.5625 0 4.1875 1.578125q1.625 1.5625 1.8125 4.265625l0.015625 0.859375q0 2.921875 -1.625 4.6875q-1.625 1.765625 -4.375 1.765625q-2.734375 0 -4.375 -1.75q-1.625 -1.765625 -1.625 -4.796875l0 -0.140625zm3.375 0.234375q0 1.8125 0.671875 2.765625q0.6875 0.953125 1.953125 0.953125q1.234375 0 1.921875 -0.9375q0.703125 -0.953125 0.703125 -3.015625q0 -1.78125 -0.703125 -2.75q-0.6875 -0.96875 -1.9375 -0.96875q-1.25 0 -1.9375 0.96875q-0.671875 0.96875 -0.671875 2.984375zm22.148438 0q0 3.046875 -1.3125 4.75q-1.296875 1.703125 -3.625 1.703125q-2.0625 0 -3.296875 -1.578125l-0.15625 1.34375l-3.046875 0l0 -18.0l3.390625 0l0 6.453124q1.171875 -1.375 3.078125 -1.375q2.328125 0 3.640625 1.71875q1.328125 1.703125 1.328125 4.796875l0 0.1875zm-3.390625 -0.25q0 -1.921875 -0.609375 -2.796875q-0.609375 -0.890625 -1.8125 -0.890625q-1.625 0 -2.234375 1.3125l0 5.015625q0.625 1.328125 2.25 1.328125q1.640625 0 2.15625 -1.609375q0.25 -0.78125 0.25 -2.359375zm12.339844 2.96875q0 -0.625 -0.625 -0.984375q-0.609375 -0.359375 -1.96875 -0.640625q-4.515625 -0.953125 -4.515625 -3.84375q0 -1.6875 1.390625 -2.8125q1.40625 -1.140625 3.671875 -1.140625q2.40625 0 3.84375 1.140625q1.453125 1.140625 1.453125 2.953125l-3.375 0q0 -0.71875 -0.46875 -1.1875q-0.46875 -0.484375 -1.46875 -0.484375q-0.859375 0 -1.328125 0.390625q-0.46875 0.375 -0.46875 0.984375q0 0.5625 0.53125 0.90625q0.53125 0.34375 1.796875 0.59375q1.265625 0.25 2.140625 0.5625q2.6875 0.984375 2.6875 3.421875q0 1.734375 -1.5 2.8125q-1.484375 1.0625 -3.84375 1.0625q-1.59375 0 -2.828125 -0.5625q-1.234375 -0.578125 -1.9375 -1.5625q-0.703125 -1.0 -0.703125 -2.140625l3.21875 0q0.046875 0.90625 0.65625 1.390625q0.625 0.46875 1.671875 0.46875q0.96875 0 1.46875 -0.359375q0.5 -0.375 0.5 -0.96875zm9.527344 -12.296874l0 3.109374l2.171875 0l0 2.484375l-2.171875 0l0 6.328125q0 0.703125 0.265625 1.015625q0.265625 0.296875 1.03125 0.296875q0.5625 0 1.0 -0.078125l0 2.5625q-1.0 0.3125 -2.046875 0.3125q-3.5625 0 -3.640625 -3.59375l0 -6.84375l-1.84375 0l0 -2.484375l1.84375 0l0 -3.109374l3.390625 0zm11.171875 6.296874q-0.6875 -0.09375 -1.21875 -0.09375q-1.921875 0 -2.515625 1.296875l0 8.296875l-3.390625 0l0 -12.6875l3.203125 0l0.09375 1.515625q1.015625 -1.75 2.828125 -1.75q0.5625 0 1.046875 0.15625l-0.046875 3.265625zm9.222656 8.203125q-1.25 1.53125 -3.46875 1.53125q-2.03125 0 -3.109375 -1.171875q-1.0625 -1.171875 -1.09375 -3.4375l0 -8.3125l3.390625 0l0 8.203125q0 1.96875 1.796875 1.96875q1.734375 0 2.375 -1.1875l0 -8.984375l3.390625 0l0 12.6875l-3.1875 0l-0.09375 -1.296875zm11.1171875 -1.203125q0.9375 0 1.515625 -0.515625q0.59375 -0.515625 0.609375 -1.375l3.1875 0q-0.015625 1.296875 -0.71875 2.375q-0.6875 1.0625 -1.890625 1.65625q-1.1875 0.59375 -2.640625 0.59375q-2.71875 0 -4.296875 -1.71875q-1.5625 -1.734375 -1.5625 -4.78125l0 -0.234375q0 -2.921875 1.546875 -4.671875q1.5625 -1.75 4.28125 -1.75q2.375 0 3.8125 1.359375q1.4375 1.359375 1.46875 3.609375l-3.1875 0q-0.015625 -0.984375 -0.609375 -1.59375q-0.578125 -0.625 -1.546875 -0.625q-1.171875 0 -1.78125 0.859375q-0.609375 0.859375 -0.609375 2.796875l0 0.34375q0 1.96875 0.59375 2.828125q0.609375 0.84375 1.828125 0.84375zm11.296875 -13.296874l0 3.109374l2.171875 0l0 2.484375l-2.171875 0l0 6.328125q0 0.703125 0.265625 1.015625q0.265625 0.296875 1.03125 0.296875q0.5625 0 1.0 -0.078125l0 2.5625q-1.0 0.3125 -2.046875 0.3125q-3.5625 0 -3.640625 -3.59375l0 -6.84375l-1.84375 0l0 -2.484375l1.84375 0l0 -3.109374l3.390625 0zm7.625 15.796874l-3.390625 0l0 -12.6875l3.390625 0l0 12.6875zm-3.59375 -15.968749q0 -0.75 0.5 -1.234375q0.515625 -0.5 1.390625 -0.5q0.875 0 1.390625 0.5q0.515625 0.484375 0.515625 1.234375q0 0.78125 -0.53125 1.281249q-0.515625 0.484375 -1.375 0.484375q-0.84375 0 -1.375 -0.484375q-0.515625 -0.49999905 -0.515625 -1.281249zm11.128906 11.828124l2.359375 -8.546875l3.53125 0l-4.265625 12.6875l-3.234375 0l-4.28125 -12.6875l3.53125 0l2.359375 8.546875zm13.0703125 4.375q-2.796875 0 -4.546875 -1.703125q-1.75 -1.71875 -1.75 -4.5625l0 -0.328125q0 -1.921875 0.734375 -3.421875q0.75 -1.5 2.09375 -2.3125q1.359375 -0.828125 3.09375 -0.828125q2.59375 0 4.09375 1.640625q1.5 1.640625 1.5 4.65625l0 1.390625l-8.078125 0q0.15625 1.234375 0.984375 1.984375q0.828125 0.75 2.09375 0.75q1.953125 0 3.0625 -1.421875l1.65625 1.875q-0.75 1.078125 -2.0625 1.6875q-1.296875 0.59375 -2.875 0.59375zm-0.390625 -10.40625q-1.0 0 -1.640625 0.6875q-0.625 0.671875 -0.796875 1.9375l4.71875 0l0 -0.265625q-0.03125 -1.125 -0.625 -1.734375q-0.578125 -0.625 -1.65625 -0.625zm20.855469 10.171875q-0.234375 -0.453125 -0.34375 -1.140625q-1.234375 1.375 -3.203125 1.375q-1.859375 0 -3.09375 -1.078125q-1.21875 -1.078125 -1.21875 -2.71875q0 -2.015625 1.484375 -3.09375q1.5 -1.078125 4.328125 -1.09375l1.5625 0l0 -0.71875q0 -0.890625 -0.453125 -1.40625q-0.453125 -0.53125 -1.421875 -0.53125q-0.859375 0 -1.34375 0.40625q-0.484375 0.40625 -0.484375 1.125l-3.390625 0q0 -1.09375 0.671875 -2.03125q0.6875 -0.9375 1.921875 -1.46875q1.25 -0.546875 2.796875 -0.546875q2.34375 0 3.71875 1.1875q1.375 1.171875 1.375 3.3125l0 5.484375q0.015625 1.8125 0.515625 2.734375l0 0.203125l-3.421875 0zm-2.8125 -2.359375q0.75 0 1.375 -0.328125q0.640625 -0.34375 0.953125 -0.90625l0 -2.171875l-1.265625 0q-2.546875 0 -2.703125 1.75l-0.015625 0.203125q0 0.640625 0.4375 1.046875q0.453125 0.40625 1.21875 0.40625zm11.4453125 -10.328125l0.109375 1.46875q1.359375 -1.703125 3.640625 -1.703125q2.015625 0 3.0 1.1875q0.984375 1.1875 1.0 3.546875l0 8.1875l-3.375 0l0 -8.109375q0 -1.078125 -0.46875 -1.5625q-0.46875 -0.484375 -1.5625 -0.484375q-1.4375 0 -2.140625 1.21875l0 8.9375l-3.390625 0l0 -12.6875l3.1875 0zm9.800781 6.25q0 -2.96875 1.328125 -4.71875q1.328125 -1.765625 3.640625 -1.765625q1.84375 0 3.046875 1.390625l0 -6.468749l3.40625 0l0 18.0l-3.0625 0l-0.15625 -1.34375q-1.265625 1.578125 -3.265625 1.578125q-2.234375 0 -3.59375 -1.765625q-1.34375 -1.765625 -1.34375 -4.90625zm3.375 0.25q0 1.78125 0.625 2.734375q0.625 0.9375 1.8125 0.9375q1.5625 0 2.203125 -1.3125l0 -5.015625q-0.625 -1.3125 -2.1875 -1.3125q-2.453125 0 -2.453125 3.96875zm19.765625 -6.5l0.109375 1.46875q1.359375 -1.703125 3.640625 -1.703125q2.015625 0 3.0 1.1875q0.984375 1.1875 1.0 3.546875l0 8.1875l-3.375 0l0 -8.109375q0 -1.078125 -0.46875 -1.5625q-0.46875 -0.484375 -1.5625 -0.484375q-1.4375 0 -2.140625 1.21875l0 8.9375l-3.390625 0l0 -12.6875l3.1875 0zm9.800781 6.234375q0 -1.890625 0.71875 -3.359375q0.734375 -1.484375 2.09375 -2.296875q1.359375 -0.8125 3.171875 -0.8125q2.5625 0 4.1875 1.578125q1.625 1.5625 1.8125 4.265625l0.015625 0.859375q0 2.921875 -1.625 4.6875q-1.625 1.765625 -4.375 1.765625q-2.734375 0 -4.375 -1.75q-1.625 -1.765625 -1.625 -4.796875l0 -0.140625zm3.375 0.234375q0 1.8125 0.671875 2.765625q0.6875 0.953125 1.953125 0.953125q1.234375 0 1.921875 -0.9375q0.703125 -0.953125 0.703125 -3.015625q0 -1.78125 -0.703125 -2.75q-0.6875 -0.96875 -1.9375 -0.96875q-1.25 0 -1.9375 0.96875q-0.671875 0.96875 -0.671875 2.984375zm13.8359375 -6.46875l0.109375 1.46875q1.359375 -1.703125 3.640625 -1.703125q2.015625 0 3.0 1.1875q0.984375 1.1875 1.0 3.546875l0 8.1875l-3.375 0l0 -8.109375q0 -1.078125 -0.46875 -1.5625q-0.46875 -0.484375 -1.5625 -0.484375q-1.4375 0 -2.140625 1.21875l0 8.9375l-3.390625 0l0 -12.6875l3.1875 0zm16.910156 6.75l-6.59375 0l0 -2.734375l6.59375 0l0 2.734375zm2.1953125 -0.515625q0 -1.890625 0.71875 -3.359375q0.734375 -1.484375 2.09375 -2.296875q1.359375 -0.8125 3.171875 -0.8125q2.5625 0 4.1875 1.578125q1.625 1.5625 1.8125 4.265625l0.015625 0.859375q0 2.921875 -1.625 4.6875q-1.625 1.765625 -4.375 1.765625q-2.734375 0 -4.375 -1.75q-1.625 -1.765625 -1.625 -4.796875l0 -0.140625zm3.375 0.234375q0 1.8125 0.671875 2.765625q0.6875 0.953125 1.953125 0.953125q1.234375 0 1.921875 -0.9375q0.703125 -0.953125 0.703125 -3.015625q0 -1.78125 -0.703125 -2.75q-0.6875 -0.96875 -1.9375 -0.96875q-1.25 0 -1.9375 0.96875q-0.671875 0.96875 -0.671875 2.984375zm22.148438 0q0 3.046875 -1.3125 4.75q-1.296875 1.703125 -3.625 1.703125q-2.0625 0 -3.296875 -1.578125l-0.15625 1.34375l-3.046875 0l0 -18.0l3.390625 0l0 6.453124q1.171875 -1.375 3.078125 -1.375q2.328125 0 3.640625 1.71875q1.328125 1.703125 1.328125 4.796875l0 0.1875zm-3.390625 -0.25q0 -1.921875 -0.609375 -2.796875q-0.609375 -0.890625 -1.8125 -0.890625q-1.625 0 -2.234375 1.3125l0 5.015625q0.625 1.328125 2.25 1.328125q1.640625 0 2.15625 -1.609375q0.25 -0.78125 0.25 -2.359375zm12.339844 2.96875q0 -0.625 -0.625 -0.984375q-0.609375 -0.359375 -1.96875 -0.640625q-4.515625 -0.953125 -4.515625 -3.84375q0 -1.6875 1.390625 -2.8125q1.40625 -1.140625 3.671875 -1.140625q2.40625 0 3.84375 1.140625q1.453125 1.140625 1.453125 2.953125l-3.375 0q0 -0.71875 -0.46875 -1.1875q-0.46875 -0.484375 -1.46875 -0.484375q-0.859375 0 -1.328125 0.390625q-0.46875 0.375 -0.46875 0.984375q0 0.5625 0.53125 0.90625q0.53125 0.34375 1.796875 0.59375q1.265625 0.25 2.140625 0.5625q2.6875 0.984375 2.6875 3.421875q0 1.734375 -1.5 2.8125q-1.484375 1.0625 -3.84375 1.0625q-1.59375 0 -2.828125 -0.5625q-1.234375 -0.578125 -1.9375 -1.5625q-0.703125 -1.0 -0.703125 -2.140625l3.21875 0q0.046875 0.90625 0.65625 1.390625q0.625 0.46875 1.671875 0.46875q0.96875 0 1.46875 -0.359375q0.5 -0.375 0.5 -0.96875zm9.527344 -12.296874l0 3.109374l2.171875 0l0 2.484375l-2.171875 0l0 6.328125q0 0.703125 0.265625 1.015625q0.265625 0.296875 1.03125 0.296875q0.5625 0 1.0 -0.078125l0 2.5625q-1.0 0.3125 -2.046875 0.3125q-3.5625 0 -3.640625 -3.59375l0 -6.84375l-1.84375 0l0 -2.484375l1.84375 0l0 -3.109374l3.390625 0zm11.171875 6.296874q-0.6875 -0.09375 -1.21875 -0.09375q-1.921875 0 -2.515625 1.296875l0 8.296875l-3.390625 0l0 -12.6875l3.203125 0l0.09375 1.515625q1.015625 -1.75 2.828125 -1.75q0.5625 0 1.046875 0.15625l-0.046875 3.265625zm9.222656 8.203125q-1.25 1.53125 -3.46875 1.53125q-2.03125 0 -3.109375 -1.171875q-1.0625 -1.171875 -1.09375 -3.4375l0 -8.3125l3.390625 0l0 8.203125q0 1.96875 1.796875 1.96875q1.734375 0 2.375 -1.1875l0 -8.984375l3.390625 0l0 12.6875l-3.1875 0l-0.09375 -1.296875zm11.1171875 -1.203125q0.9375 0 1.515625 -0.515625q0.59375 -0.515625 0.609375 -1.375l3.1875 0q-0.015625 1.296875 -0.71875 2.375q-0.6875 1.0625 -1.890625 1.65625q-1.1875 0.59375 -2.640625 0.59375q-2.71875 0 -4.296875 -1.71875q-1.5625 -1.734375 -1.5625 -4.78125l0 -0.234375q0 -2.921875 1.546875 -4.671875q1.5625 -1.75 4.28125 -1.75q2.375 0 3.8125 1.359375q1.4375 1.359375 1.46875 3.609375l-3.1875 0q-0.015625 -0.984375 -0.609375 -1.59375q-0.578125 -0.625 -1.546875 -0.625q-1.171875 0 -1.78125 0.859375q-0.609375 0.859375 -0.609375 2.796875l0 0.34375q0 1.96875 0.59375 2.828125q0.609375 0.84375 1.828125 0.84375zm11.296875 -13.296874l0 3.109374l2.171875 0l0 2.484375l-2.171875 0l0 6.328125q0 0.703125 0.265625 1.015625q0.265625 0.296875 1.03125 0.296875q0.5625 0 1.0 -0.078125l0 2.5625q-1.0 0.3125 -2.046875 0.3125q-3.5625 0 -3.640625 -3.59375l0 -6.84375l-1.84375 0l0 -2.484375l1.84375 0l0 -3.109374l3.390625 0zm7.625 15.796874l-3.390625 0l0 -12.6875l3.390625 0l0 12.6875zm-3.59375 -15.968749q0 -0.75 0.5 -1.234375q0.515625 -0.5 1.390625 -0.5q0.875 0 1.390625 0.5q0.515625 0.484375 0.515625 1.234375q0 0.78125 -0.53125 1.281249q-0.515625 0.484375 -1.375 0.484375q-0.84375 0 -1.375 -0.484375q-0.515625 -0.49999905 -0.515625 -1.281249zm11.128906 11.828124l2.359375 -8.546875l3.53125 0l-4.265625 12.6875l-3.234375 0l-4.28125 -12.6875l3.53125 0l2.359375 8.546875zm13.0703125 4.375q-2.796875 0 -4.546875 -1.703125q-1.75 -1.71875 -1.75 -4.5625l0 -0.328125q0 -1.921875 0.734375 -3.421875q0.75 -1.5 2.09375 -2.3125q1.359375 -0.828125 3.09375 -0.828125q2.59375 0 4.09375 1.640625q1.5 1.640625 1.5 4.65625l0 1.390625l-8.078125 0q0.15625 1.234375 0.984375 1.984375q0.828125 0.75 2.09375 0.75q1.953125 0 3.0625 -1.421875l1.65625 1.875q-0.75 1.078125 -2.0625 1.6875q-1.296875 0.59375 -2.875 0.59375zm-0.390625 -10.40625q-1.0 0 -1.640625 0.6875q-0.625 0.671875 -0.796875 1.9375l4.71875 0l0 -0.265625q-0.03125 -1.125 -0.625 -1.734375q-0.578125 -0.625 -1.65625 -0.625zm24.917969 3.953125q0 2.921875 -1.328125 4.6875q-1.328125 1.765625 -3.59375 1.765625q-1.921875 0 -3.109375 -1.34375l0 5.984377l-3.390625 0l0 -17.562502l3.140625 0l0.125 1.25q1.234375 -1.484375 3.203125 -1.484375q2.34375 0 3.640625 1.734375q1.3125 1.734375 1.3125 4.78125l0 0.1875zm-3.390625 -0.25q0 -1.765625 -0.625 -2.71875q-0.625 -0.96875 -1.828125 -0.96875q-1.59375 0 -2.1875 1.21875l0 5.1875q0.625 1.25 2.21875 1.25q2.421875 0 2.421875 -3.96875zm13.074219 5.171875q-1.25 1.53125 -3.46875 1.53125q-2.03125 0 -3.109375 -1.171875q-1.0625 -1.171875 -1.09375 -3.4375l0 -8.3125l3.390625 0l0 8.203125q0 1.96875 1.796875 1.96875q1.734375 0 2.375 -1.1875l0 -8.984375l3.390625 0l0 12.6875l-3.1875 0l-0.09375 -1.296875zm9.4140625 1.296875l-3.390625 0l0 -18.0l3.390625 0l0 18.0zm5.9726562 -12.6875l0.09375 1.421875q1.359375 -1.65625 3.65625 -1.65625q2.4375 0 3.359375 1.9375q1.328125 -1.9375 3.8125 -1.9375q2.0625 0 3.0625 1.203125q1.015625 1.203125 1.015625 3.625l0 8.09375l-3.40625 0l0 -8.09375q0 -1.078125 -0.421875 -1.5625q-0.421875 -0.5 -1.484375 -0.5q-1.53125 0 -2.109375 1.453125l0.015625 8.703125l-3.390625 0l0 -8.078125q0 -1.09375 -0.4375 -1.578125q-0.4375 -0.5 -1.46875 -0.5q-1.453125 0 -2.09375 1.1875l0 8.96875l-3.390625 0l0 -12.6875l3.1875 0zm17.074219 6.234375q0 -1.890625 0.71875 -3.359375q0.734375 -1.484375 2.09375 -2.296875q1.359375 -0.8125 3.171875 -0.8125q2.5625 0 4.1875 1.578125q1.625 1.5625 1.8125 4.265625l0.015625 0.859375q0 2.921875 -1.625 4.6875q-1.625 1.765625 -4.375 1.765625q-2.734375 0 -4.375 -1.75q-1.625 -1.765625 -1.625 -4.796875l0 -0.140625zm3.375 0.234375q0 1.8125 0.671875 2.765625q0.6875 0.953125 1.953125 0.953125q1.234375 0 1.921875 -0.9375q0.703125 -0.953125 0.703125 -3.015625q0 -1.78125 -0.703125 -2.75q-0.6875 -0.96875 -1.9375 -0.96875q-1.25 0 -1.9375 0.96875q-0.671875 0.96875 -0.671875 2.984375zm13.8359375 -6.46875l0.109375 1.46875q1.359375 -1.703125 3.640625 -1.703125q2.015625 0 3.0 1.1875q0.984375 1.1875 1.0 3.546875l0 8.1875l-3.375 0l0 -8.109375q0 -1.078125 -0.46875 -1.5625q-0.46875 -0.484375 -1.5625 -0.484375q-1.4375 0 -2.140625 1.21875l0 8.9375l-3.390625 0l0 -12.6875l3.1875 0zm17.675781 12.6875q-0.234375 -0.453125 -0.34375 -1.140625q-1.234375 1.375 -3.203125 1.375q-1.859375 0 -3.09375 -1.078125q-1.21875 -1.078125 -1.21875 -2.71875q0 -2.015625 1.484375 -3.09375q1.5 -1.078125 4.328125 -1.09375l1.5625 0l0 -0.71875q0 -0.890625 -0.453125 -1.40625q-0.453125 -0.53125 -1.421875 -0.53125q-0.859375 0 -1.34375 0.40625q-0.484375 0.40625 -0.484375 1.125l-3.390625 0q0 -1.09375 0.671875 -2.03125q0.6875 -0.9375 1.921875 -1.46875q1.25 -0.546875 2.796875 -0.546875q2.34375 0 3.71875 1.1875q1.375 1.171875 1.375 3.3125l0 5.484375q0.015625 1.8125 0.515625 2.734375l0 0.203125l-3.421875 0zm-2.8125 -2.359375q0.75 0 1.375 -0.328125q0.640625 -0.34375 0.953125 -0.90625l0 -2.171875l-1.265625 0q-2.546875 0 -2.703125 1.75l-0.015625 0.203125q0 0.640625 0.4375 1.046875q0.453125 0.40625 1.21875 0.40625zm15.4453125 -7.140625q-0.6875 -0.09375 -1.21875 -0.09375q-1.921875 0 -2.515625 1.296875l0 8.296875l-3.390625 0l0 -12.6875l3.203125 0l0.09375 1.515625q1.015625 -1.75 2.828125 -1.75q0.5625 0 1.046875 0.15625l-0.046875 3.265625zm6.5742188 4.703125l2.34375 -7.890625l3.640625 0l-5.09375 14.656252l-0.28125 0.671875q-1.140625 2.484375 -3.75 2.484375q-0.75 0 -1.5 -0.21875l0 -2.578125l0.515625 0.015625q0.953125 0 1.421875 -0.296875q0.484375 -0.28125 0.75 -0.96875l0.40625 -1.0468769l-4.453125 -12.71875l3.65625 0l2.34375 7.890625zm12.7734375 -1.640625q0 -2.96875 1.328125 -4.71875q1.328125 -1.765625 3.640625 -1.765625q1.84375 0 3.046875 1.390625l0 -6.468749l3.40625 0l0 18.0l-3.0625 0l-0.15625 -1.34375q-1.265625 1.578125 -3.265625 1.578125q-2.234375 0 -3.59375 -1.765625q-1.34375 -1.765625 -1.34375 -4.90625zm3.375 0.25q0 1.78125 0.625 2.734375q0.625 0.9375 1.8125 0.9375q1.5625 0 2.203125 -1.3125l0 -5.015625q-0.625 -1.3125 -2.1875 -1.3125q-2.453125 0 -2.453125 3.96875zm14.2421875 6.1875l-3.390625 0l0 -12.6875l3.390625 0l0 12.6875zm-3.59375 -15.968749q0 -0.75 0.5 -1.234375q0.515625 -0.5 1.390625 -0.5q0.875 0 1.390625 0.5q0.515625 0.484375 0.515625 1.234375q0 0.78125 -0.53125 1.281249q-0.515625 0.484375 -1.375 0.484375q-0.84375 0 -1.375 -0.484375q-0.515625 -0.49999905 -0.515625 -1.281249zm13.253906 12.468749q0 -0.625 -0.625 -0.984375q-0.609375 -0.359375 -1.96875 -0.640625q-4.515625 -0.953125 -4.515625 -3.84375q0 -1.6875 1.390625 -2.8125q1.40625 -1.140625 3.671875 -1.140625q2.40625 0 3.84375 1.140625q1.453125 1.140625 1.453125 2.953125l-3.375 0q0 -0.71875 -0.46875 -1.1875q-0.46875 -0.484375 -1.46875 -0.484375q-0.859375 0 -1.328125 0.390625q-0.46875 0.375 -0.46875 0.984375q0 0.5625 0.53125 0.90625q0.53125 0.34375 1.796875 0.59375q1.265625 0.25 2.140625 0.5625q2.6875 0.984375 2.6875 3.421875q0 1.734375 -1.5 2.8125q-1.484375 1.0625 -3.84375 1.0625q-1.59375 0 -2.828125 -0.5625q-1.234375 -0.578125 -1.9375 -1.5625q-0.703125 -1.0 -0.703125 -2.140625l3.21875 0q0.046875 0.90625 0.65625 1.390625q0.625 0.46875 1.671875 0.46875q0.96875 0 1.46875 -0.359375q0.5 -0.375 0.5 -0.96875zm11.308594 3.734375q-2.796875 0 -4.546875 -1.703125q-1.75 -1.71875 -1.75 -4.5625l0 -0.328125q0 -1.921875 0.734375 -3.421875q0.75 -1.5 2.09375 -2.3125q1.359375 -0.828125 3.09375 -0.828125q2.59375 0 4.09375 1.640625q1.5 1.640625 1.5 4.65625l0 1.390625l-8.078125 0q0.15625 1.234375 0.984375 1.984375q0.828125 0.75 2.09375 0.75q1.953125 0 3.0625 -1.421875l1.65625 1.875q-0.75 1.078125 -2.0625 1.6875q-1.296875 0.59375 -2.875 0.59375zm-0.390625 -10.40625q-1.0 0 -1.640625 0.6875q-0.625 0.671875 -0.796875 1.9375l4.71875 0l0 -0.265625q-0.03125 -1.125 -0.625 -1.734375q-0.578125 -0.625 -1.65625 -0.625zm14.878906 10.171875q-0.234375 -0.453125 -0.34375 -1.140625q-1.234375 1.375 -3.203125 1.375q-1.859375 0 -3.09375 -1.078125q-1.21875 -1.078125 -1.21875 -2.71875q0 -2.015625 1.484375 -3.09375q1.5 -1.078125 4.328125 -1.09375l1.5625 0l0 -0.71875q0 -0.890625 -0.453125 -1.40625q-0.453125 -0.53125 -1.421875 -0.53125q-0.859375 0 -1.34375 0.40625q-0.484375 0.40625 -0.484375 1.125l-3.390625 0q0 -1.09375 0.671875 -2.03125q0.6875 -0.9375 1.921875 -1.46875q1.25 -0.546875 2.796875 -0.546875q2.34375 0 3.71875 1.1875q1.375 1.171875 1.375 3.3125l0 5.484375q0.015625 1.8125 0.515625 2.734375l0 0.203125l-3.421875 0zm-2.8125 -2.359375q0.75 0 1.375 -0.328125q0.640625 -0.34375 0.953125 -0.90625l0 -2.171875l-1.265625 0q-2.546875 0 -2.703125 1.75l-0.015625 0.203125q0 0.640625 0.4375 1.046875q0.453125 0.40625 1.21875 0.40625zm15.1953125 -1.140625q0 -0.625 -0.625 -0.984375q-0.609375 -0.359375 -1.96875 -0.640625q-4.515625 -0.953125 -4.515625 -3.84375q0 -1.6875 1.390625 -2.8125q1.40625 -1.140625 3.671875 -1.140625q2.40625 0 3.84375 1.140625q1.453125 1.140625 1.453125 2.953125l-3.375 0q0 -0.71875 -0.46875 -1.1875q-0.46875 -0.484375 -1.46875 -0.484375q-0.859375 0 -1.328125 0.390625q-0.46875 0.375 -0.46875 0.984375q0 0.5625 0.53125 0.90625q0.53125 0.34375 1.796875 0.59375q1.265625 0.25 2.140625 0.5625q2.6875 0.984375 2.6875 3.421875q0 1.734375 -1.5 2.8125q-1.484375 1.0625 -3.84375 1.0625q-1.59375 0 -2.828125 -0.5625q-1.234375 -0.578125 -1.9375 -1.5625q-0.703125 -1.0 -0.703125 -2.140625l3.21875 0q0.046875 0.90625 0.65625 1.390625q0.625 0.46875 1.671875 0.46875q0.96875 0 1.46875 -0.359375q0.5 -0.375 0.5 -0.96875zm11.308594 3.734375q-2.796875 0 -4.546875 -1.703125q-1.75 -1.71875 -1.75 -4.5625l0 -0.328125q0 -1.921875 0.734375 -3.421875q0.75 -1.5 2.09375 -2.3125q1.359375 -0.828125 3.09375 -0.828125q2.59375 0 4.09375 1.640625q1.5 1.640625 1.5 4.65625l0 1.390625l-8.078125 0q0.15625 1.234375 0.984375 1.984375q0.828125 0.75 2.09375 0.75q1.953125 0 3.0625 -1.421875l1.65625 1.875q-0.75 1.078125 -2.0625 1.6875q-1.296875 0.59375 -2.875 0.59375zm-0.390625 -10.40625q-1.0 0 -1.640625 0.6875q-0.625 0.671875 -0.796875 1.9375l4.71875 0l0 -0.265625q-0.03125 -1.125 -0.625 -1.734375q-0.578125 -0.625 -1.65625 -0.625zm14.394531 6.671875q0 -0.625 -0.625 -0.984375q-0.609375 -0.359375 -1.96875 -0.640625q-4.515625 -0.953125 -4.515625 -3.84375q0 -1.6875 1.390625 -2.8125q1.40625 -1.140625 3.671875 -1.140625q2.40625 0 3.84375 1.140625q1.453125 1.140625 1.453125 2.953125l-3.375 0q0 -0.71875 -0.46875 -1.1875q-0.46875 -0.484375 -1.46875 -0.484375q-0.859375 0 -1.328125 0.390625q-0.46875 0.375 -0.46875 0.984375q0 0.5625 0.53125 0.90625q0.53125 0.34375 1.796875 0.59375q1.265625 0.25 2.140625 0.5625q2.6875 0.984375 2.6875 3.421875q0 1.734375 -1.5 2.8125q-1.484375 1.0625 -3.84375 1.0625q-1.59375 0 -2.828125 -0.5625q-1.234375 -0.578125 -1.9375 -1.5625q-0.703125 -1.0 -0.703125 -2.140625l3.21875 0q0.046875 0.90625 0.65625 1.390625q0.625 0.46875 1.671875 0.46875q0.96875 0 1.46875 -0.359375q0.5 -0.375 0.5 -0.96875z" fill-rule="nonzero"/><path fill="#000000" d="m531.3909 58.502888q-1.25 1.53125 -3.46875 1.53125q-2.03125 0 -3.109375 -1.171875q-1.0625 -1.171875 -1.09375 -3.4375l0 -8.3125l3.390625 0l0 8.203125q0 1.96875 1.796875 1.96875q1.734375 0 2.375 -1.1875l0 -8.984375l3.390625 0l0 12.6875l-3.1875 0l-0.09375 -1.296875zm12.7109375 -2.203125q0 -0.625 -0.625 -0.984375q-0.609375 -0.359375 -1.96875 -0.640625q-4.515625 -0.953125 -4.515625 -3.84375q0 -1.6875 1.390625 -2.8125q1.40625 -1.140625 3.671875 -1.140625q2.40625 0 3.84375 1.140625q1.453125 1.140625 1.453125 2.953125l-3.375 0q0 -0.71875 -0.46875 -1.1875q-0.46875 -0.484375 -1.46875 -0.484375q-0.859375 0 -1.328125 0.390625q-0.46875 0.375 -0.46875 0.984375q0 0.5625 0.53125 0.90625q0.53125 0.34375 1.796875 0.59375q1.265625 0.25 2.140625 0.5625q2.6875 0.984375 2.6875 3.421875q0 1.734375 -1.5 2.8125q-1.484375 1.0625 -3.84375 1.0625q-1.59375 0 -2.828125 -0.5625q-1.234375 -0.578125 -1.9375 -1.5625q-0.703125 -1.0 -0.703125 -2.140625l3.21875 0q0.046875 0.90625 0.65625 1.390625q0.625 0.46875 1.671875 0.46875q0.96875 0 1.46875 -0.359375q0.5 -0.375 0.5 -0.96875zm9.042969 3.5l-3.390625 0l0 -12.6875l3.390625 0l0 12.6875zm-3.59375 -15.96875q0 -0.75 0.5 -1.234375q0.515625 -0.5 1.390625 -0.5q0.875 0 1.390625 0.5q0.515625 0.484375 0.515625 1.234375q0 0.78125 -0.53125 1.28125q-0.515625 0.484375 -1.375 0.484375q-0.84375 0 -1.375 -0.484375q-0.515625 -0.5 -0.515625 -1.28125zm9.503906 3.28125l0.109375 1.46875q1.359375 -1.703125 3.640625 -1.703125q2.015625 0 3.0 1.1875q0.984375 1.1875 1.0 3.546875l0 8.1875l-3.375 0l0 -8.109375q0 -1.078125 -0.46875 -1.5625q-0.46875 -0.484375 -1.5625 -0.484375q-1.4375 0 -2.140625 1.21875l0 8.9375l-3.390625 0l0 -12.6875l3.1875 0zm9.832031 6.25q0 -2.921875 1.390625 -4.703125q1.390625 -1.78125 3.734375 -1.78125q2.09375 0 3.25 1.4375l0.140625 -1.203125l3.078125 0l0 12.265625q0 1.671875 -0.765625 2.890625q-0.75 1.234375 -2.125 1.8750038q-1.375 0.65625 -3.203125 0.65625q-1.40625 0 -2.734375 -0.5625q-1.3125 -0.5625038 -2.0 -1.4375038l1.5 -2.0625q1.265625 1.421875 3.078125 1.421875q1.34375 0 2.09375 -0.71875q0.75 -0.71875 0.75 -2.046875l0 -0.6875q-1.171875 1.328125 -3.078125 1.328125q-2.28125 0 -3.703125 -1.78125q-1.40625 -1.796875 -1.40625 -4.75l0 -0.140625zm3.390625 0.25q0 1.71875 0.6875 2.703125q0.6875 0.96875 1.890625 0.96875q1.546875 0 2.21875 -1.15625l0 -5.328125q-0.671875 -1.15625 -2.1875 -1.15625q-1.21875 0 -1.921875 1.0q-0.6875 0.984375 -0.6875 2.96875zm23.644531 2.6875q0 -0.625 -0.625 -0.984375q-0.609375 -0.359375 -1.96875 -0.640625q-4.515625 -0.953125 -4.515625 -3.84375q0 -1.6875 1.390625 -2.8125q1.40625 -1.140625 3.671875 -1.140625q2.40625 0 3.84375 1.140625q1.453125 1.140625 1.453125 2.953125l-3.375 0q0 -0.71875 -0.46875 -1.1875q-0.46875 -0.484375 -1.46875 -0.484375q-0.859375 0 -1.328125 0.390625q-0.46875 0.375 -0.46875 0.984375q0 0.5625 0.53125 0.90625q0.53125 0.34375 1.796875 0.59375q1.265625 0.25 2.140625 0.5625q2.6875 0.984375 2.6875 3.421875q0 1.734375 -1.5 2.8125q-1.484375 1.0625 -3.84375 1.0625q-1.59375 0 -2.828125 -0.5625q-1.234375 -0.578125 -1.9375 -1.5625q-0.703125 -1.0 -0.703125 -2.140625l3.21875 0q0.046875 0.90625 0.65625 1.390625q0.625 0.46875 1.671875 0.46875q0.96875 0 1.46875 -0.359375q0.5 -0.375 0.5 -0.96875zm16.886719 -2.71875q0 2.921875 -1.328125 4.6875q-1.328125 1.765625 -3.59375 1.765625q-1.921875 0 -3.109375 -1.34375l0 5.984379l-3.390625 0l0 -17.562504l3.140625 0l0.125 1.25q1.234375 -1.484375 3.203125 -1.484375q2.34375 0 3.640625 1.734375q1.3125 1.734375 1.3125 4.78125l0 0.1875zm-3.390625 -0.25q0 -1.765625 -0.625 -2.71875q-0.625 -0.96875 -1.828125 -0.96875q-1.59375 0 -2.1875 1.21875l0 5.1875q0.625 1.25 2.21875 1.25q2.421875 0 2.421875 -3.96875zm9.058594 6.46875l-3.390625 0l0 -12.6875l3.390625 0l0 12.6875zm-3.59375 -15.96875q0 -0.75 0.5 -1.234375q0.515625 -0.5 1.390625 -0.5q0.875 0 1.390625 0.5q0.515625 0.484375 0.515625 1.234375q0 0.78125 -0.53125 1.28125q-0.515625 0.484375 -1.375 0.484375q-0.84375 0 -1.375 -0.484375q-0.515625 -0.5 -0.515625 -1.28125zm13.503906 6.46875q-0.6875 -0.09375 -1.21875 -0.09375q-1.921875 0 -2.515625 1.296875l0 8.296875l-3.390625 0l0 -12.6875l3.203125 0l0.09375 1.515625q1.015625 -1.75 2.828125 -1.75q0.5625 0 1.046875 0.15625l-0.046875 3.265625zm0.69140625 3.046875q0 -1.890625 0.71875 -3.359375q0.734375 -1.484375 2.09375 -2.296875q1.359375 -0.8125 3.171875 -0.8125q2.5625 0 4.1875 1.578125q1.625 1.5625 1.8125 4.265625l0.015625 0.859375q0 2.921875 -1.625 4.6875q-1.625 1.765625 -4.375 1.765625q-2.734375 0 -4.375 -1.75q-1.625 -1.765625 -1.625 -4.796875l0 -0.140625zm3.375 0.234375q0 1.8125 0.671875 2.765625q0.6875 0.953125 1.953125 0.953125q1.234375 0 1.921875 -0.9375q0.703125 -0.953125 0.703125 -3.015625q0 -1.78125 -0.703125 -2.75q-0.6875 -0.96875 -1.9375 -0.96875q-1.25 0 -1.9375 0.96875q-0.671875 0.96875 -0.671875 2.984375zm13.8984375 -6.46875l0.09375 1.421875q1.359375 -1.65625 3.65625 -1.65625q2.4375 0 3.359375 1.9375q1.328125 -1.9375 3.8125 -1.9375q2.0625 0 3.0625 1.203125q1.015625 1.203125 1.015625 3.625l0 8.09375l-3.40625 0l0 -8.09375q0 -1.078125 -0.421875 -1.5625q-0.421875 -0.5 -1.484375 -0.5q-1.53125 0 -2.109375 1.453125l0.015625 8.703125l-3.390625 0l0 -8.078125q0 -1.09375 -0.4375 -1.578125q-0.4375 -0.5 -1.46875 -0.5q-1.453125 0 -2.09375 1.1875l0 8.96875l-3.390625 0l0 -12.6875l3.1875 0zm23.433594 12.921875q-2.796875 0 -4.546875 -1.703125q-1.75 -1.71875 -1.75 -4.5625l0 -0.328125q0 -1.921875 0.734375 -3.421875q0.75 -1.5 2.09375 -2.3125q1.359375 -0.828125 3.09375 -0.828125q2.59375 0 4.09375 1.640625q1.5 1.640625 1.5 4.65625l0 1.390625l-8.078125 0q0.15625 1.234375 0.984375 1.984375q0.828125 0.75 2.09375 0.75q1.953125 0 3.0625 -1.421875l1.65625 1.875q-0.75 1.078125 -2.0625 1.6875q-1.296875 0.59375 -2.875 0.59375zm-0.390625 -10.40625q-1.0 0 -1.640625 0.6875q-0.625 0.671875 -0.796875 1.9375l4.71875 0l0 -0.265625q-0.03125 -1.125 -0.625 -1.734375q-0.578125 -0.625 -1.65625 -0.625zm11.582031 -5.625l0 3.109375l2.171875 0l0 2.484375l-2.171875 0l0 6.328125q0 0.703125 0.265625 1.015625q0.265625 0.296875 1.03125 0.296875q0.5625 0 1.0 -0.078125l0 2.5625q-1.0 0.3125 -2.046875 0.3125q-3.5625 0 -3.640625 -3.59375l0 -6.84375l-1.84375 0l0 -2.484375l1.84375 0l0 -3.109375l3.390625 0zm11.171875 6.296875q-0.6875 -0.09375 -1.21875 -0.09375q-1.921875 0 -2.515625 1.296875l0 8.296875l-3.390625 0l0 -12.6875l3.203125 0l0.09375 1.515625q1.015625 -1.75 2.828125 -1.75q0.5625 0 1.046875 0.15625l-0.046875 3.265625zm6.5742188 4.703125l2.34375 -7.890625l3.640625 0l-5.09375 14.65625l-0.28125 0.671875q-1.140625 2.4843788 -3.75 2.4843788q-0.75 0 -1.5 -0.21875l0 -2.5781288l0.515625 0.015625q0.953125 0 1.421875 -0.296875q0.484375 -0.28125 0.75 -0.96875l0.40625 -1.046875l-4.453125 -12.71875l3.65625 0l2.34375 7.890625z" fill-rule="nonzero"/></g></svg>