<?xml version="1.0" encoding="UTF-8" standalone="no"?>
<!DOCTYPE svg PUBLIC "-//W3C//DTD SVG 1.1//EN"
 "http://www.w3.org/Graphics/SVG/1.1/DTD/svg11.dtd">
<!-- Generated by graphviz version 2.43.0 (0)
 -->
<!-- Title: Tree Pages: 1 -->
<svg width="2539pt" height="627pt"
 viewBox="0.00 0.00 2539.00 627.00" xmlns="http://www.w3.org/2000/svg" xmlns:xlink="http://www.w3.org/1999/xlink">
<g id="graph0" class="graph" transform="scale(1 1) rotate(0) translate(4 623)">
<title>Tree</title>
<polygon fill="white" stroke="transparent" points="-4,4 -4,-623 2535,-623 2535,4 -4,4"/>
<!-- 0 -->
<g id="node1" class="node">
<title>0</title>
<polygon fill="none" stroke="black" points="1651.5,-619 1460.5,-619 1460.5,-521 1651.5,-521 1651.5,-619"/>
<text text-anchor="middle" x="1556" y="-603.8" font-family="Times,serif" font-size="14.00">node #0</text>
<text text-anchor="middle" x="1556" y="-588.8" font-family="Times,serif" font-size="14.00">FEFPrePercent &lt;= 56.5</text>
<text text-anchor="middle" x="1556" y="-573.8" font-family="Times,serif" font-size="14.00">gini = 0.5</text>
<text text-anchor="middle" x="1556" y="-558.8" font-family="Times,serif" font-size="14.00">samples = 211</text>
<text text-anchor="middle" x="1556" y="-543.8" font-family="Times,serif" font-size="14.00">value = [167.0, 167.0]</text>
<text text-anchor="middle" x="1556" y="-528.8" font-family="Times,serif" font-size="14.00">class = Non&#45;obstructive</text>
</g>
<!-- 1 -->
<g id="node2" class="node">
<title>1</title>
<polygon fill="none" stroke="black" points="1271.5,-485 1068.5,-485 1068.5,-387 1271.5,-387 1271.5,-485"/>
<text text-anchor="middle" x="1170" y="-469.8" font-family="Times,serif" font-size="14.00">node #1</text>
<text text-anchor="middle" x="1170" y="-454.8" font-family="Times,serif" font-size="14.00">FEFPostVal &lt;= 0.87</text>
<text text-anchor="middle" x="1170" y="-439.8" font-family="Times,serif" font-size="14.00">gini = 0.386</text>
<text text-anchor="middle" x="1170" y="-424.8" font-family="Times,serif" font-size="14.00">samples = 112</text>
<text text-anchor="middle" x="1170" y="-409.8" font-family="Times,serif" font-size="14.00">value = [45.823, 129.671]</text>
<text text-anchor="middle" x="1170" y="-394.8" font-family="Times,serif" font-size="14.00">class = Obstructive</text>
</g>
<!-- 0&#45;&gt;1 -->
<g id="edge1" class="edge">
<title>0&#45;&gt;1</title>
<path fill="none" stroke="black" d="M1460.09,-536.2C1405.95,-517.69 1338.03,-494.46 1281.52,-475.14"/>
<polygon fill="black" stroke="black" points="1282.43,-471.75 1271.83,-471.82 1280.16,-478.37 1282.43,-471.75"/>
<text text-anchor="middle" x="1282.84" y="-490.57" font-family="Times,serif" font-size="14.00">True</text>
</g>
<!-- 16 -->
<g id="node17" class="node">
<title>16</title>
<polygon fill="none" stroke="black" points="2045.5,-485 1842.5,-485 1842.5,-387 2045.5,-387 2045.5,-485"/>
<text text-anchor="middle" x="1944" y="-469.8" font-family="Times,serif" font-size="14.00">node #16</text>
<text text-anchor="middle" x="1944" y="-454.8" font-family="Times,serif" font-size="14.00">FEFPrePercent &lt;= 82.5</text>
<text text-anchor="middle" x="1944" y="-439.8" font-family="Times,serif" font-size="14.00">gini = 0.36</text>
<text text-anchor="middle" x="1944" y="-424.8" font-family="Times,serif" font-size="14.00">samples = 99</text>
<text text-anchor="middle" x="1944" y="-409.8" font-family="Times,serif" font-size="14.00">value = [121.177, 37.329]</text>
<text text-anchor="middle" x="1944" y="-394.8" font-family="Times,serif" font-size="14.00">class = Non&#45;obstructive</text>
</g>
<!-- 0&#45;&gt;16 -->
<g id="edge16" class="edge">
<title>0&#45;&gt;16</title>
<path fill="none" stroke="black" d="M1651.91,-536.37C1706.64,-517.75 1775.51,-494.32 1832.62,-474.89"/>
<polygon fill="black" stroke="black" points="1834.07,-478.09 1842.41,-471.56 1831.82,-471.47 1834.07,-478.09"/>
<text text-anchor="middle" x="1831.37" y="-490.29" font-family="Times,serif" font-size="14.00">False</text>
</g>
<!-- 2 -->
<g id="node3" class="node">
<title>2</title>
<polygon fill="none" stroke="black" points="669.5,-351 472.5,-351 472.5,-253 669.5,-253 669.5,-351"/>
<text text-anchor="middle" x="571" y="-335.8" font-family="Times,serif" font-size="14.00">node #2</text>
<text text-anchor="middle" x="571" y="-320.8" font-family="Times,serif" font-size="14.00">FVCPostPercent &lt;= 35.5</text>
<text text-anchor="middle" x="571" y="-305.8" font-family="Times,serif" font-size="14.00">gini = 0.116</text>
<text text-anchor="middle" x="571" y="-290.8" font-family="Times,serif" font-size="14.00">samples = 49</text>
<text text-anchor="middle" x="571" y="-275.8" font-family="Times,serif" font-size="14.00">value = [5.091, 77.606]</text>
<text text-anchor="middle" x="571" y="-260.8" font-family="Times,serif" font-size="14.00">class = Obstructive</text>
</g>
<!-- 1&#45;&gt;2 -->
<g id="edge2" class="edge">
<title>1&#45;&gt;2</title>
<path fill="none" stroke="black" d="M1068.39,-412.61C960.33,-388.8 790.07,-351.28 679.47,-326.9"/>
<polygon fill="black" stroke="black" points="680.14,-323.47 669.62,-324.73 678.63,-330.3 680.14,-323.47"/>
</g>
<!-- 9 -->
<g id="node10" class="node">
<title>9</title>
<polygon fill="none" stroke="black" points="1273,-351 1067,-351 1067,-253 1273,-253 1273,-351"/>
<text text-anchor="middle" x="1170" y="-335.8" font-family="Times,serif" font-size="14.00">node #9</text>
<text text-anchor="middle" x="1170" y="-320.8" font-family="Times,serif" font-size="14.00">FEV1PostPercent &lt;= 63.5</text>
<text text-anchor="middle" x="1170" y="-305.8" font-family="Times,serif" font-size="14.00">gini = 0.493</text>
<text text-anchor="middle" x="1170" y="-290.8" font-family="Times,serif" font-size="14.00">samples = 63</text>
<text text-anchor="middle" x="1170" y="-275.8" font-family="Times,serif" font-size="14.00">value = [40.732, 52.065]</text>
<text text-anchor="middle" x="1170" y="-260.8" font-family="Times,serif" font-size="14.00">class = Obstructive</text>
</g>
<!-- 1&#45;&gt;9 -->
<g id="edge9" class="edge">
<title>1&#45;&gt;9</title>
<path fill="none" stroke="black" d="M1170,-386.97C1170,-378.69 1170,-370 1170,-361.48"/>
<polygon fill="black" stroke="black" points="1173.5,-361.21 1170,-351.21 1166.5,-361.21 1173.5,-361.21"/>
</g>
<!-- 3 -->
<g id="node4" class="node">
<title>3</title>
<polygon fill="none" stroke="black" points="364,-217 176,-217 176,-119 364,-119 364,-217"/>
<text text-anchor="middle" x="270" y="-201.8" font-family="Times,serif" font-size="14.00">node #3</text>
<text text-anchor="middle" x="270" y="-186.8" font-family="Times,serif" font-size="14.00">FVCPreVal &lt;= 1.08</text>
<text text-anchor="middle" x="270" y="-171.8" font-family="Times,serif" font-size="14.00">gini = 0.5</text>
<text text-anchor="middle" x="270" y="-156.8" font-family="Times,serif" font-size="14.00">samples = 2</text>
<text text-anchor="middle" x="270" y="-141.8" font-family="Times,serif" font-size="14.00">value = [1.018, 0.982]</text>
<text text-anchor="middle" x="270" y="-126.8" font-family="Times,serif" font-size="14.00">class = Non&#45;obstructive</text>
</g>
<!-- 2&#45;&gt;3 -->
<g id="edge3" class="edge">
<title>2&#45;&gt;3</title>
<path fill="none" stroke="black" d="M472.44,-257.78C440.76,-243.89 405.59,-228.46 373.56,-214.41"/>
<polygon fill="black" stroke="black" points="374.74,-211.11 364.17,-210.3 371.93,-217.52 374.74,-211.11"/>
</g>
<!-- 6 -->
<g id="node7" class="node">
<title>6</title>
<polygon fill="none" stroke="black" points="669.5,-217 472.5,-217 472.5,-119 669.5,-119 669.5,-217"/>
<text text-anchor="middle" x="571" y="-201.8" font-family="Times,serif" font-size="14.00">node #6</text>
<text text-anchor="middle" x="571" y="-186.8" font-family="Times,serif" font-size="14.00">FEFPostPercent &lt;= 23.5</text>
<text text-anchor="middle" x="571" y="-171.8" font-family="Times,serif" font-size="14.00">gini = 0.096</text>
<text text-anchor="middle" x="571" y="-156.8" font-family="Times,serif" font-size="14.00">samples = 47</text>
<text text-anchor="middle" x="571" y="-141.8" font-family="Times,serif" font-size="14.00">value = [4.073, 76.624]</text>
<text text-anchor="middle" x="571" y="-126.8" font-family="Times,serif" font-size="14.00">class = Obstructive</text>
</g>
<!-- 2&#45;&gt;6 -->
<g id="edge6" class="edge">
<title>2&#45;&gt;6</title>
<path fill="none" stroke="black" d="M571,-252.97C571,-244.69 571,-236 571,-227.48"/>
<polygon fill="black" stroke="black" points="574.5,-227.21 571,-217.21 567.5,-227.21 574.5,-227.21"/>
</g>
<!-- 4 -->
<g id="node5" class="node">
<title>4</title>
<polygon fill="none" stroke="black" points="158,-83 0,-83 0,0 158,0 158,-83"/>
<text text-anchor="middle" x="79" y="-67.8" font-family="Times,serif" font-size="14.00">node #4</text>
<text text-anchor="middle" x="79" y="-52.8" font-family="Times,serif" font-size="14.00">gini = 0.0</text>
<text text-anchor="middle" x="79" y="-37.8" font-family="Times,serif" font-size="14.00">samples = 1</text>
<text text-anchor="middle" x="79" y="-22.8" font-family="Times,serif" font-size="14.00">value = [0.0, 0.982]</text>
<text text-anchor="middle" x="79" y="-7.8" font-family="Times,serif" font-size="14.00">class = Obstructive</text>
</g>
<!-- 3&#45;&gt;4 -->
<g id="edge4" class="edge">
<title>3&#45;&gt;4</title>
<path fill="none" stroke="black" d="M196.15,-118.87C180.97,-108.97 165.02,-98.57 149.95,-88.74"/>
<polygon fill="black" stroke="black" points="151.47,-85.56 141.18,-83.03 147.65,-91.43 151.47,-85.56"/>
</g>
<!-- 5 -->
<g id="node6" class="node">
<title>5</title>
<polygon fill="none" stroke="black" points="364,-83 176,-83 176,0 364,0 364,-83"/>
<text text-anchor="middle" x="270" y="-67.8" font-family="Times,serif" font-size="14.00">node #5</text>
<text text-anchor="middle" x="270" y="-52.8" font-family="Times,serif" font-size="14.00">gini = &#45;0.0</text>
<text text-anchor="middle" x="270" y="-37.8" font-family="Times,serif" font-size="14.00">samples = 1</text>
<text text-anchor="middle" x="270" y="-22.8" font-family="Times,serif" font-size="14.00">value = [1.018, 0.0]</text>
<text text-anchor="middle" x="270" y="-7.8" font-family="Times,serif" font-size="14.00">class = Non&#45;obstructive</text>
</g>
<!-- 3&#45;&gt;5 -->
<g id="edge5" class="edge">
<title>3&#45;&gt;5</title>
<path fill="none" stroke="black" d="M270,-118.87C270,-110.5 270,-101.77 270,-93.33"/>
<polygon fill="black" stroke="black" points="273.5,-93.23 270,-83.23 266.5,-93.23 273.5,-93.23"/>
</g>
<!-- 7 -->
<g id="node8" class="node">
<title>7</title>
<polygon fill="none" stroke="black" points="549.5,-83 382.5,-83 382.5,0 549.5,0 549.5,-83"/>
<text text-anchor="middle" x="466" y="-67.8" font-family="Times,serif" font-size="14.00">node #7</text>
<text text-anchor="middle" x="466" y="-52.8" font-family="Times,serif" font-size="14.00">gini = 0.0</text>
<text text-anchor="middle" x="466" y="-37.8" font-family="Times,serif" font-size="14.00">samples = 37</text>
<text text-anchor="middle" x="466" y="-22.8" font-family="Times,serif" font-size="14.00">value = [0.0, 63.853]</text>
<text text-anchor="middle" x="466" y="-7.8" font-family="Times,serif" font-size="14.00">class = Obstructive</text>
</g>
<!-- 6&#45;&gt;7 -->
<g id="edge7" class="edge">
<title>6&#45;&gt;7</title>
<path fill="none" stroke="black" d="M530.4,-118.87C522.73,-109.76 514.69,-100.23 507,-91.12"/>
<polygon fill="black" stroke="black" points="509.47,-88.62 500.35,-83.23 504.12,-93.13 509.47,-88.62"/>
</g>
<!-- 8 -->
<g id="node9" class="node">
<title>8</title>
<polygon fill="none" stroke="black" points="752.5,-83 567.5,-83 567.5,0 752.5,0 752.5,-83"/>
<text text-anchor="middle" x="660" y="-67.8" font-family="Times,serif" font-size="14.00">node #8</text>
<text text-anchor="middle" x="660" y="-52.8" font-family="Times,serif" font-size="14.00">gini = 0.367</text>
<text text-anchor="middle" x="660" y="-37.8" font-family="Times,serif" font-size="14.00">samples = 10</text>
<text text-anchor="middle" x="660" y="-22.8" font-family="Times,serif" font-size="14.00">value = [4.073, 12.771]</text>
<text text-anchor="middle" x="660" y="-7.8" font-family="Times,serif" font-size="14.00">class = Obstructive</text>
</g>
<!-- 6&#45;&gt;8 -->
<g id="edge8" class="edge">
<title>6&#45;&gt;8</title>
<path fill="none" stroke="black" d="M605.41,-118.87C611.85,-109.85 618.59,-100.43 625.05,-91.39"/>
<polygon fill="black" stroke="black" points="627.91,-93.4 630.88,-83.23 622.22,-89.33 627.91,-93.4"/>
</g>
<!-- 10 -->
<g id="node11" class="node">
<title>10</title>
<polygon fill="none" stroke="black" points="1162,-217 974,-217 974,-119 1162,-119 1162,-217"/>
<text text-anchor="middle" x="1068" y="-201.8" font-family="Times,serif" font-size="14.00">node #10</text>
<text text-anchor="middle" x="1068" y="-186.8" font-family="Times,serif" font-size="14.00">FEV1PostVal &lt;= 1.25</text>
<text text-anchor="middle" x="1068" y="-171.8" font-family="Times,serif" font-size="14.00">gini = 0.254</text>
<text text-anchor="middle" x="1068" y="-156.8" font-family="Times,serif" font-size="14.00">samples = 23</text>
<text text-anchor="middle" x="1068" y="-141.8" font-family="Times,serif" font-size="14.00">value = [33.604, 5.894]</text>
<text text-anchor="middle" x="1068" y="-126.8" font-family="Times,serif" font-size="14.00">class = Non&#45;obstructive</text>
</g>
<!-- 9&#45;&gt;10 -->
<g id="edge10" class="edge">
<title>9&#45;&gt;10</title>
<path fill="none" stroke="black" d="M1132.89,-252.97C1125.93,-243.96 1118.59,-234.47 1111.46,-225.24"/>
<polygon fill="black" stroke="black" points="1114.14,-222.99 1105.26,-217.21 1108.6,-227.27 1114.14,-222.99"/>
</g>
<!-- 13 -->
<g id="node14" class="node">
<title>13</title>
<polygon fill="none" stroke="black" points="1365.5,-217 1180.5,-217 1180.5,-119 1365.5,-119 1365.5,-217"/>
<text text-anchor="middle" x="1273" y="-201.8" font-family="Times,serif" font-size="14.00">node #13</text>
<text text-anchor="middle" x="1273" y="-186.8" font-family="Times,serif" font-size="14.00">FVCPreVal &lt;= 2.39</text>
<text text-anchor="middle" x="1273" y="-171.8" font-family="Times,serif" font-size="14.00">gini = 0.232</text>
<text text-anchor="middle" x="1273" y="-156.8" font-family="Times,serif" font-size="14.00">samples = 40</text>
<text text-anchor="middle" x="1273" y="-141.8" font-family="Times,serif" font-size="14.00">value = [7.128, 46.171]</text>
<text text-anchor="middle" x="1273" y="-126.8" font-family="Times,serif" font-size="14.00">class = Obstructive</text>
</g>
<!-- 9&#45;&gt;13 -->
<g id="edge13" class="edge">
<title>9&#45;&gt;13</title>
<path fill="none" stroke="black" d="M1207.48,-252.97C1214.51,-243.96 1221.91,-234.47 1229.12,-225.24"/>
<polygon fill="black" stroke="black" points="1231.99,-227.25 1235.38,-217.21 1226.47,-222.94 1231.99,-227.25"/>
</g>
<!-- 11 -->
<g id="node12" class="node">
<title>11</title>
<polygon fill="none" stroke="black" points="959,-83 771,-83 771,0 959,0 959,-83"/>
<text text-anchor="middle" x="865" y="-67.8" font-family="Times,serif" font-size="14.00">node #11</text>
<text text-anchor="middle" x="865" y="-52.8" font-family="Times,serif" font-size="14.00">gini = 0.0</text>
<text text-anchor="middle" x="865" y="-37.8" font-family="Times,serif" font-size="14.00">samples = 10</text>
<text text-anchor="middle" x="865" y="-22.8" font-family="Times,serif" font-size="14.00">value = [18.329, 0.0]</text>
<text text-anchor="middle" x="865" y="-7.8" font-family="Times,serif" font-size="14.00">class = Non&#45;obstructive</text>
</g>
<!-- 10&#45;&gt;11 -->
<g id="edge11" class="edge">
<title>10&#45;&gt;11</title>
<path fill="none" stroke="black" d="M989.51,-118.87C973.23,-108.88 956.11,-98.38 939.95,-88.47"/>
<polygon fill="black" stroke="black" points="941.44,-85.28 931.09,-83.03 937.78,-91.24 941.44,-85.28"/>
</g>
<!-- 12 -->
<g id="node13" class="node">
<title>12</title>
<polygon fill="none" stroke="black" points="1165,-83 977,-83 977,0 1165,0 1165,-83"/>
<text text-anchor="middle" x="1071" y="-67.8" font-family="Times,serif" font-size="14.00">node #12</text>
<text text-anchor="middle" x="1071" y="-52.8" font-family="Times,serif" font-size="14.00">gini = 0.402</text>
<text text-anchor="middle" x="1071" y="-37.8" font-family="Times,serif" font-size="14.00">samples = 13</text>
<text text-anchor="middle" x="1071" y="-22.8" font-family="Times,serif" font-size="14.00">value = [15.274, 5.894]</text>
<text text-anchor="middle" x="1071" y="-7.8" font-family="Times,serif" font-size="14.00">class = Non&#45;obstructive</text>
</g>
<!-- 10&#45;&gt;12 -->
<g id="edge12" class="edge">
<title>10&#45;&gt;12</title>
<path fill="none" stroke="black" d="M1069.16,-118.87C1069.36,-110.5 1069.57,-101.77 1069.78,-93.33"/>
<polygon fill="black" stroke="black" points="1073.28,-93.31 1070.02,-83.23 1066.28,-93.14 1073.28,-93.31"/>
</g>
<!-- 14 -->
<g id="node15" class="node">
<title>14</title>
<polygon fill="none" stroke="black" points="1359,-83 1183,-83 1183,0 1359,0 1359,-83"/>
<text text-anchor="middle" x="1271" y="-67.8" font-family="Times,serif" font-size="14.00">node #14</text>
<text text-anchor="middle" x="1271" y="-52.8" font-family="Times,serif" font-size="14.00">gini = 0.483</text>
<text text-anchor="middle" x="1271" y="-37.8" font-family="Times,serif" font-size="14.00">samples = 8</text>
<text text-anchor="middle" x="1271" y="-22.8" font-family="Times,serif" font-size="14.00">value = [4.073, 5.894]</text>
<text text-anchor="middle" x="1271" y="-7.8" font-family="Times,serif" font-size="14.00">class = Obstructive</text>
</g>
<!-- 13&#45;&gt;14 -->
<g id="edge14" class="edge">
<title>13&#45;&gt;14</title>
<path fill="none" stroke="black" d="M1272.23,-118.87C1272.09,-110.5 1271.95,-101.77 1271.82,-93.33"/>
<polygon fill="black" stroke="black" points="1275.31,-93.17 1271.65,-83.23 1268.32,-93.29 1275.31,-93.17"/>
</g>
<!-- 15 -->
<g id="node16" class="node">
<title>15</title>
<polygon fill="none" stroke="black" points="1561.5,-83 1376.5,-83 1376.5,0 1561.5,0 1561.5,-83"/>
<text text-anchor="middle" x="1469" y="-67.8" font-family="Times,serif" font-size="14.00">node #15</text>
<text text-anchor="middle" x="1469" y="-52.8" font-family="Times,serif" font-size="14.00">gini = 0.131</text>
<text text-anchor="middle" x="1469" y="-37.8" font-family="Times,serif" font-size="14.00">samples = 32</text>
<text text-anchor="middle" x="1469" y="-22.8" font-family="Times,serif" font-size="14.00">value = [3.055, 40.276]</text>
<text text-anchor="middle" x="1469" y="-7.8" font-family="Times,serif" font-size="14.00">class = Obstructive</text>
</g>
<!-- 13&#45;&gt;15 -->
<g id="edge15" class="edge">
<title>13&#45;&gt;15</title>
<path fill="none" stroke="black" d="M1348.78,-118.87C1364.5,-108.88 1381.03,-98.38 1396.63,-88.47"/>
<polygon fill="black" stroke="black" points="1398.63,-91.35 1405.19,-83.03 1394.87,-85.44 1398.63,-91.35"/>
</g>
<!-- 17 -->
<g id="node18" class="node">
<title>17</title>
<polygon fill="none" stroke="black" points="2042.5,-351 1845.5,-351 1845.5,-253 2042.5,-253 2042.5,-351"/>
<text text-anchor="middle" x="1944" y="-335.8" font-family="Times,serif" font-size="14.00">node #17</text>
<text text-anchor="middle" x="1944" y="-320.8" font-family="Times,serif" font-size="14.00">FVCPostPercent &lt;= 72.0</text>
<text text-anchor="middle" x="1944" y="-305.8" font-family="Times,serif" font-size="14.00">gini = 0.47</text>
<text text-anchor="middle" x="1944" y="-290.8" font-family="Times,serif" font-size="14.00">samples = 53</text>
<text text-anchor="middle" x="1944" y="-275.8" font-family="Times,serif" font-size="14.00">value = [51.933, 31.435]</text>
<text text-anchor="middle" x="1944" y="-260.8" font-family="Times,serif" font-size="14.00">class = Non&#45;obstructive</text>
</g>
<!-- 16&#45;&gt;17 -->
<g id="edge17" class="edge">
<title>16&#45;&gt;17</title>
<path fill="none" stroke="black" d="M1944,-386.97C1944,-378.69 1944,-370 1944,-361.48"/>
<polygon fill="black" stroke="black" points="1947.5,-361.21 1944,-351.21 1940.5,-361.21 1947.5,-361.21"/>
</g>
<!-- 24 -->
<g id="node25" class="node">
<title>24</title>
<polygon fill="none" stroke="black" points="2355,-351 2167,-351 2167,-253 2355,-253 2355,-351"/>
<text text-anchor="middle" x="2261" y="-335.8" font-family="Times,serif" font-size="14.00">node #24</text>
<text text-anchor="middle" x="2261" y="-320.8" font-family="Times,serif" font-size="14.00">FEV1PostVal &lt;= 2.915</text>
<text text-anchor="middle" x="2261" y="-305.8" font-family="Times,serif" font-size="14.00">gini = 0.145</text>
<text text-anchor="middle" x="2261" y="-290.8" font-family="Times,serif" font-size="14.00">samples = 46</text>
<text text-anchor="middle" x="2261" y="-275.8" font-family="Times,serif" font-size="14.00">value = [69.244, 5.894]</text>
<text text-anchor="middle" x="2261" y="-260.8" font-family="Times,serif" font-size="14.00">class = Non&#45;obstructive</text>
</g>
<!-- 16&#45;&gt;24 -->
<g id="edge24" class="edge">
<title>16&#45;&gt;24</title>
<path fill="none" stroke="black" d="M2045.61,-392.69C2081.35,-377.81 2121.54,-361.07 2157.44,-346.12"/>
<polygon fill="black" stroke="black" points="2159.07,-349.23 2166.96,-342.16 2156.38,-342.77 2159.07,-349.23"/>
</g>
<!-- 18 -->
<g id="node19" class="node">
<title>18</title>
<polygon fill="none" stroke="black" points="1933.5,-217 1742.5,-217 1742.5,-119 1933.5,-119 1933.5,-217"/>
<text text-anchor="middle" x="1838" y="-201.8" font-family="Times,serif" font-size="14.00">node #18</text>
<text text-anchor="middle" x="1838" y="-186.8" font-family="Times,serif" font-size="14.00">FEFPrePercent &lt;= 80.5</text>
<text text-anchor="middle" x="1838" y="-171.8" font-family="Times,serif" font-size="14.00">gini = 0.327</text>
<text text-anchor="middle" x="1838" y="-156.8" font-family="Times,serif" font-size="14.00">samples = 32</text>
<text text-anchor="middle" x="1838" y="-141.8" font-family="Times,serif" font-size="14.00">value = [41.75, 10.806]</text>
<text text-anchor="middle" x="1838" y="-126.8" font-family="Times,serif" font-size="14.00">class = Non&#45;obstructive</text>
</g>
<!-- 17&#45;&gt;18 -->
<g id="edge18" class="edge">
<title>17&#45;&gt;18</title>
<path fill="none" stroke="black" d="M1905.43,-252.97C1898.2,-243.96 1890.58,-234.47 1883.16,-225.24"/>
<polygon fill="black" stroke="black" points="1885.71,-222.82 1876.72,-217.21 1880.25,-227.2 1885.71,-222.82"/>
</g>
<!-- 21 -->
<g id="node22" class="node">
<title>21</title>
<polygon fill="none" stroke="black" points="2148.5,-217 1951.5,-217 1951.5,-119 2148.5,-119 2148.5,-217"/>
<text text-anchor="middle" x="2050" y="-201.8" font-family="Times,serif" font-size="14.00">node #21</text>
<text text-anchor="middle" x="2050" y="-186.8" font-family="Times,serif" font-size="14.00">FEFPostPercent &lt;= 82.0</text>
<text text-anchor="middle" x="2050" y="-171.8" font-family="Times,serif" font-size="14.00">gini = 0.443</text>
<text text-anchor="middle" x="2050" y="-156.8" font-family="Times,serif" font-size="14.00">samples = 21</text>
<text text-anchor="middle" x="2050" y="-141.8" font-family="Times,serif" font-size="14.00">value = [10.183, 20.629]</text>
<text text-anchor="middle" x="2050" y="-126.8" font-family="Times,serif" font-size="14.00">class = Obstructive</text>
</g>
<!-- 17&#45;&gt;21 -->
<g id="edge21" class="edge">
<title>17&#45;&gt;21</title>
<path fill="none" stroke="black" d="M1982.57,-252.97C1989.8,-243.96 1997.42,-234.47 2004.84,-225.24"/>
<polygon fill="black" stroke="black" points="2007.75,-227.2 2011.28,-217.21 2002.29,-222.82 2007.75,-227.2"/>
</g>
<!-- 19 -->
<g id="node20" class="node">
<title>19</title>
<polygon fill="none" stroke="black" points="1768,-83 1580,-83 1580,0 1768,0 1768,-83"/>
<text text-anchor="middle" x="1674" y="-67.8" font-family="Times,serif" font-size="14.00">node #19</text>
<text text-anchor="middle" x="1674" y="-52.8" font-family="Times,serif" font-size="14.00">gini = 0.288</text>
<text text-anchor="middle" x="1674" y="-37.8" font-family="Times,serif" font-size="14.00">samples = 31</text>
<text text-anchor="middle" x="1674" y="-22.8" font-family="Times,serif" font-size="14.00">value = [41.75, 8.841]</text>
<text text-anchor="middle" x="1674" y="-7.8" font-family="Times,serif" font-size="14.00">class = Non&#45;obstructive</text>
</g>
<!-- 18&#45;&gt;19 -->
<g id="edge19" class="edge">
<title>18&#45;&gt;19</title>
<path fill="none" stroke="black" d="M1774.59,-118.87C1761.8,-109.15 1748.37,-98.96 1735.64,-89.3"/>
<polygon fill="black" stroke="black" points="1737.47,-86.29 1727.39,-83.03 1733.24,-91.87 1737.47,-86.29"/>
</g>
<!-- 20 -->
<g id="node21" class="node">
<title>20</title>
<polygon fill="none" stroke="black" points="1944,-83 1786,-83 1786,0 1944,0 1944,-83"/>
<text text-anchor="middle" x="1865" y="-67.8" font-family="Times,serif" font-size="14.00">node #20</text>
<text text-anchor="middle" x="1865" y="-52.8" font-family="Times,serif" font-size="14.00">gini = &#45;0.0</text>
<text text-anchor="middle" x="1865" y="-37.8" font-family="Times,serif" font-size="14.00">samples = 1</text>
<text text-anchor="middle" x="1865" y="-22.8" font-family="Times,serif" font-size="14.00">value = [0.0, 1.965]</text>
<text text-anchor="middle" x="1865" y="-7.8" font-family="Times,serif" font-size="14.00">class = Obstructive</text>
</g>
<!-- 18&#45;&gt;20 -->
<g id="edge20" class="edge">
<title>18&#45;&gt;20</title>
<path fill="none" stroke="black" d="M1848.44,-118.87C1850.27,-110.41 1852.19,-101.58 1854.04,-93.06"/>
<polygon fill="black" stroke="black" points="1857.47,-93.75 1856.17,-83.23 1850.63,-92.26 1857.47,-93.75"/>
</g>
<!-- 22 -->
<g id="node23" class="node">
<title>22</title>
<polygon fill="none" stroke="black" points="2138,-83 1962,-83 1962,0 2138,0 2138,-83"/>
<text text-anchor="middle" x="2050" y="-67.8" font-family="Times,serif" font-size="14.00">node #22</text>
<text text-anchor="middle" x="2050" y="-52.8" font-family="Times,serif" font-size="14.00">gini = 0.353</text>
<text text-anchor="middle" x="2050" y="-37.8" font-family="Times,serif" font-size="14.00">samples = 17</text>
<text text-anchor="middle" x="2050" y="-22.8" font-family="Times,serif" font-size="14.00">value = [6.11, 20.629]</text>
<text text-anchor="middle" x="2050" y="-7.8" font-family="Times,serif" font-size="14.00">class = Obstructive</text>
</g>
<!-- 21&#45;&gt;22 -->
<g id="edge22" class="edge">
<title>21&#45;&gt;22</title>
<path fill="none" stroke="black" d="M2050,-118.87C2050,-110.5 2050,-101.77 2050,-93.33"/>
<polygon fill="black" stroke="black" points="2053.5,-93.23 2050,-83.23 2046.5,-93.23 2053.5,-93.23"/>
</g>
<!-- 23 -->
<g id="node24" class="node">
<title>23</title>
<polygon fill="none" stroke="black" points="2344,-83 2156,-83 2156,0 2344,0 2344,-83"/>
<text text-anchor="middle" x="2250" y="-67.8" font-family="Times,serif" font-size="14.00">node #23</text>
<text text-anchor="middle" x="2250" y="-52.8" font-family="Times,serif" font-size="14.00">gini = 0.0</text>
<text text-anchor="middle" x="2250" y="-37.8" font-family="Times,serif" font-size="14.00">samples = 4</text>
<text text-anchor="middle" x="2250" y="-22.8" font-family="Times,serif" font-size="14.00">value = [4.073, 0.0]</text>
<text text-anchor="middle" x="2250" y="-7.8" font-family="Times,serif" font-size="14.00">class = Non&#45;obstructive</text>
</g>
<!-- 21&#45;&gt;23 -->
<g id="edge23" class="edge">
<title>21&#45;&gt;23</title>
<path fill="none" stroke="black" d="M2127.33,-118.87C2143.37,-108.88 2160.24,-98.38 2176.15,-88.47"/>
<polygon fill="black" stroke="black" points="2178.25,-91.29 2184.89,-83.03 2174.55,-85.35 2178.25,-91.29"/>
</g>
<!-- 25 -->
<g id="node26" class="node">
<title>25</title>
<polygon fill="none" stroke="black" points="2355,-209.5 2167,-209.5 2167,-126.5 2355,-126.5 2355,-209.5"/>
<text text-anchor="middle" x="2261" y="-194.3" font-family="Times,serif" font-size="14.00">node #25</text>
<text text-anchor="middle" x="2261" y="-179.3" font-family="Times,serif" font-size="14.00">gini = &#45;0.0</text>
<text text-anchor="middle" x="2261" y="-164.3" font-family="Times,serif" font-size="14.00">samples = 43</text>
<text text-anchor="middle" x="2261" y="-149.3" font-family="Times,serif" font-size="14.00">value = [69.244, 0.0]</text>
<text text-anchor="middle" x="2261" y="-134.3" font-family="Times,serif" font-size="14.00">class = Non&#45;obstructive</text>
</g>
<!-- 24&#45;&gt;25 -->
<g id="edge25" class="edge">
<title>24&#45;&gt;25</title>
<path fill="none" stroke="black" d="M2261,-252.97C2261,-242.25 2261,-230.84 2261,-219.99"/>
<polygon fill="black" stroke="black" points="2264.5,-219.82 2261,-209.82 2257.5,-219.82 2264.5,-219.82"/>
</g>
<!-- 26 -->
<g id="node27" class="node">
<title>26</title>
<polygon fill="none" stroke="black" points="2531,-209.5 2373,-209.5 2373,-126.5 2531,-126.5 2531,-209.5"/>
<text text-anchor="middle" x="2452" y="-194.3" font-family="Times,serif" font-size="14.00">node #26</text>
<text text-anchor="middle" x="2452" y="-179.3" font-family="Times,serif" font-size="14.00">gini = 0.0</text>
<text text-anchor="middle" x="2452" y="-164.3" font-family="Times,serif" font-size="14.00">samples = 3</text>
<text text-anchor="middle" x="2452" y="-149.3" font-family="Times,serif" font-size="14.00">value = [0.0, 5.894]</text>
<text text-anchor="middle" x="2452" y="-134.3" font-family="Times,serif" font-size="14.00">class = Obstructive</text>
</g>
<!-- 24&#45;&gt;26 -->
<g id="edge26" class="edge">
<title>24&#45;&gt;26</title>
<path fill="none" stroke="black" d="M2330.5,-252.97C2348.19,-240.75 2367.17,-227.63 2384.74,-215.48"/>
<polygon fill="black" stroke="black" points="2387.01,-218.17 2393.25,-209.6 2383.03,-212.41 2387.01,-218.17"/>
</g>
</g>
</svg>
