<?xml version="1.0" encoding="UTF-8" standalone="no"?>
<!DOCTYPE svg PUBLIC "-//W3C//DTD SVG 1.1//EN"
 "http://www.w3.org/Graphics/SVG/1.1/DTD/svg11.dtd">
<!-- Generated by graphviz version 2.43.0 (0)
 -->
<!-- Title: Tree Pages: 1 -->
<svg width="2451pt" height="627pt"
 viewBox="0.00 0.00 2451.00 627.00" xmlns="http://www.w3.org/2000/svg" xmlns:xlink="http://www.w3.org/1999/xlink">
<g id="graph0" class="graph" transform="scale(1 1) rotate(0) translate(4 623)">
<title>Tree</title>
<polygon fill="white" stroke="transparent" points="-4,4 -4,-623 2447,-623 2447,4 -4,4"/>
<!-- 0 -->
<g id="node1" class="node">
<title>0</title>
<polygon fill="none" stroke="black" points="1323.5,-619 1126.5,-619 1126.5,-521 1323.5,-521 1323.5,-619"/>
<text text-anchor="middle" x="1225" y="-603.8" font-family="Times,serif" font-size="14.00">node #0</text>
<text text-anchor="middle" x="1225" y="-588.8" font-family="Times,serif" font-size="14.00">FEFPostPercent &lt;= 74.0</text>
<text text-anchor="middle" x="1225" y="-573.8" font-family="Times,serif" font-size="14.00">gini = 0.5</text>
<text text-anchor="middle" x="1225" y="-558.8" font-family="Times,serif" font-size="14.00">samples = 209</text>
<text text-anchor="middle" x="1225" y="-543.8" font-family="Times,serif" font-size="14.00">value = [167.0, 167.0]</text>
<text text-anchor="middle" x="1225" y="-528.8" font-family="Times,serif" font-size="14.00">class = Obstructive</text>
</g>
<!-- 1 -->
<g id="node2" class="node">
<title>1</title>
<polygon fill="none" stroke="black" points="911,-485 717,-485 717,-387 911,-387 911,-485"/>
<text text-anchor="middle" x="814" y="-469.8" font-family="Times,serif" font-size="14.00">node #1</text>
<text text-anchor="middle" x="814" y="-454.8" font-family="Times,serif" font-size="14.00">FEFPrePercent &lt;= 32.0</text>
<text text-anchor="middle" x="814" y="-439.8" font-family="Times,serif" font-size="14.00">gini = 0.394</text>
<text text-anchor="middle" x="814" y="-424.8" font-family="Times,serif" font-size="14.00">samples = 130</text>
<text text-anchor="middle" x="814" y="-409.8" font-family="Times,serif" font-size="14.00">value = [57.05, 154.451]</text>
<text text-anchor="middle" x="814" y="-394.8" font-family="Times,serif" font-size="14.00">class = Obstructive</text>
</g>
<!-- 0&#45;&gt;1 -->
<g id="edge1" class="edge">
<title>0&#45;&gt;1</title>
<path fill="none" stroke="black" d="M1126.29,-537.3C1064.28,-517.38 984.3,-491.7 920.81,-471.3"/>
<polygon fill="black" stroke="black" points="921.76,-467.93 911.17,-468.21 919.62,-474.6 921.76,-467.93"/>
<text text-anchor="middle" x="922.59" y="-486.74" font-family="Times,serif" font-size="14.00">True</text>
</g>
<!-- 14 -->
<g id="node15" class="node">
<title>14</title>
<polygon fill="none" stroke="black" points="1727,-485 1533,-485 1533,-387 1727,-387 1727,-485"/>
<text text-anchor="middle" x="1630" y="-469.8" font-family="Times,serif" font-size="14.00">node #14</text>
<text text-anchor="middle" x="1630" y="-454.8" font-family="Times,serif" font-size="14.00">FEV1PostVal &lt;= 2.47</text>
<text text-anchor="middle" x="1630" y="-439.8" font-family="Times,serif" font-size="14.00">gini = 0.184</text>
<text text-anchor="middle" x="1630" y="-424.8" font-family="Times,serif" font-size="14.00">samples = 79</text>
<text text-anchor="middle" x="1630" y="-409.8" font-family="Times,serif" font-size="14.00">value = [109.95, 12.549]</text>
<text text-anchor="middle" x="1630" y="-394.8" font-family="Times,serif" font-size="14.00">class = Non&#45;obstructive</text>
</g>
<!-- 0&#45;&gt;14 -->
<g id="edge14" class="edge">
<title>0&#45;&gt;14</title>
<path fill="none" stroke="black" d="M1323.56,-536.88C1383.9,-517.21 1461.13,-492.04 1522.97,-471.88"/>
<polygon fill="black" stroke="black" points="1524.33,-475.12 1532.76,-468.69 1522.16,-468.47 1524.33,-475.12"/>
<text text-anchor="middle" x="1521.43" y="-487.28" font-family="Times,serif" font-size="14.00">False</text>
</g>
<!-- 2 -->
<g id="node3" class="node">
<title>2</title>
<polygon fill="none" stroke="black" points="391.5,-351 206.5,-351 206.5,-253 391.5,-253 391.5,-351"/>
<text text-anchor="middle" x="299" y="-335.8" font-family="Times,serif" font-size="14.00">node #2</text>
<text text-anchor="middle" x="299" y="-320.8" font-family="Times,serif" font-size="14.00">FEFPostVal &lt;= 0.475</text>
<text text-anchor="middle" x="299" y="-305.8" font-family="Times,serif" font-size="14.00">gini = 0.107</text>
<text text-anchor="middle" x="299" y="-290.8" font-family="Times,serif" font-size="14.00">samples = 54</text>
<text text-anchor="middle" x="299" y="-275.8" font-family="Times,serif" font-size="14.00">value = [5.186, 85.913]</text>
<text text-anchor="middle" x="299" y="-260.8" font-family="Times,serif" font-size="14.00">class = Obstructive</text>
</g>
<!-- 1&#45;&gt;2 -->
<g id="edge2" class="edge">
<title>1&#45;&gt;2</title>
<path fill="none" stroke="black" d="M716.83,-410.09C626.83,-387.03 493.44,-352.84 401.71,-329.33"/>
<polygon fill="black" stroke="black" points="402.41,-325.89 391.85,-326.8 400.67,-332.67 402.41,-325.89"/>
</g>
<!-- 7 -->
<g id="node8" class="node">
<title>7</title>
<polygon fill="none" stroke="black" points="912.5,-351 715.5,-351 715.5,-253 912.5,-253 912.5,-351"/>
<text text-anchor="middle" x="814" y="-335.8" font-family="Times,serif" font-size="14.00">node #7</text>
<text text-anchor="middle" x="814" y="-320.8" font-family="Times,serif" font-size="14.00">FVCPostPercent &lt;= 62.0</text>
<text text-anchor="middle" x="814" y="-305.8" font-family="Times,serif" font-size="14.00">gini = 0.49</text>
<text text-anchor="middle" x="814" y="-290.8" font-family="Times,serif" font-size="14.00">samples = 76</text>
<text text-anchor="middle" x="814" y="-275.8" font-family="Times,serif" font-size="14.00">value = [51.863, 68.538]</text>
<text text-anchor="middle" x="814" y="-260.8" font-family="Times,serif" font-size="14.00">class = Obstructive</text>
</g>
<!-- 1&#45;&gt;7 -->
<g id="edge7" class="edge">
<title>1&#45;&gt;7</title>
<path fill="none" stroke="black" d="M814,-386.97C814,-378.69 814,-370 814,-361.48"/>
<polygon fill="black" stroke="black" points="817.5,-361.21 814,-351.21 810.5,-361.21 817.5,-361.21"/>
</g>
<!-- 3 -->
<g id="node4" class="node">
<title>3</title>
<polygon fill="none" stroke="black" points="182.5,-209.5 15.5,-209.5 15.5,-126.5 182.5,-126.5 182.5,-209.5"/>
<text text-anchor="middle" x="99" y="-194.3" font-family="Times,serif" font-size="14.00">node #3</text>
<text text-anchor="middle" x="99" y="-179.3" font-family="Times,serif" font-size="14.00">gini = 0.0</text>
<text text-anchor="middle" x="99" y="-164.3" font-family="Times,serif" font-size="14.00">samples = 24</text>
<text text-anchor="middle" x="99" y="-149.3" font-family="Times,serif" font-size="14.00">value = [0.0, 39.578]</text>
<text text-anchor="middle" x="99" y="-134.3" font-family="Times,serif" font-size="14.00">class = Obstructive</text>
</g>
<!-- 2&#45;&gt;3 -->
<g id="edge3" class="edge">
<title>2&#45;&gt;3</title>
<path fill="none" stroke="black" d="M226.23,-252.97C207.54,-240.63 187.47,-227.39 168.92,-215.15"/>
<polygon fill="black" stroke="black" points="170.79,-212.19 160.52,-209.6 166.94,-218.03 170.79,-212.19"/>
</g>
<!-- 4 -->
<g id="node5" class="node">
<title>4</title>
<polygon fill="none" stroke="black" points="397.5,-217 200.5,-217 200.5,-119 397.5,-119 397.5,-217"/>
<text text-anchor="middle" x="299" y="-201.8" font-family="Times,serif" font-size="14.00">node #4</text>
<text text-anchor="middle" x="299" y="-186.8" font-family="Times,serif" font-size="14.00">FVCPostPercent &lt;= 44.5</text>
<text text-anchor="middle" x="299" y="-171.8" font-family="Times,serif" font-size="14.00">gini = 0.181</text>
<text text-anchor="middle" x="299" y="-156.8" font-family="Times,serif" font-size="14.00">samples = 30</text>
<text text-anchor="middle" x="299" y="-141.8" font-family="Times,serif" font-size="14.00">value = [5.186, 46.335]</text>
<text text-anchor="middle" x="299" y="-126.8" font-family="Times,serif" font-size="14.00">class = Obstructive</text>
</g>
<!-- 2&#45;&gt;4 -->
<g id="edge4" class="edge">
<title>2&#45;&gt;4</title>
<path fill="none" stroke="black" d="M299,-252.97C299,-244.69 299,-236 299,-227.48"/>
<polygon fill="black" stroke="black" points="302.5,-227.21 299,-217.21 295.5,-227.21 302.5,-227.21"/>
</g>
<!-- 5 -->
<g id="node6" class="node">
<title>5</title>
<polygon fill="none" stroke="black" points="188,-83 0,-83 0,0 188,0 188,-83"/>
<text text-anchor="middle" x="94" y="-67.8" font-family="Times,serif" font-size="14.00">node #5</text>
<text text-anchor="middle" x="94" y="-52.8" font-family="Times,serif" font-size="14.00">gini = 0.0</text>
<text text-anchor="middle" x="94" y="-37.8" font-family="Times,serif" font-size="14.00">samples = 2</text>
<text text-anchor="middle" x="94" y="-22.8" font-family="Times,serif" font-size="14.00">value = [3.112, 0.0]</text>
<text text-anchor="middle" x="94" y="-7.8" font-family="Times,serif" font-size="14.00">class = Non&#45;obstructive</text>
</g>
<!-- 4&#45;&gt;5 -->
<g id="edge5" class="edge">
<title>4&#45;&gt;5</title>
<path fill="none" stroke="black" d="M219.74,-118.87C203.3,-108.88 186.01,-98.38 169.69,-88.47"/>
<polygon fill="black" stroke="black" points="171.1,-85.23 160.74,-83.03 167.47,-91.21 171.1,-85.23"/>
</g>
<!-- 6 -->
<g id="node7" class="node">
<title>6</title>
<polygon fill="none" stroke="black" points="391.5,-83 206.5,-83 206.5,0 391.5,0 391.5,-83"/>
<text text-anchor="middle" x="299" y="-67.8" font-family="Times,serif" font-size="14.00">node #6</text>
<text text-anchor="middle" x="299" y="-52.8" font-family="Times,serif" font-size="14.00">gini = 0.082</text>
<text text-anchor="middle" x="299" y="-37.8" font-family="Times,serif" font-size="14.00">samples = 28</text>
<text text-anchor="middle" x="299" y="-22.8" font-family="Times,serif" font-size="14.00">value = [2.075, 46.335]</text>
<text text-anchor="middle" x="299" y="-7.8" font-family="Times,serif" font-size="14.00">class = Obstructive</text>
</g>
<!-- 4&#45;&gt;6 -->
<g id="edge6" class="edge">
<title>4&#45;&gt;6</title>
<path fill="none" stroke="black" d="M299,-118.87C299,-110.5 299,-101.77 299,-93.33"/>
<polygon fill="black" stroke="black" points="302.5,-93.23 299,-83.23 295.5,-93.23 302.5,-93.23"/>
</g>
<!-- 8 -->
<g id="node9" class="node">
<title>8</title>
<polygon fill="none" stroke="black" points="804,-217 616,-217 616,-119 804,-119 804,-217"/>
<text text-anchor="middle" x="710" y="-201.8" font-family="Times,serif" font-size="14.00">node #8</text>
<text text-anchor="middle" x="710" y="-186.8" font-family="Times,serif" font-size="14.00">FEV1PostVal &lt;= 1.45</text>
<text text-anchor="middle" x="710" y="-171.8" font-family="Times,serif" font-size="14.00">gini = 0.259</text>
<text text-anchor="middle" x="710" y="-156.8" font-family="Times,serif" font-size="14.00">samples = 25</text>
<text text-anchor="middle" x="710" y="-141.8" font-family="Times,serif" font-size="14.00">value = [32.155, 5.792]</text>
<text text-anchor="middle" x="710" y="-126.8" font-family="Times,serif" font-size="14.00">class = Non&#45;obstructive</text>
</g>
<!-- 7&#45;&gt;8 -->
<g id="edge8" class="edge">
<title>7&#45;&gt;8</title>
<path fill="none" stroke="black" d="M776.16,-252.97C769.06,-243.96 761.58,-234.47 754.31,-225.24"/>
<polygon fill="black" stroke="black" points="756.92,-222.9 747.99,-217.21 751.43,-227.23 756.92,-222.9"/>
</g>
<!-- 11 -->
<g id="node12" class="node">
<title>11</title>
<polygon fill="none" stroke="black" points="1016,-217 822,-217 822,-119 1016,-119 1016,-217"/>
<text text-anchor="middle" x="919" y="-201.8" font-family="Times,serif" font-size="14.00">node #11</text>
<text text-anchor="middle" x="919" y="-186.8" font-family="Times,serif" font-size="14.00">FEFPostVal &lt;= 3.275</text>
<text text-anchor="middle" x="919" y="-171.8" font-family="Times,serif" font-size="14.00">gini = 0.364</text>
<text text-anchor="middle" x="919" y="-156.8" font-family="Times,serif" font-size="14.00">samples = 51</text>
<text text-anchor="middle" x="919" y="-141.8" font-family="Times,serif" font-size="14.00">value = [19.708, 62.746]</text>
<text text-anchor="middle" x="919" y="-126.8" font-family="Times,serif" font-size="14.00">class = Obstructive</text>
</g>
<!-- 7&#45;&gt;11 -->
<g id="edge11" class="edge">
<title>7&#45;&gt;11</title>
<path fill="none" stroke="black" d="M852.2,-252.97C859.37,-243.96 866.92,-234.47 874.26,-225.24"/>
<polygon fill="black" stroke="black" points="877.16,-227.22 880.65,-217.21 871.68,-222.86 877.16,-227.22"/>
</g>
<!-- 9 -->
<g id="node10" class="node">
<title>9</title>
<polygon fill="none" stroke="black" points="598,-83 410,-83 410,0 598,0 598,-83"/>
<text text-anchor="middle" x="504" y="-67.8" font-family="Times,serif" font-size="14.00">node #9</text>
<text text-anchor="middle" x="504" y="-52.8" font-family="Times,serif" font-size="14.00">gini = 0.072</text>
<text text-anchor="middle" x="504" y="-37.8" font-family="Times,serif" font-size="14.00">samples = 17</text>
<text text-anchor="middle" x="504" y="-22.8" font-family="Times,serif" font-size="14.00">value = [24.894, 0.965]</text>
<text text-anchor="middle" x="504" y="-7.8" font-family="Times,serif" font-size="14.00">class = Non&#45;obstructive</text>
</g>
<!-- 8&#45;&gt;9 -->
<g id="edge9" class="edge">
<title>8&#45;&gt;9</title>
<path fill="none" stroke="black" d="M630.36,-118.87C613.83,-108.88 596.46,-98.38 580.06,-88.47"/>
<polygon fill="black" stroke="black" points="581.43,-85.21 571.07,-83.03 577.81,-91.2 581.43,-85.21"/>
</g>
<!-- 10 -->
<g id="node11" class="node">
<title>10</title>
<polygon fill="none" stroke="black" points="804,-83 616,-83 616,0 804,0 804,-83"/>
<text text-anchor="middle" x="710" y="-67.8" font-family="Times,serif" font-size="14.00">node #10</text>
<text text-anchor="middle" x="710" y="-52.8" font-family="Times,serif" font-size="14.00">gini = 0.48</text>
<text text-anchor="middle" x="710" y="-37.8" font-family="Times,serif" font-size="14.00">samples = 8</text>
<text text-anchor="middle" x="710" y="-22.8" font-family="Times,serif" font-size="14.00">value = [7.261, 4.827]</text>
<text text-anchor="middle" x="710" y="-7.8" font-family="Times,serif" font-size="14.00">class = Non&#45;obstructive</text>
</g>
<!-- 8&#45;&gt;10 -->
<g id="edge10" class="edge">
<title>8&#45;&gt;10</title>
<path fill="none" stroke="black" d="M710,-118.87C710,-110.5 710,-101.77 710,-93.33"/>
<polygon fill="black" stroke="black" points="713.5,-93.23 710,-83.23 706.5,-93.23 713.5,-93.23"/>
</g>
<!-- 12 -->
<g id="node13" class="node">
<title>12</title>
<polygon fill="none" stroke="black" points="1016,-83 822,-83 822,0 1016,0 1016,-83"/>
<text text-anchor="middle" x="919" y="-67.8" font-family="Times,serif" font-size="14.00">node #12</text>
<text text-anchor="middle" x="919" y="-52.8" font-family="Times,serif" font-size="14.00">gini = 0.331</text>
<text text-anchor="middle" x="919" y="-37.8" font-family="Times,serif" font-size="14.00">samples = 49</text>
<text text-anchor="middle" x="919" y="-22.8" font-family="Times,serif" font-size="14.00">value = [16.596, 62.746]</text>
<text text-anchor="middle" x="919" y="-7.8" font-family="Times,serif" font-size="14.00">class = Obstructive</text>
</g>
<!-- 11&#45;&gt;12 -->
<g id="edge12" class="edge">
<title>11&#45;&gt;12</title>
<path fill="none" stroke="black" d="M919,-118.87C919,-110.5 919,-101.77 919,-93.33"/>
<polygon fill="black" stroke="black" points="922.5,-93.23 919,-83.23 915.5,-93.23 922.5,-93.23"/>
</g>
<!-- 13 -->
<g id="node14" class="node">
<title>13</title>
<polygon fill="none" stroke="black" points="1222,-83 1034,-83 1034,0 1222,0 1222,-83"/>
<text text-anchor="middle" x="1128" y="-67.8" font-family="Times,serif" font-size="14.00">node #13</text>
<text text-anchor="middle" x="1128" y="-52.8" font-family="Times,serif" font-size="14.00">gini = 0.0</text>
<text text-anchor="middle" x="1128" y="-37.8" font-family="Times,serif" font-size="14.00">samples = 2</text>
<text text-anchor="middle" x="1128" y="-22.8" font-family="Times,serif" font-size="14.00">value = [3.112, 0.0]</text>
<text text-anchor="middle" x="1128" y="-7.8" font-family="Times,serif" font-size="14.00">class = Non&#45;obstructive</text>
</g>
<!-- 11&#45;&gt;13 -->
<g id="edge13" class="edge">
<title>11&#45;&gt;13</title>
<path fill="none" stroke="black" d="M999.8,-118.87C1016.73,-108.78 1034.52,-98.18 1051.29,-88.19"/>
<polygon fill="black" stroke="black" points="1053.16,-91.16 1059.96,-83.03 1049.58,-85.14 1053.16,-91.16"/>
</g>
<!-- 15 -->
<g id="node16" class="node">
<title>15</title>
<polygon fill="none" stroke="black" points="1727,-351 1533,-351 1533,-253 1727,-253 1727,-351"/>
<text text-anchor="middle" x="1630" y="-335.8" font-family="Times,serif" font-size="14.00">node #15</text>
<text text-anchor="middle" x="1630" y="-320.8" font-family="Times,serif" font-size="14.00">FEV1PostVal &lt;= 1.975</text>
<text text-anchor="middle" x="1630" y="-305.8" font-family="Times,serif" font-size="14.00">gini = 0.087</text>
<text text-anchor="middle" x="1630" y="-290.8" font-family="Times,serif" font-size="14.00">samples = 67</text>
<text text-anchor="middle" x="1630" y="-275.8" font-family="Times,serif" font-size="14.00">value = [100.615, 4.827]</text>
<text text-anchor="middle" x="1630" y="-260.8" font-family="Times,serif" font-size="14.00">class = Non&#45;obstructive</text>
</g>
<!-- 14&#45;&gt;15 -->
<g id="edge15" class="edge">
<title>14&#45;&gt;15</title>
<path fill="none" stroke="black" d="M1630,-386.97C1630,-378.69 1630,-370 1630,-361.48"/>
<polygon fill="black" stroke="black" points="1633.5,-361.21 1630,-351.21 1626.5,-361.21 1633.5,-361.21"/>
</g>
<!-- 22 -->
<g id="node23" class="node">
<title>22</title>
<polygon fill="none" stroke="black" points="2049,-351 1843,-351 1843,-253 2049,-253 2049,-351"/>
<text text-anchor="middle" x="1946" y="-335.8" font-family="Times,serif" font-size="14.00">node #22</text>
<text text-anchor="middle" x="1946" y="-320.8" font-family="Times,serif" font-size="14.00">FEV1PostPercent &lt;= 75.0</text>
<text text-anchor="middle" x="1946" y="-305.8" font-family="Times,serif" font-size="14.00">gini = 0.496</text>
<text text-anchor="middle" x="1946" y="-290.8" font-family="Times,serif" font-size="14.00">samples = 12</text>
<text text-anchor="middle" x="1946" y="-275.8" font-family="Times,serif" font-size="14.00">value = [9.335, 7.723]</text>
<text text-anchor="middle" x="1946" y="-260.8" font-family="Times,serif" font-size="14.00">class = Non&#45;obstructive</text>
</g>
<!-- 14&#45;&gt;22 -->
<g id="edge22" class="edge">
<title>14&#45;&gt;22</title>
<path fill="none" stroke="black" d="M1727.39,-394.32C1760.87,-380.33 1798.64,-364.56 1833.24,-350.1"/>
<polygon fill="black" stroke="black" points="1835.03,-353.15 1842.91,-346.06 1832.33,-346.69 1835.03,-353.15"/>
</g>
<!-- 16 -->
<g id="node17" class="node">
<title>16</title>
<polygon fill="none" stroke="black" points="1627.5,-217 1436.5,-217 1436.5,-119 1627.5,-119 1627.5,-217"/>
<text text-anchor="middle" x="1532" y="-201.8" font-family="Times,serif" font-size="14.00">node #16</text>
<text text-anchor="middle" x="1532" y="-186.8" font-family="Times,serif" font-size="14.00">FEFPrePercent &lt;= 82.5</text>
<text text-anchor="middle" x="1532" y="-171.8" font-family="Times,serif" font-size="14.00">gini = 0.022</text>
<text text-anchor="middle" x="1532" y="-156.8" font-family="Times,serif" font-size="14.00">samples = 55</text>
<text text-anchor="middle" x="1532" y="-141.8" font-family="Times,serif" font-size="14.00">value = [85.056, 0.965]</text>
<text text-anchor="middle" x="1532" y="-126.8" font-family="Times,serif" font-size="14.00">class = Non&#45;obstructive</text>
</g>
<!-- 15&#45;&gt;16 -->
<g id="edge16" class="edge">
<title>15&#45;&gt;16</title>
<path fill="none" stroke="black" d="M1594.34,-252.97C1587.72,-244.05 1580.75,-234.66 1573.96,-225.52"/>
<polygon fill="black" stroke="black" points="1576.57,-223.16 1567.8,-217.21 1570.95,-227.33 1576.57,-223.16"/>
</g>
<!-- 19 -->
<g id="node20" class="node">
<title>19</title>
<polygon fill="none" stroke="black" points="1834,-217 1646,-217 1646,-119 1834,-119 1834,-217"/>
<text text-anchor="middle" x="1740" y="-201.8" font-family="Times,serif" font-size="14.00">node #19</text>
<text text-anchor="middle" x="1740" y="-186.8" font-family="Times,serif" font-size="14.00">FEFPreVal &lt;= 2.54</text>
<text text-anchor="middle" x="1740" y="-171.8" font-family="Times,serif" font-size="14.00">gini = 0.319</text>
<text text-anchor="middle" x="1740" y="-156.8" font-family="Times,serif" font-size="14.00">samples = 12</text>
<text text-anchor="middle" x="1740" y="-141.8" font-family="Times,serif" font-size="14.00">value = [15.559, 3.861]</text>
<text text-anchor="middle" x="1740" y="-126.8" font-family="Times,serif" font-size="14.00">class = Non&#45;obstructive</text>
</g>
<!-- 15&#45;&gt;19 -->
<g id="edge19" class="edge">
<title>15&#45;&gt;19</title>
<path fill="none" stroke="black" d="M1670.02,-252.97C1677.61,-243.87 1685.6,-234.28 1693.37,-224.96"/>
<polygon fill="black" stroke="black" points="1696.11,-227.14 1699.82,-217.21 1690.73,-222.66 1696.11,-227.14"/>
</g>
<!-- 17 -->
<g id="node18" class="node">
<title>17</title>
<polygon fill="none" stroke="black" points="1428,-83 1240,-83 1240,0 1428,0 1428,-83"/>
<text text-anchor="middle" x="1334" y="-67.8" font-family="Times,serif" font-size="14.00">node #17</text>
<text text-anchor="middle" x="1334" y="-52.8" font-family="Times,serif" font-size="14.00">gini = 0.072</text>
<text text-anchor="middle" x="1334" y="-37.8" font-family="Times,serif" font-size="14.00">samples = 17</text>
<text text-anchor="middle" x="1334" y="-22.8" font-family="Times,serif" font-size="14.00">value = [24.894, 0.965]</text>
<text text-anchor="middle" x="1334" y="-7.8" font-family="Times,serif" font-size="14.00">class = Non&#45;obstructive</text>
</g>
<!-- 16&#45;&gt;17 -->
<g id="edge17" class="edge">
<title>16&#45;&gt;17</title>
<path fill="none" stroke="black" d="M1455.45,-118.87C1439.56,-108.88 1422.86,-98.38 1407.11,-88.47"/>
<polygon fill="black" stroke="black" points="1408.79,-85.39 1398.46,-83.03 1405.06,-91.32 1408.79,-85.39"/>
</g>
<!-- 18 -->
<g id="node19" class="node">
<title>18</title>
<polygon fill="none" stroke="black" points="1634,-83 1446,-83 1446,0 1634,0 1634,-83"/>
<text text-anchor="middle" x="1540" y="-67.8" font-family="Times,serif" font-size="14.00">node #18</text>
<text text-anchor="middle" x="1540" y="-52.8" font-family="Times,serif" font-size="14.00">gini = 0.0</text>
<text text-anchor="middle" x="1540" y="-37.8" font-family="Times,serif" font-size="14.00">samples = 38</text>
<text text-anchor="middle" x="1540" y="-22.8" font-family="Times,serif" font-size="14.00">value = [60.161, 0.0]</text>
<text text-anchor="middle" x="1540" y="-7.8" font-family="Times,serif" font-size="14.00">class = Non&#45;obstructive</text>
</g>
<!-- 16&#45;&gt;18 -->
<g id="edge18" class="edge">
<title>16&#45;&gt;18</title>
<path fill="none" stroke="black" d="M1535.09,-118.87C1535.63,-110.5 1536.19,-101.77 1536.73,-93.33"/>
<polygon fill="black" stroke="black" points="1540.23,-93.43 1537.38,-83.23 1533.25,-92.99 1540.23,-93.43"/>
</g>
<!-- 20 -->
<g id="node21" class="node">
<title>20</title>
<polygon fill="none" stroke="black" points="1828,-83 1652,-83 1652,0 1828,0 1828,-83"/>
<text text-anchor="middle" x="1740" y="-67.8" font-family="Times,serif" font-size="14.00">node #20</text>
<text text-anchor="middle" x="1740" y="-52.8" font-family="Times,serif" font-size="14.00">gini = 0.455</text>
<text text-anchor="middle" x="1740" y="-37.8" font-family="Times,serif" font-size="14.00">samples = 5</text>
<text text-anchor="middle" x="1740" y="-22.8" font-family="Times,serif" font-size="14.00">value = [2.075, 3.861]</text>
<text text-anchor="middle" x="1740" y="-7.8" font-family="Times,serif" font-size="14.00">class = Obstructive</text>
</g>
<!-- 19&#45;&gt;20 -->
<g id="edge20" class="edge">
<title>19&#45;&gt;20</title>
<path fill="none" stroke="black" d="M1740,-118.87C1740,-110.5 1740,-101.77 1740,-93.33"/>
<polygon fill="black" stroke="black" points="1743.5,-93.23 1740,-83.23 1736.5,-93.23 1743.5,-93.23"/>
</g>
<!-- 21 -->
<g id="node22" class="node">
<title>21</title>
<polygon fill="none" stroke="black" points="2034,-83 1846,-83 1846,0 2034,0 2034,-83"/>
<text text-anchor="middle" x="1940" y="-67.8" font-family="Times,serif" font-size="14.00">node #21</text>
<text text-anchor="middle" x="1940" y="-52.8" font-family="Times,serif" font-size="14.00">gini = &#45;0.0</text>
<text text-anchor="middle" x="1940" y="-37.8" font-family="Times,serif" font-size="14.00">samples = 7</text>
<text text-anchor="middle" x="1940" y="-22.8" font-family="Times,serif" font-size="14.00">value = [13.484, 0.0]</text>
<text text-anchor="middle" x="1940" y="-7.8" font-family="Times,serif" font-size="14.00">class = Non&#45;obstructive</text>
</g>
<!-- 19&#45;&gt;21 -->
<g id="edge21" class="edge">
<title>19&#45;&gt;21</title>
<path fill="none" stroke="black" d="M1817.33,-118.87C1833.37,-108.88 1850.24,-98.38 1866.15,-88.47"/>
<polygon fill="black" stroke="black" points="1868.25,-91.29 1874.89,-83.03 1864.55,-85.35 1868.25,-91.29"/>
</g>
<!-- 23 -->
<g id="node24" class="node">
<title>23</title>
<polygon fill="none" stroke="black" points="2040,-209.5 1852,-209.5 1852,-126.5 2040,-126.5 2040,-209.5"/>
<text text-anchor="middle" x="1946" y="-194.3" font-family="Times,serif" font-size="14.00">node #23</text>
<text text-anchor="middle" x="1946" y="-179.3" font-family="Times,serif" font-size="14.00">gini = 0.0</text>
<text text-anchor="middle" x="1946" y="-164.3" font-family="Times,serif" font-size="14.00">samples = 3</text>
<text text-anchor="middle" x="1946" y="-149.3" font-family="Times,serif" font-size="14.00">value = [5.186, 0.0]</text>
<text text-anchor="middle" x="1946" y="-134.3" font-family="Times,serif" font-size="14.00">class = Non&#45;obstructive</text>
</g>
<!-- 22&#45;&gt;23 -->
<g id="edge23" class="edge">
<title>22&#45;&gt;23</title>
<path fill="none" stroke="black" d="M1946,-252.97C1946,-242.25 1946,-230.84 1946,-219.99"/>
<polygon fill="black" stroke="black" points="1949.5,-219.82 1946,-209.82 1942.5,-219.82 1949.5,-219.82"/>
</g>
<!-- 24 -->
<g id="node25" class="node">
<title>24</title>
<polygon fill="none" stroke="black" points="2255.5,-217 2058.5,-217 2058.5,-119 2255.5,-119 2255.5,-217"/>
<text text-anchor="middle" x="2157" y="-201.8" font-family="Times,serif" font-size="14.00">node #24</text>
<text text-anchor="middle" x="2157" y="-186.8" font-family="Times,serif" font-size="14.00">FVCPostPercent &lt;= 94.0</text>
<text text-anchor="middle" x="2157" y="-171.8" font-family="Times,serif" font-size="14.00">gini = 0.455</text>
<text text-anchor="middle" x="2157" y="-156.8" font-family="Times,serif" font-size="14.00">samples = 9</text>
<text text-anchor="middle" x="2157" y="-141.8" font-family="Times,serif" font-size="14.00">value = [4.149, 7.723]</text>
<text text-anchor="middle" x="2157" y="-126.8" font-family="Times,serif" font-size="14.00">class = Obstructive</text>
</g>
<!-- 22&#45;&gt;24 -->
<g id="edge24" class="edge">
<title>22&#45;&gt;24</title>
<path fill="none" stroke="black" d="M2022.77,-252.97C2038.48,-243.14 2055.11,-232.74 2071.11,-222.73"/>
<polygon fill="black" stroke="black" points="2073.31,-225.48 2079.93,-217.21 2069.6,-219.55 2073.31,-225.48"/>
</g>
<!-- 25 -->
<g id="node26" class="node">
<title>25</title>
<polygon fill="none" stroke="black" points="2237,-83 2061,-83 2061,0 2237,0 2237,-83"/>
<text text-anchor="middle" x="2149" y="-67.8" font-family="Times,serif" font-size="14.00">node #25</text>
<text text-anchor="middle" x="2149" y="-52.8" font-family="Times,serif" font-size="14.00">gini = 0.209</text>
<text text-anchor="middle" x="2149" y="-37.8" font-family="Times,serif" font-size="14.00">samples = 7</text>
<text text-anchor="middle" x="2149" y="-22.8" font-family="Times,serif" font-size="14.00">value = [1.037, 7.723]</text>
<text text-anchor="middle" x="2149" y="-7.8" font-family="Times,serif" font-size="14.00">class = Obstructive</text>
</g>
<!-- 24&#45;&gt;25 -->
<g id="edge25" class="edge">
<title>24&#45;&gt;25</title>
<path fill="none" stroke="black" d="M2153.91,-118.87C2153.37,-110.5 2152.81,-101.77 2152.27,-93.33"/>
<polygon fill="black" stroke="black" points="2155.75,-92.99 2151.62,-83.23 2148.77,-93.43 2155.75,-92.99"/>
</g>
<!-- 26 -->
<g id="node27" class="node">
<title>26</title>
<polygon fill="none" stroke="black" points="2443,-83 2255,-83 2255,0 2443,0 2443,-83"/>
<text text-anchor="middle" x="2349" y="-67.8" font-family="Times,serif" font-size="14.00">node #26</text>
<text text-anchor="middle" x="2349" y="-52.8" font-family="Times,serif" font-size="14.00">gini = &#45;0.0</text>
<text text-anchor="middle" x="2349" y="-37.8" font-family="Times,serif" font-size="14.00">samples = 2</text>
<text text-anchor="middle" x="2349" y="-22.8" font-family="Times,serif" font-size="14.00">value = [3.112, 0.0]</text>
<text text-anchor="middle" x="2349" y="-7.8" font-family="Times,serif" font-size="14.00">class = Non&#45;obstructive</text>
</g>
<!-- 24&#45;&gt;26 -->
<g id="edge26" class="edge">
<title>24&#45;&gt;26</title>
<path fill="none" stroke="black" d="M2231.23,-118.87C2246.49,-108.97 2262.53,-98.57 2277.68,-88.74"/>
<polygon fill="black" stroke="black" points="2280.01,-91.41 2286.49,-83.03 2276.2,-85.54 2280.01,-91.41"/>
</g>
</g>
</svg>
