<?xml version="1.0" encoding="UTF-8" standalone="no"?>
<!DOCTYPE svg PUBLIC "-//W3C//DTD SVG 1.1//EN"
 "http://www.w3.org/Graphics/SVG/1.1/DTD/svg11.dtd">
<!-- Generated by graphviz version 2.43.0 (0)
 -->
<!-- Title: Tree Pages: 1 -->
<svg width="2766pt" height="627pt"
 viewBox="0.00 0.00 2766.00 627.00" xmlns="http://www.w3.org/2000/svg" xmlns:xlink="http://www.w3.org/1999/xlink">
<g id="graph0" class="graph" transform="scale(1 1) rotate(0) translate(4 623)">
<title>Tree</title>
<polygon fill="white" stroke="transparent" points="-4,4 -4,-623 2762,-623 2762,4 -4,4"/>
<!-- 0 -->
<g id="node1" class="node">
<title>0</title>
<polygon fill="none" stroke="black" points="1176,-619 988,-619 988,-521 1176,-521 1176,-619"/>
<text text-anchor="middle" x="1082" y="-603.8" font-family="Times,serif" font-size="14.00">node #0</text>
<text text-anchor="middle" x="1082" y="-588.8" font-family="Times,serif" font-size="14.00">FEFPreVal &lt;= 1.305</text>
<text text-anchor="middle" x="1082" y="-573.8" font-family="Times,serif" font-size="14.00">gini = 0.5</text>
<text text-anchor="middle" x="1082" y="-558.8" font-family="Times,serif" font-size="14.00">samples = 213</text>
<text text-anchor="middle" x="1082" y="-543.8" font-family="Times,serif" font-size="14.00">value = [167.0, 167.0]</text>
<text text-anchor="middle" x="1082" y="-528.8" font-family="Times,serif" font-size="14.00">class = Non&#45;obstructive</text>
</g>
<!-- 1 -->
<g id="node2" class="node">
<title>1</title>
<polygon fill="none" stroke="black" points="875.5,-485 678.5,-485 678.5,-387 875.5,-387 875.5,-485"/>
<text text-anchor="middle" x="777" y="-469.8" font-family="Times,serif" font-size="14.00">node #1</text>
<text text-anchor="middle" x="777" y="-454.8" font-family="Times,serif" font-size="14.00">FVCPostPercent &lt;= 40.5</text>
<text text-anchor="middle" x="777" y="-439.8" font-family="Times,serif" font-size="14.00">gini = 0.283</text>
<text text-anchor="middle" x="777" y="-424.8" font-family="Times,serif" font-size="14.00">samples = 83</text>
<text text-anchor="middle" x="777" y="-409.8" font-family="Times,serif" font-size="14.00">value = [23.994, 116.9]</text>
<text text-anchor="middle" x="777" y="-394.8" font-family="Times,serif" font-size="14.00">class = Obstructive</text>
</g>
<!-- 0&#45;&gt;1 -->
<g id="edge1" class="edge">
<title>0&#45;&gt;1</title>
<path fill="none" stroke="black" d="M987.58,-528.14C955.12,-514.09 918.53,-498.25 885.07,-483.77"/>
<polygon fill="black" stroke="black" points="886.28,-480.48 875.72,-479.72 883.5,-486.91 886.28,-480.48"/>
<text text-anchor="middle" x="884.92" y="-499.27" font-family="Times,serif" font-size="14.00">True</text>
</g>
<!-- 14 -->
<g id="node15" class="node">
<title>14</title>
<polygon fill="none" stroke="black" points="1687.5,-485 1496.5,-485 1496.5,-387 1687.5,-387 1687.5,-485"/>
<text text-anchor="middle" x="1592" y="-469.8" font-family="Times,serif" font-size="14.00">node #14</text>
<text text-anchor="middle" x="1592" y="-454.8" font-family="Times,serif" font-size="14.00">FVCPrePercent &lt;= 71.5</text>
<text text-anchor="middle" x="1592" y="-439.8" font-family="Times,serif" font-size="14.00">gini = 0.384</text>
<text text-anchor="middle" x="1592" y="-424.8" font-family="Times,serif" font-size="14.00">samples = 130</text>
<text text-anchor="middle" x="1592" y="-409.8" font-family="Times,serif" font-size="14.00">value = [143.006, 50.1]</text>
<text text-anchor="middle" x="1592" y="-394.8" font-family="Times,serif" font-size="14.00">class = Non&#45;obstructive</text>
</g>
<!-- 0&#45;&gt;14 -->
<g id="edge14" class="edge">
<title>0&#45;&gt;14</title>
<path fill="none" stroke="black" d="M1176.14,-544.64C1264.03,-521.89 1395.01,-487.99 1486.42,-464.33"/>
<polygon fill="black" stroke="black" points="1487.45,-467.68 1496.25,-461.78 1485.69,-460.9 1487.45,-467.68"/>
<text text-anchor="middle" x="1483.57" y="-479.63" font-family="Times,serif" font-size="14.00">False</text>
</g>
<!-- 2 -->
<g id="node3" class="node">
<title>2</title>
<polygon fill="none" stroke="black" points="555,-351 367,-351 367,-253 555,-253 555,-351"/>
<text text-anchor="middle" x="461" y="-335.8" font-family="Times,serif" font-size="14.00">node #2</text>
<text text-anchor="middle" x="461" y="-320.8" font-family="Times,serif" font-size="14.00">FVCPostVal &lt;= 1.59</text>
<text text-anchor="middle" x="461" y="-305.8" font-family="Times,serif" font-size="14.00">gini = 0.443</text>
<text text-anchor="middle" x="461" y="-290.8" font-family="Times,serif" font-size="14.00">samples = 9</text>
<text text-anchor="middle" x="461" y="-275.8" font-family="Times,serif" font-size="14.00">value = [10.557, 5.219]</text>
<text text-anchor="middle" x="461" y="-260.8" font-family="Times,serif" font-size="14.00">class = Non&#45;obstructive</text>
</g>
<!-- 1&#45;&gt;2 -->
<g id="edge2" class="edge">
<title>1&#45;&gt;2</title>
<path fill="none" stroke="black" d="M678.32,-393.78C642.24,-378.71 601.34,-361.62 564.84,-346.37"/>
<polygon fill="black" stroke="black" points="565.74,-342.96 555.16,-342.33 563.04,-349.42 565.74,-342.96"/>
</g>
<!-- 7 -->
<g id="node8" class="node">
<title>7</title>
<polygon fill="none" stroke="black" points="878.5,-351 675.5,-351 675.5,-253 878.5,-253 878.5,-351"/>
<text text-anchor="middle" x="777" y="-335.8" font-family="Times,serif" font-size="14.00">node #7</text>
<text text-anchor="middle" x="777" y="-320.8" font-family="Times,serif" font-size="14.00">FVCPostPercent &lt;= 61.5</text>
<text text-anchor="middle" x="777" y="-305.8" font-family="Times,serif" font-size="14.00">gini = 0.192</text>
<text text-anchor="middle" x="777" y="-290.8" font-family="Times,serif" font-size="14.00">samples = 74</text>
<text text-anchor="middle" x="777" y="-275.8" font-family="Times,serif" font-size="14.00">value = [13.437, 111.681]</text>
<text text-anchor="middle" x="777" y="-260.8" font-family="Times,serif" font-size="14.00">class = Obstructive</text>
</g>
<!-- 1&#45;&gt;7 -->
<g id="edge7" class="edge">
<title>1&#45;&gt;7</title>
<path fill="none" stroke="black" d="M777,-386.97C777,-378.69 777,-370 777,-361.48"/>
<polygon fill="black" stroke="black" points="780.5,-361.21 777,-351.21 773.5,-361.21 780.5,-361.21"/>
</g>
<!-- 3 -->
<g id="node4" class="node">
<title>3</title>
<polygon fill="none" stroke="black" points="364,-217 176,-217 176,-119 364,-119 364,-217"/>
<text text-anchor="middle" x="270" y="-201.8" font-family="Times,serif" font-size="14.00">node #3</text>
<text text-anchor="middle" x="270" y="-186.8" font-family="Times,serif" font-size="14.00">FEFPostVal &lt;= 0.335</text>
<text text-anchor="middle" x="270" y="-171.8" font-family="Times,serif" font-size="14.00">gini = 0.276</text>
<text text-anchor="middle" x="270" y="-156.8" font-family="Times,serif" font-size="14.00">samples = 8</text>
<text text-anchor="middle" x="270" y="-141.8" font-family="Times,serif" font-size="14.00">value = [10.557, 2.088]</text>
<text text-anchor="middle" x="270" y="-126.8" font-family="Times,serif" font-size="14.00">class = Non&#45;obstructive</text>
</g>
<!-- 2&#45;&gt;3 -->
<g id="edge3" class="edge">
<title>2&#45;&gt;3</title>
<path fill="none" stroke="black" d="M391.5,-252.97C377.42,-243.24 362.51,-232.93 348.15,-223.01"/>
<polygon fill="black" stroke="black" points="349.98,-220.02 339.76,-217.21 346,-225.78 349.98,-220.02"/>
</g>
<!-- 6 -->
<g id="node7" class="node">
<title>6</title>
<polygon fill="none" stroke="black" points="540,-209.5 382,-209.5 382,-126.5 540,-126.5 540,-209.5"/>
<text text-anchor="middle" x="461" y="-194.3" font-family="Times,serif" font-size="14.00">node #6</text>
<text text-anchor="middle" x="461" y="-179.3" font-family="Times,serif" font-size="14.00">gini = 0.0</text>
<text text-anchor="middle" x="461" y="-164.3" font-family="Times,serif" font-size="14.00">samples = 1</text>
<text text-anchor="middle" x="461" y="-149.3" font-family="Times,serif" font-size="14.00">value = [0.0, 3.131]</text>
<text text-anchor="middle" x="461" y="-134.3" font-family="Times,serif" font-size="14.00">class = Obstructive</text>
</g>
<!-- 2&#45;&gt;6 -->
<g id="edge6" class="edge">
<title>2&#45;&gt;6</title>
<path fill="none" stroke="black" d="M461,-252.97C461,-242.25 461,-230.84 461,-219.99"/>
<polygon fill="black" stroke="black" points="464.5,-219.82 461,-209.82 457.5,-219.82 464.5,-219.82"/>
</g>
<!-- 4 -->
<g id="node5" class="node">
<title>4</title>
<polygon fill="none" stroke="black" points="158,-83 0,-83 0,0 158,0 158,-83"/>
<text text-anchor="middle" x="79" y="-67.8" font-family="Times,serif" font-size="14.00">node #4</text>
<text text-anchor="middle" x="79" y="-52.8" font-family="Times,serif" font-size="14.00">gini = 0.0</text>
<text text-anchor="middle" x="79" y="-37.8" font-family="Times,serif" font-size="14.00">samples = 1</text>
<text text-anchor="middle" x="79" y="-22.8" font-family="Times,serif" font-size="14.00">value = [0.0, 1.044]</text>
<text text-anchor="middle" x="79" y="-7.8" font-family="Times,serif" font-size="14.00">class = Obstructive</text>
</g>
<!-- 3&#45;&gt;4 -->
<g id="edge4" class="edge">
<title>3&#45;&gt;4</title>
<path fill="none" stroke="black" d="M196.15,-118.87C180.97,-108.97 165.02,-98.57 149.95,-88.74"/>
<polygon fill="black" stroke="black" points="151.47,-85.56 141.18,-83.03 147.65,-91.43 151.47,-85.56"/>
</g>
<!-- 5 -->
<g id="node6" class="node">
<title>5</title>
<polygon fill="none" stroke="black" points="364,-83 176,-83 176,0 364,0 364,-83"/>
<text text-anchor="middle" x="270" y="-67.8" font-family="Times,serif" font-size="14.00">node #5</text>
<text text-anchor="middle" x="270" y="-52.8" font-family="Times,serif" font-size="14.00">gini = 0.164</text>
<text text-anchor="middle" x="270" y="-37.8" font-family="Times,serif" font-size="14.00">samples = 7</text>
<text text-anchor="middle" x="270" y="-22.8" font-family="Times,serif" font-size="14.00">value = [10.557, 1.044]</text>
<text text-anchor="middle" x="270" y="-7.8" font-family="Times,serif" font-size="14.00">class = Non&#45;obstructive</text>
</g>
<!-- 3&#45;&gt;5 -->
<g id="edge5" class="edge">
<title>3&#45;&gt;5</title>
<path fill="none" stroke="black" d="M270,-118.87C270,-110.5 270,-101.77 270,-93.33"/>
<polygon fill="black" stroke="black" points="273.5,-93.23 270,-83.23 266.5,-93.23 273.5,-93.23"/>
</g>
<!-- 8 -->
<g id="node9" class="node">
<title>8</title>
<polygon fill="none" stroke="black" points="767.5,-217 558.5,-217 558.5,-119 767.5,-119 767.5,-217"/>
<text text-anchor="middle" x="663" y="-201.8" font-family="Times,serif" font-size="14.00">node #8</text>
<text text-anchor="middle" x="663" y="-186.8" font-family="Times,serif" font-size="14.00">FEV1PrePercent &lt;= 39.56</text>
<text text-anchor="middle" x="663" y="-171.8" font-family="Times,serif" font-size="14.00">gini = 0.324</text>
<text text-anchor="middle" x="663" y="-156.8" font-family="Times,serif" font-size="14.00">samples = 33</text>
<text text-anchor="middle" x="663" y="-141.8" font-family="Times,serif" font-size="14.00">value = [9.598, 37.575]</text>
<text text-anchor="middle" x="663" y="-126.8" font-family="Times,serif" font-size="14.00">class = Obstructive</text>
</g>
<!-- 7&#45;&gt;8 -->
<g id="edge8" class="edge">
<title>7&#45;&gt;8</title>
<path fill="none" stroke="black" d="M735.52,-252.97C727.66,-243.87 719.38,-234.28 711.33,-224.96"/>
<polygon fill="black" stroke="black" points="713.82,-222.49 704.64,-217.21 708.53,-227.07 713.82,-222.49"/>
</g>
<!-- 11 -->
<g id="node12" class="node">
<title>11</title>
<polygon fill="none" stroke="black" points="970.5,-217 785.5,-217 785.5,-119 970.5,-119 970.5,-217"/>
<text text-anchor="middle" x="878" y="-201.8" font-family="Times,serif" font-size="14.00">node #11</text>
<text text-anchor="middle" x="878" y="-186.8" font-family="Times,serif" font-size="14.00">FVCPostVal &lt;= 1.395</text>
<text text-anchor="middle" x="878" y="-171.8" font-family="Times,serif" font-size="14.00">gini = 0.094</text>
<text text-anchor="middle" x="878" y="-156.8" font-family="Times,serif" font-size="14.00">samples = 41</text>
<text text-anchor="middle" x="878" y="-141.8" font-family="Times,serif" font-size="14.00">value = [3.839, 74.106]</text>
<text text-anchor="middle" x="878" y="-126.8" font-family="Times,serif" font-size="14.00">class = Obstructive</text>
</g>
<!-- 7&#45;&gt;11 -->
<g id="edge11" class="edge">
<title>7&#45;&gt;11</title>
<path fill="none" stroke="black" d="M813.75,-252.97C820.64,-243.96 827.9,-234.47 834.97,-225.24"/>
<polygon fill="black" stroke="black" points="837.81,-227.28 841.11,-217.21 832.25,-223.03 837.81,-227.28"/>
</g>
<!-- 9 -->
<g id="node10" class="node">
<title>9</title>
<polygon fill="none" stroke="black" points="550.5,-83 383.5,-83 383.5,0 550.5,0 550.5,-83"/>
<text text-anchor="middle" x="467" y="-67.8" font-family="Times,serif" font-size="14.00">node #9</text>
<text text-anchor="middle" x="467" y="-52.8" font-family="Times,serif" font-size="14.00">gini = &#45;0.0</text>
<text text-anchor="middle" x="467" y="-37.8" font-family="Times,serif" font-size="14.00">samples = 21</text>
<text text-anchor="middle" x="467" y="-22.8" font-family="Times,serif" font-size="14.00">value = [0.0, 29.225]</text>
<text text-anchor="middle" x="467" y="-7.8" font-family="Times,serif" font-size="14.00">class = Obstructive</text>
</g>
<!-- 8&#45;&gt;9 -->
<g id="edge9" class="edge">
<title>8&#45;&gt;9</title>
<path fill="none" stroke="black" d="M587.22,-118.87C571.5,-108.88 554.97,-98.38 539.37,-88.47"/>
<polygon fill="black" stroke="black" points="541.13,-85.44 530.81,-83.03 537.37,-91.35 541.13,-85.44"/>
</g>
<!-- 10 -->
<g id="node11" class="node">
<title>10</title>
<polygon fill="none" stroke="black" points="757,-83 569,-83 569,0 757,0 757,-83"/>
<text text-anchor="middle" x="663" y="-67.8" font-family="Times,serif" font-size="14.00">node #10</text>
<text text-anchor="middle" x="663" y="-52.8" font-family="Times,serif" font-size="14.00">gini = 0.498</text>
<text text-anchor="middle" x="663" y="-37.8" font-family="Times,serif" font-size="14.00">samples = 12</text>
<text text-anchor="middle" x="663" y="-22.8" font-family="Times,serif" font-size="14.00">value = [9.598, 8.35]</text>
<text text-anchor="middle" x="663" y="-7.8" font-family="Times,serif" font-size="14.00">class = Non&#45;obstructive</text>
</g>
<!-- 8&#45;&gt;10 -->
<g id="edge10" class="edge">
<title>8&#45;&gt;10</title>
<path fill="none" stroke="black" d="M663,-118.87C663,-110.5 663,-101.77 663,-93.33"/>
<polygon fill="black" stroke="black" points="666.5,-93.23 663,-83.23 659.5,-93.23 666.5,-93.23"/>
</g>
<!-- 12 -->
<g id="node13" class="node">
<title>12</title>
<polygon fill="none" stroke="black" points="963,-83 775,-83 775,0 963,0 963,-83"/>
<text text-anchor="middle" x="869" y="-67.8" font-family="Times,serif" font-size="14.00">node #12</text>
<text text-anchor="middle" x="869" y="-52.8" font-family="Times,serif" font-size="14.00">gini = 0.0</text>
<text text-anchor="middle" x="869" y="-37.8" font-family="Times,serif" font-size="14.00">samples = 1</text>
<text text-anchor="middle" x="869" y="-22.8" font-family="Times,serif" font-size="14.00">value = [0.96, 0.0]</text>
<text text-anchor="middle" x="869" y="-7.8" font-family="Times,serif" font-size="14.00">class = Non&#45;obstructive</text>
</g>
<!-- 11&#45;&gt;12 -->
<g id="edge12" class="edge">
<title>11&#45;&gt;12</title>
<path fill="none" stroke="black" d="M874.52,-118.87C873.92,-110.5 873.28,-101.77 872.67,-93.33"/>
<polygon fill="black" stroke="black" points="876.16,-92.95 871.94,-83.23 869.17,-93.46 876.16,-92.95"/>
</g>
<!-- 13 -->
<g id="node14" class="node">
<title>13</title>
<polygon fill="none" stroke="black" points="1166.5,-83 981.5,-83 981.5,0 1166.5,0 1166.5,-83"/>
<text text-anchor="middle" x="1074" y="-67.8" font-family="Times,serif" font-size="14.00">node #13</text>
<text text-anchor="middle" x="1074" y="-52.8" font-family="Times,serif" font-size="14.00">gini = 0.072</text>
<text text-anchor="middle" x="1074" y="-37.8" font-family="Times,serif" font-size="14.00">samples = 40</text>
<text text-anchor="middle" x="1074" y="-22.8" font-family="Times,serif" font-size="14.00">value = [2.879, 74.106]</text>
<text text-anchor="middle" x="1074" y="-7.8" font-family="Times,serif" font-size="14.00">class = Obstructive</text>
</g>
<!-- 11&#45;&gt;13 -->
<g id="edge13" class="edge">
<title>11&#45;&gt;13</title>
<path fill="none" stroke="black" d="M953.78,-118.87C969.5,-108.88 986.03,-98.38 1001.63,-88.47"/>
<polygon fill="black" stroke="black" points="1003.63,-91.35 1010.19,-83.03 999.87,-85.44 1003.63,-91.35"/>
</g>
<!-- 15 -->
<g id="node16" class="node">
<title>15</title>
<polygon fill="none" stroke="black" points="1693.5,-351 1490.5,-351 1490.5,-253 1693.5,-253 1693.5,-351"/>
<text text-anchor="middle" x="1592" y="-335.8" font-family="Times,serif" font-size="14.00">node #15</text>
<text text-anchor="middle" x="1592" y="-320.8" font-family="Times,serif" font-size="14.00">FVCPostPercent &lt;= 72.0</text>
<text text-anchor="middle" x="1592" y="-305.8" font-family="Times,serif" font-size="14.00">gini = 0.173</text>
<text text-anchor="middle" x="1592" y="-290.8" font-family="Times,serif" font-size="14.00">samples = 84</text>
<text text-anchor="middle" x="1592" y="-275.8" font-family="Times,serif" font-size="14.00">value = [108.454, 11.481]</text>
<text text-anchor="middle" x="1592" y="-260.8" font-family="Times,serif" font-size="14.00">class = Non&#45;obstructive</text>
</g>
<!-- 14&#45;&gt;15 -->
<g id="edge15" class="edge">
<title>14&#45;&gt;15</title>
<path fill="none" stroke="black" d="M1592,-386.97C1592,-378.69 1592,-370 1592,-361.48"/>
<polygon fill="black" stroke="black" points="1595.5,-361.21 1592,-351.21 1588.5,-361.21 1595.5,-361.21"/>
</g>
<!-- 22 -->
<g id="node23" class="node">
<title>22</title>
<polygon fill="none" stroke="black" points="2264.5,-351 2067.5,-351 2067.5,-253 2264.5,-253 2264.5,-351"/>
<text text-anchor="middle" x="2166" y="-335.8" font-family="Times,serif" font-size="14.00">node #22</text>
<text text-anchor="middle" x="2166" y="-320.8" font-family="Times,serif" font-size="14.00">FEFPostPercent &lt;= 83.0</text>
<text text-anchor="middle" x="2166" y="-305.8" font-family="Times,serif" font-size="14.00">gini = 0.498</text>
<text text-anchor="middle" x="2166" y="-290.8" font-family="Times,serif" font-size="14.00">samples = 46</text>
<text text-anchor="middle" x="2166" y="-275.8" font-family="Times,serif" font-size="14.00">value = [34.552, 38.619]</text>
<text text-anchor="middle" x="2166" y="-260.8" font-family="Times,serif" font-size="14.00">class = Obstructive</text>
</g>
<!-- 14&#45;&gt;22 -->
<g id="edge22" class="edge">
<title>14&#45;&gt;22</title>
<path fill="none" stroke="black" d="M1687.75,-412.98C1789.67,-389.54 1950.64,-352.53 2057.26,-328.01"/>
<polygon fill="black" stroke="black" points="2058.13,-331.4 2067.09,-325.75 2056.56,-324.58 2058.13,-331.4"/>
</g>
<!-- 16 -->
<g id="node17" class="node">
<title>16</title>
<polygon fill="none" stroke="black" points="1586.5,-217 1389.5,-217 1389.5,-119 1586.5,-119 1586.5,-217"/>
<text text-anchor="middle" x="1488" y="-201.8" font-family="Times,serif" font-size="14.00">node #16</text>
<text text-anchor="middle" x="1488" y="-186.8" font-family="Times,serif" font-size="14.00">FEFPostPercent &lt;= 38.5</text>
<text text-anchor="middle" x="1488" y="-171.8" font-family="Times,serif" font-size="14.00">gini = 0.104</text>
<text text-anchor="middle" x="1488" y="-156.8" font-family="Times,serif" font-size="14.00">samples = 80</text>
<text text-anchor="middle" x="1488" y="-141.8" font-family="Times,serif" font-size="14.00">value = [107.494, 6.262]</text>
<text text-anchor="middle" x="1488" y="-126.8" font-family="Times,serif" font-size="14.00">class = Non&#45;obstructive</text>
</g>
<!-- 15&#45;&gt;16 -->
<g id="edge16" class="edge">
<title>15&#45;&gt;16</title>
<path fill="none" stroke="black" d="M1554.16,-252.97C1547.06,-243.96 1539.58,-234.47 1532.31,-225.24"/>
<polygon fill="black" stroke="black" points="1534.92,-222.9 1525.99,-217.21 1529.43,-227.23 1534.92,-222.9"/>
</g>
<!-- 19 -->
<g id="node20" class="node">
<title>19</title>
<polygon fill="none" stroke="black" points="1785,-217 1609,-217 1609,-119 1785,-119 1785,-217"/>
<text text-anchor="middle" x="1697" y="-201.8" font-family="Times,serif" font-size="14.00">node #19</text>
<text text-anchor="middle" x="1697" y="-186.8" font-family="Times,serif" font-size="14.00">FEV1PreVal &lt;= 1.715</text>
<text text-anchor="middle" x="1697" y="-171.8" font-family="Times,serif" font-size="14.00">gini = 0.262</text>
<text text-anchor="middle" x="1697" y="-156.8" font-family="Times,serif" font-size="14.00">samples = 4</text>
<text text-anchor="middle" x="1697" y="-141.8" font-family="Times,serif" font-size="14.00">value = [0.96, 5.219]</text>
<text text-anchor="middle" x="1697" y="-126.8" font-family="Times,serif" font-size="14.00">class = Obstructive</text>
</g>
<!-- 15&#45;&gt;19 -->
<g id="edge19" class="edge">
<title>15&#45;&gt;19</title>
<path fill="none" stroke="black" d="M1630.2,-252.97C1637.37,-243.96 1644.92,-234.47 1652.26,-225.24"/>
<polygon fill="black" stroke="black" points="1655.16,-227.22 1658.65,-217.21 1649.68,-222.86 1655.16,-227.22"/>
</g>
<!-- 17 -->
<g id="node18" class="node">
<title>17</title>
<polygon fill="none" stroke="black" points="1373,-83 1185,-83 1185,0 1373,0 1373,-83"/>
<text text-anchor="middle" x="1279" y="-67.8" font-family="Times,serif" font-size="14.00">node #17</text>
<text text-anchor="middle" x="1279" y="-52.8" font-family="Times,serif" font-size="14.00">gini = 0.487</text>
<text text-anchor="middle" x="1279" y="-37.8" font-family="Times,serif" font-size="14.00">samples = 3</text>
<text text-anchor="middle" x="1279" y="-22.8" font-family="Times,serif" font-size="14.00">value = [2.879, 2.088]</text>
<text text-anchor="middle" x="1279" y="-7.8" font-family="Times,serif" font-size="14.00">class = Non&#45;obstructive</text>
</g>
<!-- 16&#45;&gt;17 -->
<g id="edge17" class="edge">
<title>16&#45;&gt;17</title>
<path fill="none" stroke="black" d="M1407.2,-118.87C1390.27,-108.78 1372.48,-98.18 1355.71,-88.19"/>
<polygon fill="black" stroke="black" points="1357.42,-85.14 1347.04,-83.03 1353.84,-91.16 1357.42,-85.14"/>
</g>
<!-- 18 -->
<g id="node19" class="node">
<title>18</title>
<polygon fill="none" stroke="black" points="1585,-83 1391,-83 1391,0 1585,0 1585,-83"/>
<text text-anchor="middle" x="1488" y="-67.8" font-family="Times,serif" font-size="14.00">node #18</text>
<text text-anchor="middle" x="1488" y="-52.8" font-family="Times,serif" font-size="14.00">gini = 0.074</text>
<text text-anchor="middle" x="1488" y="-37.8" font-family="Times,serif" font-size="14.00">samples = 77</text>
<text text-anchor="middle" x="1488" y="-22.8" font-family="Times,serif" font-size="14.00">value = [104.615, 4.175]</text>
<text text-anchor="middle" x="1488" y="-7.8" font-family="Times,serif" font-size="14.00">class = Non&#45;obstructive</text>
</g>
<!-- 16&#45;&gt;18 -->
<g id="edge18" class="edge">
<title>16&#45;&gt;18</title>
<path fill="none" stroke="black" d="M1488,-118.87C1488,-110.5 1488,-101.77 1488,-93.33"/>
<polygon fill="black" stroke="black" points="1491.5,-93.23 1488,-83.23 1484.5,-93.23 1491.5,-93.23"/>
</g>
<!-- 20 -->
<g id="node21" class="node">
<title>20</title>
<polygon fill="none" stroke="black" points="1791,-83 1603,-83 1603,0 1791,0 1791,-83"/>
<text text-anchor="middle" x="1697" y="-67.8" font-family="Times,serif" font-size="14.00">node #20</text>
<text text-anchor="middle" x="1697" y="-52.8" font-family="Times,serif" font-size="14.00">gini = 0.0</text>
<text text-anchor="middle" x="1697" y="-37.8" font-family="Times,serif" font-size="14.00">samples = 1</text>
<text text-anchor="middle" x="1697" y="-22.8" font-family="Times,serif" font-size="14.00">value = [0.96, 0.0]</text>
<text text-anchor="middle" x="1697" y="-7.8" font-family="Times,serif" font-size="14.00">class = Non&#45;obstructive</text>
</g>
<!-- 19&#45;&gt;20 -->
<g id="edge20" class="edge">
<title>19&#45;&gt;20</title>
<path fill="none" stroke="black" d="M1697,-118.87C1697,-110.5 1697,-101.77 1697,-93.33"/>
<polygon fill="black" stroke="black" points="1700.5,-93.23 1697,-83.23 1693.5,-93.23 1700.5,-93.23"/>
</g>
<!-- 21 -->
<g id="node22" class="node">
<title>21</title>
<polygon fill="none" stroke="black" points="1967,-83 1809,-83 1809,0 1967,0 1967,-83"/>
<text text-anchor="middle" x="1888" y="-67.8" font-family="Times,serif" font-size="14.00">node #21</text>
<text text-anchor="middle" x="1888" y="-52.8" font-family="Times,serif" font-size="14.00">gini = 0.0</text>
<text text-anchor="middle" x="1888" y="-37.8" font-family="Times,serif" font-size="14.00">samples = 3</text>
<text text-anchor="middle" x="1888" y="-22.8" font-family="Times,serif" font-size="14.00">value = [0.0, 5.219]</text>
<text text-anchor="middle" x="1888" y="-7.8" font-family="Times,serif" font-size="14.00">class = Obstructive</text>
</g>
<!-- 19&#45;&gt;21 -->
<g id="edge21" class="edge">
<title>19&#45;&gt;21</title>
<path fill="none" stroke="black" d="M1770.85,-118.87C1786.03,-108.97 1801.98,-98.57 1817.05,-88.74"/>
<polygon fill="black" stroke="black" points="1819.35,-91.43 1825.82,-83.03 1815.53,-85.56 1819.35,-91.43"/>
</g>
<!-- 23 -->
<g id="node24" class="node">
<title>23</title>
<polygon fill="none" stroke="black" points="2263,-217 2069,-217 2069,-119 2263,-119 2263,-217"/>
<text text-anchor="middle" x="2166" y="-201.8" font-family="Times,serif" font-size="14.00">node #23</text>
<text text-anchor="middle" x="2166" y="-186.8" font-family="Times,serif" font-size="14.00">FEFPostVal &lt;= 2.87</text>
<text text-anchor="middle" x="2166" y="-171.8" font-family="Times,serif" font-size="14.00">gini = 0.39</text>
<text text-anchor="middle" x="2166" y="-156.8" font-family="Times,serif" font-size="14.00">samples = 29</text>
<text text-anchor="middle" x="2166" y="-141.8" font-family="Times,serif" font-size="14.00">value = [12.477, 34.444]</text>
<text text-anchor="middle" x="2166" y="-126.8" font-family="Times,serif" font-size="14.00">class = Obstructive</text>
</g>
<!-- 22&#45;&gt;23 -->
<g id="edge23" class="edge">
<title>22&#45;&gt;23</title>
<path fill="none" stroke="black" d="M2166,-252.97C2166,-244.69 2166,-236 2166,-227.48"/>
<polygon fill="black" stroke="black" points="2169.5,-227.21 2166,-217.21 2162.5,-227.21 2169.5,-227.21"/>
</g>
<!-- 26 -->
<g id="node27" class="node">
<title>26</title>
<polygon fill="none" stroke="black" points="2576,-217 2370,-217 2370,-119 2576,-119 2576,-217"/>
<text text-anchor="middle" x="2473" y="-201.8" font-family="Times,serif" font-size="14.00">node #26</text>
<text text-anchor="middle" x="2473" y="-186.8" font-family="Times,serif" font-size="14.00">FEV1PostPercent &lt;= 80.5</text>
<text text-anchor="middle" x="2473" y="-171.8" font-family="Times,serif" font-size="14.00">gini = 0.268</text>
<text text-anchor="middle" x="2473" y="-156.8" font-family="Times,serif" font-size="14.00">samples = 17</text>
<text text-anchor="middle" x="2473" y="-141.8" font-family="Times,serif" font-size="14.00">value = [22.075, 4.175]</text>
<text text-anchor="middle" x="2473" y="-126.8" font-family="Times,serif" font-size="14.00">class = Non&#45;obstructive</text>
</g>
<!-- 22&#45;&gt;26 -->
<g id="edge26" class="edge">
<title>22&#45;&gt;26</title>
<path fill="none" stroke="black" d="M2264.83,-258.51C2295.38,-245.37 2329.25,-230.81 2360.65,-217.31"/>
<polygon fill="black" stroke="black" points="2362.06,-220.51 2369.87,-213.34 2359.3,-214.08 2362.06,-220.51"/>
</g>
<!-- 24 -->
<g id="node25" class="node">
<title>24</title>
<polygon fill="none" stroke="black" points="2169.5,-83 1984.5,-83 1984.5,0 2169.5,0 2169.5,-83"/>
<text text-anchor="middle" x="2077" y="-67.8" font-family="Times,serif" font-size="14.00">node #24</text>
<text text-anchor="middle" x="2077" y="-52.8" font-family="Times,serif" font-size="14.00">gini = 0.298</text>
<text text-anchor="middle" x="2077" y="-37.8" font-family="Times,serif" font-size="14.00">samples = 27</text>
<text text-anchor="middle" x="2077" y="-22.8" font-family="Times,serif" font-size="14.00">value = [7.678, 34.444]</text>
<text text-anchor="middle" x="2077" y="-7.8" font-family="Times,serif" font-size="14.00">class = Obstructive</text>
</g>
<!-- 23&#45;&gt;24 -->
<g id="edge24" class="edge">
<title>23&#45;&gt;24</title>
<path fill="none" stroke="black" d="M2131.59,-118.87C2125.15,-109.85 2118.41,-100.43 2111.95,-91.39"/>
<polygon fill="black" stroke="black" points="2114.78,-89.33 2106.12,-83.23 2109.09,-93.4 2114.78,-89.33"/>
</g>
<!-- 25 -->
<g id="node26" class="node">
<title>25</title>
<polygon fill="none" stroke="black" points="2376,-83 2188,-83 2188,0 2376,0 2376,-83"/>
<text text-anchor="middle" x="2282" y="-67.8" font-family="Times,serif" font-size="14.00">node #25</text>
<text text-anchor="middle" x="2282" y="-52.8" font-family="Times,serif" font-size="14.00">gini = 0.0</text>
<text text-anchor="middle" x="2282" y="-37.8" font-family="Times,serif" font-size="14.00">samples = 2</text>
<text text-anchor="middle" x="2282" y="-22.8" font-family="Times,serif" font-size="14.00">value = [4.799, 0.0]</text>
<text text-anchor="middle" x="2282" y="-7.8" font-family="Times,serif" font-size="14.00">class = Non&#45;obstructive</text>
</g>
<!-- 23&#45;&gt;25 -->
<g id="edge25" class="edge">
<title>23&#45;&gt;25</title>
<path fill="none" stroke="black" d="M2210.85,-118.87C2219.5,-109.58 2228.57,-99.85 2237.22,-90.56"/>
<polygon fill="black" stroke="black" points="2239.79,-92.93 2244.05,-83.23 2234.67,-88.16 2239.79,-92.93"/>
</g>
<!-- 27 -->
<g id="node28" class="node">
<title>27</title>
<polygon fill="none" stroke="black" points="2552,-83 2394,-83 2394,0 2552,0 2552,-83"/>
<text text-anchor="middle" x="2473" y="-67.8" font-family="Times,serif" font-size="14.00">node #27</text>
<text text-anchor="middle" x="2473" y="-52.8" font-family="Times,serif" font-size="14.00">gini = 0.0</text>
<text text-anchor="middle" x="2473" y="-37.8" font-family="Times,serif" font-size="14.00">samples = 1</text>
<text text-anchor="middle" x="2473" y="-22.8" font-family="Times,serif" font-size="14.00">value = [0.0, 2.088]</text>
<text text-anchor="middle" x="2473" y="-7.8" font-family="Times,serif" font-size="14.00">class = Obstructive</text>
</g>
<!-- 26&#45;&gt;27 -->
<g id="edge27" class="edge">
<title>26&#45;&gt;27</title>
<path fill="none" stroke="black" d="M2473,-118.87C2473,-110.5 2473,-101.77 2473,-93.33"/>
<polygon fill="black" stroke="black" points="2476.5,-93.23 2473,-83.23 2469.5,-93.23 2476.5,-93.23"/>
</g>
<!-- 28 -->
<g id="node29" class="node">
<title>28</title>
<polygon fill="none" stroke="black" points="2758,-83 2570,-83 2570,0 2758,0 2758,-83"/>
<text text-anchor="middle" x="2664" y="-67.8" font-family="Times,serif" font-size="14.00">node #28</text>
<text text-anchor="middle" x="2664" y="-52.8" font-family="Times,serif" font-size="14.00">gini = 0.158</text>
<text text-anchor="middle" x="2664" y="-37.8" font-family="Times,serif" font-size="14.00">samples = 16</text>
<text text-anchor="middle" x="2664" y="-22.8" font-family="Times,serif" font-size="14.00">value = [22.075, 2.088]</text>
<text text-anchor="middle" x="2664" y="-7.8" font-family="Times,serif" font-size="14.00">class = Non&#45;obstructive</text>
</g>
<!-- 26&#45;&gt;28 -->
<g id="edge28" class="edge">
<title>26&#45;&gt;28</title>
<path fill="none" stroke="black" d="M2546.85,-118.87C2562.03,-108.97 2577.98,-98.57 2593.05,-88.74"/>
<polygon fill="black" stroke="black" points="2595.35,-91.43 2601.82,-83.03 2591.53,-85.56 2595.35,-91.43"/>
</g>
</g>
</svg>
