<?xml version="1.0" encoding="UTF-8" standalone="no"?>
<!DOCTYPE svg PUBLIC "-//W3C//DTD SVG 1.1//EN"
 "http://www.w3.org/Graphics/SVG/1.1/DTD/svg11.dtd">
<!-- Generated by graphviz version 2.43.0 (0)
 -->
<!-- Title: Tree Pages: 1 -->
<svg width="2755pt" height="627pt"
 viewBox="0.00 0.00 2755.00 627.00" xmlns="http://www.w3.org/2000/svg" xmlns:xlink="http://www.w3.org/1999/xlink">
<g id="graph0" class="graph" transform="scale(1 1) rotate(0) translate(4 623)">
<title>Tree</title>
<polygon fill="white" stroke="transparent" points="-4,4 -4,-623 2751,-623 2751,4 -4,4"/>
<!-- 0 -->
<g id="node1" class="node">
<title>0</title>
<polygon fill="none" stroke="black" points="1245,-619 1057,-619 1057,-521 1245,-521 1245,-619"/>
<text text-anchor="middle" x="1151" y="-603.8" font-family="Times,serif" font-size="14.00">node #0</text>
<text text-anchor="middle" x="1151" y="-588.8" font-family="Times,serif" font-size="14.00">FEFPreVal &lt;= 1.135</text>
<text text-anchor="middle" x="1151" y="-573.8" font-family="Times,serif" font-size="14.00">gini = 0.5</text>
<text text-anchor="middle" x="1151" y="-558.8" font-family="Times,serif" font-size="14.00">samples = 211</text>
<text text-anchor="middle" x="1151" y="-543.8" font-family="Times,serif" font-size="14.00">value = [167.0, 167.0]</text>
<text text-anchor="middle" x="1151" y="-528.8" font-family="Times,serif" font-size="14.00">class = Non&#45;obstructive</text>
</g>
<!-- 1 -->
<g id="node2" class="node">
<title>1</title>
<polygon fill="none" stroke="black" points="876.5,-485 679.5,-485 679.5,-387 876.5,-387 876.5,-485"/>
<text text-anchor="middle" x="778" y="-469.8" font-family="Times,serif" font-size="14.00">node #1</text>
<text text-anchor="middle" x="778" y="-454.8" font-family="Times,serif" font-size="14.00">FEFPostPercent &lt;= 24.5</text>
<text text-anchor="middle" x="778" y="-439.8" font-family="Times,serif" font-size="14.00">gini = 0.252</text>
<text text-anchor="middle" x="778" y="-424.8" font-family="Times,serif" font-size="14.00">samples = 71</text>
<text text-anchor="middle" x="778" y="-409.8" font-family="Times,serif" font-size="14.00">value = [16.899, 97.584]</text>
<text text-anchor="middle" x="778" y="-394.8" font-family="Times,serif" font-size="14.00">class = Obstructive</text>
</g>
<!-- 0&#45;&gt;1 -->
<g id="edge1" class="edge">
<title>0&#45;&gt;1</title>
<path fill="none" stroke="black" d="M1056.88,-535.69C1004.96,-517.32 940.27,-494.42 886.26,-475.31"/>
<polygon fill="black" stroke="black" points="887.25,-471.95 876.66,-471.91 884.92,-478.55 887.25,-471.95"/>
<text text-anchor="middle" x="887.42" y="-490.78" font-family="Times,serif" font-size="14.00">True</text>
</g>
<!-- 14 -->
<g id="node15" class="node">
<title>14</title>
<polygon fill="none" stroke="black" points="1642.5,-485 1439.5,-485 1439.5,-387 1642.5,-387 1642.5,-485"/>
<text text-anchor="middle" x="1541" y="-469.8" font-family="Times,serif" font-size="14.00">node #14</text>
<text text-anchor="middle" x="1541" y="-454.8" font-family="Times,serif" font-size="14.00">FVCPostVal &lt;= 2.105</text>
<text text-anchor="middle" x="1541" y="-439.8" font-family="Times,serif" font-size="14.00">gini = 0.432</text>
<text text-anchor="middle" x="1541" y="-424.8" font-family="Times,serif" font-size="14.00">samples = 140</text>
<text text-anchor="middle" x="1541" y="-409.8" font-family="Times,serif" font-size="14.00">value = [150.101, 69.416]</text>
<text text-anchor="middle" x="1541" y="-394.8" font-family="Times,serif" font-size="14.00">class = Non&#45;obstructive</text>
</g>
<!-- 0&#45;&gt;14 -->
<g id="edge14" class="edge">
<title>0&#45;&gt;14</title>
<path fill="none" stroke="black" d="M1245.41,-537.05C1300.93,-518.25 1371.43,-494.39 1429.66,-474.68"/>
<polygon fill="black" stroke="black" points="1430.91,-477.95 1439.26,-471.43 1428.67,-471.32 1430.91,-477.95"/>
<text text-anchor="middle" x="1428.19" y="-490.15" font-family="Times,serif" font-size="14.00">False</text>
</g>
<!-- 2 -->
<g id="node3" class="node">
<title>2</title>
<polygon fill="none" stroke="black" points="562.5,-351 365.5,-351 365.5,-253 562.5,-253 562.5,-351"/>
<text text-anchor="middle" x="464" y="-335.8" font-family="Times,serif" font-size="14.00">node #2</text>
<text text-anchor="middle" x="464" y="-320.8" font-family="Times,serif" font-size="14.00">FVCPostPercent &lt;= 37.5</text>
<text text-anchor="middle" x="464" y="-305.8" font-family="Times,serif" font-size="14.00">gini = 0.053</text>
<text text-anchor="middle" x="464" y="-290.8" font-family="Times,serif" font-size="14.00">samples = 48</text>
<text text-anchor="middle" x="464" y="-275.8" font-family="Times,serif" font-size="14.00">value = [1.988, 70.422]</text>
<text text-anchor="middle" x="464" y="-260.8" font-family="Times,serif" font-size="14.00">class = Obstructive</text>
</g>
<!-- 1&#45;&gt;2 -->
<g id="edge2" class="edge">
<title>1&#45;&gt;2</title>
<path fill="none" stroke="black" d="M679.08,-393.42C645,-379.09 606.68,-362.98 571.92,-348.37"/>
<polygon fill="black" stroke="black" points="573.27,-345.14 562.69,-344.49 570.56,-351.59 573.27,-345.14"/>
</g>
<!-- 7 -->
<g id="node8" class="node">
<title>7</title>
<polygon fill="none" stroke="black" points="876.5,-351 679.5,-351 679.5,-253 876.5,-253 876.5,-351"/>
<text text-anchor="middle" x="778" y="-335.8" font-family="Times,serif" font-size="14.00">node #7</text>
<text text-anchor="middle" x="778" y="-320.8" font-family="Times,serif" font-size="14.00">FVCPostPercent &lt;= 61.0</text>
<text text-anchor="middle" x="778" y="-305.8" font-family="Times,serif" font-size="14.00">gini = 0.458</text>
<text text-anchor="middle" x="778" y="-290.8" font-family="Times,serif" font-size="14.00">samples = 23</text>
<text text-anchor="middle" x="778" y="-275.8" font-family="Times,serif" font-size="14.00">value = [14.911, 27.163]</text>
<text text-anchor="middle" x="778" y="-260.8" font-family="Times,serif" font-size="14.00">class = Obstructive</text>
</g>
<!-- 1&#45;&gt;7 -->
<g id="edge7" class="edge">
<title>1&#45;&gt;7</title>
<path fill="none" stroke="black" d="M778,-386.97C778,-378.69 778,-370 778,-361.48"/>
<polygon fill="black" stroke="black" points="781.5,-361.21 778,-351.21 774.5,-361.21 781.5,-361.21"/>
</g>
<!-- 3 -->
<g id="node4" class="node">
<title>3</title>
<polygon fill="none" stroke="black" points="362,-217 162,-217 162,-119 362,-119 362,-217"/>
<text text-anchor="middle" x="262" y="-201.8" font-family="Times,serif" font-size="14.00">node #3</text>
<text text-anchor="middle" x="262" y="-186.8" font-family="Times,serif" font-size="14.00">FEV1PrePercent &lt;= 19.5</text>
<text text-anchor="middle" x="262" y="-171.8" font-family="Times,serif" font-size="14.00">gini = 0.443</text>
<text text-anchor="middle" x="262" y="-156.8" font-family="Times,serif" font-size="14.00">samples = 3</text>
<text text-anchor="middle" x="262" y="-141.8" font-family="Times,serif" font-size="14.00">value = [1.988, 4.024]</text>
<text text-anchor="middle" x="262" y="-126.8" font-family="Times,serif" font-size="14.00">class = Obstructive</text>
</g>
<!-- 2&#45;&gt;3 -->
<g id="edge3" class="edge">
<title>2&#45;&gt;3</title>
<path fill="none" stroke="black" d="M390.5,-252.97C375.46,-243.14 359.54,-232.74 344.22,-222.73"/>
<polygon fill="black" stroke="black" points="346.07,-219.75 335.78,-217.21 342.24,-225.61 346.07,-219.75"/>
</g>
<!-- 6 -->
<g id="node7" class="node">
<title>6</title>
<polygon fill="none" stroke="black" points="547.5,-209.5 380.5,-209.5 380.5,-126.5 547.5,-126.5 547.5,-209.5"/>
<text text-anchor="middle" x="464" y="-194.3" font-family="Times,serif" font-size="14.00">node #6</text>
<text text-anchor="middle" x="464" y="-179.3" font-family="Times,serif" font-size="14.00">gini = 0.0</text>
<text text-anchor="middle" x="464" y="-164.3" font-family="Times,serif" font-size="14.00">samples = 45</text>
<text text-anchor="middle" x="464" y="-149.3" font-family="Times,serif" font-size="14.00">value = [0.0, 66.398]</text>
<text text-anchor="middle" x="464" y="-134.3" font-family="Times,serif" font-size="14.00">class = Obstructive</text>
</g>
<!-- 2&#45;&gt;6 -->
<g id="edge6" class="edge">
<title>2&#45;&gt;6</title>
<path fill="none" stroke="black" d="M464,-252.97C464,-242.25 464,-230.84 464,-219.99"/>
<polygon fill="black" stroke="black" points="467.5,-219.82 464,-209.82 460.5,-219.82 467.5,-219.82"/>
</g>
<!-- 4 -->
<g id="node5" class="node">
<title>4</title>
<polygon fill="none" stroke="black" points="158,-83 0,-83 0,0 158,0 158,-83"/>
<text text-anchor="middle" x="79" y="-67.8" font-family="Times,serif" font-size="14.00">node #4</text>
<text text-anchor="middle" x="79" y="-52.8" font-family="Times,serif" font-size="14.00">gini = 0.0</text>
<text text-anchor="middle" x="79" y="-37.8" font-family="Times,serif" font-size="14.00">samples = 1</text>
<text text-anchor="middle" x="79" y="-22.8" font-family="Times,serif" font-size="14.00">value = [0.0, 4.024]</text>
<text text-anchor="middle" x="79" y="-7.8" font-family="Times,serif" font-size="14.00">class = Obstructive</text>
</g>
<!-- 3&#45;&gt;4 -->
<g id="edge4" class="edge">
<title>3&#45;&gt;4</title>
<path fill="none" stroke="black" d="M191.25,-118.87C176.7,-108.97 161.42,-98.57 146.97,-88.74"/>
<polygon fill="black" stroke="black" points="148.81,-85.76 138.58,-83.03 144.88,-91.55 148.81,-85.76"/>
</g>
<!-- 5 -->
<g id="node6" class="node">
<title>5</title>
<polygon fill="none" stroke="black" points="364,-83 176,-83 176,0 364,0 364,-83"/>
<text text-anchor="middle" x="270" y="-67.8" font-family="Times,serif" font-size="14.00">node #5</text>
<text text-anchor="middle" x="270" y="-52.8" font-family="Times,serif" font-size="14.00">gini = &#45;0.0</text>
<text text-anchor="middle" x="270" y="-37.8" font-family="Times,serif" font-size="14.00">samples = 2</text>
<text text-anchor="middle" x="270" y="-22.8" font-family="Times,serif" font-size="14.00">value = [1.988, 0.0]</text>
<text text-anchor="middle" x="270" y="-7.8" font-family="Times,serif" font-size="14.00">class = Non&#45;obstructive</text>
</g>
<!-- 3&#45;&gt;5 -->
<g id="edge5" class="edge">
<title>3&#45;&gt;5</title>
<path fill="none" stroke="black" d="M265.09,-118.87C265.63,-110.5 266.19,-101.77 266.73,-93.33"/>
<polygon fill="black" stroke="black" points="270.23,-93.43 267.38,-83.23 263.25,-92.99 270.23,-93.43"/>
</g>
<!-- 8 -->
<g id="node9" class="node">
<title>8</title>
<polygon fill="none" stroke="black" points="756.5,-217 565.5,-217 565.5,-119 756.5,-119 756.5,-217"/>
<text text-anchor="middle" x="661" y="-201.8" font-family="Times,serif" font-size="14.00">node #8</text>
<text text-anchor="middle" x="661" y="-186.8" font-family="Times,serif" font-size="14.00">FVCPrePercent &lt;= 36.5</text>
<text text-anchor="middle" x="661" y="-171.8" font-family="Times,serif" font-size="14.00">gini = 0.167</text>
<text text-anchor="middle" x="661" y="-156.8" font-family="Times,serif" font-size="14.00">samples = 6</text>
<text text-anchor="middle" x="661" y="-141.8" font-family="Times,serif" font-size="14.00">value = [9.94, 1.006]</text>
<text text-anchor="middle" x="661" y="-126.8" font-family="Times,serif" font-size="14.00">class = Non&#45;obstructive</text>
</g>
<!-- 7&#45;&gt;8 -->
<g id="edge8" class="edge">
<title>7&#45;&gt;8</title>
<path fill="none" stroke="black" d="M735.43,-252.97C727.36,-243.87 718.86,-234.28 710.6,-224.96"/>
<polygon fill="black" stroke="black" points="712.99,-222.38 703.74,-217.21 707.75,-227.02 712.99,-222.38"/>
</g>
<!-- 11 -->
<g id="node12" class="node">
<title>11</title>
<polygon fill="none" stroke="black" points="981,-217 775,-217 775,-119 981,-119 981,-217"/>
<text text-anchor="middle" x="878" y="-201.8" font-family="Times,serif" font-size="14.00">node #11</text>
<text text-anchor="middle" x="878" y="-186.8" font-family="Times,serif" font-size="14.00">FEV1PostPercent &lt;= 66.5</text>
<text text-anchor="middle" x="878" y="-171.8" font-family="Times,serif" font-size="14.00">gini = 0.268</text>
<text text-anchor="middle" x="878" y="-156.8" font-family="Times,serif" font-size="14.00">samples = 17</text>
<text text-anchor="middle" x="878" y="-141.8" font-family="Times,serif" font-size="14.00">value = [4.97, 26.157]</text>
<text text-anchor="middle" x="878" y="-126.8" font-family="Times,serif" font-size="14.00">class = Obstructive</text>
</g>
<!-- 7&#45;&gt;11 -->
<g id="edge11" class="edge">
<title>7&#45;&gt;11</title>
<path fill="none" stroke="black" d="M814.39,-252.97C821.21,-243.96 828.4,-234.47 835.39,-225.24"/>
<polygon fill="black" stroke="black" points="838.23,-227.3 841.47,-217.21 832.65,-223.07 838.23,-227.3"/>
</g>
<!-- 9 -->
<g id="node10" class="node">
<title>9</title>
<polygon fill="none" stroke="black" points="549,-83 391,-83 391,0 549,0 549,-83"/>
<text text-anchor="middle" x="470" y="-67.8" font-family="Times,serif" font-size="14.00">node #9</text>
<text text-anchor="middle" x="470" y="-52.8" font-family="Times,serif" font-size="14.00">gini = 0.0</text>
<text text-anchor="middle" x="470" y="-37.8" font-family="Times,serif" font-size="14.00">samples = 1</text>
<text text-anchor="middle" x="470" y="-22.8" font-family="Times,serif" font-size="14.00">value = [0.0, 1.006]</text>
<text text-anchor="middle" x="470" y="-7.8" font-family="Times,serif" font-size="14.00">class = Obstructive</text>
</g>
<!-- 8&#45;&gt;9 -->
<g id="edge9" class="edge">
<title>8&#45;&gt;9</title>
<path fill="none" stroke="black" d="M587.15,-118.87C571.97,-108.97 556.02,-98.57 540.95,-88.74"/>
<polygon fill="black" stroke="black" points="542.47,-85.56 532.18,-83.03 538.65,-91.43 542.47,-85.56"/>
</g>
<!-- 10 -->
<g id="node11" class="node">
<title>10</title>
<polygon fill="none" stroke="black" points="755,-83 567,-83 567,0 755,0 755,-83"/>
<text text-anchor="middle" x="661" y="-67.8" font-family="Times,serif" font-size="14.00">node #10</text>
<text text-anchor="middle" x="661" y="-52.8" font-family="Times,serif" font-size="14.00">gini = 0.0</text>
<text text-anchor="middle" x="661" y="-37.8" font-family="Times,serif" font-size="14.00">samples = 5</text>
<text text-anchor="middle" x="661" y="-22.8" font-family="Times,serif" font-size="14.00">value = [9.94, 0.0]</text>
<text text-anchor="middle" x="661" y="-7.8" font-family="Times,serif" font-size="14.00">class = Non&#45;obstructive</text>
</g>
<!-- 8&#45;&gt;10 -->
<g id="edge10" class="edge">
<title>8&#45;&gt;10</title>
<path fill="none" stroke="black" d="M661,-118.87C661,-110.5 661,-101.77 661,-93.33"/>
<polygon fill="black" stroke="black" points="664.5,-93.23 661,-83.23 657.5,-93.23 664.5,-93.23"/>
</g>
<!-- 12 -->
<g id="node13" class="node">
<title>12</title>
<polygon fill="none" stroke="black" points="949,-83 773,-83 773,0 949,0 949,-83"/>
<text text-anchor="middle" x="861" y="-67.8" font-family="Times,serif" font-size="14.00">node #12</text>
<text text-anchor="middle" x="861" y="-52.8" font-family="Times,serif" font-size="14.00">gini = 0.09</text>
<text text-anchor="middle" x="861" y="-37.8" font-family="Times,serif" font-size="14.00">samples = 13</text>
<text text-anchor="middle" x="861" y="-22.8" font-family="Times,serif" font-size="14.00">value = [0.994, 20.12]</text>
<text text-anchor="middle" x="861" y="-7.8" font-family="Times,serif" font-size="14.00">class = Obstructive</text>
</g>
<!-- 11&#45;&gt;12 -->
<g id="edge12" class="edge">
<title>11&#45;&gt;12</title>
<path fill="none" stroke="black" d="M871.43,-118.87C870.28,-110.5 869.09,-101.77 867.94,-93.33"/>
<polygon fill="black" stroke="black" points="871.38,-92.67 866.56,-83.23 864.45,-93.61 871.38,-92.67"/>
</g>
<!-- 13 -->
<g id="node14" class="node">
<title>13</title>
<polygon fill="none" stroke="black" points="1143,-83 967,-83 967,0 1143,0 1143,-83"/>
<text text-anchor="middle" x="1055" y="-67.8" font-family="Times,serif" font-size="14.00">node #13</text>
<text text-anchor="middle" x="1055" y="-52.8" font-family="Times,serif" font-size="14.00">gini = 0.479</text>
<text text-anchor="middle" x="1055" y="-37.8" font-family="Times,serif" font-size="14.00">samples = 4</text>
<text text-anchor="middle" x="1055" y="-22.8" font-family="Times,serif" font-size="14.00">value = [3.976, 6.036]</text>
<text text-anchor="middle" x="1055" y="-7.8" font-family="Times,serif" font-size="14.00">class = Obstructive</text>
</g>
<!-- 11&#45;&gt;13 -->
<g id="edge13" class="edge">
<title>11&#45;&gt;13</title>
<path fill="none" stroke="black" d="M946.43,-118.87C960.37,-109.06 975.01,-98.77 988.86,-89.02"/>
<polygon fill="black" stroke="black" points="991.21,-91.65 997.38,-83.03 987.18,-85.92 991.21,-91.65"/>
</g>
<!-- 15 -->
<g id="node16" class="node">
<title>15</title>
<polygon fill="none" stroke="black" points="1638,-351 1444,-351 1444,-253 1638,-253 1638,-351"/>
<text text-anchor="middle" x="1541" y="-335.8" font-family="Times,serif" font-size="14.00">node #15</text>
<text text-anchor="middle" x="1541" y="-320.8" font-family="Times,serif" font-size="14.00">FEFPostVal &lt;= 1.265</text>
<text text-anchor="middle" x="1541" y="-305.8" font-family="Times,serif" font-size="14.00">gini = 0.166</text>
<text text-anchor="middle" x="1541" y="-290.8" font-family="Times,serif" font-size="14.00">samples = 68</text>
<text text-anchor="middle" x="1541" y="-275.8" font-family="Times,serif" font-size="14.00">value = [100.399, 10.06]</text>
<text text-anchor="middle" x="1541" y="-260.8" font-family="Times,serif" font-size="14.00">class = Non&#45;obstructive</text>
</g>
<!-- 14&#45;&gt;15 -->
<g id="edge15" class="edge">
<title>14&#45;&gt;15</title>
<path fill="none" stroke="black" d="M1541,-386.97C1541,-378.69 1541,-370 1541,-361.48"/>
<polygon fill="black" stroke="black" points="1544.5,-361.21 1541,-351.21 1537.5,-361.21 1544.5,-361.21"/>
</g>
<!-- 22 -->
<g id="node23" class="node">
<title>22</title>
<polygon fill="none" stroke="black" points="2243.5,-351 2046.5,-351 2046.5,-253 2243.5,-253 2243.5,-351"/>
<text text-anchor="middle" x="2145" y="-335.8" font-family="Times,serif" font-size="14.00">node #22</text>
<text text-anchor="middle" x="2145" y="-320.8" font-family="Times,serif" font-size="14.00">FEFPostPercent &lt;= 78.5</text>
<text text-anchor="middle" x="2145" y="-305.8" font-family="Times,serif" font-size="14.00">gini = 0.496</text>
<text text-anchor="middle" x="2145" y="-290.8" font-family="Times,serif" font-size="14.00">samples = 72</text>
<text text-anchor="middle" x="2145" y="-275.8" font-family="Times,serif" font-size="14.00">value = [49.702, 59.355]</text>
<text text-anchor="middle" x="2145" y="-260.8" font-family="Times,serif" font-size="14.00">class = Obstructive</text>
</g>
<!-- 14&#45;&gt;22 -->
<g id="edge22" class="edge">
<title>14&#45;&gt;22</title>
<path fill="none" stroke="black" d="M1642.78,-412.76C1751.94,-388.9 1924.63,-351.16 2036.37,-326.74"/>
<polygon fill="black" stroke="black" points="2037.3,-330.12 2046.32,-324.57 2035.8,-323.28 2037.3,-330.12"/>
</g>
<!-- 16 -->
<g id="node17" class="node">
<title>16</title>
<polygon fill="none" stroke="black" points="1526,-217 1344,-217 1344,-119 1526,-119 1526,-217"/>
<text text-anchor="middle" x="1435" y="-201.8" font-family="Times,serif" font-size="14.00">node #16</text>
<text text-anchor="middle" x="1435" y="-186.8" font-family="Times,serif" font-size="14.00">FEV1PostVal &lt;= 1.235</text>
<text text-anchor="middle" x="1435" y="-171.8" font-family="Times,serif" font-size="14.00">gini = 0.5</text>
<text text-anchor="middle" x="1435" y="-156.8" font-family="Times,serif" font-size="14.00">samples = 4</text>
<text text-anchor="middle" x="1435" y="-141.8" font-family="Times,serif" font-size="14.00">value = [3.976, 4.024]</text>
<text text-anchor="middle" x="1435" y="-126.8" font-family="Times,serif" font-size="14.00">class = Obstructive</text>
</g>
<!-- 15&#45;&gt;16 -->
<g id="edge16" class="edge">
<title>15&#45;&gt;16</title>
<path fill="none" stroke="black" d="M1502.43,-252.97C1495.2,-243.96 1487.58,-234.47 1480.16,-225.24"/>
<polygon fill="black" stroke="black" points="1482.71,-222.82 1473.72,-217.21 1477.25,-227.2 1482.71,-222.82"/>
</g>
<!-- 19 -->
<g id="node20" class="node">
<title>19</title>
<polygon fill="none" stroke="black" points="1750,-217 1544,-217 1544,-119 1750,-119 1750,-217"/>
<text text-anchor="middle" x="1647" y="-201.8" font-family="Times,serif" font-size="14.00">node #19</text>
<text text-anchor="middle" x="1647" y="-186.8" font-family="Times,serif" font-size="14.00">FEV1PostPercent &lt;= 77.5</text>
<text text-anchor="middle" x="1647" y="-171.8" font-family="Times,serif" font-size="14.00">gini = 0.111</text>
<text text-anchor="middle" x="1647" y="-156.8" font-family="Times,serif" font-size="14.00">samples = 64</text>
<text text-anchor="middle" x="1647" y="-141.8" font-family="Times,serif" font-size="14.00">value = [96.423, 6.036]</text>
<text text-anchor="middle" x="1647" y="-126.8" font-family="Times,serif" font-size="14.00">class = Non&#45;obstructive</text>
</g>
<!-- 15&#45;&gt;19 -->
<g id="edge19" class="edge">
<title>15&#45;&gt;19</title>
<path fill="none" stroke="black" d="M1579.57,-252.97C1586.8,-243.96 1594.42,-234.47 1601.84,-225.24"/>
<polygon fill="black" stroke="black" points="1604.75,-227.2 1608.28,-217.21 1599.29,-222.82 1604.75,-227.2"/>
</g>
<!-- 17 -->
<g id="node18" class="node">
<title>17</title>
<polygon fill="none" stroke="black" points="1349,-83 1161,-83 1161,0 1349,0 1349,-83"/>
<text text-anchor="middle" x="1255" y="-67.8" font-family="Times,serif" font-size="14.00">node #17</text>
<text text-anchor="middle" x="1255" y="-52.8" font-family="Times,serif" font-size="14.00">gini = 0.0</text>
<text text-anchor="middle" x="1255" y="-37.8" font-family="Times,serif" font-size="14.00">samples = 2</text>
<text text-anchor="middle" x="1255" y="-22.8" font-family="Times,serif" font-size="14.00">value = [3.976, 0.0]</text>
<text text-anchor="middle" x="1255" y="-7.8" font-family="Times,serif" font-size="14.00">class = Non&#45;obstructive</text>
</g>
<!-- 16&#45;&gt;17 -->
<g id="edge17" class="edge">
<title>16&#45;&gt;17</title>
<path fill="none" stroke="black" d="M1365.41,-118.87C1351.1,-108.97 1336.07,-98.57 1321.86,-88.74"/>
<polygon fill="black" stroke="black" points="1323.82,-85.84 1313.6,-83.03 1319.83,-91.6 1323.82,-85.84"/>
</g>
<!-- 18 -->
<g id="node19" class="node">
<title>18</title>
<polygon fill="none" stroke="black" points="1525,-83 1367,-83 1367,0 1525,0 1525,-83"/>
<text text-anchor="middle" x="1446" y="-67.8" font-family="Times,serif" font-size="14.00">node #18</text>
<text text-anchor="middle" x="1446" y="-52.8" font-family="Times,serif" font-size="14.00">gini = 0.0</text>
<text text-anchor="middle" x="1446" y="-37.8" font-family="Times,serif" font-size="14.00">samples = 2</text>
<text text-anchor="middle" x="1446" y="-22.8" font-family="Times,serif" font-size="14.00">value = [0.0, 4.024]</text>
<text text-anchor="middle" x="1446" y="-7.8" font-family="Times,serif" font-size="14.00">class = Obstructive</text>
</g>
<!-- 16&#45;&gt;18 -->
<g id="edge18" class="edge">
<title>16&#45;&gt;18</title>
<path fill="none" stroke="black" d="M1439.25,-118.87C1439.99,-110.5 1440.76,-101.77 1441.51,-93.33"/>
<polygon fill="black" stroke="black" points="1445.01,-93.5 1442.4,-83.23 1438.03,-92.88 1445.01,-93.5"/>
</g>
<!-- 20 -->
<g id="node21" class="node">
<title>20</title>
<polygon fill="none" stroke="black" points="1731,-83 1543,-83 1543,0 1731,0 1731,-83"/>
<text text-anchor="middle" x="1637" y="-67.8" font-family="Times,serif" font-size="14.00">node #20</text>
<text text-anchor="middle" x="1637" y="-52.8" font-family="Times,serif" font-size="14.00">gini = 0.043</text>
<text text-anchor="middle" x="1637" y="-37.8" font-family="Times,serif" font-size="14.00">samples = 57</text>
<text text-anchor="middle" x="1637" y="-22.8" font-family="Times,serif" font-size="14.00">value = [89.464, 2.012]</text>
<text text-anchor="middle" x="1637" y="-7.8" font-family="Times,serif" font-size="14.00">class = Non&#45;obstructive</text>
</g>
<!-- 19&#45;&gt;20 -->
<g id="edge20" class="edge">
<title>19&#45;&gt;20</title>
<path fill="none" stroke="black" d="M1643.13,-118.87C1642.46,-110.5 1641.76,-101.77 1641.08,-93.33"/>
<polygon fill="black" stroke="black" points="1644.56,-92.92 1640.27,-83.23 1637.58,-93.48 1644.56,-92.92"/>
</g>
<!-- 21 -->
<g id="node22" class="node">
<title>21</title>
<polygon fill="none" stroke="black" points="1937,-83 1749,-83 1749,0 1937,0 1937,-83"/>
<text text-anchor="middle" x="1843" y="-67.8" font-family="Times,serif" font-size="14.00">node #21</text>
<text text-anchor="middle" x="1843" y="-52.8" font-family="Times,serif" font-size="14.00">gini = 0.464</text>
<text text-anchor="middle" x="1843" y="-37.8" font-family="Times,serif" font-size="14.00">samples = 7</text>
<text text-anchor="middle" x="1843" y="-22.8" font-family="Times,serif" font-size="14.00">value = [6.958, 4.024]</text>
<text text-anchor="middle" x="1843" y="-7.8" font-family="Times,serif" font-size="14.00">class = Non&#45;obstructive</text>
</g>
<!-- 19&#45;&gt;21 -->
<g id="edge21" class="edge">
<title>19&#45;&gt;21</title>
<path fill="none" stroke="black" d="M1722.78,-118.87C1738.5,-108.88 1755.03,-98.38 1770.63,-88.47"/>
<polygon fill="black" stroke="black" points="1772.63,-91.35 1779.19,-83.03 1768.87,-85.44 1772.63,-91.35"/>
</g>
<!-- 23 -->
<g id="node24" class="node">
<title>23</title>
<polygon fill="none" stroke="black" points="2248,-217 2042,-217 2042,-119 2248,-119 2248,-217"/>
<text text-anchor="middle" x="2145" y="-201.8" font-family="Times,serif" font-size="14.00">node #23</text>
<text text-anchor="middle" x="2145" y="-186.8" font-family="Times,serif" font-size="14.00">FEV1PostPercent &lt;= 69.0</text>
<text text-anchor="middle" x="2145" y="-171.8" font-family="Times,serif" font-size="14.00">gini = 0.404</text>
<text text-anchor="middle" x="2145" y="-156.8" font-family="Times,serif" font-size="14.00">samples = 47</text>
<text text-anchor="middle" x="2145" y="-141.8" font-family="Times,serif" font-size="14.00">value = [18.887, 48.289]</text>
<text text-anchor="middle" x="2145" y="-126.8" font-family="Times,serif" font-size="14.00">class = Obstructive</text>
</g>
<!-- 22&#45;&gt;23 -->
<g id="edge23" class="edge">
<title>22&#45;&gt;23</title>
<path fill="none" stroke="black" d="M2145,-252.97C2145,-244.69 2145,-236 2145,-227.48"/>
<polygon fill="black" stroke="black" points="2148.5,-227.21 2145,-217.21 2141.5,-227.21 2148.5,-227.21"/>
</g>
<!-- 26 -->
<g id="node27" class="node">
<title>26</title>
<polygon fill="none" stroke="black" points="2556,-217 2362,-217 2362,-119 2556,-119 2556,-217"/>
<text text-anchor="middle" x="2459" y="-201.8" font-family="Times,serif" font-size="14.00">node #26</text>
<text text-anchor="middle" x="2459" y="-186.8" font-family="Times,serif" font-size="14.00">FEV1PostVal &lt;= 3.03</text>
<text text-anchor="middle" x="2459" y="-171.8" font-family="Times,serif" font-size="14.00">gini = 0.389</text>
<text text-anchor="middle" x="2459" y="-156.8" font-family="Times,serif" font-size="14.00">samples = 25</text>
<text text-anchor="middle" x="2459" y="-141.8" font-family="Times,serif" font-size="14.00">value = [30.815, 11.066]</text>
<text text-anchor="middle" x="2459" y="-126.8" font-family="Times,serif" font-size="14.00">class = Non&#45;obstructive</text>
</g>
<!-- 22&#45;&gt;26 -->
<g id="edge26" class="edge">
<title>22&#45;&gt;26</title>
<path fill="none" stroke="black" d="M2243.92,-259.42C2278.49,-244.88 2317.44,-228.51 2352.59,-213.73"/>
<polygon fill="black" stroke="black" points="2354.06,-216.91 2361.92,-209.81 2351.35,-210.46 2354.06,-216.91"/>
</g>
<!-- 24 -->
<g id="node25" class="node">
<title>24</title>
<polygon fill="none" stroke="black" points="2143,-83 1955,-83 1955,0 2143,0 2143,-83"/>
<text text-anchor="middle" x="2049" y="-67.8" font-family="Times,serif" font-size="14.00">node #24</text>
<text text-anchor="middle" x="2049" y="-52.8" font-family="Times,serif" font-size="14.00">gini = 0.467</text>
<text text-anchor="middle" x="2049" y="-37.8" font-family="Times,serif" font-size="14.00">samples = 14</text>
<text text-anchor="middle" x="2049" y="-22.8" font-family="Times,serif" font-size="14.00">value = [11.929, 7.042]</text>
<text text-anchor="middle" x="2049" y="-7.8" font-family="Times,serif" font-size="14.00">class = Non&#45;obstructive</text>
</g>
<!-- 23&#45;&gt;24 -->
<g id="edge24" class="edge">
<title>23&#45;&gt;24</title>
<path fill="none" stroke="black" d="M2107.88,-118.87C2100.94,-109.85 2093.67,-100.43 2086.7,-91.39"/>
<polygon fill="black" stroke="black" points="2089.29,-89.01 2080.41,-83.23 2083.74,-93.29 2089.29,-89.01"/>
</g>
<!-- 25 -->
<g id="node26" class="node">
<title>25</title>
<polygon fill="none" stroke="black" points="2346.5,-83 2161.5,-83 2161.5,0 2346.5,0 2346.5,-83"/>
<text text-anchor="middle" x="2254" y="-67.8" font-family="Times,serif" font-size="14.00">node #25</text>
<text text-anchor="middle" x="2254" y="-52.8" font-family="Times,serif" font-size="14.00">gini = 0.247</text>
<text text-anchor="middle" x="2254" y="-37.8" font-family="Times,serif" font-size="14.00">samples = 33</text>
<text text-anchor="middle" x="2254" y="-22.8" font-family="Times,serif" font-size="14.00">value = [6.958, 41.247]</text>
<text text-anchor="middle" x="2254" y="-7.8" font-family="Times,serif" font-size="14.00">class = Obstructive</text>
</g>
<!-- 23&#45;&gt;25 -->
<g id="edge25" class="edge">
<title>23&#45;&gt;25</title>
<path fill="none" stroke="black" d="M2187.14,-118.87C2195.19,-109.67 2203.62,-100.04 2211.68,-90.84"/>
<polygon fill="black" stroke="black" points="2214.39,-93.06 2218.34,-83.23 2209.12,-88.45 2214.39,-93.06"/>
</g>
<!-- 27 -->
<g id="node28" class="node">
<title>27</title>
<polygon fill="none" stroke="black" points="2553,-83 2365,-83 2365,0 2553,0 2553,-83"/>
<text text-anchor="middle" x="2459" y="-67.8" font-family="Times,serif" font-size="14.00">node #27</text>
<text text-anchor="middle" x="2459" y="-52.8" font-family="Times,serif" font-size="14.00">gini = 0.063</text>
<text text-anchor="middle" x="2459" y="-37.8" font-family="Times,serif" font-size="14.00">samples = 20</text>
<text text-anchor="middle" x="2459" y="-22.8" font-family="Times,serif" font-size="14.00">value = [29.821, 1.006]</text>
<text text-anchor="middle" x="2459" y="-7.8" font-family="Times,serif" font-size="14.00">class = Non&#45;obstructive</text>
</g>
<!-- 26&#45;&gt;27 -->
<g id="edge27" class="edge">
<title>26&#45;&gt;27</title>
<path fill="none" stroke="black" d="M2459,-118.87C2459,-110.5 2459,-101.77 2459,-93.33"/>
<polygon fill="black" stroke="black" points="2462.5,-93.23 2459,-83.23 2455.5,-93.23 2462.5,-93.23"/>
</g>
<!-- 28 -->
<g id="node29" class="node">
<title>28</title>
<polygon fill="none" stroke="black" points="2747,-83 2571,-83 2571,0 2747,0 2747,-83"/>
<text text-anchor="middle" x="2659" y="-67.8" font-family="Times,serif" font-size="14.00">node #28</text>
<text text-anchor="middle" x="2659" y="-52.8" font-family="Times,serif" font-size="14.00">gini = 0.164</text>
<text text-anchor="middle" x="2659" y="-37.8" font-family="Times,serif" font-size="14.00">samples = 5</text>
<text text-anchor="middle" x="2659" y="-22.8" font-family="Times,serif" font-size="14.00">value = [0.994, 10.06]</text>
<text text-anchor="middle" x="2659" y="-7.8" font-family="Times,serif" font-size="14.00">class = Obstructive</text>
</g>
<!-- 26&#45;&gt;28 -->
<g id="edge28" class="edge">
<title>26&#45;&gt;28</title>
<path fill="none" stroke="black" d="M2536.33,-118.87C2552.37,-108.88 2569.24,-98.38 2585.15,-88.47"/>
<polygon fill="black" stroke="black" points="2587.25,-91.29 2593.89,-83.03 2583.55,-85.35 2587.25,-91.29"/>
</g>
</g>
</svg>
