<?xml version="1.0" encoding="UTF-8" standalone="no"?>
<!DOCTYPE svg PUBLIC "-//W3C//DTD SVG 1.1//EN"
 "http://www.w3.org/Graphics/SVG/1.1/DTD/svg11.dtd">
<!-- Generated by graphviz version 2.43.0 (0)
 -->
<!-- Title: Tree Pages: 1 -->
<svg width="2771pt" height="627pt"
 viewBox="0.00 0.00 2771.00 627.00" xmlns="http://www.w3.org/2000/svg" xmlns:xlink="http://www.w3.org/1999/xlink">
<g id="graph0" class="graph" transform="scale(1 1) rotate(0) translate(4 623)">
<title>Tree</title>
<polygon fill="white" stroke="transparent" points="-4,4 -4,-623 2767,-623 2767,4 -4,4"/>
<!-- 0 -->
<g id="node1" class="node">
<title>0</title>
<polygon fill="none" stroke="black" points="1582.5,-619 1391.5,-619 1391.5,-521 1582.5,-521 1582.5,-619"/>
<text text-anchor="middle" x="1487" y="-603.8" font-family="Times,serif" font-size="14.00">node #0</text>
<text text-anchor="middle" x="1487" y="-588.8" font-family="Times,serif" font-size="14.00">FEFPrePercent &lt;= 54.5</text>
<text text-anchor="middle" x="1487" y="-573.8" font-family="Times,serif" font-size="14.00">gini = 0.5</text>
<text text-anchor="middle" x="1487" y="-558.8" font-family="Times,serif" font-size="14.00">samples = 211</text>
<text text-anchor="middle" x="1487" y="-543.8" font-family="Times,serif" font-size="14.00">value = [167.0, 167.0]</text>
<text text-anchor="middle" x="1487" y="-528.8" font-family="Times,serif" font-size="14.00">class = Obstructive</text>
</g>
<!-- 1 -->
<g id="node2" class="node">
<title>1</title>
<polygon fill="none" stroke="black" points="1282.5,-485 1079.5,-485 1079.5,-387 1282.5,-387 1282.5,-485"/>
<text text-anchor="middle" x="1181" y="-469.8" font-family="Times,serif" font-size="14.00">node #1</text>
<text text-anchor="middle" x="1181" y="-454.8" font-family="Times,serif" font-size="14.00">FEFPrePercent &lt;= 26.5</text>
<text text-anchor="middle" x="1181" y="-439.8" font-family="Times,serif" font-size="14.00">gini = 0.355</text>
<text text-anchor="middle" x="1181" y="-424.8" font-family="Times,serif" font-size="14.00">samples = 112</text>
<text text-anchor="middle" x="1181" y="-409.8" font-family="Times,serif" font-size="14.00">value = [39.762, 132.795]</text>
<text text-anchor="middle" x="1181" y="-394.8" font-family="Times,serif" font-size="14.00">class = Obstructive</text>
</g>
<!-- 0&#45;&gt;1 -->
<g id="edge1" class="edge">
<title>0&#45;&gt;1</title>
<path fill="none" stroke="black" d="M1391.44,-527.78C1360,-514.21 1324.77,-499.02 1292.26,-485"/>
<polygon fill="black" stroke="black" points="1293.29,-481.63 1282.72,-480.88 1290.52,-488.05 1293.29,-481.63"/>
<text text-anchor="middle" x="1291.95" y="-500.41" font-family="Times,serif" font-size="14.00">True</text>
</g>
<!-- 16 -->
<g id="node17" class="node">
<title>16</title>
<polygon fill="none" stroke="black" points="1939.5,-485 1736.5,-485 1736.5,-387 1939.5,-387 1939.5,-485"/>
<text text-anchor="middle" x="1838" y="-469.8" font-family="Times,serif" font-size="14.00">node #16</text>
<text text-anchor="middle" x="1838" y="-454.8" font-family="Times,serif" font-size="14.00">FVCPreVal &lt;= 2.185</text>
<text text-anchor="middle" x="1838" y="-439.8" font-family="Times,serif" font-size="14.00">gini = 0.334</text>
<text text-anchor="middle" x="1838" y="-424.8" font-family="Times,serif" font-size="14.00">samples = 99</text>
<text text-anchor="middle" x="1838" y="-409.8" font-family="Times,serif" font-size="14.00">value = [127.238, 34.205]</text>
<text text-anchor="middle" x="1838" y="-394.8" font-family="Times,serif" font-size="14.00">class = Non&#45;obstructive</text>
</g>
<!-- 0&#45;&gt;16 -->
<g id="edge16" class="edge">
<title>0&#45;&gt;16</title>
<path fill="none" stroke="black" d="M1582.91,-532.93C1627.44,-516.18 1680.65,-496.18 1726.91,-478.78"/>
<polygon fill="black" stroke="black" points="1728.25,-482.01 1736.37,-475.22 1725.78,-475.46 1728.25,-482.01"/>
<text text-anchor="middle" x="1726.05" y="-494.29" font-family="Times,serif" font-size="14.00">False</text>
</g>
<!-- 2 -->
<g id="node3" class="node">
<title>2</title>
<polygon fill="none" stroke="black" points="670.5,-351 473.5,-351 473.5,-253 670.5,-253 670.5,-351"/>
<text text-anchor="middle" x="572" y="-335.8" font-family="Times,serif" font-size="14.00">node #2</text>
<text text-anchor="middle" x="572" y="-320.8" font-family="Times,serif" font-size="14.00">FVCPostPercent &lt;= 37.5</text>
<text text-anchor="middle" x="572" y="-305.8" font-family="Times,serif" font-size="14.00">gini = 0.176</text>
<text text-anchor="middle" x="572" y="-290.8" font-family="Times,serif" font-size="14.00">samples = 48</text>
<text text-anchor="middle" x="572" y="-275.8" font-family="Times,serif" font-size="14.00">value = [7.952, 73.44]</text>
<text text-anchor="middle" x="572" y="-260.8" font-family="Times,serif" font-size="14.00">class = Obstructive</text>
</g>
<!-- 1&#45;&gt;2 -->
<g id="edge2" class="edge">
<title>1&#45;&gt;2</title>
<path fill="none" stroke="black" d="M1079.41,-412.98C969.12,-389.07 793.64,-351.04 680.65,-326.55"/>
<polygon fill="black" stroke="black" points="681.11,-323.07 670.59,-324.37 679.63,-329.91 681.11,-323.07"/>
</g>
<!-- 9 -->
<g id="node10" class="node">
<title>9</title>
<polygon fill="none" stroke="black" points="1276.5,-351 1085.5,-351 1085.5,-253 1276.5,-253 1276.5,-351"/>
<text text-anchor="middle" x="1181" y="-335.8" font-family="Times,serif" font-size="14.00">node #9</text>
<text text-anchor="middle" x="1181" y="-320.8" font-family="Times,serif" font-size="14.00">FVCPrePercent &lt;= 64.5</text>
<text text-anchor="middle" x="1181" y="-305.8" font-family="Times,serif" font-size="14.00">gini = 0.454</text>
<text text-anchor="middle" x="1181" y="-290.8" font-family="Times,serif" font-size="14.00">samples = 64</text>
<text text-anchor="middle" x="1181" y="-275.8" font-family="Times,serif" font-size="14.00">value = [31.81, 59.355]</text>
<text text-anchor="middle" x="1181" y="-260.8" font-family="Times,serif" font-size="14.00">class = Obstructive</text>
</g>
<!-- 1&#45;&gt;9 -->
<g id="edge9" class="edge">
<title>1&#45;&gt;9</title>
<path fill="none" stroke="black" d="M1181,-386.97C1181,-378.69 1181,-370 1181,-361.48"/>
<polygon fill="black" stroke="black" points="1184.5,-361.21 1181,-351.21 1177.5,-361.21 1184.5,-361.21"/>
</g>
<!-- 3 -->
<g id="node4" class="node">
<title>3</title>
<polygon fill="none" stroke="black" points="365.5,-217 174.5,-217 174.5,-119 365.5,-119 365.5,-217"/>
<text text-anchor="middle" x="270" y="-201.8" font-family="Times,serif" font-size="14.00">node #3</text>
<text text-anchor="middle" x="270" y="-186.8" font-family="Times,serif" font-size="14.00">FVCPrePercent &lt;= 30.0</text>
<text text-anchor="middle" x="270" y="-171.8" font-family="Times,serif" font-size="14.00">gini = 0.47</text>
<text text-anchor="middle" x="270" y="-156.8" font-family="Times,serif" font-size="14.00">samples = 4</text>
<text text-anchor="middle" x="270" y="-141.8" font-family="Times,serif" font-size="14.00">value = [4.97, 3.018]</text>
<text text-anchor="middle" x="270" y="-126.8" font-family="Times,serif" font-size="14.00">class = Non&#45;obstructive</text>
</g>
<!-- 2&#45;&gt;3 -->
<g id="edge3" class="edge">
<title>2&#45;&gt;3</title>
<path fill="none" stroke="black" d="M473.11,-257.78C441.64,-244.02 406.73,-228.76 374.85,-214.83"/>
<polygon fill="black" stroke="black" points="376.07,-211.54 365.51,-210.75 373.27,-217.96 376.07,-211.54"/>
</g>
<!-- 6 -->
<g id="node7" class="node">
<title>6</title>
<polygon fill="none" stroke="black" points="664.5,-217 479.5,-217 479.5,-119 664.5,-119 664.5,-217"/>
<text text-anchor="middle" x="572" y="-201.8" font-family="Times,serif" font-size="14.00">node #6</text>
<text text-anchor="middle" x="572" y="-186.8" font-family="Times,serif" font-size="14.00">FVCPostVal &lt;= 1.14</text>
<text text-anchor="middle" x="572" y="-171.8" font-family="Times,serif" font-size="14.00">gini = 0.078</text>
<text text-anchor="middle" x="572" y="-156.8" font-family="Times,serif" font-size="14.00">samples = 44</text>
<text text-anchor="middle" x="572" y="-141.8" font-family="Times,serif" font-size="14.00">value = [2.982, 70.422]</text>
<text text-anchor="middle" x="572" y="-126.8" font-family="Times,serif" font-size="14.00">class = Obstructive</text>
</g>
<!-- 2&#45;&gt;6 -->
<g id="edge6" class="edge">
<title>2&#45;&gt;6</title>
<path fill="none" stroke="black" d="M572,-252.97C572,-244.69 572,-236 572,-227.48"/>
<polygon fill="black" stroke="black" points="575.5,-227.21 572,-217.21 568.5,-227.21 575.5,-227.21"/>
</g>
<!-- 4 -->
<g id="node5" class="node">
<title>4</title>
<polygon fill="none" stroke="black" points="158,-83 0,-83 0,0 158,0 158,-83"/>
<text text-anchor="middle" x="79" y="-67.8" font-family="Times,serif" font-size="14.00">node #4</text>
<text text-anchor="middle" x="79" y="-52.8" font-family="Times,serif" font-size="14.00">gini = 0.0</text>
<text text-anchor="middle" x="79" y="-37.8" font-family="Times,serif" font-size="14.00">samples = 2</text>
<text text-anchor="middle" x="79" y="-22.8" font-family="Times,serif" font-size="14.00">value = [0.0, 3.018]</text>
<text text-anchor="middle" x="79" y="-7.8" font-family="Times,serif" font-size="14.00">class = Obstructive</text>
</g>
<!-- 3&#45;&gt;4 -->
<g id="edge4" class="edge">
<title>3&#45;&gt;4</title>
<path fill="none" stroke="black" d="M196.15,-118.87C180.97,-108.97 165.02,-98.57 149.95,-88.74"/>
<polygon fill="black" stroke="black" points="151.47,-85.56 141.18,-83.03 147.65,-91.43 151.47,-85.56"/>
</g>
<!-- 5 -->
<g id="node6" class="node">
<title>5</title>
<polygon fill="none" stroke="black" points="364,-83 176,-83 176,0 364,0 364,-83"/>
<text text-anchor="middle" x="270" y="-67.8" font-family="Times,serif" font-size="14.00">node #5</text>
<text text-anchor="middle" x="270" y="-52.8" font-family="Times,serif" font-size="14.00">gini = 0.0</text>
<text text-anchor="middle" x="270" y="-37.8" font-family="Times,serif" font-size="14.00">samples = 2</text>
<text text-anchor="middle" x="270" y="-22.8" font-family="Times,serif" font-size="14.00">value = [4.97, 0.0]</text>
<text text-anchor="middle" x="270" y="-7.8" font-family="Times,serif" font-size="14.00">class = Non&#45;obstructive</text>
</g>
<!-- 3&#45;&gt;5 -->
<g id="edge5" class="edge">
<title>3&#45;&gt;5</title>
<path fill="none" stroke="black" d="M270,-118.87C270,-110.5 270,-101.77 270,-93.33"/>
<polygon fill="black" stroke="black" points="273.5,-93.23 270,-83.23 266.5,-93.23 273.5,-93.23"/>
</g>
<!-- 7 -->
<g id="node8" class="node">
<title>7</title>
<polygon fill="none" stroke="black" points="558,-83 382,-83 382,0 558,0 558,-83"/>
<text text-anchor="middle" x="470" y="-67.8" font-family="Times,serif" font-size="14.00">node #7</text>
<text text-anchor="middle" x="470" y="-52.8" font-family="Times,serif" font-size="14.00">gini = 0.479</text>
<text text-anchor="middle" x="470" y="-37.8" font-family="Times,serif" font-size="14.00">samples = 3</text>
<text text-anchor="middle" x="470" y="-22.8" font-family="Times,serif" font-size="14.00">value = [1.988, 3.018]</text>
<text text-anchor="middle" x="470" y="-7.8" font-family="Times,serif" font-size="14.00">class = Obstructive</text>
</g>
<!-- 6&#45;&gt;7 -->
<g id="edge7" class="edge">
<title>6&#45;&gt;7</title>
<path fill="none" stroke="black" d="M532.56,-118.87C525.11,-109.76 517.3,-100.23 509.83,-91.12"/>
<polygon fill="black" stroke="black" points="512.41,-88.75 503.37,-83.23 507,-93.18 512.41,-88.75"/>
</g>
<!-- 8 -->
<g id="node9" class="node">
<title>8</title>
<polygon fill="none" stroke="black" points="760.5,-83 575.5,-83 575.5,0 760.5,0 760.5,-83"/>
<text text-anchor="middle" x="668" y="-67.8" font-family="Times,serif" font-size="14.00">node #8</text>
<text text-anchor="middle" x="668" y="-52.8" font-family="Times,serif" font-size="14.00">gini = 0.029</text>
<text text-anchor="middle" x="668" y="-37.8" font-family="Times,serif" font-size="14.00">samples = 41</text>
<text text-anchor="middle" x="668" y="-22.8" font-family="Times,serif" font-size="14.00">value = [0.994, 67.404]</text>
<text text-anchor="middle" x="668" y="-7.8" font-family="Times,serif" font-size="14.00">class = Obstructive</text>
</g>
<!-- 6&#45;&gt;8 -->
<g id="edge8" class="edge">
<title>6&#45;&gt;8</title>
<path fill="none" stroke="black" d="M609.12,-118.87C616.06,-109.85 623.33,-100.43 630.3,-91.39"/>
<polygon fill="black" stroke="black" points="633.26,-93.29 636.59,-83.23 627.71,-89.01 633.26,-93.29"/>
</g>
<!-- 10 -->
<g id="node11" class="node">
<title>10</title>
<polygon fill="none" stroke="black" points="1174.5,-217 983.5,-217 983.5,-119 1174.5,-119 1174.5,-217"/>
<text text-anchor="middle" x="1079" y="-201.8" font-family="Times,serif" font-size="14.00">node #10</text>
<text text-anchor="middle" x="1079" y="-186.8" font-family="Times,serif" font-size="14.00">FEFPrePercent &lt;= 38.5</text>
<text text-anchor="middle" x="1079" y="-171.8" font-family="Times,serif" font-size="14.00">gini = 0.3</text>
<text text-anchor="middle" x="1079" y="-156.8" font-family="Times,serif" font-size="14.00">samples = 23</text>
<text text-anchor="middle" x="1079" y="-141.8" font-family="Times,serif" font-size="14.00">value = [26.839, 6.036]</text>
<text text-anchor="middle" x="1079" y="-126.8" font-family="Times,serif" font-size="14.00">class = Non&#45;obstructive</text>
</g>
<!-- 9&#45;&gt;10 -->
<g id="edge10" class="edge">
<title>9&#45;&gt;10</title>
<path fill="none" stroke="black" d="M1143.89,-252.97C1136.93,-243.96 1129.59,-234.47 1122.46,-225.24"/>
<polygon fill="black" stroke="black" points="1125.14,-222.99 1116.26,-217.21 1119.6,-227.27 1125.14,-222.99"/>
</g>
<!-- 13 -->
<g id="node14" class="node">
<title>13</title>
<polygon fill="none" stroke="black" points="1372,-217 1196,-217 1196,-119 1372,-119 1372,-217"/>
<text text-anchor="middle" x="1284" y="-201.8" font-family="Times,serif" font-size="14.00">node #13</text>
<text text-anchor="middle" x="1284" y="-186.8" font-family="Times,serif" font-size="14.00">FVCPreVal &lt;= 2.515</text>
<text text-anchor="middle" x="1284" y="-171.8" font-family="Times,serif" font-size="14.00">gini = 0.156</text>
<text text-anchor="middle" x="1284" y="-156.8" font-family="Times,serif" font-size="14.00">samples = 41</text>
<text text-anchor="middle" x="1284" y="-141.8" font-family="Times,serif" font-size="14.00">value = [4.97, 53.319]</text>
<text text-anchor="middle" x="1284" y="-126.8" font-family="Times,serif" font-size="14.00">class = Obstructive</text>
</g>
<!-- 9&#45;&gt;13 -->
<g id="edge13" class="edge">
<title>9&#45;&gt;13</title>
<path fill="none" stroke="black" d="M1218.48,-252.97C1225.51,-243.96 1232.91,-234.47 1240.12,-225.24"/>
<polygon fill="black" stroke="black" points="1242.99,-227.25 1246.38,-217.21 1237.47,-222.94 1242.99,-227.25"/>
</g>
<!-- 11 -->
<g id="node12" class="node">
<title>11</title>
<polygon fill="none" stroke="black" points="967,-83 779,-83 779,0 967,0 967,-83"/>
<text text-anchor="middle" x="873" y="-67.8" font-family="Times,serif" font-size="14.00">node #11</text>
<text text-anchor="middle" x="873" y="-52.8" font-family="Times,serif" font-size="14.00">gini = 0.475</text>
<text text-anchor="middle" x="873" y="-37.8" font-family="Times,serif" font-size="14.00">samples = 10</text>
<text text-anchor="middle" x="873" y="-22.8" font-family="Times,serif" font-size="14.00">value = [7.952, 5.03]</text>
<text text-anchor="middle" x="873" y="-7.8" font-family="Times,serif" font-size="14.00">class = Non&#45;obstructive</text>
</g>
<!-- 10&#45;&gt;11 -->
<g id="edge11" class="edge">
<title>10&#45;&gt;11</title>
<path fill="none" stroke="black" d="M999.36,-118.87C982.83,-108.88 965.46,-98.38 949.06,-88.47"/>
<polygon fill="black" stroke="black" points="950.43,-85.21 940.07,-83.03 946.81,-91.2 950.43,-85.21"/>
</g>
<!-- 12 -->
<g id="node13" class="node">
<title>12</title>
<polygon fill="none" stroke="black" points="1173,-83 985,-83 985,0 1173,0 1173,-83"/>
<text text-anchor="middle" x="1079" y="-67.8" font-family="Times,serif" font-size="14.00">node #12</text>
<text text-anchor="middle" x="1079" y="-52.8" font-family="Times,serif" font-size="14.00">gini = 0.096</text>
<text text-anchor="middle" x="1079" y="-37.8" font-family="Times,serif" font-size="14.00">samples = 13</text>
<text text-anchor="middle" x="1079" y="-22.8" font-family="Times,serif" font-size="14.00">value = [18.887, 1.006]</text>
<text text-anchor="middle" x="1079" y="-7.8" font-family="Times,serif" font-size="14.00">class = Non&#45;obstructive</text>
</g>
<!-- 10&#45;&gt;12 -->
<g id="edge12" class="edge">
<title>10&#45;&gt;12</title>
<path fill="none" stroke="black" d="M1079,-118.87C1079,-110.5 1079,-101.77 1079,-93.33"/>
<polygon fill="black" stroke="black" points="1082.5,-93.23 1079,-83.23 1075.5,-93.23 1082.5,-93.23"/>
</g>
<!-- 14 -->
<g id="node15" class="node">
<title>14</title>
<polygon fill="none" stroke="black" points="1376.5,-83 1191.5,-83 1191.5,0 1376.5,0 1376.5,-83"/>
<text text-anchor="middle" x="1284" y="-67.8" font-family="Times,serif" font-size="14.00">node #14</text>
<text text-anchor="middle" x="1284" y="-52.8" font-family="Times,serif" font-size="14.00">gini = 0.343</text>
<text text-anchor="middle" x="1284" y="-37.8" font-family="Times,serif" font-size="14.00">samples = 14</text>
<text text-anchor="middle" x="1284" y="-22.8" font-family="Times,serif" font-size="14.00">value = [3.976, 14.084]</text>
<text text-anchor="middle" x="1284" y="-7.8" font-family="Times,serif" font-size="14.00">class = Obstructive</text>
</g>
<!-- 13&#45;&gt;14 -->
<g id="edge14" class="edge">
<title>13&#45;&gt;14</title>
<path fill="none" stroke="black" d="M1284,-118.87C1284,-110.5 1284,-101.77 1284,-93.33"/>
<polygon fill="black" stroke="black" points="1287.5,-93.23 1284,-83.23 1280.5,-93.23 1287.5,-93.23"/>
</g>
<!-- 15 -->
<g id="node16" class="node">
<title>15</title>
<polygon fill="none" stroke="black" points="1579.5,-83 1394.5,-83 1394.5,0 1579.5,0 1579.5,-83"/>
<text text-anchor="middle" x="1487" y="-67.8" font-family="Times,serif" font-size="14.00">node #15</text>
<text text-anchor="middle" x="1487" y="-52.8" font-family="Times,serif" font-size="14.00">gini = 0.048</text>
<text text-anchor="middle" x="1487" y="-37.8" font-family="Times,serif" font-size="14.00">samples = 27</text>
<text text-anchor="middle" x="1487" y="-22.8" font-family="Times,serif" font-size="14.00">value = [0.994, 39.235]</text>
<text text-anchor="middle" x="1487" y="-7.8" font-family="Times,serif" font-size="14.00">class = Obstructive</text>
</g>
<!-- 13&#45;&gt;15 -->
<g id="edge15" class="edge">
<title>13&#45;&gt;15</title>
<path fill="none" stroke="black" d="M1362.49,-118.87C1378.77,-108.88 1395.89,-98.38 1412.05,-88.47"/>
<polygon fill="black" stroke="black" points="1414.22,-91.24 1420.91,-83.03 1410.56,-85.28 1414.22,-91.24"/>
</g>
<!-- 17 -->
<g id="node18" class="node">
<title>17</title>
<polygon fill="none" stroke="black" points="1932,-351 1744,-351 1744,-253 1932,-253 1932,-351"/>
<text text-anchor="middle" x="1838" y="-335.8" font-family="Times,serif" font-size="14.00">node #17</text>
<text text-anchor="middle" x="1838" y="-320.8" font-family="Times,serif" font-size="14.00">FEFPreVal &lt;= 2.205</text>
<text text-anchor="middle" x="1838" y="-305.8" font-family="Times,serif" font-size="14.00">gini = 0.114</text>
<text text-anchor="middle" x="1838" y="-290.8" font-family="Times,serif" font-size="14.00">samples = 58</text>
<text text-anchor="middle" x="1838" y="-275.8" font-family="Times,serif" font-size="14.00">value = [93.44, 6.036]</text>
<text text-anchor="middle" x="1838" y="-260.8" font-family="Times,serif" font-size="14.00">class = Non&#45;obstructive</text>
</g>
<!-- 16&#45;&gt;17 -->
<g id="edge17" class="edge">
<title>16&#45;&gt;17</title>
<path fill="none" stroke="black" d="M1838,-386.97C1838,-378.69 1838,-370 1838,-361.48"/>
<polygon fill="black" stroke="black" points="1841.5,-361.21 1838,-351.21 1834.5,-361.21 1841.5,-361.21"/>
</g>
<!-- 22 -->
<g id="node23" class="node">
<title>22</title>
<polygon fill="none" stroke="black" points="2293,-351 2099,-351 2099,-253 2293,-253 2293,-351"/>
<text text-anchor="middle" x="2196" y="-335.8" font-family="Times,serif" font-size="14.00">node #22</text>
<text text-anchor="middle" x="2196" y="-320.8" font-family="Times,serif" font-size="14.00">FEFPreVal &lt;= 2.945</text>
<text text-anchor="middle" x="2196" y="-305.8" font-family="Times,serif" font-size="14.00">gini = 0.496</text>
<text text-anchor="middle" x="2196" y="-290.8" font-family="Times,serif" font-size="14.00">samples = 41</text>
<text text-anchor="middle" x="2196" y="-275.8" font-family="Times,serif" font-size="14.00">value = [33.798, 28.169]</text>
<text text-anchor="middle" x="2196" y="-260.8" font-family="Times,serif" font-size="14.00">class = Non&#45;obstructive</text>
</g>
<!-- 16&#45;&gt;22 -->
<g id="edge22" class="edge">
<title>16&#45;&gt;22</title>
<path fill="none" stroke="black" d="M1939.63,-397.53C1986.34,-380.31 2041.74,-359.88 2089.08,-342.42"/>
<polygon fill="black" stroke="black" points="2090.57,-345.6 2098.74,-338.86 2088.15,-339.04 2090.57,-345.6"/>
</g>
<!-- 18 -->
<g id="node19" class="node">
<title>18</title>
<polygon fill="none" stroke="black" points="1829,-217 1641,-217 1641,-119 1829,-119 1829,-217"/>
<text text-anchor="middle" x="1735" y="-201.8" font-family="Times,serif" font-size="14.00">node #18</text>
<text text-anchor="middle" x="1735" y="-186.8" font-family="Times,serif" font-size="14.00">FEV1PostVal &lt;= 1.685</text>
<text text-anchor="middle" x="1735" y="-171.8" font-family="Times,serif" font-size="14.00">gini = 0.28</text>
<text text-anchor="middle" x="1735" y="-156.8" font-family="Times,serif" font-size="14.00">samples = 22</text>
<text text-anchor="middle" x="1735" y="-141.8" font-family="Times,serif" font-size="14.00">value = [29.821, 6.036]</text>
<text text-anchor="middle" x="1735" y="-126.8" font-family="Times,serif" font-size="14.00">class = Non&#45;obstructive</text>
</g>
<!-- 17&#45;&gt;18 -->
<g id="edge18" class="edge">
<title>17&#45;&gt;18</title>
<path fill="none" stroke="black" d="M1800.52,-252.97C1793.49,-243.96 1786.09,-234.47 1778.88,-225.24"/>
<polygon fill="black" stroke="black" points="1781.53,-222.94 1772.62,-217.21 1776.01,-227.25 1781.53,-222.94"/>
</g>
<!-- 21 -->
<g id="node22" class="node">
<title>21</title>
<polygon fill="none" stroke="black" points="2035,-209.5 1847,-209.5 1847,-126.5 2035,-126.5 2035,-209.5"/>
<text text-anchor="middle" x="1941" y="-194.3" font-family="Times,serif" font-size="14.00">node #21</text>
<text text-anchor="middle" x="1941" y="-179.3" font-family="Times,serif" font-size="14.00">gini = &#45;0.0</text>
<text text-anchor="middle" x="1941" y="-164.3" font-family="Times,serif" font-size="14.00">samples = 36</text>
<text text-anchor="middle" x="1941" y="-149.3" font-family="Times,serif" font-size="14.00">value = [63.619, 0.0]</text>
<text text-anchor="middle" x="1941" y="-134.3" font-family="Times,serif" font-size="14.00">class = Non&#45;obstructive</text>
</g>
<!-- 17&#45;&gt;21 -->
<g id="edge21" class="edge">
<title>17&#45;&gt;21</title>
<path fill="none" stroke="black" d="M1875.48,-252.97C1884.36,-241.58 1893.85,-229.42 1902.77,-217.99"/>
<polygon fill="black" stroke="black" points="1905.76,-219.85 1909.15,-209.82 1900.24,-215.55 1905.76,-219.85"/>
</g>
<!-- 19 -->
<g id="node20" class="node">
<title>19</title>
<polygon fill="none" stroke="black" points="1786,-83 1598,-83 1598,0 1786,0 1786,-83"/>
<text text-anchor="middle" x="1692" y="-67.8" font-family="Times,serif" font-size="14.00">node #19</text>
<text text-anchor="middle" x="1692" y="-52.8" font-family="Times,serif" font-size="14.00">gini = 0.072</text>
<text text-anchor="middle" x="1692" y="-37.8" font-family="Times,serif" font-size="14.00">samples = 17</text>
<text text-anchor="middle" x="1692" y="-22.8" font-family="Times,serif" font-size="14.00">value = [25.845, 1.006]</text>
<text text-anchor="middle" x="1692" y="-7.8" font-family="Times,serif" font-size="14.00">class = Non&#45;obstructive</text>
</g>
<!-- 18&#45;&gt;19 -->
<g id="edge19" class="edge">
<title>18&#45;&gt;19</title>
<path fill="none" stroke="black" d="M1718.38,-118.87C1715.42,-110.31 1712.34,-101.39 1709.37,-92.78"/>
<polygon fill="black" stroke="black" points="1712.64,-91.54 1706.07,-83.23 1706.02,-93.83 1712.64,-91.54"/>
</g>
<!-- 20 -->
<g id="node21" class="node">
<title>20</title>
<polygon fill="none" stroke="black" points="1971.5,-83 1804.5,-83 1804.5,0 1971.5,0 1971.5,-83"/>
<text text-anchor="middle" x="1888" y="-67.8" font-family="Times,serif" font-size="14.00">node #20</text>
<text text-anchor="middle" x="1888" y="-52.8" font-family="Times,serif" font-size="14.00">gini = 0.493</text>
<text text-anchor="middle" x="1888" y="-37.8" font-family="Times,serif" font-size="14.00">samples = 5</text>
<text text-anchor="middle" x="1888" y="-22.8" font-family="Times,serif" font-size="14.00">value = [3.976, 5.03]</text>
<text text-anchor="middle" x="1888" y="-7.8" font-family="Times,serif" font-size="14.00">class = Obstructive</text>
</g>
<!-- 18&#45;&gt;20 -->
<g id="edge20" class="edge">
<title>18&#45;&gt;20</title>
<path fill="none" stroke="black" d="M1794.15,-118.87C1805.91,-109.3 1818.23,-99.27 1829.95,-89.74"/>
<polygon fill="black" stroke="black" points="1832.4,-92.26 1837.95,-83.23 1827.98,-86.83 1832.4,-92.26"/>
</g>
<!-- 23 -->
<g id="node24" class="node">
<title>23</title>
<polygon fill="none" stroke="black" points="2294.5,-217 2097.5,-217 2097.5,-119 2294.5,-119 2294.5,-217"/>
<text text-anchor="middle" x="2196" y="-201.8" font-family="Times,serif" font-size="14.00">node #23</text>
<text text-anchor="middle" x="2196" y="-186.8" font-family="Times,serif" font-size="14.00">FEFPostPercent &lt;= 74.0</text>
<text text-anchor="middle" x="2196" y="-171.8" font-family="Times,serif" font-size="14.00">gini = 0.475</text>
<text text-anchor="middle" x="2196" y="-156.8" font-family="Times,serif" font-size="14.00">samples = 27</text>
<text text-anchor="middle" x="2196" y="-141.8" font-family="Times,serif" font-size="14.00">value = [15.905, 25.151]</text>
<text text-anchor="middle" x="2196" y="-126.8" font-family="Times,serif" font-size="14.00">class = Obstructive</text>
</g>
<!-- 22&#45;&gt;23 -->
<g id="edge23" class="edge">
<title>22&#45;&gt;23</title>
<path fill="none" stroke="black" d="M2196,-252.97C2196,-244.69 2196,-236 2196,-227.48"/>
<polygon fill="black" stroke="black" points="2199.5,-227.21 2196,-217.21 2192.5,-227.21 2199.5,-227.21"/>
</g>
<!-- 26 -->
<g id="node27" class="node">
<title>26</title>
<polygon fill="none" stroke="black" points="2587,-217 2399,-217 2399,-119 2587,-119 2587,-217"/>
<text text-anchor="middle" x="2493" y="-201.8" font-family="Times,serif" font-size="14.00">node #26</text>
<text text-anchor="middle" x="2493" y="-186.8" font-family="Times,serif" font-size="14.00">FEFPostVal &lt;= 4.35</text>
<text text-anchor="middle" x="2493" y="-171.8" font-family="Times,serif" font-size="14.00">gini = 0.247</text>
<text text-anchor="middle" x="2493" y="-156.8" font-family="Times,serif" font-size="14.00">samples = 14</text>
<text text-anchor="middle" x="2493" y="-141.8" font-family="Times,serif" font-size="14.00">value = [17.893, 3.018]</text>
<text text-anchor="middle" x="2493" y="-126.8" font-family="Times,serif" font-size="14.00">class = Non&#45;obstructive</text>
</g>
<!-- 22&#45;&gt;26 -->
<g id="edge26" class="edge">
<title>22&#45;&gt;26</title>
<path fill="none" stroke="black" d="M2293.25,-257.78C2324.12,-244.06 2358.36,-228.84 2389.65,-214.93"/>
<polygon fill="black" stroke="black" points="2391.1,-218.12 2398.82,-210.86 2388.26,-211.72 2391.1,-218.12"/>
</g>
<!-- 24 -->
<g id="node25" class="node">
<title>24</title>
<polygon fill="none" stroke="black" points="2174.5,-83 1989.5,-83 1989.5,0 2174.5,0 2174.5,-83"/>
<text text-anchor="middle" x="2082" y="-67.8" font-family="Times,serif" font-size="14.00">node #24</text>
<text text-anchor="middle" x="2082" y="-52.8" font-family="Times,serif" font-size="14.00">gini = 0.187</text>
<text text-anchor="middle" x="2082" y="-37.8" font-family="Times,serif" font-size="14.00">samples = 13</text>
<text text-anchor="middle" x="2082" y="-22.8" font-family="Times,serif" font-size="14.00">value = [1.988, 17.102]</text>
<text text-anchor="middle" x="2082" y="-7.8" font-family="Times,serif" font-size="14.00">class = Obstructive</text>
</g>
<!-- 23&#45;&gt;24 -->
<g id="edge24" class="edge">
<title>23&#45;&gt;24</title>
<path fill="none" stroke="black" d="M2151.92,-118.87C2143.51,-109.67 2134.69,-100.04 2126.26,-90.84"/>
<polygon fill="black" stroke="black" points="2128.63,-88.24 2119.3,-83.23 2123.47,-92.97 2128.63,-88.24"/>
</g>
<!-- 25 -->
<g id="node26" class="node">
<title>25</title>
<polygon fill="none" stroke="black" points="2381,-83 2193,-83 2193,0 2381,0 2381,-83"/>
<text text-anchor="middle" x="2287" y="-67.8" font-family="Times,serif" font-size="14.00">node #25</text>
<text text-anchor="middle" x="2287" y="-52.8" font-family="Times,serif" font-size="14.00">gini = 0.464</text>
<text text-anchor="middle" x="2287" y="-37.8" font-family="Times,serif" font-size="14.00">samples = 14</text>
<text text-anchor="middle" x="2287" y="-22.8" font-family="Times,serif" font-size="14.00">value = [13.917, 8.048]</text>
<text text-anchor="middle" x="2287" y="-7.8" font-family="Times,serif" font-size="14.00">class = Non&#45;obstructive</text>
</g>
<!-- 23&#45;&gt;25 -->
<g id="edge25" class="edge">
<title>23&#45;&gt;25</title>
<path fill="none" stroke="black" d="M2231.18,-118.87C2237.77,-109.85 2244.66,-100.43 2251.26,-91.39"/>
<polygon fill="black" stroke="black" points="2254.15,-93.37 2257.23,-83.23 2248.5,-89.24 2254.15,-93.37"/>
</g>
<!-- 27 -->
<g id="node28" class="node">
<title>27</title>
<polygon fill="none" stroke="black" points="2587,-83 2399,-83 2399,0 2587,0 2587,-83"/>
<text text-anchor="middle" x="2493" y="-67.8" font-family="Times,serif" font-size="14.00">node #27</text>
<text text-anchor="middle" x="2493" y="-52.8" font-family="Times,serif" font-size="14.00">gini = 0.182</text>
<text text-anchor="middle" x="2493" y="-37.8" font-family="Times,serif" font-size="14.00">samples = 13</text>
<text text-anchor="middle" x="2493" y="-22.8" font-family="Times,serif" font-size="14.00">value = [17.893, 2.012]</text>
<text text-anchor="middle" x="2493" y="-7.8" font-family="Times,serif" font-size="14.00">class = Non&#45;obstructive</text>
</g>
<!-- 26&#45;&gt;27 -->
<g id="edge27" class="edge">
<title>26&#45;&gt;27</title>
<path fill="none" stroke="black" d="M2493,-118.87C2493,-110.5 2493,-101.77 2493,-93.33"/>
<polygon fill="black" stroke="black" points="2496.5,-93.23 2493,-83.23 2489.5,-93.23 2496.5,-93.23"/>
</g>
<!-- 28 -->
<g id="node29" class="node">
<title>28</title>
<polygon fill="none" stroke="black" points="2763,-83 2605,-83 2605,0 2763,0 2763,-83"/>
<text text-anchor="middle" x="2684" y="-67.8" font-family="Times,serif" font-size="14.00">node #28</text>
<text text-anchor="middle" x="2684" y="-52.8" font-family="Times,serif" font-size="14.00">gini = &#45;0.0</text>
<text text-anchor="middle" x="2684" y="-37.8" font-family="Times,serif" font-size="14.00">samples = 1</text>
<text text-anchor="middle" x="2684" y="-22.8" font-family="Times,serif" font-size="14.00">value = [0.0, 1.006]</text>
<text text-anchor="middle" x="2684" y="-7.8" font-family="Times,serif" font-size="14.00">class = Obstructive</text>
</g>
<!-- 26&#45;&gt;28 -->
<g id="edge28" class="edge">
<title>26&#45;&gt;28</title>
<path fill="none" stroke="black" d="M2566.85,-118.87C2582.03,-108.97 2597.98,-98.57 2613.05,-88.74"/>
<polygon fill="black" stroke="black" points="2615.35,-91.43 2621.82,-83.03 2611.53,-85.56 2615.35,-91.43"/>
</g>
</g>
</svg>
