<?xml version="1.0" encoding="UTF-8" standalone="no"?>
<!DOCTYPE svg PUBLIC "-//W3C//DTD SVG 1.1//EN"
 "http://www.w3.org/Graphics/SVG/1.1/DTD/svg11.dtd">
<!-- Generated by graphviz version 2.43.0 (0)
 -->
<!-- Title: Tree Pages: 1 -->
<svg width="1581pt" height="627pt"
 viewBox="0.00 0.00 1581.00 627.00" xmlns="http://www.w3.org/2000/svg" xmlns:xlink="http://www.w3.org/1999/xlink">
<g id="graph0" class="graph" transform="scale(1 1) rotate(0) translate(4 623)">
<title>Tree</title>
<polygon fill="white" stroke="transparent" points="-4,4 -4,-623 1577,-623 1577,4 -4,4"/>
<!-- 0 -->
<g id="node1" class="node">
<title>0</title>
<polygon fill="none" stroke="black" points="837.5,-619 640.5,-619 640.5,-521 837.5,-521 837.5,-619"/>
<text text-anchor="middle" x="739" y="-603.8" font-family="Times,serif" font-size="14.00">node #0</text>
<text text-anchor="middle" x="739" y="-588.8" font-family="Times,serif" font-size="14.00">FEFPostPercent &lt;= 73.5</text>
<text text-anchor="middle" x="739" y="-573.8" font-family="Times,serif" font-size="14.00">gini = 0.5</text>
<text text-anchor="middle" x="739" y="-558.8" font-family="Times,serif" font-size="14.00">samples = 197</text>
<text text-anchor="middle" x="739" y="-543.8" font-family="Times,serif" font-size="14.00">value = [167.0, 167.0]</text>
<text text-anchor="middle" x="739" y="-528.8" font-family="Times,serif" font-size="14.00">class = Non&#45;obstructive</text>
</g>
<!-- 1 -->
<g id="node2" class="node">
<title>1</title>
<polygon fill="none" stroke="black" points="732.5,-485 529.5,-485 529.5,-387 732.5,-387 732.5,-485"/>
<text text-anchor="middle" x="631" y="-469.8" font-family="Times,serif" font-size="14.00">node #1</text>
<text text-anchor="middle" x="631" y="-454.8" font-family="Times,serif" font-size="14.00">FVCPostPercent &lt;= 39.0</text>
<text text-anchor="middle" x="631" y="-439.8" font-family="Times,serif" font-size="14.00">gini = 0.426</text>
<text text-anchor="middle" x="631" y="-424.8" font-family="Times,serif" font-size="14.00">samples = 130</text>
<text text-anchor="middle" x="631" y="-409.8" font-family="Times,serif" font-size="14.00">value = [68.538, 154.553]</text>
<text text-anchor="middle" x="631" y="-394.8" font-family="Times,serif" font-size="14.00">class = Obstructive</text>
</g>
<!-- 0&#45;&gt;1 -->
<g id="edge1" class="edge">
<title>0&#45;&gt;1</title>
<path fill="none" stroke="black" d="M699.7,-520.97C692.26,-511.87 684.41,-502.28 676.79,-492.96"/>
<polygon fill="black" stroke="black" points="679.49,-490.74 670.45,-485.21 674.07,-495.17 679.49,-490.74"/>
<text text-anchor="middle" x="667.96" y="-506.39" font-family="Times,serif" font-size="14.00">True</text>
</g>
<!-- 10 -->
<g id="node11" class="node">
<title>10</title>
<polygon fill="none" stroke="black" points="1039,-485 845,-485 845,-387 1039,-387 1039,-485"/>
<text text-anchor="middle" x="942" y="-469.8" font-family="Times,serif" font-size="14.00">node #10</text>
<text text-anchor="middle" x="942" y="-454.8" font-family="Times,serif" font-size="14.00">FVCPreVal &lt;= 3.295</text>
<text text-anchor="middle" x="942" y="-439.8" font-family="Times,serif" font-size="14.00">gini = 0.199</text>
<text text-anchor="middle" x="942" y="-424.8" font-family="Times,serif" font-size="14.00">samples = 67</text>
<text text-anchor="middle" x="942" y="-409.8" font-family="Times,serif" font-size="14.00">value = [98.462, 12.447]</text>
<text text-anchor="middle" x="942" y="-394.8" font-family="Times,serif" font-size="14.00">class = Non&#45;obstructive</text>
</g>
<!-- 0&#45;&gt;10 -->
<g id="edge10" class="edge">
<title>0&#45;&gt;10</title>
<path fill="none" stroke="black" d="M812.86,-520.97C827.97,-511.14 843.97,-500.74 859.37,-490.73"/>
<polygon fill="black" stroke="black" points="861.38,-493.6 867.85,-485.21 857.56,-487.73 861.38,-493.6"/>
<text text-anchor="middle" x="862.67" y="-505.97" font-family="Times,serif" font-size="14.00">False</text>
</g>
<!-- 2 -->
<g id="node3" class="node">
<title>2</title>
<polygon fill="none" stroke="black" points="511,-343.5 323,-343.5 323,-260.5 511,-260.5 511,-343.5"/>
<text text-anchor="middle" x="417" y="-328.3" font-family="Times,serif" font-size="14.00">node #2</text>
<text text-anchor="middle" x="417" y="-313.3" font-family="Times,serif" font-size="14.00">gini = 0.0</text>
<text text-anchor="middle" x="417" y="-298.3" font-family="Times,serif" font-size="14.00">samples = 12</text>
<text text-anchor="middle" x="417" y="-283.3" font-family="Times,serif" font-size="14.00">value = [17.376, 0.0]</text>
<text text-anchor="middle" x="417" y="-268.3" font-family="Times,serif" font-size="14.00">class = Non&#45;obstructive</text>
</g>
<!-- 1&#45;&gt;2 -->
<g id="edge2" class="edge">
<title>1&#45;&gt;2</title>
<path fill="none" stroke="black" d="M553.14,-386.97C533.04,-374.58 511.47,-361.27 491.55,-348.98"/>
<polygon fill="black" stroke="black" points="493.18,-345.87 482.83,-343.6 489.5,-351.83 493.18,-345.87"/>
</g>
<!-- 3 -->
<g id="node4" class="node">
<title>3</title>
<polygon fill="none" stroke="black" points="732.5,-351 529.5,-351 529.5,-253 732.5,-253 732.5,-351"/>
<text text-anchor="middle" x="631" y="-335.8" font-family="Times,serif" font-size="14.00">node #3</text>
<text text-anchor="middle" x="631" y="-320.8" font-family="Times,serif" font-size="14.00">FEFPrePercent &lt;= 30.5</text>
<text text-anchor="middle" x="631" y="-305.8" font-family="Times,serif" font-size="14.00">gini = 0.374</text>
<text text-anchor="middle" x="631" y="-290.8" font-family="Times,serif" font-size="14.00">samples = 118</text>
<text text-anchor="middle" x="631" y="-275.8" font-family="Times,serif" font-size="14.00">value = [51.162, 154.553]</text>
<text text-anchor="middle" x="631" y="-260.8" font-family="Times,serif" font-size="14.00">class = Obstructive</text>
</g>
<!-- 1&#45;&gt;3 -->
<g id="edge3" class="edge">
<title>1&#45;&gt;3</title>
<path fill="none" stroke="black" d="M631,-386.97C631,-378.69 631,-370 631,-361.48"/>
<polygon fill="black" stroke="black" points="634.5,-361.21 631,-351.21 627.5,-361.21 634.5,-361.21"/>
</g>
<!-- 4 -->
<g id="node5" class="node">
<title>4</title>
<polygon fill="none" stroke="black" points="369.5,-217 184.5,-217 184.5,-119 369.5,-119 369.5,-217"/>
<text text-anchor="middle" x="277" y="-201.8" font-family="Times,serif" font-size="14.00">node #4</text>
<text text-anchor="middle" x="277" y="-186.8" font-family="Times,serif" font-size="14.00">FVCPostVal &lt;= 1.155</text>
<text text-anchor="middle" x="277" y="-171.8" font-family="Times,serif" font-size="14.00">gini = 0.023</text>
<text text-anchor="middle" x="277" y="-156.8" font-family="Times,serif" font-size="14.00">samples = 48</text>
<text text-anchor="middle" x="277" y="-141.8" font-family="Times,serif" font-size="14.00">value = [0.965, 82.981]</text>
<text text-anchor="middle" x="277" y="-126.8" font-family="Times,serif" font-size="14.00">class = Obstructive</text>
</g>
<!-- 3&#45;&gt;4 -->
<g id="edge4" class="edge">
<title>3&#45;&gt;4</title>
<path fill="none" stroke="black" d="M529.2,-256.63C526.11,-255.39 523.03,-254.18 520,-253 474.16,-235.2 422.77,-217.16 379.1,-202.39"/>
<polygon fill="black" stroke="black" points="380.21,-199.07 369.62,-199.19 377.98,-205.7 380.21,-199.07"/>
</g>
<!-- 7 -->
<g id="node8" class="node">
<title>7</title>
<polygon fill="none" stroke="black" points="728,-217 534,-217 534,-119 728,-119 728,-217"/>
<text text-anchor="middle" x="631" y="-201.8" font-family="Times,serif" font-size="14.00">node #7</text>
<text text-anchor="middle" x="631" y="-186.8" font-family="Times,serif" font-size="14.00">FVCPrePercent &lt;= 64.5</text>
<text text-anchor="middle" x="631" y="-171.8" font-family="Times,serif" font-size="14.00">gini = 0.485</text>
<text text-anchor="middle" x="631" y="-156.8" font-family="Times,serif" font-size="14.00">samples = 70</text>
<text text-anchor="middle" x="631" y="-141.8" font-family="Times,serif" font-size="14.00">value = [50.197, 71.571]</text>
<text text-anchor="middle" x="631" y="-126.8" font-family="Times,serif" font-size="14.00">class = Obstructive</text>
</g>
<!-- 3&#45;&gt;7 -->
<g id="edge7" class="edge">
<title>3&#45;&gt;7</title>
<path fill="none" stroke="black" d="M631,-252.97C631,-244.69 631,-236 631,-227.48"/>
<polygon fill="black" stroke="black" points="634.5,-227.21 631,-217.21 627.5,-227.21 634.5,-227.21"/>
</g>
<!-- 5 -->
<g id="node6" class="node">
<title>5</title>
<polygon fill="none" stroke="black" points="176,-83 0,-83 0,0 176,0 176,-83"/>
<text text-anchor="middle" x="88" y="-67.8" font-family="Times,serif" font-size="14.00">node #5</text>
<text text-anchor="middle" x="88" y="-52.8" font-family="Times,serif" font-size="14.00">gini = 0.499</text>
<text text-anchor="middle" x="88" y="-37.8" font-family="Times,serif" font-size="14.00">samples = 2</text>
<text text-anchor="middle" x="88" y="-22.8" font-family="Times,serif" font-size="14.00">value = [0.965, 1.037]</text>
<text text-anchor="middle" x="88" y="-7.8" font-family="Times,serif" font-size="14.00">class = Obstructive</text>
</g>
<!-- 4&#45;&gt;5 -->
<g id="edge5" class="edge">
<title>4&#45;&gt;5</title>
<path fill="none" stroke="black" d="M203.93,-118.87C188.91,-108.97 173.12,-98.57 158.2,-88.74"/>
<polygon fill="black" stroke="black" points="159.81,-85.61 149.53,-83.03 155.96,-91.46 159.81,-85.61"/>
</g>
<!-- 6 -->
<g id="node7" class="node">
<title>6</title>
<polygon fill="none" stroke="black" points="360.5,-83 193.5,-83 193.5,0 360.5,0 360.5,-83"/>
<text text-anchor="middle" x="277" y="-67.8" font-family="Times,serif" font-size="14.00">node #6</text>
<text text-anchor="middle" x="277" y="-52.8" font-family="Times,serif" font-size="14.00">gini = 0.0</text>
<text text-anchor="middle" x="277" y="-37.8" font-family="Times,serif" font-size="14.00">samples = 46</text>
<text text-anchor="middle" x="277" y="-22.8" font-family="Times,serif" font-size="14.00">value = [0.0, 81.944]</text>
<text text-anchor="middle" x="277" y="-7.8" font-family="Times,serif" font-size="14.00">class = Obstructive</text>
</g>
<!-- 4&#45;&gt;6 -->
<g id="edge6" class="edge">
<title>4&#45;&gt;6</title>
<path fill="none" stroke="black" d="M277,-118.87C277,-110.5 277,-101.77 277,-93.33"/>
<polygon fill="black" stroke="black" points="280.5,-93.23 277,-83.23 273.5,-93.23 280.5,-93.23"/>
</g>
<!-- 8 -->
<g id="node9" class="node">
<title>8</title>
<polygon fill="none" stroke="black" points="567,-83 379,-83 379,0 567,0 567,-83"/>
<text text-anchor="middle" x="473" y="-67.8" font-family="Times,serif" font-size="14.00">node #8</text>
<text text-anchor="middle" x="473" y="-52.8" font-family="Times,serif" font-size="14.00">gini = 0.352</text>
<text text-anchor="middle" x="473" y="-37.8" font-family="Times,serif" font-size="14.00">samples = 28</text>
<text text-anchor="middle" x="473" y="-22.8" font-family="Times,serif" font-size="14.00">value = [38.613, 11.41]</text>
<text text-anchor="middle" x="473" y="-7.8" font-family="Times,serif" font-size="14.00">class = Non&#45;obstructive</text>
</g>
<!-- 7&#45;&gt;8 -->
<g id="edge8" class="edge">
<title>7&#45;&gt;8</title>
<path fill="none" stroke="black" d="M569.91,-118.87C557.59,-109.15 544.65,-98.96 532.39,-89.3"/>
<polygon fill="black" stroke="black" points="534.46,-86.47 524.44,-83.03 530.13,-91.97 534.46,-86.47"/>
</g>
<!-- 9 -->
<g id="node10" class="node">
<title>9</title>
<polygon fill="none" stroke="black" points="779,-83 585,-83 585,0 779,0 779,-83"/>
<text text-anchor="middle" x="682" y="-67.8" font-family="Times,serif" font-size="14.00">node #9</text>
<text text-anchor="middle" x="682" y="-52.8" font-family="Times,serif" font-size="14.00">gini = 0.271</text>
<text text-anchor="middle" x="682" y="-37.8" font-family="Times,serif" font-size="14.00">samples = 42</text>
<text text-anchor="middle" x="682" y="-22.8" font-family="Times,serif" font-size="14.00">value = [11.584, 60.161]</text>
<text text-anchor="middle" x="682" y="-7.8" font-family="Times,serif" font-size="14.00">class = Obstructive</text>
</g>
<!-- 7&#45;&gt;9 -->
<g id="edge9" class="edge">
<title>7&#45;&gt;9</title>
<path fill="none" stroke="black" d="M650.72,-118.87C654.26,-110.22 657.96,-101.2 661.52,-92.5"/>
<polygon fill="black" stroke="black" points="664.76,-93.81 665.32,-83.23 658.29,-91.16 664.76,-93.81"/>
</g>
<!-- 11 -->
<g id="node12" class="node">
<title>11</title>
<polygon fill="none" stroke="black" points="1036,-351 848,-351 848,-253 1036,-253 1036,-351"/>
<text text-anchor="middle" x="942" y="-335.8" font-family="Times,serif" font-size="14.00">node #11</text>
<text text-anchor="middle" x="942" y="-320.8" font-family="Times,serif" font-size="14.00">FEV1PostVal &lt;= 1.975</text>
<text text-anchor="middle" x="942" y="-305.8" font-family="Times,serif" font-size="14.00">gini = 0.112</text>
<text text-anchor="middle" x="942" y="-290.8" font-family="Times,serif" font-size="14.00">samples = 64</text>
<text text-anchor="middle" x="942" y="-275.8" font-family="Times,serif" font-size="14.00">value = [98.462, 6.224]</text>
<text text-anchor="middle" x="942" y="-260.8" font-family="Times,serif" font-size="14.00">class = Non&#45;obstructive</text>
</g>
<!-- 10&#45;&gt;11 -->
<g id="edge11" class="edge">
<title>10&#45;&gt;11</title>
<path fill="none" stroke="black" d="M942,-386.97C942,-378.69 942,-370 942,-361.48"/>
<polygon fill="black" stroke="black" points="945.5,-361.21 942,-351.21 938.5,-361.21 945.5,-361.21"/>
</g>
<!-- 18 -->
<g id="node19" class="node">
<title>18</title>
<polygon fill="none" stroke="black" points="1212,-343.5 1054,-343.5 1054,-260.5 1212,-260.5 1212,-343.5"/>
<text text-anchor="middle" x="1133" y="-328.3" font-family="Times,serif" font-size="14.00">node #18</text>
<text text-anchor="middle" x="1133" y="-313.3" font-family="Times,serif" font-size="14.00">gini = 0.0</text>
<text text-anchor="middle" x="1133" y="-298.3" font-family="Times,serif" font-size="14.00">samples = 3</text>
<text text-anchor="middle" x="1133" y="-283.3" font-family="Times,serif" font-size="14.00">value = [0.0, 6.224]</text>
<text text-anchor="middle" x="1133" y="-268.3" font-family="Times,serif" font-size="14.00">class = Obstructive</text>
</g>
<!-- 10&#45;&gt;18 -->
<g id="edge18" class="edge">
<title>10&#45;&gt;18</title>
<path fill="none" stroke="black" d="M1011.5,-386.97C1029.19,-374.75 1048.17,-361.63 1065.74,-349.48"/>
<polygon fill="black" stroke="black" points="1068.01,-352.17 1074.25,-343.6 1064.03,-346.41 1068.01,-352.17"/>
</g>
<!-- 12 -->
<g id="node13" class="node">
<title>12</title>
<polygon fill="none" stroke="black" points="1036,-217 848,-217 848,-119 1036,-119 1036,-217"/>
<text text-anchor="middle" x="942" y="-201.8" font-family="Times,serif" font-size="14.00">node #12</text>
<text text-anchor="middle" x="942" y="-186.8" font-family="Times,serif" font-size="14.00">FEFPreVal &lt;= 2.055</text>
<text text-anchor="middle" x="942" y="-171.8" font-family="Times,serif" font-size="14.00">gini = 0.029</text>
<text text-anchor="middle" x="942" y="-156.8" font-family="Times,serif" font-size="14.00">samples = 45</text>
<text text-anchor="middle" x="942" y="-141.8" font-family="Times,serif" font-size="14.00">value = [69.503, 1.037]</text>
<text text-anchor="middle" x="942" y="-126.8" font-family="Times,serif" font-size="14.00">class = Non&#45;obstructive</text>
</g>
<!-- 11&#45;&gt;12 -->
<g id="edge12" class="edge">
<title>11&#45;&gt;12</title>
<path fill="none" stroke="black" d="M942,-252.97C942,-244.69 942,-236 942,-227.48"/>
<polygon fill="black" stroke="black" points="945.5,-227.21 942,-217.21 938.5,-227.21 945.5,-227.21"/>
</g>
<!-- 15 -->
<g id="node16" class="node">
<title>15</title>
<polygon fill="none" stroke="black" points="1382,-217 1194,-217 1194,-119 1382,-119 1382,-217"/>
<text text-anchor="middle" x="1288" y="-201.8" font-family="Times,serif" font-size="14.00">node #15</text>
<text text-anchor="middle" x="1288" y="-186.8" font-family="Times,serif" font-size="14.00">FVCPostVal &lt;= 2.445</text>
<text text-anchor="middle" x="1288" y="-171.8" font-family="Times,serif" font-size="14.00">gini = 0.258</text>
<text text-anchor="middle" x="1288" y="-156.8" font-family="Times,serif" font-size="14.00">samples = 19</text>
<text text-anchor="middle" x="1288" y="-141.8" font-family="Times,serif" font-size="14.00">value = [28.96, 5.186]</text>
<text text-anchor="middle" x="1288" y="-126.8" font-family="Times,serif" font-size="14.00">class = Non&#45;obstructive</text>
</g>
<!-- 11&#45;&gt;15 -->
<g id="edge15" class="edge">
<title>11&#45;&gt;15</title>
<path fill="none" stroke="black" d="M1036.13,-256.66C1039.11,-255.41 1042.07,-254.18 1045,-253 1090.11,-234.75 1140.86,-216.81 1184.27,-202.23"/>
<polygon fill="black" stroke="black" points="1185.61,-205.47 1193.99,-198.98 1183.39,-198.83 1185.61,-205.47"/>
</g>
<!-- 13 -->
<g id="node14" class="node">
<title>13</title>
<polygon fill="none" stroke="black" points="985,-83 797,-83 797,0 985,0 985,-83"/>
<text text-anchor="middle" x="891" y="-67.8" font-family="Times,serif" font-size="14.00">node #13</text>
<text text-anchor="middle" x="891" y="-52.8" font-family="Times,serif" font-size="14.00">gini = 0.093</text>
<text text-anchor="middle" x="891" y="-37.8" font-family="Times,serif" font-size="14.00">samples = 11</text>
<text text-anchor="middle" x="891" y="-22.8" font-family="Times,serif" font-size="14.00">value = [20.272, 1.037]</text>
<text text-anchor="middle" x="891" y="-7.8" font-family="Times,serif" font-size="14.00">class = Non&#45;obstructive</text>
</g>
<!-- 12&#45;&gt;13 -->
<g id="edge13" class="edge">
<title>12&#45;&gt;13</title>
<path fill="none" stroke="black" d="M922.28,-118.87C918.74,-110.22 915.04,-101.2 911.48,-92.5"/>
<polygon fill="black" stroke="black" points="914.71,-91.16 907.68,-83.23 908.24,-93.81 914.71,-91.16"/>
</g>
<!-- 14 -->
<g id="node15" class="node">
<title>14</title>
<polygon fill="none" stroke="black" points="1191,-83 1003,-83 1003,0 1191,0 1191,-83"/>
<text text-anchor="middle" x="1097" y="-67.8" font-family="Times,serif" font-size="14.00">node #14</text>
<text text-anchor="middle" x="1097" y="-52.8" font-family="Times,serif" font-size="14.00">gini = 0.0</text>
<text text-anchor="middle" x="1097" y="-37.8" font-family="Times,serif" font-size="14.00">samples = 34</text>
<text text-anchor="middle" x="1097" y="-22.8" font-family="Times,serif" font-size="14.00">value = [49.231, 0.0]</text>
<text text-anchor="middle" x="1097" y="-7.8" font-family="Times,serif" font-size="14.00">class = Non&#45;obstructive</text>
</g>
<!-- 12&#45;&gt;14 -->
<g id="edge14" class="edge">
<title>12&#45;&gt;14</title>
<path fill="none" stroke="black" d="M1001.93,-118.87C1013.83,-109.3 1026.32,-99.27 1038.19,-89.74"/>
<polygon fill="black" stroke="black" points="1040.69,-92.22 1046.29,-83.23 1036.3,-86.76 1040.69,-92.22"/>
</g>
<!-- 16 -->
<g id="node17" class="node">
<title>16</title>
<polygon fill="none" stroke="black" points="1367,-83 1209,-83 1209,0 1367,0 1367,-83"/>
<text text-anchor="middle" x="1288" y="-67.8" font-family="Times,serif" font-size="14.00">node #16</text>
<text text-anchor="middle" x="1288" y="-52.8" font-family="Times,serif" font-size="14.00">gini = 0.0</text>
<text text-anchor="middle" x="1288" y="-37.8" font-family="Times,serif" font-size="14.00">samples = 3</text>
<text text-anchor="middle" x="1288" y="-22.8" font-family="Times,serif" font-size="14.00">value = [0.0, 5.186]</text>
<text text-anchor="middle" x="1288" y="-7.8" font-family="Times,serif" font-size="14.00">class = Obstructive</text>
</g>
<!-- 15&#45;&gt;16 -->
<g id="edge16" class="edge">
<title>15&#45;&gt;16</title>
<path fill="none" stroke="black" d="M1288,-118.87C1288,-110.5 1288,-101.77 1288,-93.33"/>
<polygon fill="black" stroke="black" points="1291.5,-93.23 1288,-83.23 1284.5,-93.23 1291.5,-93.23"/>
</g>
<!-- 17 -->
<g id="node18" class="node">
<title>17</title>
<polygon fill="none" stroke="black" points="1573,-83 1385,-83 1385,0 1573,0 1573,-83"/>
<text text-anchor="middle" x="1479" y="-67.8" font-family="Times,serif" font-size="14.00">node #17</text>
<text text-anchor="middle" x="1479" y="-52.8" font-family="Times,serif" font-size="14.00">gini = &#45;0.0</text>
<text text-anchor="middle" x="1479" y="-37.8" font-family="Times,serif" font-size="14.00">samples = 16</text>
<text text-anchor="middle" x="1479" y="-22.8" font-family="Times,serif" font-size="14.00">value = [28.96, 0.0]</text>
<text text-anchor="middle" x="1479" y="-7.8" font-family="Times,serif" font-size="14.00">class = Non&#45;obstructive</text>
</g>
<!-- 15&#45;&gt;17 -->
<g id="edge17" class="edge">
<title>15&#45;&gt;17</title>
<path fill="none" stroke="black" d="M1361.85,-118.87C1377.03,-108.97 1392.98,-98.57 1408.05,-88.74"/>
<polygon fill="black" stroke="black" points="1410.35,-91.43 1416.82,-83.03 1406.53,-85.56 1410.35,-91.43"/>
</g>
</g>
</svg>
