<?xml version="1.0" encoding="UTF-8" standalone="no"?>
<!DOCTYPE svg PUBLIC "-//W3C//DTD SVG 1.1//EN"
 "http://www.w3.org/Graphics/SVG/1.1/DTD/svg11.dtd">
<!-- Generated by graphviz version 2.43.0 (0)
 -->
<!-- Title: Tree Pages: 1 -->
<svg width="2389pt" height="627pt"
 viewBox="0.00 0.00 2389.00 627.00" xmlns="http://www.w3.org/2000/svg" xmlns:xlink="http://www.w3.org/1999/xlink">
<g id="graph0" class="graph" transform="scale(1 1) rotate(0) translate(4 623)">
<title>Tree</title>
<polygon fill="white" stroke="transparent" points="-4,4 -4,-623 2385,-623 2385,4 -4,4"/>
<!-- 0 -->
<g id="node1" class="node">
<title>0</title>
<polygon fill="none" stroke="black" points="1159.5,-619 968.5,-619 968.5,-521 1159.5,-521 1159.5,-619"/>
<text text-anchor="middle" x="1064" y="-603.8" font-family="Times,serif" font-size="14.00">node #0</text>
<text text-anchor="middle" x="1064" y="-588.8" font-family="Times,serif" font-size="14.00">FEFPrePercent &lt;= 57.5</text>
<text text-anchor="middle" x="1064" y="-573.8" font-family="Times,serif" font-size="14.00">gini = 0.5</text>
<text text-anchor="middle" x="1064" y="-558.8" font-family="Times,serif" font-size="14.00">samples = 214</text>
<text text-anchor="middle" x="1064" y="-543.8" font-family="Times,serif" font-size="14.00">value = [167.0, 167.0]</text>
<text text-anchor="middle" x="1064" y="-528.8" font-family="Times,serif" font-size="14.00">class = Obstructive</text>
</g>
<!-- 1 -->
<g id="node2" class="node">
<title>1</title>
<polygon fill="none" stroke="black" points="867.5,-485 664.5,-485 664.5,-387 867.5,-387 867.5,-485"/>
<text text-anchor="middle" x="766" y="-469.8" font-family="Times,serif" font-size="14.00">node #1</text>
<text text-anchor="middle" x="766" y="-454.8" font-family="Times,serif" font-size="14.00">FEFPreVal &lt;= 0.845</text>
<text text-anchor="middle" x="766" y="-439.8" font-family="Times,serif" font-size="14.00">gini = 0.326</text>
<text text-anchor="middle" x="766" y="-424.8" font-family="Times,serif" font-size="14.00">samples = 116</text>
<text text-anchor="middle" x="766" y="-409.8" font-family="Times,serif" font-size="14.00">value = [35.555, 138.078]</text>
<text text-anchor="middle" x="766" y="-394.8" font-family="Times,serif" font-size="14.00">class = Obstructive</text>
</g>
<!-- 0&#45;&gt;1 -->
<g id="edge1" class="edge">
<title>0&#45;&gt;1</title>
<path fill="none" stroke="black" d="M968.48,-526.69C939.32,-513.77 907.01,-499.46 876.92,-486.13"/>
<polygon fill="black" stroke="black" points="878.22,-482.88 867.66,-482.03 875.39,-489.28 878.22,-482.88"/>
<text text-anchor="middle" x="876.67" y="-501.65" font-family="Times,serif" font-size="14.00">True</text>
</g>
<!-- 14 -->
<g id="node15" class="node">
<title>14</title>
<polygon fill="none" stroke="black" points="1368.5,-485 1165.5,-485 1165.5,-387 1368.5,-387 1368.5,-485"/>
<text text-anchor="middle" x="1267" y="-469.8" font-family="Times,serif" font-size="14.00">node #14</text>
<text text-anchor="middle" x="1267" y="-454.8" font-family="Times,serif" font-size="14.00">FVCPreVal &lt;= 1.965</text>
<text text-anchor="middle" x="1267" y="-439.8" font-family="Times,serif" font-size="14.00">gini = 0.296</text>
<text text-anchor="middle" x="1267" y="-424.8" font-family="Times,serif" font-size="14.00">samples = 98</text>
<text text-anchor="middle" x="1267" y="-409.8" font-family="Times,serif" font-size="14.00">value = [131.445, 28.922]</text>
<text text-anchor="middle" x="1267" y="-394.8" font-family="Times,serif" font-size="14.00">class = Non&#45;obstructive</text>
</g>
<!-- 0&#45;&gt;14 -->
<g id="edge14" class="edge">
<title>0&#45;&gt;14</title>
<path fill="none" stroke="black" d="M1137.86,-520.97C1152.97,-511.14 1168.97,-500.74 1184.37,-490.73"/>
<polygon fill="black" stroke="black" points="1186.38,-493.6 1192.85,-485.21 1182.56,-487.73 1186.38,-493.6"/>
<text text-anchor="middle" x="1187.67" y="-505.97" font-family="Times,serif" font-size="14.00">False</text>
</g>
<!-- 2 -->
<g id="node3" class="node">
<title>2</title>
<polygon fill="none" stroke="black" points="372.5,-351 181.5,-351 181.5,-253 372.5,-253 372.5,-351"/>
<text text-anchor="middle" x="277" y="-335.8" font-family="Times,serif" font-size="14.00">node #2</text>
<text text-anchor="middle" x="277" y="-320.8" font-family="Times,serif" font-size="14.00">FEFPrePercent &lt;= 17.5</text>
<text text-anchor="middle" x="277" y="-305.8" font-family="Times,serif" font-size="14.00">gini = 0.056</text>
<text text-anchor="middle" x="277" y="-290.8" font-family="Times,serif" font-size="14.00">samples = 52</text>
<text text-anchor="middle" x="277" y="-275.8" font-family="Times,serif" font-size="14.00">value = [2.155, 72.771]</text>
<text text-anchor="middle" x="277" y="-260.8" font-family="Times,serif" font-size="14.00">class = Obstructive</text>
</g>
<!-- 1&#45;&gt;2 -->
<g id="edge2" class="edge">
<title>1&#45;&gt;2</title>
<path fill="none" stroke="black" d="M664.38,-407.57C581.88,-385.3 465.94,-354 382.43,-331.46"/>
<polygon fill="black" stroke="black" points="383.24,-328.05 372.67,-328.83 381.41,-334.81 383.24,-328.05"/>
</g>
<!-- 7 -->
<g id="node8" class="node">
<title>7</title>
<polygon fill="none" stroke="black" points="854,-351 678,-351 678,-253 854,-253 854,-351"/>
<text text-anchor="middle" x="766" y="-335.8" font-family="Times,serif" font-size="14.00">node #7</text>
<text text-anchor="middle" x="766" y="-320.8" font-family="Times,serif" font-size="14.00">FVCPreVal &lt;= 2.39</text>
<text text-anchor="middle" x="766" y="-305.8" font-family="Times,serif" font-size="14.00">gini = 0.448</text>
<text text-anchor="middle" x="766" y="-290.8" font-family="Times,serif" font-size="14.00">samples = 64</text>
<text text-anchor="middle" x="766" y="-275.8" font-family="Times,serif" font-size="14.00">value = [33.4, 65.307]</text>
<text text-anchor="middle" x="766" y="-260.8" font-family="Times,serif" font-size="14.00">class = Obstructive</text>
</g>
<!-- 1&#45;&gt;7 -->
<g id="edge7" class="edge">
<title>1&#45;&gt;7</title>
<path fill="none" stroke="black" d="M766,-386.97C766,-378.69 766,-370 766,-361.48"/>
<polygon fill="black" stroke="black" points="769.5,-361.21 766,-351.21 762.5,-361.21 769.5,-361.21"/>
</g>
<!-- 3 -->
<g id="node4" class="node">
<title>3</title>
<polygon fill="none" stroke="black" points="163,-209.5 5,-209.5 5,-126.5 163,-126.5 163,-209.5"/>
<text text-anchor="middle" x="84" y="-194.3" font-family="Times,serif" font-size="14.00">node #3</text>
<text text-anchor="middle" x="84" y="-179.3" font-family="Times,serif" font-size="14.00">gini = &#45;0.0</text>
<text text-anchor="middle" x="84" y="-164.3" font-family="Times,serif" font-size="14.00">samples = 35</text>
<text text-anchor="middle" x="84" y="-149.3" font-family="Times,serif" font-size="14.00">value = [0.0, 50.38]</text>
<text text-anchor="middle" x="84" y="-134.3" font-family="Times,serif" font-size="14.00">class = Obstructive</text>
</g>
<!-- 2&#45;&gt;3 -->
<g id="edge3" class="edge">
<title>2&#45;&gt;3</title>
<path fill="none" stroke="black" d="M206.78,-252.97C188.9,-240.75 169.72,-227.63 151.96,-215.48"/>
<polygon fill="black" stroke="black" points="153.6,-212.36 143.37,-209.6 149.65,-218.14 153.6,-212.36"/>
</g>
<!-- 4 -->
<g id="node5" class="node">
<title>4</title>
<polygon fill="none" stroke="black" points="372.5,-217 181.5,-217 181.5,-119 372.5,-119 372.5,-217"/>
<text text-anchor="middle" x="277" y="-201.8" font-family="Times,serif" font-size="14.00">node #4</text>
<text text-anchor="middle" x="277" y="-186.8" font-family="Times,serif" font-size="14.00">FEFPrePercent &lt;= 20.5</text>
<text text-anchor="middle" x="277" y="-171.8" font-family="Times,serif" font-size="14.00">gini = 0.16</text>
<text text-anchor="middle" x="277" y="-156.8" font-family="Times,serif" font-size="14.00">samples = 17</text>
<text text-anchor="middle" x="277" y="-141.8" font-family="Times,serif" font-size="14.00">value = [2.155, 22.391]</text>
<text text-anchor="middle" x="277" y="-126.8" font-family="Times,serif" font-size="14.00">class = Obstructive</text>
</g>
<!-- 2&#45;&gt;4 -->
<g id="edge4" class="edge">
<title>2&#45;&gt;4</title>
<path fill="none" stroke="black" d="M277,-252.97C277,-244.69 277,-236 277,-227.48"/>
<polygon fill="black" stroke="black" points="280.5,-227.21 277,-217.21 273.5,-227.21 280.5,-227.21"/>
</g>
<!-- 5 -->
<g id="node6" class="node">
<title>5</title>
<polygon fill="none" stroke="black" points="176,-83 0,-83 0,0 176,0 176,-83"/>
<text text-anchor="middle" x="88" y="-67.8" font-family="Times,serif" font-size="14.00">node #5</text>
<text text-anchor="middle" x="88" y="-52.8" font-family="Times,serif" font-size="14.00">gini = 0.401</text>
<text text-anchor="middle" x="88" y="-37.8" font-family="Times,serif" font-size="14.00">samples = 6</text>
<text text-anchor="middle" x="88" y="-22.8" font-family="Times,serif" font-size="14.00">value = [2.155, 5.598]</text>
<text text-anchor="middle" x="88" y="-7.8" font-family="Times,serif" font-size="14.00">class = Obstructive</text>
</g>
<!-- 4&#45;&gt;5 -->
<g id="edge5" class="edge">
<title>4&#45;&gt;5</title>
<path fill="none" stroke="black" d="M203.93,-118.87C188.91,-108.97 173.12,-98.57 158.2,-88.74"/>
<polygon fill="black" stroke="black" points="159.81,-85.61 149.53,-83.03 155.96,-91.46 159.81,-85.61"/>
</g>
<!-- 6 -->
<g id="node7" class="node">
<title>6</title>
<polygon fill="none" stroke="black" points="360.5,-83 193.5,-83 193.5,0 360.5,0 360.5,-83"/>
<text text-anchor="middle" x="277" y="-67.8" font-family="Times,serif" font-size="14.00">node #6</text>
<text text-anchor="middle" x="277" y="-52.8" font-family="Times,serif" font-size="14.00">gini = &#45;0.0</text>
<text text-anchor="middle" x="277" y="-37.8" font-family="Times,serif" font-size="14.00">samples = 11</text>
<text text-anchor="middle" x="277" y="-22.8" font-family="Times,serif" font-size="14.00">value = [0.0, 16.793]</text>
<text text-anchor="middle" x="277" y="-7.8" font-family="Times,serif" font-size="14.00">class = Obstructive</text>
</g>
<!-- 4&#45;&gt;6 -->
<g id="edge6" class="edge">
<title>4&#45;&gt;6</title>
<path fill="none" stroke="black" d="M277,-118.87C277,-110.5 277,-101.77 277,-93.33"/>
<polygon fill="black" stroke="black" points="280.5,-93.23 277,-83.23 273.5,-93.23 280.5,-93.23"/>
</g>
<!-- 8 -->
<g id="node9" class="node">
<title>8</title>
<polygon fill="none" stroke="black" points="755.5,-217 564.5,-217 564.5,-119 755.5,-119 755.5,-217"/>
<text text-anchor="middle" x="660" y="-201.8" font-family="Times,serif" font-size="14.00">node #8</text>
<text text-anchor="middle" x="660" y="-186.8" font-family="Times,serif" font-size="14.00">FEFPrePercent &lt;= 32.0</text>
<text text-anchor="middle" x="660" y="-171.8" font-family="Times,serif" font-size="14.00">gini = 0.415</text>
<text text-anchor="middle" x="660" y="-156.8" font-family="Times,serif" font-size="14.00">samples = 27</text>
<text text-anchor="middle" x="660" y="-141.8" font-family="Times,serif" font-size="14.00">value = [29.09, 12.128]</text>
<text text-anchor="middle" x="660" y="-126.8" font-family="Times,serif" font-size="14.00">class = Non&#45;obstructive</text>
</g>
<!-- 7&#45;&gt;8 -->
<g id="edge8" class="edge">
<title>7&#45;&gt;8</title>
<path fill="none" stroke="black" d="M727.43,-252.97C720.2,-243.96 712.58,-234.47 705.16,-225.24"/>
<polygon fill="black" stroke="black" points="707.71,-222.82 698.72,-217.21 702.25,-227.2 707.71,-222.82"/>
</g>
<!-- 11 -->
<g id="node12" class="node">
<title>11</title>
<polygon fill="none" stroke="black" points="970.5,-217 773.5,-217 773.5,-119 970.5,-119 970.5,-217"/>
<text text-anchor="middle" x="872" y="-201.8" font-family="Times,serif" font-size="14.00">node #11</text>
<text text-anchor="middle" x="872" y="-186.8" font-family="Times,serif" font-size="14.00">FEFPostPercent &lt;= 54.5</text>
<text text-anchor="middle" x="872" y="-171.8" font-family="Times,serif" font-size="14.00">gini = 0.139</text>
<text text-anchor="middle" x="872" y="-156.8" font-family="Times,serif" font-size="14.00">samples = 37</text>
<text text-anchor="middle" x="872" y="-141.8" font-family="Times,serif" font-size="14.00">value = [4.31, 53.179]</text>
<text text-anchor="middle" x="872" y="-126.8" font-family="Times,serif" font-size="14.00">class = Obstructive</text>
</g>
<!-- 7&#45;&gt;11 -->
<g id="edge11" class="edge">
<title>7&#45;&gt;11</title>
<path fill="none" stroke="black" d="M804.57,-252.97C811.8,-243.96 819.42,-234.47 826.84,-225.24"/>
<polygon fill="black" stroke="black" points="829.75,-227.2 833.28,-217.21 824.29,-222.82 829.75,-227.2"/>
</g>
<!-- 9 -->
<g id="node10" class="node">
<title>9</title>
<polygon fill="none" stroke="black" points="554,-83 378,-83 378,0 554,0 554,-83"/>
<text text-anchor="middle" x="466" y="-67.8" font-family="Times,serif" font-size="14.00">node #9</text>
<text text-anchor="middle" x="466" y="-52.8" font-family="Times,serif" font-size="14.00">gini = 0.373</text>
<text text-anchor="middle" x="466" y="-37.8" font-family="Times,serif" font-size="14.00">samples = 6</text>
<text text-anchor="middle" x="466" y="-22.8" font-family="Times,serif" font-size="14.00">value = [2.155, 6.531]</text>
<text text-anchor="middle" x="466" y="-7.8" font-family="Times,serif" font-size="14.00">class = Obstructive</text>
</g>
<!-- 8&#45;&gt;9 -->
<g id="edge9" class="edge">
<title>8&#45;&gt;9</title>
<path fill="none" stroke="black" d="M584.99,-118.87C569.43,-108.88 553.07,-98.38 537.63,-88.47"/>
<polygon fill="black" stroke="black" points="539.47,-85.49 529.16,-83.03 535.68,-91.38 539.47,-85.49"/>
</g>
<!-- 10 -->
<g id="node11" class="node">
<title>10</title>
<polygon fill="none" stroke="black" points="760,-83 572,-83 572,0 760,0 760,-83"/>
<text text-anchor="middle" x="666" y="-67.8" font-family="Times,serif" font-size="14.00">node #10</text>
<text text-anchor="middle" x="666" y="-52.8" font-family="Times,serif" font-size="14.00">gini = 0.285</text>
<text text-anchor="middle" x="666" y="-37.8" font-family="Times,serif" font-size="14.00">samples = 21</text>
<text text-anchor="middle" x="666" y="-22.8" font-family="Times,serif" font-size="14.00">value = [26.935, 5.598]</text>
<text text-anchor="middle" x="666" y="-7.8" font-family="Times,serif" font-size="14.00">class = Non&#45;obstructive</text>
</g>
<!-- 8&#45;&gt;10 -->
<g id="edge10" class="edge">
<title>8&#45;&gt;10</title>
<path fill="none" stroke="black" d="M662.32,-118.87C662.72,-110.5 663.14,-101.77 663.55,-93.33"/>
<polygon fill="black" stroke="black" points="667.05,-93.39 664.04,-83.23 660.06,-93.05 667.05,-93.39"/>
</g>
<!-- 12 -->
<g id="node13" class="node">
<title>12</title>
<polygon fill="none" stroke="black" points="954,-83 778,-83 778,0 954,0 954,-83"/>
<text text-anchor="middle" x="866" y="-67.8" font-family="Times,serif" font-size="14.00">node #12</text>
<text text-anchor="middle" x="866" y="-52.8" font-family="Times,serif" font-size="14.00">gini = 0.237</text>
<text text-anchor="middle" x="866" y="-37.8" font-family="Times,serif" font-size="14.00">samples = 22</text>
<text text-anchor="middle" x="866" y="-22.8" font-family="Times,serif" font-size="14.00">value = [4.31, 27.056]</text>
<text text-anchor="middle" x="866" y="-7.8" font-family="Times,serif" font-size="14.00">class = Obstructive</text>
</g>
<!-- 11&#45;&gt;12 -->
<g id="edge12" class="edge">
<title>11&#45;&gt;12</title>
<path fill="none" stroke="black" d="M869.68,-118.87C869.28,-110.5 868.86,-101.77 868.45,-93.33"/>
<polygon fill="black" stroke="black" points="871.94,-93.05 867.96,-83.23 864.95,-93.39 871.94,-93.05"/>
</g>
<!-- 13 -->
<g id="node14" class="node">
<title>13</title>
<polygon fill="none" stroke="black" points="1138.5,-83 971.5,-83 971.5,0 1138.5,0 1138.5,-83"/>
<text text-anchor="middle" x="1055" y="-67.8" font-family="Times,serif" font-size="14.00">node #13</text>
<text text-anchor="middle" x="1055" y="-52.8" font-family="Times,serif" font-size="14.00">gini = &#45;0.0</text>
<text text-anchor="middle" x="1055" y="-37.8" font-family="Times,serif" font-size="14.00">samples = 15</text>
<text text-anchor="middle" x="1055" y="-22.8" font-family="Times,serif" font-size="14.00">value = [0.0, 26.123]</text>
<text text-anchor="middle" x="1055" y="-7.8" font-family="Times,serif" font-size="14.00">class = Obstructive</text>
</g>
<!-- 11&#45;&gt;13 -->
<g id="edge13" class="edge">
<title>11&#45;&gt;13</title>
<path fill="none" stroke="black" d="M942.75,-118.87C957.3,-108.97 972.58,-98.57 987.03,-88.74"/>
<polygon fill="black" stroke="black" points="989.12,-91.55 995.42,-83.03 985.19,-85.76 989.12,-91.55"/>
</g>
<!-- 15 -->
<g id="node16" class="node">
<title>15</title>
<polygon fill="none" stroke="black" points="1361,-351 1173,-351 1173,-253 1361,-253 1361,-351"/>
<text text-anchor="middle" x="1267" y="-335.8" font-family="Times,serif" font-size="14.00">node #15</text>
<text text-anchor="middle" x="1267" y="-320.8" font-family="Times,serif" font-size="14.00">FVCPostVal &lt;= 1.845</text>
<text text-anchor="middle" x="1267" y="-305.8" font-family="Times,serif" font-size="14.00">gini = 0.041</text>
<text text-anchor="middle" x="1267" y="-290.8" font-family="Times,serif" font-size="14.00">samples = 49</text>
<text text-anchor="middle" x="1267" y="-275.8" font-family="Times,serif" font-size="14.00">value = [88.348, 1.866]</text>
<text text-anchor="middle" x="1267" y="-260.8" font-family="Times,serif" font-size="14.00">class = Non&#45;obstructive</text>
</g>
<!-- 14&#45;&gt;15 -->
<g id="edge15" class="edge">
<title>14&#45;&gt;15</title>
<path fill="none" stroke="black" d="M1267,-386.97C1267,-378.69 1267,-370 1267,-361.48"/>
<polygon fill="black" stroke="black" points="1270.5,-361.21 1267,-351.21 1263.5,-361.21 1270.5,-361.21"/>
</g>
<!-- 20 -->
<g id="node21" class="node">
<title>20</title>
<polygon fill="none" stroke="black" points="1867,-351 1661,-351 1661,-253 1867,-253 1867,-351"/>
<text text-anchor="middle" x="1764" y="-335.8" font-family="Times,serif" font-size="14.00">node #20</text>
<text text-anchor="middle" x="1764" y="-320.8" font-family="Times,serif" font-size="14.00">FEFPostPercent &lt;= 110.0</text>
<text text-anchor="middle" x="1764" y="-305.8" font-family="Times,serif" font-size="14.00">gini = 0.474</text>
<text text-anchor="middle" x="1764" y="-290.8" font-family="Times,serif" font-size="14.00">samples = 49</text>
<text text-anchor="middle" x="1764" y="-275.8" font-family="Times,serif" font-size="14.00">value = [43.097, 27.056]</text>
<text text-anchor="middle" x="1764" y="-260.8" font-family="Times,serif" font-size="14.00">class = Non&#45;obstructive</text>
</g>
<!-- 14&#45;&gt;20 -->
<g id="edge20" class="edge">
<title>14&#45;&gt;20</title>
<path fill="none" stroke="black" d="M1368.77,-407.97C1450.81,-386.18 1566.08,-355.57 1650.98,-333.02"/>
<polygon fill="black" stroke="black" points="1651.89,-336.4 1660.65,-330.45 1650.09,-329.63 1651.89,-336.4"/>
</g>
<!-- 16 -->
<g id="node17" class="node">
<title>16</title>
<polygon fill="none" stroke="black" points="1258,-209.5 1070,-209.5 1070,-126.5 1258,-126.5 1258,-209.5"/>
<text text-anchor="middle" x="1164" y="-194.3" font-family="Times,serif" font-size="14.00">node #16</text>
<text text-anchor="middle" x="1164" y="-179.3" font-family="Times,serif" font-size="14.00">gini = 0.0</text>
<text text-anchor="middle" x="1164" y="-164.3" font-family="Times,serif" font-size="14.00">samples = 40</text>
<text text-anchor="middle" x="1164" y="-149.3" font-family="Times,serif" font-size="14.00">value = [74.342, 0.0]</text>
<text text-anchor="middle" x="1164" y="-134.3" font-family="Times,serif" font-size="14.00">class = Non&#45;obstructive</text>
</g>
<!-- 15&#45;&gt;16 -->
<g id="edge16" class="edge">
<title>15&#45;&gt;16</title>
<path fill="none" stroke="black" d="M1229.52,-252.97C1220.64,-241.58 1211.15,-229.42 1202.23,-217.99"/>
<polygon fill="black" stroke="black" points="1204.76,-215.55 1195.85,-209.82 1199.24,-219.85 1204.76,-215.55"/>
</g>
<!-- 17 -->
<g id="node18" class="node">
<title>17</title>
<polygon fill="none" stroke="black" points="1464,-217 1276,-217 1276,-119 1464,-119 1464,-217"/>
<text text-anchor="middle" x="1370" y="-201.8" font-family="Times,serif" font-size="14.00">node #17</text>
<text text-anchor="middle" x="1370" y="-186.8" font-family="Times,serif" font-size="14.00">FEFPreVal &lt;= 2.265</text>
<text text-anchor="middle" x="1370" y="-171.8" font-family="Times,serif" font-size="14.00">gini = 0.207</text>
<text text-anchor="middle" x="1370" y="-156.8" font-family="Times,serif" font-size="14.00">samples = 9</text>
<text text-anchor="middle" x="1370" y="-141.8" font-family="Times,serif" font-size="14.00">value = [14.006, 1.866]</text>
<text text-anchor="middle" x="1370" y="-126.8" font-family="Times,serif" font-size="14.00">class = Non&#45;obstructive</text>
</g>
<!-- 15&#45;&gt;17 -->
<g id="edge17" class="edge">
<title>15&#45;&gt;17</title>
<path fill="none" stroke="black" d="M1304.48,-252.97C1311.51,-243.96 1318.91,-234.47 1326.12,-225.24"/>
<polygon fill="black" stroke="black" points="1328.99,-227.25 1332.38,-217.21 1323.47,-222.94 1328.99,-227.25"/>
</g>
<!-- 18 -->
<g id="node19" class="node">
<title>18</title>
<polygon fill="none" stroke="black" points="1345,-83 1157,-83 1157,0 1345,0 1345,-83"/>
<text text-anchor="middle" x="1251" y="-67.8" font-family="Times,serif" font-size="14.00">node #18</text>
<text text-anchor="middle" x="1251" y="-52.8" font-family="Times,serif" font-size="14.00">gini = 0.497</text>
<text text-anchor="middle" x="1251" y="-37.8" font-family="Times,serif" font-size="14.00">samples = 3</text>
<text text-anchor="middle" x="1251" y="-22.8" font-family="Times,serif" font-size="14.00">value = [2.155, 1.866]</text>
<text text-anchor="middle" x="1251" y="-7.8" font-family="Times,serif" font-size="14.00">class = Non&#45;obstructive</text>
</g>
<!-- 17&#45;&gt;18 -->
<g id="edge18" class="edge">
<title>17&#45;&gt;18</title>
<path fill="none" stroke="black" d="M1323.99,-118.87C1315.12,-109.58 1305.82,-99.85 1296.94,-90.56"/>
<polygon fill="black" stroke="black" points="1299.37,-88.04 1289.93,-83.23 1294.31,-92.88 1299.37,-88.04"/>
</g>
<!-- 19 -->
<g id="node20" class="node">
<title>19</title>
<polygon fill="none" stroke="black" points="1551,-83 1363,-83 1363,0 1551,0 1551,-83"/>
<text text-anchor="middle" x="1457" y="-67.8" font-family="Times,serif" font-size="14.00">node #19</text>
<text text-anchor="middle" x="1457" y="-52.8" font-family="Times,serif" font-size="14.00">gini = 0.0</text>
<text text-anchor="middle" x="1457" y="-37.8" font-family="Times,serif" font-size="14.00">samples = 6</text>
<text text-anchor="middle" x="1457" y="-22.8" font-family="Times,serif" font-size="14.00">value = [11.852, 0.0]</text>
<text text-anchor="middle" x="1457" y="-7.8" font-family="Times,serif" font-size="14.00">class = Non&#45;obstructive</text>
</g>
<!-- 17&#45;&gt;19 -->
<g id="edge19" class="edge">
<title>17&#45;&gt;19</title>
<path fill="none" stroke="black" d="M1403.64,-118.87C1409.87,-109.95 1416.39,-100.62 1422.64,-91.67"/>
<polygon fill="black" stroke="black" points="1425.68,-93.43 1428.54,-83.23 1419.94,-89.42 1425.68,-93.43"/>
</g>
<!-- 21 -->
<g id="node22" class="node">
<title>21</title>
<polygon fill="none" stroke="black" points="1861,-217 1667,-217 1667,-119 1861,-119 1861,-217"/>
<text text-anchor="middle" x="1764" y="-201.8" font-family="Times,serif" font-size="14.00">node #21</text>
<text text-anchor="middle" x="1764" y="-186.8" font-family="Times,serif" font-size="14.00">FEFPostVal &lt;= 2.865</text>
<text text-anchor="middle" x="1764" y="-171.8" font-family="Times,serif" font-size="14.00">gini = 0.497</text>
<text text-anchor="middle" x="1764" y="-156.8" font-family="Times,serif" font-size="14.00">samples = 35</text>
<text text-anchor="middle" x="1764" y="-141.8" font-family="Times,serif" font-size="14.00">value = [22.626, 26.123]</text>
<text text-anchor="middle" x="1764" y="-126.8" font-family="Times,serif" font-size="14.00">class = Obstructive</text>
</g>
<!-- 20&#45;&gt;21 -->
<g id="edge21" class="edge">
<title>20&#45;&gt;21</title>
<path fill="none" stroke="black" d="M1764,-252.97C1764,-244.69 1764,-236 1764,-227.48"/>
<polygon fill="black" stroke="black" points="1767.5,-227.21 1764,-217.21 1760.5,-227.21 1767.5,-227.21"/>
</g>
<!-- 24 -->
<g id="node25" class="node">
<title>24</title>
<polygon fill="none" stroke="black" points="2184,-217 1978,-217 1978,-119 2184,-119 2184,-217"/>
<text text-anchor="middle" x="2081" y="-201.8" font-family="Times,serif" font-size="14.00">node #24</text>
<text text-anchor="middle" x="2081" y="-186.8" font-family="Times,serif" font-size="14.00">FEFPostPercent &lt;= 118.5</text>
<text text-anchor="middle" x="2081" y="-171.8" font-family="Times,serif" font-size="14.00">gini = 0.083</text>
<text text-anchor="middle" x="2081" y="-156.8" font-family="Times,serif" font-size="14.00">samples = 14</text>
<text text-anchor="middle" x="2081" y="-141.8" font-family="Times,serif" font-size="14.00">value = [20.471, 0.933]</text>
<text text-anchor="middle" x="2081" y="-126.8" font-family="Times,serif" font-size="14.00">class = Non&#45;obstructive</text>
</g>
<!-- 20&#45;&gt;24 -->
<g id="edge24" class="edge">
<title>20&#45;&gt;24</title>
<path fill="none" stroke="black" d="M1867.36,-257.96C1899.59,-244.54 1935.3,-229.67 1968.14,-215.99"/>
<polygon fill="black" stroke="black" points="1969.9,-219.06 1977.78,-211.98 1967.2,-212.59 1969.9,-219.06"/>
</g>
<!-- 22 -->
<g id="node23" class="node">
<title>22</title>
<polygon fill="none" stroke="black" points="1763,-83 1569,-83 1569,0 1763,0 1763,-83"/>
<text text-anchor="middle" x="1666" y="-67.8" font-family="Times,serif" font-size="14.00">node #22</text>
<text text-anchor="middle" x="1666" y="-52.8" font-family="Times,serif" font-size="14.00">gini = 0.458</text>
<text text-anchor="middle" x="1666" y="-37.8" font-family="Times,serif" font-size="14.00">samples = 21</text>
<text text-anchor="middle" x="1666" y="-22.8" font-family="Times,serif" font-size="14.00">value = [10.774, 19.592]</text>
<text text-anchor="middle" x="1666" y="-7.8" font-family="Times,serif" font-size="14.00">class = Obstructive</text>
</g>
<!-- 21&#45;&gt;22 -->
<g id="edge22" class="edge">
<title>21&#45;&gt;22</title>
<path fill="none" stroke="black" d="M1726.11,-118.87C1718.95,-109.76 1711.45,-100.23 1704.27,-91.12"/>
<polygon fill="black" stroke="black" points="1707,-88.92 1698.06,-83.23 1701.5,-93.25 1707,-88.92"/>
</g>
<!-- 23 -->
<g id="node24" class="node">
<title>23</title>
<polygon fill="none" stroke="black" points="1969,-83 1781,-83 1781,0 1969,0 1969,-83"/>
<text text-anchor="middle" x="1875" y="-67.8" font-family="Times,serif" font-size="14.00">node #23</text>
<text text-anchor="middle" x="1875" y="-52.8" font-family="Times,serif" font-size="14.00">gini = 0.458</text>
<text text-anchor="middle" x="1875" y="-37.8" font-family="Times,serif" font-size="14.00">samples = 14</text>
<text text-anchor="middle" x="1875" y="-22.8" font-family="Times,serif" font-size="14.00">value = [11.852, 6.531]</text>
<text text-anchor="middle" x="1875" y="-7.8" font-family="Times,serif" font-size="14.00">class = Non&#45;obstructive</text>
</g>
<!-- 21&#45;&gt;23 -->
<g id="edge23" class="edge">
<title>21&#45;&gt;23</title>
<path fill="none" stroke="black" d="M1806.92,-118.87C1815.11,-109.67 1823.7,-100.04 1831.9,-90.84"/>
<polygon fill="black" stroke="black" points="1834.64,-93.02 1838.69,-83.23 1829.42,-88.37 1834.64,-93.02"/>
</g>
<!-- 25 -->
<g id="node26" class="node">
<title>25</title>
<polygon fill="none" stroke="black" points="2175,-83 1987,-83 1987,0 2175,0 2175,-83"/>
<text text-anchor="middle" x="2081" y="-67.8" font-family="Times,serif" font-size="14.00">node #25</text>
<text text-anchor="middle" x="2081" y="-52.8" font-family="Times,serif" font-size="14.00">gini = 0.252</text>
<text text-anchor="middle" x="2081" y="-37.8" font-family="Times,serif" font-size="14.00">samples = 4</text>
<text text-anchor="middle" x="2081" y="-22.8" font-family="Times,serif" font-size="14.00">value = [5.387, 0.933]</text>
<text text-anchor="middle" x="2081" y="-7.8" font-family="Times,serif" font-size="14.00">class = Non&#45;obstructive</text>
</g>
<!-- 24&#45;&gt;25 -->
<g id="edge25" class="edge">
<title>24&#45;&gt;25</title>
<path fill="none" stroke="black" d="M2081,-118.87C2081,-110.5 2081,-101.77 2081,-93.33"/>
<polygon fill="black" stroke="black" points="2084.5,-93.23 2081,-83.23 2077.5,-93.23 2084.5,-93.23"/>
</g>
<!-- 26 -->
<g id="node27" class="node">
<title>26</title>
<polygon fill="none" stroke="black" points="2381,-83 2193,-83 2193,0 2381,0 2381,-83"/>
<text text-anchor="middle" x="2287" y="-67.8" font-family="Times,serif" font-size="14.00">node #26</text>
<text text-anchor="middle" x="2287" y="-52.8" font-family="Times,serif" font-size="14.00">gini = 0.0</text>
<text text-anchor="middle" x="2287" y="-37.8" font-family="Times,serif" font-size="14.00">samples = 10</text>
<text text-anchor="middle" x="2287" y="-22.8" font-family="Times,serif" font-size="14.00">value = [15.084, 0.0]</text>
<text text-anchor="middle" x="2287" y="-7.8" font-family="Times,serif" font-size="14.00">class = Non&#45;obstructive</text>
</g>
<!-- 24&#45;&gt;26 -->
<g id="edge26" class="edge">
<title>24&#45;&gt;26</title>
<path fill="none" stroke="black" d="M2160.64,-118.87C2177.17,-108.88 2194.54,-98.38 2210.94,-88.47"/>
<polygon fill="black" stroke="black" points="2213.19,-91.2 2219.93,-83.03 2209.57,-85.21 2213.19,-91.2"/>
</g>
</g>
</svg>
