<?xml version="1.0" encoding="UTF-8" standalone="no"?>
<!DOCTYPE svg PUBLIC "-//W3C//DTD SVG 1.1//EN"
 "http://www.w3.org/Graphics/SVG/1.1/DTD/svg11.dtd">
<!-- Generated by graphviz version 2.43.0 (0)
 -->
<!-- Title: Tree Pages: 1 -->
<svg width="2241pt" height="627pt"
 viewBox="0.00 0.00 2241.00 627.00" xmlns="http://www.w3.org/2000/svg" xmlns:xlink="http://www.w3.org/1999/xlink">
<g id="graph0" class="graph" transform="scale(1 1) rotate(0) translate(4 623)">
<title>Tree</title>
<polygon fill="white" stroke="transparent" points="-4,4 -4,-623 2237,-623 2237,4 -4,4"/>
<!-- 0 -->
<g id="node1" class="node">
<title>0</title>
<polygon fill="none" stroke="black" points="876,-619 700,-619 700,-521 876,-521 876,-619"/>
<text text-anchor="middle" x="788" y="-603.8" font-family="Times,serif" font-size="14.00">node #0</text>
<text text-anchor="middle" x="788" y="-588.8" font-family="Times,serif" font-size="14.00">FEFPostVal &lt;= 0.995</text>
<text text-anchor="middle" x="788" y="-573.8" font-family="Times,serif" font-size="14.00">gini = 0.5</text>
<text text-anchor="middle" x="788" y="-558.8" font-family="Times,serif" font-size="14.00">samples = 208</text>
<text text-anchor="middle" x="788" y="-543.8" font-family="Times,serif" font-size="14.00">value = [167.0, 167.0]</text>
<text text-anchor="middle" x="788" y="-528.8" font-family="Times,serif" font-size="14.00">class = Obstructive</text>
</g>
<!-- 1 -->
<g id="node2" class="node">
<title>1</title>
<polygon fill="none" stroke="black" points="681.5,-485 484.5,-485 484.5,-387 681.5,-387 681.5,-485"/>
<text text-anchor="middle" x="583" y="-469.8" font-family="Times,serif" font-size="14.00">node #1</text>
<text text-anchor="middle" x="583" y="-454.8" font-family="Times,serif" font-size="14.00">FVCPostPercent &lt;= 40.5</text>
<text text-anchor="middle" x="583" y="-439.8" font-family="Times,serif" font-size="14.00">gini = 0.139</text>
<text text-anchor="middle" x="583" y="-424.8" font-family="Times,serif" font-size="14.00">samples = 59</text>
<text text-anchor="middle" x="583" y="-409.8" font-family="Times,serif" font-size="14.00">value = [6.262, 76.782]</text>
<text text-anchor="middle" x="583" y="-394.8" font-family="Times,serif" font-size="14.00">class = Obstructive</text>
</g>
<!-- 0&#45;&gt;1 -->
<g id="edge1" class="edge">
<title>0&#45;&gt;1</title>
<path fill="none" stroke="black" d="M713.41,-520.97C698.15,-511.14 681.99,-500.74 666.44,-490.73"/>
<polygon fill="black" stroke="black" points="668.18,-487.68 657.88,-485.21 664.39,-493.57 668.18,-487.68"/>
<text text-anchor="middle" x="663.17" y="-505.95" font-family="Times,serif" font-size="14.00">True</text>
</g>
<!-- 10 -->
<g id="node11" class="node">
<title>10</title>
<polygon fill="none" stroke="black" points="1102.5,-485 899.5,-485 899.5,-387 1102.5,-387 1102.5,-485"/>
<text text-anchor="middle" x="1001" y="-469.8" font-family="Times,serif" font-size="14.00">node #10</text>
<text text-anchor="middle" x="1001" y="-454.8" font-family="Times,serif" font-size="14.00">FEV1PostVal &lt;= 1.97</text>
<text text-anchor="middle" x="1001" y="-439.8" font-family="Times,serif" font-size="14.00">gini = 0.461</text>
<text text-anchor="middle" x="1001" y="-424.8" font-family="Times,serif" font-size="14.00">samples = 149</text>
<text text-anchor="middle" x="1001" y="-409.8" font-family="Times,serif" font-size="14.00">value = [160.737, 90.218]</text>
<text text-anchor="middle" x="1001" y="-394.8" font-family="Times,serif" font-size="14.00">class = Non&#45;obstructive</text>
</g>
<!-- 0&#45;&gt;10 -->
<g id="edge10" class="edge">
<title>0&#45;&gt;10</title>
<path fill="none" stroke="black" d="M865.5,-520.97C881.36,-511.14 898.14,-500.74 914.3,-490.73"/>
<polygon fill="black" stroke="black" points="916.54,-493.46 923.2,-485.21 912.86,-487.51 916.54,-493.46"/>
<text text-anchor="middle" x="917.49" y="-505.85" font-family="Times,serif" font-size="14.00">False</text>
</g>
<!-- 2 -->
<g id="node3" class="node">
<title>2</title>
<polygon fill="none" stroke="black" points="373,-351 167,-351 167,-253 373,-253 373,-351"/>
<text text-anchor="middle" x="270" y="-335.8" font-family="Times,serif" font-size="14.00">node #2</text>
<text text-anchor="middle" x="270" y="-320.8" font-family="Times,serif" font-size="14.00">FEV1PostPercent &lt;= 34.0</text>
<text text-anchor="middle" x="270" y="-305.8" font-family="Times,serif" font-size="14.00">gini = 0.478</text>
<text text-anchor="middle" x="270" y="-290.8" font-family="Times,serif" font-size="14.00">samples = 6</text>
<text text-anchor="middle" x="270" y="-275.8" font-family="Times,serif" font-size="14.00">value = [3.131, 4.799]</text>
<text text-anchor="middle" x="270" y="-260.8" font-family="Times,serif" font-size="14.00">class = Obstructive</text>
</g>
<!-- 1&#45;&gt;2 -->
<g id="edge2" class="edge">
<title>1&#45;&gt;2</title>
<path fill="none" stroke="black" d="M484.39,-393.42C452.05,-379.77 415.85,-364.51 382.55,-350.47"/>
<polygon fill="black" stroke="black" points="383.82,-347.2 373.24,-346.54 381.1,-353.65 383.82,-347.2"/>
</g>
<!-- 5 -->
<g id="node6" class="node">
<title>5</title>
<polygon fill="none" stroke="black" points="678.5,-351 487.5,-351 487.5,-253 678.5,-253 678.5,-351"/>
<text text-anchor="middle" x="583" y="-335.8" font-family="Times,serif" font-size="14.00">node #5</text>
<text text-anchor="middle" x="583" y="-320.8" font-family="Times,serif" font-size="14.00">FEFPrePercent &lt;= 70.5</text>
<text text-anchor="middle" x="583" y="-305.8" font-family="Times,serif" font-size="14.00">gini = 0.08</text>
<text text-anchor="middle" x="583" y="-290.8" font-family="Times,serif" font-size="14.00">samples = 53</text>
<text text-anchor="middle" x="583" y="-275.8" font-family="Times,serif" font-size="14.00">value = [3.131, 71.983]</text>
<text text-anchor="middle" x="583" y="-260.8" font-family="Times,serif" font-size="14.00">class = Obstructive</text>
</g>
<!-- 1&#45;&gt;5 -->
<g id="edge5" class="edge">
<title>1&#45;&gt;5</title>
<path fill="none" stroke="black" d="M583,-386.97C583,-378.69 583,-370 583,-361.48"/>
<polygon fill="black" stroke="black" points="586.5,-361.21 583,-351.21 579.5,-361.21 586.5,-361.21"/>
</g>
<!-- 3 -->
<g id="node4" class="node">
<title>3</title>
<polygon fill="none" stroke="black" points="158,-209.5 0,-209.5 0,-126.5 158,-126.5 158,-209.5"/>
<text text-anchor="middle" x="79" y="-194.3" font-family="Times,serif" font-size="14.00">node #3</text>
<text text-anchor="middle" x="79" y="-179.3" font-family="Times,serif" font-size="14.00">gini = 0.0</text>
<text text-anchor="middle" x="79" y="-164.3" font-family="Times,serif" font-size="14.00">samples = 4</text>
<text text-anchor="middle" x="79" y="-149.3" font-family="Times,serif" font-size="14.00">value = [0.0, 4.799]</text>
<text text-anchor="middle" x="79" y="-134.3" font-family="Times,serif" font-size="14.00">class = Obstructive</text>
</g>
<!-- 2&#45;&gt;3 -->
<g id="edge3" class="edge">
<title>2&#45;&gt;3</title>
<path fill="none" stroke="black" d="M200.5,-252.97C182.81,-240.75 163.83,-227.63 146.26,-215.48"/>
<polygon fill="black" stroke="black" points="147.97,-212.41 137.75,-209.6 143.99,-218.17 147.97,-212.41"/>
</g>
<!-- 4 -->
<g id="node5" class="node">
<title>4</title>
<polygon fill="none" stroke="black" points="364,-209.5 176,-209.5 176,-126.5 364,-126.5 364,-209.5"/>
<text text-anchor="middle" x="270" y="-194.3" font-family="Times,serif" font-size="14.00">node #4</text>
<text text-anchor="middle" x="270" y="-179.3" font-family="Times,serif" font-size="14.00">gini = 0.0</text>
<text text-anchor="middle" x="270" y="-164.3" font-family="Times,serif" font-size="14.00">samples = 2</text>
<text text-anchor="middle" x="270" y="-149.3" font-family="Times,serif" font-size="14.00">value = [3.131, 0.0]</text>
<text text-anchor="middle" x="270" y="-134.3" font-family="Times,serif" font-size="14.00">class = Non&#45;obstructive</text>
</g>
<!-- 2&#45;&gt;4 -->
<g id="edge4" class="edge">
<title>2&#45;&gt;4</title>
<path fill="none" stroke="black" d="M270,-252.97C270,-242.25 270,-230.84 270,-219.99"/>
<polygon fill="black" stroke="black" points="273.5,-219.82 270,-209.82 266.5,-219.82 273.5,-219.82"/>
</g>
<!-- 6 -->
<g id="node7" class="node">
<title>6</title>
<polygon fill="none" stroke="black" points="579.5,-217 382.5,-217 382.5,-119 579.5,-119 579.5,-217"/>
<text text-anchor="middle" x="481" y="-201.8" font-family="Times,serif" font-size="14.00">node #6</text>
<text text-anchor="middle" x="481" y="-186.8" font-family="Times,serif" font-size="14.00">FEFPostPercent &lt;= 24.5</text>
<text text-anchor="middle" x="481" y="-171.8" font-family="Times,serif" font-size="14.00">gini = 0.055</text>
<text text-anchor="middle" x="481" y="-156.8" font-family="Times,serif" font-size="14.00">samples = 52</text>
<text text-anchor="middle" x="481" y="-141.8" font-family="Times,serif" font-size="14.00">value = [2.088, 71.983]</text>
<text text-anchor="middle" x="481" y="-126.8" font-family="Times,serif" font-size="14.00">class = Obstructive</text>
</g>
<!-- 5&#45;&gt;6 -->
<g id="edge6" class="edge">
<title>5&#45;&gt;6</title>
<path fill="none" stroke="black" d="M545.89,-252.97C538.93,-243.96 531.59,-234.47 524.46,-225.24"/>
<polygon fill="black" stroke="black" points="527.14,-222.99 518.26,-217.21 521.6,-227.27 527.14,-222.99"/>
</g>
<!-- 9 -->
<g id="node10" class="node">
<title>9</title>
<polygon fill="none" stroke="black" points="786,-209.5 598,-209.5 598,-126.5 786,-126.5 786,-209.5"/>
<text text-anchor="middle" x="692" y="-194.3" font-family="Times,serif" font-size="14.00">node #9</text>
<text text-anchor="middle" x="692" y="-179.3" font-family="Times,serif" font-size="14.00">gini = 0.0</text>
<text text-anchor="middle" x="692" y="-164.3" font-family="Times,serif" font-size="14.00">samples = 1</text>
<text text-anchor="middle" x="692" y="-149.3" font-family="Times,serif" font-size="14.00">value = [1.044, 0.0]</text>
<text text-anchor="middle" x="692" y="-134.3" font-family="Times,serif" font-size="14.00">class = Non&#45;obstructive</text>
</g>
<!-- 5&#45;&gt;9 -->
<g id="edge9" class="edge">
<title>5&#45;&gt;9</title>
<path fill="none" stroke="black" d="M622.66,-252.97C632.16,-241.47 642.3,-229.18 651.82,-217.66"/>
<polygon fill="black" stroke="black" points="654.63,-219.76 658.3,-209.82 649.23,-215.3 654.63,-219.76"/>
</g>
<!-- 7 -->
<g id="node8" class="node">
<title>7</title>
<polygon fill="none" stroke="black" points="379.5,-83 212.5,-83 212.5,0 379.5,0 379.5,-83"/>
<text text-anchor="middle" x="296" y="-67.8" font-family="Times,serif" font-size="14.00">node #7</text>
<text text-anchor="middle" x="296" y="-52.8" font-family="Times,serif" font-size="14.00">gini = 0.0</text>
<text text-anchor="middle" x="296" y="-37.8" font-family="Times,serif" font-size="14.00">samples = 44</text>
<text text-anchor="middle" x="296" y="-22.8" font-family="Times,serif" font-size="14.00">value = [0.0, 64.305]</text>
<text text-anchor="middle" x="296" y="-7.8" font-family="Times,serif" font-size="14.00">class = Obstructive</text>
</g>
<!-- 6&#45;&gt;7 -->
<g id="edge7" class="edge">
<title>6&#45;&gt;7</title>
<path fill="none" stroke="black" d="M409.47,-118.87C394.77,-108.97 379.32,-98.57 364.72,-88.74"/>
<polygon fill="black" stroke="black" points="366.48,-85.71 356.23,-83.03 362.57,-91.52 366.48,-85.71"/>
</g>
<!-- 8 -->
<g id="node9" class="node">
<title>8</title>
<polygon fill="none" stroke="black" points="573,-83 397,-83 397,0 573,0 573,-83"/>
<text text-anchor="middle" x="485" y="-67.8" font-family="Times,serif" font-size="14.00">node #8</text>
<text text-anchor="middle" x="485" y="-52.8" font-family="Times,serif" font-size="14.00">gini = 0.336</text>
<text text-anchor="middle" x="485" y="-37.8" font-family="Times,serif" font-size="14.00">samples = 8</text>
<text text-anchor="middle" x="485" y="-22.8" font-family="Times,serif" font-size="14.00">value = [2.088, 7.678]</text>
<text text-anchor="middle" x="485" y="-7.8" font-family="Times,serif" font-size="14.00">class = Obstructive</text>
</g>
<!-- 6&#45;&gt;8 -->
<g id="edge8" class="edge">
<title>6&#45;&gt;8</title>
<path fill="none" stroke="black" d="M482.55,-118.87C482.82,-110.5 483.1,-101.77 483.37,-93.33"/>
<polygon fill="black" stroke="black" points="486.87,-93.34 483.69,-83.23 479.87,-93.11 486.87,-93.34"/>
</g>
<!-- 11 -->
<g id="node12" class="node">
<title>11</title>
<polygon fill="none" stroke="black" points="1102.5,-351 899.5,-351 899.5,-253 1102.5,-253 1102.5,-351"/>
<text text-anchor="middle" x="1001" y="-335.8" font-family="Times,serif" font-size="14.00">node #11</text>
<text text-anchor="middle" x="1001" y="-320.8" font-family="Times,serif" font-size="14.00">FEFPrePercent &lt;= 66.5</text>
<text text-anchor="middle" x="1001" y="-305.8" font-family="Times,serif" font-size="14.00">gini = 0.29</text>
<text text-anchor="middle" x="1001" y="-290.8" font-family="Times,serif" font-size="14.00">samples = 90</text>
<text text-anchor="middle" x="1001" y="-275.8" font-family="Times,serif" font-size="14.00">value = [130.469, 27.833]</text>
<text text-anchor="middle" x="1001" y="-260.8" font-family="Times,serif" font-size="14.00">class = Non&#45;obstructive</text>
</g>
<!-- 10&#45;&gt;11 -->
<g id="edge11" class="edge">
<title>10&#45;&gt;11</title>
<path fill="none" stroke="black" d="M1001,-386.97C1001,-378.69 1001,-370 1001,-361.48"/>
<polygon fill="black" stroke="black" points="1004.5,-361.21 1001,-351.21 997.5,-361.21 1004.5,-361.21"/>
</g>
<!-- 18 -->
<g id="node19" class="node">
<title>18</title>
<polygon fill="none" stroke="black" points="1716,-351 1522,-351 1522,-253 1716,-253 1716,-351"/>
<text text-anchor="middle" x="1619" y="-335.8" font-family="Times,serif" font-size="14.00">node #18</text>
<text text-anchor="middle" x="1619" y="-320.8" font-family="Times,serif" font-size="14.00">FVCPostVal &lt;= 3.345</text>
<text text-anchor="middle" x="1619" y="-305.8" font-family="Times,serif" font-size="14.00">gini = 0.44</text>
<text text-anchor="middle" x="1619" y="-290.8" font-family="Times,serif" font-size="14.00">samples = 59</text>
<text text-anchor="middle" x="1619" y="-275.8" font-family="Times,serif" font-size="14.00">value = [30.269, 62.385]</text>
<text text-anchor="middle" x="1619" y="-260.8" font-family="Times,serif" font-size="14.00">class = Obstructive</text>
</g>
<!-- 10&#45;&gt;18 -->
<g id="edge18" class="edge">
<title>10&#45;&gt;18</title>
<path fill="none" stroke="black" d="M1102.7,-413.28C1215.57,-389.17 1396.91,-350.44 1511.9,-325.88"/>
<polygon fill="black" stroke="black" points="1512.73,-329.28 1521.78,-323.77 1511.27,-322.43 1512.73,-329.28"/>
</g>
<!-- 12 -->
<g id="node13" class="node">
<title>12</title>
<polygon fill="none" stroke="black" points="992,-217 804,-217 804,-119 992,-119 992,-217"/>
<text text-anchor="middle" x="898" y="-201.8" font-family="Times,serif" font-size="14.00">node #12</text>
<text text-anchor="middle" x="898" y="-186.8" font-family="Times,serif" font-size="14.00">FVCPostVal &lt;= 1.685</text>
<text text-anchor="middle" x="898" y="-171.8" font-family="Times,serif" font-size="14.00">gini = 0.444</text>
<text text-anchor="middle" x="898" y="-156.8" font-family="Times,serif" font-size="14.00">samples = 39</text>
<text text-anchor="middle" x="898" y="-141.8" font-family="Times,serif" font-size="14.00">value = [50.1, 24.954]</text>
<text text-anchor="middle" x="898" y="-126.8" font-family="Times,serif" font-size="14.00">class = Non&#45;obstructive</text>
</g>
<!-- 11&#45;&gt;12 -->
<g id="edge12" class="edge">
<title>11&#45;&gt;12</title>
<path fill="none" stroke="black" d="M963.52,-252.97C956.49,-243.96 949.09,-234.47 941.88,-225.24"/>
<polygon fill="black" stroke="black" points="944.53,-222.94 935.62,-217.21 939.01,-227.25 944.53,-222.94"/>
</g>
<!-- 15 -->
<g id="node16" class="node">
<title>15</title>
<polygon fill="none" stroke="black" points="1199,-217 1011,-217 1011,-119 1199,-119 1199,-217"/>
<text text-anchor="middle" x="1105" y="-201.8" font-family="Times,serif" font-size="14.00">node #15</text>
<text text-anchor="middle" x="1105" y="-186.8" font-family="Times,serif" font-size="14.00">FEV1PreVal &lt;= 0.915</text>
<text text-anchor="middle" x="1105" y="-171.8" font-family="Times,serif" font-size="14.00">gini = 0.067</text>
<text text-anchor="middle" x="1105" y="-156.8" font-family="Times,serif" font-size="14.00">samples = 51</text>
<text text-anchor="middle" x="1105" y="-141.8" font-family="Times,serif" font-size="14.00">value = [80.369, 2.879]</text>
<text text-anchor="middle" x="1105" y="-126.8" font-family="Times,serif" font-size="14.00">class = Non&#45;obstructive</text>
</g>
<!-- 11&#45;&gt;15 -->
<g id="edge15" class="edge">
<title>11&#45;&gt;15</title>
<path fill="none" stroke="black" d="M1038.84,-252.97C1045.94,-243.96 1053.42,-234.47 1060.69,-225.24"/>
<polygon fill="black" stroke="black" points="1063.57,-227.23 1067.01,-217.21 1058.08,-222.9 1063.57,-227.23"/>
</g>
<!-- 13 -->
<g id="node14" class="node">
<title>13</title>
<polygon fill="none" stroke="black" points="781,-83 593,-83 593,0 781,0 781,-83"/>
<text text-anchor="middle" x="687" y="-67.8" font-family="Times,serif" font-size="14.00">node #13</text>
<text text-anchor="middle" x="687" y="-52.8" font-family="Times,serif" font-size="14.00">gini = 0.0</text>
<text text-anchor="middle" x="687" y="-37.8" font-family="Times,serif" font-size="14.00">samples = 13</text>
<text text-anchor="middle" x="687" y="-22.8" font-family="Times,serif" font-size="14.00">value = [22.962, 0.0]</text>
<text text-anchor="middle" x="687" y="-7.8" font-family="Times,serif" font-size="14.00">class = Non&#45;obstructive</text>
</g>
<!-- 12&#45;&gt;13 -->
<g id="edge13" class="edge">
<title>12&#45;&gt;13</title>
<path fill="none" stroke="black" d="M816.42,-118.87C799.34,-108.78 781.37,-98.18 764.44,-88.19"/>
<polygon fill="black" stroke="black" points="766.08,-85.1 755.69,-83.03 762.53,-91.13 766.08,-85.1"/>
</g>
<!-- 14 -->
<g id="node15" class="node">
<title>14</title>
<polygon fill="none" stroke="black" points="993,-83 799,-83 799,0 993,0 993,-83"/>
<text text-anchor="middle" x="896" y="-67.8" font-family="Times,serif" font-size="14.00">node #14</text>
<text text-anchor="middle" x="896" y="-52.8" font-family="Times,serif" font-size="14.00">gini = 0.499</text>
<text text-anchor="middle" x="896" y="-37.8" font-family="Times,serif" font-size="14.00">samples = 26</text>
<text text-anchor="middle" x="896" y="-22.8" font-family="Times,serif" font-size="14.00">value = [27.138, 24.954]</text>
<text text-anchor="middle" x="896" y="-7.8" font-family="Times,serif" font-size="14.00">class = Non&#45;obstructive</text>
</g>
<!-- 12&#45;&gt;14 -->
<g id="edge14" class="edge">
<title>12&#45;&gt;14</title>
<path fill="none" stroke="black" d="M897.23,-118.87C897.09,-110.5 896.95,-101.77 896.82,-93.33"/>
<polygon fill="black" stroke="black" points="900.31,-93.17 896.65,-83.23 893.32,-93.29 900.31,-93.17"/>
</g>
<!-- 16 -->
<g id="node17" class="node">
<title>16</title>
<polygon fill="none" stroke="black" points="1199,-83 1011,-83 1011,0 1199,0 1199,-83"/>
<text text-anchor="middle" x="1105" y="-67.8" font-family="Times,serif" font-size="14.00">node #16</text>
<text text-anchor="middle" x="1105" y="-52.8" font-family="Times,serif" font-size="14.00">gini = 0.205</text>
<text text-anchor="middle" x="1105" y="-37.8" font-family="Times,serif" font-size="14.00">samples = 11</text>
<text text-anchor="middle" x="1105" y="-22.8" font-family="Times,serif" font-size="14.00">value = [14.612, 1.92]</text>
<text text-anchor="middle" x="1105" y="-7.8" font-family="Times,serif" font-size="14.00">class = Non&#45;obstructive</text>
</g>
<!-- 15&#45;&gt;16 -->
<g id="edge16" class="edge">
<title>15&#45;&gt;16</title>
<path fill="none" stroke="black" d="M1105,-118.87C1105,-110.5 1105,-101.77 1105,-93.33"/>
<polygon fill="black" stroke="black" points="1108.5,-93.23 1105,-83.23 1101.5,-93.23 1108.5,-93.23"/>
</g>
<!-- 17 -->
<g id="node18" class="node">
<title>17</title>
<polygon fill="none" stroke="black" points="1405,-83 1217,-83 1217,0 1405,0 1405,-83"/>
<text text-anchor="middle" x="1311" y="-67.8" font-family="Times,serif" font-size="14.00">node #17</text>
<text text-anchor="middle" x="1311" y="-52.8" font-family="Times,serif" font-size="14.00">gini = 0.028</text>
<text text-anchor="middle" x="1311" y="-37.8" font-family="Times,serif" font-size="14.00">samples = 40</text>
<text text-anchor="middle" x="1311" y="-22.8" font-family="Times,serif" font-size="14.00">value = [65.756, 0.96]</text>
<text text-anchor="middle" x="1311" y="-7.8" font-family="Times,serif" font-size="14.00">class = Non&#45;obstructive</text>
</g>
<!-- 15&#45;&gt;17 -->
<g id="edge17" class="edge">
<title>15&#45;&gt;17</title>
<path fill="none" stroke="black" d="M1184.64,-118.87C1201.17,-108.88 1218.54,-98.38 1234.94,-88.47"/>
<polygon fill="black" stroke="black" points="1237.19,-91.2 1243.93,-83.03 1233.57,-85.21 1237.19,-91.2"/>
</g>
<!-- 19 -->
<g id="node20" class="node">
<title>19</title>
<polygon fill="none" stroke="black" points="1716,-217 1522,-217 1522,-119 1716,-119 1716,-217"/>
<text text-anchor="middle" x="1619" y="-201.8" font-family="Times,serif" font-size="14.00">node #19</text>
<text text-anchor="middle" x="1619" y="-186.8" font-family="Times,serif" font-size="14.00">FEFPreVal &lt;= 2.925</text>
<text text-anchor="middle" x="1619" y="-171.8" font-family="Times,serif" font-size="14.00">gini = 0.5</text>
<text text-anchor="middle" x="1619" y="-156.8" font-family="Times,serif" font-size="14.00">samples = 39</text>
<text text-anchor="middle" x="1619" y="-141.8" font-family="Times,serif" font-size="14.00">value = [28.181, 26.874]</text>
<text text-anchor="middle" x="1619" y="-126.8" font-family="Times,serif" font-size="14.00">class = Non&#45;obstructive</text>
</g>
<!-- 18&#45;&gt;19 -->
<g id="edge19" class="edge">
<title>18&#45;&gt;19</title>
<path fill="none" stroke="black" d="M1619,-252.97C1619,-244.69 1619,-236 1619,-227.48"/>
<polygon fill="black" stroke="black" points="1622.5,-227.21 1619,-217.21 1615.5,-227.21 1622.5,-227.21"/>
</g>
<!-- 22 -->
<g id="node23" class="node">
<title>22</title>
<polygon fill="none" stroke="black" points="2034,-217 1834,-217 1834,-119 2034,-119 2034,-217"/>
<text text-anchor="middle" x="1934" y="-201.8" font-family="Times,serif" font-size="14.00">node #22</text>
<text text-anchor="middle" x="1934" y="-186.8" font-family="Times,serif" font-size="14.00">FEV1PrePercent &lt;= 98.0</text>
<text text-anchor="middle" x="1934" y="-171.8" font-family="Times,serif" font-size="14.00">gini = 0.105</text>
<text text-anchor="middle" x="1934" y="-156.8" font-family="Times,serif" font-size="14.00">samples = 20</text>
<text text-anchor="middle" x="1934" y="-141.8" font-family="Times,serif" font-size="14.00">value = [2.088, 35.511]</text>
<text text-anchor="middle" x="1934" y="-126.8" font-family="Times,serif" font-size="14.00">class = Obstructive</text>
</g>
<!-- 18&#45;&gt;22 -->
<g id="edge22" class="edge">
<title>18&#45;&gt;22</title>
<path fill="none" stroke="black" d="M1716.08,-260.32C1750.43,-245.92 1789.3,-229.64 1824.6,-214.84"/>
<polygon fill="black" stroke="black" points="1826.11,-218.01 1833.98,-210.92 1823.4,-211.55 1826.11,-218.01"/>
</g>
<!-- 20 -->
<g id="node21" class="node">
<title>20</title>
<polygon fill="none" stroke="black" points="1617,-83 1423,-83 1423,0 1617,0 1617,-83"/>
<text text-anchor="middle" x="1520" y="-67.8" font-family="Times,serif" font-size="14.00">node #20</text>
<text text-anchor="middle" x="1520" y="-52.8" font-family="Times,serif" font-size="14.00">gini = 0.446</text>
<text text-anchor="middle" x="1520" y="-37.8" font-family="Times,serif" font-size="14.00">samples = 28</text>
<text text-anchor="middle" x="1520" y="-22.8" font-family="Times,serif" font-size="14.00">value = [13.569, 26.874]</text>
<text text-anchor="middle" x="1520" y="-7.8" font-family="Times,serif" font-size="14.00">class = Obstructive</text>
</g>
<!-- 19&#45;&gt;20 -->
<g id="edge20" class="edge">
<title>19&#45;&gt;20</title>
<path fill="none" stroke="black" d="M1580.72,-118.87C1573.49,-109.76 1565.91,-100.23 1558.66,-91.12"/>
<polygon fill="black" stroke="black" points="1561.35,-88.88 1552.39,-83.23 1555.87,-93.24 1561.35,-88.88"/>
</g>
<!-- 21 -->
<g id="node22" class="node">
<title>21</title>
<polygon fill="none" stroke="black" points="1823,-83 1635,-83 1635,0 1823,0 1823,-83"/>
<text text-anchor="middle" x="1729" y="-67.8" font-family="Times,serif" font-size="14.00">node #21</text>
<text text-anchor="middle" x="1729" y="-52.8" font-family="Times,serif" font-size="14.00">gini = 0.0</text>
<text text-anchor="middle" x="1729" y="-37.8" font-family="Times,serif" font-size="14.00">samples = 11</text>
<text text-anchor="middle" x="1729" y="-22.8" font-family="Times,serif" font-size="14.00">value = [14.612, 0.0]</text>
<text text-anchor="middle" x="1729" y="-7.8" font-family="Times,serif" font-size="14.00">class = Non&#45;obstructive</text>
</g>
<!-- 19&#45;&gt;21 -->
<g id="edge21" class="edge">
<title>19&#45;&gt;21</title>
<path fill="none" stroke="black" d="M1661.53,-118.87C1669.65,-109.67 1678.16,-100.04 1686.29,-90.84"/>
<polygon fill="black" stroke="black" points="1689.01,-93.04 1693.01,-83.23 1683.77,-88.41 1689.01,-93.04"/>
</g>
<!-- 23 -->
<g id="node24" class="node">
<title>23</title>
<polygon fill="none" stroke="black" points="2026.5,-83 1841.5,-83 1841.5,0 2026.5,0 2026.5,-83"/>
<text text-anchor="middle" x="1934" y="-67.8" font-family="Times,serif" font-size="14.00">node #23</text>
<text text-anchor="middle" x="1934" y="-52.8" font-family="Times,serif" font-size="14.00">gini = 0.055</text>
<text text-anchor="middle" x="1934" y="-37.8" font-family="Times,serif" font-size="14.00">samples = 19</text>
<text text-anchor="middle" x="1934" y="-22.8" font-family="Times,serif" font-size="14.00">value = [1.044, 35.511]</text>
<text text-anchor="middle" x="1934" y="-7.8" font-family="Times,serif" font-size="14.00">class = Obstructive</text>
</g>
<!-- 22&#45;&gt;23 -->
<g id="edge23" class="edge">
<title>22&#45;&gt;23</title>
<path fill="none" stroke="black" d="M1934,-118.87C1934,-110.5 1934,-101.77 1934,-93.33"/>
<polygon fill="black" stroke="black" points="1937.5,-93.23 1934,-83.23 1930.5,-93.23 1937.5,-93.23"/>
</g>
<!-- 24 -->
<g id="node25" class="node">
<title>24</title>
<polygon fill="none" stroke="black" points="2233,-83 2045,-83 2045,0 2233,0 2233,-83"/>
<text text-anchor="middle" x="2139" y="-67.8" font-family="Times,serif" font-size="14.00">node #24</text>
<text text-anchor="middle" x="2139" y="-52.8" font-family="Times,serif" font-size="14.00">gini = 0.0</text>
<text text-anchor="middle" x="2139" y="-37.8" font-family="Times,serif" font-size="14.00">samples = 1</text>
<text text-anchor="middle" x="2139" y="-22.8" font-family="Times,serif" font-size="14.00">value = [1.044, 0.0]</text>
<text text-anchor="middle" x="2139" y="-7.8" font-family="Times,serif" font-size="14.00">class = Non&#45;obstructive</text>
</g>
<!-- 22&#45;&gt;24 -->
<g id="edge24" class="edge">
<title>22&#45;&gt;24</title>
<path fill="none" stroke="black" d="M2013.26,-118.87C2029.7,-108.88 2046.99,-98.38 2063.31,-88.47"/>
<polygon fill="black" stroke="black" points="2065.53,-91.21 2072.26,-83.03 2061.9,-85.23 2065.53,-91.21"/>
</g>
</g>
</svg>
