<?xml version="1.0" encoding="UTF-8" standalone="no"?>
<!DOCTYPE svg PUBLIC "-//W3C//DTD SVG 1.1//EN"
 "http://www.w3.org/Graphics/SVG/1.1/DTD/svg11.dtd">
<!-- Generated by graphviz version 2.43.0 (0)
 -->
<!-- Title: Tree Pages: 1 -->
<svg width="2390pt" height="627pt"
 viewBox="0.00 0.00 2390.00 627.00" xmlns="http://www.w3.org/2000/svg" xmlns:xlink="http://www.w3.org/1999/xlink">
<g id="graph0" class="graph" transform="scale(1 1) rotate(0) translate(4 623)">
<title>Tree</title>
<polygon fill="white" stroke="transparent" points="-4,4 -4,-623 2386,-623 2386,4 -4,4"/>
<!-- 0 -->
<g id="node1" class="node">
<title>0</title>
<polygon fill="none" stroke="black" points="1147,-619 959,-619 959,-521 1147,-521 1147,-619"/>
<text text-anchor="middle" x="1053" y="-603.8" font-family="Times,serif" font-size="14.00">node #0</text>
<text text-anchor="middle" x="1053" y="-588.8" font-family="Times,serif" font-size="14.00">FEFPreVal &lt;= 1.08</text>
<text text-anchor="middle" x="1053" y="-573.8" font-family="Times,serif" font-size="14.00">gini = 0.5</text>
<text text-anchor="middle" x="1053" y="-558.8" font-family="Times,serif" font-size="14.00">samples = 216</text>
<text text-anchor="middle" x="1053" y="-543.8" font-family="Times,serif" font-size="14.00">value = [167.0, 167.0]</text>
<text text-anchor="middle" x="1053" y="-528.8" font-family="Times,serif" font-size="14.00">class = Non&#45;obstructive</text>
</g>
<!-- 1 -->
<g id="node2" class="node">
<title>1</title>
<polygon fill="none" stroke="black" points="943,-485 749,-485 749,-387 943,-387 943,-485"/>
<text text-anchor="middle" x="846" y="-469.8" font-family="Times,serif" font-size="14.00">node #1</text>
<text text-anchor="middle" x="846" y="-454.8" font-family="Times,serif" font-size="14.00">FEV1PostVal &lt;= 2.285</text>
<text text-anchor="middle" x="846" y="-439.8" font-family="Times,serif" font-size="14.00">gini = 0.177</text>
<text text-anchor="middle" x="846" y="-424.8" font-family="Times,serif" font-size="14.00">samples = 66</text>
<text text-anchor="middle" x="846" y="-409.8" font-family="Times,serif" font-size="14.00">value = [10.121, 92.888]</text>
<text text-anchor="middle" x="846" y="-394.8" font-family="Times,serif" font-size="14.00">class = Obstructive</text>
</g>
<!-- 0&#45;&gt;1 -->
<g id="edge1" class="edge">
<title>0&#45;&gt;1</title>
<path fill="none" stroke="black" d="M977.68,-520.97C962.27,-511.14 945.96,-500.74 930.26,-490.73"/>
<polygon fill="black" stroke="black" points="931.92,-487.64 921.61,-485.21 928.16,-493.54 931.92,-487.64"/>
<text text-anchor="middle" x="927.01" y="-505.92" font-family="Times,serif" font-size="14.00">True</text>
</g>
<!-- 10 -->
<g id="node11" class="node">
<title>10</title>
<polygon fill="none" stroke="black" points="1303.5,-485 1100.5,-485 1100.5,-387 1303.5,-387 1303.5,-485"/>
<text text-anchor="middle" x="1202" y="-469.8" font-family="Times,serif" font-size="14.00">node #10</text>
<text text-anchor="middle" x="1202" y="-454.8" font-family="Times,serif" font-size="14.00">FVCPostVal &lt;= 2.235</text>
<text text-anchor="middle" x="1202" y="-439.8" font-family="Times,serif" font-size="14.00">gini = 0.436</text>
<text text-anchor="middle" x="1202" y="-424.8" font-family="Times,serif" font-size="14.00">samples = 150</text>
<text text-anchor="middle" x="1202" y="-409.8" font-family="Times,serif" font-size="14.00">value = [156.879, 74.112]</text>
<text text-anchor="middle" x="1202" y="-394.8" font-family="Times,serif" font-size="14.00">class = Non&#45;obstructive</text>
</g>
<!-- 0&#45;&gt;10 -->
<g id="edge10" class="edge">
<title>0&#45;&gt;10</title>
<path fill="none" stroke="black" d="M1107.21,-520.97C1117.79,-511.6 1128.96,-501.7 1139.78,-492.12"/>
<polygon fill="black" stroke="black" points="1142.41,-494.46 1147.58,-485.21 1137.77,-489.23 1142.41,-494.46"/>
<text text-anchor="middle" x="1146.07" y="-506.47" font-family="Times,serif" font-size="14.00">False</text>
</g>
<!-- 2 -->
<g id="node3" class="node">
<title>2</title>
<polygon fill="none" stroke="black" points="683.5,-351 492.5,-351 492.5,-253 683.5,-253 683.5,-351"/>
<text text-anchor="middle" x="588" y="-335.8" font-family="Times,serif" font-size="14.00">node #2</text>
<text text-anchor="middle" x="588" y="-320.8" font-family="Times,serif" font-size="14.00">FVCPrePercent &lt;= 39.0</text>
<text text-anchor="middle" x="588" y="-305.8" font-family="Times,serif" font-size="14.00">gini = 0.148</text>
<text text-anchor="middle" x="588" y="-290.8" font-family="Times,serif" font-size="14.00">samples = 65</text>
<text text-anchor="middle" x="588" y="-275.8" font-family="Times,serif" font-size="14.00">value = [8.097, 92.888]</text>
<text text-anchor="middle" x="588" y="-260.8" font-family="Times,serif" font-size="14.00">class = Obstructive</text>
</g>
<!-- 1&#45;&gt;2 -->
<g id="edge2" class="edge">
<title>1&#45;&gt;2</title>
<path fill="none" stroke="black" d="M752.13,-386.97C732.39,-376.87 711.46,-366.16 691.39,-355.9"/>
<polygon fill="black" stroke="black" points="692.73,-352.65 682.24,-351.21 689.54,-358.88 692.73,-352.65"/>
</g>
<!-- 9 -->
<g id="node10" class="node">
<title>9</title>
<polygon fill="none" stroke="black" points="940,-343.5 752,-343.5 752,-260.5 940,-260.5 940,-343.5"/>
<text text-anchor="middle" x="846" y="-328.3" font-family="Times,serif" font-size="14.00">node #9</text>
<text text-anchor="middle" x="846" y="-313.3" font-family="Times,serif" font-size="14.00">gini = 0.0</text>
<text text-anchor="middle" x="846" y="-298.3" font-family="Times,serif" font-size="14.00">samples = 1</text>
<text text-anchor="middle" x="846" y="-283.3" font-family="Times,serif" font-size="14.00">value = [2.024, 0.0]</text>
<text text-anchor="middle" x="846" y="-268.3" font-family="Times,serif" font-size="14.00">class = Non&#45;obstructive</text>
</g>
<!-- 1&#45;&gt;9 -->
<g id="edge9" class="edge">
<title>1&#45;&gt;9</title>
<path fill="none" stroke="black" d="M846,-386.97C846,-376.25 846,-364.84 846,-353.99"/>
<polygon fill="black" stroke="black" points="849.5,-353.82 846,-343.82 842.5,-353.82 849.5,-353.82"/>
</g>
<!-- 3 -->
<g id="node4" class="node">
<title>3</title>
<polygon fill="none" stroke="black" points="383.5,-217 186.5,-217 186.5,-119 383.5,-119 383.5,-217"/>
<text text-anchor="middle" x="285" y="-201.8" font-family="Times,serif" font-size="14.00">node #3</text>
<text text-anchor="middle" x="285" y="-186.8" font-family="Times,serif" font-size="14.00">FVCPostPercent &lt;= 40.5</text>
<text text-anchor="middle" x="285" y="-171.8" font-family="Times,serif" font-size="14.00">gini = 0.476</text>
<text text-anchor="middle" x="285" y="-156.8" font-family="Times,serif" font-size="14.00">samples = 10</text>
<text text-anchor="middle" x="285" y="-141.8" font-family="Times,serif" font-size="14.00">value = [5.061, 7.905]</text>
<text text-anchor="middle" x="285" y="-126.8" font-family="Times,serif" font-size="14.00">class = Obstructive</text>
</g>
<!-- 2&#45;&gt;3 -->
<g id="edge3" class="edge">
<title>2&#45;&gt;3</title>
<path fill="none" stroke="black" d="M492.13,-259.23C460.65,-245.52 425.44,-230.18 393.12,-216.1"/>
<polygon fill="black" stroke="black" points="394.2,-212.76 383.64,-211.97 391.41,-219.17 394.2,-212.76"/>
</g>
<!-- 6 -->
<g id="node7" class="node">
<title>6</title>
<polygon fill="none" stroke="black" points="680.5,-217 495.5,-217 495.5,-119 680.5,-119 680.5,-217"/>
<text text-anchor="middle" x="588" y="-201.8" font-family="Times,serif" font-size="14.00">node #6</text>
<text text-anchor="middle" x="588" y="-186.8" font-family="Times,serif" font-size="14.00">FVCPostVal &lt;= 1.17</text>
<text text-anchor="middle" x="588" y="-171.8" font-family="Times,serif" font-size="14.00">gini = 0.067</text>
<text text-anchor="middle" x="588" y="-156.8" font-family="Times,serif" font-size="14.00">samples = 55</text>
<text text-anchor="middle" x="588" y="-141.8" font-family="Times,serif" font-size="14.00">value = [3.036, 84.982]</text>
<text text-anchor="middle" x="588" y="-126.8" font-family="Times,serif" font-size="14.00">class = Obstructive</text>
</g>
<!-- 2&#45;&gt;6 -->
<g id="edge6" class="edge">
<title>2&#45;&gt;6</title>
<path fill="none" stroke="black" d="M588,-252.97C588,-244.69 588,-236 588,-227.48"/>
<polygon fill="black" stroke="black" points="591.5,-227.21 588,-217.21 584.5,-227.21 591.5,-227.21"/>
</g>
<!-- 4 -->
<g id="node5" class="node">
<title>4</title>
<polygon fill="none" stroke="black" points="188,-83 0,-83 0,0 188,0 188,-83"/>
<text text-anchor="middle" x="94" y="-67.8" font-family="Times,serif" font-size="14.00">node #4</text>
<text text-anchor="middle" x="94" y="-52.8" font-family="Times,serif" font-size="14.00">gini = 0.404</text>
<text text-anchor="middle" x="94" y="-37.8" font-family="Times,serif" font-size="14.00">samples = 5</text>
<text text-anchor="middle" x="94" y="-22.8" font-family="Times,serif" font-size="14.00">value = [5.061, 1.976]</text>
<text text-anchor="middle" x="94" y="-7.8" font-family="Times,serif" font-size="14.00">class = Non&#45;obstructive</text>
</g>
<!-- 3&#45;&gt;4 -->
<g id="edge4" class="edge">
<title>3&#45;&gt;4</title>
<path fill="none" stroke="black" d="M211.15,-118.87C195.97,-108.97 180.02,-98.57 164.95,-88.74"/>
<polygon fill="black" stroke="black" points="166.47,-85.56 156.18,-83.03 162.65,-91.43 166.47,-85.56"/>
</g>
<!-- 5 -->
<g id="node6" class="node">
<title>5</title>
<polygon fill="none" stroke="black" points="364,-83 206,-83 206,0 364,0 364,-83"/>
<text text-anchor="middle" x="285" y="-67.8" font-family="Times,serif" font-size="14.00">node #5</text>
<text text-anchor="middle" x="285" y="-52.8" font-family="Times,serif" font-size="14.00">gini = &#45;0.0</text>
<text text-anchor="middle" x="285" y="-37.8" font-family="Times,serif" font-size="14.00">samples = 5</text>
<text text-anchor="middle" x="285" y="-22.8" font-family="Times,serif" font-size="14.00">value = [0.0, 5.929]</text>
<text text-anchor="middle" x="285" y="-7.8" font-family="Times,serif" font-size="14.00">class = Obstructive</text>
</g>
<!-- 3&#45;&gt;5 -->
<g id="edge5" class="edge">
<title>3&#45;&gt;5</title>
<path fill="none" stroke="black" d="M285,-118.87C285,-110.5 285,-101.77 285,-93.33"/>
<polygon fill="black" stroke="black" points="288.5,-93.23 285,-83.23 281.5,-93.23 288.5,-93.23"/>
</g>
<!-- 7 -->
<g id="node8" class="node">
<title>7</title>
<polygon fill="none" stroke="black" points="570,-83 382,-83 382,0 570,0 570,-83"/>
<text text-anchor="middle" x="476" y="-67.8" font-family="Times,serif" font-size="14.00">node #7</text>
<text text-anchor="middle" x="476" y="-52.8" font-family="Times,serif" font-size="14.00">gini = 0.5</text>
<text text-anchor="middle" x="476" y="-37.8" font-family="Times,serif" font-size="14.00">samples = 2</text>
<text text-anchor="middle" x="476" y="-22.8" font-family="Times,serif" font-size="14.00">value = [2.024, 1.976]</text>
<text text-anchor="middle" x="476" y="-7.8" font-family="Times,serif" font-size="14.00">class = Non&#45;obstructive</text>
</g>
<!-- 6&#45;&gt;7 -->
<g id="edge7" class="edge">
<title>6&#45;&gt;7</title>
<path fill="none" stroke="black" d="M544.7,-118.87C536.43,-109.67 527.76,-100.04 519.49,-90.84"/>
<polygon fill="black" stroke="black" points="521.93,-88.32 512.64,-83.23 516.73,-93.01 521.93,-88.32"/>
</g>
<!-- 8 -->
<g id="node9" class="node">
<title>8</title>
<polygon fill="none" stroke="black" points="773.5,-83 588.5,-83 588.5,0 773.5,0 773.5,-83"/>
<text text-anchor="middle" x="681" y="-67.8" font-family="Times,serif" font-size="14.00">node #8</text>
<text text-anchor="middle" x="681" y="-52.8" font-family="Times,serif" font-size="14.00">gini = 0.024</text>
<text text-anchor="middle" x="681" y="-37.8" font-family="Times,serif" font-size="14.00">samples = 53</text>
<text text-anchor="middle" x="681" y="-22.8" font-family="Times,serif" font-size="14.00">value = [1.012, 83.006]</text>
<text text-anchor="middle" x="681" y="-7.8" font-family="Times,serif" font-size="14.00">class = Obstructive</text>
</g>
<!-- 6&#45;&gt;8 -->
<g id="edge8" class="edge">
<title>6&#45;&gt;8</title>
<path fill="none" stroke="black" d="M623.96,-118.87C630.69,-109.85 637.73,-100.43 644.48,-91.39"/>
<polygon fill="black" stroke="black" points="647.39,-93.34 650.57,-83.23 641.79,-89.15 647.39,-93.34"/>
</g>
<!-- 11 -->
<g id="node12" class="node">
<title>11</title>
<polygon fill="none" stroke="black" points="1303.5,-351 1100.5,-351 1100.5,-253 1303.5,-253 1303.5,-351"/>
<text text-anchor="middle" x="1202" y="-335.8" font-family="Times,serif" font-size="14.00">node #11</text>
<text text-anchor="middle" x="1202" y="-320.8" font-family="Times,serif" font-size="14.00">FVCPostVal &lt;= 2.015</text>
<text text-anchor="middle" x="1202" y="-305.8" font-family="Times,serif" font-size="14.00">gini = 0.183</text>
<text text-anchor="middle" x="1202" y="-290.8" font-family="Times,serif" font-size="14.00">samples = 73</text>
<text text-anchor="middle" x="1202" y="-275.8" font-family="Times,serif" font-size="14.00">value = [104.248, 11.858]</text>
<text text-anchor="middle" x="1202" y="-260.8" font-family="Times,serif" font-size="14.00">class = Non&#45;obstructive</text>
</g>
<!-- 10&#45;&gt;11 -->
<g id="edge11" class="edge">
<title>10&#45;&gt;11</title>
<path fill="none" stroke="black" d="M1202,-386.97C1202,-378.69 1202,-370 1202,-361.48"/>
<polygon fill="black" stroke="black" points="1205.5,-361.21 1202,-351.21 1198.5,-361.21 1205.5,-361.21"/>
</g>
<!-- 18 -->
<g id="node19" class="node">
<title>18</title>
<polygon fill="none" stroke="black" points="1881.5,-351 1696.5,-351 1696.5,-253 1881.5,-253 1881.5,-351"/>
<text text-anchor="middle" x="1789" y="-335.8" font-family="Times,serif" font-size="14.00">node #18</text>
<text text-anchor="middle" x="1789" y="-320.8" font-family="Times,serif" font-size="14.00">FEV1PreVal &lt;= 1.905</text>
<text text-anchor="middle" x="1789" y="-305.8" font-family="Times,serif" font-size="14.00">gini = 0.496</text>
<text text-anchor="middle" x="1789" y="-290.8" font-family="Times,serif" font-size="14.00">samples = 77</text>
<text text-anchor="middle" x="1789" y="-275.8" font-family="Times,serif" font-size="14.00">value = [52.63, 62.254]</text>
<text text-anchor="middle" x="1789" y="-260.8" font-family="Times,serif" font-size="14.00">class = Obstructive</text>
</g>
<!-- 10&#45;&gt;18 -->
<g id="edge18" class="edge">
<title>10&#45;&gt;18</title>
<path fill="none" stroke="black" d="M1303.58,-412.16C1410.81,-388.04 1578.92,-350.24 1686.5,-326.05"/>
<polygon fill="black" stroke="black" points="1687.41,-329.43 1696.39,-323.82 1685.87,-322.6 1687.41,-329.43"/>
</g>
<!-- 12 -->
<g id="node13" class="node">
<title>12</title>
<polygon fill="none" stroke="black" points="1184.5,-217 993.5,-217 993.5,-119 1184.5,-119 1184.5,-217"/>
<text text-anchor="middle" x="1089" y="-201.8" font-family="Times,serif" font-size="14.00">node #12</text>
<text text-anchor="middle" x="1089" y="-186.8" font-family="Times,serif" font-size="14.00">FEFPrePercent &lt;= 72.0</text>
<text text-anchor="middle" x="1089" y="-171.8" font-family="Times,serif" font-size="14.00">gini = 0.085</text>
<text text-anchor="middle" x="1089" y="-156.8" font-family="Times,serif" font-size="14.00">samples = 57</text>
<text text-anchor="middle" x="1089" y="-141.8" font-family="Times,serif" font-size="14.00">value = [85.018, 3.953]</text>
<text text-anchor="middle" x="1089" y="-126.8" font-family="Times,serif" font-size="14.00">class = Non&#45;obstructive</text>
</g>
<!-- 11&#45;&gt;12 -->
<g id="edge12" class="edge">
<title>11&#45;&gt;12</title>
<path fill="none" stroke="black" d="M1160.88,-252.97C1153.1,-243.87 1144.88,-234.28 1136.91,-224.96"/>
<polygon fill="black" stroke="black" points="1139.44,-222.53 1130.27,-217.21 1134.12,-227.09 1139.44,-222.53"/>
</g>
<!-- 15 -->
<g id="node16" class="node">
<title>15</title>
<polygon fill="none" stroke="black" points="1399.5,-217 1202.5,-217 1202.5,-119 1399.5,-119 1399.5,-217"/>
<text text-anchor="middle" x="1301" y="-201.8" font-family="Times,serif" font-size="14.00">node #15</text>
<text text-anchor="middle" x="1301" y="-186.8" font-family="Times,serif" font-size="14.00">FEFPostPercent &lt;= 80.5</text>
<text text-anchor="middle" x="1301" y="-171.8" font-family="Times,serif" font-size="14.00">gini = 0.413</text>
<text text-anchor="middle" x="1301" y="-156.8" font-family="Times,serif" font-size="14.00">samples = 16</text>
<text text-anchor="middle" x="1301" y="-141.8" font-family="Times,serif" font-size="14.00">value = [19.23, 7.905]</text>
<text text-anchor="middle" x="1301" y="-126.8" font-family="Times,serif" font-size="14.00">class = Non&#45;obstructive</text>
</g>
<!-- 11&#45;&gt;15 -->
<g id="edge15" class="edge">
<title>11&#45;&gt;15</title>
<path fill="none" stroke="black" d="M1238.02,-252.97C1244.78,-243.96 1251.9,-234.47 1258.82,-225.24"/>
<polygon fill="black" stroke="black" points="1261.64,-227.31 1264.84,-217.21 1256.04,-223.11 1261.64,-227.31"/>
</g>
<!-- 13 -->
<g id="node14" class="node">
<title>13</title>
<polygon fill="none" stroke="black" points="980,-83 792,-83 792,0 980,0 980,-83"/>
<text text-anchor="middle" x="886" y="-67.8" font-family="Times,serif" font-size="14.00">node #13</text>
<text text-anchor="middle" x="886" y="-52.8" font-family="Times,serif" font-size="14.00">gini = 0.204</text>
<text text-anchor="middle" x="886" y="-37.8" font-family="Times,serif" font-size="14.00">samples = 22</text>
<text text-anchor="middle" x="886" y="-22.8" font-family="Times,serif" font-size="14.00">value = [30.364, 3.953]</text>
<text text-anchor="middle" x="886" y="-7.8" font-family="Times,serif" font-size="14.00">class = Non&#45;obstructive</text>
</g>
<!-- 12&#45;&gt;13 -->
<g id="edge13" class="edge">
<title>12&#45;&gt;13</title>
<path fill="none" stroke="black" d="M1010.51,-118.87C994.23,-108.88 977.11,-98.38 960.95,-88.47"/>
<polygon fill="black" stroke="black" points="962.44,-85.28 952.09,-83.03 958.78,-91.24 962.44,-85.28"/>
</g>
<!-- 14 -->
<g id="node15" class="node">
<title>14</title>
<polygon fill="none" stroke="black" points="1186,-83 998,-83 998,0 1186,0 1186,-83"/>
<text text-anchor="middle" x="1092" y="-67.8" font-family="Times,serif" font-size="14.00">node #14</text>
<text text-anchor="middle" x="1092" y="-52.8" font-family="Times,serif" font-size="14.00">gini = 0.0</text>
<text text-anchor="middle" x="1092" y="-37.8" font-family="Times,serif" font-size="14.00">samples = 35</text>
<text text-anchor="middle" x="1092" y="-22.8" font-family="Times,serif" font-size="14.00">value = [54.655, 0.0]</text>
<text text-anchor="middle" x="1092" y="-7.8" font-family="Times,serif" font-size="14.00">class = Non&#45;obstructive</text>
</g>
<!-- 12&#45;&gt;14 -->
<g id="edge14" class="edge">
<title>12&#45;&gt;14</title>
<path fill="none" stroke="black" d="M1090.16,-118.87C1090.36,-110.5 1090.57,-101.77 1090.78,-93.33"/>
<polygon fill="black" stroke="black" points="1094.28,-93.31 1091.02,-83.23 1087.28,-93.14 1094.28,-93.31"/>
</g>
<!-- 16 -->
<g id="node17" class="node">
<title>16</title>
<polygon fill="none" stroke="black" points="1392,-83 1204,-83 1204,0 1392,0 1392,-83"/>
<text text-anchor="middle" x="1298" y="-67.8" font-family="Times,serif" font-size="14.00">node #16</text>
<text text-anchor="middle" x="1298" y="-52.8" font-family="Times,serif" font-size="14.00">gini = 0.5</text>
<text text-anchor="middle" x="1298" y="-37.8" font-family="Times,serif" font-size="14.00">samples = 10</text>
<text text-anchor="middle" x="1298" y="-22.8" font-family="Times,serif" font-size="14.00">value = [8.097, 7.905]</text>
<text text-anchor="middle" x="1298" y="-7.8" font-family="Times,serif" font-size="14.00">class = Non&#45;obstructive</text>
</g>
<!-- 15&#45;&gt;16 -->
<g id="edge16" class="edge">
<title>15&#45;&gt;16</title>
<path fill="none" stroke="black" d="M1299.84,-118.87C1299.64,-110.5 1299.43,-101.77 1299.22,-93.33"/>
<polygon fill="black" stroke="black" points="1302.72,-93.14 1298.98,-83.23 1295.72,-93.31 1302.72,-93.14"/>
</g>
<!-- 17 -->
<g id="node18" class="node">
<title>17</title>
<polygon fill="none" stroke="black" points="1598,-83 1410,-83 1410,0 1598,0 1598,-83"/>
<text text-anchor="middle" x="1504" y="-67.8" font-family="Times,serif" font-size="14.00">node #17</text>
<text text-anchor="middle" x="1504" y="-52.8" font-family="Times,serif" font-size="14.00">gini = &#45;0.0</text>
<text text-anchor="middle" x="1504" y="-37.8" font-family="Times,serif" font-size="14.00">samples = 6</text>
<text text-anchor="middle" x="1504" y="-22.8" font-family="Times,serif" font-size="14.00">value = [11.133, 0.0]</text>
<text text-anchor="middle" x="1504" y="-7.8" font-family="Times,serif" font-size="14.00">class = Non&#45;obstructive</text>
</g>
<!-- 15&#45;&gt;17 -->
<g id="edge17" class="edge">
<title>15&#45;&gt;17</title>
<path fill="none" stroke="black" d="M1379.49,-118.87C1395.77,-108.88 1412.89,-98.38 1429.05,-88.47"/>
<polygon fill="black" stroke="black" points="1431.22,-91.24 1437.91,-83.03 1427.56,-85.28 1431.22,-91.24"/>
</g>
<!-- 19 -->
<g id="node20" class="node">
<title>19</title>
<polygon fill="none" stroke="black" points="1881.5,-217 1696.5,-217 1696.5,-119 1881.5,-119 1881.5,-217"/>
<text text-anchor="middle" x="1789" y="-201.8" font-family="Times,serif" font-size="14.00">node #19</text>
<text text-anchor="middle" x="1789" y="-186.8" font-family="Times,serif" font-size="14.00">FEV1PreVal &lt;= 1.765</text>
<text text-anchor="middle" x="1789" y="-171.8" font-family="Times,serif" font-size="14.00">gini = 0.107</text>
<text text-anchor="middle" x="1789" y="-156.8" font-family="Times,serif" font-size="14.00">samples = 12</text>
<text text-anchor="middle" x="1789" y="-141.8" font-family="Times,serif" font-size="14.00">value = [1.012, 16.799]</text>
<text text-anchor="middle" x="1789" y="-126.8" font-family="Times,serif" font-size="14.00">class = Obstructive</text>
</g>
<!-- 18&#45;&gt;19 -->
<g id="edge19" class="edge">
<title>18&#45;&gt;19</title>
<path fill="none" stroke="black" d="M1789,-252.97C1789,-244.69 1789,-236 1789,-227.48"/>
<polygon fill="black" stroke="black" points="1792.5,-227.21 1789,-217.21 1785.5,-227.21 1792.5,-227.21"/>
</g>
<!-- 22 -->
<g id="node23" class="node">
<title>22</title>
<polygon fill="none" stroke="black" points="2179,-217 1985,-217 1985,-119 2179,-119 2179,-217"/>
<text text-anchor="middle" x="2082" y="-201.8" font-family="Times,serif" font-size="14.00">node #22</text>
<text text-anchor="middle" x="2082" y="-186.8" font-family="Times,serif" font-size="14.00">FEFPrePercent &lt;= 56.5</text>
<text text-anchor="middle" x="2082" y="-171.8" font-family="Times,serif" font-size="14.00">gini = 0.498</text>
<text text-anchor="middle" x="2082" y="-156.8" font-family="Times,serif" font-size="14.00">samples = 65</text>
<text text-anchor="middle" x="2082" y="-141.8" font-family="Times,serif" font-size="14.00">value = [51.618, 45.456]</text>
<text text-anchor="middle" x="2082" y="-126.8" font-family="Times,serif" font-size="14.00">class = Non&#45;obstructive</text>
</g>
<!-- 18&#45;&gt;22 -->
<g id="edge22" class="edge">
<title>18&#45;&gt;22</title>
<path fill="none" stroke="black" d="M1881.71,-259.23C1911.49,-245.82 1944.71,-230.85 1975.4,-217.02"/>
<polygon fill="black" stroke="black" points="1977.16,-220.07 1984.84,-212.77 1974.29,-213.69 1977.16,-220.07"/>
</g>
<!-- 20 -->
<g id="node21" class="node">
<title>20</title>
<polygon fill="none" stroke="black" points="1792,-83 1616,-83 1616,0 1792,0 1792,-83"/>
<text text-anchor="middle" x="1704" y="-67.8" font-family="Times,serif" font-size="14.00">node #20</text>
<text text-anchor="middle" x="1704" y="-52.8" font-family="Times,serif" font-size="14.00">gini = 0.325</text>
<text text-anchor="middle" x="1704" y="-37.8" font-family="Times,serif" font-size="14.00">samples = 4</text>
<text text-anchor="middle" x="1704" y="-22.8" font-family="Times,serif" font-size="14.00">value = [1.012, 3.953]</text>
<text text-anchor="middle" x="1704" y="-7.8" font-family="Times,serif" font-size="14.00">class = Obstructive</text>
</g>
<!-- 19&#45;&gt;20 -->
<g id="edge20" class="edge">
<title>19&#45;&gt;20</title>
<path fill="none" stroke="black" d="M1756.14,-118.87C1750.05,-109.95 1743.68,-100.62 1737.57,-91.67"/>
<polygon fill="black" stroke="black" points="1740.34,-89.52 1731.81,-83.23 1734.56,-93.46 1740.34,-89.52"/>
</g>
<!-- 21 -->
<g id="node22" class="node">
<title>21</title>
<polygon fill="none" stroke="black" points="1976.5,-83 1809.5,-83 1809.5,0 1976.5,0 1976.5,-83"/>
<text text-anchor="middle" x="1893" y="-67.8" font-family="Times,serif" font-size="14.00">node #21</text>
<text text-anchor="middle" x="1893" y="-52.8" font-family="Times,serif" font-size="14.00">gini = &#45;0.0</text>
<text text-anchor="middle" x="1893" y="-37.8" font-family="Times,serif" font-size="14.00">samples = 8</text>
<text text-anchor="middle" x="1893" y="-22.8" font-family="Times,serif" font-size="14.00">value = [0.0, 12.846]</text>
<text text-anchor="middle" x="1893" y="-7.8" font-family="Times,serif" font-size="14.00">class = Obstructive</text>
</g>
<!-- 19&#45;&gt;21 -->
<g id="edge21" class="edge">
<title>19&#45;&gt;21</title>
<path fill="none" stroke="black" d="M1829.21,-118.87C1836.81,-109.76 1844.77,-100.23 1852.39,-91.12"/>
<polygon fill="black" stroke="black" points="1855.25,-93.15 1858.98,-83.23 1849.88,-88.66 1855.25,-93.15"/>
</g>
<!-- 23 -->
<g id="node24" class="node">
<title>23</title>
<polygon fill="none" stroke="black" points="2170,-83 1994,-83 1994,0 2170,0 2170,-83"/>
<text text-anchor="middle" x="2082" y="-67.8" font-family="Times,serif" font-size="14.00">node #23</text>
<text text-anchor="middle" x="2082" y="-52.8" font-family="Times,serif" font-size="14.00">gini = 0.332</text>
<text text-anchor="middle" x="2082" y="-37.8" font-family="Times,serif" font-size="14.00">samples = 22</text>
<text text-anchor="middle" x="2082" y="-22.8" font-family="Times,serif" font-size="14.00">value = [7.085, 26.68]</text>
<text text-anchor="middle" x="2082" y="-7.8" font-family="Times,serif" font-size="14.00">class = Obstructive</text>
</g>
<!-- 22&#45;&gt;23 -->
<g id="edge23" class="edge">
<title>22&#45;&gt;23</title>
<path fill="none" stroke="black" d="M2082,-118.87C2082,-110.5 2082,-101.77 2082,-93.33"/>
<polygon fill="black" stroke="black" points="2085.5,-93.23 2082,-83.23 2078.5,-93.23 2085.5,-93.23"/>
</g>
<!-- 24 -->
<g id="node25" class="node">
<title>24</title>
<polygon fill="none" stroke="black" points="2382,-83 2188,-83 2188,0 2382,0 2382,-83"/>
<text text-anchor="middle" x="2285" y="-67.8" font-family="Times,serif" font-size="14.00">node #24</text>
<text text-anchor="middle" x="2285" y="-52.8" font-family="Times,serif" font-size="14.00">gini = 0.417</text>
<text text-anchor="middle" x="2285" y="-37.8" font-family="Times,serif" font-size="14.00">samples = 43</text>
<text text-anchor="middle" x="2285" y="-22.8" font-family="Times,serif" font-size="14.00">value = [44.533, 18.775]</text>
<text text-anchor="middle" x="2285" y="-7.8" font-family="Times,serif" font-size="14.00">class = Non&#45;obstructive</text>
</g>
<!-- 22&#45;&gt;24 -->
<g id="edge24" class="edge">
<title>22&#45;&gt;24</title>
<path fill="none" stroke="black" d="M2160.49,-118.87C2176.77,-108.88 2193.89,-98.38 2210.05,-88.47"/>
<polygon fill="black" stroke="black" points="2212.22,-91.24 2218.91,-83.03 2208.56,-85.28 2212.22,-91.24"/>
</g>
</g>
</svg>
