<?xml version="1.0" encoding="UTF-8" standalone="no"?>
<!DOCTYPE svg PUBLIC "-//W3C//DTD SVG 1.1//EN"
 "http://www.w3.org/Graphics/SVG/1.1/DTD/svg11.dtd">
<!-- Generated by graphviz version 2.43.0 (0)
 -->
<!-- Title: Tree Pages: 1 -->
<svg width="2340pt" height="627pt"
 viewBox="0.00 0.00 2339.50 627.00" xmlns="http://www.w3.org/2000/svg" xmlns:xlink="http://www.w3.org/1999/xlink">
<g id="graph0" class="graph" transform="scale(1 1) rotate(0) translate(4 623)">
<title>Tree</title>
<polygon fill="white" stroke="transparent" points="-4,4 -4,-623 2335.5,-623 2335.5,4 -4,4"/>
<!-- 0 -->
<g id="node1" class="node">
<title>0</title>
<polygon fill="none" stroke="black" points="1180.5,-619 983.5,-619 983.5,-521 1180.5,-521 1180.5,-619"/>
<text text-anchor="middle" x="1082" y="-603.8" font-family="Times,serif" font-size="14.00">node #0</text>
<text text-anchor="middle" x="1082" y="-588.8" font-family="Times,serif" font-size="14.00">FEFPostPercent &lt;= 57.5</text>
<text text-anchor="middle" x="1082" y="-573.8" font-family="Times,serif" font-size="14.00">gini = 0.5</text>
<text text-anchor="middle" x="1082" y="-558.8" font-family="Times,serif" font-size="14.00">samples = 213</text>
<text text-anchor="middle" x="1082" y="-543.8" font-family="Times,serif" font-size="14.00">value = [167.0, 167.0]</text>
<text text-anchor="middle" x="1082" y="-528.8" font-family="Times,serif" font-size="14.00">class = Non&#45;obstructive</text>
</g>
<!-- 1 -->
<g id="node2" class="node">
<title>1</title>
<polygon fill="none" stroke="black" points="895.5,-485 698.5,-485 698.5,-387 895.5,-387 895.5,-485"/>
<text text-anchor="middle" x="797" y="-469.8" font-family="Times,serif" font-size="14.00">node #1</text>
<text text-anchor="middle" x="797" y="-454.8" font-family="Times,serif" font-size="14.00">FVCPostPercent &lt;= 61.5</text>
<text text-anchor="middle" x="797" y="-439.8" font-family="Times,serif" font-size="14.00">gini = 0.35</text>
<text text-anchor="middle" x="797" y="-424.8" font-family="Times,serif" font-size="14.00">samples = 107</text>
<text text-anchor="middle" x="797" y="-409.8" font-family="Times,serif" font-size="14.00">value = [40.31, 137.775]</text>
<text text-anchor="middle" x="797" y="-394.8" font-family="Times,serif" font-size="14.00">class = Obstructive</text>
</g>
<!-- 0&#45;&gt;1 -->
<g id="edge1" class="edge">
<title>0&#45;&gt;1</title>
<path fill="none" stroke="black" d="M983.12,-523.2C957.92,-511.53 930.7,-498.93 905.07,-487.05"/>
<polygon fill="black" stroke="black" points="906.25,-483.74 895.7,-482.72 903.31,-490.09 906.25,-483.74"/>
<text text-anchor="middle" x="904.32" y="-502.49" font-family="Times,serif" font-size="14.00">True</text>
</g>
<!-- 14 -->
<g id="node15" class="node">
<title>14</title>
<polygon fill="none" stroke="black" points="1383,-485 1189,-485 1189,-387 1383,-387 1383,-485"/>
<text text-anchor="middle" x="1286" y="-469.8" font-family="Times,serif" font-size="14.00">node #14</text>
<text text-anchor="middle" x="1286" y="-454.8" font-family="Times,serif" font-size="14.00">FEV1PreVal &lt;= 1.885</text>
<text text-anchor="middle" x="1286" y="-439.8" font-family="Times,serif" font-size="14.00">gini = 0.305</text>
<text text-anchor="middle" x="1286" y="-424.8" font-family="Times,serif" font-size="14.00">samples = 106</text>
<text text-anchor="middle" x="1286" y="-409.8" font-family="Times,serif" font-size="14.00">value = [126.69, 29.225]</text>
<text text-anchor="middle" x="1286" y="-394.8" font-family="Times,serif" font-size="14.00">class = Non&#45;obstructive</text>
</g>
<!-- 0&#45;&gt;14 -->
<g id="edge14" class="edge">
<title>0&#45;&gt;14</title>
<path fill="none" stroke="black" d="M1156.23,-520.97C1171.41,-511.14 1187.49,-500.74 1202.96,-490.73"/>
<polygon fill="black" stroke="black" points="1204.99,-493.58 1211.49,-485.21 1201.19,-487.71 1204.99,-493.58"/>
<text text-anchor="middle" x="1206.25" y="-505.96" font-family="Times,serif" font-size="14.00">False</text>
</g>
<!-- 2 -->
<g id="node3" class="node">
<title>2</title>
<polygon fill="none" stroke="black" points="568.5,-351 371.5,-351 371.5,-253 568.5,-253 568.5,-351"/>
<text text-anchor="middle" x="470" y="-335.8" font-family="Times,serif" font-size="14.00">node #2</text>
<text text-anchor="middle" x="470" y="-320.8" font-family="Times,serif" font-size="14.00">FEFPostPercent &lt;= 30.5</text>
<text text-anchor="middle" x="470" y="-305.8" font-family="Times,serif" font-size="14.00">gini = 0.499</text>
<text text-anchor="middle" x="470" y="-290.8" font-family="Times,serif" font-size="14.00">samples = 38</text>
<text text-anchor="middle" x="470" y="-275.8" font-family="Times,serif" font-size="14.00">value = [28.793, 31.312]</text>
<text text-anchor="middle" x="470" y="-260.8" font-family="Times,serif" font-size="14.00">class = Obstructive</text>
</g>
<!-- 1&#45;&gt;2 -->
<g id="edge2" class="edge">
<title>1&#45;&gt;2</title>
<path fill="none" stroke="black" d="M698.45,-395.22C660.57,-379.93 617.13,-362.39 578.38,-346.75"/>
<polygon fill="black" stroke="black" points="579.22,-343.31 568.63,-342.82 576.6,-349.8 579.22,-343.31"/>
</g>
<!-- 7 -->
<g id="node8" class="node">
<title>7</title>
<polygon fill="none" stroke="black" points="898.5,-351 695.5,-351 695.5,-253 898.5,-253 898.5,-351"/>
<text text-anchor="middle" x="797" y="-335.8" font-family="Times,serif" font-size="14.00">node #7</text>
<text text-anchor="middle" x="797" y="-320.8" font-family="Times,serif" font-size="14.00">FVCPrePercent &lt;= 51.5</text>
<text text-anchor="middle" x="797" y="-305.8" font-family="Times,serif" font-size="14.00">gini = 0.176</text>
<text text-anchor="middle" x="797" y="-290.8" font-family="Times,serif" font-size="14.00">samples = 69</text>
<text text-anchor="middle" x="797" y="-275.8" font-family="Times,serif" font-size="14.00">value = [11.517, 106.463]</text>
<text text-anchor="middle" x="797" y="-260.8" font-family="Times,serif" font-size="14.00">class = Obstructive</text>
</g>
<!-- 1&#45;&gt;7 -->
<g id="edge7" class="edge">
<title>1&#45;&gt;7</title>
<path fill="none" stroke="black" d="M797,-386.97C797,-378.69 797,-370 797,-361.48"/>
<polygon fill="black" stroke="black" points="800.5,-361.21 797,-351.21 793.5,-361.21 800.5,-361.21"/>
</g>
<!-- 3 -->
<g id="node4" class="node">
<title>3</title>
<polygon fill="none" stroke="black" points="357.5,-217 172.5,-217 172.5,-119 357.5,-119 357.5,-217"/>
<text text-anchor="middle" x="265" y="-201.8" font-family="Times,serif" font-size="14.00">node #3</text>
<text text-anchor="middle" x="265" y="-186.8" font-family="Times,serif" font-size="14.00">FEFPostVal &lt;= 0.565</text>
<text text-anchor="middle" x="265" y="-171.8" font-family="Times,serif" font-size="14.00">gini = 0.316</text>
<text text-anchor="middle" x="265" y="-156.8" font-family="Times,serif" font-size="14.00">samples = 24</text>
<text text-anchor="middle" x="265" y="-141.8" font-family="Times,serif" font-size="14.00">value = [7.678, 31.312]</text>
<text text-anchor="middle" x="265" y="-126.8" font-family="Times,serif" font-size="14.00">class = Obstructive</text>
</g>
<!-- 2&#45;&gt;3 -->
<g id="edge3" class="edge">
<title>2&#45;&gt;3</title>
<path fill="none" stroke="black" d="M395.41,-252.97C380.15,-243.14 363.99,-232.74 348.44,-222.73"/>
<polygon fill="black" stroke="black" points="350.18,-219.68 339.88,-217.21 346.39,-225.57 350.18,-219.68"/>
</g>
<!-- 6 -->
<g id="node7" class="node">
<title>6</title>
<polygon fill="none" stroke="black" points="564,-209.5 376,-209.5 376,-126.5 564,-126.5 564,-209.5"/>
<text text-anchor="middle" x="470" y="-194.3" font-family="Times,serif" font-size="14.00">node #6</text>
<text text-anchor="middle" x="470" y="-179.3" font-family="Times,serif" font-size="14.00">gini = 0.0</text>
<text text-anchor="middle" x="470" y="-164.3" font-family="Times,serif" font-size="14.00">samples = 14</text>
<text text-anchor="middle" x="470" y="-149.3" font-family="Times,serif" font-size="14.00">value = [21.115, 0.0]</text>
<text text-anchor="middle" x="470" y="-134.3" font-family="Times,serif" font-size="14.00">class = Non&#45;obstructive</text>
</g>
<!-- 2&#45;&gt;6 -->
<g id="edge6" class="edge">
<title>2&#45;&gt;6</title>
<path fill="none" stroke="black" d="M470,-252.97C470,-242.25 470,-230.84 470,-219.99"/>
<polygon fill="black" stroke="black" points="473.5,-219.82 470,-209.82 466.5,-219.82 473.5,-219.82"/>
</g>
<!-- 4 -->
<g id="node5" class="node">
<title>4</title>
<polygon fill="none" stroke="black" points="176,-83 0,-83 0,0 176,0 176,-83"/>
<text text-anchor="middle" x="88" y="-67.8" font-family="Times,serif" font-size="14.00">node #4</text>
<text text-anchor="middle" x="88" y="-52.8" font-family="Times,serif" font-size="14.00">gini = 0.074</text>
<text text-anchor="middle" x="88" y="-37.8" font-family="Times,serif" font-size="14.00">samples = 14</text>
<text text-anchor="middle" x="88" y="-22.8" font-family="Times,serif" font-size="14.00">value = [0.96, 24.006]</text>
<text text-anchor="middle" x="88" y="-7.8" font-family="Times,serif" font-size="14.00">class = Obstructive</text>
</g>
<!-- 3&#45;&gt;4 -->
<g id="edge4" class="edge">
<title>3&#45;&gt;4</title>
<path fill="none" stroke="black" d="M196.57,-118.87C182.63,-109.06 167.99,-98.77 154.14,-89.02"/>
<polygon fill="black" stroke="black" points="155.82,-85.92 145.62,-83.03 151.79,-91.65 155.82,-85.92"/>
</g>
<!-- 5 -->
<g id="node6" class="node">
<title>5</title>
<polygon fill="none" stroke="black" points="370,-83 194,-83 194,0 370,0 370,-83"/>
<text text-anchor="middle" x="282" y="-67.8" font-family="Times,serif" font-size="14.00">node #5</text>
<text text-anchor="middle" x="282" y="-52.8" font-family="Times,serif" font-size="14.00">gini = 0.499</text>
<text text-anchor="middle" x="282" y="-37.8" font-family="Times,serif" font-size="14.00">samples = 10</text>
<text text-anchor="middle" x="282" y="-22.8" font-family="Times,serif" font-size="14.00">value = [6.718, 7.306]</text>
<text text-anchor="middle" x="282" y="-7.8" font-family="Times,serif" font-size="14.00">class = Obstructive</text>
</g>
<!-- 3&#45;&gt;5 -->
<g id="edge5" class="edge">
<title>3&#45;&gt;5</title>
<path fill="none" stroke="black" d="M271.57,-118.87C272.72,-110.5 273.91,-101.77 275.06,-93.33"/>
<polygon fill="black" stroke="black" points="278.55,-93.61 276.44,-83.23 271.62,-92.67 278.55,-93.61"/>
</g>
<!-- 8 -->
<g id="node9" class="node">
<title>8</title>
<polygon fill="none" stroke="black" points="797.5,-217 582.5,-217 582.5,-119 797.5,-119 797.5,-217"/>
<text text-anchor="middle" x="690" y="-201.8" font-family="Times,serif" font-size="14.00">node #8</text>
<text text-anchor="middle" x="690" y="-186.8" font-family="Times,serif" font-size="14.00">FVCPostPercent &lt;= 71.492</text>
<text text-anchor="middle" x="690" y="-171.8" font-family="Times,serif" font-size="14.00">gini = 0.487</text>
<text text-anchor="middle" x="690" y="-156.8" font-family="Times,serif" font-size="14.00">samples = 4</text>
<text text-anchor="middle" x="690" y="-141.8" font-family="Times,serif" font-size="14.00">value = [2.879, 2.088]</text>
<text text-anchor="middle" x="690" y="-126.8" font-family="Times,serif" font-size="14.00">class = Non&#45;obstructive</text>
</g>
<!-- 7&#45;&gt;8 -->
<g id="edge8" class="edge">
<title>7&#45;&gt;8</title>
<path fill="none" stroke="black" d="M758.07,-252.97C750.77,-243.96 743.07,-234.47 735.59,-225.24"/>
<polygon fill="black" stroke="black" points="738.1,-222.78 729.08,-217.21 732.66,-227.19 738.1,-222.78"/>
</g>
<!-- 11 -->
<g id="node12" class="node">
<title>11</title>
<polygon fill="none" stroke="black" points="1022,-217 816,-217 816,-119 1022,-119 1022,-217"/>
<text text-anchor="middle" x="919" y="-201.8" font-family="Times,serif" font-size="14.00">node #11</text>
<text text-anchor="middle" x="919" y="-186.8" font-family="Times,serif" font-size="14.00">FEV1PostPercent &lt;= 78.5</text>
<text text-anchor="middle" x="919" y="-171.8" font-family="Times,serif" font-size="14.00">gini = 0.141</text>
<text text-anchor="middle" x="919" y="-156.8" font-family="Times,serif" font-size="14.00">samples = 65</text>
<text text-anchor="middle" x="919" y="-141.8" font-family="Times,serif" font-size="14.00">value = [8.638, 104.375]</text>
<text text-anchor="middle" x="919" y="-126.8" font-family="Times,serif" font-size="14.00">class = Obstructive</text>
</g>
<!-- 7&#45;&gt;11 -->
<g id="edge11" class="edge">
<title>7&#45;&gt;11</title>
<path fill="none" stroke="black" d="M841.39,-252.97C849.88,-243.78 858.84,-234.09 867.54,-224.68"/>
<polygon fill="black" stroke="black" points="870.22,-226.93 874.44,-217.21 865.08,-222.18 870.22,-226.93"/>
</g>
<!-- 9 -->
<g id="node10" class="node">
<title>9</title>
<polygon fill="none" stroke="black" points="593,-83 405,-83 405,0 593,0 593,-83"/>
<text text-anchor="middle" x="499" y="-67.8" font-family="Times,serif" font-size="14.00">node #9</text>
<text text-anchor="middle" x="499" y="-52.8" font-family="Times,serif" font-size="14.00">gini = 0.0</text>
<text text-anchor="middle" x="499" y="-37.8" font-family="Times,serif" font-size="14.00">samples = 2</text>
<text text-anchor="middle" x="499" y="-22.8" font-family="Times,serif" font-size="14.00">value = [2.879, 0.0]</text>
<text text-anchor="middle" x="499" y="-7.8" font-family="Times,serif" font-size="14.00">class = Non&#45;obstructive</text>
</g>
<!-- 8&#45;&gt;9 -->
<g id="edge9" class="edge">
<title>8&#45;&gt;9</title>
<path fill="none" stroke="black" d="M616.15,-118.87C600.97,-108.97 585.02,-98.57 569.95,-88.74"/>
<polygon fill="black" stroke="black" points="571.47,-85.56 561.18,-83.03 567.65,-91.43 571.47,-85.56"/>
</g>
<!-- 10 -->
<g id="node11" class="node">
<title>10</title>
<polygon fill="none" stroke="black" points="769,-83 611,-83 611,0 769,0 769,-83"/>
<text text-anchor="middle" x="690" y="-67.8" font-family="Times,serif" font-size="14.00">node #10</text>
<text text-anchor="middle" x="690" y="-52.8" font-family="Times,serif" font-size="14.00">gini = &#45;0.0</text>
<text text-anchor="middle" x="690" y="-37.8" font-family="Times,serif" font-size="14.00">samples = 2</text>
<text text-anchor="middle" x="690" y="-22.8" font-family="Times,serif" font-size="14.00">value = [0.0, 2.088]</text>
<text text-anchor="middle" x="690" y="-7.8" font-family="Times,serif" font-size="14.00">class = Obstructive</text>
</g>
<!-- 8&#45;&gt;10 -->
<g id="edge10" class="edge">
<title>8&#45;&gt;10</title>
<path fill="none" stroke="black" d="M690,-118.87C690,-110.5 690,-101.77 690,-93.33"/>
<polygon fill="black" stroke="black" points="693.5,-93.23 690,-83.23 686.5,-93.23 693.5,-93.23"/>
</g>
<!-- 12 -->
<g id="node13" class="node">
<title>12</title>
<polygon fill="none" stroke="black" points="971.5,-83 786.5,-83 786.5,0 971.5,0 971.5,-83"/>
<text text-anchor="middle" x="879" y="-67.8" font-family="Times,serif" font-size="14.00">node #12</text>
<text text-anchor="middle" x="879" y="-52.8" font-family="Times,serif" font-size="14.00">gini = 0.057</text>
<text text-anchor="middle" x="879" y="-37.8" font-family="Times,serif" font-size="14.00">samples = 57</text>
<text text-anchor="middle" x="879" y="-22.8" font-family="Times,serif" font-size="14.00">value = [2.879, 96.025]</text>
<text text-anchor="middle" x="879" y="-7.8" font-family="Times,serif" font-size="14.00">class = Obstructive</text>
</g>
<!-- 11&#45;&gt;12 -->
<g id="edge12" class="edge">
<title>11&#45;&gt;12</title>
<path fill="none" stroke="black" d="M903.53,-118.87C900.79,-110.31 897.92,-101.39 895.15,-92.78"/>
<polygon fill="black" stroke="black" points="898.48,-91.68 892.09,-83.23 891.81,-93.82 898.48,-91.68"/>
</g>
<!-- 13 -->
<g id="node14" class="node">
<title>13</title>
<polygon fill="none" stroke="black" points="1156.5,-83 989.5,-83 989.5,0 1156.5,0 1156.5,-83"/>
<text text-anchor="middle" x="1073" y="-67.8" font-family="Times,serif" font-size="14.00">node #13</text>
<text text-anchor="middle" x="1073" y="-52.8" font-family="Times,serif" font-size="14.00">gini = 0.483</text>
<text text-anchor="middle" x="1073" y="-37.8" font-family="Times,serif" font-size="14.00">samples = 8</text>
<text text-anchor="middle" x="1073" y="-22.8" font-family="Times,serif" font-size="14.00">value = [5.759, 8.35]</text>
<text text-anchor="middle" x="1073" y="-7.8" font-family="Times,serif" font-size="14.00">class = Obstructive</text>
</g>
<!-- 11&#45;&gt;13 -->
<g id="edge13" class="edge">
<title>11&#45;&gt;13</title>
<path fill="none" stroke="black" d="M978.54,-118.87C990.37,-109.3 1002.78,-99.27 1014.57,-89.74"/>
<polygon fill="black" stroke="black" points="1017.04,-92.24 1022.62,-83.23 1012.64,-86.8 1017.04,-92.24"/>
</g>
<!-- 15 -->
<g id="node16" class="node">
<title>15</title>
<polygon fill="none" stroke="black" points="1380,-351 1192,-351 1192,-253 1380,-253 1380,-351"/>
<text text-anchor="middle" x="1286" y="-335.8" font-family="Times,serif" font-size="14.00">node #15</text>
<text text-anchor="middle" x="1286" y="-320.8" font-family="Times,serif" font-size="14.00">FEFPostVal &lt;= 0.98</text>
<text text-anchor="middle" x="1286" y="-305.8" font-family="Times,serif" font-size="14.00">gini = 0.109</text>
<text text-anchor="middle" x="1286" y="-290.8" font-family="Times,serif" font-size="14.00">samples = 63</text>
<text text-anchor="middle" x="1286" y="-275.8" font-family="Times,serif" font-size="14.00">value = [85.42, 5.219]</text>
<text text-anchor="middle" x="1286" y="-260.8" font-family="Times,serif" font-size="14.00">class = Non&#45;obstructive</text>
</g>
<!-- 14&#45;&gt;15 -->
<g id="edge15" class="edge">
<title>14&#45;&gt;15</title>
<path fill="none" stroke="black" d="M1286,-386.97C1286,-378.69 1286,-370 1286,-361.48"/>
<polygon fill="black" stroke="black" points="1289.5,-361.21 1286,-351.21 1282.5,-361.21 1289.5,-361.21"/>
</g>
<!-- 20 -->
<g id="node21" class="node">
<title>20</title>
<polygon fill="none" stroke="black" points="1847.5,-351 1656.5,-351 1656.5,-253 1847.5,-253 1847.5,-351"/>
<text text-anchor="middle" x="1752" y="-335.8" font-family="Times,serif" font-size="14.00">node #20</text>
<text text-anchor="middle" x="1752" y="-320.8" font-family="Times,serif" font-size="14.00">FEFPrePercent &lt;= 57.5</text>
<text text-anchor="middle" x="1752" y="-305.8" font-family="Times,serif" font-size="14.00">gini = 0.465</text>
<text text-anchor="middle" x="1752" y="-290.8" font-family="Times,serif" font-size="14.00">samples = 43</text>
<text text-anchor="middle" x="1752" y="-275.8" font-family="Times,serif" font-size="14.00">value = [41.27, 24.006]</text>
<text text-anchor="middle" x="1752" y="-260.8" font-family="Times,serif" font-size="14.00">class = Non&#45;obstructive</text>
</g>
<!-- 14&#45;&gt;20 -->
<g id="edge20" class="edge">
<title>14&#45;&gt;20</title>
<path fill="none" stroke="black" d="M1383.12,-407.49C1459.99,-385.72 1567.19,-355.35 1646.22,-332.96"/>
<polygon fill="black" stroke="black" points="1647.53,-336.23 1656.2,-330.14 1645.63,-329.49 1647.53,-336.23"/>
</g>
<!-- 16 -->
<g id="node17" class="node">
<title>16</title>
<polygon fill="none" stroke="black" points="1269,-209.5 1111,-209.5 1111,-126.5 1269,-126.5 1269,-209.5"/>
<text text-anchor="middle" x="1190" y="-194.3" font-family="Times,serif" font-size="14.00">node #16</text>
<text text-anchor="middle" x="1190" y="-179.3" font-family="Times,serif" font-size="14.00">gini = 0.0</text>
<text text-anchor="middle" x="1190" y="-164.3" font-family="Times,serif" font-size="14.00">samples = 1</text>
<text text-anchor="middle" x="1190" y="-149.3" font-family="Times,serif" font-size="14.00">value = [0.0, 1.044]</text>
<text text-anchor="middle" x="1190" y="-134.3" font-family="Times,serif" font-size="14.00">class = Obstructive</text>
</g>
<!-- 15&#45;&gt;16 -->
<g id="edge16" class="edge">
<title>15&#45;&gt;16</title>
<path fill="none" stroke="black" d="M1251.07,-252.97C1242.79,-241.58 1233.94,-229.42 1225.63,-217.99"/>
<polygon fill="black" stroke="black" points="1228.4,-215.85 1219.68,-209.82 1222.74,-219.96 1228.4,-215.85"/>
</g>
<!-- 17 -->
<g id="node18" class="node">
<title>17</title>
<polygon fill="none" stroke="black" points="1478.5,-217 1287.5,-217 1287.5,-119 1478.5,-119 1478.5,-217"/>
<text text-anchor="middle" x="1383" y="-201.8" font-family="Times,serif" font-size="14.00">node #17</text>
<text text-anchor="middle" x="1383" y="-186.8" font-family="Times,serif" font-size="14.00">FEFPrePercent &lt;= 51.5</text>
<text text-anchor="middle" x="1383" y="-171.8" font-family="Times,serif" font-size="14.00">gini = 0.089</text>
<text text-anchor="middle" x="1383" y="-156.8" font-family="Times,serif" font-size="14.00">samples = 62</text>
<text text-anchor="middle" x="1383" y="-141.8" font-family="Times,serif" font-size="14.00">value = [85.42, 4.175]</text>
<text text-anchor="middle" x="1383" y="-126.8" font-family="Times,serif" font-size="14.00">class = Non&#45;obstructive</text>
</g>
<!-- 15&#45;&gt;17 -->
<g id="edge17" class="edge">
<title>15&#45;&gt;17</title>
<path fill="none" stroke="black" d="M1321.29,-252.97C1327.85,-244.05 1334.75,-234.66 1341.47,-225.52"/>
<polygon fill="black" stroke="black" points="1344.47,-227.34 1347.57,-217.21 1338.83,-223.2 1344.47,-227.34"/>
</g>
<!-- 18 -->
<g id="node19" class="node">
<title>18</title>
<polygon fill="none" stroke="black" points="1341.5,-83 1174.5,-83 1174.5,0 1341.5,0 1341.5,-83"/>
<text text-anchor="middle" x="1258" y="-67.8" font-family="Times,serif" font-size="14.00">node #18</text>
<text text-anchor="middle" x="1258" y="-52.8" font-family="Times,serif" font-size="14.00">gini = 0.432</text>
<text text-anchor="middle" x="1258" y="-37.8" font-family="Times,serif" font-size="14.00">samples = 5</text>
<text text-anchor="middle" x="1258" y="-22.8" font-family="Times,serif" font-size="14.00">value = [1.92, 4.175]</text>
<text text-anchor="middle" x="1258" y="-7.8" font-family="Times,serif" font-size="14.00">class = Obstructive</text>
</g>
<!-- 17&#45;&gt;18 -->
<g id="edge18" class="edge">
<title>17&#45;&gt;18</title>
<path fill="none" stroke="black" d="M1334.67,-118.87C1325.26,-109.49 1315.39,-99.66 1305.98,-90.29"/>
<polygon fill="black" stroke="black" points="1308.45,-87.81 1298.89,-83.23 1303.51,-92.77 1308.45,-87.81"/>
</g>
<!-- 19 -->
<g id="node20" class="node">
<title>19</title>
<polygon fill="none" stroke="black" points="1548,-83 1360,-83 1360,0 1548,0 1548,-83"/>
<text text-anchor="middle" x="1454" y="-67.8" font-family="Times,serif" font-size="14.00">node #19</text>
<text text-anchor="middle" x="1454" y="-52.8" font-family="Times,serif" font-size="14.00">gini = 0.0</text>
<text text-anchor="middle" x="1454" y="-37.8" font-family="Times,serif" font-size="14.00">samples = 57</text>
<text text-anchor="middle" x="1454" y="-22.8" font-family="Times,serif" font-size="14.00">value = [83.5, 0.0]</text>
<text text-anchor="middle" x="1454" y="-7.8" font-family="Times,serif" font-size="14.00">class = Non&#45;obstructive</text>
</g>
<!-- 17&#45;&gt;19 -->
<g id="edge19" class="edge">
<title>17&#45;&gt;19</title>
<path fill="none" stroke="black" d="M1410.45,-118.87C1415.48,-110.04 1420.75,-100.81 1425.8,-91.95"/>
<polygon fill="black" stroke="black" points="1428.86,-93.65 1430.77,-83.23 1422.78,-90.18 1428.86,-93.65"/>
</g>
<!-- 21 -->
<g id="node22" class="node">
<title>21</title>
<polygon fill="none" stroke="black" points="1844.5,-217 1659.5,-217 1659.5,-119 1844.5,-119 1844.5,-217"/>
<text text-anchor="middle" x="1752" y="-201.8" font-family="Times,serif" font-size="14.00">node #21</text>
<text text-anchor="middle" x="1752" y="-186.8" font-family="Times,serif" font-size="14.00">FEV1PostVal &lt;= 2.24</text>
<text text-anchor="middle" x="1752" y="-171.8" font-family="Times,serif" font-size="14.00">gini = 0.393</text>
<text text-anchor="middle" x="1752" y="-156.8" font-family="Times,serif" font-size="14.00">samples = 7</text>
<text text-anchor="middle" x="1752" y="-141.8" font-family="Times,serif" font-size="14.00">value = [3.839, 10.438]</text>
<text text-anchor="middle" x="1752" y="-126.8" font-family="Times,serif" font-size="14.00">class = Obstructive</text>
</g>
<!-- 20&#45;&gt;21 -->
<g id="edge21" class="edge">
<title>20&#45;&gt;21</title>
<path fill="none" stroke="black" d="M1752,-252.97C1752,-244.69 1752,-236 1752,-227.48"/>
<polygon fill="black" stroke="black" points="1755.5,-227.21 1752,-217.21 1748.5,-227.21 1755.5,-227.21"/>
</g>
<!-- 24 -->
<g id="node25" class="node">
<title>24</title>
<polygon fill="none" stroke="black" points="2149,-217 1955,-217 1955,-119 2149,-119 2149,-217"/>
<text text-anchor="middle" x="2052" y="-201.8" font-family="Times,serif" font-size="14.00">node #24</text>
<text text-anchor="middle" x="2052" y="-186.8" font-family="Times,serif" font-size="14.00">FVCPreVal &lt;= 3.625</text>
<text text-anchor="middle" x="2052" y="-171.8" font-family="Times,serif" font-size="14.00">gini = 0.391</text>
<text text-anchor="middle" x="2052" y="-156.8" font-family="Times,serif" font-size="14.00">samples = 36</text>
<text text-anchor="middle" x="2052" y="-141.8" font-family="Times,serif" font-size="14.00">value = [37.431, 13.569]</text>
<text text-anchor="middle" x="2052" y="-126.8" font-family="Times,serif" font-size="14.00">class = Non&#45;obstructive</text>
</g>
<!-- 20&#45;&gt;24 -->
<g id="edge24" class="edge">
<title>20&#45;&gt;24</title>
<path fill="none" stroke="black" d="M1847.75,-258.87C1878.88,-245.17 1913.62,-229.89 1945.5,-215.86"/>
<polygon fill="black" stroke="black" points="1947.1,-218.98 1954.85,-211.75 1944.28,-212.57 1947.1,-218.98"/>
</g>
<!-- 22 -->
<g id="node23" class="node">
<title>22</title>
<polygon fill="none" stroke="black" points="1754,-83 1566,-83 1566,0 1754,0 1754,-83"/>
<text text-anchor="middle" x="1660" y="-67.8" font-family="Times,serif" font-size="14.00">node #22</text>
<text text-anchor="middle" x="1660" y="-52.8" font-family="Times,serif" font-size="14.00">gini = 0.0</text>
<text text-anchor="middle" x="1660" y="-37.8" font-family="Times,serif" font-size="14.00">samples = 2</text>
<text text-anchor="middle" x="1660" y="-22.8" font-family="Times,serif" font-size="14.00">value = [3.839, 0.0]</text>
<text text-anchor="middle" x="1660" y="-7.8" font-family="Times,serif" font-size="14.00">class = Non&#45;obstructive</text>
</g>
<!-- 21&#45;&gt;22 -->
<g id="edge22" class="edge">
<title>21&#45;&gt;22</title>
<path fill="none" stroke="black" d="M1716.43,-118.87C1709.77,-109.85 1702.81,-100.43 1696.13,-91.39"/>
<polygon fill="black" stroke="black" points="1698.86,-89.19 1690.1,-83.23 1693.23,-93.35 1698.86,-89.19"/>
</g>
<!-- 23 -->
<g id="node24" class="node">
<title>23</title>
<polygon fill="none" stroke="black" points="1939.5,-83 1772.5,-83 1772.5,0 1939.5,0 1939.5,-83"/>
<text text-anchor="middle" x="1856" y="-67.8" font-family="Times,serif" font-size="14.00">node #23</text>
<text text-anchor="middle" x="1856" y="-52.8" font-family="Times,serif" font-size="14.00">gini = 0.0</text>
<text text-anchor="middle" x="1856" y="-37.8" font-family="Times,serif" font-size="14.00">samples = 5</text>
<text text-anchor="middle" x="1856" y="-22.8" font-family="Times,serif" font-size="14.00">value = [0.0, 10.437]</text>
<text text-anchor="middle" x="1856" y="-7.8" font-family="Times,serif" font-size="14.00">class = Obstructive</text>
</g>
<!-- 21&#45;&gt;23 -->
<g id="edge23" class="edge">
<title>21&#45;&gt;23</title>
<path fill="none" stroke="black" d="M1792.21,-118.87C1799.81,-109.76 1807.77,-100.23 1815.39,-91.12"/>
<polygon fill="black" stroke="black" points="1818.25,-93.15 1821.98,-83.23 1812.88,-88.66 1818.25,-93.15"/>
</g>
<!-- 25 -->
<g id="node26" class="node">
<title>25</title>
<polygon fill="none" stroke="black" points="2146,-83 1958,-83 1958,0 2146,0 2146,-83"/>
<text text-anchor="middle" x="2052" y="-67.8" font-family="Times,serif" font-size="14.00">node #25</text>
<text text-anchor="middle" x="2052" y="-52.8" font-family="Times,serif" font-size="14.00">gini = 0.326</text>
<text text-anchor="middle" x="2052" y="-37.8" font-family="Times,serif" font-size="14.00">samples = 31</text>
<text text-anchor="middle" x="2052" y="-22.8" font-family="Times,serif" font-size="14.00">value = [36.471, 9.394]</text>
<text text-anchor="middle" x="2052" y="-7.8" font-family="Times,serif" font-size="14.00">class = Non&#45;obstructive</text>
</g>
<!-- 24&#45;&gt;25 -->
<g id="edge25" class="edge">
<title>24&#45;&gt;25</title>
<path fill="none" stroke="black" d="M2052,-118.87C2052,-110.5 2052,-101.77 2052,-93.33"/>
<polygon fill="black" stroke="black" points="2055.5,-93.23 2052,-83.23 2048.5,-93.23 2055.5,-93.23"/>
</g>
<!-- 26 -->
<g id="node27" class="node">
<title>26</title>
<polygon fill="none" stroke="black" points="2331.5,-83 2164.5,-83 2164.5,0 2331.5,0 2331.5,-83"/>
<text text-anchor="middle" x="2248" y="-67.8" font-family="Times,serif" font-size="14.00">node #26</text>
<text text-anchor="middle" x="2248" y="-52.8" font-family="Times,serif" font-size="14.00">gini = 0.304</text>
<text text-anchor="middle" x="2248" y="-37.8" font-family="Times,serif" font-size="14.00">samples = 5</text>
<text text-anchor="middle" x="2248" y="-22.8" font-family="Times,serif" font-size="14.00">value = [0.96, 4.175]</text>
<text text-anchor="middle" x="2248" y="-7.8" font-family="Times,serif" font-size="14.00">class = Obstructive</text>
</g>
<!-- 24&#45;&gt;26 -->
<g id="edge26" class="edge">
<title>24&#45;&gt;26</title>
<path fill="none" stroke="black" d="M2127.78,-118.87C2143.5,-108.88 2160.03,-98.38 2175.63,-88.47"/>
<polygon fill="black" stroke="black" points="2177.63,-91.35 2184.19,-83.03 2173.87,-85.44 2177.63,-91.35"/>
</g>
</g>
</svg>
