<?xml version="1.0" encoding="UTF-8" standalone="no"?>
<!DOCTYPE svg PUBLIC "-//W3C//DTD SVG 1.1//EN"
 "http://www.w3.org/Graphics/SVG/1.1/DTD/svg11.dtd">
<!-- Generated by graphviz version 2.43.0 (0)
 -->
<!-- Title: Tree Pages: 1 -->
<svg width="2563pt" height="627pt"
 viewBox="0.00 0.00 2563.00 627.00" xmlns="http://www.w3.org/2000/svg" xmlns:xlink="http://www.w3.org/1999/xlink">
<g id="graph0" class="graph" transform="scale(1 1) rotate(0) translate(4 623)">
<title>Tree</title>
<polygon fill="white" stroke="transparent" points="-4,4 -4,-623 2559,-623 2559,4 -4,4"/>
<!-- 0 -->
<g id="node1" class="node">
<title>0</title>
<polygon fill="none" stroke="black" points="1551.5,-619 1360.5,-619 1360.5,-521 1551.5,-521 1551.5,-619"/>
<text text-anchor="middle" x="1456" y="-603.8" font-family="Times,serif" font-size="14.00">node #0</text>
<text text-anchor="middle" x="1456" y="-588.8" font-family="Times,serif" font-size="14.00">FEFPrePercent &lt;= 57.5</text>
<text text-anchor="middle" x="1456" y="-573.8" font-family="Times,serif" font-size="14.00">gini = 0.5</text>
<text text-anchor="middle" x="1456" y="-558.8" font-family="Times,serif" font-size="14.00">samples = 213</text>
<text text-anchor="middle" x="1456" y="-543.8" font-family="Times,serif" font-size="14.00">value = [167.0, 167.0]</text>
<text text-anchor="middle" x="1456" y="-528.8" font-family="Times,serif" font-size="14.00">class = Non&#45;obstructive</text>
</g>
<!-- 1 -->
<g id="node2" class="node">
<title>1</title>
<polygon fill="none" stroke="black" points="1252.5,-485 1049.5,-485 1049.5,-387 1252.5,-387 1252.5,-485"/>
<text text-anchor="middle" x="1151" y="-469.8" font-family="Times,serif" font-size="14.00">node #1</text>
<text text-anchor="middle" x="1151" y="-454.8" font-family="Times,serif" font-size="14.00">FVCPostVal &lt;= 1.5</text>
<text text-anchor="middle" x="1151" y="-439.8" font-family="Times,serif" font-size="14.00">gini = 0.351</text>
<text text-anchor="middle" x="1151" y="-424.8" font-family="Times,serif" font-size="14.00">samples = 121</text>
<text text-anchor="middle" x="1151" y="-409.8" font-family="Times,serif" font-size="14.00">value = [43.521, 148.225]</text>
<text text-anchor="middle" x="1151" y="-394.8" font-family="Times,serif" font-size="14.00">class = Obstructive</text>
</g>
<!-- 0&#45;&gt;1 -->
<g id="edge1" class="edge">
<title>0&#45;&gt;1</title>
<path fill="none" stroke="black" d="M1360.33,-527.6C1329.17,-514.11 1294.31,-499.02 1262.11,-485.09"/>
<polygon fill="black" stroke="black" points="1263.23,-481.76 1252.66,-481 1260.45,-488.18 1263.23,-481.76"/>
<text text-anchor="middle" x="1261.86" y="-500.54" font-family="Times,serif" font-size="14.00">True</text>
</g>
<!-- 16 -->
<g id="node17" class="node">
<title>16</title>
<polygon fill="none" stroke="black" points="2058.5,-485 1855.5,-485 1855.5,-387 2058.5,-387 2058.5,-485"/>
<text text-anchor="middle" x="1957" y="-469.8" font-family="Times,serif" font-size="14.00">node #16</text>
<text text-anchor="middle" x="1957" y="-454.8" font-family="Times,serif" font-size="14.00">FEV1PostVal &lt;= 3.125</text>
<text text-anchor="middle" x="1957" y="-439.8" font-family="Times,serif" font-size="14.00">gini = 0.229</text>
<text text-anchor="middle" x="1957" y="-424.8" font-family="Times,serif" font-size="14.00">samples = 92</text>
<text text-anchor="middle" x="1957" y="-409.8" font-family="Times,serif" font-size="14.00">value = [123.479, 18.775]</text>
<text text-anchor="middle" x="1957" y="-394.8" font-family="Times,serif" font-size="14.00">class = Non&#45;obstructive</text>
</g>
<!-- 0&#45;&gt;16 -->
<g id="edge16" class="edge">
<title>0&#45;&gt;16</title>
<path fill="none" stroke="black" d="M1551.71,-543.78C1635.48,-521.71 1757.23,-489.63 1845.4,-466.4"/>
<polygon fill="black" stroke="black" points="1846.4,-469.76 1855.18,-463.83 1844.61,-462.99 1846.4,-469.76"/>
<text text-anchor="middle" x="1842.58" y="-481.73" font-family="Times,serif" font-size="14.00">False</text>
</g>
<!-- 2 -->
<g id="node3" class="node">
<title>2</title>
<polygon fill="none" stroke="black" points="655,-351 461,-351 461,-253 655,-253 655,-351"/>
<text text-anchor="middle" x="558" y="-335.8" font-family="Times,serif" font-size="14.00">node #2</text>
<text text-anchor="middle" x="558" y="-320.8" font-family="Times,serif" font-size="14.00">FEFPreVal &lt;= 0.89</text>
<text text-anchor="middle" x="558" y="-305.8" font-family="Times,serif" font-size="14.00">gini = 0.492</text>
<text text-anchor="middle" x="558" y="-290.8" font-family="Times,serif" font-size="14.00">samples = 17</text>
<text text-anchor="middle" x="558" y="-275.8" font-family="Times,serif" font-size="14.00">value = [15.182, 11.858]</text>
<text text-anchor="middle" x="558" y="-260.8" font-family="Times,serif" font-size="14.00">class = Non&#45;obstructive</text>
</g>
<!-- 1&#45;&gt;2 -->
<g id="edge2" class="edge">
<title>1&#45;&gt;2</title>
<path fill="none" stroke="black" d="M1049.4,-412.38C942.36,-388.56 774.48,-351.19 665.33,-326.89"/>
<polygon fill="black" stroke="black" points="665.81,-323.41 655.29,-324.66 664.29,-330.24 665.81,-323.41"/>
</g>
<!-- 9 -->
<g id="node10" class="node">
<title>9</title>
<polygon fill="none" stroke="black" points="1252.5,-351 1049.5,-351 1049.5,-253 1252.5,-253 1252.5,-351"/>
<text text-anchor="middle" x="1151" y="-335.8" font-family="Times,serif" font-size="14.00">node #9</text>
<text text-anchor="middle" x="1151" y="-320.8" font-family="Times,serif" font-size="14.00">FEFPostPercent &lt;= 45.5</text>
<text text-anchor="middle" x="1151" y="-305.8" font-family="Times,serif" font-size="14.00">gini = 0.285</text>
<text text-anchor="middle" x="1151" y="-290.8" font-family="Times,serif" font-size="14.00">samples = 104</text>
<text text-anchor="middle" x="1151" y="-275.8" font-family="Times,serif" font-size="14.00">value = [28.339, 136.367]</text>
<text text-anchor="middle" x="1151" y="-260.8" font-family="Times,serif" font-size="14.00">class = Obstructive</text>
</g>
<!-- 1&#45;&gt;9 -->
<g id="edge9" class="edge">
<title>1&#45;&gt;9</title>
<path fill="none" stroke="black" d="M1151,-386.97C1151,-378.69 1151,-370 1151,-361.48"/>
<polygon fill="black" stroke="black" points="1154.5,-361.21 1151,-351.21 1147.5,-361.21 1154.5,-361.21"/>
</g>
<!-- 3 -->
<g id="node4" class="node">
<title>3</title>
<polygon fill="none" stroke="black" points="364,-217 164,-217 164,-119 364,-119 364,-217"/>
<text text-anchor="middle" x="264" y="-201.8" font-family="Times,serif" font-size="14.00">node #3</text>
<text text-anchor="middle" x="264" y="-186.8" font-family="Times,serif" font-size="14.00">FEV1PrePercent &lt;= 43.5</text>
<text text-anchor="middle" x="264" y="-171.8" font-family="Times,serif" font-size="14.00">gini = 0.183</text>
<text text-anchor="middle" x="264" y="-156.8" font-family="Times,serif" font-size="14.00">samples = 7</text>
<text text-anchor="middle" x="264" y="-141.8" font-family="Times,serif" font-size="14.00">value = [1.012, 8.893]</text>
<text text-anchor="middle" x="264" y="-126.8" font-family="Times,serif" font-size="14.00">class = Obstructive</text>
</g>
<!-- 2&#45;&gt;3 -->
<g id="edge3" class="edge">
<title>2&#45;&gt;3</title>
<path fill="none" stroke="black" d="M460.92,-257.41C432.92,-244.84 402.18,-231.04 373.49,-218.16"/>
<polygon fill="black" stroke="black" points="374.81,-214.91 364.25,-214.01 371.94,-221.3 374.81,-214.91"/>
</g>
<!-- 6 -->
<g id="node7" class="node">
<title>6</title>
<polygon fill="none" stroke="black" points="652,-217 464,-217 464,-119 652,-119 652,-217"/>
<text text-anchor="middle" x="558" y="-201.8" font-family="Times,serif" font-size="14.00">node #6</text>
<text text-anchor="middle" x="558" y="-186.8" font-family="Times,serif" font-size="14.00">FVCPostVal &lt;= 0.775</text>
<text text-anchor="middle" x="558" y="-171.8" font-family="Times,serif" font-size="14.00">gini = 0.286</text>
<text text-anchor="middle" x="558" y="-156.8" font-family="Times,serif" font-size="14.00">samples = 10</text>
<text text-anchor="middle" x="558" y="-141.8" font-family="Times,serif" font-size="14.00">value = [14.17, 2.964]</text>
<text text-anchor="middle" x="558" y="-126.8" font-family="Times,serif" font-size="14.00">class = Non&#45;obstructive</text>
</g>
<!-- 2&#45;&gt;6 -->
<g id="edge6" class="edge">
<title>2&#45;&gt;6</title>
<path fill="none" stroke="black" d="M558,-252.97C558,-244.69 558,-236 558,-227.48"/>
<polygon fill="black" stroke="black" points="561.5,-227.21 558,-217.21 554.5,-227.21 561.5,-227.21"/>
</g>
<!-- 4 -->
<g id="node5" class="node">
<title>4</title>
<polygon fill="none" stroke="black" points="158,-83 0,-83 0,0 158,0 158,-83"/>
<text text-anchor="middle" x="79" y="-67.8" font-family="Times,serif" font-size="14.00">node #4</text>
<text text-anchor="middle" x="79" y="-52.8" font-family="Times,serif" font-size="14.00">gini = 0.0</text>
<text text-anchor="middle" x="79" y="-37.8" font-family="Times,serif" font-size="14.00">samples = 4</text>
<text text-anchor="middle" x="79" y="-22.8" font-family="Times,serif" font-size="14.00">value = [0.0, 5.929]</text>
<text text-anchor="middle" x="79" y="-7.8" font-family="Times,serif" font-size="14.00">class = Obstructive</text>
</g>
<!-- 3&#45;&gt;4 -->
<g id="edge4" class="edge">
<title>3&#45;&gt;4</title>
<path fill="none" stroke="black" d="M192.47,-118.87C177.77,-108.97 162.32,-98.57 147.72,-88.74"/>
<polygon fill="black" stroke="black" points="149.48,-85.71 139.23,-83.03 145.57,-91.52 149.48,-85.71"/>
</g>
<!-- 5 -->
<g id="node6" class="node">
<title>5</title>
<polygon fill="none" stroke="black" points="352,-83 176,-83 176,0 352,0 352,-83"/>
<text text-anchor="middle" x="264" y="-67.8" font-family="Times,serif" font-size="14.00">node #5</text>
<text text-anchor="middle" x="264" y="-52.8" font-family="Times,serif" font-size="14.00">gini = 0.379</text>
<text text-anchor="middle" x="264" y="-37.8" font-family="Times,serif" font-size="14.00">samples = 3</text>
<text text-anchor="middle" x="264" y="-22.8" font-family="Times,serif" font-size="14.00">value = [1.012, 2.964]</text>
<text text-anchor="middle" x="264" y="-7.8" font-family="Times,serif" font-size="14.00">class = Obstructive</text>
</g>
<!-- 3&#45;&gt;5 -->
<g id="edge5" class="edge">
<title>3&#45;&gt;5</title>
<path fill="none" stroke="black" d="M264,-118.87C264,-110.5 264,-101.77 264,-93.33"/>
<polygon fill="black" stroke="black" points="267.5,-93.23 264,-83.23 260.5,-93.23 267.5,-93.23"/>
</g>
<!-- 7 -->
<g id="node8" class="node">
<title>7</title>
<polygon fill="none" stroke="black" points="528,-83 370,-83 370,0 528,0 528,-83"/>
<text text-anchor="middle" x="449" y="-67.8" font-family="Times,serif" font-size="14.00">node #7</text>
<text text-anchor="middle" x="449" y="-52.8" font-family="Times,serif" font-size="14.00">gini = 0.0</text>
<text text-anchor="middle" x="449" y="-37.8" font-family="Times,serif" font-size="14.00">samples = 1</text>
<text text-anchor="middle" x="449" y="-22.8" font-family="Times,serif" font-size="14.00">value = [0.0, 1.976]</text>
<text text-anchor="middle" x="449" y="-7.8" font-family="Times,serif" font-size="14.00">class = Obstructive</text>
</g>
<!-- 6&#45;&gt;7 -->
<g id="edge7" class="edge">
<title>6&#45;&gt;7</title>
<path fill="none" stroke="black" d="M515.86,-118.87C507.81,-109.67 499.38,-100.04 491.32,-90.84"/>
<polygon fill="black" stroke="black" points="493.88,-88.45 484.66,-83.23 488.61,-93.06 493.88,-88.45"/>
</g>
<!-- 8 -->
<g id="node9" class="node">
<title>8</title>
<polygon fill="none" stroke="black" points="734,-83 546,-83 546,0 734,0 734,-83"/>
<text text-anchor="middle" x="640" y="-67.8" font-family="Times,serif" font-size="14.00">node #8</text>
<text text-anchor="middle" x="640" y="-52.8" font-family="Times,serif" font-size="14.00">gini = 0.122</text>
<text text-anchor="middle" x="640" y="-37.8" font-family="Times,serif" font-size="14.00">samples = 9</text>
<text text-anchor="middle" x="640" y="-22.8" font-family="Times,serif" font-size="14.00">value = [14.17, 0.988]</text>
<text text-anchor="middle" x="640" y="-7.8" font-family="Times,serif" font-size="14.00">class = Non&#45;obstructive</text>
</g>
<!-- 6&#45;&gt;8 -->
<g id="edge8" class="edge">
<title>6&#45;&gt;8</title>
<path fill="none" stroke="black" d="M589.7,-118.87C595.58,-109.95 601.72,-100.62 607.62,-91.67"/>
<polygon fill="black" stroke="black" points="610.6,-93.51 613.17,-83.23 604.75,-89.66 610.6,-93.51"/>
</g>
<!-- 10 -->
<g id="node11" class="node">
<title>10</title>
<polygon fill="none" stroke="black" points="1144,-217 950,-217 950,-119 1144,-119 1144,-217"/>
<text text-anchor="middle" x="1047" y="-201.8" font-family="Times,serif" font-size="14.00">node #10</text>
<text text-anchor="middle" x="1047" y="-186.8" font-family="Times,serif" font-size="14.00">FVCPostVal &lt;= 2.14</text>
<text text-anchor="middle" x="1047" y="-171.8" font-family="Times,serif" font-size="14.00">gini = 0.148</text>
<text text-anchor="middle" x="1047" y="-156.8" font-family="Times,serif" font-size="14.00">samples = 74</text>
<text text-anchor="middle" x="1047" y="-141.8" font-family="Times,serif" font-size="14.00">value = [9.109, 103.757]</text>
<text text-anchor="middle" x="1047" y="-126.8" font-family="Times,serif" font-size="14.00">class = Obstructive</text>
</g>
<!-- 9&#45;&gt;10 -->
<g id="edge10" class="edge">
<title>9&#45;&gt;10</title>
<path fill="none" stroke="black" d="M1113.16,-252.97C1106.06,-243.96 1098.58,-234.47 1091.31,-225.24"/>
<polygon fill="black" stroke="black" points="1093.92,-222.9 1084.99,-217.21 1088.43,-227.23 1093.92,-222.9"/>
</g>
<!-- 13 -->
<g id="node14" class="node">
<title>13</title>
<polygon fill="none" stroke="black" points="1346.5,-217 1161.5,-217 1161.5,-119 1346.5,-119 1346.5,-217"/>
<text text-anchor="middle" x="1254" y="-201.8" font-family="Times,serif" font-size="14.00">node #13</text>
<text text-anchor="middle" x="1254" y="-186.8" font-family="Times,serif" font-size="14.00">FVCPostVal &lt;= 2.125</text>
<text text-anchor="middle" x="1254" y="-171.8" font-family="Times,serif" font-size="14.00">gini = 0.467</text>
<text text-anchor="middle" x="1254" y="-156.8" font-family="Times,serif" font-size="14.00">samples = 30</text>
<text text-anchor="middle" x="1254" y="-141.8" font-family="Times,serif" font-size="14.00">value = [19.23, 32.609]</text>
<text text-anchor="middle" x="1254" y="-126.8" font-family="Times,serif" font-size="14.00">class = Obstructive</text>
</g>
<!-- 9&#45;&gt;13 -->
<g id="edge13" class="edge">
<title>9&#45;&gt;13</title>
<path fill="none" stroke="black" d="M1188.48,-252.97C1195.51,-243.96 1202.91,-234.47 1210.12,-225.24"/>
<polygon fill="black" stroke="black" points="1212.99,-227.25 1216.38,-217.21 1207.47,-222.94 1212.99,-227.25"/>
</g>
<!-- 11 -->
<g id="node12" class="node">
<title>11</title>
<polygon fill="none" stroke="black" points="937.5,-83 752.5,-83 752.5,0 937.5,0 937.5,-83"/>
<text text-anchor="middle" x="845" y="-67.8" font-family="Times,serif" font-size="14.00">node #11</text>
<text text-anchor="middle" x="845" y="-52.8" font-family="Times,serif" font-size="14.00">gini = 0.273</text>
<text text-anchor="middle" x="845" y="-37.8" font-family="Times,serif" font-size="14.00">samples = 32</text>
<text text-anchor="middle" x="845" y="-22.8" font-family="Times,serif" font-size="14.00">value = [8.097, 41.503]</text>
<text text-anchor="middle" x="845" y="-7.8" font-family="Times,serif" font-size="14.00">class = Obstructive</text>
</g>
<!-- 10&#45;&gt;11 -->
<g id="edge11" class="edge">
<title>10&#45;&gt;11</title>
<path fill="none" stroke="black" d="M968.9,-118.87C952.7,-108.88 935.66,-98.38 919.58,-88.47"/>
<polygon fill="black" stroke="black" points="921.11,-85.3 910.76,-83.03 917.44,-91.26 921.11,-85.3"/>
</g>
<!-- 12 -->
<g id="node13" class="node">
<title>12</title>
<polygon fill="none" stroke="black" points="1140.5,-83 955.5,-83 955.5,0 1140.5,0 1140.5,-83"/>
<text text-anchor="middle" x="1048" y="-67.8" font-family="Times,serif" font-size="14.00">node #12</text>
<text text-anchor="middle" x="1048" y="-52.8" font-family="Times,serif" font-size="14.00">gini = 0.031</text>
<text text-anchor="middle" x="1048" y="-37.8" font-family="Times,serif" font-size="14.00">samples = 42</text>
<text text-anchor="middle" x="1048" y="-22.8" font-family="Times,serif" font-size="14.00">value = [1.012, 62.254]</text>
<text text-anchor="middle" x="1048" y="-7.8" font-family="Times,serif" font-size="14.00">class = Obstructive</text>
</g>
<!-- 10&#45;&gt;12 -->
<g id="edge12" class="edge">
<title>10&#45;&gt;12</title>
<path fill="none" stroke="black" d="M1047.39,-118.87C1047.45,-110.5 1047.52,-101.77 1047.59,-93.33"/>
<polygon fill="black" stroke="black" points="1051.09,-93.26 1047.67,-83.23 1044.09,-93.2 1051.09,-93.26"/>
</g>
<!-- 14 -->
<g id="node15" class="node">
<title>14</title>
<polygon fill="none" stroke="black" points="1347,-83 1159,-83 1159,0 1347,0 1347,-83"/>
<text text-anchor="middle" x="1253" y="-67.8" font-family="Times,serif" font-size="14.00">node #14</text>
<text text-anchor="middle" x="1253" y="-52.8" font-family="Times,serif" font-size="14.00">gini = 0.37</text>
<text text-anchor="middle" x="1253" y="-37.8" font-family="Times,serif" font-size="14.00">samples = 4</text>
<text text-anchor="middle" x="1253" y="-22.8" font-family="Times,serif" font-size="14.00">value = [6.073, 1.976]</text>
<text text-anchor="middle" x="1253" y="-7.8" font-family="Times,serif" font-size="14.00">class = Non&#45;obstructive</text>
</g>
<!-- 13&#45;&gt;14 -->
<g id="edge14" class="edge">
<title>13&#45;&gt;14</title>
<path fill="none" stroke="black" d="M1253.61,-118.87C1253.55,-110.5 1253.48,-101.77 1253.41,-93.33"/>
<polygon fill="black" stroke="black" points="1256.91,-93.2 1253.33,-83.23 1249.91,-93.26 1256.91,-93.2"/>
</g>
<!-- 15 -->
<g id="node16" class="node">
<title>15</title>
<polygon fill="none" stroke="black" points="1559,-83 1365,-83 1365,0 1559,0 1559,-83"/>
<text text-anchor="middle" x="1462" y="-67.8" font-family="Times,serif" font-size="14.00">node #15</text>
<text text-anchor="middle" x="1462" y="-52.8" font-family="Times,serif" font-size="14.00">gini = 0.42</text>
<text text-anchor="middle" x="1462" y="-37.8" font-family="Times,serif" font-size="14.00">samples = 26</text>
<text text-anchor="middle" x="1462" y="-22.8" font-family="Times,serif" font-size="14.00">value = [13.158, 30.633]</text>
<text text-anchor="middle" x="1462" y="-7.8" font-family="Times,serif" font-size="14.00">class = Obstructive</text>
</g>
<!-- 13&#45;&gt;15 -->
<g id="edge15" class="edge">
<title>13&#45;&gt;15</title>
<path fill="none" stroke="black" d="M1334.42,-118.87C1351.26,-108.78 1368.97,-98.18 1385.66,-88.19"/>
<polygon fill="black" stroke="black" points="1387.5,-91.17 1394.28,-83.03 1383.91,-85.17 1387.5,-91.17"/>
</g>
<!-- 17 -->
<g id="node18" class="node">
<title>17</title>
<polygon fill="none" stroke="black" points="2060,-351 1854,-351 1854,-253 2060,-253 2060,-351"/>
<text text-anchor="middle" x="1957" y="-335.8" font-family="Times,serif" font-size="14.00">node #17</text>
<text text-anchor="middle" x="1957" y="-320.8" font-family="Times,serif" font-size="14.00">FEV1PostPercent &lt;= 75.5</text>
<text text-anchor="middle" x="1957" y="-305.8" font-family="Times,serif" font-size="14.00">gini = 0.174</text>
<text text-anchor="middle" x="1957" y="-290.8" font-family="Times,serif" font-size="14.00">samples = 86</text>
<text text-anchor="middle" x="1957" y="-275.8" font-family="Times,serif" font-size="14.00">value = [120.442, 12.846]</text>
<text text-anchor="middle" x="1957" y="-260.8" font-family="Times,serif" font-size="14.00">class = Non&#45;obstructive</text>
</g>
<!-- 16&#45;&gt;17 -->
<g id="edge17" class="edge">
<title>16&#45;&gt;17</title>
<path fill="none" stroke="black" d="M1957,-386.97C1957,-378.69 1957,-370 1957,-361.48"/>
<polygon fill="black" stroke="black" points="1960.5,-361.21 1957,-351.21 1953.5,-361.21 1960.5,-361.21"/>
</g>
<!-- 24 -->
<g id="node25" class="node">
<title>24</title>
<polygon fill="none" stroke="black" points="2370,-351 2170,-351 2170,-253 2370,-253 2370,-351"/>
<text text-anchor="middle" x="2270" y="-335.8" font-family="Times,serif" font-size="14.00">node #24</text>
<text text-anchor="middle" x="2270" y="-320.8" font-family="Times,serif" font-size="14.00">FEV1PrePercent &lt;= 96.5</text>
<text text-anchor="middle" x="2270" y="-305.8" font-family="Times,serif" font-size="14.00">gini = 0.448</text>
<text text-anchor="middle" x="2270" y="-290.8" font-family="Times,serif" font-size="14.00">samples = 6</text>
<text text-anchor="middle" x="2270" y="-275.8" font-family="Times,serif" font-size="14.00">value = [3.036, 5.929]</text>
<text text-anchor="middle" x="2270" y="-260.8" font-family="Times,serif" font-size="14.00">class = Obstructive</text>
</g>
<!-- 16&#45;&gt;24 -->
<g id="edge24" class="edge">
<title>16&#45;&gt;24</title>
<path fill="none" stroke="black" d="M2058.62,-392.14C2091.25,-378.38 2127.53,-363.08 2160.69,-349.1"/>
<polygon fill="black" stroke="black" points="2162.1,-352.3 2169.96,-345.19 2159.38,-345.85 2162.1,-352.3"/>
</g>
<!-- 18 -->
<g id="node19" class="node">
<title>18</title>
<polygon fill="none" stroke="black" points="1963.5,-217 1766.5,-217 1766.5,-119 1963.5,-119 1963.5,-217"/>
<text text-anchor="middle" x="1865" y="-201.8" font-family="Times,serif" font-size="14.00">node #18</text>
<text text-anchor="middle" x="1865" y="-186.8" font-family="Times,serif" font-size="14.00">FVCPostPercent &lt;= 70.5</text>
<text text-anchor="middle" x="1865" y="-171.8" font-family="Times,serif" font-size="14.00">gini = 0.081</text>
<text text-anchor="middle" x="1865" y="-156.8" font-family="Times,serif" font-size="14.00">samples = 56</text>
<text text-anchor="middle" x="1865" y="-141.8" font-family="Times,serif" font-size="14.00">value = [89.067, 3.953]</text>
<text text-anchor="middle" x="1865" y="-126.8" font-family="Times,serif" font-size="14.00">class = Non&#45;obstructive</text>
</g>
<!-- 17&#45;&gt;18 -->
<g id="edge18" class="edge">
<title>17&#45;&gt;18</title>
<path fill="none" stroke="black" d="M1923.53,-252.97C1917.31,-244.05 1910.77,-234.66 1904.39,-225.52"/>
<polygon fill="black" stroke="black" points="1907.19,-223.42 1898.6,-217.21 1901.45,-227.42 1907.19,-223.42"/>
</g>
<!-- 21 -->
<g id="node22" class="node">
<title>21</title>
<polygon fill="none" stroke="black" points="2172.5,-217 1981.5,-217 1981.5,-119 2172.5,-119 2172.5,-217"/>
<text text-anchor="middle" x="2077" y="-201.8" font-family="Times,serif" font-size="14.00">node #21</text>
<text text-anchor="middle" x="2077" y="-186.8" font-family="Times,serif" font-size="14.00">FEFPrePercent &lt;= 80.0</text>
<text text-anchor="middle" x="2077" y="-171.8" font-family="Times,serif" font-size="14.00">gini = 0.344</text>
<text text-anchor="middle" x="2077" y="-156.8" font-family="Times,serif" font-size="14.00">samples = 30</text>
<text text-anchor="middle" x="2077" y="-141.8" font-family="Times,serif" font-size="14.00">value = [31.376, 8.893]</text>
<text text-anchor="middle" x="2077" y="-126.8" font-family="Times,serif" font-size="14.00">class = Non&#45;obstructive</text>
</g>
<!-- 17&#45;&gt;21 -->
<g id="edge21" class="edge">
<title>17&#45;&gt;21</title>
<path fill="none" stroke="black" d="M2000.66,-252.97C2009.02,-243.78 2017.83,-234.09 2026.38,-224.68"/>
<polygon fill="black" stroke="black" points="2029.03,-226.97 2033.17,-217.21 2023.85,-222.26 2029.03,-226.97"/>
</g>
<!-- 19 -->
<g id="node20" class="node">
<title>19</title>
<polygon fill="none" stroke="black" points="1765,-83 1577,-83 1577,0 1765,0 1765,-83"/>
<text text-anchor="middle" x="1671" y="-67.8" font-family="Times,serif" font-size="14.00">node #19</text>
<text text-anchor="middle" x="1671" y="-52.8" font-family="Times,serif" font-size="14.00">gini = 0.024</text>
<text text-anchor="middle" x="1671" y="-37.8" font-family="Times,serif" font-size="14.00">samples = 50</text>
<text text-anchor="middle" x="1671" y="-22.8" font-family="Times,serif" font-size="14.00">value = [79.958, 0.988]</text>
<text text-anchor="middle" x="1671" y="-7.8" font-family="Times,serif" font-size="14.00">class = Non&#45;obstructive</text>
</g>
<!-- 18&#45;&gt;19 -->
<g id="edge19" class="edge">
<title>18&#45;&gt;19</title>
<path fill="none" stroke="black" d="M1789.99,-118.87C1774.43,-108.88 1758.07,-98.38 1742.63,-88.47"/>
<polygon fill="black" stroke="black" points="1744.47,-85.49 1734.16,-83.03 1740.68,-91.38 1744.47,-85.49"/>
</g>
<!-- 20 -->
<g id="node21" class="node">
<title>20</title>
<polygon fill="none" stroke="black" points="1971,-83 1783,-83 1783,0 1971,0 1971,-83"/>
<text text-anchor="middle" x="1877" y="-67.8" font-family="Times,serif" font-size="14.00">node #20</text>
<text text-anchor="middle" x="1877" y="-52.8" font-family="Times,serif" font-size="14.00">gini = 0.37</text>
<text text-anchor="middle" x="1877" y="-37.8" font-family="Times,serif" font-size="14.00">samples = 6</text>
<text text-anchor="middle" x="1877" y="-22.8" font-family="Times,serif" font-size="14.00">value = [9.109, 2.964]</text>
<text text-anchor="middle" x="1877" y="-7.8" font-family="Times,serif" font-size="14.00">class = Non&#45;obstructive</text>
</g>
<!-- 18&#45;&gt;20 -->
<g id="edge20" class="edge">
<title>18&#45;&gt;20</title>
<path fill="none" stroke="black" d="M1869.64,-118.87C1870.45,-110.5 1871.29,-101.77 1872.1,-93.33"/>
<polygon fill="black" stroke="black" points="1875.6,-93.52 1873.07,-83.23 1868.63,-92.85 1875.6,-93.52"/>
</g>
<!-- 22 -->
<g id="node23" class="node">
<title>22</title>
<polygon fill="none" stroke="black" points="2165,-83 1989,-83 1989,0 2165,0 2165,-83"/>
<text text-anchor="middle" x="2077" y="-67.8" font-family="Times,serif" font-size="14.00">node #22</text>
<text text-anchor="middle" x="2077" y="-52.8" font-family="Times,serif" font-size="14.00">gini = 0.498</text>
<text text-anchor="middle" x="2077" y="-37.8" font-family="Times,serif" font-size="14.00">samples = 10</text>
<text text-anchor="middle" x="2077" y="-22.8" font-family="Times,serif" font-size="14.00">value = [6.073, 6.917]</text>
<text text-anchor="middle" x="2077" y="-7.8" font-family="Times,serif" font-size="14.00">class = Obstructive</text>
</g>
<!-- 21&#45;&gt;22 -->
<g id="edge22" class="edge">
<title>21&#45;&gt;22</title>
<path fill="none" stroke="black" d="M2077,-118.87C2077,-110.5 2077,-101.77 2077,-93.33"/>
<polygon fill="black" stroke="black" points="2080.5,-93.23 2077,-83.23 2073.5,-93.23 2080.5,-93.23"/>
</g>
<!-- 23 -->
<g id="node24" class="node">
<title>23</title>
<polygon fill="none" stroke="black" points="2371,-83 2183,-83 2183,0 2371,0 2371,-83"/>
<text text-anchor="middle" x="2277" y="-67.8" font-family="Times,serif" font-size="14.00">node #23</text>
<text text-anchor="middle" x="2277" y="-52.8" font-family="Times,serif" font-size="14.00">gini = 0.134</text>
<text text-anchor="middle" x="2277" y="-37.8" font-family="Times,serif" font-size="14.00">samples = 20</text>
<text text-anchor="middle" x="2277" y="-22.8" font-family="Times,serif" font-size="14.00">value = [25.303, 1.976]</text>
<text text-anchor="middle" x="2277" y="-7.8" font-family="Times,serif" font-size="14.00">class = Non&#45;obstructive</text>
</g>
<!-- 21&#45;&gt;23 -->
<g id="edge23" class="edge">
<title>21&#45;&gt;23</title>
<path fill="none" stroke="black" d="M2154.33,-118.87C2170.37,-108.88 2187.24,-98.38 2203.15,-88.47"/>
<polygon fill="black" stroke="black" points="2205.25,-91.29 2211.89,-83.03 2201.55,-85.35 2205.25,-91.29"/>
</g>
<!-- 25 -->
<g id="node26" class="node">
<title>25</title>
<polygon fill="none" stroke="black" points="2349,-209.5 2191,-209.5 2191,-126.5 2349,-126.5 2349,-209.5"/>
<text text-anchor="middle" x="2270" y="-194.3" font-family="Times,serif" font-size="14.00">node #25</text>
<text text-anchor="middle" x="2270" y="-179.3" font-family="Times,serif" font-size="14.00">gini = 0.0</text>
<text text-anchor="middle" x="2270" y="-164.3" font-family="Times,serif" font-size="14.00">samples = 4</text>
<text text-anchor="middle" x="2270" y="-149.3" font-family="Times,serif" font-size="14.00">value = [0.0, 5.929]</text>
<text text-anchor="middle" x="2270" y="-134.3" font-family="Times,serif" font-size="14.00">class = Obstructive</text>
</g>
<!-- 24&#45;&gt;25 -->
<g id="edge25" class="edge">
<title>24&#45;&gt;25</title>
<path fill="none" stroke="black" d="M2270,-252.97C2270,-242.25 2270,-230.84 2270,-219.99"/>
<polygon fill="black" stroke="black" points="2273.5,-219.82 2270,-209.82 2266.5,-219.82 2273.5,-219.82"/>
</g>
<!-- 26 -->
<g id="node27" class="node">
<title>26</title>
<polygon fill="none" stroke="black" points="2555,-209.5 2367,-209.5 2367,-126.5 2555,-126.5 2555,-209.5"/>
<text text-anchor="middle" x="2461" y="-194.3" font-family="Times,serif" font-size="14.00">node #26</text>
<text text-anchor="middle" x="2461" y="-179.3" font-family="Times,serif" font-size="14.00">gini = 0.0</text>
<text text-anchor="middle" x="2461" y="-164.3" font-family="Times,serif" font-size="14.00">samples = 2</text>
<text text-anchor="middle" x="2461" y="-149.3" font-family="Times,serif" font-size="14.00">value = [3.036, 0.0]</text>
<text text-anchor="middle" x="2461" y="-134.3" font-family="Times,serif" font-size="14.00">class = Non&#45;obstructive</text>
</g>
<!-- 24&#45;&gt;26 -->
<g id="edge26" class="edge">
<title>24&#45;&gt;26</title>
<path fill="none" stroke="black" d="M2339.5,-252.97C2357.19,-240.75 2376.17,-227.63 2393.74,-215.48"/>
<polygon fill="black" stroke="black" points="2396.01,-218.17 2402.25,-209.6 2392.03,-212.41 2396.01,-218.17"/>
</g>
</g>
</svg>
