<?xml version="1.0" encoding="UTF-8" standalone="no"?>
<!DOCTYPE svg PUBLIC "-//W3C//DTD SVG 1.1//EN"
 "http://www.w3.org/Graphics/SVG/1.1/DTD/svg11.dtd">
<!-- Generated by graphviz version 2.43.0 (0)
 -->
<!-- Title: Tree Pages: 1 -->
<svg width="2795pt" height="627pt"
 viewBox="0.00 0.00 2795.00 627.00" xmlns="http://www.w3.org/2000/svg" xmlns:xlink="http://www.w3.org/1999/xlink">
<g id="graph0" class="graph" transform="scale(1 1) rotate(0) translate(4 623)">
<title>Tree</title>
<polygon fill="white" stroke="transparent" points="-4,4 -4,-623 2791,-623 2791,4 -4,4"/>
<!-- 0 -->
<g id="node1" class="node">
<title>0</title>
<polygon fill="none" stroke="black" points="1282.5,-619 1067.5,-619 1067.5,-521 1282.5,-521 1282.5,-619"/>
<text text-anchor="middle" x="1175" y="-603.8" font-family="Times,serif" font-size="14.00">node #0</text>
<text text-anchor="middle" x="1175" y="-588.8" font-family="Times,serif" font-size="14.00">FEFPostPercent &lt;= 47.389</text>
<text text-anchor="middle" x="1175" y="-573.8" font-family="Times,serif" font-size="14.00">gini = 0.5</text>
<text text-anchor="middle" x="1175" y="-558.8" font-family="Times,serif" font-size="14.00">samples = 221</text>
<text text-anchor="middle" x="1175" y="-543.8" font-family="Times,serif" font-size="14.00">value = [167.0, 167.0]</text>
<text text-anchor="middle" x="1175" y="-528.8" font-family="Times,serif" font-size="14.00">class = Obstructive</text>
</g>
<!-- 1 -->
<g id="node2" class="node">
<title>1</title>
<polygon fill="none" stroke="black" points="883.5,-485 680.5,-485 680.5,-387 883.5,-387 883.5,-485"/>
<text text-anchor="middle" x="782" y="-469.8" font-family="Times,serif" font-size="14.00">node #1</text>
<text text-anchor="middle" x="782" y="-454.8" font-family="Times,serif" font-size="14.00">FVCPreVal &lt;= 1.07</text>
<text text-anchor="middle" x="782" y="-439.8" font-family="Times,serif" font-size="14.00">gini = 0.33</text>
<text text-anchor="middle" x="782" y="-424.8" font-family="Times,serif" font-size="14.00">samples = 99</text>
<text text-anchor="middle" x="782" y="-409.8" font-family="Times,serif" font-size="14.00">value = [31.957, 121.366]</text>
<text text-anchor="middle" x="782" y="-394.8" font-family="Times,serif" font-size="14.00">class = Obstructive</text>
</g>
<!-- 0&#45;&gt;1 -->
<g id="edge1" class="edge">
<title>0&#45;&gt;1</title>
<path fill="none" stroke="black" d="M1067.35,-532.84C1013.33,-514.7 947.95,-492.74 893.42,-474.42"/>
<polygon fill="black" stroke="black" points="894.31,-471.03 883.72,-471.16 892.08,-477.67 894.31,-471.03"/>
<text text-anchor="middle" x="894.85" y="-489.85" font-family="Times,serif" font-size="14.00">True</text>
</g>
<!-- 14 -->
<g id="node15" class="node">
<title>14</title>
<polygon fill="none" stroke="black" points="1682.5,-485 1479.5,-485 1479.5,-387 1682.5,-387 1682.5,-485"/>
<text text-anchor="middle" x="1581" y="-469.8" font-family="Times,serif" font-size="14.00">node #14</text>
<text text-anchor="middle" x="1581" y="-454.8" font-family="Times,serif" font-size="14.00">FVCPrePercent &lt;= 63.5</text>
<text text-anchor="middle" x="1581" y="-439.8" font-family="Times,serif" font-size="14.00">gini = 0.378</text>
<text text-anchor="middle" x="1581" y="-424.8" font-family="Times,serif" font-size="14.00">samples = 122</text>
<text text-anchor="middle" x="1581" y="-409.8" font-family="Times,serif" font-size="14.00">value = [135.043, 45.634]</text>
<text text-anchor="middle" x="1581" y="-394.8" font-family="Times,serif" font-size="14.00">class = Non&#45;obstructive</text>
</g>
<!-- 0&#45;&gt;14 -->
<g id="edge14" class="edge">
<title>0&#45;&gt;14</title>
<path fill="none" stroke="black" d="M1282.73,-533.97C1340.48,-515.2 1411.53,-492.1 1469.8,-473.15"/>
<polygon fill="black" stroke="black" points="1470.98,-476.45 1479.41,-470.03 1468.81,-469.79 1470.98,-476.45"/>
<text text-anchor="middle" x="1468.06" y="-488.61" font-family="Times,serif" font-size="14.00">False</text>
</g>
<!-- 2 -->
<g id="node3" class="node">
<title>2</title>
<polygon fill="none" stroke="black" points="379,-351 191,-351 191,-253 379,-253 379,-351"/>
<text text-anchor="middle" x="285" y="-335.8" font-family="Times,serif" font-size="14.00">node #2</text>
<text text-anchor="middle" x="285" y="-320.8" font-family="Times,serif" font-size="14.00">FEFPostVal &lt;= 0.535</text>
<text text-anchor="middle" x="285" y="-305.8" font-family="Times,serif" font-size="14.00">gini = 0.344</text>
<text text-anchor="middle" x="285" y="-290.8" font-family="Times,serif" font-size="14.00">samples = 9</text>
<text text-anchor="middle" x="285" y="-275.8" font-family="Times,serif" font-size="14.00">value = [10.309, 2.913]</text>
<text text-anchor="middle" x="285" y="-260.8" font-family="Times,serif" font-size="14.00">class = Non&#45;obstructive</text>
</g>
<!-- 1&#45;&gt;2 -->
<g id="edge2" class="edge">
<title>1&#45;&gt;2</title>
<path fill="none" stroke="black" d="M680.23,-407.97C595.18,-385.38 474.42,-353.31 388.81,-330.57"/>
<polygon fill="black" stroke="black" points="389.64,-327.17 379.07,-327.99 387.84,-333.93 389.64,-327.17"/>
</g>
<!-- 7 -->
<g id="node8" class="node">
<title>7</title>
<polygon fill="none" stroke="black" points="886.5,-351 677.5,-351 677.5,-253 886.5,-253 886.5,-351"/>
<text text-anchor="middle" x="782" y="-335.8" font-family="Times,serif" font-size="14.00">node #7</text>
<text text-anchor="middle" x="782" y="-320.8" font-family="Times,serif" font-size="14.00">FEV1PrePercent &lt;= 46.47</text>
<text text-anchor="middle" x="782" y="-305.8" font-family="Times,serif" font-size="14.00">gini = 0.261</text>
<text text-anchor="middle" x="782" y="-290.8" font-family="Times,serif" font-size="14.00">samples = 90</text>
<text text-anchor="middle" x="782" y="-275.8" font-family="Times,serif" font-size="14.00">value = [21.648, 118.453]</text>
<text text-anchor="middle" x="782" y="-260.8" font-family="Times,serif" font-size="14.00">class = Obstructive</text>
</g>
<!-- 1&#45;&gt;7 -->
<g id="edge7" class="edge">
<title>1&#45;&gt;7</title>
<path fill="none" stroke="black" d="M782,-386.97C782,-378.69 782,-370 782,-361.48"/>
<polygon fill="black" stroke="black" points="785.5,-361.21 782,-351.21 778.5,-361.21 785.5,-361.21"/>
</g>
<!-- 3 -->
<g id="node4" class="node">
<title>3</title>
<polygon fill="none" stroke="black" points="167,-209.5 9,-209.5 9,-126.5 167,-126.5 167,-209.5"/>
<text text-anchor="middle" x="88" y="-194.3" font-family="Times,serif" font-size="14.00">node #3</text>
<text text-anchor="middle" x="88" y="-179.3" font-family="Times,serif" font-size="14.00">gini = 0.0</text>
<text text-anchor="middle" x="88" y="-164.3" font-family="Times,serif" font-size="14.00">samples = 2</text>
<text text-anchor="middle" x="88" y="-149.3" font-family="Times,serif" font-size="14.00">value = [0.0, 1.942]</text>
<text text-anchor="middle" x="88" y="-134.3" font-family="Times,serif" font-size="14.00">class = Obstructive</text>
</g>
<!-- 2&#45;&gt;3 -->
<g id="edge3" class="edge">
<title>2&#45;&gt;3</title>
<path fill="none" stroke="black" d="M213.32,-252.97C195.07,-240.75 175.5,-227.63 157.37,-215.48"/>
<polygon fill="black" stroke="black" points="158.85,-212.26 148.6,-209.6 154.96,-218.08 158.85,-212.26"/>
</g>
<!-- 4 -->
<g id="node5" class="node">
<title>4</title>
<polygon fill="none" stroke="black" points="385,-217 185,-217 185,-119 385,-119 385,-217"/>
<text text-anchor="middle" x="285" y="-201.8" font-family="Times,serif" font-size="14.00">node #4</text>
<text text-anchor="middle" x="285" y="-186.8" font-family="Times,serif" font-size="14.00">FEV1PrePercent &lt;= 54.0</text>
<text text-anchor="middle" x="285" y="-171.8" font-family="Times,serif" font-size="14.00">gini = 0.157</text>
<text text-anchor="middle" x="285" y="-156.8" font-family="Times,serif" font-size="14.00">samples = 7</text>
<text text-anchor="middle" x="285" y="-141.8" font-family="Times,serif" font-size="14.00">value = [10.309, 0.971]</text>
<text text-anchor="middle" x="285" y="-126.8" font-family="Times,serif" font-size="14.00">class = Non&#45;obstructive</text>
</g>
<!-- 2&#45;&gt;4 -->
<g id="edge4" class="edge">
<title>2&#45;&gt;4</title>
<path fill="none" stroke="black" d="M285,-252.97C285,-244.69 285,-236 285,-227.48"/>
<polygon fill="black" stroke="black" points="288.5,-227.21 285,-217.21 281.5,-227.21 288.5,-227.21"/>
</g>
<!-- 5 -->
<g id="node6" class="node">
<title>5</title>
<polygon fill="none" stroke="black" points="188,-83 0,-83 0,0 188,0 188,-83"/>
<text text-anchor="middle" x="94" y="-67.8" font-family="Times,serif" font-size="14.00">node #5</text>
<text text-anchor="middle" x="94" y="-52.8" font-family="Times,serif" font-size="14.00">gini = 0.0</text>
<text text-anchor="middle" x="94" y="-37.8" font-family="Times,serif" font-size="14.00">samples = 6</text>
<text text-anchor="middle" x="94" y="-22.8" font-family="Times,serif" font-size="14.00">value = [10.309, 0.0]</text>
<text text-anchor="middle" x="94" y="-7.8" font-family="Times,serif" font-size="14.00">class = Non&#45;obstructive</text>
</g>
<!-- 4&#45;&gt;5 -->
<g id="edge5" class="edge">
<title>4&#45;&gt;5</title>
<path fill="none" stroke="black" d="M211.15,-118.87C195.97,-108.97 180.02,-98.57 164.95,-88.74"/>
<polygon fill="black" stroke="black" points="166.47,-85.56 156.18,-83.03 162.65,-91.43 166.47,-85.56"/>
</g>
<!-- 6 -->
<g id="node7" class="node">
<title>6</title>
<polygon fill="none" stroke="black" points="364,-83 206,-83 206,0 364,0 364,-83"/>
<text text-anchor="middle" x="285" y="-67.8" font-family="Times,serif" font-size="14.00">node #6</text>
<text text-anchor="middle" x="285" y="-52.8" font-family="Times,serif" font-size="14.00">gini = &#45;0.0</text>
<text text-anchor="middle" x="285" y="-37.8" font-family="Times,serif" font-size="14.00">samples = 1</text>
<text text-anchor="middle" x="285" y="-22.8" font-family="Times,serif" font-size="14.00">value = [0.0, 0.971]</text>
<text text-anchor="middle" x="285" y="-7.8" font-family="Times,serif" font-size="14.00">class = Obstructive</text>
</g>
<!-- 4&#45;&gt;6 -->
<g id="edge6" class="edge">
<title>4&#45;&gt;6</title>
<path fill="none" stroke="black" d="M285,-118.87C285,-110.5 285,-101.77 285,-93.33"/>
<polygon fill="black" stroke="black" points="288.5,-93.23 285,-83.23 281.5,-93.23 288.5,-93.23"/>
</g>
<!-- 8 -->
<g id="node9" class="node">
<title>8</title>
<polygon fill="none" stroke="black" points="769.5,-217 584.5,-217 584.5,-119 769.5,-119 769.5,-217"/>
<text text-anchor="middle" x="677" y="-201.8" font-family="Times,serif" font-size="14.00">node #8</text>
<text text-anchor="middle" x="677" y="-186.8" font-family="Times,serif" font-size="14.00">FEFPreVal &lt;= 1.075</text>
<text text-anchor="middle" x="677" y="-171.8" font-family="Times,serif" font-size="14.00">gini = 0.126</text>
<text text-anchor="middle" x="677" y="-156.8" font-family="Times,serif" font-size="14.00">samples = 48</text>
<text text-anchor="middle" x="677" y="-141.8" font-family="Times,serif" font-size="14.00">value = [5.154, 70.878]</text>
<text text-anchor="middle" x="677" y="-126.8" font-family="Times,serif" font-size="14.00">class = Obstructive</text>
</g>
<!-- 7&#45;&gt;8 -->
<g id="edge8" class="edge">
<title>7&#45;&gt;8</title>
<path fill="none" stroke="black" d="M743.8,-252.97C736.63,-243.96 729.08,-234.47 721.74,-225.24"/>
<polygon fill="black" stroke="black" points="724.32,-222.86 715.35,-217.21 718.84,-227.22 724.32,-222.86"/>
</g>
<!-- 11 -->
<g id="node12" class="node">
<title>11</title>
<polygon fill="none" stroke="black" points="988,-217 788,-217 788,-119 988,-119 988,-217"/>
<text text-anchor="middle" x="888" y="-201.8" font-family="Times,serif" font-size="14.00">node #11</text>
<text text-anchor="middle" x="888" y="-186.8" font-family="Times,serif" font-size="14.00">FEV1PrePercent &lt;= 48.0</text>
<text text-anchor="middle" x="888" y="-171.8" font-family="Times,serif" font-size="14.00">gini = 0.382</text>
<text text-anchor="middle" x="888" y="-156.8" font-family="Times,serif" font-size="14.00">samples = 42</text>
<text text-anchor="middle" x="888" y="-141.8" font-family="Times,serif" font-size="14.00">value = [16.494, 47.576]</text>
<text text-anchor="middle" x="888" y="-126.8" font-family="Times,serif" font-size="14.00">class = Obstructive</text>
</g>
<!-- 7&#45;&gt;11 -->
<g id="edge11" class="edge">
<title>7&#45;&gt;11</title>
<path fill="none" stroke="black" d="M820.57,-252.97C827.8,-243.96 835.42,-234.47 842.84,-225.24"/>
<polygon fill="black" stroke="black" points="845.75,-227.2 849.28,-217.21 840.29,-222.82 845.75,-227.2"/>
</g>
<!-- 9 -->
<g id="node10" class="node">
<title>9</title>
<polygon fill="none" stroke="black" points="566.5,-83 381.5,-83 381.5,0 566.5,0 566.5,-83"/>
<text text-anchor="middle" x="474" y="-67.8" font-family="Times,serif" font-size="14.00">node #9</text>
<text text-anchor="middle" x="474" y="-52.8" font-family="Times,serif" font-size="14.00">gini = 0.08</text>
<text text-anchor="middle" x="474" y="-37.8" font-family="Times,serif" font-size="14.00">samples = 46</text>
<text text-anchor="middle" x="474" y="-22.8" font-family="Times,serif" font-size="14.00">value = [3.093, 70.878]</text>
<text text-anchor="middle" x="474" y="-7.8" font-family="Times,serif" font-size="14.00">class = Obstructive</text>
</g>
<!-- 8&#45;&gt;9 -->
<g id="edge9" class="edge">
<title>8&#45;&gt;9</title>
<path fill="none" stroke="black" d="M598.51,-118.87C582.23,-108.88 565.11,-98.38 548.95,-88.47"/>
<polygon fill="black" stroke="black" points="550.44,-85.28 540.09,-83.03 546.78,-91.24 550.44,-85.28"/>
</g>
<!-- 10 -->
<g id="node11" class="node">
<title>10</title>
<polygon fill="none" stroke="black" points="773,-83 585,-83 585,0 773,0 773,-83"/>
<text text-anchor="middle" x="679" y="-67.8" font-family="Times,serif" font-size="14.00">node #10</text>
<text text-anchor="middle" x="679" y="-52.8" font-family="Times,serif" font-size="14.00">gini = &#45;0.0</text>
<text text-anchor="middle" x="679" y="-37.8" font-family="Times,serif" font-size="14.00">samples = 2</text>
<text text-anchor="middle" x="679" y="-22.8" font-family="Times,serif" font-size="14.00">value = [2.062, 0.0]</text>
<text text-anchor="middle" x="679" y="-7.8" font-family="Times,serif" font-size="14.00">class = Non&#45;obstructive</text>
</g>
<!-- 8&#45;&gt;10 -->
<g id="edge10" class="edge">
<title>8&#45;&gt;10</title>
<path fill="none" stroke="black" d="M677.77,-118.87C677.91,-110.5 678.05,-101.77 678.18,-93.33"/>
<polygon fill="black" stroke="black" points="681.68,-93.29 678.35,-83.23 674.69,-93.17 681.68,-93.29"/>
</g>
<!-- 12 -->
<g id="node13" class="node">
<title>12</title>
<polygon fill="none" stroke="black" points="979,-83 791,-83 791,0 979,0 979,-83"/>
<text text-anchor="middle" x="885" y="-67.8" font-family="Times,serif" font-size="14.00">node #12</text>
<text text-anchor="middle" x="885" y="-52.8" font-family="Times,serif" font-size="14.00">gini = 0.188</text>
<text text-anchor="middle" x="885" y="-37.8" font-family="Times,serif" font-size="14.00">samples = 4</text>
<text text-anchor="middle" x="885" y="-22.8" font-family="Times,serif" font-size="14.00">value = [8.247, 0.971]</text>
<text text-anchor="middle" x="885" y="-7.8" font-family="Times,serif" font-size="14.00">class = Non&#45;obstructive</text>
</g>
<!-- 11&#45;&gt;12 -->
<g id="edge12" class="edge">
<title>11&#45;&gt;12</title>
<path fill="none" stroke="black" d="M886.84,-118.87C886.64,-110.5 886.43,-101.77 886.22,-93.33"/>
<polygon fill="black" stroke="black" points="889.72,-93.14 885.98,-83.23 882.72,-93.31 889.72,-93.14"/>
</g>
<!-- 13 -->
<g id="node14" class="node">
<title>13</title>
<polygon fill="none" stroke="black" points="1182.5,-83 997.5,-83 997.5,0 1182.5,0 1182.5,-83"/>
<text text-anchor="middle" x="1090" y="-67.8" font-family="Times,serif" font-size="14.00">node #13</text>
<text text-anchor="middle" x="1090" y="-52.8" font-family="Times,serif" font-size="14.00">gini = 0.255</text>
<text text-anchor="middle" x="1090" y="-37.8" font-family="Times,serif" font-size="14.00">samples = 38</text>
<text text-anchor="middle" x="1090" y="-22.8" font-family="Times,serif" font-size="14.00">value = [8.247, 46.605]</text>
<text text-anchor="middle" x="1090" y="-7.8" font-family="Times,serif" font-size="14.00">class = Obstructive</text>
</g>
<!-- 11&#45;&gt;13 -->
<g id="edge13" class="edge">
<title>11&#45;&gt;13</title>
<path fill="none" stroke="black" d="M966.1,-118.87C982.3,-108.88 999.34,-98.38 1015.42,-88.47"/>
<polygon fill="black" stroke="black" points="1017.56,-91.26 1024.24,-83.03 1013.89,-85.3 1017.56,-91.26"/>
</g>
<!-- 15 -->
<g id="node16" class="node">
<title>15</title>
<polygon fill="none" stroke="black" points="1675,-351 1487,-351 1487,-253 1675,-253 1675,-351"/>
<text text-anchor="middle" x="1581" y="-335.8" font-family="Times,serif" font-size="14.00">node #15</text>
<text text-anchor="middle" x="1581" y="-320.8" font-family="Times,serif" font-size="14.00">FEFPostVal &lt;= 1.155</text>
<text text-anchor="middle" x="1581" y="-305.8" font-family="Times,serif" font-size="14.00">gini = 0.071</text>
<text text-anchor="middle" x="1581" y="-290.8" font-family="Times,serif" font-size="14.00">samples = 57</text>
<text text-anchor="middle" x="1581" y="-275.8" font-family="Times,serif" font-size="14.00">value = [76.284, 2.913]</text>
<text text-anchor="middle" x="1581" y="-260.8" font-family="Times,serif" font-size="14.00">class = Non&#45;obstructive</text>
</g>
<!-- 14&#45;&gt;15 -->
<g id="edge15" class="edge">
<title>14&#45;&gt;15</title>
<path fill="none" stroke="black" d="M1581,-386.97C1581,-378.69 1581,-370 1581,-361.48"/>
<polygon fill="black" stroke="black" points="1584.5,-361.21 1581,-351.21 1577.5,-361.21 1584.5,-361.21"/>
</g>
<!-- 22 -->
<g id="node23" class="node">
<title>22</title>
<polygon fill="none" stroke="black" points="2287,-351 2093,-351 2093,-253 2287,-253 2287,-351"/>
<text text-anchor="middle" x="2190" y="-335.8" font-family="Times,serif" font-size="14.00">node #22</text>
<text text-anchor="middle" x="2190" y="-320.8" font-family="Times,serif" font-size="14.00">FEFPrePercent &lt;= 57.5</text>
<text text-anchor="middle" x="2190" y="-305.8" font-family="Times,serif" font-size="14.00">gini = 0.488</text>
<text text-anchor="middle" x="2190" y="-290.8" font-family="Times,serif" font-size="14.00">samples = 65</text>
<text text-anchor="middle" x="2190" y="-275.8" font-family="Times,serif" font-size="14.00">value = [58.759, 42.721]</text>
<text text-anchor="middle" x="2190" y="-260.8" font-family="Times,serif" font-size="14.00">class = Non&#45;obstructive</text>
</g>
<!-- 14&#45;&gt;22 -->
<g id="edge22" class="edge">
<title>14&#45;&gt;22</title>
<path fill="none" stroke="black" d="M1682.59,-412.98C1793.3,-388.99 1969.67,-350.76 2082.61,-326.28"/>
<polygon fill="black" stroke="black" points="2083.63,-329.64 2092.66,-324.1 2082.14,-322.8 2083.63,-329.64"/>
</g>
<!-- 16 -->
<g id="node17" class="node">
<title>16</title>
<polygon fill="none" stroke="black" points="1570,-217 1382,-217 1382,-119 1570,-119 1570,-217"/>
<text text-anchor="middle" x="1476" y="-201.8" font-family="Times,serif" font-size="14.00">node #16</text>
<text text-anchor="middle" x="1476" y="-186.8" font-family="Times,serif" font-size="14.00">FEFPostVal &lt;= 0.91</text>
<text text-anchor="middle" x="1476" y="-171.8" font-family="Times,serif" font-size="14.00">gini = 0.435</text>
<text text-anchor="middle" x="1476" y="-156.8" font-family="Times,serif" font-size="14.00">samples = 2</text>
<text text-anchor="middle" x="1476" y="-141.8" font-family="Times,serif" font-size="14.00">value = [2.062, 0.971]</text>
<text text-anchor="middle" x="1476" y="-126.8" font-family="Times,serif" font-size="14.00">class = Non&#45;obstructive</text>
</g>
<!-- 15&#45;&gt;16 -->
<g id="edge16" class="edge">
<title>15&#45;&gt;16</title>
<path fill="none" stroke="black" d="M1542.8,-252.97C1535.63,-243.96 1528.08,-234.47 1520.74,-225.24"/>
<polygon fill="black" stroke="black" points="1523.32,-222.86 1514.35,-217.21 1517.84,-227.22 1523.32,-222.86"/>
</g>
<!-- 19 -->
<g id="node20" class="node">
<title>19</title>
<polygon fill="none" stroke="black" points="1785.5,-217 1588.5,-217 1588.5,-119 1785.5,-119 1785.5,-217"/>
<text text-anchor="middle" x="1687" y="-201.8" font-family="Times,serif" font-size="14.00">node #19</text>
<text text-anchor="middle" x="1687" y="-186.8" font-family="Times,serif" font-size="14.00">FVCPostPercent &lt;= 66.5</text>
<text text-anchor="middle" x="1687" y="-171.8" font-family="Times,serif" font-size="14.00">gini = 0.05</text>
<text text-anchor="middle" x="1687" y="-156.8" font-family="Times,serif" font-size="14.00">samples = 55</text>
<text text-anchor="middle" x="1687" y="-141.8" font-family="Times,serif" font-size="14.00">value = [74.222, 1.942]</text>
<text text-anchor="middle" x="1687" y="-126.8" font-family="Times,serif" font-size="14.00">class = Non&#45;obstructive</text>
</g>
<!-- 15&#45;&gt;19 -->
<g id="edge19" class="edge">
<title>15&#45;&gt;19</title>
<path fill="none" stroke="black" d="M1619.57,-252.97C1626.8,-243.96 1634.42,-234.47 1641.84,-225.24"/>
<polygon fill="black" stroke="black" points="1644.75,-227.2 1648.28,-217.21 1639.29,-222.82 1644.75,-227.2"/>
</g>
<!-- 17 -->
<g id="node18" class="node">
<title>17</title>
<polygon fill="none" stroke="black" points="1389,-83 1201,-83 1201,0 1389,0 1389,-83"/>
<text text-anchor="middle" x="1295" y="-67.8" font-family="Times,serif" font-size="14.00">node #17</text>
<text text-anchor="middle" x="1295" y="-52.8" font-family="Times,serif" font-size="14.00">gini = 0.0</text>
<text text-anchor="middle" x="1295" y="-37.8" font-family="Times,serif" font-size="14.00">samples = 1</text>
<text text-anchor="middle" x="1295" y="-22.8" font-family="Times,serif" font-size="14.00">value = [2.062, 0.0]</text>
<text text-anchor="middle" x="1295" y="-7.8" font-family="Times,serif" font-size="14.00">class = Non&#45;obstructive</text>
</g>
<!-- 16&#45;&gt;17 -->
<g id="edge17" class="edge">
<title>16&#45;&gt;17</title>
<path fill="none" stroke="black" d="M1406.02,-118.87C1391.63,-108.97 1376.52,-98.57 1362.23,-88.74"/>
<polygon fill="black" stroke="black" points="1364.15,-85.82 1353.93,-83.03 1360.18,-91.58 1364.15,-85.82"/>
</g>
<!-- 18 -->
<g id="node19" class="node">
<title>18</title>
<polygon fill="none" stroke="black" points="1565,-83 1407,-83 1407,0 1565,0 1565,-83"/>
<text text-anchor="middle" x="1486" y="-67.8" font-family="Times,serif" font-size="14.00">node #18</text>
<text text-anchor="middle" x="1486" y="-52.8" font-family="Times,serif" font-size="14.00">gini = 0.0</text>
<text text-anchor="middle" x="1486" y="-37.8" font-family="Times,serif" font-size="14.00">samples = 1</text>
<text text-anchor="middle" x="1486" y="-22.8" font-family="Times,serif" font-size="14.00">value = [0.0, 0.971]</text>
<text text-anchor="middle" x="1486" y="-7.8" font-family="Times,serif" font-size="14.00">class = Obstructive</text>
</g>
<!-- 16&#45;&gt;18 -->
<g id="edge18" class="edge">
<title>16&#45;&gt;18</title>
<path fill="none" stroke="black" d="M1479.87,-118.87C1480.54,-110.5 1481.24,-101.77 1481.92,-93.33"/>
<polygon fill="black" stroke="black" points="1485.42,-93.48 1482.73,-83.23 1478.44,-92.92 1485.42,-93.48"/>
</g>
<!-- 20 -->
<g id="node21" class="node">
<title>20</title>
<polygon fill="none" stroke="black" points="1771,-83 1583,-83 1583,0 1771,0 1771,-83"/>
<text text-anchor="middle" x="1677" y="-67.8" font-family="Times,serif" font-size="14.00">node #20</text>
<text text-anchor="middle" x="1677" y="-52.8" font-family="Times,serif" font-size="14.00">gini = 0.026</text>
<text text-anchor="middle" x="1677" y="-37.8" font-family="Times,serif" font-size="14.00">samples = 52</text>
<text text-anchor="middle" x="1677" y="-22.8" font-family="Times,serif" font-size="14.00">value = [72.16, 0.971]</text>
<text text-anchor="middle" x="1677" y="-7.8" font-family="Times,serif" font-size="14.00">class = Non&#45;obstructive</text>
</g>
<!-- 19&#45;&gt;20 -->
<g id="edge20" class="edge">
<title>19&#45;&gt;20</title>
<path fill="none" stroke="black" d="M1683.13,-118.87C1682.46,-110.5 1681.76,-101.77 1681.08,-93.33"/>
<polygon fill="black" stroke="black" points="1684.56,-92.92 1680.27,-83.23 1677.58,-93.48 1684.56,-92.92"/>
</g>
<!-- 21 -->
<g id="node22" class="node">
<title>21</title>
<polygon fill="none" stroke="black" points="1977,-83 1789,-83 1789,0 1977,0 1977,-83"/>
<text text-anchor="middle" x="1883" y="-67.8" font-family="Times,serif" font-size="14.00">node #21</text>
<text text-anchor="middle" x="1883" y="-52.8" font-family="Times,serif" font-size="14.00">gini = 0.435</text>
<text text-anchor="middle" x="1883" y="-37.8" font-family="Times,serif" font-size="14.00">samples = 3</text>
<text text-anchor="middle" x="1883" y="-22.8" font-family="Times,serif" font-size="14.00">value = [2.062, 0.971]</text>
<text text-anchor="middle" x="1883" y="-7.8" font-family="Times,serif" font-size="14.00">class = Non&#45;obstructive</text>
</g>
<!-- 19&#45;&gt;21 -->
<g id="edge21" class="edge">
<title>19&#45;&gt;21</title>
<path fill="none" stroke="black" d="M1762.78,-118.87C1778.5,-108.88 1795.03,-98.38 1810.63,-88.47"/>
<polygon fill="black" stroke="black" points="1812.63,-91.35 1819.19,-83.03 1808.87,-85.44 1812.63,-91.35"/>
</g>
<!-- 23 -->
<g id="node24" class="node">
<title>23</title>
<polygon fill="none" stroke="black" points="2282.5,-217 2097.5,-217 2097.5,-119 2282.5,-119 2282.5,-217"/>
<text text-anchor="middle" x="2190" y="-201.8" font-family="Times,serif" font-size="14.00">node #23</text>
<text text-anchor="middle" x="2190" y="-186.8" font-family="Times,serif" font-size="14.00">FEFPostVal &lt;= 1.795</text>
<text text-anchor="middle" x="2190" y="-171.8" font-family="Times,serif" font-size="14.00">gini = 0.364</text>
<text text-anchor="middle" x="2190" y="-156.8" font-family="Times,serif" font-size="14.00">samples = 22</text>
<text text-anchor="middle" x="2190" y="-141.8" font-family="Times,serif" font-size="14.00">value = [8.247, 26.215]</text>
<text text-anchor="middle" x="2190" y="-126.8" font-family="Times,serif" font-size="14.00">class = Obstructive</text>
</g>
<!-- 22&#45;&gt;23 -->
<g id="edge23" class="edge">
<title>22&#45;&gt;23</title>
<path fill="none" stroke="black" d="M2190,-252.97C2190,-244.69 2190,-236 2190,-227.48"/>
<polygon fill="black" stroke="black" points="2193.5,-227.21 2190,-217.21 2186.5,-227.21 2193.5,-227.21"/>
</g>
<!-- 26 -->
<g id="node27" class="node">
<title>26</title>
<polygon fill="none" stroke="black" points="2596,-217 2402,-217 2402,-119 2596,-119 2596,-217"/>
<text text-anchor="middle" x="2499" y="-201.8" font-family="Times,serif" font-size="14.00">node #26</text>
<text text-anchor="middle" x="2499" y="-186.8" font-family="Times,serif" font-size="14.00">FEV1PreVal &lt;= 2.825</text>
<text text-anchor="middle" x="2499" y="-171.8" font-family="Times,serif" font-size="14.00">gini = 0.371</text>
<text text-anchor="middle" x="2499" y="-156.8" font-family="Times,serif" font-size="14.00">samples = 43</text>
<text text-anchor="middle" x="2499" y="-141.8" font-family="Times,serif" font-size="14.00">value = [50.512, 16.506]</text>
<text text-anchor="middle" x="2499" y="-126.8" font-family="Times,serif" font-size="14.00">class = Non&#45;obstructive</text>
</g>
<!-- 22&#45;&gt;26 -->
<g id="edge26" class="edge">
<title>22&#45;&gt;26</title>
<path fill="none" stroke="black" d="M2287.35,-259.42C2320.74,-245.15 2358.27,-229.12 2392.36,-214.55"/>
<polygon fill="black" stroke="black" points="2394.06,-217.64 2401.88,-210.49 2391.31,-211.2 2394.06,-217.64"/>
</g>
<!-- 24 -->
<g id="node25" class="node">
<title>24</title>
<polygon fill="none" stroke="black" points="2183,-83 1995,-83 1995,0 2183,0 2183,-83"/>
<text text-anchor="middle" x="2089" y="-67.8" font-family="Times,serif" font-size="14.00">node #24</text>
<text text-anchor="middle" x="2089" y="-52.8" font-family="Times,serif" font-size="14.00">gini = 0.435</text>
<text text-anchor="middle" x="2089" y="-37.8" font-family="Times,serif" font-size="14.00">samples = 8</text>
<text text-anchor="middle" x="2089" y="-22.8" font-family="Times,serif" font-size="14.00">value = [6.185, 2.913]</text>
<text text-anchor="middle" x="2089" y="-7.8" font-family="Times,serif" font-size="14.00">class = Non&#45;obstructive</text>
</g>
<!-- 23&#45;&gt;24 -->
<g id="edge24" class="edge">
<title>23&#45;&gt;24</title>
<path fill="none" stroke="black" d="M2150.95,-118.87C2143.57,-109.76 2135.84,-100.23 2128.44,-91.12"/>
<polygon fill="black" stroke="black" points="2131.06,-88.79 2122.04,-83.23 2125.62,-93.2 2131.06,-88.79"/>
</g>
<!-- 25 -->
<g id="node26" class="node">
<title>25</title>
<polygon fill="none" stroke="black" points="2386.5,-83 2201.5,-83 2201.5,0 2386.5,0 2386.5,-83"/>
<text text-anchor="middle" x="2294" y="-67.8" font-family="Times,serif" font-size="14.00">node #25</text>
<text text-anchor="middle" x="2294" y="-52.8" font-family="Times,serif" font-size="14.00">gini = 0.149</text>
<text text-anchor="middle" x="2294" y="-37.8" font-family="Times,serif" font-size="14.00">samples = 14</text>
<text text-anchor="middle" x="2294" y="-22.8" font-family="Times,serif" font-size="14.00">value = [2.062, 23.302]</text>
<text text-anchor="middle" x="2294" y="-7.8" font-family="Times,serif" font-size="14.00">class = Obstructive</text>
</g>
<!-- 23&#45;&gt;25 -->
<g id="edge25" class="edge">
<title>23&#45;&gt;25</title>
<path fill="none" stroke="black" d="M2230.21,-118.87C2237.81,-109.76 2245.77,-100.23 2253.39,-91.12"/>
<polygon fill="black" stroke="black" points="2256.25,-93.15 2259.98,-83.23 2250.88,-88.66 2256.25,-93.15"/>
</g>
<!-- 27 -->
<g id="node28" class="node">
<title>27</title>
<polygon fill="none" stroke="black" points="2593,-83 2405,-83 2405,0 2593,0 2593,-83"/>
<text text-anchor="middle" x="2499" y="-67.8" font-family="Times,serif" font-size="14.00">node #27</text>
<text text-anchor="middle" x="2499" y="-52.8" font-family="Times,serif" font-size="14.00">gini = 0.267</text>
<text text-anchor="middle" x="2499" y="-37.8" font-family="Times,serif" font-size="14.00">samples = 35</text>
<text text-anchor="middle" x="2499" y="-22.8" font-family="Times,serif" font-size="14.00">value = [46.389, 8.738]</text>
<text text-anchor="middle" x="2499" y="-7.8" font-family="Times,serif" font-size="14.00">class = Non&#45;obstructive</text>
</g>
<!-- 26&#45;&gt;27 -->
<g id="edge27" class="edge">
<title>26&#45;&gt;27</title>
<path fill="none" stroke="black" d="M2499,-118.87C2499,-110.5 2499,-101.77 2499,-93.33"/>
<polygon fill="black" stroke="black" points="2502.5,-93.23 2499,-83.23 2495.5,-93.23 2502.5,-93.23"/>
</g>
<!-- 28 -->
<g id="node29" class="node">
<title>28</title>
<polygon fill="none" stroke="black" points="2787,-83 2611,-83 2611,0 2787,0 2787,-83"/>
<text text-anchor="middle" x="2699" y="-67.8" font-family="Times,serif" font-size="14.00">node #28</text>
<text text-anchor="middle" x="2699" y="-52.8" font-family="Times,serif" font-size="14.00">gini = 0.453</text>
<text text-anchor="middle" x="2699" y="-37.8" font-family="Times,serif" font-size="14.00">samples = 8</text>
<text text-anchor="middle" x="2699" y="-22.8" font-family="Times,serif" font-size="14.00">value = [4.123, 7.767]</text>
<text text-anchor="middle" x="2699" y="-7.8" font-family="Times,serif" font-size="14.00">class = Obstructive</text>
</g>
<!-- 26&#45;&gt;28 -->
<g id="edge28" class="edge">
<title>26&#45;&gt;28</title>
<path fill="none" stroke="black" d="M2576.33,-118.87C2592.37,-108.88 2609.24,-98.38 2625.15,-88.47"/>
<polygon fill="black" stroke="black" points="2627.25,-91.29 2633.89,-83.03 2623.55,-85.35 2627.25,-91.29"/>
</g>
</g>
</svg>
