<?xml version="1.0" encoding="UTF-8" standalone="no"?>
<!DOCTYPE svg PUBLIC "-//W3C//DTD SVG 1.1//EN"
 "http://www.w3.org/Graphics/SVG/1.1/DTD/svg11.dtd">
<!-- Generated by graphviz version 2.43.0 (0)
 -->
<!-- Title: Tree Pages: 1 -->
<svg width="2359pt" height="627pt"
 viewBox="0.00 0.00 2359.00 627.00" xmlns="http://www.w3.org/2000/svg" xmlns:xlink="http://www.w3.org/1999/xlink">
<g id="graph0" class="graph" transform="scale(1 1) rotate(0) translate(4 623)">
<title>Tree</title>
<polygon fill="white" stroke="transparent" points="-4,4 -4,-623 2355,-623 2355,4 -4,4"/>
<!-- 0 -->
<g id="node1" class="node">
<title>0</title>
<polygon fill="none" stroke="black" points="1231,-619 1043,-619 1043,-521 1231,-521 1231,-619"/>
<text text-anchor="middle" x="1137" y="-603.8" font-family="Times,serif" font-size="14.00">node #0</text>
<text text-anchor="middle" x="1137" y="-588.8" font-family="Times,serif" font-size="14.00">FEFPostVal &lt;= 1.14</text>
<text text-anchor="middle" x="1137" y="-573.8" font-family="Times,serif" font-size="14.00">gini = 0.5</text>
<text text-anchor="middle" x="1137" y="-558.8" font-family="Times,serif" font-size="14.00">samples = 208</text>
<text text-anchor="middle" x="1137" y="-543.8" font-family="Times,serif" font-size="14.00">value = [167.0, 167.0]</text>
<text text-anchor="middle" x="1137" y="-528.8" font-family="Times,serif" font-size="14.00">class = Non&#45;obstructive</text>
</g>
<!-- 1 -->
<g id="node2" class="node">
<title>1</title>
<polygon fill="none" stroke="black" points="851,-485 657,-485 657,-387 851,-387 851,-485"/>
<text text-anchor="middle" x="754" y="-469.8" font-family="Times,serif" font-size="14.00">node #1</text>
<text text-anchor="middle" x="754" y="-454.8" font-family="Times,serif" font-size="14.00">FVCPostVal &lt;= 1.395</text>
<text text-anchor="middle" x="754" y="-439.8" font-family="Times,serif" font-size="14.00">gini = 0.196</text>
<text text-anchor="middle" x="754" y="-424.8" font-family="Times,serif" font-size="14.00">samples = 71</text>
<text text-anchor="middle" x="754" y="-409.8" font-family="Times,serif" font-size="14.00">value = [12.007, 96.878]</text>
<text text-anchor="middle" x="754" y="-394.8" font-family="Times,serif" font-size="14.00">class = Obstructive</text>
</g>
<!-- 0&#45;&gt;1 -->
<g id="edge1" class="edge">
<title>0&#45;&gt;1</title>
<path fill="none" stroke="black" d="M1042.82,-536.54C987.75,-517.56 918.06,-493.54 860.94,-473.86"/>
<polygon fill="black" stroke="black" points="861.75,-470.43 851.15,-470.48 859.47,-477.05 861.75,-470.43"/>
<text text-anchor="middle" x="862.11" y="-489.26" font-family="Times,serif" font-size="14.00">True</text>
</g>
<!-- 14 -->
<g id="node15" class="node">
<title>14</title>
<polygon fill="none" stroke="black" points="1629.5,-485 1426.5,-485 1426.5,-387 1629.5,-387 1629.5,-485"/>
<text text-anchor="middle" x="1528" y="-469.8" font-family="Times,serif" font-size="14.00">node #14</text>
<text text-anchor="middle" x="1528" y="-454.8" font-family="Times,serif" font-size="14.00">FVCPreVal &lt;= 2.115</text>
<text text-anchor="middle" x="1528" y="-439.8" font-family="Times,serif" font-size="14.00">gini = 0.429</text>
<text text-anchor="middle" x="1528" y="-424.8" font-family="Times,serif" font-size="14.00">samples = 137</text>
<text text-anchor="middle" x="1528" y="-409.8" font-family="Times,serif" font-size="14.00">value = [154.993, 70.122]</text>
<text text-anchor="middle" x="1528" y="-394.8" font-family="Times,serif" font-size="14.00">class = Non&#45;obstructive</text>
</g>
<!-- 0&#45;&gt;14 -->
<g id="edge14" class="edge">
<title>0&#45;&gt;14</title>
<path fill="none" stroke="black" d="M1231.15,-537.21C1287.02,-518.35 1358.15,-494.34 1416.78,-474.55"/>
<polygon fill="black" stroke="black" points="1418.09,-477.8 1426.45,-471.28 1415.85,-471.17 1418.09,-477.8"/>
<text text-anchor="middle" x="1415.35" y="-489.99" font-family="Times,serif" font-size="14.00">False</text>
</g>
<!-- 2 -->
<g id="node3" class="node">
<title>2</title>
<polygon fill="none" stroke="black" points="383.5,-351 186.5,-351 186.5,-253 383.5,-253 383.5,-351"/>
<text text-anchor="middle" x="285" y="-335.8" font-family="Times,serif" font-size="14.00">node #2</text>
<text text-anchor="middle" x="285" y="-320.8" font-family="Times,serif" font-size="14.00">FVCPostPercent &lt;= 32.0</text>
<text text-anchor="middle" x="285" y="-305.8" font-family="Times,serif" font-size="14.00">gini = 0.5</text>
<text text-anchor="middle" x="285" y="-290.8" font-family="Times,serif" font-size="14.00">samples = 10</text>
<text text-anchor="middle" x="285" y="-275.8" font-family="Times,serif" font-size="14.00">value = [7.641, 7.381]</text>
<text text-anchor="middle" x="285" y="-260.8" font-family="Times,serif" font-size="14.00">class = Non&#45;obstructive</text>
</g>
<!-- 1&#45;&gt;2 -->
<g id="edge2" class="edge">
<title>1&#45;&gt;2</title>
<path fill="none" stroke="black" d="M656.82,-407.65C580.15,-386.07 473.23,-355.98 393.71,-333.6"/>
<polygon fill="black" stroke="black" points="394.24,-330.11 383.67,-330.77 392.34,-336.85 394.24,-330.11"/>
</g>
<!-- 7 -->
<g id="node8" class="node">
<title>7</title>
<polygon fill="none" stroke="black" points="846.5,-351 661.5,-351 661.5,-253 846.5,-253 846.5,-351"/>
<text text-anchor="middle" x="754" y="-335.8" font-family="Times,serif" font-size="14.00">node #7</text>
<text text-anchor="middle" x="754" y="-320.8" font-family="Times,serif" font-size="14.00">FVCPreVal &lt;= 2.62</text>
<text text-anchor="middle" x="754" y="-305.8" font-family="Times,serif" font-size="14.00">gini = 0.089</text>
<text text-anchor="middle" x="754" y="-290.8" font-family="Times,serif" font-size="14.00">samples = 61</text>
<text text-anchor="middle" x="754" y="-275.8" font-family="Times,serif" font-size="14.00">value = [4.366, 89.497]</text>
<text text-anchor="middle" x="754" y="-260.8" font-family="Times,serif" font-size="14.00">class = Obstructive</text>
</g>
<!-- 1&#45;&gt;7 -->
<g id="edge7" class="edge">
<title>1&#45;&gt;7</title>
<path fill="none" stroke="black" d="M754,-386.97C754,-378.69 754,-370 754,-361.48"/>
<polygon fill="black" stroke="black" points="757.5,-361.21 754,-351.21 750.5,-361.21 757.5,-361.21"/>
</g>
<!-- 3 -->
<g id="node4" class="node">
<title>3</title>
<polygon fill="none" stroke="black" points="168,-209.5 10,-209.5 10,-126.5 168,-126.5 168,-209.5"/>
<text text-anchor="middle" x="89" y="-194.3" font-family="Times,serif" font-size="14.00">node #3</text>
<text text-anchor="middle" x="89" y="-179.3" font-family="Times,serif" font-size="14.00">gini = 0.0</text>
<text text-anchor="middle" x="89" y="-164.3" font-family="Times,serif" font-size="14.00">samples = 2</text>
<text text-anchor="middle" x="89" y="-149.3" font-family="Times,serif" font-size="14.00">value = [0.0, 3.691]</text>
<text text-anchor="middle" x="89" y="-134.3" font-family="Times,serif" font-size="14.00">class = Obstructive</text>
</g>
<!-- 2&#45;&gt;3 -->
<g id="edge3" class="edge">
<title>2&#45;&gt;3</title>
<path fill="none" stroke="black" d="M213.69,-252.97C195.53,-240.75 176.05,-227.63 158.02,-215.48"/>
<polygon fill="black" stroke="black" points="159.54,-212.29 149.29,-209.6 155.63,-218.09 159.54,-212.29"/>
</g>
<!-- 4 -->
<g id="node5" class="node">
<title>4</title>
<polygon fill="none" stroke="black" points="383.5,-217 186.5,-217 186.5,-119 383.5,-119 383.5,-217"/>
<text text-anchor="middle" x="285" y="-201.8" font-family="Times,serif" font-size="14.00">node #4</text>
<text text-anchor="middle" x="285" y="-186.8" font-family="Times,serif" font-size="14.00">FVCPostPercent &lt;= 55.0</text>
<text text-anchor="middle" x="285" y="-171.8" font-family="Times,serif" font-size="14.00">gini = 0.439</text>
<text text-anchor="middle" x="285" y="-156.8" font-family="Times,serif" font-size="14.00">samples = 8</text>
<text text-anchor="middle" x="285" y="-141.8" font-family="Times,serif" font-size="14.00">value = [7.641, 3.691]</text>
<text text-anchor="middle" x="285" y="-126.8" font-family="Times,serif" font-size="14.00">class = Non&#45;obstructive</text>
</g>
<!-- 2&#45;&gt;4 -->
<g id="edge4" class="edge">
<title>2&#45;&gt;4</title>
<path fill="none" stroke="black" d="M285,-252.97C285,-244.69 285,-236 285,-227.48"/>
<polygon fill="black" stroke="black" points="288.5,-227.21 285,-217.21 281.5,-227.21 288.5,-227.21"/>
</g>
<!-- 5 -->
<g id="node6" class="node">
<title>5</title>
<polygon fill="none" stroke="black" points="188,-83 0,-83 0,0 188,0 188,-83"/>
<text text-anchor="middle" x="94" y="-67.8" font-family="Times,serif" font-size="14.00">node #5</text>
<text text-anchor="middle" x="94" y="-52.8" font-family="Times,serif" font-size="14.00">gini = 0.192</text>
<text text-anchor="middle" x="94" y="-37.8" font-family="Times,serif" font-size="14.00">samples = 6</text>
<text text-anchor="middle" x="94" y="-22.8" font-family="Times,serif" font-size="14.00">value = [7.641, 0.923]</text>
<text text-anchor="middle" x="94" y="-7.8" font-family="Times,serif" font-size="14.00">class = Non&#45;obstructive</text>
</g>
<!-- 4&#45;&gt;5 -->
<g id="edge5" class="edge">
<title>4&#45;&gt;5</title>
<path fill="none" stroke="black" d="M211.15,-118.87C195.97,-108.97 180.02,-98.57 164.95,-88.74"/>
<polygon fill="black" stroke="black" points="166.47,-85.56 156.18,-83.03 162.65,-91.43 166.47,-85.56"/>
</g>
<!-- 6 -->
<g id="node7" class="node">
<title>6</title>
<polygon fill="none" stroke="black" points="364,-83 206,-83 206,0 364,0 364,-83"/>
<text text-anchor="middle" x="285" y="-67.8" font-family="Times,serif" font-size="14.00">node #6</text>
<text text-anchor="middle" x="285" y="-52.8" font-family="Times,serif" font-size="14.00">gini = &#45;0.0</text>
<text text-anchor="middle" x="285" y="-37.8" font-family="Times,serif" font-size="14.00">samples = 2</text>
<text text-anchor="middle" x="285" y="-22.8" font-family="Times,serif" font-size="14.00">value = [0.0, 2.768]</text>
<text text-anchor="middle" x="285" y="-7.8" font-family="Times,serif" font-size="14.00">class = Obstructive</text>
</g>
<!-- 4&#45;&gt;6 -->
<g id="edge6" class="edge">
<title>4&#45;&gt;6</title>
<path fill="none" stroke="black" d="M285,-118.87C285,-110.5 285,-101.77 285,-93.33"/>
<polygon fill="black" stroke="black" points="288.5,-93.23 285,-83.23 281.5,-93.23 288.5,-93.23"/>
</g>
<!-- 8 -->
<g id="node9" class="node">
<title>8</title>
<polygon fill="none" stroke="black" points="750,-217 550,-217 550,-119 750,-119 750,-217"/>
<text text-anchor="middle" x="650" y="-201.8" font-family="Times,serif" font-size="14.00">node #8</text>
<text text-anchor="middle" x="650" y="-186.8" font-family="Times,serif" font-size="14.00">FEV1PrePercent &lt;= 51.0</text>
<text text-anchor="middle" x="650" y="-171.8" font-family="Times,serif" font-size="14.00">gini = 0.025</text>
<text text-anchor="middle" x="650" y="-156.8" font-family="Times,serif" font-size="14.00">samples = 55</text>
<text text-anchor="middle" x="650" y="-141.8" font-family="Times,serif" font-size="14.00">value = [1.092, 83.961]</text>
<text text-anchor="middle" x="650" y="-126.8" font-family="Times,serif" font-size="14.00">class = Obstructive</text>
</g>
<!-- 7&#45;&gt;8 -->
<g id="edge8" class="edge">
<title>7&#45;&gt;8</title>
<path fill="none" stroke="black" d="M716.16,-252.97C709.06,-243.96 701.58,-234.47 694.31,-225.24"/>
<polygon fill="black" stroke="black" points="696.92,-222.9 687.99,-217.21 691.43,-227.23 696.92,-222.9"/>
</g>
<!-- 11 -->
<g id="node12" class="node">
<title>11</title>
<polygon fill="none" stroke="black" points="950,-217 768,-217 768,-119 950,-119 950,-217"/>
<text text-anchor="middle" x="859" y="-201.8" font-family="Times,serif" font-size="14.00">node #11</text>
<text text-anchor="middle" x="859" y="-186.8" font-family="Times,serif" font-size="14.00">FEV1PostVal &lt;= 1.625</text>
<text text-anchor="middle" x="859" y="-171.8" font-family="Times,serif" font-size="14.00">gini = 0.467</text>
<text text-anchor="middle" x="859" y="-156.8" font-family="Times,serif" font-size="14.00">samples = 6</text>
<text text-anchor="middle" x="859" y="-141.8" font-family="Times,serif" font-size="14.00">value = [3.275, 5.536]</text>
<text text-anchor="middle" x="859" y="-126.8" font-family="Times,serif" font-size="14.00">class = Obstructive</text>
</g>
<!-- 7&#45;&gt;11 -->
<g id="edge11" class="edge">
<title>7&#45;&gt;11</title>
<path fill="none" stroke="black" d="M792.2,-252.97C799.37,-243.96 806.92,-234.47 814.26,-225.24"/>
<polygon fill="black" stroke="black" points="817.16,-227.22 820.65,-217.21 811.68,-222.86 817.16,-227.22"/>
</g>
<!-- 9 -->
<g id="node10" class="node">
<title>9</title>
<polygon fill="none" stroke="black" points="548.5,-83 381.5,-83 381.5,0 548.5,0 548.5,-83"/>
<text text-anchor="middle" x="465" y="-67.8" font-family="Times,serif" font-size="14.00">node #9</text>
<text text-anchor="middle" x="465" y="-52.8" font-family="Times,serif" font-size="14.00">gini = &#45;0.0</text>
<text text-anchor="middle" x="465" y="-37.8" font-family="Times,serif" font-size="14.00">samples = 46</text>
<text text-anchor="middle" x="465" y="-22.8" font-family="Times,serif" font-size="14.00">value = [0.0, 66.431]</text>
<text text-anchor="middle" x="465" y="-7.8" font-family="Times,serif" font-size="14.00">class = Obstructive</text>
</g>
<!-- 8&#45;&gt;9 -->
<g id="edge9" class="edge">
<title>8&#45;&gt;9</title>
<path fill="none" stroke="black" d="M578.47,-118.87C563.77,-108.97 548.32,-98.57 533.72,-88.74"/>
<polygon fill="black" stroke="black" points="535.48,-85.71 525.23,-83.03 531.57,-91.52 535.48,-85.71"/>
</g>
<!-- 10 -->
<g id="node11" class="node">
<title>10</title>
<polygon fill="none" stroke="black" points="742,-83 566,-83 566,0 742,0 742,-83"/>
<text text-anchor="middle" x="654" y="-67.8" font-family="Times,serif" font-size="14.00">node #10</text>
<text text-anchor="middle" x="654" y="-52.8" font-family="Times,serif" font-size="14.00">gini = 0.11</text>
<text text-anchor="middle" x="654" y="-37.8" font-family="Times,serif" font-size="14.00">samples = 9</text>
<text text-anchor="middle" x="654" y="-22.8" font-family="Times,serif" font-size="14.00">value = [1.092, 17.53]</text>
<text text-anchor="middle" x="654" y="-7.8" font-family="Times,serif" font-size="14.00">class = Obstructive</text>
</g>
<!-- 8&#45;&gt;10 -->
<g id="edge10" class="edge">
<title>8&#45;&gt;10</title>
<path fill="none" stroke="black" d="M651.55,-118.87C651.82,-110.5 652.1,-101.77 652.37,-93.33"/>
<polygon fill="black" stroke="black" points="655.87,-93.34 652.69,-83.23 648.87,-93.11 655.87,-93.34"/>
</g>
<!-- 12 -->
<g id="node13" class="node">
<title>12</title>
<polygon fill="none" stroke="black" points="948,-83 760,-83 760,0 948,0 948,-83"/>
<text text-anchor="middle" x="854" y="-67.8" font-family="Times,serif" font-size="14.00">node #12</text>
<text text-anchor="middle" x="854" y="-52.8" font-family="Times,serif" font-size="14.00">gini = 0.0</text>
<text text-anchor="middle" x="854" y="-37.8" font-family="Times,serif" font-size="14.00">samples = 1</text>
<text text-anchor="middle" x="854" y="-22.8" font-family="Times,serif" font-size="14.00">value = [2.183, 0.0]</text>
<text text-anchor="middle" x="854" y="-7.8" font-family="Times,serif" font-size="14.00">class = Non&#45;obstructive</text>
</g>
<!-- 11&#45;&gt;12 -->
<g id="edge12" class="edge">
<title>11&#45;&gt;12</title>
<path fill="none" stroke="black" d="M857.07,-118.87C856.73,-110.5 856.38,-101.77 856.04,-93.33"/>
<polygon fill="black" stroke="black" points="859.53,-93.08 855.64,-83.23 852.54,-93.36 859.53,-93.08"/>
</g>
<!-- 13 -->
<g id="node14" class="node">
<title>13</title>
<polygon fill="none" stroke="black" points="1142,-83 966,-83 966,0 1142,0 1142,-83"/>
<text text-anchor="middle" x="1054" y="-67.8" font-family="Times,serif" font-size="14.00">node #13</text>
<text text-anchor="middle" x="1054" y="-52.8" font-family="Times,serif" font-size="14.00">gini = 0.275</text>
<text text-anchor="middle" x="1054" y="-37.8" font-family="Times,serif" font-size="14.00">samples = 5</text>
<text text-anchor="middle" x="1054" y="-22.8" font-family="Times,serif" font-size="14.00">value = [1.092, 5.536]</text>
<text text-anchor="middle" x="1054" y="-7.8" font-family="Times,serif" font-size="14.00">class = Obstructive</text>
</g>
<!-- 11&#45;&gt;13 -->
<g id="edge13" class="edge">
<title>11&#45;&gt;13</title>
<path fill="none" stroke="black" d="M934.39,-118.87C950.04,-108.88 966.48,-98.38 982,-88.47"/>
<polygon fill="black" stroke="black" points="983.97,-91.36 990.52,-83.03 980.2,-85.46 983.97,-91.36"/>
</g>
<!-- 15 -->
<g id="node16" class="node">
<title>15</title>
<polygon fill="none" stroke="black" points="1625,-351 1431,-351 1431,-253 1625,-253 1625,-351"/>
<text text-anchor="middle" x="1528" y="-335.8" font-family="Times,serif" font-size="14.00">node #15</text>
<text text-anchor="middle" x="1528" y="-320.8" font-family="Times,serif" font-size="14.00">FEFPrePercent &lt;= 57.5</text>
<text text-anchor="middle" x="1528" y="-305.8" font-family="Times,serif" font-size="14.00">gini = 0.124</text>
<text text-anchor="middle" x="1528" y="-290.8" font-family="Times,serif" font-size="14.00">samples = 62</text>
<text text-anchor="middle" x="1528" y="-275.8" font-family="Times,serif" font-size="14.00">value = [103.693, 7.381]</text>
<text text-anchor="middle" x="1528" y="-260.8" font-family="Times,serif" font-size="14.00">class = Non&#45;obstructive</text>
</g>
<!-- 14&#45;&gt;15 -->
<g id="edge15" class="edge">
<title>14&#45;&gt;15</title>
<path fill="none" stroke="black" d="M1528,-386.97C1528,-378.69 1528,-370 1528,-361.48"/>
<polygon fill="black" stroke="black" points="1531.5,-361.21 1528,-351.21 1524.5,-361.21 1531.5,-361.21"/>
</g>
<!-- 22 -->
<g id="node23" class="node">
<title>22</title>
<polygon fill="none" stroke="black" points="1945.5,-351 1748.5,-351 1748.5,-253 1945.5,-253 1945.5,-351"/>
<text text-anchor="middle" x="1847" y="-335.8" font-family="Times,serif" font-size="14.00">node #22</text>
<text text-anchor="middle" x="1847" y="-320.8" font-family="Times,serif" font-size="14.00">FEFPostPercent &lt;= 45.5</text>
<text text-anchor="middle" x="1847" y="-305.8" font-family="Times,serif" font-size="14.00">gini = 0.495</text>
<text text-anchor="middle" x="1847" y="-290.8" font-family="Times,serif" font-size="14.00">samples = 75</text>
<text text-anchor="middle" x="1847" y="-275.8" font-family="Times,serif" font-size="14.00">value = [51.301, 62.74]</text>
<text text-anchor="middle" x="1847" y="-260.8" font-family="Times,serif" font-size="14.00">class = Obstructive</text>
</g>
<!-- 14&#45;&gt;22 -->
<g id="edge22" class="edge">
<title>14&#45;&gt;22</title>
<path fill="none" stroke="black" d="M1629.81,-392.87C1664.63,-378.47 1703.68,-362.31 1738.97,-347.7"/>
<polygon fill="black" stroke="black" points="1740.43,-350.89 1748.33,-343.83 1737.75,-344.42 1740.43,-350.89"/>
</g>
<!-- 16 -->
<g id="node17" class="node">
<title>16</title>
<polygon fill="none" stroke="black" points="1517,-217 1329,-217 1329,-119 1517,-119 1517,-217"/>
<text text-anchor="middle" x="1423" y="-201.8" font-family="Times,serif" font-size="14.00">node #16</text>
<text text-anchor="middle" x="1423" y="-186.8" font-family="Times,serif" font-size="14.00">FEFPreVal &lt;= 1.585</text>
<text text-anchor="middle" x="1423" y="-171.8" font-family="Times,serif" font-size="14.00">gini = 0.372</text>
<text text-anchor="middle" x="1423" y="-156.8" font-family="Times,serif" font-size="14.00">samples = 15</text>
<text text-anchor="middle" x="1423" y="-141.8" font-family="Times,serif" font-size="14.00">value = [19.647, 6.459]</text>
<text text-anchor="middle" x="1423" y="-126.8" font-family="Times,serif" font-size="14.00">class = Non&#45;obstructive</text>
</g>
<!-- 15&#45;&gt;16 -->
<g id="edge16" class="edge">
<title>15&#45;&gt;16</title>
<path fill="none" stroke="black" d="M1489.8,-252.97C1482.63,-243.96 1475.08,-234.47 1467.74,-225.24"/>
<polygon fill="black" stroke="black" points="1470.32,-222.86 1461.35,-217.21 1464.84,-227.22 1470.32,-222.86"/>
</g>
<!-- 19 -->
<g id="node20" class="node">
<title>19</title>
<polygon fill="none" stroke="black" points="1741,-217 1535,-217 1535,-119 1741,-119 1741,-217"/>
<text text-anchor="middle" x="1638" y="-201.8" font-family="Times,serif" font-size="14.00">node #19</text>
<text text-anchor="middle" x="1638" y="-186.8" font-family="Times,serif" font-size="14.00">FEV1PostPercent &lt;= 69.5</text>
<text text-anchor="middle" x="1638" y="-171.8" font-family="Times,serif" font-size="14.00">gini = 0.021</text>
<text text-anchor="middle" x="1638" y="-156.8" font-family="Times,serif" font-size="14.00">samples = 47</text>
<text text-anchor="middle" x="1638" y="-141.8" font-family="Times,serif" font-size="14.00">value = [84.046, 0.923]</text>
<text text-anchor="middle" x="1638" y="-126.8" font-family="Times,serif" font-size="14.00">class = Non&#45;obstructive</text>
</g>
<!-- 15&#45;&gt;19 -->
<g id="edge19" class="edge">
<title>15&#45;&gt;19</title>
<path fill="none" stroke="black" d="M1568.02,-252.97C1575.61,-243.87 1583.6,-234.28 1591.37,-224.96"/>
<polygon fill="black" stroke="black" points="1594.11,-227.14 1597.82,-217.21 1588.73,-222.66 1594.11,-227.14"/>
</g>
<!-- 17 -->
<g id="node18" class="node">
<title>17</title>
<polygon fill="none" stroke="black" points="1348,-83 1160,-83 1160,0 1348,0 1348,-83"/>
<text text-anchor="middle" x="1254" y="-67.8" font-family="Times,serif" font-size="14.00">node #17</text>
<text text-anchor="middle" x="1254" y="-52.8" font-family="Times,serif" font-size="14.00">gini = 0.308</text>
<text text-anchor="middle" x="1254" y="-37.8" font-family="Times,serif" font-size="14.00">samples = 13</text>
<text text-anchor="middle" x="1254" y="-22.8" font-family="Times,serif" font-size="14.00">value = [19.647, 4.613]</text>
<text text-anchor="middle" x="1254" y="-7.8" font-family="Times,serif" font-size="14.00">class = Non&#45;obstructive</text>
</g>
<!-- 16&#45;&gt;17 -->
<g id="edge17" class="edge">
<title>16&#45;&gt;17</title>
<path fill="none" stroke="black" d="M1357.66,-118.87C1344.35,-109.06 1330.38,-98.77 1317.15,-89.02"/>
<polygon fill="black" stroke="black" points="1319.15,-86.15 1309.02,-83.03 1315,-91.78 1319.15,-86.15"/>
</g>
<!-- 18 -->
<g id="node19" class="node">
<title>18</title>
<polygon fill="none" stroke="black" points="1524,-83 1366,-83 1366,0 1524,0 1524,-83"/>
<text text-anchor="middle" x="1445" y="-67.8" font-family="Times,serif" font-size="14.00">node #18</text>
<text text-anchor="middle" x="1445" y="-52.8" font-family="Times,serif" font-size="14.00">gini = 0.0</text>
<text text-anchor="middle" x="1445" y="-37.8" font-family="Times,serif" font-size="14.00">samples = 2</text>
<text text-anchor="middle" x="1445" y="-22.8" font-family="Times,serif" font-size="14.00">value = [0.0, 1.845]</text>
<text text-anchor="middle" x="1445" y="-7.8" font-family="Times,serif" font-size="14.00">class = Obstructive</text>
</g>
<!-- 16&#45;&gt;18 -->
<g id="edge18" class="edge">
<title>16&#45;&gt;18</title>
<path fill="none" stroke="black" d="M1431.51,-118.87C1432.98,-110.5 1434.53,-101.77 1436.02,-93.33"/>
<polygon fill="black" stroke="black" points="1439.51,-93.69 1437.8,-83.23 1432.62,-92.47 1439.51,-93.69"/>
</g>
<!-- 20 -->
<g id="node21" class="node">
<title>20</title>
<polygon fill="none" stroke="black" points="1730,-83 1542,-83 1542,0 1730,0 1730,-83"/>
<text text-anchor="middle" x="1636" y="-67.8" font-family="Times,serif" font-size="14.00">node #20</text>
<text text-anchor="middle" x="1636" y="-52.8" font-family="Times,serif" font-size="14.00">gini = 0.0</text>
<text text-anchor="middle" x="1636" y="-37.8" font-family="Times,serif" font-size="14.00">samples = 34</text>
<text text-anchor="middle" x="1636" y="-22.8" font-family="Times,serif" font-size="14.00">value = [65.49, 0.0]</text>
<text text-anchor="middle" x="1636" y="-7.8" font-family="Times,serif" font-size="14.00">class = Non&#45;obstructive</text>
</g>
<!-- 19&#45;&gt;20 -->
<g id="edge20" class="edge">
<title>19&#45;&gt;20</title>
<path fill="none" stroke="black" d="M1637.23,-118.87C1637.09,-110.5 1636.95,-101.77 1636.82,-93.33"/>
<polygon fill="black" stroke="black" points="1640.31,-93.17 1636.65,-83.23 1633.32,-93.29 1640.31,-93.17"/>
</g>
<!-- 21 -->
<g id="node22" class="node">
<title>21</title>
<polygon fill="none" stroke="black" points="1936,-83 1748,-83 1748,0 1936,0 1936,-83"/>
<text text-anchor="middle" x="1842" y="-67.8" font-family="Times,serif" font-size="14.00">node #21</text>
<text text-anchor="middle" x="1842" y="-52.8" font-family="Times,serif" font-size="14.00">gini = 0.09</text>
<text text-anchor="middle" x="1842" y="-37.8" font-family="Times,serif" font-size="14.00">samples = 13</text>
<text text-anchor="middle" x="1842" y="-22.8" font-family="Times,serif" font-size="14.00">value = [18.556, 0.923]</text>
<text text-anchor="middle" x="1842" y="-7.8" font-family="Times,serif" font-size="14.00">class = Non&#45;obstructive</text>
</g>
<!-- 19&#45;&gt;21 -->
<g id="edge21" class="edge">
<title>19&#45;&gt;21</title>
<path fill="none" stroke="black" d="M1716.87,-118.87C1733.24,-108.88 1750.44,-98.38 1766.68,-88.47"/>
<polygon fill="black" stroke="black" points="1768.87,-91.23 1775.59,-83.03 1765.23,-85.25 1768.87,-91.23"/>
</g>
<!-- 23 -->
<g id="node24" class="node">
<title>23</title>
<polygon fill="none" stroke="black" points="1930.5,-209.5 1763.5,-209.5 1763.5,-126.5 1930.5,-126.5 1930.5,-209.5"/>
<text text-anchor="middle" x="1847" y="-194.3" font-family="Times,serif" font-size="14.00">node #23</text>
<text text-anchor="middle" x="1847" y="-179.3" font-family="Times,serif" font-size="14.00">gini = 0.0</text>
<text text-anchor="middle" x="1847" y="-164.3" font-family="Times,serif" font-size="14.00">samples = 14</text>
<text text-anchor="middle" x="1847" y="-149.3" font-family="Times,serif" font-size="14.00">value = [0.0, 22.144]</text>
<text text-anchor="middle" x="1847" y="-134.3" font-family="Times,serif" font-size="14.00">class = Obstructive</text>
</g>
<!-- 22&#45;&gt;23 -->
<g id="edge23" class="edge">
<title>22&#45;&gt;23</title>
<path fill="none" stroke="black" d="M1847,-252.97C1847,-242.25 1847,-230.84 1847,-219.99"/>
<polygon fill="black" stroke="black" points="1850.5,-219.82 1847,-209.82 1843.5,-219.82 1850.5,-219.82"/>
</g>
<!-- 24 -->
<g id="node25" class="node">
<title>24</title>
<polygon fill="none" stroke="black" points="2144,-217 1950,-217 1950,-119 2144,-119 2144,-217"/>
<text text-anchor="middle" x="2047" y="-201.8" font-family="Times,serif" font-size="14.00">node #24</text>
<text text-anchor="middle" x="2047" y="-186.8" font-family="Times,serif" font-size="14.00">FVCPreVal &lt;= 2.36</text>
<text text-anchor="middle" x="2047" y="-171.8" font-family="Times,serif" font-size="14.00">gini = 0.493</text>
<text text-anchor="middle" x="2047" y="-156.8" font-family="Times,serif" font-size="14.00">samples = 61</text>
<text text-anchor="middle" x="2047" y="-141.8" font-family="Times,serif" font-size="14.00">value = [51.301, 40.597]</text>
<text text-anchor="middle" x="2047" y="-126.8" font-family="Times,serif" font-size="14.00">class = Non&#45;obstructive</text>
</g>
<!-- 22&#45;&gt;24 -->
<g id="edge24" class="edge">
<title>22&#45;&gt;24</title>
<path fill="none" stroke="black" d="M1919.77,-252.97C1934.66,-243.14 1950.42,-232.74 1965.59,-222.73"/>
<polygon fill="black" stroke="black" points="1967.53,-225.64 1973.95,-217.21 1963.67,-219.8 1967.53,-225.64"/>
</g>
<!-- 25 -->
<g id="node26" class="node">
<title>25</title>
<polygon fill="none" stroke="black" points="2139.5,-83 1954.5,-83 1954.5,0 2139.5,0 2139.5,-83"/>
<text text-anchor="middle" x="2047" y="-67.8" font-family="Times,serif" font-size="14.00">node #25</text>
<text text-anchor="middle" x="2047" y="-52.8" font-family="Times,serif" font-size="14.00">gini = 0.352</text>
<text text-anchor="middle" x="2047" y="-37.8" font-family="Times,serif" font-size="14.00">samples = 15</text>
<text text-anchor="middle" x="2047" y="-22.8" font-family="Times,serif" font-size="14.00">value = [5.458, 18.453]</text>
<text text-anchor="middle" x="2047" y="-7.8" font-family="Times,serif" font-size="14.00">class = Obstructive</text>
</g>
<!-- 24&#45;&gt;25 -->
<g id="edge25" class="edge">
<title>24&#45;&gt;25</title>
<path fill="none" stroke="black" d="M2047,-118.87C2047,-110.5 2047,-101.77 2047,-93.33"/>
<polygon fill="black" stroke="black" points="2050.5,-93.23 2047,-83.23 2043.5,-93.23 2050.5,-93.23"/>
</g>
<!-- 26 -->
<g id="node27" class="node">
<title>26</title>
<polygon fill="none" stroke="black" points="2351,-83 2157,-83 2157,0 2351,0 2351,-83"/>
<text text-anchor="middle" x="2254" y="-67.8" font-family="Times,serif" font-size="14.00">node #26</text>
<text text-anchor="middle" x="2254" y="-52.8" font-family="Times,serif" font-size="14.00">gini = 0.439</text>
<text text-anchor="middle" x="2254" y="-37.8" font-family="Times,serif" font-size="14.00">samples = 46</text>
<text text-anchor="middle" x="2254" y="-22.8" font-family="Times,serif" font-size="14.00">value = [45.843, 22.144]</text>
<text text-anchor="middle" x="2254" y="-7.8" font-family="Times,serif" font-size="14.00">class = Non&#45;obstructive</text>
</g>
<!-- 24&#45;&gt;26 -->
<g id="edge26" class="edge">
<title>24&#45;&gt;26</title>
<path fill="none" stroke="black" d="M2127.03,-118.87C2143.79,-108.78 2161.42,-98.18 2178.03,-88.19"/>
<polygon fill="black" stroke="black" points="2179.84,-91.19 2186.61,-83.03 2176.24,-85.19 2179.84,-91.19"/>
</g>
</g>
</svg>
