<?xml version="1.0" encoding="UTF-8" standalone="no"?>
<!DOCTYPE svg PUBLIC "-//W3C//DTD SVG 1.1//EN"
 "http://www.w3.org/Graphics/SVG/1.1/DTD/svg11.dtd">
<!-- Generated by graphviz version 2.43.0 (0)
 -->
<!-- Title: Tree Pages: 1 -->
<svg width="2797pt" height="627pt"
 viewBox="0.00 0.00 2796.50 627.00" xmlns="http://www.w3.org/2000/svg" xmlns:xlink="http://www.w3.org/1999/xlink">
<g id="graph0" class="graph" transform="scale(1 1) rotate(0) translate(4 623)">
<title>Tree</title>
<polygon fill="white" stroke="transparent" points="-4,4 -4,-623 2792.5,-623 2792.5,4 -4,4"/>
<!-- 0 -->
<g id="node1" class="node">
<title>0</title>
<polygon fill="none" stroke="black" points="1663,-619 1472,-619 1472,-521 1663,-521 1663,-619"/>
<text text-anchor="middle" x="1567.5" y="-603.8" font-family="Times,serif" font-size="14.00">node #0</text>
<text text-anchor="middle" x="1567.5" y="-588.8" font-family="Times,serif" font-size="14.00">FEFPrePercent &lt;= 57.5</text>
<text text-anchor="middle" x="1567.5" y="-573.8" font-family="Times,serif" font-size="14.00">gini = 0.5</text>
<text text-anchor="middle" x="1567.5" y="-558.8" font-family="Times,serif" font-size="14.00">samples = 209</text>
<text text-anchor="middle" x="1567.5" y="-543.8" font-family="Times,serif" font-size="14.00">value = [167.0, 167.0]</text>
<text text-anchor="middle" x="1567.5" y="-528.8" font-family="Times,serif" font-size="14.00">class = Obstructive</text>
</g>
<!-- 1 -->
<g id="node2" class="node">
<title>1</title>
<polygon fill="none" stroke="black" points="1260,-485 1075,-485 1075,-387 1260,-387 1260,-485"/>
<text text-anchor="middle" x="1167.5" y="-469.8" font-family="Times,serif" font-size="14.00">node #1</text>
<text text-anchor="middle" x="1167.5" y="-454.8" font-family="Times,serif" font-size="14.00">FEFPostVal &lt;= 1.14</text>
<text text-anchor="middle" x="1167.5" y="-439.8" font-family="Times,serif" font-size="14.00">gini = 0.309</text>
<text text-anchor="middle" x="1167.5" y="-424.8" font-family="Times,serif" font-size="14.00">samples = 117</text>
<text text-anchor="middle" x="1167.5" y="-409.8" font-family="Times,serif" font-size="14.00">value = [33.4, 141.543]</text>
<text text-anchor="middle" x="1167.5" y="-394.8" font-family="Times,serif" font-size="14.00">class = Obstructive</text>
</g>
<!-- 0&#45;&gt;1 -->
<g id="edge1" class="edge">
<title>0&#45;&gt;1</title>
<path fill="none" stroke="black" d="M1471.94,-537.47C1411.07,-517.38 1332.25,-491.37 1270.06,-470.85"/>
<polygon fill="black" stroke="black" points="1270.83,-467.41 1260.23,-467.6 1268.63,-474.06 1270.83,-467.41"/>
<text text-anchor="middle" x="1271.48" y="-486.23" font-family="Times,serif" font-size="14.00">True</text>
</g>
<!-- 16 -->
<g id="node17" class="node">
<title>16</title>
<polygon fill="none" stroke="black" points="2074,-485 1883,-485 1883,-387 2074,-387 2074,-485"/>
<text text-anchor="middle" x="1978.5" y="-469.8" font-family="Times,serif" font-size="14.00">node #16</text>
<text text-anchor="middle" x="1978.5" y="-454.8" font-family="Times,serif" font-size="14.00">FVCPrePercent &lt;= 74.0</text>
<text text-anchor="middle" x="1978.5" y="-439.8" font-family="Times,serif" font-size="14.00">gini = 0.269</text>
<text text-anchor="middle" x="1978.5" y="-424.8" font-family="Times,serif" font-size="14.00">samples = 92</text>
<text text-anchor="middle" x="1978.5" y="-409.8" font-family="Times,serif" font-size="14.00">value = [133.6, 25.457]</text>
<text text-anchor="middle" x="1978.5" y="-394.8" font-family="Times,serif" font-size="14.00">class = Non&#45;obstructive</text>
</g>
<!-- 0&#45;&gt;16 -->
<g id="edge16" class="edge">
<title>0&#45;&gt;16</title>
<path fill="none" stroke="black" d="M1663.08,-538.3C1725.91,-518.12 1808.16,-491.71 1872.91,-470.91"/>
<polygon fill="black" stroke="black" points="1874.29,-474.14 1882.74,-467.75 1872.15,-467.48 1874.29,-474.14"/>
<text text-anchor="middle" x="1871.32" y="-486.29" font-family="Times,serif" font-size="14.00">False</text>
</g>
<!-- 2 -->
<g id="node3" class="node">
<title>2</title>
<polygon fill="none" stroke="black" points="690,-351 505,-351 505,-253 690,-253 690,-351"/>
<text text-anchor="middle" x="597.5" y="-335.8" font-family="Times,serif" font-size="14.00">node #2</text>
<text text-anchor="middle" x="597.5" y="-320.8" font-family="Times,serif" font-size="14.00">FVCPostVal &lt;= 1.695</text>
<text text-anchor="middle" x="597.5" y="-305.8" font-family="Times,serif" font-size="14.00">gini = 0.142</text>
<text text-anchor="middle" x="597.5" y="-290.8" font-family="Times,serif" font-size="14.00">samples = 59</text>
<text text-anchor="middle" x="597.5" y="-275.8" font-family="Times,serif" font-size="14.00">value = [7.859, 94.701]</text>
<text text-anchor="middle" x="597.5" y="-260.8" font-family="Times,serif" font-size="14.00">class = Obstructive</text>
</g>
<!-- 1&#45;&gt;2 -->
<g id="edge2" class="edge">
<title>1&#45;&gt;2</title>
<path fill="none" stroke="black" d="M1074.97,-413.57C972.24,-389.78 806.9,-351.49 700.23,-326.79"/>
<polygon fill="black" stroke="black" points="700.95,-323.36 690.42,-324.52 699.37,-330.18 700.95,-323.36"/>
</g>
<!-- 9 -->
<g id="node10" class="node">
<title>9</title>
<polygon fill="none" stroke="black" points="1264.5,-351 1070.5,-351 1070.5,-253 1264.5,-253 1264.5,-351"/>
<text text-anchor="middle" x="1167.5" y="-335.8" font-family="Times,serif" font-size="14.00">node #9</text>
<text text-anchor="middle" x="1167.5" y="-320.8" font-family="Times,serif" font-size="14.00">FEV1PostVal &lt;= 1.655</text>
<text text-anchor="middle" x="1167.5" y="-305.8" font-family="Times,serif" font-size="14.00">gini = 0.457</text>
<text text-anchor="middle" x="1167.5" y="-290.8" font-family="Times,serif" font-size="14.00">samples = 58</text>
<text text-anchor="middle" x="1167.5" y="-275.8" font-family="Times,serif" font-size="14.00">value = [25.541, 46.841]</text>
<text text-anchor="middle" x="1167.5" y="-260.8" font-family="Times,serif" font-size="14.00">class = Obstructive</text>
</g>
<!-- 1&#45;&gt;9 -->
<g id="edge9" class="edge">
<title>1&#45;&gt;9</title>
<path fill="none" stroke="black" d="M1167.5,-386.97C1167.5,-378.69 1167.5,-370 1167.5,-361.48"/>
<polygon fill="black" stroke="black" points="1171,-361.21 1167.5,-351.21 1164,-361.21 1171,-361.21"/>
</g>
<!-- 3 -->
<g id="node4" class="node">
<title>3</title>
<polygon fill="none" stroke="black" points="390,-217 205,-217 205,-119 390,-119 390,-217"/>
<text text-anchor="middle" x="297.5" y="-201.8" font-family="Times,serif" font-size="14.00">node #3</text>
<text text-anchor="middle" x="297.5" y="-186.8" font-family="Times,serif" font-size="14.00">FVCPreVal &lt;= 1.575</text>
<text text-anchor="middle" x="297.5" y="-171.8" font-family="Times,serif" font-size="14.00">gini = 0.417</text>
<text text-anchor="middle" x="297.5" y="-156.8" font-family="Times,serif" font-size="14.00">samples = 15</text>
<text text-anchor="middle" x="297.5" y="-141.8" font-family="Times,serif" font-size="14.00">value = [6.876, 16.293]</text>
<text text-anchor="middle" x="297.5" y="-126.8" font-family="Times,serif" font-size="14.00">class = Obstructive</text>
</g>
<!-- 2&#45;&gt;3 -->
<g id="edge3" class="edge">
<title>2&#45;&gt;3</title>
<path fill="none" stroke="black" d="M504.63,-260.14C471.36,-245.5 433.69,-228.92 399.68,-213.96"/>
<polygon fill="black" stroke="black" points="400.75,-210.61 390.19,-209.78 397.93,-217.01 400.75,-210.61"/>
</g>
<!-- 6 -->
<g id="node7" class="node">
<title>6</title>
<polygon fill="none" stroke="black" points="696,-217 499,-217 499,-119 696,-119 696,-217"/>
<text text-anchor="middle" x="597.5" y="-201.8" font-family="Times,serif" font-size="14.00">node #6</text>
<text text-anchor="middle" x="597.5" y="-186.8" font-family="Times,serif" font-size="14.00">FEFPostPercent &lt;= 28.5</text>
<text text-anchor="middle" x="597.5" y="-171.8" font-family="Times,serif" font-size="14.00">gini = 0.024</text>
<text text-anchor="middle" x="597.5" y="-156.8" font-family="Times,serif" font-size="14.00">samples = 44</text>
<text text-anchor="middle" x="597.5" y="-141.8" font-family="Times,serif" font-size="14.00">value = [0.982, 78.409]</text>
<text text-anchor="middle" x="597.5" y="-126.8" font-family="Times,serif" font-size="14.00">class = Obstructive</text>
</g>
<!-- 2&#45;&gt;6 -->
<g id="edge6" class="edge">
<title>2&#45;&gt;6</title>
<path fill="none" stroke="black" d="M597.5,-252.97C597.5,-244.69 597.5,-236 597.5,-227.48"/>
<polygon fill="black" stroke="black" points="601,-227.21 597.5,-217.21 594,-227.21 601,-227.21"/>
</g>
<!-- 4 -->
<g id="node5" class="node">
<title>4</title>
<polygon fill="none" stroke="black" points="185,-83 0,-83 0,0 185,0 185,-83"/>
<text text-anchor="middle" x="92.5" y="-67.8" font-family="Times,serif" font-size="14.00">node #4</text>
<text text-anchor="middle" x="92.5" y="-52.8" font-family="Times,serif" font-size="14.00">gini = 0.356</text>
<text text-anchor="middle" x="92.5" y="-37.8" font-family="Times,serif" font-size="14.00">samples = 14</text>
<text text-anchor="middle" x="92.5" y="-22.8" font-family="Times,serif" font-size="14.00">value = [4.912, 16.293]</text>
<text text-anchor="middle" x="92.5" y="-7.8" font-family="Times,serif" font-size="14.00">class = Obstructive</text>
</g>
<!-- 3&#45;&gt;4 -->
<g id="edge4" class="edge">
<title>3&#45;&gt;4</title>
<path fill="none" stroke="black" d="M218.24,-118.87C201.8,-108.88 184.51,-98.38 168.19,-88.47"/>
<polygon fill="black" stroke="black" points="169.6,-85.23 159.24,-83.03 165.97,-91.21 169.6,-85.23"/>
</g>
<!-- 5 -->
<g id="node6" class="node">
<title>5</title>
<polygon fill="none" stroke="black" points="391.5,-83 203.5,-83 203.5,0 391.5,0 391.5,-83"/>
<text text-anchor="middle" x="297.5" y="-67.8" font-family="Times,serif" font-size="14.00">node #5</text>
<text text-anchor="middle" x="297.5" y="-52.8" font-family="Times,serif" font-size="14.00">gini = 0.0</text>
<text text-anchor="middle" x="297.5" y="-37.8" font-family="Times,serif" font-size="14.00">samples = 1</text>
<text text-anchor="middle" x="297.5" y="-22.8" font-family="Times,serif" font-size="14.00">value = [1.965, 0.0]</text>
<text text-anchor="middle" x="297.5" y="-7.8" font-family="Times,serif" font-size="14.00">class = Non&#45;obstructive</text>
</g>
<!-- 3&#45;&gt;5 -->
<g id="edge5" class="edge">
<title>3&#45;&gt;5</title>
<path fill="none" stroke="black" d="M297.5,-118.87C297.5,-110.5 297.5,-101.77 297.5,-93.33"/>
<polygon fill="black" stroke="black" points="301,-93.23 297.5,-83.23 294,-93.23 301,-93.23"/>
</g>
<!-- 7 -->
<g id="node8" class="node">
<title>7</title>
<polygon fill="none" stroke="black" points="577,-83 410,-83 410,0 577,0 577,-83"/>
<text text-anchor="middle" x="493.5" y="-67.8" font-family="Times,serif" font-size="14.00">node #7</text>
<text text-anchor="middle" x="493.5" y="-52.8" font-family="Times,serif" font-size="14.00">gini = 0.0</text>
<text text-anchor="middle" x="493.5" y="-37.8" font-family="Times,serif" font-size="14.00">samples = 34</text>
<text text-anchor="middle" x="493.5" y="-22.8" font-family="Times,serif" font-size="14.00">value = [0.0, 62.116]</text>
<text text-anchor="middle" x="493.5" y="-7.8" font-family="Times,serif" font-size="14.00">class = Obstructive</text>
</g>
<!-- 6&#45;&gt;7 -->
<g id="edge7" class="edge">
<title>6&#45;&gt;7</title>
<path fill="none" stroke="black" d="M557.29,-118.87C549.69,-109.76 541.73,-100.23 534.11,-91.12"/>
<polygon fill="black" stroke="black" points="536.62,-88.66 527.52,-83.23 531.25,-93.15 536.62,-88.66"/>
</g>
<!-- 8 -->
<g id="node9" class="node">
<title>8</title>
<polygon fill="none" stroke="black" points="780,-83 595,-83 595,0 780,0 780,-83"/>
<text text-anchor="middle" x="687.5" y="-67.8" font-family="Times,serif" font-size="14.00">node #8</text>
<text text-anchor="middle" x="687.5" y="-52.8" font-family="Times,serif" font-size="14.00">gini = 0.107</text>
<text text-anchor="middle" x="687.5" y="-37.8" font-family="Times,serif" font-size="14.00">samples = 10</text>
<text text-anchor="middle" x="687.5" y="-22.8" font-family="Times,serif" font-size="14.00">value = [0.982, 16.293]</text>
<text text-anchor="middle" x="687.5" y="-7.8" font-family="Times,serif" font-size="14.00">class = Obstructive</text>
</g>
<!-- 6&#45;&gt;8 -->
<g id="edge8" class="edge">
<title>6&#45;&gt;8</title>
<path fill="none" stroke="black" d="M632.3,-118.87C638.81,-109.85 645.63,-100.43 652.16,-91.39"/>
<polygon fill="black" stroke="black" points="655.03,-93.39 658.06,-83.23 649.36,-89.28 655.03,-93.39"/>
</g>
<!-- 10 -->
<g id="node11" class="node">
<title>10</title>
<polygon fill="none" stroke="black" points="1163.5,-217 969.5,-217 969.5,-119 1163.5,-119 1163.5,-217"/>
<text text-anchor="middle" x="1066.5" y="-201.8" font-family="Times,serif" font-size="14.00">node #10</text>
<text text-anchor="middle" x="1066.5" y="-186.8" font-family="Times,serif" font-size="14.00">FEFPrePercent &lt;= 30.0</text>
<text text-anchor="middle" x="1066.5" y="-171.8" font-family="Times,serif" font-size="14.00">gini = 0.463</text>
<text text-anchor="middle" x="1066.5" y="-156.8" font-family="Times,serif" font-size="14.00">samples = 24</text>
<text text-anchor="middle" x="1066.5" y="-141.8" font-family="Times,serif" font-size="14.00">value = [19.647, 11.201]</text>
<text text-anchor="middle" x="1066.5" y="-126.8" font-family="Times,serif" font-size="14.00">class = Non&#45;obstructive</text>
</g>
<!-- 9&#45;&gt;10 -->
<g id="edge10" class="edge">
<title>9&#45;&gt;10</title>
<path fill="none" stroke="black" d="M1130.75,-252.97C1123.86,-243.96 1116.6,-234.47 1109.53,-225.24"/>
<polygon fill="black" stroke="black" points="1112.25,-223.03 1103.39,-217.21 1106.69,-227.28 1112.25,-223.03"/>
</g>
<!-- 13 -->
<g id="node14" class="node">
<title>13</title>
<polygon fill="none" stroke="black" points="1357.5,-217 1181.5,-217 1181.5,-119 1357.5,-119 1357.5,-217"/>
<text text-anchor="middle" x="1269.5" y="-201.8" font-family="Times,serif" font-size="14.00">node #13</text>
<text text-anchor="middle" x="1269.5" y="-186.8" font-family="Times,serif" font-size="14.00">FEFPostVal &lt;= 3.265</text>
<text text-anchor="middle" x="1269.5" y="-171.8" font-family="Times,serif" font-size="14.00">gini = 0.244</text>
<text text-anchor="middle" x="1269.5" y="-156.8" font-family="Times,serif" font-size="14.00">samples = 34</text>
<text text-anchor="middle" x="1269.5" y="-141.8" font-family="Times,serif" font-size="14.00">value = [5.894, 35.64]</text>
<text text-anchor="middle" x="1269.5" y="-126.8" font-family="Times,serif" font-size="14.00">class = Obstructive</text>
</g>
<!-- 9&#45;&gt;13 -->
<g id="edge13" class="edge">
<title>9&#45;&gt;13</title>
<path fill="none" stroke="black" d="M1204.61,-252.97C1211.57,-243.96 1218.91,-234.47 1226.04,-225.24"/>
<polygon fill="black" stroke="black" points="1228.9,-227.27 1232.24,-217.21 1223.36,-222.99 1228.9,-227.27"/>
</g>
<!-- 11 -->
<g id="node12" class="node">
<title>11</title>
<polygon fill="none" stroke="black" points="955.5,-83 797.5,-83 797.5,0 955.5,0 955.5,-83"/>
<text text-anchor="middle" x="876.5" y="-67.8" font-family="Times,serif" font-size="14.00">node #11</text>
<text text-anchor="middle" x="876.5" y="-52.8" font-family="Times,serif" font-size="14.00">gini = 0.0</text>
<text text-anchor="middle" x="876.5" y="-37.8" font-family="Times,serif" font-size="14.00">samples = 4</text>
<text text-anchor="middle" x="876.5" y="-22.8" font-family="Times,serif" font-size="14.00">value = [0.0, 5.091]</text>
<text text-anchor="middle" x="876.5" y="-7.8" font-family="Times,serif" font-size="14.00">class = Obstructive</text>
</g>
<!-- 10&#45;&gt;11 -->
<g id="edge11" class="edge">
<title>10&#45;&gt;11</title>
<path fill="none" stroke="black" d="M993.04,-118.87C977.94,-108.97 962.07,-98.57 947.07,-88.74"/>
<polygon fill="black" stroke="black" points="948.64,-85.59 938.36,-83.03 944.8,-91.44 948.64,-85.59"/>
</g>
<!-- 12 -->
<g id="node13" class="node">
<title>12</title>
<polygon fill="none" stroke="black" points="1161.5,-83 973.5,-83 973.5,0 1161.5,0 1161.5,-83"/>
<text text-anchor="middle" x="1067.5" y="-67.8" font-family="Times,serif" font-size="14.00">node #12</text>
<text text-anchor="middle" x="1067.5" y="-52.8" font-family="Times,serif" font-size="14.00">gini = 0.362</text>
<text text-anchor="middle" x="1067.5" y="-37.8" font-family="Times,serif" font-size="14.00">samples = 20</text>
<text text-anchor="middle" x="1067.5" y="-22.8" font-family="Times,serif" font-size="14.00">value = [19.647, 6.11]</text>
<text text-anchor="middle" x="1067.5" y="-7.8" font-family="Times,serif" font-size="14.00">class = Non&#45;obstructive</text>
</g>
<!-- 10&#45;&gt;12 -->
<g id="edge12" class="edge">
<title>10&#45;&gt;12</title>
<path fill="none" stroke="black" d="M1066.89,-118.87C1066.95,-110.5 1067.02,-101.77 1067.09,-93.33"/>
<polygon fill="black" stroke="black" points="1070.59,-93.26 1067.17,-83.23 1063.59,-93.2 1070.59,-93.26"/>
</g>
<!-- 14 -->
<g id="node15" class="node">
<title>14</title>
<polygon fill="none" stroke="black" points="1355.5,-83 1179.5,-83 1179.5,0 1355.5,0 1355.5,-83"/>
<text text-anchor="middle" x="1267.5" y="-67.8" font-family="Times,serif" font-size="14.00">node #14</text>
<text text-anchor="middle" x="1267.5" y="-52.8" font-family="Times,serif" font-size="14.00">gini = 0.213</text>
<text text-anchor="middle" x="1267.5" y="-37.8" font-family="Times,serif" font-size="14.00">samples = 33</text>
<text text-anchor="middle" x="1267.5" y="-22.8" font-family="Times,serif" font-size="14.00">value = [4.912, 35.64]</text>
<text text-anchor="middle" x="1267.5" y="-7.8" font-family="Times,serif" font-size="14.00">class = Obstructive</text>
</g>
<!-- 13&#45;&gt;14 -->
<g id="edge14" class="edge">
<title>13&#45;&gt;14</title>
<path fill="none" stroke="black" d="M1268.73,-118.87C1268.59,-110.5 1268.45,-101.77 1268.32,-93.33"/>
<polygon fill="black" stroke="black" points="1271.81,-93.17 1268.15,-83.23 1264.82,-93.29 1271.81,-93.17"/>
</g>
<!-- 15 -->
<g id="node16" class="node">
<title>15</title>
<polygon fill="none" stroke="black" points="1561.5,-83 1373.5,-83 1373.5,0 1561.5,0 1561.5,-83"/>
<text text-anchor="middle" x="1467.5" y="-67.8" font-family="Times,serif" font-size="14.00">node #15</text>
<text text-anchor="middle" x="1467.5" y="-52.8" font-family="Times,serif" font-size="14.00">gini = 0.0</text>
<text text-anchor="middle" x="1467.5" y="-37.8" font-family="Times,serif" font-size="14.00">samples = 1</text>
<text text-anchor="middle" x="1467.5" y="-22.8" font-family="Times,serif" font-size="14.00">value = [0.982, 0.0]</text>
<text text-anchor="middle" x="1467.5" y="-7.8" font-family="Times,serif" font-size="14.00">class = Non&#45;obstructive</text>
</g>
<!-- 13&#45;&gt;15 -->
<g id="edge15" class="edge">
<title>13&#45;&gt;15</title>
<path fill="none" stroke="black" d="M1346.05,-118.87C1361.94,-108.88 1378.64,-98.38 1394.39,-88.47"/>
<polygon fill="black" stroke="black" points="1396.44,-91.32 1403.04,-83.03 1392.71,-85.39 1396.44,-91.32"/>
</g>
<!-- 17 -->
<g id="node18" class="node">
<title>17</title>
<polygon fill="none" stroke="black" points="2075.5,-351 1881.5,-351 1881.5,-253 2075.5,-253 2075.5,-351"/>
<text text-anchor="middle" x="1978.5" y="-335.8" font-family="Times,serif" font-size="14.00">node #17</text>
<text text-anchor="middle" x="1978.5" y="-320.8" font-family="Times,serif" font-size="14.00">FEV1PostVal &lt;= 2.02</text>
<text text-anchor="middle" x="1978.5" y="-305.8" font-family="Times,serif" font-size="14.00">gini = 0.089</text>
<text text-anchor="middle" x="1978.5" y="-290.8" font-family="Times,serif" font-size="14.00">samples = 66</text>
<text text-anchor="middle" x="1978.5" y="-275.8" font-family="Times,serif" font-size="14.00">value = [104.129, 5.091]</text>
<text text-anchor="middle" x="1978.5" y="-260.8" font-family="Times,serif" font-size="14.00">class = Non&#45;obstructive</text>
</g>
<!-- 16&#45;&gt;17 -->
<g id="edge17" class="edge">
<title>16&#45;&gt;17</title>
<path fill="none" stroke="black" d="M1978.5,-386.97C1978.5,-378.69 1978.5,-370 1978.5,-361.48"/>
<polygon fill="black" stroke="black" points="1982,-361.21 1978.5,-351.21 1975,-361.21 1982,-361.21"/>
</g>
<!-- 24 -->
<g id="node25" class="node">
<title>24</title>
<polygon fill="none" stroke="black" points="2585.5,-351 2385.5,-351 2385.5,-253 2585.5,-253 2585.5,-351"/>
<text text-anchor="middle" x="2485.5" y="-335.8" font-family="Times,serif" font-size="14.00">node #24</text>
<text text-anchor="middle" x="2485.5" y="-320.8" font-family="Times,serif" font-size="14.00">FEFPrePercent &lt;= 104.5</text>
<text text-anchor="middle" x="2485.5" y="-305.8" font-family="Times,serif" font-size="14.00">gini = 0.483</text>
<text text-anchor="middle" x="2485.5" y="-290.8" font-family="Times,serif" font-size="14.00">samples = 26</text>
<text text-anchor="middle" x="2485.5" y="-275.8" font-family="Times,serif" font-size="14.00">value = [29.471, 20.366]</text>
<text text-anchor="middle" x="2485.5" y="-260.8" font-family="Times,serif" font-size="14.00">class = Non&#45;obstructive</text>
</g>
<!-- 16&#45;&gt;24 -->
<g id="edge24" class="edge">
<title>16&#45;&gt;24</title>
<path fill="none" stroke="black" d="M2074.16,-410.09C2159.99,-387.75 2285.92,-354.96 2375.8,-331.56"/>
<polygon fill="black" stroke="black" points="2376.69,-334.95 2385.48,-329.04 2374.92,-328.17 2376.69,-334.95"/>
</g>
<!-- 18 -->
<g id="node19" class="node">
<title>18</title>
<polygon fill="none" stroke="black" points="1972,-217 1775,-217 1775,-119 1972,-119 1972,-217"/>
<text text-anchor="middle" x="1873.5" y="-201.8" font-family="Times,serif" font-size="14.00">node #18</text>
<text text-anchor="middle" x="1873.5" y="-186.8" font-family="Times,serif" font-size="14.00">FEFPostPercent &lt;= 61.5</text>
<text text-anchor="middle" x="1873.5" y="-171.8" font-family="Times,serif" font-size="14.00">gini = 0.021</text>
<text text-anchor="middle" x="1873.5" y="-156.8" font-family="Times,serif" font-size="14.00">samples = 56</text>
<text text-anchor="middle" x="1873.5" y="-141.8" font-family="Times,serif" font-size="14.00">value = [93.324, 1.018]</text>
<text text-anchor="middle" x="1873.5" y="-126.8" font-family="Times,serif" font-size="14.00">class = Non&#45;obstructive</text>
</g>
<!-- 17&#45;&gt;18 -->
<g id="edge18" class="edge">
<title>17&#45;&gt;18</title>
<path fill="none" stroke="black" d="M1940.3,-252.97C1933.13,-243.96 1925.58,-234.47 1918.24,-225.24"/>
<polygon fill="black" stroke="black" points="1920.82,-222.86 1911.85,-217.21 1915.34,-227.22 1920.82,-222.86"/>
</g>
<!-- 21 -->
<g id="node22" class="node">
<title>21</title>
<polygon fill="none" stroke="black" points="2178.5,-217 1990.5,-217 1990.5,-119 2178.5,-119 2178.5,-217"/>
<text text-anchor="middle" x="2084.5" y="-201.8" font-family="Times,serif" font-size="14.00">node #21</text>
<text text-anchor="middle" x="2084.5" y="-186.8" font-family="Times,serif" font-size="14.00">FVCPostVal &lt;= 2.58</text>
<text text-anchor="middle" x="2084.5" y="-171.8" font-family="Times,serif" font-size="14.00">gini = 0.398</text>
<text text-anchor="middle" x="2084.5" y="-156.8" font-family="Times,serif" font-size="14.00">samples = 10</text>
<text text-anchor="middle" x="2084.5" y="-141.8" font-family="Times,serif" font-size="14.00">value = [10.806, 4.073]</text>
<text text-anchor="middle" x="2084.5" y="-126.8" font-family="Times,serif" font-size="14.00">class = Non&#45;obstructive</text>
</g>
<!-- 17&#45;&gt;21 -->
<g id="edge21" class="edge">
<title>17&#45;&gt;21</title>
<path fill="none" stroke="black" d="M2017.07,-252.97C2024.3,-243.96 2031.92,-234.47 2039.34,-225.24"/>
<polygon fill="black" stroke="black" points="2042.25,-227.2 2045.78,-217.21 2036.79,-222.82 2042.25,-227.2"/>
</g>
<!-- 19 -->
<g id="node20" class="node">
<title>19</title>
<polygon fill="none" stroke="black" points="1767.5,-83 1579.5,-83 1579.5,0 1767.5,0 1767.5,-83"/>
<text text-anchor="middle" x="1673.5" y="-67.8" font-family="Times,serif" font-size="14.00">node #19</text>
<text text-anchor="middle" x="1673.5" y="-52.8" font-family="Times,serif" font-size="14.00">gini = 0.185</text>
<text text-anchor="middle" x="1673.5" y="-37.8" font-family="Times,serif" font-size="14.00">samples = 7</text>
<text text-anchor="middle" x="1673.5" y="-22.8" font-family="Times,serif" font-size="14.00">value = [8.841, 1.018]</text>
<text text-anchor="middle" x="1673.5" y="-7.8" font-family="Times,serif" font-size="14.00">class = Non&#45;obstructive</text>
</g>
<!-- 18&#45;&gt;19 -->
<g id="edge19" class="edge">
<title>18&#45;&gt;19</title>
<path fill="none" stroke="black" d="M1796.17,-118.87C1780.13,-108.88 1763.26,-98.38 1747.35,-88.47"/>
<polygon fill="black" stroke="black" points="1748.95,-85.35 1738.61,-83.03 1745.25,-91.29 1748.95,-85.35"/>
</g>
<!-- 20 -->
<g id="node21" class="node">
<title>20</title>
<polygon fill="none" stroke="black" points="1973.5,-83 1785.5,-83 1785.5,0 1973.5,0 1973.5,-83"/>
<text text-anchor="middle" x="1879.5" y="-67.8" font-family="Times,serif" font-size="14.00">node #20</text>
<text text-anchor="middle" x="1879.5" y="-52.8" font-family="Times,serif" font-size="14.00">gini = 0.0</text>
<text text-anchor="middle" x="1879.5" y="-37.8" font-family="Times,serif" font-size="14.00">samples = 49</text>
<text text-anchor="middle" x="1879.5" y="-22.8" font-family="Times,serif" font-size="14.00">value = [84.482, 0.0]</text>
<text text-anchor="middle" x="1879.5" y="-7.8" font-family="Times,serif" font-size="14.00">class = Non&#45;obstructive</text>
</g>
<!-- 18&#45;&gt;20 -->
<g id="edge20" class="edge">
<title>18&#45;&gt;20</title>
<path fill="none" stroke="black" d="M1875.82,-118.87C1876.22,-110.5 1876.64,-101.77 1877.05,-93.33"/>
<polygon fill="black" stroke="black" points="1880.55,-93.39 1877.54,-83.23 1873.56,-93.05 1880.55,-93.39"/>
</g>
<!-- 22 -->
<g id="node23" class="node">
<title>22</title>
<polygon fill="none" stroke="black" points="2167.5,-83 1991.5,-83 1991.5,0 2167.5,0 2167.5,-83"/>
<text text-anchor="middle" x="2079.5" y="-67.8" font-family="Times,serif" font-size="14.00">node #22</text>
<text text-anchor="middle" x="2079.5" y="-52.8" font-family="Times,serif" font-size="14.00">gini = 0.313</text>
<text text-anchor="middle" x="2079.5" y="-37.8" font-family="Times,serif" font-size="14.00">samples = 3</text>
<text text-anchor="middle" x="2079.5" y="-22.8" font-family="Times,serif" font-size="14.00">value = [0.982, 4.073]</text>
<text text-anchor="middle" x="2079.5" y="-7.8" font-family="Times,serif" font-size="14.00">class = Obstructive</text>
</g>
<!-- 21&#45;&gt;22 -->
<g id="edge22" class="edge">
<title>21&#45;&gt;22</title>
<path fill="none" stroke="black" d="M2082.57,-118.87C2082.23,-110.5 2081.88,-101.77 2081.54,-93.33"/>
<polygon fill="black" stroke="black" points="2085.03,-93.08 2081.14,-83.23 2078.04,-93.36 2085.03,-93.08"/>
</g>
<!-- 23 -->
<g id="node24" class="node">
<title>23</title>
<polygon fill="none" stroke="black" points="2373.5,-83 2185.5,-83 2185.5,0 2373.5,0 2373.5,-83"/>
<text text-anchor="middle" x="2279.5" y="-67.8" font-family="Times,serif" font-size="14.00">node #23</text>
<text text-anchor="middle" x="2279.5" y="-52.8" font-family="Times,serif" font-size="14.00">gini = 0.0</text>
<text text-anchor="middle" x="2279.5" y="-37.8" font-family="Times,serif" font-size="14.00">samples = 7</text>
<text text-anchor="middle" x="2279.5" y="-22.8" font-family="Times,serif" font-size="14.00">value = [9.824, 0.0]</text>
<text text-anchor="middle" x="2279.5" y="-7.8" font-family="Times,serif" font-size="14.00">class = Non&#45;obstructive</text>
</g>
<!-- 21&#45;&gt;23 -->
<g id="edge23" class="edge">
<title>21&#45;&gt;23</title>
<path fill="none" stroke="black" d="M2159.89,-118.87C2175.54,-108.88 2191.98,-98.38 2207.5,-88.47"/>
<polygon fill="black" stroke="black" points="2209.47,-91.36 2216.02,-83.03 2205.7,-85.46 2209.47,-91.36"/>
</g>
<!-- 25 -->
<g id="node26" class="node">
<title>25</title>
<polygon fill="none" stroke="black" points="2582.5,-217 2388.5,-217 2388.5,-119 2582.5,-119 2582.5,-217"/>
<text text-anchor="middle" x="2485.5" y="-201.8" font-family="Times,serif" font-size="14.00">node #25</text>
<text text-anchor="middle" x="2485.5" y="-186.8" font-family="Times,serif" font-size="14.00">FEFPrePercent &lt;= 69.5</text>
<text text-anchor="middle" x="2485.5" y="-171.8" font-family="Times,serif" font-size="14.00">gini = 0.474</text>
<text text-anchor="middle" x="2485.5" y="-156.8" font-family="Times,serif" font-size="14.00">samples = 18</text>
<text text-anchor="middle" x="2485.5" y="-141.8" font-family="Times,serif" font-size="14.00">value = [12.771, 20.366]</text>
<text text-anchor="middle" x="2485.5" y="-126.8" font-family="Times,serif" font-size="14.00">class = Obstructive</text>
</g>
<!-- 24&#45;&gt;25 -->
<g id="edge25" class="edge">
<title>24&#45;&gt;25</title>
<path fill="none" stroke="black" d="M2485.5,-252.97C2485.5,-244.69 2485.5,-236 2485.5,-227.48"/>
<polygon fill="black" stroke="black" points="2489,-227.21 2485.5,-217.21 2482,-227.21 2489,-227.21"/>
</g>
<!-- 28 -->
<g id="node29" class="node">
<title>28</title>
<polygon fill="none" stroke="black" points="2788.5,-209.5 2600.5,-209.5 2600.5,-126.5 2788.5,-126.5 2788.5,-209.5"/>
<text text-anchor="middle" x="2694.5" y="-194.3" font-family="Times,serif" font-size="14.00">node #28</text>
<text text-anchor="middle" x="2694.5" y="-179.3" font-family="Times,serif" font-size="14.00">gini = 0.0</text>
<text text-anchor="middle" x="2694.5" y="-164.3" font-family="Times,serif" font-size="14.00">samples = 8</text>
<text text-anchor="middle" x="2694.5" y="-149.3" font-family="Times,serif" font-size="14.00">value = [16.7, 0.0]</text>
<text text-anchor="middle" x="2694.5" y="-134.3" font-family="Times,serif" font-size="14.00">class = Non&#45;obstructive</text>
</g>
<!-- 24&#45;&gt;28 -->
<g id="edge28" class="edge">
<title>24&#45;&gt;28</title>
<path fill="none" stroke="black" d="M2561.55,-252.97C2581.17,-240.58 2602.24,-227.27 2621.69,-214.98"/>
<polygon fill="black" stroke="black" points="2623.63,-217.9 2630.21,-209.6 2619.89,-211.98 2623.63,-217.9"/>
</g>
<!-- 26 -->
<g id="node27" class="node">
<title>26</title>
<polygon fill="none" stroke="black" points="2579.5,-83 2391.5,-83 2391.5,0 2579.5,0 2579.5,-83"/>
<text text-anchor="middle" x="2485.5" y="-67.8" font-family="Times,serif" font-size="14.00">node #26</text>
<text text-anchor="middle" x="2485.5" y="-52.8" font-family="Times,serif" font-size="14.00">gini = 0.225</text>
<text text-anchor="middle" x="2485.5" y="-37.8" font-family="Times,serif" font-size="14.00">samples = 5</text>
<text text-anchor="middle" x="2485.5" y="-22.8" font-family="Times,serif" font-size="14.00">value = [6.876, 1.018]</text>
<text text-anchor="middle" x="2485.5" y="-7.8" font-family="Times,serif" font-size="14.00">class = Non&#45;obstructive</text>
</g>
<!-- 25&#45;&gt;26 -->
<g id="edge26" class="edge">
<title>25&#45;&gt;26</title>
<path fill="none" stroke="black" d="M2485.5,-118.87C2485.5,-110.5 2485.5,-101.77 2485.5,-93.33"/>
<polygon fill="black" stroke="black" points="2489,-93.23 2485.5,-83.23 2482,-93.23 2489,-93.23"/>
</g>
<!-- 27 -->
<g id="node28" class="node">
<title>27</title>
<polygon fill="none" stroke="black" points="2783,-83 2598,-83 2598,0 2783,0 2783,-83"/>
<text text-anchor="middle" x="2690.5" y="-67.8" font-family="Times,serif" font-size="14.00">node #27</text>
<text text-anchor="middle" x="2690.5" y="-52.8" font-family="Times,serif" font-size="14.00">gini = 0.358</text>
<text text-anchor="middle" x="2690.5" y="-37.8" font-family="Times,serif" font-size="14.00">samples = 13</text>
<text text-anchor="middle" x="2690.5" y="-22.8" font-family="Times,serif" font-size="14.00">value = [5.894, 19.348]</text>
<text text-anchor="middle" x="2690.5" y="-7.8" font-family="Times,serif" font-size="14.00">class = Obstructive</text>
</g>
<!-- 25&#45;&gt;27 -->
<g id="edge27" class="edge">
<title>25&#45;&gt;27</title>
<path fill="none" stroke="black" d="M2564.76,-118.87C2581.2,-108.88 2598.49,-98.38 2614.81,-88.47"/>
<polygon fill="black" stroke="black" points="2617.03,-91.21 2623.76,-83.03 2613.4,-85.23 2617.03,-91.21"/>
</g>
</g>
</svg>
