<?xml version="1.0" encoding="UTF-8" standalone="no"?>
<!DOCTYPE svg PUBLIC "-//W3C//DTD SVG 1.1//EN"
 "http://www.w3.org/Graphics/SVG/1.1/DTD/svg11.dtd">
<!-- Generated by graphviz version 2.43.0 (0)
 -->
<!-- Title: Tree Pages: 1 -->
<svg width="2064pt" height="627pt"
 viewBox="0.00 0.00 2063.50 627.00" xmlns="http://www.w3.org/2000/svg" xmlns:xlink="http://www.w3.org/1999/xlink">
<g id="graph0" class="graph" transform="scale(1 1) rotate(0) translate(4 623)">
<title>Tree</title>
<polygon fill="white" stroke="transparent" points="-4,4 -4,-623 2059.5,-623 2059.5,4 -4,4"/>
<!-- 0 -->
<g id="node1" class="node">
<title>0</title>
<polygon fill="none" stroke="black" points="1047,-619 859,-619 859,-521 1047,-521 1047,-619"/>
<text text-anchor="middle" x="953" y="-603.8" font-family="Times,serif" font-size="14.00">node #0</text>
<text text-anchor="middle" x="953" y="-588.8" font-family="Times,serif" font-size="14.00">FVCPreVal &lt;= 1.5</text>
<text text-anchor="middle" x="953" y="-573.8" font-family="Times,serif" font-size="14.00">gini = 0.5</text>
<text text-anchor="middle" x="953" y="-558.8" font-family="Times,serif" font-size="14.00">samples = 201</text>
<text text-anchor="middle" x="953" y="-543.8" font-family="Times,serif" font-size="14.00">value = [167.0, 167.0]</text>
<text text-anchor="middle" x="953" y="-528.8" font-family="Times,serif" font-size="14.00">class = Non&#45;obstructive</text>
</g>
<!-- 1 -->
<g id="node2" class="node">
<title>1</title>
<polygon fill="none" stroke="black" points="774,-485 580,-485 580,-387 774,-387 774,-485"/>
<text text-anchor="middle" x="677" y="-469.8" font-family="Times,serif" font-size="14.00">node #1</text>
<text text-anchor="middle" x="677" y="-454.8" font-family="Times,serif" font-size="14.00">FEFPrePercent &lt;= 32.5</text>
<text text-anchor="middle" x="677" y="-439.8" font-family="Times,serif" font-size="14.00">gini = 0.213</text>
<text text-anchor="middle" x="677" y="-424.8" font-family="Times,serif" font-size="14.00">samples = 58</text>
<text text-anchor="middle" x="677" y="-409.8" font-family="Times,serif" font-size="14.00">value = [91.611, 12.604]</text>
<text text-anchor="middle" x="677" y="-394.8" font-family="Times,serif" font-size="14.00">class = Non&#45;obstructive</text>
</g>
<!-- 0&#45;&gt;1 -->
<g id="edge1" class="edge">
<title>0&#45;&gt;1</title>
<path fill="none" stroke="black" d="M858.79,-523.94C834.45,-512.3 808.08,-499.69 783.18,-487.78"/>
<polygon fill="black" stroke="black" points="784.61,-484.58 774.08,-483.43 781.59,-490.9 784.61,-484.58"/>
<text text-anchor="middle" x="782.4" y="-503.3" font-family="Times,serif" font-size="14.00">True</text>
</g>
<!-- 12 -->
<g id="node13" class="node">
<title>12</title>
<polygon fill="none" stroke="black" points="1229.5,-485 1026.5,-485 1026.5,-387 1229.5,-387 1229.5,-485"/>
<text text-anchor="middle" x="1128" y="-469.8" font-family="Times,serif" font-size="14.00">node #12</text>
<text text-anchor="middle" x="1128" y="-454.8" font-family="Times,serif" font-size="14.00">FEFPrePercent &lt;= 57.5</text>
<text text-anchor="middle" x="1128" y="-439.8" font-family="Times,serif" font-size="14.00">gini = 0.441</text>
<text text-anchor="middle" x="1128" y="-424.8" font-family="Times,serif" font-size="14.00">samples = 143</text>
<text text-anchor="middle" x="1128" y="-409.8" font-family="Times,serif" font-size="14.00">value = [75.389, 154.396]</text>
<text text-anchor="middle" x="1128" y="-394.8" font-family="Times,serif" font-size="14.00">class = Obstructive</text>
</g>
<!-- 0&#45;&gt;12 -->
<g id="edge12" class="edge">
<title>0&#45;&gt;12</title>
<path fill="none" stroke="black" d="M1016.67,-520.97C1029.46,-511.33 1042.98,-501.13 1056.03,-491.29"/>
<polygon fill="black" stroke="black" points="1058.2,-494.03 1064.08,-485.21 1053.99,-488.44 1058.2,-494.03"/>
<text text-anchor="middle" x="1060.61" y="-506.27" font-family="Times,serif" font-size="14.00">False</text>
</g>
<!-- 2 -->
<g id="node3" class="node">
<title>2</title>
<polygon fill="none" stroke="black" points="469.5,-351 272.5,-351 272.5,-253 469.5,-253 469.5,-351"/>
<text text-anchor="middle" x="371" y="-335.8" font-family="Times,serif" font-size="14.00">node #2</text>
<text text-anchor="middle" x="371" y="-320.8" font-family="Times,serif" font-size="14.00">FVCPostPercent &lt;= 48.0</text>
<text text-anchor="middle" x="371" y="-305.8" font-family="Times,serif" font-size="14.00">gini = 0.391</text>
<text text-anchor="middle" x="371" y="-290.8" font-family="Times,serif" font-size="14.00">samples = 12</text>
<text text-anchor="middle" x="371" y="-275.8" font-family="Times,serif" font-size="14.00">value = [3.817, 10.503]</text>
<text text-anchor="middle" x="371" y="-260.8" font-family="Times,serif" font-size="14.00">class = Obstructive</text>
</g>
<!-- 1&#45;&gt;2 -->
<g id="edge2" class="edge">
<title>1&#45;&gt;2</title>
<path fill="none" stroke="black" d="M579.76,-393.05C547.61,-379.18 511.65,-363.67 478.76,-349.48"/>
<polygon fill="black" stroke="black" points="480.13,-346.27 469.56,-345.52 477.36,-352.69 480.13,-346.27"/>
</g>
<!-- 7 -->
<g id="node8" class="node">
<title>7</title>
<polygon fill="none" stroke="black" points="771,-351 583,-351 583,-253 771,-253 771,-351"/>
<text text-anchor="middle" x="677" y="-335.8" font-family="Times,serif" font-size="14.00">node #7</text>
<text text-anchor="middle" x="677" y="-320.8" font-family="Times,serif" font-size="14.00">FVCPostVal &lt;= 1.7</text>
<text text-anchor="middle" x="677" y="-305.8" font-family="Times,serif" font-size="14.00">gini = 0.046</text>
<text text-anchor="middle" x="677" y="-290.8" font-family="Times,serif" font-size="14.00">samples = 46</text>
<text text-anchor="middle" x="677" y="-275.8" font-family="Times,serif" font-size="14.00">value = [87.794, 2.101]</text>
<text text-anchor="middle" x="677" y="-260.8" font-family="Times,serif" font-size="14.00">class = Non&#45;obstructive</text>
</g>
<!-- 1&#45;&gt;7 -->
<g id="edge7" class="edge">
<title>1&#45;&gt;7</title>
<path fill="none" stroke="black" d="M677,-386.97C677,-378.69 677,-370 677,-361.48"/>
<polygon fill="black" stroke="black" points="680.5,-361.21 677,-351.21 673.5,-361.21 680.5,-361.21"/>
</g>
<!-- 3 -->
<g id="node4" class="node">
<title>3</title>
<polygon fill="none" stroke="black" points="274,-217 74,-217 74,-119 274,-119 274,-217"/>
<text text-anchor="middle" x="174" y="-201.8" font-family="Times,serif" font-size="14.00">node #3</text>
<text text-anchor="middle" x="174" y="-186.8" font-family="Times,serif" font-size="14.00">FEV1PrePercent &lt;= 24.0</text>
<text text-anchor="middle" x="174" y="-171.8" font-family="Times,serif" font-size="14.00">gini = 0.495</text>
<text text-anchor="middle" x="174" y="-156.8" font-family="Times,serif" font-size="14.00">samples = 6</text>
<text text-anchor="middle" x="174" y="-141.8" font-family="Times,serif" font-size="14.00">value = [3.817, 3.151]</text>
<text text-anchor="middle" x="174" y="-126.8" font-family="Times,serif" font-size="14.00">class = Non&#45;obstructive</text>
</g>
<!-- 2&#45;&gt;3 -->
<g id="edge3" class="edge">
<title>2&#45;&gt;3</title>
<path fill="none" stroke="black" d="M299.32,-252.97C284.79,-243.24 269.42,-232.93 254.6,-223.01"/>
<polygon fill="black" stroke="black" points="256.21,-219.87 245.96,-217.21 252.31,-225.69 256.21,-219.87"/>
</g>
<!-- 6 -->
<g id="node7" class="node">
<title>6</title>
<polygon fill="none" stroke="black" points="450,-209.5 292,-209.5 292,-126.5 450,-126.5 450,-209.5"/>
<text text-anchor="middle" x="371" y="-194.3" font-family="Times,serif" font-size="14.00">node #6</text>
<text text-anchor="middle" x="371" y="-179.3" font-family="Times,serif" font-size="14.00">gini = 0.0</text>
<text text-anchor="middle" x="371" y="-164.3" font-family="Times,serif" font-size="14.00">samples = 6</text>
<text text-anchor="middle" x="371" y="-149.3" font-family="Times,serif" font-size="14.00">value = [0.0, 7.352]</text>
<text text-anchor="middle" x="371" y="-134.3" font-family="Times,serif" font-size="14.00">class = Obstructive</text>
</g>
<!-- 2&#45;&gt;6 -->
<g id="edge6" class="edge">
<title>2&#45;&gt;6</title>
<path fill="none" stroke="black" d="M371,-252.97C371,-242.25 371,-230.84 371,-219.99"/>
<polygon fill="black" stroke="black" points="374.5,-219.82 371,-209.82 367.5,-219.82 374.5,-219.82"/>
</g>
<!-- 4 -->
<g id="node5" class="node">
<title>4</title>
<polygon fill="none" stroke="black" points="158,-83 0,-83 0,0 158,0 158,-83"/>
<text text-anchor="middle" x="79" y="-67.8" font-family="Times,serif" font-size="14.00">node #4</text>
<text text-anchor="middle" x="79" y="-52.8" font-family="Times,serif" font-size="14.00">gini = 0.0</text>
<text text-anchor="middle" x="79" y="-37.8" font-family="Times,serif" font-size="14.00">samples = 3</text>
<text text-anchor="middle" x="79" y="-22.8" font-family="Times,serif" font-size="14.00">value = [0.0, 3.151]</text>
<text text-anchor="middle" x="79" y="-7.8" font-family="Times,serif" font-size="14.00">class = Obstructive</text>
</g>
<!-- 3&#45;&gt;4 -->
<g id="edge4" class="edge">
<title>3&#45;&gt;4</title>
<path fill="none" stroke="black" d="M137.27,-118.87C130.39,-109.85 123.2,-100.43 116.31,-91.39"/>
<polygon fill="black" stroke="black" points="118.93,-89.06 110.08,-83.23 113.36,-93.3 118.93,-89.06"/>
</g>
<!-- 5 -->
<g id="node6" class="node">
<title>5</title>
<polygon fill="none" stroke="black" points="364,-83 176,-83 176,0 364,0 364,-83"/>
<text text-anchor="middle" x="270" y="-67.8" font-family="Times,serif" font-size="14.00">node #5</text>
<text text-anchor="middle" x="270" y="-52.8" font-family="Times,serif" font-size="14.00">gini = &#45;0.0</text>
<text text-anchor="middle" x="270" y="-37.8" font-family="Times,serif" font-size="14.00">samples = 3</text>
<text text-anchor="middle" x="270" y="-22.8" font-family="Times,serif" font-size="14.00">value = [3.817, 0.0]</text>
<text text-anchor="middle" x="270" y="-7.8" font-family="Times,serif" font-size="14.00">class = Non&#45;obstructive</text>
</g>
<!-- 3&#45;&gt;5 -->
<g id="edge5" class="edge">
<title>3&#45;&gt;5</title>
<path fill="none" stroke="black" d="M211.12,-118.87C218.06,-109.85 225.33,-100.43 232.3,-91.39"/>
<polygon fill="black" stroke="black" points="235.26,-93.29 238.59,-83.23 229.71,-89.01 235.26,-93.29"/>
</g>
<!-- 8 -->
<g id="node9" class="node">
<title>8</title>
<polygon fill="none" stroke="black" points="656,-209.5 468,-209.5 468,-126.5 656,-126.5 656,-209.5"/>
<text text-anchor="middle" x="562" y="-194.3" font-family="Times,serif" font-size="14.00">node #8</text>
<text text-anchor="middle" x="562" y="-179.3" font-family="Times,serif" font-size="14.00">gini = 0.0</text>
<text text-anchor="middle" x="562" y="-164.3" font-family="Times,serif" font-size="14.00">samples = 43</text>
<text text-anchor="middle" x="562" y="-149.3" font-family="Times,serif" font-size="14.00">value = [81.114, 0.0]</text>
<text text-anchor="middle" x="562" y="-134.3" font-family="Times,serif" font-size="14.00">class = Non&#45;obstructive</text>
</g>
<!-- 7&#45;&gt;8 -->
<g id="edge8" class="edge">
<title>7&#45;&gt;8</title>
<path fill="none" stroke="black" d="M635.16,-252.97C625.14,-241.47 614.43,-229.18 604.39,-217.66"/>
<polygon fill="black" stroke="black" points="606.77,-215.06 597.56,-209.82 601.49,-219.66 606.77,-215.06"/>
</g>
<!-- 9 -->
<g id="node10" class="node">
<title>9</title>
<polygon fill="none" stroke="black" points="871.5,-217 674.5,-217 674.5,-119 871.5,-119 871.5,-217"/>
<text text-anchor="middle" x="773" y="-201.8" font-family="Times,serif" font-size="14.00">node #9</text>
<text text-anchor="middle" x="773" y="-186.8" font-family="Times,serif" font-size="14.00">FVCPostPercent &lt;= 67.5</text>
<text text-anchor="middle" x="773" y="-171.8" font-family="Times,serif" font-size="14.00">gini = 0.364</text>
<text text-anchor="middle" x="773" y="-156.8" font-family="Times,serif" font-size="14.00">samples = 3</text>
<text text-anchor="middle" x="773" y="-141.8" font-family="Times,serif" font-size="14.00">value = [6.68, 2.101]</text>
<text text-anchor="middle" x="773" y="-126.8" font-family="Times,serif" font-size="14.00">class = Non&#45;obstructive</text>
</g>
<!-- 7&#45;&gt;9 -->
<g id="edge9" class="edge">
<title>7&#45;&gt;9</title>
<path fill="none" stroke="black" d="M711.93,-252.97C718.42,-244.05 725.24,-234.66 731.89,-225.52"/>
<polygon fill="black" stroke="black" points="734.88,-227.36 737.94,-217.21 729.22,-223.24 734.88,-227.36"/>
</g>
<!-- 10 -->
<g id="node11" class="node">
<title>10</title>
<polygon fill="none" stroke="black" points="661,-83 503,-83 503,0 661,0 661,-83"/>
<text text-anchor="middle" x="582" y="-67.8" font-family="Times,serif" font-size="14.00">node #10</text>
<text text-anchor="middle" x="582" y="-52.8" font-family="Times,serif" font-size="14.00">gini = 0.0</text>
<text text-anchor="middle" x="582" y="-37.8" font-family="Times,serif" font-size="14.00">samples = 1</text>
<text text-anchor="middle" x="582" y="-22.8" font-family="Times,serif" font-size="14.00">value = [0.0, 2.101]</text>
<text text-anchor="middle" x="582" y="-7.8" font-family="Times,serif" font-size="14.00">class = Obstructive</text>
</g>
<!-- 9&#45;&gt;10 -->
<g id="edge10" class="edge">
<title>9&#45;&gt;10</title>
<path fill="none" stroke="black" d="M699.15,-118.87C683.97,-108.97 668.02,-98.57 652.95,-88.74"/>
<polygon fill="black" stroke="black" points="654.47,-85.56 644.18,-83.03 650.65,-91.43 654.47,-85.56"/>
</g>
<!-- 11 -->
<g id="node12" class="node">
<title>11</title>
<polygon fill="none" stroke="black" points="867,-83 679,-83 679,0 867,0 867,-83"/>
<text text-anchor="middle" x="773" y="-67.8" font-family="Times,serif" font-size="14.00">node #11</text>
<text text-anchor="middle" x="773" y="-52.8" font-family="Times,serif" font-size="14.00">gini = 0.0</text>
<text text-anchor="middle" x="773" y="-37.8" font-family="Times,serif" font-size="14.00">samples = 2</text>
<text text-anchor="middle" x="773" y="-22.8" font-family="Times,serif" font-size="14.00">value = [6.68, 0.0]</text>
<text text-anchor="middle" x="773" y="-7.8" font-family="Times,serif" font-size="14.00">class = Non&#45;obstructive</text>
</g>
<!-- 9&#45;&gt;11 -->
<g id="edge11" class="edge">
<title>9&#45;&gt;11</title>
<path fill="none" stroke="black" d="M773,-118.87C773,-110.5 773,-101.77 773,-93.33"/>
<polygon fill="black" stroke="black" points="776.5,-93.23 773,-83.23 769.5,-93.23 776.5,-93.23"/>
</g>
<!-- 13 -->
<g id="node14" class="node">
<title>13</title>
<polygon fill="none" stroke="black" points="1229.5,-351 1026.5,-351 1026.5,-253 1229.5,-253 1229.5,-351"/>
<text text-anchor="middle" x="1128" y="-335.8" font-family="Times,serif" font-size="14.00">node #13</text>
<text text-anchor="middle" x="1128" y="-320.8" font-family="Times,serif" font-size="14.00">FEFPostVal &lt;= 3.34</text>
<text text-anchor="middle" x="1128" y="-305.8" font-family="Times,serif" font-size="14.00">gini = 0.147</text>
<text text-anchor="middle" x="1128" y="-290.8" font-family="Times,serif" font-size="14.00">samples = 82</text>
<text text-anchor="middle" x="1128" y="-275.8" font-family="Times,serif" font-size="14.00">value = [10.497, 120.786]</text>
<text text-anchor="middle" x="1128" y="-260.8" font-family="Times,serif" font-size="14.00">class = Obstructive</text>
</g>
<!-- 12&#45;&gt;13 -->
<g id="edge13" class="edge">
<title>12&#45;&gt;13</title>
<path fill="none" stroke="black" d="M1128,-386.97C1128,-378.69 1128,-370 1128,-361.48"/>
<polygon fill="black" stroke="black" points="1131.5,-361.21 1128,-351.21 1124.5,-361.21 1131.5,-361.21"/>
</g>
<!-- 18 -->
<g id="node19" class="node">
<title>18</title>
<polygon fill="none" stroke="black" points="1607,-351 1419,-351 1419,-253 1607,-253 1607,-351"/>
<text text-anchor="middle" x="1513" y="-335.8" font-family="Times,serif" font-size="14.00">node #18</text>
<text text-anchor="middle" x="1513" y="-320.8" font-family="Times,serif" font-size="14.00">FVCPreVal &lt;= 2.19</text>
<text text-anchor="middle" x="1513" y="-305.8" font-family="Times,serif" font-size="14.00">gini = 0.45</text>
<text text-anchor="middle" x="1513" y="-290.8" font-family="Times,serif" font-size="14.00">samples = 61</text>
<text text-anchor="middle" x="1513" y="-275.8" font-family="Times,serif" font-size="14.00">value = [64.891, 33.61]</text>
<text text-anchor="middle" x="1513" y="-260.8" font-family="Times,serif" font-size="14.00">class = Non&#45;obstructive</text>
</g>
<!-- 12&#45;&gt;18 -->
<g id="edge18" class="edge">
<title>12&#45;&gt;18</title>
<path fill="none" stroke="black" d="M1229.66,-400.15C1285.05,-381.16 1353.45,-357.7 1409.17,-338.6"/>
<polygon fill="black" stroke="black" points="1410.39,-341.88 1418.71,-335.33 1408.12,-335.26 1410.39,-341.88"/>
</g>
<!-- 14 -->
<g id="node15" class="node">
<title>14</title>
<polygon fill="none" stroke="black" points="1121,-217 927,-217 927,-119 1121,-119 1121,-217"/>
<text text-anchor="middle" x="1024" y="-201.8" font-family="Times,serif" font-size="14.00">node #14</text>
<text text-anchor="middle" x="1024" y="-186.8" font-family="Times,serif" font-size="14.00">FEFPrePercent &lt;= 38.5</text>
<text text-anchor="middle" x="1024" y="-171.8" font-family="Times,serif" font-size="14.00">gini = 0.136</text>
<text text-anchor="middle" x="1024" y="-156.8" font-family="Times,serif" font-size="14.00">samples = 81</text>
<text text-anchor="middle" x="1024" y="-141.8" font-family="Times,serif" font-size="14.00">value = [9.543, 120.786]</text>
<text text-anchor="middle" x="1024" y="-126.8" font-family="Times,serif" font-size="14.00">class = Obstructive</text>
</g>
<!-- 13&#45;&gt;14 -->
<g id="edge14" class="edge">
<title>13&#45;&gt;14</title>
<path fill="none" stroke="black" d="M1090.16,-252.97C1083.06,-243.96 1075.58,-234.47 1068.31,-225.24"/>
<polygon fill="black" stroke="black" points="1070.92,-222.9 1061.99,-217.21 1065.43,-227.23 1070.92,-222.9"/>
</g>
<!-- 17 -->
<g id="node18" class="node">
<title>17</title>
<polygon fill="none" stroke="black" points="1327,-209.5 1139,-209.5 1139,-126.5 1327,-126.5 1327,-209.5"/>
<text text-anchor="middle" x="1233" y="-194.3" font-family="Times,serif" font-size="14.00">node #17</text>
<text text-anchor="middle" x="1233" y="-179.3" font-family="Times,serif" font-size="14.00">gini = &#45;0.0</text>
<text text-anchor="middle" x="1233" y="-164.3" font-family="Times,serif" font-size="14.00">samples = 1</text>
<text text-anchor="middle" x="1233" y="-149.3" font-family="Times,serif" font-size="14.00">value = [0.954, 0.0]</text>
<text text-anchor="middle" x="1233" y="-134.3" font-family="Times,serif" font-size="14.00">class = Non&#45;obstructive</text>
</g>
<!-- 13&#45;&gt;17 -->
<g id="edge17" class="edge">
<title>13&#45;&gt;17</title>
<path fill="none" stroke="black" d="M1166.2,-252.97C1175.35,-241.47 1185.13,-229.18 1194.3,-217.66"/>
<polygon fill="black" stroke="black" points="1197.05,-219.82 1200.53,-209.82 1191.57,-215.46 1197.05,-219.82"/>
</g>
<!-- 15 -->
<g id="node16" class="node">
<title>15</title>
<polygon fill="none" stroke="black" points="1070.5,-83 885.5,-83 885.5,0 1070.5,0 1070.5,-83"/>
<text text-anchor="middle" x="978" y="-67.8" font-family="Times,serif" font-size="14.00">node #15</text>
<text text-anchor="middle" x="978" y="-52.8" font-family="Times,serif" font-size="14.00">gini = 0.022</text>
<text text-anchor="middle" x="978" y="-37.8" font-family="Times,serif" font-size="14.00">samples = 57</text>
<text text-anchor="middle" x="978" y="-22.8" font-family="Times,serif" font-size="14.00">value = [0.954, 86.126]</text>
<text text-anchor="middle" x="978" y="-7.8" font-family="Times,serif" font-size="14.00">class = Obstructive</text>
</g>
<!-- 14&#45;&gt;15 -->
<g id="edge15" class="edge">
<title>14&#45;&gt;15</title>
<path fill="none" stroke="black" d="M1006.22,-118.87C1003.06,-110.31 999.76,-101.39 996.58,-92.78"/>
<polygon fill="black" stroke="black" points="999.8,-91.4 993.05,-83.23 993.23,-93.82 999.8,-91.4"/>
</g>
<!-- 16 -->
<g id="node17" class="node">
<title>16</title>
<polygon fill="none" stroke="black" points="1264,-83 1088,-83 1088,0 1264,0 1264,-83"/>
<text text-anchor="middle" x="1176" y="-67.8" font-family="Times,serif" font-size="14.00">node #16</text>
<text text-anchor="middle" x="1176" y="-52.8" font-family="Times,serif" font-size="14.00">gini = 0.318</text>
<text text-anchor="middle" x="1176" y="-37.8" font-family="Times,serif" font-size="14.00">samples = 24</text>
<text text-anchor="middle" x="1176" y="-22.8" font-family="Times,serif" font-size="14.00">value = [8.589, 34.66]</text>
<text text-anchor="middle" x="1176" y="-7.8" font-family="Times,serif" font-size="14.00">class = Obstructive</text>
</g>
<!-- 14&#45;&gt;16 -->
<g id="edge16" class="edge">
<title>14&#45;&gt;16</title>
<path fill="none" stroke="black" d="M1082.77,-118.87C1094.44,-109.3 1106.69,-99.27 1118.33,-89.74"/>
<polygon fill="black" stroke="black" points="1120.75,-92.28 1126.27,-83.23 1116.32,-86.86 1120.75,-92.28"/>
</g>
<!-- 19 -->
<g id="node20" class="node">
<title>19</title>
<polygon fill="none" stroke="black" points="1607,-217 1419,-217 1419,-119 1607,-119 1607,-217"/>
<text text-anchor="middle" x="1513" y="-201.8" font-family="Times,serif" font-size="14.00">node #19</text>
<text text-anchor="middle" x="1513" y="-186.8" font-family="Times,serif" font-size="14.00">FEFPreVal &lt;= 1.292</text>
<text text-anchor="middle" x="1513" y="-171.8" font-family="Times,serif" font-size="14.00">gini = 0.053</text>
<text text-anchor="middle" x="1513" y="-156.8" font-family="Times,serif" font-size="14.00">samples = 22</text>
<text text-anchor="middle" x="1513" y="-141.8" font-family="Times,serif" font-size="14.00">value = [37.217, 1.05]</text>
<text text-anchor="middle" x="1513" y="-126.8" font-family="Times,serif" font-size="14.00">class = Non&#45;obstructive</text>
</g>
<!-- 18&#45;&gt;19 -->
<g id="edge19" class="edge">
<title>18&#45;&gt;19</title>
<path fill="none" stroke="black" d="M1513,-252.97C1513,-244.69 1513,-236 1513,-227.48"/>
<polygon fill="black" stroke="black" points="1516.5,-227.21 1513,-217.21 1509.5,-227.21 1516.5,-227.21"/>
</g>
<!-- 22 -->
<g id="node23" class="node">
<title>22</title>
<polygon fill="none" stroke="black" points="1853.5,-217 1662.5,-217 1662.5,-119 1853.5,-119 1853.5,-217"/>
<text text-anchor="middle" x="1758" y="-201.8" font-family="Times,serif" font-size="14.00">node #22</text>
<text text-anchor="middle" x="1758" y="-186.8" font-family="Times,serif" font-size="14.00">FVCPrePercent &lt;= 62.5</text>
<text text-anchor="middle" x="1758" y="-171.8" font-family="Times,serif" font-size="14.00">gini = 0.497</text>
<text text-anchor="middle" x="1758" y="-156.8" font-family="Times,serif" font-size="14.00">samples = 39</text>
<text text-anchor="middle" x="1758" y="-141.8" font-family="Times,serif" font-size="14.00">value = [27.674, 32.56]</text>
<text text-anchor="middle" x="1758" y="-126.8" font-family="Times,serif" font-size="14.00">class = Obstructive</text>
</g>
<!-- 18&#45;&gt;22 -->
<g id="edge22" class="edge">
<title>18&#45;&gt;22</title>
<path fill="none" stroke="black" d="M1602.14,-252.97C1620.81,-242.92 1640.59,-232.26 1659.56,-222.04"/>
<polygon fill="black" stroke="black" points="1661.37,-225.04 1668.51,-217.21 1658.05,-218.88 1661.37,-225.04"/>
</g>
<!-- 20 -->
<g id="node21" class="node">
<title>20</title>
<polygon fill="none" stroke="black" points="1439.5,-83 1282.5,-83 1282.5,0 1439.5,0 1439.5,-83"/>
<text text-anchor="middle" x="1361" y="-67.8" font-family="Times,serif" font-size="14.00">node #20</text>
<text text-anchor="middle" x="1361" y="-52.8" font-family="Times,serif" font-size="14.00">gini = 0.0</text>
<text text-anchor="middle" x="1361" y="-37.8" font-family="Times,serif" font-size="14.00">samples = 1</text>
<text text-anchor="middle" x="1361" y="-22.8" font-family="Times,serif" font-size="14.00">value = [0.0, 1.05]</text>
<text text-anchor="middle" x="1361" y="-7.8" font-family="Times,serif" font-size="14.00">class = Obstructive</text>
</g>
<!-- 19&#45;&gt;20 -->
<g id="edge20" class="edge">
<title>19&#45;&gt;20</title>
<path fill="none" stroke="black" d="M1454.23,-118.87C1442.56,-109.3 1430.31,-99.27 1418.67,-89.74"/>
<polygon fill="black" stroke="black" points="1420.68,-86.86 1410.73,-83.23 1416.25,-92.28 1420.68,-86.86"/>
</g>
<!-- 21 -->
<g id="node22" class="node">
<title>21</title>
<polygon fill="none" stroke="black" points="1646,-83 1458,-83 1458,0 1646,0 1646,-83"/>
<text text-anchor="middle" x="1552" y="-67.8" font-family="Times,serif" font-size="14.00">node #21</text>
<text text-anchor="middle" x="1552" y="-52.8" font-family="Times,serif" font-size="14.00">gini = 0.0</text>
<text text-anchor="middle" x="1552" y="-37.8" font-family="Times,serif" font-size="14.00">samples = 21</text>
<text text-anchor="middle" x="1552" y="-22.8" font-family="Times,serif" font-size="14.00">value = [37.217, 0.0]</text>
<text text-anchor="middle" x="1552" y="-7.8" font-family="Times,serif" font-size="14.00">class = Non&#45;obstructive</text>
</g>
<!-- 19&#45;&gt;21 -->
<g id="edge21" class="edge">
<title>19&#45;&gt;21</title>
<path fill="none" stroke="black" d="M1528.08,-118.87C1530.76,-110.31 1533.55,-101.39 1536.25,-92.78"/>
<polygon fill="black" stroke="black" points="1539.59,-93.82 1539.24,-83.23 1532.91,-91.73 1539.59,-93.82"/>
</g>
<!-- 23 -->
<g id="node24" class="node">
<title>23</title>
<polygon fill="none" stroke="black" points="1852,-83 1664,-83 1664,0 1852,0 1852,-83"/>
<text text-anchor="middle" x="1758" y="-67.8" font-family="Times,serif" font-size="14.00">node #23</text>
<text text-anchor="middle" x="1758" y="-52.8" font-family="Times,serif" font-size="14.00">gini = 0.0</text>
<text text-anchor="middle" x="1758" y="-37.8" font-family="Times,serif" font-size="14.00">samples = 5</text>
<text text-anchor="middle" x="1758" y="-22.8" font-family="Times,serif" font-size="14.00">value = [6.68, 0.0]</text>
<text text-anchor="middle" x="1758" y="-7.8" font-family="Times,serif" font-size="14.00">class = Non&#45;obstructive</text>
</g>
<!-- 22&#45;&gt;23 -->
<g id="edge23" class="edge">
<title>22&#45;&gt;23</title>
<path fill="none" stroke="black" d="M1758,-118.87C1758,-110.5 1758,-101.77 1758,-93.33"/>
<polygon fill="black" stroke="black" points="1761.5,-93.23 1758,-83.23 1754.5,-93.23 1761.5,-93.23"/>
</g>
<!-- 24 -->
<g id="node25" class="node">
<title>24</title>
<polygon fill="none" stroke="black" points="2055.5,-83 1870.5,-83 1870.5,0 2055.5,0 2055.5,-83"/>
<text text-anchor="middle" x="1963" y="-67.8" font-family="Times,serif" font-size="14.00">node #24</text>
<text text-anchor="middle" x="1963" y="-52.8" font-family="Times,serif" font-size="14.00">gini = 0.477</text>
<text text-anchor="middle" x="1963" y="-37.8" font-family="Times,serif" font-size="14.00">samples = 34</text>
<text text-anchor="middle" x="1963" y="-22.8" font-family="Times,serif" font-size="14.00">value = [20.994, 32.56]</text>
<text text-anchor="middle" x="1963" y="-7.8" font-family="Times,serif" font-size="14.00">class = Obstructive</text>
</g>
<!-- 22&#45;&gt;24 -->
<g id="edge24" class="edge">
<title>22&#45;&gt;24</title>
<path fill="none" stroke="black" d="M1837.26,-118.87C1853.7,-108.88 1870.99,-98.38 1887.31,-88.47"/>
<polygon fill="black" stroke="black" points="1889.53,-91.21 1896.26,-83.03 1885.9,-85.23 1889.53,-91.21"/>
</g>
</g>
</svg>
