<?xml version="1.0" encoding="UTF-8" standalone="no"?>
<!DOCTYPE svg PUBLIC "-//W3C//DTD SVG 1.1//EN"
 "http://www.w3.org/Graphics/SVG/1.1/DTD/svg11.dtd">
<!-- Generated by graphviz version 2.43.0 (0)
 -->
<!-- Title: Tree Pages: 1 -->
<svg width="1766pt" height="627pt"
 viewBox="0.00 0.00 1766.00 627.00" xmlns="http://www.w3.org/2000/svg" xmlns:xlink="http://www.w3.org/1999/xlink">
<g id="graph0" class="graph" transform="scale(1 1) rotate(0) translate(4 623)">
<title>Tree</title>
<polygon fill="white" stroke="transparent" points="-4,4 -4,-623 1762,-623 1762,4 -4,4"/>
<!-- 0 -->
<g id="node1" class="node">
<title>0</title>
<polygon fill="none" stroke="black" points="854,-619 657,-619 657,-521 854,-521 854,-619"/>
<text text-anchor="middle" x="755.5" y="-603.8" font-family="Times,serif" font-size="14.00">node #0</text>
<text text-anchor="middle" x="755.5" y="-588.8" font-family="Times,serif" font-size="14.00">FEFPostPercent &lt;= 46.5</text>
<text text-anchor="middle" x="755.5" y="-573.8" font-family="Times,serif" font-size="14.00">gini = 0.5</text>
<text text-anchor="middle" x="755.5" y="-558.8" font-family="Times,serif" font-size="14.00">samples = 197</text>
<text text-anchor="middle" x="755.5" y="-543.8" font-family="Times,serif" font-size="14.00">value = [167.0, 167.0]</text>
<text text-anchor="middle" x="755.5" y="-528.8" font-family="Times,serif" font-size="14.00">class = Non&#45;obstructive</text>
</g>
<!-- 1 -->
<g id="node2" class="node">
<title>1</title>
<polygon fill="none" stroke="black" points="676,-485 473,-485 473,-387 676,-387 676,-485"/>
<text text-anchor="middle" x="574.5" y="-469.8" font-family="Times,serif" font-size="14.00">node #1</text>
<text text-anchor="middle" x="574.5" y="-454.8" font-family="Times,serif" font-size="14.00">FVCPostVal &lt;= 1.515</text>
<text text-anchor="middle" x="574.5" y="-439.8" font-family="Times,serif" font-size="14.00">gini = 0.229</text>
<text text-anchor="middle" x="574.5" y="-424.8" font-family="Times,serif" font-size="14.00">samples = 79</text>
<text text-anchor="middle" x="574.5" y="-409.8" font-family="Times,serif" font-size="14.00">value = [17.376, 114.099]</text>
<text text-anchor="middle" x="574.5" y="-394.8" font-family="Times,serif" font-size="14.00">class = Obstructive</text>
</g>
<!-- 0&#45;&gt;1 -->
<g id="edge1" class="edge">
<title>0&#45;&gt;1</title>
<path fill="none" stroke="black" d="M689.64,-520.97C676.42,-511.33 662.43,-501.13 648.94,-491.29"/>
<polygon fill="black" stroke="black" points="650.75,-488.28 640.61,-485.21 646.63,-493.93 650.75,-488.28"/>
<text text-anchor="middle" x="644.48" y="-506.21" font-family="Times,serif" font-size="14.00">True</text>
</g>
<!-- 12 -->
<g id="node13" class="node">
<title>12</title>
<polygon fill="none" stroke="black" points="1067,-485 864,-485 864,-387 1067,-387 1067,-485"/>
<text text-anchor="middle" x="965.5" y="-469.8" font-family="Times,serif" font-size="14.00">node #12</text>
<text text-anchor="middle" x="965.5" y="-454.8" font-family="Times,serif" font-size="14.00">FVCPostVal &lt;= 3.055</text>
<text text-anchor="middle" x="965.5" y="-439.8" font-family="Times,serif" font-size="14.00">gini = 0.386</text>
<text text-anchor="middle" x="965.5" y="-424.8" font-family="Times,serif" font-size="14.00">samples = 118</text>
<text text-anchor="middle" x="965.5" y="-409.8" font-family="Times,serif" font-size="14.00">value = [149.624, 52.901]</text>
<text text-anchor="middle" x="965.5" y="-394.8" font-family="Times,serif" font-size="14.00">class = Non&#45;obstructive</text>
</g>
<!-- 0&#45;&gt;12 -->
<g id="edge12" class="edge">
<title>0&#45;&gt;12</title>
<path fill="none" stroke="black" d="M831.91,-520.97C847.54,-511.14 864.09,-500.74 880.02,-490.73"/>
<polygon fill="black" stroke="black" points="882.19,-493.5 888.8,-485.21 878.47,-487.57 882.19,-493.5"/>
<text text-anchor="middle" x="883.24" y="-505.89" font-family="Times,serif" font-size="14.00">False</text>
</g>
<!-- 2 -->
<g id="node3" class="node">
<title>2</title>
<polygon fill="none" stroke="black" points="394.5,-351 200.5,-351 200.5,-253 394.5,-253 394.5,-351"/>
<text text-anchor="middle" x="297.5" y="-335.8" font-family="Times,serif" font-size="14.00">node #2</text>
<text text-anchor="middle" x="297.5" y="-320.8" font-family="Times,serif" font-size="14.00">FEFPrePercent &lt;= 31.0</text>
<text text-anchor="middle" x="297.5" y="-305.8" font-family="Times,serif" font-size="14.00">gini = 0.494</text>
<text text-anchor="middle" x="297.5" y="-290.8" font-family="Times,serif" font-size="14.00">samples = 17</text>
<text text-anchor="middle" x="297.5" y="-275.8" font-family="Times,serif" font-size="14.00">value = [11.584, 14.522]</text>
<text text-anchor="middle" x="297.5" y="-260.8" font-family="Times,serif" font-size="14.00">class = Obstructive</text>
</g>
<!-- 1&#45;&gt;2 -->
<g id="edge2" class="edge">
<title>1&#45;&gt;2</title>
<path fill="none" stroke="black" d="M473.71,-386.97C450.91,-376.1 426.62,-364.53 403.61,-353.56"/>
<polygon fill="black" stroke="black" points="405.05,-350.37 394.51,-349.23 402.04,-356.69 405.05,-350.37"/>
</g>
<!-- 7 -->
<g id="node8" class="node">
<title>7</title>
<polygon fill="none" stroke="black" points="667,-351 482,-351 482,-253 667,-253 667,-351"/>
<text text-anchor="middle" x="574.5" y="-335.8" font-family="Times,serif" font-size="14.00">node #7</text>
<text text-anchor="middle" x="574.5" y="-320.8" font-family="Times,serif" font-size="14.00">FEV1PostVal &lt;= 1.54</text>
<text text-anchor="middle" x="574.5" y="-305.8" font-family="Times,serif" font-size="14.00">gini = 0.104</text>
<text text-anchor="middle" x="574.5" y="-290.8" font-family="Times,serif" font-size="14.00">samples = 62</text>
<text text-anchor="middle" x="574.5" y="-275.8" font-family="Times,serif" font-size="14.00">value = [5.792, 99.578]</text>
<text text-anchor="middle" x="574.5" y="-260.8" font-family="Times,serif" font-size="14.00">class = Obstructive</text>
</g>
<!-- 1&#45;&gt;7 -->
<g id="edge7" class="edge">
<title>1&#45;&gt;7</title>
<path fill="none" stroke="black" d="M574.5,-386.97C574.5,-378.69 574.5,-370 574.5,-361.48"/>
<polygon fill="black" stroke="black" points="578,-361.21 574.5,-351.21 571,-361.21 578,-361.21"/>
</g>
<!-- 3 -->
<g id="node4" class="node">
<title>3</title>
<polygon fill="none" stroke="black" points="185,-217 0,-217 0,-119 185,-119 185,-217"/>
<text text-anchor="middle" x="92.5" y="-201.8" font-family="Times,serif" font-size="14.00">node #3</text>
<text text-anchor="middle" x="92.5" y="-186.8" font-family="Times,serif" font-size="14.00">FEV1PreVal &lt;= 0.635</text>
<text text-anchor="middle" x="92.5" y="-171.8" font-family="Times,serif" font-size="14.00">gini = 0.277</text>
<text text-anchor="middle" x="92.5" y="-156.8" font-family="Times,serif" font-size="14.00">samples = 11</text>
<text text-anchor="middle" x="92.5" y="-141.8" font-family="Times,serif" font-size="14.00">value = [2.896, 14.522]</text>
<text text-anchor="middle" x="92.5" y="-126.8" font-family="Times,serif" font-size="14.00">class = Obstructive</text>
</g>
<!-- 2&#45;&gt;3 -->
<g id="edge3" class="edge">
<title>2&#45;&gt;3</title>
<path fill="none" stroke="black" d="M222.91,-252.97C207.65,-243.14 191.49,-232.74 175.94,-222.73"/>
<polygon fill="black" stroke="black" points="177.68,-219.68 167.38,-217.21 173.89,-225.57 177.68,-219.68"/>
</g>
<!-- 6 -->
<g id="node7" class="node">
<title>6</title>
<polygon fill="none" stroke="black" points="391.5,-209.5 203.5,-209.5 203.5,-126.5 391.5,-126.5 391.5,-209.5"/>
<text text-anchor="middle" x="297.5" y="-194.3" font-family="Times,serif" font-size="14.00">node #6</text>
<text text-anchor="middle" x="297.5" y="-179.3" font-family="Times,serif" font-size="14.00">gini = &#45;0.0</text>
<text text-anchor="middle" x="297.5" y="-164.3" font-family="Times,serif" font-size="14.00">samples = 6</text>
<text text-anchor="middle" x="297.5" y="-149.3" font-family="Times,serif" font-size="14.00">value = [8.688, 0.0]</text>
<text text-anchor="middle" x="297.5" y="-134.3" font-family="Times,serif" font-size="14.00">class = Non&#45;obstructive</text>
</g>
<!-- 2&#45;&gt;6 -->
<g id="edge6" class="edge">
<title>2&#45;&gt;6</title>
<path fill="none" stroke="black" d="M297.5,-252.97C297.5,-242.25 297.5,-230.84 297.5,-219.99"/>
<polygon fill="black" stroke="black" points="301,-219.82 297.5,-209.82 294,-219.82 301,-219.82"/>
</g>
<!-- 4 -->
<g id="node5" class="node">
<title>4</title>
<polygon fill="none" stroke="black" points="169.5,-83 11.5,-83 11.5,0 169.5,0 169.5,-83"/>
<text text-anchor="middle" x="90.5" y="-67.8" font-family="Times,serif" font-size="14.00">node #4</text>
<text text-anchor="middle" x="90.5" y="-52.8" font-family="Times,serif" font-size="14.00">gini = 0.0</text>
<text text-anchor="middle" x="90.5" y="-37.8" font-family="Times,serif" font-size="14.00">samples = 4</text>
<text text-anchor="middle" x="90.5" y="-22.8" font-family="Times,serif" font-size="14.00">value = [0.0, 9.335]</text>
<text text-anchor="middle" x="90.5" y="-7.8" font-family="Times,serif" font-size="14.00">class = Obstructive</text>
</g>
<!-- 3&#45;&gt;4 -->
<g id="edge4" class="edge">
<title>3&#45;&gt;4</title>
<path fill="none" stroke="black" d="M91.73,-118.87C91.59,-110.5 91.45,-101.77 91.32,-93.33"/>
<polygon fill="black" stroke="black" points="94.81,-93.17 91.15,-83.23 87.82,-93.29 94.81,-93.17"/>
</g>
<!-- 5 -->
<g id="node6" class="node">
<title>5</title>
<polygon fill="none" stroke="black" points="363.5,-83 187.5,-83 187.5,0 363.5,0 363.5,-83"/>
<text text-anchor="middle" x="275.5" y="-67.8" font-family="Times,serif" font-size="14.00">node #5</text>
<text text-anchor="middle" x="275.5" y="-52.8" font-family="Times,serif" font-size="14.00">gini = 0.46</text>
<text text-anchor="middle" x="275.5" y="-37.8" font-family="Times,serif" font-size="14.00">samples = 7</text>
<text text-anchor="middle" x="275.5" y="-22.8" font-family="Times,serif" font-size="14.00">value = [2.896, 5.186]</text>
<text text-anchor="middle" x="275.5" y="-7.8" font-family="Times,serif" font-size="14.00">class = Obstructive</text>
</g>
<!-- 3&#45;&gt;5 -->
<g id="edge5" class="edge">
<title>3&#45;&gt;5</title>
<path fill="none" stroke="black" d="M163.25,-118.87C177.8,-108.97 193.08,-98.57 207.53,-88.74"/>
<polygon fill="black" stroke="black" points="209.62,-91.55 215.92,-83.03 205.69,-85.76 209.62,-91.55"/>
</g>
<!-- 8 -->
<g id="node9" class="node">
<title>8</title>
<polygon fill="none" stroke="black" points="567.5,-209.5 409.5,-209.5 409.5,-126.5 567.5,-126.5 567.5,-209.5"/>
<text text-anchor="middle" x="488.5" y="-194.3" font-family="Times,serif" font-size="14.00">node #8</text>
<text text-anchor="middle" x="488.5" y="-179.3" font-family="Times,serif" font-size="14.00">gini = &#45;0.0</text>
<text text-anchor="middle" x="488.5" y="-164.3" font-family="Times,serif" font-size="14.00">samples = 40</text>
<text text-anchor="middle" x="488.5" y="-149.3" font-family="Times,serif" font-size="14.00">value = [0.0, 68.46]</text>
<text text-anchor="middle" x="488.5" y="-134.3" font-family="Times,serif" font-size="14.00">class = Obstructive</text>
</g>
<!-- 7&#45;&gt;8 -->
<g id="edge8" class="edge">
<title>7&#45;&gt;8</title>
<path fill="none" stroke="black" d="M543.21,-252.97C535.86,-241.69 528.02,-229.66 520.63,-218.32"/>
<polygon fill="black" stroke="black" points="523.48,-216.28 515.09,-209.82 517.62,-220.11 523.48,-216.28"/>
</g>
<!-- 9 -->
<g id="node10" class="node">
<title>9</title>
<polygon fill="none" stroke="black" points="770,-217 585,-217 585,-119 770,-119 770,-217"/>
<text text-anchor="middle" x="677.5" y="-201.8" font-family="Times,serif" font-size="14.00">node #9</text>
<text text-anchor="middle" x="677.5" y="-186.8" font-family="Times,serif" font-size="14.00">FEV1PostVal &lt;= 1.64</text>
<text text-anchor="middle" x="677.5" y="-171.8" font-family="Times,serif" font-size="14.00">gini = 0.265</text>
<text text-anchor="middle" x="677.5" y="-156.8" font-family="Times,serif" font-size="14.00">samples = 22</text>
<text text-anchor="middle" x="677.5" y="-141.8" font-family="Times,serif" font-size="14.00">value = [5.792, 31.118]</text>
<text text-anchor="middle" x="677.5" y="-126.8" font-family="Times,serif" font-size="14.00">class = Obstructive</text>
</g>
<!-- 7&#45;&gt;9 -->
<g id="edge9" class="edge">
<title>7&#45;&gt;9</title>
<path fill="none" stroke="black" d="M611.98,-252.97C619.01,-243.96 626.41,-234.47 633.62,-225.24"/>
<polygon fill="black" stroke="black" points="636.49,-227.25 639.88,-217.21 630.97,-222.94 636.49,-227.25"/>
</g>
<!-- 10 -->
<g id="node11" class="node">
<title>10</title>
<polygon fill="none" stroke="black" points="658.5,-83 470.5,-83 470.5,0 658.5,0 658.5,-83"/>
<text text-anchor="middle" x="564.5" y="-67.8" font-family="Times,serif" font-size="14.00">node #10</text>
<text text-anchor="middle" x="564.5" y="-52.8" font-family="Times,serif" font-size="14.00">gini = 0.0</text>
<text text-anchor="middle" x="564.5" y="-37.8" font-family="Times,serif" font-size="14.00">samples = 3</text>
<text text-anchor="middle" x="564.5" y="-22.8" font-family="Times,serif" font-size="14.00">value = [2.896, 0.0]</text>
<text text-anchor="middle" x="564.5" y="-7.8" font-family="Times,serif" font-size="14.00">class = Non&#45;obstructive</text>
</g>
<!-- 9&#45;&gt;10 -->
<g id="edge10" class="edge">
<title>9&#45;&gt;10</title>
<path fill="none" stroke="black" d="M633.81,-118.87C625.47,-109.67 616.73,-100.04 608.38,-90.84"/>
<polygon fill="black" stroke="black" points="610.78,-88.28 601.47,-83.23 605.6,-92.99 610.78,-88.28"/>
</g>
<!-- 11 -->
<g id="node12" class="node">
<title>11</title>
<polygon fill="none" stroke="black" points="862,-83 677,-83 677,0 862,0 862,-83"/>
<text text-anchor="middle" x="769.5" y="-67.8" font-family="Times,serif" font-size="14.00">node #11</text>
<text text-anchor="middle" x="769.5" y="-52.8" font-family="Times,serif" font-size="14.00">gini = 0.156</text>
<text text-anchor="middle" x="769.5" y="-37.8" font-family="Times,serif" font-size="14.00">samples = 19</text>
<text text-anchor="middle" x="769.5" y="-22.8" font-family="Times,serif" font-size="14.00">value = [2.896, 31.118]</text>
<text text-anchor="middle" x="769.5" y="-7.8" font-family="Times,serif" font-size="14.00">class = Obstructive</text>
</g>
<!-- 9&#45;&gt;11 -->
<g id="edge11" class="edge">
<title>9&#45;&gt;11</title>
<path fill="none" stroke="black" d="M713.07,-118.87C719.73,-109.85 726.69,-100.43 733.37,-91.39"/>
<polygon fill="black" stroke="black" points="736.27,-93.35 739.4,-83.23 730.64,-89.19 736.27,-93.35"/>
</g>
<!-- 13 -->
<g id="node14" class="node">
<title>13</title>
<polygon fill="none" stroke="black" points="1067,-351 864,-351 864,-253 1067,-253 1067,-351"/>
<text text-anchor="middle" x="965.5" y="-335.8" font-family="Times,serif" font-size="14.00">node #13</text>
<text text-anchor="middle" x="965.5" y="-320.8" font-family="Times,serif" font-size="14.00">FEFPreVal &lt;= 0.915</text>
<text text-anchor="middle" x="965.5" y="-305.8" font-family="Times,serif" font-size="14.00">gini = 0.303</text>
<text text-anchor="middle" x="965.5" y="-290.8" font-family="Times,serif" font-size="14.00">samples = 101</text>
<text text-anchor="middle" x="965.5" y="-275.8" font-family="Times,serif" font-size="14.00">value = [140.936, 32.155]</text>
<text text-anchor="middle" x="965.5" y="-260.8" font-family="Times,serif" font-size="14.00">class = Non&#45;obstructive</text>
</g>
<!-- 12&#45;&gt;13 -->
<g id="edge13" class="edge">
<title>12&#45;&gt;13</title>
<path fill="none" stroke="black" d="M965.5,-386.97C965.5,-378.69 965.5,-370 965.5,-361.48"/>
<polygon fill="black" stroke="black" points="969,-361.21 965.5,-351.21 962,-361.21 969,-361.21"/>
</g>
<!-- 18 -->
<g id="node19" class="node">
<title>18</title>
<polygon fill="none" stroke="black" points="1371,-351 1186,-351 1186,-253 1371,-253 1371,-351"/>
<text text-anchor="middle" x="1278.5" y="-335.8" font-family="Times,serif" font-size="14.00">node #18</text>
<text text-anchor="middle" x="1278.5" y="-320.8" font-family="Times,serif" font-size="14.00">FEFPreVal &lt;= 1.29</text>
<text text-anchor="middle" x="1278.5" y="-305.8" font-family="Times,serif" font-size="14.00">gini = 0.416</text>
<text text-anchor="middle" x="1278.5" y="-290.8" font-family="Times,serif" font-size="14.00">samples = 17</text>
<text text-anchor="middle" x="1278.5" y="-275.8" font-family="Times,serif" font-size="14.00">value = [8.688, 20.745]</text>
<text text-anchor="middle" x="1278.5" y="-260.8" font-family="Times,serif" font-size="14.00">class = Obstructive</text>
</g>
<!-- 12&#45;&gt;18 -->
<g id="edge18" class="edge">
<title>12&#45;&gt;18</title>
<path fill="none" stroke="black" d="M1067.12,-392.14C1102.19,-377.36 1141.46,-360.79 1176.56,-345.99"/>
<polygon fill="black" stroke="black" points="1178,-349.18 1185.86,-342.07 1175.28,-342.73 1178,-349.18"/>
</g>
<!-- 14 -->
<g id="node15" class="node">
<title>14</title>
<polygon fill="none" stroke="black" points="945.5,-209.5 787.5,-209.5 787.5,-126.5 945.5,-126.5 945.5,-209.5"/>
<text text-anchor="middle" x="866.5" y="-194.3" font-family="Times,serif" font-size="14.00">node #14</text>
<text text-anchor="middle" x="866.5" y="-179.3" font-family="Times,serif" font-size="14.00">gini = 0.0</text>
<text text-anchor="middle" x="866.5" y="-164.3" font-family="Times,serif" font-size="14.00">samples = 3</text>
<text text-anchor="middle" x="866.5" y="-149.3" font-family="Times,serif" font-size="14.00">value = [0.0, 7.261]</text>
<text text-anchor="middle" x="866.5" y="-134.3" font-family="Times,serif" font-size="14.00">class = Obstructive</text>
</g>
<!-- 13&#45;&gt;14 -->
<g id="edge14" class="edge">
<title>13&#45;&gt;14</title>
<path fill="none" stroke="black" d="M929.48,-252.97C920.94,-241.58 911.82,-229.42 903.24,-217.99"/>
<polygon fill="black" stroke="black" points="905.91,-215.72 897.11,-209.82 900.31,-219.92 905.91,-215.72"/>
</g>
<!-- 15 -->
<g id="node16" class="node">
<title>15</title>
<polygon fill="none" stroke="black" points="1166,-217 963,-217 963,-119 1166,-119 1166,-217"/>
<text text-anchor="middle" x="1064.5" y="-201.8" font-family="Times,serif" font-size="14.00">node #15</text>
<text text-anchor="middle" x="1064.5" y="-186.8" font-family="Times,serif" font-size="14.00">FVCPostPercent &lt;= 63.5</text>
<text text-anchor="middle" x="1064.5" y="-171.8" font-family="Times,serif" font-size="14.00">gini = 0.255</text>
<text text-anchor="middle" x="1064.5" y="-156.8" font-family="Times,serif" font-size="14.00">samples = 98</text>
<text text-anchor="middle" x="1064.5" y="-141.8" font-family="Times,serif" font-size="14.00">value = [140.936, 24.894]</text>
<text text-anchor="middle" x="1064.5" y="-126.8" font-family="Times,serif" font-size="14.00">class = Non&#45;obstructive</text>
</g>
<!-- 13&#45;&gt;15 -->
<g id="edge15" class="edge">
<title>13&#45;&gt;15</title>
<path fill="none" stroke="black" d="M1001.52,-252.97C1008.28,-243.96 1015.4,-234.47 1022.32,-225.24"/>
<polygon fill="black" stroke="black" points="1025.14,-227.31 1028.34,-217.21 1019.54,-223.11 1025.14,-227.31"/>
</g>
<!-- 16 -->
<g id="node17" class="node">
<title>16</title>
<polygon fill="none" stroke="black" points="1113.5,-83 925.5,-83 925.5,0 1113.5,0 1113.5,-83"/>
<text text-anchor="middle" x="1019.5" y="-67.8" font-family="Times,serif" font-size="14.00">node #16</text>
<text text-anchor="middle" x="1019.5" y="-52.8" font-family="Times,serif" font-size="14.00">gini = 0.052</text>
<text text-anchor="middle" x="1019.5" y="-37.8" font-family="Times,serif" font-size="14.00">samples = 49</text>
<text text-anchor="middle" x="1019.5" y="-22.8" font-family="Times,serif" font-size="14.00">value = [76.26, 2.075]</text>
<text text-anchor="middle" x="1019.5" y="-7.8" font-family="Times,serif" font-size="14.00">class = Non&#45;obstructive</text>
</g>
<!-- 15&#45;&gt;16 -->
<g id="edge16" class="edge">
<title>15&#45;&gt;16</title>
<path fill="none" stroke="black" d="M1047.1,-118.87C1044.01,-110.31 1040.78,-101.39 1037.67,-92.78"/>
<polygon fill="black" stroke="black" points="1040.91,-91.45 1034.22,-83.23 1034.33,-93.83 1040.91,-91.45"/>
</g>
<!-- 17 -->
<g id="node18" class="node">
<title>17</title>
<polygon fill="none" stroke="black" points="1319.5,-83 1131.5,-83 1131.5,0 1319.5,0 1319.5,-83"/>
<text text-anchor="middle" x="1225.5" y="-67.8" font-family="Times,serif" font-size="14.00">node #17</text>
<text text-anchor="middle" x="1225.5" y="-52.8" font-family="Times,serif" font-size="14.00">gini = 0.386</text>
<text text-anchor="middle" x="1225.5" y="-37.8" font-family="Times,serif" font-size="14.00">samples = 49</text>
<text text-anchor="middle" x="1225.5" y="-22.8" font-family="Times,serif" font-size="14.00">value = [64.676, 22.82]</text>
<text text-anchor="middle" x="1225.5" y="-7.8" font-family="Times,serif" font-size="14.00">class = Non&#45;obstructive</text>
</g>
<!-- 15&#45;&gt;17 -->
<g id="edge17" class="edge">
<title>15&#45;&gt;17</title>
<path fill="none" stroke="black" d="M1126.75,-118.87C1139.3,-109.15 1152.49,-98.96 1164.98,-89.3"/>
<polygon fill="black" stroke="black" points="1167.31,-91.92 1173.08,-83.03 1163.03,-86.38 1167.31,-91.92"/>
</g>
<!-- 19 -->
<g id="node20" class="node">
<title>19</title>
<polygon fill="none" stroke="black" points="1372.5,-209.5 1184.5,-209.5 1184.5,-126.5 1372.5,-126.5 1372.5,-209.5"/>
<text text-anchor="middle" x="1278.5" y="-194.3" font-family="Times,serif" font-size="14.00">node #19</text>
<text text-anchor="middle" x="1278.5" y="-179.3" font-family="Times,serif" font-size="14.00">gini = 0.0</text>
<text text-anchor="middle" x="1278.5" y="-164.3" font-family="Times,serif" font-size="14.00">samples = 1</text>
<text text-anchor="middle" x="1278.5" y="-149.3" font-family="Times,serif" font-size="14.00">value = [1.931, 0.0]</text>
<text text-anchor="middle" x="1278.5" y="-134.3" font-family="Times,serif" font-size="14.00">class = Non&#45;obstructive</text>
</g>
<!-- 18&#45;&gt;19 -->
<g id="edge19" class="edge">
<title>18&#45;&gt;19</title>
<path fill="none" stroke="black" d="M1278.5,-252.97C1278.5,-242.25 1278.5,-230.84 1278.5,-219.99"/>
<polygon fill="black" stroke="black" points="1282,-219.82 1278.5,-209.82 1275,-219.82 1282,-219.82"/>
</g>
<!-- 20 -->
<g id="node21" class="node">
<title>20</title>
<polygon fill="none" stroke="black" points="1588,-217 1391,-217 1391,-119 1588,-119 1588,-217"/>
<text text-anchor="middle" x="1489.5" y="-201.8" font-family="Times,serif" font-size="14.00">node #20</text>
<text text-anchor="middle" x="1489.5" y="-186.8" font-family="Times,serif" font-size="14.00">FVCPostPercent &lt;= 73.5</text>
<text text-anchor="middle" x="1489.5" y="-171.8" font-family="Times,serif" font-size="14.00">gini = 0.371</text>
<text text-anchor="middle" x="1489.5" y="-156.8" font-family="Times,serif" font-size="14.00">samples = 16</text>
<text text-anchor="middle" x="1489.5" y="-141.8" font-family="Times,serif" font-size="14.00">value = [6.757, 20.745]</text>
<text text-anchor="middle" x="1489.5" y="-126.8" font-family="Times,serif" font-size="14.00">class = Obstructive</text>
</g>
<!-- 18&#45;&gt;20 -->
<g id="edge20" class="edge">
<title>18&#45;&gt;20</title>
<path fill="none" stroke="black" d="M1355.27,-252.97C1370.98,-243.14 1387.61,-232.74 1403.61,-222.73"/>
<polygon fill="black" stroke="black" points="1405.81,-225.48 1412.43,-217.21 1402.1,-219.55 1405.81,-225.48"/>
</g>
<!-- 21 -->
<g id="node22" class="node">
<title>21</title>
<polygon fill="none" stroke="black" points="1554.5,-83 1366.5,-83 1366.5,0 1554.5,0 1554.5,-83"/>
<text text-anchor="middle" x="1460.5" y="-67.8" font-family="Times,serif" font-size="14.00">node #21</text>
<text text-anchor="middle" x="1460.5" y="-52.8" font-family="Times,serif" font-size="14.00">gini = 0.0</text>
<text text-anchor="middle" x="1460.5" y="-37.8" font-family="Times,serif" font-size="14.00">samples = 3</text>
<text text-anchor="middle" x="1460.5" y="-22.8" font-family="Times,serif" font-size="14.00">value = [3.861, 0.0]</text>
<text text-anchor="middle" x="1460.5" y="-7.8" font-family="Times,serif" font-size="14.00">class = Non&#45;obstructive</text>
</g>
<!-- 20&#45;&gt;21 -->
<g id="edge21" class="edge">
<title>20&#45;&gt;21</title>
<path fill="none" stroke="black" d="M1478.29,-118.87C1476.32,-110.41 1474.26,-101.58 1472.28,-93.06"/>
<polygon fill="black" stroke="black" points="1475.66,-92.18 1469.99,-83.23 1468.85,-93.76 1475.66,-92.18"/>
</g>
<!-- 22 -->
<g id="node23" class="node">
<title>22</title>
<polygon fill="none" stroke="black" points="1758,-83 1573,-83 1573,0 1758,0 1758,-83"/>
<text text-anchor="middle" x="1665.5" y="-67.8" font-family="Times,serif" font-size="14.00">node #22</text>
<text text-anchor="middle" x="1665.5" y="-52.8" font-family="Times,serif" font-size="14.00">gini = 0.215</text>
<text text-anchor="middle" x="1665.5" y="-37.8" font-family="Times,serif" font-size="14.00">samples = 13</text>
<text text-anchor="middle" x="1665.5" y="-22.8" font-family="Times,serif" font-size="14.00">value = [2.896, 20.745]</text>
<text text-anchor="middle" x="1665.5" y="-7.8" font-family="Times,serif" font-size="14.00">class = Obstructive</text>
</g>
<!-- 20&#45;&gt;22 -->
<g id="edge22" class="edge">
<title>20&#45;&gt;22</title>
<path fill="none" stroke="black" d="M1557.55,-118.87C1571.4,-109.06 1585.96,-98.77 1599.74,-89.02"/>
<polygon fill="black" stroke="black" points="1602.06,-91.66 1608.2,-83.03 1598.02,-85.95 1602.06,-91.66"/>
</g>
</g>
</svg>
