<?xml version="1.0" encoding="UTF-8" standalone="no"?>
<!DOCTYPE svg PUBLIC "-//W3C//DTD SVG 1.1//EN"
 "http://www.w3.org/Graphics/SVG/1.1/DTD/svg11.dtd">
<!-- Generated by graphviz version 2.43.0 (0)
 -->
<!-- Title: Tree Pages: 1 -->
<svg width="1587pt" height="627pt"
 viewBox="0.00 0.00 1587.00 627.00" xmlns="http://www.w3.org/2000/svg" xmlns:xlink="http://www.w3.org/1999/xlink">
<g id="graph0" class="graph" transform="scale(1 1) rotate(0) translate(4 623)">
<title>Tree</title>
<polygon fill="white" stroke="transparent" points="-4,4 -4,-623 1583,-623 1583,4 -4,4"/>
<!-- 0 -->
<g id="node1" class="node">
<title>0</title>
<polygon fill="none" stroke="black" points="560,-619 360,-619 360,-521 560,-521 560,-619"/>
<text text-anchor="middle" x="460" y="-603.8" font-family="Times,serif" font-size="14.00">node #0</text>
<text text-anchor="middle" x="460" y="-588.8" font-family="Times,serif" font-size="14.00">FEV1PrePercent &lt;= 32.5</text>
<text text-anchor="middle" x="460" y="-573.8" font-family="Times,serif" font-size="14.00">gini = 0.5</text>
<text text-anchor="middle" x="460" y="-558.8" font-family="Times,serif" font-size="14.00">samples = 206</text>
<text text-anchor="middle" x="460" y="-543.8" font-family="Times,serif" font-size="14.00">value = [167.0, 167.0]</text>
<text text-anchor="middle" x="460" y="-528.8" font-family="Times,serif" font-size="14.00">class = Non&#45;obstructive</text>
</g>
<!-- 1 -->
<g id="node2" class="node">
<title>1</title>
<polygon fill="none" stroke="black" points="447.5,-485 250.5,-485 250.5,-387 447.5,-387 447.5,-485"/>
<text text-anchor="middle" x="349" y="-469.8" font-family="Times,serif" font-size="14.00">node #1</text>
<text text-anchor="middle" x="349" y="-454.8" font-family="Times,serif" font-size="14.00">FVCPostPercent &lt;= 25.5</text>
<text text-anchor="middle" x="349" y="-439.8" font-family="Times,serif" font-size="14.00">gini = 0.087</text>
<text text-anchor="middle" x="349" y="-424.8" font-family="Times,serif" font-size="14.00">samples = 26</text>
<text text-anchor="middle" x="349" y="-409.8" font-family="Times,serif" font-size="14.00">value = [1.931, 40.453]</text>
<text text-anchor="middle" x="349" y="-394.8" font-family="Times,serif" font-size="14.00">class = Obstructive</text>
</g>
<!-- 0&#45;&gt;1 -->
<g id="edge1" class="edge">
<title>0&#45;&gt;1</title>
<path fill="none" stroke="black" d="M419.61,-520.97C411.96,-511.87 403.89,-502.28 396.06,-492.96"/>
<polygon fill="black" stroke="black" points="398.66,-490.61 389.54,-485.21 393.3,-495.12 398.66,-490.61"/>
<text text-anchor="middle" x="387.39" y="-506.42" font-family="Times,serif" font-size="14.00">True</text>
</g>
<!-- 4 -->
<g id="node5" class="node">
<title>4</title>
<polygon fill="none" stroke="black" points="678,-485 466,-485 466,-387 678,-387 678,-485"/>
<text text-anchor="middle" x="572" y="-469.8" font-family="Times,serif" font-size="14.00">node #4</text>
<text text-anchor="middle" x="572" y="-454.8" font-family="Times,serif" font-size="14.00">FEFPrePercent &lt;= 42.5</text>
<text text-anchor="middle" x="572" y="-439.8" font-family="Times,serif" font-size="14.00">gini = 0.491</text>
<text text-anchor="middle" x="572" y="-424.8" font-family="Times,serif" font-size="14.00">samples = 180</text>
<text text-anchor="middle" x="572" y="-409.8" font-family="Times,serif" font-size="14.00">value = [165.069, 126.547]</text>
<text text-anchor="middle" x="572" y="-394.8" font-family="Times,serif" font-size="14.00">class = Non&#45;obstructive</text>
</g>
<!-- 0&#45;&gt;4 -->
<g id="edge4" class="edge">
<title>0&#45;&gt;4</title>
<path fill="none" stroke="black" d="M500.75,-520.97C508.47,-511.87 516.61,-502.28 524.52,-492.96"/>
<polygon fill="black" stroke="black" points="527.29,-495.1 531.09,-485.21 521.95,-490.57 527.29,-495.1"/>
<text text-anchor="middle" x="533.13" y="-506.43" font-family="Times,serif" font-size="14.00">False</text>
</g>
<!-- 2 -->
<g id="node3" class="node">
<title>2</title>
<polygon fill="none" stroke="black" points="253,-343.5 65,-343.5 65,-260.5 253,-260.5 253,-343.5"/>
<text text-anchor="middle" x="159" y="-328.3" font-family="Times,serif" font-size="14.00">node #2</text>
<text text-anchor="middle" x="159" y="-313.3" font-family="Times,serif" font-size="14.00">gini = 0.0</text>
<text text-anchor="middle" x="159" y="-298.3" font-family="Times,serif" font-size="14.00">samples = 2</text>
<text text-anchor="middle" x="159" y="-283.3" font-family="Times,serif" font-size="14.00">value = [1.931, 0.0]</text>
<text text-anchor="middle" x="159" y="-268.3" font-family="Times,serif" font-size="14.00">class = Non&#45;obstructive</text>
</g>
<!-- 1&#45;&gt;2 -->
<g id="edge2" class="edge">
<title>1&#45;&gt;2</title>
<path fill="none" stroke="black" d="M279.87,-386.97C262.27,-374.75 243.39,-361.63 225.9,-349.48"/>
<polygon fill="black" stroke="black" points="227.65,-346.43 217.44,-343.6 223.66,-352.18 227.65,-346.43"/>
</g>
<!-- 3 -->
<g id="node4" class="node">
<title>3</title>
<polygon fill="none" stroke="black" points="438.5,-343.5 271.5,-343.5 271.5,-260.5 438.5,-260.5 438.5,-343.5"/>
<text text-anchor="middle" x="355" y="-328.3" font-family="Times,serif" font-size="14.00">node #3</text>
<text text-anchor="middle" x="355" y="-313.3" font-family="Times,serif" font-size="14.00">gini = &#45;0.0</text>
<text text-anchor="middle" x="355" y="-298.3" font-family="Times,serif" font-size="14.00">samples = 24</text>
<text text-anchor="middle" x="355" y="-283.3" font-family="Times,serif" font-size="14.00">value = [0.0, 40.453]</text>
<text text-anchor="middle" x="355" y="-268.3" font-family="Times,serif" font-size="14.00">class = Obstructive</text>
</g>
<!-- 1&#45;&gt;3 -->
<g id="edge3" class="edge">
<title>1&#45;&gt;3</title>
<path fill="none" stroke="black" d="M351.18,-386.97C351.67,-376.25 352.19,-364.84 352.68,-353.99"/>
<polygon fill="black" stroke="black" points="356.19,-353.97 353.14,-343.82 349.19,-353.65 356.19,-353.97"/>
</g>
<!-- 5 -->
<g id="node6" class="node">
<title>5</title>
<polygon fill="none" stroke="black" points="664.5,-351 467.5,-351 467.5,-253 664.5,-253 664.5,-351"/>
<text text-anchor="middle" x="566" y="-335.8" font-family="Times,serif" font-size="14.00">node #5</text>
<text text-anchor="middle" x="566" y="-320.8" font-family="Times,serif" font-size="14.00">FVCPostPercent &lt;= 60.5</text>
<text text-anchor="middle" x="566" y="-305.8" font-family="Times,serif" font-size="14.00">gini = 0.267</text>
<text text-anchor="middle" x="566" y="-290.8" font-family="Times,serif" font-size="14.00">samples = 56</text>
<text text-anchor="middle" x="566" y="-275.8" font-family="Times,serif" font-size="14.00">value = [14.48, 76.758]</text>
<text text-anchor="middle" x="566" y="-260.8" font-family="Times,serif" font-size="14.00">class = Obstructive</text>
</g>
<!-- 4&#45;&gt;5 -->
<g id="edge5" class="edge">
<title>4&#45;&gt;5</title>
<path fill="none" stroke="black" d="M569.82,-386.97C569.44,-378.69 569.05,-370 568.66,-361.48"/>
<polygon fill="black" stroke="black" points="572.14,-361.04 568.19,-351.21 565.15,-361.36 572.14,-361.04"/>
</g>
<!-- 12 -->
<g id="node13" class="node">
<title>12</title>
<polygon fill="none" stroke="black" points="1074.5,-351 877.5,-351 877.5,-253 1074.5,-253 1074.5,-351"/>
<text text-anchor="middle" x="976" y="-335.8" font-family="Times,serif" font-size="14.00">node #12</text>
<text text-anchor="middle" x="976" y="-320.8" font-family="Times,serif" font-size="14.00">FVCPostPercent &lt;= 61.5</text>
<text text-anchor="middle" x="976" y="-305.8" font-family="Times,serif" font-size="14.00">gini = 0.373</text>
<text text-anchor="middle" x="976" y="-290.8" font-family="Times,serif" font-size="14.00">samples = 124</text>
<text text-anchor="middle" x="976" y="-275.8" font-family="Times,serif" font-size="14.00">value = [150.59, 49.789]</text>
<text text-anchor="middle" x="976" y="-260.8" font-family="Times,serif" font-size="14.00">class = Non&#45;obstructive</text>
</g>
<!-- 4&#45;&gt;12 -->
<g id="edge12" class="edge">
<title>4&#45;&gt;12</title>
<path fill="none" stroke="black" d="M678.15,-400.32C736.61,-381.22 809.02,-357.56 867.81,-338.35"/>
<polygon fill="black" stroke="black" points="869.08,-341.62 877.49,-335.19 866.9,-334.96 869.08,-341.62"/>
</g>
<!-- 6 -->
<g id="node7" class="node">
<title>6</title>
<polygon fill="none" stroke="black" points="364,-217 176,-217 176,-119 364,-119 364,-217"/>
<text text-anchor="middle" x="270" y="-201.8" font-family="Times,serif" font-size="14.00">node #6</text>
<text text-anchor="middle" x="270" y="-186.8" font-family="Times,serif" font-size="14.00">FEFPreVal &lt;= 0.665</text>
<text text-anchor="middle" x="270" y="-171.8" font-family="Times,serif" font-size="14.00">gini = 0.494</text>
<text text-anchor="middle" x="270" y="-156.8" font-family="Times,serif" font-size="14.00">samples = 13</text>
<text text-anchor="middle" x="270" y="-141.8" font-family="Times,serif" font-size="14.00">value = [11.584, 9.335]</text>
<text text-anchor="middle" x="270" y="-126.8" font-family="Times,serif" font-size="14.00">class = Non&#45;obstructive</text>
</g>
<!-- 5&#45;&gt;6 -->
<g id="edge6" class="edge">
<title>5&#45;&gt;6</title>
<path fill="none" stroke="black" d="M467.44,-257.05C437.26,-243.59 403.98,-228.75 373.49,-215.15"/>
<polygon fill="black" stroke="black" points="374.68,-211.85 364.12,-210.97 371.83,-218.24 374.68,-211.85"/>
</g>
<!-- 9 -->
<g id="node10" class="node">
<title>9</title>
<polygon fill="none" stroke="black" points="658.5,-217 473.5,-217 473.5,-119 658.5,-119 658.5,-217"/>
<text text-anchor="middle" x="566" y="-201.8" font-family="Times,serif" font-size="14.00">node #9</text>
<text text-anchor="middle" x="566" y="-186.8" font-family="Times,serif" font-size="14.00">FEV1PreVal &lt;= 2.255</text>
<text text-anchor="middle" x="566" y="-171.8" font-family="Times,serif" font-size="14.00">gini = 0.079</text>
<text text-anchor="middle" x="566" y="-156.8" font-family="Times,serif" font-size="14.00">samples = 43</text>
<text text-anchor="middle" x="566" y="-141.8" font-family="Times,serif" font-size="14.00">value = [2.896, 67.422]</text>
<text text-anchor="middle" x="566" y="-126.8" font-family="Times,serif" font-size="14.00">class = Obstructive</text>
</g>
<!-- 5&#45;&gt;9 -->
<g id="edge9" class="edge">
<title>5&#45;&gt;9</title>
<path fill="none" stroke="black" d="M566,-252.97C566,-244.69 566,-236 566,-227.48"/>
<polygon fill="black" stroke="black" points="569.5,-227.21 566,-217.21 562.5,-227.21 569.5,-227.21"/>
</g>
<!-- 7 -->
<g id="node8" class="node">
<title>7</title>
<polygon fill="none" stroke="black" points="158,-83 0,-83 0,0 158,0 158,-83"/>
<text text-anchor="middle" x="79" y="-67.8" font-family="Times,serif" font-size="14.00">node #7</text>
<text text-anchor="middle" x="79" y="-52.8" font-family="Times,serif" font-size="14.00">gini = 0.0</text>
<text text-anchor="middle" x="79" y="-37.8" font-family="Times,serif" font-size="14.00">samples = 5</text>
<text text-anchor="middle" x="79" y="-22.8" font-family="Times,serif" font-size="14.00">value = [0.0, 8.298]</text>
<text text-anchor="middle" x="79" y="-7.8" font-family="Times,serif" font-size="14.00">class = Obstructive</text>
</g>
<!-- 6&#45;&gt;7 -->
<g id="edge7" class="edge">
<title>6&#45;&gt;7</title>
<path fill="none" stroke="black" d="M196.15,-118.87C180.97,-108.97 165.02,-98.57 149.95,-88.74"/>
<polygon fill="black" stroke="black" points="151.47,-85.56 141.18,-83.03 147.65,-91.43 151.47,-85.56"/>
</g>
<!-- 8 -->
<g id="node9" class="node">
<title>8</title>
<polygon fill="none" stroke="black" points="364,-83 176,-83 176,0 364,0 364,-83"/>
<text text-anchor="middle" x="270" y="-67.8" font-family="Times,serif" font-size="14.00">node #8</text>
<text text-anchor="middle" x="270" y="-52.8" font-family="Times,serif" font-size="14.00">gini = 0.151</text>
<text text-anchor="middle" x="270" y="-37.8" font-family="Times,serif" font-size="14.00">samples = 8</text>
<text text-anchor="middle" x="270" y="-22.8" font-family="Times,serif" font-size="14.00">value = [11.584, 1.037]</text>
<text text-anchor="middle" x="270" y="-7.8" font-family="Times,serif" font-size="14.00">class = Non&#45;obstructive</text>
</g>
<!-- 6&#45;&gt;8 -->
<g id="edge8" class="edge">
<title>6&#45;&gt;8</title>
<path fill="none" stroke="black" d="M270,-118.87C270,-110.5 270,-101.77 270,-93.33"/>
<polygon fill="black" stroke="black" points="273.5,-93.23 270,-83.23 266.5,-93.23 273.5,-93.23"/>
</g>
<!-- 10 -->
<g id="node11" class="node">
<title>10</title>
<polygon fill="none" stroke="black" points="567.5,-83 382.5,-83 382.5,0 567.5,0 567.5,-83"/>
<text text-anchor="middle" x="475" y="-67.8" font-family="Times,serif" font-size="14.00">node #10</text>
<text text-anchor="middle" x="475" y="-52.8" font-family="Times,serif" font-size="14.00">gini = 0.056</text>
<text text-anchor="middle" x="475" y="-37.8" font-family="Times,serif" font-size="14.00">samples = 41</text>
<text text-anchor="middle" x="475" y="-22.8" font-family="Times,serif" font-size="14.00">value = [1.931, 65.348]</text>
<text text-anchor="middle" x="475" y="-7.8" font-family="Times,serif" font-size="14.00">class = Obstructive</text>
</g>
<!-- 9&#45;&gt;10 -->
<g id="edge10" class="edge">
<title>9&#45;&gt;10</title>
<path fill="none" stroke="black" d="M530.82,-118.87C524.23,-109.85 517.34,-100.43 510.74,-91.39"/>
<polygon fill="black" stroke="black" points="513.5,-89.24 504.77,-83.23 507.85,-93.37 513.5,-89.24"/>
</g>
<!-- 11 -->
<g id="node12" class="node">
<title>11</title>
<polygon fill="none" stroke="black" points="761,-83 585,-83 585,0 761,0 761,-83"/>
<text text-anchor="middle" x="673" y="-67.8" font-family="Times,serif" font-size="14.00">node #11</text>
<text text-anchor="middle" x="673" y="-52.8" font-family="Times,serif" font-size="14.00">gini = 0.433</text>
<text text-anchor="middle" x="673" y="-37.8" font-family="Times,serif" font-size="14.00">samples = 2</text>
<text text-anchor="middle" x="673" y="-22.8" font-family="Times,serif" font-size="14.00">value = [0.965, 2.075]</text>
<text text-anchor="middle" x="673" y="-7.8" font-family="Times,serif" font-size="14.00">class = Obstructive</text>
</g>
<!-- 9&#45;&gt;11 -->
<g id="edge11" class="edge">
<title>9&#45;&gt;11</title>
<path fill="none" stroke="black" d="M607.37,-118.87C615.27,-109.67 623.55,-100.04 631.45,-90.84"/>
<polygon fill="black" stroke="black" points="634.13,-93.1 637.99,-83.23 628.82,-88.53 634.13,-93.1"/>
</g>
<!-- 13 -->
<g id="node14" class="node">
<title>13</title>
<polygon fill="none" stroke="black" points="1070,-217 882,-217 882,-119 1070,-119 1070,-217"/>
<text text-anchor="middle" x="976" y="-201.8" font-family="Times,serif" font-size="14.00">node #13</text>
<text text-anchor="middle" x="976" y="-186.8" font-family="Times,serif" font-size="14.00">FEV1PreVal &lt;= 0.855</text>
<text text-anchor="middle" x="976" y="-171.8" font-family="Times,serif" font-size="14.00">gini = 0.053</text>
<text text-anchor="middle" x="976" y="-156.8" font-family="Times,serif" font-size="14.00">samples = 44</text>
<text text-anchor="middle" x="976" y="-141.8" font-family="Times,serif" font-size="14.00">value = [74.329, 2.075]</text>
<text text-anchor="middle" x="976" y="-126.8" font-family="Times,serif" font-size="14.00">class = Non&#45;obstructive</text>
</g>
<!-- 12&#45;&gt;13 -->
<g id="edge13" class="edge">
<title>12&#45;&gt;13</title>
<path fill="none" stroke="black" d="M976,-252.97C976,-244.69 976,-236 976,-227.48"/>
<polygon fill="black" stroke="black" points="979.5,-227.21 976,-217.21 972.5,-227.21 979.5,-227.21"/>
</g>
<!-- 16 -->
<g id="node17" class="node">
<title>16</title>
<polygon fill="none" stroke="black" points="1382,-217 1194,-217 1194,-119 1382,-119 1382,-217"/>
<text text-anchor="middle" x="1288" y="-201.8" font-family="Times,serif" font-size="14.00">node #16</text>
<text text-anchor="middle" x="1288" y="-186.8" font-family="Times,serif" font-size="14.00">FVCPostVal &lt;= 3.56</text>
<text text-anchor="middle" x="1288" y="-171.8" font-family="Times,serif" font-size="14.00">gini = 0.473</text>
<text text-anchor="middle" x="1288" y="-156.8" font-family="Times,serif" font-size="14.00">samples = 80</text>
<text text-anchor="middle" x="1288" y="-141.8" font-family="Times,serif" font-size="14.00">value = [76.26, 47.714]</text>
<text text-anchor="middle" x="1288" y="-126.8" font-family="Times,serif" font-size="14.00">class = Non&#45;obstructive</text>
</g>
<!-- 12&#45;&gt;16 -->
<g id="edge16" class="edge">
<title>12&#45;&gt;16</title>
<path fill="none" stroke="black" d="M1074.72,-259.23C1109.71,-244.43 1149.16,-227.74 1184.53,-212.77"/>
<polygon fill="black" stroke="black" points="1186.07,-215.93 1193.91,-208.81 1183.34,-209.48 1186.07,-215.93"/>
</g>
<!-- 14 -->
<g id="node15" class="node">
<title>14</title>
<polygon fill="none" stroke="black" points="967,-83 779,-83 779,0 967,0 967,-83"/>
<text text-anchor="middle" x="873" y="-67.8" font-family="Times,serif" font-size="14.00">node #14</text>
<text text-anchor="middle" x="873" y="-52.8" font-family="Times,serif" font-size="14.00">gini = 0.258</text>
<text text-anchor="middle" x="873" y="-37.8" font-family="Times,serif" font-size="14.00">samples = 7</text>
<text text-anchor="middle" x="873" y="-22.8" font-family="Times,serif" font-size="14.00">value = [11.584, 2.075]</text>
<text text-anchor="middle" x="873" y="-7.8" font-family="Times,serif" font-size="14.00">class = Non&#45;obstructive</text>
</g>
<!-- 13&#45;&gt;14 -->
<g id="edge14" class="edge">
<title>13&#45;&gt;14</title>
<path fill="none" stroke="black" d="M936.18,-118.87C928.65,-109.76 920.76,-100.23 913.22,-91.12"/>
<polygon fill="black" stroke="black" points="915.77,-88.7 906.7,-83.23 910.37,-93.17 915.77,-88.7"/>
</g>
<!-- 15 -->
<g id="node16" class="node">
<title>15</title>
<polygon fill="none" stroke="black" points="1173,-83 985,-83 985,0 1173,0 1173,-83"/>
<text text-anchor="middle" x="1079" y="-67.8" font-family="Times,serif" font-size="14.00">node #15</text>
<text text-anchor="middle" x="1079" y="-52.8" font-family="Times,serif" font-size="14.00">gini = 0.0</text>
<text text-anchor="middle" x="1079" y="-37.8" font-family="Times,serif" font-size="14.00">samples = 37</text>
<text text-anchor="middle" x="1079" y="-22.8" font-family="Times,serif" font-size="14.00">value = [62.746, 0.0]</text>
<text text-anchor="middle" x="1079" y="-7.8" font-family="Times,serif" font-size="14.00">class = Non&#45;obstructive</text>
</g>
<!-- 13&#45;&gt;15 -->
<g id="edge15" class="edge">
<title>13&#45;&gt;15</title>
<path fill="none" stroke="black" d="M1015.82,-118.87C1023.35,-109.76 1031.24,-100.23 1038.78,-91.12"/>
<polygon fill="black" stroke="black" points="1041.63,-93.17 1045.3,-83.23 1036.23,-88.7 1041.63,-93.17"/>
</g>
<!-- 17 -->
<g id="node18" class="node">
<title>17</title>
<polygon fill="none" stroke="black" points="1385,-83 1191,-83 1191,0 1385,0 1385,-83"/>
<text text-anchor="middle" x="1288" y="-67.8" font-family="Times,serif" font-size="14.00">node #17</text>
<text text-anchor="middle" x="1288" y="-52.8" font-family="Times,serif" font-size="14.00">gini = 0.443</text>
<text text-anchor="middle" x="1288" y="-37.8" font-family="Times,serif" font-size="14.00">samples = 71</text>
<text text-anchor="middle" x="1288" y="-22.8" font-family="Times,serif" font-size="14.00">value = [73.364, 36.304]</text>
<text text-anchor="middle" x="1288" y="-7.8" font-family="Times,serif" font-size="14.00">class = Non&#45;obstructive</text>
</g>
<!-- 16&#45;&gt;17 -->
<g id="edge17" class="edge">
<title>16&#45;&gt;17</title>
<path fill="none" stroke="black" d="M1288,-118.87C1288,-110.5 1288,-101.77 1288,-93.33"/>
<polygon fill="black" stroke="black" points="1291.5,-93.23 1288,-83.23 1284.5,-93.23 1291.5,-93.23"/>
</g>
<!-- 18 -->
<g id="node19" class="node">
<title>18</title>
<polygon fill="none" stroke="black" points="1579,-83 1403,-83 1403,0 1579,0 1579,-83"/>
<text text-anchor="middle" x="1491" y="-67.8" font-family="Times,serif" font-size="14.00">node #18</text>
<text text-anchor="middle" x="1491" y="-52.8" font-family="Times,serif" font-size="14.00">gini = 0.323</text>
<text text-anchor="middle" x="1491" y="-37.8" font-family="Times,serif" font-size="14.00">samples = 9</text>
<text text-anchor="middle" x="1491" y="-22.8" font-family="Times,serif" font-size="14.00">value = [2.896, 11.41]</text>
<text text-anchor="middle" x="1491" y="-7.8" font-family="Times,serif" font-size="14.00">class = Obstructive</text>
</g>
<!-- 16&#45;&gt;18 -->
<g id="edge18" class="edge">
<title>16&#45;&gt;18</title>
<path fill="none" stroke="black" d="M1366.49,-118.87C1382.77,-108.88 1399.89,-98.38 1416.05,-88.47"/>
<polygon fill="black" stroke="black" points="1418.22,-91.24 1424.91,-83.03 1414.56,-85.28 1418.22,-91.24"/>
</g>
</g>
</svg>
