<?xml version="1.0" encoding="UTF-8" standalone="no"?>
<!DOCTYPE svg PUBLIC "-//W3C//DTD SVG 1.1//EN"
 "http://www.w3.org/Graphics/SVG/1.1/DTD/svg11.dtd">
<!-- Generated by graphviz version 2.43.0 (0)
 -->
<!-- Title: Tree Pages: 1 -->
<svg width="2346pt" height="627pt"
 viewBox="0.00 0.00 2346.00 627.00" xmlns="http://www.w3.org/2000/svg" xmlns:xlink="http://www.w3.org/1999/xlink">
<g id="graph0" class="graph" transform="scale(1 1) rotate(0) translate(4 623)">
<title>Tree</title>
<polygon fill="white" stroke="transparent" points="-4,4 -4,-623 2342,-623 2342,4 -4,4"/>
<!-- 0 -->
<g id="node1" class="node">
<title>0</title>
<polygon fill="none" stroke="black" points="1145,-619 957,-619 957,-521 1145,-521 1145,-619"/>
<text text-anchor="middle" x="1051" y="-603.8" font-family="Times,serif" font-size="14.00">node #0</text>
<text text-anchor="middle" x="1051" y="-588.8" font-family="Times,serif" font-size="14.00">FEFPreVal &lt;= 1.48</text>
<text text-anchor="middle" x="1051" y="-573.8" font-family="Times,serif" font-size="14.00">gini = 0.5</text>
<text text-anchor="middle" x="1051" y="-558.8" font-family="Times,serif" font-size="14.00">samples = 216</text>
<text text-anchor="middle" x="1051" y="-543.8" font-family="Times,serif" font-size="14.00">value = [167.0, 167.0]</text>
<text text-anchor="middle" x="1051" y="-528.8" font-family="Times,serif" font-size="14.00">class = Non&#45;obstructive</text>
</g>
<!-- 1 -->
<g id="node2" class="node">
<title>1</title>
<polygon fill="none" stroke="black" points="879.5,-485 676.5,-485 676.5,-387 879.5,-387 879.5,-485"/>
<text text-anchor="middle" x="778" y="-469.8" font-family="Times,serif" font-size="14.00">node #1</text>
<text text-anchor="middle" x="778" y="-454.8" font-family="Times,serif" font-size="14.00">FEFPreVal &lt;= 0.845</text>
<text text-anchor="middle" x="778" y="-439.8" font-family="Times,serif" font-size="14.00">gini = 0.333</text>
<text text-anchor="middle" x="778" y="-424.8" font-family="Times,serif" font-size="14.00">samples = 104</text>
<text text-anchor="middle" x="778" y="-409.8" font-family="Times,serif" font-size="14.00">value = [34.412, 128.462]</text>
<text text-anchor="middle" x="778" y="-394.8" font-family="Times,serif" font-size="14.00">class = Obstructive</text>
</g>
<!-- 0&#45;&gt;1 -->
<g id="edge1" class="edge">
<title>0&#45;&gt;1</title>
<path fill="none" stroke="black" d="M956.67,-523.39C934.08,-512.47 909.79,-500.72 886.61,-489.52"/>
<polygon fill="black" stroke="black" points="887.98,-486.29 877.45,-485.09 884.93,-492.59 887.98,-486.29"/>
<text text-anchor="middle" x="885.67" y="-505" font-family="Times,serif" font-size="14.00">True</text>
</g>
<!-- 14 -->
<g id="node15" class="node">
<title>14</title>
<polygon fill="none" stroke="black" points="1396.5,-485 1193.5,-485 1193.5,-387 1396.5,-387 1396.5,-485"/>
<text text-anchor="middle" x="1295" y="-469.8" font-family="Times,serif" font-size="14.00">node #14</text>
<text text-anchor="middle" x="1295" y="-454.8" font-family="Times,serif" font-size="14.00">FEFPrePercent &lt;= 57.5</text>
<text text-anchor="middle" x="1295" y="-439.8" font-family="Times,serif" font-size="14.00">gini = 0.349</text>
<text text-anchor="middle" x="1295" y="-424.8" font-family="Times,serif" font-size="14.00">samples = 112</text>
<text text-anchor="middle" x="1295" y="-409.8" font-family="Times,serif" font-size="14.00">value = [132.588, 38.538]</text>
<text text-anchor="middle" x="1295" y="-394.8" font-family="Times,serif" font-size="14.00">class = Non&#45;obstructive</text>
</g>
<!-- 0&#45;&gt;14 -->
<g id="edge14" class="edge">
<title>0&#45;&gt;14</title>
<path fill="none" stroke="black" d="M1139.78,-520.97C1158.37,-510.92 1178.06,-500.26 1196.97,-490.04"/>
<polygon fill="black" stroke="black" points="1198.75,-493.05 1205.88,-485.21 1195.42,-486.89 1198.75,-493.05"/>
<text text-anchor="middle" x="1198.74" y="-505.47" font-family="Times,serif" font-size="14.00">False</text>
</g>
<!-- 2 -->
<g id="node3" class="node">
<title>2</title>
<polygon fill="none" stroke="black" points="564.5,-351 367.5,-351 367.5,-253 564.5,-253 564.5,-351"/>
<text text-anchor="middle" x="466" y="-335.8" font-family="Times,serif" font-size="14.00">node #2</text>
<text text-anchor="middle" x="466" y="-320.8" font-family="Times,serif" font-size="14.00">FEFPostPercent &lt;= 71.5</text>
<text text-anchor="middle" x="466" y="-305.8" font-family="Times,serif" font-size="14.00">gini = 0.122</text>
<text text-anchor="middle" x="466" y="-290.8" font-family="Times,serif" font-size="14.00">samples = 56</text>
<text text-anchor="middle" x="466" y="-275.8" font-family="Times,serif" font-size="14.00">value = [6.073, 86.959]</text>
<text text-anchor="middle" x="466" y="-260.8" font-family="Times,serif" font-size="14.00">class = Obstructive</text>
</g>
<!-- 1&#45;&gt;2 -->
<g id="edge2" class="edge">
<title>1&#45;&gt;2</title>
<path fill="none" stroke="black" d="M676.27,-391.96C643.52,-378.1 607.12,-362.7 573.94,-348.67"/>
<polygon fill="black" stroke="black" points="575.24,-345.42 564.67,-344.74 572.51,-351.86 575.24,-345.42"/>
</g>
<!-- 7 -->
<g id="node8" class="node">
<title>7</title>
<polygon fill="none" stroke="black" points="875,-351 681,-351 681,-253 875,-253 875,-351"/>
<text text-anchor="middle" x="778" y="-335.8" font-family="Times,serif" font-size="14.00">node #7</text>
<text text-anchor="middle" x="778" y="-320.8" font-family="Times,serif" font-size="14.00">FVCPostVal &lt;= 2.14</text>
<text text-anchor="middle" x="778" y="-305.8" font-family="Times,serif" font-size="14.00">gini = 0.482</text>
<text text-anchor="middle" x="778" y="-290.8" font-family="Times,serif" font-size="14.00">samples = 48</text>
<text text-anchor="middle" x="778" y="-275.8" font-family="Times,serif" font-size="14.00">value = [28.339, 41.503]</text>
<text text-anchor="middle" x="778" y="-260.8" font-family="Times,serif" font-size="14.00">class = Obstructive</text>
</g>
<!-- 1&#45;&gt;7 -->
<g id="edge7" class="edge">
<title>1&#45;&gt;7</title>
<path fill="none" stroke="black" d="M778,-386.97C778,-378.69 778,-370 778,-361.48"/>
<polygon fill="black" stroke="black" points="781.5,-361.21 778,-351.21 774.5,-361.21 781.5,-361.21"/>
</g>
<!-- 3 -->
<g id="node4" class="node">
<title>3</title>
<polygon fill="none" stroke="black" points="353.5,-217 156.5,-217 156.5,-119 353.5,-119 353.5,-217"/>
<text text-anchor="middle" x="255" y="-201.8" font-family="Times,serif" font-size="14.00">node #3</text>
<text text-anchor="middle" x="255" y="-186.8" font-family="Times,serif" font-size="14.00">FVCPostPercent &lt;= 38.0</text>
<text text-anchor="middle" x="255" y="-171.8" font-family="Times,serif" font-size="14.00">gini = 0.085</text>
<text text-anchor="middle" x="255" y="-156.8" font-family="Times,serif" font-size="14.00">samples = 55</text>
<text text-anchor="middle" x="255" y="-141.8" font-family="Times,serif" font-size="14.00">value = [4.048, 86.959]</text>
<text text-anchor="middle" x="255" y="-126.8" font-family="Times,serif" font-size="14.00">class = Obstructive</text>
</g>
<!-- 2&#45;&gt;3 -->
<g id="edge3" class="edge">
<title>2&#45;&gt;3</title>
<path fill="none" stroke="black" d="M389.23,-252.97C373.52,-243.14 356.89,-232.74 340.89,-222.73"/>
<polygon fill="black" stroke="black" points="342.4,-219.55 332.07,-217.21 338.69,-225.48 342.4,-219.55"/>
</g>
<!-- 6 -->
<g id="node7" class="node">
<title>6</title>
<polygon fill="none" stroke="black" points="560,-209.5 372,-209.5 372,-126.5 560,-126.5 560,-209.5"/>
<text text-anchor="middle" x="466" y="-194.3" font-family="Times,serif" font-size="14.00">node #6</text>
<text text-anchor="middle" x="466" y="-179.3" font-family="Times,serif" font-size="14.00">gini = 0.0</text>
<text text-anchor="middle" x="466" y="-164.3" font-family="Times,serif" font-size="14.00">samples = 1</text>
<text text-anchor="middle" x="466" y="-149.3" font-family="Times,serif" font-size="14.00">value = [2.024, 0.0]</text>
<text text-anchor="middle" x="466" y="-134.3" font-family="Times,serif" font-size="14.00">class = Non&#45;obstructive</text>
</g>
<!-- 2&#45;&gt;6 -->
<g id="edge6" class="edge">
<title>2&#45;&gt;6</title>
<path fill="none" stroke="black" d="M466,-252.97C466,-242.25 466,-230.84 466,-219.99"/>
<polygon fill="black" stroke="black" points="469.5,-219.82 466,-209.82 462.5,-219.82 469.5,-219.82"/>
</g>
<!-- 4 -->
<g id="node5" class="node">
<title>4</title>
<polygon fill="none" stroke="black" points="176,-83 0,-83 0,0 176,0 176,-83"/>
<text text-anchor="middle" x="88" y="-67.8" font-family="Times,serif" font-size="14.00">node #4</text>
<text text-anchor="middle" x="88" y="-52.8" font-family="Times,serif" font-size="14.00">gini = 0.482</text>
<text text-anchor="middle" x="88" y="-37.8" font-family="Times,serif" font-size="14.00">samples = 5</text>
<text text-anchor="middle" x="88" y="-22.8" font-family="Times,serif" font-size="14.00">value = [4.048, 5.929]</text>
<text text-anchor="middle" x="88" y="-7.8" font-family="Times,serif" font-size="14.00">class = Obstructive</text>
</g>
<!-- 3&#45;&gt;4 -->
<g id="edge4" class="edge">
<title>3&#45;&gt;4</title>
<path fill="none" stroke="black" d="M190.43,-118.87C177.28,-109.06 163.47,-98.77 150.4,-89.02"/>
<polygon fill="black" stroke="black" points="152.48,-86.2 142.37,-83.03 148.29,-91.82 152.48,-86.2"/>
</g>
<!-- 5 -->
<g id="node6" class="node">
<title>5</title>
<polygon fill="none" stroke="black" points="352,-83 194,-83 194,0 352,0 352,-83"/>
<text text-anchor="middle" x="273" y="-67.8" font-family="Times,serif" font-size="14.00">node #5</text>
<text text-anchor="middle" x="273" y="-52.8" font-family="Times,serif" font-size="14.00">gini = 0.0</text>
<text text-anchor="middle" x="273" y="-37.8" font-family="Times,serif" font-size="14.00">samples = 50</text>
<text text-anchor="middle" x="273" y="-22.8" font-family="Times,serif" font-size="14.00">value = [0.0, 81.03]</text>
<text text-anchor="middle" x="273" y="-7.8" font-family="Times,serif" font-size="14.00">class = Obstructive</text>
</g>
<!-- 3&#45;&gt;5 -->
<g id="edge5" class="edge">
<title>3&#45;&gt;5</title>
<path fill="none" stroke="black" d="M261.96,-118.87C263.17,-110.5 264.43,-101.77 265.65,-93.33"/>
<polygon fill="black" stroke="black" points="269.14,-93.63 267.11,-83.23 262.22,-92.63 269.14,-93.63"/>
</g>
<!-- 8 -->
<g id="node9" class="node">
<title>8</title>
<polygon fill="none" stroke="black" points="766,-217 578,-217 578,-119 766,-119 766,-217"/>
<text text-anchor="middle" x="672" y="-201.8" font-family="Times,serif" font-size="14.00">node #8</text>
<text text-anchor="middle" x="672" y="-186.8" font-family="Times,serif" font-size="14.00">FEV1PostVal &lt;= 1.93</text>
<text text-anchor="middle" x="672" y="-171.8" font-family="Times,serif" font-size="14.00">gini = 0.332</text>
<text text-anchor="middle" x="672" y="-156.8" font-family="Times,serif" font-size="14.00">samples = 19</text>
<text text-anchor="middle" x="672" y="-141.8" font-family="Times,serif" font-size="14.00">value = [22.267, 5.929]</text>
<text text-anchor="middle" x="672" y="-126.8" font-family="Times,serif" font-size="14.00">class = Non&#45;obstructive</text>
</g>
<!-- 7&#45;&gt;8 -->
<g id="edge8" class="edge">
<title>7&#45;&gt;8</title>
<path fill="none" stroke="black" d="M739.43,-252.97C732.2,-243.96 724.58,-234.47 717.16,-225.24"/>
<polygon fill="black" stroke="black" points="719.71,-222.82 710.72,-217.21 714.25,-227.2 719.71,-222.82"/>
</g>
<!-- 11 -->
<g id="node12" class="node">
<title>11</title>
<polygon fill="none" stroke="black" points="969.5,-217 784.5,-217 784.5,-119 969.5,-119 969.5,-217"/>
<text text-anchor="middle" x="877" y="-201.8" font-family="Times,serif" font-size="14.00">node #11</text>
<text text-anchor="middle" x="877" y="-186.8" font-family="Times,serif" font-size="14.00">FVCPostVal &lt;= 2.95</text>
<text text-anchor="middle" x="877" y="-171.8" font-family="Times,serif" font-size="14.00">gini = 0.249</text>
<text text-anchor="middle" x="877" y="-156.8" font-family="Times,serif" font-size="14.00">samples = 29</text>
<text text-anchor="middle" x="877" y="-141.8" font-family="Times,serif" font-size="14.00">value = [6.073, 35.574]</text>
<text text-anchor="middle" x="877" y="-126.8" font-family="Times,serif" font-size="14.00">class = Obstructive</text>
</g>
<!-- 7&#45;&gt;11 -->
<g id="edge11" class="edge">
<title>7&#45;&gt;11</title>
<path fill="none" stroke="black" d="M814.02,-252.97C820.78,-243.96 827.9,-234.47 834.82,-225.24"/>
<polygon fill="black" stroke="black" points="837.64,-227.31 840.84,-217.21 832.04,-223.11 837.64,-227.31"/>
</g>
<!-- 9 -->
<g id="node10" class="node">
<title>9</title>
<polygon fill="none" stroke="black" points="575,-83 387,-83 387,0 575,0 575,-83"/>
<text text-anchor="middle" x="481" y="-67.8" font-family="Times,serif" font-size="14.00">node #9</text>
<text text-anchor="middle" x="481" y="-52.8" font-family="Times,serif" font-size="14.00">gini = 0.256</text>
<text text-anchor="middle" x="481" y="-37.8" font-family="Times,serif" font-size="14.00">samples = 18</text>
<text text-anchor="middle" x="481" y="-22.8" font-family="Times,serif" font-size="14.00">value = [22.267, 3.953]</text>
<text text-anchor="middle" x="481" y="-7.8" font-family="Times,serif" font-size="14.00">class = Non&#45;obstructive</text>
</g>
<!-- 8&#45;&gt;9 -->
<g id="edge9" class="edge">
<title>8&#45;&gt;9</title>
<path fill="none" stroke="black" d="M598.15,-118.87C582.97,-108.97 567.02,-98.57 551.95,-88.74"/>
<polygon fill="black" stroke="black" points="553.47,-85.56 543.18,-83.03 549.65,-91.43 553.47,-85.56"/>
</g>
<!-- 10 -->
<g id="node11" class="node">
<title>10</title>
<polygon fill="none" stroke="black" points="751,-83 593,-83 593,0 751,0 751,-83"/>
<text text-anchor="middle" x="672" y="-67.8" font-family="Times,serif" font-size="14.00">node #10</text>
<text text-anchor="middle" x="672" y="-52.8" font-family="Times,serif" font-size="14.00">gini = &#45;0.0</text>
<text text-anchor="middle" x="672" y="-37.8" font-family="Times,serif" font-size="14.00">samples = 1</text>
<text text-anchor="middle" x="672" y="-22.8" font-family="Times,serif" font-size="14.00">value = [0.0, 1.976]</text>
<text text-anchor="middle" x="672" y="-7.8" font-family="Times,serif" font-size="14.00">class = Obstructive</text>
</g>
<!-- 8&#45;&gt;10 -->
<g id="edge10" class="edge">
<title>8&#45;&gt;10</title>
<path fill="none" stroke="black" d="M672,-118.87C672,-110.5 672,-101.77 672,-93.33"/>
<polygon fill="black" stroke="black" points="675.5,-93.23 672,-83.23 668.5,-93.23 675.5,-93.23"/>
</g>
<!-- 12 -->
<g id="node13" class="node">
<title>12</title>
<polygon fill="none" stroke="black" points="945,-83 769,-83 769,0 945,0 945,-83"/>
<text text-anchor="middle" x="857" y="-67.8" font-family="Times,serif" font-size="14.00">node #12</text>
<text text-anchor="middle" x="857" y="-52.8" font-family="Times,serif" font-size="14.00">gini = 0.341</text>
<text text-anchor="middle" x="857" y="-37.8" font-family="Times,serif" font-size="14.00">samples = 21</text>
<text text-anchor="middle" x="857" y="-22.8" font-family="Times,serif" font-size="14.00">value = [6.073, 21.74]</text>
<text text-anchor="middle" x="857" y="-7.8" font-family="Times,serif" font-size="14.00">class = Obstructive</text>
</g>
<!-- 11&#45;&gt;12 -->
<g id="edge12" class="edge">
<title>11&#45;&gt;12</title>
<path fill="none" stroke="black" d="M869.27,-118.87C867.92,-110.5 866.52,-101.77 865.17,-93.33"/>
<polygon fill="black" stroke="black" points="868.58,-92.55 863.54,-83.23 861.67,-93.66 868.58,-92.55"/>
</g>
<!-- 13 -->
<g id="node14" class="node">
<title>13</title>
<polygon fill="none" stroke="black" points="1129.5,-83 962.5,-83 962.5,0 1129.5,0 1129.5,-83"/>
<text text-anchor="middle" x="1046" y="-67.8" font-family="Times,serif" font-size="14.00">node #13</text>
<text text-anchor="middle" x="1046" y="-52.8" font-family="Times,serif" font-size="14.00">gini = 0.0</text>
<text text-anchor="middle" x="1046" y="-37.8" font-family="Times,serif" font-size="14.00">samples = 8</text>
<text text-anchor="middle" x="1046" y="-22.8" font-family="Times,serif" font-size="14.00">value = [0.0, 13.834]</text>
<text text-anchor="middle" x="1046" y="-7.8" font-family="Times,serif" font-size="14.00">class = Obstructive</text>
</g>
<!-- 11&#45;&gt;13 -->
<g id="edge13" class="edge">
<title>11&#45;&gt;13</title>
<path fill="none" stroke="black" d="M942.34,-118.87C955.65,-109.06 969.62,-98.77 982.85,-89.02"/>
<polygon fill="black" stroke="black" points="985,-91.78 990.98,-83.03 980.85,-86.15 985,-91.78"/>
</g>
<!-- 15 -->
<g id="node16" class="node">
<title>15</title>
<polygon fill="none" stroke="black" points="1395,-351 1195,-351 1195,-253 1395,-253 1395,-351"/>
<text text-anchor="middle" x="1295" y="-335.8" font-family="Times,serif" font-size="14.00">node #15</text>
<text text-anchor="middle" x="1295" y="-320.8" font-family="Times,serif" font-size="14.00">FEV1PrePercent &lt;= 53.0</text>
<text text-anchor="middle" x="1295" y="-305.8" font-family="Times,serif" font-size="14.00">gini = 0.482</text>
<text text-anchor="middle" x="1295" y="-290.8" font-family="Times,serif" font-size="14.00">samples = 21</text>
<text text-anchor="middle" x="1295" y="-275.8" font-family="Times,serif" font-size="14.00">value = [12.145, 17.787]</text>
<text text-anchor="middle" x="1295" y="-260.8" font-family="Times,serif" font-size="14.00">class = Obstructive</text>
</g>
<!-- 14&#45;&gt;15 -->
<g id="edge15" class="edge">
<title>14&#45;&gt;15</title>
<path fill="none" stroke="black" d="M1295,-386.97C1295,-378.69 1295,-370 1295,-361.48"/>
<polygon fill="black" stroke="black" points="1298.5,-361.21 1295,-351.21 1291.5,-361.21 1298.5,-361.21"/>
</g>
<!-- 20 -->
<g id="node21" class="node">
<title>20</title>
<polygon fill="none" stroke="black" points="1778.5,-351 1575.5,-351 1575.5,-253 1778.5,-253 1778.5,-351"/>
<text text-anchor="middle" x="1677" y="-335.8" font-family="Times,serif" font-size="14.00">node #20</text>
<text text-anchor="middle" x="1677" y="-320.8" font-family="Times,serif" font-size="14.00">FEV1PreVal &lt;= 2.825</text>
<text text-anchor="middle" x="1677" y="-305.8" font-family="Times,serif" font-size="14.00">gini = 0.251</text>
<text text-anchor="middle" x="1677" y="-290.8" font-family="Times,serif" font-size="14.00">samples = 91</text>
<text text-anchor="middle" x="1677" y="-275.8" font-family="Times,serif" font-size="14.00">value = [120.442, 20.751]</text>
<text text-anchor="middle" x="1677" y="-260.8" font-family="Times,serif" font-size="14.00">class = Non&#45;obstructive</text>
</g>
<!-- 14&#45;&gt;20 -->
<g id="edge20" class="edge">
<title>14&#45;&gt;20</title>
<path fill="none" stroke="black" d="M1396.62,-399.89C1448.74,-381.87 1512.34,-359.9 1565.78,-341.43"/>
<polygon fill="black" stroke="black" points="1566.98,-344.72 1575.29,-338.15 1564.69,-338.1 1566.98,-344.72"/>
</g>
<!-- 16 -->
<g id="node17" class="node">
<title>16</title>
<polygon fill="none" stroke="black" points="1287,-209.5 1099,-209.5 1099,-126.5 1287,-126.5 1287,-209.5"/>
<text text-anchor="middle" x="1193" y="-194.3" font-family="Times,serif" font-size="14.00">node #16</text>
<text text-anchor="middle" x="1193" y="-179.3" font-family="Times,serif" font-size="14.00">gini = 0.0</text>
<text text-anchor="middle" x="1193" y="-164.3" font-family="Times,serif" font-size="14.00">samples = 4</text>
<text text-anchor="middle" x="1193" y="-149.3" font-family="Times,serif" font-size="14.00">value = [7.085, 0.0]</text>
<text text-anchor="middle" x="1193" y="-134.3" font-family="Times,serif" font-size="14.00">class = Non&#45;obstructive</text>
</g>
<!-- 15&#45;&gt;16 -->
<g id="edge16" class="edge">
<title>15&#45;&gt;16</title>
<path fill="none" stroke="black" d="M1257.89,-252.97C1249.09,-241.58 1239.69,-229.42 1230.86,-217.99"/>
<polygon fill="black" stroke="black" points="1233.42,-215.59 1224.54,-209.82 1227.89,-219.87 1233.42,-215.59"/>
</g>
<!-- 17 -->
<g id="node18" class="node">
<title>17</title>
<polygon fill="none" stroke="black" points="1490.5,-217 1305.5,-217 1305.5,-119 1490.5,-119 1490.5,-217"/>
<text text-anchor="middle" x="1398" y="-201.8" font-family="Times,serif" font-size="14.00">node #17</text>
<text text-anchor="middle" x="1398" y="-186.8" font-family="Times,serif" font-size="14.00">FVCPreVal &lt;= 2.695</text>
<text text-anchor="middle" x="1398" y="-171.8" font-family="Times,serif" font-size="14.00">gini = 0.345</text>
<text text-anchor="middle" x="1398" y="-156.8" font-family="Times,serif" font-size="14.00">samples = 17</text>
<text text-anchor="middle" x="1398" y="-141.8" font-family="Times,serif" font-size="14.00">value = [5.061, 17.787]</text>
<text text-anchor="middle" x="1398" y="-126.8" font-family="Times,serif" font-size="14.00">class = Obstructive</text>
</g>
<!-- 15&#45;&gt;17 -->
<g id="edge17" class="edge">
<title>15&#45;&gt;17</title>
<path fill="none" stroke="black" d="M1332.48,-252.97C1339.51,-243.96 1346.91,-234.47 1354.12,-225.24"/>
<polygon fill="black" stroke="black" points="1356.99,-227.25 1360.38,-217.21 1351.47,-222.94 1356.99,-227.25"/>
</g>
<!-- 18 -->
<g id="node19" class="node">
<title>18</title>
<polygon fill="none" stroke="black" points="1332.5,-83 1147.5,-83 1147.5,0 1332.5,0 1332.5,-83"/>
<text text-anchor="middle" x="1240" y="-67.8" font-family="Times,serif" font-size="14.00">node #18</text>
<text text-anchor="middle" x="1240" y="-52.8" font-family="Times,serif" font-size="14.00">gini = 0.145</text>
<text text-anchor="middle" x="1240" y="-37.8" font-family="Times,serif" font-size="14.00">samples = 10</text>
<text text-anchor="middle" x="1240" y="-22.8" font-family="Times,serif" font-size="14.00">value = [1.012, 11.858]</text>
<text text-anchor="middle" x="1240" y="-7.8" font-family="Times,serif" font-size="14.00">class = Obstructive</text>
</g>
<!-- 17&#45;&gt;18 -->
<g id="edge18" class="edge">
<title>17&#45;&gt;18</title>
<path fill="none" stroke="black" d="M1336.91,-118.87C1324.59,-109.15 1311.65,-98.96 1299.39,-89.3"/>
<polygon fill="black" stroke="black" points="1301.46,-86.47 1291.44,-83.03 1297.13,-91.97 1301.46,-86.47"/>
</g>
<!-- 19 -->
<g id="node20" class="node">
<title>19</title>
<polygon fill="none" stroke="black" points="1526,-83 1350,-83 1350,0 1526,0 1526,-83"/>
<text text-anchor="middle" x="1438" y="-67.8" font-family="Times,serif" font-size="14.00">node #19</text>
<text text-anchor="middle" x="1438" y="-52.8" font-family="Times,serif" font-size="14.00">gini = 0.482</text>
<text text-anchor="middle" x="1438" y="-37.8" font-family="Times,serif" font-size="14.00">samples = 7</text>
<text text-anchor="middle" x="1438" y="-22.8" font-family="Times,serif" font-size="14.00">value = [4.048, 5.929]</text>
<text text-anchor="middle" x="1438" y="-7.8" font-family="Times,serif" font-size="14.00">class = Obstructive</text>
</g>
<!-- 17&#45;&gt;19 -->
<g id="edge19" class="edge">
<title>17&#45;&gt;19</title>
<path fill="none" stroke="black" d="M1413.47,-118.87C1416.21,-110.31 1419.08,-101.39 1421.85,-92.78"/>
<polygon fill="black" stroke="black" points="1425.19,-93.82 1424.91,-83.23 1418.52,-91.68 1425.19,-93.82"/>
</g>
<!-- 21 -->
<g id="node22" class="node">
<title>21</title>
<polygon fill="none" stroke="black" points="1774,-217 1580,-217 1580,-119 1774,-119 1774,-217"/>
<text text-anchor="middle" x="1677" y="-201.8" font-family="Times,serif" font-size="14.00">node #21</text>
<text text-anchor="middle" x="1677" y="-186.8" font-family="Times,serif" font-size="14.00">FVCPrePercent &lt;= 57.5</text>
<text text-anchor="middle" x="1677" y="-171.8" font-family="Times,serif" font-size="14.00">gini = 0.156</text>
<text text-anchor="middle" x="1677" y="-156.8" font-family="Times,serif" font-size="14.00">samples = 83</text>
<text text-anchor="middle" x="1677" y="-141.8" font-family="Times,serif" font-size="14.00">value = [116.394, 10.87]</text>
<text text-anchor="middle" x="1677" y="-126.8" font-family="Times,serif" font-size="14.00">class = Non&#45;obstructive</text>
</g>
<!-- 20&#45;&gt;21 -->
<g id="edge21" class="edge">
<title>20&#45;&gt;21</title>
<path fill="none" stroke="black" d="M1677,-252.97C1677,-244.69 1677,-236 1677,-227.48"/>
<polygon fill="black" stroke="black" points="1680.5,-227.21 1677,-217.21 1673.5,-227.21 1680.5,-227.21"/>
</g>
<!-- 24 -->
<g id="node25" class="node">
<title>24</title>
<polygon fill="none" stroke="black" points="2145.5,-217 1954.5,-217 1954.5,-119 2145.5,-119 2145.5,-217"/>
<text text-anchor="middle" x="2050" y="-201.8" font-family="Times,serif" font-size="14.00">node #24</text>
<text text-anchor="middle" x="2050" y="-186.8" font-family="Times,serif" font-size="14.00">FEFPrePercent &lt;= 60.5</text>
<text text-anchor="middle" x="2050" y="-171.8" font-family="Times,serif" font-size="14.00">gini = 0.412</text>
<text text-anchor="middle" x="2050" y="-156.8" font-family="Times,serif" font-size="14.00">samples = 8</text>
<text text-anchor="middle" x="2050" y="-141.8" font-family="Times,serif" font-size="14.00">value = [4.048, 9.882]</text>
<text text-anchor="middle" x="2050" y="-126.8" font-family="Times,serif" font-size="14.00">class = Obstructive</text>
</g>
<!-- 20&#45;&gt;24 -->
<g id="edge24" class="edge">
<title>20&#45;&gt;24</title>
<path fill="none" stroke="black" d="M1778.92,-264.93C1830.4,-246.71 1892.78,-224.64 1944.72,-206.26"/>
<polygon fill="black" stroke="black" points="1946.03,-209.51 1954.29,-202.87 1943.7,-202.91 1946.03,-209.51"/>
</g>
<!-- 22 -->
<g id="node23" class="node">
<title>22</title>
<polygon fill="none" stroke="black" points="1732,-83 1544,-83 1544,0 1732,0 1732,-83"/>
<text text-anchor="middle" x="1638" y="-67.8" font-family="Times,serif" font-size="14.00">node #22</text>
<text text-anchor="middle" x="1638" y="-52.8" font-family="Times,serif" font-size="14.00">gini = 0.0</text>
<text text-anchor="middle" x="1638" y="-37.8" font-family="Times,serif" font-size="14.00">samples = 39</text>
<text text-anchor="middle" x="1638" y="-22.8" font-family="Times,serif" font-size="14.00">value = [64.776, 0.0]</text>
<text text-anchor="middle" x="1638" y="-7.8" font-family="Times,serif" font-size="14.00">class = Non&#45;obstructive</text>
</g>
<!-- 21&#45;&gt;22 -->
<g id="edge22" class="edge">
<title>21&#45;&gt;22</title>
<path fill="none" stroke="black" d="M1661.92,-118.87C1659.24,-110.31 1656.45,-101.39 1653.75,-92.78"/>
<polygon fill="black" stroke="black" points="1657.09,-91.73 1650.76,-83.23 1650.41,-93.82 1657.09,-91.73"/>
</g>
<!-- 23 -->
<g id="node24" class="node">
<title>23</title>
<polygon fill="none" stroke="black" points="1938,-83 1750,-83 1750,0 1938,0 1938,-83"/>
<text text-anchor="middle" x="1844" y="-67.8" font-family="Times,serif" font-size="14.00">node #23</text>
<text text-anchor="middle" x="1844" y="-52.8" font-family="Times,serif" font-size="14.00">gini = 0.287</text>
<text text-anchor="middle" x="1844" y="-37.8" font-family="Times,serif" font-size="14.00">samples = 44</text>
<text text-anchor="middle" x="1844" y="-22.8" font-family="Times,serif" font-size="14.00">value = [51.618, 10.87]</text>
<text text-anchor="middle" x="1844" y="-7.8" font-family="Times,serif" font-size="14.00">class = Non&#45;obstructive</text>
</g>
<!-- 21&#45;&gt;23 -->
<g id="edge23" class="edge">
<title>21&#45;&gt;23</title>
<path fill="none" stroke="black" d="M1741.57,-118.87C1754.72,-109.06 1768.53,-98.77 1781.6,-89.02"/>
<polygon fill="black" stroke="black" points="1783.71,-91.82 1789.63,-83.03 1779.52,-86.2 1783.71,-91.82"/>
</g>
<!-- 25 -->
<g id="node26" class="node">
<title>25</title>
<polygon fill="none" stroke="black" points="2144,-83 1956,-83 1956,0 2144,0 2144,-83"/>
<text text-anchor="middle" x="2050" y="-67.8" font-family="Times,serif" font-size="14.00">node #25</text>
<text text-anchor="middle" x="2050" y="-52.8" font-family="Times,serif" font-size="14.00">gini = 0.0</text>
<text text-anchor="middle" x="2050" y="-37.8" font-family="Times,serif" font-size="14.00">samples = 1</text>
<text text-anchor="middle" x="2050" y="-22.8" font-family="Times,serif" font-size="14.00">value = [3.036, 0.0]</text>
<text text-anchor="middle" x="2050" y="-7.8" font-family="Times,serif" font-size="14.00">class = Non&#45;obstructive</text>
</g>
<!-- 24&#45;&gt;25 -->
<g id="edge25" class="edge">
<title>24&#45;&gt;25</title>
<path fill="none" stroke="black" d="M2050,-118.87C2050,-110.5 2050,-101.77 2050,-93.33"/>
<polygon fill="black" stroke="black" points="2053.5,-93.23 2050,-83.23 2046.5,-93.23 2053.5,-93.23"/>
</g>
<!-- 26 -->
<g id="node27" class="node">
<title>26</title>
<polygon fill="none" stroke="black" points="2338,-83 2162,-83 2162,0 2338,0 2338,-83"/>
<text text-anchor="middle" x="2250" y="-67.8" font-family="Times,serif" font-size="14.00">node #26</text>
<text text-anchor="middle" x="2250" y="-52.8" font-family="Times,serif" font-size="14.00">gini = 0.169</text>
<text text-anchor="middle" x="2250" y="-37.8" font-family="Times,serif" font-size="14.00">samples = 7</text>
<text text-anchor="middle" x="2250" y="-22.8" font-family="Times,serif" font-size="14.00">value = [1.012, 9.882]</text>
<text text-anchor="middle" x="2250" y="-7.8" font-family="Times,serif" font-size="14.00">class = Obstructive</text>
</g>
<!-- 24&#45;&gt;26 -->
<g id="edge26" class="edge">
<title>24&#45;&gt;26</title>
<path fill="none" stroke="black" d="M2127.33,-118.87C2143.37,-108.88 2160.24,-98.38 2176.15,-88.47"/>
<polygon fill="black" stroke="black" points="2178.25,-91.29 2184.89,-83.03 2174.55,-85.35 2178.25,-91.29"/>
</g>
</g>
</svg>
