<?xml version="1.0" encoding="UTF-8" standalone="no"?>
<!DOCTYPE svg PUBLIC "-//W3C//DTD SVG 1.1//EN"
 "http://www.w3.org/Graphics/SVG/1.1/DTD/svg11.dtd">
<!-- Generated by graphviz version 2.43.0 (0)
 -->
<!-- Title: Tree Pages: 1 -->
<svg width="2375pt" height="627pt"
 viewBox="0.00 0.00 2374.50 627.00" xmlns="http://www.w3.org/2000/svg" xmlns:xlink="http://www.w3.org/1999/xlink">
<g id="graph0" class="graph" transform="scale(1 1) rotate(0) translate(4 623)">
<title>Tree</title>
<polygon fill="white" stroke="transparent" points="-4,4 -4,-623 2370.5,-623 2370.5,4 -4,4"/>
<!-- 0 -->
<g id="node1" class="node">
<title>0</title>
<polygon fill="none" stroke="black" points="1142,-619 951,-619 951,-521 1142,-521 1142,-619"/>
<text text-anchor="middle" x="1046.5" y="-603.8" font-family="Times,serif" font-size="14.00">node #0</text>
<text text-anchor="middle" x="1046.5" y="-588.8" font-family="Times,serif" font-size="14.00">FEFPrePercent &lt;= 33.5</text>
<text text-anchor="middle" x="1046.5" y="-573.8" font-family="Times,serif" font-size="14.00">gini = 0.5</text>
<text text-anchor="middle" x="1046.5" y="-558.8" font-family="Times,serif" font-size="14.00">samples = 211</text>
<text text-anchor="middle" x="1046.5" y="-543.8" font-family="Times,serif" font-size="14.00">value = [167.0, 167.0]</text>
<text text-anchor="middle" x="1046.5" y="-528.8" font-family="Times,serif" font-size="14.00">class = Non&#45;obstructive</text>
</g>
<!-- 1 -->
<g id="node2" class="node">
<title>1</title>
<polygon fill="none" stroke="black" points="943,-485 740,-485 740,-387 943,-387 943,-485"/>
<text text-anchor="middle" x="841.5" y="-469.8" font-family="Times,serif" font-size="14.00">node #1</text>
<text text-anchor="middle" x="841.5" y="-454.8" font-family="Times,serif" font-size="14.00">FEV1PreVal &lt;= 1.165</text>
<text text-anchor="middle" x="841.5" y="-439.8" font-family="Times,serif" font-size="14.00">gini = 0.179</text>
<text text-anchor="middle" x="841.5" y="-424.8" font-family="Times,serif" font-size="14.00">samples = 74</text>
<text text-anchor="middle" x="841.5" y="-409.8" font-family="Times,serif" font-size="14.00">value = [11.201, 101.182]</text>
<text text-anchor="middle" x="841.5" y="-394.8" font-family="Times,serif" font-size="14.00">class = Obstructive</text>
</g>
<!-- 0&#45;&gt;1 -->
<g id="edge1" class="edge">
<title>0&#45;&gt;1</title>
<path fill="none" stroke="black" d="M971.91,-520.97C956.65,-511.14 940.49,-500.74 924.94,-490.73"/>
<polygon fill="black" stroke="black" points="926.68,-487.68 916.38,-485.21 922.89,-493.57 926.68,-487.68"/>
<text text-anchor="middle" x="921.67" y="-505.95" font-family="Times,serif" font-size="14.00">True</text>
</g>
<!-- 10 -->
<g id="node11" class="node">
<title>10</title>
<polygon fill="none" stroke="black" points="1295,-485 1092,-485 1092,-387 1295,-387 1295,-485"/>
<text text-anchor="middle" x="1193.5" y="-469.8" font-family="Times,serif" font-size="14.00">node #10</text>
<text text-anchor="middle" x="1193.5" y="-454.8" font-family="Times,serif" font-size="14.00">FEV1PostVal &lt;= 1.875</text>
<text text-anchor="middle" x="1193.5" y="-439.8" font-family="Times,serif" font-size="14.00">gini = 0.418</text>
<text text-anchor="middle" x="1193.5" y="-424.8" font-family="Times,serif" font-size="14.00">samples = 137</text>
<text text-anchor="middle" x="1193.5" y="-409.8" font-family="Times,serif" font-size="14.00">value = [155.799, 65.818]</text>
<text text-anchor="middle" x="1193.5" y="-394.8" font-family="Times,serif" font-size="14.00">class = Non&#45;obstructive</text>
</g>
<!-- 0&#45;&gt;10 -->
<g id="edge10" class="edge">
<title>0&#45;&gt;10</title>
<path fill="none" stroke="black" d="M1099.99,-520.97C1110.42,-511.6 1121.44,-501.7 1132.11,-492.12"/>
<polygon fill="black" stroke="black" points="1134.71,-494.5 1139.81,-485.21 1130.03,-489.29 1134.71,-494.5"/>
<text text-anchor="middle" x="1138.47" y="-506.48" font-family="Times,serif" font-size="14.00">False</text>
</g>
<!-- 2 -->
<g id="node3" class="node">
<title>2</title>
<polygon fill="none" stroke="black" points="693.5,-351 499.5,-351 499.5,-253 693.5,-253 693.5,-351"/>
<text text-anchor="middle" x="596.5" y="-335.8" font-family="Times,serif" font-size="14.00">node #2</text>
<text text-anchor="middle" x="596.5" y="-320.8" font-family="Times,serif" font-size="14.00">FEFPostVal &lt;= 0.71</text>
<text text-anchor="middle" x="596.5" y="-305.8" font-family="Times,serif" font-size="14.00">gini = 0.265</text>
<text text-anchor="middle" x="596.5" y="-290.8" font-family="Times,serif" font-size="14.00">samples = 47</text>
<text text-anchor="middle" x="596.5" y="-275.8" font-family="Times,serif" font-size="14.00">value = [11.201, 59.924]</text>
<text text-anchor="middle" x="596.5" y="-260.8" font-family="Times,serif" font-size="14.00">class = Obstructive</text>
</g>
<!-- 1&#45;&gt;2 -->
<g id="edge2" class="edge">
<title>1&#45;&gt;2</title>
<path fill="none" stroke="black" d="M752.36,-386.97C733.69,-376.92 713.91,-366.26 694.94,-356.04"/>
<polygon fill="black" stroke="black" points="696.45,-352.88 685.99,-351.21 693.13,-359.04 696.45,-352.88"/>
</g>
<!-- 9 -->
<g id="node10" class="node">
<title>9</title>
<polygon fill="none" stroke="black" points="925,-343.5 758,-343.5 758,-260.5 925,-260.5 925,-343.5"/>
<text text-anchor="middle" x="841.5" y="-328.3" font-family="Times,serif" font-size="14.00">node #9</text>
<text text-anchor="middle" x="841.5" y="-313.3" font-family="Times,serif" font-size="14.00">gini = 0.0</text>
<text text-anchor="middle" x="841.5" y="-298.3" font-family="Times,serif" font-size="14.00">samples = 27</text>
<text text-anchor="middle" x="841.5" y="-283.3" font-family="Times,serif" font-size="14.00">value = [0.0, 41.259]</text>
<text text-anchor="middle" x="841.5" y="-268.3" font-family="Times,serif" font-size="14.00">class = Obstructive</text>
</g>
<!-- 1&#45;&gt;9 -->
<g id="edge9" class="edge">
<title>1&#45;&gt;9</title>
<path fill="none" stroke="black" d="M841.5,-386.97C841.5,-376.25 841.5,-364.84 841.5,-353.99"/>
<polygon fill="black" stroke="black" points="845,-353.82 841.5,-343.82 838,-353.82 845,-353.82"/>
</g>
<!-- 3 -->
<g id="node4" class="node">
<title>3</title>
<polygon fill="none" stroke="black" points="389,-217 192,-217 192,-119 389,-119 389,-217"/>
<text text-anchor="middle" x="290.5" y="-201.8" font-family="Times,serif" font-size="14.00">node #3</text>
<text text-anchor="middle" x="290.5" y="-186.8" font-family="Times,serif" font-size="14.00">FEFPostPercent &lt;= 23.5</text>
<text text-anchor="middle" x="290.5" y="-171.8" font-family="Times,serif" font-size="14.00">gini = 0.07</text>
<text text-anchor="middle" x="290.5" y="-156.8" font-family="Times,serif" font-size="14.00">samples = 36</text>
<text text-anchor="middle" x="290.5" y="-141.8" font-family="Times,serif" font-size="14.00">value = [2.037, 54.029]</text>
<text text-anchor="middle" x="290.5" y="-126.8" font-family="Times,serif" font-size="14.00">class = Obstructive</text>
</g>
<!-- 2&#45;&gt;3 -->
<g id="edge3" class="edge">
<title>2&#45;&gt;3</title>
<path fill="none" stroke="black" d="M499.26,-259.05C467.11,-245.18 431.15,-229.67 398.26,-215.48"/>
<polygon fill="black" stroke="black" points="399.63,-212.27 389.06,-211.52 396.86,-218.69 399.63,-212.27"/>
</g>
<!-- 6 -->
<g id="node7" class="node">
<title>6</title>
<polygon fill="none" stroke="black" points="690.5,-217 502.5,-217 502.5,-119 690.5,-119 690.5,-217"/>
<text text-anchor="middle" x="596.5" y="-201.8" font-family="Times,serif" font-size="14.00">node #6</text>
<text text-anchor="middle" x="596.5" y="-186.8" font-family="Times,serif" font-size="14.00">FEV1PostVal &lt;= 1.245</text>
<text text-anchor="middle" x="596.5" y="-171.8" font-family="Times,serif" font-size="14.00">gini = 0.476</text>
<text text-anchor="middle" x="596.5" y="-156.8" font-family="Times,serif" font-size="14.00">samples = 11</text>
<text text-anchor="middle" x="596.5" y="-141.8" font-family="Times,serif" font-size="14.00">value = [9.165, 5.894]</text>
<text text-anchor="middle" x="596.5" y="-126.8" font-family="Times,serif" font-size="14.00">class = Non&#45;obstructive</text>
</g>
<!-- 2&#45;&gt;6 -->
<g id="edge6" class="edge">
<title>2&#45;&gt;6</title>
<path fill="none" stroke="black" d="M596.5,-252.97C596.5,-244.69 596.5,-236 596.5,-227.48"/>
<polygon fill="black" stroke="black" points="600,-227.21 596.5,-217.21 593,-227.21 600,-227.21"/>
</g>
<!-- 4 -->
<g id="node5" class="node">
<title>4</title>
<polygon fill="none" stroke="black" points="185,-83 0,-83 0,0 185,0 185,-83"/>
<text text-anchor="middle" x="92.5" y="-67.8" font-family="Times,serif" font-size="14.00">node #4</text>
<text text-anchor="middle" x="92.5" y="-52.8" font-family="Times,serif" font-size="14.00">gini = 0.038</text>
<text text-anchor="middle" x="92.5" y="-37.8" font-family="Times,serif" font-size="14.00">samples = 33</text>
<text text-anchor="middle" x="92.5" y="-22.8" font-family="Times,serif" font-size="14.00">value = [1.018, 52.065]</text>
<text text-anchor="middle" x="92.5" y="-7.8" font-family="Times,serif" font-size="14.00">class = Obstructive</text>
</g>
<!-- 3&#45;&gt;4 -->
<g id="edge4" class="edge">
<title>3&#45;&gt;4</title>
<path fill="none" stroke="black" d="M213.95,-118.87C198.06,-108.88 181.36,-98.38 165.61,-88.47"/>
<polygon fill="black" stroke="black" points="167.29,-85.39 156.96,-83.03 163.56,-91.32 167.29,-85.39"/>
</g>
<!-- 5 -->
<g id="node6" class="node">
<title>5</title>
<polygon fill="none" stroke="black" points="378.5,-83 202.5,-83 202.5,0 378.5,0 378.5,-83"/>
<text text-anchor="middle" x="290.5" y="-67.8" font-family="Times,serif" font-size="14.00">node #5</text>
<text text-anchor="middle" x="290.5" y="-52.8" font-family="Times,serif" font-size="14.00">gini = 0.45</text>
<text text-anchor="middle" x="290.5" y="-37.8" font-family="Times,serif" font-size="14.00">samples = 3</text>
<text text-anchor="middle" x="290.5" y="-22.8" font-family="Times,serif" font-size="14.00">value = [1.018, 1.965]</text>
<text text-anchor="middle" x="290.5" y="-7.8" font-family="Times,serif" font-size="14.00">class = Obstructive</text>
</g>
<!-- 3&#45;&gt;5 -->
<g id="edge5" class="edge">
<title>3&#45;&gt;5</title>
<path fill="none" stroke="black" d="M290.5,-118.87C290.5,-110.5 290.5,-101.77 290.5,-93.33"/>
<polygon fill="black" stroke="black" points="294,-93.23 290.5,-83.23 287,-93.23 294,-93.23"/>
</g>
<!-- 7 -->
<g id="node8" class="node">
<title>7</title>
<polygon fill="none" stroke="black" points="584.5,-83 396.5,-83 396.5,0 584.5,0 584.5,-83"/>
<text text-anchor="middle" x="490.5" y="-67.8" font-family="Times,serif" font-size="14.00">node #7</text>
<text text-anchor="middle" x="490.5" y="-52.8" font-family="Times,serif" font-size="14.00">gini = 0.213</text>
<text text-anchor="middle" x="490.5" y="-37.8" font-family="Times,serif" font-size="14.00">samples = 5</text>
<text text-anchor="middle" x="490.5" y="-22.8" font-family="Times,serif" font-size="14.00">value = [7.128, 0.982]</text>
<text text-anchor="middle" x="490.5" y="-7.8" font-family="Times,serif" font-size="14.00">class = Non&#45;obstructive</text>
</g>
<!-- 6&#45;&gt;7 -->
<g id="edge7" class="edge">
<title>6&#45;&gt;7</title>
<path fill="none" stroke="black" d="M555.52,-118.87C547.77,-109.76 539.66,-100.23 531.89,-91.12"/>
<polygon fill="black" stroke="black" points="534.33,-88.58 525.18,-83.23 529,-93.11 534.33,-88.58"/>
</g>
<!-- 8 -->
<g id="node9" class="node">
<title>8</title>
<polygon fill="none" stroke="black" points="778.5,-83 602.5,-83 602.5,0 778.5,0 778.5,-83"/>
<text text-anchor="middle" x="690.5" y="-67.8" font-family="Times,serif" font-size="14.00">node #8</text>
<text text-anchor="middle" x="690.5" y="-52.8" font-family="Times,serif" font-size="14.00">gini = 0.414</text>
<text text-anchor="middle" x="690.5" y="-37.8" font-family="Times,serif" font-size="14.00">samples = 6</text>
<text text-anchor="middle" x="690.5" y="-22.8" font-family="Times,serif" font-size="14.00">value = [2.037, 4.912]</text>
<text text-anchor="middle" x="690.5" y="-7.8" font-family="Times,serif" font-size="14.00">class = Obstructive</text>
</g>
<!-- 6&#45;&gt;8 -->
<g id="edge8" class="edge">
<title>6&#45;&gt;8</title>
<path fill="none" stroke="black" d="M632.84,-118.87C639.65,-109.85 646.76,-100.43 653.58,-91.39"/>
<polygon fill="black" stroke="black" points="656.51,-93.32 659.75,-83.23 650.93,-89.1 656.51,-93.32"/>
</g>
<!-- 11 -->
<g id="node12" class="node">
<title>11</title>
<polygon fill="none" stroke="black" points="1295,-351 1092,-351 1092,-253 1295,-253 1295,-351"/>
<text text-anchor="middle" x="1193.5" y="-335.8" font-family="Times,serif" font-size="14.00">node #11</text>
<text text-anchor="middle" x="1193.5" y="-320.8" font-family="Times,serif" font-size="14.00">FEFPostVal &lt;= 1.085</text>
<text text-anchor="middle" x="1193.5" y="-305.8" font-family="Times,serif" font-size="14.00">gini = 0.203</text>
<text text-anchor="middle" x="1193.5" y="-290.8" font-family="Times,serif" font-size="14.00">samples = 78</text>
<text text-anchor="middle" x="1193.5" y="-275.8" font-family="Times,serif" font-size="14.00">value = [105.902, 13.753]</text>
<text text-anchor="middle" x="1193.5" y="-260.8" font-family="Times,serif" font-size="14.00">class = Non&#45;obstructive</text>
</g>
<!-- 10&#45;&gt;11 -->
<g id="edge11" class="edge">
<title>10&#45;&gt;11</title>
<path fill="none" stroke="black" d="M1193.5,-386.97C1193.5,-378.69 1193.5,-370 1193.5,-361.48"/>
<polygon fill="black" stroke="black" points="1197,-361.21 1193.5,-351.21 1190,-361.21 1197,-361.21"/>
</g>
<!-- 18 -->
<g id="node19" class="node">
<title>18</title>
<polygon fill="none" stroke="black" points="1864,-351 1667,-351 1667,-253 1864,-253 1864,-351"/>
<text text-anchor="middle" x="1765.5" y="-335.8" font-family="Times,serif" font-size="14.00">node #18</text>
<text text-anchor="middle" x="1765.5" y="-320.8" font-family="Times,serif" font-size="14.00">FVCPostPercent &lt;= 64.5</text>
<text text-anchor="middle" x="1765.5" y="-305.8" font-family="Times,serif" font-size="14.00">gini = 0.5</text>
<text text-anchor="middle" x="1765.5" y="-290.8" font-family="Times,serif" font-size="14.00">samples = 59</text>
<text text-anchor="middle" x="1765.5" y="-275.8" font-family="Times,serif" font-size="14.00">value = [49.896, 52.065]</text>
<text text-anchor="middle" x="1765.5" y="-260.8" font-family="Times,serif" font-size="14.00">class = Obstructive</text>
</g>
<!-- 10&#45;&gt;18 -->
<g id="edge18" class="edge">
<title>10&#45;&gt;18</title>
<path fill="none" stroke="black" d="M1295.1,-411.55C1396.8,-388.08 1552.73,-352.1 1656.85,-328.07"/>
<polygon fill="black" stroke="black" points="1657.8,-331.45 1666.76,-325.79 1656.23,-324.63 1657.8,-331.45"/>
</g>
<!-- 12 -->
<g id="node13" class="node">
<title>12</title>
<polygon fill="none" stroke="black" points="1169,-217 972,-217 972,-119 1169,-119 1169,-217"/>
<text text-anchor="middle" x="1070.5" y="-201.8" font-family="Times,serif" font-size="14.00">node #12</text>
<text text-anchor="middle" x="1070.5" y="-186.8" font-family="Times,serif" font-size="14.00">FEFPostPercent &lt;= 34.0</text>
<text text-anchor="middle" x="1070.5" y="-171.8" font-family="Times,serif" font-size="14.00">gini = 0.473</text>
<text text-anchor="middle" x="1070.5" y="-156.8" font-family="Times,serif" font-size="14.00">samples = 6</text>
<text text-anchor="middle" x="1070.5" y="-141.8" font-family="Times,serif" font-size="14.00">value = [3.055, 4.912]</text>
<text text-anchor="middle" x="1070.5" y="-126.8" font-family="Times,serif" font-size="14.00">class = Obstructive</text>
</g>
<!-- 11&#45;&gt;12 -->
<g id="edge12" class="edge">
<title>11&#45;&gt;12</title>
<path fill="none" stroke="black" d="M1148.75,-252.97C1140.18,-243.78 1131.15,-234.09 1122.38,-224.68"/>
<polygon fill="black" stroke="black" points="1124.8,-222.14 1115.43,-217.21 1119.68,-226.92 1124.8,-222.14"/>
</g>
<!-- 15 -->
<g id="node16" class="node">
<title>15</title>
<polygon fill="none" stroke="black" points="1387.5,-217 1187.5,-217 1187.5,-119 1387.5,-119 1387.5,-217"/>
<text text-anchor="middle" x="1287.5" y="-201.8" font-family="Times,serif" font-size="14.00">node #15</text>
<text text-anchor="middle" x="1287.5" y="-186.8" font-family="Times,serif" font-size="14.00">FEV1PrePercent &lt;= 82.5</text>
<text text-anchor="middle" x="1287.5" y="-171.8" font-family="Times,serif" font-size="14.00">gini = 0.146</text>
<text text-anchor="middle" x="1287.5" y="-156.8" font-family="Times,serif" font-size="14.00">samples = 72</text>
<text text-anchor="middle" x="1287.5" y="-141.8" font-family="Times,serif" font-size="14.00">value = [102.848, 8.841]</text>
<text text-anchor="middle" x="1287.5" y="-126.8" font-family="Times,serif" font-size="14.00">class = Non&#45;obstructive</text>
</g>
<!-- 11&#45;&gt;15 -->
<g id="edge15" class="edge">
<title>11&#45;&gt;15</title>
<path fill="none" stroke="black" d="M1227.7,-252.97C1234.05,-244.05 1240.74,-234.66 1247.25,-225.52"/>
<polygon fill="black" stroke="black" points="1250.22,-227.39 1253.17,-217.21 1244.51,-223.33 1250.22,-227.39"/>
</g>
<!-- 13 -->
<g id="node14" class="node">
<title>13</title>
<polygon fill="none" stroke="black" points="984.5,-83 796.5,-83 796.5,0 984.5,0 984.5,-83"/>
<text text-anchor="middle" x="890.5" y="-67.8" font-family="Times,serif" font-size="14.00">node #13</text>
<text text-anchor="middle" x="890.5" y="-52.8" font-family="Times,serif" font-size="14.00">gini = 0.368</text>
<text text-anchor="middle" x="890.5" y="-37.8" font-family="Times,serif" font-size="14.00">samples = 3</text>
<text text-anchor="middle" x="890.5" y="-22.8" font-family="Times,serif" font-size="14.00">value = [3.055, 0.982]</text>
<text text-anchor="middle" x="890.5" y="-7.8" font-family="Times,serif" font-size="14.00">class = Non&#45;obstructive</text>
</g>
<!-- 12&#45;&gt;13 -->
<g id="edge13" class="edge">
<title>12&#45;&gt;13</title>
<path fill="none" stroke="black" d="M1000.91,-118.87C986.6,-108.97 971.57,-98.57 957.36,-88.74"/>
<polygon fill="black" stroke="black" points="959.32,-85.84 949.1,-83.03 955.33,-91.6 959.32,-85.84"/>
</g>
<!-- 14 -->
<g id="node15" class="node">
<title>14</title>
<polygon fill="none" stroke="black" points="1160.5,-83 1002.5,-83 1002.5,0 1160.5,0 1160.5,-83"/>
<text text-anchor="middle" x="1081.5" y="-67.8" font-family="Times,serif" font-size="14.00">node #14</text>
<text text-anchor="middle" x="1081.5" y="-52.8" font-family="Times,serif" font-size="14.00">gini = 0.0</text>
<text text-anchor="middle" x="1081.5" y="-37.8" font-family="Times,serif" font-size="14.00">samples = 3</text>
<text text-anchor="middle" x="1081.5" y="-22.8" font-family="Times,serif" font-size="14.00">value = [0.0, 3.929]</text>
<text text-anchor="middle" x="1081.5" y="-7.8" font-family="Times,serif" font-size="14.00">class = Obstructive</text>
</g>
<!-- 12&#45;&gt;14 -->
<g id="edge14" class="edge">
<title>12&#45;&gt;14</title>
<path fill="none" stroke="black" d="M1074.75,-118.87C1075.49,-110.5 1076.26,-101.77 1077.01,-93.33"/>
<polygon fill="black" stroke="black" points="1080.51,-93.5 1077.9,-83.23 1073.53,-92.88 1080.51,-93.5"/>
</g>
<!-- 16 -->
<g id="node17" class="node">
<title>16</title>
<polygon fill="none" stroke="black" points="1372.5,-83 1178.5,-83 1178.5,0 1372.5,0 1372.5,-83"/>
<text text-anchor="middle" x="1275.5" y="-67.8" font-family="Times,serif" font-size="14.00">node #16</text>
<text text-anchor="middle" x="1275.5" y="-52.8" font-family="Times,serif" font-size="14.00">gini = 0.089</text>
<text text-anchor="middle" x="1275.5" y="-37.8" font-family="Times,serif" font-size="14.00">samples = 70</text>
<text text-anchor="middle" x="1275.5" y="-22.8" font-family="Times,serif" font-size="14.00">value = [100.811, 4.912]</text>
<text text-anchor="middle" x="1275.5" y="-7.8" font-family="Times,serif" font-size="14.00">class = Non&#45;obstructive</text>
</g>
<!-- 15&#45;&gt;16 -->
<g id="edge16" class="edge">
<title>15&#45;&gt;16</title>
<path fill="none" stroke="black" d="M1282.86,-118.87C1282.05,-110.5 1281.21,-101.77 1280.4,-93.33"/>
<polygon fill="black" stroke="black" points="1283.87,-92.85 1279.43,-83.23 1276.9,-93.52 1283.87,-92.85"/>
</g>
<!-- 17 -->
<g id="node18" class="node">
<title>17</title>
<polygon fill="none" stroke="black" points="1566.5,-83 1390.5,-83 1390.5,0 1566.5,0 1566.5,-83"/>
<text text-anchor="middle" x="1478.5" y="-67.8" font-family="Times,serif" font-size="14.00">node #17</text>
<text text-anchor="middle" x="1478.5" y="-52.8" font-family="Times,serif" font-size="14.00">gini = 0.45</text>
<text text-anchor="middle" x="1478.5" y="-37.8" font-family="Times,serif" font-size="14.00">samples = 2</text>
<text text-anchor="middle" x="1478.5" y="-22.8" font-family="Times,serif" font-size="14.00">value = [2.037, 3.929]</text>
<text text-anchor="middle" x="1478.5" y="-7.8" font-family="Times,serif" font-size="14.00">class = Obstructive</text>
</g>
<!-- 15&#45;&gt;17 -->
<g id="edge17" class="edge">
<title>15&#45;&gt;17</title>
<path fill="none" stroke="black" d="M1361.35,-118.87C1376.53,-108.97 1392.48,-98.57 1407.55,-88.74"/>
<polygon fill="black" stroke="black" points="1409.85,-91.43 1416.32,-83.03 1406.03,-85.56 1409.85,-91.43"/>
</g>
<!-- 19 -->
<g id="node20" class="node">
<title>19</title>
<polygon fill="none" stroke="black" points="1859.5,-217 1671.5,-217 1671.5,-119 1859.5,-119 1859.5,-217"/>
<text text-anchor="middle" x="1765.5" y="-201.8" font-family="Times,serif" font-size="14.00">node #19</text>
<text text-anchor="middle" x="1765.5" y="-186.8" font-family="Times,serif" font-size="14.00">FEV1PostVal &lt;= 2.85</text>
<text text-anchor="middle" x="1765.5" y="-171.8" font-family="Times,serif" font-size="14.00">gini = 0.339</text>
<text text-anchor="middle" x="1765.5" y="-156.8" font-family="Times,serif" font-size="14.00">samples = 11</text>
<text text-anchor="middle" x="1765.5" y="-141.8" font-family="Times,serif" font-size="14.00">value = [14.256, 3.929]</text>
<text text-anchor="middle" x="1765.5" y="-126.8" font-family="Times,serif" font-size="14.00">class = Non&#45;obstructive</text>
</g>
<!-- 18&#45;&gt;19 -->
<g id="edge19" class="edge">
<title>18&#45;&gt;19</title>
<path fill="none" stroke="black" d="M1765.5,-252.97C1765.5,-244.69 1765.5,-236 1765.5,-227.48"/>
<polygon fill="black" stroke="black" points="1769,-227.21 1765.5,-217.21 1762,-227.21 1769,-227.21"/>
</g>
<!-- 22 -->
<g id="node23" class="node">
<title>22</title>
<polygon fill="none" stroke="black" points="2162,-217 1965,-217 1965,-119 2162,-119 2162,-217"/>
<text text-anchor="middle" x="2063.5" y="-201.8" font-family="Times,serif" font-size="14.00">node #22</text>
<text text-anchor="middle" x="2063.5" y="-186.8" font-family="Times,serif" font-size="14.00">FEFPostPercent &lt;= 88.5</text>
<text text-anchor="middle" x="2063.5" y="-171.8" font-family="Times,serif" font-size="14.00">gini = 0.489</text>
<text text-anchor="middle" x="2063.5" y="-156.8" font-family="Times,serif" font-size="14.00">samples = 48</text>
<text text-anchor="middle" x="2063.5" y="-141.8" font-family="Times,serif" font-size="14.00">value = [35.64, 48.135]</text>
<text text-anchor="middle" x="2063.5" y="-126.8" font-family="Times,serif" font-size="14.00">class = Obstructive</text>
</g>
<!-- 18&#45;&gt;22 -->
<g id="edge22" class="edge">
<title>18&#45;&gt;22</title>
<path fill="none" stroke="black" d="M1864.32,-257.23C1893.64,-244.24 1925.9,-229.95 1955.77,-216.72"/>
<polygon fill="black" stroke="black" points="1957.23,-219.9 1964.95,-212.65 1954.39,-213.5 1957.23,-219.9"/>
</g>
<!-- 20 -->
<g id="node21" class="node">
<title>20</title>
<polygon fill="none" stroke="black" points="1772.5,-83 1584.5,-83 1584.5,0 1772.5,0 1772.5,-83"/>
<text text-anchor="middle" x="1678.5" y="-67.8" font-family="Times,serif" font-size="14.00">node #20</text>
<text text-anchor="middle" x="1678.5" y="-52.8" font-family="Times,serif" font-size="14.00">gini = 0.213</text>
<text text-anchor="middle" x="1678.5" y="-37.8" font-family="Times,serif" font-size="14.00">samples = 10</text>
<text text-anchor="middle" x="1678.5" y="-22.8" font-family="Times,serif" font-size="14.00">value = [14.256, 1.965]</text>
<text text-anchor="middle" x="1678.5" y="-7.8" font-family="Times,serif" font-size="14.00">class = Non&#45;obstructive</text>
</g>
<!-- 19&#45;&gt;20 -->
<g id="edge20" class="edge">
<title>19&#45;&gt;20</title>
<path fill="none" stroke="black" d="M1731.86,-118.87C1725.63,-109.95 1719.11,-100.62 1712.86,-91.67"/>
<polygon fill="black" stroke="black" points="1715.56,-89.42 1706.96,-83.23 1709.82,-93.43 1715.56,-89.42"/>
</g>
<!-- 21 -->
<g id="node22" class="node">
<title>21</title>
<polygon fill="none" stroke="black" points="1948.5,-83 1790.5,-83 1790.5,0 1948.5,0 1948.5,-83"/>
<text text-anchor="middle" x="1869.5" y="-67.8" font-family="Times,serif" font-size="14.00">node #21</text>
<text text-anchor="middle" x="1869.5" y="-52.8" font-family="Times,serif" font-size="14.00">gini = 0.0</text>
<text text-anchor="middle" x="1869.5" y="-37.8" font-family="Times,serif" font-size="14.00">samples = 1</text>
<text text-anchor="middle" x="1869.5" y="-22.8" font-family="Times,serif" font-size="14.00">value = [0.0, 1.965]</text>
<text text-anchor="middle" x="1869.5" y="-7.8" font-family="Times,serif" font-size="14.00">class = Obstructive</text>
</g>
<!-- 19&#45;&gt;21 -->
<g id="edge21" class="edge">
<title>19&#45;&gt;21</title>
<path fill="none" stroke="black" d="M1805.71,-118.87C1813.31,-109.76 1821.27,-100.23 1828.89,-91.12"/>
<polygon fill="black" stroke="black" points="1831.75,-93.15 1835.48,-83.23 1826.38,-88.66 1831.75,-93.15"/>
</g>
<!-- 23 -->
<g id="node24" class="node">
<title>23</title>
<polygon fill="none" stroke="black" points="2160.5,-83 1966.5,-83 1966.5,0 2160.5,0 2160.5,-83"/>
<text text-anchor="middle" x="2063.5" y="-67.8" font-family="Times,serif" font-size="14.00">node #23</text>
<text text-anchor="middle" x="2063.5" y="-52.8" font-family="Times,serif" font-size="14.00">gini = 0.41</text>
<text text-anchor="middle" x="2063.5" y="-37.8" font-family="Times,serif" font-size="14.00">samples = 35</text>
<text text-anchor="middle" x="2063.5" y="-22.8" font-family="Times,serif" font-size="14.00">value = [16.293, 40.276]</text>
<text text-anchor="middle" x="2063.5" y="-7.8" font-family="Times,serif" font-size="14.00">class = Obstructive</text>
</g>
<!-- 22&#45;&gt;23 -->
<g id="edge23" class="edge">
<title>22&#45;&gt;23</title>
<path fill="none" stroke="black" d="M2063.5,-118.87C2063.5,-110.5 2063.5,-101.77 2063.5,-93.33"/>
<polygon fill="black" stroke="black" points="2067,-93.23 2063.5,-83.23 2060,-93.23 2067,-93.23"/>
</g>
<!-- 24 -->
<g id="node25" class="node">
<title>24</title>
<polygon fill="none" stroke="black" points="2366.5,-83 2178.5,-83 2178.5,0 2366.5,0 2366.5,-83"/>
<text text-anchor="middle" x="2272.5" y="-67.8" font-family="Times,serif" font-size="14.00">node #24</text>
<text text-anchor="middle" x="2272.5" y="-52.8" font-family="Times,serif" font-size="14.00">gini = 0.411</text>
<text text-anchor="middle" x="2272.5" y="-37.8" font-family="Times,serif" font-size="14.00">samples = 13</text>
<text text-anchor="middle" x="2272.5" y="-22.8" font-family="Times,serif" font-size="14.00">value = [19.348, 7.859]</text>
<text text-anchor="middle" x="2272.5" y="-7.8" font-family="Times,serif" font-size="14.00">class = Non&#45;obstructive</text>
</g>
<!-- 22&#45;&gt;24 -->
<g id="edge24" class="edge">
<title>22&#45;&gt;24</title>
<path fill="none" stroke="black" d="M2144.3,-118.87C2161.23,-108.78 2179.02,-98.18 2195.79,-88.19"/>
<polygon fill="black" stroke="black" points="2197.66,-91.16 2204.46,-83.03 2194.08,-85.14 2197.66,-91.16"/>
</g>
</g>
</svg>
