<?xml version="1.0" encoding="UTF-8" standalone="no"?>
<!DOCTYPE svg PUBLIC "-//W3C//DTD SVG 1.1//EN"
 "http://www.w3.org/Graphics/SVG/1.1/DTD/svg11.dtd">
<!-- Generated by graphviz version 2.43.0 (0)
 -->
<!-- Title: Tree Pages: 1 -->
<svg width="2404pt" height="627pt"
 viewBox="0.00 0.00 2404.00 627.00" xmlns="http://www.w3.org/2000/svg" xmlns:xlink="http://www.w3.org/1999/xlink">
<g id="graph0" class="graph" transform="scale(1 1) rotate(0) translate(4 623)">
<title>Tree</title>
<polygon fill="white" stroke="transparent" points="-4,4 -4,-623 2400,-623 2400,4 -4,4"/>
<!-- 0 -->
<g id="node1" class="node">
<title>0</title>
<polygon fill="none" stroke="black" points="996.5,-619 799.5,-619 799.5,-521 996.5,-521 996.5,-619"/>
<text text-anchor="middle" x="898" y="-603.8" font-family="Times,serif" font-size="14.00">node #0</text>
<text text-anchor="middle" x="898" y="-588.8" font-family="Times,serif" font-size="14.00">FEFPostPercent &lt;= 61.5</text>
<text text-anchor="middle" x="898" y="-573.8" font-family="Times,serif" font-size="14.00">gini = 0.5</text>
<text text-anchor="middle" x="898" y="-558.8" font-family="Times,serif" font-size="14.00">samples = 209</text>
<text text-anchor="middle" x="898" y="-543.8" font-family="Times,serif" font-size="14.00">value = [167.0, 167.0]</text>
<text text-anchor="middle" x="898" y="-528.8" font-family="Times,serif" font-size="14.00">class = Obstructive</text>
</g>
<!-- 1 -->
<g id="node2" class="node">
<title>1</title>
<polygon fill="none" stroke="black" points="703.5,-485 500.5,-485 500.5,-387 703.5,-387 703.5,-485"/>
<text text-anchor="middle" x="602" y="-469.8" font-family="Times,serif" font-size="14.00">node #1</text>
<text text-anchor="middle" x="602" y="-454.8" font-family="Times,serif" font-size="14.00">FEFPrePercent &lt;= 32.5</text>
<text text-anchor="middle" x="602" y="-439.8" font-family="Times,serif" font-size="14.00">gini = 0.302</text>
<text text-anchor="middle" x="602" y="-424.8" font-family="Times,serif" font-size="14.00">samples = 103</text>
<text text-anchor="middle" x="602" y="-409.8" font-family="Times,serif" font-size="14.00">value = [31.118, 137.075]</text>
<text text-anchor="middle" x="602" y="-394.8" font-family="Times,serif" font-size="14.00">class = Obstructive</text>
</g>
<!-- 0&#45;&gt;1 -->
<g id="edge1" class="edge">
<title>0&#45;&gt;1</title>
<path fill="none" stroke="black" d="M799.44,-525.05C771.67,-512.66 741.27,-499.11 712.83,-486.43"/>
<polygon fill="black" stroke="black" points="714.23,-483.22 703.68,-482.34 711.38,-489.61 714.23,-483.22"/>
<text text-anchor="middle" x="712.62" y="-501.99" font-family="Times,serif" font-size="14.00">True</text>
</g>
<!-- 12 -->
<g id="node13" class="node">
<title>12</title>
<polygon fill="none" stroke="black" points="1304.5,-485 1101.5,-485 1101.5,-387 1304.5,-387 1304.5,-485"/>
<text text-anchor="middle" x="1203" y="-469.8" font-family="Times,serif" font-size="14.00">node #12</text>
<text text-anchor="middle" x="1203" y="-454.8" font-family="Times,serif" font-size="14.00">FEV1PreVal &lt;= 2.335</text>
<text text-anchor="middle" x="1203" y="-439.8" font-family="Times,serif" font-size="14.00">gini = 0.296</text>
<text text-anchor="middle" x="1203" y="-424.8" font-family="Times,serif" font-size="14.00">samples = 106</text>
<text text-anchor="middle" x="1203" y="-409.8" font-family="Times,serif" font-size="14.00">value = [135.882, 29.925]</text>
<text text-anchor="middle" x="1203" y="-394.8" font-family="Times,serif" font-size="14.00">class = Non&#45;obstructive</text>
</g>
<!-- 0&#45;&gt;12 -->
<g id="edge12" class="edge">
<title>0&#45;&gt;12</title>
<path fill="none" stroke="black" d="M996.6,-526.33C1027.1,-513.13 1060.89,-498.5 1092.15,-484.97"/>
<polygon fill="black" stroke="black" points="1093.54,-488.18 1101.33,-481 1090.76,-481.76 1093.54,-488.18"/>
<text text-anchor="middle" x="1092.13" y="-500.55" font-family="Times,serif" font-size="14.00">False</text>
</g>
<!-- 2 -->
<g id="node3" class="node">
<title>2</title>
<polygon fill="none" stroke="black" points="381,-351 187,-351 187,-253 381,-253 381,-351"/>
<text text-anchor="middle" x="284" y="-335.8" font-family="Times,serif" font-size="14.00">node #2</text>
<text text-anchor="middle" x="284" y="-320.8" font-family="Times,serif" font-size="14.00">FEFPostVal &lt;= 0.48</text>
<text text-anchor="middle" x="284" y="-305.8" font-family="Times,serif" font-size="14.00">gini = 0.085</text>
<text text-anchor="middle" x="284" y="-290.8" font-family="Times,serif" font-size="14.00">samples = 69</text>
<text text-anchor="middle" x="284" y="-275.8" font-family="Times,serif" font-size="14.00">value = [5.186, 111.012]</text>
<text text-anchor="middle" x="284" y="-260.8" font-family="Times,serif" font-size="14.00">class = Obstructive</text>
</g>
<!-- 1&#45;&gt;2 -->
<g id="edge2" class="edge">
<title>1&#45;&gt;2</title>
<path fill="none" stroke="black" d="M500.07,-392.69C465.05,-378.15 425.77,-361.85 390.4,-347.17"/>
<polygon fill="black" stroke="black" points="391.6,-343.87 381.02,-343.27 388.92,-350.34 391.6,-343.87"/>
</g>
<!-- 7 -->
<g id="node8" class="node">
<title>7</title>
<polygon fill="none" stroke="black" points="700.5,-351 503.5,-351 503.5,-253 700.5,-253 700.5,-351"/>
<text text-anchor="middle" x="602" y="-335.8" font-family="Times,serif" font-size="14.00">node #7</text>
<text text-anchor="middle" x="602" y="-320.8" font-family="Times,serif" font-size="14.00">FVCPostPercent &lt;= 41.5</text>
<text text-anchor="middle" x="602" y="-305.8" font-family="Times,serif" font-size="14.00">gini = 0.5</text>
<text text-anchor="middle" x="602" y="-290.8" font-family="Times,serif" font-size="14.00">samples = 34</text>
<text text-anchor="middle" x="602" y="-275.8" font-family="Times,serif" font-size="14.00">value = [25.932, 26.064]</text>
<text text-anchor="middle" x="602" y="-260.8" font-family="Times,serif" font-size="14.00">class = Obstructive</text>
</g>
<!-- 1&#45;&gt;7 -->
<g id="edge7" class="edge">
<title>1&#45;&gt;7</title>
<path fill="none" stroke="black" d="M602,-386.97C602,-378.69 602,-370 602,-361.48"/>
<polygon fill="black" stroke="black" points="605.5,-361.21 602,-351.21 598.5,-361.21 605.5,-361.21"/>
</g>
<!-- 3 -->
<g id="node4" class="node">
<title>3</title>
<polygon fill="none" stroke="black" points="167.5,-209.5 0.5,-209.5 0.5,-126.5 167.5,-126.5 167.5,-209.5"/>
<text text-anchor="middle" x="84" y="-194.3" font-family="Times,serif" font-size="14.00">node #3</text>
<text text-anchor="middle" x="84" y="-179.3" font-family="Times,serif" font-size="14.00">gini = 0.0</text>
<text text-anchor="middle" x="84" y="-164.3" font-family="Times,serif" font-size="14.00">samples = 23</text>
<text text-anchor="middle" x="84" y="-149.3" font-family="Times,serif" font-size="14.00">value = [0.0, 37.647]</text>
<text text-anchor="middle" x="84" y="-134.3" font-family="Times,serif" font-size="14.00">class = Obstructive</text>
</g>
<!-- 2&#45;&gt;3 -->
<g id="edge3" class="edge">
<title>2&#45;&gt;3</title>
<path fill="none" stroke="black" d="M211.23,-252.97C192.54,-240.63 172.47,-227.39 153.92,-215.15"/>
<polygon fill="black" stroke="black" points="155.79,-212.19 145.52,-209.6 151.94,-218.03 155.79,-212.19"/>
</g>
<!-- 4 -->
<g id="node5" class="node">
<title>4</title>
<polygon fill="none" stroke="black" points="382.5,-217 185.5,-217 185.5,-119 382.5,-119 382.5,-217"/>
<text text-anchor="middle" x="284" y="-201.8" font-family="Times,serif" font-size="14.00">node #4</text>
<text text-anchor="middle" x="284" y="-186.8" font-family="Times,serif" font-size="14.00">FVCPostPercent &lt;= 40.0</text>
<text text-anchor="middle" x="284" y="-171.8" font-family="Times,serif" font-size="14.00">gini = 0.123</text>
<text text-anchor="middle" x="284" y="-156.8" font-family="Times,serif" font-size="14.00">samples = 46</text>
<text text-anchor="middle" x="284" y="-141.8" font-family="Times,serif" font-size="14.00">value = [5.186, 73.364]</text>
<text text-anchor="middle" x="284" y="-126.8" font-family="Times,serif" font-size="14.00">class = Obstructive</text>
</g>
<!-- 2&#45;&gt;4 -->
<g id="edge4" class="edge">
<title>2&#45;&gt;4</title>
<path fill="none" stroke="black" d="M284,-252.97C284,-244.69 284,-236 284,-227.48"/>
<polygon fill="black" stroke="black" points="287.5,-227.21 284,-217.21 280.5,-227.21 287.5,-227.21"/>
</g>
<!-- 5 -->
<g id="node6" class="node">
<title>5</title>
<polygon fill="none" stroke="black" points="188,-83 0,-83 0,0 188,0 188,-83"/>
<text text-anchor="middle" x="94" y="-67.8" font-family="Times,serif" font-size="14.00">node #5</text>
<text text-anchor="middle" x="94" y="-52.8" font-family="Times,serif" font-size="14.00">gini = 0.361</text>
<text text-anchor="middle" x="94" y="-37.8" font-family="Times,serif" font-size="14.00">samples = 3</text>
<text text-anchor="middle" x="94" y="-22.8" font-family="Times,serif" font-size="14.00">value = [3.112, 0.965]</text>
<text text-anchor="middle" x="94" y="-7.8" font-family="Times,serif" font-size="14.00">class = Non&#45;obstructive</text>
</g>
<!-- 4&#45;&gt;5 -->
<g id="edge5" class="edge">
<title>4&#45;&gt;5</title>
<path fill="none" stroke="black" d="M210.54,-118.87C195.44,-108.97 179.57,-98.57 164.57,-88.74"/>
<polygon fill="black" stroke="black" points="166.14,-85.59 155.86,-83.03 162.3,-91.44 166.14,-85.59"/>
</g>
<!-- 6 -->
<g id="node7" class="node">
<title>6</title>
<polygon fill="none" stroke="black" points="391.5,-83 206.5,-83 206.5,0 391.5,0 391.5,-83"/>
<text text-anchor="middle" x="299" y="-67.8" font-family="Times,serif" font-size="14.00">node #6</text>
<text text-anchor="middle" x="299" y="-52.8" font-family="Times,serif" font-size="14.00">gini = 0.054</text>
<text text-anchor="middle" x="299" y="-37.8" font-family="Times,serif" font-size="14.00">samples = 43</text>
<text text-anchor="middle" x="299" y="-22.8" font-family="Times,serif" font-size="14.00">value = [2.075, 72.399]</text>
<text text-anchor="middle" x="299" y="-7.8" font-family="Times,serif" font-size="14.00">class = Obstructive</text>
</g>
<!-- 4&#45;&gt;6 -->
<g id="edge6" class="edge">
<title>4&#45;&gt;6</title>
<path fill="none" stroke="black" d="M289.8,-118.87C290.81,-110.5 291.86,-101.77 292.88,-93.33"/>
<polygon fill="black" stroke="black" points="296.37,-93.58 294.09,-83.23 289.42,-92.74 296.37,-93.58"/>
</g>
<!-- 8 -->
<g id="node9" class="node">
<title>8</title>
<polygon fill="none" stroke="black" points="589,-209.5 401,-209.5 401,-126.5 589,-126.5 589,-209.5"/>
<text text-anchor="middle" x="495" y="-194.3" font-family="Times,serif" font-size="14.00">node #8</text>
<text text-anchor="middle" x="495" y="-179.3" font-family="Times,serif" font-size="14.00">gini = 0.0</text>
<text text-anchor="middle" x="495" y="-164.3" font-family="Times,serif" font-size="14.00">samples = 6</text>
<text text-anchor="middle" x="495" y="-149.3" font-family="Times,serif" font-size="14.00">value = [8.298, 0.0]</text>
<text text-anchor="middle" x="495" y="-134.3" font-family="Times,serif" font-size="14.00">class = Non&#45;obstructive</text>
</g>
<!-- 7&#45;&gt;8 -->
<g id="edge8" class="edge">
<title>7&#45;&gt;8</title>
<path fill="none" stroke="black" d="M563.07,-252.97C553.75,-241.47 543.79,-229.18 534.44,-217.66"/>
<polygon fill="black" stroke="black" points="537.1,-215.38 528.09,-209.82 531.66,-219.79 537.1,-215.38"/>
</g>
<!-- 9 -->
<g id="node10" class="node">
<title>9</title>
<polygon fill="none" stroke="black" points="807,-217 607,-217 607,-119 807,-119 807,-217"/>
<text text-anchor="middle" x="707" y="-201.8" font-family="Times,serif" font-size="14.00">node #9</text>
<text text-anchor="middle" x="707" y="-186.8" font-family="Times,serif" font-size="14.00">FEV1PrePercent &lt;= 52.5</text>
<text text-anchor="middle" x="707" y="-171.8" font-family="Times,serif" font-size="14.00">gini = 0.481</text>
<text text-anchor="middle" x="707" y="-156.8" font-family="Times,serif" font-size="14.00">samples = 28</text>
<text text-anchor="middle" x="707" y="-141.8" font-family="Times,serif" font-size="14.00">value = [17.634, 26.064]</text>
<text text-anchor="middle" x="707" y="-126.8" font-family="Times,serif" font-size="14.00">class = Obstructive</text>
</g>
<!-- 7&#45;&gt;9 -->
<g id="edge9" class="edge">
<title>7&#45;&gt;9</title>
<path fill="none" stroke="black" d="M640.2,-252.97C647.37,-243.96 654.92,-234.47 662.26,-225.24"/>
<polygon fill="black" stroke="black" points="665.16,-227.22 668.65,-217.21 659.68,-222.86 665.16,-227.22"/>
</g>
<!-- 10 -->
<g id="node11" class="node">
<title>10</title>
<polygon fill="none" stroke="black" points="592.5,-83 425.5,-83 425.5,0 592.5,0 592.5,-83"/>
<text text-anchor="middle" x="509" y="-67.8" font-family="Times,serif" font-size="14.00">node #10</text>
<text text-anchor="middle" x="509" y="-52.8" font-family="Times,serif" font-size="14.00">gini = 0.0</text>
<text text-anchor="middle" x="509" y="-37.8" font-family="Times,serif" font-size="14.00">samples = 7</text>
<text text-anchor="middle" x="509" y="-22.8" font-family="Times,serif" font-size="14.00">value = [0.0, 12.549]</text>
<text text-anchor="middle" x="509" y="-7.8" font-family="Times,serif" font-size="14.00">class = Obstructive</text>
</g>
<!-- 9&#45;&gt;10 -->
<g id="edge10" class="edge">
<title>9&#45;&gt;10</title>
<path fill="none" stroke="black" d="M630.45,-118.87C614.56,-108.88 597.86,-98.38 582.11,-88.47"/>
<polygon fill="black" stroke="black" points="583.79,-85.39 573.46,-83.03 580.06,-91.32 583.79,-85.39"/>
</g>
<!-- 11 -->
<g id="node12" class="node">
<title>11</title>
<polygon fill="none" stroke="black" points="804,-83 610,-83 610,0 804,0 804,-83"/>
<text text-anchor="middle" x="707" y="-67.8" font-family="Times,serif" font-size="14.00">node #11</text>
<text text-anchor="middle" x="707" y="-52.8" font-family="Times,serif" font-size="14.00">gini = 0.491</text>
<text text-anchor="middle" x="707" y="-37.8" font-family="Times,serif" font-size="14.00">samples = 21</text>
<text text-anchor="middle" x="707" y="-22.8" font-family="Times,serif" font-size="14.00">value = [17.634, 13.514]</text>
<text text-anchor="middle" x="707" y="-7.8" font-family="Times,serif" font-size="14.00">class = Non&#45;obstructive</text>
</g>
<!-- 9&#45;&gt;11 -->
<g id="edge11" class="edge">
<title>9&#45;&gt;11</title>
<path fill="none" stroke="black" d="M707,-118.87C707,-110.5 707,-101.77 707,-93.33"/>
<polygon fill="black" stroke="black" points="710.5,-93.23 707,-83.23 703.5,-93.23 710.5,-93.23"/>
</g>
<!-- 13 -->
<g id="node14" class="node">
<title>13</title>
<polygon fill="none" stroke="black" points="1300,-351 1106,-351 1106,-253 1300,-253 1300,-351"/>
<text text-anchor="middle" x="1203" y="-335.8" font-family="Times,serif" font-size="14.00">node #13</text>
<text text-anchor="middle" x="1203" y="-320.8" font-family="Times,serif" font-size="14.00">FEFPrePercent &lt;= 56.0</text>
<text text-anchor="middle" x="1203" y="-305.8" font-family="Times,serif" font-size="14.00">gini = 0.101</text>
<text text-anchor="middle" x="1203" y="-290.8" font-family="Times,serif" font-size="14.00">samples = 80</text>
<text text-anchor="middle" x="1203" y="-275.8" font-family="Times,serif" font-size="14.00">value = [119.286, 6.757]</text>
<text text-anchor="middle" x="1203" y="-260.8" font-family="Times,serif" font-size="14.00">class = Non&#45;obstructive</text>
</g>
<!-- 12&#45;&gt;13 -->
<g id="edge13" class="edge">
<title>12&#45;&gt;13</title>
<path fill="none" stroke="black" d="M1203,-386.97C1203,-378.69 1203,-370 1203,-361.48"/>
<polygon fill="black" stroke="black" points="1206.5,-361.21 1203,-351.21 1199.5,-361.21 1206.5,-361.21"/>
</g>
<!-- 20 -->
<g id="node21" class="node">
<title>20</title>
<polygon fill="none" stroke="black" points="1915,-351 1721,-351 1721,-253 1915,-253 1915,-351"/>
<text text-anchor="middle" x="1818" y="-335.8" font-family="Times,serif" font-size="14.00">node #20</text>
<text text-anchor="middle" x="1818" y="-320.8" font-family="Times,serif" font-size="14.00">FEFPreVal &lt;= 2.885</text>
<text text-anchor="middle" x="1818" y="-305.8" font-family="Times,serif" font-size="14.00">gini = 0.486</text>
<text text-anchor="middle" x="1818" y="-290.8" font-family="Times,serif" font-size="14.00">samples = 26</text>
<text text-anchor="middle" x="1818" y="-275.8" font-family="Times,serif" font-size="14.00">value = [16.596, 23.168]</text>
<text text-anchor="middle" x="1818" y="-260.8" font-family="Times,serif" font-size="14.00">class = Obstructive</text>
</g>
<!-- 12&#45;&gt;20 -->
<g id="edge20" class="edge">
<title>12&#45;&gt;20</title>
<path fill="none" stroke="black" d="M1304.55,-413.2C1416.77,-389.12 1596.7,-350.5 1711.04,-325.96"/>
<polygon fill="black" stroke="black" points="1711.82,-329.37 1720.86,-323.85 1710.35,-322.53 1711.82,-329.37"/>
</g>
<!-- 14 -->
<g id="node15" class="node">
<title>14</title>
<polygon fill="none" stroke="black" points="1193.5,-217 1002.5,-217 1002.5,-119 1193.5,-119 1193.5,-217"/>
<text text-anchor="middle" x="1098" y="-201.8" font-family="Times,serif" font-size="14.00">node #14</text>
<text text-anchor="middle" x="1098" y="-186.8" font-family="Times,serif" font-size="14.00">FVCPrePercent &lt;= 53.5</text>
<text text-anchor="middle" x="1098" y="-171.8" font-family="Times,serif" font-size="14.00">gini = 0.334</text>
<text text-anchor="middle" x="1098" y="-156.8" font-family="Times,serif" font-size="14.00">samples = 4</text>
<text text-anchor="middle" x="1098" y="-141.8" font-family="Times,serif" font-size="14.00">value = [1.037, 3.861]</text>
<text text-anchor="middle" x="1098" y="-126.8" font-family="Times,serif" font-size="14.00">class = Obstructive</text>
</g>
<!-- 13&#45;&gt;14 -->
<g id="edge14" class="edge">
<title>13&#45;&gt;14</title>
<path fill="none" stroke="black" d="M1164.8,-252.97C1157.63,-243.96 1150.08,-234.47 1142.74,-225.24"/>
<polygon fill="black" stroke="black" points="1145.32,-222.86 1136.35,-217.21 1139.84,-227.22 1145.32,-222.86"/>
</g>
<!-- 17 -->
<g id="node18" class="node">
<title>17</title>
<polygon fill="none" stroke="black" points="1406,-217 1212,-217 1212,-119 1406,-119 1406,-217"/>
<text text-anchor="middle" x="1309" y="-201.8" font-family="Times,serif" font-size="14.00">node #17</text>
<text text-anchor="middle" x="1309" y="-186.8" font-family="Times,serif" font-size="14.00">FEV1PreVal &lt;= 1.995</text>
<text text-anchor="middle" x="1309" y="-171.8" font-family="Times,serif" font-size="14.00">gini = 0.047</text>
<text text-anchor="middle" x="1309" y="-156.8" font-family="Times,serif" font-size="14.00">samples = 76</text>
<text text-anchor="middle" x="1309" y="-141.8" font-family="Times,serif" font-size="14.00">value = [118.248, 2.896]</text>
<text text-anchor="middle" x="1309" y="-126.8" font-family="Times,serif" font-size="14.00">class = Non&#45;obstructive</text>
</g>
<!-- 13&#45;&gt;17 -->
<g id="edge17" class="edge">
<title>13&#45;&gt;17</title>
<path fill="none" stroke="black" d="M1241.57,-252.97C1248.8,-243.96 1256.42,-234.47 1263.84,-225.24"/>
<polygon fill="black" stroke="black" points="1266.75,-227.2 1270.28,-217.21 1261.29,-222.82 1266.75,-227.2"/>
</g>
<!-- 15 -->
<g id="node16" class="node">
<title>15</title>
<polygon fill="none" stroke="black" points="1010,-83 822,-83 822,0 1010,0 1010,-83"/>
<text text-anchor="middle" x="916" y="-67.8" font-family="Times,serif" font-size="14.00">node #15</text>
<text text-anchor="middle" x="916" y="-52.8" font-family="Times,serif" font-size="14.00">gini = 0.0</text>
<text text-anchor="middle" x="916" y="-37.8" font-family="Times,serif" font-size="14.00">samples = 1</text>
<text text-anchor="middle" x="916" y="-22.8" font-family="Times,serif" font-size="14.00">value = [1.037, 0.0]</text>
<text text-anchor="middle" x="916" y="-7.8" font-family="Times,serif" font-size="14.00">class = Non&#45;obstructive</text>
</g>
<!-- 14&#45;&gt;15 -->
<g id="edge15" class="edge">
<title>14&#45;&gt;15</title>
<path fill="none" stroke="black" d="M1027.63,-118.87C1013.17,-108.97 997.97,-98.57 983.6,-88.74"/>
<polygon fill="black" stroke="black" points="985.48,-85.79 975.25,-83.03 981.53,-91.57 985.48,-85.79"/>
</g>
<!-- 16 -->
<g id="node17" class="node">
<title>16</title>
<polygon fill="none" stroke="black" points="1186,-83 1028,-83 1028,0 1186,0 1186,-83"/>
<text text-anchor="middle" x="1107" y="-67.8" font-family="Times,serif" font-size="14.00">node #16</text>
<text text-anchor="middle" x="1107" y="-52.8" font-family="Times,serif" font-size="14.00">gini = &#45;0.0</text>
<text text-anchor="middle" x="1107" y="-37.8" font-family="Times,serif" font-size="14.00">samples = 3</text>
<text text-anchor="middle" x="1107" y="-22.8" font-family="Times,serif" font-size="14.00">value = [0.0, 3.861]</text>
<text text-anchor="middle" x="1107" y="-7.8" font-family="Times,serif" font-size="14.00">class = Obstructive</text>
</g>
<!-- 14&#45;&gt;16 -->
<g id="edge16" class="edge">
<title>14&#45;&gt;16</title>
<path fill="none" stroke="black" d="M1101.48,-118.87C1102.08,-110.5 1102.72,-101.77 1103.33,-93.33"/>
<polygon fill="black" stroke="black" points="1106.83,-93.46 1104.06,-83.23 1099.84,-92.95 1106.83,-93.46"/>
</g>
<!-- 18 -->
<g id="node19" class="node">
<title>18</title>
<polygon fill="none" stroke="black" points="1398,-83 1204,-83 1204,0 1398,0 1398,-83"/>
<text text-anchor="middle" x="1301" y="-67.8" font-family="Times,serif" font-size="14.00">node #18</text>
<text text-anchor="middle" x="1301" y="-52.8" font-family="Times,serif" font-size="14.00">gini = 0.018</text>
<text text-anchor="middle" x="1301" y="-37.8" font-family="Times,serif" font-size="14.00">samples = 66</text>
<text text-anchor="middle" x="1301" y="-22.8" font-family="Times,serif" font-size="14.00">value = [104.764, 0.965]</text>
<text text-anchor="middle" x="1301" y="-7.8" font-family="Times,serif" font-size="14.00">class = Non&#45;obstructive</text>
</g>
<!-- 17&#45;&gt;18 -->
<g id="edge18" class="edge">
<title>17&#45;&gt;18</title>
<path fill="none" stroke="black" d="M1305.91,-118.87C1305.37,-110.5 1304.81,-101.77 1304.27,-93.33"/>
<polygon fill="black" stroke="black" points="1307.75,-92.99 1303.62,-83.23 1300.77,-93.43 1307.75,-92.99"/>
</g>
<!-- 19 -->
<g id="node20" class="node">
<title>19</title>
<polygon fill="none" stroke="black" points="1604,-83 1416,-83 1416,0 1604,0 1604,-83"/>
<text text-anchor="middle" x="1510" y="-67.8" font-family="Times,serif" font-size="14.00">node #19</text>
<text text-anchor="middle" x="1510" y="-52.8" font-family="Times,serif" font-size="14.00">gini = 0.219</text>
<text text-anchor="middle" x="1510" y="-37.8" font-family="Times,serif" font-size="14.00">samples = 10</text>
<text text-anchor="middle" x="1510" y="-22.8" font-family="Times,serif" font-size="14.00">value = [13.484, 1.931]</text>
<text text-anchor="middle" x="1510" y="-7.8" font-family="Times,serif" font-size="14.00">class = Non&#45;obstructive</text>
</g>
<!-- 17&#45;&gt;19 -->
<g id="edge19" class="edge">
<title>17&#45;&gt;19</title>
<path fill="none" stroke="black" d="M1386.71,-118.87C1402.84,-108.88 1419.79,-98.38 1435.78,-88.47"/>
<polygon fill="black" stroke="black" points="1437.9,-91.27 1444.56,-83.03 1434.22,-85.32 1437.9,-91.27"/>
</g>
<!-- 21 -->
<g id="node22" class="node">
<title>21</title>
<polygon fill="none" stroke="black" points="1910.5,-217 1725.5,-217 1725.5,-119 1910.5,-119 1910.5,-217"/>
<text text-anchor="middle" x="1818" y="-201.8" font-family="Times,serif" font-size="14.00">node #21</text>
<text text-anchor="middle" x="1818" y="-186.8" font-family="Times,serif" font-size="14.00">FEV1PreVal &lt;= 2.38</text>
<text text-anchor="middle" x="1818" y="-171.8" font-family="Times,serif" font-size="14.00">gini = 0.231</text>
<text text-anchor="middle" x="1818" y="-156.8" font-family="Times,serif" font-size="14.00">samples = 11</text>
<text text-anchor="middle" x="1818" y="-141.8" font-family="Times,serif" font-size="14.00">value = [2.075, 13.514]</text>
<text text-anchor="middle" x="1818" y="-126.8" font-family="Times,serif" font-size="14.00">class = Obstructive</text>
</g>
<!-- 20&#45;&gt;21 -->
<g id="edge21" class="edge">
<title>20&#45;&gt;21</title>
<path fill="none" stroke="black" d="M1818,-252.97C1818,-244.69 1818,-236 1818,-227.48"/>
<polygon fill="black" stroke="black" points="1821.5,-227.21 1818,-217.21 1814.5,-227.21 1821.5,-227.21"/>
</g>
<!-- 24 -->
<g id="node25" class="node">
<title>24</title>
<polygon fill="none" stroke="black" points="2220,-217 2032,-217 2032,-119 2220,-119 2220,-217"/>
<text text-anchor="middle" x="2126" y="-201.8" font-family="Times,serif" font-size="14.00">node #24</text>
<text text-anchor="middle" x="2126" y="-186.8" font-family="Times,serif" font-size="14.00">FEV1PostVal &lt;= 3.53</text>
<text text-anchor="middle" x="2126" y="-171.8" font-family="Times,serif" font-size="14.00">gini = 0.48</text>
<text text-anchor="middle" x="2126" y="-156.8" font-family="Times,serif" font-size="14.00">samples = 15</text>
<text text-anchor="middle" x="2126" y="-141.8" font-family="Times,serif" font-size="14.00">value = [14.522, 9.653]</text>
<text text-anchor="middle" x="2126" y="-126.8" font-family="Times,serif" font-size="14.00">class = Non&#45;obstructive</text>
</g>
<!-- 20&#45;&gt;24 -->
<g id="edge24" class="edge">
<title>20&#45;&gt;24</title>
<path fill="none" stroke="black" d="M1915.03,-259.42C1949.26,-244.74 1987.87,-228.2 2022.61,-213.31"/>
<polygon fill="black" stroke="black" points="2024.01,-216.52 2031.83,-209.36 2021.26,-210.08 2024.01,-216.52"/>
</g>
<!-- 22 -->
<g id="node23" class="node">
<title>22</title>
<polygon fill="none" stroke="black" points="1810,-83 1622,-83 1622,0 1810,0 1810,-83"/>
<text text-anchor="middle" x="1716" y="-67.8" font-family="Times,serif" font-size="14.00">node #22</text>
<text text-anchor="middle" x="1716" y="-52.8" font-family="Times,serif" font-size="14.00">gini = 0.0</text>
<text text-anchor="middle" x="1716" y="-37.8" font-family="Times,serif" font-size="14.00">samples = 1</text>
<text text-anchor="middle" x="1716" y="-22.8" font-family="Times,serif" font-size="14.00">value = [1.037, 0.0]</text>
<text text-anchor="middle" x="1716" y="-7.8" font-family="Times,serif" font-size="14.00">class = Non&#45;obstructive</text>
</g>
<!-- 21&#45;&gt;22 -->
<g id="edge22" class="edge">
<title>21&#45;&gt;22</title>
<path fill="none" stroke="black" d="M1778.56,-118.87C1771.11,-109.76 1763.3,-100.23 1755.83,-91.12"/>
<polygon fill="black" stroke="black" points="1758.41,-88.75 1749.37,-83.23 1753,-93.18 1758.41,-88.75"/>
</g>
<!-- 23 -->
<g id="node24" class="node">
<title>23</title>
<polygon fill="none" stroke="black" points="2013.5,-83 1828.5,-83 1828.5,0 2013.5,0 2013.5,-83"/>
<text text-anchor="middle" x="1921" y="-67.8" font-family="Times,serif" font-size="14.00">node #23</text>
<text text-anchor="middle" x="1921" y="-52.8" font-family="Times,serif" font-size="14.00">gini = 0.132</text>
<text text-anchor="middle" x="1921" y="-37.8" font-family="Times,serif" font-size="14.00">samples = 10</text>
<text text-anchor="middle" x="1921" y="-22.8" font-family="Times,serif" font-size="14.00">value = [1.037, 13.514]</text>
<text text-anchor="middle" x="1921" y="-7.8" font-family="Times,serif" font-size="14.00">class = Obstructive</text>
</g>
<!-- 21&#45;&gt;23 -->
<g id="edge23" class="edge">
<title>21&#45;&gt;23</title>
<path fill="none" stroke="black" d="M1857.82,-118.87C1865.35,-109.76 1873.24,-100.23 1880.78,-91.12"/>
<polygon fill="black" stroke="black" points="1883.63,-93.17 1887.3,-83.23 1878.23,-88.7 1883.63,-93.17"/>
</g>
<!-- 25 -->
<g id="node26" class="node">
<title>25</title>
<polygon fill="none" stroke="black" points="2220,-83 2032,-83 2032,0 2220,0 2220,-83"/>
<text text-anchor="middle" x="2126" y="-67.8" font-family="Times,serif" font-size="14.00">node #25</text>
<text text-anchor="middle" x="2126" y="-52.8" font-family="Times,serif" font-size="14.00">gini = 0.408</text>
<text text-anchor="middle" x="2126" y="-37.8" font-family="Times,serif" font-size="14.00">samples = 13</text>
<text text-anchor="middle" x="2126" y="-22.8" font-family="Times,serif" font-size="14.00">value = [14.522, 5.792]</text>
<text text-anchor="middle" x="2126" y="-7.8" font-family="Times,serif" font-size="14.00">class = Non&#45;obstructive</text>
</g>
<!-- 24&#45;&gt;25 -->
<g id="edge25" class="edge">
<title>24&#45;&gt;25</title>
<path fill="none" stroke="black" d="M2126,-118.87C2126,-110.5 2126,-101.77 2126,-93.33"/>
<polygon fill="black" stroke="black" points="2129.5,-93.23 2126,-83.23 2122.5,-93.23 2129.5,-93.23"/>
</g>
<!-- 26 -->
<g id="node27" class="node">
<title>26</title>
<polygon fill="none" stroke="black" points="2396,-83 2238,-83 2238,0 2396,0 2396,-83"/>
<text text-anchor="middle" x="2317" y="-67.8" font-family="Times,serif" font-size="14.00">node #26</text>
<text text-anchor="middle" x="2317" y="-52.8" font-family="Times,serif" font-size="14.00">gini = 0.0</text>
<text text-anchor="middle" x="2317" y="-37.8" font-family="Times,serif" font-size="14.00">samples = 2</text>
<text text-anchor="middle" x="2317" y="-22.8" font-family="Times,serif" font-size="14.00">value = [0.0, 3.861]</text>
<text text-anchor="middle" x="2317" y="-7.8" font-family="Times,serif" font-size="14.00">class = Obstructive</text>
</g>
<!-- 24&#45;&gt;26 -->
<g id="edge26" class="edge">
<title>24&#45;&gt;26</title>
<path fill="none" stroke="black" d="M2199.85,-118.87C2215.03,-108.97 2230.98,-98.57 2246.05,-88.74"/>
<polygon fill="black" stroke="black" points="2248.35,-91.43 2254.82,-83.03 2244.53,-85.56 2248.35,-91.43"/>
</g>
</g>
</svg>
