<?xml version="1.0" encoding="UTF-8" standalone="no"?>
<!DOCTYPE svg PUBLIC "-//W3C//DTD SVG 1.1//EN"
 "http://www.w3.org/Graphics/SVG/1.1/DTD/svg11.dtd">
<!-- Generated by graphviz version 2.43.0 (0)
 -->
<!-- Title: Tree Pages: 1 -->
<svg width="2394pt" height="627pt"
 viewBox="0.00 0.00 2394.00 627.00" xmlns="http://www.w3.org/2000/svg" xmlns:xlink="http://www.w3.org/1999/xlink">
<g id="graph0" class="graph" transform="scale(1 1) rotate(0) translate(4 623)">
<title>Tree</title>
<polygon fill="white" stroke="transparent" points="-4,4 -4,-623 2390,-623 2390,4 -4,4"/>
<!-- 0 -->
<g id="node1" class="node">
<title>0</title>
<polygon fill="none" stroke="black" points="1191.5,-619 994.5,-619 994.5,-521 1191.5,-521 1191.5,-619"/>
<text text-anchor="middle" x="1093" y="-603.8" font-family="Times,serif" font-size="14.00">node #0</text>
<text text-anchor="middle" x="1093" y="-588.8" font-family="Times,serif" font-size="14.00">FEFPostPercent &lt;= 42.0</text>
<text text-anchor="middle" x="1093" y="-573.8" font-family="Times,serif" font-size="14.00">gini = 0.5</text>
<text text-anchor="middle" x="1093" y="-558.8" font-family="Times,serif" font-size="14.00">samples = 213</text>
<text text-anchor="middle" x="1093" y="-543.8" font-family="Times,serif" font-size="14.00">value = [167.0, 167.0]</text>
<text text-anchor="middle" x="1093" y="-528.8" font-family="Times,serif" font-size="14.00">class = Non&#45;obstructive</text>
</g>
<!-- 1 -->
<g id="node2" class="node">
<title>1</title>
<polygon fill="none" stroke="black" points="909.5,-485 706.5,-485 706.5,-387 909.5,-387 909.5,-485"/>
<text text-anchor="middle" x="808" y="-469.8" font-family="Times,serif" font-size="14.00">node #1</text>
<text text-anchor="middle" x="808" y="-454.8" font-family="Times,serif" font-size="14.00">FVCPrePercent &lt;= 38.5</text>
<text text-anchor="middle" x="808" y="-439.8" font-family="Times,serif" font-size="14.00">gini = 0.259</text>
<text text-anchor="middle" x="808" y="-424.8" font-family="Times,serif" font-size="14.00">samples = 76</text>
<text text-anchor="middle" x="808" y="-409.8" font-family="Times,serif" font-size="14.00">value = [19.195, 106.463]</text>
<text text-anchor="middle" x="808" y="-394.8" font-family="Times,serif" font-size="14.00">class = Obstructive</text>
</g>
<!-- 0&#45;&gt;1 -->
<g id="edge1" class="edge">
<title>0&#45;&gt;1</title>
<path fill="none" stroke="black" d="M994.12,-523.2C969.78,-511.93 943.56,-499.78 918.7,-488.27"/>
<polygon fill="black" stroke="black" points="920.15,-485.09 909.61,-484.06 917.21,-491.44 920.15,-485.09"/>
<text text-anchor="middle" x="918.22" y="-503.83" font-family="Times,serif" font-size="14.00">True</text>
</g>
<!-- 14 -->
<g id="node15" class="node">
<title>14</title>
<polygon fill="none" stroke="black" points="1532.5,-485 1329.5,-485 1329.5,-387 1532.5,-387 1532.5,-485"/>
<text text-anchor="middle" x="1431" y="-469.8" font-family="Times,serif" font-size="14.00">node #14</text>
<text text-anchor="middle" x="1431" y="-454.8" font-family="Times,serif" font-size="14.00">FVCPrePercent &lt;= 61.5</text>
<text text-anchor="middle" x="1431" y="-439.8" font-family="Times,serif" font-size="14.00">gini = 0.412</text>
<text text-anchor="middle" x="1431" y="-424.8" font-family="Times,serif" font-size="14.00">samples = 137</text>
<text text-anchor="middle" x="1431" y="-409.8" font-family="Times,serif" font-size="14.00">value = [147.805, 60.538]</text>
<text text-anchor="middle" x="1431" y="-394.8" font-family="Times,serif" font-size="14.00">class = Non&#45;obstructive</text>
</g>
<!-- 0&#45;&gt;14 -->
<g id="edge14" class="edge">
<title>0&#45;&gt;14</title>
<path fill="none" stroke="black" d="M1191.67,-530.47C1231.8,-514.79 1278.38,-496.6 1319.71,-480.46"/>
<polygon fill="black" stroke="black" points="1321.23,-483.63 1329.27,-476.73 1318.68,-477.11 1321.23,-483.63"/>
<text text-anchor="middle" x="1319.23" y="-495.93" font-family="Times,serif" font-size="14.00">False</text>
</g>
<!-- 2 -->
<g id="node3" class="node">
<title>2</title>
<polygon fill="none" stroke="black" points="394,-351 206,-351 206,-253 394,-253 394,-351"/>
<text text-anchor="middle" x="300" y="-335.8" font-family="Times,serif" font-size="14.00">node #2</text>
<text text-anchor="middle" x="300" y="-320.8" font-family="Times,serif" font-size="14.00">FVCPostVal &lt;= 0.985</text>
<text text-anchor="middle" x="300" y="-305.8" font-family="Times,serif" font-size="14.00">gini = 0.353</text>
<text text-anchor="middle" x="300" y="-290.8" font-family="Times,serif" font-size="14.00">samples = 9</text>
<text text-anchor="middle" x="300" y="-275.8" font-family="Times,serif" font-size="14.00">value = [10.557, 3.131]</text>
<text text-anchor="middle" x="300" y="-260.8" font-family="Times,serif" font-size="14.00">class = Non&#45;obstructive</text>
</g>
<!-- 1&#45;&gt;2 -->
<g id="edge2" class="edge">
<title>1&#45;&gt;2</title>
<path fill="none" stroke="black" d="M706.42,-408.61C618.65,-385.8 492.34,-352.98 403.9,-330"/>
<polygon fill="black" stroke="black" points="404.68,-326.58 394.12,-327.46 402.92,-333.36 404.68,-326.58"/>
</g>
<!-- 7 -->
<g id="node8" class="node">
<title>7</title>
<polygon fill="none" stroke="black" points="906.5,-351 709.5,-351 709.5,-253 906.5,-253 906.5,-351"/>
<text text-anchor="middle" x="808" y="-335.8" font-family="Times,serif" font-size="14.00">node #7</text>
<text text-anchor="middle" x="808" y="-320.8" font-family="Times,serif" font-size="14.00">FVCPostPercent &lt;= 63.5</text>
<text text-anchor="middle" x="808" y="-305.8" font-family="Times,serif" font-size="14.00">gini = 0.142</text>
<text text-anchor="middle" x="808" y="-290.8" font-family="Times,serif" font-size="14.00">samples = 67</text>
<text text-anchor="middle" x="808" y="-275.8" font-family="Times,serif" font-size="14.00">value = [8.638, 103.331]</text>
<text text-anchor="middle" x="808" y="-260.8" font-family="Times,serif" font-size="14.00">class = Obstructive</text>
</g>
<!-- 1&#45;&gt;7 -->
<g id="edge7" class="edge">
<title>1&#45;&gt;7</title>
<path fill="none" stroke="black" d="M808,-386.97C808,-378.69 808,-370 808,-361.48"/>
<polygon fill="black" stroke="black" points="811.5,-361.21 808,-351.21 804.5,-361.21 811.5,-361.21"/>
</g>
<!-- 3 -->
<g id="node4" class="node">
<title>3</title>
<polygon fill="none" stroke="black" points="188,-209.5 0,-209.5 0,-126.5 188,-126.5 188,-209.5"/>
<text text-anchor="middle" x="94" y="-194.3" font-family="Times,serif" font-size="14.00">node #3</text>
<text text-anchor="middle" x="94" y="-179.3" font-family="Times,serif" font-size="14.00">gini = 0.0</text>
<text text-anchor="middle" x="94" y="-164.3" font-family="Times,serif" font-size="14.00">samples = 3</text>
<text text-anchor="middle" x="94" y="-149.3" font-family="Times,serif" font-size="14.00">value = [6.718, 0.0]</text>
<text text-anchor="middle" x="94" y="-134.3" font-family="Times,serif" font-size="14.00">class = Non&#45;obstructive</text>
</g>
<!-- 2&#45;&gt;3 -->
<g id="edge3" class="edge">
<title>2&#45;&gt;3</title>
<path fill="none" stroke="black" d="M225.05,-252.97C205.79,-240.63 185.12,-227.39 166.02,-215.15"/>
<polygon fill="black" stroke="black" points="167.67,-212.05 157.37,-209.6 163.9,-217.95 167.67,-212.05"/>
</g>
<!-- 4 -->
<g id="node5" class="node">
<title>4</title>
<polygon fill="none" stroke="black" points="394,-217 206,-217 206,-119 394,-119 394,-217"/>
<text text-anchor="middle" x="300" y="-201.8" font-family="Times,serif" font-size="14.00">node #4</text>
<text text-anchor="middle" x="300" y="-186.8" font-family="Times,serif" font-size="14.00">FEV1PostVal &lt;= 0.84</text>
<text text-anchor="middle" x="300" y="-171.8" font-family="Times,serif" font-size="14.00">gini = 0.495</text>
<text text-anchor="middle" x="300" y="-156.8" font-family="Times,serif" font-size="14.00">samples = 6</text>
<text text-anchor="middle" x="300" y="-141.8" font-family="Times,serif" font-size="14.00">value = [3.839, 3.131]</text>
<text text-anchor="middle" x="300" y="-126.8" font-family="Times,serif" font-size="14.00">class = Non&#45;obstructive</text>
</g>
<!-- 2&#45;&gt;4 -->
<g id="edge4" class="edge">
<title>2&#45;&gt;4</title>
<path fill="none" stroke="black" d="M300,-252.97C300,-244.69 300,-236 300,-227.48"/>
<polygon fill="black" stroke="black" points="303.5,-227.21 300,-217.21 296.5,-227.21 303.5,-227.21"/>
</g>
<!-- 5 -->
<g id="node6" class="node">
<title>5</title>
<polygon fill="none" stroke="black" points="188,-83 30,-83 30,0 188,0 188,-83"/>
<text text-anchor="middle" x="109" y="-67.8" font-family="Times,serif" font-size="14.00">node #5</text>
<text text-anchor="middle" x="109" y="-52.8" font-family="Times,serif" font-size="14.00">gini = 0.0</text>
<text text-anchor="middle" x="109" y="-37.8" font-family="Times,serif" font-size="14.00">samples = 3</text>
<text text-anchor="middle" x="109" y="-22.8" font-family="Times,serif" font-size="14.00">value = [0.0, 3.131]</text>
<text text-anchor="middle" x="109" y="-7.8" font-family="Times,serif" font-size="14.00">class = Obstructive</text>
</g>
<!-- 4&#45;&gt;5 -->
<g id="edge5" class="edge">
<title>4&#45;&gt;5</title>
<path fill="none" stroke="black" d="M226.15,-118.87C210.97,-108.97 195.02,-98.57 179.95,-88.74"/>
<polygon fill="black" stroke="black" points="181.47,-85.56 171.18,-83.03 177.65,-91.43 181.47,-85.56"/>
</g>
<!-- 6 -->
<g id="node7" class="node">
<title>6</title>
<polygon fill="none" stroke="black" points="394,-83 206,-83 206,0 394,0 394,-83"/>
<text text-anchor="middle" x="300" y="-67.8" font-family="Times,serif" font-size="14.00">node #6</text>
<text text-anchor="middle" x="300" y="-52.8" font-family="Times,serif" font-size="14.00">gini = 0.0</text>
<text text-anchor="middle" x="300" y="-37.8" font-family="Times,serif" font-size="14.00">samples = 3</text>
<text text-anchor="middle" x="300" y="-22.8" font-family="Times,serif" font-size="14.00">value = [3.839, 0.0]</text>
<text text-anchor="middle" x="300" y="-7.8" font-family="Times,serif" font-size="14.00">class = Non&#45;obstructive</text>
</g>
<!-- 4&#45;&gt;6 -->
<g id="edge6" class="edge">
<title>4&#45;&gt;6</title>
<path fill="none" stroke="black" d="M300,-118.87C300,-110.5 300,-101.77 300,-93.33"/>
<polygon fill="black" stroke="black" points="303.5,-93.23 300,-83.23 296.5,-93.23 303.5,-93.23"/>
</g>
<!-- 8 -->
<g id="node9" class="node">
<title>8</title>
<polygon fill="none" stroke="black" points="801.5,-217 616.5,-217 616.5,-119 801.5,-119 801.5,-217"/>
<text text-anchor="middle" x="709" y="-201.8" font-family="Times,serif" font-size="14.00">node #8</text>
<text text-anchor="middle" x="709" y="-186.8" font-family="Times,serif" font-size="14.00">FEFPreVal &lt;= 0.84</text>
<text text-anchor="middle" x="709" y="-171.8" font-family="Times,serif" font-size="14.00">gini = 0.298</text>
<text text-anchor="middle" x="709" y="-156.8" font-family="Times,serif" font-size="14.00">samples = 27</text>
<text text-anchor="middle" x="709" y="-141.8" font-family="Times,serif" font-size="14.00">value = [7.678, 34.444]</text>
<text text-anchor="middle" x="709" y="-126.8" font-family="Times,serif" font-size="14.00">class = Obstructive</text>
</g>
<!-- 7&#45;&gt;8 -->
<g id="edge8" class="edge">
<title>7&#45;&gt;8</title>
<path fill="none" stroke="black" d="M771.98,-252.97C765.22,-243.96 758.1,-234.47 751.18,-225.24"/>
<polygon fill="black" stroke="black" points="753.96,-223.11 745.16,-217.21 748.36,-227.31 753.96,-223.11"/>
</g>
<!-- 11 -->
<g id="node12" class="node">
<title>11</title>
<polygon fill="none" stroke="black" points="995,-217 819,-217 819,-119 995,-119 995,-217"/>
<text text-anchor="middle" x="907" y="-201.8" font-family="Times,serif" font-size="14.00">node #11</text>
<text text-anchor="middle" x="907" y="-186.8" font-family="Times,serif" font-size="14.00">FVCPostVal &lt;= 1.575</text>
<text text-anchor="middle" x="907" y="-171.8" font-family="Times,serif" font-size="14.00">gini = 0.027</text>
<text text-anchor="middle" x="907" y="-156.8" font-family="Times,serif" font-size="14.00">samples = 40</text>
<text text-anchor="middle" x="907" y="-141.8" font-family="Times,serif" font-size="14.00">value = [0.96, 68.888]</text>
<text text-anchor="middle" x="907" y="-126.8" font-family="Times,serif" font-size="14.00">class = Obstructive</text>
</g>
<!-- 7&#45;&gt;11 -->
<g id="edge11" class="edge">
<title>7&#45;&gt;11</title>
<path fill="none" stroke="black" d="M844.02,-252.97C850.78,-243.96 857.9,-234.47 864.82,-225.24"/>
<polygon fill="black" stroke="black" points="867.64,-227.31 870.84,-217.21 862.04,-223.11 867.64,-227.31"/>
</g>
<!-- 9 -->
<g id="node10" class="node">
<title>9</title>
<polygon fill="none" stroke="black" points="597.5,-83 412.5,-83 412.5,0 597.5,0 597.5,-83"/>
<text text-anchor="middle" x="505" y="-67.8" font-family="Times,serif" font-size="14.00">node #9</text>
<text text-anchor="middle" x="505" y="-52.8" font-family="Times,serif" font-size="14.00">gini = 0.142</text>
<text text-anchor="middle" x="505" y="-37.8" font-family="Times,serif" font-size="14.00">samples = 23</text>
<text text-anchor="middle" x="505" y="-22.8" font-family="Times,serif" font-size="14.00">value = [2.879, 34.444]</text>
<text text-anchor="middle" x="505" y="-7.8" font-family="Times,serif" font-size="14.00">class = Obstructive</text>
</g>
<!-- 8&#45;&gt;9 -->
<g id="edge9" class="edge">
<title>8&#45;&gt;9</title>
<path fill="none" stroke="black" d="M630.13,-118.87C613.76,-108.88 596.56,-98.38 580.32,-88.47"/>
<polygon fill="black" stroke="black" points="581.77,-85.25 571.41,-83.03 578.13,-91.23 581.77,-85.25"/>
</g>
<!-- 10 -->
<g id="node11" class="node">
<title>10</title>
<polygon fill="none" stroke="black" points="804,-83 616,-83 616,0 804,0 804,-83"/>
<text text-anchor="middle" x="710" y="-67.8" font-family="Times,serif" font-size="14.00">node #10</text>
<text text-anchor="middle" x="710" y="-52.8" font-family="Times,serif" font-size="14.00">gini = 0.0</text>
<text text-anchor="middle" x="710" y="-37.8" font-family="Times,serif" font-size="14.00">samples = 4</text>
<text text-anchor="middle" x="710" y="-22.8" font-family="Times,serif" font-size="14.00">value = [4.799, 0.0]</text>
<text text-anchor="middle" x="710" y="-7.8" font-family="Times,serif" font-size="14.00">class = Non&#45;obstructive</text>
</g>
<!-- 8&#45;&gt;10 -->
<g id="edge10" class="edge">
<title>8&#45;&gt;10</title>
<path fill="none" stroke="black" d="M709.39,-118.87C709.45,-110.5 709.52,-101.77 709.59,-93.33"/>
<polygon fill="black" stroke="black" points="713.09,-93.26 709.67,-83.23 706.09,-93.2 713.09,-93.26"/>
</g>
<!-- 12 -->
<g id="node13" class="node">
<title>12</title>
<polygon fill="none" stroke="black" points="989.5,-83 822.5,-83 822.5,0 989.5,0 989.5,-83"/>
<text text-anchor="middle" x="906" y="-67.8" font-family="Times,serif" font-size="14.00">node #12</text>
<text text-anchor="middle" x="906" y="-52.8" font-family="Times,serif" font-size="14.00">gini = 0.262</text>
<text text-anchor="middle" x="906" y="-37.8" font-family="Times,serif" font-size="14.00">samples = 3</text>
<text text-anchor="middle" x="906" y="-22.8" font-family="Times,serif" font-size="14.00">value = [0.96, 5.219]</text>
<text text-anchor="middle" x="906" y="-7.8" font-family="Times,serif" font-size="14.00">class = Obstructive</text>
</g>
<!-- 11&#45;&gt;12 -->
<g id="edge12" class="edge">
<title>11&#45;&gt;12</title>
<path fill="none" stroke="black" d="M906.61,-118.87C906.55,-110.5 906.48,-101.77 906.41,-93.33"/>
<polygon fill="black" stroke="black" points="909.91,-93.2 906.33,-83.23 902.91,-93.26 909.91,-93.2"/>
</g>
<!-- 13 -->
<g id="node14" class="node">
<title>13</title>
<polygon fill="none" stroke="black" points="1174.5,-83 1007.5,-83 1007.5,0 1174.5,0 1174.5,-83"/>
<text text-anchor="middle" x="1091" y="-67.8" font-family="Times,serif" font-size="14.00">node #13</text>
<text text-anchor="middle" x="1091" y="-52.8" font-family="Times,serif" font-size="14.00">gini = 0.0</text>
<text text-anchor="middle" x="1091" y="-37.8" font-family="Times,serif" font-size="14.00">samples = 37</text>
<text text-anchor="middle" x="1091" y="-22.8" font-family="Times,serif" font-size="14.00">value = [0.0, 63.669]</text>
<text text-anchor="middle" x="1091" y="-7.8" font-family="Times,serif" font-size="14.00">class = Obstructive</text>
</g>
<!-- 11&#45;&gt;13 -->
<g id="edge13" class="edge">
<title>11&#45;&gt;13</title>
<path fill="none" stroke="black" d="M978.14,-118.87C992.76,-108.97 1008.13,-98.57 1022.65,-88.74"/>
<polygon fill="black" stroke="black" points="1024.78,-91.54 1031.1,-83.03 1020.85,-85.74 1024.78,-91.54"/>
</g>
<!-- 15 -->
<g id="node16" class="node">
<title>15</title>
<polygon fill="none" stroke="black" points="1525,-351 1337,-351 1337,-253 1525,-253 1525,-351"/>
<text text-anchor="middle" x="1431" y="-335.8" font-family="Times,serif" font-size="14.00">node #15</text>
<text text-anchor="middle" x="1431" y="-320.8" font-family="Times,serif" font-size="14.00">FEFPostVal &lt;= 2.135</text>
<text text-anchor="middle" x="1431" y="-305.8" font-family="Times,serif" font-size="14.00">gini = 0.183</text>
<text text-anchor="middle" x="1431" y="-290.8" font-family="Times,serif" font-size="14.00">samples = 64</text>
<text text-anchor="middle" x="1431" y="-275.8" font-family="Times,serif" font-size="14.00">value = [82.54, 9.394]</text>
<text text-anchor="middle" x="1431" y="-260.8" font-family="Times,serif" font-size="14.00">class = Non&#45;obstructive</text>
</g>
<!-- 14&#45;&gt;15 -->
<g id="edge15" class="edge">
<title>14&#45;&gt;15</title>
<path fill="none" stroke="black" d="M1431,-386.97C1431,-378.69 1431,-370 1431,-361.48"/>
<polygon fill="black" stroke="black" points="1434.5,-361.21 1431,-351.21 1427.5,-361.21 1434.5,-361.21"/>
</g>
<!-- 20 -->
<g id="node21" class="node">
<title>20</title>
<polygon fill="none" stroke="black" points="1932,-351 1738,-351 1738,-253 1932,-253 1932,-351"/>
<text text-anchor="middle" x="1835" y="-335.8" font-family="Times,serif" font-size="14.00">node #20</text>
<text text-anchor="middle" x="1835" y="-320.8" font-family="Times,serif" font-size="14.00">FVCPostVal &lt;= 2.215</text>
<text text-anchor="middle" x="1835" y="-305.8" font-family="Times,serif" font-size="14.00">gini = 0.493</text>
<text text-anchor="middle" x="1835" y="-290.8" font-family="Times,serif" font-size="14.00">samples = 73</text>
<text text-anchor="middle" x="1835" y="-275.8" font-family="Times,serif" font-size="14.00">value = [65.264, 51.144]</text>
<text text-anchor="middle" x="1835" y="-260.8" font-family="Times,serif" font-size="14.00">class = Non&#45;obstructive</text>
</g>
<!-- 14&#45;&gt;20 -->
<g id="edge20" class="edge">
<title>14&#45;&gt;20</title>
<path fill="none" stroke="black" d="M1532.69,-401.78C1592.37,-382.28 1667.71,-357.66 1728.25,-337.88"/>
<polygon fill="black" stroke="black" points="1729.42,-341.18 1737.84,-334.75 1727.24,-334.53 1729.42,-341.18"/>
</g>
<!-- 16 -->
<g id="node17" class="node">
<title>16</title>
<polygon fill="none" stroke="black" points="1422.5,-217 1231.5,-217 1231.5,-119 1422.5,-119 1422.5,-217"/>
<text text-anchor="middle" x="1327" y="-201.8" font-family="Times,serif" font-size="14.00">node #16</text>
<text text-anchor="middle" x="1327" y="-186.8" font-family="Times,serif" font-size="14.00">FEFPrePercent &lt;= 46.5</text>
<text text-anchor="middle" x="1327" y="-171.8" font-family="Times,serif" font-size="14.00">gini = 0.371</text>
<text text-anchor="middle" x="1327" y="-156.8" font-family="Times,serif" font-size="14.00">samples = 26</text>
<text text-anchor="middle" x="1327" y="-141.8" font-family="Times,serif" font-size="14.00">value = [28.793, 9.394]</text>
<text text-anchor="middle" x="1327" y="-126.8" font-family="Times,serif" font-size="14.00">class = Non&#45;obstructive</text>
</g>
<!-- 15&#45;&gt;16 -->
<g id="edge16" class="edge">
<title>15&#45;&gt;16</title>
<path fill="none" stroke="black" d="M1393.16,-252.97C1386.06,-243.96 1378.58,-234.47 1371.31,-225.24"/>
<polygon fill="black" stroke="black" points="1373.92,-222.9 1364.99,-217.21 1368.43,-227.23 1373.92,-222.9"/>
</g>
<!-- 19 -->
<g id="node20" class="node">
<title>19</title>
<polygon fill="none" stroke="black" points="1629,-209.5 1441,-209.5 1441,-126.5 1629,-126.5 1629,-209.5"/>
<text text-anchor="middle" x="1535" y="-194.3" font-family="Times,serif" font-size="14.00">node #19</text>
<text text-anchor="middle" x="1535" y="-179.3" font-family="Times,serif" font-size="14.00">gini = 0.0</text>
<text text-anchor="middle" x="1535" y="-164.3" font-family="Times,serif" font-size="14.00">samples = 38</text>
<text text-anchor="middle" x="1535" y="-149.3" font-family="Times,serif" font-size="14.00">value = [53.747, 0.0]</text>
<text text-anchor="middle" x="1535" y="-134.3" font-family="Times,serif" font-size="14.00">class = Non&#45;obstructive</text>
</g>
<!-- 15&#45;&gt;19 -->
<g id="edge19" class="edge">
<title>15&#45;&gt;19</title>
<path fill="none" stroke="black" d="M1468.84,-252.97C1477.81,-241.58 1487.4,-229.42 1496.4,-217.99"/>
<polygon fill="black" stroke="black" points="1499.4,-219.84 1502.84,-209.82 1493.9,-215.51 1499.4,-219.84"/>
</g>
<!-- 17 -->
<g id="node18" class="node">
<title>17</title>
<polygon fill="none" stroke="black" points="1368,-83 1192,-83 1192,0 1368,0 1368,-83"/>
<text text-anchor="middle" x="1280" y="-67.8" font-family="Times,serif" font-size="14.00">node #17</text>
<text text-anchor="middle" x="1280" y="-52.8" font-family="Times,serif" font-size="14.00">gini = 0.471</text>
<text text-anchor="middle" x="1280" y="-37.8" font-family="Times,serif" font-size="14.00">samples = 7</text>
<text text-anchor="middle" x="1280" y="-22.8" font-family="Times,serif" font-size="14.00">value = [3.839, 6.262]</text>
<text text-anchor="middle" x="1280" y="-7.8" font-family="Times,serif" font-size="14.00">class = Obstructive</text>
</g>
<!-- 16&#45;&gt;17 -->
<g id="edge17" class="edge">
<title>16&#45;&gt;17</title>
<path fill="none" stroke="black" d="M1308.83,-118.87C1305.6,-110.31 1302.23,-101.39 1298.98,-92.78"/>
<polygon fill="black" stroke="black" points="1302.18,-91.35 1295.38,-83.23 1295.63,-93.82 1302.18,-91.35"/>
</g>
<!-- 18 -->
<g id="node19" class="node">
<title>18</title>
<polygon fill="none" stroke="black" points="1574,-83 1386,-83 1386,0 1574,0 1574,-83"/>
<text text-anchor="middle" x="1480" y="-67.8" font-family="Times,serif" font-size="14.00">node #18</text>
<text text-anchor="middle" x="1480" y="-52.8" font-family="Times,serif" font-size="14.00">gini = 0.198</text>
<text text-anchor="middle" x="1480" y="-37.8" font-family="Times,serif" font-size="14.00">samples = 19</text>
<text text-anchor="middle" x="1480" y="-22.8" font-family="Times,serif" font-size="14.00">value = [24.954, 3.131]</text>
<text text-anchor="middle" x="1480" y="-7.8" font-family="Times,serif" font-size="14.00">class = Non&#45;obstructive</text>
</g>
<!-- 16&#45;&gt;18 -->
<g id="edge18" class="edge">
<title>16&#45;&gt;18</title>
<path fill="none" stroke="black" d="M1386.15,-118.87C1397.91,-109.3 1410.23,-99.27 1421.95,-89.74"/>
<polygon fill="black" stroke="black" points="1424.4,-92.26 1429.95,-83.23 1419.98,-86.83 1424.4,-92.26"/>
</g>
<!-- 21 -->
<g id="node22" class="node">
<title>21</title>
<polygon fill="none" stroke="black" points="1929,-217 1741,-217 1741,-119 1929,-119 1929,-217"/>
<text text-anchor="middle" x="1835" y="-201.8" font-family="Times,serif" font-size="14.00">node #21</text>
<text text-anchor="middle" x="1835" y="-186.8" font-family="Times,serif" font-size="14.00">FEV1PostVal &lt;= 1.63</text>
<text text-anchor="middle" x="1835" y="-171.8" font-family="Times,serif" font-size="14.00">gini = 0.168</text>
<text text-anchor="middle" x="1835" y="-156.8" font-family="Times,serif" font-size="14.00">samples = 22</text>
<text text-anchor="middle" x="1835" y="-141.8" font-family="Times,serif" font-size="14.00">value = [30.713, 3.131]</text>
<text text-anchor="middle" x="1835" y="-126.8" font-family="Times,serif" font-size="14.00">class = Non&#45;obstructive</text>
</g>
<!-- 20&#45;&gt;21 -->
<g id="edge21" class="edge">
<title>20&#45;&gt;21</title>
<path fill="none" stroke="black" d="M1835,-252.97C1835,-244.69 1835,-236 1835,-227.48"/>
<polygon fill="black" stroke="black" points="1838.5,-227.21 1835,-217.21 1831.5,-227.21 1838.5,-227.21"/>
</g>
<!-- 24 -->
<g id="node25" class="node">
<title>24</title>
<polygon fill="none" stroke="black" points="2189,-217 1995,-217 1995,-119 2189,-119 2189,-217"/>
<text text-anchor="middle" x="2092" y="-201.8" font-family="Times,serif" font-size="14.00">node #24</text>
<text text-anchor="middle" x="2092" y="-186.8" font-family="Times,serif" font-size="14.00">FVCPreVal &lt;= 2.305</text>
<text text-anchor="middle" x="2092" y="-171.8" font-family="Times,serif" font-size="14.00">gini = 0.487</text>
<text text-anchor="middle" x="2092" y="-156.8" font-family="Times,serif" font-size="14.00">samples = 51</text>
<text text-anchor="middle" x="2092" y="-141.8" font-family="Times,serif" font-size="14.00">value = [34.552, 48.012]</text>
<text text-anchor="middle" x="2092" y="-126.8" font-family="Times,serif" font-size="14.00">class = Obstructive</text>
</g>
<!-- 20&#45;&gt;24 -->
<g id="edge24" class="edge">
<title>20&#45;&gt;24</title>
<path fill="none" stroke="black" d="M1928.51,-252.97C1948.17,-242.87 1969.02,-232.16 1989.01,-221.9"/>
<polygon fill="black" stroke="black" points="1990.83,-224.9 1998.13,-217.21 1987.63,-218.67 1990.83,-224.9"/>
</g>
<!-- 22 -->
<g id="node23" class="node">
<title>22</title>
<polygon fill="none" stroke="black" points="1780,-83 1592,-83 1592,0 1780,0 1780,-83"/>
<text text-anchor="middle" x="1686" y="-67.8" font-family="Times,serif" font-size="14.00">node #22</text>
<text text-anchor="middle" x="1686" y="-52.8" font-family="Times,serif" font-size="14.00">gini = 0.434</text>
<text text-anchor="middle" x="1686" y="-37.8" font-family="Times,serif" font-size="14.00">samples = 7</text>
<text text-anchor="middle" x="1686" y="-22.8" font-family="Times,serif" font-size="14.00">value = [6.718, 3.131]</text>
<text text-anchor="middle" x="1686" y="-7.8" font-family="Times,serif" font-size="14.00">class = Non&#45;obstructive</text>
</g>
<!-- 21&#45;&gt;22 -->
<g id="edge22" class="edge">
<title>21&#45;&gt;22</title>
<path fill="none" stroke="black" d="M1777.39,-118.87C1765.95,-109.3 1753.94,-99.27 1742.53,-89.74"/>
<polygon fill="black" stroke="black" points="1744.66,-86.96 1734.75,-83.23 1740.18,-92.33 1744.66,-86.96"/>
</g>
<!-- 23 -->
<g id="node24" class="node">
<title>23</title>
<polygon fill="none" stroke="black" points="1986,-83 1798,-83 1798,0 1986,0 1986,-83"/>
<text text-anchor="middle" x="1892" y="-67.8" font-family="Times,serif" font-size="14.00">node #23</text>
<text text-anchor="middle" x="1892" y="-52.8" font-family="Times,serif" font-size="14.00">gini = &#45;0.0</text>
<text text-anchor="middle" x="1892" y="-37.8" font-family="Times,serif" font-size="14.00">samples = 15</text>
<text text-anchor="middle" x="1892" y="-22.8" font-family="Times,serif" font-size="14.00">value = [23.994, 0.0]</text>
<text text-anchor="middle" x="1892" y="-7.8" font-family="Times,serif" font-size="14.00">class = Non&#45;obstructive</text>
</g>
<!-- 21&#45;&gt;23 -->
<g id="edge23" class="edge">
<title>21&#45;&gt;23</title>
<path fill="none" stroke="black" d="M1857.04,-118.87C1860.99,-110.22 1865.13,-101.2 1869.11,-92.5"/>
<polygon fill="black" stroke="black" points="1872.37,-93.78 1873.35,-83.23 1866.01,-90.87 1872.37,-93.78"/>
</g>
<!-- 25 -->
<g id="node26" class="node">
<title>25</title>
<polygon fill="none" stroke="black" points="2180,-83 2004,-83 2004,0 2180,0 2180,-83"/>
<text text-anchor="middle" x="2092" y="-67.8" font-family="Times,serif" font-size="14.00">node #25</text>
<text text-anchor="middle" x="2092" y="-52.8" font-family="Times,serif" font-size="14.00">gini = 0.116</text>
<text text-anchor="middle" x="2092" y="-37.8" font-family="Times,serif" font-size="14.00">samples = 9</text>
<text text-anchor="middle" x="2092" y="-22.8" font-family="Times,serif" font-size="14.00">value = [0.96, 14.612]</text>
<text text-anchor="middle" x="2092" y="-7.8" font-family="Times,serif" font-size="14.00">class = Obstructive</text>
</g>
<!-- 24&#45;&gt;25 -->
<g id="edge25" class="edge">
<title>24&#45;&gt;25</title>
<path fill="none" stroke="black" d="M2092,-118.87C2092,-110.5 2092,-101.77 2092,-93.33"/>
<polygon fill="black" stroke="black" points="2095.5,-93.23 2092,-83.23 2088.5,-93.23 2095.5,-93.23"/>
</g>
<!-- 26 -->
<g id="node27" class="node">
<title>26</title>
<polygon fill="none" stroke="black" points="2386,-83 2198,-83 2198,0 2386,0 2386,-83"/>
<text text-anchor="middle" x="2292" y="-67.8" font-family="Times,serif" font-size="14.00">node #26</text>
<text text-anchor="middle" x="2292" y="-52.8" font-family="Times,serif" font-size="14.00">gini = 0.5</text>
<text text-anchor="middle" x="2292" y="-37.8" font-family="Times,serif" font-size="14.00">samples = 42</text>
<text text-anchor="middle" x="2292" y="-22.8" font-family="Times,serif" font-size="14.00">value = [33.592, 33.4]</text>
<text text-anchor="middle" x="2292" y="-7.8" font-family="Times,serif" font-size="14.00">class = Non&#45;obstructive</text>
</g>
<!-- 24&#45;&gt;26 -->
<g id="edge26" class="edge">
<title>24&#45;&gt;26</title>
<path fill="none" stroke="black" d="M2169.33,-118.87C2185.37,-108.88 2202.24,-98.38 2218.15,-88.47"/>
<polygon fill="black" stroke="black" points="2220.25,-91.29 2226.89,-83.03 2216.55,-85.35 2220.25,-91.29"/>
</g>
</g>
</svg>
