<?xml version="1.0" encoding="UTF-8" standalone="no"?>
<!DOCTYPE svg PUBLIC "-//W3C//DTD SVG 1.1//EN"
 "http://www.w3.org/Graphics/SVG/1.1/DTD/svg11.dtd">
<!-- Generated by graphviz version 2.43.0 (0)
 -->
<!-- Title: Tree Pages: 1 -->
<svg width="2401pt" height="627pt"
 viewBox="0.00 0.00 2401.00 627.00" xmlns="http://www.w3.org/2000/svg" xmlns:xlink="http://www.w3.org/1999/xlink">
<g id="graph0" class="graph" transform="scale(1 1) rotate(0) translate(4 623)">
<title>Tree</title>
<polygon fill="white" stroke="transparent" points="-4,4 -4,-623 2397,-623 2397,4 -4,4"/>
<!-- 0 -->
<g id="node1" class="node">
<title>0</title>
<polygon fill="none" stroke="black" points="879,-619 673,-619 673,-521 879,-521 879,-619"/>
<text text-anchor="middle" x="776" y="-603.8" font-family="Times,serif" font-size="14.00">node #0</text>
<text text-anchor="middle" x="776" y="-588.8" font-family="Times,serif" font-size="14.00">FEV1PostPercent &lt;= 51.5</text>
<text text-anchor="middle" x="776" y="-573.8" font-family="Times,serif" font-size="14.00">gini = 0.5</text>
<text text-anchor="middle" x="776" y="-558.8" font-family="Times,serif" font-size="14.00">samples = 202</text>
<text text-anchor="middle" x="776" y="-543.8" font-family="Times,serif" font-size="14.00">value = [167.0, 167.0]</text>
<text text-anchor="middle" x="776" y="-528.8" font-family="Times,serif" font-size="14.00">class = Obstructive</text>
</g>
<!-- 1 -->
<g id="node2" class="node">
<title>1</title>
<polygon fill="none" stroke="black" points="675.5,-485 490.5,-485 490.5,-387 675.5,-387 675.5,-485"/>
<text text-anchor="middle" x="583" y="-469.8" font-family="Times,serif" font-size="14.00">node #1</text>
<text text-anchor="middle" x="583" y="-454.8" font-family="Times,serif" font-size="14.00">FVCPreVal &lt;= 0.915</text>
<text text-anchor="middle" x="583" y="-439.8" font-family="Times,serif" font-size="14.00">gini = 0.44</text>
<text text-anchor="middle" x="583" y="-424.8" font-family="Times,serif" font-size="14.00">samples = 74</text>
<text text-anchor="middle" x="583" y="-409.8" font-family="Times,serif" font-size="14.00">value = [39.662, 81.58]</text>
<text text-anchor="middle" x="583" y="-394.8" font-family="Times,serif" font-size="14.00">class = Obstructive</text>
</g>
<!-- 0&#45;&gt;1 -->
<g id="edge1" class="edge">
<title>0&#45;&gt;1</title>
<path fill="none" stroke="black" d="M705.78,-520.97C691.54,-511.24 676.48,-500.93 661.97,-491.01"/>
<polygon fill="black" stroke="black" points="663.72,-487.97 653.49,-485.21 659.77,-493.75 663.72,-487.97"/>
<text text-anchor="middle" x="658.11" y="-506.08" font-family="Times,serif" font-size="14.00">True</text>
</g>
<!-- 10 -->
<g id="node11" class="node">
<title>10</title>
<polygon fill="none" stroke="black" points="1282,-485 1088,-485 1088,-387 1282,-387 1282,-485"/>
<text text-anchor="middle" x="1185" y="-469.8" font-family="Times,serif" font-size="14.00">node #10</text>
<text text-anchor="middle" x="1185" y="-454.8" font-family="Times,serif" font-size="14.00">FEFPreVal &lt;= 1.42</text>
<text text-anchor="middle" x="1185" y="-439.8" font-family="Times,serif" font-size="14.00">gini = 0.481</text>
<text text-anchor="middle" x="1185" y="-424.8" font-family="Times,serif" font-size="14.00">samples = 128</text>
<text text-anchor="middle" x="1185" y="-409.8" font-family="Times,serif" font-size="14.00">value = [127.338, 85.42]</text>
<text text-anchor="middle" x="1185" y="-394.8" font-family="Times,serif" font-size="14.00">class = Non&#45;obstructive</text>
</g>
<!-- 0&#45;&gt;10 -->
<g id="edge10" class="edge">
<title>0&#45;&gt;10</title>
<path fill="none" stroke="black" d="M879.21,-535.69C939.97,-516.08 1016.69,-491.32 1078.09,-471.5"/>
<polygon fill="black" stroke="black" points="1079.36,-474.77 1087.81,-468.37 1077.21,-468.11 1079.36,-474.77"/>
<text text-anchor="middle" x="1076.41" y="-486.92" font-family="Times,serif" font-size="14.00">False</text>
</g>
<!-- 2 -->
<g id="node3" class="node">
<title>2</title>
<polygon fill="none" stroke="black" points="472,-343.5 284,-343.5 284,-260.5 472,-260.5 472,-343.5"/>
<text text-anchor="middle" x="378" y="-328.3" font-family="Times,serif" font-size="14.00">node #2</text>
<text text-anchor="middle" x="378" y="-313.3" font-family="Times,serif" font-size="14.00">gini = 0.0</text>
<text text-anchor="middle" x="378" y="-298.3" font-family="Times,serif" font-size="14.00">samples = 10</text>
<text text-anchor="middle" x="378" y="-283.3" font-family="Times,serif" font-size="14.00">value = [15.656, 0.0]</text>
<text text-anchor="middle" x="378" y="-268.3" font-family="Times,serif" font-size="14.00">class = Non&#45;obstructive</text>
</g>
<!-- 1&#45;&gt;2 -->
<g id="edge2" class="edge">
<title>1&#45;&gt;2</title>
<path fill="none" stroke="black" d="M508.41,-386.97C489.25,-374.63 468.68,-361.39 449.67,-349.15"/>
<polygon fill="black" stroke="black" points="451.36,-346.07 441.06,-343.6 447.57,-351.96 451.36,-346.07"/>
</g>
<!-- 3 -->
<g id="node4" class="node">
<title>3</title>
<polygon fill="none" stroke="black" points="675.5,-351 490.5,-351 490.5,-253 675.5,-253 675.5,-351"/>
<text text-anchor="middle" x="583" y="-335.8" font-family="Times,serif" font-size="14.00">node #3</text>
<text text-anchor="middle" x="583" y="-320.8" font-family="Times,serif" font-size="14.00">FEFPostVal &lt;= 0.81</text>
<text text-anchor="middle" x="583" y="-305.8" font-family="Times,serif" font-size="14.00">gini = 0.351</text>
<text text-anchor="middle" x="583" y="-290.8" font-family="Times,serif" font-size="14.00">samples = 64</text>
<text text-anchor="middle" x="583" y="-275.8" font-family="Times,serif" font-size="14.00">value = [24.006, 81.58]</text>
<text text-anchor="middle" x="583" y="-260.8" font-family="Times,serif" font-size="14.00">class = Obstructive</text>
</g>
<!-- 1&#45;&gt;3 -->
<g id="edge3" class="edge">
<title>1&#45;&gt;3</title>
<path fill="none" stroke="black" d="M583,-386.97C583,-378.69 583,-370 583,-361.48"/>
<polygon fill="black" stroke="black" points="586.5,-361.21 583,-351.21 579.5,-361.21 586.5,-361.21"/>
</g>
<!-- 4 -->
<g id="node5" class="node">
<title>4</title>
<polygon fill="none" stroke="black" points="369.5,-217 184.5,-217 184.5,-119 369.5,-119 369.5,-217"/>
<text text-anchor="middle" x="277" y="-201.8" font-family="Times,serif" font-size="14.00">node #4</text>
<text text-anchor="middle" x="277" y="-186.8" font-family="Times,serif" font-size="14.00">FVCPreVal &lt;= 1.035</text>
<text text-anchor="middle" x="277" y="-171.8" font-family="Times,serif" font-size="14.00">gini = 0.058</text>
<text text-anchor="middle" x="277" y="-156.8" font-family="Times,serif" font-size="14.00">samples = 42</text>
<text text-anchor="middle" x="277" y="-141.8" font-family="Times,serif" font-size="14.00">value = [2.088, 68.144]</text>
<text text-anchor="middle" x="277" y="-126.8" font-family="Times,serif" font-size="14.00">class = Obstructive</text>
</g>
<!-- 3&#45;&gt;4 -->
<g id="edge4" class="edge">
<title>3&#45;&gt;4</title>
<path fill="none" stroke="black" d="M490.25,-257.12C487.13,-255.72 484.04,-254.34 481,-253 448.07,-238.48 411.82,-223.3 379.13,-209.9"/>
<polygon fill="black" stroke="black" points="380.15,-206.54 369.57,-205.99 377.5,-213.02 380.15,-206.54"/>
</g>
<!-- 7 -->
<g id="node8" class="node">
<title>7</title>
<polygon fill="none" stroke="black" points="680,-217 486,-217 486,-119 680,-119 680,-217"/>
<text text-anchor="middle" x="583" y="-201.8" font-family="Times,serif" font-size="14.00">node #7</text>
<text text-anchor="middle" x="583" y="-186.8" font-family="Times,serif" font-size="14.00">FVCPreVal &lt;= 1.585</text>
<text text-anchor="middle" x="583" y="-171.8" font-family="Times,serif" font-size="14.00">gini = 0.471</text>
<text text-anchor="middle" x="583" y="-156.8" font-family="Times,serif" font-size="14.00">samples = 22</text>
<text text-anchor="middle" x="583" y="-141.8" font-family="Times,serif" font-size="14.00">value = [21.919, 13.437]</text>
<text text-anchor="middle" x="583" y="-126.8" font-family="Times,serif" font-size="14.00">class = Non&#45;obstructive</text>
</g>
<!-- 3&#45;&gt;7 -->
<g id="edge7" class="edge">
<title>3&#45;&gt;7</title>
<path fill="none" stroke="black" d="M583,-252.97C583,-244.69 583,-236 583,-227.48"/>
<polygon fill="black" stroke="black" points="586.5,-227.21 583,-217.21 579.5,-227.21 586.5,-227.21"/>
</g>
<!-- 5 -->
<g id="node6" class="node">
<title>5</title>
<polygon fill="none" stroke="black" points="176,-83 0,-83 0,0 176,0 176,-83"/>
<text text-anchor="middle" x="88" y="-67.8" font-family="Times,serif" font-size="14.00">node #5</text>
<text text-anchor="middle" x="88" y="-52.8" font-family="Times,serif" font-size="14.00">gini = 0.456</text>
<text text-anchor="middle" x="88" y="-37.8" font-family="Times,serif" font-size="14.00">samples = 4</text>
<text text-anchor="middle" x="88" y="-22.8" font-family="Times,serif" font-size="14.00">value = [2.088, 3.839]</text>
<text text-anchor="middle" x="88" y="-7.8" font-family="Times,serif" font-size="14.00">class = Obstructive</text>
</g>
<!-- 4&#45;&gt;5 -->
<g id="edge5" class="edge">
<title>4&#45;&gt;5</title>
<path fill="none" stroke="black" d="M203.93,-118.87C188.91,-108.97 173.12,-98.57 158.2,-88.74"/>
<polygon fill="black" stroke="black" points="159.81,-85.61 149.53,-83.03 155.96,-91.46 159.81,-85.61"/>
</g>
<!-- 6 -->
<g id="node7" class="node">
<title>6</title>
<polygon fill="none" stroke="black" points="360.5,-83 193.5,-83 193.5,0 360.5,0 360.5,-83"/>
<text text-anchor="middle" x="277" y="-67.8" font-family="Times,serif" font-size="14.00">node #6</text>
<text text-anchor="middle" x="277" y="-52.8" font-family="Times,serif" font-size="14.00">gini = 0.0</text>
<text text-anchor="middle" x="277" y="-37.8" font-family="Times,serif" font-size="14.00">samples = 38</text>
<text text-anchor="middle" x="277" y="-22.8" font-family="Times,serif" font-size="14.00">value = [0.0, 64.305]</text>
<text text-anchor="middle" x="277" y="-7.8" font-family="Times,serif" font-size="14.00">class = Obstructive</text>
</g>
<!-- 4&#45;&gt;6 -->
<g id="edge6" class="edge">
<title>4&#45;&gt;6</title>
<path fill="none" stroke="black" d="M277,-118.87C277,-110.5 277,-101.77 277,-93.33"/>
<polygon fill="black" stroke="black" points="280.5,-93.23 277,-83.23 273.5,-93.23 280.5,-93.23"/>
</g>
<!-- 8 -->
<g id="node9" class="node">
<title>8</title>
<polygon fill="none" stroke="black" points="567,-83 379,-83 379,0 567,0 567,-83"/>
<text text-anchor="middle" x="473" y="-67.8" font-family="Times,serif" font-size="14.00">node #8</text>
<text text-anchor="middle" x="473" y="-52.8" font-family="Times,serif" font-size="14.00">gini = 0.0</text>
<text text-anchor="middle" x="473" y="-37.8" font-family="Times,serif" font-size="14.00">samples = 7</text>
<text text-anchor="middle" x="473" y="-22.8" font-family="Times,serif" font-size="14.00">value = [11.481, 0.0]</text>
<text text-anchor="middle" x="473" y="-7.8" font-family="Times,serif" font-size="14.00">class = Non&#45;obstructive</text>
</g>
<!-- 7&#45;&gt;8 -->
<g id="edge8" class="edge">
<title>7&#45;&gt;8</title>
<path fill="none" stroke="black" d="M540.47,-118.87C532.35,-109.67 523.84,-100.04 515.71,-90.84"/>
<polygon fill="black" stroke="black" points="518.23,-88.41 508.99,-83.23 512.99,-93.04 518.23,-88.41"/>
</g>
<!-- 9 -->
<g id="node10" class="node">
<title>9</title>
<polygon fill="none" stroke="black" points="779,-83 585,-83 585,0 779,0 779,-83"/>
<text text-anchor="middle" x="682" y="-67.8" font-family="Times,serif" font-size="14.00">node #9</text>
<text text-anchor="middle" x="682" y="-52.8" font-family="Times,serif" font-size="14.00">gini = 0.492</text>
<text text-anchor="middle" x="682" y="-37.8" font-family="Times,serif" font-size="14.00">samples = 15</text>
<text text-anchor="middle" x="682" y="-22.8" font-family="Times,serif" font-size="14.00">value = [10.437, 13.437]</text>
<text text-anchor="middle" x="682" y="-7.8" font-family="Times,serif" font-size="14.00">class = Obstructive</text>
</g>
<!-- 7&#45;&gt;9 -->
<g id="edge9" class="edge">
<title>7&#45;&gt;9</title>
<path fill="none" stroke="black" d="M621.28,-118.87C628.51,-109.76 636.09,-100.23 643.34,-91.12"/>
<polygon fill="black" stroke="black" points="646.13,-93.24 649.61,-83.23 640.65,-88.88 646.13,-93.24"/>
</g>
<!-- 11 -->
<g id="node12" class="node">
<title>11</title>
<polygon fill="none" stroke="black" points="1282,-351 1088,-351 1088,-253 1282,-253 1282,-351"/>
<text text-anchor="middle" x="1185" y="-335.8" font-family="Times,serif" font-size="14.00">node #11</text>
<text text-anchor="middle" x="1185" y="-320.8" font-family="Times,serif" font-size="14.00">FEFPreVal &lt;= 1.14</text>
<text text-anchor="middle" x="1185" y="-305.8" font-family="Times,serif" font-size="14.00">gini = 0.317</text>
<text text-anchor="middle" x="1185" y="-290.8" font-family="Times,serif" font-size="14.00">samples = 39</text>
<text text-anchor="middle" x="1185" y="-275.8" font-family="Times,serif" font-size="14.00">value = [12.525, 50.868]</text>
<text text-anchor="middle" x="1185" y="-260.8" font-family="Times,serif" font-size="14.00">class = Obstructive</text>
</g>
<!-- 10&#45;&gt;11 -->
<g id="edge11" class="edge">
<title>10&#45;&gt;11</title>
<path fill="none" stroke="black" d="M1185,-386.97C1185,-378.69 1185,-370 1185,-361.48"/>
<polygon fill="black" stroke="black" points="1188.5,-361.21 1185,-351.21 1181.5,-361.21 1188.5,-361.21"/>
</g>
<!-- 18 -->
<g id="node19" class="node">
<title>18</title>
<polygon fill="none" stroke="black" points="1872.5,-351 1669.5,-351 1669.5,-253 1872.5,-253 1872.5,-351"/>
<text text-anchor="middle" x="1771" y="-335.8" font-family="Times,serif" font-size="14.00">node #18</text>
<text text-anchor="middle" x="1771" y="-320.8" font-family="Times,serif" font-size="14.00">FEV1PostVal &lt;= 1.915</text>
<text text-anchor="middle" x="1771" y="-305.8" font-family="Times,serif" font-size="14.00">gini = 0.356</text>
<text text-anchor="middle" x="1771" y="-290.8" font-family="Times,serif" font-size="14.00">samples = 89</text>
<text text-anchor="middle" x="1771" y="-275.8" font-family="Times,serif" font-size="14.00">value = [114.813, 34.552]</text>
<text text-anchor="middle" x="1771" y="-260.8" font-family="Times,serif" font-size="14.00">class = Non&#45;obstructive</text>
</g>
<!-- 10&#45;&gt;18 -->
<g id="edge18" class="edge">
<title>10&#45;&gt;18</title>
<path fill="none" stroke="black" d="M1282.09,-413.13C1385.87,-389.75 1550.15,-352.75 1659.24,-328.18"/>
<polygon fill="black" stroke="black" points="1660.3,-331.52 1669.29,-325.91 1658.76,-324.69 1660.3,-331.52"/>
</g>
<!-- 12 -->
<g id="node13" class="node">
<title>12</title>
<polygon fill="none" stroke="black" points="1176.5,-217 979.5,-217 979.5,-119 1176.5,-119 1176.5,-217"/>
<text text-anchor="middle" x="1078" y="-201.8" font-family="Times,serif" font-size="14.00">node #12</text>
<text text-anchor="middle" x="1078" y="-186.8" font-family="Times,serif" font-size="14.00">FVCPostPercent &lt;= 61.0</text>
<text text-anchor="middle" x="1078" y="-171.8" font-family="Times,serif" font-size="14.00">gini = 0.102</text>
<text text-anchor="middle" x="1078" y="-156.8" font-family="Times,serif" font-size="14.00">samples = 27</text>
<text text-anchor="middle" x="1078" y="-141.8" font-family="Times,serif" font-size="14.00">value = [2.088, 36.471]</text>
<text text-anchor="middle" x="1078" y="-126.8" font-family="Times,serif" font-size="14.00">class = Obstructive</text>
</g>
<!-- 11&#45;&gt;12 -->
<g id="edge12" class="edge">
<title>11&#45;&gt;12</title>
<path fill="none" stroke="black" d="M1146.07,-252.97C1138.77,-243.96 1131.07,-234.47 1123.59,-225.24"/>
<polygon fill="black" stroke="black" points="1126.1,-222.78 1117.08,-217.21 1120.66,-227.19 1126.1,-222.78"/>
</g>
<!-- 15 -->
<g id="node16" class="node">
<title>15</title>
<polygon fill="none" stroke="black" points="1389,-217 1195,-217 1195,-119 1389,-119 1389,-217"/>
<text text-anchor="middle" x="1292" y="-201.8" font-family="Times,serif" font-size="14.00">node #15</text>
<text text-anchor="middle" x="1292" y="-186.8" font-family="Times,serif" font-size="14.00">FEV1PostVal &lt;= 1.815</text>
<text text-anchor="middle" x="1292" y="-171.8" font-family="Times,serif" font-size="14.00">gini = 0.487</text>
<text text-anchor="middle" x="1292" y="-156.8" font-family="Times,serif" font-size="14.00">samples = 12</text>
<text text-anchor="middle" x="1292" y="-141.8" font-family="Times,serif" font-size="14.00">value = [10.438, 14.397]</text>
<text text-anchor="middle" x="1292" y="-126.8" font-family="Times,serif" font-size="14.00">class = Obstructive</text>
</g>
<!-- 11&#45;&gt;15 -->
<g id="edge15" class="edge">
<title>11&#45;&gt;15</title>
<path fill="none" stroke="black" d="M1223.93,-252.97C1231.23,-243.96 1238.93,-234.47 1246.41,-225.24"/>
<polygon fill="black" stroke="black" points="1249.34,-227.19 1252.92,-217.21 1243.9,-222.78 1249.34,-227.19"/>
</g>
<!-- 13 -->
<g id="node14" class="node">
<title>13</title>
<polygon fill="none" stroke="black" points="985,-83 797,-83 797,0 985,0 985,-83"/>
<text text-anchor="middle" x="891" y="-67.8" font-family="Times,serif" font-size="14.00">node #13</text>
<text text-anchor="middle" x="891" y="-52.8" font-family="Times,serif" font-size="14.00">gini = 0.432</text>
<text text-anchor="middle" x="891" y="-37.8" font-family="Times,serif" font-size="14.00">samples = 3</text>
<text text-anchor="middle" x="891" y="-22.8" font-family="Times,serif" font-size="14.00">value = [2.088, 0.96]</text>
<text text-anchor="middle" x="891" y="-7.8" font-family="Times,serif" font-size="14.00">class = Non&#45;obstructive</text>
</g>
<!-- 12&#45;&gt;13 -->
<g id="edge13" class="edge">
<title>12&#45;&gt;13</title>
<path fill="none" stroke="black" d="M1005.7,-118.87C990.84,-108.97 975.22,-98.57 960.46,-88.74"/>
<polygon fill="black" stroke="black" points="962.14,-85.66 951.88,-83.03 958.26,-91.49 962.14,-85.66"/>
</g>
<!-- 14 -->
<g id="node15" class="node">
<title>14</title>
<polygon fill="none" stroke="black" points="1170.5,-83 1003.5,-83 1003.5,0 1170.5,0 1170.5,-83"/>
<text text-anchor="middle" x="1087" y="-67.8" font-family="Times,serif" font-size="14.00">node #14</text>
<text text-anchor="middle" x="1087" y="-52.8" font-family="Times,serif" font-size="14.00">gini = 0.0</text>
<text text-anchor="middle" x="1087" y="-37.8" font-family="Times,serif" font-size="14.00">samples = 24</text>
<text text-anchor="middle" x="1087" y="-22.8" font-family="Times,serif" font-size="14.00">value = [0.0, 35.511]</text>
<text text-anchor="middle" x="1087" y="-7.8" font-family="Times,serif" font-size="14.00">class = Obstructive</text>
</g>
<!-- 12&#45;&gt;14 -->
<g id="edge14" class="edge">
<title>12&#45;&gt;14</title>
<path fill="none" stroke="black" d="M1081.48,-118.87C1082.08,-110.5 1082.72,-101.77 1083.33,-93.33"/>
<polygon fill="black" stroke="black" points="1086.83,-93.46 1084.06,-83.23 1079.84,-92.95 1086.83,-93.46"/>
</g>
<!-- 16 -->
<g id="node17" class="node">
<title>16</title>
<polygon fill="none" stroke="black" points="1377,-83 1189,-83 1189,0 1377,0 1377,-83"/>
<text text-anchor="middle" x="1283" y="-67.8" font-family="Times,serif" font-size="14.00">node #16</text>
<text text-anchor="middle" x="1283" y="-52.8" font-family="Times,serif" font-size="14.00">gini = 0.154</text>
<text text-anchor="middle" x="1283" y="-37.8" font-family="Times,serif" font-size="14.00">samples = 5</text>
<text text-anchor="middle" x="1283" y="-22.8" font-family="Times,serif" font-size="14.00">value = [10.438, 0.96]</text>
<text text-anchor="middle" x="1283" y="-7.8" font-family="Times,serif" font-size="14.00">class = Non&#45;obstructive</text>
</g>
<!-- 15&#45;&gt;16 -->
<g id="edge16" class="edge">
<title>15&#45;&gt;16</title>
<path fill="none" stroke="black" d="M1288.52,-118.87C1287.92,-110.5 1287.28,-101.77 1286.67,-93.33"/>
<polygon fill="black" stroke="black" points="1290.16,-92.95 1285.94,-83.23 1283.17,-93.46 1290.16,-92.95"/>
</g>
<!-- 17 -->
<g id="node18" class="node">
<title>17</title>
<polygon fill="none" stroke="black" points="1562.5,-83 1395.5,-83 1395.5,0 1562.5,0 1562.5,-83"/>
<text text-anchor="middle" x="1479" y="-67.8" font-family="Times,serif" font-size="14.00">node #17</text>
<text text-anchor="middle" x="1479" y="-52.8" font-family="Times,serif" font-size="14.00">gini = 0.0</text>
<text text-anchor="middle" x="1479" y="-37.8" font-family="Times,serif" font-size="14.00">samples = 7</text>
<text text-anchor="middle" x="1479" y="-22.8" font-family="Times,serif" font-size="14.00">value = [0.0, 13.437]</text>
<text text-anchor="middle" x="1479" y="-7.8" font-family="Times,serif" font-size="14.00">class = Obstructive</text>
</g>
<!-- 15&#45;&gt;17 -->
<g id="edge17" class="edge">
<title>15&#45;&gt;17</title>
<path fill="none" stroke="black" d="M1364.3,-118.87C1379.16,-108.97 1394.78,-98.57 1409.54,-88.74"/>
<polygon fill="black" stroke="black" points="1411.74,-91.49 1418.12,-83.03 1407.86,-85.66 1411.74,-91.49"/>
</g>
<!-- 19 -->
<g id="node20" class="node">
<title>19</title>
<polygon fill="none" stroke="black" points="1874,-217 1668,-217 1668,-119 1874,-119 1874,-217"/>
<text text-anchor="middle" x="1771" y="-201.8" font-family="Times,serif" font-size="14.00">node #19</text>
<text text-anchor="middle" x="1771" y="-186.8" font-family="Times,serif" font-size="14.00">FEFPostPercent &lt;= 156.5</text>
<text text-anchor="middle" x="1771" y="-171.8" font-family="Times,serif" font-size="14.00">gini = 0.087</text>
<text text-anchor="middle" x="1771" y="-156.8" font-family="Times,serif" font-size="14.00">samples = 47</text>
<text text-anchor="middle" x="1771" y="-141.8" font-family="Times,serif" font-size="14.00">value = [80.369, 3.839]</text>
<text text-anchor="middle" x="1771" y="-126.8" font-family="Times,serif" font-size="14.00">class = Non&#45;obstructive</text>
</g>
<!-- 18&#45;&gt;19 -->
<g id="edge19" class="edge">
<title>18&#45;&gt;19</title>
<path fill="none" stroke="black" d="M1771,-252.97C1771,-244.69 1771,-236 1771,-227.48"/>
<polygon fill="black" stroke="black" points="1774.5,-227.21 1771,-217.21 1767.5,-227.21 1774.5,-227.21"/>
</g>
<!-- 22 -->
<g id="node23" class="node">
<title>22</title>
<polygon fill="none" stroke="black" points="2185.5,-217 1988.5,-217 1988.5,-119 2185.5,-119 2185.5,-217"/>
<text text-anchor="middle" x="2087" y="-201.8" font-family="Times,serif" font-size="14.00">node #22</text>
<text text-anchor="middle" x="2087" y="-186.8" font-family="Times,serif" font-size="14.00">FEFPostPercent &lt;= 58.5</text>
<text text-anchor="middle" x="2087" y="-171.8" font-family="Times,serif" font-size="14.00">gini = 0.498</text>
<text text-anchor="middle" x="2087" y="-156.8" font-family="Times,serif" font-size="14.00">samples = 42</text>
<text text-anchor="middle" x="2087" y="-141.8" font-family="Times,serif" font-size="14.00">value = [34.444, 30.713]</text>
<text text-anchor="middle" x="2087" y="-126.8" font-family="Times,serif" font-size="14.00">class = Non&#45;obstructive</text>
</g>
<!-- 18&#45;&gt;22 -->
<g id="edge22" class="edge">
<title>18&#45;&gt;22</title>
<path fill="none" stroke="black" d="M1872.72,-258.51C1906.61,-244.35 1944.48,-228.53 1978.84,-214.18"/>
<polygon fill="black" stroke="black" points="1980.55,-217.26 1988.43,-210.17 1977.86,-210.8 1980.55,-217.26"/>
</g>
<!-- 20 -->
<g id="node21" class="node">
<title>20</title>
<polygon fill="none" stroke="black" points="1769,-83 1581,-83 1581,0 1769,0 1769,-83"/>
<text text-anchor="middle" x="1675" y="-67.8" font-family="Times,serif" font-size="14.00">node #20</text>
<text text-anchor="middle" x="1675" y="-52.8" font-family="Times,serif" font-size="14.00">gini = 0.047</text>
<text text-anchor="middle" x="1675" y="-37.8" font-family="Times,serif" font-size="14.00">samples = 44</text>
<text text-anchor="middle" x="1675" y="-22.8" font-family="Times,serif" font-size="14.00">value = [78.281, 1.92]</text>
<text text-anchor="middle" x="1675" y="-7.8" font-family="Times,serif" font-size="14.00">class = Non&#45;obstructive</text>
</g>
<!-- 19&#45;&gt;20 -->
<g id="edge20" class="edge">
<title>19&#45;&gt;20</title>
<path fill="none" stroke="black" d="M1733.88,-118.87C1726.94,-109.85 1719.67,-100.43 1712.7,-91.39"/>
<polygon fill="black" stroke="black" points="1715.29,-89.01 1706.41,-83.23 1709.74,-93.29 1715.29,-89.01"/>
</g>
<!-- 21 -->
<g id="node22" class="node">
<title>21</title>
<polygon fill="none" stroke="black" points="1975,-83 1787,-83 1787,0 1975,0 1975,-83"/>
<text text-anchor="middle" x="1881" y="-67.8" font-family="Times,serif" font-size="14.00">node #21</text>
<text text-anchor="middle" x="1881" y="-52.8" font-family="Times,serif" font-size="14.00">gini = 0.499</text>
<text text-anchor="middle" x="1881" y="-37.8" font-family="Times,serif" font-size="14.00">samples = 3</text>
<text text-anchor="middle" x="1881" y="-22.8" font-family="Times,serif" font-size="14.00">value = [2.088, 1.92]</text>
<text text-anchor="middle" x="1881" y="-7.8" font-family="Times,serif" font-size="14.00">class = Non&#45;obstructive</text>
</g>
<!-- 19&#45;&gt;21 -->
<g id="edge21" class="edge">
<title>19&#45;&gt;21</title>
<path fill="none" stroke="black" d="M1813.53,-118.87C1821.65,-109.67 1830.16,-100.04 1838.29,-90.84"/>
<polygon fill="black" stroke="black" points="1841.01,-93.04 1845.01,-83.23 1835.77,-88.41 1841.01,-93.04"/>
</g>
<!-- 23 -->
<g id="node24" class="node">
<title>23</title>
<polygon fill="none" stroke="black" points="2181,-83 1993,-83 1993,0 2181,0 2181,-83"/>
<text text-anchor="middle" x="2087" y="-67.8" font-family="Times,serif" font-size="14.00">node #23</text>
<text text-anchor="middle" x="2087" y="-52.8" font-family="Times,serif" font-size="14.00">gini = 0.0</text>
<text text-anchor="middle" x="2087" y="-37.8" font-family="Times,serif" font-size="14.00">samples = 4</text>
<text text-anchor="middle" x="2087" y="-22.8" font-family="Times,serif" font-size="14.00">value = [7.306, 0.0]</text>
<text text-anchor="middle" x="2087" y="-7.8" font-family="Times,serif" font-size="14.00">class = Non&#45;obstructive</text>
</g>
<!-- 22&#45;&gt;23 -->
<g id="edge23" class="edge">
<title>22&#45;&gt;23</title>
<path fill="none" stroke="black" d="M2087,-118.87C2087,-110.5 2087,-101.77 2087,-93.33"/>
<polygon fill="black" stroke="black" points="2090.5,-93.23 2087,-83.23 2083.5,-93.23 2090.5,-93.23"/>
</g>
<!-- 24 -->
<g id="node25" class="node">
<title>24</title>
<polygon fill="none" stroke="black" points="2393,-83 2199,-83 2199,0 2393,0 2393,-83"/>
<text text-anchor="middle" x="2296" y="-67.8" font-family="Times,serif" font-size="14.00">node #24</text>
<text text-anchor="middle" x="2296" y="-52.8" font-family="Times,serif" font-size="14.00">gini = 0.498</text>
<text text-anchor="middle" x="2296" y="-37.8" font-family="Times,serif" font-size="14.00">samples = 38</text>
<text text-anchor="middle" x="2296" y="-22.8" font-family="Times,serif" font-size="14.00">value = [27.137, 30.713]</text>
<text text-anchor="middle" x="2296" y="-7.8" font-family="Times,serif" font-size="14.00">class = Obstructive</text>
</g>
<!-- 22&#45;&gt;24 -->
<g id="edge24" class="edge">
<title>22&#45;&gt;24</title>
<path fill="none" stroke="black" d="M2167.8,-118.87C2184.73,-108.78 2202.52,-98.18 2219.29,-88.19"/>
<polygon fill="black" stroke="black" points="2221.16,-91.16 2227.96,-83.03 2217.58,-85.14 2221.16,-91.16"/>
</g>
</g>
</svg>
