<?xml version="1.0" encoding="UTF-8" standalone="no"?>
<!DOCTYPE svg PUBLIC "-//W3C//DTD SVG 1.1//EN"
 "http://www.w3.org/Graphics/SVG/1.1/DTD/svg11.dtd">
<!-- Generated by graphviz version 2.43.0 (0)
 -->
<!-- Title: Tree Pages: 1 -->
<svg width="2164pt" height="627pt"
 viewBox="0.00 0.00 2164.00 627.00" xmlns="http://www.w3.org/2000/svg" xmlns:xlink="http://www.w3.org/1999/xlink">
<g id="graph0" class="graph" transform="scale(1 1) rotate(0) translate(4 623)">
<title>Tree</title>
<polygon fill="white" stroke="transparent" points="-4,4 -4,-623 2160,-623 2160,4 -4,4"/>
<!-- 0 -->
<g id="node1" class="node">
<title>0</title>
<polygon fill="none" stroke="black" points="877,-619 689,-619 689,-521 877,-521 877,-619"/>
<text text-anchor="middle" x="783" y="-603.8" font-family="Times,serif" font-size="14.00">node #0</text>
<text text-anchor="middle" x="783" y="-588.8" font-family="Times,serif" font-size="14.00">FEFPostVal &lt;= 1.145</text>
<text text-anchor="middle" x="783" y="-573.8" font-family="Times,serif" font-size="14.00">gini = 0.5</text>
<text text-anchor="middle" x="783" y="-558.8" font-family="Times,serif" font-size="14.00">samples = 201</text>
<text text-anchor="middle" x="783" y="-543.8" font-family="Times,serif" font-size="14.00">value = [167.0, 167.0]</text>
<text text-anchor="middle" x="783" y="-528.8" font-family="Times,serif" font-size="14.00">class = Non&#45;obstructive</text>
</g>
<!-- 1 -->
<g id="node2" class="node">
<title>1</title>
<polygon fill="none" stroke="black" points="674.5,-485 477.5,-485 477.5,-387 674.5,-387 674.5,-485"/>
<text text-anchor="middle" x="576" y="-469.8" font-family="Times,serif" font-size="14.00">node #1</text>
<text text-anchor="middle" x="576" y="-454.8" font-family="Times,serif" font-size="14.00">FVCPostPercent &lt;= 40.5</text>
<text text-anchor="middle" x="576" y="-439.8" font-family="Times,serif" font-size="14.00">gini = 0.149</text>
<text text-anchor="middle" x="576" y="-424.8" font-family="Times,serif" font-size="14.00">samples = 65</text>
<text text-anchor="middle" x="576" y="-409.8" font-family="Times,serif" font-size="14.00">value = [8.589, 97.679]</text>
<text text-anchor="middle" x="576" y="-394.8" font-family="Times,serif" font-size="14.00">class = Obstructive</text>
</g>
<!-- 0&#45;&gt;1 -->
<g id="edge1" class="edge">
<title>0&#45;&gt;1</title>
<path fill="none" stroke="black" d="M707.68,-520.97C692.27,-511.14 675.96,-500.74 660.26,-490.73"/>
<polygon fill="black" stroke="black" points="661.92,-487.64 651.61,-485.21 658.16,-493.54 661.92,-487.64"/>
<text text-anchor="middle" x="657.01" y="-505.92" font-family="Times,serif" font-size="14.00">True</text>
</g>
<!-- 10 -->
<g id="node11" class="node">
<title>10</title>
<polygon fill="none" stroke="black" points="1097.5,-485 894.5,-485 894.5,-387 1097.5,-387 1097.5,-485"/>
<text text-anchor="middle" x="996" y="-469.8" font-family="Times,serif" font-size="14.00">node #10</text>
<text text-anchor="middle" x="996" y="-454.8" font-family="Times,serif" font-size="14.00">FVCPrePercent &lt;= 61.5</text>
<text text-anchor="middle" x="996" y="-439.8" font-family="Times,serif" font-size="14.00">gini = 0.423</text>
<text text-anchor="middle" x="996" y="-424.8" font-family="Times,serif" font-size="14.00">samples = 136</text>
<text text-anchor="middle" x="996" y="-409.8" font-family="Times,serif" font-size="14.00">value = [158.411, 69.321]</text>
<text text-anchor="middle" x="996" y="-394.8" font-family="Times,serif" font-size="14.00">class = Non&#45;obstructive</text>
</g>
<!-- 0&#45;&gt;10 -->
<g id="edge10" class="edge">
<title>0&#45;&gt;10</title>
<path fill="none" stroke="black" d="M860.5,-520.97C876.36,-511.14 893.14,-500.74 909.3,-490.73"/>
<polygon fill="black" stroke="black" points="911.54,-493.46 918.2,-485.21 907.86,-487.51 911.54,-493.46"/>
<text text-anchor="middle" x="912.49" y="-505.85" font-family="Times,serif" font-size="14.00">False</text>
</g>
<!-- 2 -->
<g id="node3" class="node">
<title>2</title>
<polygon fill="none" stroke="black" points="364,-351 176,-351 176,-253 364,-253 364,-351"/>
<text text-anchor="middle" x="270" y="-335.8" font-family="Times,serif" font-size="14.00">node #2</text>
<text text-anchor="middle" x="270" y="-320.8" font-family="Times,serif" font-size="14.00">FEFPreVal &lt;= 0.365</text>
<text text-anchor="middle" x="270" y="-305.8" font-family="Times,serif" font-size="14.00">gini = 0.499</text>
<text text-anchor="middle" x="270" y="-290.8" font-family="Times,serif" font-size="14.00">samples = 9</text>
<text text-anchor="middle" x="270" y="-275.8" font-family="Times,serif" font-size="14.00">value = [5.726, 5.252]</text>
<text text-anchor="middle" x="270" y="-260.8" font-family="Times,serif" font-size="14.00">class = Non&#45;obstructive</text>
</g>
<!-- 1&#45;&gt;2 -->
<g id="edge2" class="edge">
<title>1&#45;&gt;2</title>
<path fill="none" stroke="black" d="M477.5,-392.51C444.28,-378.18 407.12,-362.15 373.52,-347.66"/>
<polygon fill="black" stroke="black" points="374.72,-344.36 364.15,-343.61 371.95,-350.79 374.72,-344.36"/>
</g>
<!-- 5 -->
<g id="node6" class="node">
<title>5</title>
<polygon fill="none" stroke="black" points="671.5,-351 480.5,-351 480.5,-253 671.5,-253 671.5,-351"/>
<text text-anchor="middle" x="576" y="-335.8" font-family="Times,serif" font-size="14.00">node #5</text>
<text text-anchor="middle" x="576" y="-320.8" font-family="Times,serif" font-size="14.00">FEFPrePercent &lt;= 75.0</text>
<text text-anchor="middle" x="576" y="-305.8" font-family="Times,serif" font-size="14.00">gini = 0.058</text>
<text text-anchor="middle" x="576" y="-290.8" font-family="Times,serif" font-size="14.00">samples = 56</text>
<text text-anchor="middle" x="576" y="-275.8" font-family="Times,serif" font-size="14.00">value = [2.863, 92.428]</text>
<text text-anchor="middle" x="576" y="-260.8" font-family="Times,serif" font-size="14.00">class = Obstructive</text>
</g>
<!-- 1&#45;&gt;5 -->
<g id="edge5" class="edge">
<title>1&#45;&gt;5</title>
<path fill="none" stroke="black" d="M576,-386.97C576,-378.69 576,-370 576,-361.48"/>
<polygon fill="black" stroke="black" points="579.5,-361.21 576,-351.21 572.5,-361.21 579.5,-361.21"/>
</g>
<!-- 3 -->
<g id="node4" class="node">
<title>3</title>
<polygon fill="none" stroke="black" points="158,-209.5 0,-209.5 0,-126.5 158,-126.5 158,-209.5"/>
<text text-anchor="middle" x="79" y="-194.3" font-family="Times,serif" font-size="14.00">node #3</text>
<text text-anchor="middle" x="79" y="-179.3" font-family="Times,serif" font-size="14.00">gini = 0.0</text>
<text text-anchor="middle" x="79" y="-164.3" font-family="Times,serif" font-size="14.00">samples = 5</text>
<text text-anchor="middle" x="79" y="-149.3" font-family="Times,serif" font-size="14.00">value = [0.0, 5.252]</text>
<text text-anchor="middle" x="79" y="-134.3" font-family="Times,serif" font-size="14.00">class = Obstructive</text>
</g>
<!-- 2&#45;&gt;3 -->
<g id="edge3" class="edge">
<title>2&#45;&gt;3</title>
<path fill="none" stroke="black" d="M200.5,-252.97C182.81,-240.75 163.83,-227.63 146.26,-215.48"/>
<polygon fill="black" stroke="black" points="147.97,-212.41 137.75,-209.6 143.99,-218.17 147.97,-212.41"/>
</g>
<!-- 4 -->
<g id="node5" class="node">
<title>4</title>
<polygon fill="none" stroke="black" points="364,-209.5 176,-209.5 176,-126.5 364,-126.5 364,-209.5"/>
<text text-anchor="middle" x="270" y="-194.3" font-family="Times,serif" font-size="14.00">node #4</text>
<text text-anchor="middle" x="270" y="-179.3" font-family="Times,serif" font-size="14.00">gini = 0.0</text>
<text text-anchor="middle" x="270" y="-164.3" font-family="Times,serif" font-size="14.00">samples = 4</text>
<text text-anchor="middle" x="270" y="-149.3" font-family="Times,serif" font-size="14.00">value = [5.726, 0.0]</text>
<text text-anchor="middle" x="270" y="-134.3" font-family="Times,serif" font-size="14.00">class = Non&#45;obstructive</text>
</g>
<!-- 2&#45;&gt;4 -->
<g id="edge4" class="edge">
<title>2&#45;&gt;4</title>
<path fill="none" stroke="black" d="M270,-252.97C270,-242.25 270,-230.84 270,-219.99"/>
<polygon fill="black" stroke="black" points="273.5,-219.82 270,-209.82 266.5,-219.82 273.5,-219.82"/>
</g>
<!-- 6 -->
<g id="node7" class="node">
<title>6</title>
<polygon fill="none" stroke="black" points="573.5,-217 382.5,-217 382.5,-119 573.5,-119 573.5,-217"/>
<text text-anchor="middle" x="478" y="-201.8" font-family="Times,serif" font-size="14.00">node #6</text>
<text text-anchor="middle" x="478" y="-186.8" font-family="Times,serif" font-size="14.00">FEFPrePercent &lt;= 26.5</text>
<text text-anchor="middle" x="478" y="-171.8" font-family="Times,serif" font-size="14.00">gini = 0.02</text>
<text text-anchor="middle" x="478" y="-156.8" font-family="Times,serif" font-size="14.00">samples = 55</text>
<text text-anchor="middle" x="478" y="-141.8" font-family="Times,serif" font-size="14.00">value = [0.954, 92.428]</text>
<text text-anchor="middle" x="478" y="-126.8" font-family="Times,serif" font-size="14.00">class = Obstructive</text>
</g>
<!-- 5&#45;&gt;6 -->
<g id="edge6" class="edge">
<title>5&#45;&gt;6</title>
<path fill="none" stroke="black" d="M540.34,-252.97C533.72,-244.05 526.75,-234.66 519.96,-225.52"/>
<polygon fill="black" stroke="black" points="522.57,-223.16 513.8,-217.21 516.95,-227.33 522.57,-223.16"/>
</g>
<!-- 9 -->
<g id="node10" class="node">
<title>9</title>
<polygon fill="none" stroke="black" points="780,-209.5 592,-209.5 592,-126.5 780,-126.5 780,-209.5"/>
<text text-anchor="middle" x="686" y="-194.3" font-family="Times,serif" font-size="14.00">node #9</text>
<text text-anchor="middle" x="686" y="-179.3" font-family="Times,serif" font-size="14.00">gini = 0.0</text>
<text text-anchor="middle" x="686" y="-164.3" font-family="Times,serif" font-size="14.00">samples = 1</text>
<text text-anchor="middle" x="686" y="-149.3" font-family="Times,serif" font-size="14.00">value = [1.909, 0.0]</text>
<text text-anchor="middle" x="686" y="-134.3" font-family="Times,serif" font-size="14.00">class = Non&#45;obstructive</text>
</g>
<!-- 5&#45;&gt;9 -->
<g id="edge9" class="edge">
<title>5&#45;&gt;9</title>
<path fill="none" stroke="black" d="M616.02,-252.97C625.61,-241.47 635.85,-229.18 645.45,-217.66"/>
<polygon fill="black" stroke="black" points="648.27,-219.74 651.99,-209.82 642.9,-215.26 648.27,-219.74"/>
</g>
<!-- 7 -->
<g id="node8" class="node">
<title>7</title>
<polygon fill="none" stroke="black" points="369.5,-83 202.5,-83 202.5,0 369.5,0 369.5,-83"/>
<text text-anchor="middle" x="286" y="-67.8" font-family="Times,serif" font-size="14.00">node #7</text>
<text text-anchor="middle" x="286" y="-52.8" font-family="Times,serif" font-size="14.00">gini = 0.0</text>
<text text-anchor="middle" x="286" y="-37.8" font-family="Times,serif" font-size="14.00">samples = 42</text>
<text text-anchor="middle" x="286" y="-22.8" font-family="Times,serif" font-size="14.00">value = [0.0, 73.522]</text>
<text text-anchor="middle" x="286" y="-7.8" font-family="Times,serif" font-size="14.00">class = Obstructive</text>
</g>
<!-- 6&#45;&gt;7 -->
<g id="edge7" class="edge">
<title>6&#45;&gt;7</title>
<path fill="none" stroke="black" d="M403.77,-118.87C388.51,-108.97 372.47,-98.57 357.32,-88.74"/>
<polygon fill="black" stroke="black" points="358.8,-85.54 348.51,-83.03 354.99,-91.41 358.8,-85.54"/>
</g>
<!-- 8 -->
<g id="node9" class="node">
<title>8</title>
<polygon fill="none" stroke="black" points="572.5,-83 387.5,-83 387.5,0 572.5,0 572.5,-83"/>
<text text-anchor="middle" x="480" y="-67.8" font-family="Times,serif" font-size="14.00">node #8</text>
<text text-anchor="middle" x="480" y="-52.8" font-family="Times,serif" font-size="14.00">gini = 0.091</text>
<text text-anchor="middle" x="480" y="-37.8" font-family="Times,serif" font-size="14.00">samples = 13</text>
<text text-anchor="middle" x="480" y="-22.8" font-family="Times,serif" font-size="14.00">value = [0.954, 18.906]</text>
<text text-anchor="middle" x="480" y="-7.8" font-family="Times,serif" font-size="14.00">class = Obstructive</text>
</g>
<!-- 6&#45;&gt;8 -->
<g id="edge8" class="edge">
<title>6&#45;&gt;8</title>
<path fill="none" stroke="black" d="M478.77,-118.87C478.91,-110.5 479.05,-101.77 479.18,-93.33"/>
<polygon fill="black" stroke="black" points="482.68,-93.29 479.35,-83.23 475.69,-93.17 482.68,-93.29"/>
</g>
<!-- 11 -->
<g id="node12" class="node">
<title>11</title>
<polygon fill="none" stroke="black" points="1097.5,-351 894.5,-351 894.5,-253 1097.5,-253 1097.5,-351"/>
<text text-anchor="middle" x="996" y="-335.8" font-family="Times,serif" font-size="14.00">node #11</text>
<text text-anchor="middle" x="996" y="-320.8" font-family="Times,serif" font-size="14.00">FVCPostVal &lt;= 2.6</text>
<text text-anchor="middle" x="996" y="-305.8" font-family="Times,serif" font-size="14.00">gini = 0.176</text>
<text text-anchor="middle" x="996" y="-290.8" font-family="Times,serif" font-size="14.00">samples = 68</text>
<text text-anchor="middle" x="996" y="-275.8" font-family="Times,serif" font-size="14.00">value = [116.423, 12.604]</text>
<text text-anchor="middle" x="996" y="-260.8" font-family="Times,serif" font-size="14.00">class = Non&#45;obstructive</text>
</g>
<!-- 10&#45;&gt;11 -->
<g id="edge11" class="edge">
<title>10&#45;&gt;11</title>
<path fill="none" stroke="black" d="M996,-386.97C996,-378.69 996,-370 996,-361.48"/>
<polygon fill="black" stroke="black" points="999.5,-361.21 996,-351.21 992.5,-361.21 999.5,-361.21"/>
</g>
<!-- 18 -->
<g id="node19" class="node">
<title>18</title>
<polygon fill="none" stroke="black" points="1656,-351 1462,-351 1462,-253 1656,-253 1656,-351"/>
<text text-anchor="middle" x="1559" y="-335.8" font-family="Times,serif" font-size="14.00">node #18</text>
<text text-anchor="middle" x="1559" y="-320.8" font-family="Times,serif" font-size="14.00">FVCPreVal &lt;= 1.95</text>
<text text-anchor="middle" x="1559" y="-305.8" font-family="Times,serif" font-size="14.00">gini = 0.489</text>
<text text-anchor="middle" x="1559" y="-290.8" font-family="Times,serif" font-size="14.00">samples = 68</text>
<text text-anchor="middle" x="1559" y="-275.8" font-family="Times,serif" font-size="14.00">value = [41.989, 56.717]</text>
<text text-anchor="middle" x="1559" y="-260.8" font-family="Times,serif" font-size="14.00">class = Obstructive</text>
</g>
<!-- 10&#45;&gt;18 -->
<g id="edge18" class="edge">
<title>10&#45;&gt;18</title>
<path fill="none" stroke="black" d="M1097.63,-411.17C1197.71,-387.71 1349.98,-352.01 1451.91,-328.11"/>
<polygon fill="black" stroke="black" points="1452.98,-331.45 1461.92,-325.76 1451.39,-324.64 1452.98,-331.45"/>
</g>
<!-- 12 -->
<g id="node13" class="node">
<title>12</title>
<polygon fill="none" stroke="black" points="986,-217 798,-217 798,-119 986,-119 986,-217"/>
<text text-anchor="middle" x="892" y="-201.8" font-family="Times,serif" font-size="14.00">node #12</text>
<text text-anchor="middle" x="892" y="-186.8" font-family="Times,serif" font-size="14.00">FVCPostVal &lt;= 1.58</text>
<text text-anchor="middle" x="892" y="-171.8" font-family="Times,serif" font-size="14.00">gini = 0.1</text>
<text text-anchor="middle" x="892" y="-156.8" font-family="Times,serif" font-size="14.00">samples = 63</text>
<text text-anchor="middle" x="892" y="-141.8" font-family="Times,serif" font-size="14.00">value = [113.56, 6.302]</text>
<text text-anchor="middle" x="892" y="-126.8" font-family="Times,serif" font-size="14.00">class = Non&#45;obstructive</text>
</g>
<!-- 11&#45;&gt;12 -->
<g id="edge12" class="edge">
<title>11&#45;&gt;12</title>
<path fill="none" stroke="black" d="M958.16,-252.97C951.06,-243.96 943.58,-234.47 936.31,-225.24"/>
<polygon fill="black" stroke="black" points="938.92,-222.9 929.99,-217.21 933.43,-227.23 938.92,-222.9"/>
</g>
<!-- 15 -->
<g id="node16" class="node">
<title>15</title>
<polygon fill="none" stroke="black" points="1195.5,-217 1004.5,-217 1004.5,-119 1195.5,-119 1195.5,-217"/>
<text text-anchor="middle" x="1100" y="-201.8" font-family="Times,serif" font-size="14.00">node #15</text>
<text text-anchor="middle" x="1100" y="-186.8" font-family="Times,serif" font-size="14.00">FEFPrePercent &lt;= 52.5</text>
<text text-anchor="middle" x="1100" y="-171.8" font-family="Times,serif" font-size="14.00">gini = 0.43</text>
<text text-anchor="middle" x="1100" y="-156.8" font-family="Times,serif" font-size="14.00">samples = 5</text>
<text text-anchor="middle" x="1100" y="-141.8" font-family="Times,serif" font-size="14.00">value = [2.863, 6.302]</text>
<text text-anchor="middle" x="1100" y="-126.8" font-family="Times,serif" font-size="14.00">class = Obstructive</text>
</g>
<!-- 11&#45;&gt;15 -->
<g id="edge15" class="edge">
<title>11&#45;&gt;15</title>
<path fill="none" stroke="black" d="M1033.84,-252.97C1040.94,-243.96 1048.42,-234.47 1055.69,-225.24"/>
<polygon fill="black" stroke="black" points="1058.57,-227.23 1062.01,-217.21 1053.08,-222.9 1058.57,-227.23"/>
</g>
<!-- 13 -->
<g id="node14" class="node">
<title>13</title>
<polygon fill="none" stroke="black" points="780,-83 592,-83 592,0 780,0 780,-83"/>
<text text-anchor="middle" x="686" y="-67.8" font-family="Times,serif" font-size="14.00">node #13</text>
<text text-anchor="middle" x="686" y="-52.8" font-family="Times,serif" font-size="14.00">gini = 0.0</text>
<text text-anchor="middle" x="686" y="-37.8" font-family="Times,serif" font-size="14.00">samples = 42</text>
<text text-anchor="middle" x="686" y="-22.8" font-family="Times,serif" font-size="14.00">value = [78.251, 0.0]</text>
<text text-anchor="middle" x="686" y="-7.8" font-family="Times,serif" font-size="14.00">class = Non&#45;obstructive</text>
</g>
<!-- 12&#45;&gt;13 -->
<g id="edge13" class="edge">
<title>12&#45;&gt;13</title>
<path fill="none" stroke="black" d="M812.36,-118.87C795.83,-108.88 778.46,-98.38 762.06,-88.47"/>
<polygon fill="black" stroke="black" points="763.43,-85.21 753.07,-83.03 759.81,-91.2 763.43,-85.21"/>
</g>
<!-- 14 -->
<g id="node15" class="node">
<title>14</title>
<polygon fill="none" stroke="black" points="986,-83 798,-83 798,0 986,0 986,-83"/>
<text text-anchor="middle" x="892" y="-67.8" font-family="Times,serif" font-size="14.00">node #14</text>
<text text-anchor="middle" x="892" y="-52.8" font-family="Times,serif" font-size="14.00">gini = 0.257</text>
<text text-anchor="middle" x="892" y="-37.8" font-family="Times,serif" font-size="14.00">samples = 21</text>
<text text-anchor="middle" x="892" y="-22.8" font-family="Times,serif" font-size="14.00">value = [35.309, 6.302]</text>
<text text-anchor="middle" x="892" y="-7.8" font-family="Times,serif" font-size="14.00">class = Non&#45;obstructive</text>
</g>
<!-- 12&#45;&gt;14 -->
<g id="edge14" class="edge">
<title>12&#45;&gt;14</title>
<path fill="none" stroke="black" d="M892,-118.87C892,-110.5 892,-101.77 892,-93.33"/>
<polygon fill="black" stroke="black" points="895.5,-93.23 892,-83.23 888.5,-93.23 895.5,-93.23"/>
</g>
<!-- 16 -->
<g id="node17" class="node">
<title>16</title>
<polygon fill="none" stroke="black" points="1162,-83 1004,-83 1004,0 1162,0 1162,-83"/>
<text text-anchor="middle" x="1083" y="-67.8" font-family="Times,serif" font-size="14.00">node #16</text>
<text text-anchor="middle" x="1083" y="-52.8" font-family="Times,serif" font-size="14.00">gini = 0.0</text>
<text text-anchor="middle" x="1083" y="-37.8" font-family="Times,serif" font-size="14.00">samples = 3</text>
<text text-anchor="middle" x="1083" y="-22.8" font-family="Times,serif" font-size="14.00">value = [0.0, 6.302]</text>
<text text-anchor="middle" x="1083" y="-7.8" font-family="Times,serif" font-size="14.00">class = Obstructive</text>
</g>
<!-- 15&#45;&gt;16 -->
<g id="edge16" class="edge">
<title>15&#45;&gt;16</title>
<path fill="none" stroke="black" d="M1093.43,-118.87C1092.28,-110.5 1091.09,-101.77 1089.94,-93.33"/>
<polygon fill="black" stroke="black" points="1093.38,-92.67 1088.56,-83.23 1086.45,-93.61 1093.38,-92.67"/>
</g>
<!-- 17 -->
<g id="node18" class="node">
<title>17</title>
<polygon fill="none" stroke="black" points="1368,-83 1180,-83 1180,0 1368,0 1368,-83"/>
<text text-anchor="middle" x="1274" y="-67.8" font-family="Times,serif" font-size="14.00">node #17</text>
<text text-anchor="middle" x="1274" y="-52.8" font-family="Times,serif" font-size="14.00">gini = 0.0</text>
<text text-anchor="middle" x="1274" y="-37.8" font-family="Times,serif" font-size="14.00">samples = 2</text>
<text text-anchor="middle" x="1274" y="-22.8" font-family="Times,serif" font-size="14.00">value = [2.863, 0.0]</text>
<text text-anchor="middle" x="1274" y="-7.8" font-family="Times,serif" font-size="14.00">class = Non&#45;obstructive</text>
</g>
<!-- 15&#45;&gt;17 -->
<g id="edge17" class="edge">
<title>15&#45;&gt;17</title>
<path fill="none" stroke="black" d="M1167.27,-118.87C1180.97,-109.06 1195.36,-98.77 1208.98,-89.02"/>
<polygon fill="black" stroke="black" points="1211.26,-91.7 1217.35,-83.03 1207.18,-86.01 1211.26,-91.7"/>
</g>
<!-- 19 -->
<g id="node20" class="node">
<title>19</title>
<polygon fill="none" stroke="black" points="1657.5,-217 1460.5,-217 1460.5,-119 1657.5,-119 1657.5,-217"/>
<text text-anchor="middle" x="1559" y="-201.8" font-family="Times,serif" font-size="14.00">node #19</text>
<text text-anchor="middle" x="1559" y="-186.8" font-family="Times,serif" font-size="14.00">FVCPostPercent &lt;= 78.5</text>
<text text-anchor="middle" x="1559" y="-171.8" font-family="Times,serif" font-size="14.00">gini = 0.248</text>
<text text-anchor="middle" x="1559" y="-156.8" font-family="Times,serif" font-size="14.00">samples = 9</text>
<text text-anchor="middle" x="1559" y="-141.8" font-family="Times,serif" font-size="14.00">value = [12.406, 2.101]</text>
<text text-anchor="middle" x="1559" y="-126.8" font-family="Times,serif" font-size="14.00">class = Non&#45;obstructive</text>
</g>
<!-- 18&#45;&gt;19 -->
<g id="edge19" class="edge">
<title>18&#45;&gt;19</title>
<path fill="none" stroke="black" d="M1559,-252.97C1559,-244.69 1559,-236 1559,-227.48"/>
<polygon fill="black" stroke="black" points="1562.5,-227.21 1559,-217.21 1555.5,-227.21 1562.5,-227.21"/>
</g>
<!-- 22 -->
<g id="node23" class="node">
<title>22</title>
<polygon fill="none" stroke="black" points="1956,-217 1756,-217 1756,-119 1956,-119 1956,-217"/>
<text text-anchor="middle" x="1856" y="-201.8" font-family="Times,serif" font-size="14.00">node #22</text>
<text text-anchor="middle" x="1856" y="-186.8" font-family="Times,serif" font-size="14.00">FEV1PrePercent &lt;= 72.5</text>
<text text-anchor="middle" x="1856" y="-171.8" font-family="Times,serif" font-size="14.00">gini = 0.456</text>
<text text-anchor="middle" x="1856" y="-156.8" font-family="Times,serif" font-size="14.00">samples = 59</text>
<text text-anchor="middle" x="1856" y="-141.8" font-family="Times,serif" font-size="14.00">value = [29.583, 54.616]</text>
<text text-anchor="middle" x="1856" y="-126.8" font-family="Times,serif" font-size="14.00">class = Obstructive</text>
</g>
<!-- 18&#45;&gt;22 -->
<g id="edge22" class="edge">
<title>18&#45;&gt;22</title>
<path fill="none" stroke="black" d="M1656.25,-257.78C1685.1,-244.96 1716.89,-230.82 1746.47,-217.68"/>
<polygon fill="black" stroke="black" points="1748.27,-220.71 1755.99,-213.45 1745.43,-214.31 1748.27,-220.71"/>
</g>
<!-- 20 -->
<g id="node21" class="node">
<title>20</title>
<polygon fill="none" stroke="black" points="1574,-83 1386,-83 1386,0 1574,0 1574,-83"/>
<text text-anchor="middle" x="1480" y="-67.8" font-family="Times,serif" font-size="14.00">node #20</text>
<text text-anchor="middle" x="1480" y="-52.8" font-family="Times,serif" font-size="14.00">gini = &#45;0.0</text>
<text text-anchor="middle" x="1480" y="-37.8" font-family="Times,serif" font-size="14.00">samples = 8</text>
<text text-anchor="middle" x="1480" y="-22.8" font-family="Times,serif" font-size="14.00">value = [12.406, 0.0]</text>
<text text-anchor="middle" x="1480" y="-7.8" font-family="Times,serif" font-size="14.00">class = Non&#45;obstructive</text>
</g>
<!-- 19&#45;&gt;20 -->
<g id="edge20" class="edge">
<title>19&#45;&gt;20</title>
<path fill="none" stroke="black" d="M1528.46,-118.87C1522.86,-110.04 1517,-100.81 1511.38,-91.95"/>
<polygon fill="black" stroke="black" points="1514.16,-89.8 1505.85,-83.23 1508.25,-93.55 1514.16,-89.8"/>
</g>
<!-- 21 -->
<g id="node22" class="node">
<title>21</title>
<polygon fill="none" stroke="black" points="1750,-83 1592,-83 1592,0 1750,0 1750,-83"/>
<text text-anchor="middle" x="1671" y="-67.8" font-family="Times,serif" font-size="14.00">node #21</text>
<text text-anchor="middle" x="1671" y="-52.8" font-family="Times,serif" font-size="14.00">gini = 0.0</text>
<text text-anchor="middle" x="1671" y="-37.8" font-family="Times,serif" font-size="14.00">samples = 1</text>
<text text-anchor="middle" x="1671" y="-22.8" font-family="Times,serif" font-size="14.00">value = [0.0, 2.101]</text>
<text text-anchor="middle" x="1671" y="-7.8" font-family="Times,serif" font-size="14.00">class = Obstructive</text>
</g>
<!-- 19&#45;&gt;21 -->
<g id="edge21" class="edge">
<title>19&#45;&gt;21</title>
<path fill="none" stroke="black" d="M1602.3,-118.87C1610.57,-109.67 1619.24,-100.04 1627.51,-90.84"/>
<polygon fill="black" stroke="black" points="1630.27,-93.01 1634.36,-83.23 1625.07,-88.32 1630.27,-93.01"/>
</g>
<!-- 23 -->
<g id="node24" class="node">
<title>23</title>
<polygon fill="none" stroke="black" points="1944,-83 1768,-83 1768,0 1944,0 1944,-83"/>
<text text-anchor="middle" x="1856" y="-67.8" font-family="Times,serif" font-size="14.00">node #23</text>
<text text-anchor="middle" x="1856" y="-52.8" font-family="Times,serif" font-size="14.00">gini = 0.188</text>
<text text-anchor="middle" x="1856" y="-37.8" font-family="Times,serif" font-size="14.00">samples = 23</text>
<text text-anchor="middle" x="1856" y="-22.8" font-family="Times,serif" font-size="14.00">value = [3.817, 32.56]</text>
<text text-anchor="middle" x="1856" y="-7.8" font-family="Times,serif" font-size="14.00">class = Obstructive</text>
</g>
<!-- 22&#45;&gt;23 -->
<g id="edge23" class="edge">
<title>22&#45;&gt;23</title>
<path fill="none" stroke="black" d="M1856,-118.87C1856,-110.5 1856,-101.77 1856,-93.33"/>
<polygon fill="black" stroke="black" points="1859.5,-93.23 1856,-83.23 1852.5,-93.23 1859.5,-93.23"/>
</g>
<!-- 24 -->
<g id="node25" class="node">
<title>24</title>
<polygon fill="none" stroke="black" points="2156,-83 1962,-83 1962,0 2156,0 2156,-83"/>
<text text-anchor="middle" x="2059" y="-67.8" font-family="Times,serif" font-size="14.00">node #24</text>
<text text-anchor="middle" x="2059" y="-52.8" font-family="Times,serif" font-size="14.00">gini = 0.497</text>
<text text-anchor="middle" x="2059" y="-37.8" font-family="Times,serif" font-size="14.00">samples = 36</text>
<text text-anchor="middle" x="2059" y="-22.8" font-family="Times,serif" font-size="14.00">value = [25.766, 22.057]</text>
<text text-anchor="middle" x="2059" y="-7.8" font-family="Times,serif" font-size="14.00">class = Non&#45;obstructive</text>
</g>
<!-- 22&#45;&gt;24 -->
<g id="edge24" class="edge">
<title>22&#45;&gt;24</title>
<path fill="none" stroke="black" d="M1934.49,-118.87C1950.77,-108.88 1967.89,-98.38 1984.05,-88.47"/>
<polygon fill="black" stroke="black" points="1986.22,-91.24 1992.91,-83.03 1982.56,-85.28 1986.22,-91.24"/>
</g>
</g>
</svg>
