<?xml version="1.0" encoding="UTF-8" standalone="no"?>
<!DOCTYPE svg PUBLIC "-//W3C//DTD SVG 1.1//EN"
 "http://www.w3.org/Graphics/SVG/1.1/DTD/svg11.dtd">
<!-- Generated by graphviz version 2.43.0 (0)
 -->
<!-- Title: Tree Pages: 1 -->
<svg width="1566pt" height="627pt"
 viewBox="0.00 0.00 1565.50 627.00" xmlns="http://www.w3.org/2000/svg" xmlns:xlink="http://www.w3.org/1999/xlink">
<g id="graph0" class="graph" transform="scale(1 1) rotate(0) translate(4 623)">
<title>Tree</title>
<polygon fill="white" stroke="transparent" points="-4,4 -4,-623 1561.5,-623 1561.5,4 -4,4"/>
<!-- 0 -->
<g id="node1" class="node">
<title>0</title>
<polygon fill="none" stroke="black" points="599,-619 399,-619 399,-521 599,-521 599,-619"/>
<text text-anchor="middle" x="499" y="-603.8" font-family="Times,serif" font-size="14.00">node #0</text>
<text text-anchor="middle" x="499" y="-588.8" font-family="Times,serif" font-size="14.00">FEV1PrePercent &lt;= 32.5</text>
<text text-anchor="middle" x="499" y="-573.8" font-family="Times,serif" font-size="14.00">gini = 0.5</text>
<text text-anchor="middle" x="499" y="-558.8" font-family="Times,serif" font-size="14.00">samples = 206</text>
<text text-anchor="middle" x="499" y="-543.8" font-family="Times,serif" font-size="14.00">value = [167.0, 167.0]</text>
<text text-anchor="middle" x="499" y="-528.8" font-family="Times,serif" font-size="14.00">class = Non&#45;obstructive</text>
</g>
<!-- 1 -->
<g id="node2" class="node">
<title>1</title>
<polygon fill="none" stroke="black" points="484.5,-485 293.5,-485 293.5,-387 484.5,-387 484.5,-485"/>
<text text-anchor="middle" x="389" y="-469.8" font-family="Times,serif" font-size="14.00">node #1</text>
<text text-anchor="middle" x="389" y="-454.8" font-family="Times,serif" font-size="14.00">FEFPrePercent &lt;= 41.0</text>
<text text-anchor="middle" x="389" y="-439.8" font-family="Times,serif" font-size="14.00">gini = 0.089</text>
<text text-anchor="middle" x="389" y="-424.8" font-family="Times,serif" font-size="14.00">samples = 32</text>
<text text-anchor="middle" x="389" y="-409.8" font-family="Times,serif" font-size="14.00">value = [1.931, 39.416]</text>
<text text-anchor="middle" x="389" y="-394.8" font-family="Times,serif" font-size="14.00">class = Obstructive</text>
</g>
<!-- 0&#45;&gt;1 -->
<g id="edge1" class="edge">
<title>0&#45;&gt;1</title>
<path fill="none" stroke="black" d="M458.98,-520.97C451.39,-511.87 443.4,-502.28 435.63,-492.96"/>
<polygon fill="black" stroke="black" points="438.27,-490.66 429.18,-485.21 432.89,-495.14 438.27,-490.66"/>
<text text-anchor="middle" x="426.91" y="-506.41" font-family="Times,serif" font-size="14.00">True</text>
</g>
<!-- 4 -->
<g id="node5" class="node">
<title>4</title>
<polygon fill="none" stroke="black" points="715,-485 503,-485 503,-387 715,-387 715,-485"/>
<text text-anchor="middle" x="609" y="-469.8" font-family="Times,serif" font-size="14.00">node #4</text>
<text text-anchor="middle" x="609" y="-454.8" font-family="Times,serif" font-size="14.00">FEFPrePercent &lt;= 41.5</text>
<text text-anchor="middle" x="609" y="-439.8" font-family="Times,serif" font-size="14.00">gini = 0.492</text>
<text text-anchor="middle" x="609" y="-424.8" font-family="Times,serif" font-size="14.00">samples = 174</text>
<text text-anchor="middle" x="609" y="-409.8" font-family="Times,serif" font-size="14.00">value = [165.069, 127.584]</text>
<text text-anchor="middle" x="609" y="-394.8" font-family="Times,serif" font-size="14.00">class = Non&#45;obstructive</text>
</g>
<!-- 0&#45;&gt;4 -->
<g id="edge4" class="edge">
<title>0&#45;&gt;4</title>
<path fill="none" stroke="black" d="M539.02,-520.97C546.61,-511.87 554.6,-502.28 562.37,-492.96"/>
<polygon fill="black" stroke="black" points="565.11,-495.14 568.82,-485.21 559.73,-490.66 565.11,-495.14"/>
<text text-anchor="middle" x="571.09" y="-506.41" font-family="Times,serif" font-size="14.00">False</text>
</g>
<!-- 2 -->
<g id="node3" class="node">
<title>2</title>
<polygon fill="none" stroke="black" points="279.5,-343.5 112.5,-343.5 112.5,-260.5 279.5,-260.5 279.5,-343.5"/>
<text text-anchor="middle" x="196" y="-328.3" font-family="Times,serif" font-size="14.00">node #2</text>
<text text-anchor="middle" x="196" y="-313.3" font-family="Times,serif" font-size="14.00">gini = 0.0</text>
<text text-anchor="middle" x="196" y="-298.3" font-family="Times,serif" font-size="14.00">samples = 30</text>
<text text-anchor="middle" x="196" y="-283.3" font-family="Times,serif" font-size="14.00">value = [0.0, 39.416]</text>
<text text-anchor="middle" x="196" y="-268.3" font-family="Times,serif" font-size="14.00">class = Obstructive</text>
</g>
<!-- 1&#45;&gt;2 -->
<g id="edge2" class="edge">
<title>1&#45;&gt;2</title>
<path fill="none" stroke="black" d="M318.78,-386.97C300.9,-374.75 281.72,-361.63 263.96,-349.48"/>
<polygon fill="black" stroke="black" points="265.6,-346.36 255.37,-343.6 261.65,-352.14 265.6,-346.36"/>
</g>
<!-- 3 -->
<g id="node4" class="node">
<title>3</title>
<polygon fill="none" stroke="black" points="486,-343.5 298,-343.5 298,-260.5 486,-260.5 486,-343.5"/>
<text text-anchor="middle" x="392" y="-328.3" font-family="Times,serif" font-size="14.00">node #3</text>
<text text-anchor="middle" x="392" y="-313.3" font-family="Times,serif" font-size="14.00">gini = 0.0</text>
<text text-anchor="middle" x="392" y="-298.3" font-family="Times,serif" font-size="14.00">samples = 2</text>
<text text-anchor="middle" x="392" y="-283.3" font-family="Times,serif" font-size="14.00">value = [1.931, 0.0]</text>
<text text-anchor="middle" x="392" y="-268.3" font-family="Times,serif" font-size="14.00">class = Non&#45;obstructive</text>
</g>
<!-- 1&#45;&gt;3 -->
<g id="edge3" class="edge">
<title>1&#45;&gt;3</title>
<path fill="none" stroke="black" d="M390.09,-386.97C390.34,-376.25 390.59,-364.84 390.84,-353.99"/>
<polygon fill="black" stroke="black" points="394.34,-353.89 391.07,-343.82 387.35,-353.73 394.34,-353.89"/>
</g>
<!-- 5 -->
<g id="node6" class="node">
<title>5</title>
<polygon fill="none" stroke="black" points="705.5,-351 508.5,-351 508.5,-253 705.5,-253 705.5,-351"/>
<text text-anchor="middle" x="607" y="-335.8" font-family="Times,serif" font-size="14.00">node #5</text>
<text text-anchor="middle" x="607" y="-320.8" font-family="Times,serif" font-size="14.00">FVCPostPercent &lt;= 61.5</text>
<text text-anchor="middle" x="607" y="-305.8" font-family="Times,serif" font-size="14.00">gini = 0.232</text>
<text text-anchor="middle" x="607" y="-290.8" font-family="Times,serif" font-size="14.00">samples = 59</text>
<text text-anchor="middle" x="607" y="-275.8" font-family="Times,serif" font-size="14.00">value = [13.514, 87.13]</text>
<text text-anchor="middle" x="607" y="-260.8" font-family="Times,serif" font-size="14.00">class = Obstructive</text>
</g>
<!-- 4&#45;&gt;5 -->
<g id="edge5" class="edge">
<title>4&#45;&gt;5</title>
<path fill="none" stroke="black" d="M608.27,-386.97C608.15,-378.69 608.02,-370 607.89,-361.48"/>
<polygon fill="black" stroke="black" points="611.38,-361.16 607.73,-351.21 604.38,-361.27 611.38,-361.16"/>
</g>
<!-- 12 -->
<g id="node13" class="node">
<title>12</title>
<polygon fill="none" stroke="black" points="1009.5,-351 806.5,-351 806.5,-253 1009.5,-253 1009.5,-351"/>
<text text-anchor="middle" x="908" y="-335.8" font-family="Times,serif" font-size="14.00">node #12</text>
<text text-anchor="middle" x="908" y="-320.8" font-family="Times,serif" font-size="14.00">FVCPostPercent &lt;= 78.5</text>
<text text-anchor="middle" x="908" y="-305.8" font-family="Times,serif" font-size="14.00">gini = 0.333</text>
<text text-anchor="middle" x="908" y="-290.8" font-family="Times,serif" font-size="14.00">samples = 115</text>
<text text-anchor="middle" x="908" y="-275.8" font-family="Times,serif" font-size="14.00">value = [151.555, 40.453]</text>
<text text-anchor="middle" x="908" y="-260.8" font-family="Times,serif" font-size="14.00">class = Non&#45;obstructive</text>
</g>
<!-- 4&#45;&gt;12 -->
<g id="edge12" class="edge">
<title>4&#45;&gt;12</title>
<path fill="none" stroke="black" d="M715.26,-388.09C741.68,-376.42 770.08,-363.89 796.74,-352.12"/>
<polygon fill="black" stroke="black" points="798.36,-355.23 806.09,-347.99 795.53,-348.83 798.36,-355.23"/>
</g>
<!-- 6 -->
<g id="node7" class="node">
<title>6</title>
<polygon fill="none" stroke="black" points="367,-217 173,-217 173,-119 367,-119 367,-217"/>
<text text-anchor="middle" x="270" y="-201.8" font-family="Times,serif" font-size="14.00">node #6</text>
<text text-anchor="middle" x="270" y="-186.8" font-family="Times,serif" font-size="14.00">FEFPreVal &lt;= 0.685</text>
<text text-anchor="middle" x="270" y="-171.8" font-family="Times,serif" font-size="14.00">gini = 0.481</text>
<text text-anchor="middle" x="270" y="-156.8" font-family="Times,serif" font-size="14.00">samples = 19</text>
<text text-anchor="middle" x="270" y="-141.8" font-family="Times,serif" font-size="14.00">value = [12.549, 18.671]</text>
<text text-anchor="middle" x="270" y="-126.8" font-family="Times,serif" font-size="14.00">class = Obstructive</text>
</g>
<!-- 5&#45;&gt;6 -->
<g id="edge6" class="edge">
<title>5&#45;&gt;6</title>
<path fill="none" stroke="black" d="M508.47,-258.47C503.93,-256.6 499.42,-254.77 495,-253 456.55,-237.6 414.07,-221.5 376.47,-207.57"/>
<polygon fill="black" stroke="black" points="377.61,-204.26 367.02,-204.07 375.18,-210.82 377.61,-204.26"/>
</g>
<!-- 9 -->
<g id="node10" class="node">
<title>9</title>
<polygon fill="none" stroke="black" points="695,-217 519,-217 519,-119 695,-119 695,-217"/>
<text text-anchor="middle" x="607" y="-201.8" font-family="Times,serif" font-size="14.00">node #9</text>
<text text-anchor="middle" x="607" y="-186.8" font-family="Times,serif" font-size="14.00">FVCPostVal &lt;= 1.725</text>
<text text-anchor="middle" x="607" y="-171.8" font-family="Times,serif" font-size="14.00">gini = 0.027</text>
<text text-anchor="middle" x="607" y="-156.8" font-family="Times,serif" font-size="14.00">samples = 40</text>
<text text-anchor="middle" x="607" y="-141.8" font-family="Times,serif" font-size="14.00">value = [0.965, 68.46]</text>
<text text-anchor="middle" x="607" y="-126.8" font-family="Times,serif" font-size="14.00">class = Obstructive</text>
</g>
<!-- 5&#45;&gt;9 -->
<g id="edge9" class="edge">
<title>5&#45;&gt;9</title>
<path fill="none" stroke="black" d="M607,-252.97C607,-244.69 607,-236 607,-227.48"/>
<polygon fill="black" stroke="black" points="610.5,-227.21 607,-217.21 603.5,-227.21 610.5,-227.21"/>
</g>
<!-- 7 -->
<g id="node8" class="node">
<title>7</title>
<polygon fill="none" stroke="black" points="158,-83 0,-83 0,0 158,0 158,-83"/>
<text text-anchor="middle" x="79" y="-67.8" font-family="Times,serif" font-size="14.00">node #7</text>
<text text-anchor="middle" x="79" y="-52.8" font-family="Times,serif" font-size="14.00">gini = 0.0</text>
<text text-anchor="middle" x="79" y="-37.8" font-family="Times,serif" font-size="14.00">samples = 6</text>
<text text-anchor="middle" x="79" y="-22.8" font-family="Times,serif" font-size="14.00">value = [0.0, 9.335]</text>
<text text-anchor="middle" x="79" y="-7.8" font-family="Times,serif" font-size="14.00">class = Obstructive</text>
</g>
<!-- 6&#45;&gt;7 -->
<g id="edge7" class="edge">
<title>6&#45;&gt;7</title>
<path fill="none" stroke="black" d="M196.15,-118.87C180.97,-108.97 165.02,-98.57 149.95,-88.74"/>
<polygon fill="black" stroke="black" points="151.47,-85.56 141.18,-83.03 147.65,-91.43 151.47,-85.56"/>
</g>
<!-- 8 -->
<g id="node9" class="node">
<title>8</title>
<polygon fill="none" stroke="black" points="364,-83 176,-83 176,0 364,0 364,-83"/>
<text text-anchor="middle" x="270" y="-67.8" font-family="Times,serif" font-size="14.00">node #8</text>
<text text-anchor="middle" x="270" y="-52.8" font-family="Times,serif" font-size="14.00">gini = 0.489</text>
<text text-anchor="middle" x="270" y="-37.8" font-family="Times,serif" font-size="14.00">samples = 13</text>
<text text-anchor="middle" x="270" y="-22.8" font-family="Times,serif" font-size="14.00">value = [12.549, 9.335]</text>
<text text-anchor="middle" x="270" y="-7.8" font-family="Times,serif" font-size="14.00">class = Non&#45;obstructive</text>
</g>
<!-- 6&#45;&gt;8 -->
<g id="edge8" class="edge">
<title>6&#45;&gt;8</title>
<path fill="none" stroke="black" d="M270,-118.87C270,-110.5 270,-101.77 270,-93.33"/>
<polygon fill="black" stroke="black" points="273.5,-93.23 270,-83.23 266.5,-93.23 273.5,-93.23"/>
</g>
<!-- 10 -->
<g id="node11" class="node">
<title>10</title>
<polygon fill="none" stroke="black" points="558,-83 382,-83 382,0 558,0 558,-83"/>
<text text-anchor="middle" x="470" y="-67.8" font-family="Times,serif" font-size="14.00">node #10</text>
<text text-anchor="middle" x="470" y="-52.8" font-family="Times,serif" font-size="14.00">gini = 0.361</text>
<text text-anchor="middle" x="470" y="-37.8" font-family="Times,serif" font-size="14.00">samples = 3</text>
<text text-anchor="middle" x="470" y="-22.8" font-family="Times,serif" font-size="14.00">value = [0.965, 3.112]</text>
<text text-anchor="middle" x="470" y="-7.8" font-family="Times,serif" font-size="14.00">class = Obstructive</text>
</g>
<!-- 9&#45;&gt;10 -->
<g id="edge10" class="edge">
<title>9&#45;&gt;10</title>
<path fill="none" stroke="black" d="M554.03,-118.87C543.61,-109.39 532.68,-99.46 522.28,-90.01"/>
<polygon fill="black" stroke="black" points="524.57,-87.37 514.82,-83.23 519.87,-92.55 524.57,-87.37"/>
</g>
<!-- 11 -->
<g id="node12" class="node">
<title>11</title>
<polygon fill="none" stroke="black" points="742.5,-83 575.5,-83 575.5,0 742.5,0 742.5,-83"/>
<text text-anchor="middle" x="659" y="-67.8" font-family="Times,serif" font-size="14.00">node #11</text>
<text text-anchor="middle" x="659" y="-52.8" font-family="Times,serif" font-size="14.00">gini = 0.0</text>
<text text-anchor="middle" x="659" y="-37.8" font-family="Times,serif" font-size="14.00">samples = 37</text>
<text text-anchor="middle" x="659" y="-22.8" font-family="Times,serif" font-size="14.00">value = [0.0, 65.348]</text>
<text text-anchor="middle" x="659" y="-7.8" font-family="Times,serif" font-size="14.00">class = Obstructive</text>
</g>
<!-- 9&#45;&gt;11 -->
<g id="edge11" class="edge">
<title>9&#45;&gt;11</title>
<path fill="none" stroke="black" d="M627.1,-118.87C630.71,-110.22 634.48,-101.2 638.12,-92.5"/>
<polygon fill="black" stroke="black" points="641.36,-93.81 641.99,-83.23 634.9,-91.11 641.36,-93.81"/>
</g>
<!-- 13 -->
<g id="node14" class="node">
<title>13</title>
<polygon fill="none" stroke="black" points="1009.5,-217 806.5,-217 806.5,-119 1009.5,-119 1009.5,-217"/>
<text text-anchor="middle" x="908" y="-201.8" font-family="Times,serif" font-size="14.00">node #13</text>
<text text-anchor="middle" x="908" y="-186.8" font-family="Times,serif" font-size="14.00">FEV1PreVal &lt;= 2.38</text>
<text text-anchor="middle" x="908" y="-171.8" font-family="Times,serif" font-size="14.00">gini = 0.181</text>
<text text-anchor="middle" x="908" y="-156.8" font-family="Times,serif" font-size="14.00">samples = 83</text>
<text text-anchor="middle" x="908" y="-141.8" font-family="Times,serif" font-size="14.00">value = [120.665, 13.484]</text>
<text text-anchor="middle" x="908" y="-126.8" font-family="Times,serif" font-size="14.00">class = Non&#45;obstructive</text>
</g>
<!-- 12&#45;&gt;13 -->
<g id="edge13" class="edge">
<title>12&#45;&gt;13</title>
<path fill="none" stroke="black" d="M908,-252.97C908,-244.69 908,-236 908,-227.48"/>
<polygon fill="black" stroke="black" points="911.5,-227.21 908,-217.21 904.5,-227.21 911.5,-227.21"/>
</g>
<!-- 16 -->
<g id="node17" class="node">
<title>16</title>
<polygon fill="none" stroke="black" points="1354,-217 1166,-217 1166,-119 1354,-119 1354,-217"/>
<text text-anchor="middle" x="1260" y="-201.8" font-family="Times,serif" font-size="14.00">node #16</text>
<text text-anchor="middle" x="1260" y="-186.8" font-family="Times,serif" font-size="14.00">FEFPostVal &lt;= 2.19</text>
<text text-anchor="middle" x="1260" y="-171.8" font-family="Times,serif" font-size="14.00">gini = 0.498</text>
<text text-anchor="middle" x="1260" y="-156.8" font-family="Times,serif" font-size="14.00">samples = 32</text>
<text text-anchor="middle" x="1260" y="-141.8" font-family="Times,serif" font-size="14.00">value = [30.89, 26.969]</text>
<text text-anchor="middle" x="1260" y="-126.8" font-family="Times,serif" font-size="14.00">class = Non&#45;obstructive</text>
</g>
<!-- 12&#45;&gt;16 -->
<g id="edge16" class="edge">
<title>12&#45;&gt;16</title>
<path fill="none" stroke="black" d="M1009.81,-262.82C1055.88,-245.55 1110.24,-225.16 1156.51,-207.81"/>
<polygon fill="black" stroke="black" points="1157.81,-211.06 1165.95,-204.27 1155.35,-204.5 1157.81,-211.06"/>
</g>
<!-- 14 -->
<g id="node15" class="node">
<title>14</title>
<polygon fill="none" stroke="black" points="954,-83 760,-83 760,0 954,0 954,-83"/>
<text text-anchor="middle" x="857" y="-67.8" font-family="Times,serif" font-size="14.00">node #14</text>
<text text-anchor="middle" x="857" y="-52.8" font-family="Times,serif" font-size="14.00">gini = 0.136</text>
<text text-anchor="middle" x="857" y="-37.8" font-family="Times,serif" font-size="14.00">samples = 76</text>
<text text-anchor="middle" x="857" y="-22.8" font-family="Times,serif" font-size="14.00">value = [117.769, 9.335]</text>
<text text-anchor="middle" x="857" y="-7.8" font-family="Times,serif" font-size="14.00">class = Non&#45;obstructive</text>
</g>
<!-- 13&#45;&gt;14 -->
<g id="edge14" class="edge">
<title>13&#45;&gt;14</title>
<path fill="none" stroke="black" d="M888.28,-118.87C884.74,-110.22 881.04,-101.2 877.48,-92.5"/>
<polygon fill="black" stroke="black" points="880.71,-91.16 873.68,-83.23 874.24,-93.81 880.71,-91.16"/>
</g>
<!-- 15 -->
<g id="node16" class="node">
<title>15</title>
<polygon fill="none" stroke="black" points="1148,-83 972,-83 972,0 1148,0 1148,-83"/>
<text text-anchor="middle" x="1060" y="-67.8" font-family="Times,serif" font-size="14.00">node #15</text>
<text text-anchor="middle" x="1060" y="-52.8" font-family="Times,serif" font-size="14.00">gini = 0.484</text>
<text text-anchor="middle" x="1060" y="-37.8" font-family="Times,serif" font-size="14.00">samples = 7</text>
<text text-anchor="middle" x="1060" y="-22.8" font-family="Times,serif" font-size="14.00">value = [2.896, 4.149]</text>
<text text-anchor="middle" x="1060" y="-7.8" font-family="Times,serif" font-size="14.00">class = Obstructive</text>
</g>
<!-- 13&#45;&gt;15 -->
<g id="edge15" class="edge">
<title>13&#45;&gt;15</title>
<path fill="none" stroke="black" d="M966.77,-118.87C978.44,-109.3 990.69,-99.27 1002.33,-89.74"/>
<polygon fill="black" stroke="black" points="1004.75,-92.28 1010.27,-83.23 1000.32,-86.86 1004.75,-92.28"/>
</g>
<!-- 17 -->
<g id="node18" class="node">
<title>17</title>
<polygon fill="none" stroke="black" points="1354,-83 1166,-83 1166,0 1354,0 1354,-83"/>
<text text-anchor="middle" x="1260" y="-67.8" font-family="Times,serif" font-size="14.00">node #17</text>
<text text-anchor="middle" x="1260" y="-52.8" font-family="Times,serif" font-size="14.00">gini = 0.282</text>
<text text-anchor="middle" x="1260" y="-37.8" font-family="Times,serif" font-size="14.00">samples = 13</text>
<text text-anchor="middle" x="1260" y="-22.8" font-family="Times,serif" font-size="14.00">value = [20.272, 4.149]</text>
<text text-anchor="middle" x="1260" y="-7.8" font-family="Times,serif" font-size="14.00">class = Non&#45;obstructive</text>
</g>
<!-- 16&#45;&gt;17 -->
<g id="edge17" class="edge">
<title>16&#45;&gt;17</title>
<path fill="none" stroke="black" d="M1260,-118.87C1260,-110.5 1260,-101.77 1260,-93.33"/>
<polygon fill="black" stroke="black" points="1263.5,-93.23 1260,-83.23 1256.5,-93.23 1263.5,-93.23"/>
</g>
<!-- 18 -->
<g id="node19" class="node">
<title>18</title>
<polygon fill="none" stroke="black" points="1557.5,-83 1372.5,-83 1372.5,0 1557.5,0 1557.5,-83"/>
<text text-anchor="middle" x="1465" y="-67.8" font-family="Times,serif" font-size="14.00">node #18</text>
<text text-anchor="middle" x="1465" y="-52.8" font-family="Times,serif" font-size="14.00">gini = 0.433</text>
<text text-anchor="middle" x="1465" y="-37.8" font-family="Times,serif" font-size="14.00">samples = 19</text>
<text text-anchor="middle" x="1465" y="-22.8" font-family="Times,serif" font-size="14.00">value = [10.618, 22.82]</text>
<text text-anchor="middle" x="1465" y="-7.8" font-family="Times,serif" font-size="14.00">class = Obstructive</text>
</g>
<!-- 16&#45;&gt;18 -->
<g id="edge18" class="edge">
<title>16&#45;&gt;18</title>
<path fill="none" stroke="black" d="M1339.26,-118.87C1355.7,-108.88 1372.99,-98.38 1389.31,-88.47"/>
<polygon fill="black" stroke="black" points="1391.53,-91.21 1398.26,-83.03 1387.9,-85.23 1391.53,-91.21"/>
</g>
</g>
</svg>
