<?xml version="1.0" encoding="UTF-8" standalone="no"?>
<!DOCTYPE svg PUBLIC "-//W3C//DTD SVG 1.1//EN"
 "http://www.w3.org/Graphics/SVG/1.1/DTD/svg11.dtd">
<!-- Generated by graphviz version 2.43.0 (0)
 -->
<!-- Title: Tree Pages: 1 -->
<svg width="2309pt" height="627pt"
 viewBox="0.00 0.00 2309.00 627.00" xmlns="http://www.w3.org/2000/svg" xmlns:xlink="http://www.w3.org/1999/xlink">
<g id="graph0" class="graph" transform="scale(1 1) rotate(0) translate(4 623)">
<title>Tree</title>
<polygon fill="white" stroke="transparent" points="-4,4 -4,-623 2305,-623 2305,4 -4,4"/>
<!-- 0 -->
<g id="node1" class="node">
<title>0</title>
<polygon fill="none" stroke="black" points="1167,-619 976,-619 976,-521 1167,-521 1167,-619"/>
<text text-anchor="middle" x="1071.5" y="-603.8" font-family="Times,serif" font-size="14.00">node #0</text>
<text text-anchor="middle" x="1071.5" y="-588.8" font-family="Times,serif" font-size="14.00">FEFPrePercent &lt;= 42.0</text>
<text text-anchor="middle" x="1071.5" y="-573.8" font-family="Times,serif" font-size="14.00">gini = 0.5</text>
<text text-anchor="middle" x="1071.5" y="-558.8" font-family="Times,serif" font-size="14.00">samples = 214</text>
<text text-anchor="middle" x="1071.5" y="-543.8" font-family="Times,serif" font-size="14.00">value = [167.0, 167.0]</text>
<text text-anchor="middle" x="1071.5" y="-528.8" font-family="Times,serif" font-size="14.00">class = Obstructive</text>
</g>
<!-- 1 -->
<g id="node2" class="node">
<title>1</title>
<polygon fill="none" stroke="black" points="892,-485 689,-485 689,-387 892,-387 892,-485"/>
<text text-anchor="middle" x="790.5" y="-469.8" font-family="Times,serif" font-size="14.00">node #1</text>
<text text-anchor="middle" x="790.5" y="-454.8" font-family="Times,serif" font-size="14.00">FEFPreVal &lt;= 0.84</text>
<text text-anchor="middle" x="790.5" y="-439.8" font-family="Times,serif" font-size="14.00">gini = 0.186</text>
<text text-anchor="middle" x="790.5" y="-424.8" font-family="Times,serif" font-size="14.00">samples = 99</text>
<text text-anchor="middle" x="790.5" y="-409.8" font-family="Times,serif" font-size="14.00">value = [15.084, 130.615]</text>
<text text-anchor="middle" x="790.5" y="-394.8" font-family="Times,serif" font-size="14.00">class = Obstructive</text>
</g>
<!-- 0&#45;&gt;1 -->
<g id="edge1" class="edge">
<title>0&#45;&gt;1</title>
<path fill="none" stroke="black" d="M975.97,-524.13C951.88,-512.81 925.82,-500.57 901.06,-488.94"/>
<polygon fill="black" stroke="black" points="902.54,-485.77 892,-484.68 899.57,-492.1 902.54,-485.77"/>
<text text-anchor="middle" x="900.49" y="-504.5" font-family="Times,serif" font-size="14.00">True</text>
</g>
<!-- 14 -->
<g id="node15" class="node">
<title>14</title>
<polygon fill="none" stroke="black" points="1526,-485 1323,-485 1323,-387 1526,-387 1526,-485"/>
<text text-anchor="middle" x="1424.5" y="-469.8" font-family="Times,serif" font-size="14.00">node #14</text>
<text text-anchor="middle" x="1424.5" y="-454.8" font-family="Times,serif" font-size="14.00">FVCPreVal &lt;= 3.335</text>
<text text-anchor="middle" x="1424.5" y="-439.8" font-family="Times,serif" font-size="14.00">gini = 0.312</text>
<text text-anchor="middle" x="1424.5" y="-424.8" font-family="Times,serif" font-size="14.00">samples = 115</text>
<text text-anchor="middle" x="1424.5" y="-409.8" font-family="Times,serif" font-size="14.00">value = [151.916, 36.385]</text>
<text text-anchor="middle" x="1424.5" y="-394.8" font-family="Times,serif" font-size="14.00">class = Non&#45;obstructive</text>
</g>
<!-- 0&#45;&gt;14 -->
<g id="edge14" class="edge">
<title>0&#45;&gt;14</title>
<path fill="none" stroke="black" d="M1167.03,-533.28C1212.11,-516.42 1266.19,-496.2 1313.12,-478.65"/>
<polygon fill="black" stroke="black" points="1314.58,-481.84 1322.72,-475.06 1312.12,-475.29 1314.58,-481.84"/>
<text text-anchor="middle" x="1312.35" y="-494.11" font-family="Times,serif" font-size="14.00">False</text>
</g>
<!-- 2 -->
<g id="node3" class="node">
<title>2</title>
<polygon fill="none" stroke="black" points="575,-351 384,-351 384,-253 575,-253 575,-351"/>
<text text-anchor="middle" x="479.5" y="-335.8" font-family="Times,serif" font-size="14.00">node #2</text>
<text text-anchor="middle" x="479.5" y="-320.8" font-family="Times,serif" font-size="14.00">FVCPrePercent &lt;= 48.5</text>
<text text-anchor="middle" x="479.5" y="-305.8" font-family="Times,serif" font-size="14.00">gini = 0.05</text>
<text text-anchor="middle" x="479.5" y="-290.8" font-family="Times,serif" font-size="14.00">samples = 61</text>
<text text-anchor="middle" x="479.5" y="-275.8" font-family="Times,serif" font-size="14.00">value = [2.155, 81.168]</text>
<text text-anchor="middle" x="479.5" y="-260.8" font-family="Times,serif" font-size="14.00">class = Obstructive</text>
</g>
<!-- 1&#45;&gt;2 -->
<g id="edge2" class="edge">
<title>1&#45;&gt;2</title>
<path fill="none" stroke="black" d="M688.67,-391.78C655.31,-377.62 618.2,-361.87 584.6,-347.61"/>
<polygon fill="black" stroke="black" points="585.8,-344.32 575.23,-343.63 583.07,-350.76 585.8,-344.32"/>
</g>
<!-- 7 -->
<g id="node8" class="node">
<title>7</title>
<polygon fill="none" stroke="black" points="887.5,-351 693.5,-351 693.5,-253 887.5,-253 887.5,-351"/>
<text text-anchor="middle" x="790.5" y="-335.8" font-family="Times,serif" font-size="14.00">node #7</text>
<text text-anchor="middle" x="790.5" y="-320.8" font-family="Times,serif" font-size="14.00">FVCPreVal &lt;= 1.595</text>
<text text-anchor="middle" x="790.5" y="-305.8" font-family="Times,serif" font-size="14.00">gini = 0.329</text>
<text text-anchor="middle" x="790.5" y="-290.8" font-family="Times,serif" font-size="14.00">samples = 38</text>
<text text-anchor="middle" x="790.5" y="-275.8" font-family="Times,serif" font-size="14.00">value = [12.929, 49.447]</text>
<text text-anchor="middle" x="790.5" y="-260.8" font-family="Times,serif" font-size="14.00">class = Obstructive</text>
</g>
<!-- 1&#45;&gt;7 -->
<g id="edge7" class="edge">
<title>1&#45;&gt;7</title>
<path fill="none" stroke="black" d="M790.5,-386.97C790.5,-378.69 790.5,-370 790.5,-361.48"/>
<polygon fill="black" stroke="black" points="794,-361.21 790.5,-351.21 787,-361.21 794,-361.21"/>
</g>
<!-- 3 -->
<g id="node4" class="node">
<title>3</title>
<polygon fill="none" stroke="black" points="377.5,-217 177.5,-217 177.5,-119 377.5,-119 377.5,-217"/>
<text text-anchor="middle" x="277.5" y="-201.8" font-family="Times,serif" font-size="14.00">node #3</text>
<text text-anchor="middle" x="277.5" y="-186.8" font-family="Times,serif" font-size="14.00">FEV1PrePercent &lt;= 38.0</text>
<text text-anchor="middle" x="277.5" y="-171.8" font-family="Times,serif" font-size="14.00">gini = 0.141</text>
<text text-anchor="middle" x="277.5" y="-156.8" font-family="Times,serif" font-size="14.00">samples = 22</text>
<text text-anchor="middle" x="277.5" y="-141.8" font-family="Times,serif" font-size="14.00">value = [2.155, 26.123]</text>
<text text-anchor="middle" x="277.5" y="-126.8" font-family="Times,serif" font-size="14.00">class = Obstructive</text>
</g>
<!-- 2&#45;&gt;3 -->
<g id="edge3" class="edge">
<title>2&#45;&gt;3</title>
<path fill="none" stroke="black" d="M406,-252.97C390.96,-243.14 375.04,-232.74 359.72,-222.73"/>
<polygon fill="black" stroke="black" points="361.57,-219.75 351.28,-217.21 357.74,-225.61 361.57,-219.75"/>
</g>
<!-- 6 -->
<g id="node7" class="node">
<title>6</title>
<polygon fill="none" stroke="black" points="563,-209.5 396,-209.5 396,-126.5 563,-126.5 563,-209.5"/>
<text text-anchor="middle" x="479.5" y="-194.3" font-family="Times,serif" font-size="14.00">node #6</text>
<text text-anchor="middle" x="479.5" y="-179.3" font-family="Times,serif" font-size="14.00">gini = 0.0</text>
<text text-anchor="middle" x="479.5" y="-164.3" font-family="Times,serif" font-size="14.00">samples = 39</text>
<text text-anchor="middle" x="479.5" y="-149.3" font-family="Times,serif" font-size="14.00">value = [0.0, 55.045]</text>
<text text-anchor="middle" x="479.5" y="-134.3" font-family="Times,serif" font-size="14.00">class = Obstructive</text>
</g>
<!-- 2&#45;&gt;6 -->
<g id="edge6" class="edge">
<title>2&#45;&gt;6</title>
<path fill="none" stroke="black" d="M479.5,-252.97C479.5,-242.25 479.5,-230.84 479.5,-219.99"/>
<polygon fill="black" stroke="black" points="483,-219.82 479.5,-209.82 476,-219.82 483,-219.82"/>
</g>
<!-- 4 -->
<g id="node5" class="node">
<title>4</title>
<polygon fill="none" stroke="black" points="167,-83 0,-83 0,0 167,0 167,-83"/>
<text text-anchor="middle" x="83.5" y="-67.8" font-family="Times,serif" font-size="14.00">node #4</text>
<text text-anchor="middle" x="83.5" y="-52.8" font-family="Times,serif" font-size="14.00">gini = 0.0</text>
<text text-anchor="middle" x="83.5" y="-37.8" font-family="Times,serif" font-size="14.00">samples = 20</text>
<text text-anchor="middle" x="83.5" y="-22.8" font-family="Times,serif" font-size="14.00">value = [0.0, 26.123]</text>
<text text-anchor="middle" x="83.5" y="-7.8" font-family="Times,serif" font-size="14.00">class = Obstructive</text>
</g>
<!-- 3&#45;&gt;4 -->
<g id="edge4" class="edge">
<title>3&#45;&gt;4</title>
<path fill="none" stroke="black" d="M202.49,-118.87C186.93,-108.88 170.57,-98.38 155.13,-88.47"/>
<polygon fill="black" stroke="black" points="156.97,-85.49 146.66,-83.03 153.18,-91.38 156.97,-85.49"/>
</g>
<!-- 5 -->
<g id="node6" class="node">
<title>5</title>
<polygon fill="none" stroke="black" points="373.5,-83 185.5,-83 185.5,0 373.5,0 373.5,-83"/>
<text text-anchor="middle" x="279.5" y="-67.8" font-family="Times,serif" font-size="14.00">node #5</text>
<text text-anchor="middle" x="279.5" y="-52.8" font-family="Times,serif" font-size="14.00">gini = 0.0</text>
<text text-anchor="middle" x="279.5" y="-37.8" font-family="Times,serif" font-size="14.00">samples = 2</text>
<text text-anchor="middle" x="279.5" y="-22.8" font-family="Times,serif" font-size="14.00">value = [2.155, 0.0]</text>
<text text-anchor="middle" x="279.5" y="-7.8" font-family="Times,serif" font-size="14.00">class = Non&#45;obstructive</text>
</g>
<!-- 3&#45;&gt;5 -->
<g id="edge5" class="edge">
<title>3&#45;&gt;5</title>
<path fill="none" stroke="black" d="M278.27,-118.87C278.41,-110.5 278.55,-101.77 278.68,-93.33"/>
<polygon fill="black" stroke="black" points="282.18,-93.29 278.85,-83.23 275.19,-93.17 282.18,-93.29"/>
</g>
<!-- 8 -->
<g id="node9" class="node">
<title>8</title>
<polygon fill="none" stroke="black" points="778,-217 581,-217 581,-119 778,-119 778,-217"/>
<text text-anchor="middle" x="679.5" y="-201.8" font-family="Times,serif" font-size="14.00">node #8</text>
<text text-anchor="middle" x="679.5" y="-186.8" font-family="Times,serif" font-size="14.00">FEFPostPercent &lt;= 42.0</text>
<text text-anchor="middle" x="679.5" y="-171.8" font-family="Times,serif" font-size="14.00">gini = 0.196</text>
<text text-anchor="middle" x="679.5" y="-156.8" font-family="Times,serif" font-size="14.00">samples = 7</text>
<text text-anchor="middle" x="679.5" y="-141.8" font-family="Times,serif" font-size="14.00">value = [7.542, 0.933]</text>
<text text-anchor="middle" x="679.5" y="-126.8" font-family="Times,serif" font-size="14.00">class = Non&#45;obstructive</text>
</g>
<!-- 7&#45;&gt;8 -->
<g id="edge8" class="edge">
<title>7&#45;&gt;8</title>
<path fill="none" stroke="black" d="M750.11,-252.97C742.46,-243.87 734.39,-234.28 726.56,-224.96"/>
<polygon fill="black" stroke="black" points="729.16,-222.61 720.04,-217.21 723.8,-227.12 729.16,-222.61"/>
</g>
<!-- 11 -->
<g id="node12" class="node">
<title>11</title>
<polygon fill="none" stroke="black" points="987,-217 796,-217 796,-119 987,-119 987,-217"/>
<text text-anchor="middle" x="891.5" y="-201.8" font-family="Times,serif" font-size="14.00">node #11</text>
<text text-anchor="middle" x="891.5" y="-186.8" font-family="Times,serif" font-size="14.00">FVCPrePercent &lt;= 64.5</text>
<text text-anchor="middle" x="891.5" y="-171.8" font-family="Times,serif" font-size="14.00">gini = 0.18</text>
<text text-anchor="middle" x="891.5" y="-156.8" font-family="Times,serif" font-size="14.00">samples = 31</text>
<text text-anchor="middle" x="891.5" y="-141.8" font-family="Times,serif" font-size="14.00">value = [5.387, 48.514]</text>
<text text-anchor="middle" x="891.5" y="-126.8" font-family="Times,serif" font-size="14.00">class = Obstructive</text>
</g>
<!-- 7&#45;&gt;11 -->
<g id="edge11" class="edge">
<title>7&#45;&gt;11</title>
<path fill="none" stroke="black" d="M827.25,-252.97C834.14,-243.96 841.4,-234.47 848.47,-225.24"/>
<polygon fill="black" stroke="black" points="851.31,-227.28 854.61,-217.21 845.75,-223.03 851.31,-227.28"/>
</g>
<!-- 9 -->
<g id="node10" class="node">
<title>9</title>
<polygon fill="none" stroke="black" points="582.5,-83 394.5,-83 394.5,0 582.5,0 582.5,-83"/>
<text text-anchor="middle" x="488.5" y="-67.8" font-family="Times,serif" font-size="14.00">node #9</text>
<text text-anchor="middle" x="488.5" y="-52.8" font-family="Times,serif" font-size="14.00">gini = 0.0</text>
<text text-anchor="middle" x="488.5" y="-37.8" font-family="Times,serif" font-size="14.00">samples = 6</text>
<text text-anchor="middle" x="488.5" y="-22.8" font-family="Times,serif" font-size="14.00">value = [7.542, 0.0]</text>
<text text-anchor="middle" x="488.5" y="-7.8" font-family="Times,serif" font-size="14.00">class = Non&#45;obstructive</text>
</g>
<!-- 8&#45;&gt;9 -->
<g id="edge9" class="edge">
<title>8&#45;&gt;9</title>
<path fill="none" stroke="black" d="M605.65,-118.87C590.47,-108.97 574.52,-98.57 559.45,-88.74"/>
<polygon fill="black" stroke="black" points="560.97,-85.56 550.68,-83.03 557.15,-91.43 560.97,-85.56"/>
</g>
<!-- 10 -->
<g id="node11" class="node">
<title>10</title>
<polygon fill="none" stroke="black" points="758.5,-83 600.5,-83 600.5,0 758.5,0 758.5,-83"/>
<text text-anchor="middle" x="679.5" y="-67.8" font-family="Times,serif" font-size="14.00">node #10</text>
<text text-anchor="middle" x="679.5" y="-52.8" font-family="Times,serif" font-size="14.00">gini = 0.0</text>
<text text-anchor="middle" x="679.5" y="-37.8" font-family="Times,serif" font-size="14.00">samples = 1</text>
<text text-anchor="middle" x="679.5" y="-22.8" font-family="Times,serif" font-size="14.00">value = [0.0, 0.933]</text>
<text text-anchor="middle" x="679.5" y="-7.8" font-family="Times,serif" font-size="14.00">class = Obstructive</text>
</g>
<!-- 8&#45;&gt;10 -->
<g id="edge10" class="edge">
<title>8&#45;&gt;10</title>
<path fill="none" stroke="black" d="M679.5,-118.87C679.5,-110.5 679.5,-101.77 679.5,-93.33"/>
<polygon fill="black" stroke="black" points="683,-93.23 679.5,-83.23 676,-93.23 683,-93.23"/>
</g>
<!-- 12 -->
<g id="node13" class="node">
<title>12</title>
<polygon fill="none" stroke="black" points="943,-83 776,-83 776,0 943,0 943,-83"/>
<text text-anchor="middle" x="859.5" y="-67.8" font-family="Times,serif" font-size="14.00">node #12</text>
<text text-anchor="middle" x="859.5" y="-52.8" font-family="Times,serif" font-size="14.00">gini = 0.464</text>
<text text-anchor="middle" x="859.5" y="-37.8" font-family="Times,serif" font-size="14.00">samples = 10</text>
<text text-anchor="middle" x="859.5" y="-22.8" font-family="Times,serif" font-size="14.00">value = [5.387, 9.33]</text>
<text text-anchor="middle" x="859.5" y="-7.8" font-family="Times,serif" font-size="14.00">class = Obstructive</text>
</g>
<!-- 11&#45;&gt;12 -->
<g id="edge12" class="edge">
<title>11&#45;&gt;12</title>
<path fill="none" stroke="black" d="M879.13,-118.87C876.95,-110.41 874.69,-101.58 872.49,-93.06"/>
<polygon fill="black" stroke="black" points="875.85,-92.04 869.97,-83.23 869.07,-93.79 875.85,-92.04"/>
</g>
<!-- 13 -->
<g id="node14" class="node">
<title>13</title>
<polygon fill="none" stroke="black" points="1128,-83 961,-83 961,0 1128,0 1128,-83"/>
<text text-anchor="middle" x="1044.5" y="-67.8" font-family="Times,serif" font-size="14.00">node #13</text>
<text text-anchor="middle" x="1044.5" y="-52.8" font-family="Times,serif" font-size="14.00">gini = 0.0</text>
<text text-anchor="middle" x="1044.5" y="-37.8" font-family="Times,serif" font-size="14.00">samples = 21</text>
<text text-anchor="middle" x="1044.5" y="-22.8" font-family="Times,serif" font-size="14.00">value = [0.0, 39.184]</text>
<text text-anchor="middle" x="1044.5" y="-7.8" font-family="Times,serif" font-size="14.00">class = Obstructive</text>
</g>
<!-- 11&#45;&gt;13 -->
<g id="edge13" class="edge">
<title>11&#45;&gt;13</title>
<path fill="none" stroke="black" d="M950.65,-118.87C962.41,-109.3 974.73,-99.27 986.45,-89.74"/>
<polygon fill="black" stroke="black" points="988.9,-92.26 994.45,-83.23 984.48,-86.83 988.9,-92.26"/>
</g>
<!-- 15 -->
<g id="node16" class="node">
<title>15</title>
<polygon fill="none" stroke="black" points="1527.5,-351 1321.5,-351 1321.5,-253 1527.5,-253 1527.5,-351"/>
<text text-anchor="middle" x="1424.5" y="-335.8" font-family="Times,serif" font-size="14.00">node #15</text>
<text text-anchor="middle" x="1424.5" y="-320.8" font-family="Times,serif" font-size="14.00">FVCPostPercent &lt;= 104.5</text>
<text text-anchor="middle" x="1424.5" y="-305.8" font-family="Times,serif" font-size="14.00">gini = 0.206</text>
<text text-anchor="middle" x="1424.5" y="-290.8" font-family="Times,serif" font-size="14.00">samples = 102</text>
<text text-anchor="middle" x="1424.5" y="-275.8" font-family="Times,serif" font-size="14.00">value = [148.684, 19.592]</text>
<text text-anchor="middle" x="1424.5" y="-260.8" font-family="Times,serif" font-size="14.00">class = Non&#45;obstructive</text>
</g>
<!-- 14&#45;&gt;15 -->
<g id="edge15" class="edge">
<title>14&#45;&gt;15</title>
<path fill="none" stroke="black" d="M1424.5,-386.97C1424.5,-378.69 1424.5,-370 1424.5,-361.48"/>
<polygon fill="black" stroke="black" points="1428,-361.21 1424.5,-351.21 1421,-361.21 1428,-361.21"/>
</g>
<!-- 20 -->
<g id="node21" class="node">
<title>20</title>
<polygon fill="none" stroke="black" points="1829,-351 1632,-351 1632,-253 1829,-253 1829,-351"/>
<text text-anchor="middle" x="1730.5" y="-335.8" font-family="Times,serif" font-size="14.00">node #20</text>
<text text-anchor="middle" x="1730.5" y="-320.8" font-family="Times,serif" font-size="14.00">FEFPostPercent &lt;= 71.5</text>
<text text-anchor="middle" x="1730.5" y="-305.8" font-family="Times,serif" font-size="14.00">gini = 0.271</text>
<text text-anchor="middle" x="1730.5" y="-290.8" font-family="Times,serif" font-size="14.00">samples = 13</text>
<text text-anchor="middle" x="1730.5" y="-275.8" font-family="Times,serif" font-size="14.00">value = [3.232, 16.793]</text>
<text text-anchor="middle" x="1730.5" y="-260.8" font-family="Times,serif" font-size="14.00">class = Obstructive</text>
</g>
<!-- 14&#45;&gt;20 -->
<g id="edge20" class="edge">
<title>14&#45;&gt;20</title>
<path fill="none" stroke="black" d="M1526.39,-391.05C1557.33,-377.7 1591.41,-363 1622.72,-349.49"/>
<polygon fill="black" stroke="black" points="1624.11,-352.7 1631.91,-345.53 1621.34,-346.28 1624.11,-352.7"/>
</g>
<!-- 16 -->
<g id="node17" class="node">
<title>16</title>
<polygon fill="none" stroke="black" points="1436.5,-217 1242.5,-217 1242.5,-119 1436.5,-119 1436.5,-217"/>
<text text-anchor="middle" x="1339.5" y="-201.8" font-family="Times,serif" font-size="14.00">node #16</text>
<text text-anchor="middle" x="1339.5" y="-186.8" font-family="Times,serif" font-size="14.00">FVCPreVal &lt;= 1.485</text>
<text text-anchor="middle" x="1339.5" y="-171.8" font-family="Times,serif" font-size="14.00">gini = 0.174</text>
<text text-anchor="middle" x="1339.5" y="-156.8" font-family="Times,serif" font-size="14.00">samples = 99</text>
<text text-anchor="middle" x="1339.5" y="-141.8" font-family="Times,serif" font-size="14.00">value = [148.684, 15.86]</text>
<text text-anchor="middle" x="1339.5" y="-126.8" font-family="Times,serif" font-size="14.00">class = Non&#45;obstructive</text>
</g>
<!-- 15&#45;&gt;16 -->
<g id="edge16" class="edge">
<title>15&#45;&gt;16</title>
<path fill="none" stroke="black" d="M1393.57,-252.97C1387.89,-244.15 1381.91,-234.85 1376.08,-225.8"/>
<polygon fill="black" stroke="black" points="1378.9,-223.73 1370.55,-217.21 1373.02,-227.52 1378.9,-223.73"/>
</g>
<!-- 19 -->
<g id="node20" class="node">
<title>19</title>
<polygon fill="none" stroke="black" points="1612.5,-209.5 1454.5,-209.5 1454.5,-126.5 1612.5,-126.5 1612.5,-209.5"/>
<text text-anchor="middle" x="1533.5" y="-194.3" font-family="Times,serif" font-size="14.00">node #19</text>
<text text-anchor="middle" x="1533.5" y="-179.3" font-family="Times,serif" font-size="14.00">gini = 0.0</text>
<text text-anchor="middle" x="1533.5" y="-164.3" font-family="Times,serif" font-size="14.00">samples = 3</text>
<text text-anchor="middle" x="1533.5" y="-149.3" font-family="Times,serif" font-size="14.00">value = [0.0, 3.732]</text>
<text text-anchor="middle" x="1533.5" y="-134.3" font-family="Times,serif" font-size="14.00">class = Obstructive</text>
</g>
<!-- 15&#45;&gt;19 -->
<g id="edge19" class="edge">
<title>15&#45;&gt;19</title>
<path fill="none" stroke="black" d="M1464.16,-252.97C1473.66,-241.47 1483.8,-229.18 1493.32,-217.66"/>
<polygon fill="black" stroke="black" points="1496.13,-219.76 1499.8,-209.82 1490.73,-215.3 1496.13,-219.76"/>
</g>
<!-- 17 -->
<g id="node18" class="node">
<title>17</title>
<polygon fill="none" stroke="black" points="1334.5,-83 1146.5,-83 1146.5,0 1334.5,0 1334.5,-83"/>
<text text-anchor="middle" x="1240.5" y="-67.8" font-family="Times,serif" font-size="14.00">node #17</text>
<text text-anchor="middle" x="1240.5" y="-52.8" font-family="Times,serif" font-size="14.00">gini = 0.0</text>
<text text-anchor="middle" x="1240.5" y="-37.8" font-family="Times,serif" font-size="14.00">samples = 32</text>
<text text-anchor="middle" x="1240.5" y="-22.8" font-family="Times,serif" font-size="14.00">value = [59.258, 0.0]</text>
<text text-anchor="middle" x="1240.5" y="-7.8" font-family="Times,serif" font-size="14.00">class = Non&#45;obstructive</text>
</g>
<!-- 16&#45;&gt;17 -->
<g id="edge17" class="edge">
<title>16&#45;&gt;17</title>
<path fill="none" stroke="black" d="M1301.22,-118.87C1293.99,-109.76 1286.41,-100.23 1279.16,-91.12"/>
<polygon fill="black" stroke="black" points="1281.85,-88.88 1272.89,-83.23 1276.37,-93.24 1281.85,-88.88"/>
</g>
<!-- 18 -->
<g id="node19" class="node">
<title>18</title>
<polygon fill="none" stroke="black" points="1540.5,-83 1352.5,-83 1352.5,0 1540.5,0 1540.5,-83"/>
<text text-anchor="middle" x="1446.5" y="-67.8" font-family="Times,serif" font-size="14.00">node #18</text>
<text text-anchor="middle" x="1446.5" y="-52.8" font-family="Times,serif" font-size="14.00">gini = 0.256</text>
<text text-anchor="middle" x="1446.5" y="-37.8" font-family="Times,serif" font-size="14.00">samples = 67</text>
<text text-anchor="middle" x="1446.5" y="-22.8" font-family="Times,serif" font-size="14.00">value = [89.426, 15.86]</text>
<text text-anchor="middle" x="1446.5" y="-7.8" font-family="Times,serif" font-size="14.00">class = Non&#45;obstructive</text>
</g>
<!-- 16&#45;&gt;18 -->
<g id="edge18" class="edge">
<title>16&#45;&gt;18</title>
<path fill="none" stroke="black" d="M1380.87,-118.87C1388.77,-109.67 1397.05,-100.04 1404.95,-90.84"/>
<polygon fill="black" stroke="black" points="1407.63,-93.1 1411.49,-83.23 1402.32,-88.53 1407.63,-93.1"/>
</g>
<!-- 21 -->
<g id="node22" class="node">
<title>21</title>
<polygon fill="none" stroke="black" points="1824.5,-217 1636.5,-217 1636.5,-119 1824.5,-119 1824.5,-217"/>
<text text-anchor="middle" x="1730.5" y="-201.8" font-family="Times,serif" font-size="14.00">node #21</text>
<text text-anchor="middle" x="1730.5" y="-186.8" font-family="Times,serif" font-size="14.00">FEV1PreVal &lt;= 3.02</text>
<text text-anchor="middle" x="1730.5" y="-171.8" font-family="Times,serif" font-size="14.00">gini = 0.497</text>
<text text-anchor="middle" x="1730.5" y="-156.8" font-family="Times,serif" font-size="14.00">samples = 3</text>
<text text-anchor="middle" x="1730.5" y="-141.8" font-family="Times,serif" font-size="14.00">value = [2.155, 1.866]</text>
<text text-anchor="middle" x="1730.5" y="-126.8" font-family="Times,serif" font-size="14.00">class = Non&#45;obstructive</text>
</g>
<!-- 20&#45;&gt;21 -->
<g id="edge21" class="edge">
<title>20&#45;&gt;21</title>
<path fill="none" stroke="black" d="M1730.5,-252.97C1730.5,-244.69 1730.5,-236 1730.5,-227.48"/>
<polygon fill="black" stroke="black" points="1734,-227.21 1730.5,-217.21 1727,-227.21 1734,-227.21"/>
</g>
<!-- 24 -->
<g id="node25" class="node">
<title>24</title>
<polygon fill="none" stroke="black" points="2121,-217 1936,-217 1936,-119 2121,-119 2121,-217"/>
<text text-anchor="middle" x="2028.5" y="-201.8" font-family="Times,serif" font-size="14.00">node #24</text>
<text text-anchor="middle" x="2028.5" y="-186.8" font-family="Times,serif" font-size="14.00">FEV1PostVal &lt;= 2.835</text>
<text text-anchor="middle" x="2028.5" y="-171.8" font-family="Times,serif" font-size="14.00">gini = 0.126</text>
<text text-anchor="middle" x="2028.5" y="-156.8" font-family="Times,serif" font-size="14.00">samples = 10</text>
<text text-anchor="middle" x="2028.5" y="-141.8" font-family="Times,serif" font-size="14.00">value = [1.077, 14.927]</text>
<text text-anchor="middle" x="2028.5" y="-126.8" font-family="Times,serif" font-size="14.00">class = Obstructive</text>
</g>
<!-- 20&#45;&gt;24 -->
<g id="edge24" class="edge">
<title>20&#45;&gt;24</title>
<path fill="none" stroke="black" d="M1829.32,-257.23C1860.54,-243.4 1895.1,-228.09 1926.54,-214.16"/>
<polygon fill="black" stroke="black" points="1928.03,-217.33 1935.75,-210.08 1925.19,-210.93 1928.03,-217.33"/>
</g>
<!-- 22 -->
<g id="node23" class="node">
<title>22</title>
<polygon fill="none" stroke="black" points="1716.5,-83 1558.5,-83 1558.5,0 1716.5,0 1716.5,-83"/>
<text text-anchor="middle" x="1637.5" y="-67.8" font-family="Times,serif" font-size="14.00">node #22</text>
<text text-anchor="middle" x="1637.5" y="-52.8" font-family="Times,serif" font-size="14.00">gini = 0.0</text>
<text text-anchor="middle" x="1637.5" y="-37.8" font-family="Times,serif" font-size="14.00">samples = 2</text>
<text text-anchor="middle" x="1637.5" y="-22.8" font-family="Times,serif" font-size="14.00">value = [0.0, 1.866]</text>
<text text-anchor="middle" x="1637.5" y="-7.8" font-family="Times,serif" font-size="14.00">class = Obstructive</text>
</g>
<!-- 21&#45;&gt;22 -->
<g id="edge22" class="edge">
<title>21&#45;&gt;22</title>
<path fill="none" stroke="black" d="M1694.54,-118.87C1687.81,-109.85 1680.77,-100.43 1674.02,-91.39"/>
<polygon fill="black" stroke="black" points="1676.71,-89.15 1667.93,-83.23 1671.11,-93.34 1676.71,-89.15"/>
</g>
<!-- 23 -->
<g id="node24" class="node">
<title>23</title>
<polygon fill="none" stroke="black" points="1922.5,-83 1734.5,-83 1734.5,0 1922.5,0 1922.5,-83"/>
<text text-anchor="middle" x="1828.5" y="-67.8" font-family="Times,serif" font-size="14.00">node #23</text>
<text text-anchor="middle" x="1828.5" y="-52.8" font-family="Times,serif" font-size="14.00">gini = 0.0</text>
<text text-anchor="middle" x="1828.5" y="-37.8" font-family="Times,serif" font-size="14.00">samples = 1</text>
<text text-anchor="middle" x="1828.5" y="-22.8" font-family="Times,serif" font-size="14.00">value = [2.155, 0.0]</text>
<text text-anchor="middle" x="1828.5" y="-7.8" font-family="Times,serif" font-size="14.00">class = Non&#45;obstructive</text>
</g>
<!-- 21&#45;&gt;23 -->
<g id="edge23" class="edge">
<title>21&#45;&gt;23</title>
<path fill="none" stroke="black" d="M1768.39,-118.87C1775.55,-109.76 1783.05,-100.23 1790.23,-91.12"/>
<polygon fill="black" stroke="black" points="1793,-93.25 1796.44,-83.23 1787.5,-88.92 1793,-93.25"/>
</g>
<!-- 25 -->
<g id="node26" class="node">
<title>25</title>
<polygon fill="none" stroke="black" points="2116.5,-83 1940.5,-83 1940.5,0 2116.5,0 2116.5,-83"/>
<text text-anchor="middle" x="2028.5" y="-67.8" font-family="Times,serif" font-size="14.00">node #25</text>
<text text-anchor="middle" x="2028.5" y="-52.8" font-family="Times,serif" font-size="14.00">gini = 0.348</text>
<text text-anchor="middle" x="2028.5" y="-37.8" font-family="Times,serif" font-size="14.00">samples = 2</text>
<text text-anchor="middle" x="2028.5" y="-22.8" font-family="Times,serif" font-size="14.00">value = [1.077, 3.732]</text>
<text text-anchor="middle" x="2028.5" y="-7.8" font-family="Times,serif" font-size="14.00">class = Obstructive</text>
</g>
<!-- 24&#45;&gt;25 -->
<g id="edge25" class="edge">
<title>24&#45;&gt;25</title>
<path fill="none" stroke="black" d="M2028.5,-118.87C2028.5,-110.5 2028.5,-101.77 2028.5,-93.33"/>
<polygon fill="black" stroke="black" points="2032,-93.23 2028.5,-83.23 2025,-93.23 2032,-93.23"/>
</g>
<!-- 26 -->
<g id="node27" class="node">
<title>26</title>
<polygon fill="none" stroke="black" points="2301,-83 2134,-83 2134,0 2301,0 2301,-83"/>
<text text-anchor="middle" x="2217.5" y="-67.8" font-family="Times,serif" font-size="14.00">node #26</text>
<text text-anchor="middle" x="2217.5" y="-52.8" font-family="Times,serif" font-size="14.00">gini = &#45;0.0</text>
<text text-anchor="middle" x="2217.5" y="-37.8" font-family="Times,serif" font-size="14.00">samples = 8</text>
<text text-anchor="middle" x="2217.5" y="-22.8" font-family="Times,serif" font-size="14.00">value = [0.0, 11.196]</text>
<text text-anchor="middle" x="2217.5" y="-7.8" font-family="Times,serif" font-size="14.00">class = Obstructive</text>
</g>
<!-- 24&#45;&gt;26 -->
<g id="edge26" class="edge">
<title>24&#45;&gt;26</title>
<path fill="none" stroke="black" d="M2101.57,-118.87C2116.59,-108.97 2132.38,-98.57 2147.3,-88.74"/>
<polygon fill="black" stroke="black" points="2149.54,-91.46 2155.97,-83.03 2145.69,-85.61 2149.54,-91.46"/>
</g>
</g>
</svg>
