<?xml version="1.0" encoding="UTF-8" standalone="no"?>
<!DOCTYPE svg PUBLIC "-//W3C//DTD SVG 1.1//EN"
 "http://www.w3.org/Graphics/SVG/1.1/DTD/svg11.dtd">
<!-- Generated by graphviz version 2.43.0 (0)
 -->
<!-- Title: Tree Pages: 1 -->
<svg width="1620pt" height="627pt"
 viewBox="0.00 0.00 1620.00 627.00" xmlns="http://www.w3.org/2000/svg" xmlns:xlink="http://www.w3.org/1999/xlink">
<g id="graph0" class="graph" transform="scale(1 1) rotate(0) translate(4 623)">
<title>Tree</title>
<polygon fill="white" stroke="transparent" points="-4,4 -4,-623 1616,-623 1616,4 -4,4"/>
<!-- 0 -->
<g id="node1" class="node">
<title>0</title>
<polygon fill="none" stroke="black" points="699,-619 523,-619 523,-521 699,-521 699,-619"/>
<text text-anchor="middle" x="611" y="-603.8" font-family="Times,serif" font-size="14.00">node #0</text>
<text text-anchor="middle" x="611" y="-588.8" font-family="Times,serif" font-size="14.00">FEFPostVal &lt;= 1.315</text>
<text text-anchor="middle" x="611" y="-573.8" font-family="Times,serif" font-size="14.00">gini = 0.5</text>
<text text-anchor="middle" x="611" y="-558.8" font-family="Times,serif" font-size="14.00">samples = 208</text>
<text text-anchor="middle" x="611" y="-543.8" font-family="Times,serif" font-size="14.00">value = [167.0, 167.0]</text>
<text text-anchor="middle" x="611" y="-528.8" font-family="Times,serif" font-size="14.00">class = Obstructive</text>
</g>
<!-- 1 -->
<g id="node2" class="node">
<title>1</title>
<polygon fill="none" stroke="black" points="602.5,-485 399.5,-485 399.5,-387 602.5,-387 602.5,-485"/>
<text text-anchor="middle" x="501" y="-469.8" font-family="Times,serif" font-size="14.00">node #1</text>
<text text-anchor="middle" x="501" y="-454.8" font-family="Times,serif" font-size="14.00">FVCPostPercent &lt;= 29.0</text>
<text text-anchor="middle" x="501" y="-439.8" font-family="Times,serif" font-size="14.00">gini = 0.255</text>
<text text-anchor="middle" x="501" y="-424.8" font-family="Times,serif" font-size="14.00">samples = 80</text>
<text text-anchor="middle" x="501" y="-409.8" font-family="Times,serif" font-size="14.00">value = [18.787, 106.534]</text>
<text text-anchor="middle" x="501" y="-394.8" font-family="Times,serif" font-size="14.00">class = Obstructive</text>
</g>
<!-- 0&#45;&gt;1 -->
<g id="edge1" class="edge">
<title>0&#45;&gt;1</title>
<path fill="none" stroke="black" d="M570.98,-520.97C563.39,-511.87 555.4,-502.28 547.63,-492.96"/>
<polygon fill="black" stroke="black" points="550.27,-490.66 541.18,-485.21 544.89,-495.14 550.27,-490.66"/>
<text text-anchor="middle" x="538.91" y="-506.41" font-family="Times,serif" font-size="14.00">True</text>
</g>
<!-- 10 -->
<g id="node11" class="node">
<title>10</title>
<polygon fill="none" stroke="black" points="908.5,-485 705.5,-485 705.5,-387 908.5,-387 908.5,-485"/>
<text text-anchor="middle" x="807" y="-469.8" font-family="Times,serif" font-size="14.00">node #10</text>
<text text-anchor="middle" x="807" y="-454.8" font-family="Times,serif" font-size="14.00">FEV1PostVal &lt;= 1.875</text>
<text text-anchor="middle" x="807" y="-439.8" font-family="Times,serif" font-size="14.00">gini = 0.412</text>
<text text-anchor="middle" x="807" y="-424.8" font-family="Times,serif" font-size="14.00">samples = 128</text>
<text text-anchor="middle" x="807" y="-409.8" font-family="Times,serif" font-size="14.00">value = [148.213, 60.466]</text>
<text text-anchor="middle" x="807" y="-394.8" font-family="Times,serif" font-size="14.00">class = Non&#45;obstructive</text>
</g>
<!-- 0&#45;&gt;10 -->
<g id="edge10" class="edge">
<title>0&#45;&gt;10</title>
<path fill="none" stroke="black" d="M682.31,-520.97C696.77,-511.24 712.07,-500.93 726.81,-491.01"/>
<polygon fill="black" stroke="black" points="729.07,-493.7 735.41,-485.21 725.16,-487.9 729.07,-493.7"/>
<text text-anchor="middle" x="730.62" y="-506.05" font-family="Times,serif" font-size="14.00">False</text>
</g>
<!-- 2 -->
<g id="node3" class="node">
<title>2</title>
<polygon fill="none" stroke="black" points="381,-343.5 193,-343.5 193,-260.5 381,-260.5 381,-343.5"/>
<text text-anchor="middle" x="287" y="-328.3" font-family="Times,serif" font-size="14.00">node #2</text>
<text text-anchor="middle" x="287" y="-313.3" font-family="Times,serif" font-size="14.00">gini = 0.0</text>
<text text-anchor="middle" x="287" y="-298.3" font-family="Times,serif" font-size="14.00">samples = 2</text>
<text text-anchor="middle" x="287" y="-283.3" font-family="Times,serif" font-size="14.00">value = [4.175, 0.0]</text>
<text text-anchor="middle" x="287" y="-268.3" font-family="Times,serif" font-size="14.00">class = Non&#45;obstructive</text>
</g>
<!-- 1&#45;&gt;2 -->
<g id="edge2" class="edge">
<title>1&#45;&gt;2</title>
<path fill="none" stroke="black" d="M423.14,-386.97C403.04,-374.58 381.47,-361.27 361.55,-348.98"/>
<polygon fill="black" stroke="black" points="363.18,-345.87 352.83,-343.6 359.5,-351.83 363.18,-345.87"/>
</g>
<!-- 3 -->
<g id="node4" class="node">
<title>3</title>
<polygon fill="none" stroke="black" points="602.5,-351 399.5,-351 399.5,-253 602.5,-253 602.5,-351"/>
<text text-anchor="middle" x="501" y="-335.8" font-family="Times,serif" font-size="14.00">node #3</text>
<text text-anchor="middle" x="501" y="-320.8" font-family="Times,serif" font-size="14.00">FVCPostVal &lt;= 1.205</text>
<text text-anchor="middle" x="501" y="-305.8" font-family="Times,serif" font-size="14.00">gini = 0.212</text>
<text text-anchor="middle" x="501" y="-290.8" font-family="Times,serif" font-size="14.00">samples = 78</text>
<text text-anchor="middle" x="501" y="-275.8" font-family="Times,serif" font-size="14.00">value = [14.612, 106.534]</text>
<text text-anchor="middle" x="501" y="-260.8" font-family="Times,serif" font-size="14.00">class = Obstructive</text>
</g>
<!-- 1&#45;&gt;3 -->
<g id="edge3" class="edge">
<title>1&#45;&gt;3</title>
<path fill="none" stroke="black" d="M501,-386.97C501,-378.69 501,-370 501,-361.48"/>
<polygon fill="black" stroke="black" points="504.5,-361.21 501,-351.21 497.5,-361.21 504.5,-361.21"/>
</g>
<!-- 4 -->
<g id="node5" class="node">
<title>4</title>
<polygon fill="none" stroke="black" points="373,-217 167,-217 167,-119 373,-119 373,-217"/>
<text text-anchor="middle" x="270" y="-201.8" font-family="Times,serif" font-size="14.00">node #4</text>
<text text-anchor="middle" x="270" y="-186.8" font-family="Times,serif" font-size="14.00">FEV1PostPercent &lt;= 34.5</text>
<text text-anchor="middle" x="270" y="-171.8" font-family="Times,serif" font-size="14.00">gini = 0.479</text>
<text text-anchor="middle" x="270" y="-156.8" font-family="Times,serif" font-size="14.00">samples = 10</text>
<text text-anchor="middle" x="270" y="-141.8" font-family="Times,serif" font-size="14.00">value = [7.306, 4.799]</text>
<text text-anchor="middle" x="270" y="-126.8" font-family="Times,serif" font-size="14.00">class = Non&#45;obstructive</text>
</g>
<!-- 3&#45;&gt;4 -->
<g id="edge4" class="edge">
<title>3&#45;&gt;4</title>
<path fill="none" stroke="black" d="M416.95,-252.97C399.59,-243.05 381.21,-232.55 363.54,-222.45"/>
<polygon fill="black" stroke="black" points="364.79,-219.14 354.37,-217.21 361.32,-225.21 364.79,-219.14"/>
</g>
<!-- 7 -->
<g id="node8" class="node">
<title>7</title>
<polygon fill="none" stroke="black" points="599.5,-217 402.5,-217 402.5,-119 599.5,-119 599.5,-217"/>
<text text-anchor="middle" x="501" y="-201.8" font-family="Times,serif" font-size="14.00">node #7</text>
<text text-anchor="middle" x="501" y="-186.8" font-family="Times,serif" font-size="14.00">FEFPostPercent &lt;= 70.5</text>
<text text-anchor="middle" x="501" y="-171.8" font-family="Times,serif" font-size="14.00">gini = 0.125</text>
<text text-anchor="middle" x="501" y="-156.8" font-family="Times,serif" font-size="14.00">samples = 68</text>
<text text-anchor="middle" x="501" y="-141.8" font-family="Times,serif" font-size="14.00">value = [7.306, 101.736]</text>
<text text-anchor="middle" x="501" y="-126.8" font-family="Times,serif" font-size="14.00">class = Obstructive</text>
</g>
<!-- 3&#45;&gt;7 -->
<g id="edge7" class="edge">
<title>3&#45;&gt;7</title>
<path fill="none" stroke="black" d="M501,-252.97C501,-244.69 501,-236 501,-227.48"/>
<polygon fill="black" stroke="black" points="504.5,-227.21 501,-217.21 497.5,-227.21 504.5,-227.21"/>
</g>
<!-- 5 -->
<g id="node6" class="node">
<title>5</title>
<polygon fill="none" stroke="black" points="158,-83 0,-83 0,0 158,0 158,-83"/>
<text text-anchor="middle" x="79" y="-67.8" font-family="Times,serif" font-size="14.00">node #5</text>
<text text-anchor="middle" x="79" y="-52.8" font-family="Times,serif" font-size="14.00">gini = 0.0</text>
<text text-anchor="middle" x="79" y="-37.8" font-family="Times,serif" font-size="14.00">samples = 5</text>
<text text-anchor="middle" x="79" y="-22.8" font-family="Times,serif" font-size="14.00">value = [0.0, 4.799]</text>
<text text-anchor="middle" x="79" y="-7.8" font-family="Times,serif" font-size="14.00">class = Obstructive</text>
</g>
<!-- 4&#45;&gt;5 -->
<g id="edge5" class="edge">
<title>4&#45;&gt;5</title>
<path fill="none" stroke="black" d="M196.15,-118.87C180.97,-108.97 165.02,-98.57 149.95,-88.74"/>
<polygon fill="black" stroke="black" points="151.47,-85.56 141.18,-83.03 147.65,-91.43 151.47,-85.56"/>
</g>
<!-- 6 -->
<g id="node7" class="node">
<title>6</title>
<polygon fill="none" stroke="black" points="364,-83 176,-83 176,0 364,0 364,-83"/>
<text text-anchor="middle" x="270" y="-67.8" font-family="Times,serif" font-size="14.00">node #6</text>
<text text-anchor="middle" x="270" y="-52.8" font-family="Times,serif" font-size="14.00">gini = 0.0</text>
<text text-anchor="middle" x="270" y="-37.8" font-family="Times,serif" font-size="14.00">samples = 5</text>
<text text-anchor="middle" x="270" y="-22.8" font-family="Times,serif" font-size="14.00">value = [7.306, 0.0]</text>
<text text-anchor="middle" x="270" y="-7.8" font-family="Times,serif" font-size="14.00">class = Non&#45;obstructive</text>
</g>
<!-- 4&#45;&gt;6 -->
<g id="edge6" class="edge">
<title>4&#45;&gt;6</title>
<path fill="none" stroke="black" d="M270,-118.87C270,-110.5 270,-101.77 270,-93.33"/>
<polygon fill="black" stroke="black" points="273.5,-93.23 270,-83.23 266.5,-93.23 273.5,-93.23"/>
</g>
<!-- 8 -->
<g id="node9" class="node">
<title>8</title>
<polygon fill="none" stroke="black" points="576,-83 382,-83 382,0 576,0 576,-83"/>
<text text-anchor="middle" x="479" y="-67.8" font-family="Times,serif" font-size="14.00">node #8</text>
<text text-anchor="middle" x="479" y="-52.8" font-family="Times,serif" font-size="14.00">gini = 0.109</text>
<text text-anchor="middle" x="479" y="-37.8" font-family="Times,serif" font-size="14.00">samples = 67</text>
<text text-anchor="middle" x="479" y="-22.8" font-family="Times,serif" font-size="14.00">value = [6.262, 101.736]</text>
<text text-anchor="middle" x="479" y="-7.8" font-family="Times,serif" font-size="14.00">class = Obstructive</text>
</g>
<!-- 7&#45;&gt;8 -->
<g id="edge8" class="edge">
<title>7&#45;&gt;8</title>
<path fill="none" stroke="black" d="M492.49,-118.87C491.02,-110.5 489.47,-101.77 487.98,-93.33"/>
<polygon fill="black" stroke="black" points="491.38,-92.47 486.2,-83.23 484.49,-93.69 491.38,-92.47"/>
</g>
<!-- 9 -->
<g id="node10" class="node">
<title>9</title>
<polygon fill="none" stroke="black" points="782,-83 594,-83 594,0 782,0 782,-83"/>
<text text-anchor="middle" x="688" y="-67.8" font-family="Times,serif" font-size="14.00">node #9</text>
<text text-anchor="middle" x="688" y="-52.8" font-family="Times,serif" font-size="14.00">gini = 0.0</text>
<text text-anchor="middle" x="688" y="-37.8" font-family="Times,serif" font-size="14.00">samples = 1</text>
<text text-anchor="middle" x="688" y="-22.8" font-family="Times,serif" font-size="14.00">value = [1.044, 0.0]</text>
<text text-anchor="middle" x="688" y="-7.8" font-family="Times,serif" font-size="14.00">class = Non&#45;obstructive</text>
</g>
<!-- 7&#45;&gt;9 -->
<g id="edge9" class="edge">
<title>7&#45;&gt;9</title>
<path fill="none" stroke="black" d="M573.3,-118.87C588.16,-108.97 603.78,-98.57 618.54,-88.74"/>
<polygon fill="black" stroke="black" points="620.74,-91.49 627.12,-83.03 616.86,-85.66 620.74,-91.49"/>
</g>
<!-- 11 -->
<g id="node12" class="node">
<title>11</title>
<polygon fill="none" stroke="black" points="904,-351 710,-351 710,-253 904,-253 904,-351"/>
<text text-anchor="middle" x="807" y="-335.8" font-family="Times,serif" font-size="14.00">node #11</text>
<text text-anchor="middle" x="807" y="-320.8" font-family="Times,serif" font-size="14.00">FEFPrePercent &lt;= 29.0</text>
<text text-anchor="middle" x="807" y="-305.8" font-family="Times,serif" font-size="14.00">gini = 0.12</text>
<text text-anchor="middle" x="807" y="-290.8" font-family="Times,serif" font-size="14.00">samples = 70</text>
<text text-anchor="middle" x="807" y="-275.8" font-family="Times,serif" font-size="14.00">value = [111.681, 7.678]</text>
<text text-anchor="middle" x="807" y="-260.8" font-family="Times,serif" font-size="14.00">class = Non&#45;obstructive</text>
</g>
<!-- 10&#45;&gt;11 -->
<g id="edge11" class="edge">
<title>10&#45;&gt;11</title>
<path fill="none" stroke="black" d="M807,-386.97C807,-378.69 807,-370 807,-361.48"/>
<polygon fill="black" stroke="black" points="810.5,-361.21 807,-351.21 803.5,-361.21 810.5,-361.21"/>
</g>
<!-- 16 -->
<g id="node17" class="node">
<title>16</title>
<polygon fill="none" stroke="black" points="1201,-351 1007,-351 1007,-253 1201,-253 1201,-351"/>
<text text-anchor="middle" x="1104" y="-335.8" font-family="Times,serif" font-size="14.00">node #16</text>
<text text-anchor="middle" x="1104" y="-320.8" font-family="Times,serif" font-size="14.00">FEV1PreVal &lt;= 1.905</text>
<text text-anchor="middle" x="1104" y="-305.8" font-family="Times,serif" font-size="14.00">gini = 0.483</text>
<text text-anchor="middle" x="1104" y="-290.8" font-family="Times,serif" font-size="14.00">samples = 58</text>
<text text-anchor="middle" x="1104" y="-275.8" font-family="Times,serif" font-size="14.00">value = [36.531, 52.787]</text>
<text text-anchor="middle" x="1104" y="-260.8" font-family="Times,serif" font-size="14.00">class = Obstructive</text>
</g>
<!-- 10&#45;&gt;16 -->
<g id="edge16" class="edge">
<title>10&#45;&gt;16</title>
<path fill="none" stroke="black" d="M908.8,-389.76C937.43,-377.03 968.65,-363.16 997.55,-350.31"/>
<polygon fill="black" stroke="black" points="999.13,-353.44 1006.85,-346.18 996.29,-347.04 999.13,-353.44"/>
</g>
<!-- 12 -->
<g id="node13" class="node">
<title>12</title>
<polygon fill="none" stroke="black" points="783,-209.5 625,-209.5 625,-126.5 783,-126.5 783,-209.5"/>
<text text-anchor="middle" x="704" y="-194.3" font-family="Times,serif" font-size="14.00">node #12</text>
<text text-anchor="middle" x="704" y="-179.3" font-family="Times,serif" font-size="14.00">gini = 0.0</text>
<text text-anchor="middle" x="704" y="-164.3" font-family="Times,serif" font-size="14.00">samples = 1</text>
<text text-anchor="middle" x="704" y="-149.3" font-family="Times,serif" font-size="14.00">value = [0.0, 2.879]</text>
<text text-anchor="middle" x="704" y="-134.3" font-family="Times,serif" font-size="14.00">class = Obstructive</text>
</g>
<!-- 11&#45;&gt;12 -->
<g id="edge12" class="edge">
<title>11&#45;&gt;12</title>
<path fill="none" stroke="black" d="M769.52,-252.97C760.64,-241.58 751.15,-229.42 742.23,-217.99"/>
<polygon fill="black" stroke="black" points="744.76,-215.55 735.85,-209.82 739.24,-219.85 744.76,-215.55"/>
</g>
<!-- 13 -->
<g id="node14" class="node">
<title>13</title>
<polygon fill="none" stroke="black" points="995,-217 801,-217 801,-119 995,-119 995,-217"/>
<text text-anchor="middle" x="898" y="-201.8" font-family="Times,serif" font-size="14.00">node #13</text>
<text text-anchor="middle" x="898" y="-186.8" font-family="Times,serif" font-size="14.00">FVCPreVal &lt;= 1.955</text>
<text text-anchor="middle" x="898" y="-171.8" font-family="Times,serif" font-size="14.00">gini = 0.079</text>
<text text-anchor="middle" x="898" y="-156.8" font-family="Times,serif" font-size="14.00">samples = 69</text>
<text text-anchor="middle" x="898" y="-141.8" font-family="Times,serif" font-size="14.00">value = [111.681, 4.799]</text>
<text text-anchor="middle" x="898" y="-126.8" font-family="Times,serif" font-size="14.00">class = Non&#45;obstructive</text>
</g>
<!-- 11&#45;&gt;13 -->
<g id="edge13" class="edge">
<title>11&#45;&gt;13</title>
<path fill="none" stroke="black" d="M840.11,-252.97C846.26,-244.05 852.73,-234.66 859.04,-225.52"/>
<polygon fill="black" stroke="black" points="861.97,-227.43 864.76,-217.21 856.2,-223.46 861.97,-227.43"/>
</g>
<!-- 14 -->
<g id="node15" class="node">
<title>14</title>
<polygon fill="none" stroke="black" points="988,-83 800,-83 800,0 988,0 988,-83"/>
<text text-anchor="middle" x="894" y="-67.8" font-family="Times,serif" font-size="14.00">node #14</text>
<text text-anchor="middle" x="894" y="-52.8" font-family="Times,serif" font-size="14.00">gini = 0.039</text>
<text text-anchor="middle" x="894" y="-37.8" font-family="Times,serif" font-size="14.00">samples = 57</text>
<text text-anchor="middle" x="894" y="-22.8" font-family="Times,serif" font-size="14.00">value = [94.981, 1.92]</text>
<text text-anchor="middle" x="894" y="-7.8" font-family="Times,serif" font-size="14.00">class = Non&#45;obstructive</text>
</g>
<!-- 13&#45;&gt;14 -->
<g id="edge14" class="edge">
<title>13&#45;&gt;14</title>
<path fill="none" stroke="black" d="M896.45,-118.87C896.18,-110.5 895.9,-101.77 895.63,-93.33"/>
<polygon fill="black" stroke="black" points="899.13,-93.11 895.31,-83.23 892.13,-93.34 899.13,-93.11"/>
</g>
<!-- 15 -->
<g id="node16" class="node">
<title>15</title>
<polygon fill="none" stroke="black" points="1194,-83 1006,-83 1006,0 1194,0 1194,-83"/>
<text text-anchor="middle" x="1100" y="-67.8" font-family="Times,serif" font-size="14.00">node #15</text>
<text text-anchor="middle" x="1100" y="-52.8" font-family="Times,serif" font-size="14.00">gini = 0.251</text>
<text text-anchor="middle" x="1100" y="-37.8" font-family="Times,serif" font-size="14.00">samples = 12</text>
<text text-anchor="middle" x="1100" y="-22.8" font-family="Times,serif" font-size="14.00">value = [16.7, 2.879]</text>
<text text-anchor="middle" x="1100" y="-7.8" font-family="Times,serif" font-size="14.00">class = Non&#45;obstructive</text>
</g>
<!-- 13&#45;&gt;15 -->
<g id="edge15" class="edge">
<title>13&#45;&gt;15</title>
<path fill="none" stroke="black" d="M976.1,-118.87C992.3,-108.88 1009.34,-98.38 1025.42,-88.47"/>
<polygon fill="black" stroke="black" points="1027.56,-91.26 1034.24,-83.03 1023.89,-85.3 1027.56,-91.26"/>
</g>
<!-- 17 -->
<g id="node18" class="node">
<title>17</title>
<polygon fill="none" stroke="black" points="1187.5,-209.5 1020.5,-209.5 1020.5,-126.5 1187.5,-126.5 1187.5,-209.5"/>
<text text-anchor="middle" x="1104" y="-194.3" font-family="Times,serif" font-size="14.00">node #17</text>
<text text-anchor="middle" x="1104" y="-179.3" font-family="Times,serif" font-size="14.00">gini = 0.0</text>
<text text-anchor="middle" x="1104" y="-164.3" font-family="Times,serif" font-size="14.00">samples = 9</text>
<text text-anchor="middle" x="1104" y="-149.3" font-family="Times,serif" font-size="14.00">value = [0.0, 13.437]</text>
<text text-anchor="middle" x="1104" y="-134.3" font-family="Times,serif" font-size="14.00">class = Obstructive</text>
</g>
<!-- 16&#45;&gt;17 -->
<g id="edge17" class="edge">
<title>16&#45;&gt;17</title>
<path fill="none" stroke="black" d="M1104,-252.97C1104,-242.25 1104,-230.84 1104,-219.99"/>
<polygon fill="black" stroke="black" points="1107.5,-219.82 1104,-209.82 1100.5,-219.82 1107.5,-219.82"/>
</g>
<!-- 18 -->
<g id="node19" class="node">
<title>18</title>
<polygon fill="none" stroke="black" points="1403,-217 1209,-217 1209,-119 1403,-119 1403,-217"/>
<text text-anchor="middle" x="1306" y="-201.8" font-family="Times,serif" font-size="14.00">node #18</text>
<text text-anchor="middle" x="1306" y="-186.8" font-family="Times,serif" font-size="14.00">FVCPostVal &lt;= 2.78</text>
<text text-anchor="middle" x="1306" y="-171.8" font-family="Times,serif" font-size="14.00">gini = 0.499</text>
<text text-anchor="middle" x="1306" y="-156.8" font-family="Times,serif" font-size="14.00">samples = 49</text>
<text text-anchor="middle" x="1306" y="-141.8" font-family="Times,serif" font-size="14.00">value = [36.531, 39.351]</text>
<text text-anchor="middle" x="1306" y="-126.8" font-family="Times,serif" font-size="14.00">class = Obstructive</text>
</g>
<!-- 16&#45;&gt;18 -->
<g id="edge18" class="edge">
<title>16&#45;&gt;18</title>
<path fill="none" stroke="black" d="M1177.5,-252.97C1192.54,-243.14 1208.46,-232.74 1223.78,-222.73"/>
<polygon fill="black" stroke="black" points="1225.76,-225.61 1232.22,-217.21 1221.93,-219.75 1225.76,-225.61"/>
</g>
<!-- 19 -->
<g id="node20" class="node">
<title>19</title>
<polygon fill="none" stroke="black" points="1400,-83 1212,-83 1212,0 1400,0 1400,-83"/>
<text text-anchor="middle" x="1306" y="-67.8" font-family="Times,serif" font-size="14.00">node #19</text>
<text text-anchor="middle" x="1306" y="-52.8" font-family="Times,serif" font-size="14.00">gini = 0.278</text>
<text text-anchor="middle" x="1306" y="-37.8" font-family="Times,serif" font-size="14.00">samples = 17</text>
<text text-anchor="middle" x="1306" y="-22.8" font-family="Times,serif" font-size="14.00">value = [24.006, 4.799]</text>
<text text-anchor="middle" x="1306" y="-7.8" font-family="Times,serif" font-size="14.00">class = Non&#45;obstructive</text>
</g>
<!-- 18&#45;&gt;19 -->
<g id="edge19" class="edge">
<title>18&#45;&gt;19</title>
<path fill="none" stroke="black" d="M1306,-118.87C1306,-110.5 1306,-101.77 1306,-93.33"/>
<polygon fill="black" stroke="black" points="1309.5,-93.23 1306,-83.23 1302.5,-93.23 1309.5,-93.23"/>
</g>
<!-- 20 -->
<g id="node21" class="node">
<title>20</title>
<polygon fill="none" stroke="black" points="1612,-83 1418,-83 1418,0 1612,0 1612,-83"/>
<text text-anchor="middle" x="1515" y="-67.8" font-family="Times,serif" font-size="14.00">node #20</text>
<text text-anchor="middle" x="1515" y="-52.8" font-family="Times,serif" font-size="14.00">gini = 0.391</text>
<text text-anchor="middle" x="1515" y="-37.8" font-family="Times,serif" font-size="14.00">samples = 32</text>
<text text-anchor="middle" x="1515" y="-22.8" font-family="Times,serif" font-size="14.00">value = [12.525, 34.552]</text>
<text text-anchor="middle" x="1515" y="-7.8" font-family="Times,serif" font-size="14.00">class = Obstructive</text>
</g>
<!-- 18&#45;&gt;20 -->
<g id="edge20" class="edge">
<title>18&#45;&gt;20</title>
<path fill="none" stroke="black" d="M1386.8,-118.87C1403.73,-108.78 1421.52,-98.18 1438.29,-88.19"/>
<polygon fill="black" stroke="black" points="1440.16,-91.16 1446.96,-83.03 1436.58,-85.14 1440.16,-91.16"/>
</g>
</g>
</svg>
