<?xml version="1.0" encoding="UTF-8" standalone="no"?>
<!DOCTYPE svg PUBLIC "-//W3C//DTD SVG 1.1//EN"
 "http://www.w3.org/Graphics/SVG/1.1/DTD/svg11.dtd">
<!-- Generated by graphviz version 2.43.0 (0)
 -->
<!-- Title: Tree Pages: 1 -->
<svg width="1987pt" height="627pt"
 viewBox="0.00 0.00 1987.00 627.00" xmlns="http://www.w3.org/2000/svg" xmlns:xlink="http://www.w3.org/1999/xlink">
<g id="graph0" class="graph" transform="scale(1 1) rotate(0) translate(4 623)">
<title>Tree</title>
<polygon fill="white" stroke="transparent" points="-4,4 -4,-623 1983,-623 1983,4 -4,4"/>
<!-- 0 -->
<g id="node1" class="node">
<title>0</title>
<polygon fill="none" stroke="black" points="1084,-619 896,-619 896,-521 1084,-521 1084,-619"/>
<text text-anchor="middle" x="990" y="-603.8" font-family="Times,serif" font-size="14.00">node #0</text>
<text text-anchor="middle" x="990" y="-588.8" font-family="Times,serif" font-size="14.00">FEFPreVal &lt;= 1.105</text>
<text text-anchor="middle" x="990" y="-573.8" font-family="Times,serif" font-size="14.00">gini = 0.5</text>
<text text-anchor="middle" x="990" y="-558.8" font-family="Times,serif" font-size="14.00">samples = 216</text>
<text text-anchor="middle" x="990" y="-543.8" font-family="Times,serif" font-size="14.00">value = [167.0, 167.0]</text>
<text text-anchor="middle" x="990" y="-528.8" font-family="Times,serif" font-size="14.00">class = Non&#45;obstructive</text>
</g>
<!-- 1 -->
<g id="node2" class="node">
<title>1</title>
<polygon fill="none" stroke="black" points="907.5,-485 704.5,-485 704.5,-387 907.5,-387 907.5,-485"/>
<text text-anchor="middle" x="806" y="-469.8" font-family="Times,serif" font-size="14.00">node #1</text>
<text text-anchor="middle" x="806" y="-454.8" font-family="Times,serif" font-size="14.00">FEV1PostVal &lt;= 2.445</text>
<text text-anchor="middle" x="806" y="-439.8" font-family="Times,serif" font-size="14.00">gini = 0.163</text>
<text text-anchor="middle" x="806" y="-424.8" font-family="Times,serif" font-size="14.00">samples = 77</text>
<text text-anchor="middle" x="806" y="-409.8" font-family="Times,serif" font-size="14.00">value = [11.133, 113.639]</text>
<text text-anchor="middle" x="806" y="-394.8" font-family="Times,serif" font-size="14.00">class = Obstructive</text>
</g>
<!-- 0&#45;&gt;1 -->
<g id="edge1" class="edge">
<title>0&#45;&gt;1</title>
<path fill="none" stroke="black" d="M923.05,-520.97C909.61,-511.33 895.39,-501.13 881.67,-491.29"/>
<polygon fill="black" stroke="black" points="883.37,-488.2 873.21,-485.21 879.29,-493.89 883.37,-488.2"/>
<text text-anchor="middle" x="877.27" y="-506.18" font-family="Times,serif" font-size="14.00">True</text>
</g>
<!-- 10 -->
<g id="node11" class="node">
<title>10</title>
<polygon fill="none" stroke="black" points="1158.5,-485 955.5,-485 955.5,-387 1158.5,-387 1158.5,-485"/>
<text text-anchor="middle" x="1057" y="-469.8" font-family="Times,serif" font-size="14.00">node #10</text>
<text text-anchor="middle" x="1057" y="-454.8" font-family="Times,serif" font-size="14.00">FVCPostVal &lt;= 2.215</text>
<text text-anchor="middle" x="1057" y="-439.8" font-family="Times,serif" font-size="14.00">gini = 0.38</text>
<text text-anchor="middle" x="1057" y="-424.8" font-family="Times,serif" font-size="14.00">samples = 139</text>
<text text-anchor="middle" x="1057" y="-409.8" font-family="Times,serif" font-size="14.00">value = [155.867, 53.361]</text>
<text text-anchor="middle" x="1057" y="-394.8" font-family="Times,serif" font-size="14.00">class = Non&#45;obstructive</text>
</g>
<!-- 0&#45;&gt;10 -->
<g id="edge10" class="edge">
<title>0&#45;&gt;10</title>
<path fill="none" stroke="black" d="M1014.38,-520.97C1018.77,-512.33 1023.38,-503.24 1027.89,-494.36"/>
<polygon fill="black" stroke="black" points="1031.12,-495.72 1032.53,-485.21 1024.88,-492.55 1031.12,-495.72"/>
<text text-anchor="middle" x="1040.29" y="-505.28" font-family="Times,serif" font-size="14.00">False</text>
</g>
<!-- 2 -->
<g id="node3" class="node">
<title>2</title>
<polygon fill="none" stroke="black" points="620,-351 414,-351 414,-253 620,-253 620,-351"/>
<text text-anchor="middle" x="517" y="-335.8" font-family="Times,serif" font-size="14.00">node #2</text>
<text text-anchor="middle" x="517" y="-320.8" font-family="Times,serif" font-size="14.00">FEFPostPercent &lt;= 2.605</text>
<text text-anchor="middle" x="517" y="-305.8" font-family="Times,serif" font-size="14.00">gini = 0.137</text>
<text text-anchor="middle" x="517" y="-290.8" font-family="Times,serif" font-size="14.00">samples = 76</text>
<text text-anchor="middle" x="517" y="-275.8" font-family="Times,serif" font-size="14.00">value = [9.109, 113.639]</text>
<text text-anchor="middle" x="517" y="-260.8" font-family="Times,serif" font-size="14.00">class = Obstructive</text>
</g>
<!-- 1&#45;&gt;2 -->
<g id="edge2" class="edge">
<title>1&#45;&gt;2</title>
<path fill="none" stroke="black" d="M704.11,-388.46C680.04,-377.47 654.25,-365.69 629.74,-354.49"/>
<polygon fill="black" stroke="black" points="630.96,-351.2 620.41,-350.23 628.05,-357.57 630.96,-351.2"/>
</g>
<!-- 9 -->
<g id="node10" class="node">
<title>9</title>
<polygon fill="none" stroke="black" points="900,-343.5 712,-343.5 712,-260.5 900,-260.5 900,-343.5"/>
<text text-anchor="middle" x="806" y="-328.3" font-family="Times,serif" font-size="14.00">node #9</text>
<text text-anchor="middle" x="806" y="-313.3" font-family="Times,serif" font-size="14.00">gini = 0.0</text>
<text text-anchor="middle" x="806" y="-298.3" font-family="Times,serif" font-size="14.00">samples = 1</text>
<text text-anchor="middle" x="806" y="-283.3" font-family="Times,serif" font-size="14.00">value = [2.024, 0.0]</text>
<text text-anchor="middle" x="806" y="-268.3" font-family="Times,serif" font-size="14.00">class = Non&#45;obstructive</text>
</g>
<!-- 1&#45;&gt;9 -->
<g id="edge9" class="edge">
<title>1&#45;&gt;9</title>
<path fill="none" stroke="black" d="M806,-386.97C806,-376.25 806,-364.84 806,-353.99"/>
<polygon fill="black" stroke="black" points="809.5,-353.82 806,-343.82 802.5,-353.82 809.5,-353.82"/>
</g>
<!-- 3 -->
<g id="node4" class="node">
<title>3</title>
<polygon fill="none" stroke="black" points="383.5,-217 186.5,-217 186.5,-119 383.5,-119 383.5,-217"/>
<text text-anchor="middle" x="285" y="-201.8" font-family="Times,serif" font-size="14.00">node #3</text>
<text text-anchor="middle" x="285" y="-186.8" font-family="Times,serif" font-size="14.00">FVCPostPercent &lt;= 44.5</text>
<text text-anchor="middle" x="285" y="-171.8" font-family="Times,serif" font-size="14.00">gini = 0.478</text>
<text text-anchor="middle" x="285" y="-156.8" font-family="Times,serif" font-size="14.00">samples = 2</text>
<text text-anchor="middle" x="285" y="-141.8" font-family="Times,serif" font-size="14.00">value = [3.036, 1.976]</text>
<text text-anchor="middle" x="285" y="-126.8" font-family="Times,serif" font-size="14.00">class = Non&#45;obstructive</text>
</g>
<!-- 2&#45;&gt;3 -->
<g id="edge3" class="edge">
<title>2&#45;&gt;3</title>
<path fill="none" stroke="black" d="M432.59,-252.97C414.99,-242.96 396.35,-232.36 378.46,-222.17"/>
<polygon fill="black" stroke="black" points="380.16,-219.12 369.74,-217.21 376.7,-225.2 380.16,-219.12"/>
</g>
<!-- 6 -->
<g id="node7" class="node">
<title>6</title>
<polygon fill="none" stroke="black" points="614,-217 420,-217 420,-119 614,-119 614,-217"/>
<text text-anchor="middle" x="517" y="-201.8" font-family="Times,serif" font-size="14.00">node #6</text>
<text text-anchor="middle" x="517" y="-186.8" font-family="Times,serif" font-size="14.00">FVCPostVal &lt;= 1.165</text>
<text text-anchor="middle" x="517" y="-171.8" font-family="Times,serif" font-size="14.00">gini = 0.098</text>
<text text-anchor="middle" x="517" y="-156.8" font-family="Times,serif" font-size="14.00">samples = 74</text>
<text text-anchor="middle" x="517" y="-141.8" font-family="Times,serif" font-size="14.00">value = [6.073, 111.663]</text>
<text text-anchor="middle" x="517" y="-126.8" font-family="Times,serif" font-size="14.00">class = Obstructive</text>
</g>
<!-- 2&#45;&gt;6 -->
<g id="edge6" class="edge">
<title>2&#45;&gt;6</title>
<path fill="none" stroke="black" d="M517,-252.97C517,-244.69 517,-236 517,-227.48"/>
<polygon fill="black" stroke="black" points="520.5,-227.21 517,-217.21 513.5,-227.21 520.5,-227.21"/>
</g>
<!-- 4 -->
<g id="node5" class="node">
<title>4</title>
<polygon fill="none" stroke="black" points="188,-83 0,-83 0,0 188,0 188,-83"/>
<text text-anchor="middle" x="94" y="-67.8" font-family="Times,serif" font-size="14.00">node #4</text>
<text text-anchor="middle" x="94" y="-52.8" font-family="Times,serif" font-size="14.00">gini = 0.0</text>
<text text-anchor="middle" x="94" y="-37.8" font-family="Times,serif" font-size="14.00">samples = 1</text>
<text text-anchor="middle" x="94" y="-22.8" font-family="Times,serif" font-size="14.00">value = [3.036, 0.0]</text>
<text text-anchor="middle" x="94" y="-7.8" font-family="Times,serif" font-size="14.00">class = Non&#45;obstructive</text>
</g>
<!-- 3&#45;&gt;4 -->
<g id="edge4" class="edge">
<title>3&#45;&gt;4</title>
<path fill="none" stroke="black" d="M211.15,-118.87C195.97,-108.97 180.02,-98.57 164.95,-88.74"/>
<polygon fill="black" stroke="black" points="166.47,-85.56 156.18,-83.03 162.65,-91.43 166.47,-85.56"/>
</g>
<!-- 5 -->
<g id="node6" class="node">
<title>5</title>
<polygon fill="none" stroke="black" points="364,-83 206,-83 206,0 364,0 364,-83"/>
<text text-anchor="middle" x="285" y="-67.8" font-family="Times,serif" font-size="14.00">node #5</text>
<text text-anchor="middle" x="285" y="-52.8" font-family="Times,serif" font-size="14.00">gini = 0.0</text>
<text text-anchor="middle" x="285" y="-37.8" font-family="Times,serif" font-size="14.00">samples = 1</text>
<text text-anchor="middle" x="285" y="-22.8" font-family="Times,serif" font-size="14.00">value = [0.0, 1.976]</text>
<text text-anchor="middle" x="285" y="-7.8" font-family="Times,serif" font-size="14.00">class = Obstructive</text>
</g>
<!-- 3&#45;&gt;5 -->
<g id="edge5" class="edge">
<title>3&#45;&gt;5</title>
<path fill="none" stroke="black" d="M285,-118.87C285,-110.5 285,-101.77 285,-93.33"/>
<polygon fill="black" stroke="black" points="288.5,-93.23 285,-83.23 281.5,-93.23 288.5,-93.23"/>
</g>
<!-- 7 -->
<g id="node8" class="node">
<title>7</title>
<polygon fill="none" stroke="black" points="558,-83 382,-83 382,0 558,0 558,-83"/>
<text text-anchor="middle" x="470" y="-67.8" font-family="Times,serif" font-size="14.00">node #7</text>
<text text-anchor="middle" x="470" y="-52.8" font-family="Times,serif" font-size="14.00">gini = 0.424</text>
<text text-anchor="middle" x="470" y="-37.8" font-family="Times,serif" font-size="14.00">samples = 6</text>
<text text-anchor="middle" x="470" y="-22.8" font-family="Times,serif" font-size="14.00">value = [3.036, 6.917]</text>
<text text-anchor="middle" x="470" y="-7.8" font-family="Times,serif" font-size="14.00">class = Obstructive</text>
</g>
<!-- 6&#45;&gt;7 -->
<g id="edge7" class="edge">
<title>6&#45;&gt;7</title>
<path fill="none" stroke="black" d="M498.83,-118.87C495.6,-110.31 492.23,-101.39 488.98,-92.78"/>
<polygon fill="black" stroke="black" points="492.18,-91.35 485.38,-83.23 485.63,-93.82 492.18,-91.35"/>
</g>
<!-- 8 -->
<g id="node9" class="node">
<title>8</title>
<polygon fill="none" stroke="black" points="770,-83 576,-83 576,0 770,0 770,-83"/>
<text text-anchor="middle" x="673" y="-67.8" font-family="Times,serif" font-size="14.00">node #8</text>
<text text-anchor="middle" x="673" y="-52.8" font-family="Times,serif" font-size="14.00">gini = 0.055</text>
<text text-anchor="middle" x="673" y="-37.8" font-family="Times,serif" font-size="14.00">samples = 68</text>
<text text-anchor="middle" x="673" y="-22.8" font-family="Times,serif" font-size="14.00">value = [3.036, 104.746]</text>
<text text-anchor="middle" x="673" y="-7.8" font-family="Times,serif" font-size="14.00">class = Obstructive</text>
</g>
<!-- 6&#45;&gt;8 -->
<g id="edge8" class="edge">
<title>6&#45;&gt;8</title>
<path fill="none" stroke="black" d="M577.31,-118.87C589.3,-109.3 601.87,-99.27 613.81,-89.74"/>
<polygon fill="black" stroke="black" points="616.33,-92.2 621.96,-83.23 611.96,-86.73 616.33,-92.2"/>
</g>
<!-- 11 -->
<g id="node12" class="node">
<title>11</title>
<polygon fill="none" stroke="black" points="1154,-351 960,-351 960,-253 1154,-253 1154,-351"/>
<text text-anchor="middle" x="1057" y="-335.8" font-family="Times,serif" font-size="14.00">node #11</text>
<text text-anchor="middle" x="1057" y="-320.8" font-family="Times,serif" font-size="14.00">FVCPostVal &lt;= 1.625</text>
<text text-anchor="middle" x="1057" y="-305.8" font-family="Times,serif" font-size="14.00">gini = 0.159</text>
<text text-anchor="middle" x="1057" y="-290.8" font-family="Times,serif" font-size="14.00">samples = 70</text>
<text text-anchor="middle" x="1057" y="-275.8" font-family="Times,serif" font-size="14.00">value = [103.236, 9.882]</text>
<text text-anchor="middle" x="1057" y="-260.8" font-family="Times,serif" font-size="14.00">class = Non&#45;obstructive</text>
</g>
<!-- 10&#45;&gt;11 -->
<g id="edge11" class="edge">
<title>10&#45;&gt;11</title>
<path fill="none" stroke="black" d="M1057,-386.97C1057,-378.69 1057,-370 1057,-361.48"/>
<polygon fill="black" stroke="black" points="1060.5,-361.21 1057,-351.21 1053.5,-361.21 1060.5,-361.21"/>
</g>
<!-- 16 -->
<g id="node17" class="node">
<title>16</title>
<polygon fill="none" stroke="black" points="1400.5,-351 1209.5,-351 1209.5,-253 1400.5,-253 1400.5,-351"/>
<text text-anchor="middle" x="1305" y="-335.8" font-family="Times,serif" font-size="14.00">node #16</text>
<text text-anchor="middle" x="1305" y="-320.8" font-family="Times,serif" font-size="14.00">FEFPrePercent &lt;= 52.5</text>
<text text-anchor="middle" x="1305" y="-305.8" font-family="Times,serif" font-size="14.00">gini = 0.495</text>
<text text-anchor="middle" x="1305" y="-290.8" font-family="Times,serif" font-size="14.00">samples = 69</text>
<text text-anchor="middle" x="1305" y="-275.8" font-family="Times,serif" font-size="14.00">value = [52.63, 43.479]</text>
<text text-anchor="middle" x="1305" y="-260.8" font-family="Times,serif" font-size="14.00">class = Non&#45;obstructive</text>
</g>
<!-- 10&#45;&gt;16 -->
<g id="edge16" class="edge">
<title>10&#45;&gt;16</title>
<path fill="none" stroke="black" d="M1147.24,-386.97C1166.13,-376.92 1186.15,-366.26 1205.36,-356.04"/>
<polygon fill="black" stroke="black" points="1207.23,-359 1214.42,-351.21 1203.94,-352.82 1207.23,-359"/>
</g>
<!-- 12 -->
<g id="node13" class="node">
<title>12</title>
<polygon fill="none" stroke="black" points="960,-209.5 772,-209.5 772,-126.5 960,-126.5 960,-209.5"/>
<text text-anchor="middle" x="866" y="-194.3" font-family="Times,serif" font-size="14.00">node #12</text>
<text text-anchor="middle" x="866" y="-179.3" font-family="Times,serif" font-size="14.00">gini = 0.0</text>
<text text-anchor="middle" x="866" y="-164.3" font-family="Times,serif" font-size="14.00">samples = 36</text>
<text text-anchor="middle" x="866" y="-149.3" font-family="Times,serif" font-size="14.00">value = [58.703, 0.0]</text>
<text text-anchor="middle" x="866" y="-134.3" font-family="Times,serif" font-size="14.00">class = Non&#45;obstructive</text>
</g>
<!-- 11&#45;&gt;12 -->
<g id="edge12" class="edge">
<title>11&#45;&gt;12</title>
<path fill="none" stroke="black" d="M987.5,-252.97C969.81,-240.75 950.83,-227.63 933.26,-215.48"/>
<polygon fill="black" stroke="black" points="934.97,-212.41 924.75,-209.6 930.99,-218.17 934.97,-212.41"/>
</g>
<!-- 13 -->
<g id="node14" class="node">
<title>13</title>
<polygon fill="none" stroke="black" points="1175.5,-217 978.5,-217 978.5,-119 1175.5,-119 1175.5,-217"/>
<text text-anchor="middle" x="1077" y="-201.8" font-family="Times,serif" font-size="14.00">node #13</text>
<text text-anchor="middle" x="1077" y="-186.8" font-family="Times,serif" font-size="14.00">FEFPostPercent &lt;= 70.0</text>
<text text-anchor="middle" x="1077" y="-171.8" font-family="Times,serif" font-size="14.00">gini = 0.297</text>
<text text-anchor="middle" x="1077" y="-156.8" font-family="Times,serif" font-size="14.00">samples = 34</text>
<text text-anchor="middle" x="1077" y="-141.8" font-family="Times,serif" font-size="14.00">value = [44.533, 9.882]</text>
<text text-anchor="middle" x="1077" y="-126.8" font-family="Times,serif" font-size="14.00">class = Non&#45;obstructive</text>
</g>
<!-- 11&#45;&gt;13 -->
<g id="edge13" class="edge">
<title>11&#45;&gt;13</title>
<path fill="none" stroke="black" d="M1064.28,-252.97C1065.55,-244.6 1066.88,-235.81 1068.18,-227.2"/>
<polygon fill="black" stroke="black" points="1071.66,-227.63 1069.69,-217.21 1064.74,-226.58 1071.66,-227.63"/>
</g>
<!-- 14 -->
<g id="node15" class="node">
<title>14</title>
<polygon fill="none" stroke="black" points="976,-83 788,-83 788,0 976,0 976,-83"/>
<text text-anchor="middle" x="882" y="-67.8" font-family="Times,serif" font-size="14.00">node #14</text>
<text text-anchor="middle" x="882" y="-52.8" font-family="Times,serif" font-size="14.00">gini = 0.492</text>
<text text-anchor="middle" x="882" y="-37.8" font-family="Times,serif" font-size="14.00">samples = 11</text>
<text text-anchor="middle" x="882" y="-22.8" font-family="Times,serif" font-size="14.00">value = [10.121, 7.905]</text>
<text text-anchor="middle" x="882" y="-7.8" font-family="Times,serif" font-size="14.00">class = Non&#45;obstructive</text>
</g>
<!-- 13&#45;&gt;14 -->
<g id="edge14" class="edge">
<title>13&#45;&gt;14</title>
<path fill="none" stroke="black" d="M1001.61,-118.87C985.96,-108.88 969.52,-98.38 954,-88.47"/>
<polygon fill="black" stroke="black" points="955.8,-85.46 945.48,-83.03 952.03,-91.36 955.8,-85.46"/>
</g>
<!-- 15 -->
<g id="node16" class="node">
<title>15</title>
<polygon fill="none" stroke="black" points="1182,-83 994,-83 994,0 1182,0 1182,-83"/>
<text text-anchor="middle" x="1088" y="-67.8" font-family="Times,serif" font-size="14.00">node #15</text>
<text text-anchor="middle" x="1088" y="-52.8" font-family="Times,serif" font-size="14.00">gini = 0.103</text>
<text text-anchor="middle" x="1088" y="-37.8" font-family="Times,serif" font-size="14.00">samples = 23</text>
<text text-anchor="middle" x="1088" y="-22.8" font-family="Times,serif" font-size="14.00">value = [34.412, 1.976]</text>
<text text-anchor="middle" x="1088" y="-7.8" font-family="Times,serif" font-size="14.00">class = Non&#45;obstructive</text>
</g>
<!-- 13&#45;&gt;15 -->
<g id="edge15" class="edge">
<title>13&#45;&gt;15</title>
<path fill="none" stroke="black" d="M1081.25,-118.87C1081.99,-110.5 1082.76,-101.77 1083.51,-93.33"/>
<polygon fill="black" stroke="black" points="1087.01,-93.5 1084.4,-83.23 1080.03,-92.88 1087.01,-93.5"/>
</g>
<!-- 17 -->
<g id="node18" class="node">
<title>17</title>
<polygon fill="none" stroke="black" points="1397.5,-217 1212.5,-217 1212.5,-119 1397.5,-119 1397.5,-217"/>
<text text-anchor="middle" x="1305" y="-201.8" font-family="Times,serif" font-size="14.00">node #17</text>
<text text-anchor="middle" x="1305" y="-186.8" font-family="Times,serif" font-size="14.00">FEV1PostVal &lt;= 1.885</text>
<text text-anchor="middle" x="1305" y="-171.8" font-family="Times,serif" font-size="14.00">gini = 0.292</text>
<text text-anchor="middle" x="1305" y="-156.8" font-family="Times,serif" font-size="14.00">samples = 18</text>
<text text-anchor="middle" x="1305" y="-141.8" font-family="Times,serif" font-size="14.00">value = [4.048, 18.775]</text>
<text text-anchor="middle" x="1305" y="-126.8" font-family="Times,serif" font-size="14.00">class = Obstructive</text>
</g>
<!-- 16&#45;&gt;17 -->
<g id="edge17" class="edge">
<title>16&#45;&gt;17</title>
<path fill="none" stroke="black" d="M1305,-252.97C1305,-244.69 1305,-236 1305,-227.48"/>
<polygon fill="black" stroke="black" points="1308.5,-227.21 1305,-217.21 1301.5,-227.21 1308.5,-227.21"/>
</g>
<!-- 20 -->
<g id="node21" class="node">
<title>20</title>
<polygon fill="none" stroke="black" points="1785,-217 1591,-217 1591,-119 1785,-119 1785,-217"/>
<text text-anchor="middle" x="1688" y="-201.8" font-family="Times,serif" font-size="14.00">node #20</text>
<text text-anchor="middle" x="1688" y="-186.8" font-family="Times,serif" font-size="14.00">FEV1PreVal &lt;= 1.885</text>
<text text-anchor="middle" x="1688" y="-171.8" font-family="Times,serif" font-size="14.00">gini = 0.447</text>
<text text-anchor="middle" x="1688" y="-156.8" font-family="Times,serif" font-size="14.00">samples = 51</text>
<text text-anchor="middle" x="1688" y="-141.8" font-family="Times,serif" font-size="14.00">value = [48.582, 24.704]</text>
<text text-anchor="middle" x="1688" y="-126.8" font-family="Times,serif" font-size="14.00">class = Non&#45;obstructive</text>
</g>
<!-- 16&#45;&gt;20 -->
<g id="edge20" class="edge">
<title>16&#45;&gt;20</title>
<path fill="none" stroke="black" d="M1400.66,-268.03C1455.53,-249.12 1524.56,-225.33 1581.2,-205.81"/>
<polygon fill="black" stroke="black" points="1582.59,-209.03 1590.9,-202.47 1580.31,-202.41 1582.59,-209.03"/>
</g>
<!-- 18 -->
<g id="node19" class="node">
<title>18</title>
<polygon fill="none" stroke="black" points="1388,-83 1200,-83 1200,0 1388,0 1388,-83"/>
<text text-anchor="middle" x="1294" y="-67.8" font-family="Times,serif" font-size="14.00">node #18</text>
<text text-anchor="middle" x="1294" y="-52.8" font-family="Times,serif" font-size="14.00">gini = 0.0</text>
<text text-anchor="middle" x="1294" y="-37.8" font-family="Times,serif" font-size="14.00">samples = 1</text>
<text text-anchor="middle" x="1294" y="-22.8" font-family="Times,serif" font-size="14.00">value = [1.012, 0.0]</text>
<text text-anchor="middle" x="1294" y="-7.8" font-family="Times,serif" font-size="14.00">class = Non&#45;obstructive</text>
</g>
<!-- 17&#45;&gt;18 -->
<g id="edge18" class="edge">
<title>17&#45;&gt;18</title>
<path fill="none" stroke="black" d="M1300.75,-118.87C1300.01,-110.5 1299.24,-101.77 1298.49,-93.33"/>
<polygon fill="black" stroke="black" points="1301.97,-92.88 1297.6,-83.23 1294.99,-93.5 1301.97,-92.88"/>
</g>
<!-- 19 -->
<g id="node20" class="node">
<title>19</title>
<polygon fill="none" stroke="black" points="1591.5,-83 1406.5,-83 1406.5,0 1591.5,0 1591.5,-83"/>
<text text-anchor="middle" x="1499" y="-67.8" font-family="Times,serif" font-size="14.00">node #19</text>
<text text-anchor="middle" x="1499" y="-52.8" font-family="Times,serif" font-size="14.00">gini = 0.24</text>
<text text-anchor="middle" x="1499" y="-37.8" font-family="Times,serif" font-size="14.00">samples = 17</text>
<text text-anchor="middle" x="1499" y="-22.8" font-family="Times,serif" font-size="14.00">value = [3.036, 18.775]</text>
<text text-anchor="middle" x="1499" y="-7.8" font-family="Times,serif" font-size="14.00">class = Obstructive</text>
</g>
<!-- 17&#45;&gt;19 -->
<g id="edge19" class="edge">
<title>17&#45;&gt;19</title>
<path fill="none" stroke="black" d="M1380.01,-118.87C1395.57,-108.88 1411.93,-98.38 1427.37,-88.47"/>
<polygon fill="black" stroke="black" points="1429.32,-91.38 1435.84,-83.03 1425.53,-85.49 1429.32,-91.38"/>
</g>
<!-- 21 -->
<g id="node22" class="node">
<title>21</title>
<polygon fill="none" stroke="black" points="1767,-83 1609,-83 1609,0 1767,0 1767,-83"/>
<text text-anchor="middle" x="1688" y="-67.8" font-family="Times,serif" font-size="14.00">node #21</text>
<text text-anchor="middle" x="1688" y="-52.8" font-family="Times,serif" font-size="14.00">gini = 0.0</text>
<text text-anchor="middle" x="1688" y="-37.8" font-family="Times,serif" font-size="14.00">samples = 5</text>
<text text-anchor="middle" x="1688" y="-22.8" font-family="Times,serif" font-size="14.00">value = [0.0, 5.929]</text>
<text text-anchor="middle" x="1688" y="-7.8" font-family="Times,serif" font-size="14.00">class = Obstructive</text>
</g>
<!-- 20&#45;&gt;21 -->
<g id="edge21" class="edge">
<title>20&#45;&gt;21</title>
<path fill="none" stroke="black" d="M1688,-118.87C1688,-110.5 1688,-101.77 1688,-93.33"/>
<polygon fill="black" stroke="black" points="1691.5,-93.23 1688,-83.23 1684.5,-93.23 1691.5,-93.23"/>
</g>
<!-- 22 -->
<g id="node23" class="node">
<title>22</title>
<polygon fill="none" stroke="black" points="1979,-83 1785,-83 1785,0 1979,0 1979,-83"/>
<text text-anchor="middle" x="1882" y="-67.8" font-family="Times,serif" font-size="14.00">node #22</text>
<text text-anchor="middle" x="1882" y="-52.8" font-family="Times,serif" font-size="14.00">gini = 0.402</text>
<text text-anchor="middle" x="1882" y="-37.8" font-family="Times,serif" font-size="14.00">samples = 46</text>
<text text-anchor="middle" x="1882" y="-22.8" font-family="Times,serif" font-size="14.00">value = [48.582, 18.775]</text>
<text text-anchor="middle" x="1882" y="-7.8" font-family="Times,serif" font-size="14.00">class = Non&#45;obstructive</text>
</g>
<!-- 20&#45;&gt;22 -->
<g id="edge22" class="edge">
<title>20&#45;&gt;22</title>
<path fill="none" stroke="black" d="M1763.01,-118.87C1778.57,-108.88 1794.93,-98.38 1810.37,-88.47"/>
<polygon fill="black" stroke="black" points="1812.32,-91.38 1818.84,-83.03 1808.53,-85.49 1812.32,-91.38"/>
</g>
</g>
</svg>
