<?xml version="1.0" encoding="UTF-8" standalone="no"?>
<!DOCTYPE svg PUBLIC "-//W3C//DTD SVG 1.1//EN"
 "http://www.w3.org/Graphics/SVG/1.1/DTD/svg11.dtd">
<!-- Generated by graphviz version 2.43.0 (0)
 -->
<!-- Title: Tree Pages: 1 -->
<svg width="2574pt" height="627pt"
 viewBox="0.00 0.00 2574.00 627.00" xmlns="http://www.w3.org/2000/svg" xmlns:xlink="http://www.w3.org/1999/xlink">
<g id="graph0" class="graph" transform="scale(1 1) rotate(0) translate(4 623)">
<title>Tree</title>
<polygon fill="white" stroke="transparent" points="-4,4 -4,-623 2570,-623 2570,4 -4,4"/>
<!-- 0 -->
<g id="node1" class="node">
<title>0</title>
<polygon fill="none" stroke="black" points="1081.5,-619 890.5,-619 890.5,-521 1081.5,-521 1081.5,-619"/>
<text text-anchor="middle" x="986" y="-603.8" font-family="Times,serif" font-size="14.00">node #0</text>
<text text-anchor="middle" x="986" y="-588.8" font-family="Times,serif" font-size="14.00">FEFPrePercent &lt;= 38.5</text>
<text text-anchor="middle" x="986" y="-573.8" font-family="Times,serif" font-size="14.00">gini = 0.5</text>
<text text-anchor="middle" x="986" y="-558.8" font-family="Times,serif" font-size="14.00">samples = 205</text>
<text text-anchor="middle" x="986" y="-543.8" font-family="Times,serif" font-size="14.00">value = [167.0, 167.0]</text>
<text text-anchor="middle" x="986" y="-528.8" font-family="Times,serif" font-size="14.00">class = Non&#45;obstructive</text>
</g>
<!-- 1 -->
<g id="node2" class="node">
<title>1</title>
<polygon fill="none" stroke="black" points="689.5,-485 486.5,-485 486.5,-387 689.5,-387 689.5,-485"/>
<text text-anchor="middle" x="588" y="-469.8" font-family="Times,serif" font-size="14.00">node #1</text>
<text text-anchor="middle" x="588" y="-454.8" font-family="Times,serif" font-size="14.00">FVCPrePercent &lt;= 39.5</text>
<text text-anchor="middle" x="588" y="-439.8" font-family="Times,serif" font-size="14.00">gini = 0.267</text>
<text text-anchor="middle" x="588" y="-424.8" font-family="Times,serif" font-size="14.00">samples = 83</text>
<text text-anchor="middle" x="588" y="-409.8" font-family="Times,serif" font-size="14.00">value = [21.255, 112.651]</text>
<text text-anchor="middle" x="588" y="-394.8" font-family="Times,serif" font-size="14.00">class = Obstructive</text>
</g>
<!-- 0&#45;&gt;1 -->
<g id="edge1" class="edge">
<title>0&#45;&gt;1</title>
<path fill="none" stroke="black" d="M890.42,-537.3C832.89,-518.22 759.4,-493.85 699.27,-473.9"/>
<polygon fill="black" stroke="black" points="700.33,-470.57 689.74,-470.74 698.13,-477.21 700.33,-470.57"/>
<text text-anchor="middle" x="700.95" y="-489.39" font-family="Times,serif" font-size="14.00">True</text>
</g>
<!-- 12 -->
<g id="node13" class="node">
<title>12</title>
<polygon fill="none" stroke="black" points="1484.5,-485 1281.5,-485 1281.5,-387 1484.5,-387 1484.5,-485"/>
<text text-anchor="middle" x="1383" y="-469.8" font-family="Times,serif" font-size="14.00">node #12</text>
<text text-anchor="middle" x="1383" y="-454.8" font-family="Times,serif" font-size="14.00">FVCPreVal &lt;= 3.205</text>
<text text-anchor="middle" x="1383" y="-439.8" font-family="Times,serif" font-size="14.00">gini = 0.396</text>
<text text-anchor="middle" x="1383" y="-424.8" font-family="Times,serif" font-size="14.00">samples = 122</text>
<text text-anchor="middle" x="1383" y="-409.8" font-family="Times,serif" font-size="14.00">value = [145.745, 54.349]</text>
<text text-anchor="middle" x="1383" y="-394.8" font-family="Times,serif" font-size="14.00">class = Non&#45;obstructive</text>
</g>
<!-- 0&#45;&gt;12 -->
<g id="edge12" class="edge">
<title>0&#45;&gt;12</title>
<path fill="none" stroke="black" d="M1081.6,-537.21C1138.76,-518.21 1211.65,-493.97 1271.44,-474.09"/>
<polygon fill="black" stroke="black" points="1272.91,-477.29 1281.29,-470.82 1270.7,-470.65 1272.91,-477.29"/>
<text text-anchor="middle" x="1270.1" y="-489.47" font-family="Times,serif" font-size="14.00">False</text>
</g>
<!-- 2 -->
<g id="node3" class="node">
<title>2</title>
<polygon fill="none" stroke="black" points="364,-351 176,-351 176,-253 364,-253 364,-351"/>
<text text-anchor="middle" x="270" y="-335.8" font-family="Times,serif" font-size="14.00">node #2</text>
<text text-anchor="middle" x="270" y="-320.8" font-family="Times,serif" font-size="14.00">FEFPostVal &lt;= 0.55</text>
<text text-anchor="middle" x="270" y="-305.8" font-family="Times,serif" font-size="14.00">gini = 0.496</text>
<text text-anchor="middle" x="270" y="-290.8" font-family="Times,serif" font-size="14.00">samples = 9</text>
<text text-anchor="middle" x="270" y="-275.8" font-family="Times,serif" font-size="14.00">value = [7.085, 5.929]</text>
<text text-anchor="middle" x="270" y="-260.8" font-family="Times,serif" font-size="14.00">class = Non&#45;obstructive</text>
</g>
<!-- 1&#45;&gt;2 -->
<g id="edge2" class="edge">
<title>1&#45;&gt;2</title>
<path fill="none" stroke="black" d="M486.07,-392.69C450.13,-377.77 409.71,-360.99 373.63,-346.02"/>
<polygon fill="black" stroke="black" points="374.65,-342.65 364.07,-342.05 371.97,-349.11 374.65,-342.65"/>
</g>
<!-- 5 -->
<g id="node6" class="node">
<title>5</title>
<polygon fill="none" stroke="black" points="685,-351 491,-351 491,-253 685,-253 685,-351"/>
<text text-anchor="middle" x="588" y="-335.8" font-family="Times,serif" font-size="14.00">node #5</text>
<text text-anchor="middle" x="588" y="-320.8" font-family="Times,serif" font-size="14.00">FVCPostVal &lt;= 1.215</text>
<text text-anchor="middle" x="588" y="-305.8" font-family="Times,serif" font-size="14.00">gini = 0.207</text>
<text text-anchor="middle" x="588" y="-290.8" font-family="Times,serif" font-size="14.00">samples = 74</text>
<text text-anchor="middle" x="588" y="-275.8" font-family="Times,serif" font-size="14.00">value = [14.17, 106.722]</text>
<text text-anchor="middle" x="588" y="-260.8" font-family="Times,serif" font-size="14.00">class = Obstructive</text>
</g>
<!-- 1&#45;&gt;5 -->
<g id="edge5" class="edge">
<title>1&#45;&gt;5</title>
<path fill="none" stroke="black" d="M588,-386.97C588,-378.69 588,-370 588,-361.48"/>
<polygon fill="black" stroke="black" points="591.5,-361.21 588,-351.21 584.5,-361.21 591.5,-361.21"/>
</g>
<!-- 3 -->
<g id="node4" class="node">
<title>3</title>
<polygon fill="none" stroke="black" points="158,-209.5 0,-209.5 0,-126.5 158,-126.5 158,-209.5"/>
<text text-anchor="middle" x="79" y="-194.3" font-family="Times,serif" font-size="14.00">node #3</text>
<text text-anchor="middle" x="79" y="-179.3" font-family="Times,serif" font-size="14.00">gini = &#45;0.0</text>
<text text-anchor="middle" x="79" y="-164.3" font-family="Times,serif" font-size="14.00">samples = 6</text>
<text text-anchor="middle" x="79" y="-149.3" font-family="Times,serif" font-size="14.00">value = [0.0, 5.929]</text>
<text text-anchor="middle" x="79" y="-134.3" font-family="Times,serif" font-size="14.00">class = Obstructive</text>
</g>
<!-- 2&#45;&gt;3 -->
<g id="edge3" class="edge">
<title>2&#45;&gt;3</title>
<path fill="none" stroke="black" d="M200.5,-252.97C182.81,-240.75 163.83,-227.63 146.26,-215.48"/>
<polygon fill="black" stroke="black" points="147.97,-212.41 137.75,-209.6 143.99,-218.17 147.97,-212.41"/>
</g>
<!-- 4 -->
<g id="node5" class="node">
<title>4</title>
<polygon fill="none" stroke="black" points="364,-209.5 176,-209.5 176,-126.5 364,-126.5 364,-209.5"/>
<text text-anchor="middle" x="270" y="-194.3" font-family="Times,serif" font-size="14.00">node #4</text>
<text text-anchor="middle" x="270" y="-179.3" font-family="Times,serif" font-size="14.00">gini = &#45;0.0</text>
<text text-anchor="middle" x="270" y="-164.3" font-family="Times,serif" font-size="14.00">samples = 3</text>
<text text-anchor="middle" x="270" y="-149.3" font-family="Times,serif" font-size="14.00">value = [7.085, 0.0]</text>
<text text-anchor="middle" x="270" y="-134.3" font-family="Times,serif" font-size="14.00">class = Non&#45;obstructive</text>
</g>
<!-- 2&#45;&gt;4 -->
<g id="edge4" class="edge">
<title>2&#45;&gt;4</title>
<path fill="none" stroke="black" d="M270,-252.97C270,-242.25 270,-230.84 270,-219.99"/>
<polygon fill="black" stroke="black" points="273.5,-219.82 270,-209.82 266.5,-219.82 273.5,-219.82"/>
</g>
<!-- 6 -->
<g id="node7" class="node">
<title>6</title>
<polygon fill="none" stroke="black" points="579.5,-217 382.5,-217 382.5,-119 579.5,-119 579.5,-217"/>
<text text-anchor="middle" x="481" y="-201.8" font-family="Times,serif" font-size="14.00">node #6</text>
<text text-anchor="middle" x="481" y="-186.8" font-family="Times,serif" font-size="14.00">FVCPostPercent &lt;= 72.0</text>
<text text-anchor="middle" x="481" y="-171.8" font-family="Times,serif" font-size="14.00">gini = 0.441</text>
<text text-anchor="middle" x="481" y="-156.8" font-family="Times,serif" font-size="14.00">samples = 3</text>
<text text-anchor="middle" x="481" y="-141.8" font-family="Times,serif" font-size="14.00">value = [6.073, 2.964]</text>
<text text-anchor="middle" x="481" y="-126.8" font-family="Times,serif" font-size="14.00">class = Non&#45;obstructive</text>
</g>
<!-- 5&#45;&gt;6 -->
<g id="edge6" class="edge">
<title>5&#45;&gt;6</title>
<path fill="none" stroke="black" d="M549.07,-252.97C541.77,-243.96 534.07,-234.47 526.59,-225.24"/>
<polygon fill="black" stroke="black" points="529.1,-222.78 520.08,-217.21 523.66,-227.19 529.1,-222.78"/>
</g>
<!-- 9 -->
<g id="node10" class="node">
<title>9</title>
<polygon fill="none" stroke="black" points="792,-217 598,-217 598,-119 792,-119 792,-217"/>
<text text-anchor="middle" x="695" y="-201.8" font-family="Times,serif" font-size="14.00">node #9</text>
<text text-anchor="middle" x="695" y="-186.8" font-family="Times,serif" font-size="14.00">FEFPrePercent &lt;= 34.5</text>
<text text-anchor="middle" x="695" y="-171.8" font-family="Times,serif" font-size="14.00">gini = 0.134</text>
<text text-anchor="middle" x="695" y="-156.8" font-family="Times,serif" font-size="14.00">samples = 71</text>
<text text-anchor="middle" x="695" y="-141.8" font-family="Times,serif" font-size="14.00">value = [8.097, 103.757]</text>
<text text-anchor="middle" x="695" y="-126.8" font-family="Times,serif" font-size="14.00">class = Obstructive</text>
</g>
<!-- 5&#45;&gt;9 -->
<g id="edge9" class="edge">
<title>5&#45;&gt;9</title>
<path fill="none" stroke="black" d="M626.93,-252.97C634.23,-243.96 641.93,-234.47 649.41,-225.24"/>
<polygon fill="black" stroke="black" points="652.34,-227.19 655.92,-217.21 646.9,-222.78 652.34,-227.19"/>
</g>
<!-- 7 -->
<g id="node8" class="node">
<title>7</title>
<polygon fill="none" stroke="black" points="384,-83 196,-83 196,0 384,0 384,-83"/>
<text text-anchor="middle" x="290" y="-67.8" font-family="Times,serif" font-size="14.00">node #7</text>
<text text-anchor="middle" x="290" y="-52.8" font-family="Times,serif" font-size="14.00">gini = &#45;0.0</text>
<text text-anchor="middle" x="290" y="-37.8" font-family="Times,serif" font-size="14.00">samples = 2</text>
<text text-anchor="middle" x="290" y="-22.8" font-family="Times,serif" font-size="14.00">value = [6.073, 0.0]</text>
<text text-anchor="middle" x="290" y="-7.8" font-family="Times,serif" font-size="14.00">class = Non&#45;obstructive</text>
</g>
<!-- 6&#45;&gt;7 -->
<g id="edge7" class="edge">
<title>6&#45;&gt;7</title>
<path fill="none" stroke="black" d="M407.15,-118.87C391.97,-108.97 376.02,-98.57 360.95,-88.74"/>
<polygon fill="black" stroke="black" points="362.47,-85.56 352.18,-83.03 358.65,-91.43 362.47,-85.56"/>
</g>
<!-- 8 -->
<g id="node9" class="node">
<title>8</title>
<polygon fill="none" stroke="black" points="560,-83 402,-83 402,0 560,0 560,-83"/>
<text text-anchor="middle" x="481" y="-67.8" font-family="Times,serif" font-size="14.00">node #8</text>
<text text-anchor="middle" x="481" y="-52.8" font-family="Times,serif" font-size="14.00">gini = 0.0</text>
<text text-anchor="middle" x="481" y="-37.8" font-family="Times,serif" font-size="14.00">samples = 1</text>
<text text-anchor="middle" x="481" y="-22.8" font-family="Times,serif" font-size="14.00">value = [0.0, 2.964]</text>
<text text-anchor="middle" x="481" y="-7.8" font-family="Times,serif" font-size="14.00">class = Obstructive</text>
</g>
<!-- 6&#45;&gt;8 -->
<g id="edge8" class="edge">
<title>6&#45;&gt;8</title>
<path fill="none" stroke="black" d="M481,-118.87C481,-110.5 481,-101.77 481,-93.33"/>
<polygon fill="black" stroke="black" points="484.5,-93.23 481,-83.23 477.5,-93.23 484.5,-93.23"/>
</g>
<!-- 10 -->
<g id="node11" class="node">
<title>10</title>
<polygon fill="none" stroke="black" points="762.5,-83 577.5,-83 577.5,0 762.5,0 762.5,-83"/>
<text text-anchor="middle" x="670" y="-67.8" font-family="Times,serif" font-size="14.00">node #10</text>
<text text-anchor="middle" x="670" y="-52.8" font-family="Times,serif" font-size="14.00">gini = 0.079</text>
<text text-anchor="middle" x="670" y="-37.8" font-family="Times,serif" font-size="14.00">samples = 61</text>
<text text-anchor="middle" x="670" y="-22.8" font-family="Times,serif" font-size="14.00">value = [4.048, 93.876]</text>
<text text-anchor="middle" x="670" y="-7.8" font-family="Times,serif" font-size="14.00">class = Obstructive</text>
</g>
<!-- 9&#45;&gt;10 -->
<g id="edge10" class="edge">
<title>9&#45;&gt;10</title>
<path fill="none" stroke="black" d="M685.33,-118.87C683.64,-110.41 681.86,-101.58 680.15,-93.06"/>
<polygon fill="black" stroke="black" points="683.58,-92.35 678.18,-83.23 676.72,-93.72 683.58,-92.35"/>
</g>
<!-- 11 -->
<g id="node12" class="node">
<title>11</title>
<polygon fill="none" stroke="black" points="956,-83 780,-83 780,0 956,0 956,-83"/>
<text text-anchor="middle" x="868" y="-67.8" font-family="Times,serif" font-size="14.00">node #11</text>
<text text-anchor="middle" x="868" y="-52.8" font-family="Times,serif" font-size="14.00">gini = 0.412</text>
<text text-anchor="middle" x="868" y="-37.8" font-family="Times,serif" font-size="14.00">samples = 10</text>
<text text-anchor="middle" x="868" y="-22.8" font-family="Times,serif" font-size="14.00">value = [4.048, 9.882]</text>
<text text-anchor="middle" x="868" y="-7.8" font-family="Times,serif" font-size="14.00">class = Obstructive</text>
</g>
<!-- 9&#45;&gt;11 -->
<g id="edge11" class="edge">
<title>9&#45;&gt;11</title>
<path fill="none" stroke="black" d="M761.89,-118.87C775.51,-109.06 789.82,-98.77 803.36,-89.02"/>
<polygon fill="black" stroke="black" points="805.61,-91.71 811.68,-83.03 801.52,-86.03 805.61,-91.71"/>
</g>
<!-- 13 -->
<g id="node14" class="node">
<title>13</title>
<polygon fill="none" stroke="black" points="1484.5,-351 1281.5,-351 1281.5,-253 1484.5,-253 1484.5,-351"/>
<text text-anchor="middle" x="1383" y="-335.8" font-family="Times,serif" font-size="14.00">node #13</text>
<text text-anchor="middle" x="1383" y="-320.8" font-family="Times,serif" font-size="14.00">FVCPrePercent &lt;= 74.5</text>
<text text-anchor="middle" x="1383" y="-305.8" font-family="Times,serif" font-size="14.00">gini = 0.287</text>
<text text-anchor="middle" x="1383" y="-290.8" font-family="Times,serif" font-size="14.00">samples = 103</text>
<text text-anchor="middle" x="1383" y="-275.8" font-family="Times,serif" font-size="14.00">value = [136.636, 28.657]</text>
<text text-anchor="middle" x="1383" y="-260.8" font-family="Times,serif" font-size="14.00">class = Non&#45;obstructive</text>
</g>
<!-- 12&#45;&gt;13 -->
<g id="edge13" class="edge">
<title>12&#45;&gt;13</title>
<path fill="none" stroke="black" d="M1383,-386.97C1383,-378.69 1383,-370 1383,-361.48"/>
<polygon fill="black" stroke="black" points="1386.5,-361.21 1383,-351.21 1379.5,-361.21 1386.5,-361.21"/>
</g>
<!-- 20 -->
<g id="node21" class="node">
<title>20</title>
<polygon fill="none" stroke="black" points="2092.5,-351 1907.5,-351 1907.5,-253 2092.5,-253 2092.5,-351"/>
<text text-anchor="middle" x="2000" y="-335.8" font-family="Times,serif" font-size="14.00">node #20</text>
<text text-anchor="middle" x="2000" y="-320.8" font-family="Times,serif" font-size="14.00">FEV1PreVal &lt;= 3.245</text>
<text text-anchor="middle" x="2000" y="-305.8" font-family="Times,serif" font-size="14.00">gini = 0.386</text>
<text text-anchor="middle" x="2000" y="-290.8" font-family="Times,serif" font-size="14.00">samples = 19</text>
<text text-anchor="middle" x="2000" y="-275.8" font-family="Times,serif" font-size="14.00">value = [9.109, 25.692]</text>
<text text-anchor="middle" x="2000" y="-260.8" font-family="Times,serif" font-size="14.00">class = Obstructive</text>
</g>
<!-- 12&#45;&gt;20 -->
<g id="edge20" class="edge">
<title>12&#45;&gt;20</title>
<path fill="none" stroke="black" d="M1484.54,-413.28C1598.72,-388.85 1783.09,-349.41 1897.61,-324.91"/>
<polygon fill="black" stroke="black" points="1898.39,-328.32 1907.44,-322.8 1896.93,-321.47 1898.39,-328.32"/>
</g>
<!-- 14 -->
<g id="node15" class="node">
<title>14</title>
<polygon fill="none" stroke="black" points="1376.5,-217 1173.5,-217 1173.5,-119 1376.5,-119 1376.5,-217"/>
<text text-anchor="middle" x="1275" y="-201.8" font-family="Times,serif" font-size="14.00">node #14</text>
<text text-anchor="middle" x="1275" y="-186.8" font-family="Times,serif" font-size="14.00">FEFPostPercent &lt;= 59.5</text>
<text text-anchor="middle" x="1275" y="-171.8" font-family="Times,serif" font-size="14.00">gini = 0.169</text>
<text text-anchor="middle" x="1275" y="-156.8" font-family="Times,serif" font-size="14.00">samples = 82</text>
<text text-anchor="middle" x="1275" y="-141.8" font-family="Times,serif" font-size="14.00">value = [115.382, 11.858]</text>
<text text-anchor="middle" x="1275" y="-126.8" font-family="Times,serif" font-size="14.00">class = Non&#45;obstructive</text>
</g>
<!-- 13&#45;&gt;14 -->
<g id="edge14" class="edge">
<title>13&#45;&gt;14</title>
<path fill="none" stroke="black" d="M1343.7,-252.97C1336.26,-243.87 1328.41,-234.28 1320.79,-224.96"/>
<polygon fill="black" stroke="black" points="1323.49,-222.74 1314.45,-217.21 1318.07,-227.17 1323.49,-222.74"/>
</g>
<!-- 17 -->
<g id="node18" class="node">
<title>17</title>
<polygon fill="none" stroke="black" points="1588,-217 1394,-217 1394,-119 1588,-119 1588,-217"/>
<text text-anchor="middle" x="1491" y="-201.8" font-family="Times,serif" font-size="14.00">node #17</text>
<text text-anchor="middle" x="1491" y="-186.8" font-family="Times,serif" font-size="14.00">FVCPrePercent &lt;= 83.0</text>
<text text-anchor="middle" x="1491" y="-171.8" font-family="Times,serif" font-size="14.00">gini = 0.493</text>
<text text-anchor="middle" x="1491" y="-156.8" font-family="Times,serif" font-size="14.00">samples = 21</text>
<text text-anchor="middle" x="1491" y="-141.8" font-family="Times,serif" font-size="14.00">value = [21.255, 16.799]</text>
<text text-anchor="middle" x="1491" y="-126.8" font-family="Times,serif" font-size="14.00">class = Non&#45;obstructive</text>
</g>
<!-- 13&#45;&gt;17 -->
<g id="edge17" class="edge">
<title>13&#45;&gt;17</title>
<path fill="none" stroke="black" d="M1422.3,-252.97C1429.74,-243.87 1437.59,-234.28 1445.21,-224.96"/>
<polygon fill="black" stroke="black" points="1447.93,-227.17 1451.55,-217.21 1442.51,-222.74 1447.93,-227.17"/>
</g>
<!-- 15 -->
<g id="node16" class="node">
<title>15</title>
<polygon fill="none" stroke="black" points="1162,-83 974,-83 974,0 1162,0 1162,-83"/>
<text text-anchor="middle" x="1068" y="-67.8" font-family="Times,serif" font-size="14.00">node #15</text>
<text text-anchor="middle" x="1068" y="-52.8" font-family="Times,serif" font-size="14.00">gini = 0.416</text>
<text text-anchor="middle" x="1068" y="-37.8" font-family="Times,serif" font-size="14.00">samples = 13</text>
<text text-anchor="middle" x="1068" y="-22.8" font-family="Times,serif" font-size="14.00">value = [14.17, 5.929]</text>
<text text-anchor="middle" x="1068" y="-7.8" font-family="Times,serif" font-size="14.00">class = Non&#45;obstructive</text>
</g>
<!-- 14&#45;&gt;15 -->
<g id="edge15" class="edge">
<title>14&#45;&gt;15</title>
<path fill="none" stroke="black" d="M1194.97,-118.87C1178.21,-108.78 1160.58,-98.18 1143.97,-88.19"/>
<polygon fill="black" stroke="black" points="1145.76,-85.19 1135.39,-83.03 1142.16,-91.19 1145.76,-85.19"/>
</g>
<!-- 16 -->
<g id="node17" class="node">
<title>16</title>
<polygon fill="none" stroke="black" points="1374,-83 1180,-83 1180,0 1374,0 1374,-83"/>
<text text-anchor="middle" x="1277" y="-67.8" font-family="Times,serif" font-size="14.00">node #16</text>
<text text-anchor="middle" x="1277" y="-52.8" font-family="Times,serif" font-size="14.00">gini = 0.105</text>
<text text-anchor="middle" x="1277" y="-37.8" font-family="Times,serif" font-size="14.00">samples = 69</text>
<text text-anchor="middle" x="1277" y="-22.8" font-family="Times,serif" font-size="14.00">value = [101.212, 5.929]</text>
<text text-anchor="middle" x="1277" y="-7.8" font-family="Times,serif" font-size="14.00">class = Non&#45;obstructive</text>
</g>
<!-- 14&#45;&gt;16 -->
<g id="edge16" class="edge">
<title>14&#45;&gt;16</title>
<path fill="none" stroke="black" d="M1275.77,-118.87C1275.91,-110.5 1276.05,-101.77 1276.18,-93.33"/>
<polygon fill="black" stroke="black" points="1279.68,-93.29 1276.35,-83.23 1272.69,-93.17 1279.68,-93.29"/>
</g>
<!-- 18 -->
<g id="node19" class="node">
<title>18</title>
<polygon fill="none" stroke="black" points="1586,-83 1392,-83 1392,0 1586,0 1586,-83"/>
<text text-anchor="middle" x="1489" y="-67.8" font-family="Times,serif" font-size="14.00">node #18</text>
<text text-anchor="middle" x="1489" y="-52.8" font-family="Times,serif" font-size="14.00">gini = 0.479</text>
<text text-anchor="middle" x="1489" y="-37.8" font-family="Times,serif" font-size="14.00">samples = 15</text>
<text text-anchor="middle" x="1489" y="-22.8" font-family="Times,serif" font-size="14.00">value = [11.133, 16.799]</text>
<text text-anchor="middle" x="1489" y="-7.8" font-family="Times,serif" font-size="14.00">class = Obstructive</text>
</g>
<!-- 17&#45;&gt;18 -->
<g id="edge18" class="edge">
<title>17&#45;&gt;18</title>
<path fill="none" stroke="black" d="M1490.23,-118.87C1490.09,-110.5 1489.95,-101.77 1489.82,-93.33"/>
<polygon fill="black" stroke="black" points="1493.31,-93.17 1489.65,-83.23 1486.32,-93.29 1493.31,-93.17"/>
</g>
<!-- 19 -->
<g id="node20" class="node">
<title>19</title>
<polygon fill="none" stroke="black" points="1792,-83 1604,-83 1604,0 1792,0 1792,-83"/>
<text text-anchor="middle" x="1698" y="-67.8" font-family="Times,serif" font-size="14.00">node #19</text>
<text text-anchor="middle" x="1698" y="-52.8" font-family="Times,serif" font-size="14.00">gini = 0.0</text>
<text text-anchor="middle" x="1698" y="-37.8" font-family="Times,serif" font-size="14.00">samples = 6</text>
<text text-anchor="middle" x="1698" y="-22.8" font-family="Times,serif" font-size="14.00">value = [10.121, 0.0]</text>
<text text-anchor="middle" x="1698" y="-7.8" font-family="Times,serif" font-size="14.00">class = Non&#45;obstructive</text>
</g>
<!-- 17&#45;&gt;19 -->
<g id="edge19" class="edge">
<title>17&#45;&gt;19</title>
<path fill="none" stroke="black" d="M1571.03,-118.87C1587.79,-108.78 1605.42,-98.18 1622.03,-88.19"/>
<polygon fill="black" stroke="black" points="1623.84,-91.19 1630.61,-83.03 1620.24,-85.19 1623.84,-91.19"/>
</g>
<!-- 21 -->
<g id="node22" class="node">
<title>21</title>
<polygon fill="none" stroke="black" points="2088,-217 1912,-217 1912,-119 2088,-119 2088,-217"/>
<text text-anchor="middle" x="2000" y="-201.8" font-family="Times,serif" font-size="14.00">node #21</text>
<text text-anchor="middle" x="2000" y="-186.8" font-family="Times,serif" font-size="14.00">FVCPreVal &lt;= 3.32</text>
<text text-anchor="middle" x="2000" y="-171.8" font-family="Times,serif" font-size="14.00">gini = 0.215</text>
<text text-anchor="middle" x="2000" y="-156.8" font-family="Times,serif" font-size="14.00">samples = 14</text>
<text text-anchor="middle" x="2000" y="-141.8" font-family="Times,serif" font-size="14.00">value = [3.036, 21.74]</text>
<text text-anchor="middle" x="2000" y="-126.8" font-family="Times,serif" font-size="14.00">class = Obstructive</text>
</g>
<!-- 20&#45;&gt;21 -->
<g id="edge21" class="edge">
<title>20&#45;&gt;21</title>
<path fill="none" stroke="black" d="M2000,-252.97C2000,-244.69 2000,-236 2000,-227.48"/>
<polygon fill="black" stroke="black" points="2003.5,-227.21 2000,-217.21 1996.5,-227.21 2003.5,-227.21"/>
</g>
<!-- 24 -->
<g id="node25" class="node">
<title>24</title>
<polygon fill="none" stroke="black" points="2390,-217 2202,-217 2202,-119 2390,-119 2390,-217"/>
<text text-anchor="middle" x="2296" y="-201.8" font-family="Times,serif" font-size="14.00">node #24</text>
<text text-anchor="middle" x="2296" y="-186.8" font-family="Times,serif" font-size="14.00">FEV1PostVal &lt;= 3.53</text>
<text text-anchor="middle" x="2296" y="-171.8" font-family="Times,serif" font-size="14.00">gini = 0.478</text>
<text text-anchor="middle" x="2296" y="-156.8" font-family="Times,serif" font-size="14.00">samples = 5</text>
<text text-anchor="middle" x="2296" y="-141.8" font-family="Times,serif" font-size="14.00">value = [6.073, 3.953]</text>
<text text-anchor="middle" x="2296" y="-126.8" font-family="Times,serif" font-size="14.00">class = Non&#45;obstructive</text>
</g>
<!-- 20&#45;&gt;24 -->
<g id="edge24" class="edge">
<title>20&#45;&gt;24</title>
<path fill="none" stroke="black" d="M2092.84,-259.6C2124.48,-245.49 2160.04,-229.63 2192.46,-215.18"/>
<polygon fill="black" stroke="black" points="2194.25,-218.21 2201.96,-210.94 2191.4,-211.81 2194.25,-218.21"/>
</g>
<!-- 22 -->
<g id="node23" class="node">
<title>22</title>
<polygon fill="none" stroke="black" points="1998,-83 1810,-83 1810,0 1998,0 1998,-83"/>
<text text-anchor="middle" x="1904" y="-67.8" font-family="Times,serif" font-size="14.00">node #22</text>
<text text-anchor="middle" x="1904" y="-52.8" font-family="Times,serif" font-size="14.00">gini = 0.5</text>
<text text-anchor="middle" x="1904" y="-37.8" font-family="Times,serif" font-size="14.00">samples = 6</text>
<text text-anchor="middle" x="1904" y="-22.8" font-family="Times,serif" font-size="14.00">value = [3.036, 2.964]</text>
<text text-anchor="middle" x="1904" y="-7.8" font-family="Times,serif" font-size="14.00">class = Non&#45;obstructive</text>
</g>
<!-- 21&#45;&gt;22 -->
<g id="edge22" class="edge">
<title>21&#45;&gt;22</title>
<path fill="none" stroke="black" d="M1962.88,-118.87C1955.94,-109.85 1948.67,-100.43 1941.7,-91.39"/>
<polygon fill="black" stroke="black" points="1944.29,-89.01 1935.41,-83.23 1938.74,-93.29 1944.29,-89.01"/>
</g>
<!-- 23 -->
<g id="node24" class="node">
<title>23</title>
<polygon fill="none" stroke="black" points="2183.5,-83 2016.5,-83 2016.5,0 2183.5,0 2183.5,-83"/>
<text text-anchor="middle" x="2100" y="-67.8" font-family="Times,serif" font-size="14.00">node #23</text>
<text text-anchor="middle" x="2100" y="-52.8" font-family="Times,serif" font-size="14.00">gini = 0.0</text>
<text text-anchor="middle" x="2100" y="-37.8" font-family="Times,serif" font-size="14.00">samples = 8</text>
<text text-anchor="middle" x="2100" y="-22.8" font-family="Times,serif" font-size="14.00">value = [0.0, 18.775]</text>
<text text-anchor="middle" x="2100" y="-7.8" font-family="Times,serif" font-size="14.00">class = Obstructive</text>
</g>
<!-- 21&#45;&gt;23 -->
<g id="edge23" class="edge">
<title>21&#45;&gt;23</title>
<path fill="none" stroke="black" d="M2038.66,-118.87C2045.97,-109.76 2053.63,-100.23 2060.95,-91.12"/>
<polygon fill="black" stroke="black" points="2063.75,-93.22 2067.28,-83.23 2058.29,-88.84 2063.75,-93.22"/>
</g>
<!-- 25 -->
<g id="node26" class="node">
<title>25</title>
<polygon fill="none" stroke="black" points="2390,-83 2202,-83 2202,0 2390,0 2390,-83"/>
<text text-anchor="middle" x="2296" y="-67.8" font-family="Times,serif" font-size="14.00">node #25</text>
<text text-anchor="middle" x="2296" y="-52.8" font-family="Times,serif" font-size="14.00">gini = 0.0</text>
<text text-anchor="middle" x="2296" y="-37.8" font-family="Times,serif" font-size="14.00">samples = 3</text>
<text text-anchor="middle" x="2296" y="-22.8" font-family="Times,serif" font-size="14.00">value = [6.073, 0.0]</text>
<text text-anchor="middle" x="2296" y="-7.8" font-family="Times,serif" font-size="14.00">class = Non&#45;obstructive</text>
</g>
<!-- 24&#45;&gt;25 -->
<g id="edge25" class="edge">
<title>24&#45;&gt;25</title>
<path fill="none" stroke="black" d="M2296,-118.87C2296,-110.5 2296,-101.77 2296,-93.33"/>
<polygon fill="black" stroke="black" points="2299.5,-93.23 2296,-83.23 2292.5,-93.23 2299.5,-93.23"/>
</g>
<!-- 26 -->
<g id="node27" class="node">
<title>26</title>
<polygon fill="none" stroke="black" points="2566,-83 2408,-83 2408,0 2566,0 2566,-83"/>
<text text-anchor="middle" x="2487" y="-67.8" font-family="Times,serif" font-size="14.00">node #26</text>
<text text-anchor="middle" x="2487" y="-52.8" font-family="Times,serif" font-size="14.00">gini = 0.0</text>
<text text-anchor="middle" x="2487" y="-37.8" font-family="Times,serif" font-size="14.00">samples = 2</text>
<text text-anchor="middle" x="2487" y="-22.8" font-family="Times,serif" font-size="14.00">value = [0.0, 3.953]</text>
<text text-anchor="middle" x="2487" y="-7.8" font-family="Times,serif" font-size="14.00">class = Obstructive</text>
</g>
<!-- 24&#45;&gt;26 -->
<g id="edge26" class="edge">
<title>24&#45;&gt;26</title>
<path fill="none" stroke="black" d="M2369.85,-118.87C2385.03,-108.97 2400.98,-98.57 2416.05,-88.74"/>
<polygon fill="black" stroke="black" points="2418.35,-91.43 2424.82,-83.03 2414.53,-85.56 2418.35,-91.43"/>
</g>
</g>
</svg>
