<?xml version="1.0" encoding="UTF-8" standalone="no"?>
<!DOCTYPE svg PUBLIC "-//W3C//DTD SVG 1.1//EN"
 "http://www.w3.org/Graphics/SVG/1.1/DTD/svg11.dtd">
<!-- Generated by graphviz version 2.43.0 (0)
 -->
<!-- Title: Tree Pages: 1 -->
<svg width="1976pt" height="627pt"
 viewBox="0.00 0.00 1975.50 627.00" xmlns="http://www.w3.org/2000/svg" xmlns:xlink="http://www.w3.org/1999/xlink">
<g id="graph0" class="graph" transform="scale(1 1) rotate(0) translate(4 623)">
<title>Tree</title>
<polygon fill="white" stroke="transparent" points="-4,4 -4,-623 1971.5,-623 1971.5,4 -4,4"/>
<!-- 0 -->
<g id="node1" class="node">
<title>0</title>
<polygon fill="none" stroke="black" points="827,-619 636,-619 636,-521 827,-521 827,-619"/>
<text text-anchor="middle" x="731.5" y="-603.8" font-family="Times,serif" font-size="14.00">node #0</text>
<text text-anchor="middle" x="731.5" y="-588.8" font-family="Times,serif" font-size="14.00">FEFPrePercent &lt;= 32.0</text>
<text text-anchor="middle" x="731.5" y="-573.8" font-family="Times,serif" font-size="14.00">gini = 0.5</text>
<text text-anchor="middle" x="731.5" y="-558.8" font-family="Times,serif" font-size="14.00">samples = 213</text>
<text text-anchor="middle" x="731.5" y="-543.8" font-family="Times,serif" font-size="14.00">value = [167.0, 167.0]</text>
<text text-anchor="middle" x="731.5" y="-528.8" font-family="Times,serif" font-size="14.00">class = Non&#45;obstructive</text>
</g>
<!-- 1 -->
<g id="node2" class="node">
<title>1</title>
<polygon fill="none" stroke="black" points="628,-485 443,-485 443,-387 628,-387 628,-485"/>
<text text-anchor="middle" x="535.5" y="-469.8" font-family="Times,serif" font-size="14.00">node #1</text>
<text text-anchor="middle" x="535.5" y="-454.8" font-family="Times,serif" font-size="14.00">FVCPostVal &lt;= 2.145</text>
<text text-anchor="middle" x="535.5" y="-439.8" font-family="Times,serif" font-size="14.00">gini = 0.114</text>
<text text-anchor="middle" x="535.5" y="-424.8" font-family="Times,serif" font-size="14.00">samples = 63</text>
<text text-anchor="middle" x="535.5" y="-409.8" font-family="Times,serif" font-size="14.00">value = [6.073, 93.876]</text>
<text text-anchor="middle" x="535.5" y="-394.8" font-family="Times,serif" font-size="14.00">class = Obstructive</text>
</g>
<!-- 0&#45;&gt;1 -->
<g id="edge1" class="edge">
<title>0&#45;&gt;1</title>
<path fill="none" stroke="black" d="M660.19,-520.97C645.73,-511.24 630.43,-500.93 615.69,-491.01"/>
<polygon fill="black" stroke="black" points="617.34,-487.9 607.09,-485.21 613.43,-493.7 617.34,-487.9"/>
<text text-anchor="middle" x="611.88" y="-506.05" font-family="Times,serif" font-size="14.00">True</text>
</g>
<!-- 8 -->
<g id="node9" class="node">
<title>8</title>
<polygon fill="none" stroke="black" points="884,-485 681,-485 681,-387 884,-387 884,-485"/>
<text text-anchor="middle" x="782.5" y="-469.8" font-family="Times,serif" font-size="14.00">node #8</text>
<text text-anchor="middle" x="782.5" y="-454.8" font-family="Times,serif" font-size="14.00">FVCPostPercent &lt;= 61.5</text>
<text text-anchor="middle" x="782.5" y="-439.8" font-family="Times,serif" font-size="14.00">gini = 0.43</text>
<text text-anchor="middle" x="782.5" y="-424.8" font-family="Times,serif" font-size="14.00">samples = 150</text>
<text text-anchor="middle" x="782.5" y="-409.8" font-family="Times,serif" font-size="14.00">value = [160.927, 73.124]</text>
<text text-anchor="middle" x="782.5" y="-394.8" font-family="Times,serif" font-size="14.00">class = Non&#45;obstructive</text>
</g>
<!-- 0&#45;&gt;8 -->
<g id="edge8" class="edge">
<title>0&#45;&gt;8</title>
<path fill="none" stroke="black" d="M750.06,-520.97C753.36,-512.42 756.83,-503.43 760.23,-494.64"/>
<polygon fill="black" stroke="black" points="763.53,-495.8 763.87,-485.21 757,-493.28 763.53,-495.8"/>
<text text-anchor="middle" x="773.99" y="-504.37" font-family="Times,serif" font-size="14.00">False</text>
</g>
<!-- 2 -->
<g id="node3" class="node">
<title>2</title>
<polygon fill="none" stroke="black" points="388.5,-351 188.5,-351 188.5,-253 388.5,-253 388.5,-351"/>
<text text-anchor="middle" x="288.5" y="-335.8" font-family="Times,serif" font-size="14.00">node #2</text>
<text text-anchor="middle" x="288.5" y="-320.8" font-family="Times,serif" font-size="14.00">FEV1PrePercent &lt;= 40.0</text>
<text text-anchor="middle" x="288.5" y="-305.8" font-family="Times,serif" font-size="14.00">gini = 0.181</text>
<text text-anchor="middle" x="288.5" y="-290.8" font-family="Times,serif" font-size="14.00">samples = 38</text>
<text text-anchor="middle" x="288.5" y="-275.8" font-family="Times,serif" font-size="14.00">value = [6.073, 54.349]</text>
<text text-anchor="middle" x="288.5" y="-260.8" font-family="Times,serif" font-size="14.00">class = Obstructive</text>
</g>
<!-- 1&#45;&gt;2 -->
<g id="edge2" class="edge">
<title>1&#45;&gt;2</title>
<path fill="none" stroke="black" d="M445.63,-386.97C426.81,-376.92 406.87,-366.26 387.74,-356.04"/>
<polygon fill="black" stroke="black" points="389.19,-352.84 378.72,-351.21 385.89,-359.01 389.19,-352.84"/>
</g>
<!-- 7 -->
<g id="node8" class="node">
<title>7</title>
<polygon fill="none" stroke="black" points="619,-343.5 452,-343.5 452,-260.5 619,-260.5 619,-343.5"/>
<text text-anchor="middle" x="535.5" y="-328.3" font-family="Times,serif" font-size="14.00">node #7</text>
<text text-anchor="middle" x="535.5" y="-313.3" font-family="Times,serif" font-size="14.00">gini = 0.0</text>
<text text-anchor="middle" x="535.5" y="-298.3" font-family="Times,serif" font-size="14.00">samples = 25</text>
<text text-anchor="middle" x="535.5" y="-283.3" font-family="Times,serif" font-size="14.00">value = [0.0, 39.527]</text>
<text text-anchor="middle" x="535.5" y="-268.3" font-family="Times,serif" font-size="14.00">class = Obstructive</text>
</g>
<!-- 1&#45;&gt;7 -->
<g id="edge7" class="edge">
<title>1&#45;&gt;7</title>
<path fill="none" stroke="black" d="M535.5,-386.97C535.5,-376.25 535.5,-364.84 535.5,-353.99"/>
<polygon fill="black" stroke="black" points="539,-353.82 535.5,-343.82 532,-353.82 539,-353.82"/>
</g>
<!-- 3 -->
<g id="node4" class="node">
<title>3</title>
<polygon fill="none" stroke="black" points="167,-209.5 0,-209.5 0,-126.5 167,-126.5 167,-209.5"/>
<text text-anchor="middle" x="83.5" y="-194.3" font-family="Times,serif" font-size="14.00">node #3</text>
<text text-anchor="middle" x="83.5" y="-179.3" font-family="Times,serif" font-size="14.00">gini = &#45;0.0</text>
<text text-anchor="middle" x="83.5" y="-164.3" font-family="Times,serif" font-size="14.00">samples = 29</text>
<text text-anchor="middle" x="83.5" y="-149.3" font-family="Times,serif" font-size="14.00">value = [0.0, 46.444]</text>
<text text-anchor="middle" x="83.5" y="-134.3" font-family="Times,serif" font-size="14.00">class = Obstructive</text>
</g>
<!-- 2&#45;&gt;3 -->
<g id="edge3" class="edge">
<title>2&#45;&gt;3</title>
<path fill="none" stroke="black" d="M213.91,-252.97C194.75,-240.63 174.18,-227.39 155.17,-215.15"/>
<polygon fill="black" stroke="black" points="156.86,-212.07 146.56,-209.6 153.07,-217.96 156.86,-212.07"/>
</g>
<!-- 4 -->
<g id="node5" class="node">
<title>4</title>
<polygon fill="none" stroke="black" points="391.5,-217 185.5,-217 185.5,-119 391.5,-119 391.5,-217"/>
<text text-anchor="middle" x="288.5" y="-201.8" font-family="Times,serif" font-size="14.00">node #4</text>
<text text-anchor="middle" x="288.5" y="-186.8" font-family="Times,serif" font-size="14.00">FEV1PostPercent &lt;= 62.5</text>
<text text-anchor="middle" x="288.5" y="-171.8" font-family="Times,serif" font-size="14.00">gini = 0.491</text>
<text text-anchor="middle" x="288.5" y="-156.8" font-family="Times,serif" font-size="14.00">samples = 9</text>
<text text-anchor="middle" x="288.5" y="-141.8" font-family="Times,serif" font-size="14.00">value = [6.073, 7.905]</text>
<text text-anchor="middle" x="288.5" y="-126.8" font-family="Times,serif" font-size="14.00">class = Obstructive</text>
</g>
<!-- 2&#45;&gt;4 -->
<g id="edge4" class="edge">
<title>2&#45;&gt;4</title>
<path fill="none" stroke="black" d="M288.5,-252.97C288.5,-244.69 288.5,-236 288.5,-227.48"/>
<polygon fill="black" stroke="black" points="292,-227.21 288.5,-217.21 285,-227.21 292,-227.21"/>
</g>
<!-- 5 -->
<g id="node6" class="node">
<title>5</title>
<polygon fill="none" stroke="black" points="191.5,-83 3.5,-83 3.5,0 191.5,0 191.5,-83"/>
<text text-anchor="middle" x="97.5" y="-67.8" font-family="Times,serif" font-size="14.00">node #5</text>
<text text-anchor="middle" x="97.5" y="-52.8" font-family="Times,serif" font-size="14.00">gini = 0.478</text>
<text text-anchor="middle" x="97.5" y="-37.8" font-family="Times,serif" font-size="14.00">samples = 7</text>
<text text-anchor="middle" x="97.5" y="-22.8" font-family="Times,serif" font-size="14.00">value = [6.073, 3.953]</text>
<text text-anchor="middle" x="97.5" y="-7.8" font-family="Times,serif" font-size="14.00">class = Non&#45;obstructive</text>
</g>
<!-- 4&#45;&gt;5 -->
<g id="edge5" class="edge">
<title>4&#45;&gt;5</title>
<path fill="none" stroke="black" d="M214.65,-118.87C199.47,-108.97 183.52,-98.57 168.45,-88.74"/>
<polygon fill="black" stroke="black" points="169.97,-85.56 159.68,-83.03 166.15,-91.43 169.97,-85.56"/>
</g>
<!-- 6 -->
<g id="node7" class="node">
<title>6</title>
<polygon fill="none" stroke="black" points="367.5,-83 209.5,-83 209.5,0 367.5,0 367.5,-83"/>
<text text-anchor="middle" x="288.5" y="-67.8" font-family="Times,serif" font-size="14.00">node #6</text>
<text text-anchor="middle" x="288.5" y="-52.8" font-family="Times,serif" font-size="14.00">gini = &#45;0.0</text>
<text text-anchor="middle" x="288.5" y="-37.8" font-family="Times,serif" font-size="14.00">samples = 2</text>
<text text-anchor="middle" x="288.5" y="-22.8" font-family="Times,serif" font-size="14.00">value = [0.0, 3.953]</text>
<text text-anchor="middle" x="288.5" y="-7.8" font-family="Times,serif" font-size="14.00">class = Obstructive</text>
</g>
<!-- 4&#45;&gt;6 -->
<g id="edge6" class="edge">
<title>4&#45;&gt;6</title>
<path fill="none" stroke="black" d="M288.5,-118.87C288.5,-110.5 288.5,-101.77 288.5,-93.33"/>
<polygon fill="black" stroke="black" points="292,-93.23 288.5,-83.23 285,-93.23 292,-93.23"/>
</g>
<!-- 9 -->
<g id="node10" class="node">
<title>9</title>
<polygon fill="none" stroke="black" points="881,-351 684,-351 684,-253 881,-253 881,-351"/>
<text text-anchor="middle" x="782.5" y="-335.8" font-family="Times,serif" font-size="14.00">node #9</text>
<text text-anchor="middle" x="782.5" y="-320.8" font-family="Times,serif" font-size="14.00">FEFPostPercent &lt;= 39.5</text>
<text text-anchor="middle" x="782.5" y="-305.8" font-family="Times,serif" font-size="14.00">gini = 0.095</text>
<text text-anchor="middle" x="782.5" y="-290.8" font-family="Times,serif" font-size="14.00">samples = 58</text>
<text text-anchor="middle" x="782.5" y="-275.8" font-family="Times,serif" font-size="14.00">value = [94.127, 4.941]</text>
<text text-anchor="middle" x="782.5" y="-260.8" font-family="Times,serif" font-size="14.00">class = Non&#45;obstructive</text>
</g>
<!-- 8&#45;&gt;9 -->
<g id="edge9" class="edge">
<title>8&#45;&gt;9</title>
<path fill="none" stroke="black" d="M782.5,-386.97C782.5,-378.69 782.5,-370 782.5,-361.48"/>
<polygon fill="black" stroke="black" points="786,-361.21 782.5,-351.21 779,-361.21 786,-361.21"/>
</g>
<!-- 16 -->
<g id="node17" class="node">
<title>16</title>
<polygon fill="none" stroke="black" points="1443.5,-351 1261.5,-351 1261.5,-253 1443.5,-253 1443.5,-351"/>
<text text-anchor="middle" x="1352.5" y="-335.8" font-family="Times,serif" font-size="14.00">node #16</text>
<text text-anchor="middle" x="1352.5" y="-320.8" font-family="Times,serif" font-size="14.00">FEV1PostVal &lt;= 1.935</text>
<text text-anchor="middle" x="1352.5" y="-305.8" font-family="Times,serif" font-size="14.00">gini = 0.5</text>
<text text-anchor="middle" x="1352.5" y="-290.8" font-family="Times,serif" font-size="14.00">samples = 92</text>
<text text-anchor="middle" x="1352.5" y="-275.8" font-family="Times,serif" font-size="14.00">value = [66.8, 68.183]</text>
<text text-anchor="middle" x="1352.5" y="-260.8" font-family="Times,serif" font-size="14.00">class = Obstructive</text>
</g>
<!-- 8&#45;&gt;16 -->
<g id="edge16" class="edge">
<title>8&#45;&gt;16</title>
<path fill="none" stroke="black" d="M884.08,-411.48C987.79,-387.46 1147.86,-350.39 1251.4,-326.41"/>
<polygon fill="black" stroke="black" points="1252.29,-329.8 1261.24,-324.13 1250.71,-322.98 1252.29,-329.8"/>
</g>
<!-- 10 -->
<g id="node11" class="node">
<title>10</title>
<polygon fill="none" stroke="black" points="759,-217 562,-217 562,-119 759,-119 759,-217"/>
<text text-anchor="middle" x="660.5" y="-201.8" font-family="Times,serif" font-size="14.00">node #10</text>
<text text-anchor="middle" x="660.5" y="-186.8" font-family="Times,serif" font-size="14.00">FEFPostPercent &lt;= 37.0</text>
<text text-anchor="middle" x="660.5" y="-171.8" font-family="Times,serif" font-size="14.00">gini = 0.478</text>
<text text-anchor="middle" x="660.5" y="-156.8" font-family="Times,serif" font-size="14.00">samples = 8</text>
<text text-anchor="middle" x="660.5" y="-141.8" font-family="Times,serif" font-size="14.00">value = [6.073, 3.953]</text>
<text text-anchor="middle" x="660.5" y="-126.8" font-family="Times,serif" font-size="14.00">class = Non&#45;obstructive</text>
</g>
<!-- 9&#45;&gt;10 -->
<g id="edge10" class="edge">
<title>9&#45;&gt;10</title>
<path fill="none" stroke="black" d="M738.11,-252.97C729.62,-243.78 720.66,-234.09 711.96,-224.68"/>
<polygon fill="black" stroke="black" points="714.42,-222.18 705.06,-217.21 709.28,-226.93 714.42,-222.18"/>
</g>
<!-- 13 -->
<g id="node14" class="node">
<title>13</title>
<polygon fill="none" stroke="black" points="968,-217 777,-217 777,-119 968,-119 968,-217"/>
<text text-anchor="middle" x="872.5" y="-201.8" font-family="Times,serif" font-size="14.00">node #13</text>
<text text-anchor="middle" x="872.5" y="-186.8" font-family="Times,serif" font-size="14.00">FEFPrePercent &lt;= 52.5</text>
<text text-anchor="middle" x="872.5" y="-171.8" font-family="Times,serif" font-size="14.00">gini = 0.022</text>
<text text-anchor="middle" x="872.5" y="-156.8" font-family="Times,serif" font-size="14.00">samples = 50</text>
<text text-anchor="middle" x="872.5" y="-141.8" font-family="Times,serif" font-size="14.00">value = [88.055, 0.988]</text>
<text text-anchor="middle" x="872.5" y="-126.8" font-family="Times,serif" font-size="14.00">class = Non&#45;obstructive</text>
</g>
<!-- 9&#45;&gt;13 -->
<g id="edge13" class="edge">
<title>9&#45;&gt;13</title>
<path fill="none" stroke="black" d="M815.25,-252.97C821.33,-244.05 827.73,-234.66 833.96,-225.52"/>
<polygon fill="black" stroke="black" points="836.89,-227.45 839.63,-217.21 831.1,-223.5 836.89,-227.45"/>
</g>
<!-- 11 -->
<g id="node12" class="node">
<title>11</title>
<polygon fill="none" stroke="black" points="573.5,-83 385.5,-83 385.5,0 573.5,0 573.5,-83"/>
<text text-anchor="middle" x="479.5" y="-67.8" font-family="Times,serif" font-size="14.00">node #11</text>
<text text-anchor="middle" x="479.5" y="-52.8" font-family="Times,serif" font-size="14.00">gini = 0.241</text>
<text text-anchor="middle" x="479.5" y="-37.8" font-family="Times,serif" font-size="14.00">samples = 6</text>
<text text-anchor="middle" x="479.5" y="-22.8" font-family="Times,serif" font-size="14.00">value = [6.073, 0.988]</text>
<text text-anchor="middle" x="479.5" y="-7.8" font-family="Times,serif" font-size="14.00">class = Non&#45;obstructive</text>
</g>
<!-- 10&#45;&gt;11 -->
<g id="edge11" class="edge">
<title>10&#45;&gt;11</title>
<path fill="none" stroke="black" d="M590.52,-118.87C576.13,-108.97 561.02,-98.57 546.73,-88.74"/>
<polygon fill="black" stroke="black" points="548.65,-85.82 538.43,-83.03 544.68,-91.58 548.65,-85.82"/>
</g>
<!-- 12 -->
<g id="node13" class="node">
<title>12</title>
<polygon fill="none" stroke="black" points="749.5,-83 591.5,-83 591.5,0 749.5,0 749.5,-83"/>
<text text-anchor="middle" x="670.5" y="-67.8" font-family="Times,serif" font-size="14.00">node #12</text>
<text text-anchor="middle" x="670.5" y="-52.8" font-family="Times,serif" font-size="14.00">gini = &#45;0.0</text>
<text text-anchor="middle" x="670.5" y="-37.8" font-family="Times,serif" font-size="14.00">samples = 2</text>
<text text-anchor="middle" x="670.5" y="-22.8" font-family="Times,serif" font-size="14.00">value = [0.0, 2.964]</text>
<text text-anchor="middle" x="670.5" y="-7.8" font-family="Times,serif" font-size="14.00">class = Obstructive</text>
</g>
<!-- 10&#45;&gt;12 -->
<g id="edge12" class="edge">
<title>10&#45;&gt;12</title>
<path fill="none" stroke="black" d="M664.37,-118.87C665.04,-110.5 665.74,-101.77 666.42,-93.33"/>
<polygon fill="black" stroke="black" points="669.92,-93.48 667.23,-83.23 662.94,-92.92 669.92,-93.48"/>
</g>
<!-- 14 -->
<g id="node15" class="node">
<title>14</title>
<polygon fill="none" stroke="black" points="955.5,-83 767.5,-83 767.5,0 955.5,0 955.5,-83"/>
<text text-anchor="middle" x="861.5" y="-67.8" font-family="Times,serif" font-size="14.00">node #14</text>
<text text-anchor="middle" x="861.5" y="-52.8" font-family="Times,serif" font-size="14.00">gini = 0.103</text>
<text text-anchor="middle" x="861.5" y="-37.8" font-family="Times,serif" font-size="14.00">samples = 8</text>
<text text-anchor="middle" x="861.5" y="-22.8" font-family="Times,serif" font-size="14.00">value = [17.206, 0.988]</text>
<text text-anchor="middle" x="861.5" y="-7.8" font-family="Times,serif" font-size="14.00">class = Non&#45;obstructive</text>
</g>
<!-- 13&#45;&gt;14 -->
<g id="edge14" class="edge">
<title>13&#45;&gt;14</title>
<path fill="none" stroke="black" d="M868.25,-118.87C867.51,-110.5 866.74,-101.77 865.99,-93.33"/>
<polygon fill="black" stroke="black" points="869.47,-92.88 865.1,-83.23 862.49,-93.5 869.47,-92.88"/>
</g>
<!-- 15 -->
<g id="node16" class="node">
<title>15</title>
<polygon fill="none" stroke="black" points="1161.5,-83 973.5,-83 973.5,0 1161.5,0 1161.5,-83"/>
<text text-anchor="middle" x="1067.5" y="-67.8" font-family="Times,serif" font-size="14.00">node #15</text>
<text text-anchor="middle" x="1067.5" y="-52.8" font-family="Times,serif" font-size="14.00">gini = 0.0</text>
<text text-anchor="middle" x="1067.5" y="-37.8" font-family="Times,serif" font-size="14.00">samples = 42</text>
<text text-anchor="middle" x="1067.5" y="-22.8" font-family="Times,serif" font-size="14.00">value = [70.848, 0.0]</text>
<text text-anchor="middle" x="1067.5" y="-7.8" font-family="Times,serif" font-size="14.00">class = Non&#45;obstructive</text>
</g>
<!-- 13&#45;&gt;15 -->
<g id="edge15" class="edge">
<title>13&#45;&gt;15</title>
<path fill="none" stroke="black" d="M947.89,-118.87C963.54,-108.88 979.98,-98.38 995.5,-88.47"/>
<polygon fill="black" stroke="black" points="997.47,-91.36 1004.02,-83.03 993.7,-85.46 997.47,-91.36"/>
</g>
<!-- 17 -->
<g id="node18" class="node">
<title>17</title>
<polygon fill="none" stroke="black" points="1448,-217 1257,-217 1257,-119 1448,-119 1448,-217"/>
<text text-anchor="middle" x="1352.5" y="-201.8" font-family="Times,serif" font-size="14.00">node #17</text>
<text text-anchor="middle" x="1352.5" y="-186.8" font-family="Times,serif" font-size="14.00">FEFPrePercent &lt;= 45.0</text>
<text text-anchor="middle" x="1352.5" y="-171.8" font-family="Times,serif" font-size="14.00">gini = 0.321</text>
<text text-anchor="middle" x="1352.5" y="-156.8" font-family="Times,serif" font-size="14.00">samples = 29</text>
<text text-anchor="middle" x="1352.5" y="-141.8" font-family="Times,serif" font-size="14.00">value = [31.376, 7.905]</text>
<text text-anchor="middle" x="1352.5" y="-126.8" font-family="Times,serif" font-size="14.00">class = Non&#45;obstructive</text>
</g>
<!-- 16&#45;&gt;17 -->
<g id="edge17" class="edge">
<title>16&#45;&gt;17</title>
<path fill="none" stroke="black" d="M1352.5,-252.97C1352.5,-244.69 1352.5,-236 1352.5,-227.48"/>
<polygon fill="black" stroke="black" points="1356,-227.21 1352.5,-217.21 1349,-227.21 1356,-227.21"/>
</g>
<!-- 20 -->
<g id="node21" class="node">
<title>20</title>
<polygon fill="none" stroke="black" points="1757,-217 1560,-217 1560,-119 1757,-119 1757,-217"/>
<text text-anchor="middle" x="1658.5" y="-201.8" font-family="Times,serif" font-size="14.00">node #20</text>
<text text-anchor="middle" x="1658.5" y="-186.8" font-family="Times,serif" font-size="14.00">FVCPostPercent &lt;= 81.0</text>
<text text-anchor="middle" x="1658.5" y="-171.8" font-family="Times,serif" font-size="14.00">gini = 0.466</text>
<text text-anchor="middle" x="1658.5" y="-156.8" font-family="Times,serif" font-size="14.00">samples = 63</text>
<text text-anchor="middle" x="1658.5" y="-141.8" font-family="Times,serif" font-size="14.00">value = [35.424, 60.278]</text>
<text text-anchor="middle" x="1658.5" y="-126.8" font-family="Times,serif" font-size="14.00">class = Obstructive</text>
</g>
<!-- 16&#45;&gt;20 -->
<g id="edge20" class="edge">
<title>16&#45;&gt;20</title>
<path fill="none" stroke="black" d="M1443.9,-261.57C1477.44,-247.1 1515.73,-230.59 1550.59,-215.55"/>
<polygon fill="black" stroke="black" points="1552.05,-218.73 1559.84,-211.56 1549.28,-212.3 1552.05,-218.73"/>
</g>
<!-- 18 -->
<g id="node19" class="node">
<title>18</title>
<polygon fill="none" stroke="black" points="1337.5,-83 1179.5,-83 1179.5,0 1337.5,0 1337.5,-83"/>
<text text-anchor="middle" x="1258.5" y="-67.8" font-family="Times,serif" font-size="14.00">node #18</text>
<text text-anchor="middle" x="1258.5" y="-52.8" font-family="Times,serif" font-size="14.00">gini = 0.0</text>
<text text-anchor="middle" x="1258.5" y="-37.8" font-family="Times,serif" font-size="14.00">samples = 5</text>
<text text-anchor="middle" x="1258.5" y="-22.8" font-family="Times,serif" font-size="14.00">value = [0.0, 6.917]</text>
<text text-anchor="middle" x="1258.5" y="-7.8" font-family="Times,serif" font-size="14.00">class = Obstructive</text>
</g>
<!-- 17&#45;&gt;18 -->
<g id="edge18" class="edge">
<title>17&#45;&gt;18</title>
<path fill="none" stroke="black" d="M1316.16,-118.87C1309.35,-109.85 1302.24,-100.43 1295.42,-91.39"/>
<polygon fill="black" stroke="black" points="1298.07,-89.1 1289.25,-83.23 1292.49,-93.32 1298.07,-89.1"/>
</g>
<!-- 19 -->
<g id="node20" class="node">
<title>19</title>
<polygon fill="none" stroke="black" points="1543.5,-83 1355.5,-83 1355.5,0 1543.5,0 1543.5,-83"/>
<text text-anchor="middle" x="1449.5" y="-67.8" font-family="Times,serif" font-size="14.00">node #19</text>
<text text-anchor="middle" x="1449.5" y="-52.8" font-family="Times,serif" font-size="14.00">gini = 0.059</text>
<text text-anchor="middle" x="1449.5" y="-37.8" font-family="Times,serif" font-size="14.00">samples = 24</text>
<text text-anchor="middle" x="1449.5" y="-22.8" font-family="Times,serif" font-size="14.00">value = [31.376, 0.988]</text>
<text text-anchor="middle" x="1449.5" y="-7.8" font-family="Times,serif" font-size="14.00">class = Non&#45;obstructive</text>
</g>
<!-- 17&#45;&gt;19 -->
<g id="edge19" class="edge">
<title>17&#45;&gt;19</title>
<path fill="none" stroke="black" d="M1390,-118.87C1397.02,-109.85 1404.37,-100.43 1411.41,-91.39"/>
<polygon fill="black" stroke="black" points="1414.38,-93.27 1417.77,-83.23 1408.86,-88.97 1414.38,-93.27"/>
</g>
<!-- 21 -->
<g id="node22" class="node">
<title>21</title>
<polygon fill="none" stroke="black" points="1755.5,-83 1561.5,-83 1561.5,0 1755.5,0 1755.5,-83"/>
<text text-anchor="middle" x="1658.5" y="-67.8" font-family="Times,serif" font-size="14.00">node #21</text>
<text text-anchor="middle" x="1658.5" y="-52.8" font-family="Times,serif" font-size="14.00">gini = 0.496</text>
<text text-anchor="middle" x="1658.5" y="-37.8" font-family="Times,serif" font-size="14.00">samples = 26</text>
<text text-anchor="middle" x="1658.5" y="-22.8" font-family="Times,serif" font-size="14.00">value = [22.267, 18.775]</text>
<text text-anchor="middle" x="1658.5" y="-7.8" font-family="Times,serif" font-size="14.00">class = Non&#45;obstructive</text>
</g>
<!-- 20&#45;&gt;21 -->
<g id="edge21" class="edge">
<title>20&#45;&gt;21</title>
<path fill="none" stroke="black" d="M1658.5,-118.87C1658.5,-110.5 1658.5,-101.77 1658.5,-93.33"/>
<polygon fill="black" stroke="black" points="1662,-93.23 1658.5,-83.23 1655,-93.23 1662,-93.23"/>
</g>
<!-- 22 -->
<g id="node23" class="node">
<title>22</title>
<polygon fill="none" stroke="black" points="1967.5,-83 1773.5,-83 1773.5,0 1967.5,0 1967.5,-83"/>
<text text-anchor="middle" x="1870.5" y="-67.8" font-family="Times,serif" font-size="14.00">node #22</text>
<text text-anchor="middle" x="1870.5" y="-52.8" font-family="Times,serif" font-size="14.00">gini = 0.366</text>
<text text-anchor="middle" x="1870.5" y="-37.8" font-family="Times,serif" font-size="14.00">samples = 37</text>
<text text-anchor="middle" x="1870.5" y="-22.8" font-family="Times,serif" font-size="14.00">value = [13.158, 41.503]</text>
<text text-anchor="middle" x="1870.5" y="-7.8" font-family="Times,serif" font-size="14.00">class = Obstructive</text>
</g>
<!-- 20&#45;&gt;22 -->
<g id="edge22" class="edge">
<title>20&#45;&gt;22</title>
<path fill="none" stroke="black" d="M1740.46,-118.87C1757.63,-108.78 1775.68,-98.18 1792.69,-88.19"/>
<polygon fill="black" stroke="black" points="1794.63,-91.11 1801.48,-83.03 1791.09,-85.08 1794.63,-91.11"/>
</g>
</g>
</svg>
