<?xml version="1.0" encoding="UTF-8" standalone="no"?>
<!DOCTYPE svg PUBLIC "-//W3C//DTD SVG 1.1//EN"
 "http://www.w3.org/Graphics/SVG/1.1/DTD/svg11.dtd">
<!-- Generated by graphviz version 2.43.0 (0)
 -->
<!-- Title: Tree Pages: 1 -->
<svg width="2365pt" height="627pt"
 viewBox="0.00 0.00 2364.50 627.00" xmlns="http://www.w3.org/2000/svg" xmlns:xlink="http://www.w3.org/1999/xlink">
<g id="graph0" class="graph" transform="scale(1 1) rotate(0) translate(4 623)">
<title>Tree</title>
<polygon fill="white" stroke="transparent" points="-4,4 -4,-623 2360.5,-623 2360.5,4 -4,4"/>
<!-- 0 -->
<g id="node1" class="node">
<title>0</title>
<polygon fill="none" stroke="black" points="1389,-619 1201,-619 1201,-521 1389,-521 1389,-619"/>
<text text-anchor="middle" x="1295" y="-603.8" font-family="Times,serif" font-size="14.00">node #0</text>
<text text-anchor="middle" x="1295" y="-588.8" font-family="Times,serif" font-size="14.00">FEFPreVal &lt;= 1.145</text>
<text text-anchor="middle" x="1295" y="-573.8" font-family="Times,serif" font-size="14.00">gini = 0.5</text>
<text text-anchor="middle" x="1295" y="-558.8" font-family="Times,serif" font-size="14.00">samples = 211</text>
<text text-anchor="middle" x="1295" y="-543.8" font-family="Times,serif" font-size="14.00">value = [167.0, 167.0]</text>
<text text-anchor="middle" x="1295" y="-528.8" font-family="Times,serif" font-size="14.00">class = Non&#45;obstructive</text>
</g>
<!-- 1 -->
<g id="node2" class="node">
<title>1</title>
<polygon fill="none" stroke="black" points="1102.5,-485 899.5,-485 899.5,-387 1102.5,-387 1102.5,-485"/>
<text text-anchor="middle" x="1001" y="-469.8" font-family="Times,serif" font-size="14.00">node #1</text>
<text text-anchor="middle" x="1001" y="-454.8" font-family="Times,serif" font-size="14.00">FEFPrePercent &lt;= 34.5</text>
<text text-anchor="middle" x="1001" y="-439.8" font-family="Times,serif" font-size="14.00">gini = 0.243</text>
<text text-anchor="middle" x="1001" y="-424.8" font-family="Times,serif" font-size="14.00">samples = 73</text>
<text text-anchor="middle" x="1001" y="-409.8" font-family="Times,serif" font-size="14.00">value = [16.899, 102.614]</text>
<text text-anchor="middle" x="1001" y="-394.8" font-family="Times,serif" font-size="14.00">class = Obstructive</text>
</g>
<!-- 0&#45;&gt;1 -->
<g id="edge1" class="edge">
<title>0&#45;&gt;1</title>
<path fill="none" stroke="black" d="M1200.76,-526.69C1172.5,-514 1141.23,-499.96 1111.99,-486.83"/>
<polygon fill="black" stroke="black" points="1113.13,-483.51 1102.58,-482.61 1110.27,-489.89 1113.13,-483.51"/>
<text text-anchor="middle" x="1111.46" y="-502.27" font-family="Times,serif" font-size="14.00">True</text>
</g>
<!-- 14 -->
<g id="node15" class="node">
<title>14</title>
<polygon fill="none" stroke="black" points="1553.5,-485 1350.5,-485 1350.5,-387 1553.5,-387 1553.5,-485"/>
<text text-anchor="middle" x="1452" y="-469.8" font-family="Times,serif" font-size="14.00">node #14</text>
<text text-anchor="middle" x="1452" y="-454.8" font-family="Times,serif" font-size="14.00">FVCPostVal &lt;= 2.165</text>
<text text-anchor="middle" x="1452" y="-439.8" font-family="Times,serif" font-size="14.00">gini = 0.42</text>
<text text-anchor="middle" x="1452" y="-424.8" font-family="Times,serif" font-size="14.00">samples = 138</text>
<text text-anchor="middle" x="1452" y="-409.8" font-family="Times,serif" font-size="14.00">value = [150.101, 64.386]</text>
<text text-anchor="middle" x="1452" y="-394.8" font-family="Times,serif" font-size="14.00">class = Non&#45;obstructive</text>
</g>
<!-- 0&#45;&gt;14 -->
<g id="edge14" class="edge">
<title>0&#45;&gt;14</title>
<path fill="none" stroke="black" d="M1352.12,-520.97C1363.38,-511.51 1375.27,-501.51 1386.77,-491.84"/>
<polygon fill="black" stroke="black" points="1389.25,-494.33 1394.65,-485.21 1384.75,-488.97 1389.25,-494.33"/>
<text text-anchor="middle" x="1392.5" y="-506.42" font-family="Times,serif" font-size="14.00">False</text>
</g>
<!-- 2 -->
<g id="node3" class="node">
<title>2</title>
<polygon fill="none" stroke="black" points="707.5,-351 510.5,-351 510.5,-253 707.5,-253 707.5,-351"/>
<text text-anchor="middle" x="609" y="-335.8" font-family="Times,serif" font-size="14.00">node #2</text>
<text text-anchor="middle" x="609" y="-320.8" font-family="Times,serif" font-size="14.00">FVCPostPercent &lt;= 38.0</text>
<text text-anchor="middle" x="609" y="-305.8" font-family="Times,serif" font-size="14.00">gini = 0.122</text>
<text text-anchor="middle" x="609" y="-290.8" font-family="Times,serif" font-size="14.00">samples = 66</text>
<text text-anchor="middle" x="609" y="-275.8" font-family="Times,serif" font-size="14.00">value = [6.958, 99.596]</text>
<text text-anchor="middle" x="609" y="-260.8" font-family="Times,serif" font-size="14.00">class = Obstructive</text>
</g>
<!-- 1&#45;&gt;2 -->
<g id="edge2" class="edge">
<title>1&#45;&gt;2</title>
<path fill="none" stroke="black" d="M899.29,-400.75C843.42,-381.94 774.14,-358.61 717.28,-339.46"/>
<polygon fill="black" stroke="black" points="718.13,-336.06 707.54,-336.18 715.9,-342.69 718.13,-336.06"/>
</g>
<!-- 9 -->
<g id="node10" class="node">
<title>9</title>
<polygon fill="none" stroke="black" points="1095,-351 907,-351 907,-253 1095,-253 1095,-351"/>
<text text-anchor="middle" x="1001" y="-335.8" font-family="Times,serif" font-size="14.00">node #9</text>
<text text-anchor="middle" x="1001" y="-320.8" font-family="Times,serif" font-size="14.00">FEV1PreVal &lt;= 1.46</text>
<text text-anchor="middle" x="1001" y="-305.8" font-family="Times,serif" font-size="14.00">gini = 0.357</text>
<text text-anchor="middle" x="1001" y="-290.8" font-family="Times,serif" font-size="14.00">samples = 7</text>
<text text-anchor="middle" x="1001" y="-275.8" font-family="Times,serif" font-size="14.00">value = [9.94, 3.018]</text>
<text text-anchor="middle" x="1001" y="-260.8" font-family="Times,serif" font-size="14.00">class = Non&#45;obstructive</text>
</g>
<!-- 1&#45;&gt;9 -->
<g id="edge9" class="edge">
<title>1&#45;&gt;9</title>
<path fill="none" stroke="black" d="M1001,-386.97C1001,-378.69 1001,-370 1001,-361.48"/>
<polygon fill="black" stroke="black" points="1004.5,-361.21 1001,-351.21 997.5,-361.21 1004.5,-361.21"/>
</g>
<!-- 3 -->
<g id="node4" class="node">
<title>3</title>
<polygon fill="none" stroke="black" points="370,-217 170,-217 170,-119 370,-119 370,-217"/>
<text text-anchor="middle" x="270" y="-201.8" font-family="Times,serif" font-size="14.00">node #3</text>
<text text-anchor="middle" x="270" y="-186.8" font-family="Times,serif" font-size="14.00">FEV1PrePercent &lt;= 19.0</text>
<text text-anchor="middle" x="270" y="-171.8" font-family="Times,serif" font-size="14.00">gini = 0.446</text>
<text text-anchor="middle" x="270" y="-156.8" font-family="Times,serif" font-size="14.00">samples = 3</text>
<text text-anchor="middle" x="270" y="-141.8" font-family="Times,serif" font-size="14.00">value = [1.988, 1.006]</text>
<text text-anchor="middle" x="270" y="-126.8" font-family="Times,serif" font-size="14.00">class = Non&#45;obstructive</text>
</g>
<!-- 2&#45;&gt;3 -->
<g id="edge3" class="edge">
<title>2&#45;&gt;3</title>
<path fill="none" stroke="black" d="M510.49,-262.64C469.51,-246.68 421.77,-228.1 379.67,-211.7"/>
<polygon fill="black" stroke="black" points="380.81,-208.39 370.22,-208.03 378.27,-214.92 380.81,-208.39"/>
</g>
<!-- 6 -->
<g id="node7" class="node">
<title>6</title>
<polygon fill="none" stroke="black" points="709,-217 509,-217 509,-119 709,-119 709,-217"/>
<text text-anchor="middle" x="609" y="-201.8" font-family="Times,serif" font-size="14.00">node #6</text>
<text text-anchor="middle" x="609" y="-186.8" font-family="Times,serif" font-size="14.00">FEV1PrePercent &lt;= 40.5</text>
<text text-anchor="middle" x="609" y="-171.8" font-family="Times,serif" font-size="14.00">gini = 0.091</text>
<text text-anchor="middle" x="609" y="-156.8" font-family="Times,serif" font-size="14.00">samples = 63</text>
<text text-anchor="middle" x="609" y="-141.8" font-family="Times,serif" font-size="14.00">value = [4.97, 98.59]</text>
<text text-anchor="middle" x="609" y="-126.8" font-family="Times,serif" font-size="14.00">class = Obstructive</text>
</g>
<!-- 2&#45;&gt;6 -->
<g id="edge6" class="edge">
<title>2&#45;&gt;6</title>
<path fill="none" stroke="black" d="M609,-252.97C609,-244.69 609,-236 609,-227.48"/>
<polygon fill="black" stroke="black" points="612.5,-227.21 609,-217.21 605.5,-227.21 612.5,-227.21"/>
</g>
<!-- 4 -->
<g id="node5" class="node">
<title>4</title>
<polygon fill="none" stroke="black" points="158,-83 0,-83 0,0 158,0 158,-83"/>
<text text-anchor="middle" x="79" y="-67.8" font-family="Times,serif" font-size="14.00">node #4</text>
<text text-anchor="middle" x="79" y="-52.8" font-family="Times,serif" font-size="14.00">gini = 0.0</text>
<text text-anchor="middle" x="79" y="-37.8" font-family="Times,serif" font-size="14.00">samples = 1</text>
<text text-anchor="middle" x="79" y="-22.8" font-family="Times,serif" font-size="14.00">value = [0.0, 1.006]</text>
<text text-anchor="middle" x="79" y="-7.8" font-family="Times,serif" font-size="14.00">class = Obstructive</text>
</g>
<!-- 3&#45;&gt;4 -->
<g id="edge4" class="edge">
<title>3&#45;&gt;4</title>
<path fill="none" stroke="black" d="M196.15,-118.87C180.97,-108.97 165.02,-98.57 149.95,-88.74"/>
<polygon fill="black" stroke="black" points="151.47,-85.56 141.18,-83.03 147.65,-91.43 151.47,-85.56"/>
</g>
<!-- 5 -->
<g id="node6" class="node">
<title>5</title>
<polygon fill="none" stroke="black" points="364,-83 176,-83 176,0 364,0 364,-83"/>
<text text-anchor="middle" x="270" y="-67.8" font-family="Times,serif" font-size="14.00">node #5</text>
<text text-anchor="middle" x="270" y="-52.8" font-family="Times,serif" font-size="14.00">gini = 0.0</text>
<text text-anchor="middle" x="270" y="-37.8" font-family="Times,serif" font-size="14.00">samples = 2</text>
<text text-anchor="middle" x="270" y="-22.8" font-family="Times,serif" font-size="14.00">value = [1.988, 0.0]</text>
<text text-anchor="middle" x="270" y="-7.8" font-family="Times,serif" font-size="14.00">class = Non&#45;obstructive</text>
</g>
<!-- 3&#45;&gt;5 -->
<g id="edge5" class="edge">
<title>3&#45;&gt;5</title>
<path fill="none" stroke="black" d="M270,-118.87C270,-110.5 270,-101.77 270,-93.33"/>
<polygon fill="black" stroke="black" points="273.5,-93.23 270,-83.23 266.5,-93.23 273.5,-93.23"/>
</g>
<!-- 7 -->
<g id="node8" class="node">
<title>7</title>
<polygon fill="none" stroke="black" points="549.5,-83 382.5,-83 382.5,0 549.5,0 549.5,-83"/>
<text text-anchor="middle" x="466" y="-67.8" font-family="Times,serif" font-size="14.00">node #7</text>
<text text-anchor="middle" x="466" y="-52.8" font-family="Times,serif" font-size="14.00">gini = &#45;0.0</text>
<text text-anchor="middle" x="466" y="-37.8" font-family="Times,serif" font-size="14.00">samples = 32</text>
<text text-anchor="middle" x="466" y="-22.8" font-family="Times,serif" font-size="14.00">value = [0.0, 54.325]</text>
<text text-anchor="middle" x="466" y="-7.8" font-family="Times,serif" font-size="14.00">class = Obstructive</text>
</g>
<!-- 6&#45;&gt;7 -->
<g id="edge7" class="edge">
<title>6&#45;&gt;7</title>
<path fill="none" stroke="black" d="M553.71,-118.87C542.83,-109.39 531.43,-99.46 520.57,-90.01"/>
<polygon fill="black" stroke="black" points="522.62,-87.16 512.78,-83.23 518.03,-92.44 522.62,-87.16"/>
</g>
<!-- 8 -->
<g id="node9" class="node">
<title>8</title>
<polygon fill="none" stroke="black" points="743,-83 567,-83 567,0 743,0 743,-83"/>
<text text-anchor="middle" x="655" y="-67.8" font-family="Times,serif" font-size="14.00">node #8</text>
<text text-anchor="middle" x="655" y="-52.8" font-family="Times,serif" font-size="14.00">gini = 0.182</text>
<text text-anchor="middle" x="655" y="-37.8" font-family="Times,serif" font-size="14.00">samples = 31</text>
<text text-anchor="middle" x="655" y="-22.8" font-family="Times,serif" font-size="14.00">value = [4.97, 44.265]</text>
<text text-anchor="middle" x="655" y="-7.8" font-family="Times,serif" font-size="14.00">class = Obstructive</text>
</g>
<!-- 6&#45;&gt;8 -->
<g id="edge8" class="edge">
<title>6&#45;&gt;8</title>
<path fill="none" stroke="black" d="M626.78,-118.87C629.94,-110.31 633.24,-101.39 636.42,-92.78"/>
<polygon fill="black" stroke="black" points="639.77,-93.82 639.95,-83.23 633.2,-91.4 639.77,-93.82"/>
</g>
<!-- 10 -->
<g id="node11" class="node">
<title>10</title>
<polygon fill="none" stroke="black" points="992,-217 804,-217 804,-119 992,-119 992,-217"/>
<text text-anchor="middle" x="898" y="-201.8" font-family="Times,serif" font-size="14.00">node #10</text>
<text text-anchor="middle" x="898" y="-186.8" font-family="Times,serif" font-size="14.00">FVCPostVal &lt;= 1.22</text>
<text text-anchor="middle" x="898" y="-171.8" font-family="Times,serif" font-size="14.00">gini = 0.491</text>
<text text-anchor="middle" x="898" y="-156.8" font-family="Times,serif" font-size="14.00">samples = 4</text>
<text text-anchor="middle" x="898" y="-141.8" font-family="Times,serif" font-size="14.00">value = [3.976, 3.018]</text>
<text text-anchor="middle" x="898" y="-126.8" font-family="Times,serif" font-size="14.00">class = Non&#45;obstructive</text>
</g>
<!-- 9&#45;&gt;10 -->
<g id="edge10" class="edge">
<title>9&#45;&gt;10</title>
<path fill="none" stroke="black" d="M963.52,-252.97C956.49,-243.96 949.09,-234.47 941.88,-225.24"/>
<polygon fill="black" stroke="black" points="944.53,-222.94 935.62,-217.21 939.01,-227.25 944.53,-222.94"/>
</g>
<!-- 13 -->
<g id="node14" class="node">
<title>13</title>
<polygon fill="none" stroke="black" points="1198,-209.5 1010,-209.5 1010,-126.5 1198,-126.5 1198,-209.5"/>
<text text-anchor="middle" x="1104" y="-194.3" font-family="Times,serif" font-size="14.00">node #13</text>
<text text-anchor="middle" x="1104" y="-179.3" font-family="Times,serif" font-size="14.00">gini = &#45;0.0</text>
<text text-anchor="middle" x="1104" y="-164.3" font-family="Times,serif" font-size="14.00">samples = 3</text>
<text text-anchor="middle" x="1104" y="-149.3" font-family="Times,serif" font-size="14.00">value = [5.964, 0.0]</text>
<text text-anchor="middle" x="1104" y="-134.3" font-family="Times,serif" font-size="14.00">class = Non&#45;obstructive</text>
</g>
<!-- 9&#45;&gt;13 -->
<g id="edge13" class="edge">
<title>9&#45;&gt;13</title>
<path fill="none" stroke="black" d="M1038.48,-252.97C1047.36,-241.58 1056.85,-229.42 1065.77,-217.99"/>
<polygon fill="black" stroke="black" points="1068.76,-219.85 1072.15,-209.82 1063.24,-215.55 1068.76,-219.85"/>
</g>
<!-- 11 -->
<g id="node12" class="node">
<title>11</title>
<polygon fill="none" stroke="black" points="949,-83 761,-83 761,0 949,0 949,-83"/>
<text text-anchor="middle" x="855" y="-67.8" font-family="Times,serif" font-size="14.00">node #11</text>
<text text-anchor="middle" x="855" y="-52.8" font-family="Times,serif" font-size="14.00">gini = 0.0</text>
<text text-anchor="middle" x="855" y="-37.8" font-family="Times,serif" font-size="14.00">samples = 1</text>
<text text-anchor="middle" x="855" y="-22.8" font-family="Times,serif" font-size="14.00">value = [3.976, 0.0]</text>
<text text-anchor="middle" x="855" y="-7.8" font-family="Times,serif" font-size="14.00">class = Non&#45;obstructive</text>
</g>
<!-- 10&#45;&gt;11 -->
<g id="edge11" class="edge">
<title>10&#45;&gt;11</title>
<path fill="none" stroke="black" d="M881.38,-118.87C878.42,-110.31 875.34,-101.39 872.37,-92.78"/>
<polygon fill="black" stroke="black" points="875.64,-91.54 869.07,-83.23 869.02,-93.83 875.64,-91.54"/>
</g>
<!-- 12 -->
<g id="node13" class="node">
<title>12</title>
<polygon fill="none" stroke="black" points="1125,-83 967,-83 967,0 1125,0 1125,-83"/>
<text text-anchor="middle" x="1046" y="-67.8" font-family="Times,serif" font-size="14.00">node #12</text>
<text text-anchor="middle" x="1046" y="-52.8" font-family="Times,serif" font-size="14.00">gini = 0.0</text>
<text text-anchor="middle" x="1046" y="-37.8" font-family="Times,serif" font-size="14.00">samples = 3</text>
<text text-anchor="middle" x="1046" y="-22.8" font-family="Times,serif" font-size="14.00">value = [0.0, 3.018]</text>
<text text-anchor="middle" x="1046" y="-7.8" font-family="Times,serif" font-size="14.00">class = Obstructive</text>
</g>
<!-- 10&#45;&gt;12 -->
<g id="edge12" class="edge">
<title>10&#45;&gt;12</title>
<path fill="none" stroke="black" d="M955.22,-118.87C966.59,-109.3 978.51,-99.27 989.84,-89.74"/>
<polygon fill="black" stroke="black" points="992.18,-92.35 997.58,-83.23 987.68,-86.99 992.18,-92.35"/>
</g>
<!-- 15 -->
<g id="node16" class="node">
<title>15</title>
<polygon fill="none" stroke="black" points="1549,-351 1355,-351 1355,-253 1549,-253 1549,-351"/>
<text text-anchor="middle" x="1452" y="-335.8" font-family="Times,serif" font-size="14.00">node #15</text>
<text text-anchor="middle" x="1452" y="-320.8" font-family="Times,serif" font-size="14.00">FEV1PostVal &lt;= 1.93</text>
<text text-anchor="middle" x="1452" y="-305.8" font-family="Times,serif" font-size="14.00">gini = 0.105</text>
<text text-anchor="middle" x="1452" y="-290.8" font-family="Times,serif" font-size="14.00">samples = 68</text>
<text text-anchor="middle" x="1452" y="-275.8" font-family="Times,serif" font-size="14.00">value = [102.387, 6.036]</text>
<text text-anchor="middle" x="1452" y="-260.8" font-family="Times,serif" font-size="14.00">class = Non&#45;obstructive</text>
</g>
<!-- 14&#45;&gt;15 -->
<g id="edge15" class="edge">
<title>14&#45;&gt;15</title>
<path fill="none" stroke="black" d="M1452,-386.97C1452,-378.69 1452,-370 1452,-361.48"/>
<polygon fill="black" stroke="black" points="1455.5,-361.21 1452,-351.21 1448.5,-361.21 1455.5,-361.21"/>
</g>
<!-- 20 -->
<g id="node21" class="node">
<title>20</title>
<polygon fill="none" stroke="black" points="1893,-351 1699,-351 1699,-253 1893,-253 1893,-351"/>
<text text-anchor="middle" x="1796" y="-335.8" font-family="Times,serif" font-size="14.00">node #20</text>
<text text-anchor="middle" x="1796" y="-320.8" font-family="Times,serif" font-size="14.00">FEV1PostVal &lt;= 2.125</text>
<text text-anchor="middle" x="1796" y="-305.8" font-family="Times,serif" font-size="14.00">gini = 0.495</text>
<text text-anchor="middle" x="1796" y="-290.8" font-family="Times,serif" font-size="14.00">samples = 70</text>
<text text-anchor="middle" x="1796" y="-275.8" font-family="Times,serif" font-size="14.00">value = [47.714, 58.349]</text>
<text text-anchor="middle" x="1796" y="-260.8" font-family="Times,serif" font-size="14.00">class = Obstructive</text>
</g>
<!-- 14&#45;&gt;20 -->
<g id="edge20" class="edge">
<title>14&#45;&gt;20</title>
<path fill="none" stroke="black" d="M1553.82,-395.93C1596.54,-379.54 1646.25,-360.46 1689.47,-343.88"/>
<polygon fill="black" stroke="black" points="1690.79,-347.12 1698.87,-340.27 1688.28,-340.58 1690.79,-347.12"/>
</g>
<!-- 16 -->
<g id="node17" class="node">
<title>16</title>
<polygon fill="none" stroke="black" points="1451.5,-217 1260.5,-217 1260.5,-119 1451.5,-119 1451.5,-217"/>
<text text-anchor="middle" x="1356" y="-201.8" font-family="Times,serif" font-size="14.00">node #16</text>
<text text-anchor="middle" x="1356" y="-186.8" font-family="Times,serif" font-size="14.00">FEFPrePercent &lt;= 61.5</text>
<text text-anchor="middle" x="1356" y="-171.8" font-family="Times,serif" font-size="14.00">gini = 0.089</text>
<text text-anchor="middle" x="1356" y="-156.8" font-family="Times,serif" font-size="14.00">samples = 67</text>
<text text-anchor="middle" x="1356" y="-141.8" font-family="Times,serif" font-size="14.00">value = [102.387, 5.03]</text>
<text text-anchor="middle" x="1356" y="-126.8" font-family="Times,serif" font-size="14.00">class = Non&#45;obstructive</text>
</g>
<!-- 15&#45;&gt;16 -->
<g id="edge16" class="edge">
<title>15&#45;&gt;16</title>
<path fill="none" stroke="black" d="M1417.07,-252.97C1410.58,-244.05 1403.76,-234.66 1397.11,-225.52"/>
<polygon fill="black" stroke="black" points="1399.78,-223.24 1391.06,-217.21 1394.12,-227.36 1399.78,-223.24"/>
</g>
<!-- 19 -->
<g id="node20" class="node">
<title>19</title>
<polygon fill="none" stroke="black" points="1628,-209.5 1470,-209.5 1470,-126.5 1628,-126.5 1628,-209.5"/>
<text text-anchor="middle" x="1549" y="-194.3" font-family="Times,serif" font-size="14.00">node #19</text>
<text text-anchor="middle" x="1549" y="-179.3" font-family="Times,serif" font-size="14.00">gini = 0.0</text>
<text text-anchor="middle" x="1549" y="-164.3" font-family="Times,serif" font-size="14.00">samples = 1</text>
<text text-anchor="middle" x="1549" y="-149.3" font-family="Times,serif" font-size="14.00">value = [0.0, 1.006]</text>
<text text-anchor="middle" x="1549" y="-134.3" font-family="Times,serif" font-size="14.00">class = Obstructive</text>
</g>
<!-- 15&#45;&gt;19 -->
<g id="edge19" class="edge">
<title>15&#45;&gt;19</title>
<path fill="none" stroke="black" d="M1487.29,-252.97C1495.66,-241.58 1504.6,-229.42 1513,-217.99"/>
<polygon fill="black" stroke="black" points="1515.9,-219.95 1519.01,-209.82 1510.26,-215.8 1515.9,-219.95"/>
</g>
<!-- 17 -->
<g id="node18" class="node">
<title>17</title>
<polygon fill="none" stroke="black" points="1331,-83 1143,-83 1143,0 1331,0 1331,-83"/>
<text text-anchor="middle" x="1237" y="-67.8" font-family="Times,serif" font-size="14.00">node #17</text>
<text text-anchor="middle" x="1237" y="-52.8" font-family="Times,serif" font-size="14.00">gini = 0.273</text>
<text text-anchor="middle" x="1237" y="-37.8" font-family="Times,serif" font-size="14.00">samples = 19</text>
<text text-anchor="middle" x="1237" y="-22.8" font-family="Times,serif" font-size="14.00">value = [25.845, 5.03]</text>
<text text-anchor="middle" x="1237" y="-7.8" font-family="Times,serif" font-size="14.00">class = Non&#45;obstructive</text>
</g>
<!-- 16&#45;&gt;17 -->
<g id="edge17" class="edge">
<title>16&#45;&gt;17</title>
<path fill="none" stroke="black" d="M1309.99,-118.87C1301.12,-109.58 1291.82,-99.85 1282.94,-90.56"/>
<polygon fill="black" stroke="black" points="1285.37,-88.04 1275.93,-83.23 1280.31,-92.88 1285.37,-88.04"/>
</g>
<!-- 18 -->
<g id="node19" class="node">
<title>18</title>
<polygon fill="none" stroke="black" points="1537,-83 1349,-83 1349,0 1537,0 1537,-83"/>
<text text-anchor="middle" x="1443" y="-67.8" font-family="Times,serif" font-size="14.00">node #18</text>
<text text-anchor="middle" x="1443" y="-52.8" font-family="Times,serif" font-size="14.00">gini = 0.0</text>
<text text-anchor="middle" x="1443" y="-37.8" font-family="Times,serif" font-size="14.00">samples = 48</text>
<text text-anchor="middle" x="1443" y="-22.8" font-family="Times,serif" font-size="14.00">value = [76.542, 0.0]</text>
<text text-anchor="middle" x="1443" y="-7.8" font-family="Times,serif" font-size="14.00">class = Non&#45;obstructive</text>
</g>
<!-- 16&#45;&gt;18 -->
<g id="edge18" class="edge">
<title>16&#45;&gt;18</title>
<path fill="none" stroke="black" d="M1389.64,-118.87C1395.87,-109.95 1402.39,-100.62 1408.64,-91.67"/>
<polygon fill="black" stroke="black" points="1411.68,-93.43 1414.54,-83.23 1405.94,-89.42 1411.68,-93.43"/>
</g>
<!-- 21 -->
<g id="node22" class="node">
<title>21</title>
<polygon fill="none" stroke="black" points="1888.5,-217 1703.5,-217 1703.5,-119 1888.5,-119 1888.5,-217"/>
<text text-anchor="middle" x="1796" y="-201.8" font-family="Times,serif" font-size="14.00">node #21</text>
<text text-anchor="middle" x="1796" y="-186.8" font-family="Times,serif" font-size="14.00">FEV1PostVal &lt;= 1.805</text>
<text text-anchor="middle" x="1796" y="-171.8" font-family="Times,serif" font-size="14.00">gini = 0.295</text>
<text text-anchor="middle" x="1796" y="-156.8" font-family="Times,serif" font-size="14.00">samples = 21</text>
<text text-anchor="middle" x="1796" y="-141.8" font-family="Times,serif" font-size="14.00">value = [5.964, 27.163]</text>
<text text-anchor="middle" x="1796" y="-126.8" font-family="Times,serif" font-size="14.00">class = Obstructive</text>
</g>
<!-- 20&#45;&gt;21 -->
<g id="edge21" class="edge">
<title>20&#45;&gt;21</title>
<path fill="none" stroke="black" d="M1796,-252.97C1796,-244.69 1796,-236 1796,-227.48"/>
<polygon fill="black" stroke="black" points="1799.5,-227.21 1796,-217.21 1792.5,-227.21 1799.5,-227.21"/>
</g>
<!-- 24 -->
<g id="node25" class="node">
<title>24</title>
<polygon fill="none" stroke="black" points="2153,-217 1965,-217 1965,-119 2153,-119 2153,-217"/>
<text text-anchor="middle" x="2059" y="-201.8" font-family="Times,serif" font-size="14.00">node #24</text>
<text text-anchor="middle" x="2059" y="-186.8" font-family="Times,serif" font-size="14.00">FVCPostVal &lt;= 3.335</text>
<text text-anchor="middle" x="2059" y="-171.8" font-family="Times,serif" font-size="14.00">gini = 0.49</text>
<text text-anchor="middle" x="2059" y="-156.8" font-family="Times,serif" font-size="14.00">samples = 49</text>
<text text-anchor="middle" x="2059" y="-141.8" font-family="Times,serif" font-size="14.00">value = [41.75, 31.187]</text>
<text text-anchor="middle" x="2059" y="-126.8" font-family="Times,serif" font-size="14.00">class = Non&#45;obstructive</text>
</g>
<!-- 20&#45;&gt;24 -->
<g id="edge24" class="edge">
<title>20&#45;&gt;24</title>
<path fill="none" stroke="black" d="M1891.69,-252.97C1912.51,-242.52 1934.63,-231.42 1955.73,-220.83"/>
<polygon fill="black" stroke="black" points="1957.33,-223.94 1964.7,-216.33 1954.19,-217.69 1957.33,-223.94"/>
</g>
<!-- 22 -->
<g id="node23" class="node">
<title>22</title>
<polygon fill="none" stroke="black" points="1743,-83 1555,-83 1555,0 1743,0 1743,-83"/>
<text text-anchor="middle" x="1649" y="-67.8" font-family="Times,serif" font-size="14.00">node #22</text>
<text text-anchor="middle" x="1649" y="-52.8" font-family="Times,serif" font-size="14.00">gini = 0.481</text>
<text text-anchor="middle" x="1649" y="-37.8" font-family="Times,serif" font-size="14.00">samples = 4</text>
<text text-anchor="middle" x="1649" y="-22.8" font-family="Times,serif" font-size="14.00">value = [2.982, 2.012]</text>
<text text-anchor="middle" x="1649" y="-7.8" font-family="Times,serif" font-size="14.00">class = Non&#45;obstructive</text>
</g>
<!-- 21&#45;&gt;22 -->
<g id="edge22" class="edge">
<title>21&#45;&gt;22</title>
<path fill="none" stroke="black" d="M1739.17,-118.87C1727.88,-109.3 1716.03,-99.27 1704.78,-89.74"/>
<polygon fill="black" stroke="black" points="1706.98,-87.02 1697.09,-83.23 1702.46,-92.36 1706.98,-87.02"/>
</g>
<!-- 23 -->
<g id="node24" class="node">
<title>23</title>
<polygon fill="none" stroke="black" points="1946.5,-83 1761.5,-83 1761.5,0 1946.5,0 1946.5,-83"/>
<text text-anchor="middle" x="1854" y="-67.8" font-family="Times,serif" font-size="14.00">node #23</text>
<text text-anchor="middle" x="1854" y="-52.8" font-family="Times,serif" font-size="14.00">gini = 0.19</text>
<text text-anchor="middle" x="1854" y="-37.8" font-family="Times,serif" font-size="14.00">samples = 17</text>
<text text-anchor="middle" x="1854" y="-22.8" font-family="Times,serif" font-size="14.00">value = [2.982, 25.151]</text>
<text text-anchor="middle" x="1854" y="-7.8" font-family="Times,serif" font-size="14.00">class = Obstructive</text>
</g>
<!-- 21&#45;&gt;23 -->
<g id="edge23" class="edge">
<title>21&#45;&gt;23</title>
<path fill="none" stroke="black" d="M1818.42,-118.87C1822.45,-110.22 1826.66,-101.2 1830.71,-92.5"/>
<polygon fill="black" stroke="black" points="1833.97,-93.77 1835.02,-83.23 1827.63,-90.82 1833.97,-93.77"/>
</g>
<!-- 25 -->
<g id="node26" class="node">
<title>25</title>
<polygon fill="none" stroke="black" points="2153,-83 1965,-83 1965,0 2153,0 2153,-83"/>
<text text-anchor="middle" x="2059" y="-67.8" font-family="Times,serif" font-size="14.00">node #25</text>
<text text-anchor="middle" x="2059" y="-52.8" font-family="Times,serif" font-size="14.00">gini = 0.327</text>
<text text-anchor="middle" x="2059" y="-37.8" font-family="Times,serif" font-size="14.00">samples = 31</text>
<text text-anchor="middle" x="2059" y="-22.8" font-family="Times,serif" font-size="14.00">value = [38.768, 10.06]</text>
<text text-anchor="middle" x="2059" y="-7.8" font-family="Times,serif" font-size="14.00">class = Non&#45;obstructive</text>
</g>
<!-- 24&#45;&gt;25 -->
<g id="edge25" class="edge">
<title>24&#45;&gt;25</title>
<path fill="none" stroke="black" d="M2059,-118.87C2059,-110.5 2059,-101.77 2059,-93.33"/>
<polygon fill="black" stroke="black" points="2062.5,-93.23 2059,-83.23 2055.5,-93.23 2062.5,-93.23"/>
</g>
<!-- 26 -->
<g id="node27" class="node">
<title>26</title>
<polygon fill="none" stroke="black" points="2356.5,-83 2171.5,-83 2171.5,0 2356.5,0 2356.5,-83"/>
<text text-anchor="middle" x="2264" y="-67.8" font-family="Times,serif" font-size="14.00">node #26</text>
<text text-anchor="middle" x="2264" y="-52.8" font-family="Times,serif" font-size="14.00">gini = 0.217</text>
<text text-anchor="middle" x="2264" y="-37.8" font-family="Times,serif" font-size="14.00">samples = 18</text>
<text text-anchor="middle" x="2264" y="-22.8" font-family="Times,serif" font-size="14.00">value = [2.982, 21.127]</text>
<text text-anchor="middle" x="2264" y="-7.8" font-family="Times,serif" font-size="14.00">class = Obstructive</text>
</g>
<!-- 24&#45;&gt;26 -->
<g id="edge26" class="edge">
<title>24&#45;&gt;26</title>
<path fill="none" stroke="black" d="M2138.26,-118.87C2154.7,-108.88 2171.99,-98.38 2188.31,-88.47"/>
<polygon fill="black" stroke="black" points="2190.53,-91.21 2197.26,-83.03 2186.9,-85.23 2190.53,-91.21"/>
</g>
</g>
</svg>
