<?xml version="1.0" encoding="UTF-8" standalone="no"?>
<!DOCTYPE svg PUBLIC "-//W3C//DTD SVG 1.1//EN"
 "http://www.w3.org/Graphics/SVG/1.1/DTD/svg11.dtd">
<!-- Generated by graphviz version 2.43.0 (0)
 -->
<!-- Title: Tree Pages: 1 -->
<svg width="2392pt" height="627pt"
 viewBox="0.00 0.00 2391.50 627.00" xmlns="http://www.w3.org/2000/svg" xmlns:xlink="http://www.w3.org/1999/xlink">
<g id="graph0" class="graph" transform="scale(1 1) rotate(0) translate(4 623)">
<title>Tree</title>
<polygon fill="white" stroke="transparent" points="-4,4 -4,-623 2387.5,-623 2387.5,4 -4,4"/>
<!-- 0 -->
<g id="node1" class="node">
<title>0</title>
<polygon fill="none" stroke="black" points="878,-619 690,-619 690,-521 878,-521 878,-619"/>
<text text-anchor="middle" x="784" y="-603.8" font-family="Times,serif" font-size="14.00">node #0</text>
<text text-anchor="middle" x="784" y="-588.8" font-family="Times,serif" font-size="14.00">FEFPostVal &lt;= 1.145</text>
<text text-anchor="middle" x="784" y="-573.8" font-family="Times,serif" font-size="14.00">gini = 0.5</text>
<text text-anchor="middle" x="784" y="-558.8" font-family="Times,serif" font-size="14.00">samples = 208</text>
<text text-anchor="middle" x="784" y="-543.8" font-family="Times,serif" font-size="14.00">value = [167.0, 167.0]</text>
<text text-anchor="middle" x="784" y="-528.8" font-family="Times,serif" font-size="14.00">class = Non&#45;obstructive</text>
</g>
<!-- 1 -->
<g id="node2" class="node">
<title>1</title>
<polygon fill="none" stroke="black" points="683,-485 489,-485 489,-387 683,-387 683,-485"/>
<text text-anchor="middle" x="586" y="-469.8" font-family="Times,serif" font-size="14.00">node #1</text>
<text text-anchor="middle" x="586" y="-454.8" font-family="Times,serif" font-size="14.00">FVCPostVal &lt;= 0.935</text>
<text text-anchor="middle" x="586" y="-439.8" font-family="Times,serif" font-size="14.00">gini = 0.212</text>
<text text-anchor="middle" x="586" y="-424.8" font-family="Times,serif" font-size="14.00">samples = 67</text>
<text text-anchor="middle" x="586" y="-409.8" font-family="Times,serif" font-size="14.00">value = [12.007, 87.652]</text>
<text text-anchor="middle" x="586" y="-394.8" font-family="Times,serif" font-size="14.00">class = Obstructive</text>
</g>
<!-- 0&#45;&gt;1 -->
<g id="edge1" class="edge">
<title>0&#45;&gt;1</title>
<path fill="none" stroke="black" d="M711.96,-520.97C697.35,-511.24 681.9,-500.93 667.01,-491.01"/>
<polygon fill="black" stroke="black" points="668.58,-487.85 658.32,-485.21 664.7,-493.67 668.58,-487.85"/>
<text text-anchor="middle" x="663.22" y="-506.03" font-family="Times,serif" font-size="14.00">True</text>
</g>
<!-- 10 -->
<g id="node11" class="node">
<title>10</title>
<polygon fill="none" stroke="black" points="1285.5,-485 1070.5,-485 1070.5,-387 1285.5,-387 1285.5,-485"/>
<text text-anchor="middle" x="1178" y="-469.8" font-family="Times,serif" font-size="14.00">node #10</text>
<text text-anchor="middle" x="1178" y="-454.8" font-family="Times,serif" font-size="14.00">FVCPostPercent &lt;= 68.992</text>
<text text-anchor="middle" x="1178" y="-439.8" font-family="Times,serif" font-size="14.00">gini = 0.448</text>
<text text-anchor="middle" x="1178" y="-424.8" font-family="Times,serif" font-size="14.00">samples = 141</text>
<text text-anchor="middle" x="1178" y="-409.8" font-family="Times,serif" font-size="14.00">value = [154.993, 79.348]</text>
<text text-anchor="middle" x="1178" y="-394.8" font-family="Times,serif" font-size="14.00">class = Non&#45;obstructive</text>
</g>
<!-- 0&#45;&gt;10 -->
<g id="edge10" class="edge">
<title>0&#45;&gt;10</title>
<path fill="none" stroke="black" d="M878.12,-537.47C932.89,-519.12 1002.41,-495.83 1060.72,-476.29"/>
<polygon fill="black" stroke="black" points="1061.98,-479.56 1070.35,-473.07 1059.76,-472.92 1061.98,-479.56"/>
<text text-anchor="middle" x="1059.2" y="-491.74" font-family="Times,serif" font-size="14.00">False</text>
</g>
<!-- 2 -->
<g id="node3" class="node">
<title>2</title>
<polygon fill="none" stroke="black" points="469,-343.5 281,-343.5 281,-260.5 469,-260.5 469,-343.5"/>
<text text-anchor="middle" x="375" y="-328.3" font-family="Times,serif" font-size="14.00">node #2</text>
<text text-anchor="middle" x="375" y="-313.3" font-family="Times,serif" font-size="14.00">gini = 0.0</text>
<text text-anchor="middle" x="375" y="-298.3" font-family="Times,serif" font-size="14.00">samples = 2</text>
<text text-anchor="middle" x="375" y="-283.3" font-family="Times,serif" font-size="14.00">value = [4.366, 0.0]</text>
<text text-anchor="middle" x="375" y="-268.3" font-family="Times,serif" font-size="14.00">class = Non&#45;obstructive</text>
</g>
<!-- 1&#45;&gt;2 -->
<g id="edge2" class="edge">
<title>1&#45;&gt;2</title>
<path fill="none" stroke="black" d="M509.23,-386.97C489.42,-374.58 468.14,-361.27 448.51,-348.98"/>
<polygon fill="black" stroke="black" points="450.24,-345.94 439.9,-343.6 446.53,-351.87 450.24,-345.94"/>
</g>
<!-- 3 -->
<g id="node4" class="node">
<title>3</title>
<polygon fill="none" stroke="black" points="684.5,-351 487.5,-351 487.5,-253 684.5,-253 684.5,-351"/>
<text text-anchor="middle" x="586" y="-335.8" font-family="Times,serif" font-size="14.00">node #3</text>
<text text-anchor="middle" x="586" y="-320.8" font-family="Times,serif" font-size="14.00">FEFPostPercent &lt;= 23.5</text>
<text text-anchor="middle" x="586" y="-305.8" font-family="Times,serif" font-size="14.00">gini = 0.148</text>
<text text-anchor="middle" x="586" y="-290.8" font-family="Times,serif" font-size="14.00">samples = 65</text>
<text text-anchor="middle" x="586" y="-275.8" font-family="Times,serif" font-size="14.00">value = [7.641, 87.652]</text>
<text text-anchor="middle" x="586" y="-260.8" font-family="Times,serif" font-size="14.00">class = Obstructive</text>
</g>
<!-- 1&#45;&gt;3 -->
<g id="edge3" class="edge">
<title>1&#45;&gt;3</title>
<path fill="none" stroke="black" d="M586,-386.97C586,-378.69 586,-370 586,-361.48"/>
<polygon fill="black" stroke="black" points="589.5,-361.21 586,-351.21 582.5,-361.21 589.5,-361.21"/>
</g>
<!-- 4 -->
<g id="node5" class="node">
<title>4</title>
<polygon fill="none" stroke="black" points="388.5,-217 191.5,-217 191.5,-119 388.5,-119 388.5,-217"/>
<text text-anchor="middle" x="290" y="-201.8" font-family="Times,serif" font-size="14.00">node #4</text>
<text text-anchor="middle" x="290" y="-186.8" font-family="Times,serif" font-size="14.00">FVCPostPercent &lt;= 34.0</text>
<text text-anchor="middle" x="290" y="-171.8" font-family="Times,serif" font-size="14.00">gini = 0.039</text>
<text text-anchor="middle" x="290" y="-156.8" font-family="Times,serif" font-size="14.00">samples = 37</text>
<text text-anchor="middle" x="290" y="-141.8" font-family="Times,serif" font-size="14.00">value = [1.092, 54.436]</text>
<text text-anchor="middle" x="290" y="-126.8" font-family="Times,serif" font-size="14.00">class = Obstructive</text>
</g>
<!-- 3&#45;&gt;4 -->
<g id="edge4" class="edge">
<title>3&#45;&gt;4</title>
<path fill="none" stroke="black" d="M487.44,-257.05C458.75,-244.26 427.27,-230.22 398.04,-217.18"/>
<polygon fill="black" stroke="black" points="399.2,-213.86 388.64,-212.99 396.35,-220.26 399.2,-213.86"/>
</g>
<!-- 7 -->
<g id="node8" class="node">
<title>7</title>
<polygon fill="none" stroke="black" points="678.5,-217 493.5,-217 493.5,-119 678.5,-119 678.5,-217"/>
<text text-anchor="middle" x="586" y="-201.8" font-family="Times,serif" font-size="14.00">node #7</text>
<text text-anchor="middle" x="586" y="-186.8" font-family="Times,serif" font-size="14.00">FVCPreVal &lt;= 2.64</text>
<text text-anchor="middle" x="586" y="-171.8" font-family="Times,serif" font-size="14.00">gini = 0.275</text>
<text text-anchor="middle" x="586" y="-156.8" font-family="Times,serif" font-size="14.00">samples = 28</text>
<text text-anchor="middle" x="586" y="-141.8" font-family="Times,serif" font-size="14.00">value = [6.549, 33.215]</text>
<text text-anchor="middle" x="586" y="-126.8" font-family="Times,serif" font-size="14.00">class = Obstructive</text>
</g>
<!-- 3&#45;&gt;7 -->
<g id="edge7" class="edge">
<title>3&#45;&gt;7</title>
<path fill="none" stroke="black" d="M586,-252.97C586,-244.69 586,-236 586,-227.48"/>
<polygon fill="black" stroke="black" points="589.5,-227.21 586,-217.21 582.5,-227.21 589.5,-227.21"/>
</g>
<!-- 5 -->
<g id="node6" class="node">
<title>5</title>
<polygon fill="none" stroke="black" points="188,-83 0,-83 0,0 188,0 188,-83"/>
<text text-anchor="middle" x="94" y="-67.8" font-family="Times,serif" font-size="14.00">node #5</text>
<text text-anchor="middle" x="94" y="-52.8" font-family="Times,serif" font-size="14.00">gini = 0.496</text>
<text text-anchor="middle" x="94" y="-37.8" font-family="Times,serif" font-size="14.00">samples = 2</text>
<text text-anchor="middle" x="94" y="-22.8" font-family="Times,serif" font-size="14.00">value = [1.092, 0.923]</text>
<text text-anchor="middle" x="94" y="-7.8" font-family="Times,serif" font-size="14.00">class = Non&#45;obstructive</text>
</g>
<!-- 4&#45;&gt;5 -->
<g id="edge5" class="edge">
<title>4&#45;&gt;5</title>
<path fill="none" stroke="black" d="M214.22,-118.87C198.5,-108.88 181.97,-98.38 166.37,-88.47"/>
<polygon fill="black" stroke="black" points="168.13,-85.44 157.81,-83.03 164.37,-91.35 168.13,-85.44"/>
</g>
<!-- 6 -->
<g id="node7" class="node">
<title>6</title>
<polygon fill="none" stroke="black" points="373.5,-83 206.5,-83 206.5,0 373.5,0 373.5,-83"/>
<text text-anchor="middle" x="290" y="-67.8" font-family="Times,serif" font-size="14.00">node #6</text>
<text text-anchor="middle" x="290" y="-52.8" font-family="Times,serif" font-size="14.00">gini = &#45;0.0</text>
<text text-anchor="middle" x="290" y="-37.8" font-family="Times,serif" font-size="14.00">samples = 35</text>
<text text-anchor="middle" x="290" y="-22.8" font-family="Times,serif" font-size="14.00">value = [0.0, 53.514]</text>
<text text-anchor="middle" x="290" y="-7.8" font-family="Times,serif" font-size="14.00">class = Obstructive</text>
</g>
<!-- 4&#45;&gt;6 -->
<g id="edge6" class="edge">
<title>4&#45;&gt;6</title>
<path fill="none" stroke="black" d="M290,-118.87C290,-110.5 290,-101.77 290,-93.33"/>
<polygon fill="black" stroke="black" points="293.5,-93.23 290,-83.23 286.5,-93.23 293.5,-93.23"/>
</g>
<!-- 8 -->
<g id="node9" class="node">
<title>8</title>
<polygon fill="none" stroke="black" points="567,-83 391,-83 391,0 567,0 567,-83"/>
<text text-anchor="middle" x="479" y="-67.8" font-family="Times,serif" font-size="14.00">node #8</text>
<text text-anchor="middle" x="479" y="-52.8" font-family="Times,serif" font-size="14.00">gini = 0.189</text>
<text text-anchor="middle" x="479" y="-37.8" font-family="Times,serif" font-size="14.00">samples = 23</text>
<text text-anchor="middle" x="479" y="-22.8" font-family="Times,serif" font-size="14.00">value = [3.275, 27.68]</text>
<text text-anchor="middle" x="479" y="-7.8" font-family="Times,serif" font-size="14.00">class = Obstructive</text>
</g>
<!-- 7&#45;&gt;8 -->
<g id="edge8" class="edge">
<title>7&#45;&gt;8</title>
<path fill="none" stroke="black" d="M544.63,-118.87C536.73,-109.67 528.45,-100.04 520.55,-90.84"/>
<polygon fill="black" stroke="black" points="523.18,-88.53 514.01,-83.23 517.87,-93.1 523.18,-88.53"/>
</g>
<!-- 9 -->
<g id="node10" class="node">
<title>9</title>
<polygon fill="none" stroke="black" points="761,-83 585,-83 585,0 761,0 761,-83"/>
<text text-anchor="middle" x="673" y="-67.8" font-family="Times,serif" font-size="14.00">node #9</text>
<text text-anchor="middle" x="673" y="-52.8" font-family="Times,serif" font-size="14.00">gini = 0.467</text>
<text text-anchor="middle" x="673" y="-37.8" font-family="Times,serif" font-size="14.00">samples = 5</text>
<text text-anchor="middle" x="673" y="-22.8" font-family="Times,serif" font-size="14.00">value = [3.275, 5.536]</text>
<text text-anchor="middle" x="673" y="-7.8" font-family="Times,serif" font-size="14.00">class = Obstructive</text>
</g>
<!-- 7&#45;&gt;9 -->
<g id="edge9" class="edge">
<title>7&#45;&gt;9</title>
<path fill="none" stroke="black" d="M619.64,-118.87C625.87,-109.95 632.39,-100.62 638.64,-91.67"/>
<polygon fill="black" stroke="black" points="641.68,-93.43 644.54,-83.23 635.94,-89.42 641.68,-93.43"/>
</g>
<!-- 11 -->
<g id="node12" class="node">
<title>11</title>
<polygon fill="none" stroke="black" points="1279.5,-351 1076.5,-351 1076.5,-253 1279.5,-253 1279.5,-351"/>
<text text-anchor="middle" x="1178" y="-335.8" font-family="Times,serif" font-size="14.00">node #11</text>
<text text-anchor="middle" x="1178" y="-320.8" font-family="Times,serif" font-size="14.00">FEV1PreVal &lt;= 1.49</text>
<text text-anchor="middle" x="1178" y="-305.8" font-family="Times,serif" font-size="14.00">gini = 0.215</text>
<text text-anchor="middle" x="1178" y="-290.8" font-family="Times,serif" font-size="14.00">samples = 71</text>
<text text-anchor="middle" x="1178" y="-275.8" font-family="Times,serif" font-size="14.00">value = [105.876, 14.762]</text>
<text text-anchor="middle" x="1178" y="-260.8" font-family="Times,serif" font-size="14.00">class = Non&#45;obstructive</text>
</g>
<!-- 10&#45;&gt;11 -->
<g id="edge11" class="edge">
<title>10&#45;&gt;11</title>
<path fill="none" stroke="black" d="M1178,-386.97C1178,-378.69 1178,-370 1178,-361.48"/>
<polygon fill="black" stroke="black" points="1181.5,-361.21 1178,-351.21 1174.5,-361.21 1181.5,-361.21"/>
</g>
<!-- 18 -->
<g id="node19" class="node">
<title>18</title>
<polygon fill="none" stroke="black" points="1874,-351 1674,-351 1674,-253 1874,-253 1874,-351"/>
<text text-anchor="middle" x="1774" y="-335.8" font-family="Times,serif" font-size="14.00">node #18</text>
<text text-anchor="middle" x="1774" y="-320.8" font-family="Times,serif" font-size="14.00">FEV1PrePercent &lt;= 74.5</text>
<text text-anchor="middle" x="1774" y="-305.8" font-family="Times,serif" font-size="14.00">gini = 0.491</text>
<text text-anchor="middle" x="1774" y="-290.8" font-family="Times,serif" font-size="14.00">samples = 70</text>
<text text-anchor="middle" x="1774" y="-275.8" font-family="Times,serif" font-size="14.00">value = [49.118, 64.586]</text>
<text text-anchor="middle" x="1774" y="-260.8" font-family="Times,serif" font-size="14.00">class = Obstructive</text>
</g>
<!-- 10&#45;&gt;18 -->
<g id="edge18" class="edge">
<title>10&#45;&gt;18</title>
<path fill="none" stroke="black" d="M1285.59,-411.17C1392.56,-387.48 1555.86,-351.31 1663.76,-327.42"/>
<polygon fill="black" stroke="black" points="1664.69,-330.79 1673.69,-325.22 1663.17,-323.96 1664.69,-330.79"/>
</g>
<!-- 12 -->
<g id="node13" class="node">
<title>12</title>
<polygon fill="none" stroke="black" points="1169.5,-217 978.5,-217 978.5,-119 1169.5,-119 1169.5,-217"/>
<text text-anchor="middle" x="1074" y="-201.8" font-family="Times,serif" font-size="14.00">node #12</text>
<text text-anchor="middle" x="1074" y="-186.8" font-family="Times,serif" font-size="14.00">FEFPrePercent &lt;= 45.0</text>
<text text-anchor="middle" x="1074" y="-171.8" font-family="Times,serif" font-size="14.00">gini = 0.073</text>
<text text-anchor="middle" x="1074" y="-156.8" font-family="Times,serif" font-size="14.00">samples = 41</text>
<text text-anchor="middle" x="1074" y="-141.8" font-family="Times,serif" font-size="14.00">value = [69.856, 2.768]</text>
<text text-anchor="middle" x="1074" y="-126.8" font-family="Times,serif" font-size="14.00">class = Non&#45;obstructive</text>
</g>
<!-- 11&#45;&gt;12 -->
<g id="edge12" class="edge">
<title>11&#45;&gt;12</title>
<path fill="none" stroke="black" d="M1140.16,-252.97C1133.06,-243.96 1125.58,-234.47 1118.31,-225.24"/>
<polygon fill="black" stroke="black" points="1120.92,-222.9 1111.99,-217.21 1115.43,-227.23 1120.92,-222.9"/>
</g>
<!-- 15 -->
<g id="node16" class="node">
<title>15</title>
<polygon fill="none" stroke="black" points="1378.5,-217 1187.5,-217 1187.5,-119 1378.5,-119 1378.5,-217"/>
<text text-anchor="middle" x="1283" y="-201.8" font-family="Times,serif" font-size="14.00">node #15</text>
<text text-anchor="middle" x="1283" y="-186.8" font-family="Times,serif" font-size="14.00">FEFPrePercent &lt;= 66.5</text>
<text text-anchor="middle" x="1283" y="-171.8" font-family="Times,serif" font-size="14.00">gini = 0.375</text>
<text text-anchor="middle" x="1283" y="-156.8" font-family="Times,serif" font-size="14.00">samples = 30</text>
<text text-anchor="middle" x="1283" y="-141.8" font-family="Times,serif" font-size="14.00">value = [36.02, 11.994]</text>
<text text-anchor="middle" x="1283" y="-126.8" font-family="Times,serif" font-size="14.00">class = Non&#45;obstructive</text>
</g>
<!-- 11&#45;&gt;15 -->
<g id="edge15" class="edge">
<title>11&#45;&gt;15</title>
<path fill="none" stroke="black" d="M1216.2,-252.97C1223.37,-243.96 1230.92,-234.47 1238.26,-225.24"/>
<polygon fill="black" stroke="black" points="1241.16,-227.22 1244.65,-217.21 1235.68,-222.86 1241.16,-227.22"/>
</g>
<!-- 13 -->
<g id="node14" class="node">
<title>13</title>
<polygon fill="none" stroke="black" points="967,-83 779,-83 779,0 967,0 967,-83"/>
<text text-anchor="middle" x="873" y="-67.8" font-family="Times,serif" font-size="14.00">node #13</text>
<text text-anchor="middle" x="873" y="-52.8" font-family="Times,serif" font-size="14.00">gini = 0.266</text>
<text text-anchor="middle" x="873" y="-37.8" font-family="Times,serif" font-size="14.00">samples = 8</text>
<text text-anchor="middle" x="873" y="-22.8" font-family="Times,serif" font-size="14.00">value = [9.824, 1.845]</text>
<text text-anchor="middle" x="873" y="-7.8" font-family="Times,serif" font-size="14.00">class = Non&#45;obstructive</text>
</g>
<!-- 12&#45;&gt;13 -->
<g id="edge13" class="edge">
<title>12&#45;&gt;13</title>
<path fill="none" stroke="black" d="M996.29,-118.87C980.16,-108.88 963.21,-98.38 947.22,-88.47"/>
<polygon fill="black" stroke="black" points="948.78,-85.32 938.44,-83.03 945.1,-91.27 948.78,-85.32"/>
</g>
<!-- 14 -->
<g id="node15" class="node">
<title>14</title>
<polygon fill="none" stroke="black" points="1173,-83 985,-83 985,0 1173,0 1173,-83"/>
<text text-anchor="middle" x="1079" y="-67.8" font-family="Times,serif" font-size="14.00">node #14</text>
<text text-anchor="middle" x="1079" y="-52.8" font-family="Times,serif" font-size="14.00">gini = 0.03</text>
<text text-anchor="middle" x="1079" y="-37.8" font-family="Times,serif" font-size="14.00">samples = 33</text>
<text text-anchor="middle" x="1079" y="-22.8" font-family="Times,serif" font-size="14.00">value = [60.033, 0.923]</text>
<text text-anchor="middle" x="1079" y="-7.8" font-family="Times,serif" font-size="14.00">class = Non&#45;obstructive</text>
</g>
<!-- 12&#45;&gt;14 -->
<g id="edge14" class="edge">
<title>12&#45;&gt;14</title>
<path fill="none" stroke="black" d="M1075.93,-118.87C1076.27,-110.5 1076.62,-101.77 1076.96,-93.33"/>
<polygon fill="black" stroke="black" points="1080.46,-93.36 1077.36,-83.23 1073.47,-93.08 1080.46,-93.36"/>
</g>
<!-- 16 -->
<g id="node17" class="node">
<title>16</title>
<polygon fill="none" stroke="black" points="1367,-83 1191,-83 1191,0 1367,0 1367,-83"/>
<text text-anchor="middle" x="1279" y="-67.8" font-family="Times,serif" font-size="14.00">node #16</text>
<text text-anchor="middle" x="1279" y="-52.8" font-family="Times,serif" font-size="14.00">gini = 0.486</text>
<text text-anchor="middle" x="1279" y="-37.8" font-family="Times,serif" font-size="14.00">samples = 10</text>
<text text-anchor="middle" x="1279" y="-22.8" font-family="Times,serif" font-size="14.00">value = [6.549, 9.227]</text>
<text text-anchor="middle" x="1279" y="-7.8" font-family="Times,serif" font-size="14.00">class = Obstructive</text>
</g>
<!-- 15&#45;&gt;16 -->
<g id="edge16" class="edge">
<title>15&#45;&gt;16</title>
<path fill="none" stroke="black" d="M1281.45,-118.87C1281.18,-110.5 1280.9,-101.77 1280.63,-93.33"/>
<polygon fill="black" stroke="black" points="1284.13,-93.11 1280.31,-83.23 1277.13,-93.34 1284.13,-93.11"/>
</g>
<!-- 17 -->
<g id="node18" class="node">
<title>17</title>
<polygon fill="none" stroke="black" points="1573,-83 1385,-83 1385,0 1573,0 1573,-83"/>
<text text-anchor="middle" x="1479" y="-67.8" font-family="Times,serif" font-size="14.00">node #17</text>
<text text-anchor="middle" x="1479" y="-52.8" font-family="Times,serif" font-size="14.00">gini = 0.157</text>
<text text-anchor="middle" x="1479" y="-37.8" font-family="Times,serif" font-size="14.00">samples = 20</text>
<text text-anchor="middle" x="1479" y="-22.8" font-family="Times,serif" font-size="14.00">value = [29.471, 2.768]</text>
<text text-anchor="middle" x="1479" y="-7.8" font-family="Times,serif" font-size="14.00">class = Non&#45;obstructive</text>
</g>
<!-- 15&#45;&gt;17 -->
<g id="edge17" class="edge">
<title>15&#45;&gt;17</title>
<path fill="none" stroke="black" d="M1358.78,-118.87C1374.5,-108.88 1391.03,-98.38 1406.63,-88.47"/>
<polygon fill="black" stroke="black" points="1408.63,-91.35 1415.19,-83.03 1404.87,-85.44 1408.63,-91.35"/>
</g>
<!-- 19 -->
<g id="node20" class="node">
<title>19</title>
<polygon fill="none" stroke="black" points="1877,-217 1671,-217 1671,-119 1877,-119 1877,-217"/>
<text text-anchor="middle" x="1774" y="-201.8" font-family="Times,serif" font-size="14.00">node #19</text>
<text text-anchor="middle" x="1774" y="-186.8" font-family="Times,serif" font-size="14.00">FEV1PostPercent &lt;= 70.0</text>
<text text-anchor="middle" x="1774" y="-171.8" font-family="Times,serif" font-size="14.00">gini = 0.304</text>
<text text-anchor="middle" x="1774" y="-156.8" font-family="Times,serif" font-size="14.00">samples = 26</text>
<text text-anchor="middle" x="1774" y="-141.8" font-family="Times,serif" font-size="14.00">value = [7.641, 33.215]</text>
<text text-anchor="middle" x="1774" y="-126.8" font-family="Times,serif" font-size="14.00">class = Obstructive</text>
</g>
<!-- 18&#45;&gt;19 -->
<g id="edge19" class="edge">
<title>18&#45;&gt;19</title>
<path fill="none" stroke="black" d="M1774,-252.97C1774,-244.69 1774,-236 1774,-227.48"/>
<polygon fill="black" stroke="black" points="1777.5,-227.21 1774,-217.21 1770.5,-227.21 1777.5,-227.21"/>
</g>
<!-- 22 -->
<g id="node23" class="node">
<title>22</title>
<polygon fill="none" stroke="black" points="2178,-217 1990,-217 1990,-119 2178,-119 2178,-217"/>
<text text-anchor="middle" x="2084" y="-201.8" font-family="Times,serif" font-size="14.00">node #22</text>
<text text-anchor="middle" x="2084" y="-186.8" font-family="Times,serif" font-size="14.00">FEV1PreVal &lt;= 2.825</text>
<text text-anchor="middle" x="2084" y="-171.8" font-family="Times,serif" font-size="14.00">gini = 0.49</text>
<text text-anchor="middle" x="2084" y="-156.8" font-family="Times,serif" font-size="14.00">samples = 44</text>
<text text-anchor="middle" x="2084" y="-141.8" font-family="Times,serif" font-size="14.00">value = [41.477, 31.37]</text>
<text text-anchor="middle" x="2084" y="-126.8" font-family="Times,serif" font-size="14.00">class = Non&#45;obstructive</text>
</g>
<!-- 18&#45;&gt;22 -->
<g id="edge22" class="edge">
<title>18&#45;&gt;22</title>
<path fill="none" stroke="black" d="M1874.22,-258.33C1908.18,-243.87 1946.16,-227.69 1980.37,-213.13"/>
<polygon fill="black" stroke="black" points="1982.09,-216.2 1989.92,-209.06 1979.34,-209.76 1982.09,-216.2"/>
</g>
<!-- 20 -->
<g id="node21" class="node">
<title>20</title>
<polygon fill="none" stroke="black" points="1767,-83 1591,-83 1591,0 1767,0 1767,-83"/>
<text text-anchor="middle" x="1679" y="-67.8" font-family="Times,serif" font-size="14.00">node #20</text>
<text text-anchor="middle" x="1679" y="-52.8" font-family="Times,serif" font-size="14.00">gini = 0.498</text>
<text text-anchor="middle" x="1679" y="-37.8" font-family="Times,serif" font-size="14.00">samples = 9</text>
<text text-anchor="middle" x="1679" y="-22.8" font-family="Times,serif" font-size="14.00">value = [6.549, 7.381]</text>
<text text-anchor="middle" x="1679" y="-7.8" font-family="Times,serif" font-size="14.00">class = Obstructive</text>
</g>
<!-- 19&#45;&gt;20 -->
<g id="edge20" class="edge">
<title>19&#45;&gt;20</title>
<path fill="none" stroke="black" d="M1737.27,-118.87C1730.39,-109.85 1723.2,-100.43 1716.31,-91.39"/>
<polygon fill="black" stroke="black" points="1718.93,-89.06 1710.08,-83.23 1713.36,-93.3 1718.93,-89.06"/>
</g>
<!-- 21 -->
<g id="node22" class="node">
<title>21</title>
<polygon fill="none" stroke="black" points="1969.5,-83 1784.5,-83 1784.5,0 1969.5,0 1969.5,-83"/>
<text text-anchor="middle" x="1877" y="-67.8" font-family="Times,serif" font-size="14.00">node #21</text>
<text text-anchor="middle" x="1877" y="-52.8" font-family="Times,serif" font-size="14.00">gini = 0.078</text>
<text text-anchor="middle" x="1877" y="-37.8" font-family="Times,serif" font-size="14.00">samples = 17</text>
<text text-anchor="middle" x="1877" y="-22.8" font-family="Times,serif" font-size="14.00">value = [1.092, 25.834]</text>
<text text-anchor="middle" x="1877" y="-7.8" font-family="Times,serif" font-size="14.00">class = Obstructive</text>
</g>
<!-- 19&#45;&gt;21 -->
<g id="edge21" class="edge">
<title>19&#45;&gt;21</title>
<path fill="none" stroke="black" d="M1813.82,-118.87C1821.35,-109.76 1829.24,-100.23 1836.78,-91.12"/>
<polygon fill="black" stroke="black" points="1839.63,-93.17 1843.3,-83.23 1834.23,-88.7 1839.63,-93.17"/>
</g>
<!-- 23 -->
<g id="node24" class="node">
<title>23</title>
<polygon fill="none" stroke="black" points="2181,-83 1987,-83 1987,0 2181,0 2181,-83"/>
<text text-anchor="middle" x="2084" y="-67.8" font-family="Times,serif" font-size="14.00">node #23</text>
<text text-anchor="middle" x="2084" y="-52.8" font-family="Times,serif" font-size="14.00">gini = 0.392</text>
<text text-anchor="middle" x="2084" y="-37.8" font-family="Times,serif" font-size="14.00">samples = 32</text>
<text text-anchor="middle" x="2084" y="-22.8" font-family="Times,serif" font-size="14.00">value = [40.386, 14.762]</text>
<text text-anchor="middle" x="2084" y="-7.8" font-family="Times,serif" font-size="14.00">class = Non&#45;obstructive</text>
</g>
<!-- 22&#45;&gt;23 -->
<g id="edge23" class="edge">
<title>22&#45;&gt;23</title>
<path fill="none" stroke="black" d="M2084,-118.87C2084,-110.5 2084,-101.77 2084,-93.33"/>
<polygon fill="black" stroke="black" points="2087.5,-93.23 2084,-83.23 2080.5,-93.23 2087.5,-93.23"/>
</g>
<!-- 24 -->
<g id="node25" class="node">
<title>24</title>
<polygon fill="none" stroke="black" points="2383.5,-83 2198.5,-83 2198.5,0 2383.5,0 2383.5,-83"/>
<text text-anchor="middle" x="2291" y="-67.8" font-family="Times,serif" font-size="14.00">node #24</text>
<text text-anchor="middle" x="2291" y="-52.8" font-family="Times,serif" font-size="14.00">gini = 0.116</text>
<text text-anchor="middle" x="2291" y="-37.8" font-family="Times,serif" font-size="14.00">samples = 12</text>
<text text-anchor="middle" x="2291" y="-22.8" font-family="Times,serif" font-size="14.00">value = [1.092, 16.608]</text>
<text text-anchor="middle" x="2291" y="-7.8" font-family="Times,serif" font-size="14.00">class = Obstructive</text>
</g>
<!-- 22&#45;&gt;24 -->
<g id="edge24" class="edge">
<title>22&#45;&gt;24</title>
<path fill="none" stroke="black" d="M2164.03,-118.87C2180.79,-108.78 2198.42,-98.18 2215.03,-88.19"/>
<polygon fill="black" stroke="black" points="2216.84,-91.19 2223.61,-83.03 2213.24,-85.19 2216.84,-91.19"/>
</g>
</g>
</svg>
