<?xml version="1.0" encoding="UTF-8" standalone="no"?>
<!DOCTYPE svg PUBLIC "-//W3C//DTD SVG 1.1//EN"
 "http://www.w3.org/Graphics/SVG/1.1/DTD/svg11.dtd">
<!-- Generated by graphviz version 2.43.0 (0)
 -->
<!-- Title: Tree Pages: 1 -->
<svg width="1975pt" height="627pt"
 viewBox="0.00 0.00 1975.00 627.00" xmlns="http://www.w3.org/2000/svg" xmlns:xlink="http://www.w3.org/1999/xlink">
<g id="graph0" class="graph" transform="scale(1 1) rotate(0) translate(4 623)">
<title>Tree</title>
<polygon fill="white" stroke="transparent" points="-4,4 -4,-623 1971,-623 1971,4 -4,4"/>
<!-- 0 -->
<g id="node1" class="node">
<title>0</title>
<polygon fill="none" stroke="black" points="967.5,-619 776.5,-619 776.5,-521 967.5,-521 967.5,-619"/>
<text text-anchor="middle" x="872" y="-603.8" font-family="Times,serif" font-size="14.00">node #0</text>
<text text-anchor="middle" x="872" y="-588.8" font-family="Times,serif" font-size="14.00">FEFPrePercent &lt;= 48.5</text>
<text text-anchor="middle" x="872" y="-573.8" font-family="Times,serif" font-size="14.00">gini = 0.5</text>
<text text-anchor="middle" x="872" y="-558.8" font-family="Times,serif" font-size="14.00">samples = 215</text>
<text text-anchor="middle" x="872" y="-543.8" font-family="Times,serif" font-size="14.00">value = [167.0, 167.0]</text>
<text text-anchor="middle" x="872" y="-528.8" font-family="Times,serif" font-size="14.00">class = Obstructive</text>
</g>
<!-- 1 -->
<g id="node2" class="node">
<title>1</title>
<polygon fill="none" stroke="black" points="692.5,-485 489.5,-485 489.5,-387 692.5,-387 692.5,-485"/>
<text text-anchor="middle" x="591" y="-469.8" font-family="Times,serif" font-size="14.00">node #1</text>
<text text-anchor="middle" x="591" y="-454.8" font-family="Times,serif" font-size="14.00">FEFPostVal &lt;= 0.955</text>
<text text-anchor="middle" x="591" y="-439.8" font-family="Times,serif" font-size="14.00">gini = 0.293</text>
<text text-anchor="middle" x="591" y="-424.8" font-family="Times,serif" font-size="14.00">samples = 94</text>
<text text-anchor="middle" x="591" y="-409.8" font-family="Times,serif" font-size="14.00">value = [24.954, 114.813]</text>
<text text-anchor="middle" x="591" y="-394.8" font-family="Times,serif" font-size="14.00">class = Obstructive</text>
</g>
<!-- 0&#45;&gt;1 -->
<g id="edge1" class="edge">
<title>0&#45;&gt;1</title>
<path fill="none" stroke="black" d="M776.47,-524.13C752.38,-512.81 726.32,-500.57 701.56,-488.94"/>
<polygon fill="black" stroke="black" points="703.04,-485.77 692.5,-484.68 700.07,-492.1 703.04,-485.77"/>
<text text-anchor="middle" x="700.99" y="-504.5" font-family="Times,serif" font-size="14.00">True</text>
</g>
<!-- 12 -->
<g id="node13" class="node">
<title>12</title>
<polygon fill="none" stroke="black" points="1280.5,-485 1077.5,-485 1077.5,-387 1280.5,-387 1280.5,-485"/>
<text text-anchor="middle" x="1179" y="-469.8" font-family="Times,serif" font-size="14.00">node #12</text>
<text text-anchor="middle" x="1179" y="-454.8" font-family="Times,serif" font-size="14.00">FVCPostPercent &lt;= 70.5</text>
<text text-anchor="middle" x="1179" y="-439.8" font-family="Times,serif" font-size="14.00">gini = 0.393</text>
<text text-anchor="middle" x="1179" y="-424.8" font-family="Times,serif" font-size="14.00">samples = 121</text>
<text text-anchor="middle" x="1179" y="-409.8" font-family="Times,serif" font-size="14.00">value = [142.046, 52.188]</text>
<text text-anchor="middle" x="1179" y="-394.8" font-family="Times,serif" font-size="14.00">class = Non&#45;obstructive</text>
</g>
<!-- 0&#45;&gt;12 -->
<g id="edge12" class="edge">
<title>0&#45;&gt;12</title>
<path fill="none" stroke="black" d="M967.87,-527.78C999.71,-514.09 1035.43,-498.73 1068.29,-484.6"/>
<polygon fill="black" stroke="black" points="1069.68,-487.82 1077.48,-480.65 1066.91,-481.38 1069.68,-487.82"/>
<text text-anchor="middle" x="1068.22" y="-500.17" font-family="Times,serif" font-size="14.00">False</text>
</g>
<!-- 2 -->
<g id="node3" class="node">
<title>2</title>
<polygon fill="none" stroke="black" points="385.5,-351 194.5,-351 194.5,-253 385.5,-253 385.5,-351"/>
<text text-anchor="middle" x="290" y="-335.8" font-family="Times,serif" font-size="14.00">node #2</text>
<text text-anchor="middle" x="290" y="-320.8" font-family="Times,serif" font-size="14.00">FVCPrePercent &lt;= 63.5</text>
<text text-anchor="middle" x="290" y="-305.8" font-family="Times,serif" font-size="14.00">gini = 0.056</text>
<text text-anchor="middle" x="290" y="-290.8" font-family="Times,serif" font-size="14.00">samples = 45</text>
<text text-anchor="middle" x="290" y="-275.8" font-family="Times,serif" font-size="14.00">value = [1.92, 64.713]</text>
<text text-anchor="middle" x="290" y="-260.8" font-family="Times,serif" font-size="14.00">class = Obstructive</text>
</g>
<!-- 1&#45;&gt;2 -->
<g id="edge2" class="edge">
<title>1&#45;&gt;2</title>
<path fill="none" stroke="black" d="M489.1,-390.31C458.8,-377.03 425.56,-362.45 395.07,-349.08"/>
<polygon fill="black" stroke="black" points="396.27,-345.78 385.7,-344.97 393.46,-352.19 396.27,-345.78"/>
</g>
<!-- 7 -->
<g id="node8" class="node">
<title>7</title>
<polygon fill="none" stroke="black" points="679,-351 503,-351 503,-253 679,-253 679,-351"/>
<text text-anchor="middle" x="591" y="-335.8" font-family="Times,serif" font-size="14.00">node #7</text>
<text text-anchor="middle" x="591" y="-320.8" font-family="Times,serif" font-size="14.00">FVCPreVal &lt;= 1.555</text>
<text text-anchor="middle" x="591" y="-305.8" font-family="Times,serif" font-size="14.00">gini = 0.432</text>
<text text-anchor="middle" x="591" y="-290.8" font-family="Times,serif" font-size="14.00">samples = 49</text>
<text text-anchor="middle" x="591" y="-275.8" font-family="Times,serif" font-size="14.00">value = [23.034, 50.1]</text>
<text text-anchor="middle" x="591" y="-260.8" font-family="Times,serif" font-size="14.00">class = Obstructive</text>
</g>
<!-- 1&#45;&gt;7 -->
<g id="edge7" class="edge">
<title>1&#45;&gt;7</title>
<path fill="none" stroke="black" d="M591,-386.97C591,-378.69 591,-370 591,-361.48"/>
<polygon fill="black" stroke="black" points="594.5,-361.21 591,-351.21 587.5,-361.21 594.5,-361.21"/>
</g>
<!-- 3 -->
<g id="node4" class="node">
<title>3</title>
<polygon fill="none" stroke="black" points="184.5,-209.5 17.5,-209.5 17.5,-126.5 184.5,-126.5 184.5,-209.5"/>
<text text-anchor="middle" x="101" y="-194.3" font-family="Times,serif" font-size="14.00">node #3</text>
<text text-anchor="middle" x="101" y="-179.3" font-family="Times,serif" font-size="14.00">gini = 0.0</text>
<text text-anchor="middle" x="101" y="-164.3" font-family="Times,serif" font-size="14.00">samples = 35</text>
<text text-anchor="middle" x="101" y="-149.3" font-family="Times,serif" font-size="14.00">value = [0.0, 49.056]</text>
<text text-anchor="middle" x="101" y="-134.3" font-family="Times,serif" font-size="14.00">class = Obstructive</text>
</g>
<!-- 2&#45;&gt;3 -->
<g id="edge3" class="edge">
<title>2&#45;&gt;3</title>
<path fill="none" stroke="black" d="M221.23,-252.97C203.73,-240.75 184.95,-227.63 167.55,-215.48"/>
<polygon fill="black" stroke="black" points="169.34,-212.46 159.14,-209.6 165.33,-218.2 169.34,-212.46"/>
</g>
<!-- 4 -->
<g id="node5" class="node">
<title>4</title>
<polygon fill="none" stroke="black" points="378,-217 202,-217 202,-119 378,-119 378,-217"/>
<text text-anchor="middle" x="290" y="-201.8" font-family="Times,serif" font-size="14.00">node #4</text>
<text text-anchor="middle" x="290" y="-186.8" font-family="Times,serif" font-size="14.00">FVCPostVal &lt;= 1.75</text>
<text text-anchor="middle" x="290" y="-171.8" font-family="Times,serif" font-size="14.00">gini = 0.195</text>
<text text-anchor="middle" x="290" y="-156.8" font-family="Times,serif" font-size="14.00">samples = 10</text>
<text text-anchor="middle" x="290" y="-141.8" font-family="Times,serif" font-size="14.00">value = [1.92, 15.656]</text>
<text text-anchor="middle" x="290" y="-126.8" font-family="Times,serif" font-size="14.00">class = Obstructive</text>
</g>
<!-- 2&#45;&gt;4 -->
<g id="edge4" class="edge">
<title>2&#45;&gt;4</title>
<path fill="none" stroke="black" d="M290,-252.97C290,-244.69 290,-236 290,-227.48"/>
<polygon fill="black" stroke="black" points="293.5,-227.21 290,-217.21 286.5,-227.21 293.5,-227.21"/>
</g>
<!-- 5 -->
<g id="node6" class="node">
<title>5</title>
<polygon fill="none" stroke="black" points="188,-83 0,-83 0,0 188,0 188,-83"/>
<text text-anchor="middle" x="94" y="-67.8" font-family="Times,serif" font-size="14.00">node #5</text>
<text text-anchor="middle" x="94" y="-52.8" font-family="Times,serif" font-size="14.00">gini = 0.0</text>
<text text-anchor="middle" x="94" y="-37.8" font-family="Times,serif" font-size="14.00">samples = 1</text>
<text text-anchor="middle" x="94" y="-22.8" font-family="Times,serif" font-size="14.00">value = [0.96, 0.0]</text>
<text text-anchor="middle" x="94" y="-7.8" font-family="Times,serif" font-size="14.00">class = Non&#45;obstructive</text>
</g>
<!-- 4&#45;&gt;5 -->
<g id="edge5" class="edge">
<title>4&#45;&gt;5</title>
<path fill="none" stroke="black" d="M214.22,-118.87C198.5,-108.88 181.97,-98.38 166.37,-88.47"/>
<polygon fill="black" stroke="black" points="168.13,-85.44 157.81,-83.03 164.37,-91.35 168.13,-85.44"/>
</g>
<!-- 6 -->
<g id="node7" class="node">
<title>6</title>
<polygon fill="none" stroke="black" points="382,-83 206,-83 206,0 382,0 382,-83"/>
<text text-anchor="middle" x="294" y="-67.8" font-family="Times,serif" font-size="14.00">node #6</text>
<text text-anchor="middle" x="294" y="-52.8" font-family="Times,serif" font-size="14.00">gini = 0.109</text>
<text text-anchor="middle" x="294" y="-37.8" font-family="Times,serif" font-size="14.00">samples = 9</text>
<text text-anchor="middle" x="294" y="-22.8" font-family="Times,serif" font-size="14.00">value = [0.96, 15.656]</text>
<text text-anchor="middle" x="294" y="-7.8" font-family="Times,serif" font-size="14.00">class = Obstructive</text>
</g>
<!-- 4&#45;&gt;6 -->
<g id="edge6" class="edge">
<title>4&#45;&gt;6</title>
<path fill="none" stroke="black" d="M291.55,-118.87C291.82,-110.5 292.1,-101.77 292.37,-93.33"/>
<polygon fill="black" stroke="black" points="295.87,-93.34 292.69,-83.23 288.87,-93.11 295.87,-93.34"/>
</g>
<!-- 8 -->
<g id="node9" class="node">
<title>8</title>
<polygon fill="none" stroke="black" points="584,-209.5 396,-209.5 396,-126.5 584,-126.5 584,-209.5"/>
<text text-anchor="middle" x="490" y="-194.3" font-family="Times,serif" font-size="14.00">node #8</text>
<text text-anchor="middle" x="490" y="-179.3" font-family="Times,serif" font-size="14.00">gini = 0.0</text>
<text text-anchor="middle" x="490" y="-164.3" font-family="Times,serif" font-size="14.00">samples = 8</text>
<text text-anchor="middle" x="490" y="-149.3" font-family="Times,serif" font-size="14.00">value = [11.517, 0.0]</text>
<text text-anchor="middle" x="490" y="-134.3" font-family="Times,serif" font-size="14.00">class = Non&#45;obstructive</text>
</g>
<!-- 7&#45;&gt;8 -->
<g id="edge8" class="edge">
<title>7&#45;&gt;8</title>
<path fill="none" stroke="black" d="M554.25,-252.97C545.54,-241.58 536.23,-229.42 527.48,-217.99"/>
<polygon fill="black" stroke="black" points="530.09,-215.63 521.23,-209.82 524.53,-219.89 530.09,-215.63"/>
</g>
<!-- 9 -->
<g id="node10" class="node">
<title>9</title>
<polygon fill="none" stroke="black" points="778,-217 602,-217 602,-119 778,-119 778,-217"/>
<text text-anchor="middle" x="690" y="-201.8" font-family="Times,serif" font-size="14.00">node #9</text>
<text text-anchor="middle" x="690" y="-186.8" font-family="Times,serif" font-size="14.00">FVCPostVal &lt;= 2.245</text>
<text text-anchor="middle" x="690" y="-171.8" font-family="Times,serif" font-size="14.00">gini = 0.304</text>
<text text-anchor="middle" x="690" y="-156.8" font-family="Times,serif" font-size="14.00">samples = 41</text>
<text text-anchor="middle" x="690" y="-141.8" font-family="Times,serif" font-size="14.00">value = [11.517, 50.1]</text>
<text text-anchor="middle" x="690" y="-126.8" font-family="Times,serif" font-size="14.00">class = Obstructive</text>
</g>
<!-- 7&#45;&gt;9 -->
<g id="edge9" class="edge">
<title>7&#45;&gt;9</title>
<path fill="none" stroke="black" d="M627.02,-252.97C633.78,-243.96 640.9,-234.47 647.82,-225.24"/>
<polygon fill="black" stroke="black" points="650.64,-227.31 653.84,-217.21 645.04,-223.11 650.64,-227.31"/>
</g>
<!-- 10 -->
<g id="node11" class="node">
<title>10</title>
<polygon fill="none" stroke="black" points="580,-83 404,-83 404,0 580,0 580,-83"/>
<text text-anchor="middle" x="492" y="-67.8" font-family="Times,serif" font-size="14.00">node #10</text>
<text text-anchor="middle" x="492" y="-52.8" font-family="Times,serif" font-size="14.00">gini = 0.495</text>
<text text-anchor="middle" x="492" y="-37.8" font-family="Times,serif" font-size="14.00">samples = 11</text>
<text text-anchor="middle" x="492" y="-22.8" font-family="Times,serif" font-size="14.00">value = [7.678, 9.394]</text>
<text text-anchor="middle" x="492" y="-7.8" font-family="Times,serif" font-size="14.00">class = Obstructive</text>
</g>
<!-- 9&#45;&gt;10 -->
<g id="edge10" class="edge">
<title>9&#45;&gt;10</title>
<path fill="none" stroke="black" d="M613.45,-118.87C597.56,-108.88 580.86,-98.38 565.11,-88.47"/>
<polygon fill="black" stroke="black" points="566.79,-85.39 556.46,-83.03 563.06,-91.32 566.79,-85.39"/>
</g>
<!-- 11 -->
<g id="node12" class="node">
<title>11</title>
<polygon fill="none" stroke="black" points="782.5,-83 597.5,-83 597.5,0 782.5,0 782.5,-83"/>
<text text-anchor="middle" x="690" y="-67.8" font-family="Times,serif" font-size="14.00">node #11</text>
<text text-anchor="middle" x="690" y="-52.8" font-family="Times,serif" font-size="14.00">gini = 0.158</text>
<text text-anchor="middle" x="690" y="-37.8" font-family="Times,serif" font-size="14.00">samples = 30</text>
<text text-anchor="middle" x="690" y="-22.8" font-family="Times,serif" font-size="14.00">value = [3.839, 40.706]</text>
<text text-anchor="middle" x="690" y="-7.8" font-family="Times,serif" font-size="14.00">class = Obstructive</text>
</g>
<!-- 9&#45;&gt;11 -->
<g id="edge11" class="edge">
<title>9&#45;&gt;11</title>
<path fill="none" stroke="black" d="M690,-118.87C690,-110.5 690,-101.77 690,-93.33"/>
<polygon fill="black" stroke="black" points="693.5,-93.23 690,-83.23 686.5,-93.23 693.5,-93.23"/>
</g>
<!-- 13 -->
<g id="node14" class="node">
<title>13</title>
<polygon fill="none" stroke="black" points="1276,-351 1082,-351 1082,-253 1276,-253 1276,-351"/>
<text text-anchor="middle" x="1179" y="-335.8" font-family="Times,serif" font-size="14.00">node #13</text>
<text text-anchor="middle" x="1179" y="-320.8" font-family="Times,serif" font-size="14.00">FEV1PostVal &lt;= 2.45</text>
<text text-anchor="middle" x="1179" y="-305.8" font-family="Times,serif" font-size="14.00">gini = 0.088</text>
<text text-anchor="middle" x="1179" y="-290.8" font-family="Times,serif" font-size="14.00">samples = 71</text>
<text text-anchor="middle" x="1179" y="-275.8" font-family="Times,serif" font-size="14.00">value = [108.454, 5.219]</text>
<text text-anchor="middle" x="1179" y="-260.8" font-family="Times,serif" font-size="14.00">class = Non&#45;obstructive</text>
</g>
<!-- 12&#45;&gt;13 -->
<g id="edge13" class="edge">
<title>12&#45;&gt;13</title>
<path fill="none" stroke="black" d="M1179,-386.97C1179,-378.69 1179,-370 1179,-361.48"/>
<polygon fill="black" stroke="black" points="1182.5,-361.21 1179,-351.21 1175.5,-361.21 1182.5,-361.21"/>
</g>
<!-- 20 -->
<g id="node21" class="node">
<title>20</title>
<polygon fill="none" stroke="black" points="1760,-351 1566,-351 1566,-253 1760,-253 1760,-351"/>
<text text-anchor="middle" x="1663" y="-335.8" font-family="Times,serif" font-size="14.00">node #20</text>
<text text-anchor="middle" x="1663" y="-320.8" font-family="Times,serif" font-size="14.00">FEFPostVal &lt;= 3.96</text>
<text text-anchor="middle" x="1663" y="-305.8" font-family="Times,serif" font-size="14.00">gini = 0.486</text>
<text text-anchor="middle" x="1663" y="-290.8" font-family="Times,serif" font-size="14.00">samples = 50</text>
<text text-anchor="middle" x="1663" y="-275.8" font-family="Times,serif" font-size="14.00">value = [33.592, 46.969]</text>
<text text-anchor="middle" x="1663" y="-260.8" font-family="Times,serif" font-size="14.00">class = Obstructive</text>
</g>
<!-- 12&#45;&gt;20 -->
<g id="edge20" class="edge">
<title>12&#45;&gt;20</title>
<path fill="none" stroke="black" d="M1280.76,-407.25C1361.49,-385.23 1474.02,-354.54 1556.07,-332.16"/>
<polygon fill="black" stroke="black" points="1557.19,-335.48 1565.92,-329.48 1555.35,-328.73 1557.19,-335.48"/>
</g>
<!-- 14 -->
<g id="node15" class="node">
<title>14</title>
<polygon fill="none" stroke="black" points="1173,-217 973,-217 973,-119 1173,-119 1173,-217"/>
<text text-anchor="middle" x="1073" y="-201.8" font-family="Times,serif" font-size="14.00">node #14</text>
<text text-anchor="middle" x="1073" y="-186.8" font-family="Times,serif" font-size="14.00">FEV1PrePercent &lt;= 90.5</text>
<text text-anchor="middle" x="1073" y="-171.8" font-family="Times,serif" font-size="14.00">gini = 0.056</text>
<text text-anchor="middle" x="1073" y="-156.8" font-family="Times,serif" font-size="14.00">samples = 68</text>
<text text-anchor="middle" x="1073" y="-141.8" font-family="Times,serif" font-size="14.00">value = [105.575, 3.131]</text>
<text text-anchor="middle" x="1073" y="-126.8" font-family="Times,serif" font-size="14.00">class = Non&#45;obstructive</text>
</g>
<!-- 13&#45;&gt;14 -->
<g id="edge14" class="edge">
<title>13&#45;&gt;14</title>
<path fill="none" stroke="black" d="M1140.43,-252.97C1133.2,-243.96 1125.58,-234.47 1118.16,-225.24"/>
<polygon fill="black" stroke="black" points="1120.71,-222.82 1111.72,-217.21 1115.25,-227.2 1120.71,-222.82"/>
</g>
<!-- 17 -->
<g id="node18" class="node">
<title>17</title>
<polygon fill="none" stroke="black" points="1379,-217 1191,-217 1191,-119 1379,-119 1379,-217"/>
<text text-anchor="middle" x="1285" y="-201.8" font-family="Times,serif" font-size="14.00">node #17</text>
<text text-anchor="middle" x="1285" y="-186.8" font-family="Times,serif" font-size="14.00">FEFPreVal &lt;= 2.93</text>
<text text-anchor="middle" x="1285" y="-171.8" font-family="Times,serif" font-size="14.00">gini = 0.487</text>
<text text-anchor="middle" x="1285" y="-156.8" font-family="Times,serif" font-size="14.00">samples = 3</text>
<text text-anchor="middle" x="1285" y="-141.8" font-family="Times,serif" font-size="14.00">value = [2.879, 2.088]</text>
<text text-anchor="middle" x="1285" y="-126.8" font-family="Times,serif" font-size="14.00">class = Non&#45;obstructive</text>
</g>
<!-- 13&#45;&gt;17 -->
<g id="edge17" class="edge">
<title>13&#45;&gt;17</title>
<path fill="none" stroke="black" d="M1217.57,-252.97C1224.8,-243.96 1232.42,-234.47 1239.84,-225.24"/>
<polygon fill="black" stroke="black" points="1242.75,-227.2 1246.28,-217.21 1237.29,-222.82 1242.75,-227.2"/>
</g>
<!-- 15 -->
<g id="node16" class="node">
<title>15</title>
<polygon fill="none" stroke="black" points="994,-83 800,-83 800,0 994,0 994,-83"/>
<text text-anchor="middle" x="897" y="-67.8" font-family="Times,serif" font-size="14.00">node #15</text>
<text text-anchor="middle" x="897" y="-52.8" font-family="Times,serif" font-size="14.00">gini = 0.038</text>
<text text-anchor="middle" x="897" y="-37.8" font-family="Times,serif" font-size="14.00">samples = 67</text>
<text text-anchor="middle" x="897" y="-22.8" font-family="Times,serif" font-size="14.00">value = [105.575, 2.088]</text>
<text text-anchor="middle" x="897" y="-7.8" font-family="Times,serif" font-size="14.00">class = Non&#45;obstructive</text>
</g>
<!-- 14&#45;&gt;15 -->
<g id="edge15" class="edge">
<title>14&#45;&gt;15</title>
<path fill="none" stroke="black" d="M1004.95,-118.87C991.1,-109.06 976.54,-98.77 962.76,-89.02"/>
<polygon fill="black" stroke="black" points="964.48,-85.95 954.3,-83.03 960.44,-91.66 964.48,-85.95"/>
</g>
<!-- 16 -->
<g id="node17" class="node">
<title>16</title>
<polygon fill="none" stroke="black" points="1170,-83 1012,-83 1012,0 1170,0 1170,-83"/>
<text text-anchor="middle" x="1091" y="-67.8" font-family="Times,serif" font-size="14.00">node #16</text>
<text text-anchor="middle" x="1091" y="-52.8" font-family="Times,serif" font-size="14.00">gini = 0.0</text>
<text text-anchor="middle" x="1091" y="-37.8" font-family="Times,serif" font-size="14.00">samples = 1</text>
<text text-anchor="middle" x="1091" y="-22.8" font-family="Times,serif" font-size="14.00">value = [0.0, 1.044]</text>
<text text-anchor="middle" x="1091" y="-7.8" font-family="Times,serif" font-size="14.00">class = Obstructive</text>
</g>
<!-- 14&#45;&gt;16 -->
<g id="edge16" class="edge">
<title>14&#45;&gt;16</title>
<path fill="none" stroke="black" d="M1079.96,-118.87C1081.17,-110.5 1082.43,-101.77 1083.65,-93.33"/>
<polygon fill="black" stroke="black" points="1087.14,-93.63 1085.11,-83.23 1080.22,-92.63 1087.14,-93.63"/>
</g>
<!-- 18 -->
<g id="node19" class="node">
<title>18</title>
<polygon fill="none" stroke="black" points="1346,-83 1188,-83 1188,0 1346,0 1346,-83"/>
<text text-anchor="middle" x="1267" y="-67.8" font-family="Times,serif" font-size="14.00">node #18</text>
<text text-anchor="middle" x="1267" y="-52.8" font-family="Times,serif" font-size="14.00">gini = 0.0</text>
<text text-anchor="middle" x="1267" y="-37.8" font-family="Times,serif" font-size="14.00">samples = 1</text>
<text text-anchor="middle" x="1267" y="-22.8" font-family="Times,serif" font-size="14.00">value = [0.0, 2.088]</text>
<text text-anchor="middle" x="1267" y="-7.8" font-family="Times,serif" font-size="14.00">class = Obstructive</text>
</g>
<!-- 17&#45;&gt;18 -->
<g id="edge18" class="edge">
<title>17&#45;&gt;18</title>
<path fill="none" stroke="black" d="M1278.04,-118.87C1276.83,-110.5 1275.57,-101.77 1274.35,-93.33"/>
<polygon fill="black" stroke="black" points="1277.78,-92.63 1272.89,-83.23 1270.86,-93.63 1277.78,-92.63"/>
</g>
<!-- 19 -->
<g id="node20" class="node">
<title>19</title>
<polygon fill="none" stroke="black" points="1552,-83 1364,-83 1364,0 1552,0 1552,-83"/>
<text text-anchor="middle" x="1458" y="-67.8" font-family="Times,serif" font-size="14.00">node #19</text>
<text text-anchor="middle" x="1458" y="-52.8" font-family="Times,serif" font-size="14.00">gini = &#45;0.0</text>
<text text-anchor="middle" x="1458" y="-37.8" font-family="Times,serif" font-size="14.00">samples = 2</text>
<text text-anchor="middle" x="1458" y="-22.8" font-family="Times,serif" font-size="14.00">value = [2.879, 0.0]</text>
<text text-anchor="middle" x="1458" y="-7.8" font-family="Times,serif" font-size="14.00">class = Non&#45;obstructive</text>
</g>
<!-- 17&#45;&gt;19 -->
<g id="edge19" class="edge">
<title>17&#45;&gt;19</title>
<path fill="none" stroke="black" d="M1351.89,-118.87C1365.51,-109.06 1379.82,-98.77 1393.36,-89.02"/>
<polygon fill="black" stroke="black" points="1395.61,-91.71 1401.68,-83.03 1391.52,-86.03 1395.61,-91.71"/>
</g>
<!-- 21 -->
<g id="node22" class="node">
<title>21</title>
<polygon fill="none" stroke="black" points="1766,-217 1560,-217 1560,-119 1766,-119 1766,-217"/>
<text text-anchor="middle" x="1663" y="-201.8" font-family="Times,serif" font-size="14.00">node #21</text>
<text text-anchor="middle" x="1663" y="-186.8" font-family="Times,serif" font-size="14.00">FEV1PostPercent &lt;= 80.5</text>
<text text-anchor="middle" x="1663" y="-171.8" font-family="Times,serif" font-size="14.00">gini = 0.5</text>
<text text-anchor="middle" x="1663" y="-156.8" font-family="Times,serif" font-size="14.00">samples = 43</text>
<text text-anchor="middle" x="1663" y="-141.8" font-family="Times,serif" font-size="14.00">value = [33.592, 34.444]</text>
<text text-anchor="middle" x="1663" y="-126.8" font-family="Times,serif" font-size="14.00">class = Obstructive</text>
</g>
<!-- 20&#45;&gt;21 -->
<g id="edge21" class="edge">
<title>20&#45;&gt;21</title>
<path fill="none" stroke="black" d="M1663,-252.97C1663,-244.69 1663,-236 1663,-227.48"/>
<polygon fill="black" stroke="black" points="1666.5,-227.21 1663,-217.21 1659.5,-227.21 1666.5,-227.21"/>
</g>
<!-- 24 -->
<g id="node25" class="node">
<title>24</title>
<polygon fill="none" stroke="black" points="1951.5,-209.5 1784.5,-209.5 1784.5,-126.5 1951.5,-126.5 1951.5,-209.5"/>
<text text-anchor="middle" x="1868" y="-194.3" font-family="Times,serif" font-size="14.00">node #24</text>
<text text-anchor="middle" x="1868" y="-179.3" font-family="Times,serif" font-size="14.00">gini = &#45;0.0</text>
<text text-anchor="middle" x="1868" y="-164.3" font-family="Times,serif" font-size="14.00">samples = 7</text>
<text text-anchor="middle" x="1868" y="-149.3" font-family="Times,serif" font-size="14.00">value = [0.0, 12.525]</text>
<text text-anchor="middle" x="1868" y="-134.3" font-family="Times,serif" font-size="14.00">class = Obstructive</text>
</g>
<!-- 20&#45;&gt;24 -->
<g id="edge24" class="edge">
<title>20&#45;&gt;24</title>
<path fill="none" stroke="black" d="M1737.59,-252.97C1756.75,-240.63 1777.32,-227.39 1796.33,-215.15"/>
<polygon fill="black" stroke="black" points="1798.43,-217.96 1804.94,-209.6 1794.64,-212.07 1798.43,-217.96"/>
</g>
<!-- 22 -->
<g id="node23" class="node">
<title>22</title>
<polygon fill="none" stroke="black" points="1755.5,-83 1570.5,-83 1570.5,0 1755.5,0 1755.5,-83"/>
<text text-anchor="middle" x="1663" y="-67.8" font-family="Times,serif" font-size="14.00">node #22</text>
<text text-anchor="middle" x="1663" y="-52.8" font-family="Times,serif" font-size="14.00">gini = 0.359</text>
<text text-anchor="middle" x="1663" y="-37.8" font-family="Times,serif" font-size="14.00">samples = 18</text>
<text text-anchor="middle" x="1663" y="-22.8" font-family="Times,serif" font-size="14.00">value = [6.718, 21.919]</text>
<text text-anchor="middle" x="1663" y="-7.8" font-family="Times,serif" font-size="14.00">class = Obstructive</text>
</g>
<!-- 21&#45;&gt;22 -->
<g id="edge22" class="edge">
<title>21&#45;&gt;22</title>
<path fill="none" stroke="black" d="M1663,-118.87C1663,-110.5 1663,-101.77 1663,-93.33"/>
<polygon fill="black" stroke="black" points="1666.5,-93.23 1663,-83.23 1659.5,-93.23 1666.5,-93.23"/>
</g>
<!-- 23 -->
<g id="node24" class="node">
<title>23</title>
<polygon fill="none" stroke="black" points="1967,-83 1773,-83 1773,0 1967,0 1967,-83"/>
<text text-anchor="middle" x="1870" y="-67.8" font-family="Times,serif" font-size="14.00">node #23</text>
<text text-anchor="middle" x="1870" y="-52.8" font-family="Times,serif" font-size="14.00">gini = 0.434</text>
<text text-anchor="middle" x="1870" y="-37.8" font-family="Times,serif" font-size="14.00">samples = 25</text>
<text text-anchor="middle" x="1870" y="-22.8" font-family="Times,serif" font-size="14.00">value = [26.874, 12.525]</text>
<text text-anchor="middle" x="1870" y="-7.8" font-family="Times,serif" font-size="14.00">class = Non&#45;obstructive</text>
</g>
<!-- 21&#45;&gt;23 -->
<g id="edge23" class="edge">
<title>21&#45;&gt;23</title>
<path fill="none" stroke="black" d="M1743.03,-118.87C1759.79,-108.78 1777.42,-98.18 1794.03,-88.19"/>
<polygon fill="black" stroke="black" points="1795.84,-91.19 1802.61,-83.03 1792.24,-85.19 1795.84,-91.19"/>
</g>
</g>
</svg>
