<?xml version="1.0" encoding="UTF-8" standalone="no"?>
<!DOCTYPE svg PUBLIC "-//W3C//DTD SVG 1.1//EN"
 "http://www.w3.org/Graphics/SVG/1.1/DTD/svg11.dtd">
<!-- Generated by graphviz version 2.43.0 (0)
 -->
<!-- Title: Tree Pages: 1 -->
<svg width="2110pt" height="627pt"
 viewBox="0.00 0.00 2110.00 627.00" xmlns="http://www.w3.org/2000/svg" xmlns:xlink="http://www.w3.org/1999/xlink">
<g id="graph0" class="graph" transform="scale(1 1) rotate(0) translate(4 623)">
<title>Tree</title>
<polygon fill="white" stroke="transparent" points="-4,4 -4,-623 2106,-623 2106,4 -4,4"/>
<!-- 0 -->
<g id="node1" class="node">
<title>0</title>
<polygon fill="none" stroke="black" points="1040.5,-619 831.5,-619 831.5,-521 1040.5,-521 1040.5,-619"/>
<text text-anchor="middle" x="936" y="-603.8" font-family="Times,serif" font-size="14.00">node #0</text>
<text text-anchor="middle" x="936" y="-588.8" font-family="Times,serif" font-size="14.00">FEFPrePercent &lt;= 35.275</text>
<text text-anchor="middle" x="936" y="-573.8" font-family="Times,serif" font-size="14.00">gini = 0.5</text>
<text text-anchor="middle" x="936" y="-558.8" font-family="Times,serif" font-size="14.00">samples = 211</text>
<text text-anchor="middle" x="936" y="-543.8" font-family="Times,serif" font-size="14.00">value = [167.0, 167.0]</text>
<text text-anchor="middle" x="936" y="-528.8" font-family="Times,serif" font-size="14.00">class = Obstructive</text>
</g>
<!-- 1 -->
<g id="node2" class="node">
<title>1</title>
<polygon fill="none" stroke="black" points="856.5,-485 653.5,-485 653.5,-387 856.5,-387 856.5,-485"/>
<text text-anchor="middle" x="755" y="-469.8" font-family="Times,serif" font-size="14.00">node #1</text>
<text text-anchor="middle" x="755" y="-454.8" font-family="Times,serif" font-size="14.00">FEFPostPercent &lt;= 45.0</text>
<text text-anchor="middle" x="755" y="-439.8" font-family="Times,serif" font-size="14.00">gini = 0.212</text>
<text text-anchor="middle" x="755" y="-424.8" font-family="Times,serif" font-size="14.00">samples = 73</text>
<text text-anchor="middle" x="755" y="-409.8" font-family="Times,serif" font-size="14.00">value = [13.917, 101.608]</text>
<text text-anchor="middle" x="755" y="-394.8" font-family="Times,serif" font-size="14.00">class = Obstructive</text>
</g>
<!-- 0&#45;&gt;1 -->
<g id="edge1" class="edge">
<title>0&#45;&gt;1</title>
<path fill="none" stroke="black" d="M870.14,-520.97C856.92,-511.33 842.93,-501.13 829.44,-491.29"/>
<polygon fill="black" stroke="black" points="831.25,-488.28 821.11,-485.21 827.13,-493.93 831.25,-488.28"/>
<text text-anchor="middle" x="824.98" y="-506.21" font-family="Times,serif" font-size="14.00">True</text>
</g>
<!-- 12 -->
<g id="node13" class="node">
<title>12</title>
<polygon fill="none" stroke="black" points="1245.5,-485 1042.5,-485 1042.5,-387 1245.5,-387 1245.5,-485"/>
<text text-anchor="middle" x="1144" y="-469.8" font-family="Times,serif" font-size="14.00">node #12</text>
<text text-anchor="middle" x="1144" y="-454.8" font-family="Times,serif" font-size="14.00">FVCPostVal &lt;= 2.22</text>
<text text-anchor="middle" x="1144" y="-439.8" font-family="Times,serif" font-size="14.00">gini = 0.419</text>
<text text-anchor="middle" x="1144" y="-424.8" font-family="Times,serif" font-size="14.00">samples = 138</text>
<text text-anchor="middle" x="1144" y="-409.8" font-family="Times,serif" font-size="14.00">value = [153.083, 65.392]</text>
<text text-anchor="middle" x="1144" y="-394.8" font-family="Times,serif" font-size="14.00">class = Non&#45;obstructive</text>
</g>
<!-- 0&#45;&gt;12 -->
<g id="edge12" class="edge">
<title>0&#45;&gt;12</title>
<path fill="none" stroke="black" d="M1011.68,-520.97C1027.17,-511.14 1043.56,-500.74 1059.33,-490.73"/>
<polygon fill="black" stroke="black" points="1061.46,-493.53 1068.03,-485.21 1057.71,-487.62 1061.46,-493.53"/>
<text text-anchor="middle" x="1062.57" y="-505.91" font-family="Times,serif" font-size="14.00">False</text>
</g>
<!-- 2 -->
<g id="node3" class="node">
<title>2</title>
<polygon fill="none" stroke="black" points="567.5,-351 382.5,-351 382.5,-253 567.5,-253 567.5,-351"/>
<text text-anchor="middle" x="475" y="-335.8" font-family="Times,serif" font-size="14.00">node #2</text>
<text text-anchor="middle" x="475" y="-320.8" font-family="Times,serif" font-size="14.00">FVCPostVal &lt;= 1.415</text>
<text text-anchor="middle" x="475" y="-305.8" font-family="Times,serif" font-size="14.00">gini = 0.18</text>
<text text-anchor="middle" x="475" y="-290.8" font-family="Times,serif" font-size="14.00">samples = 69</text>
<text text-anchor="middle" x="475" y="-275.8" font-family="Times,serif" font-size="14.00">value = [10.935, 98.59]</text>
<text text-anchor="middle" x="475" y="-260.8" font-family="Times,serif" font-size="14.00">class = Obstructive</text>
</g>
<!-- 1&#45;&gt;2 -->
<g id="edge2" class="edge">
<title>1&#45;&gt;2</title>
<path fill="none" stroke="black" d="M653.12,-386.97C628.19,-375.22 601.52,-362.65 576.6,-350.9"/>
<polygon fill="black" stroke="black" points="578.05,-347.71 567.51,-346.61 575.06,-354.04 578.05,-347.71"/>
</g>
<!-- 9 -->
<g id="node10" class="node">
<title>9</title>
<polygon fill="none" stroke="black" points="853.5,-351 656.5,-351 656.5,-253 853.5,-253 853.5,-351"/>
<text text-anchor="middle" x="755" y="-335.8" font-family="Times,serif" font-size="14.00">node #9</text>
<text text-anchor="middle" x="755" y="-320.8" font-family="Times,serif" font-size="14.00">FEFPostPercent &lt;= 51.5</text>
<text text-anchor="middle" x="755" y="-305.8" font-family="Times,serif" font-size="14.00">gini = 0.5</text>
<text text-anchor="middle" x="755" y="-290.8" font-family="Times,serif" font-size="14.00">samples = 4</text>
<text text-anchor="middle" x="755" y="-275.8" font-family="Times,serif" font-size="14.00">value = [2.982, 3.018]</text>
<text text-anchor="middle" x="755" y="-260.8" font-family="Times,serif" font-size="14.00">class = Obstructive</text>
</g>
<!-- 1&#45;&gt;9 -->
<g id="edge9" class="edge">
<title>1&#45;&gt;9</title>
<path fill="none" stroke="black" d="M755,-386.97C755,-378.69 755,-370 755,-361.48"/>
<polygon fill="black" stroke="black" points="758.5,-361.21 755,-351.21 751.5,-361.21 758.5,-361.21"/>
</g>
<!-- 3 -->
<g id="node4" class="node">
<title>3</title>
<polygon fill="none" stroke="black" points="364,-217 176,-217 176,-119 364,-119 364,-217"/>
<text text-anchor="middle" x="270" y="-201.8" font-family="Times,serif" font-size="14.00">node #3</text>
<text text-anchor="middle" x="270" y="-186.8" font-family="Times,serif" font-size="14.00">FEFPreVal &lt;= 0.335</text>
<text text-anchor="middle" x="270" y="-171.8" font-family="Times,serif" font-size="14.00">gini = 0.491</text>
<text text-anchor="middle" x="270" y="-156.8" font-family="Times,serif" font-size="14.00">samples = 10</text>
<text text-anchor="middle" x="270" y="-141.8" font-family="Times,serif" font-size="14.00">value = [7.952, 6.036]</text>
<text text-anchor="middle" x="270" y="-126.8" font-family="Times,serif" font-size="14.00">class = Non&#45;obstructive</text>
</g>
<!-- 2&#45;&gt;3 -->
<g id="edge3" class="edge">
<title>2&#45;&gt;3</title>
<path fill="none" stroke="black" d="M400.41,-252.97C385.15,-243.14 368.99,-232.74 353.44,-222.73"/>
<polygon fill="black" stroke="black" points="355.18,-219.68 344.88,-217.21 351.39,-225.57 355.18,-219.68"/>
</g>
<!-- 6 -->
<g id="node7" class="node">
<title>6</title>
<polygon fill="none" stroke="black" points="567.5,-217 382.5,-217 382.5,-119 567.5,-119 567.5,-217"/>
<text text-anchor="middle" x="475" y="-201.8" font-family="Times,serif" font-size="14.00">node #6</text>
<text text-anchor="middle" x="475" y="-186.8" font-family="Times,serif" font-size="14.00">FVCPostVal &lt;= 2.14</text>
<text text-anchor="middle" x="475" y="-171.8" font-family="Times,serif" font-size="14.00">gini = 0.06</text>
<text text-anchor="middle" x="475" y="-156.8" font-family="Times,serif" font-size="14.00">samples = 59</text>
<text text-anchor="middle" x="475" y="-141.8" font-family="Times,serif" font-size="14.00">value = [2.982, 92.554]</text>
<text text-anchor="middle" x="475" y="-126.8" font-family="Times,serif" font-size="14.00">class = Obstructive</text>
</g>
<!-- 2&#45;&gt;6 -->
<g id="edge6" class="edge">
<title>2&#45;&gt;6</title>
<path fill="none" stroke="black" d="M475,-252.97C475,-244.69 475,-236 475,-227.48"/>
<polygon fill="black" stroke="black" points="478.5,-227.21 475,-217.21 471.5,-227.21 478.5,-227.21"/>
</g>
<!-- 4 -->
<g id="node5" class="node">
<title>4</title>
<polygon fill="none" stroke="black" points="158,-83 0,-83 0,0 158,0 158,-83"/>
<text text-anchor="middle" x="79" y="-67.8" font-family="Times,serif" font-size="14.00">node #4</text>
<text text-anchor="middle" x="79" y="-52.8" font-family="Times,serif" font-size="14.00">gini = 0.0</text>
<text text-anchor="middle" x="79" y="-37.8" font-family="Times,serif" font-size="14.00">samples = 3</text>
<text text-anchor="middle" x="79" y="-22.8" font-family="Times,serif" font-size="14.00">value = [0.0, 3.018]</text>
<text text-anchor="middle" x="79" y="-7.8" font-family="Times,serif" font-size="14.00">class = Obstructive</text>
</g>
<!-- 3&#45;&gt;4 -->
<g id="edge4" class="edge">
<title>3&#45;&gt;4</title>
<path fill="none" stroke="black" d="M196.15,-118.87C180.97,-108.97 165.02,-98.57 149.95,-88.74"/>
<polygon fill="black" stroke="black" points="151.47,-85.56 141.18,-83.03 147.65,-91.43 151.47,-85.56"/>
</g>
<!-- 5 -->
<g id="node6" class="node">
<title>5</title>
<polygon fill="none" stroke="black" points="364,-83 176,-83 176,0 364,0 364,-83"/>
<text text-anchor="middle" x="270" y="-67.8" font-family="Times,serif" font-size="14.00">node #5</text>
<text text-anchor="middle" x="270" y="-52.8" font-family="Times,serif" font-size="14.00">gini = 0.399</text>
<text text-anchor="middle" x="270" y="-37.8" font-family="Times,serif" font-size="14.00">samples = 7</text>
<text text-anchor="middle" x="270" y="-22.8" font-family="Times,serif" font-size="14.00">value = [7.952, 3.018]</text>
<text text-anchor="middle" x="270" y="-7.8" font-family="Times,serif" font-size="14.00">class = Non&#45;obstructive</text>
</g>
<!-- 3&#45;&gt;5 -->
<g id="edge5" class="edge">
<title>3&#45;&gt;5</title>
<path fill="none" stroke="black" d="M270,-118.87C270,-110.5 270,-101.77 270,-93.33"/>
<polygon fill="black" stroke="black" points="273.5,-93.23 270,-83.23 266.5,-93.23 273.5,-93.23"/>
</g>
<!-- 7 -->
<g id="node8" class="node">
<title>7</title>
<polygon fill="none" stroke="black" points="567.5,-83 382.5,-83 382.5,0 567.5,0 567.5,-83"/>
<text text-anchor="middle" x="475" y="-67.8" font-family="Times,serif" font-size="14.00">node #7</text>
<text text-anchor="middle" x="475" y="-52.8" font-family="Times,serif" font-size="14.00">gini = 0.131</text>
<text text-anchor="middle" x="475" y="-37.8" font-family="Times,serif" font-size="14.00">samples = 28</text>
<text text-anchor="middle" x="475" y="-22.8" font-family="Times,serif" font-size="14.00">value = [2.982, 39.235]</text>
<text text-anchor="middle" x="475" y="-7.8" font-family="Times,serif" font-size="14.00">class = Obstructive</text>
</g>
<!-- 6&#45;&gt;7 -->
<g id="edge7" class="edge">
<title>6&#45;&gt;7</title>
<path fill="none" stroke="black" d="M475,-118.87C475,-110.5 475,-101.77 475,-93.33"/>
<polygon fill="black" stroke="black" points="478.5,-93.23 475,-83.23 471.5,-93.23 478.5,-93.23"/>
</g>
<!-- 8 -->
<g id="node9" class="node">
<title>8</title>
<polygon fill="none" stroke="black" points="752.5,-83 585.5,-83 585.5,0 752.5,0 752.5,-83"/>
<text text-anchor="middle" x="669" y="-67.8" font-family="Times,serif" font-size="14.00">node #8</text>
<text text-anchor="middle" x="669" y="-52.8" font-family="Times,serif" font-size="14.00">gini = 0.0</text>
<text text-anchor="middle" x="669" y="-37.8" font-family="Times,serif" font-size="14.00">samples = 31</text>
<text text-anchor="middle" x="669" y="-22.8" font-family="Times,serif" font-size="14.00">value = [0.0, 53.319]</text>
<text text-anchor="middle" x="669" y="-7.8" font-family="Times,serif" font-size="14.00">class = Obstructive</text>
</g>
<!-- 6&#45;&gt;8 -->
<g id="edge8" class="edge">
<title>6&#45;&gt;8</title>
<path fill="none" stroke="black" d="M550.01,-118.87C565.57,-108.88 581.93,-98.38 597.37,-88.47"/>
<polygon fill="black" stroke="black" points="599.32,-91.38 605.84,-83.03 595.53,-85.49 599.32,-91.38"/>
</g>
<!-- 10 -->
<g id="node11" class="node">
<title>10</title>
<polygon fill="none" stroke="black" points="774,-209.5 586,-209.5 586,-126.5 774,-126.5 774,-209.5"/>
<text text-anchor="middle" x="680" y="-194.3" font-family="Times,serif" font-size="14.00">node #10</text>
<text text-anchor="middle" x="680" y="-179.3" font-family="Times,serif" font-size="14.00">gini = 0.0</text>
<text text-anchor="middle" x="680" y="-164.3" font-family="Times,serif" font-size="14.00">samples = 2</text>
<text text-anchor="middle" x="680" y="-149.3" font-family="Times,serif" font-size="14.00">value = [2.982, 0.0]</text>
<text text-anchor="middle" x="680" y="-134.3" font-family="Times,serif" font-size="14.00">class = Non&#45;obstructive</text>
</g>
<!-- 9&#45;&gt;10 -->
<g id="edge10" class="edge">
<title>9&#45;&gt;10</title>
<path fill="none" stroke="black" d="M727.71,-252.97C721.37,-241.8 714.6,-229.89 708.21,-218.66"/>
<polygon fill="black" stroke="black" points="711.17,-216.78 703.19,-209.82 705.09,-220.24 711.17,-216.78"/>
</g>
<!-- 11 -->
<g id="node12" class="node">
<title>11</title>
<polygon fill="none" stroke="black" points="950,-209.5 792,-209.5 792,-126.5 950,-126.5 950,-209.5"/>
<text text-anchor="middle" x="871" y="-194.3" font-family="Times,serif" font-size="14.00">node #11</text>
<text text-anchor="middle" x="871" y="-179.3" font-family="Times,serif" font-size="14.00">gini = &#45;0.0</text>
<text text-anchor="middle" x="871" y="-164.3" font-family="Times,serif" font-size="14.00">samples = 2</text>
<text text-anchor="middle" x="871" y="-149.3" font-family="Times,serif" font-size="14.00">value = [0.0, 3.018]</text>
<text text-anchor="middle" x="871" y="-134.3" font-family="Times,serif" font-size="14.00">class = Obstructive</text>
</g>
<!-- 9&#45;&gt;11 -->
<g id="edge11" class="edge">
<title>9&#45;&gt;11</title>
<path fill="none" stroke="black" d="M797.21,-252.97C807.31,-241.47 818.11,-229.18 828.24,-217.66"/>
<polygon fill="black" stroke="black" points="831.16,-219.64 835.13,-209.82 825.9,-215.02 831.16,-219.64"/>
</g>
<!-- 13 -->
<g id="node14" class="node">
<title>13</title>
<polygon fill="none" stroke="black" points="1248.5,-351 1039.5,-351 1039.5,-253 1248.5,-253 1248.5,-351"/>
<text text-anchor="middle" x="1144" y="-335.8" font-family="Times,serif" font-size="14.00">node #13</text>
<text text-anchor="middle" x="1144" y="-320.8" font-family="Times,serif" font-size="14.00">FEV1PrePercent &lt;= 17.78</text>
<text text-anchor="middle" x="1144" y="-305.8" font-family="Times,serif" font-size="14.00">gini = 0.188</text>
<text text-anchor="middle" x="1144" y="-290.8" font-family="Times,serif" font-size="14.00">samples = 77</text>
<text text-anchor="middle" x="1144" y="-275.8" font-family="Times,serif" font-size="14.00">value = [111.333, 13.078]</text>
<text text-anchor="middle" x="1144" y="-260.8" font-family="Times,serif" font-size="14.00">class = Non&#45;obstructive</text>
</g>
<!-- 12&#45;&gt;13 -->
<g id="edge13" class="edge">
<title>12&#45;&gt;13</title>
<path fill="none" stroke="black" d="M1144,-386.97C1144,-378.69 1144,-370 1144,-361.48"/>
<polygon fill="black" stroke="black" points="1147.5,-361.21 1144,-351.21 1140.5,-361.21 1147.5,-361.21"/>
</g>
<!-- 18 -->
<g id="node19" class="node">
<title>18</title>
<polygon fill="none" stroke="black" points="1617.5,-351 1432.5,-351 1432.5,-253 1617.5,-253 1617.5,-351"/>
<text text-anchor="middle" x="1525" y="-335.8" font-family="Times,serif" font-size="14.00">node #18</text>
<text text-anchor="middle" x="1525" y="-320.8" font-family="Times,serif" font-size="14.00">FEFPostVal &lt;= 1.72</text>
<text text-anchor="middle" x="1525" y="-305.8" font-family="Times,serif" font-size="14.00">gini = 0.494</text>
<text text-anchor="middle" x="1525" y="-290.8" font-family="Times,serif" font-size="14.00">samples = 61</text>
<text text-anchor="middle" x="1525" y="-275.8" font-family="Times,serif" font-size="14.00">value = [41.75, 52.313]</text>
<text text-anchor="middle" x="1525" y="-260.8" font-family="Times,serif" font-size="14.00">class = Obstructive</text>
</g>
<!-- 12&#45;&gt;18 -->
<g id="edge18" class="edge">
<title>12&#45;&gt;18</title>
<path fill="none" stroke="black" d="M1245.6,-399.8C1300.4,-380.82 1367.84,-357.45 1422.74,-338.43"/>
<polygon fill="black" stroke="black" points="1424.18,-341.63 1432.49,-335.05 1421.89,-335.02 1424.18,-341.63"/>
</g>
<!-- 14 -->
<g id="node15" class="node">
<title>14</title>
<polygon fill="none" stroke="black" points="1126,-209.5 968,-209.5 968,-126.5 1126,-126.5 1126,-209.5"/>
<text text-anchor="middle" x="1047" y="-194.3" font-family="Times,serif" font-size="14.00">node #14</text>
<text text-anchor="middle" x="1047" y="-179.3" font-family="Times,serif" font-size="14.00">gini = 0.0</text>
<text text-anchor="middle" x="1047" y="-164.3" font-family="Times,serif" font-size="14.00">samples = 1</text>
<text text-anchor="middle" x="1047" y="-149.3" font-family="Times,serif" font-size="14.00">value = [0.0, 3.018]</text>
<text text-anchor="middle" x="1047" y="-134.3" font-family="Times,serif" font-size="14.00">class = Obstructive</text>
</g>
<!-- 13&#45;&gt;14 -->
<g id="edge14" class="edge">
<title>13&#45;&gt;14</title>
<path fill="none" stroke="black" d="M1108.71,-252.97C1100.34,-241.58 1091.4,-229.42 1083,-217.99"/>
<polygon fill="black" stroke="black" points="1085.74,-215.8 1076.99,-209.82 1080.1,-219.95 1085.74,-215.8"/>
</g>
<!-- 15 -->
<g id="node16" class="node">
<title>15</title>
<polygon fill="none" stroke="black" points="1338,-217 1144,-217 1144,-119 1338,-119 1338,-217"/>
<text text-anchor="middle" x="1241" y="-201.8" font-family="Times,serif" font-size="14.00">node #15</text>
<text text-anchor="middle" x="1241" y="-186.8" font-family="Times,serif" font-size="14.00">FEV1PostVal &lt;= 1.97</text>
<text text-anchor="middle" x="1241" y="-171.8" font-family="Times,serif" font-size="14.00">gini = 0.152</text>
<text text-anchor="middle" x="1241" y="-156.8" font-family="Times,serif" font-size="14.00">samples = 76</text>
<text text-anchor="middle" x="1241" y="-141.8" font-family="Times,serif" font-size="14.00">value = [111.333, 10.06]</text>
<text text-anchor="middle" x="1241" y="-126.8" font-family="Times,serif" font-size="14.00">class = Non&#45;obstructive</text>
</g>
<!-- 13&#45;&gt;15 -->
<g id="edge15" class="edge">
<title>13&#45;&gt;15</title>
<path fill="none" stroke="black" d="M1179.29,-252.97C1185.85,-244.05 1192.75,-234.66 1199.47,-225.52"/>
<polygon fill="black" stroke="black" points="1202.47,-227.34 1205.57,-217.21 1196.83,-223.2 1202.47,-227.34"/>
</g>
<!-- 16 -->
<g id="node17" class="node">
<title>16</title>
<polygon fill="none" stroke="black" points="1144,-83 950,-83 950,0 1144,0 1144,-83"/>
<text text-anchor="middle" x="1047" y="-67.8" font-family="Times,serif" font-size="14.00">node #16</text>
<text text-anchor="middle" x="1047" y="-52.8" font-family="Times,serif" font-size="14.00">gini = 0.139</text>
<text text-anchor="middle" x="1047" y="-37.8" font-family="Times,serif" font-size="14.00">samples = 75</text>
<text text-anchor="middle" x="1047" y="-22.8" font-family="Times,serif" font-size="14.00">value = [111.333, 9.054]</text>
<text text-anchor="middle" x="1047" y="-7.8" font-family="Times,serif" font-size="14.00">class = Non&#45;obstructive</text>
</g>
<!-- 15&#45;&gt;16 -->
<g id="edge16" class="edge">
<title>15&#45;&gt;16</title>
<path fill="none" stroke="black" d="M1165.99,-118.87C1150.43,-108.88 1134.07,-98.38 1118.63,-88.47"/>
<polygon fill="black" stroke="black" points="1120.47,-85.49 1110.16,-83.03 1116.68,-91.38 1120.47,-85.49"/>
</g>
<!-- 17 -->
<g id="node18" class="node">
<title>17</title>
<polygon fill="none" stroke="black" points="1320,-83 1162,-83 1162,0 1320,0 1320,-83"/>
<text text-anchor="middle" x="1241" y="-67.8" font-family="Times,serif" font-size="14.00">node #17</text>
<text text-anchor="middle" x="1241" y="-52.8" font-family="Times,serif" font-size="14.00">gini = 0.0</text>
<text text-anchor="middle" x="1241" y="-37.8" font-family="Times,serif" font-size="14.00">samples = 1</text>
<text text-anchor="middle" x="1241" y="-22.8" font-family="Times,serif" font-size="14.00">value = [0.0, 1.006]</text>
<text text-anchor="middle" x="1241" y="-7.8" font-family="Times,serif" font-size="14.00">class = Obstructive</text>
</g>
<!-- 15&#45;&gt;17 -->
<g id="edge17" class="edge">
<title>15&#45;&gt;17</title>
<path fill="none" stroke="black" d="M1241,-118.87C1241,-110.5 1241,-101.77 1241,-93.33"/>
<polygon fill="black" stroke="black" points="1244.5,-93.23 1241,-83.23 1237.5,-93.23 1244.5,-93.23"/>
</g>
<!-- 19 -->
<g id="node20" class="node">
<title>19</title>
<polygon fill="none" stroke="black" points="1620.5,-217 1429.5,-217 1429.5,-119 1620.5,-119 1620.5,-217"/>
<text text-anchor="middle" x="1525" y="-201.8" font-family="Times,serif" font-size="14.00">node #19</text>
<text text-anchor="middle" x="1525" y="-186.8" font-family="Times,serif" font-size="14.00">FEFPrePercent &lt;= 44.0</text>
<text text-anchor="middle" x="1525" y="-171.8" font-family="Times,serif" font-size="14.00">gini = 0.134</text>
<text text-anchor="middle" x="1525" y="-156.8" font-family="Times,serif" font-size="14.00">samples = 6</text>
<text text-anchor="middle" x="1525" y="-141.8" font-family="Times,serif" font-size="14.00">value = [12.923, 1.006]</text>
<text text-anchor="middle" x="1525" y="-126.8" font-family="Times,serif" font-size="14.00">class = Non&#45;obstructive</text>
</g>
<!-- 18&#45;&gt;19 -->
<g id="edge19" class="edge">
<title>18&#45;&gt;19</title>
<path fill="none" stroke="black" d="M1525,-252.97C1525,-244.69 1525,-236 1525,-227.48"/>
<polygon fill="black" stroke="black" points="1528.5,-227.21 1525,-217.21 1521.5,-227.21 1528.5,-227.21"/>
</g>
<!-- 22 -->
<g id="node23" class="node">
<title>22</title>
<polygon fill="none" stroke="black" points="1905,-217 1711,-217 1711,-119 1905,-119 1905,-217"/>
<text text-anchor="middle" x="1808" y="-201.8" font-family="Times,serif" font-size="14.00">node #22</text>
<text text-anchor="middle" x="1808" y="-186.8" font-family="Times,serif" font-size="14.00">FEFPreVal &lt;= 2.85</text>
<text text-anchor="middle" x="1808" y="-171.8" font-family="Times,serif" font-size="14.00">gini = 0.461</text>
<text text-anchor="middle" x="1808" y="-156.8" font-family="Times,serif" font-size="14.00">samples = 55</text>
<text text-anchor="middle" x="1808" y="-141.8" font-family="Times,serif" font-size="14.00">value = [28.827, 51.307]</text>
<text text-anchor="middle" x="1808" y="-126.8" font-family="Times,serif" font-size="14.00">class = Obstructive</text>
</g>
<!-- 18&#45;&gt;22 -->
<g id="edge22" class="edge">
<title>18&#45;&gt;22</title>
<path fill="none" stroke="black" d="M1617.66,-257.78C1644.46,-245.28 1673.91,-231.54 1701.48,-218.68"/>
<polygon fill="black" stroke="black" points="1703.17,-221.76 1710.75,-214.36 1700.21,-215.42 1703.17,-221.76"/>
</g>
<!-- 20 -->
<g id="node21" class="node">
<title>20</title>
<polygon fill="none" stroke="black" points="1496,-83 1338,-83 1338,0 1496,0 1496,-83"/>
<text text-anchor="middle" x="1417" y="-67.8" font-family="Times,serif" font-size="14.00">node #20</text>
<text text-anchor="middle" x="1417" y="-52.8" font-family="Times,serif" font-size="14.00">gini = 0.0</text>
<text text-anchor="middle" x="1417" y="-37.8" font-family="Times,serif" font-size="14.00">samples = 1</text>
<text text-anchor="middle" x="1417" y="-22.8" font-family="Times,serif" font-size="14.00">value = [0.0, 1.006]</text>
<text text-anchor="middle" x="1417" y="-7.8" font-family="Times,serif" font-size="14.00">class = Obstructive</text>
</g>
<!-- 19&#45;&gt;20 -->
<g id="edge20" class="edge">
<title>19&#45;&gt;20</title>
<path fill="none" stroke="black" d="M1483.24,-118.87C1475.27,-109.67 1466.92,-100.04 1458.93,-90.84"/>
<polygon fill="black" stroke="black" points="1461.53,-88.49 1452.33,-83.23 1456.24,-93.08 1461.53,-88.49"/>
</g>
<!-- 21 -->
<g id="node22" class="node">
<title>21</title>
<polygon fill="none" stroke="black" points="1702,-83 1514,-83 1514,0 1702,0 1702,-83"/>
<text text-anchor="middle" x="1608" y="-67.8" font-family="Times,serif" font-size="14.00">node #21</text>
<text text-anchor="middle" x="1608" y="-52.8" font-family="Times,serif" font-size="14.00">gini = 0.0</text>
<text text-anchor="middle" x="1608" y="-37.8" font-family="Times,serif" font-size="14.00">samples = 5</text>
<text text-anchor="middle" x="1608" y="-22.8" font-family="Times,serif" font-size="14.00">value = [12.923, 0.0]</text>
<text text-anchor="middle" x="1608" y="-7.8" font-family="Times,serif" font-size="14.00">class = Non&#45;obstructive</text>
</g>
<!-- 19&#45;&gt;21 -->
<g id="edge21" class="edge">
<title>19&#45;&gt;21</title>
<path fill="none" stroke="black" d="M1557.09,-118.87C1563.04,-109.95 1569.25,-100.62 1575.22,-91.67"/>
<polygon fill="black" stroke="black" points="1578.21,-93.49 1580.85,-83.23 1572.39,-89.61 1578.21,-93.49"/>
</g>
<!-- 23 -->
<g id="node24" class="node">
<title>23</title>
<polygon fill="none" stroke="black" points="1896,-83 1720,-83 1720,0 1896,0 1896,-83"/>
<text text-anchor="middle" x="1808" y="-67.8" font-family="Times,serif" font-size="14.00">node #23</text>
<text text-anchor="middle" x="1808" y="-52.8" font-family="Times,serif" font-size="14.00">gini = 0.338</text>
<text text-anchor="middle" x="1808" y="-37.8" font-family="Times,serif" font-size="14.00">samples = 32</text>
<text text-anchor="middle" x="1808" y="-22.8" font-family="Times,serif" font-size="14.00">value = [9.94, 36.217]</text>
<text text-anchor="middle" x="1808" y="-7.8" font-family="Times,serif" font-size="14.00">class = Obstructive</text>
</g>
<!-- 22&#45;&gt;23 -->
<g id="edge23" class="edge">
<title>22&#45;&gt;23</title>
<path fill="none" stroke="black" d="M1808,-118.87C1808,-110.5 1808,-101.77 1808,-93.33"/>
<polygon fill="black" stroke="black" points="1811.5,-93.23 1808,-83.23 1804.5,-93.23 1811.5,-93.23"/>
</g>
<!-- 24 -->
<g id="node25" class="node">
<title>24</title>
<polygon fill="none" stroke="black" points="2102,-83 1914,-83 1914,0 2102,0 2102,-83"/>
<text text-anchor="middle" x="2008" y="-67.8" font-family="Times,serif" font-size="14.00">node #24</text>
<text text-anchor="middle" x="2008" y="-52.8" font-family="Times,serif" font-size="14.00">gini = 0.494</text>
<text text-anchor="middle" x="2008" y="-37.8" font-family="Times,serif" font-size="14.00">samples = 23</text>
<text text-anchor="middle" x="2008" y="-22.8" font-family="Times,serif" font-size="14.00">value = [18.887, 15.09]</text>
<text text-anchor="middle" x="2008" y="-7.8" font-family="Times,serif" font-size="14.00">class = Non&#45;obstructive</text>
</g>
<!-- 22&#45;&gt;24 -->
<g id="edge24" class="edge">
<title>22&#45;&gt;24</title>
<path fill="none" stroke="black" d="M1885.33,-118.87C1901.37,-108.88 1918.24,-98.38 1934.15,-88.47"/>
<polygon fill="black" stroke="black" points="1936.25,-91.29 1942.89,-83.03 1932.55,-85.35 1936.25,-91.29"/>
</g>
</g>
</svg>
