<?xml version="1.0" encoding="UTF-8" standalone="no"?>
<!DOCTYPE svg PUBLIC "-//W3C//DTD SVG 1.1//EN"
 "http://www.w3.org/Graphics/SVG/1.1/DTD/svg11.dtd">
<!-- Generated by graphviz version 2.43.0 (0)
 -->
<!-- Title: Tree Pages: 1 -->
<svg width="2418pt" height="627pt"
 viewBox="0.00 0.00 2418.00 627.00" xmlns="http://www.w3.org/2000/svg" xmlns:xlink="http://www.w3.org/1999/xlink">
<g id="graph0" class="graph" transform="scale(1 1) rotate(0) translate(4 623)">
<title>Tree</title>
<polygon fill="white" stroke="transparent" points="-4,4 -4,-623 2414,-623 2414,4 -4,4"/>
<!-- 0 -->
<g id="node1" class="node">
<title>0</title>
<polygon fill="none" stroke="black" points="1199.5,-619 990.5,-619 990.5,-521 1199.5,-521 1199.5,-619"/>
<text text-anchor="middle" x="1095" y="-603.8" font-family="Times,serif" font-size="14.00">node #0</text>
<text text-anchor="middle" x="1095" y="-588.8" font-family="Times,serif" font-size="14.00">FEFPrePercent &lt;= 35.275</text>
<text text-anchor="middle" x="1095" y="-573.8" font-family="Times,serif" font-size="14.00">gini = 0.5</text>
<text text-anchor="middle" x="1095" y="-558.8" font-family="Times,serif" font-size="14.00">samples = 216</text>
<text text-anchor="middle" x="1095" y="-543.8" font-family="Times,serif" font-size="14.00">value = [167.0, 167.0]</text>
<text text-anchor="middle" x="1095" y="-528.8" font-family="Times,serif" font-size="14.00">class = Obstructive</text>
</g>
<!-- 1 -->
<g id="node2" class="node">
<title>1</title>
<polygon fill="none" stroke="black" points="907.5,-485 704.5,-485 704.5,-387 907.5,-387 907.5,-485"/>
<text text-anchor="middle" x="806" y="-469.8" font-family="Times,serif" font-size="14.00">node #1</text>
<text text-anchor="middle" x="806" y="-454.8" font-family="Times,serif" font-size="14.00">FVCPostVal &lt;= 1.505</text>
<text text-anchor="middle" x="806" y="-439.8" font-family="Times,serif" font-size="14.00">gini = 0.176</text>
<text text-anchor="middle" x="806" y="-424.8" font-family="Times,serif" font-size="14.00">samples = 75</text>
<text text-anchor="middle" x="806" y="-409.8" font-family="Times,serif" font-size="14.00">value = [11.788, 108.957]</text>
<text text-anchor="middle" x="806" y="-394.8" font-family="Times,serif" font-size="14.00">class = Obstructive</text>
</g>
<!-- 0&#45;&gt;1 -->
<g id="edge1" class="edge">
<title>0&#45;&gt;1</title>
<path fill="none" stroke="black" d="M990.26,-521.16C966.48,-510.3 941.14,-498.73 917.11,-487.75"/>
<polygon fill="black" stroke="black" points="918.52,-484.55 907.97,-483.58 915.61,-490.91 918.52,-484.55"/>
<text text-anchor="middle" x="916.71" y="-503.3" font-family="Times,serif" font-size="14.00">True</text>
</g>
<!-- 14 -->
<g id="node15" class="node">
<title>14</title>
<polygon fill="none" stroke="black" points="1440.5,-485 1237.5,-485 1237.5,-387 1440.5,-387 1440.5,-485"/>
<text text-anchor="middle" x="1339" y="-469.8" font-family="Times,serif" font-size="14.00">node #14</text>
<text text-anchor="middle" x="1339" y="-454.8" font-family="Times,serif" font-size="14.00">FVCPostPercent &lt;= 66.5</text>
<text text-anchor="middle" x="1339" y="-439.8" font-family="Times,serif" font-size="14.00">gini = 0.396</text>
<text text-anchor="middle" x="1339" y="-424.8" font-family="Times,serif" font-size="14.00">samples = 141</text>
<text text-anchor="middle" x="1339" y="-409.8" font-family="Times,serif" font-size="14.00">value = [155.212, 58.043]</text>
<text text-anchor="middle" x="1339" y="-394.8" font-family="Times,serif" font-size="14.00">class = Non&#45;obstructive</text>
</g>
<!-- 0&#45;&gt;14 -->
<g id="edge14" class="edge">
<title>0&#45;&gt;14</title>
<path fill="none" stroke="black" d="M1183.78,-520.97C1202.37,-510.92 1222.06,-500.26 1240.97,-490.04"/>
<polygon fill="black" stroke="black" points="1242.75,-493.05 1249.88,-485.21 1239.42,-486.89 1242.75,-493.05"/>
<text text-anchor="middle" x="1242.74" y="-505.47" font-family="Times,serif" font-size="14.00">False</text>
</g>
<!-- 2 -->
<g id="node3" class="node">
<title>2</title>
<polygon fill="none" stroke="black" points="596,-351 396,-351 396,-253 596,-253 596,-351"/>
<text text-anchor="middle" x="496" y="-335.8" font-family="Times,serif" font-size="14.00">node #2</text>
<text text-anchor="middle" x="496" y="-320.8" font-family="Times,serif" font-size="14.00">FEV1PrePercent &lt;= 40.0</text>
<text text-anchor="middle" x="496" y="-305.8" font-family="Times,serif" font-size="14.00">gini = 0.458</text>
<text text-anchor="middle" x="496" y="-290.8" font-family="Times,serif" font-size="14.00">samples = 13</text>
<text text-anchor="middle" x="496" y="-275.8" font-family="Times,serif" font-size="14.00">value = [7.859, 14.256]</text>
<text text-anchor="middle" x="496" y="-260.8" font-family="Times,serif" font-size="14.00">class = Obstructive</text>
</g>
<!-- 1&#45;&gt;2 -->
<g id="edge2" class="edge">
<title>1&#45;&gt;2</title>
<path fill="none" stroke="black" d="M704.49,-391.78C672.83,-378.3 637.78,-363.37 605.59,-349.66"/>
<polygon fill="black" stroke="black" points="606.72,-346.34 596.15,-345.64 603.98,-352.78 606.72,-346.34"/>
</g>
<!-- 7 -->
<g id="node8" class="node">
<title>7</title>
<polygon fill="none" stroke="black" points="898.5,-351 713.5,-351 713.5,-253 898.5,-253 898.5,-351"/>
<text text-anchor="middle" x="806" y="-335.8" font-family="Times,serif" font-size="14.00">node #7</text>
<text text-anchor="middle" x="806" y="-320.8" font-family="Times,serif" font-size="14.00">FEV1PostVal &lt;= 2.275</text>
<text text-anchor="middle" x="806" y="-305.8" font-family="Times,serif" font-size="14.00">gini = 0.077</text>
<text text-anchor="middle" x="806" y="-290.8" font-family="Times,serif" font-size="14.00">samples = 62</text>
<text text-anchor="middle" x="806" y="-275.8" font-family="Times,serif" font-size="14.00">value = [3.929, 94.701]</text>
<text text-anchor="middle" x="806" y="-260.8" font-family="Times,serif" font-size="14.00">class = Obstructive</text>
</g>
<!-- 1&#45;&gt;7 -->
<g id="edge7" class="edge">
<title>1&#45;&gt;7</title>
<path fill="none" stroke="black" d="M806,-386.97C806,-378.69 806,-370 806,-361.48"/>
<polygon fill="black" stroke="black" points="809.5,-361.21 806,-351.21 802.5,-361.21 809.5,-361.21"/>
</g>
<!-- 3 -->
<g id="node4" class="node">
<title>3</title>
<polygon fill="none" stroke="black" points="383.5,-217 198.5,-217 198.5,-119 383.5,-119 383.5,-217"/>
<text text-anchor="middle" x="291" y="-201.8" font-family="Times,serif" font-size="14.00">node #3</text>
<text text-anchor="middle" x="291" y="-186.8" font-family="Times,serif" font-size="14.00">FVCPostVal &lt;= 0.935</text>
<text text-anchor="middle" x="291" y="-171.8" font-family="Times,serif" font-size="14.00">gini = 0.339</text>
<text text-anchor="middle" x="291" y="-156.8" font-family="Times,serif" font-size="14.00">samples = 10</text>
<text text-anchor="middle" x="291" y="-141.8" font-family="Times,serif" font-size="14.00">value = [3.929, 14.256]</text>
<text text-anchor="middle" x="291" y="-126.8" font-family="Times,serif" font-size="14.00">class = Obstructive</text>
</g>
<!-- 2&#45;&gt;3 -->
<g id="edge3" class="edge">
<title>2&#45;&gt;3</title>
<path fill="none" stroke="black" d="M421.41,-252.97C406.15,-243.14 389.99,-232.74 374.44,-222.73"/>
<polygon fill="black" stroke="black" points="376.18,-219.68 365.88,-217.21 372.39,-225.57 376.18,-219.68"/>
</g>
<!-- 6 -->
<g id="node7" class="node">
<title>6</title>
<polygon fill="none" stroke="black" points="590,-209.5 402,-209.5 402,-126.5 590,-126.5 590,-209.5"/>
<text text-anchor="middle" x="496" y="-194.3" font-family="Times,serif" font-size="14.00">node #6</text>
<text text-anchor="middle" x="496" y="-179.3" font-family="Times,serif" font-size="14.00">gini = &#45;0.0</text>
<text text-anchor="middle" x="496" y="-164.3" font-family="Times,serif" font-size="14.00">samples = 3</text>
<text text-anchor="middle" x="496" y="-149.3" font-family="Times,serif" font-size="14.00">value = [3.929, 0.0]</text>
<text text-anchor="middle" x="496" y="-134.3" font-family="Times,serif" font-size="14.00">class = Non&#45;obstructive</text>
</g>
<!-- 2&#45;&gt;6 -->
<g id="edge6" class="edge">
<title>2&#45;&gt;6</title>
<path fill="none" stroke="black" d="M496,-252.97C496,-242.25 496,-230.84 496,-219.99"/>
<polygon fill="black" stroke="black" points="499.5,-219.82 496,-209.82 492.5,-219.82 499.5,-219.82"/>
</g>
<!-- 4 -->
<g id="node5" class="node">
<title>4</title>
<polygon fill="none" stroke="black" points="188,-83 0,-83 0,0 188,0 188,-83"/>
<text text-anchor="middle" x="94" y="-67.8" font-family="Times,serif" font-size="14.00">node #4</text>
<text text-anchor="middle" x="94" y="-52.8" font-family="Times,serif" font-size="14.00">gini = 0.382</text>
<text text-anchor="middle" x="94" y="-37.8" font-family="Times,serif" font-size="14.00">samples = 2</text>
<text text-anchor="middle" x="94" y="-22.8" font-family="Times,serif" font-size="14.00">value = [2.947, 1.018]</text>
<text text-anchor="middle" x="94" y="-7.8" font-family="Times,serif" font-size="14.00">class = Non&#45;obstructive</text>
</g>
<!-- 3&#45;&gt;4 -->
<g id="edge4" class="edge">
<title>3&#45;&gt;4</title>
<path fill="none" stroke="black" d="M214.83,-118.87C199.03,-108.88 182.42,-98.38 166.74,-88.47"/>
<polygon fill="black" stroke="black" points="168.46,-85.42 158.14,-83.03 164.72,-91.33 168.46,-85.42"/>
</g>
<!-- 5 -->
<g id="node6" class="node">
<title>5</title>
<polygon fill="none" stroke="black" points="391.5,-83 206.5,-83 206.5,0 391.5,0 391.5,-83"/>
<text text-anchor="middle" x="299" y="-67.8" font-family="Times,serif" font-size="14.00">node #5</text>
<text text-anchor="middle" x="299" y="-52.8" font-family="Times,serif" font-size="14.00">gini = 0.129</text>
<text text-anchor="middle" x="299" y="-37.8" font-family="Times,serif" font-size="14.00">samples = 8</text>
<text text-anchor="middle" x="299" y="-22.8" font-family="Times,serif" font-size="14.00">value = [0.982, 13.238]</text>
<text text-anchor="middle" x="299" y="-7.8" font-family="Times,serif" font-size="14.00">class = Obstructive</text>
</g>
<!-- 3&#45;&gt;5 -->
<g id="edge5" class="edge">
<title>3&#45;&gt;5</title>
<path fill="none" stroke="black" d="M294.09,-118.87C294.63,-110.5 295.19,-101.77 295.73,-93.33"/>
<polygon fill="black" stroke="black" points="299.23,-93.43 296.38,-83.23 292.25,-92.99 299.23,-93.43"/>
</g>
<!-- 8 -->
<g id="node9" class="node">
<title>8</title>
<polygon fill="none" stroke="black" points="799.5,-217 608.5,-217 608.5,-119 799.5,-119 799.5,-217"/>
<text text-anchor="middle" x="704" y="-201.8" font-family="Times,serif" font-size="14.00">node #8</text>
<text text-anchor="middle" x="704" y="-186.8" font-family="Times,serif" font-size="14.00">FVCPrePercent &lt;= 48.5</text>
<text text-anchor="middle" x="704" y="-171.8" font-family="Times,serif" font-size="14.00">gini = 0.059</text>
<text text-anchor="middle" x="704" y="-156.8" font-family="Times,serif" font-size="14.00">samples = 60</text>
<text text-anchor="middle" x="704" y="-141.8" font-family="Times,serif" font-size="14.00">value = [2.947, 93.683]</text>
<text text-anchor="middle" x="704" y="-126.8" font-family="Times,serif" font-size="14.00">class = Obstructive</text>
</g>
<!-- 7&#45;&gt;8 -->
<g id="edge8" class="edge">
<title>7&#45;&gt;8</title>
<path fill="none" stroke="black" d="M768.89,-252.97C761.93,-243.96 754.59,-234.47 747.46,-225.24"/>
<polygon fill="black" stroke="black" points="750.14,-222.99 741.26,-217.21 744.6,-227.27 750.14,-222.99"/>
</g>
<!-- 11 -->
<g id="node12" class="node">
<title>11</title>
<polygon fill="none" stroke="black" points="994,-217 818,-217 818,-119 994,-119 994,-217"/>
<text text-anchor="middle" x="906" y="-201.8" font-family="Times,serif" font-size="14.00">node #11</text>
<text text-anchor="middle" x="906" y="-186.8" font-family="Times,serif" font-size="14.00">FVCPostVal &lt;= 3.36</text>
<text text-anchor="middle" x="906" y="-171.8" font-family="Times,serif" font-size="14.00">gini = 0.5</text>
<text text-anchor="middle" x="906" y="-156.8" font-family="Times,serif" font-size="14.00">samples = 2</text>
<text text-anchor="middle" x="906" y="-141.8" font-family="Times,serif" font-size="14.00">value = [0.982, 1.018]</text>
<text text-anchor="middle" x="906" y="-126.8" font-family="Times,serif" font-size="14.00">class = Obstructive</text>
</g>
<!-- 7&#45;&gt;11 -->
<g id="edge11" class="edge">
<title>7&#45;&gt;11</title>
<path fill="none" stroke="black" d="M842.39,-252.97C849.21,-243.96 856.4,-234.47 863.39,-225.24"/>
<polygon fill="black" stroke="black" points="866.23,-227.3 869.47,-217.21 860.65,-223.07 866.23,-227.3"/>
</g>
<!-- 9 -->
<g id="node10" class="node">
<title>9</title>
<polygon fill="none" stroke="black" points="602.5,-83 417.5,-83 417.5,0 602.5,0 602.5,-83"/>
<text text-anchor="middle" x="510" y="-67.8" font-family="Times,serif" font-size="14.00">node #9</text>
<text text-anchor="middle" x="510" y="-52.8" font-family="Times,serif" font-size="14.00">gini = 0.284</text>
<text text-anchor="middle" x="510" y="-37.8" font-family="Times,serif" font-size="14.00">samples = 10</text>
<text text-anchor="middle" x="510" y="-22.8" font-family="Times,serif" font-size="14.00">value = [2.947, 14.256]</text>
<text text-anchor="middle" x="510" y="-7.8" font-family="Times,serif" font-size="14.00">class = Obstructive</text>
</g>
<!-- 8&#45;&gt;9 -->
<g id="edge9" class="edge">
<title>8&#45;&gt;9</title>
<path fill="none" stroke="black" d="M628.99,-118.87C613.43,-108.88 597.07,-98.38 581.63,-88.47"/>
<polygon fill="black" stroke="black" points="583.47,-85.49 573.16,-83.03 579.68,-91.38 583.47,-85.49"/>
</g>
<!-- 10 -->
<g id="node11" class="node">
<title>10</title>
<polygon fill="none" stroke="black" points="787.5,-83 620.5,-83 620.5,0 787.5,0 787.5,-83"/>
<text text-anchor="middle" x="704" y="-67.8" font-family="Times,serif" font-size="14.00">node #10</text>
<text text-anchor="middle" x="704" y="-52.8" font-family="Times,serif" font-size="14.00">gini = &#45;0.0</text>
<text text-anchor="middle" x="704" y="-37.8" font-family="Times,serif" font-size="14.00">samples = 50</text>
<text text-anchor="middle" x="704" y="-22.8" font-family="Times,serif" font-size="14.00">value = [0.0, 79.427]</text>
<text text-anchor="middle" x="704" y="-7.8" font-family="Times,serif" font-size="14.00">class = Obstructive</text>
</g>
<!-- 8&#45;&gt;10 -->
<g id="edge10" class="edge">
<title>8&#45;&gt;10</title>
<path fill="none" stroke="black" d="M704,-118.87C704,-110.5 704,-101.77 704,-93.33"/>
<polygon fill="black" stroke="black" points="707.5,-93.23 704,-83.23 700.5,-93.23 707.5,-93.23"/>
</g>
<!-- 12 -->
<g id="node13" class="node">
<title>12</title>
<polygon fill="none" stroke="black" points="994,-83 806,-83 806,0 994,0 994,-83"/>
<text text-anchor="middle" x="900" y="-67.8" font-family="Times,serif" font-size="14.00">node #12</text>
<text text-anchor="middle" x="900" y="-52.8" font-family="Times,serif" font-size="14.00">gini = 0.0</text>
<text text-anchor="middle" x="900" y="-37.8" font-family="Times,serif" font-size="14.00">samples = 1</text>
<text text-anchor="middle" x="900" y="-22.8" font-family="Times,serif" font-size="14.00">value = [0.982, 0.0]</text>
<text text-anchor="middle" x="900" y="-7.8" font-family="Times,serif" font-size="14.00">class = Non&#45;obstructive</text>
</g>
<!-- 11&#45;&gt;12 -->
<g id="edge12" class="edge">
<title>11&#45;&gt;12</title>
<path fill="none" stroke="black" d="M903.68,-118.87C903.28,-110.5 902.86,-101.77 902.45,-93.33"/>
<polygon fill="black" stroke="black" points="905.94,-93.05 901.96,-83.23 898.95,-93.39 905.94,-93.05"/>
</g>
<!-- 13 -->
<g id="node14" class="node">
<title>13</title>
<polygon fill="none" stroke="black" points="1170,-83 1012,-83 1012,0 1170,0 1170,-83"/>
<text text-anchor="middle" x="1091" y="-67.8" font-family="Times,serif" font-size="14.00">node #13</text>
<text text-anchor="middle" x="1091" y="-52.8" font-family="Times,serif" font-size="14.00">gini = &#45;0.0</text>
<text text-anchor="middle" x="1091" y="-37.8" font-family="Times,serif" font-size="14.00">samples = 1</text>
<text text-anchor="middle" x="1091" y="-22.8" font-family="Times,serif" font-size="14.00">value = [0.0, 1.018]</text>
<text text-anchor="middle" x="1091" y="-7.8" font-family="Times,serif" font-size="14.00">class = Obstructive</text>
</g>
<!-- 11&#45;&gt;13 -->
<g id="edge13" class="edge">
<title>11&#45;&gt;13</title>
<path fill="none" stroke="black" d="M977.53,-118.87C992.23,-108.97 1007.68,-98.57 1022.28,-88.74"/>
<polygon fill="black" stroke="black" points="1024.43,-91.52 1030.77,-83.03 1020.52,-85.71 1024.43,-91.52"/>
</g>
<!-- 15 -->
<g id="node16" class="node">
<title>15</title>
<polygon fill="none" stroke="black" points="1436,-351 1242,-351 1242,-253 1436,-253 1436,-351"/>
<text text-anchor="middle" x="1339" y="-335.8" font-family="Times,serif" font-size="14.00">node #15</text>
<text text-anchor="middle" x="1339" y="-320.8" font-family="Times,serif" font-size="14.00">FEFPostVal &lt;= 0.52</text>
<text text-anchor="middle" x="1339" y="-305.8" font-family="Times,serif" font-size="14.00">gini = 0.137</text>
<text text-anchor="middle" x="1339" y="-290.8" font-family="Times,serif" font-size="14.00">samples = 73</text>
<text text-anchor="middle" x="1339" y="-275.8" font-family="Times,serif" font-size="14.00">value = [102.165, 8.146]</text>
<text text-anchor="middle" x="1339" y="-260.8" font-family="Times,serif" font-size="14.00">class = Non&#45;obstructive</text>
</g>
<!-- 14&#45;&gt;15 -->
<g id="edge15" class="edge">
<title>14&#45;&gt;15</title>
<path fill="none" stroke="black" d="M1339,-386.97C1339,-378.69 1339,-370 1339,-361.48"/>
<polygon fill="black" stroke="black" points="1342.5,-361.21 1339,-351.21 1335.5,-361.21 1342.5,-361.21"/>
</g>
<!-- 20 -->
<g id="node21" class="node">
<title>20</title>
<polygon fill="none" stroke="black" points="1847.5,-351 1650.5,-351 1650.5,-253 1847.5,-253 1847.5,-351"/>
<text text-anchor="middle" x="1749" y="-335.8" font-family="Times,serif" font-size="14.00">node #20</text>
<text text-anchor="middle" x="1749" y="-320.8" font-family="Times,serif" font-size="14.00">FVCPostPercent &lt;= 88.5</text>
<text text-anchor="middle" x="1749" y="-305.8" font-family="Times,serif" font-size="14.00">gini = 0.5</text>
<text text-anchor="middle" x="1749" y="-290.8" font-family="Times,serif" font-size="14.00">samples = 68</text>
<text text-anchor="middle" x="1749" y="-275.8" font-family="Times,serif" font-size="14.00">value = [53.047, 49.896]</text>
<text text-anchor="middle" x="1749" y="-260.8" font-family="Times,serif" font-size="14.00">class = Non&#45;obstructive</text>
</g>
<!-- 14&#45;&gt;20 -->
<g id="edge20" class="edge">
<title>14&#45;&gt;20</title>
<path fill="none" stroke="black" d="M1440.61,-402.29C1501.39,-382.72 1578.59,-357.86 1640.55,-337.92"/>
<polygon fill="black" stroke="black" points="1641.91,-341.15 1650.36,-334.76 1639.76,-334.49 1641.91,-341.15"/>
</g>
<!-- 16 -->
<g id="node17" class="node">
<title>16</title>
<polygon fill="none" stroke="black" points="1321,-209.5 1163,-209.5 1163,-126.5 1321,-126.5 1321,-209.5"/>
<text text-anchor="middle" x="1242" y="-194.3" font-family="Times,serif" font-size="14.00">node #16</text>
<text text-anchor="middle" x="1242" y="-179.3" font-family="Times,serif" font-size="14.00">gini = 0.0</text>
<text text-anchor="middle" x="1242" y="-164.3" font-family="Times,serif" font-size="14.00">samples = 1</text>
<text text-anchor="middle" x="1242" y="-149.3" font-family="Times,serif" font-size="14.00">value = [0.0, 1.018]</text>
<text text-anchor="middle" x="1242" y="-134.3" font-family="Times,serif" font-size="14.00">class = Obstructive</text>
</g>
<!-- 15&#45;&gt;16 -->
<g id="edge16" class="edge">
<title>15&#45;&gt;16</title>
<path fill="none" stroke="black" d="M1303.71,-252.97C1295.34,-241.58 1286.4,-229.42 1278,-217.99"/>
<polygon fill="black" stroke="black" points="1280.74,-215.8 1271.99,-209.82 1275.1,-219.95 1280.74,-215.8"/>
</g>
<!-- 17 -->
<g id="node18" class="node">
<title>17</title>
<polygon fill="none" stroke="black" points="1533,-217 1339,-217 1339,-119 1533,-119 1533,-217"/>
<text text-anchor="middle" x="1436" y="-201.8" font-family="Times,serif" font-size="14.00">node #17</text>
<text text-anchor="middle" x="1436" y="-186.8" font-family="Times,serif" font-size="14.00">FVCPostVal &lt;= 2.515</text>
<text text-anchor="middle" x="1436" y="-171.8" font-family="Times,serif" font-size="14.00">gini = 0.122</text>
<text text-anchor="middle" x="1436" y="-156.8" font-family="Times,serif" font-size="14.00">samples = 72</text>
<text text-anchor="middle" x="1436" y="-141.8" font-family="Times,serif" font-size="14.00">value = [102.165, 7.128]</text>
<text text-anchor="middle" x="1436" y="-126.8" font-family="Times,serif" font-size="14.00">class = Non&#45;obstructive</text>
</g>
<!-- 15&#45;&gt;17 -->
<g id="edge17" class="edge">
<title>15&#45;&gt;17</title>
<path fill="none" stroke="black" d="M1374.29,-252.97C1380.85,-244.05 1387.75,-234.66 1394.47,-225.52"/>
<polygon fill="black" stroke="black" points="1397.47,-227.34 1400.57,-217.21 1391.83,-223.2 1397.47,-227.34"/>
</g>
<!-- 18 -->
<g id="node19" class="node">
<title>18</title>
<polygon fill="none" stroke="black" points="1376,-83 1188,-83 1188,0 1376,0 1376,-83"/>
<text text-anchor="middle" x="1282" y="-67.8" font-family="Times,serif" font-size="14.00">node #18</text>
<text text-anchor="middle" x="1282" y="-52.8" font-family="Times,serif" font-size="14.00">gini = 0.059</text>
<text text-anchor="middle" x="1282" y="-37.8" font-family="Times,serif" font-size="14.00">samples = 66</text>
<text text-anchor="middle" x="1282" y="-22.8" font-family="Times,serif" font-size="14.00">value = [97.253, 3.055]</text>
<text text-anchor="middle" x="1282" y="-7.8" font-family="Times,serif" font-size="14.00">class = Non&#45;obstructive</text>
</g>
<!-- 17&#45;&gt;18 -->
<g id="edge18" class="edge">
<title>17&#45;&gt;18</title>
<path fill="none" stroke="black" d="M1376.46,-118.87C1364.63,-109.3 1352.22,-99.27 1340.43,-89.74"/>
<polygon fill="black" stroke="black" points="1342.36,-86.8 1332.38,-83.23 1337.96,-92.24 1342.36,-86.8"/>
</g>
<!-- 19 -->
<g id="node20" class="node">
<title>19</title>
<polygon fill="none" stroke="black" points="1582,-83 1394,-83 1394,0 1582,0 1582,-83"/>
<text text-anchor="middle" x="1488" y="-67.8" font-family="Times,serif" font-size="14.00">node #19</text>
<text text-anchor="middle" x="1488" y="-52.8" font-family="Times,serif" font-size="14.00">gini = 0.496</text>
<text text-anchor="middle" x="1488" y="-37.8" font-family="Times,serif" font-size="14.00">samples = 6</text>
<text text-anchor="middle" x="1488" y="-22.8" font-family="Times,serif" font-size="14.00">value = [4.912, 4.073]</text>
<text text-anchor="middle" x="1488" y="-7.8" font-family="Times,serif" font-size="14.00">class = Non&#45;obstructive</text>
</g>
<!-- 17&#45;&gt;19 -->
<g id="edge19" class="edge">
<title>17&#45;&gt;19</title>
<path fill="none" stroke="black" d="M1456.1,-118.87C1459.71,-110.22 1463.48,-101.2 1467.12,-92.5"/>
<polygon fill="black" stroke="black" points="1470.36,-93.81 1470.99,-83.23 1463.9,-91.11 1470.36,-93.81"/>
</g>
<!-- 21 -->
<g id="node22" class="node">
<title>21</title>
<polygon fill="none" stroke="black" points="1852,-217 1646,-217 1646,-119 1852,-119 1852,-217"/>
<text text-anchor="middle" x="1749" y="-201.8" font-family="Times,serif" font-size="14.00">node #21</text>
<text text-anchor="middle" x="1749" y="-186.8" font-family="Times,serif" font-size="14.00">FEV1PostPercent &lt;= 81.5</text>
<text text-anchor="middle" x="1749" y="-171.8" font-family="Times,serif" font-size="14.00">gini = 0.464</text>
<text text-anchor="middle" x="1749" y="-156.8" font-family="Times,serif" font-size="14.00">samples = 50</text>
<text text-anchor="middle" x="1749" y="-141.8" font-family="Times,serif" font-size="14.00">value = [44.206, 25.457]</text>
<text text-anchor="middle" x="1749" y="-126.8" font-family="Times,serif" font-size="14.00">class = Non&#45;obstructive</text>
</g>
<!-- 20&#45;&gt;21 -->
<g id="edge21" class="edge">
<title>20&#45;&gt;21</title>
<path fill="none" stroke="black" d="M1749,-252.97C1749,-244.69 1749,-236 1749,-227.48"/>
<polygon fill="black" stroke="black" points="1752.5,-227.21 1749,-217.21 1745.5,-227.21 1752.5,-227.21"/>
</g>
<!-- 24 -->
<g id="node25" class="node">
<title>24</title>
<polygon fill="none" stroke="black" points="2211,-217 2011,-217 2011,-119 2211,-119 2211,-217"/>
<text text-anchor="middle" x="2111" y="-201.8" font-family="Times,serif" font-size="14.00">node #24</text>
<text text-anchor="middle" x="2111" y="-186.8" font-family="Times,serif" font-size="14.00">FVCPrePercent &lt;= 100.0</text>
<text text-anchor="middle" x="2111" y="-171.8" font-family="Times,serif" font-size="14.00">gini = 0.39</text>
<text text-anchor="middle" x="2111" y="-156.8" font-family="Times,serif" font-size="14.00">samples = 18</text>
<text text-anchor="middle" x="2111" y="-141.8" font-family="Times,serif" font-size="14.00">value = [8.841, 24.439]</text>
<text text-anchor="middle" x="2111" y="-126.8" font-family="Times,serif" font-size="14.00">class = Obstructive</text>
</g>
<!-- 20&#45;&gt;24 -->
<g id="edge24" class="edge">
<title>20&#45;&gt;24</title>
<path fill="none" stroke="black" d="M1847.92,-264.93C1895.41,-247.61 1952.47,-226.81 2001.29,-209"/>
<polygon fill="black" stroke="black" points="2002.75,-212.2 2010.94,-205.48 2000.35,-205.62 2002.75,-212.2"/>
</g>
<!-- 22 -->
<g id="node23" class="node">
<title>22</title>
<polygon fill="none" stroke="black" points="1794,-83 1600,-83 1600,0 1794,0 1794,-83"/>
<text text-anchor="middle" x="1697" y="-67.8" font-family="Times,serif" font-size="14.00">node #22</text>
<text text-anchor="middle" x="1697" y="-52.8" font-family="Times,serif" font-size="14.00">gini = 0.49</text>
<text text-anchor="middle" x="1697" y="-37.8" font-family="Times,serif" font-size="14.00">samples = 30</text>
<text text-anchor="middle" x="1697" y="-22.8" font-family="Times,serif" font-size="14.00">value = [17.682, 23.421]</text>
<text text-anchor="middle" x="1697" y="-7.8" font-family="Times,serif" font-size="14.00">class = Obstructive</text>
</g>
<!-- 21&#45;&gt;22 -->
<g id="edge22" class="edge">
<title>21&#45;&gt;22</title>
<path fill="none" stroke="black" d="M1728.9,-118.87C1725.29,-110.22 1721.52,-101.2 1717.88,-92.5"/>
<polygon fill="black" stroke="black" points="1721.1,-91.11 1714.01,-83.23 1714.64,-93.81 1721.1,-91.11"/>
</g>
<!-- 23 -->
<g id="node24" class="node">
<title>23</title>
<polygon fill="none" stroke="black" points="2000,-83 1812,-83 1812,0 2000,0 2000,-83"/>
<text text-anchor="middle" x="1906" y="-67.8" font-family="Times,serif" font-size="14.00">node #23</text>
<text text-anchor="middle" x="1906" y="-52.8" font-family="Times,serif" font-size="14.00">gini = 0.132</text>
<text text-anchor="middle" x="1906" y="-37.8" font-family="Times,serif" font-size="14.00">samples = 20</text>
<text text-anchor="middle" x="1906" y="-22.8" font-family="Times,serif" font-size="14.00">value = [26.524, 2.037]</text>
<text text-anchor="middle" x="1906" y="-7.8" font-family="Times,serif" font-size="14.00">class = Non&#45;obstructive</text>
</g>
<!-- 21&#45;&gt;23 -->
<g id="edge23" class="edge">
<title>21&#45;&gt;23</title>
<path fill="none" stroke="black" d="M1809.7,-118.87C1821.95,-109.15 1834.8,-98.96 1846.99,-89.3"/>
<polygon fill="black" stroke="black" points="1849.23,-91.99 1854.89,-83.03 1844.88,-86.5 1849.23,-91.99"/>
</g>
<!-- 25 -->
<g id="node26" class="node">
<title>25</title>
<polygon fill="none" stroke="black" points="2203.5,-83 2018.5,-83 2018.5,0 2203.5,0 2203.5,-83"/>
<text text-anchor="middle" x="2111" y="-67.8" font-family="Times,serif" font-size="14.00">node #25</text>
<text text-anchor="middle" x="2111" y="-52.8" font-family="Times,serif" font-size="14.00">gini = 0.148</text>
<text text-anchor="middle" x="2111" y="-37.8" font-family="Times,serif" font-size="14.00">samples = 12</text>
<text text-anchor="middle" x="2111" y="-22.8" font-family="Times,serif" font-size="14.00">value = [1.965, 22.402]</text>
<text text-anchor="middle" x="2111" y="-7.8" font-family="Times,serif" font-size="14.00">class = Obstructive</text>
</g>
<!-- 24&#45;&gt;25 -->
<g id="edge25" class="edge">
<title>24&#45;&gt;25</title>
<path fill="none" stroke="black" d="M2111,-118.87C2111,-110.5 2111,-101.77 2111,-93.33"/>
<polygon fill="black" stroke="black" points="2114.5,-93.23 2111,-83.23 2107.5,-93.23 2114.5,-93.23"/>
</g>
<!-- 26 -->
<g id="node27" class="node">
<title>26</title>
<polygon fill="none" stroke="black" points="2410,-83 2222,-83 2222,0 2410,0 2410,-83"/>
<text text-anchor="middle" x="2316" y="-67.8" font-family="Times,serif" font-size="14.00">node #26</text>
<text text-anchor="middle" x="2316" y="-52.8" font-family="Times,serif" font-size="14.00">gini = 0.353</text>
<text text-anchor="middle" x="2316" y="-37.8" font-family="Times,serif" font-size="14.00">samples = 6</text>
<text text-anchor="middle" x="2316" y="-22.8" font-family="Times,serif" font-size="14.00">value = [6.876, 2.037]</text>
<text text-anchor="middle" x="2316" y="-7.8" font-family="Times,serif" font-size="14.00">class = Non&#45;obstructive</text>
</g>
<!-- 24&#45;&gt;26 -->
<g id="edge26" class="edge">
<title>24&#45;&gt;26</title>
<path fill="none" stroke="black" d="M2190.26,-118.87C2206.7,-108.88 2223.99,-98.38 2240.31,-88.47"/>
<polygon fill="black" stroke="black" points="2242.53,-91.21 2249.26,-83.03 2238.9,-85.23 2242.53,-91.21"/>
</g>
</g>
</svg>
