<?xml version="1.0" encoding="UTF-8" standalone="no"?>
<!DOCTYPE svg PUBLIC "-//W3C//DTD SVG 1.1//EN"
 "http://www.w3.org/Graphics/SVG/1.1/DTD/svg11.dtd">
<!-- Generated by graphviz version 2.43.0 (0)
 -->
<!-- Title: Tree Pages: 1 -->
<svg width="1789pt" height="627pt"
 viewBox="0.00 0.00 1789.00 627.00" xmlns="http://www.w3.org/2000/svg" xmlns:xlink="http://www.w3.org/1999/xlink">
<g id="graph0" class="graph" transform="scale(1 1) rotate(0) translate(4 623)">
<title>Tree</title>
<polygon fill="white" stroke="transparent" points="-4,4 -4,-623 1785,-623 1785,4 -4,4"/>
<!-- 0 -->
<g id="node1" class="node">
<title>0</title>
<polygon fill="none" stroke="black" points="831,-619 655,-619 655,-521 831,-521 831,-619"/>
<text text-anchor="middle" x="743" y="-603.8" font-family="Times,serif" font-size="14.00">node #0</text>
<text text-anchor="middle" x="743" y="-588.8" font-family="Times,serif" font-size="14.00">FVCPreVal &lt;= 1.205</text>
<text text-anchor="middle" x="743" y="-573.8" font-family="Times,serif" font-size="14.00">gini = 0.5</text>
<text text-anchor="middle" x="743" y="-558.8" font-family="Times,serif" font-size="14.00">samples = 202</text>
<text text-anchor="middle" x="743" y="-543.8" font-family="Times,serif" font-size="14.00">value = [167.0, 167.0]</text>
<text text-anchor="middle" x="743" y="-528.8" font-family="Times,serif" font-size="14.00">class = Obstructive</text>
</g>
<!-- 1 -->
<g id="node2" class="node">
<title>1</title>
<polygon fill="none" stroke="black" points="649,-485 461,-485 461,-387 649,-387 649,-485"/>
<text text-anchor="middle" x="555" y="-469.8" font-family="Times,serif" font-size="14.00">node #1</text>
<text text-anchor="middle" x="555" y="-454.8" font-family="Times,serif" font-size="14.00">FEV1PreVal &lt;= 0.595</text>
<text text-anchor="middle" x="555" y="-439.8" font-family="Times,serif" font-size="14.00">gini = 0.172</text>
<text text-anchor="middle" x="555" y="-424.8" font-family="Times,serif" font-size="14.00">samples = 27</text>
<text text-anchor="middle" x="555" y="-409.8" font-family="Times,serif" font-size="14.00">value = [36.531, 3.839]</text>
<text text-anchor="middle" x="555" y="-394.8" font-family="Times,serif" font-size="14.00">class = Non&#45;obstructive</text>
</g>
<!-- 0&#45;&gt;1 -->
<g id="edge1" class="edge">
<title>0&#45;&gt;1</title>
<path fill="none" stroke="black" d="M674.6,-520.97C660.73,-511.24 646.06,-500.93 631.92,-491.01"/>
<polygon fill="black" stroke="black" points="633.86,-488.1 623.67,-485.21 629.84,-493.82 633.86,-488.1"/>
<text text-anchor="middle" x="627.98" y="-506.14" font-family="Times,serif" font-size="14.00">True</text>
</g>
<!-- 8 -->
<g id="node9" class="node">
<title>8</title>
<polygon fill="none" stroke="black" points="1058,-485 846,-485 846,-387 1058,-387 1058,-485"/>
<text text-anchor="middle" x="952" y="-469.8" font-family="Times,serif" font-size="14.00">node #8</text>
<text text-anchor="middle" x="952" y="-454.8" font-family="Times,serif" font-size="14.00">FEFPostVal &lt;= 1.325</text>
<text text-anchor="middle" x="952" y="-439.8" font-family="Times,serif" font-size="14.00">gini = 0.494</text>
<text text-anchor="middle" x="952" y="-424.8" font-family="Times,serif" font-size="14.00">samples = 175</text>
<text text-anchor="middle" x="952" y="-409.8" font-family="Times,serif" font-size="14.00">value = [130.469, 163.161]</text>
<text text-anchor="middle" x="952" y="-394.8" font-family="Times,serif" font-size="14.00">class = Obstructive</text>
</g>
<!-- 0&#45;&gt;8 -->
<g id="edge8" class="edge">
<title>0&#45;&gt;8</title>
<path fill="none" stroke="black" d="M819.05,-520.97C834.6,-511.14 851.08,-500.74 866.93,-490.73"/>
<polygon fill="black" stroke="black" points="869.08,-493.51 875.66,-485.21 865.34,-487.59 869.08,-493.51"/>
<text text-anchor="middle" x="870.15" y="-505.9" font-family="Times,serif" font-size="14.00">False</text>
</g>
<!-- 2 -->
<g id="node3" class="node">
<title>2</title>
<polygon fill="none" stroke="black" points="364,-351 176,-351 176,-253 364,-253 364,-351"/>
<text text-anchor="middle" x="270" y="-335.8" font-family="Times,serif" font-size="14.00">node #2</text>
<text text-anchor="middle" x="270" y="-320.8" font-family="Times,serif" font-size="14.00">FEFPostVal &lt;= 1.15</text>
<text text-anchor="middle" x="270" y="-305.8" font-family="Times,serif" font-size="14.00">gini = 0.499</text>
<text text-anchor="middle" x="270" y="-290.8" font-family="Times,serif" font-size="14.00">samples = 4</text>
<text text-anchor="middle" x="270" y="-275.8" font-family="Times,serif" font-size="14.00">value = [3.131, 2.879]</text>
<text text-anchor="middle" x="270" y="-260.8" font-family="Times,serif" font-size="14.00">class = Non&#45;obstructive</text>
</g>
<!-- 1&#45;&gt;2 -->
<g id="edge2" class="edge">
<title>1&#45;&gt;2</title>
<path fill="none" stroke="black" d="M460.89,-391.41C432.8,-378.4 401.86,-364.07 373.22,-350.81"/>
<polygon fill="black" stroke="black" points="374.56,-347.57 364.01,-346.54 371.61,-353.92 374.56,-347.57"/>
</g>
<!-- 5 -->
<g id="node6" class="node">
<title>5</title>
<polygon fill="none" stroke="black" points="649,-351 461,-351 461,-253 649,-253 649,-351"/>
<text text-anchor="middle" x="555" y="-335.8" font-family="Times,serif" font-size="14.00">node #5</text>
<text text-anchor="middle" x="555" y="-320.8" font-family="Times,serif" font-size="14.00">FVCPostVal &lt;= 1.35</text>
<text text-anchor="middle" x="555" y="-305.8" font-family="Times,serif" font-size="14.00">gini = 0.054</text>
<text text-anchor="middle" x="555" y="-290.8" font-family="Times,serif" font-size="14.00">samples = 23</text>
<text text-anchor="middle" x="555" y="-275.8" font-family="Times,serif" font-size="14.00">value = [33.4, 0.96]</text>
<text text-anchor="middle" x="555" y="-260.8" font-family="Times,serif" font-size="14.00">class = Non&#45;obstructive</text>
</g>
<!-- 1&#45;&gt;5 -->
<g id="edge5" class="edge">
<title>1&#45;&gt;5</title>
<path fill="none" stroke="black" d="M555,-386.97C555,-378.69 555,-370 555,-361.48"/>
<polygon fill="black" stroke="black" points="558.5,-361.21 555,-351.21 551.5,-361.21 558.5,-361.21"/>
</g>
<!-- 3 -->
<g id="node4" class="node">
<title>3</title>
<polygon fill="none" stroke="black" points="158,-209.5 0,-209.5 0,-126.5 158,-126.5 158,-209.5"/>
<text text-anchor="middle" x="79" y="-194.3" font-family="Times,serif" font-size="14.00">node #3</text>
<text text-anchor="middle" x="79" y="-179.3" font-family="Times,serif" font-size="14.00">gini = 0.0</text>
<text text-anchor="middle" x="79" y="-164.3" font-family="Times,serif" font-size="14.00">samples = 2</text>
<text text-anchor="middle" x="79" y="-149.3" font-family="Times,serif" font-size="14.00">value = [0.0, 2.879]</text>
<text text-anchor="middle" x="79" y="-134.3" font-family="Times,serif" font-size="14.00">class = Obstructive</text>
</g>
<!-- 2&#45;&gt;3 -->
<g id="edge3" class="edge">
<title>2&#45;&gt;3</title>
<path fill="none" stroke="black" d="M200.5,-252.97C182.81,-240.75 163.83,-227.63 146.26,-215.48"/>
<polygon fill="black" stroke="black" points="147.97,-212.41 137.75,-209.6 143.99,-218.17 147.97,-212.41"/>
</g>
<!-- 4 -->
<g id="node5" class="node">
<title>4</title>
<polygon fill="none" stroke="black" points="364,-209.5 176,-209.5 176,-126.5 364,-126.5 364,-209.5"/>
<text text-anchor="middle" x="270" y="-194.3" font-family="Times,serif" font-size="14.00">node #4</text>
<text text-anchor="middle" x="270" y="-179.3" font-family="Times,serif" font-size="14.00">gini = 0.0</text>
<text text-anchor="middle" x="270" y="-164.3" font-family="Times,serif" font-size="14.00">samples = 2</text>
<text text-anchor="middle" x="270" y="-149.3" font-family="Times,serif" font-size="14.00">value = [3.131, 0.0]</text>
<text text-anchor="middle" x="270" y="-134.3" font-family="Times,serif" font-size="14.00">class = Non&#45;obstructive</text>
</g>
<!-- 2&#45;&gt;4 -->
<g id="edge4" class="edge">
<title>2&#45;&gt;4</title>
<path fill="none" stroke="black" d="M270,-252.97C270,-242.25 270,-230.84 270,-219.99"/>
<polygon fill="black" stroke="black" points="273.5,-219.82 270,-209.82 266.5,-219.82 273.5,-219.82"/>
</g>
<!-- 6 -->
<g id="node7" class="node">
<title>6</title>
<polygon fill="none" stroke="black" points="570,-209.5 382,-209.5 382,-126.5 570,-126.5 570,-209.5"/>
<text text-anchor="middle" x="476" y="-194.3" font-family="Times,serif" font-size="14.00">node #6</text>
<text text-anchor="middle" x="476" y="-179.3" font-family="Times,serif" font-size="14.00">gini = 0.0</text>
<text text-anchor="middle" x="476" y="-164.3" font-family="Times,serif" font-size="14.00">samples = 22</text>
<text text-anchor="middle" x="476" y="-149.3" font-family="Times,serif" font-size="14.00">value = [33.4, 0.0]</text>
<text text-anchor="middle" x="476" y="-134.3" font-family="Times,serif" font-size="14.00">class = Non&#45;obstructive</text>
</g>
<!-- 5&#45;&gt;6 -->
<g id="edge6" class="edge">
<title>5&#45;&gt;6</title>
<path fill="none" stroke="black" d="M526.26,-252.97C519.57,-241.8 512.44,-229.89 505.72,-218.66"/>
<polygon fill="black" stroke="black" points="508.57,-216.6 500.43,-209.82 502.56,-220.19 508.57,-216.6"/>
</g>
<!-- 7 -->
<g id="node8" class="node">
<title>7</title>
<polygon fill="none" stroke="black" points="745.5,-209.5 588.5,-209.5 588.5,-126.5 745.5,-126.5 745.5,-209.5"/>
<text text-anchor="middle" x="667" y="-194.3" font-family="Times,serif" font-size="14.00">node #7</text>
<text text-anchor="middle" x="667" y="-179.3" font-family="Times,serif" font-size="14.00">gini = 0.0</text>
<text text-anchor="middle" x="667" y="-164.3" font-family="Times,serif" font-size="14.00">samples = 1</text>
<text text-anchor="middle" x="667" y="-149.3" font-family="Times,serif" font-size="14.00">value = [0.0, 0.96]</text>
<text text-anchor="middle" x="667" y="-134.3" font-family="Times,serif" font-size="14.00">class = Obstructive</text>
</g>
<!-- 5&#45;&gt;7 -->
<g id="edge7" class="edge">
<title>5&#45;&gt;7</title>
<path fill="none" stroke="black" d="M595.75,-252.97C605.51,-241.47 615.93,-229.18 625.72,-217.66"/>
<polygon fill="black" stroke="black" points="628.57,-219.71 632.37,-209.82 623.23,-215.18 628.57,-219.71"/>
</g>
<!-- 9 -->
<g id="node10" class="node">
<title>9</title>
<polygon fill="none" stroke="black" points="1040,-351 864,-351 864,-253 1040,-253 1040,-351"/>
<text text-anchor="middle" x="952" y="-335.8" font-family="Times,serif" font-size="14.00">node #9</text>
<text text-anchor="middle" x="952" y="-320.8" font-family="Times,serif" font-size="14.00">FEFPreVal &lt;= 1.35</text>
<text text-anchor="middle" x="952" y="-305.8" font-family="Times,serif" font-size="14.00">gini = 0.179</text>
<text text-anchor="middle" x="952" y="-290.8" font-family="Times,serif" font-size="14.00">samples = 56</text>
<text text-anchor="middle" x="952" y="-275.8" font-family="Times,serif" font-size="14.00">value = [9.394, 85.42]</text>
<text text-anchor="middle" x="952" y="-260.8" font-family="Times,serif" font-size="14.00">class = Obstructive</text>
</g>
<!-- 8&#45;&gt;9 -->
<g id="edge9" class="edge">
<title>8&#45;&gt;9</title>
<path fill="none" stroke="black" d="M952,-386.97C952,-378.69 952,-370 952,-361.48"/>
<polygon fill="black" stroke="black" points="955.5,-361.21 952,-351.21 948.5,-361.21 955.5,-361.21"/>
</g>
<!-- 14 -->
<g id="node15" class="node">
<title>14</title>
<polygon fill="none" stroke="black" points="1361.5,-351 1158.5,-351 1158.5,-253 1361.5,-253 1361.5,-351"/>
<text text-anchor="middle" x="1260" y="-335.8" font-family="Times,serif" font-size="14.00">node #14</text>
<text text-anchor="middle" x="1260" y="-320.8" font-family="Times,serif" font-size="14.00">FEV1PostVal &lt;= 1.915</text>
<text text-anchor="middle" x="1260" y="-305.8" font-family="Times,serif" font-size="14.00">gini = 0.476</text>
<text text-anchor="middle" x="1260" y="-290.8" font-family="Times,serif" font-size="14.00">samples = 119</text>
<text text-anchor="middle" x="1260" y="-275.8" font-family="Times,serif" font-size="14.00">value = [121.075, 77.741]</text>
<text text-anchor="middle" x="1260" y="-260.8" font-family="Times,serif" font-size="14.00">class = Non&#45;obstructive</text>
</g>
<!-- 8&#45;&gt;14 -->
<g id="edge14" class="edge">
<title>8&#45;&gt;14</title>
<path fill="none" stroke="black" d="M1058.43,-389.39C1087.69,-376.85 1119.49,-363.22 1149,-350.57"/>
<polygon fill="black" stroke="black" points="1150.69,-353.66 1158.5,-346.5 1147.93,-347.22 1150.69,-353.66"/>
</g>
<!-- 10 -->
<g id="node11" class="node">
<title>10</title>
<polygon fill="none" stroke="black" points="940,-217 764,-217 764,-119 940,-119 940,-217"/>
<text text-anchor="middle" x="852" y="-201.8" font-family="Times,serif" font-size="14.00">node #10</text>
<text text-anchor="middle" x="852" y="-186.8" font-family="Times,serif" font-size="14.00">FEFPostVal &lt;= 0.82</text>
<text text-anchor="middle" x="852" y="-171.8" font-family="Times,serif" font-size="14.00">gini = 0.145</text>
<text text-anchor="middle" x="852" y="-156.8" font-family="Times,serif" font-size="14.00">samples = 55</text>
<text text-anchor="middle" x="852" y="-141.8" font-family="Times,serif" font-size="14.00">value = [7.306, 85.42]</text>
<text text-anchor="middle" x="852" y="-126.8" font-family="Times,serif" font-size="14.00">class = Obstructive</text>
</g>
<!-- 9&#45;&gt;10 -->
<g id="edge10" class="edge">
<title>9&#45;&gt;10</title>
<path fill="none" stroke="black" d="M915.61,-252.97C908.79,-243.96 901.6,-234.47 894.61,-225.24"/>
<polygon fill="black" stroke="black" points="897.35,-223.07 888.53,-217.21 891.77,-227.3 897.35,-223.07"/>
</g>
<!-- 13 -->
<g id="node14" class="node">
<title>13</title>
<polygon fill="none" stroke="black" points="1146,-209.5 958,-209.5 958,-126.5 1146,-126.5 1146,-209.5"/>
<text text-anchor="middle" x="1052" y="-194.3" font-family="Times,serif" font-size="14.00">node #13</text>
<text text-anchor="middle" x="1052" y="-179.3" font-family="Times,serif" font-size="14.00">gini = 0.0</text>
<text text-anchor="middle" x="1052" y="-164.3" font-family="Times,serif" font-size="14.00">samples = 1</text>
<text text-anchor="middle" x="1052" y="-149.3" font-family="Times,serif" font-size="14.00">value = [2.088, 0.0]</text>
<text text-anchor="middle" x="1052" y="-134.3" font-family="Times,serif" font-size="14.00">class = Non&#45;obstructive</text>
</g>
<!-- 9&#45;&gt;13 -->
<g id="edge13" class="edge">
<title>9&#45;&gt;13</title>
<path fill="none" stroke="black" d="M988.39,-252.97C997.01,-241.58 1006.23,-229.42 1014.89,-217.99"/>
<polygon fill="black" stroke="black" points="1017.83,-219.9 1021.08,-209.82 1012.25,-215.67 1017.83,-219.9"/>
</g>
<!-- 11 -->
<g id="node12" class="node">
<title>11</title>
<polygon fill="none" stroke="black" points="741.5,-83 574.5,-83 574.5,0 741.5,0 741.5,-83"/>
<text text-anchor="middle" x="658" y="-67.8" font-family="Times,serif" font-size="14.00">node #11</text>
<text text-anchor="middle" x="658" y="-52.8" font-family="Times,serif" font-size="14.00">gini = 0.0</text>
<text text-anchor="middle" x="658" y="-37.8" font-family="Times,serif" font-size="14.00">samples = 32</text>
<text text-anchor="middle" x="658" y="-22.8" font-family="Times,serif" font-size="14.00">value = [0.0, 47.989]</text>
<text text-anchor="middle" x="658" y="-7.8" font-family="Times,serif" font-size="14.00">class = Obstructive</text>
</g>
<!-- 10&#45;&gt;11 -->
<g id="edge11" class="edge">
<title>10&#45;&gt;11</title>
<path fill="none" stroke="black" d="M776.99,-118.87C761.43,-108.88 745.07,-98.38 729.63,-88.47"/>
<polygon fill="black" stroke="black" points="731.47,-85.49 721.16,-83.03 727.68,-91.38 731.47,-85.49"/>
</g>
<!-- 12 -->
<g id="node13" class="node">
<title>12</title>
<polygon fill="none" stroke="black" points="944.5,-83 759.5,-83 759.5,0 944.5,0 944.5,-83"/>
<text text-anchor="middle" x="852" y="-67.8" font-family="Times,serif" font-size="14.00">node #12</text>
<text text-anchor="middle" x="852" y="-52.8" font-family="Times,serif" font-size="14.00">gini = 0.273</text>
<text text-anchor="middle" x="852" y="-37.8" font-family="Times,serif" font-size="14.00">samples = 23</text>
<text text-anchor="middle" x="852" y="-22.8" font-family="Times,serif" font-size="14.00">value = [7.306, 37.431]</text>
<text text-anchor="middle" x="852" y="-7.8" font-family="Times,serif" font-size="14.00">class = Obstructive</text>
</g>
<!-- 10&#45;&gt;12 -->
<g id="edge12" class="edge">
<title>10&#45;&gt;12</title>
<path fill="none" stroke="black" d="M852,-118.87C852,-110.5 852,-101.77 852,-93.33"/>
<polygon fill="black" stroke="black" points="855.5,-93.23 852,-83.23 848.5,-93.23 855.5,-93.23"/>
</g>
<!-- 15 -->
<g id="node16" class="node">
<title>15</title>
<polygon fill="none" stroke="black" points="1354,-217 1166,-217 1166,-119 1354,-119 1354,-217"/>
<text text-anchor="middle" x="1260" y="-201.8" font-family="Times,serif" font-size="14.00">node #15</text>
<text text-anchor="middle" x="1260" y="-186.8" font-family="Times,serif" font-size="14.00">FEFPreVal &lt;= 1.985</text>
<text text-anchor="middle" x="1260" y="-171.8" font-family="Times,serif" font-size="14.00">gini = 0.167</text>
<text text-anchor="middle" x="1260" y="-156.8" font-family="Times,serif" font-size="14.00">samples = 52</text>
<text text-anchor="middle" x="1260" y="-141.8" font-family="Times,serif" font-size="14.00">value = [85.588, 8.638]</text>
<text text-anchor="middle" x="1260" y="-126.8" font-family="Times,serif" font-size="14.00">class = Non&#45;obstructive</text>
</g>
<!-- 14&#45;&gt;15 -->
<g id="edge15" class="edge">
<title>14&#45;&gt;15</title>
<path fill="none" stroke="black" d="M1260,-252.97C1260,-244.69 1260,-236 1260,-227.48"/>
<polygon fill="black" stroke="black" points="1263.5,-227.21 1260,-217.21 1256.5,-227.21 1263.5,-227.21"/>
</g>
<!-- 18 -->
<g id="node19" class="node">
<title>18</title>
<polygon fill="none" stroke="black" points="1569,-217 1375,-217 1375,-119 1569,-119 1569,-217"/>
<text text-anchor="middle" x="1472" y="-201.8" font-family="Times,serif" font-size="14.00">node #18</text>
<text text-anchor="middle" x="1472" y="-186.8" font-family="Times,serif" font-size="14.00">FEFPostVal &lt;= 2.955</text>
<text text-anchor="middle" x="1472" y="-171.8" font-family="Times,serif" font-size="14.00">gini = 0.448</text>
<text text-anchor="middle" x="1472" y="-156.8" font-family="Times,serif" font-size="14.00">samples = 67</text>
<text text-anchor="middle" x="1472" y="-141.8" font-family="Times,serif" font-size="14.00">value = [35.487, 69.103]</text>
<text text-anchor="middle" x="1472" y="-126.8" font-family="Times,serif" font-size="14.00">class = Obstructive</text>
</g>
<!-- 14&#45;&gt;18 -->
<g id="edge18" class="edge">
<title>14&#45;&gt;18</title>
<path fill="none" stroke="black" d="M1337.14,-252.97C1352.92,-243.14 1369.63,-232.74 1385.71,-222.73"/>
<polygon fill="black" stroke="black" points="1387.93,-225.47 1394.57,-217.21 1384.23,-219.53 1387.93,-225.47"/>
</g>
<!-- 16 -->
<g id="node17" class="node">
<title>16</title>
<polygon fill="none" stroke="black" points="1151,-83 963,-83 963,0 1151,0 1151,-83"/>
<text text-anchor="middle" x="1057" y="-67.8" font-family="Times,serif" font-size="14.00">node #16</text>
<text text-anchor="middle" x="1057" y="-52.8" font-family="Times,serif" font-size="14.00">gini = 0.352</text>
<text text-anchor="middle" x="1057" y="-37.8" font-family="Times,serif" font-size="14.00">samples = 20</text>
<text text-anchor="middle" x="1057" y="-22.8" font-family="Times,serif" font-size="14.00">value = [29.225, 8.638]</text>
<text text-anchor="middle" x="1057" y="-7.8" font-family="Times,serif" font-size="14.00">class = Non&#45;obstructive</text>
</g>
<!-- 15&#45;&gt;16 -->
<g id="edge16" class="edge">
<title>15&#45;&gt;16</title>
<path fill="none" stroke="black" d="M1181.51,-118.87C1165.23,-108.88 1148.11,-98.38 1131.95,-88.47"/>
<polygon fill="black" stroke="black" points="1133.44,-85.28 1123.09,-83.03 1129.78,-91.24 1133.44,-85.28"/>
</g>
<!-- 17 -->
<g id="node18" class="node">
<title>17</title>
<polygon fill="none" stroke="black" points="1357,-83 1169,-83 1169,0 1357,0 1357,-83"/>
<text text-anchor="middle" x="1263" y="-67.8" font-family="Times,serif" font-size="14.00">node #17</text>
<text text-anchor="middle" x="1263" y="-52.8" font-family="Times,serif" font-size="14.00">gini = 0.0</text>
<text text-anchor="middle" x="1263" y="-37.8" font-family="Times,serif" font-size="14.00">samples = 32</text>
<text text-anchor="middle" x="1263" y="-22.8" font-family="Times,serif" font-size="14.00">value = [56.363, 0.0]</text>
<text text-anchor="middle" x="1263" y="-7.8" font-family="Times,serif" font-size="14.00">class = Non&#45;obstructive</text>
</g>
<!-- 15&#45;&gt;17 -->
<g id="edge17" class="edge">
<title>15&#45;&gt;17</title>
<path fill="none" stroke="black" d="M1261.16,-118.87C1261.36,-110.5 1261.57,-101.77 1261.78,-93.33"/>
<polygon fill="black" stroke="black" points="1265.28,-93.31 1262.02,-83.23 1258.28,-93.14 1265.28,-93.31"/>
</g>
<!-- 19 -->
<g id="node20" class="node">
<title>19</title>
<polygon fill="none" stroke="black" points="1569,-83 1375,-83 1375,0 1569,0 1569,-83"/>
<text text-anchor="middle" x="1472" y="-67.8" font-family="Times,serif" font-size="14.00">node #19</text>
<text text-anchor="middle" x="1472" y="-52.8" font-family="Times,serif" font-size="14.00">gini = 0.319</text>
<text text-anchor="middle" x="1472" y="-37.8" font-family="Times,serif" font-size="14.00">samples = 33</text>
<text text-anchor="middle" x="1472" y="-22.8" font-family="Times,serif" font-size="14.00">value = [11.481, 46.069]</text>
<text text-anchor="middle" x="1472" y="-7.8" font-family="Times,serif" font-size="14.00">class = Obstructive</text>
</g>
<!-- 18&#45;&gt;19 -->
<g id="edge19" class="edge">
<title>18&#45;&gt;19</title>
<path fill="none" stroke="black" d="M1472,-118.87C1472,-110.5 1472,-101.77 1472,-93.33"/>
<polygon fill="black" stroke="black" points="1475.5,-93.23 1472,-83.23 1468.5,-93.23 1475.5,-93.23"/>
</g>
<!-- 20 -->
<g id="node21" class="node">
<title>20</title>
<polygon fill="none" stroke="black" points="1781,-83 1587,-83 1587,0 1781,0 1781,-83"/>
<text text-anchor="middle" x="1684" y="-67.8" font-family="Times,serif" font-size="14.00">node #20</text>
<text text-anchor="middle" x="1684" y="-52.8" font-family="Times,serif" font-size="14.00">gini = 0.5</text>
<text text-anchor="middle" x="1684" y="-37.8" font-family="Times,serif" font-size="14.00">samples = 34</text>
<text text-anchor="middle" x="1684" y="-22.8" font-family="Times,serif" font-size="14.00">value = [24.006, 23.034]</text>
<text text-anchor="middle" x="1684" y="-7.8" font-family="Times,serif" font-size="14.00">class = Non&#45;obstructive</text>
</g>
<!-- 18&#45;&gt;20 -->
<g id="edge20" class="edge">
<title>18&#45;&gt;20</title>
<path fill="none" stroke="black" d="M1553.96,-118.87C1571.13,-108.78 1589.18,-98.18 1606.19,-88.19"/>
<polygon fill="black" stroke="black" points="1608.13,-91.11 1614.98,-83.03 1604.59,-85.08 1608.13,-91.11"/>
</g>
</g>
</svg>
