<?xml version="1.0" encoding="UTF-8" standalone="no"?>
<!DOCTYPE svg PUBLIC "-//W3C//DTD SVG 1.1//EN"
 "http://www.w3.org/Graphics/SVG/1.1/DTD/svg11.dtd">
<!-- Generated by graphviz version 2.43.0 (0)
 -->
<!-- Title: Tree Pages: 1 -->
<svg width="2012pt" height="627pt"
 viewBox="0.00 0.00 2011.50 627.00" xmlns="http://www.w3.org/2000/svg" xmlns:xlink="http://www.w3.org/1999/xlink">
<g id="graph0" class="graph" transform="scale(1 1) rotate(0) translate(4 623)">
<title>Tree</title>
<polygon fill="white" stroke="transparent" points="-4,4 -4,-623 2007.5,-623 2007.5,4 -4,4"/>
<!-- 0 -->
<g id="node1" class="node">
<title>0</title>
<polygon fill="none" stroke="black" points="680.5,-619 483.5,-619 483.5,-521 680.5,-521 680.5,-619"/>
<text text-anchor="middle" x="582" y="-603.8" font-family="Times,serif" font-size="14.00">node #0</text>
<text text-anchor="middle" x="582" y="-588.8" font-family="Times,serif" font-size="14.00">FVCPostPercent &lt;= 49.5</text>
<text text-anchor="middle" x="582" y="-573.8" font-family="Times,serif" font-size="14.00">gini = 0.5</text>
<text text-anchor="middle" x="582" y="-558.8" font-family="Times,serif" font-size="14.00">samples = 206</text>
<text text-anchor="middle" x="582" y="-543.8" font-family="Times,serif" font-size="14.00">value = [167.0, 167.0]</text>
<text text-anchor="middle" x="582" y="-528.8" font-family="Times,serif" font-size="14.00">class = Non&#45;obstructive</text>
</g>
<!-- 1 -->
<g id="node2" class="node">
<title>1</title>
<polygon fill="none" stroke="black" points="567.5,-485 376.5,-485 376.5,-387 567.5,-387 567.5,-485"/>
<text text-anchor="middle" x="472" y="-469.8" font-family="Times,serif" font-size="14.00">node #1</text>
<text text-anchor="middle" x="472" y="-454.8" font-family="Times,serif" font-size="14.00">FEFPrePercent &lt;= 33.5</text>
<text text-anchor="middle" x="472" y="-439.8" font-family="Times,serif" font-size="14.00">gini = 0.237</text>
<text text-anchor="middle" x="472" y="-424.8" font-family="Times,serif" font-size="14.00">samples = 37</text>
<text text-anchor="middle" x="472" y="-409.8" font-family="Times,serif" font-size="14.00">value = [52.127, 8.298]</text>
<text text-anchor="middle" x="472" y="-394.8" font-family="Times,serif" font-size="14.00">class = Non&#45;obstructive</text>
</g>
<!-- 0&#45;&gt;1 -->
<g id="edge1" class="edge">
<title>0&#45;&gt;1</title>
<path fill="none" stroke="black" d="M541.98,-520.97C534.39,-511.87 526.4,-502.28 518.63,-492.96"/>
<polygon fill="black" stroke="black" points="521.27,-490.66 512.18,-485.21 515.89,-495.14 521.27,-490.66"/>
<text text-anchor="middle" x="509.91" y="-506.41" font-family="Times,serif" font-size="14.00">True</text>
</g>
<!-- 8 -->
<g id="node9" class="node">
<title>8</title>
<polygon fill="none" stroke="black" points="892,-485 680,-485 680,-387 892,-387 892,-485"/>
<text text-anchor="middle" x="786" y="-469.8" font-family="Times,serif" font-size="14.00">node #8</text>
<text text-anchor="middle" x="786" y="-454.8" font-family="Times,serif" font-size="14.00">FEFPrePercent &lt;= 41.0</text>
<text text-anchor="middle" x="786" y="-439.8" font-family="Times,serif" font-size="14.00">gini = 0.487</text>
<text text-anchor="middle" x="786" y="-424.8" font-family="Times,serif" font-size="14.00">samples = 169</text>
<text text-anchor="middle" x="786" y="-409.8" font-family="Times,serif" font-size="14.00">value = [114.873, 158.702]</text>
<text text-anchor="middle" x="786" y="-394.8" font-family="Times,serif" font-size="14.00">class = Obstructive</text>
</g>
<!-- 0&#45;&gt;8 -->
<g id="edge8" class="edge">
<title>0&#45;&gt;8</title>
<path fill="none" stroke="black" d="M656.23,-520.97C671.41,-511.14 687.49,-500.74 702.96,-490.73"/>
<polygon fill="black" stroke="black" points="704.99,-493.58 711.49,-485.21 701.19,-487.71 704.99,-493.58"/>
<text text-anchor="middle" x="706.25" y="-505.96" font-family="Times,serif" font-size="14.00">False</text>
</g>
<!-- 2 -->
<g id="node3" class="node">
<title>2</title>
<polygon fill="none" stroke="black" points="355,-343.5 197,-343.5 197,-260.5 355,-260.5 355,-343.5"/>
<text text-anchor="middle" x="276" y="-328.3" font-family="Times,serif" font-size="14.00">node #2</text>
<text text-anchor="middle" x="276" y="-313.3" font-family="Times,serif" font-size="14.00">gini = 0.0</text>
<text text-anchor="middle" x="276" y="-298.3" font-family="Times,serif" font-size="14.00">samples = 6</text>
<text text-anchor="middle" x="276" y="-283.3" font-family="Times,serif" font-size="14.00">value = [0.0, 7.261]</text>
<text text-anchor="middle" x="276" y="-268.3" font-family="Times,serif" font-size="14.00">class = Obstructive</text>
</g>
<!-- 1&#45;&gt;2 -->
<g id="edge2" class="edge">
<title>1&#45;&gt;2</title>
<path fill="none" stroke="black" d="M400.69,-386.97C382.53,-374.75 363.05,-361.63 345.02,-349.48"/>
<polygon fill="black" stroke="black" points="346.54,-346.29 336.29,-343.6 342.63,-352.09 346.54,-346.29"/>
</g>
<!-- 3 -->
<g id="node4" class="node">
<title>3</title>
<polygon fill="none" stroke="black" points="570.5,-351 373.5,-351 373.5,-253 570.5,-253 570.5,-351"/>
<text text-anchor="middle" x="472" y="-335.8" font-family="Times,serif" font-size="14.00">node #3</text>
<text text-anchor="middle" x="472" y="-320.8" font-family="Times,serif" font-size="14.00">FEFPostPercent &lt;= 42.5</text>
<text text-anchor="middle" x="472" y="-305.8" font-family="Times,serif" font-size="14.00">gini = 0.038</text>
<text text-anchor="middle" x="472" y="-290.8" font-family="Times,serif" font-size="14.00">samples = 31</text>
<text text-anchor="middle" x="472" y="-275.8" font-family="Times,serif" font-size="14.00">value = [52.127, 1.037]</text>
<text text-anchor="middle" x="472" y="-260.8" font-family="Times,serif" font-size="14.00">class = Non&#45;obstructive</text>
</g>
<!-- 1&#45;&gt;3 -->
<g id="edge3" class="edge">
<title>1&#45;&gt;3</title>
<path fill="none" stroke="black" d="M472,-386.97C472,-378.69 472,-370 472,-361.48"/>
<polygon fill="black" stroke="black" points="475.5,-361.21 472,-351.21 468.5,-361.21 475.5,-361.21"/>
</g>
<!-- 4 -->
<g id="node5" class="node">
<title>4</title>
<polygon fill="none" stroke="black" points="360,-217 160,-217 160,-119 360,-119 360,-217"/>
<text text-anchor="middle" x="260" y="-201.8" font-family="Times,serif" font-size="14.00">node #4</text>
<text text-anchor="middle" x="260" y="-186.8" font-family="Times,serif" font-size="14.00">FEV1PrePercent &lt;= 43.0</text>
<text text-anchor="middle" x="260" y="-171.8" font-family="Times,serif" font-size="14.00">gini = 0.388</text>
<text text-anchor="middle" x="260" y="-156.8" font-family="Times,serif" font-size="14.00">samples = 3</text>
<text text-anchor="middle" x="260" y="-141.8" font-family="Times,serif" font-size="14.00">value = [2.896, 1.037]</text>
<text text-anchor="middle" x="260" y="-126.8" font-family="Times,serif" font-size="14.00">class = Non&#45;obstructive</text>
</g>
<!-- 3&#45;&gt;4 -->
<g id="edge4" class="edge">
<title>3&#45;&gt;4</title>
<path fill="none" stroke="black" d="M394.86,-252.97C379.08,-243.14 362.37,-232.74 346.29,-222.73"/>
<polygon fill="black" stroke="black" points="347.77,-219.53 337.43,-217.21 344.07,-225.47 347.77,-219.53"/>
</g>
<!-- 7 -->
<g id="node8" class="node">
<title>7</title>
<polygon fill="none" stroke="black" points="566,-209.5 378,-209.5 378,-126.5 566,-126.5 566,-209.5"/>
<text text-anchor="middle" x="472" y="-194.3" font-family="Times,serif" font-size="14.00">node #7</text>
<text text-anchor="middle" x="472" y="-179.3" font-family="Times,serif" font-size="14.00">gini = 0.0</text>
<text text-anchor="middle" x="472" y="-164.3" font-family="Times,serif" font-size="14.00">samples = 28</text>
<text text-anchor="middle" x="472" y="-149.3" font-family="Times,serif" font-size="14.00">value = [49.231, 0.0]</text>
<text text-anchor="middle" x="472" y="-134.3" font-family="Times,serif" font-size="14.00">class = Non&#45;obstructive</text>
</g>
<!-- 3&#45;&gt;7 -->
<g id="edge7" class="edge">
<title>3&#45;&gt;7</title>
<path fill="none" stroke="black" d="M472,-252.97C472,-242.25 472,-230.84 472,-219.99"/>
<polygon fill="black" stroke="black" points="475.5,-219.82 472,-209.82 468.5,-219.82 475.5,-219.82"/>
</g>
<!-- 5 -->
<g id="node6" class="node">
<title>5</title>
<polygon fill="none" stroke="black" points="188,-83 0,-83 0,0 188,0 188,-83"/>
<text text-anchor="middle" x="94" y="-67.8" font-family="Times,serif" font-size="14.00">node #5</text>
<text text-anchor="middle" x="94" y="-52.8" font-family="Times,serif" font-size="14.00">gini = 0.0</text>
<text text-anchor="middle" x="94" y="-37.8" font-family="Times,serif" font-size="14.00">samples = 2</text>
<text text-anchor="middle" x="94" y="-22.8" font-family="Times,serif" font-size="14.00">value = [2.896, 0.0]</text>
<text text-anchor="middle" x="94" y="-7.8" font-family="Times,serif" font-size="14.00">class = Non&#45;obstructive</text>
</g>
<!-- 4&#45;&gt;5 -->
<g id="edge5" class="edge">
<title>4&#45;&gt;5</title>
<path fill="none" stroke="black" d="M195.82,-118.87C182.87,-109.15 169.28,-98.96 156.39,-89.3"/>
<polygon fill="black" stroke="black" points="158.14,-86.23 148.04,-83.03 153.94,-91.83 158.14,-86.23"/>
</g>
<!-- 6 -->
<g id="node7" class="node">
<title>6</title>
<polygon fill="none" stroke="black" points="364,-83 206,-83 206,0 364,0 364,-83"/>
<text text-anchor="middle" x="285" y="-67.8" font-family="Times,serif" font-size="14.00">node #6</text>
<text text-anchor="middle" x="285" y="-52.8" font-family="Times,serif" font-size="14.00">gini = &#45;0.0</text>
<text text-anchor="middle" x="285" y="-37.8" font-family="Times,serif" font-size="14.00">samples = 1</text>
<text text-anchor="middle" x="285" y="-22.8" font-family="Times,serif" font-size="14.00">value = [0.0, 1.037]</text>
<text text-anchor="middle" x="285" y="-7.8" font-family="Times,serif" font-size="14.00">class = Obstructive</text>
</g>
<!-- 4&#45;&gt;6 -->
<g id="edge6" class="edge">
<title>4&#45;&gt;6</title>
<path fill="none" stroke="black" d="M269.67,-118.87C271.36,-110.41 273.14,-101.58 274.85,-93.06"/>
<polygon fill="black" stroke="black" points="278.28,-93.72 276.82,-83.23 271.42,-92.35 278.28,-93.72"/>
</g>
<!-- 9 -->
<g id="node10" class="node">
<title>9</title>
<polygon fill="none" stroke="black" points="883,-351 689,-351 689,-253 883,-253 883,-351"/>
<text text-anchor="middle" x="786" y="-335.8" font-family="Times,serif" font-size="14.00">node #9</text>
<text text-anchor="middle" x="786" y="-320.8" font-family="Times,serif" font-size="14.00">FVCPostVal &lt;= 1.495</text>
<text text-anchor="middle" x="786" y="-305.8" font-family="Times,serif" font-size="14.00">gini = 0.195</text>
<text text-anchor="middle" x="786" y="-290.8" font-family="Times,serif" font-size="14.00">samples = 66</text>
<text text-anchor="middle" x="786" y="-275.8" font-family="Times,serif" font-size="14.00">value = [11.584, 94.391]</text>
<text text-anchor="middle" x="786" y="-260.8" font-family="Times,serif" font-size="14.00">class = Obstructive</text>
</g>
<!-- 8&#45;&gt;9 -->
<g id="edge9" class="edge">
<title>8&#45;&gt;9</title>
<path fill="none" stroke="black" d="M786,-386.97C786,-378.69 786,-370 786,-361.48"/>
<polygon fill="black" stroke="black" points="789.5,-361.21 786,-351.21 782.5,-361.21 789.5,-361.21"/>
</g>
<!-- 16 -->
<g id="node17" class="node">
<title>16</title>
<polygon fill="none" stroke="black" points="1489.5,-351 1286.5,-351 1286.5,-253 1489.5,-253 1489.5,-351"/>
<text text-anchor="middle" x="1388" y="-335.8" font-family="Times,serif" font-size="14.00">node #16</text>
<text text-anchor="middle" x="1388" y="-320.8" font-family="Times,serif" font-size="14.00">FEV1PreVal &lt;= 2.82</text>
<text text-anchor="middle" x="1388" y="-305.8" font-family="Times,serif" font-size="14.00">gini = 0.473</text>
<text text-anchor="middle" x="1388" y="-290.8" font-family="Times,serif" font-size="14.00">samples = 103</text>
<text text-anchor="middle" x="1388" y="-275.8" font-family="Times,serif" font-size="14.00">value = [103.289, 64.311]</text>
<text text-anchor="middle" x="1388" y="-260.8" font-family="Times,serif" font-size="14.00">class = Non&#45;obstructive</text>
</g>
<!-- 8&#45;&gt;16 -->
<g id="edge16" class="edge">
<title>8&#45;&gt;16</title>
<path fill="none" stroke="black" d="M892.24,-411.7C1000.2,-388.03 1166.75,-351.51 1276.55,-327.44"/>
<polygon fill="black" stroke="black" points="1277.31,-330.85 1286.33,-325.29 1275.81,-324.02 1277.31,-330.85"/>
</g>
<!-- 10 -->
<g id="node11" class="node">
<title>10</title>
<polygon fill="none" stroke="black" points="772,-217 584,-217 584,-119 772,-119 772,-217"/>
<text text-anchor="middle" x="678" y="-201.8" font-family="Times,serif" font-size="14.00">node #10</text>
<text text-anchor="middle" x="678" y="-186.8" font-family="Times,serif" font-size="14.00">FEFPreVal &lt;= 0.645</text>
<text text-anchor="middle" x="678" y="-171.8" font-family="Times,serif" font-size="14.00">gini = 0.494</text>
<text text-anchor="middle" x="678" y="-156.8" font-family="Times,serif" font-size="14.00">samples = 4</text>
<text text-anchor="middle" x="678" y="-141.8" font-family="Times,serif" font-size="14.00">value = [3.861, 3.112]</text>
<text text-anchor="middle" x="678" y="-126.8" font-family="Times,serif" font-size="14.00">class = Non&#45;obstructive</text>
</g>
<!-- 9&#45;&gt;10 -->
<g id="edge10" class="edge">
<title>9&#45;&gt;10</title>
<path fill="none" stroke="black" d="M746.7,-252.97C739.26,-243.87 731.41,-234.28 723.79,-224.96"/>
<polygon fill="black" stroke="black" points="726.49,-222.74 717.45,-217.21 721.07,-227.17 726.49,-222.74"/>
</g>
<!-- 13 -->
<g id="node14" class="node">
<title>13</title>
<polygon fill="none" stroke="black" points="968,-217 792,-217 792,-119 968,-119 968,-217"/>
<text text-anchor="middle" x="880" y="-201.8" font-family="Times,serif" font-size="14.00">node #13</text>
<text text-anchor="middle" x="880" y="-186.8" font-family="Times,serif" font-size="14.00">FEFPostVal &lt;= 0.975</text>
<text text-anchor="middle" x="880" y="-171.8" font-family="Times,serif" font-size="14.00">gini = 0.144</text>
<text text-anchor="middle" x="880" y="-156.8" font-family="Times,serif" font-size="14.00">samples = 62</text>
<text text-anchor="middle" x="880" y="-141.8" font-family="Times,serif" font-size="14.00">value = [7.723, 91.28]</text>
<text text-anchor="middle" x="880" y="-126.8" font-family="Times,serif" font-size="14.00">class = Obstructive</text>
</g>
<!-- 9&#45;&gt;13 -->
<g id="edge13" class="edge">
<title>9&#45;&gt;13</title>
<path fill="none" stroke="black" d="M820.2,-252.97C826.55,-244.05 833.24,-234.66 839.75,-225.52"/>
<polygon fill="black" stroke="black" points="842.72,-227.39 845.67,-217.21 837.01,-223.33 842.72,-227.39"/>
</g>
<!-- 11 -->
<g id="node12" class="node">
<title>11</title>
<polygon fill="none" stroke="black" points="563,-83 405,-83 405,0 563,0 563,-83"/>
<text text-anchor="middle" x="484" y="-67.8" font-family="Times,serif" font-size="14.00">node #11</text>
<text text-anchor="middle" x="484" y="-52.8" font-family="Times,serif" font-size="14.00">gini = 0.0</text>
<text text-anchor="middle" x="484" y="-37.8" font-family="Times,serif" font-size="14.00">samples = 2</text>
<text text-anchor="middle" x="484" y="-22.8" font-family="Times,serif" font-size="14.00">value = [0.0, 3.112]</text>
<text text-anchor="middle" x="484" y="-7.8" font-family="Times,serif" font-size="14.00">class = Obstructive</text>
</g>
<!-- 10&#45;&gt;11 -->
<g id="edge11" class="edge">
<title>10&#45;&gt;11</title>
<path fill="none" stroke="black" d="M602.99,-118.87C587.43,-108.88 571.07,-98.38 555.63,-88.47"/>
<polygon fill="black" stroke="black" points="557.47,-85.49 547.16,-83.03 553.68,-91.38 557.47,-85.49"/>
</g>
<!-- 12 -->
<g id="node13" class="node">
<title>12</title>
<polygon fill="none" stroke="black" points="769,-83 581,-83 581,0 769,0 769,-83"/>
<text text-anchor="middle" x="675" y="-67.8" font-family="Times,serif" font-size="14.00">node #12</text>
<text text-anchor="middle" x="675" y="-52.8" font-family="Times,serif" font-size="14.00">gini = 0.0</text>
<text text-anchor="middle" x="675" y="-37.8" font-family="Times,serif" font-size="14.00">samples = 2</text>
<text text-anchor="middle" x="675" y="-22.8" font-family="Times,serif" font-size="14.00">value = [3.861, 0.0]</text>
<text text-anchor="middle" x="675" y="-7.8" font-family="Times,serif" font-size="14.00">class = Non&#45;obstructive</text>
</g>
<!-- 10&#45;&gt;12 -->
<g id="edge12" class="edge">
<title>10&#45;&gt;12</title>
<path fill="none" stroke="black" d="M676.84,-118.87C676.64,-110.5 676.43,-101.77 676.22,-93.33"/>
<polygon fill="black" stroke="black" points="679.72,-93.14 675.98,-83.23 672.72,-93.31 679.72,-93.14"/>
</g>
<!-- 14 -->
<g id="node15" class="node">
<title>14</title>
<polygon fill="none" stroke="black" points="972.5,-83 787.5,-83 787.5,0 972.5,0 972.5,-83"/>
<text text-anchor="middle" x="880" y="-67.8" font-family="Times,serif" font-size="14.00">node #14</text>
<text text-anchor="middle" x="880" y="-52.8" font-family="Times,serif" font-size="14.00">gini = 0.03</text>
<text text-anchor="middle" x="880" y="-37.8" font-family="Times,serif" font-size="14.00">samples = 41</text>
<text text-anchor="middle" x="880" y="-22.8" font-family="Times,serif" font-size="14.00">value = [0.965, 63.273]</text>
<text text-anchor="middle" x="880" y="-7.8" font-family="Times,serif" font-size="14.00">class = Obstructive</text>
</g>
<!-- 13&#45;&gt;14 -->
<g id="edge14" class="edge">
<title>13&#45;&gt;14</title>
<path fill="none" stroke="black" d="M880,-118.87C880,-110.5 880,-101.77 880,-93.33"/>
<polygon fill="black" stroke="black" points="883.5,-93.23 880,-83.23 876.5,-93.23 883.5,-93.23"/>
</g>
<!-- 15 -->
<g id="node16" class="node">
<title>15</title>
<polygon fill="none" stroke="black" points="1175.5,-83 990.5,-83 990.5,0 1175.5,0 1175.5,-83"/>
<text text-anchor="middle" x="1083" y="-67.8" font-family="Times,serif" font-size="14.00">node #15</text>
<text text-anchor="middle" x="1083" y="-52.8" font-family="Times,serif" font-size="14.00">gini = 0.313</text>
<text text-anchor="middle" x="1083" y="-37.8" font-family="Times,serif" font-size="14.00">samples = 21</text>
<text text-anchor="middle" x="1083" y="-22.8" font-family="Times,serif" font-size="14.00">value = [6.757, 28.006]</text>
<text text-anchor="middle" x="1083" y="-7.8" font-family="Times,serif" font-size="14.00">class = Obstructive</text>
</g>
<!-- 13&#45;&gt;15 -->
<g id="edge15" class="edge">
<title>13&#45;&gt;15</title>
<path fill="none" stroke="black" d="M958.49,-118.87C974.77,-108.88 991.89,-98.38 1008.05,-88.47"/>
<polygon fill="black" stroke="black" points="1010.22,-91.24 1016.91,-83.03 1006.56,-85.28 1010.22,-91.24"/>
</g>
<!-- 17 -->
<g id="node18" class="node">
<title>17</title>
<polygon fill="none" stroke="black" points="1489.5,-217 1286.5,-217 1286.5,-119 1489.5,-119 1489.5,-217"/>
<text text-anchor="middle" x="1388" y="-201.8" font-family="Times,serif" font-size="14.00">node #17</text>
<text text-anchor="middle" x="1388" y="-186.8" font-family="Times,serif" font-size="14.00">FEFPostPercent &lt;= 51.5</text>
<text text-anchor="middle" x="1388" y="-171.8" font-family="Times,serif" font-size="14.00">gini = 0.449</text>
<text text-anchor="middle" x="1388" y="-156.8" font-family="Times,serif" font-size="14.00">samples = 92</text>
<text text-anchor="middle" x="1388" y="-141.8" font-family="Times,serif" font-size="14.00">value = [100.393, 51.863]</text>
<text text-anchor="middle" x="1388" y="-126.8" font-family="Times,serif" font-size="14.00">class = Non&#45;obstructive</text>
</g>
<!-- 16&#45;&gt;17 -->
<g id="edge17" class="edge">
<title>16&#45;&gt;17</title>
<path fill="none" stroke="black" d="M1388,-252.97C1388,-244.69 1388,-236 1388,-227.48"/>
<polygon fill="black" stroke="black" points="1391.5,-227.21 1388,-217.21 1384.5,-227.21 1391.5,-227.21"/>
</g>
<!-- 20 -->
<g id="node21" class="node">
<title>20</title>
<polygon fill="none" stroke="black" points="1804.5,-217 1607.5,-217 1607.5,-119 1804.5,-119 1804.5,-217"/>
<text text-anchor="middle" x="1706" y="-201.8" font-family="Times,serif" font-size="14.00">node #20</text>
<text text-anchor="middle" x="1706" y="-186.8" font-family="Times,serif" font-size="14.00">FVCPostPercent &lt;= 84.0</text>
<text text-anchor="middle" x="1706" y="-171.8" font-family="Times,serif" font-size="14.00">gini = 0.306</text>
<text text-anchor="middle" x="1706" y="-156.8" font-family="Times,serif" font-size="14.00">samples = 11</text>
<text text-anchor="middle" x="1706" y="-141.8" font-family="Times,serif" font-size="14.00">value = [2.896, 12.447]</text>
<text text-anchor="middle" x="1706" y="-126.8" font-family="Times,serif" font-size="14.00">class = Obstructive</text>
</g>
<!-- 16&#45;&gt;20 -->
<g id="edge20" class="edge">
<title>16&#45;&gt;20</title>
<path fill="none" stroke="black" d="M1489.93,-258.69C1524.45,-244.36 1563.11,-228.31 1598.08,-213.8"/>
<polygon fill="black" stroke="black" points="1599.47,-217.01 1607.36,-209.95 1596.78,-210.55 1599.47,-217.01"/>
</g>
<!-- 18 -->
<g id="node19" class="node">
<title>18</title>
<polygon fill="none" stroke="black" points="1382,-83 1194,-83 1194,0 1382,0 1382,-83"/>
<text text-anchor="middle" x="1288" y="-67.8" font-family="Times,serif" font-size="14.00">node #18</text>
<text text-anchor="middle" x="1288" y="-52.8" font-family="Times,serif" font-size="14.00">gini = 0.0</text>
<text text-anchor="middle" x="1288" y="-37.8" font-family="Times,serif" font-size="14.00">samples = 9</text>
<text text-anchor="middle" x="1288" y="-22.8" font-family="Times,serif" font-size="14.00">value = [25.098, 0.0]</text>
<text text-anchor="middle" x="1288" y="-7.8" font-family="Times,serif" font-size="14.00">class = Non&#45;obstructive</text>
</g>
<!-- 17&#45;&gt;18 -->
<g id="edge18" class="edge">
<title>17&#45;&gt;18</title>
<path fill="none" stroke="black" d="M1349.34,-118.87C1342.03,-109.76 1334.37,-100.23 1327.05,-91.12"/>
<polygon fill="black" stroke="black" points="1329.71,-88.84 1320.72,-83.23 1324.25,-93.22 1329.71,-88.84"/>
</g>
<!-- 19 -->
<g id="node20" class="node">
<title>19</title>
<polygon fill="none" stroke="black" points="1594,-83 1400,-83 1400,0 1594,0 1594,-83"/>
<text text-anchor="middle" x="1497" y="-67.8" font-family="Times,serif" font-size="14.00">node #19</text>
<text text-anchor="middle" x="1497" y="-52.8" font-family="Times,serif" font-size="14.00">gini = 0.483</text>
<text text-anchor="middle" x="1497" y="-37.8" font-family="Times,serif" font-size="14.00">samples = 83</text>
<text text-anchor="middle" x="1497" y="-22.8" font-family="Times,serif" font-size="14.00">value = [75.295, 51.863]</text>
<text text-anchor="middle" x="1497" y="-7.8" font-family="Times,serif" font-size="14.00">class = Non&#45;obstructive</text>
</g>
<!-- 17&#45;&gt;19 -->
<g id="edge19" class="edge">
<title>17&#45;&gt;19</title>
<path fill="none" stroke="black" d="M1430.14,-118.87C1438.19,-109.67 1446.62,-100.04 1454.68,-90.84"/>
<polygon fill="black" stroke="black" points="1457.39,-93.06 1461.34,-83.23 1452.12,-88.45 1457.39,-93.06"/>
</g>
<!-- 21 -->
<g id="node22" class="node">
<title>21</title>
<polygon fill="none" stroke="black" points="1800,-83 1612,-83 1612,0 1800,0 1800,-83"/>
<text text-anchor="middle" x="1706" y="-67.8" font-family="Times,serif" font-size="14.00">node #21</text>
<text text-anchor="middle" x="1706" y="-52.8" font-family="Times,serif" font-size="14.00">gini = 0.0</text>
<text text-anchor="middle" x="1706" y="-37.8" font-family="Times,serif" font-size="14.00">samples = 1</text>
<text text-anchor="middle" x="1706" y="-22.8" font-family="Times,serif" font-size="14.00">value = [1.931, 0.0]</text>
<text text-anchor="middle" x="1706" y="-7.8" font-family="Times,serif" font-size="14.00">class = Non&#45;obstructive</text>
</g>
<!-- 20&#45;&gt;21 -->
<g id="edge21" class="edge">
<title>20&#45;&gt;21</title>
<path fill="none" stroke="black" d="M1706,-118.87C1706,-110.5 1706,-101.77 1706,-93.33"/>
<polygon fill="black" stroke="black" points="1709.5,-93.23 1706,-83.23 1702.5,-93.23 1709.5,-93.23"/>
</g>
<!-- 22 -->
<g id="node23" class="node">
<title>22</title>
<polygon fill="none" stroke="black" points="2003.5,-83 1818.5,-83 1818.5,0 2003.5,0 2003.5,-83"/>
<text text-anchor="middle" x="1911" y="-67.8" font-family="Times,serif" font-size="14.00">node #22</text>
<text text-anchor="middle" x="1911" y="-52.8" font-family="Times,serif" font-size="14.00">gini = 0.134</text>
<text text-anchor="middle" x="1911" y="-37.8" font-family="Times,serif" font-size="14.00">samples = 10</text>
<text text-anchor="middle" x="1911" y="-22.8" font-family="Times,serif" font-size="14.00">value = [0.965, 12.447]</text>
<text text-anchor="middle" x="1911" y="-7.8" font-family="Times,serif" font-size="14.00">class = Obstructive</text>
</g>
<!-- 20&#45;&gt;22 -->
<g id="edge22" class="edge">
<title>20&#45;&gt;22</title>
<path fill="none" stroke="black" d="M1785.26,-118.87C1801.7,-108.88 1818.99,-98.38 1835.31,-88.47"/>
<polygon fill="black" stroke="black" points="1837.53,-91.21 1844.26,-83.03 1833.9,-85.23 1837.53,-91.21"/>
</g>
</g>
</svg>
