<?xml version="1.0" encoding="UTF-8" standalone="no"?>
<!DOCTYPE svg PUBLIC "-//W3C//DTD SVG 1.1//EN"
 "http://www.w3.org/Graphics/SVG/1.1/DTD/svg11.dtd">
<!-- Generated by graphviz version 2.43.0 (0)
 -->
<!-- Title: Tree Pages: 1 -->
<svg width="2165pt" height="627pt"
 viewBox="0.00 0.00 2165.00 627.00" xmlns="http://www.w3.org/2000/svg" xmlns:xlink="http://www.w3.org/1999/xlink">
<g id="graph0" class="graph" transform="scale(1 1) rotate(0) translate(4 623)">
<title>Tree</title>
<polygon fill="white" stroke="transparent" points="-4,4 -4,-623 2161,-623 2161,4 -4,4"/>
<!-- 0 -->
<g id="node1" class="node">
<title>0</title>
<polygon fill="none" stroke="black" points="987,-619 799,-619 799,-521 987,-521 987,-619"/>
<text text-anchor="middle" x="893" y="-603.8" font-family="Times,serif" font-size="14.00">node #0</text>
<text text-anchor="middle" x="893" y="-588.8" font-family="Times,serif" font-size="14.00">FEFPreVal &lt;= 1.135</text>
<text text-anchor="middle" x="893" y="-573.8" font-family="Times,serif" font-size="14.00">gini = 0.5</text>
<text text-anchor="middle" x="893" y="-558.8" font-family="Times,serif" font-size="14.00">samples = 204</text>
<text text-anchor="middle" x="893" y="-543.8" font-family="Times,serif" font-size="14.00">value = [166.5, 166.5]</text>
<text text-anchor="middle" x="893" y="-528.8" font-family="Times,serif" font-size="14.00">class = Non&#45;obstructive</text>
</g>
<!-- 1 -->
<g id="node2" class="node">
<title>1</title>
<polygon fill="none" stroke="black" points="688.5,-485 485.5,-485 485.5,-387 688.5,-387 688.5,-485"/>
<text text-anchor="middle" x="587" y="-469.8" font-family="Times,serif" font-size="14.00">node #1</text>
<text text-anchor="middle" x="587" y="-454.8" font-family="Times,serif" font-size="14.00">FVCPostVal &lt;= 1.145</text>
<text text-anchor="middle" x="587" y="-439.8" font-family="Times,serif" font-size="14.00">gini = 0.185</text>
<text text-anchor="middle" x="587" y="-424.8" font-family="Times,serif" font-size="14.00">samples = 76</text>
<text text-anchor="middle" x="587" y="-409.8" font-family="Times,serif" font-size="14.00">value = [13.039, 113.659]</text>
<text text-anchor="middle" x="587" y="-394.8" font-family="Times,serif" font-size="14.00">class = Obstructive</text>
</g>
<!-- 0&#45;&gt;1 -->
<g id="edge1" class="edge">
<title>0&#45;&gt;1</title>
<path fill="none" stroke="black" d="M798.69,-528.32C766.83,-514.57 730.97,-499.1 697.94,-484.86"/>
<polygon fill="black" stroke="black" points="699.27,-481.62 688.7,-480.87 696.5,-488.05 699.27,-481.62"/>
<text text-anchor="middle" x="697.93" y="-500.41" font-family="Times,serif" font-size="14.00">True</text>
</g>
<!-- 12 -->
<g id="node13" class="node">
<title>12</title>
<polygon fill="none" stroke="black" points="1344.5,-485 1141.5,-485 1141.5,-387 1344.5,-387 1344.5,-485"/>
<text text-anchor="middle" x="1243" y="-469.8" font-family="Times,serif" font-size="14.00">node #12</text>
<text text-anchor="middle" x="1243" y="-454.8" font-family="Times,serif" font-size="14.00">FEV1PostVal &lt;= 1.82</text>
<text text-anchor="middle" x="1243" y="-439.8" font-family="Times,serif" font-size="14.00">gini = 0.381</text>
<text text-anchor="middle" x="1243" y="-424.8" font-family="Times,serif" font-size="14.00">samples = 128</text>
<text text-anchor="middle" x="1243" y="-409.8" font-family="Times,serif" font-size="14.00">value = [153.461, 52.841]</text>
<text text-anchor="middle" x="1243" y="-394.8" font-family="Times,serif" font-size="14.00">class = Non&#45;obstructive</text>
</g>
<!-- 0&#45;&gt;12 -->
<g id="edge12" class="edge">
<title>0&#45;&gt;12</title>
<path fill="none" stroke="black" d="M987.25,-533.45C1031.77,-516.66 1085.21,-496.51 1131.7,-478.97"/>
<polygon fill="black" stroke="black" points="1133.09,-482.19 1141.21,-475.39 1130.62,-475.64 1133.09,-482.19"/>
<text text-anchor="middle" x="1130.91" y="-494.47" font-family="Times,serif" font-size="14.00">False</text>
</g>
<!-- 2 -->
<g id="node3" class="node">
<title>2</title>
<polygon fill="none" stroke="black" points="368.5,-351 171.5,-351 171.5,-253 368.5,-253 368.5,-351"/>
<text text-anchor="middle" x="270" y="-335.8" font-family="Times,serif" font-size="14.00">node #2</text>
<text text-anchor="middle" x="270" y="-320.8" font-family="Times,serif" font-size="14.00">FEFPostPercent &lt;= 19.0</text>
<text text-anchor="middle" x="270" y="-305.8" font-family="Times,serif" font-size="14.00">gini = 0.407</text>
<text text-anchor="middle" x="270" y="-290.8" font-family="Times,serif" font-size="14.00">samples = 3</text>
<text text-anchor="middle" x="270" y="-275.8" font-family="Times,serif" font-size="14.00">value = [5.015, 1.994]</text>
<text text-anchor="middle" x="270" y="-260.8" font-family="Times,serif" font-size="14.00">class = Non&#45;obstructive</text>
</g>
<!-- 1&#45;&gt;2 -->
<g id="edge2" class="edge">
<title>1&#45;&gt;2</title>
<path fill="none" stroke="black" d="M485.39,-392.69C451.06,-378.4 412.63,-362.39 377.83,-347.9"/>
<polygon fill="black" stroke="black" points="379.18,-344.67 368.6,-344.06 376.49,-351.13 379.18,-344.67"/>
</g>
<!-- 5 -->
<g id="node6" class="node">
<title>5</title>
<polygon fill="none" stroke="black" points="684,-351 490,-351 490,-253 684,-253 684,-351"/>
<text text-anchor="middle" x="587" y="-335.8" font-family="Times,serif" font-size="14.00">node #5</text>
<text text-anchor="middle" x="587" y="-320.8" font-family="Times,serif" font-size="14.00">FEFPrePercent &lt;= 32.5</text>
<text text-anchor="middle" x="587" y="-305.8" font-family="Times,serif" font-size="14.00">gini = 0.125</text>
<text text-anchor="middle" x="587" y="-290.8" font-family="Times,serif" font-size="14.00">samples = 73</text>
<text text-anchor="middle" x="587" y="-275.8" font-family="Times,serif" font-size="14.00">value = [8.024, 111.665]</text>
<text text-anchor="middle" x="587" y="-260.8" font-family="Times,serif" font-size="14.00">class = Obstructive</text>
</g>
<!-- 1&#45;&gt;5 -->
<g id="edge5" class="edge">
<title>1&#45;&gt;5</title>
<path fill="none" stroke="black" d="M587,-386.97C587,-378.69 587,-370 587,-361.48"/>
<polygon fill="black" stroke="black" points="590.5,-361.21 587,-351.21 583.5,-361.21 590.5,-361.21"/>
</g>
<!-- 3 -->
<g id="node4" class="node">
<title>3</title>
<polygon fill="none" stroke="black" points="158,-209.5 0,-209.5 0,-126.5 158,-126.5 158,-209.5"/>
<text text-anchor="middle" x="79" y="-194.3" font-family="Times,serif" font-size="14.00">node #3</text>
<text text-anchor="middle" x="79" y="-179.3" font-family="Times,serif" font-size="14.00">gini = 0.0</text>
<text text-anchor="middle" x="79" y="-164.3" font-family="Times,serif" font-size="14.00">samples = 1</text>
<text text-anchor="middle" x="79" y="-149.3" font-family="Times,serif" font-size="14.00">value = [0.0, 1.994]</text>
<text text-anchor="middle" x="79" y="-134.3" font-family="Times,serif" font-size="14.00">class = Obstructive</text>
</g>
<!-- 2&#45;&gt;3 -->
<g id="edge3" class="edge">
<title>2&#45;&gt;3</title>
<path fill="none" stroke="black" d="M200.5,-252.97C182.81,-240.75 163.83,-227.63 146.26,-215.48"/>
<polygon fill="black" stroke="black" points="147.97,-212.41 137.75,-209.6 143.99,-218.17 147.97,-212.41"/>
</g>
<!-- 4 -->
<g id="node5" class="node">
<title>4</title>
<polygon fill="none" stroke="black" points="364,-209.5 176,-209.5 176,-126.5 364,-126.5 364,-209.5"/>
<text text-anchor="middle" x="270" y="-194.3" font-family="Times,serif" font-size="14.00">node #4</text>
<text text-anchor="middle" x="270" y="-179.3" font-family="Times,serif" font-size="14.00">gini = 0.0</text>
<text text-anchor="middle" x="270" y="-164.3" font-family="Times,serif" font-size="14.00">samples = 2</text>
<text text-anchor="middle" x="270" y="-149.3" font-family="Times,serif" font-size="14.00">value = [5.015, 0.0]</text>
<text text-anchor="middle" x="270" y="-134.3" font-family="Times,serif" font-size="14.00">class = Non&#45;obstructive</text>
</g>
<!-- 2&#45;&gt;4 -->
<g id="edge4" class="edge">
<title>2&#45;&gt;4</title>
<path fill="none" stroke="black" d="M270,-252.97C270,-242.25 270,-230.84 270,-219.99"/>
<polygon fill="black" stroke="black" points="273.5,-219.82 270,-209.82 266.5,-219.82 273.5,-219.82"/>
</g>
<!-- 6 -->
<g id="node7" class="node">
<title>6</title>
<polygon fill="none" stroke="black" points="579.5,-217 382.5,-217 382.5,-119 579.5,-119 579.5,-217"/>
<text text-anchor="middle" x="481" y="-201.8" font-family="Times,serif" font-size="14.00">node #6</text>
<text text-anchor="middle" x="481" y="-186.8" font-family="Times,serif" font-size="14.00">FEFPostPercent &lt;= 23.5</text>
<text text-anchor="middle" x="481" y="-171.8" font-family="Times,serif" font-size="14.00">gini = 0.039</text>
<text text-anchor="middle" x="481" y="-156.8" font-family="Times,serif" font-size="14.00">samples = 62</text>
<text text-anchor="middle" x="481" y="-141.8" font-family="Times,serif" font-size="14.00">value = [2.006, 98.704]</text>
<text text-anchor="middle" x="481" y="-126.8" font-family="Times,serif" font-size="14.00">class = Obstructive</text>
</g>
<!-- 5&#45;&gt;6 -->
<g id="edge6" class="edge">
<title>5&#45;&gt;6</title>
<path fill="none" stroke="black" d="M548.43,-252.97C541.2,-243.96 533.58,-234.47 526.16,-225.24"/>
<polygon fill="black" stroke="black" points="528.71,-222.82 519.72,-217.21 523.25,-227.2 528.71,-222.82"/>
</g>
<!-- 9 -->
<g id="node10" class="node">
<title>9</title>
<polygon fill="none" stroke="black" points="782.5,-217 597.5,-217 597.5,-119 782.5,-119 782.5,-217"/>
<text text-anchor="middle" x="690" y="-201.8" font-family="Times,serif" font-size="14.00">node #9</text>
<text text-anchor="middle" x="690" y="-186.8" font-family="Times,serif" font-size="14.00">FVCPostVal &lt;= 1.515</text>
<text text-anchor="middle" x="690" y="-171.8" font-family="Times,serif" font-size="14.00">gini = 0.433</text>
<text text-anchor="middle" x="690" y="-156.8" font-family="Times,serif" font-size="14.00">samples = 11</text>
<text text-anchor="middle" x="690" y="-141.8" font-family="Times,serif" font-size="14.00">value = [6.018, 12.961]</text>
<text text-anchor="middle" x="690" y="-126.8" font-family="Times,serif" font-size="14.00">class = Obstructive</text>
</g>
<!-- 5&#45;&gt;9 -->
<g id="edge9" class="edge">
<title>5&#45;&gt;9</title>
<path fill="none" stroke="black" d="M624.48,-252.97C631.51,-243.96 638.91,-234.47 646.12,-225.24"/>
<polygon fill="black" stroke="black" points="648.99,-227.25 652.38,-217.21 643.47,-222.94 648.99,-227.25"/>
</g>
<!-- 7 -->
<g id="node8" class="node">
<title>7</title>
<polygon fill="none" stroke="black" points="370.5,-83 203.5,-83 203.5,0 370.5,0 370.5,-83"/>
<text text-anchor="middle" x="287" y="-67.8" font-family="Times,serif" font-size="14.00">node #7</text>
<text text-anchor="middle" x="287" y="-52.8" font-family="Times,serif" font-size="14.00">gini = 0.0</text>
<text text-anchor="middle" x="287" y="-37.8" font-family="Times,serif" font-size="14.00">samples = 42</text>
<text text-anchor="middle" x="287" y="-22.8" font-family="Times,serif" font-size="14.00">value = [0.0, 61.814]</text>
<text text-anchor="middle" x="287" y="-7.8" font-family="Times,serif" font-size="14.00">class = Obstructive</text>
</g>
<!-- 6&#45;&gt;7 -->
<g id="edge7" class="edge">
<title>6&#45;&gt;7</title>
<path fill="none" stroke="black" d="M405.99,-118.87C390.43,-108.88 374.07,-98.38 358.63,-88.47"/>
<polygon fill="black" stroke="black" points="360.47,-85.49 350.16,-83.03 356.68,-91.38 360.47,-85.49"/>
</g>
<!-- 8 -->
<g id="node9" class="node">
<title>8</title>
<polygon fill="none" stroke="black" points="573.5,-83 388.5,-83 388.5,0 573.5,0 573.5,-83"/>
<text text-anchor="middle" x="481" y="-67.8" font-family="Times,serif" font-size="14.00">node #8</text>
<text text-anchor="middle" x="481" y="-52.8" font-family="Times,serif" font-size="14.00">gini = 0.098</text>
<text text-anchor="middle" x="481" y="-37.8" font-family="Times,serif" font-size="14.00">samples = 20</text>
<text text-anchor="middle" x="481" y="-22.8" font-family="Times,serif" font-size="14.00">value = [2.006, 36.889]</text>
<text text-anchor="middle" x="481" y="-7.8" font-family="Times,serif" font-size="14.00">class = Obstructive</text>
</g>
<!-- 6&#45;&gt;8 -->
<g id="edge8" class="edge">
<title>6&#45;&gt;8</title>
<path fill="none" stroke="black" d="M481,-118.87C481,-110.5 481,-101.77 481,-93.33"/>
<polygon fill="black" stroke="black" points="484.5,-93.23 481,-83.23 477.5,-93.23 484.5,-93.23"/>
</g>
<!-- 10 -->
<g id="node11" class="node">
<title>10</title>
<polygon fill="none" stroke="black" points="780,-83 592,-83 592,0 780,0 780,-83"/>
<text text-anchor="middle" x="686" y="-67.8" font-family="Times,serif" font-size="14.00">node #10</text>
<text text-anchor="middle" x="686" y="-52.8" font-family="Times,serif" font-size="14.00">gini = 0.319</text>
<text text-anchor="middle" x="686" y="-37.8" font-family="Times,serif" font-size="14.00">samples = 3</text>
<text text-anchor="middle" x="686" y="-22.8" font-family="Times,serif" font-size="14.00">value = [4.012, 0.997]</text>
<text text-anchor="middle" x="686" y="-7.8" font-family="Times,serif" font-size="14.00">class = Non&#45;obstructive</text>
</g>
<!-- 9&#45;&gt;10 -->
<g id="edge10" class="edge">
<title>9&#45;&gt;10</title>
<path fill="none" stroke="black" d="M688.45,-118.87C688.18,-110.5 687.9,-101.77 687.63,-93.33"/>
<polygon fill="black" stroke="black" points="691.13,-93.11 687.31,-83.23 684.13,-93.34 691.13,-93.11"/>
</g>
<!-- 11 -->
<g id="node12" class="node">
<title>11</title>
<polygon fill="none" stroke="black" points="983.5,-83 798.5,-83 798.5,0 983.5,0 983.5,-83"/>
<text text-anchor="middle" x="891" y="-67.8" font-family="Times,serif" font-size="14.00">node #11</text>
<text text-anchor="middle" x="891" y="-52.8" font-family="Times,serif" font-size="14.00">gini = 0.246</text>
<text text-anchor="middle" x="891" y="-37.8" font-family="Times,serif" font-size="14.00">samples = 8</text>
<text text-anchor="middle" x="891" y="-22.8" font-family="Times,serif" font-size="14.00">value = [2.006, 11.964]</text>
<text text-anchor="middle" x="891" y="-7.8" font-family="Times,serif" font-size="14.00">class = Obstructive</text>
</g>
<!-- 9&#45;&gt;11 -->
<g id="edge11" class="edge">
<title>9&#45;&gt;11</title>
<path fill="none" stroke="black" d="M767.71,-118.87C783.84,-108.88 800.79,-98.38 816.78,-88.47"/>
<polygon fill="black" stroke="black" points="818.9,-91.27 825.56,-83.03 815.22,-85.32 818.9,-91.27"/>
</g>
<!-- 13 -->
<g id="node14" class="node">
<title>13</title>
<polygon fill="none" stroke="black" points="1338.5,-351 1147.5,-351 1147.5,-253 1338.5,-253 1338.5,-351"/>
<text text-anchor="middle" x="1243" y="-335.8" font-family="Times,serif" font-size="14.00">node #13</text>
<text text-anchor="middle" x="1243" y="-320.8" font-family="Times,serif" font-size="14.00">FVCPrePercent &lt;= 92.5</text>
<text text-anchor="middle" x="1243" y="-305.8" font-family="Times,serif" font-size="14.00">gini = 0.131</text>
<text text-anchor="middle" x="1243" y="-290.8" font-family="Times,serif" font-size="14.00">samples = 64</text>
<text text-anchor="middle" x="1243" y="-275.8" font-family="Times,serif" font-size="14.00">value = [92.277, 6.979]</text>
<text text-anchor="middle" x="1243" y="-260.8" font-family="Times,serif" font-size="14.00">class = Non&#45;obstructive</text>
</g>
<!-- 12&#45;&gt;13 -->
<g id="edge13" class="edge">
<title>12&#45;&gt;13</title>
<path fill="none" stroke="black" d="M1243,-386.97C1243,-378.69 1243,-370 1243,-361.48"/>
<polygon fill="black" stroke="black" points="1246.5,-361.21 1243,-351.21 1239.5,-361.21 1246.5,-361.21"/>
</g>
<!-- 18 -->
<g id="node19" class="node">
<title>18</title>
<polygon fill="none" stroke="black" points="1729.5,-351 1532.5,-351 1532.5,-253 1729.5,-253 1729.5,-351"/>
<text text-anchor="middle" x="1631" y="-335.8" font-family="Times,serif" font-size="14.00">node #18</text>
<text text-anchor="middle" x="1631" y="-320.8" font-family="Times,serif" font-size="14.00">FEFPostPercent &lt;= 74.5</text>
<text text-anchor="middle" x="1631" y="-305.8" font-family="Times,serif" font-size="14.00">gini = 0.49</text>
<text text-anchor="middle" x="1631" y="-290.8" font-family="Times,serif" font-size="14.00">samples = 64</text>
<text text-anchor="middle" x="1631" y="-275.8" font-family="Times,serif" font-size="14.00">value = [61.184, 45.862]</text>
<text text-anchor="middle" x="1631" y="-260.8" font-family="Times,serif" font-size="14.00">class = Non&#45;obstructive</text>
</g>
<!-- 12&#45;&gt;18 -->
<g id="edge18" class="edge">
<title>12&#45;&gt;18</title>
<path fill="none" stroke="black" d="M1344.69,-400.4C1399.45,-381.77 1467.01,-358.79 1522.74,-339.83"/>
<polygon fill="black" stroke="black" points="1523.95,-343.12 1532.29,-336.58 1521.7,-336.49 1523.95,-343.12"/>
</g>
<!-- 14 -->
<g id="node15" class="node">
<title>14</title>
<polygon fill="none" stroke="black" points="1246,-217 1040,-217 1040,-119 1246,-119 1246,-217"/>
<text text-anchor="middle" x="1143" y="-201.8" font-family="Times,serif" font-size="14.00">node #14</text>
<text text-anchor="middle" x="1143" y="-186.8" font-family="Times,serif" font-size="14.00">FEV1PostPercent &lt;= 96.5</text>
<text text-anchor="middle" x="1143" y="-171.8" font-family="Times,serif" font-size="14.00">gini = 0.097</text>
<text text-anchor="middle" x="1143" y="-156.8" font-family="Times,serif" font-size="14.00">samples = 63</text>
<text text-anchor="middle" x="1143" y="-141.8" font-family="Times,serif" font-size="14.00">value = [92.277, 4.985]</text>
<text text-anchor="middle" x="1143" y="-126.8" font-family="Times,serif" font-size="14.00">class = Non&#45;obstructive</text>
</g>
<!-- 13&#45;&gt;14 -->
<g id="edge14" class="edge">
<title>13&#45;&gt;14</title>
<path fill="none" stroke="black" d="M1206.61,-252.97C1199.79,-243.96 1192.6,-234.47 1185.61,-225.24"/>
<polygon fill="black" stroke="black" points="1188.35,-223.07 1179.53,-217.21 1182.77,-227.3 1188.35,-223.07"/>
</g>
<!-- 17 -->
<g id="node18" class="node">
<title>17</title>
<polygon fill="none" stroke="black" points="1422,-209.5 1264,-209.5 1264,-126.5 1422,-126.5 1422,-209.5"/>
<text text-anchor="middle" x="1343" y="-194.3" font-family="Times,serif" font-size="14.00">node #17</text>
<text text-anchor="middle" x="1343" y="-179.3" font-family="Times,serif" font-size="14.00">gini = &#45;0.0</text>
<text text-anchor="middle" x="1343" y="-164.3" font-family="Times,serif" font-size="14.00">samples = 1</text>
<text text-anchor="middle" x="1343" y="-149.3" font-family="Times,serif" font-size="14.00">value = [0.0, 1.994]</text>
<text text-anchor="middle" x="1343" y="-134.3" font-family="Times,serif" font-size="14.00">class = Obstructive</text>
</g>
<!-- 13&#45;&gt;17 -->
<g id="edge17" class="edge">
<title>13&#45;&gt;17</title>
<path fill="none" stroke="black" d="M1279.39,-252.97C1288.01,-241.58 1297.23,-229.42 1305.89,-217.99"/>
<polygon fill="black" stroke="black" points="1308.83,-219.9 1312.08,-209.82 1303.25,-215.67 1308.83,-219.9"/>
</g>
<!-- 15 -->
<g id="node16" class="node">
<title>15</title>
<polygon fill="none" stroke="black" points="1190,-83 1002,-83 1002,0 1190,0 1190,-83"/>
<text text-anchor="middle" x="1096" y="-67.8" font-family="Times,serif" font-size="14.00">node #15</text>
<text text-anchor="middle" x="1096" y="-52.8" font-family="Times,serif" font-size="14.00">gini = 0.079</text>
<text text-anchor="middle" x="1096" y="-37.8" font-family="Times,serif" font-size="14.00">samples = 62</text>
<text text-anchor="middle" x="1096" y="-22.8" font-family="Times,serif" font-size="14.00">value = [92.277, 3.988]</text>
<text text-anchor="middle" x="1096" y="-7.8" font-family="Times,serif" font-size="14.00">class = Non&#45;obstructive</text>
</g>
<!-- 14&#45;&gt;15 -->
<g id="edge15" class="edge">
<title>14&#45;&gt;15</title>
<path fill="none" stroke="black" d="M1124.83,-118.87C1121.6,-110.31 1118.23,-101.39 1114.98,-92.78"/>
<polygon fill="black" stroke="black" points="1118.18,-91.35 1111.38,-83.23 1111.63,-93.82 1118.18,-91.35"/>
</g>
<!-- 16 -->
<g id="node17" class="node">
<title>16</title>
<polygon fill="none" stroke="black" points="1366,-83 1208,-83 1208,0 1366,0 1366,-83"/>
<text text-anchor="middle" x="1287" y="-67.8" font-family="Times,serif" font-size="14.00">node #16</text>
<text text-anchor="middle" x="1287" y="-52.8" font-family="Times,serif" font-size="14.00">gini = 0.0</text>
<text text-anchor="middle" x="1287" y="-37.8" font-family="Times,serif" font-size="14.00">samples = 1</text>
<text text-anchor="middle" x="1287" y="-22.8" font-family="Times,serif" font-size="14.00">value = [0.0, 0.997]</text>
<text text-anchor="middle" x="1287" y="-7.8" font-family="Times,serif" font-size="14.00">class = Obstructive</text>
</g>
<!-- 14&#45;&gt;16 -->
<g id="edge16" class="edge">
<title>14&#45;&gt;16</title>
<path fill="none" stroke="black" d="M1198.67,-118.87C1209.63,-109.39 1221.11,-99.46 1232.04,-90.01"/>
<polygon fill="black" stroke="black" points="1234.61,-92.42 1239.89,-83.23 1230.04,-87.12 1234.61,-92.42"/>
</g>
<!-- 19 -->
<g id="node20" class="node">
<title>19</title>
<polygon fill="none" stroke="black" points="1728,-217 1534,-217 1534,-119 1728,-119 1728,-217"/>
<text text-anchor="middle" x="1631" y="-201.8" font-family="Times,serif" font-size="14.00">node #19</text>
<text text-anchor="middle" x="1631" y="-186.8" font-family="Times,serif" font-size="14.00">FEFPreVal &lt;= 2.68</text>
<text text-anchor="middle" x="1631" y="-171.8" font-family="Times,serif" font-size="14.00">gini = 0.445</text>
<text text-anchor="middle" x="1631" y="-156.8" font-family="Times,serif" font-size="14.00">samples = 32</text>
<text text-anchor="middle" x="1631" y="-141.8" font-family="Times,serif" font-size="14.00">value = [18.054, 35.892]</text>
<text text-anchor="middle" x="1631" y="-126.8" font-family="Times,serif" font-size="14.00">class = Obstructive</text>
</g>
<!-- 18&#45;&gt;19 -->
<g id="edge19" class="edge">
<title>18&#45;&gt;19</title>
<path fill="none" stroke="black" d="M1631,-252.97C1631,-244.69 1631,-236 1631,-227.48"/>
<polygon fill="black" stroke="black" points="1634.5,-227.21 1631,-217.21 1627.5,-227.21 1634.5,-227.21"/>
</g>
<!-- 22 -->
<g id="node23" class="node">
<title>22</title>
<polygon fill="none" stroke="black" points="1981,-217 1793,-217 1793,-119 1981,-119 1981,-217"/>
<text text-anchor="middle" x="1887" y="-201.8" font-family="Times,serif" font-size="14.00">node #22</text>
<text text-anchor="middle" x="1887" y="-186.8" font-family="Times,serif" font-size="14.00">FEV1PreVal &lt;= 3.465</text>
<text text-anchor="middle" x="1887" y="-171.8" font-family="Times,serif" font-size="14.00">gini = 0.305</text>
<text text-anchor="middle" x="1887" y="-156.8" font-family="Times,serif" font-size="14.00">samples = 32</text>
<text text-anchor="middle" x="1887" y="-141.8" font-family="Times,serif" font-size="14.00">value = [43.13, 9.97]</text>
<text text-anchor="middle" x="1887" y="-126.8" font-family="Times,serif" font-size="14.00">class = Non&#45;obstructive</text>
</g>
<!-- 18&#45;&gt;22 -->
<g id="edge22" class="edge">
<title>18&#45;&gt;22</title>
<path fill="none" stroke="black" d="M1724.15,-252.97C1743.73,-242.87 1764.5,-232.16 1784.41,-221.9"/>
<polygon fill="black" stroke="black" points="1786.21,-224.91 1793.49,-217.21 1783,-218.69 1786.21,-224.91"/>
</g>
<!-- 20 -->
<g id="node21" class="node">
<title>20</title>
<polygon fill="none" stroke="black" points="1568.5,-83 1383.5,-83 1383.5,0 1568.5,0 1568.5,-83"/>
<text text-anchor="middle" x="1476" y="-67.8" font-family="Times,serif" font-size="14.00">node #20</text>
<text text-anchor="middle" x="1476" y="-52.8" font-family="Times,serif" font-size="14.00">gini = 0.347</text>
<text text-anchor="middle" x="1476" y="-37.8" font-family="Times,serif" font-size="14.00">samples = 28</text>
<text text-anchor="middle" x="1476" y="-22.8" font-family="Times,serif" font-size="14.00">value = [10.03, 34.895]</text>
<text text-anchor="middle" x="1476" y="-7.8" font-family="Times,serif" font-size="14.00">class = Obstructive</text>
</g>
<!-- 19&#45;&gt;20 -->
<g id="edge20" class="edge">
<title>19&#45;&gt;20</title>
<path fill="none" stroke="black" d="M1571.07,-118.87C1559.17,-109.3 1546.68,-99.27 1534.81,-89.74"/>
<polygon fill="black" stroke="black" points="1536.7,-86.76 1526.71,-83.23 1532.31,-92.22 1536.7,-86.76"/>
</g>
<!-- 21 -->
<g id="node22" class="node">
<title>21</title>
<polygon fill="none" stroke="black" points="1775,-83 1587,-83 1587,0 1775,0 1775,-83"/>
<text text-anchor="middle" x="1681" y="-67.8" font-family="Times,serif" font-size="14.00">node #21</text>
<text text-anchor="middle" x="1681" y="-52.8" font-family="Times,serif" font-size="14.00">gini = 0.197</text>
<text text-anchor="middle" x="1681" y="-37.8" font-family="Times,serif" font-size="14.00">samples = 4</text>
<text text-anchor="middle" x="1681" y="-22.8" font-family="Times,serif" font-size="14.00">value = [8.024, 0.997]</text>
<text text-anchor="middle" x="1681" y="-7.8" font-family="Times,serif" font-size="14.00">class = Non&#45;obstructive</text>
</g>
<!-- 19&#45;&gt;21 -->
<g id="edge21" class="edge">
<title>19&#45;&gt;21</title>
<path fill="none" stroke="black" d="M1650.33,-118.87C1653.77,-110.31 1657.35,-101.39 1660.81,-92.78"/>
<polygon fill="black" stroke="black" points="1664.16,-93.81 1664.64,-83.23 1657.67,-91.21 1664.16,-93.81"/>
</g>
<!-- 23 -->
<g id="node24" class="node">
<title>23</title>
<polygon fill="none" stroke="black" points="1981,-83 1793,-83 1793,0 1981,0 1981,-83"/>
<text text-anchor="middle" x="1887" y="-67.8" font-family="Times,serif" font-size="14.00">node #23</text>
<text text-anchor="middle" x="1887" y="-52.8" font-family="Times,serif" font-size="14.00">gini = 0.24</text>
<text text-anchor="middle" x="1887" y="-37.8" font-family="Times,serif" font-size="14.00">samples = 31</text>
<text text-anchor="middle" x="1887" y="-22.8" font-family="Times,serif" font-size="14.00">value = [43.13, 6.979]</text>
<text text-anchor="middle" x="1887" y="-7.8" font-family="Times,serif" font-size="14.00">class = Non&#45;obstructive</text>
</g>
<!-- 22&#45;&gt;23 -->
<g id="edge23" class="edge">
<title>22&#45;&gt;23</title>
<path fill="none" stroke="black" d="M1887,-118.87C1887,-110.5 1887,-101.77 1887,-93.33"/>
<polygon fill="black" stroke="black" points="1890.5,-93.23 1887,-83.23 1883.5,-93.23 1890.5,-93.23"/>
</g>
<!-- 24 -->
<g id="node25" class="node">
<title>24</title>
<polygon fill="none" stroke="black" points="2157,-83 1999,-83 1999,0 2157,0 2157,-83"/>
<text text-anchor="middle" x="2078" y="-67.8" font-family="Times,serif" font-size="14.00">node #24</text>
<text text-anchor="middle" x="2078" y="-52.8" font-family="Times,serif" font-size="14.00">gini = 0.0</text>
<text text-anchor="middle" x="2078" y="-37.8" font-family="Times,serif" font-size="14.00">samples = 1</text>
<text text-anchor="middle" x="2078" y="-22.8" font-family="Times,serif" font-size="14.00">value = [0.0, 2.991]</text>
<text text-anchor="middle" x="2078" y="-7.8" font-family="Times,serif" font-size="14.00">class = Obstructive</text>
</g>
<!-- 22&#45;&gt;24 -->
<g id="edge24" class="edge">
<title>22&#45;&gt;24</title>
<path fill="none" stroke="black" d="M1960.85,-118.87C1976.03,-108.97 1991.98,-98.57 2007.05,-88.74"/>
<polygon fill="black" stroke="black" points="2009.35,-91.43 2015.82,-83.03 2005.53,-85.56 2009.35,-91.43"/>
</g>
</g>
</svg>
