<?xml version="1.0" encoding="UTF-8" standalone="no"?>
<!DOCTYPE svg PUBLIC "-//W3C//DTD SVG 1.1//EN"
 "http://www.w3.org/Graphics/SVG/1.1/DTD/svg11.dtd">
<!-- Generated by graphviz version 2.43.0 (0)
 -->
<!-- Title: Tree Pages: 1 -->
<svg width="1901pt" height="627pt"
 viewBox="0.00 0.00 1901.00 627.00" xmlns="http://www.w3.org/2000/svg" xmlns:xlink="http://www.w3.org/1999/xlink">
<g id="graph0" class="graph" transform="scale(1 1) rotate(0) translate(4 623)">
<title>Tree</title>
<polygon fill="white" stroke="transparent" points="-4,4 -4,-623 1897,-623 1897,4 -4,4"/>
<!-- 0 -->
<g id="node1" class="node">
<title>0</title>
<polygon fill="none" stroke="black" points="964.5,-619 767.5,-619 767.5,-521 964.5,-521 964.5,-619"/>
<text text-anchor="middle" x="866" y="-603.8" font-family="Times,serif" font-size="14.00">node #0</text>
<text text-anchor="middle" x="866" y="-588.8" font-family="Times,serif" font-size="14.00">FEFPostPercent &lt;= 38.5</text>
<text text-anchor="middle" x="866" y="-573.8" font-family="Times,serif" font-size="14.00">gini = 0.5</text>
<text text-anchor="middle" x="866" y="-558.8" font-family="Times,serif" font-size="14.00">samples = 208</text>
<text text-anchor="middle" x="866" y="-543.8" font-family="Times,serif" font-size="14.00">value = [166.5, 166.5]</text>
<text text-anchor="middle" x="866" y="-528.8" font-family="Times,serif" font-size="14.00">class = Non&#45;obstructive</text>
</g>
<!-- 1 -->
<g id="node2" class="node">
<title>1</title>
<polygon fill="none" stroke="black" points="857.5,-485 648.5,-485 648.5,-387 857.5,-387 857.5,-485"/>
<text text-anchor="middle" x="753" y="-469.8" font-family="Times,serif" font-size="14.00">node #1</text>
<text text-anchor="middle" x="753" y="-454.8" font-family="Times,serif" font-size="14.00">FEFPrePercent &lt;= 35.275</text>
<text text-anchor="middle" x="753" y="-439.8" font-family="Times,serif" font-size="14.00">gini = 0.149</text>
<text text-anchor="middle" x="753" y="-424.8" font-family="Times,serif" font-size="14.00">samples = 64</text>
<text text-anchor="middle" x="753" y="-409.8" font-family="Times,serif" font-size="14.00">value = [8.325, 94.318]</text>
<text text-anchor="middle" x="753" y="-394.8" font-family="Times,serif" font-size="14.00">class = Obstructive</text>
</g>
<!-- 0&#45;&gt;1 -->
<g id="edge1" class="edge">
<title>0&#45;&gt;1</title>
<path fill="none" stroke="black" d="M824.88,-520.97C817.1,-511.87 808.88,-502.28 800.91,-492.96"/>
<polygon fill="black" stroke="black" points="803.44,-490.53 794.27,-485.21 798.12,-495.09 803.44,-490.53"/>
<text text-anchor="middle" x="792.34" y="-506.44" font-family="Times,serif" font-size="14.00">True</text>
</g>
<!-- 10 -->
<g id="node11" class="node">
<title>10</title>
<polygon fill="none" stroke="black" points="1153.5,-485 950.5,-485 950.5,-387 1153.5,-387 1153.5,-485"/>
<text text-anchor="middle" x="1052" y="-469.8" font-family="Times,serif" font-size="14.00">node #10</text>
<text text-anchor="middle" x="1052" y="-454.8" font-family="Times,serif" font-size="14.00">FEV1PostVal &lt;= 2.845</text>
<text text-anchor="middle" x="1052" y="-439.8" font-family="Times,serif" font-size="14.00">gini = 0.43</text>
<text text-anchor="middle" x="1052" y="-424.8" font-family="Times,serif" font-size="14.00">samples = 144</text>
<text text-anchor="middle" x="1052" y="-409.8" font-family="Times,serif" font-size="14.00">value = [158.175, 72.182]</text>
<text text-anchor="middle" x="1052" y="-394.8" font-family="Times,serif" font-size="14.00">class = Non&#45;obstructive</text>
</g>
<!-- 0&#45;&gt;10 -->
<g id="edge10" class="edge">
<title>0&#45;&gt;10</title>
<path fill="none" stroke="black" d="M933.68,-520.97C947.4,-511.24 961.91,-500.93 975.9,-491.01"/>
<polygon fill="black" stroke="black" points="977.93,-493.86 984.06,-485.21 973.88,-488.15 977.93,-493.86"/>
<text text-anchor="middle" x="979.88" y="-506.16" font-family="Times,serif" font-size="14.00">False</text>
</g>
<!-- 2 -->
<g id="node3" class="node">
<title>2</title>
<polygon fill="none" stroke="black" points="505.5,-351 308.5,-351 308.5,-253 505.5,-253 505.5,-351"/>
<text text-anchor="middle" x="407" y="-335.8" font-family="Times,serif" font-size="14.00">node #2</text>
<text text-anchor="middle" x="407" y="-320.8" font-family="Times,serif" font-size="14.00">FEFPostPercent &lt;= 35.5</text>
<text text-anchor="middle" x="407" y="-305.8" font-family="Times,serif" font-size="14.00">gini = 0.083</text>
<text text-anchor="middle" x="407" y="-290.8" font-family="Times,serif" font-size="14.00">samples = 58</text>
<text text-anchor="middle" x="407" y="-275.8" font-family="Times,serif" font-size="14.00">value = [4.162, 91.431]</text>
<text text-anchor="middle" x="407" y="-260.8" font-family="Times,serif" font-size="14.00">class = Obstructive</text>
</g>
<!-- 1&#45;&gt;2 -->
<g id="edge2" class="edge">
<title>1&#45;&gt;2</title>
<path fill="none" stroke="black" d="M648.25,-395.04C606.18,-378.99 557.7,-360.49 515.29,-344.31"/>
<polygon fill="black" stroke="black" points="516.36,-340.98 505.77,-340.68 513.87,-347.52 516.36,-340.98"/>
</g>
<!-- 7 -->
<g id="node8" class="node">
<title>7</title>
<polygon fill="none" stroke="black" points="860.5,-351 645.5,-351 645.5,-253 860.5,-253 860.5,-351"/>
<text text-anchor="middle" x="753" y="-335.8" font-family="Times,serif" font-size="14.00">node #7</text>
<text text-anchor="middle" x="753" y="-320.8" font-family="Times,serif" font-size="14.00">FVCPostPercent &lt;= 70.492</text>
<text text-anchor="middle" x="753" y="-305.8" font-family="Times,serif" font-size="14.00">gini = 0.484</text>
<text text-anchor="middle" x="753" y="-290.8" font-family="Times,serif" font-size="14.00">samples = 6</text>
<text text-anchor="middle" x="753" y="-275.8" font-family="Times,serif" font-size="14.00">value = [4.162, 2.887]</text>
<text text-anchor="middle" x="753" y="-260.8" font-family="Times,serif" font-size="14.00">class = Non&#45;obstructive</text>
</g>
<!-- 1&#45;&gt;7 -->
<g id="edge7" class="edge">
<title>1&#45;&gt;7</title>
<path fill="none" stroke="black" d="M753,-386.97C753,-378.69 753,-370 753,-361.48"/>
<polygon fill="black" stroke="black" points="756.5,-361.21 753,-351.21 749.5,-361.21 756.5,-361.21"/>
</g>
<!-- 3 -->
<g id="node4" class="node">
<title>3</title>
<polygon fill="none" stroke="black" points="294.5,-217 97.5,-217 97.5,-119 294.5,-119 294.5,-217"/>
<text text-anchor="middle" x="196" y="-201.8" font-family="Times,serif" font-size="14.00">node #3</text>
<text text-anchor="middle" x="196" y="-186.8" font-family="Times,serif" font-size="14.00">FVCPostPercent &lt;= 34.0</text>
<text text-anchor="middle" x="196" y="-171.8" font-family="Times,serif" font-size="14.00">gini = 0.064</text>
<text text-anchor="middle" x="196" y="-156.8" font-family="Times,serif" font-size="14.00">samples = 57</text>
<text text-anchor="middle" x="196" y="-141.8" font-family="Times,serif" font-size="14.00">value = [3.122, 91.431]</text>
<text text-anchor="middle" x="196" y="-126.8" font-family="Times,serif" font-size="14.00">class = Obstructive</text>
</g>
<!-- 2&#45;&gt;3 -->
<g id="edge3" class="edge">
<title>2&#45;&gt;3</title>
<path fill="none" stroke="black" d="M330.23,-252.97C314.52,-243.14 297.89,-232.74 281.89,-222.73"/>
<polygon fill="black" stroke="black" points="283.4,-219.55 273.07,-217.21 279.69,-225.48 283.4,-219.55"/>
</g>
<!-- 6 -->
<g id="node7" class="node">
<title>6</title>
<polygon fill="none" stroke="black" points="501,-209.5 313,-209.5 313,-126.5 501,-126.5 501,-209.5"/>
<text text-anchor="middle" x="407" y="-194.3" font-family="Times,serif" font-size="14.00">node #6</text>
<text text-anchor="middle" x="407" y="-179.3" font-family="Times,serif" font-size="14.00">gini = 0.0</text>
<text text-anchor="middle" x="407" y="-164.3" font-family="Times,serif" font-size="14.00">samples = 1</text>
<text text-anchor="middle" x="407" y="-149.3" font-family="Times,serif" font-size="14.00">value = [1.041, 0.0]</text>
<text text-anchor="middle" x="407" y="-134.3" font-family="Times,serif" font-size="14.00">class = Non&#45;obstructive</text>
</g>
<!-- 2&#45;&gt;6 -->
<g id="edge6" class="edge">
<title>2&#45;&gt;6</title>
<path fill="none" stroke="black" d="M407,-252.97C407,-242.25 407,-230.84 407,-219.99"/>
<polygon fill="black" stroke="black" points="410.5,-219.82 407,-209.82 403.5,-219.82 410.5,-219.82"/>
</g>
<!-- 4 -->
<g id="node5" class="node">
<title>4</title>
<polygon fill="none" stroke="black" points="188,-83 0,-83 0,0 188,0 188,-83"/>
<text text-anchor="middle" x="94" y="-67.8" font-family="Times,serif" font-size="14.00">node #4</text>
<text text-anchor="middle" x="94" y="-52.8" font-family="Times,serif" font-size="14.00">gini = 0.0</text>
<text text-anchor="middle" x="94" y="-37.8" font-family="Times,serif" font-size="14.00">samples = 1</text>
<text text-anchor="middle" x="94" y="-22.8" font-family="Times,serif" font-size="14.00">value = [2.081, 0.0]</text>
<text text-anchor="middle" x="94" y="-7.8" font-family="Times,serif" font-size="14.00">class = Non&#45;obstructive</text>
</g>
<!-- 3&#45;&gt;4 -->
<g id="edge4" class="edge">
<title>3&#45;&gt;4</title>
<path fill="none" stroke="black" d="M156.56,-118.87C149.11,-109.76 141.3,-100.23 133.83,-91.12"/>
<polygon fill="black" stroke="black" points="136.41,-88.75 127.37,-83.23 131,-93.18 136.41,-88.75"/>
</g>
<!-- 5 -->
<g id="node6" class="node">
<title>5</title>
<polygon fill="none" stroke="black" points="391.5,-83 206.5,-83 206.5,0 391.5,0 391.5,-83"/>
<text text-anchor="middle" x="299" y="-67.8" font-family="Times,serif" font-size="14.00">node #5</text>
<text text-anchor="middle" x="299" y="-52.8" font-family="Times,serif" font-size="14.00">gini = 0.022</text>
<text text-anchor="middle" x="299" y="-37.8" font-family="Times,serif" font-size="14.00">samples = 56</text>
<text text-anchor="middle" x="299" y="-22.8" font-family="Times,serif" font-size="14.00">value = [1.041, 91.431]</text>
<text text-anchor="middle" x="299" y="-7.8" font-family="Times,serif" font-size="14.00">class = Obstructive</text>
</g>
<!-- 3&#45;&gt;5 -->
<g id="edge5" class="edge">
<title>3&#45;&gt;5</title>
<path fill="none" stroke="black" d="M235.82,-118.87C243.35,-109.76 251.24,-100.23 258.78,-91.12"/>
<polygon fill="black" stroke="black" points="261.63,-93.17 265.3,-83.23 256.23,-88.7 261.63,-93.17"/>
</g>
<!-- 8 -->
<g id="node9" class="node">
<title>8</title>
<polygon fill="none" stroke="black" points="707,-209.5 519,-209.5 519,-126.5 707,-126.5 707,-209.5"/>
<text text-anchor="middle" x="613" y="-194.3" font-family="Times,serif" font-size="14.00">node #8</text>
<text text-anchor="middle" x="613" y="-179.3" font-family="Times,serif" font-size="14.00">gini = 0.0</text>
<text text-anchor="middle" x="613" y="-164.3" font-family="Times,serif" font-size="14.00">samples = 3</text>
<text text-anchor="middle" x="613" y="-149.3" font-family="Times,serif" font-size="14.00">value = [4.162, 0.0]</text>
<text text-anchor="middle" x="613" y="-134.3" font-family="Times,serif" font-size="14.00">class = Non&#45;obstructive</text>
</g>
<!-- 7&#45;&gt;8 -->
<g id="edge8" class="edge">
<title>7&#45;&gt;8</title>
<path fill="none" stroke="black" d="M702.06,-252.97C689.63,-241.25 676.33,-228.71 663.9,-216.99"/>
<polygon fill="black" stroke="black" points="665.97,-214.13 656.29,-209.82 661.17,-219.22 665.97,-214.13"/>
</g>
<!-- 9 -->
<g id="node10" class="node">
<title>9</title>
<polygon fill="none" stroke="black" points="883,-209.5 725,-209.5 725,-126.5 883,-126.5 883,-209.5"/>
<text text-anchor="middle" x="804" y="-194.3" font-family="Times,serif" font-size="14.00">node #9</text>
<text text-anchor="middle" x="804" y="-179.3" font-family="Times,serif" font-size="14.00">gini = 0.0</text>
<text text-anchor="middle" x="804" y="-164.3" font-family="Times,serif" font-size="14.00">samples = 3</text>
<text text-anchor="middle" x="804" y="-149.3" font-family="Times,serif" font-size="14.00">value = [0.0, 2.887]</text>
<text text-anchor="middle" x="804" y="-134.3" font-family="Times,serif" font-size="14.00">class = Obstructive</text>
</g>
<!-- 7&#45;&gt;9 -->
<g id="edge9" class="edge">
<title>7&#45;&gt;9</title>
<path fill="none" stroke="black" d="M771.56,-252.97C775.79,-242.02 780.29,-230.36 784.56,-219.32"/>
<polygon fill="black" stroke="black" points="787.89,-220.41 788.23,-209.82 781.36,-217.88 787.89,-220.41"/>
</g>
<!-- 11 -->
<g id="node12" class="node">
<title>11</title>
<polygon fill="none" stroke="black" points="1153.5,-351 950.5,-351 950.5,-253 1153.5,-253 1153.5,-351"/>
<text text-anchor="middle" x="1052" y="-335.8" font-family="Times,serif" font-size="14.00">node #11</text>
<text text-anchor="middle" x="1052" y="-320.8" font-family="Times,serif" font-size="14.00">FVCPostVal &lt;= 2.15</text>
<text text-anchor="middle" x="1052" y="-305.8" font-family="Times,serif" font-size="14.00">gini = 0.39</text>
<text text-anchor="middle" x="1052" y="-290.8" font-family="Times,serif" font-size="14.00">samples = 136</text>
<text text-anchor="middle" x="1052" y="-275.8" font-family="Times,serif" font-size="14.00">value = [157.134, 56.783]</text>
<text text-anchor="middle" x="1052" y="-260.8" font-family="Times,serif" font-size="14.00">class = Non&#45;obstructive</text>
</g>
<!-- 10&#45;&gt;11 -->
<g id="edge11" class="edge">
<title>10&#45;&gt;11</title>
<path fill="none" stroke="black" d="M1052,-386.97C1052,-378.69 1052,-370 1052,-361.48"/>
<polygon fill="black" stroke="black" points="1055.5,-361.21 1052,-351.21 1048.5,-361.21 1055.5,-361.21"/>
</g>
<!-- 18 -->
<g id="node19" class="node">
<title>18</title>
<polygon fill="none" stroke="black" points="1512.5,-351 1327.5,-351 1327.5,-253 1512.5,-253 1512.5,-351"/>
<text text-anchor="middle" x="1420" y="-335.8" font-family="Times,serif" font-size="14.00">node #18</text>
<text text-anchor="middle" x="1420" y="-320.8" font-family="Times,serif" font-size="14.00">FEV1PreVal &lt;= 3.32</text>
<text text-anchor="middle" x="1420" y="-305.8" font-family="Times,serif" font-size="14.00">gini = 0.119</text>
<text text-anchor="middle" x="1420" y="-290.8" font-family="Times,serif" font-size="14.00">samples = 8</text>
<text text-anchor="middle" x="1420" y="-275.8" font-family="Times,serif" font-size="14.00">value = [1.041, 15.399]</text>
<text text-anchor="middle" x="1420" y="-260.8" font-family="Times,serif" font-size="14.00">class = Obstructive</text>
</g>
<!-- 10&#45;&gt;18 -->
<g id="edge18" class="edge">
<title>10&#45;&gt;18</title>
<path fill="none" stroke="black" d="M1153.53,-398.58C1204.7,-380.23 1266.6,-358.02 1317.86,-339.64"/>
<polygon fill="black" stroke="black" points="1319.07,-342.92 1327.3,-336.25 1316.71,-336.33 1319.07,-342.92"/>
</g>
<!-- 12 -->
<g id="node13" class="node">
<title>12</title>
<polygon fill="none" stroke="black" points="1103.5,-217 900.5,-217 900.5,-119 1103.5,-119 1103.5,-217"/>
<text text-anchor="middle" x="1002" y="-201.8" font-family="Times,serif" font-size="14.00">node #12</text>
<text text-anchor="middle" x="1002" y="-186.8" font-family="Times,serif" font-size="14.00">FEFPrePercent &lt;= 56.5</text>
<text text-anchor="middle" x="1002" y="-171.8" font-family="Times,serif" font-size="14.00">gini = 0.259</text>
<text text-anchor="middle" x="1002" y="-156.8" font-family="Times,serif" font-size="14.00">samples = 83</text>
<text text-anchor="middle" x="1002" y="-141.8" font-family="Times,serif" font-size="14.00">value = [117.591, 21.173]</text>
<text text-anchor="middle" x="1002" y="-126.8" font-family="Times,serif" font-size="14.00">class = Non&#45;obstructive</text>
</g>
<!-- 11&#45;&gt;12 -->
<g id="edge12" class="edge">
<title>11&#45;&gt;12</title>
<path fill="none" stroke="black" d="M1033.81,-252.97C1030.57,-244.42 1027.16,-235.43 1023.83,-226.64"/>
<polygon fill="black" stroke="black" points="1027.08,-225.33 1020.26,-217.21 1020.53,-227.81 1027.08,-225.33"/>
</g>
<!-- 15 -->
<g id="node16" class="node">
<title>15</title>
<polygon fill="none" stroke="black" points="1310,-217 1122,-217 1122,-119 1310,-119 1310,-217"/>
<text text-anchor="middle" x="1216" y="-201.8" font-family="Times,serif" font-size="14.00">node #15</text>
<text text-anchor="middle" x="1216" y="-186.8" font-family="Times,serif" font-size="14.00">FEV1PostVal &lt;= 2.055</text>
<text text-anchor="middle" x="1216" y="-171.8" font-family="Times,serif" font-size="14.00">gini = 0.499</text>
<text text-anchor="middle" x="1216" y="-156.8" font-family="Times,serif" font-size="14.00">samples = 53</text>
<text text-anchor="middle" x="1216" y="-141.8" font-family="Times,serif" font-size="14.00">value = [39.544, 35.61]</text>
<text text-anchor="middle" x="1216" y="-126.8" font-family="Times,serif" font-size="14.00">class = Non&#45;obstructive</text>
</g>
<!-- 11&#45;&gt;15 -->
<g id="edge15" class="edge">
<title>11&#45;&gt;15</title>
<path fill="none" stroke="black" d="M1111.67,-252.97C1123.54,-243.42 1136.09,-233.32 1148.21,-223.57"/>
<polygon fill="black" stroke="black" points="1150.5,-226.21 1156.1,-217.21 1146.11,-220.76 1150.5,-226.21"/>
</g>
<!-- 13 -->
<g id="node14" class="node">
<title>13</title>
<polygon fill="none" stroke="black" points="890,-83 696,-83 696,0 890,0 890,-83"/>
<text text-anchor="middle" x="793" y="-67.8" font-family="Times,serif" font-size="14.00">node #13</text>
<text text-anchor="middle" x="793" y="-52.8" font-family="Times,serif" font-size="14.00">gini = 0.49</text>
<text text-anchor="middle" x="793" y="-37.8" font-family="Times,serif" font-size="14.00">samples = 24</text>
<text text-anchor="middle" x="793" y="-22.8" font-family="Times,serif" font-size="14.00">value = [22.894, 17.324]</text>
<text text-anchor="middle" x="793" y="-7.8" font-family="Times,serif" font-size="14.00">class = Non&#45;obstructive</text>
</g>
<!-- 12&#45;&gt;13 -->
<g id="edge13" class="edge">
<title>12&#45;&gt;13</title>
<path fill="none" stroke="black" d="M921.2,-118.87C904.27,-108.78 886.48,-98.18 869.71,-88.19"/>
<polygon fill="black" stroke="black" points="871.42,-85.14 861.04,-83.03 867.84,-91.16 871.42,-85.14"/>
</g>
<!-- 14 -->
<g id="node15" class="node">
<title>14</title>
<polygon fill="none" stroke="black" points="1096,-83 908,-83 908,0 1096,0 1096,-83"/>
<text text-anchor="middle" x="1002" y="-67.8" font-family="Times,serif" font-size="14.00">node #14</text>
<text text-anchor="middle" x="1002" y="-52.8" font-family="Times,serif" font-size="14.00">gini = 0.075</text>
<text text-anchor="middle" x="1002" y="-37.8" font-family="Times,serif" font-size="14.00">samples = 59</text>
<text text-anchor="middle" x="1002" y="-22.8" font-family="Times,serif" font-size="14.00">value = [94.697, 3.85]</text>
<text text-anchor="middle" x="1002" y="-7.8" font-family="Times,serif" font-size="14.00">class = Non&#45;obstructive</text>
</g>
<!-- 12&#45;&gt;14 -->
<g id="edge14" class="edge">
<title>12&#45;&gt;14</title>
<path fill="none" stroke="black" d="M1002,-118.87C1002,-110.5 1002,-101.77 1002,-93.33"/>
<polygon fill="black" stroke="black" points="1005.5,-93.23 1002,-83.23 998.5,-93.23 1005.5,-93.23"/>
</g>
<!-- 16 -->
<g id="node17" class="node">
<title>16</title>
<polygon fill="none" stroke="black" points="1299.5,-83 1114.5,-83 1114.5,0 1299.5,0 1299.5,-83"/>
<text text-anchor="middle" x="1207" y="-67.8" font-family="Times,serif" font-size="14.00">node #16</text>
<text text-anchor="middle" x="1207" y="-52.8" font-family="Times,serif" font-size="14.00">gini = 0.292</text>
<text text-anchor="middle" x="1207" y="-37.8" font-family="Times,serif" font-size="14.00">samples = 15</text>
<text text-anchor="middle" x="1207" y="-22.8" font-family="Times,serif" font-size="14.00">value = [4.162, 19.249]</text>
<text text-anchor="middle" x="1207" y="-7.8" font-family="Times,serif" font-size="14.00">class = Obstructive</text>
</g>
<!-- 15&#45;&gt;16 -->
<g id="edge16" class="edge">
<title>15&#45;&gt;16</title>
<path fill="none" stroke="black" d="M1212.52,-118.87C1211.92,-110.5 1211.28,-101.77 1210.67,-93.33"/>
<polygon fill="black" stroke="black" points="1214.16,-92.95 1209.94,-83.23 1207.17,-93.46 1214.16,-92.95"/>
</g>
<!-- 17 -->
<g id="node18" class="node">
<title>17</title>
<polygon fill="none" stroke="black" points="1511,-83 1317,-83 1317,0 1511,0 1511,-83"/>
<text text-anchor="middle" x="1414" y="-67.8" font-family="Times,serif" font-size="14.00">node #17</text>
<text text-anchor="middle" x="1414" y="-52.8" font-family="Times,serif" font-size="14.00">gini = 0.432</text>
<text text-anchor="middle" x="1414" y="-37.8" font-family="Times,serif" font-size="14.00">samples = 38</text>
<text text-anchor="middle" x="1414" y="-22.8" font-family="Times,serif" font-size="14.00">value = [35.381, 16.361]</text>
<text text-anchor="middle" x="1414" y="-7.8" font-family="Times,serif" font-size="14.00">class = Non&#45;obstructive</text>
</g>
<!-- 15&#45;&gt;17 -->
<g id="edge17" class="edge">
<title>15&#45;&gt;17</title>
<path fill="none" stroke="black" d="M1292.55,-118.87C1308.44,-108.88 1325.14,-98.38 1340.89,-88.47"/>
<polygon fill="black" stroke="black" points="1342.94,-91.32 1349.54,-83.03 1339.21,-85.39 1342.94,-91.32"/>
</g>
<!-- 19 -->
<g id="node20" class="node">
<title>19</title>
<polygon fill="none" stroke="black" points="1503.5,-209.5 1336.5,-209.5 1336.5,-126.5 1503.5,-126.5 1503.5,-209.5"/>
<text text-anchor="middle" x="1420" y="-194.3" font-family="Times,serif" font-size="14.00">node #19</text>
<text text-anchor="middle" x="1420" y="-179.3" font-family="Times,serif" font-size="14.00">gini = 0.0</text>
<text text-anchor="middle" x="1420" y="-164.3" font-family="Times,serif" font-size="14.00">samples = 6</text>
<text text-anchor="middle" x="1420" y="-149.3" font-family="Times,serif" font-size="14.00">value = [0.0, 14.436]</text>
<text text-anchor="middle" x="1420" y="-134.3" font-family="Times,serif" font-size="14.00">class = Obstructive</text>
</g>
<!-- 18&#45;&gt;19 -->
<g id="edge19" class="edge">
<title>18&#45;&gt;19</title>
<path fill="none" stroke="black" d="M1420,-252.97C1420,-242.25 1420,-230.84 1420,-219.99"/>
<polygon fill="black" stroke="black" points="1423.5,-219.82 1420,-209.82 1416.5,-219.82 1423.5,-219.82"/>
</g>
<!-- 20 -->
<g id="node21" class="node">
<title>20</title>
<polygon fill="none" stroke="black" points="1717,-217 1529,-217 1529,-119 1717,-119 1717,-217"/>
<text text-anchor="middle" x="1623" y="-201.8" font-family="Times,serif" font-size="14.00">node #20</text>
<text text-anchor="middle" x="1623" y="-186.8" font-family="Times,serif" font-size="14.00">FVCPreVal &lt;= 4.4</text>
<text text-anchor="middle" x="1623" y="-171.8" font-family="Times,serif" font-size="14.00">gini = 0.499</text>
<text text-anchor="middle" x="1623" y="-156.8" font-family="Times,serif" font-size="14.00">samples = 2</text>
<text text-anchor="middle" x="1623" y="-141.8" font-family="Times,serif" font-size="14.00">value = [1.041, 0.962]</text>
<text text-anchor="middle" x="1623" y="-126.8" font-family="Times,serif" font-size="14.00">class = Non&#45;obstructive</text>
</g>
<!-- 18&#45;&gt;20 -->
<g id="edge20" class="edge">
<title>18&#45;&gt;20</title>
<path fill="none" stroke="black" d="M1493.86,-252.97C1508.97,-243.14 1524.97,-232.74 1540.37,-222.73"/>
<polygon fill="black" stroke="black" points="1542.38,-225.6 1548.85,-217.21 1538.56,-219.73 1542.38,-225.6"/>
</g>
<!-- 21 -->
<g id="node22" class="node">
<title>21</title>
<polygon fill="none" stroke="black" points="1717,-83 1529,-83 1529,0 1717,0 1717,-83"/>
<text text-anchor="middle" x="1623" y="-67.8" font-family="Times,serif" font-size="14.00">node #21</text>
<text text-anchor="middle" x="1623" y="-52.8" font-family="Times,serif" font-size="14.00">gini = 0.0</text>
<text text-anchor="middle" x="1623" y="-37.8" font-family="Times,serif" font-size="14.00">samples = 1</text>
<text text-anchor="middle" x="1623" y="-22.8" font-family="Times,serif" font-size="14.00">value = [1.041, 0.0]</text>
<text text-anchor="middle" x="1623" y="-7.8" font-family="Times,serif" font-size="14.00">class = Non&#45;obstructive</text>
</g>
<!-- 20&#45;&gt;21 -->
<g id="edge21" class="edge">
<title>20&#45;&gt;21</title>
<path fill="none" stroke="black" d="M1623,-118.87C1623,-110.5 1623,-101.77 1623,-93.33"/>
<polygon fill="black" stroke="black" points="1626.5,-93.23 1623,-83.23 1619.5,-93.23 1626.5,-93.23"/>
</g>
<!-- 22 -->
<g id="node23" class="node">
<title>22</title>
<polygon fill="none" stroke="black" points="1893,-83 1735,-83 1735,0 1893,0 1893,-83"/>
<text text-anchor="middle" x="1814" y="-67.8" font-family="Times,serif" font-size="14.00">node #22</text>
<text text-anchor="middle" x="1814" y="-52.8" font-family="Times,serif" font-size="14.00">gini = 0.0</text>
<text text-anchor="middle" x="1814" y="-37.8" font-family="Times,serif" font-size="14.00">samples = 1</text>
<text text-anchor="middle" x="1814" y="-22.8" font-family="Times,serif" font-size="14.00">value = [0.0, 0.962]</text>
<text text-anchor="middle" x="1814" y="-7.8" font-family="Times,serif" font-size="14.00">class = Obstructive</text>
</g>
<!-- 20&#45;&gt;22 -->
<g id="edge22" class="edge">
<title>20&#45;&gt;22</title>
<path fill="none" stroke="black" d="M1696.85,-118.87C1712.03,-108.97 1727.98,-98.57 1743.05,-88.74"/>
<polygon fill="black" stroke="black" points="1745.35,-91.43 1751.82,-83.03 1741.53,-85.56 1745.35,-91.43"/>
</g>
</g>
</svg>
