<?xml version="1.0" encoding="UTF-8" standalone="no"?>
<!DOCTYPE svg PUBLIC "-//W3C//DTD SVG 1.1//EN"
 "http://www.w3.org/Graphics/SVG/1.1/DTD/svg11.dtd">
<!-- Generated by graphviz version 2.43.0 (0)
 -->
<!-- Title: Tree Pages: 1 -->
<svg width="2031pt" height="627pt"
 viewBox="0.00 0.00 2031.00 627.00" xmlns="http://www.w3.org/2000/svg" xmlns:xlink="http://www.w3.org/1999/xlink">
<g id="graph0" class="graph" transform="scale(1 1) rotate(0) translate(4 623)">
<title>Tree</title>
<polygon fill="white" stroke="transparent" points="-4,4 -4,-623 2027,-623 2027,4 -4,4"/>
<!-- 0 -->
<g id="node1" class="node">
<title>0</title>
<polygon fill="none" stroke="black" points="1201,-619 1025,-619 1025,-521 1201,-521 1201,-619"/>
<text text-anchor="middle" x="1113" y="-603.8" font-family="Times,serif" font-size="14.00">node #0</text>
<text text-anchor="middle" x="1113" y="-588.8" font-family="Times,serif" font-size="14.00">FEFPreVal &lt;= 1.352</text>
<text text-anchor="middle" x="1113" y="-573.8" font-family="Times,serif" font-size="14.00">gini = 0.5</text>
<text text-anchor="middle" x="1113" y="-558.8" font-family="Times,serif" font-size="14.00">samples = 212</text>
<text text-anchor="middle" x="1113" y="-543.8" font-family="Times,serif" font-size="14.00">value = [166.5, 166.5]</text>
<text text-anchor="middle" x="1113" y="-528.8" font-family="Times,serif" font-size="14.00">class = Obstructive</text>
</g>
<!-- 1 -->
<g id="node2" class="node">
<title>1</title>
<polygon fill="none" stroke="black" points="907.5,-485 704.5,-485 704.5,-387 907.5,-387 907.5,-485"/>
<text text-anchor="middle" x="806" y="-469.8" font-family="Times,serif" font-size="14.00">node #1</text>
<text text-anchor="middle" x="806" y="-454.8" font-family="Times,serif" font-size="14.00">FVCPostPercent &lt;= 41.0</text>
<text text-anchor="middle" x="806" y="-439.8" font-family="Times,serif" font-size="14.00">gini = 0.244</text>
<text text-anchor="middle" x="806" y="-424.8" font-family="Times,serif" font-size="14.00">samples = 92</text>
<text text-anchor="middle" x="806" y="-409.8" font-family="Times,serif" font-size="14.00">value = [20.695, 124.875]</text>
<text text-anchor="middle" x="806" y="-394.8" font-family="Times,serif" font-size="14.00">class = Obstructive</text>
</g>
<!-- 0&#45;&gt;1 -->
<g id="edge1" class="edge">
<title>0&#45;&gt;1</title>
<path fill="none" stroke="black" d="M1024.61,-531C991.04,-516.56 952.36,-499.93 916.95,-484.71"/>
<polygon fill="black" stroke="black" points="918.12,-481.4 907.55,-480.66 915.35,-487.83 918.12,-481.4"/>
<text text-anchor="middle" x="916.8" y="-500.18" font-family="Times,serif" font-size="14.00">True</text>
</g>
<!-- 14 -->
<g id="node15" class="node">
<title>14</title>
<polygon fill="none" stroke="black" points="1514.5,-485 1311.5,-485 1311.5,-387 1514.5,-387 1514.5,-485"/>
<text text-anchor="middle" x="1413" y="-469.8" font-family="Times,serif" font-size="14.00">node #14</text>
<text text-anchor="middle" x="1413" y="-454.8" font-family="Times,serif" font-size="14.00">FVCPrePercent &lt;= 61.5</text>
<text text-anchor="middle" x="1413" y="-439.8" font-family="Times,serif" font-size="14.00">gini = 0.346</text>
<text text-anchor="middle" x="1413" y="-424.8" font-family="Times,serif" font-size="14.00">samples = 120</text>
<text text-anchor="middle" x="1413" y="-409.8" font-family="Times,serif" font-size="14.00">value = [145.805, 41.625]</text>
<text text-anchor="middle" x="1413" y="-394.8" font-family="Times,serif" font-size="14.00">class = Non&#45;obstructive</text>
</g>
<!-- 0&#45;&gt;14 -->
<g id="edge14" class="edge">
<title>0&#45;&gt;14</title>
<path fill="none" stroke="black" d="M1201.39,-530.11C1232.91,-516.24 1268.82,-500.44 1301.99,-485.84"/>
<polygon fill="black" stroke="black" points="1303.53,-488.99 1311.27,-481.76 1300.71,-482.58 1303.53,-488.99"/>
<text text-anchor="middle" x="1302.21" y="-501.36" font-family="Times,serif" font-size="14.00">False</text>
</g>
<!-- 2 -->
<g id="node3" class="node">
<title>2</title>
<polygon fill="none" stroke="black" points="391,-351 203,-351 203,-253 391,-253 391,-351"/>
<text text-anchor="middle" x="297" y="-335.8" font-family="Times,serif" font-size="14.00">node #2</text>
<text text-anchor="middle" x="297" y="-320.8" font-family="Times,serif" font-size="14.00">FVCPostVal &lt;= 1.24</text>
<text text-anchor="middle" x="297" y="-305.8" font-family="Times,serif" font-size="14.00">gini = 0.379</text>
<text text-anchor="middle" x="297" y="-290.8" font-family="Times,serif" font-size="14.00">samples = 9</text>
<text text-anchor="middle" x="297" y="-275.8" font-family="Times,serif" font-size="14.00">value = [9.407, 3.202]</text>
<text text-anchor="middle" x="297" y="-260.8" font-family="Times,serif" font-size="14.00">class = Non&#45;obstructive</text>
</g>
<!-- 1&#45;&gt;2 -->
<g id="edge2" class="edge">
<title>1&#45;&gt;2</title>
<path fill="none" stroke="black" d="M704.22,-408.61C616.28,-385.8 489.72,-352.98 401.11,-330"/>
<polygon fill="black" stroke="black" points="401.86,-326.58 391.3,-327.46 400.1,-333.35 401.86,-326.58"/>
</g>
<!-- 7 -->
<g id="node8" class="node">
<title>7</title>
<polygon fill="none" stroke="black" points="907.5,-351 704.5,-351 704.5,-253 907.5,-253 907.5,-351"/>
<text text-anchor="middle" x="806" y="-335.8" font-family="Times,serif" font-size="14.00">node #7</text>
<text text-anchor="middle" x="806" y="-320.8" font-family="Times,serif" font-size="14.00">FVCPostPercent &lt;= 62.5</text>
<text text-anchor="middle" x="806" y="-305.8" font-family="Times,serif" font-size="14.00">gini = 0.155</text>
<text text-anchor="middle" x="806" y="-290.8" font-family="Times,serif" font-size="14.00">samples = 83</text>
<text text-anchor="middle" x="806" y="-275.8" font-family="Times,serif" font-size="14.00">value = [11.288, 121.673]</text>
<text text-anchor="middle" x="806" y="-260.8" font-family="Times,serif" font-size="14.00">class = Obstructive</text>
</g>
<!-- 1&#45;&gt;7 -->
<g id="edge7" class="edge">
<title>1&#45;&gt;7</title>
<path fill="none" stroke="black" d="M806,-386.97C806,-378.69 806,-370 806,-361.48"/>
<polygon fill="black" stroke="black" points="809.5,-361.21 806,-351.21 802.5,-361.21 809.5,-361.21"/>
</g>
<!-- 3 -->
<g id="node4" class="node">
<title>3</title>
<polygon fill="none" stroke="black" points="188,-209.5 0,-209.5 0,-126.5 188,-126.5 188,-209.5"/>
<text text-anchor="middle" x="94" y="-194.3" font-family="Times,serif" font-size="14.00">node #3</text>
<text text-anchor="middle" x="94" y="-179.3" font-family="Times,serif" font-size="14.00">gini = 0.0</text>
<text text-anchor="middle" x="94" y="-164.3" font-family="Times,serif" font-size="14.00">samples = 6</text>
<text text-anchor="middle" x="94" y="-149.3" font-family="Times,serif" font-size="14.00">value = [8.466, 0.0]</text>
<text text-anchor="middle" x="94" y="-134.3" font-family="Times,serif" font-size="14.00">class = Non&#45;obstructive</text>
</g>
<!-- 2&#45;&gt;3 -->
<g id="edge3" class="edge">
<title>2&#45;&gt;3</title>
<path fill="none" stroke="black" d="M223.14,-252.97C204.16,-240.63 183.8,-227.39 164.97,-215.15"/>
<polygon fill="black" stroke="black" points="166.73,-212.12 156.44,-209.6 162.92,-217.99 166.73,-212.12"/>
</g>
<!-- 4 -->
<g id="node5" class="node">
<title>4</title>
<polygon fill="none" stroke="black" points="388,-217 206,-217 206,-119 388,-119 388,-217"/>
<text text-anchor="middle" x="297" y="-201.8" font-family="Times,serif" font-size="14.00">node #4</text>
<text text-anchor="middle" x="297" y="-186.8" font-family="Times,serif" font-size="14.00">FEV1PostVal &lt;= 0.905</text>
<text text-anchor="middle" x="297" y="-171.8" font-family="Times,serif" font-size="14.00">gini = 0.351</text>
<text text-anchor="middle" x="297" y="-156.8" font-family="Times,serif" font-size="14.00">samples = 3</text>
<text text-anchor="middle" x="297" y="-141.8" font-family="Times,serif" font-size="14.00">value = [0.941, 3.202]</text>
<text text-anchor="middle" x="297" y="-126.8" font-family="Times,serif" font-size="14.00">class = Obstructive</text>
</g>
<!-- 2&#45;&gt;4 -->
<g id="edge4" class="edge">
<title>2&#45;&gt;4</title>
<path fill="none" stroke="black" d="M297,-252.97C297,-244.69 297,-236 297,-227.48"/>
<polygon fill="black" stroke="black" points="300.5,-227.21 297,-217.21 293.5,-227.21 300.5,-227.21"/>
</g>
<!-- 5 -->
<g id="node6" class="node">
<title>5</title>
<polygon fill="none" stroke="black" points="185,-83 27,-83 27,0 185,0 185,-83"/>
<text text-anchor="middle" x="106" y="-67.8" font-family="Times,serif" font-size="14.00">node #5</text>
<text text-anchor="middle" x="106" y="-52.8" font-family="Times,serif" font-size="14.00">gini = &#45;0.0</text>
<text text-anchor="middle" x="106" y="-37.8" font-family="Times,serif" font-size="14.00">samples = 2</text>
<text text-anchor="middle" x="106" y="-22.8" font-family="Times,serif" font-size="14.00">value = [0.0, 3.202]</text>
<text text-anchor="middle" x="106" y="-7.8" font-family="Times,serif" font-size="14.00">class = Obstructive</text>
</g>
<!-- 4&#45;&gt;5 -->
<g id="edge5" class="edge">
<title>4&#45;&gt;5</title>
<path fill="none" stroke="black" d="M223.15,-118.87C207.97,-108.97 192.02,-98.57 176.95,-88.74"/>
<polygon fill="black" stroke="black" points="178.47,-85.56 168.18,-83.03 174.65,-91.43 178.47,-85.56"/>
</g>
<!-- 6 -->
<g id="node7" class="node">
<title>6</title>
<polygon fill="none" stroke="black" points="391,-83 203,-83 203,0 391,0 391,-83"/>
<text text-anchor="middle" x="297" y="-67.8" font-family="Times,serif" font-size="14.00">node #6</text>
<text text-anchor="middle" x="297" y="-52.8" font-family="Times,serif" font-size="14.00">gini = 0.0</text>
<text text-anchor="middle" x="297" y="-37.8" font-family="Times,serif" font-size="14.00">samples = 1</text>
<text text-anchor="middle" x="297" y="-22.8" font-family="Times,serif" font-size="14.00">value = [0.941, 0.0]</text>
<text text-anchor="middle" x="297" y="-7.8" font-family="Times,serif" font-size="14.00">class = Non&#45;obstructive</text>
</g>
<!-- 4&#45;&gt;6 -->
<g id="edge6" class="edge">
<title>4&#45;&gt;6</title>
<path fill="none" stroke="black" d="M297,-118.87C297,-110.5 297,-101.77 297,-93.33"/>
<polygon fill="black" stroke="black" points="300.5,-93.23 297,-83.23 293.5,-93.23 300.5,-93.23"/>
</g>
<!-- 8 -->
<g id="node9" class="node">
<title>8</title>
<polygon fill="none" stroke="black" points="801,-217 601,-217 601,-119 801,-119 801,-217"/>
<text text-anchor="middle" x="701" y="-201.8" font-family="Times,serif" font-size="14.00">node #8</text>
<text text-anchor="middle" x="701" y="-186.8" font-family="Times,serif" font-size="14.00">FEV1PrePercent &lt;= 46.5</text>
<text text-anchor="middle" x="701" y="-171.8" font-family="Times,serif" font-size="14.00">gini = 0.296</text>
<text text-anchor="middle" x="701" y="-156.8" font-family="Times,serif" font-size="14.00">samples = 37</text>
<text text-anchor="middle" x="701" y="-141.8" font-family="Times,serif" font-size="14.00">value = [9.407, 42.692]</text>
<text text-anchor="middle" x="701" y="-126.8" font-family="Times,serif" font-size="14.00">class = Obstructive</text>
</g>
<!-- 7&#45;&gt;8 -->
<g id="edge8" class="edge">
<title>7&#45;&gt;8</title>
<path fill="none" stroke="black" d="M767.8,-252.97C760.63,-243.96 753.08,-234.47 745.74,-225.24"/>
<polygon fill="black" stroke="black" points="748.32,-222.86 739.35,-217.21 742.84,-227.22 748.32,-222.86"/>
</g>
<!-- 11 -->
<g id="node12" class="node">
<title>11</title>
<polygon fill="none" stroke="black" points="1004.5,-217 819.5,-217 819.5,-119 1004.5,-119 1004.5,-217"/>
<text text-anchor="middle" x="912" y="-201.8" font-family="Times,serif" font-size="14.00">node #11</text>
<text text-anchor="middle" x="912" y="-186.8" font-family="Times,serif" font-size="14.00">FVCPostVal &lt;= 1.47</text>
<text text-anchor="middle" x="912" y="-171.8" font-family="Times,serif" font-size="14.00">gini = 0.045</text>
<text text-anchor="middle" x="912" y="-156.8" font-family="Times,serif" font-size="14.00">samples = 46</text>
<text text-anchor="middle" x="912" y="-141.8" font-family="Times,serif" font-size="14.00">value = [1.881, 78.981]</text>
<text text-anchor="middle" x="912" y="-126.8" font-family="Times,serif" font-size="14.00">class = Obstructive</text>
</g>
<!-- 7&#45;&gt;11 -->
<g id="edge11" class="edge">
<title>7&#45;&gt;11</title>
<path fill="none" stroke="black" d="M844.57,-252.97C851.8,-243.96 859.42,-234.47 866.84,-225.24"/>
<polygon fill="black" stroke="black" points="869.75,-227.2 873.28,-217.21 864.29,-222.82 869.75,-227.2"/>
</g>
<!-- 9 -->
<g id="node10" class="node">
<title>9</title>
<polygon fill="none" stroke="black" points="594.5,-83 409.5,-83 409.5,0 594.5,0 594.5,-83"/>
<text text-anchor="middle" x="502" y="-67.8" font-family="Times,serif" font-size="14.00">node #9</text>
<text text-anchor="middle" x="502" y="-52.8" font-family="Times,serif" font-size="14.00">gini = 0.083</text>
<text text-anchor="middle" x="502" y="-37.8" font-family="Times,serif" font-size="14.00">samples = 30</text>
<text text-anchor="middle" x="502" y="-22.8" font-family="Times,serif" font-size="14.00">value = [1.881, 41.625]</text>
<text text-anchor="middle" x="502" y="-7.8" font-family="Times,serif" font-size="14.00">class = Obstructive</text>
</g>
<!-- 8&#45;&gt;9 -->
<g id="edge9" class="edge">
<title>8&#45;&gt;9</title>
<path fill="none" stroke="black" d="M624.06,-118.87C608.1,-108.88 591.31,-98.38 575.48,-88.47"/>
<polygon fill="black" stroke="black" points="577.12,-85.37 566.79,-83.03 573.41,-91.3 577.12,-85.37"/>
</g>
<!-- 10 -->
<g id="node11" class="node">
<title>10</title>
<polygon fill="none" stroke="black" points="801,-83 613,-83 613,0 801,0 801,-83"/>
<text text-anchor="middle" x="707" y="-67.8" font-family="Times,serif" font-size="14.00">node #10</text>
<text text-anchor="middle" x="707" y="-52.8" font-family="Times,serif" font-size="14.00">gini = 0.218</text>
<text text-anchor="middle" x="707" y="-37.8" font-family="Times,serif" font-size="14.00">samples = 7</text>
<text text-anchor="middle" x="707" y="-22.8" font-family="Times,serif" font-size="14.00">value = [7.525, 1.067]</text>
<text text-anchor="middle" x="707" y="-7.8" font-family="Times,serif" font-size="14.00">class = Non&#45;obstructive</text>
</g>
<!-- 8&#45;&gt;10 -->
<g id="edge10" class="edge">
<title>8&#45;&gt;10</title>
<path fill="none" stroke="black" d="M703.32,-118.87C703.72,-110.5 704.14,-101.77 704.55,-93.33"/>
<polygon fill="black" stroke="black" points="708.05,-93.39 705.04,-83.23 701.06,-93.05 708.05,-93.39"/>
</g>
<!-- 12 -->
<g id="node13" class="node">
<title>12</title>
<polygon fill="none" stroke="black" points="995,-83 819,-83 819,0 995,0 995,-83"/>
<text text-anchor="middle" x="907" y="-67.8" font-family="Times,serif" font-size="14.00">node #12</text>
<text text-anchor="middle" x="907" y="-52.8" font-family="Times,serif" font-size="14.00">gini = 0.351</text>
<text text-anchor="middle" x="907" y="-37.8" font-family="Times,serif" font-size="14.00">samples = 3</text>
<text text-anchor="middle" x="907" y="-22.8" font-family="Times,serif" font-size="14.00">value = [0.941, 3.202]</text>
<text text-anchor="middle" x="907" y="-7.8" font-family="Times,serif" font-size="14.00">class = Obstructive</text>
</g>
<!-- 11&#45;&gt;12 -->
<g id="edge12" class="edge">
<title>11&#45;&gt;12</title>
<path fill="none" stroke="black" d="M910.07,-118.87C909.73,-110.5 909.38,-101.77 909.04,-93.33"/>
<polygon fill="black" stroke="black" points="912.53,-93.08 908.64,-83.23 905.54,-93.36 912.53,-93.08"/>
</g>
<!-- 13 -->
<g id="node14" class="node">
<title>13</title>
<polygon fill="none" stroke="black" points="1197.5,-83 1012.5,-83 1012.5,0 1197.5,0 1197.5,-83"/>
<text text-anchor="middle" x="1105" y="-67.8" font-family="Times,serif" font-size="14.00">node #13</text>
<text text-anchor="middle" x="1105" y="-52.8" font-family="Times,serif" font-size="14.00">gini = 0.024</text>
<text text-anchor="middle" x="1105" y="-37.8" font-family="Times,serif" font-size="14.00">samples = 43</text>
<text text-anchor="middle" x="1105" y="-22.8" font-family="Times,serif" font-size="14.00">value = [0.941, 75.779]</text>
<text text-anchor="middle" x="1105" y="-7.8" font-family="Times,serif" font-size="14.00">class = Obstructive</text>
</g>
<!-- 11&#45;&gt;13 -->
<g id="edge13" class="edge">
<title>11&#45;&gt;13</title>
<path fill="none" stroke="black" d="M986.62,-118.87C1002.1,-108.88 1018.38,-98.38 1033.74,-88.47"/>
<polygon fill="black" stroke="black" points="1035.66,-91.39 1042.17,-83.03 1031.87,-85.51 1035.66,-91.39"/>
</g>
<!-- 15 -->
<g id="node16" class="node">
<title>15</title>
<polygon fill="none" stroke="black" points="1507,-351 1319,-351 1319,-253 1507,-253 1507,-351"/>
<text text-anchor="middle" x="1413" y="-335.8" font-family="Times,serif" font-size="14.00">node #15</text>
<text text-anchor="middle" x="1413" y="-320.8" font-family="Times,serif" font-size="14.00">FEFPostVal &lt;= 1.775</text>
<text text-anchor="middle" x="1413" y="-305.8" font-family="Times,serif" font-size="14.00">gini = 0.09</text>
<text text-anchor="middle" x="1413" y="-290.8" font-family="Times,serif" font-size="14.00">samples = 60</text>
<text text-anchor="middle" x="1413" y="-275.8" font-family="Times,serif" font-size="14.00">value = [86.542, 4.269]</text>
<text text-anchor="middle" x="1413" y="-260.8" font-family="Times,serif" font-size="14.00">class = Non&#45;obstructive</text>
</g>
<!-- 14&#45;&gt;15 -->
<g id="edge15" class="edge">
<title>14&#45;&gt;15</title>
<path fill="none" stroke="black" d="M1413,-386.97C1413,-378.69 1413,-370 1413,-361.48"/>
<polygon fill="black" stroke="black" points="1416.5,-361.21 1413,-351.21 1409.5,-361.21 1416.5,-361.21"/>
</g>
<!-- 20 -->
<g id="node21" class="node">
<title>20</title>
<polygon fill="none" stroke="black" points="1824,-351 1630,-351 1630,-253 1824,-253 1824,-351"/>
<text text-anchor="middle" x="1727" y="-335.8" font-family="Times,serif" font-size="14.00">node #20</text>
<text text-anchor="middle" x="1727" y="-320.8" font-family="Times,serif" font-size="14.00">FVCPostVal &lt;= 3.56</text>
<text text-anchor="middle" x="1727" y="-305.8" font-family="Times,serif" font-size="14.00">gini = 0.474</text>
<text text-anchor="middle" x="1727" y="-290.8" font-family="Times,serif" font-size="14.00">samples = 60</text>
<text text-anchor="middle" x="1727" y="-275.8" font-family="Times,serif" font-size="14.00">value = [59.263, 37.356]</text>
<text text-anchor="middle" x="1727" y="-260.8" font-family="Times,serif" font-size="14.00">class = Non&#45;obstructive</text>
</g>
<!-- 14&#45;&gt;20 -->
<g id="edge20" class="edge">
<title>14&#45;&gt;20</title>
<path fill="none" stroke="black" d="M1514.51,-392.33C1548.33,-378.11 1586.1,-362.23 1620.3,-347.86"/>
<polygon fill="black" stroke="black" points="1621.98,-350.94 1629.85,-343.84 1619.27,-344.49 1621.98,-350.94"/>
</g>
<!-- 16 -->
<g id="node17" class="node">
<title>16</title>
<polygon fill="none" stroke="black" points="1404,-217 1216,-217 1216,-119 1404,-119 1404,-217"/>
<text text-anchor="middle" x="1310" y="-201.8" font-family="Times,serif" font-size="14.00">node #16</text>
<text text-anchor="middle" x="1310" y="-186.8" font-family="Times,serif" font-size="14.00">FEFPostVal &lt;= 1.71</text>
<text text-anchor="middle" x="1310" y="-171.8" font-family="Times,serif" font-size="14.00">gini = 0.275</text>
<text text-anchor="middle" x="1310" y="-156.8" font-family="Times,serif" font-size="14.00">samples = 15</text>
<text text-anchor="middle" x="1310" y="-141.8" font-family="Times,serif" font-size="14.00">value = [21.636, 4.269]</text>
<text text-anchor="middle" x="1310" y="-126.8" font-family="Times,serif" font-size="14.00">class = Non&#45;obstructive</text>
</g>
<!-- 15&#45;&gt;16 -->
<g id="edge16" class="edge">
<title>15&#45;&gt;16</title>
<path fill="none" stroke="black" d="M1375.52,-252.97C1368.49,-243.96 1361.09,-234.47 1353.88,-225.24"/>
<polygon fill="black" stroke="black" points="1356.53,-222.94 1347.62,-217.21 1351.01,-227.25 1356.53,-222.94"/>
</g>
<!-- 19 -->
<g id="node20" class="node">
<title>19</title>
<polygon fill="none" stroke="black" points="1610,-209.5 1422,-209.5 1422,-126.5 1610,-126.5 1610,-209.5"/>
<text text-anchor="middle" x="1516" y="-194.3" font-family="Times,serif" font-size="14.00">node #19</text>
<text text-anchor="middle" x="1516" y="-179.3" font-family="Times,serif" font-size="14.00">gini = &#45;0.0</text>
<text text-anchor="middle" x="1516" y="-164.3" font-family="Times,serif" font-size="14.00">samples = 45</text>
<text text-anchor="middle" x="1516" y="-149.3" font-family="Times,serif" font-size="14.00">value = [64.907, 0.0]</text>
<text text-anchor="middle" x="1516" y="-134.3" font-family="Times,serif" font-size="14.00">class = Non&#45;obstructive</text>
</g>
<!-- 15&#45;&gt;19 -->
<g id="edge19" class="edge">
<title>15&#45;&gt;19</title>
<path fill="none" stroke="black" d="M1450.48,-252.97C1459.36,-241.58 1468.85,-229.42 1477.77,-217.99"/>
<polygon fill="black" stroke="black" points="1480.76,-219.85 1484.15,-209.82 1475.24,-215.55 1480.76,-219.85"/>
</g>
<!-- 17 -->
<g id="node18" class="node">
<title>17</title>
<polygon fill="none" stroke="black" points="1404,-83 1216,-83 1216,0 1404,0 1404,-83"/>
<text text-anchor="middle" x="1310" y="-67.8" font-family="Times,serif" font-size="14.00">node #17</text>
<text text-anchor="middle" x="1310" y="-52.8" font-family="Times,serif" font-size="14.00">gini = 0.0</text>
<text text-anchor="middle" x="1310" y="-37.8" font-family="Times,serif" font-size="14.00">samples = 12</text>
<text text-anchor="middle" x="1310" y="-22.8" font-family="Times,serif" font-size="14.00">value = [20.695, 0.0]</text>
<text text-anchor="middle" x="1310" y="-7.8" font-family="Times,serif" font-size="14.00">class = Non&#45;obstructive</text>
</g>
<!-- 16&#45;&gt;17 -->
<g id="edge17" class="edge">
<title>16&#45;&gt;17</title>
<path fill="none" stroke="black" d="M1310,-118.87C1310,-110.5 1310,-101.77 1310,-93.33"/>
<polygon fill="black" stroke="black" points="1313.5,-93.23 1310,-83.23 1306.5,-93.23 1313.5,-93.23"/>
</g>
<!-- 18 -->
<g id="node19" class="node">
<title>18</title>
<polygon fill="none" stroke="black" points="1598,-83 1422,-83 1422,0 1598,0 1598,-83"/>
<text text-anchor="middle" x="1510" y="-67.8" font-family="Times,serif" font-size="14.00">node #18</text>
<text text-anchor="middle" x="1510" y="-52.8" font-family="Times,serif" font-size="14.00">gini = 0.296</text>
<text text-anchor="middle" x="1510" y="-37.8" font-family="Times,serif" font-size="14.00">samples = 3</text>
<text text-anchor="middle" x="1510" y="-22.8" font-family="Times,serif" font-size="14.00">value = [0.941, 4.269]</text>
<text text-anchor="middle" x="1510" y="-7.8" font-family="Times,serif" font-size="14.00">class = Obstructive</text>
</g>
<!-- 16&#45;&gt;18 -->
<g id="edge18" class="edge">
<title>16&#45;&gt;18</title>
<path fill="none" stroke="black" d="M1387.33,-118.87C1403.37,-108.88 1420.24,-98.38 1436.15,-88.47"/>
<polygon fill="black" stroke="black" points="1438.25,-91.29 1444.89,-83.03 1434.55,-85.35 1438.25,-91.29"/>
</g>
<!-- 21 -->
<g id="node22" class="node">
<title>21</title>
<polygon fill="none" stroke="black" points="1825.5,-217 1628.5,-217 1628.5,-119 1825.5,-119 1825.5,-217"/>
<text text-anchor="middle" x="1727" y="-201.8" font-family="Times,serif" font-size="14.00">node #21</text>
<text text-anchor="middle" x="1727" y="-186.8" font-family="Times,serif" font-size="14.00">FEFPostPercent &lt;= 74.5</text>
<text text-anchor="middle" x="1727" y="-171.8" font-family="Times,serif" font-size="14.00">gini = 0.428</text>
<text text-anchor="middle" x="1727" y="-156.8" font-family="Times,serif" font-size="14.00">samples = 54</text>
<text text-anchor="middle" x="1727" y="-141.8" font-family="Times,serif" font-size="14.00">value = [59.263, 26.683]</text>
<text text-anchor="middle" x="1727" y="-126.8" font-family="Times,serif" font-size="14.00">class = Non&#45;obstructive</text>
</g>
<!-- 20&#45;&gt;21 -->
<g id="edge21" class="edge">
<title>20&#45;&gt;21</title>
<path fill="none" stroke="black" d="M1727,-252.97C1727,-244.69 1727,-236 1727,-227.48"/>
<polygon fill="black" stroke="black" points="1730.5,-227.21 1727,-217.21 1723.5,-227.21 1730.5,-227.21"/>
</g>
<!-- 24 -->
<g id="node25" class="node">
<title>24</title>
<polygon fill="none" stroke="black" points="2010.5,-209.5 1843.5,-209.5 1843.5,-126.5 2010.5,-126.5 2010.5,-209.5"/>
<text text-anchor="middle" x="1927" y="-194.3" font-family="Times,serif" font-size="14.00">node #24</text>
<text text-anchor="middle" x="1927" y="-179.3" font-family="Times,serif" font-size="14.00">gini = 0.0</text>
<text text-anchor="middle" x="1927" y="-164.3" font-family="Times,serif" font-size="14.00">samples = 6</text>
<text text-anchor="middle" x="1927" y="-149.3" font-family="Times,serif" font-size="14.00">value = [0.0, 10.673]</text>
<text text-anchor="middle" x="1927" y="-134.3" font-family="Times,serif" font-size="14.00">class = Obstructive</text>
</g>
<!-- 20&#45;&gt;24 -->
<g id="edge24" class="edge">
<title>20&#45;&gt;24</title>
<path fill="none" stroke="black" d="M1799.77,-252.97C1818.46,-240.63 1838.53,-227.39 1857.08,-215.15"/>
<polygon fill="black" stroke="black" points="1859.06,-218.03 1865.48,-209.6 1855.21,-212.19 1859.06,-218.03"/>
</g>
<!-- 22 -->
<g id="node23" class="node">
<title>22</title>
<polygon fill="none" stroke="black" points="1817,-83 1623,-83 1623,0 1817,0 1817,-83"/>
<text text-anchor="middle" x="1720" y="-67.8" font-family="Times,serif" font-size="14.00">node #22</text>
<text text-anchor="middle" x="1720" y="-52.8" font-family="Times,serif" font-size="14.00">gini = 0.491</text>
<text text-anchor="middle" x="1720" y="-37.8" font-family="Times,serif" font-size="14.00">samples = 23</text>
<text text-anchor="middle" x="1720" y="-22.8" font-family="Times,serif" font-size="14.00">value = [17.873, 23.481]</text>
<text text-anchor="middle" x="1720" y="-7.8" font-family="Times,serif" font-size="14.00">class = Obstructive</text>
</g>
<!-- 21&#45;&gt;22 -->
<g id="edge22" class="edge">
<title>21&#45;&gt;22</title>
<path fill="none" stroke="black" d="M1724.29,-118.87C1723.82,-110.5 1723.33,-101.77 1722.86,-93.33"/>
<polygon fill="black" stroke="black" points="1726.35,-93.02 1722.29,-83.23 1719.36,-93.41 1726.35,-93.02"/>
</g>
<!-- 23 -->
<g id="node24" class="node">
<title>23</title>
<polygon fill="none" stroke="black" points="2023,-83 1835,-83 1835,0 2023,0 2023,-83"/>
<text text-anchor="middle" x="1929" y="-67.8" font-family="Times,serif" font-size="14.00">node #23</text>
<text text-anchor="middle" x="1929" y="-52.8" font-family="Times,serif" font-size="14.00">gini = 0.133</text>
<text text-anchor="middle" x="1929" y="-37.8" font-family="Times,serif" font-size="14.00">samples = 31</text>
<text text-anchor="middle" x="1929" y="-22.8" font-family="Times,serif" font-size="14.00">value = [41.39, 3.202]</text>
<text text-anchor="middle" x="1929" y="-7.8" font-family="Times,serif" font-size="14.00">class = Non&#45;obstructive</text>
</g>
<!-- 21&#45;&gt;23 -->
<g id="edge23" class="edge">
<title>21&#45;&gt;23</title>
<path fill="none" stroke="black" d="M1805.1,-118.87C1821.3,-108.88 1838.34,-98.38 1854.42,-88.47"/>
<polygon fill="black" stroke="black" points="1856.56,-91.26 1863.24,-83.03 1852.89,-85.3 1856.56,-91.26"/>
</g>
</g>
</svg>
