<?xml version="1.0" encoding="UTF-8" standalone="no"?>
<!DOCTYPE svg PUBLIC "-//W3C//DTD SVG 1.1//EN"
 "http://www.w3.org/Graphics/SVG/1.1/DTD/svg11.dtd">
<!-- Generated by graphviz version 2.43.0 (0)
 -->
<!-- Title: Tree Pages: 1 -->
<svg width="2001pt" height="627pt"
 viewBox="0.00 0.00 2001.00 627.00" xmlns="http://www.w3.org/2000/svg" xmlns:xlink="http://www.w3.org/1999/xlink">
<g id="graph0" class="graph" transform="scale(1 1) rotate(0) translate(4 623)">
<title>Tree</title>
<polygon fill="white" stroke="transparent" points="-4,4 -4,-623 1997,-623 1997,4 -4,4"/>
<!-- 0 -->
<g id="node1" class="node">
<title>0</title>
<polygon fill="none" stroke="black" points="1065.5,-619 874.5,-619 874.5,-521 1065.5,-521 1065.5,-619"/>
<text text-anchor="middle" x="970" y="-603.8" font-family="Times,serif" font-size="14.00">node #0</text>
<text text-anchor="middle" x="970" y="-588.8" font-family="Times,serif" font-size="14.00">FEFPrePercent &lt;= 56.5</text>
<text text-anchor="middle" x="970" y="-573.8" font-family="Times,serif" font-size="14.00">gini = 0.5</text>
<text text-anchor="middle" x="970" y="-558.8" font-family="Times,serif" font-size="14.00">samples = 213</text>
<text text-anchor="middle" x="970" y="-543.8" font-family="Times,serif" font-size="14.00">value = [166.5, 166.5]</text>
<text text-anchor="middle" x="970" y="-528.8" font-family="Times,serif" font-size="14.00">class = Non&#45;obstructive</text>
</g>
<!-- 1 -->
<g id="node2" class="node">
<title>1</title>
<polygon fill="none" stroke="black" points="868.5,-485 665.5,-485 665.5,-387 868.5,-387 868.5,-485"/>
<text text-anchor="middle" x="767" y="-469.8" font-family="Times,serif" font-size="14.00">node #1</text>
<text text-anchor="middle" x="767" y="-454.8" font-family="Times,serif" font-size="14.00">FVCPostVal &lt;= 1.515</text>
<text text-anchor="middle" x="767" y="-439.8" font-family="Times,serif" font-size="14.00">gini = 0.345</text>
<text text-anchor="middle" x="767" y="-424.8" font-family="Times,serif" font-size="14.00">samples = 115</text>
<text text-anchor="middle" x="767" y="-409.8" font-family="Times,serif" font-size="14.00">value = [39.117, 137.587]</text>
<text text-anchor="middle" x="767" y="-394.8" font-family="Times,serif" font-size="14.00">class = Obstructive</text>
</g>
<!-- 0&#45;&gt;1 -->
<g id="edge1" class="edge">
<title>0&#45;&gt;1</title>
<path fill="none" stroke="black" d="M896.14,-520.97C881.03,-511.14 865.03,-500.74 849.63,-490.73"/>
<polygon fill="black" stroke="black" points="851.44,-487.73 841.15,-485.21 847.62,-493.6 851.44,-487.73"/>
<text text-anchor="middle" x="846.33" y="-505.97" font-family="Times,serif" font-size="14.00">True</text>
</g>
<!-- 14 -->
<g id="node15" class="node">
<title>14</title>
<polygon fill="none" stroke="black" points="1239.5,-485 1036.5,-485 1036.5,-387 1239.5,-387 1239.5,-485"/>
<text text-anchor="middle" x="1138" y="-469.8" font-family="Times,serif" font-size="14.00">node #14</text>
<text text-anchor="middle" x="1138" y="-454.8" font-family="Times,serif" font-size="14.00">FVCPostVal &lt;= 1.925</text>
<text text-anchor="middle" x="1138" y="-439.8" font-family="Times,serif" font-size="14.00">gini = 0.302</text>
<text text-anchor="middle" x="1138" y="-424.8" font-family="Times,serif" font-size="14.00">samples = 98</text>
<text text-anchor="middle" x="1138" y="-409.8" font-family="Times,serif" font-size="14.00">value = [127.383, 28.913]</text>
<text text-anchor="middle" x="1138" y="-394.8" font-family="Times,serif" font-size="14.00">class = Non&#45;obstructive</text>
</g>
<!-- 0&#45;&gt;14 -->
<g id="edge14" class="edge">
<title>0&#45;&gt;14</title>
<path fill="none" stroke="black" d="M1031.13,-520.97C1043.29,-511.42 1056.14,-501.32 1068.55,-491.57"/>
<polygon fill="black" stroke="black" points="1070.94,-494.14 1076.64,-485.21 1066.61,-488.64 1070.94,-494.14"/>
<text text-anchor="middle" x="1073.66" y="-506.34" font-family="Times,serif" font-size="14.00">False</text>
</g>
<!-- 2 -->
<g id="node3" class="node">
<title>2</title>
<polygon fill="none" stroke="black" points="554,-351 360,-351 360,-253 554,-253 554,-351"/>
<text text-anchor="middle" x="457" y="-335.8" font-family="Times,serif" font-size="14.00">node #2</text>
<text text-anchor="middle" x="457" y="-320.8" font-family="Times,serif" font-size="14.00">FEFPreVal &lt;= 1.085</text>
<text text-anchor="middle" x="457" y="-305.8" font-family="Times,serif" font-size="14.00">gini = 0.5</text>
<text text-anchor="middle" x="457" y="-290.8" font-family="Times,serif" font-size="14.00">samples = 21</text>
<text text-anchor="middle" x="457" y="-275.8" font-family="Times,serif" font-size="14.00">value = [17.051, 17.946]</text>
<text text-anchor="middle" x="457" y="-260.8" font-family="Times,serif" font-size="14.00">class = Obstructive</text>
</g>
<!-- 1&#45;&gt;2 -->
<g id="edge2" class="edge">
<title>1&#45;&gt;2</title>
<path fill="none" stroke="black" d="M665.49,-391.78C632.81,-377.86 596.51,-362.4 563.48,-348.34"/>
<polygon fill="black" stroke="black" points="564.82,-345.11 554.25,-344.41 562.08,-351.55 564.82,-345.11"/>
</g>
<!-- 7 -->
<g id="node8" class="node">
<title>7</title>
<polygon fill="none" stroke="black" points="870,-351 664,-351 664,-253 870,-253 870,-351"/>
<text text-anchor="middle" x="767" y="-335.8" font-family="Times,serif" font-size="14.00">node #7</text>
<text text-anchor="middle" x="767" y="-320.8" font-family="Times,serif" font-size="14.00">FEV1PostPercent &lt;= 56.0</text>
<text text-anchor="middle" x="767" y="-305.8" font-family="Times,serif" font-size="14.00">gini = 0.263</text>
<text text-anchor="middle" x="767" y="-290.8" font-family="Times,serif" font-size="14.00">samples = 94</text>
<text text-anchor="middle" x="767" y="-275.8" font-family="Times,serif" font-size="14.00">value = [22.066, 119.641]</text>
<text text-anchor="middle" x="767" y="-260.8" font-family="Times,serif" font-size="14.00">class = Obstructive</text>
</g>
<!-- 1&#45;&gt;7 -->
<g id="edge7" class="edge">
<title>1&#45;&gt;7</title>
<path fill="none" stroke="black" d="M767,-386.97C767,-378.69 767,-370 767,-361.48"/>
<polygon fill="black" stroke="black" points="770.5,-361.21 767,-351.21 763.5,-361.21 770.5,-361.21"/>
</g>
<!-- 3 -->
<g id="node4" class="node">
<title>3</title>
<polygon fill="none" stroke="black" points="344.5,-217 159.5,-217 159.5,-119 344.5,-119 344.5,-217"/>
<text text-anchor="middle" x="252" y="-201.8" font-family="Times,serif" font-size="14.00">node #3</text>
<text text-anchor="middle" x="252" y="-186.8" font-family="Times,serif" font-size="14.00">FEV1PreVal &lt;= 0.86</text>
<text text-anchor="middle" x="252" y="-171.8" font-family="Times,serif" font-size="14.00">gini = 0.246</text>
<text text-anchor="middle" x="252" y="-156.8" font-family="Times,serif" font-size="14.00">samples = 14</text>
<text text-anchor="middle" x="252" y="-141.8" font-family="Times,serif" font-size="14.00">value = [3.009, 17.946]</text>
<text text-anchor="middle" x="252" y="-126.8" font-family="Times,serif" font-size="14.00">class = Obstructive</text>
</g>
<!-- 2&#45;&gt;3 -->
<g id="edge3" class="edge">
<title>2&#45;&gt;3</title>
<path fill="none" stroke="black" d="M382.41,-252.97C367.15,-243.14 350.99,-232.74 335.44,-222.73"/>
<polygon fill="black" stroke="black" points="337.18,-219.68 326.88,-217.21 333.39,-225.57 337.18,-219.68"/>
</g>
<!-- 6 -->
<g id="node7" class="node">
<title>6</title>
<polygon fill="none" stroke="black" points="551,-209.5 363,-209.5 363,-126.5 551,-126.5 551,-209.5"/>
<text text-anchor="middle" x="457" y="-194.3" font-family="Times,serif" font-size="14.00">node #6</text>
<text text-anchor="middle" x="457" y="-179.3" font-family="Times,serif" font-size="14.00">gini = 0.0</text>
<text text-anchor="middle" x="457" y="-164.3" font-family="Times,serif" font-size="14.00">samples = 7</text>
<text text-anchor="middle" x="457" y="-149.3" font-family="Times,serif" font-size="14.00">value = [14.042, 0.0]</text>
<text text-anchor="middle" x="457" y="-134.3" font-family="Times,serif" font-size="14.00">class = Non&#45;obstructive</text>
</g>
<!-- 2&#45;&gt;6 -->
<g id="edge6" class="edge">
<title>2&#45;&gt;6</title>
<path fill="none" stroke="black" d="M457,-252.97C457,-242.25 457,-230.84 457,-219.99"/>
<polygon fill="black" stroke="black" points="460.5,-219.82 457,-209.82 453.5,-219.82 460.5,-219.82"/>
</g>
<!-- 4 -->
<g id="node5" class="node">
<title>4</title>
<polygon fill="none" stroke="black" points="176,-83 0,-83 0,0 176,0 176,-83"/>
<text text-anchor="middle" x="88" y="-67.8" font-family="Times,serif" font-size="14.00">node #4</text>
<text text-anchor="middle" x="88" y="-52.8" font-family="Times,serif" font-size="14.00">gini = 0.376</text>
<text text-anchor="middle" x="88" y="-37.8" font-family="Times,serif" font-size="14.00">samples = 10</text>
<text text-anchor="middle" x="88" y="-22.8" font-family="Times,serif" font-size="14.00">value = [3.009, 8.973]</text>
<text text-anchor="middle" x="88" y="-7.8" font-family="Times,serif" font-size="14.00">class = Obstructive</text>
</g>
<!-- 3&#45;&gt;4 -->
<g id="edge4" class="edge">
<title>3&#45;&gt;4</title>
<path fill="none" stroke="black" d="M188.59,-118.87C175.8,-109.15 162.37,-98.96 149.64,-89.3"/>
<polygon fill="black" stroke="black" points="151.47,-86.29 141.39,-83.03 147.24,-91.87 151.47,-86.29"/>
</g>
<!-- 5 -->
<g id="node6" class="node">
<title>5</title>
<polygon fill="none" stroke="black" points="352,-83 194,-83 194,0 352,0 352,-83"/>
<text text-anchor="middle" x="273" y="-67.8" font-family="Times,serif" font-size="14.00">node #5</text>
<text text-anchor="middle" x="273" y="-52.8" font-family="Times,serif" font-size="14.00">gini = 0.0</text>
<text text-anchor="middle" x="273" y="-37.8" font-family="Times,serif" font-size="14.00">samples = 4</text>
<text text-anchor="middle" x="273" y="-22.8" font-family="Times,serif" font-size="14.00">value = [0.0, 8.973]</text>
<text text-anchor="middle" x="273" y="-7.8" font-family="Times,serif" font-size="14.00">class = Obstructive</text>
</g>
<!-- 3&#45;&gt;5 -->
<g id="edge5" class="edge">
<title>3&#45;&gt;5</title>
<path fill="none" stroke="black" d="M260.12,-118.87C261.53,-110.5 263,-101.77 264.43,-93.33"/>
<polygon fill="black" stroke="black" points="267.92,-93.67 266.13,-83.23 261.02,-92.51 267.92,-93.67"/>
</g>
<!-- 8 -->
<g id="node9" class="node">
<title>8</title>
<polygon fill="none" stroke="black" points="766.5,-217 569.5,-217 569.5,-119 766.5,-119 766.5,-217"/>
<text text-anchor="middle" x="668" y="-201.8" font-family="Times,serif" font-size="14.00">node #8</text>
<text text-anchor="middle" x="668" y="-186.8" font-family="Times,serif" font-size="14.00">FEFPostPercent &lt;= 26.5</text>
<text text-anchor="middle" x="668" y="-171.8" font-family="Times,serif" font-size="14.00">gini = 0.11</text>
<text text-anchor="middle" x="668" y="-156.8" font-family="Times,serif" font-size="14.00">samples = 45</text>
<text text-anchor="middle" x="668" y="-141.8" font-family="Times,serif" font-size="14.00">value = [4.012, 64.805]</text>
<text text-anchor="middle" x="668" y="-126.8" font-family="Times,serif" font-size="14.00">class = Obstructive</text>
</g>
<!-- 7&#45;&gt;8 -->
<g id="edge8" class="edge">
<title>7&#45;&gt;8</title>
<path fill="none" stroke="black" d="M730.98,-252.97C724.22,-243.96 717.1,-234.47 710.18,-225.24"/>
<polygon fill="black" stroke="black" points="712.96,-223.11 704.16,-217.21 707.36,-227.31 712.96,-223.11"/>
</g>
<!-- 11 -->
<g id="node12" class="node">
<title>11</title>
<polygon fill="none" stroke="black" points="981.5,-217 784.5,-217 784.5,-119 981.5,-119 981.5,-217"/>
<text text-anchor="middle" x="883" y="-201.8" font-family="Times,serif" font-size="14.00">node #11</text>
<text text-anchor="middle" x="883" y="-186.8" font-family="Times,serif" font-size="14.00">FEFPostPercent &lt;= 42.0</text>
<text text-anchor="middle" x="883" y="-171.8" font-family="Times,serif" font-size="14.00">gini = 0.373</text>
<text text-anchor="middle" x="883" y="-156.8" font-family="Times,serif" font-size="14.00">samples = 49</text>
<text text-anchor="middle" x="883" y="-141.8" font-family="Times,serif" font-size="14.00">value = [18.054, 54.835]</text>
<text text-anchor="middle" x="883" y="-126.8" font-family="Times,serif" font-size="14.00">class = Obstructive</text>
</g>
<!-- 7&#45;&gt;11 -->
<g id="edge11" class="edge">
<title>7&#45;&gt;11</title>
<path fill="none" stroke="black" d="M809.21,-252.97C817.2,-243.87 825.63,-234.28 833.82,-224.96"/>
<polygon fill="black" stroke="black" points="836.66,-227.04 840.63,-217.21 831.4,-222.42 836.66,-227.04"/>
</g>
<!-- 9 -->
<g id="node10" class="node">
<title>9</title>
<polygon fill="none" stroke="black" points="557.5,-83 390.5,-83 390.5,0 557.5,0 557.5,-83"/>
<text text-anchor="middle" x="474" y="-67.8" font-family="Times,serif" font-size="14.00">node #9</text>
<text text-anchor="middle" x="474" y="-52.8" font-family="Times,serif" font-size="14.00">gini = 0.0</text>
<text text-anchor="middle" x="474" y="-37.8" font-family="Times,serif" font-size="14.00">samples = 29</text>
<text text-anchor="middle" x="474" y="-22.8" font-family="Times,serif" font-size="14.00">value = [0.0, 43.868]</text>
<text text-anchor="middle" x="474" y="-7.8" font-family="Times,serif" font-size="14.00">class = Obstructive</text>
</g>
<!-- 8&#45;&gt;9 -->
<g id="edge9" class="edge">
<title>8&#45;&gt;9</title>
<path fill="none" stroke="black" d="M592.99,-118.87C577.43,-108.88 561.07,-98.38 545.63,-88.47"/>
<polygon fill="black" stroke="black" points="547.47,-85.49 537.16,-83.03 543.68,-91.38 547.47,-85.49"/>
</g>
<!-- 10 -->
<g id="node11" class="node">
<title>10</title>
<polygon fill="none" stroke="black" points="760.5,-83 575.5,-83 575.5,0 760.5,0 760.5,-83"/>
<text text-anchor="middle" x="668" y="-67.8" font-family="Times,serif" font-size="14.00">node #10</text>
<text text-anchor="middle" x="668" y="-52.8" font-family="Times,serif" font-size="14.00">gini = 0.27</text>
<text text-anchor="middle" x="668" y="-37.8" font-family="Times,serif" font-size="14.00">samples = 16</text>
<text text-anchor="middle" x="668" y="-22.8" font-family="Times,serif" font-size="14.00">value = [4.012, 20.937]</text>
<text text-anchor="middle" x="668" y="-7.8" font-family="Times,serif" font-size="14.00">class = Obstructive</text>
</g>
<!-- 8&#45;&gt;10 -->
<g id="edge10" class="edge">
<title>8&#45;&gt;10</title>
<path fill="none" stroke="black" d="M668,-118.87C668,-110.5 668,-101.77 668,-93.33"/>
<polygon fill="black" stroke="black" points="671.5,-93.23 668,-83.23 664.5,-93.23 671.5,-93.23"/>
</g>
<!-- 12 -->
<g id="node13" class="node">
<title>12</title>
<polygon fill="none" stroke="black" points="963.5,-83 778.5,-83 778.5,0 963.5,0 963.5,-83"/>
<text text-anchor="middle" x="871" y="-67.8" font-family="Times,serif" font-size="14.00">node #12</text>
<text text-anchor="middle" x="871" y="-52.8" font-family="Times,serif" font-size="14.00">gini = 0.133</text>
<text text-anchor="middle" x="871" y="-37.8" font-family="Times,serif" font-size="14.00">samples = 18</text>
<text text-anchor="middle" x="871" y="-22.8" font-family="Times,serif" font-size="14.00">value = [2.006, 25.922]</text>
<text text-anchor="middle" x="871" y="-7.8" font-family="Times,serif" font-size="14.00">class = Obstructive</text>
</g>
<!-- 11&#45;&gt;12 -->
<g id="edge12" class="edge">
<title>11&#45;&gt;12</title>
<path fill="none" stroke="black" d="M878.36,-118.87C877.55,-110.5 876.71,-101.77 875.9,-93.33"/>
<polygon fill="black" stroke="black" points="879.37,-92.85 874.93,-83.23 872.4,-93.52 879.37,-92.85"/>
</g>
<!-- 13 -->
<g id="node14" class="node">
<title>13</title>
<polygon fill="none" stroke="black" points="1175,-83 981,-83 981,0 1175,0 1175,-83"/>
<text text-anchor="middle" x="1078" y="-67.8" font-family="Times,serif" font-size="14.00">node #13</text>
<text text-anchor="middle" x="1078" y="-52.8" font-family="Times,serif" font-size="14.00">gini = 0.459</text>
<text text-anchor="middle" x="1078" y="-37.8" font-family="Times,serif" font-size="14.00">samples = 31</text>
<text text-anchor="middle" x="1078" y="-22.8" font-family="Times,serif" font-size="14.00">value = [16.048, 28.913]</text>
<text text-anchor="middle" x="1078" y="-7.8" font-family="Times,serif" font-size="14.00">class = Obstructive</text>
</g>
<!-- 11&#45;&gt;13 -->
<g id="edge13" class="edge">
<title>11&#45;&gt;13</title>
<path fill="none" stroke="black" d="M958.39,-118.87C974.04,-108.88 990.48,-98.38 1006,-88.47"/>
<polygon fill="black" stroke="black" points="1007.97,-91.36 1014.52,-83.03 1004.2,-85.46 1007.97,-91.36"/>
</g>
<!-- 15 -->
<g id="node16" class="node">
<title>15</title>
<polygon fill="none" stroke="black" points="1232,-343.5 1044,-343.5 1044,-260.5 1232,-260.5 1232,-343.5"/>
<text text-anchor="middle" x="1138" y="-328.3" font-family="Times,serif" font-size="14.00">node #15</text>
<text text-anchor="middle" x="1138" y="-313.3" font-family="Times,serif" font-size="14.00">gini = 0.0</text>
<text text-anchor="middle" x="1138" y="-298.3" font-family="Times,serif" font-size="14.00">samples = 44</text>
<text text-anchor="middle" x="1138" y="-283.3" font-family="Times,serif" font-size="14.00">value = [62.187, 0.0]</text>
<text text-anchor="middle" x="1138" y="-268.3" font-family="Times,serif" font-size="14.00">class = Non&#45;obstructive</text>
</g>
<!-- 14&#45;&gt;15 -->
<g id="edge15" class="edge">
<title>14&#45;&gt;15</title>
<path fill="none" stroke="black" d="M1138,-386.97C1138,-376.25 1138,-364.84 1138,-353.99"/>
<polygon fill="black" stroke="black" points="1141.5,-353.82 1138,-343.82 1134.5,-353.82 1141.5,-353.82"/>
</g>
<!-- 16 -->
<g id="node17" class="node">
<title>16</title>
<polygon fill="none" stroke="black" points="1490,-351 1296,-351 1296,-253 1490,-253 1490,-351"/>
<text text-anchor="middle" x="1393" y="-335.8" font-family="Times,serif" font-size="14.00">node #16</text>
<text text-anchor="middle" x="1393" y="-320.8" font-family="Times,serif" font-size="14.00">FVCPreVal &lt;= 3.36</text>
<text text-anchor="middle" x="1393" y="-305.8" font-family="Times,serif" font-size="14.00">gini = 0.426</text>
<text text-anchor="middle" x="1393" y="-290.8" font-family="Times,serif" font-size="14.00">samples = 54</text>
<text text-anchor="middle" x="1393" y="-275.8" font-family="Times,serif" font-size="14.00">value = [65.196, 28.913]</text>
<text text-anchor="middle" x="1393" y="-260.8" font-family="Times,serif" font-size="14.00">class = Non&#45;obstructive</text>
</g>
<!-- 14&#45;&gt;16 -->
<g id="edge16" class="edge">
<title>14&#45;&gt;16</title>
<path fill="none" stroke="black" d="M1230.78,-386.97C1250.29,-376.87 1270.98,-366.16 1290.81,-355.9"/>
<polygon fill="black" stroke="black" points="1292.59,-358.92 1299.86,-351.21 1289.37,-352.7 1292.59,-358.92"/>
</g>
<!-- 17 -->
<g id="node18" class="node">
<title>17</title>
<polygon fill="none" stroke="black" points="1488.5,-217 1297.5,-217 1297.5,-119 1488.5,-119 1488.5,-217"/>
<text text-anchor="middle" x="1393" y="-201.8" font-family="Times,serif" font-size="14.00">node #17</text>
<text text-anchor="middle" x="1393" y="-186.8" font-family="Times,serif" font-size="14.00">FEFPrePercent &lt;= 85.5</text>
<text text-anchor="middle" x="1393" y="-171.8" font-family="Times,serif" font-size="14.00">gini = 0.368</text>
<text text-anchor="middle" x="1393" y="-156.8" font-family="Times,serif" font-size="14.00">samples = 45</text>
<text text-anchor="middle" x="1393" y="-141.8" font-family="Times,serif" font-size="14.00">value = [62.187, 19.94]</text>
<text text-anchor="middle" x="1393" y="-126.8" font-family="Times,serif" font-size="14.00">class = Non&#45;obstructive</text>
</g>
<!-- 16&#45;&gt;17 -->
<g id="edge17" class="edge">
<title>16&#45;&gt;17</title>
<path fill="none" stroke="black" d="M1393,-252.97C1393,-244.69 1393,-236 1393,-227.48"/>
<polygon fill="black" stroke="black" points="1396.5,-227.21 1393,-217.21 1389.5,-227.21 1396.5,-227.21"/>
</g>
<!-- 20 -->
<g id="node21" class="node">
<title>20</title>
<polygon fill="none" stroke="black" points="1787,-217 1611,-217 1611,-119 1787,-119 1787,-217"/>
<text text-anchor="middle" x="1699" y="-201.8" font-family="Times,serif" font-size="14.00">node #20</text>
<text text-anchor="middle" x="1699" y="-186.8" font-family="Times,serif" font-size="14.00">FVCPostVal &lt;= 4.505</text>
<text text-anchor="middle" x="1699" y="-171.8" font-family="Times,serif" font-size="14.00">gini = 0.376</text>
<text text-anchor="middle" x="1699" y="-156.8" font-family="Times,serif" font-size="14.00">samples = 9</text>
<text text-anchor="middle" x="1699" y="-141.8" font-family="Times,serif" font-size="14.00">value = [3.009, 8.973]</text>
<text text-anchor="middle" x="1699" y="-126.8" font-family="Times,serif" font-size="14.00">class = Obstructive</text>
</g>
<!-- 16&#45;&gt;20 -->
<g id="edge20" class="edge">
<title>16&#45;&gt;20</title>
<path fill="none" stroke="black" d="M1490.24,-259.05C1525.74,-243.74 1565.89,-226.42 1601.42,-211.09"/>
<polygon fill="black" stroke="black" points="1603.03,-214.21 1610.83,-207.03 1600.26,-207.78 1603.03,-214.21"/>
</g>
<!-- 18 -->
<g id="node19" class="node">
<title>18</title>
<polygon fill="none" stroke="black" points="1387,-83 1193,-83 1193,0 1387,0 1387,-83"/>
<text text-anchor="middle" x="1290" y="-67.8" font-family="Times,serif" font-size="14.00">node #18</text>
<text text-anchor="middle" x="1290" y="-52.8" font-family="Times,serif" font-size="14.00">gini = 0.481</text>
<text text-anchor="middle" x="1290" y="-37.8" font-family="Times,serif" font-size="14.00">samples = 26</text>
<text text-anchor="middle" x="1290" y="-22.8" font-family="Times,serif" font-size="14.00">value = [25.075, 16.949]</text>
<text text-anchor="middle" x="1290" y="-7.8" font-family="Times,serif" font-size="14.00">class = Non&#45;obstructive</text>
</g>
<!-- 17&#45;&gt;18 -->
<g id="edge18" class="edge">
<title>17&#45;&gt;18</title>
<path fill="none" stroke="black" d="M1353.18,-118.87C1345.65,-109.76 1337.76,-100.23 1330.22,-91.12"/>
<polygon fill="black" stroke="black" points="1332.77,-88.7 1323.7,-83.23 1327.37,-93.17 1332.77,-88.7"/>
</g>
<!-- 19 -->
<g id="node20" class="node">
<title>19</title>
<polygon fill="none" stroke="black" points="1593,-83 1405,-83 1405,0 1593,0 1593,-83"/>
<text text-anchor="middle" x="1499" y="-67.8" font-family="Times,serif" font-size="14.00">node #19</text>
<text text-anchor="middle" x="1499" y="-52.8" font-family="Times,serif" font-size="14.00">gini = 0.138</text>
<text text-anchor="middle" x="1499" y="-37.8" font-family="Times,serif" font-size="14.00">samples = 19</text>
<text text-anchor="middle" x="1499" y="-22.8" font-family="Times,serif" font-size="14.00">value = [37.111, 2.991]</text>
<text text-anchor="middle" x="1499" y="-7.8" font-family="Times,serif" font-size="14.00">class = Non&#45;obstructive</text>
</g>
<!-- 17&#45;&gt;19 -->
<g id="edge19" class="edge">
<title>17&#45;&gt;19</title>
<path fill="none" stroke="black" d="M1433.98,-118.87C1441.73,-109.76 1449.84,-100.23 1457.61,-91.12"/>
<polygon fill="black" stroke="black" points="1460.5,-93.11 1464.32,-83.23 1455.17,-88.58 1460.5,-93.11"/>
</g>
<!-- 21 -->
<g id="node22" class="node">
<title>21</title>
<polygon fill="none" stroke="black" points="1787,-83 1611,-83 1611,0 1787,0 1787,-83"/>
<text text-anchor="middle" x="1699" y="-67.8" font-family="Times,serif" font-size="14.00">node #21</text>
<text text-anchor="middle" x="1699" y="-52.8" font-family="Times,serif" font-size="14.00">gini = 0.299</text>
<text text-anchor="middle" x="1699" y="-37.8" font-family="Times,serif" font-size="14.00">samples = 8</text>
<text text-anchor="middle" x="1699" y="-22.8" font-family="Times,serif" font-size="14.00">value = [2.006, 8.973]</text>
<text text-anchor="middle" x="1699" y="-7.8" font-family="Times,serif" font-size="14.00">class = Obstructive</text>
</g>
<!-- 20&#45;&gt;21 -->
<g id="edge21" class="edge">
<title>20&#45;&gt;21</title>
<path fill="none" stroke="black" d="M1699,-118.87C1699,-110.5 1699,-101.77 1699,-93.33"/>
<polygon fill="black" stroke="black" points="1702.5,-93.23 1699,-83.23 1695.5,-93.23 1702.5,-93.23"/>
</g>
<!-- 22 -->
<g id="node23" class="node">
<title>22</title>
<polygon fill="none" stroke="black" points="1993,-83 1805,-83 1805,0 1993,0 1993,-83"/>
<text text-anchor="middle" x="1899" y="-67.8" font-family="Times,serif" font-size="14.00">node #22</text>
<text text-anchor="middle" x="1899" y="-52.8" font-family="Times,serif" font-size="14.00">gini = &#45;0.0</text>
<text text-anchor="middle" x="1899" y="-37.8" font-family="Times,serif" font-size="14.00">samples = 1</text>
<text text-anchor="middle" x="1899" y="-22.8" font-family="Times,serif" font-size="14.00">value = [1.003, 0.0]</text>
<text text-anchor="middle" x="1899" y="-7.8" font-family="Times,serif" font-size="14.00">class = Non&#45;obstructive</text>
</g>
<!-- 20&#45;&gt;22 -->
<g id="edge22" class="edge">
<title>20&#45;&gt;22</title>
<path fill="none" stroke="black" d="M1776.33,-118.87C1792.37,-108.88 1809.24,-98.38 1825.15,-88.47"/>
<polygon fill="black" stroke="black" points="1827.25,-91.29 1833.89,-83.03 1823.55,-85.35 1827.25,-91.29"/>
</g>
</g>
</svg>
