<?xml version="1.0" encoding="UTF-8" standalone="no"?>
<!DOCTYPE svg PUBLIC "-//W3C//DTD SVG 1.1//EN"
 "http://www.w3.org/Graphics/SVG/1.1/DTD/svg11.dtd">
<!-- Generated by graphviz version 2.43.0 (0)
 -->
<!-- Title: Tree Pages: 1 -->
<svg width="2000pt" height="627pt"
 viewBox="0.00 0.00 2000.00 627.00" xmlns="http://www.w3.org/2000/svg" xmlns:xlink="http://www.w3.org/1999/xlink">
<g id="graph0" class="graph" transform="scale(1 1) rotate(0) translate(4 623)">
<title>Tree</title>
<polygon fill="white" stroke="transparent" points="-4,4 -4,-623 1996,-623 1996,4 -4,4"/>
<!-- 0 -->
<g id="node1" class="node">
<title>0</title>
<polygon fill="none" stroke="black" points="860,-619 672,-619 672,-521 860,-521 860,-619"/>
<text text-anchor="middle" x="766" y="-603.8" font-family="Times,serif" font-size="14.00">node #0</text>
<text text-anchor="middle" x="766" y="-588.8" font-family="Times,serif" font-size="14.00">FEFPreVal &lt;= 1.315</text>
<text text-anchor="middle" x="766" y="-573.8" font-family="Times,serif" font-size="14.00">gini = 0.5</text>
<text text-anchor="middle" x="766" y="-558.8" font-family="Times,serif" font-size="14.00">samples = 211</text>
<text text-anchor="middle" x="766" y="-543.8" font-family="Times,serif" font-size="14.00">value = [166.5, 166.5]</text>
<text text-anchor="middle" x="766" y="-528.8" font-family="Times,serif" font-size="14.00">class = Non&#45;obstructive</text>
</g>
<!-- 1 -->
<g id="node2" class="node">
<title>1</title>
<polygon fill="none" stroke="black" points="671.5,-485 468.5,-485 468.5,-387 671.5,-387 671.5,-485"/>
<text text-anchor="middle" x="570" y="-469.8" font-family="Times,serif" font-size="14.00">node #1</text>
<text text-anchor="middle" x="570" y="-454.8" font-family="Times,serif" font-size="14.00">FVCPostPercent &lt;= 46.5</text>
<text text-anchor="middle" x="570" y="-439.8" font-family="Times,serif" font-size="14.00">gini = 0.332</text>
<text text-anchor="middle" x="570" y="-424.8" font-family="Times,serif" font-size="14.00">samples = 90</text>
<text text-anchor="middle" x="570" y="-409.8" font-family="Times,serif" font-size="14.00">value = [30.621, 115.189]</text>
<text text-anchor="middle" x="570" y="-394.8" font-family="Times,serif" font-size="14.00">class = Obstructive</text>
</g>
<!-- 0&#45;&gt;1 -->
<g id="edge1" class="edge">
<title>0&#45;&gt;1</title>
<path fill="none" stroke="black" d="M694.69,-520.97C680.23,-511.24 664.93,-500.93 650.19,-491.01"/>
<polygon fill="black" stroke="black" points="651.84,-487.9 641.59,-485.21 647.93,-493.7 651.84,-487.9"/>
<text text-anchor="middle" x="646.38" y="-506.05" font-family="Times,serif" font-size="14.00">True</text>
</g>
<!-- 10 -->
<g id="node11" class="node">
<title>10</title>
<polygon fill="none" stroke="black" points="1081.5,-485 878.5,-485 878.5,-387 1081.5,-387 1081.5,-485"/>
<text text-anchor="middle" x="980" y="-469.8" font-family="Times,serif" font-size="14.00">node #10</text>
<text text-anchor="middle" x="980" y="-454.8" font-family="Times,serif" font-size="14.00">FEV1PreVal &lt;= 1.725</text>
<text text-anchor="middle" x="980" y="-439.8" font-family="Times,serif" font-size="14.00">gini = 0.398</text>
<text text-anchor="middle" x="980" y="-424.8" font-family="Times,serif" font-size="14.00">samples = 121</text>
<text text-anchor="middle" x="980" y="-409.8" font-family="Times,serif" font-size="14.00">value = [135.879, 51.311]</text>
<text text-anchor="middle" x="980" y="-394.8" font-family="Times,serif" font-size="14.00">class = Non&#45;obstructive</text>
</g>
<!-- 0&#45;&gt;10 -->
<g id="edge10" class="edge">
<title>0&#45;&gt;10</title>
<path fill="none" stroke="black" d="M843.86,-520.97C859.8,-511.14 876.66,-500.74 892.89,-490.73"/>
<polygon fill="black" stroke="black" points="895.16,-493.44 901.84,-485.21 891.49,-487.48 895.16,-493.44"/>
<text text-anchor="middle" x="896.07" y="-505.84" font-family="Times,serif" font-size="14.00">False</text>
</g>
<!-- 2 -->
<g id="node3" class="node">
<title>2</title>
<polygon fill="none" stroke="black" points="368.5,-351 171.5,-351 171.5,-253 368.5,-253 368.5,-351"/>
<text text-anchor="middle" x="270" y="-335.8" font-family="Times,serif" font-size="14.00">node #2</text>
<text text-anchor="middle" x="270" y="-320.8" font-family="Times,serif" font-size="14.00">FEFPostPercent &lt;= 19.5</text>
<text text-anchor="middle" x="270" y="-305.8" font-family="Times,serif" font-size="14.00">gini = 0.392</text>
<text text-anchor="middle" x="270" y="-290.8" font-family="Times,serif" font-size="14.00">samples = 10</text>
<text text-anchor="middle" x="270" y="-275.8" font-family="Times,serif" font-size="14.00">value = [11.483, 4.189]</text>
<text text-anchor="middle" x="270" y="-260.8" font-family="Times,serif" font-size="14.00">class = Non&#45;obstructive</text>
</g>
<!-- 1&#45;&gt;2 -->
<g id="edge2" class="edge">
<title>1&#45;&gt;2</title>
<path fill="none" stroke="black" d="M468.43,-390.31C439.37,-377.52 407.58,-363.54 378.14,-350.58"/>
<polygon fill="black" stroke="black" points="379.23,-347.24 368.67,-346.41 376.41,-353.64 379.23,-347.24"/>
</g>
<!-- 5 -->
<g id="node6" class="node">
<title>5</title>
<polygon fill="none" stroke="black" points="668.5,-351 471.5,-351 471.5,-253 668.5,-253 668.5,-351"/>
<text text-anchor="middle" x="570" y="-335.8" font-family="Times,serif" font-size="14.00">node #5</text>
<text text-anchor="middle" x="570" y="-320.8" font-family="Times,serif" font-size="14.00">FEFPostPercent &lt;= 23.5</text>
<text text-anchor="middle" x="570" y="-305.8" font-family="Times,serif" font-size="14.00">gini = 0.251</text>
<text text-anchor="middle" x="570" y="-290.8" font-family="Times,serif" font-size="14.00">samples = 80</text>
<text text-anchor="middle" x="570" y="-275.8" font-family="Times,serif" font-size="14.00">value = [19.138, 111.0]</text>
<text text-anchor="middle" x="570" y="-260.8" font-family="Times,serif" font-size="14.00">class = Obstructive</text>
</g>
<!-- 1&#45;&gt;5 -->
<g id="edge5" class="edge">
<title>1&#45;&gt;5</title>
<path fill="none" stroke="black" d="M570,-386.97C570,-378.69 570,-370 570,-361.48"/>
<polygon fill="black" stroke="black" points="573.5,-361.21 570,-351.21 566.5,-361.21 573.5,-361.21"/>
</g>
<!-- 3 -->
<g id="node4" class="node">
<title>3</title>
<polygon fill="none" stroke="black" points="158,-209.5 0,-209.5 0,-126.5 158,-126.5 158,-209.5"/>
<text text-anchor="middle" x="79" y="-194.3" font-family="Times,serif" font-size="14.00">node #3</text>
<text text-anchor="middle" x="79" y="-179.3" font-family="Times,serif" font-size="14.00">gini = 0.0</text>
<text text-anchor="middle" x="79" y="-164.3" font-family="Times,serif" font-size="14.00">samples = 4</text>
<text text-anchor="middle" x="79" y="-149.3" font-family="Times,serif" font-size="14.00">value = [0.0, 4.189]</text>
<text text-anchor="middle" x="79" y="-134.3" font-family="Times,serif" font-size="14.00">class = Obstructive</text>
</g>
<!-- 2&#45;&gt;3 -->
<g id="edge3" class="edge">
<title>2&#45;&gt;3</title>
<path fill="none" stroke="black" d="M200.5,-252.97C182.81,-240.75 163.83,-227.63 146.26,-215.48"/>
<polygon fill="black" stroke="black" points="147.97,-212.41 137.75,-209.6 143.99,-218.17 147.97,-212.41"/>
</g>
<!-- 4 -->
<g id="node5" class="node">
<title>4</title>
<polygon fill="none" stroke="black" points="364,-209.5 176,-209.5 176,-126.5 364,-126.5 364,-209.5"/>
<text text-anchor="middle" x="270" y="-194.3" font-family="Times,serif" font-size="14.00">node #4</text>
<text text-anchor="middle" x="270" y="-179.3" font-family="Times,serif" font-size="14.00">gini = 0.0</text>
<text text-anchor="middle" x="270" y="-164.3" font-family="Times,serif" font-size="14.00">samples = 6</text>
<text text-anchor="middle" x="270" y="-149.3" font-family="Times,serif" font-size="14.00">value = [11.483, 0.0]</text>
<text text-anchor="middle" x="270" y="-134.3" font-family="Times,serif" font-size="14.00">class = Non&#45;obstructive</text>
</g>
<!-- 2&#45;&gt;4 -->
<g id="edge4" class="edge">
<title>2&#45;&gt;4</title>
<path fill="none" stroke="black" d="M270,-252.97C270,-242.25 270,-230.84 270,-219.99"/>
<polygon fill="black" stroke="black" points="273.5,-219.82 270,-209.82 266.5,-219.82 273.5,-219.82"/>
</g>
<!-- 6 -->
<g id="node7" class="node">
<title>6</title>
<polygon fill="none" stroke="black" points="549.5,-209.5 382.5,-209.5 382.5,-126.5 549.5,-126.5 549.5,-209.5"/>
<text text-anchor="middle" x="466" y="-194.3" font-family="Times,serif" font-size="14.00">node #6</text>
<text text-anchor="middle" x="466" y="-179.3" font-family="Times,serif" font-size="14.00">gini = 0.0</text>
<text text-anchor="middle" x="466" y="-164.3" font-family="Times,serif" font-size="14.00">samples = 36</text>
<text text-anchor="middle" x="466" y="-149.3" font-family="Times,serif" font-size="14.00">value = [0.0, 56.547]</text>
<text text-anchor="middle" x="466" y="-134.3" font-family="Times,serif" font-size="14.00">class = Obstructive</text>
</g>
<!-- 5&#45;&gt;6 -->
<g id="edge6" class="edge">
<title>5&#45;&gt;6</title>
<path fill="none" stroke="black" d="M532.16,-252.97C523.19,-241.58 513.6,-229.42 504.6,-217.99"/>
<polygon fill="black" stroke="black" points="507.1,-215.51 498.16,-209.82 501.6,-219.84 507.1,-215.51"/>
</g>
<!-- 7 -->
<g id="node8" class="node">
<title>7</title>
<polygon fill="none" stroke="black" points="764.5,-217 567.5,-217 567.5,-119 764.5,-119 764.5,-217"/>
<text text-anchor="middle" x="666" y="-201.8" font-family="Times,serif" font-size="14.00">node #7</text>
<text text-anchor="middle" x="666" y="-186.8" font-family="Times,serif" font-size="14.00">FVCPostPercent &lt;= 70.5</text>
<text text-anchor="middle" x="666" y="-171.8" font-family="Times,serif" font-size="14.00">gini = 0.385</text>
<text text-anchor="middle" x="666" y="-156.8" font-family="Times,serif" font-size="14.00">samples = 44</text>
<text text-anchor="middle" x="666" y="-141.8" font-family="Times,serif" font-size="14.00">value = [19.138, 54.453]</text>
<text text-anchor="middle" x="666" y="-126.8" font-family="Times,serif" font-size="14.00">class = Obstructive</text>
</g>
<!-- 5&#45;&gt;7 -->
<g id="edge7" class="edge">
<title>5&#45;&gt;7</title>
<path fill="none" stroke="black" d="M604.93,-252.97C611.42,-244.05 618.24,-234.66 624.89,-225.52"/>
<polygon fill="black" stroke="black" points="627.88,-227.36 630.94,-217.21 622.22,-223.24 627.88,-227.36"/>
</g>
<!-- 8 -->
<g id="node9" class="node">
<title>8</title>
<polygon fill="none" stroke="black" points="574,-83 380,-83 380,0 574,0 574,-83"/>
<text text-anchor="middle" x="477" y="-67.8" font-family="Times,serif" font-size="14.00">node #8</text>
<text text-anchor="middle" x="477" y="-52.8" font-family="Times,serif" font-size="14.00">gini = 0.494</text>
<text text-anchor="middle" x="477" y="-37.8" font-family="Times,serif" font-size="14.00">samples = 16</text>
<text text-anchor="middle" x="477" y="-22.8" font-family="Times,serif" font-size="14.00">value = [14.353, 11.519]</text>
<text text-anchor="middle" x="477" y="-7.8" font-family="Times,serif" font-size="14.00">class = Non&#45;obstructive</text>
</g>
<!-- 7&#45;&gt;8 -->
<g id="edge8" class="edge">
<title>7&#45;&gt;8</title>
<path fill="none" stroke="black" d="M592.93,-118.87C577.91,-108.97 562.12,-98.57 547.2,-88.74"/>
<polygon fill="black" stroke="black" points="548.81,-85.61 538.53,-83.03 544.96,-91.46 548.81,-85.61"/>
</g>
<!-- 9 -->
<g id="node10" class="node">
<title>9</title>
<polygon fill="none" stroke="black" points="776.5,-83 591.5,-83 591.5,0 776.5,0 776.5,-83"/>
<text text-anchor="middle" x="684" y="-67.8" font-family="Times,serif" font-size="14.00">node #9</text>
<text text-anchor="middle" x="684" y="-52.8" font-family="Times,serif" font-size="14.00">gini = 0.18</text>
<text text-anchor="middle" x="684" y="-37.8" font-family="Times,serif" font-size="14.00">samples = 28</text>
<text text-anchor="middle" x="684" y="-22.8" font-family="Times,serif" font-size="14.00">value = [4.784, 42.934]</text>
<text text-anchor="middle" x="684" y="-7.8" font-family="Times,serif" font-size="14.00">class = Obstructive</text>
</g>
<!-- 7&#45;&gt;9 -->
<g id="edge9" class="edge">
<title>7&#45;&gt;9</title>
<path fill="none" stroke="black" d="M672.96,-118.87C674.17,-110.5 675.43,-101.77 676.65,-93.33"/>
<polygon fill="black" stroke="black" points="680.14,-93.63 678.11,-83.23 673.22,-92.63 680.14,-93.63"/>
</g>
<!-- 11 -->
<g id="node12" class="node">
<title>11</title>
<polygon fill="none" stroke="black" points="1074,-351 886,-351 886,-253 1074,-253 1074,-351"/>
<text text-anchor="middle" x="980" y="-335.8" font-family="Times,serif" font-size="14.00">node #11</text>
<text text-anchor="middle" x="980" y="-320.8" font-family="Times,serif" font-size="14.00">FVCPostVal &lt;= 2.235</text>
<text text-anchor="middle" x="980" y="-305.8" font-family="Times,serif" font-size="14.00">gini = 0.026</text>
<text text-anchor="middle" x="980" y="-290.8" font-family="Times,serif" font-size="14.00">samples = 57</text>
<text text-anchor="middle" x="980" y="-275.8" font-family="Times,serif" font-size="14.00">value = [79.422, 1.047]</text>
<text text-anchor="middle" x="980" y="-260.8" font-family="Times,serif" font-size="14.00">class = Non&#45;obstructive</text>
</g>
<!-- 10&#45;&gt;11 -->
<g id="edge11" class="edge">
<title>10&#45;&gt;11</title>
<path fill="none" stroke="black" d="M980,-386.97C980,-378.69 980,-370 980,-361.48"/>
<polygon fill="black" stroke="black" points="983.5,-361.21 980,-351.21 976.5,-361.21 983.5,-361.21"/>
</g>
<!-- 16 -->
<g id="node17" class="node">
<title>16</title>
<polygon fill="none" stroke="black" points="1472,-351 1278,-351 1278,-253 1472,-253 1472,-351"/>
<text text-anchor="middle" x="1375" y="-335.8" font-family="Times,serif" font-size="14.00">node #16</text>
<text text-anchor="middle" x="1375" y="-320.8" font-family="Times,serif" font-size="14.00">FEFPrePercent &lt;= 56.5</text>
<text text-anchor="middle" x="1375" y="-305.8" font-family="Times,serif" font-size="14.00">gini = 0.498</text>
<text text-anchor="middle" x="1375" y="-290.8" font-family="Times,serif" font-size="14.00">samples = 64</text>
<text text-anchor="middle" x="1375" y="-275.8" font-family="Times,serif" font-size="14.00">value = [56.457, 50.264]</text>
<text text-anchor="middle" x="1375" y="-260.8" font-family="Times,serif" font-size="14.00">class = Non&#45;obstructive</text>
</g>
<!-- 10&#45;&gt;16 -->
<g id="edge16" class="edge">
<title>10&#45;&gt;16</title>
<path fill="none" stroke="black" d="M1081.72,-401.01C1138.89,-381.9 1210.18,-358.08 1268.15,-338.71"/>
<polygon fill="black" stroke="black" points="1269.33,-342 1277.71,-335.51 1267.11,-335.36 1269.33,-342"/>
</g>
<!-- 12 -->
<g id="node13" class="node">
<title>12</title>
<polygon fill="none" stroke="black" points="971,-209.5 783,-209.5 783,-126.5 971,-126.5 971,-209.5"/>
<text text-anchor="middle" x="877" y="-194.3" font-family="Times,serif" font-size="14.00">node #12</text>
<text text-anchor="middle" x="877" y="-179.3" font-family="Times,serif" font-size="14.00">gini = &#45;0.0</text>
<text text-anchor="middle" x="877" y="-164.3" font-family="Times,serif" font-size="14.00">samples = 54</text>
<text text-anchor="middle" x="877" y="-149.3" font-family="Times,serif" font-size="14.00">value = [77.509, 0.0]</text>
<text text-anchor="middle" x="877" y="-134.3" font-family="Times,serif" font-size="14.00">class = Non&#45;obstructive</text>
</g>
<!-- 11&#45;&gt;12 -->
<g id="edge12" class="edge">
<title>11&#45;&gt;12</title>
<path fill="none" stroke="black" d="M942.52,-252.97C933.64,-241.58 924.15,-229.42 915.23,-217.99"/>
<polygon fill="black" stroke="black" points="917.76,-215.55 908.85,-209.82 912.24,-219.85 917.76,-215.55"/>
</g>
<!-- 13 -->
<g id="node14" class="node">
<title>13</title>
<polygon fill="none" stroke="black" points="1177,-217 989,-217 989,-119 1177,-119 1177,-217"/>
<text text-anchor="middle" x="1083" y="-201.8" font-family="Times,serif" font-size="14.00">node #13</text>
<text text-anchor="middle" x="1083" y="-186.8" font-family="Times,serif" font-size="14.00">FVCPostVal &lt;= 2.305</text>
<text text-anchor="middle" x="1083" y="-171.8" font-family="Times,serif" font-size="14.00">gini = 0.457</text>
<text text-anchor="middle" x="1083" y="-156.8" font-family="Times,serif" font-size="14.00">samples = 3</text>
<text text-anchor="middle" x="1083" y="-141.8" font-family="Times,serif" font-size="14.00">value = [1.914, 1.047]</text>
<text text-anchor="middle" x="1083" y="-126.8" font-family="Times,serif" font-size="14.00">class = Non&#45;obstructive</text>
</g>
<!-- 11&#45;&gt;13 -->
<g id="edge13" class="edge">
<title>11&#45;&gt;13</title>
<path fill="none" stroke="black" d="M1017.48,-252.97C1024.51,-243.96 1031.91,-234.47 1039.12,-225.24"/>
<polygon fill="black" stroke="black" points="1041.99,-227.25 1045.38,-217.21 1036.47,-222.94 1041.99,-227.25"/>
</g>
<!-- 14 -->
<g id="node15" class="node">
<title>14</title>
<polygon fill="none" stroke="black" points="971,-83 813,-83 813,0 971,0 971,-83"/>
<text text-anchor="middle" x="892" y="-67.8" font-family="Times,serif" font-size="14.00">node #14</text>
<text text-anchor="middle" x="892" y="-52.8" font-family="Times,serif" font-size="14.00">gini = 0.0</text>
<text text-anchor="middle" x="892" y="-37.8" font-family="Times,serif" font-size="14.00">samples = 1</text>
<text text-anchor="middle" x="892" y="-22.8" font-family="Times,serif" font-size="14.00">value = [0.0, 1.047]</text>
<text text-anchor="middle" x="892" y="-7.8" font-family="Times,serif" font-size="14.00">class = Obstructive</text>
</g>
<!-- 13&#45;&gt;14 -->
<g id="edge14" class="edge">
<title>13&#45;&gt;14</title>
<path fill="none" stroke="black" d="M1009.15,-118.87C993.97,-108.97 978.02,-98.57 962.95,-88.74"/>
<polygon fill="black" stroke="black" points="964.47,-85.56 954.18,-83.03 960.65,-91.43 964.47,-85.56"/>
</g>
<!-- 15 -->
<g id="node16" class="node">
<title>15</title>
<polygon fill="none" stroke="black" points="1177,-83 989,-83 989,0 1177,0 1177,-83"/>
<text text-anchor="middle" x="1083" y="-67.8" font-family="Times,serif" font-size="14.00">node #15</text>
<text text-anchor="middle" x="1083" y="-52.8" font-family="Times,serif" font-size="14.00">gini = 0.0</text>
<text text-anchor="middle" x="1083" y="-37.8" font-family="Times,serif" font-size="14.00">samples = 2</text>
<text text-anchor="middle" x="1083" y="-22.8" font-family="Times,serif" font-size="14.00">value = [1.914, 0.0]</text>
<text text-anchor="middle" x="1083" y="-7.8" font-family="Times,serif" font-size="14.00">class = Non&#45;obstructive</text>
</g>
<!-- 13&#45;&gt;15 -->
<g id="edge15" class="edge">
<title>13&#45;&gt;15</title>
<path fill="none" stroke="black" d="M1083,-118.87C1083,-110.5 1083,-101.77 1083,-93.33"/>
<polygon fill="black" stroke="black" points="1086.5,-93.23 1083,-83.23 1079.5,-93.23 1086.5,-93.23"/>
</g>
<!-- 17 -->
<g id="node18" class="node">
<title>17</title>
<polygon fill="none" stroke="black" points="1475,-217 1275,-217 1275,-119 1475,-119 1475,-217"/>
<text text-anchor="middle" x="1375" y="-201.8" font-family="Times,serif" font-size="14.00">node #17</text>
<text text-anchor="middle" x="1375" y="-186.8" font-family="Times,serif" font-size="14.00">FEV1PrePercent &lt;= 82.0</text>
<text text-anchor="middle" x="1375" y="-171.8" font-family="Times,serif" font-size="14.00">gini = 0.136</text>
<text text-anchor="middle" x="1375" y="-156.8" font-family="Times,serif" font-size="14.00">samples = 16</text>
<text text-anchor="middle" x="1375" y="-141.8" font-family="Times,serif" font-size="14.00">value = [1.914, 24.085]</text>
<text text-anchor="middle" x="1375" y="-126.8" font-family="Times,serif" font-size="14.00">class = Obstructive</text>
</g>
<!-- 16&#45;&gt;17 -->
<g id="edge17" class="edge">
<title>16&#45;&gt;17</title>
<path fill="none" stroke="black" d="M1375,-252.97C1375,-244.69 1375,-236 1375,-227.48"/>
<polygon fill="black" stroke="black" points="1378.5,-227.21 1375,-217.21 1371.5,-227.21 1378.5,-227.21"/>
</g>
<!-- 20 -->
<g id="node21" class="node">
<title>20</title>
<polygon fill="none" stroke="black" points="1798,-217 1574,-217 1574,-119 1798,-119 1798,-217"/>
<text text-anchor="middle" x="1686" y="-201.8" font-family="Times,serif" font-size="14.00">node #20</text>
<text text-anchor="middle" x="1686" y="-186.8" font-family="Times,serif" font-size="14.00">FEV1PostPercent &lt;= 71.455</text>
<text text-anchor="middle" x="1686" y="-171.8" font-family="Times,serif" font-size="14.00">gini = 0.438</text>
<text text-anchor="middle" x="1686" y="-156.8" font-family="Times,serif" font-size="14.00">samples = 48</text>
<text text-anchor="middle" x="1686" y="-141.8" font-family="Times,serif" font-size="14.00">value = [54.543, 26.179]</text>
<text text-anchor="middle" x="1686" y="-126.8" font-family="Times,serif" font-size="14.00">class = Non&#45;obstructive</text>
</g>
<!-- 16&#45;&gt;20 -->
<g id="edge20" class="edge">
<title>16&#45;&gt;20</title>
<path fill="none" stroke="black" d="M1472.12,-259.78C1501.36,-247.37 1533.81,-233.59 1564.42,-220.6"/>
<polygon fill="black" stroke="black" points="1566.02,-223.73 1573.86,-216.6 1563.29,-217.28 1566.02,-223.73"/>
</g>
<!-- 18 -->
<g id="node19" class="node">
<title>18</title>
<polygon fill="none" stroke="black" points="1380.5,-83 1195.5,-83 1195.5,0 1380.5,0 1380.5,-83"/>
<text text-anchor="middle" x="1288" y="-67.8" font-family="Times,serif" font-size="14.00">node #18</text>
<text text-anchor="middle" x="1288" y="-52.8" font-family="Times,serif" font-size="14.00">gini = 0.08</text>
<text text-anchor="middle" x="1288" y="-37.8" font-family="Times,serif" font-size="14.00">samples = 14</text>
<text text-anchor="middle" x="1288" y="-22.8" font-family="Times,serif" font-size="14.00">value = [0.957, 21.991]</text>
<text text-anchor="middle" x="1288" y="-7.8" font-family="Times,serif" font-size="14.00">class = Obstructive</text>
</g>
<!-- 17&#45;&gt;18 -->
<g id="edge18" class="edge">
<title>17&#45;&gt;18</title>
<path fill="none" stroke="black" d="M1341.36,-118.87C1335.13,-109.95 1328.61,-100.62 1322.36,-91.67"/>
<polygon fill="black" stroke="black" points="1325.06,-89.42 1316.46,-83.23 1319.32,-93.43 1325.06,-89.42"/>
</g>
<!-- 19 -->
<g id="node20" class="node">
<title>19</title>
<polygon fill="none" stroke="black" points="1574,-83 1398,-83 1398,0 1574,0 1574,-83"/>
<text text-anchor="middle" x="1486" y="-67.8" font-family="Times,serif" font-size="14.00">node #19</text>
<text text-anchor="middle" x="1486" y="-52.8" font-family="Times,serif" font-size="14.00">gini = 0.431</text>
<text text-anchor="middle" x="1486" y="-37.8" font-family="Times,serif" font-size="14.00">samples = 2</text>
<text text-anchor="middle" x="1486" y="-22.8" font-family="Times,serif" font-size="14.00">value = [0.957, 2.094]</text>
<text text-anchor="middle" x="1486" y="-7.8" font-family="Times,serif" font-size="14.00">class = Obstructive</text>
</g>
<!-- 17&#45;&gt;19 -->
<g id="edge19" class="edge">
<title>17&#45;&gt;19</title>
<path fill="none" stroke="black" d="M1417.92,-118.87C1426.11,-109.67 1434.7,-100.04 1442.9,-90.84"/>
<polygon fill="black" stroke="black" points="1445.64,-93.02 1449.69,-83.23 1440.42,-88.37 1445.64,-93.02"/>
</g>
<!-- 21 -->
<g id="node22" class="node">
<title>21</title>
<polygon fill="none" stroke="black" points="1780,-83 1592,-83 1592,0 1780,0 1780,-83"/>
<text text-anchor="middle" x="1686" y="-67.8" font-family="Times,serif" font-size="14.00">node #21</text>
<text text-anchor="middle" x="1686" y="-52.8" font-family="Times,serif" font-size="14.00">gini = 0.148</text>
<text text-anchor="middle" x="1686" y="-37.8" font-family="Times,serif" font-size="14.00">samples = 14</text>
<text text-anchor="middle" x="1686" y="-22.8" font-family="Times,serif" font-size="14.00">value = [23.922, 2.094]</text>
<text text-anchor="middle" x="1686" y="-7.8" font-family="Times,serif" font-size="14.00">class = Non&#45;obstructive</text>
</g>
<!-- 20&#45;&gt;21 -->
<g id="edge21" class="edge">
<title>20&#45;&gt;21</title>
<path fill="none" stroke="black" d="M1686,-118.87C1686,-110.5 1686,-101.77 1686,-93.33"/>
<polygon fill="black" stroke="black" points="1689.5,-93.23 1686,-83.23 1682.5,-93.23 1689.5,-93.23"/>
</g>
<!-- 22 -->
<g id="node23" class="node">
<title>22</title>
<polygon fill="none" stroke="black" points="1992,-83 1798,-83 1798,0 1992,0 1992,-83"/>
<text text-anchor="middle" x="1895" y="-67.8" font-family="Times,serif" font-size="14.00">node #22</text>
<text text-anchor="middle" x="1895" y="-52.8" font-family="Times,serif" font-size="14.00">gini = 0.493</text>
<text text-anchor="middle" x="1895" y="-37.8" font-family="Times,serif" font-size="14.00">samples = 34</text>
<text text-anchor="middle" x="1895" y="-22.8" font-family="Times,serif" font-size="14.00">value = [30.621, 24.085]</text>
<text text-anchor="middle" x="1895" y="-7.8" font-family="Times,serif" font-size="14.00">class = Non&#45;obstructive</text>
</g>
<!-- 20&#45;&gt;22 -->
<g id="edge22" class="edge">
<title>20&#45;&gt;22</title>
<path fill="none" stroke="black" d="M1766.8,-118.87C1783.73,-108.78 1801.52,-98.18 1818.29,-88.19"/>
<polygon fill="black" stroke="black" points="1820.16,-91.16 1826.96,-83.03 1816.58,-85.14 1820.16,-91.16"/>
</g>
</g>
</svg>
