<?xml version="1.0" encoding="UTF-8" standalone="no"?>
<!DOCTYPE svg PUBLIC "-//W3C//DTD SVG 1.1//EN"
 "http://www.w3.org/Graphics/SVG/1.1/DTD/svg11.dtd">
<!-- Generated by graphviz version 2.43.0 (0)
 -->
<!-- Title: Tree Pages: 1 -->
<svg width="2004pt" height="627pt"
 viewBox="0.00 0.00 2004.00 627.00" xmlns="http://www.w3.org/2000/svg" xmlns:xlink="http://www.w3.org/1999/xlink">
<g id="graph0" class="graph" transform="scale(1 1) rotate(0) translate(4 623)">
<title>Tree</title>
<polygon fill="white" stroke="transparent" points="-4,4 -4,-623 2000,-623 2000,4 -4,4"/>
<!-- 0 -->
<g id="node1" class="node">
<title>0</title>
<polygon fill="none" stroke="black" points="994,-619 818,-619 818,-521 994,-521 994,-619"/>
<text text-anchor="middle" x="906" y="-603.8" font-family="Times,serif" font-size="14.00">node #0</text>
<text text-anchor="middle" x="906" y="-588.8" font-family="Times,serif" font-size="14.00">FEFPostVal &lt;= 1.3</text>
<text text-anchor="middle" x="906" y="-573.8" font-family="Times,serif" font-size="14.00">gini = 0.5</text>
<text text-anchor="middle" x="906" y="-558.8" font-family="Times,serif" font-size="14.00">samples = 207</text>
<text text-anchor="middle" x="906" y="-543.8" font-family="Times,serif" font-size="14.00">value = [166.5, 166.5]</text>
<text text-anchor="middle" x="906" y="-528.8" font-family="Times,serif" font-size="14.00">class = Obstructive</text>
</g>
<!-- 1 -->
<g id="node2" class="node">
<title>1</title>
<polygon fill="none" stroke="black" points="715.5,-485 512.5,-485 512.5,-387 715.5,-387 715.5,-485"/>
<text text-anchor="middle" x="614" y="-469.8" font-family="Times,serif" font-size="14.00">node #1</text>
<text text-anchor="middle" x="614" y="-454.8" font-family="Times,serif" font-size="14.00">FVCPostVal &lt;= 1.395</text>
<text text-anchor="middle" x="614" y="-439.8" font-family="Times,serif" font-size="14.00">gini = 0.173</text>
<text text-anchor="middle" x="614" y="-424.8" font-family="Times,serif" font-size="14.00">samples = 76</text>
<text text-anchor="middle" x="614" y="-409.8" font-family="Times,serif" font-size="14.00">value = [10.812, 102.318]</text>
<text text-anchor="middle" x="614" y="-394.8" font-family="Times,serif" font-size="14.00">class = Obstructive</text>
</g>
<!-- 0&#45;&gt;1 -->
<g id="edge1" class="edge">
<title>0&#45;&gt;1</title>
<path fill="none" stroke="black" d="M817.99,-529.22C788.78,-516.01 755.86,-501.13 725.13,-487.24"/>
<polygon fill="black" stroke="black" points="726.22,-483.89 715.67,-482.96 723.34,-490.27 726.22,-483.89"/>
<text text-anchor="middle" x="724.49" y="-502.65" font-family="Times,serif" font-size="14.00">True</text>
</g>
<!-- 12 -->
<g id="node13" class="node">
<title>12</title>
<polygon fill="none" stroke="black" points="1218.5,-485 1015.5,-485 1015.5,-387 1218.5,-387 1218.5,-485"/>
<text text-anchor="middle" x="1117" y="-469.8" font-family="Times,serif" font-size="14.00">node #12</text>
<text text-anchor="middle" x="1117" y="-454.8" font-family="Times,serif" font-size="14.00">FVCPostVal &lt;= 2.165</text>
<text text-anchor="middle" x="1117" y="-439.8" font-family="Times,serif" font-size="14.00">gini = 0.413</text>
<text text-anchor="middle" x="1117" y="-424.8" font-family="Times,serif" font-size="14.00">samples = 131</text>
<text text-anchor="middle" x="1117" y="-409.8" font-family="Times,serif" font-size="14.00">value = [155.688, 64.182]</text>
<text text-anchor="middle" x="1117" y="-394.8" font-family="Times,serif" font-size="14.00">class = Non&#45;obstructive</text>
</g>
<!-- 0&#45;&gt;12 -->
<g id="edge12" class="edge">
<title>0&#45;&gt;12</title>
<path fill="none" stroke="black" d="M982.77,-520.97C998.48,-511.14 1015.11,-500.74 1031.11,-490.73"/>
<polygon fill="black" stroke="black" points="1033.31,-493.48 1039.93,-485.21 1029.6,-487.55 1033.31,-493.48"/>
<text text-anchor="middle" x="1034.32" y="-505.88" font-family="Times,serif" font-size="14.00">False</text>
</g>
<!-- 2 -->
<g id="node3" class="node">
<title>2</title>
<polygon fill="none" stroke="black" points="409,-351 203,-351 203,-253 409,-253 409,-351"/>
<text text-anchor="middle" x="306" y="-335.8" font-family="Times,serif" font-size="14.00">node #2</text>
<text text-anchor="middle" x="306" y="-320.8" font-family="Times,serif" font-size="14.00">FEFPostPercent &lt;= 4.325</text>
<text text-anchor="middle" x="306" y="-305.8" font-family="Times,serif" font-size="14.00">gini = 0.492</text>
<text text-anchor="middle" x="306" y="-290.8" font-family="Times,serif" font-size="14.00">samples = 11</text>
<text text-anchor="middle" x="306" y="-275.8" font-family="Times,serif" font-size="14.00">value = [8.649, 11.162]</text>
<text text-anchor="middle" x="306" y="-260.8" font-family="Times,serif" font-size="14.00">class = Obstructive</text>
</g>
<!-- 1&#45;&gt;2 -->
<g id="edge2" class="edge">
<title>1&#45;&gt;2</title>
<path fill="none" stroke="black" d="M512.3,-391.41C482.28,-378.55 449.26,-364.4 418.61,-351.26"/>
<polygon fill="black" stroke="black" points="419.75,-347.94 409.18,-347.22 416.99,-354.37 419.75,-347.94"/>
</g>
<!-- 7 -->
<g id="node8" class="node">
<title>7</title>
<polygon fill="none" stroke="black" points="706.5,-351 521.5,-351 521.5,-253 706.5,-253 706.5,-351"/>
<text text-anchor="middle" x="614" y="-335.8" font-family="Times,serif" font-size="14.00">node #7</text>
<text text-anchor="middle" x="614" y="-320.8" font-family="Times,serif" font-size="14.00">FVCPreVal &lt;= 2.625</text>
<text text-anchor="middle" x="614" y="-305.8" font-family="Times,serif" font-size="14.00">gini = 0.045</text>
<text text-anchor="middle" x="614" y="-290.8" font-family="Times,serif" font-size="14.00">samples = 65</text>
<text text-anchor="middle" x="614" y="-275.8" font-family="Times,serif" font-size="14.00">value = [2.162, 91.156]</text>
<text text-anchor="middle" x="614" y="-260.8" font-family="Times,serif" font-size="14.00">class = Obstructive</text>
</g>
<!-- 1&#45;&gt;7 -->
<g id="edge7" class="edge">
<title>1&#45;&gt;7</title>
<path fill="none" stroke="black" d="M614,-386.97C614,-378.69 614,-370 614,-361.48"/>
<polygon fill="black" stroke="black" points="617.5,-361.21 614,-351.21 610.5,-361.21 617.5,-361.21"/>
</g>
<!-- 3 -->
<g id="node4" class="node">
<title>3</title>
<polygon fill="none" stroke="black" points="188,-209.5 0,-209.5 0,-126.5 188,-126.5 188,-209.5"/>
<text text-anchor="middle" x="94" y="-194.3" font-family="Times,serif" font-size="14.00">node #3</text>
<text text-anchor="middle" x="94" y="-179.3" font-family="Times,serif" font-size="14.00">gini = 0.0</text>
<text text-anchor="middle" x="94" y="-164.3" font-family="Times,serif" font-size="14.00">samples = 2</text>
<text text-anchor="middle" x="94" y="-149.3" font-family="Times,serif" font-size="14.00">value = [4.325, 0.0]</text>
<text text-anchor="middle" x="94" y="-134.3" font-family="Times,serif" font-size="14.00">class = Non&#45;obstructive</text>
</g>
<!-- 2&#45;&gt;3 -->
<g id="edge3" class="edge">
<title>2&#45;&gt;3</title>
<path fill="none" stroke="black" d="M228.86,-252.97C208.96,-240.58 187.59,-227.27 167.85,-214.98"/>
<polygon fill="black" stroke="black" points="169.55,-211.92 159.21,-209.6 165.85,-217.86 169.55,-211.92"/>
</g>
<!-- 4 -->
<g id="node5" class="node">
<title>4</title>
<polygon fill="none" stroke="black" points="406,-217 206,-217 206,-119 406,-119 406,-217"/>
<text text-anchor="middle" x="306" y="-201.8" font-family="Times,serif" font-size="14.00">node #4</text>
<text text-anchor="middle" x="306" y="-186.8" font-family="Times,serif" font-size="14.00">FEV1PrePercent &lt;= 38.5</text>
<text text-anchor="middle" x="306" y="-171.8" font-family="Times,serif" font-size="14.00">gini = 0.403</text>
<text text-anchor="middle" x="306" y="-156.8" font-family="Times,serif" font-size="14.00">samples = 9</text>
<text text-anchor="middle" x="306" y="-141.8" font-family="Times,serif" font-size="14.00">value = [4.325, 11.162]</text>
<text text-anchor="middle" x="306" y="-126.8" font-family="Times,serif" font-size="14.00">class = Obstructive</text>
</g>
<!-- 2&#45;&gt;4 -->
<g id="edge4" class="edge">
<title>2&#45;&gt;4</title>
<path fill="none" stroke="black" d="M306,-252.97C306,-244.69 306,-236 306,-227.48"/>
<polygon fill="black" stroke="black" points="309.5,-227.21 306,-217.21 302.5,-227.21 309.5,-227.21"/>
</g>
<!-- 5 -->
<g id="node6" class="node">
<title>5</title>
<polygon fill="none" stroke="black" points="197,-83 39,-83 39,0 197,0 197,-83"/>
<text text-anchor="middle" x="118" y="-67.8" font-family="Times,serif" font-size="14.00">node #5</text>
<text text-anchor="middle" x="118" y="-52.8" font-family="Times,serif" font-size="14.00">gini = 0.0</text>
<text text-anchor="middle" x="118" y="-37.8" font-family="Times,serif" font-size="14.00">samples = 5</text>
<text text-anchor="middle" x="118" y="-22.8" font-family="Times,serif" font-size="14.00">value = [0.0, 9.302]</text>
<text text-anchor="middle" x="118" y="-7.8" font-family="Times,serif" font-size="14.00">class = Obstructive</text>
</g>
<!-- 4&#45;&gt;5 -->
<g id="edge5" class="edge">
<title>4&#45;&gt;5</title>
<path fill="none" stroke="black" d="M233.31,-118.87C218.37,-108.97 202.67,-98.57 187.83,-88.74"/>
<polygon fill="black" stroke="black" points="189.48,-85.64 179.21,-83.03 185.61,-91.47 189.48,-85.64"/>
</g>
<!-- 6 -->
<g id="node7" class="node">
<title>6</title>
<polygon fill="none" stroke="black" points="403,-83 215,-83 215,0 403,0 403,-83"/>
<text text-anchor="middle" x="309" y="-67.8" font-family="Times,serif" font-size="14.00">node #6</text>
<text text-anchor="middle" x="309" y="-52.8" font-family="Times,serif" font-size="14.00">gini = 0.421</text>
<text text-anchor="middle" x="309" y="-37.8" font-family="Times,serif" font-size="14.00">samples = 4</text>
<text text-anchor="middle" x="309" y="-22.8" font-family="Times,serif" font-size="14.00">value = [4.325, 1.86]</text>
<text text-anchor="middle" x="309" y="-7.8" font-family="Times,serif" font-size="14.00">class = Non&#45;obstructive</text>
</g>
<!-- 4&#45;&gt;6 -->
<g id="edge6" class="edge">
<title>4&#45;&gt;6</title>
<path fill="none" stroke="black" d="M307.16,-118.87C307.36,-110.5 307.57,-101.77 307.78,-93.33"/>
<polygon fill="black" stroke="black" points="311.28,-93.31 308.02,-83.23 304.28,-93.14 311.28,-93.31"/>
</g>
<!-- 8 -->
<g id="node9" class="node">
<title>8</title>
<polygon fill="none" stroke="black" points="591.5,-209.5 424.5,-209.5 424.5,-126.5 591.5,-126.5 591.5,-209.5"/>
<text text-anchor="middle" x="508" y="-194.3" font-family="Times,serif" font-size="14.00">node #8</text>
<text text-anchor="middle" x="508" y="-179.3" font-family="Times,serif" font-size="14.00">gini = 0.0</text>
<text text-anchor="middle" x="508" y="-164.3" font-family="Times,serif" font-size="14.00">samples = 58</text>
<text text-anchor="middle" x="508" y="-149.3" font-family="Times,serif" font-size="14.00">value = [0.0, 84.645]</text>
<text text-anchor="middle" x="508" y="-134.3" font-family="Times,serif" font-size="14.00">class = Obstructive</text>
</g>
<!-- 7&#45;&gt;8 -->
<g id="edge8" class="edge">
<title>7&#45;&gt;8</title>
<path fill="none" stroke="black" d="M575.43,-252.97C566.2,-241.47 556.33,-229.18 547.07,-217.66"/>
<polygon fill="black" stroke="black" points="549.77,-215.42 540.78,-209.82 544.31,-219.81 549.77,-215.42"/>
</g>
<!-- 9 -->
<g id="node10" class="node">
<title>9</title>
<polygon fill="none" stroke="black" points="806.5,-217 609.5,-217 609.5,-119 806.5,-119 806.5,-217"/>
<text text-anchor="middle" x="708" y="-201.8" font-family="Times,serif" font-size="14.00">node #9</text>
<text text-anchor="middle" x="708" y="-186.8" font-family="Times,serif" font-size="14.00">FVCPostPercent &lt;= 65.5</text>
<text text-anchor="middle" x="708" y="-171.8" font-family="Times,serif" font-size="14.00">gini = 0.374</text>
<text text-anchor="middle" x="708" y="-156.8" font-family="Times,serif" font-size="14.00">samples = 7</text>
<text text-anchor="middle" x="708" y="-141.8" font-family="Times,serif" font-size="14.00">value = [2.162, 6.511]</text>
<text text-anchor="middle" x="708" y="-126.8" font-family="Times,serif" font-size="14.00">class = Obstructive</text>
</g>
<!-- 7&#45;&gt;9 -->
<g id="edge9" class="edge">
<title>7&#45;&gt;9</title>
<path fill="none" stroke="black" d="M648.2,-252.97C654.55,-244.05 661.24,-234.66 667.75,-225.52"/>
<polygon fill="black" stroke="black" points="670.72,-227.39 673.67,-217.21 665.01,-223.33 670.72,-227.39"/>
</g>
<!-- 10 -->
<g id="node11" class="node">
<title>10</title>
<polygon fill="none" stroke="black" points="611,-83 423,-83 423,0 611,0 611,-83"/>
<text text-anchor="middle" x="517" y="-67.8" font-family="Times,serif" font-size="14.00">node #10</text>
<text text-anchor="middle" x="517" y="-52.8" font-family="Times,serif" font-size="14.00">gini = 0.0</text>
<text text-anchor="middle" x="517" y="-37.8" font-family="Times,serif" font-size="14.00">samples = 1</text>
<text text-anchor="middle" x="517" y="-22.8" font-family="Times,serif" font-size="14.00">value = [2.162, 0.0]</text>
<text text-anchor="middle" x="517" y="-7.8" font-family="Times,serif" font-size="14.00">class = Non&#45;obstructive</text>
</g>
<!-- 9&#45;&gt;10 -->
<g id="edge10" class="edge">
<title>9&#45;&gt;10</title>
<path fill="none" stroke="black" d="M634.15,-118.87C618.97,-108.97 603.02,-98.57 587.95,-88.74"/>
<polygon fill="black" stroke="black" points="589.47,-85.56 579.18,-83.03 585.65,-91.43 589.47,-85.56"/>
</g>
<!-- 11 -->
<g id="node12" class="node">
<title>11</title>
<polygon fill="none" stroke="black" points="787,-83 629,-83 629,0 787,0 787,-83"/>
<text text-anchor="middle" x="708" y="-67.8" font-family="Times,serif" font-size="14.00">node #11</text>
<text text-anchor="middle" x="708" y="-52.8" font-family="Times,serif" font-size="14.00">gini = &#45;0.0</text>
<text text-anchor="middle" x="708" y="-37.8" font-family="Times,serif" font-size="14.00">samples = 6</text>
<text text-anchor="middle" x="708" y="-22.8" font-family="Times,serif" font-size="14.00">value = [0.0, 6.511]</text>
<text text-anchor="middle" x="708" y="-7.8" font-family="Times,serif" font-size="14.00">class = Obstructive</text>
</g>
<!-- 9&#45;&gt;11 -->
<g id="edge11" class="edge">
<title>9&#45;&gt;11</title>
<path fill="none" stroke="black" d="M708,-118.87C708,-110.5 708,-101.77 708,-93.33"/>
<polygon fill="black" stroke="black" points="711.5,-93.23 708,-83.23 704.5,-93.23 711.5,-93.23"/>
</g>
<!-- 13 -->
<g id="node14" class="node">
<title>13</title>
<polygon fill="none" stroke="black" points="1221.5,-351 1012.5,-351 1012.5,-253 1221.5,-253 1221.5,-351"/>
<text text-anchor="middle" x="1117" y="-335.8" font-family="Times,serif" font-size="14.00">node #13</text>
<text text-anchor="middle" x="1117" y="-320.8" font-family="Times,serif" font-size="14.00">FEV1PrePercent &lt;= 122.0</text>
<text text-anchor="middle" x="1117" y="-305.8" font-family="Times,serif" font-size="14.00">gini = 0.177</text>
<text text-anchor="middle" x="1117" y="-290.8" font-family="Times,serif" font-size="14.00">samples = 63</text>
<text text-anchor="middle" x="1117" y="-275.8" font-family="Times,serif" font-size="14.00">value = [102.711, 11.162]</text>
<text text-anchor="middle" x="1117" y="-260.8" font-family="Times,serif" font-size="14.00">class = Non&#45;obstructive</text>
</g>
<!-- 12&#45;&gt;13 -->
<g id="edge13" class="edge">
<title>12&#45;&gt;13</title>
<path fill="none" stroke="black" d="M1117,-386.97C1117,-378.69 1117,-370 1117,-361.48"/>
<polygon fill="black" stroke="black" points="1120.5,-361.21 1117,-351.21 1113.5,-361.21 1120.5,-361.21"/>
</g>
<!-- 18 -->
<g id="node19" class="node">
<title>18</title>
<polygon fill="none" stroke="black" points="1556.5,-351 1371.5,-351 1371.5,-253 1556.5,-253 1556.5,-351"/>
<text text-anchor="middle" x="1464" y="-335.8" font-family="Times,serif" font-size="14.00">node #18</text>
<text text-anchor="middle" x="1464" y="-320.8" font-family="Times,serif" font-size="14.00">FEFPreVal &lt;= 2.88</text>
<text text-anchor="middle" x="1464" y="-305.8" font-family="Times,serif" font-size="14.00">gini = 0.5</text>
<text text-anchor="middle" x="1464" y="-290.8" font-family="Times,serif" font-size="14.00">samples = 68</text>
<text text-anchor="middle" x="1464" y="-275.8" font-family="Times,serif" font-size="14.00">value = [52.977, 53.02]</text>
<text text-anchor="middle" x="1464" y="-260.8" font-family="Times,serif" font-size="14.00">class = Obstructive</text>
</g>
<!-- 12&#45;&gt;18 -->
<g id="edge18" class="edge">
<title>12&#45;&gt;18</title>
<path fill="none" stroke="black" d="M1218.77,-396.29C1263.85,-379.14 1316.79,-359 1361.91,-341.83"/>
<polygon fill="black" stroke="black" points="1363.32,-345.05 1371.42,-338.22 1360.83,-338.5 1363.32,-345.05"/>
</g>
<!-- 14 -->
<g id="node15" class="node">
<title>14</title>
<polygon fill="none" stroke="black" points="1120,-217 914,-217 914,-119 1120,-119 1120,-217"/>
<text text-anchor="middle" x="1017" y="-201.8" font-family="Times,serif" font-size="14.00">node #14</text>
<text text-anchor="middle" x="1017" y="-186.8" font-family="Times,serif" font-size="14.00">FEV1PostPercent &lt;= 76.5</text>
<text text-anchor="middle" x="1017" y="-171.8" font-family="Times,serif" font-size="14.00">gini = 0.139</text>
<text text-anchor="middle" x="1017" y="-156.8" font-family="Times,serif" font-size="14.00">samples = 62</text>
<text text-anchor="middle" x="1017" y="-141.8" font-family="Times,serif" font-size="14.00">value = [102.711, 8.372]</text>
<text text-anchor="middle" x="1017" y="-126.8" font-family="Times,serif" font-size="14.00">class = Non&#45;obstructive</text>
</g>
<!-- 13&#45;&gt;14 -->
<g id="edge14" class="edge">
<title>13&#45;&gt;14</title>
<path fill="none" stroke="black" d="M1080.61,-252.97C1073.79,-243.96 1066.6,-234.47 1059.61,-225.24"/>
<polygon fill="black" stroke="black" points="1062.35,-223.07 1053.53,-217.21 1056.77,-227.3 1062.35,-223.07"/>
</g>
<!-- 17 -->
<g id="node18" class="node">
<title>17</title>
<polygon fill="none" stroke="black" points="1296,-209.5 1138,-209.5 1138,-126.5 1296,-126.5 1296,-209.5"/>
<text text-anchor="middle" x="1217" y="-194.3" font-family="Times,serif" font-size="14.00">node #17</text>
<text text-anchor="middle" x="1217" y="-179.3" font-family="Times,serif" font-size="14.00">gini = &#45;0.0</text>
<text text-anchor="middle" x="1217" y="-164.3" font-family="Times,serif" font-size="14.00">samples = 1</text>
<text text-anchor="middle" x="1217" y="-149.3" font-family="Times,serif" font-size="14.00">value = [0.0, 2.791]</text>
<text text-anchor="middle" x="1217" y="-134.3" font-family="Times,serif" font-size="14.00">class = Obstructive</text>
</g>
<!-- 13&#45;&gt;17 -->
<g id="edge17" class="edge">
<title>13&#45;&gt;17</title>
<path fill="none" stroke="black" d="M1153.39,-252.97C1162.01,-241.58 1171.23,-229.42 1179.89,-217.99"/>
<polygon fill="black" stroke="black" points="1182.83,-219.9 1186.08,-209.82 1177.25,-215.67 1182.83,-219.9"/>
</g>
<!-- 15 -->
<g id="node16" class="node">
<title>15</title>
<polygon fill="none" stroke="black" points="993,-83 805,-83 805,0 993,0 993,-83"/>
<text text-anchor="middle" x="899" y="-67.8" font-family="Times,serif" font-size="14.00">node #15</text>
<text text-anchor="middle" x="899" y="-52.8" font-family="Times,serif" font-size="14.00">gini = 0.059</text>
<text text-anchor="middle" x="899" y="-37.8" font-family="Times,serif" font-size="14.00">samples = 52</text>
<text text-anchor="middle" x="899" y="-22.8" font-family="Times,serif" font-size="14.00">value = [88.656, 2.791]</text>
<text text-anchor="middle" x="899" y="-7.8" font-family="Times,serif" font-size="14.00">class = Non&#45;obstructive</text>
</g>
<!-- 14&#45;&gt;15 -->
<g id="edge15" class="edge">
<title>14&#45;&gt;15</title>
<path fill="none" stroke="black" d="M971.38,-118.87C962.58,-109.58 953.36,-99.85 944.56,-90.56"/>
<polygon fill="black" stroke="black" points="947.02,-88.08 937.6,-83.23 941.94,-92.9 947.02,-88.08"/>
</g>
<!-- 16 -->
<g id="node17" class="node">
<title>16</title>
<polygon fill="none" stroke="black" points="1199,-83 1011,-83 1011,0 1199,0 1199,-83"/>
<text text-anchor="middle" x="1105" y="-67.8" font-family="Times,serif" font-size="14.00">node #16</text>
<text text-anchor="middle" x="1105" y="-52.8" font-family="Times,serif" font-size="14.00">gini = 0.407</text>
<text text-anchor="middle" x="1105" y="-37.8" font-family="Times,serif" font-size="14.00">samples = 10</text>
<text text-anchor="middle" x="1105" y="-22.8" font-family="Times,serif" font-size="14.00">value = [14.055, 5.581]</text>
<text text-anchor="middle" x="1105" y="-7.8" font-family="Times,serif" font-size="14.00">class = Non&#45;obstructive</text>
</g>
<!-- 14&#45;&gt;16 -->
<g id="edge16" class="edge">
<title>14&#45;&gt;16</title>
<path fill="none" stroke="black" d="M1051.02,-118.87C1057.33,-109.95 1063.92,-100.62 1070.25,-91.67"/>
<polygon fill="black" stroke="black" points="1073.3,-93.42 1076.21,-83.23 1067.58,-89.38 1073.3,-93.42"/>
</g>
<!-- 19 -->
<g id="node20" class="node">
<title>19</title>
<polygon fill="none" stroke="black" points="1564,-217 1364,-217 1364,-119 1564,-119 1564,-217"/>
<text text-anchor="middle" x="1464" y="-201.8" font-family="Times,serif" font-size="14.00">node #19</text>
<text text-anchor="middle" x="1464" y="-186.8" font-family="Times,serif" font-size="14.00">FEV1PrePercent &lt;= 70.5</text>
<text text-anchor="middle" x="1464" y="-171.8" font-family="Times,serif" font-size="14.00">gini = 0.449</text>
<text text-anchor="middle" x="1464" y="-156.8" font-family="Times,serif" font-size="14.00">samples = 50</text>
<text text-anchor="middle" x="1464" y="-141.8" font-family="Times,serif" font-size="14.00">value = [25.948, 50.229]</text>
<text text-anchor="middle" x="1464" y="-126.8" font-family="Times,serif" font-size="14.00">class = Obstructive</text>
</g>
<!-- 18&#45;&gt;19 -->
<g id="edge19" class="edge">
<title>18&#45;&gt;19</title>
<path fill="none" stroke="black" d="M1464,-252.97C1464,-244.69 1464,-236 1464,-227.48"/>
<polygon fill="black" stroke="black" points="1467.5,-227.21 1464,-217.21 1460.5,-227.21 1467.5,-227.21"/>
</g>
<!-- 22 -->
<g id="node23" class="node">
<title>22</title>
<polygon fill="none" stroke="black" points="1820,-217 1632,-217 1632,-119 1820,-119 1820,-217"/>
<text text-anchor="middle" x="1726" y="-201.8" font-family="Times,serif" font-size="14.00">node #22</text>
<text text-anchor="middle" x="1726" y="-186.8" font-family="Times,serif" font-size="14.00">FEV1PreVal &lt;= 3.35</text>
<text text-anchor="middle" x="1726" y="-171.8" font-family="Times,serif" font-size="14.00">gini = 0.17</text>
<text text-anchor="middle" x="1726" y="-156.8" font-family="Times,serif" font-size="14.00">samples = 18</text>
<text text-anchor="middle" x="1726" y="-141.8" font-family="Times,serif" font-size="14.00">value = [27.029, 2.791]</text>
<text text-anchor="middle" x="1726" y="-126.8" font-family="Times,serif" font-size="14.00">class = Non&#45;obstructive</text>
</g>
<!-- 18&#45;&gt;22 -->
<g id="edge22" class="edge">
<title>18&#45;&gt;22</title>
<path fill="none" stroke="black" d="M1556.74,-254.28C1577.99,-243.57 1600.72,-232.12 1622.4,-221.2"/>
<polygon fill="black" stroke="black" points="1624.26,-224.18 1631.62,-216.55 1621.11,-217.93 1624.26,-224.18"/>
</g>
<!-- 20 -->
<g id="node21" class="node">
<title>20</title>
<polygon fill="none" stroke="black" points="1402.5,-83 1217.5,-83 1217.5,0 1402.5,0 1402.5,-83"/>
<text text-anchor="middle" x="1310" y="-67.8" font-family="Times,serif" font-size="14.00">node #20</text>
<text text-anchor="middle" x="1310" y="-52.8" font-family="Times,serif" font-size="14.00">gini = 0.288</text>
<text text-anchor="middle" x="1310" y="-37.8" font-family="Times,serif" font-size="14.00">samples = 26</text>
<text text-anchor="middle" x="1310" y="-22.8" font-family="Times,serif" font-size="14.00">value = [6.487, 30.696]</text>
<text text-anchor="middle" x="1310" y="-7.8" font-family="Times,serif" font-size="14.00">class = Obstructive</text>
</g>
<!-- 19&#45;&gt;20 -->
<g id="edge20" class="edge">
<title>19&#45;&gt;20</title>
<path fill="none" stroke="black" d="M1404.46,-118.87C1392.63,-109.3 1380.22,-99.27 1368.43,-89.74"/>
<polygon fill="black" stroke="black" points="1370.36,-86.8 1360.38,-83.23 1365.96,-92.24 1370.36,-86.8"/>
</g>
<!-- 21 -->
<g id="node22" class="node">
<title>21</title>
<polygon fill="none" stroke="black" points="1614,-83 1420,-83 1420,0 1614,0 1614,-83"/>
<text text-anchor="middle" x="1517" y="-67.8" font-family="Times,serif" font-size="14.00">node #21</text>
<text text-anchor="middle" x="1517" y="-52.8" font-family="Times,serif" font-size="14.00">gini = 0.5</text>
<text text-anchor="middle" x="1517" y="-37.8" font-family="Times,serif" font-size="14.00">samples = 24</text>
<text text-anchor="middle" x="1517" y="-22.8" font-family="Times,serif" font-size="14.00">value = [19.461, 19.534]</text>
<text text-anchor="middle" x="1517" y="-7.8" font-family="Times,serif" font-size="14.00">class = Obstructive</text>
</g>
<!-- 19&#45;&gt;21 -->
<g id="edge21" class="edge">
<title>19&#45;&gt;21</title>
<path fill="none" stroke="black" d="M1484.49,-118.87C1488.17,-110.22 1492.01,-101.2 1495.71,-92.5"/>
<polygon fill="black" stroke="black" points="1498.96,-93.8 1499.66,-83.23 1492.52,-91.06 1498.96,-93.8"/>
</g>
<!-- 23 -->
<g id="node24" class="node">
<title>23</title>
<polygon fill="none" stroke="black" points="1820,-83 1632,-83 1632,0 1820,0 1820,-83"/>
<text text-anchor="middle" x="1726" y="-67.8" font-family="Times,serif" font-size="14.00">node #23</text>
<text text-anchor="middle" x="1726" y="-52.8" font-family="Times,serif" font-size="14.00">gini = 0.0</text>
<text text-anchor="middle" x="1726" y="-37.8" font-family="Times,serif" font-size="14.00">samples = 17</text>
<text text-anchor="middle" x="1726" y="-22.8" font-family="Times,serif" font-size="14.00">value = [27.029, 0.0]</text>
<text text-anchor="middle" x="1726" y="-7.8" font-family="Times,serif" font-size="14.00">class = Non&#45;obstructive</text>
</g>
<!-- 22&#45;&gt;23 -->
<g id="edge23" class="edge">
<title>22&#45;&gt;23</title>
<path fill="none" stroke="black" d="M1726,-118.87C1726,-110.5 1726,-101.77 1726,-93.33"/>
<polygon fill="black" stroke="black" points="1729.5,-93.23 1726,-83.23 1722.5,-93.23 1729.5,-93.23"/>
</g>
<!-- 24 -->
<g id="node25" class="node">
<title>24</title>
<polygon fill="none" stroke="black" points="1996,-83 1838,-83 1838,0 1996,0 1996,-83"/>
<text text-anchor="middle" x="1917" y="-67.8" font-family="Times,serif" font-size="14.00">node #24</text>
<text text-anchor="middle" x="1917" y="-52.8" font-family="Times,serif" font-size="14.00">gini = &#45;0.0</text>
<text text-anchor="middle" x="1917" y="-37.8" font-family="Times,serif" font-size="14.00">samples = 1</text>
<text text-anchor="middle" x="1917" y="-22.8" font-family="Times,serif" font-size="14.00">value = [0.0, 2.791]</text>
<text text-anchor="middle" x="1917" y="-7.8" font-family="Times,serif" font-size="14.00">class = Obstructive</text>
</g>
<!-- 22&#45;&gt;24 -->
<g id="edge24" class="edge">
<title>22&#45;&gt;24</title>
<path fill="none" stroke="black" d="M1799.85,-118.87C1815.03,-108.97 1830.98,-98.57 1846.05,-88.74"/>
<polygon fill="black" stroke="black" points="1848.35,-91.43 1854.82,-83.03 1844.53,-85.56 1848.35,-91.43"/>
</g>
</g>
</svg>
