<?xml version="1.0" encoding="UTF-8" standalone="no"?>
<!DOCTYPE svg PUBLIC "-//W3C//DTD SVG 1.1//EN"
 "http://www.w3.org/Graphics/SVG/1.1/DTD/svg11.dtd">
<!-- Generated by graphviz version 2.43.0 (0)
 -->
<!-- Title: Tree Pages: 1 -->
<svg width="1939pt" height="627pt"
 viewBox="0.00 0.00 1939.00 627.00" xmlns="http://www.w3.org/2000/svg" xmlns:xlink="http://www.w3.org/1999/xlink">
<g id="graph0" class="graph" transform="scale(1 1) rotate(0) translate(4 623)">
<title>Tree</title>
<polygon fill="white" stroke="transparent" points="-4,4 -4,-623 1935,-623 1935,4 -4,4"/>
<!-- 0 -->
<g id="node1" class="node">
<title>0</title>
<polygon fill="none" stroke="black" points="830,-619 654,-619 654,-521 830,-521 830,-619"/>
<text text-anchor="middle" x="742" y="-603.8" font-family="Times,serif" font-size="14.00">node #0</text>
<text text-anchor="middle" x="742" y="-588.8" font-family="Times,serif" font-size="14.00">FEFPreVal &lt;= 1.085</text>
<text text-anchor="middle" x="742" y="-573.8" font-family="Times,serif" font-size="14.00">gini = 0.5</text>
<text text-anchor="middle" x="742" y="-558.8" font-family="Times,serif" font-size="14.00">samples = 215</text>
<text text-anchor="middle" x="742" y="-543.8" font-family="Times,serif" font-size="14.00">value = [166.5, 166.5]</text>
<text text-anchor="middle" x="742" y="-528.8" font-family="Times,serif" font-size="14.00">class = Obstructive</text>
</g>
<!-- 1 -->
<g id="node2" class="node">
<title>1</title>
<polygon fill="none" stroke="black" points="649.5,-485 464.5,-485 464.5,-387 649.5,-387 649.5,-485"/>
<text text-anchor="middle" x="557" y="-469.8" font-family="Times,serif" font-size="14.00">node #1</text>
<text text-anchor="middle" x="557" y="-454.8" font-family="Times,serif" font-size="14.00">FVCPostVal &lt;= 1.21</text>
<text text-anchor="middle" x="557" y="-439.8" font-family="Times,serif" font-size="14.00">gini = 0.129</text>
<text text-anchor="middle" x="557" y="-424.8" font-family="Times,serif" font-size="14.00">samples = 71</text>
<text text-anchor="middle" x="557" y="-409.8" font-family="Times,serif" font-size="14.00">value = [8.662, 116.55]</text>
<text text-anchor="middle" x="557" y="-394.8" font-family="Times,serif" font-size="14.00">class = Obstructive</text>
</g>
<!-- 0&#45;&gt;1 -->
<g id="edge1" class="edge">
<title>0&#45;&gt;1</title>
<path fill="none" stroke="black" d="M674.69,-520.97C661.17,-511.33 646.87,-501.13 633.08,-491.29"/>
<polygon fill="black" stroke="black" points="634.75,-488.17 624.57,-485.21 630.68,-493.87 634.75,-488.17"/>
<text text-anchor="middle" x="628.7" y="-506.17" font-family="Times,serif" font-size="14.00">True</text>
</g>
<!-- 10 -->
<g id="node11" class="node">
<title>10</title>
<polygon fill="none" stroke="black" points="1040,-485 846,-485 846,-387 1040,-387 1040,-485"/>
<text text-anchor="middle" x="943" y="-469.8" font-family="Times,serif" font-size="14.00">node #10</text>
<text text-anchor="middle" x="943" y="-454.8" font-family="Times,serif" font-size="14.00">FVCPostVal &lt;= 2.105</text>
<text text-anchor="middle" x="943" y="-439.8" font-family="Times,serif" font-size="14.00">gini = 0.365</text>
<text text-anchor="middle" x="943" y="-424.8" font-family="Times,serif" font-size="14.00">samples = 144</text>
<text text-anchor="middle" x="943" y="-409.8" font-family="Times,serif" font-size="14.00">value = [157.838, 49.95]</text>
<text text-anchor="middle" x="943" y="-394.8" font-family="Times,serif" font-size="14.00">class = Non&#45;obstructive</text>
</g>
<!-- 0&#45;&gt;10 -->
<g id="edge10" class="edge">
<title>0&#45;&gt;10</title>
<path fill="none" stroke="black" d="M815.13,-520.97C830.1,-511.14 845.94,-500.74 861.18,-490.73"/>
<polygon fill="black" stroke="black" points="863.15,-493.63 869.58,-485.21 859.3,-487.78 863.15,-493.63"/>
<text text-anchor="middle" x="864.51" y="-505.99" font-family="Times,serif" font-size="14.00">False</text>
</g>
<!-- 2 -->
<g id="node3" class="node">
<title>2</title>
<polygon fill="none" stroke="black" points="364,-351 176,-351 176,-253 364,-253 364,-351"/>
<text text-anchor="middle" x="270" y="-335.8" font-family="Times,serif" font-size="14.00">node #2</text>
<text text-anchor="middle" x="270" y="-320.8" font-family="Times,serif" font-size="14.00">FVCPreVal &lt;= 0.81</text>
<text text-anchor="middle" x="270" y="-305.8" font-family="Times,serif" font-size="14.00">gini = 0.292</text>
<text text-anchor="middle" x="270" y="-290.8" font-family="Times,serif" font-size="14.00">samples = 5</text>
<text text-anchor="middle" x="270" y="-275.8" font-family="Times,serif" font-size="14.00">value = [4.812, 1.041]</text>
<text text-anchor="middle" x="270" y="-260.8" font-family="Times,serif" font-size="14.00">class = Non&#45;obstructive</text>
</g>
<!-- 1&#45;&gt;2 -->
<g id="edge2" class="edge">
<title>1&#45;&gt;2</title>
<path fill="none" stroke="black" d="M464.22,-392.33C435.27,-379.01 403.17,-364.25 373.54,-350.62"/>
<polygon fill="black" stroke="black" points="374.98,-347.43 364.43,-346.43 372.06,-353.79 374.98,-347.43"/>
</g>
<!-- 5 -->
<g id="node6" class="node">
<title>5</title>
<polygon fill="none" stroke="black" points="649.5,-351 464.5,-351 464.5,-253 649.5,-253 649.5,-351"/>
<text text-anchor="middle" x="557" y="-335.8" font-family="Times,serif" font-size="14.00">node #5</text>
<text text-anchor="middle" x="557" y="-320.8" font-family="Times,serif" font-size="14.00">FVCPostVal &lt;= 1.935</text>
<text text-anchor="middle" x="557" y="-305.8" font-family="Times,serif" font-size="14.00">gini = 0.062</text>
<text text-anchor="middle" x="557" y="-290.8" font-family="Times,serif" font-size="14.00">samples = 66</text>
<text text-anchor="middle" x="557" y="-275.8" font-family="Times,serif" font-size="14.00">value = [3.85, 115.509]</text>
<text text-anchor="middle" x="557" y="-260.8" font-family="Times,serif" font-size="14.00">class = Obstructive</text>
</g>
<!-- 1&#45;&gt;5 -->
<g id="edge5" class="edge">
<title>1&#45;&gt;5</title>
<path fill="none" stroke="black" d="M557,-386.97C557,-378.69 557,-370 557,-361.48"/>
<polygon fill="black" stroke="black" points="560.5,-361.21 557,-351.21 553.5,-361.21 560.5,-361.21"/>
</g>
<!-- 3 -->
<g id="node4" class="node">
<title>3</title>
<polygon fill="none" stroke="black" points="158,-209.5 0,-209.5 0,-126.5 158,-126.5 158,-209.5"/>
<text text-anchor="middle" x="79" y="-194.3" font-family="Times,serif" font-size="14.00">node #3</text>
<text text-anchor="middle" x="79" y="-179.3" font-family="Times,serif" font-size="14.00">gini = 0.0</text>
<text text-anchor="middle" x="79" y="-164.3" font-family="Times,serif" font-size="14.00">samples = 1</text>
<text text-anchor="middle" x="79" y="-149.3" font-family="Times,serif" font-size="14.00">value = [0.0, 1.041]</text>
<text text-anchor="middle" x="79" y="-134.3" font-family="Times,serif" font-size="14.00">class = Obstructive</text>
</g>
<!-- 2&#45;&gt;3 -->
<g id="edge3" class="edge">
<title>2&#45;&gt;3</title>
<path fill="none" stroke="black" d="M200.5,-252.97C182.81,-240.75 163.83,-227.63 146.26,-215.48"/>
<polygon fill="black" stroke="black" points="147.97,-212.41 137.75,-209.6 143.99,-218.17 147.97,-212.41"/>
</g>
<!-- 4 -->
<g id="node5" class="node">
<title>4</title>
<polygon fill="none" stroke="black" points="364,-209.5 176,-209.5 176,-126.5 364,-126.5 364,-209.5"/>
<text text-anchor="middle" x="270" y="-194.3" font-family="Times,serif" font-size="14.00">node #4</text>
<text text-anchor="middle" x="270" y="-179.3" font-family="Times,serif" font-size="14.00">gini = 0.0</text>
<text text-anchor="middle" x="270" y="-164.3" font-family="Times,serif" font-size="14.00">samples = 4</text>
<text text-anchor="middle" x="270" y="-149.3" font-family="Times,serif" font-size="14.00">value = [4.812, 0.0]</text>
<text text-anchor="middle" x="270" y="-134.3" font-family="Times,serif" font-size="14.00">class = Non&#45;obstructive</text>
</g>
<!-- 2&#45;&gt;4 -->
<g id="edge4" class="edge">
<title>2&#45;&gt;4</title>
<path fill="none" stroke="black" d="M270,-252.97C270,-242.25 270,-230.84 270,-219.99"/>
<polygon fill="black" stroke="black" points="273.5,-219.82 270,-209.82 266.5,-219.82 273.5,-219.82"/>
</g>
<!-- 6 -->
<g id="node7" class="node">
<title>6</title>
<polygon fill="none" stroke="black" points="564,-217 382,-217 382,-119 564,-119 564,-217"/>
<text text-anchor="middle" x="473" y="-201.8" font-family="Times,serif" font-size="14.00">node #6</text>
<text text-anchor="middle" x="473" y="-186.8" font-family="Times,serif" font-size="14.00">FEV1PostVal &lt;= 1.375</text>
<text text-anchor="middle" x="473" y="-171.8" font-family="Times,serif" font-size="14.00">gini = 0.133</text>
<text text-anchor="middle" x="473" y="-156.8" font-family="Times,serif" font-size="14.00">samples = 32</text>
<text text-anchor="middle" x="473" y="-141.8" font-family="Times,serif" font-size="14.00">value = [3.85, 49.95]</text>
<text text-anchor="middle" x="473" y="-126.8" font-family="Times,serif" font-size="14.00">class = Obstructive</text>
</g>
<!-- 5&#45;&gt;6 -->
<g id="edge6" class="edge">
<title>5&#45;&gt;6</title>
<path fill="none" stroke="black" d="M526.44,-252.97C520.82,-244.15 514.91,-234.85 509.15,-225.8"/>
<polygon fill="black" stroke="black" points="512,-223.77 503.68,-217.21 506.1,-227.53 512,-223.77"/>
</g>
<!-- 9 -->
<g id="node10" class="node">
<title>9</title>
<polygon fill="none" stroke="black" points="749.5,-209.5 582.5,-209.5 582.5,-126.5 749.5,-126.5 749.5,-209.5"/>
<text text-anchor="middle" x="666" y="-194.3" font-family="Times,serif" font-size="14.00">node #9</text>
<text text-anchor="middle" x="666" y="-179.3" font-family="Times,serif" font-size="14.00">gini = &#45;0.0</text>
<text text-anchor="middle" x="666" y="-164.3" font-family="Times,serif" font-size="14.00">samples = 34</text>
<text text-anchor="middle" x="666" y="-149.3" font-family="Times,serif" font-size="14.00">value = [0.0, 65.559]</text>
<text text-anchor="middle" x="666" y="-134.3" font-family="Times,serif" font-size="14.00">class = Obstructive</text>
</g>
<!-- 5&#45;&gt;9 -->
<g id="edge9" class="edge">
<title>5&#45;&gt;9</title>
<path fill="none" stroke="black" d="M596.66,-252.97C606.16,-241.47 616.3,-229.18 625.82,-217.66"/>
<polygon fill="black" stroke="black" points="628.63,-219.76 632.3,-209.82 623.23,-215.3 628.63,-219.76"/>
</g>
<!-- 7 -->
<g id="node8" class="node">
<title>7</title>
<polygon fill="none" stroke="black" points="438,-83 262,-83 262,0 438,0 438,-83"/>
<text text-anchor="middle" x="350" y="-67.8" font-family="Times,serif" font-size="14.00">node #7</text>
<text text-anchor="middle" x="350" y="-52.8" font-family="Times,serif" font-size="14.00">gini = 0.071</text>
<text text-anchor="middle" x="350" y="-37.8" font-family="Times,serif" font-size="14.00">samples = 31</text>
<text text-anchor="middle" x="350" y="-22.8" font-family="Times,serif" font-size="14.00">value = [1.925, 49.95]</text>
<text text-anchor="middle" x="350" y="-7.8" font-family="Times,serif" font-size="14.00">class = Obstructive</text>
</g>
<!-- 6&#45;&gt;7 -->
<g id="edge7" class="edge">
<title>6&#45;&gt;7</title>
<path fill="none" stroke="black" d="M425.44,-118.87C416.27,-109.58 406.66,-99.85 397.49,-90.56"/>
<polygon fill="black" stroke="black" points="399.76,-87.88 390.24,-83.23 394.78,-92.8 399.76,-87.88"/>
</g>
<!-- 8 -->
<g id="node9" class="node">
<title>8</title>
<polygon fill="none" stroke="black" points="644,-83 456,-83 456,0 644,0 644,-83"/>
<text text-anchor="middle" x="550" y="-67.8" font-family="Times,serif" font-size="14.00">node #8</text>
<text text-anchor="middle" x="550" y="-52.8" font-family="Times,serif" font-size="14.00">gini = 0.0</text>
<text text-anchor="middle" x="550" y="-37.8" font-family="Times,serif" font-size="14.00">samples = 1</text>
<text text-anchor="middle" x="550" y="-22.8" font-family="Times,serif" font-size="14.00">value = [1.925, 0.0]</text>
<text text-anchor="middle" x="550" y="-7.8" font-family="Times,serif" font-size="14.00">class = Non&#45;obstructive</text>
</g>
<!-- 6&#45;&gt;8 -->
<g id="edge8" class="edge">
<title>6&#45;&gt;8</title>
<path fill="none" stroke="black" d="M502.77,-118.87C508.23,-110.04 513.94,-100.81 519.42,-91.95"/>
<polygon fill="black" stroke="black" points="522.53,-93.58 524.81,-83.23 516.57,-89.89 522.53,-93.58"/>
</g>
<!-- 11 -->
<g id="node12" class="node">
<title>11</title>
<polygon fill="none" stroke="black" points="1040,-351 846,-351 846,-253 1040,-253 1040,-351"/>
<text text-anchor="middle" x="943" y="-335.8" font-family="Times,serif" font-size="14.00">node #11</text>
<text text-anchor="middle" x="943" y="-320.8" font-family="Times,serif" font-size="14.00">FEFPostVal &lt;= 1.08</text>
<text text-anchor="middle" x="943" y="-305.8" font-family="Times,serif" font-size="14.00">gini = 0.073</text>
<text text-anchor="middle" x="943" y="-290.8" font-family="Times,serif" font-size="14.00">samples = 72</text>
<text text-anchor="middle" x="943" y="-275.8" font-family="Times,serif" font-size="14.00">value = [105.867, 4.162]</text>
<text text-anchor="middle" x="943" y="-260.8" font-family="Times,serif" font-size="14.00">class = Non&#45;obstructive</text>
</g>
<!-- 10&#45;&gt;11 -->
<g id="edge11" class="edge">
<title>10&#45;&gt;11</title>
<path fill="none" stroke="black" d="M943,-386.97C943,-378.69 943,-370 943,-361.48"/>
<polygon fill="black" stroke="black" points="946.5,-361.21 943,-351.21 939.5,-361.21 946.5,-361.21"/>
</g>
<!-- 16 -->
<g id="node17" class="node">
<title>16</title>
<polygon fill="none" stroke="black" points="1449,-351 1255,-351 1255,-253 1449,-253 1449,-351"/>
<text text-anchor="middle" x="1352" y="-335.8" font-family="Times,serif" font-size="14.00">node #16</text>
<text text-anchor="middle" x="1352" y="-320.8" font-family="Times,serif" font-size="14.00">FEFPostVal &lt;= 3.18</text>
<text text-anchor="middle" x="1352" y="-305.8" font-family="Times,serif" font-size="14.00">gini = 0.498</text>
<text text-anchor="middle" x="1352" y="-290.8" font-family="Times,serif" font-size="14.00">samples = 72</text>
<text text-anchor="middle" x="1352" y="-275.8" font-family="Times,serif" font-size="14.00">value = [51.971, 45.787]</text>
<text text-anchor="middle" x="1352" y="-260.8" font-family="Times,serif" font-size="14.00">class = Non&#45;obstructive</text>
</g>
<!-- 10&#45;&gt;16 -->
<g id="edge16" class="edge">
<title>10&#45;&gt;16</title>
<path fill="none" stroke="black" d="M1040.19,-403.63C1101.87,-383.73 1181.73,-357.95 1245.19,-337.47"/>
<polygon fill="black" stroke="black" points="1246.38,-340.76 1254.83,-334.36 1244.23,-334.1 1246.38,-340.76"/>
</g>
<!-- 12 -->
<g id="node13" class="node">
<title>12</title>
<polygon fill="none" stroke="black" points="925,-209.5 767,-209.5 767,-126.5 925,-126.5 925,-209.5"/>
<text text-anchor="middle" x="846" y="-194.3" font-family="Times,serif" font-size="14.00">node #12</text>
<text text-anchor="middle" x="846" y="-179.3" font-family="Times,serif" font-size="14.00">gini = 0.0</text>
<text text-anchor="middle" x="846" y="-164.3" font-family="Times,serif" font-size="14.00">samples = 1</text>
<text text-anchor="middle" x="846" y="-149.3" font-family="Times,serif" font-size="14.00">value = [0.0, 1.041]</text>
<text text-anchor="middle" x="846" y="-134.3" font-family="Times,serif" font-size="14.00">class = Obstructive</text>
</g>
<!-- 11&#45;&gt;12 -->
<g id="edge12" class="edge">
<title>11&#45;&gt;12</title>
<path fill="none" stroke="black" d="M907.71,-252.97C899.34,-241.58 890.4,-229.42 882,-217.99"/>
<polygon fill="black" stroke="black" points="884.74,-215.8 875.99,-209.82 879.1,-219.95 884.74,-215.8"/>
</g>
<!-- 13 -->
<g id="node14" class="node">
<title>13</title>
<polygon fill="none" stroke="black" points="1137,-217 943,-217 943,-119 1137,-119 1137,-217"/>
<text text-anchor="middle" x="1040" y="-201.8" font-family="Times,serif" font-size="14.00">node #13</text>
<text text-anchor="middle" x="1040" y="-186.8" font-family="Times,serif" font-size="14.00">FEFPostVal &lt;= 1.8</text>
<text text-anchor="middle" x="1040" y="-171.8" font-family="Times,serif" font-size="14.00">gini = 0.056</text>
<text text-anchor="middle" x="1040" y="-156.8" font-family="Times,serif" font-size="14.00">samples = 71</text>
<text text-anchor="middle" x="1040" y="-141.8" font-family="Times,serif" font-size="14.00">value = [105.867, 3.122]</text>
<text text-anchor="middle" x="1040" y="-126.8" font-family="Times,serif" font-size="14.00">class = Non&#45;obstructive</text>
</g>
<!-- 11&#45;&gt;13 -->
<g id="edge13" class="edge">
<title>11&#45;&gt;13</title>
<path fill="none" stroke="black" d="M978.29,-252.97C984.85,-244.05 991.75,-234.66 998.47,-225.52"/>
<polygon fill="black" stroke="black" points="1001.47,-227.34 1004.57,-217.21 995.83,-223.2 1001.47,-227.34"/>
</g>
<!-- 14 -->
<g id="node15" class="node">
<title>14</title>
<polygon fill="none" stroke="black" points="928,-83 740,-83 740,0 928,0 928,-83"/>
<text text-anchor="middle" x="834" y="-67.8" font-family="Times,serif" font-size="14.00">node #14</text>
<text text-anchor="middle" x="834" y="-52.8" font-family="Times,serif" font-size="14.00">gini = 0.167</text>
<text text-anchor="middle" x="834" y="-37.8" font-family="Times,serif" font-size="14.00">samples = 23</text>
<text text-anchor="middle" x="834" y="-22.8" font-family="Times,serif" font-size="14.00">value = [30.798, 3.122]</text>
<text text-anchor="middle" x="834" y="-7.8" font-family="Times,serif" font-size="14.00">class = Non&#45;obstructive</text>
</g>
<!-- 13&#45;&gt;14 -->
<g id="edge14" class="edge">
<title>13&#45;&gt;14</title>
<path fill="none" stroke="black" d="M960.36,-118.87C943.83,-108.88 926.46,-98.38 910.06,-88.47"/>
<polygon fill="black" stroke="black" points="911.43,-85.21 901.07,-83.03 907.81,-91.2 911.43,-85.21"/>
</g>
<!-- 15 -->
<g id="node16" class="node">
<title>15</title>
<polygon fill="none" stroke="black" points="1134,-83 946,-83 946,0 1134,0 1134,-83"/>
<text text-anchor="middle" x="1040" y="-67.8" font-family="Times,serif" font-size="14.00">node #15</text>
<text text-anchor="middle" x="1040" y="-52.8" font-family="Times,serif" font-size="14.00">gini = 0.0</text>
<text text-anchor="middle" x="1040" y="-37.8" font-family="Times,serif" font-size="14.00">samples = 48</text>
<text text-anchor="middle" x="1040" y="-22.8" font-family="Times,serif" font-size="14.00">value = [75.069, 0.0]</text>
<text text-anchor="middle" x="1040" y="-7.8" font-family="Times,serif" font-size="14.00">class = Non&#45;obstructive</text>
</g>
<!-- 13&#45;&gt;15 -->
<g id="edge15" class="edge">
<title>13&#45;&gt;15</title>
<path fill="none" stroke="black" d="M1040,-118.87C1040,-110.5 1040,-101.77 1040,-93.33"/>
<polygon fill="black" stroke="black" points="1043.5,-93.23 1040,-83.23 1036.5,-93.23 1043.5,-93.23"/>
</g>
<!-- 17 -->
<g id="node18" class="node">
<title>17</title>
<polygon fill="none" stroke="black" points="1449,-217 1255,-217 1255,-119 1449,-119 1449,-217"/>
<text text-anchor="middle" x="1352" y="-201.8" font-family="Times,serif" font-size="14.00">node #17</text>
<text text-anchor="middle" x="1352" y="-186.8" font-family="Times,serif" font-size="14.00">FVCPostVal &lt;= 3.345</text>
<text text-anchor="middle" x="1352" y="-171.8" font-family="Times,serif" font-size="14.00">gini = 0.469</text>
<text text-anchor="middle" x="1352" y="-156.8" font-family="Times,serif" font-size="14.00">samples = 53</text>
<text text-anchor="middle" x="1352" y="-141.8" font-family="Times,serif" font-size="14.00">value = [26.948, 44.747]</text>
<text text-anchor="middle" x="1352" y="-126.8" font-family="Times,serif" font-size="14.00">class = Obstructive</text>
</g>
<!-- 16&#45;&gt;17 -->
<g id="edge17" class="edge">
<title>16&#45;&gt;17</title>
<path fill="none" stroke="black" d="M1352,-252.97C1352,-244.69 1352,-236 1352,-227.48"/>
<polygon fill="black" stroke="black" points="1355.5,-227.21 1352,-217.21 1348.5,-227.21 1355.5,-227.21"/>
</g>
<!-- 20 -->
<g id="node21" class="node">
<title>20</title>
<polygon fill="none" stroke="black" points="1755,-217 1567,-217 1567,-119 1755,-119 1755,-217"/>
<text text-anchor="middle" x="1661" y="-201.8" font-family="Times,serif" font-size="14.00">node #20</text>
<text text-anchor="middle" x="1661" y="-186.8" font-family="Times,serif" font-size="14.00">FVCPreVal &lt;= 4.3</text>
<text text-anchor="middle" x="1661" y="-171.8" font-family="Times,serif" font-size="14.00">gini = 0.077</text>
<text text-anchor="middle" x="1661" y="-156.8" font-family="Times,serif" font-size="14.00">samples = 19</text>
<text text-anchor="middle" x="1661" y="-141.8" font-family="Times,serif" font-size="14.00">value = [25.023, 1.041]</text>
<text text-anchor="middle" x="1661" y="-126.8" font-family="Times,serif" font-size="14.00">class = Non&#45;obstructive</text>
</g>
<!-- 16&#45;&gt;20 -->
<g id="edge20" class="edge">
<title>16&#45;&gt;20</title>
<path fill="none" stroke="black" d="M1449.35,-259.42C1483.77,-244.71 1522.61,-228.12 1557.52,-213.2"/>
<polygon fill="black" stroke="black" points="1558.96,-216.39 1566.78,-209.25 1556.21,-209.96 1558.96,-216.39"/>
</g>
<!-- 18 -->
<g id="node19" class="node">
<title>18</title>
<polygon fill="none" stroke="black" points="1346,-83 1152,-83 1152,0 1346,0 1346,-83"/>
<text text-anchor="middle" x="1249" y="-67.8" font-family="Times,serif" font-size="14.00">node #18</text>
<text text-anchor="middle" x="1249" y="-52.8" font-family="Times,serif" font-size="14.00">gini = 0.498</text>
<text text-anchor="middle" x="1249" y="-37.8" font-family="Times,serif" font-size="14.00">samples = 42</text>
<text text-anchor="middle" x="1249" y="-22.8" font-family="Times,serif" font-size="14.00">value = [25.986, 29.138]</text>
<text text-anchor="middle" x="1249" y="-7.8" font-family="Times,serif" font-size="14.00">class = Obstructive</text>
</g>
<!-- 17&#45;&gt;18 -->
<g id="edge18" class="edge">
<title>17&#45;&gt;18</title>
<path fill="none" stroke="black" d="M1312.18,-118.87C1304.65,-109.76 1296.76,-100.23 1289.22,-91.12"/>
<polygon fill="black" stroke="black" points="1291.77,-88.7 1282.7,-83.23 1286.37,-93.17 1291.77,-88.7"/>
</g>
<!-- 19 -->
<g id="node20" class="node">
<title>19</title>
<polygon fill="none" stroke="black" points="1548.5,-83 1363.5,-83 1363.5,0 1548.5,0 1548.5,-83"/>
<text text-anchor="middle" x="1456" y="-67.8" font-family="Times,serif" font-size="14.00">node #19</text>
<text text-anchor="middle" x="1456" y="-52.8" font-family="Times,serif" font-size="14.00">gini = 0.109</text>
<text text-anchor="middle" x="1456" y="-37.8" font-family="Times,serif" font-size="14.00">samples = 11</text>
<text text-anchor="middle" x="1456" y="-22.8" font-family="Times,serif" font-size="14.00">value = [0.962, 15.609]</text>
<text text-anchor="middle" x="1456" y="-7.8" font-family="Times,serif" font-size="14.00">class = Obstructive</text>
</g>
<!-- 17&#45;&gt;19 -->
<g id="edge19" class="edge">
<title>17&#45;&gt;19</title>
<path fill="none" stroke="black" d="M1392.21,-118.87C1399.81,-109.76 1407.77,-100.23 1415.39,-91.12"/>
<polygon fill="black" stroke="black" points="1418.25,-93.15 1421.98,-83.23 1412.88,-88.66 1418.25,-93.15"/>
</g>
<!-- 21 -->
<g id="node22" class="node">
<title>21</title>
<polygon fill="none" stroke="black" points="1755,-83 1567,-83 1567,0 1755,0 1755,-83"/>
<text text-anchor="middle" x="1661" y="-67.8" font-family="Times,serif" font-size="14.00">node #21</text>
<text text-anchor="middle" x="1661" y="-52.8" font-family="Times,serif" font-size="14.00">gini = 0.0</text>
<text text-anchor="middle" x="1661" y="-37.8" font-family="Times,serif" font-size="14.00">samples = 18</text>
<text text-anchor="middle" x="1661" y="-22.8" font-family="Times,serif" font-size="14.00">value = [25.023, 0.0]</text>
<text text-anchor="middle" x="1661" y="-7.8" font-family="Times,serif" font-size="14.00">class = Non&#45;obstructive</text>
</g>
<!-- 20&#45;&gt;21 -->
<g id="edge21" class="edge">
<title>20&#45;&gt;21</title>
<path fill="none" stroke="black" d="M1661,-118.87C1661,-110.5 1661,-101.77 1661,-93.33"/>
<polygon fill="black" stroke="black" points="1664.5,-93.23 1661,-83.23 1657.5,-93.23 1664.5,-93.23"/>
</g>
<!-- 22 -->
<g id="node23" class="node">
<title>22</title>
<polygon fill="none" stroke="black" points="1931,-83 1773,-83 1773,0 1931,0 1931,-83"/>
<text text-anchor="middle" x="1852" y="-67.8" font-family="Times,serif" font-size="14.00">node #22</text>
<text text-anchor="middle" x="1852" y="-52.8" font-family="Times,serif" font-size="14.00">gini = &#45;0.0</text>
<text text-anchor="middle" x="1852" y="-37.8" font-family="Times,serif" font-size="14.00">samples = 1</text>
<text text-anchor="middle" x="1852" y="-22.8" font-family="Times,serif" font-size="14.00">value = [0.0, 1.041]</text>
<text text-anchor="middle" x="1852" y="-7.8" font-family="Times,serif" font-size="14.00">class = Obstructive</text>
</g>
<!-- 20&#45;&gt;22 -->
<g id="edge22" class="edge">
<title>20&#45;&gt;22</title>
<path fill="none" stroke="black" d="M1734.85,-118.87C1750.03,-108.97 1765.98,-98.57 1781.05,-88.74"/>
<polygon fill="black" stroke="black" points="1783.35,-91.43 1789.82,-83.03 1779.53,-85.56 1783.35,-91.43"/>
</g>
</g>
</svg>
