<?xml version="1.0" encoding="UTF-8" standalone="no"?>
<!DOCTYPE svg PUBLIC "-//W3C//DTD SVG 1.1//EN"
 "http://www.w3.org/Graphics/SVG/1.1/DTD/svg11.dtd">
<!-- Generated by graphviz version 2.43.0 (0)
 -->
<!-- Title: Tree Pages: 1 -->
<svg width="1788pt" height="627pt"
 viewBox="0.00 0.00 1788.00 627.00" xmlns="http://www.w3.org/2000/svg" xmlns:xlink="http://www.w3.org/1999/xlink">
<g id="graph0" class="graph" transform="scale(1 1) rotate(0) translate(4 623)">
<title>Tree</title>
<polygon fill="white" stroke="transparent" points="-4,4 -4,-623 1784,-623 1784,4 -4,4"/>
<!-- 0 -->
<g id="node1" class="node">
<title>0</title>
<polygon fill="none" stroke="black" points="683.5,-619 486.5,-619 486.5,-521 683.5,-521 683.5,-619"/>
<text text-anchor="middle" x="585" y="-603.8" font-family="Times,serif" font-size="14.00">node #0</text>
<text text-anchor="middle" x="585" y="-588.8" font-family="Times,serif" font-size="14.00">FVCPostPercent &lt;= 42.5</text>
<text text-anchor="middle" x="585" y="-573.8" font-family="Times,serif" font-size="14.00">gini = 0.5</text>
<text text-anchor="middle" x="585" y="-558.8" font-family="Times,serif" font-size="14.00">samples = 205</text>
<text text-anchor="middle" x="585" y="-543.8" font-family="Times,serif" font-size="14.00">value = [166.5, 166.5]</text>
<text text-anchor="middle" x="585" y="-528.8" font-family="Times,serif" font-size="14.00">class = Non&#45;obstructive</text>
</g>
<!-- 1 -->
<g id="node2" class="node">
<title>1</title>
<polygon fill="none" stroke="black" points="570.5,-485 379.5,-485 379.5,-387 570.5,-387 570.5,-485"/>
<text text-anchor="middle" x="475" y="-469.8" font-family="Times,serif" font-size="14.00">node #1</text>
<text text-anchor="middle" x="475" y="-454.8" font-family="Times,serif" font-size="14.00">FEFPrePercent &lt;= 16.0</text>
<text text-anchor="middle" x="475" y="-439.8" font-family="Times,serif" font-size="14.00">gini = 0.232</text>
<text text-anchor="middle" x="475" y="-424.8" font-family="Times,serif" font-size="14.00">samples = 29</text>
<text text-anchor="middle" x="475" y="-409.8" font-family="Times,serif" font-size="14.00">value = [41.858, 6.487]</text>
<text text-anchor="middle" x="475" y="-394.8" font-family="Times,serif" font-size="14.00">class = Non&#45;obstructive</text>
</g>
<!-- 0&#45;&gt;1 -->
<g id="edge1" class="edge">
<title>0&#45;&gt;1</title>
<path fill="none" stroke="black" d="M544.98,-520.97C537.39,-511.87 529.4,-502.28 521.63,-492.96"/>
<polygon fill="black" stroke="black" points="524.27,-490.66 515.18,-485.21 518.89,-495.14 524.27,-490.66"/>
<text text-anchor="middle" x="512.91" y="-506.41" font-family="Times,serif" font-size="14.00">True</text>
</g>
<!-- 6 -->
<g id="node7" class="node">
<title>6</title>
<polygon fill="none" stroke="black" points="801,-485 589,-485 589,-387 801,-387 801,-485"/>
<text text-anchor="middle" x="695" y="-469.8" font-family="Times,serif" font-size="14.00">node #6</text>
<text text-anchor="middle" x="695" y="-454.8" font-family="Times,serif" font-size="14.00">FEV1PrePercent &lt;= 46.47</text>
<text text-anchor="middle" x="695" y="-439.8" font-family="Times,serif" font-size="14.00">gini = 0.492</text>
<text text-anchor="middle" x="695" y="-424.8" font-family="Times,serif" font-size="14.00">samples = 176</text>
<text text-anchor="middle" x="695" y="-409.8" font-family="Times,serif" font-size="14.00">value = [124.642, 160.013]</text>
<text text-anchor="middle" x="695" y="-394.8" font-family="Times,serif" font-size="14.00">class = Obstructive</text>
</g>
<!-- 0&#45;&gt;6 -->
<g id="edge6" class="edge">
<title>0&#45;&gt;6</title>
<path fill="none" stroke="black" d="M625.02,-520.97C632.61,-511.87 640.6,-502.28 648.37,-492.96"/>
<polygon fill="black" stroke="black" points="651.11,-495.14 654.82,-485.21 645.73,-490.66 651.11,-495.14"/>
<text text-anchor="middle" x="657.09" y="-506.41" font-family="Times,serif" font-size="14.00">False</text>
</g>
<!-- 2 -->
<g id="node3" class="node">
<title>2</title>
<polygon fill="none" stroke="black" points="366.5,-351 169.5,-351 169.5,-253 366.5,-253 366.5,-351"/>
<text text-anchor="middle" x="268" y="-335.8" font-family="Times,serif" font-size="14.00">node #2</text>
<text text-anchor="middle" x="268" y="-320.8" font-family="Times,serif" font-size="14.00">FEFPostPercent &lt;= 10.5</text>
<text text-anchor="middle" x="268" y="-305.8" font-family="Times,serif" font-size="14.00">gini = 0.219</text>
<text text-anchor="middle" x="268" y="-290.8" font-family="Times,serif" font-size="14.00">samples = 4</text>
<text text-anchor="middle" x="268" y="-275.8" font-family="Times,serif" font-size="14.00">value = [0.93, 6.487]</text>
<text text-anchor="middle" x="268" y="-260.8" font-family="Times,serif" font-size="14.00">class = Obstructive</text>
</g>
<!-- 1&#45;&gt;2 -->
<g id="edge2" class="edge">
<title>1&#45;&gt;2</title>
<path fill="none" stroke="black" d="M399.68,-386.97C384.27,-377.14 367.96,-366.74 352.26,-356.73"/>
<polygon fill="black" stroke="black" points="353.92,-353.64 343.61,-351.21 350.16,-359.54 353.92,-353.64"/>
</g>
<!-- 5 -->
<g id="node6" class="node">
<title>5</title>
<polygon fill="none" stroke="black" points="573,-343.5 385,-343.5 385,-260.5 573,-260.5 573,-343.5"/>
<text text-anchor="middle" x="479" y="-328.3" font-family="Times,serif" font-size="14.00">node #5</text>
<text text-anchor="middle" x="479" y="-313.3" font-family="Times,serif" font-size="14.00">gini = 0.0</text>
<text text-anchor="middle" x="479" y="-298.3" font-family="Times,serif" font-size="14.00">samples = 25</text>
<text text-anchor="middle" x="479" y="-283.3" font-family="Times,serif" font-size="14.00">value = [40.927, 0.0]</text>
<text text-anchor="middle" x="479" y="-268.3" font-family="Times,serif" font-size="14.00">class = Non&#45;obstructive</text>
</g>
<!-- 1&#45;&gt;5 -->
<g id="edge5" class="edge">
<title>1&#45;&gt;5</title>
<path fill="none" stroke="black" d="M476.46,-386.97C476.78,-376.25 477.13,-364.84 477.45,-353.99"/>
<polygon fill="black" stroke="black" points="480.96,-353.92 477.76,-343.82 473.96,-353.71 480.96,-353.92"/>
</g>
<!-- 3 -->
<g id="node4" class="node">
<title>3</title>
<polygon fill="none" stroke="black" points="158,-209.5 0,-209.5 0,-126.5 158,-126.5 158,-209.5"/>
<text text-anchor="middle" x="79" y="-194.3" font-family="Times,serif" font-size="14.00">node #3</text>
<text text-anchor="middle" x="79" y="-179.3" font-family="Times,serif" font-size="14.00">gini = 0.0</text>
<text text-anchor="middle" x="79" y="-164.3" font-family="Times,serif" font-size="14.00">samples = 3</text>
<text text-anchor="middle" x="79" y="-149.3" font-family="Times,serif" font-size="14.00">value = [0.0, 6.487]</text>
<text text-anchor="middle" x="79" y="-134.3" font-family="Times,serif" font-size="14.00">class = Obstructive</text>
</g>
<!-- 2&#45;&gt;3 -->
<g id="edge3" class="edge">
<title>2&#45;&gt;3</title>
<path fill="none" stroke="black" d="M199.23,-252.97C181.73,-240.75 162.95,-227.63 145.55,-215.48"/>
<polygon fill="black" stroke="black" points="147.34,-212.46 137.14,-209.6 143.33,-218.2 147.34,-212.46"/>
</g>
<!-- 4 -->
<g id="node5" class="node">
<title>4</title>
<polygon fill="none" stroke="black" points="364,-209.5 176,-209.5 176,-126.5 364,-126.5 364,-209.5"/>
<text text-anchor="middle" x="270" y="-194.3" font-family="Times,serif" font-size="14.00">node #4</text>
<text text-anchor="middle" x="270" y="-179.3" font-family="Times,serif" font-size="14.00">gini = 0.0</text>
<text text-anchor="middle" x="270" y="-164.3" font-family="Times,serif" font-size="14.00">samples = 1</text>
<text text-anchor="middle" x="270" y="-149.3" font-family="Times,serif" font-size="14.00">value = [0.93, 0.0]</text>
<text text-anchor="middle" x="270" y="-134.3" font-family="Times,serif" font-size="14.00">class = Non&#45;obstructive</text>
</g>
<!-- 2&#45;&gt;4 -->
<g id="edge4" class="edge">
<title>2&#45;&gt;4</title>
<path fill="none" stroke="black" d="M268.73,-252.97C268.89,-242.25 269.06,-230.84 269.23,-219.99"/>
<polygon fill="black" stroke="black" points="272.73,-219.87 269.38,-209.82 265.73,-219.76 272.73,-219.87"/>
</g>
<!-- 7 -->
<g id="node8" class="node">
<title>7</title>
<polygon fill="none" stroke="black" points="786.5,-351 601.5,-351 601.5,-253 786.5,-253 786.5,-351"/>
<text text-anchor="middle" x="694" y="-335.8" font-family="Times,serif" font-size="14.00">node #7</text>
<text text-anchor="middle" x="694" y="-320.8" font-family="Times,serif" font-size="14.00">FVCPreVal &lt;= 1.06</text>
<text text-anchor="middle" x="694" y="-305.8" font-family="Times,serif" font-size="14.00">gini = 0.094</text>
<text text-anchor="middle" x="694" y="-290.8" font-family="Times,serif" font-size="14.00">samples = 48</text>
<text text-anchor="middle" x="694" y="-275.8" font-family="Times,serif" font-size="14.00">value = [3.721, 71.357]</text>
<text text-anchor="middle" x="694" y="-260.8" font-family="Times,serif" font-size="14.00">class = Obstructive</text>
</g>
<!-- 6&#45;&gt;7 -->
<g id="edge7" class="edge">
<title>6&#45;&gt;7</title>
<path fill="none" stroke="black" d="M694.64,-386.97C694.57,-378.69 694.51,-370 694.44,-361.48"/>
<polygon fill="black" stroke="black" points="697.94,-361.19 694.37,-351.21 690.94,-361.24 697.94,-361.19"/>
</g>
<!-- 14 -->
<g id="node15" class="node">
<title>14</title>
<polygon fill="none" stroke="black" points="1265.5,-351 1062.5,-351 1062.5,-253 1265.5,-253 1265.5,-351"/>
<text text-anchor="middle" x="1164" y="-335.8" font-family="Times,serif" font-size="14.00">node #14</text>
<text text-anchor="middle" x="1164" y="-320.8" font-family="Times,serif" font-size="14.00">FEFPostVal &lt;= 2.075</text>
<text text-anchor="middle" x="1164" y="-305.8" font-family="Times,serif" font-size="14.00">gini = 0.488</text>
<text text-anchor="middle" x="1164" y="-290.8" font-family="Times,serif" font-size="14.00">samples = 128</text>
<text text-anchor="middle" x="1164" y="-275.8" font-family="Times,serif" font-size="14.00">value = [120.922, 88.656]</text>
<text text-anchor="middle" x="1164" y="-260.8" font-family="Times,serif" font-size="14.00">class = Non&#45;obstructive</text>
</g>
<!-- 6&#45;&gt;14 -->
<g id="edge14" class="edge">
<title>6&#45;&gt;14</title>
<path fill="none" stroke="black" d="M801.13,-405.13C876.15,-384.02 976.5,-355.77 1052.66,-334.34"/>
<polygon fill="black" stroke="black" points="1053.62,-337.7 1062.3,-331.62 1051.72,-330.96 1053.62,-337.7"/>
</g>
<!-- 8 -->
<g id="node9" class="node">
<title>8</title>
<polygon fill="none" stroke="black" points="586.5,-217 389.5,-217 389.5,-119 586.5,-119 586.5,-217"/>
<text text-anchor="middle" x="488" y="-201.8" font-family="Times,serif" font-size="14.00">node #8</text>
<text text-anchor="middle" x="488" y="-186.8" font-family="Times,serif" font-size="14.00">FEFPostPercent &lt;= 19.0</text>
<text text-anchor="middle" x="488" y="-171.8" font-family="Times,serif" font-size="14.00">gini = 0.403</text>
<text text-anchor="middle" x="488" y="-156.8" font-family="Times,serif" font-size="14.00">samples = 3</text>
<text text-anchor="middle" x="488" y="-141.8" font-family="Times,serif" font-size="14.00">value = [2.791, 1.081]</text>
<text text-anchor="middle" x="488" y="-126.8" font-family="Times,serif" font-size="14.00">class = Non&#45;obstructive</text>
</g>
<!-- 7&#45;&gt;8 -->
<g id="edge8" class="edge">
<title>7&#45;&gt;8</title>
<path fill="none" stroke="black" d="M619.05,-252.97C603.71,-243.14 587.48,-232.74 571.85,-222.73"/>
<polygon fill="black" stroke="black" points="573.55,-219.66 563.24,-217.21 569.77,-225.56 573.55,-219.66"/>
</g>
<!-- 11 -->
<g id="node12" class="node">
<title>11</title>
<polygon fill="none" stroke="black" points="782,-217 606,-217 606,-119 782,-119 782,-217"/>
<text text-anchor="middle" x="694" y="-201.8" font-family="Times,serif" font-size="14.00">node #11</text>
<text text-anchor="middle" x="694" y="-186.8" font-family="Times,serif" font-size="14.00">FEFPreVal &lt;= 1.817</text>
<text text-anchor="middle" x="694" y="-171.8" font-family="Times,serif" font-size="14.00">gini = 0.026</text>
<text text-anchor="middle" x="694" y="-156.8" font-family="Times,serif" font-size="14.00">samples = 45</text>
<text text-anchor="middle" x="694" y="-141.8" font-family="Times,serif" font-size="14.00">value = [0.93, 70.276]</text>
<text text-anchor="middle" x="694" y="-126.8" font-family="Times,serif" font-size="14.00">class = Obstructive</text>
</g>
<!-- 7&#45;&gt;11 -->
<g id="edge11" class="edge">
<title>7&#45;&gt;11</title>
<path fill="none" stroke="black" d="M694,-252.97C694,-244.69 694,-236 694,-227.48"/>
<polygon fill="black" stroke="black" points="697.5,-227.21 694,-217.21 690.5,-227.21 697.5,-227.21"/>
</g>
<!-- 9 -->
<g id="node10" class="node">
<title>9</title>
<polygon fill="none" stroke="black" points="376,-83 218,-83 218,0 376,0 376,-83"/>
<text text-anchor="middle" x="297" y="-67.8" font-family="Times,serif" font-size="14.00">node #9</text>
<text text-anchor="middle" x="297" y="-52.8" font-family="Times,serif" font-size="14.00">gini = 0.0</text>
<text text-anchor="middle" x="297" y="-37.8" font-family="Times,serif" font-size="14.00">samples = 1</text>
<text text-anchor="middle" x="297" y="-22.8" font-family="Times,serif" font-size="14.00">value = [0.0, 1.081]</text>
<text text-anchor="middle" x="297" y="-7.8" font-family="Times,serif" font-size="14.00">class = Obstructive</text>
</g>
<!-- 8&#45;&gt;9 -->
<g id="edge9" class="edge">
<title>8&#45;&gt;9</title>
<path fill="none" stroke="black" d="M414.15,-118.87C398.97,-108.97 383.02,-98.57 367.95,-88.74"/>
<polygon fill="black" stroke="black" points="369.47,-85.56 359.18,-83.03 365.65,-91.43 369.47,-85.56"/>
</g>
<!-- 10 -->
<g id="node11" class="node">
<title>10</title>
<polygon fill="none" stroke="black" points="582,-83 394,-83 394,0 582,0 582,-83"/>
<text text-anchor="middle" x="488" y="-67.8" font-family="Times,serif" font-size="14.00">node #10</text>
<text text-anchor="middle" x="488" y="-52.8" font-family="Times,serif" font-size="14.00">gini = 0.0</text>
<text text-anchor="middle" x="488" y="-37.8" font-family="Times,serif" font-size="14.00">samples = 2</text>
<text text-anchor="middle" x="488" y="-22.8" font-family="Times,serif" font-size="14.00">value = [2.791, 0.0]</text>
<text text-anchor="middle" x="488" y="-7.8" font-family="Times,serif" font-size="14.00">class = Non&#45;obstructive</text>
</g>
<!-- 8&#45;&gt;10 -->
<g id="edge10" class="edge">
<title>8&#45;&gt;10</title>
<path fill="none" stroke="black" d="M488,-118.87C488,-110.5 488,-101.77 488,-93.33"/>
<polygon fill="black" stroke="black" points="491.5,-93.23 488,-83.23 484.5,-93.23 491.5,-93.23"/>
</g>
<!-- 12 -->
<g id="node13" class="node">
<title>12</title>
<polygon fill="none" stroke="black" points="767.5,-83 600.5,-83 600.5,0 767.5,0 767.5,-83"/>
<text text-anchor="middle" x="684" y="-67.8" font-family="Times,serif" font-size="14.00">node #12</text>
<text text-anchor="middle" x="684" y="-52.8" font-family="Times,serif" font-size="14.00">gini = 0.0</text>
<text text-anchor="middle" x="684" y="-37.8" font-family="Times,serif" font-size="14.00">samples = 43</text>
<text text-anchor="middle" x="684" y="-22.8" font-family="Times,serif" font-size="14.00">value = [0.0, 67.032]</text>
<text text-anchor="middle" x="684" y="-7.8" font-family="Times,serif" font-size="14.00">class = Obstructive</text>
</g>
<!-- 11&#45;&gt;12 -->
<g id="edge12" class="edge">
<title>11&#45;&gt;12</title>
<path fill="none" stroke="black" d="M690.13,-118.87C689.46,-110.5 688.76,-101.77 688.08,-93.33"/>
<polygon fill="black" stroke="black" points="691.56,-92.92 687.27,-83.23 684.58,-93.48 691.56,-92.92"/>
</g>
<!-- 13 -->
<g id="node14" class="node">
<title>13</title>
<polygon fill="none" stroke="black" points="952.5,-83 785.5,-83 785.5,0 952.5,0 952.5,-83"/>
<text text-anchor="middle" x="869" y="-67.8" font-family="Times,serif" font-size="14.00">node #13</text>
<text text-anchor="middle" x="869" y="-52.8" font-family="Times,serif" font-size="14.00">gini = 0.346</text>
<text text-anchor="middle" x="869" y="-37.8" font-family="Times,serif" font-size="14.00">samples = 2</text>
<text text-anchor="middle" x="869" y="-22.8" font-family="Times,serif" font-size="14.00">value = [0.93, 3.244]</text>
<text text-anchor="middle" x="869" y="-7.8" font-family="Times,serif" font-size="14.00">class = Obstructive</text>
</g>
<!-- 11&#45;&gt;13 -->
<g id="edge13" class="edge">
<title>11&#45;&gt;13</title>
<path fill="none" stroke="black" d="M761.66,-118.87C775.44,-109.06 789.91,-98.77 803.61,-89.02"/>
<polygon fill="black" stroke="black" points="805.91,-91.68 812.03,-83.03 801.85,-85.98 805.91,-91.68"/>
</g>
<!-- 15 -->
<g id="node16" class="node">
<title>15</title>
<polygon fill="none" stroke="black" points="1261,-217 1067,-217 1067,-119 1261,-119 1261,-217"/>
<text text-anchor="middle" x="1164" y="-201.8" font-family="Times,serif" font-size="14.00">node #15</text>
<text text-anchor="middle" x="1164" y="-186.8" font-family="Times,serif" font-size="14.00">FVCPostVal &lt;= 2.355</text>
<text text-anchor="middle" x="1164" y="-171.8" font-family="Times,serif" font-size="14.00">gini = 0.431</text>
<text text-anchor="middle" x="1164" y="-156.8" font-family="Times,serif" font-size="14.00">samples = 60</text>
<text text-anchor="middle" x="1164" y="-141.8" font-family="Times,serif" font-size="14.00">value = [30.696, 67.032]</text>
<text text-anchor="middle" x="1164" y="-126.8" font-family="Times,serif" font-size="14.00">class = Obstructive</text>
</g>
<!-- 14&#45;&gt;15 -->
<g id="edge15" class="edge">
<title>14&#45;&gt;15</title>
<path fill="none" stroke="black" d="M1164,-252.97C1164,-244.69 1164,-236 1164,-227.48"/>
<polygon fill="black" stroke="black" points="1167.5,-227.21 1164,-217.21 1160.5,-227.21 1167.5,-227.21"/>
</g>
<!-- 18 -->
<g id="node19" class="node">
<title>18</title>
<polygon fill="none" stroke="black" points="1575.5,-217 1378.5,-217 1378.5,-119 1575.5,-119 1575.5,-217"/>
<text text-anchor="middle" x="1477" y="-201.8" font-family="Times,serif" font-size="14.00">node #18</text>
<text text-anchor="middle" x="1477" y="-186.8" font-family="Times,serif" font-size="14.00">FEFPostPercent &lt;= 91.5</text>
<text text-anchor="middle" x="1477" y="-171.8" font-family="Times,serif" font-size="14.00">gini = 0.312</text>
<text text-anchor="middle" x="1477" y="-156.8" font-family="Times,serif" font-size="14.00">samples = 68</text>
<text text-anchor="middle" x="1477" y="-141.8" font-family="Times,serif" font-size="14.00">value = [90.226, 21.623]</text>
<text text-anchor="middle" x="1477" y="-126.8" font-family="Times,serif" font-size="14.00">class = Non&#45;obstructive</text>
</g>
<!-- 14&#45;&gt;18 -->
<g id="edge18" class="edge">
<title>14&#45;&gt;18</title>
<path fill="none" stroke="black" d="M1265.62,-258.14C1298.66,-244.21 1335.44,-228.7 1368.93,-214.57"/>
<polygon fill="black" stroke="black" points="1370.43,-217.74 1378.29,-210.63 1367.71,-211.29 1370.43,-217.74"/>
</g>
<!-- 16 -->
<g id="node17" class="node">
<title>16</title>
<polygon fill="none" stroke="black" points="1159,-83 971,-83 971,0 1159,0 1159,-83"/>
<text text-anchor="middle" x="1065" y="-67.8" font-family="Times,serif" font-size="14.00">node #16</text>
<text text-anchor="middle" x="1065" y="-52.8" font-family="Times,serif" font-size="14.00">gini = 0.495</text>
<text text-anchor="middle" x="1065" y="-37.8" font-family="Times,serif" font-size="14.00">samples = 27</text>
<text text-anchor="middle" x="1065" y="-22.8" font-family="Times,serif" font-size="14.00">value = [22.324, 18.38]</text>
<text text-anchor="middle" x="1065" y="-7.8" font-family="Times,serif" font-size="14.00">class = Non&#45;obstructive</text>
</g>
<!-- 15&#45;&gt;16 -->
<g id="edge16" class="edge">
<title>15&#45;&gt;16</title>
<path fill="none" stroke="black" d="M1125.72,-118.87C1118.49,-109.76 1110.91,-100.23 1103.66,-91.12"/>
<polygon fill="black" stroke="black" points="1106.35,-88.88 1097.39,-83.23 1100.87,-93.24 1106.35,-88.88"/>
</g>
<!-- 17 -->
<g id="node18" class="node">
<title>17</title>
<polygon fill="none" stroke="black" points="1362.5,-83 1177.5,-83 1177.5,0 1362.5,0 1362.5,-83"/>
<text text-anchor="middle" x="1270" y="-67.8" font-family="Times,serif" font-size="14.00">node #17</text>
<text text-anchor="middle" x="1270" y="-52.8" font-family="Times,serif" font-size="14.00">gini = 0.251</text>
<text text-anchor="middle" x="1270" y="-37.8" font-family="Times,serif" font-size="14.00">samples = 33</text>
<text text-anchor="middle" x="1270" y="-22.8" font-family="Times,serif" font-size="14.00">value = [8.372, 48.653]</text>
<text text-anchor="middle" x="1270" y="-7.8" font-family="Times,serif" font-size="14.00">class = Obstructive</text>
</g>
<!-- 15&#45;&gt;17 -->
<g id="edge17" class="edge">
<title>15&#45;&gt;17</title>
<path fill="none" stroke="black" d="M1204.98,-118.87C1212.73,-109.76 1220.84,-100.23 1228.61,-91.12"/>
<polygon fill="black" stroke="black" points="1231.5,-93.11 1235.32,-83.23 1226.17,-88.58 1231.5,-93.11"/>
</g>
<!-- 19 -->
<g id="node20" class="node">
<title>19</title>
<polygon fill="none" stroke="black" points="1574,-83 1380,-83 1380,0 1574,0 1574,-83"/>
<text text-anchor="middle" x="1477" y="-67.8" font-family="Times,serif" font-size="14.00">node #19</text>
<text text-anchor="middle" x="1477" y="-52.8" font-family="Times,serif" font-size="14.00">gini = 0.452</text>
<text text-anchor="middle" x="1477" y="-37.8" font-family="Times,serif" font-size="14.00">samples = 34</text>
<text text-anchor="middle" x="1477" y="-22.8" font-family="Times,serif" font-size="14.00">value = [39.067, 20.542]</text>
<text text-anchor="middle" x="1477" y="-7.8" font-family="Times,serif" font-size="14.00">class = Non&#45;obstructive</text>
</g>
<!-- 18&#45;&gt;19 -->
<g id="edge19" class="edge">
<title>18&#45;&gt;19</title>
<path fill="none" stroke="black" d="M1477,-118.87C1477,-110.5 1477,-101.77 1477,-93.33"/>
<polygon fill="black" stroke="black" points="1480.5,-93.23 1477,-83.23 1473.5,-93.23 1480.5,-93.23"/>
</g>
<!-- 20 -->
<g id="node21" class="node">
<title>20</title>
<polygon fill="none" stroke="black" points="1780,-83 1592,-83 1592,0 1780,0 1780,-83"/>
<text text-anchor="middle" x="1686" y="-67.8" font-family="Times,serif" font-size="14.00">node #20</text>
<text text-anchor="middle" x="1686" y="-52.8" font-family="Times,serif" font-size="14.00">gini = 0.041</text>
<text text-anchor="middle" x="1686" y="-37.8" font-family="Times,serif" font-size="14.00">samples = 34</text>
<text text-anchor="middle" x="1686" y="-22.8" font-family="Times,serif" font-size="14.00">value = [51.159, 1.081]</text>
<text text-anchor="middle" x="1686" y="-7.8" font-family="Times,serif" font-size="14.00">class = Non&#45;obstructive</text>
</g>
<!-- 18&#45;&gt;20 -->
<g id="edge20" class="edge">
<title>18&#45;&gt;20</title>
<path fill="none" stroke="black" d="M1557.8,-118.87C1574.73,-108.78 1592.52,-98.18 1609.29,-88.19"/>
<polygon fill="black" stroke="black" points="1611.16,-91.16 1617.96,-83.03 1607.58,-85.14 1611.16,-91.16"/>
</g>
</g>
</svg>
