<?xml version="1.0" encoding="UTF-8" standalone="no"?>
<!DOCTYPE svg PUBLIC "-//W3C//DTD SVG 1.1//EN"
 "http://www.w3.org/Graphics/SVG/1.1/DTD/svg11.dtd">
<!-- Generated by graphviz version 2.43.0 (0)
 -->
<!-- Title: Tree Pages: 1 -->
<svg width="1800pt" height="627pt"
 viewBox="0.00 0.00 1800.00 627.00" xmlns="http://www.w3.org/2000/svg" xmlns:xlink="http://www.w3.org/1999/xlink">
<g id="graph0" class="graph" transform="scale(1 1) rotate(0) translate(4 623)">
<title>Tree</title>
<polygon fill="white" stroke="transparent" points="-4,4 -4,-623 1796,-623 1796,4 -4,4"/>
<!-- 0 -->
<g id="node1" class="node">
<title>0</title>
<polygon fill="none" stroke="black" points="1093.5,-619 902.5,-619 902.5,-521 1093.5,-521 1093.5,-619"/>
<text text-anchor="middle" x="998" y="-603.8" font-family="Times,serif" font-size="14.00">node #0</text>
<text text-anchor="middle" x="998" y="-588.8" font-family="Times,serif" font-size="14.00">FEFPrePercent &lt;= 57.5</text>
<text text-anchor="middle" x="998" y="-573.8" font-family="Times,serif" font-size="14.00">gini = 0.5</text>
<text text-anchor="middle" x="998" y="-558.8" font-family="Times,serif" font-size="14.00">samples = 213</text>
<text text-anchor="middle" x="998" y="-543.8" font-family="Times,serif" font-size="14.00">value = [166.5, 166.5]</text>
<text text-anchor="middle" x="998" y="-528.8" font-family="Times,serif" font-size="14.00">class = Non&#45;obstructive</text>
</g>
<!-- 1 -->
<g id="node2" class="node">
<title>1</title>
<polygon fill="none" stroke="black" points="878.5,-485 693.5,-485 693.5,-387 878.5,-387 878.5,-485"/>
<text text-anchor="middle" x="786" y="-469.8" font-family="Times,serif" font-size="14.00">node #1</text>
<text text-anchor="middle" x="786" y="-454.8" font-family="Times,serif" font-size="14.00">FEFPreVal &lt;= 1.357</text>
<text text-anchor="middle" x="786" y="-439.8" font-family="Times,serif" font-size="14.00">gini = 0.351</text>
<text text-anchor="middle" x="786" y="-424.8" font-family="Times,serif" font-size="14.00">samples = 131</text>
<text text-anchor="middle" x="786" y="-409.8" font-family="Times,serif" font-size="14.00">value = [43.529, 148.0]</text>
<text text-anchor="middle" x="786" y="-394.8" font-family="Times,serif" font-size="14.00">class = Obstructive</text>
</g>
<!-- 0&#45;&gt;1 -->
<g id="edge1" class="edge">
<title>0&#45;&gt;1</title>
<path fill="none" stroke="black" d="M920.86,-520.97C905.08,-511.14 888.37,-500.74 872.29,-490.73"/>
<polygon fill="black" stroke="black" points="873.77,-487.53 863.43,-485.21 870.07,-493.47 873.77,-487.53"/>
<text text-anchor="middle" x="869.1" y="-505.86" font-family="Times,serif" font-size="14.00">True</text>
</g>
<!-- 14 -->
<g id="node15" class="node">
<title>14</title>
<polygon fill="none" stroke="black" points="1283,-485 1095,-485 1095,-387 1283,-387 1283,-485"/>
<text text-anchor="middle" x="1189" y="-469.8" font-family="Times,serif" font-size="14.00">node #14</text>
<text text-anchor="middle" x="1189" y="-454.8" font-family="Times,serif" font-size="14.00">FEV1PostVal &lt;= 1.925</text>
<text text-anchor="middle" x="1189" y="-439.8" font-family="Times,serif" font-size="14.00">gini = 0.227</text>
<text text-anchor="middle" x="1189" y="-424.8" font-family="Times,serif" font-size="14.00">samples = 82</text>
<text text-anchor="middle" x="1189" y="-409.8" font-family="Times,serif" font-size="14.00">value = [122.971, 18.5]</text>
<text text-anchor="middle" x="1189" y="-394.8" font-family="Times,serif" font-size="14.00">class = Non&#45;obstructive</text>
</g>
<!-- 0&#45;&gt;14 -->
<g id="edge14" class="edge">
<title>0&#45;&gt;14</title>
<path fill="none" stroke="black" d="M1067.5,-520.97C1081.58,-511.24 1096.49,-500.93 1110.85,-491.01"/>
<polygon fill="black" stroke="black" points="1113,-493.78 1119.24,-485.21 1109.02,-488.02 1113,-493.78"/>
<text text-anchor="middle" x="1114.74" y="-506.11" font-family="Times,serif" font-size="14.00">False</text>
</g>
<!-- 2 -->
<g id="node3" class="node">
<title>2</title>
<polygon fill="none" stroke="black" points="400.5,-351 209.5,-351 209.5,-253 400.5,-253 400.5,-351"/>
<text text-anchor="middle" x="305" y="-335.8" font-family="Times,serif" font-size="14.00">node #2</text>
<text text-anchor="middle" x="305" y="-320.8" font-family="Times,serif" font-size="14.00">FVCPrePercent &lt;= 33.5</text>
<text text-anchor="middle" x="305" y="-305.8" font-family="Times,serif" font-size="14.00">gini = 0.214</text>
<text text-anchor="middle" x="305" y="-290.8" font-family="Times,serif" font-size="14.00">samples = 103</text>
<text text-anchor="middle" x="305" y="-275.8" font-family="Times,serif" font-size="14.00">value = [17.412, 125.8]</text>
<text text-anchor="middle" x="305" y="-260.8" font-family="Times,serif" font-size="14.00">class = Obstructive</text>
</g>
<!-- 1&#45;&gt;2 -->
<g id="edge2" class="edge">
<title>1&#45;&gt;2</title>
<path fill="none" stroke="black" d="M693.26,-409.55C612.38,-387.35 495.1,-355.17 410.62,-331.99"/>
<polygon fill="black" stroke="black" points="411.32,-328.55 400.75,-329.28 409.47,-335.3 411.32,-328.55"/>
</g>
<!-- 7 -->
<g id="node8" class="node">
<title>7</title>
<polygon fill="none" stroke="black" points="880,-351 692,-351 692,-253 880,-253 880,-351"/>
<text text-anchor="middle" x="786" y="-335.8" font-family="Times,serif" font-size="14.00">node #7</text>
<text text-anchor="middle" x="786" y="-320.8" font-family="Times,serif" font-size="14.00">FEFPostVal &lt;= 1.72</text>
<text text-anchor="middle" x="786" y="-305.8" font-family="Times,serif" font-size="14.00">gini = 0.497</text>
<text text-anchor="middle" x="786" y="-290.8" font-family="Times,serif" font-size="14.00">samples = 28</text>
<text text-anchor="middle" x="786" y="-275.8" font-family="Times,serif" font-size="14.00">value = [26.118, 22.2]</text>
<text text-anchor="middle" x="786" y="-260.8" font-family="Times,serif" font-size="14.00">class = Non&#45;obstructive</text>
</g>
<!-- 1&#45;&gt;7 -->
<g id="edge7" class="edge">
<title>1&#45;&gt;7</title>
<path fill="none" stroke="black" d="M786,-386.97C786,-378.69 786,-370 786,-361.48"/>
<polygon fill="black" stroke="black" points="789.5,-361.21 786,-351.21 782.5,-361.21 789.5,-361.21"/>
</g>
<!-- 3 -->
<g id="node4" class="node">
<title>3</title>
<polygon fill="none" stroke="black" points="188,-209.5 0,-209.5 0,-126.5 188,-126.5 188,-209.5"/>
<text text-anchor="middle" x="94" y="-194.3" font-family="Times,serif" font-size="14.00">node #3</text>
<text text-anchor="middle" x="94" y="-179.3" font-family="Times,serif" font-size="14.00">gini = 0.0</text>
<text text-anchor="middle" x="94" y="-164.3" font-family="Times,serif" font-size="14.00">samples = 2</text>
<text text-anchor="middle" x="94" y="-149.3" font-family="Times,serif" font-size="14.00">value = [2.176, 0.0]</text>
<text text-anchor="middle" x="94" y="-134.3" font-family="Times,serif" font-size="14.00">class = Non&#45;obstructive</text>
</g>
<!-- 2&#45;&gt;3 -->
<g id="edge3" class="edge">
<title>2&#45;&gt;3</title>
<path fill="none" stroke="black" d="M228.23,-252.97C208.42,-240.58 187.14,-227.27 167.51,-214.98"/>
<polygon fill="black" stroke="black" points="169.24,-211.94 158.9,-209.6 165.53,-217.87 169.24,-211.94"/>
</g>
<!-- 4 -->
<g id="node5" class="node">
<title>4</title>
<polygon fill="none" stroke="black" points="403.5,-217 206.5,-217 206.5,-119 403.5,-119 403.5,-217"/>
<text text-anchor="middle" x="305" y="-201.8" font-family="Times,serif" font-size="14.00">node #4</text>
<text text-anchor="middle" x="305" y="-186.8" font-family="Times,serif" font-size="14.00">FVCPostPercent &lt;= 47.0</text>
<text text-anchor="middle" x="305" y="-171.8" font-family="Times,serif" font-size="14.00">gini = 0.193</text>
<text text-anchor="middle" x="305" y="-156.8" font-family="Times,serif" font-size="14.00">samples = 101</text>
<text text-anchor="middle" x="305" y="-141.8" font-family="Times,serif" font-size="14.00">value = [15.235, 125.8]</text>
<text text-anchor="middle" x="305" y="-126.8" font-family="Times,serif" font-size="14.00">class = Obstructive</text>
</g>
<!-- 2&#45;&gt;4 -->
<g id="edge4" class="edge">
<title>2&#45;&gt;4</title>
<path fill="none" stroke="black" d="M305,-252.97C305,-244.69 305,-236 305,-227.48"/>
<polygon fill="black" stroke="black" points="308.5,-227.21 305,-217.21 301.5,-227.21 308.5,-227.21"/>
</g>
<!-- 5 -->
<g id="node6" class="node">
<title>5</title>
<polygon fill="none" stroke="black" points="195,-83 19,-83 19,0 195,0 195,-83"/>
<text text-anchor="middle" x="107" y="-67.8" font-family="Times,serif" font-size="14.00">node #5</text>
<text text-anchor="middle" x="107" y="-52.8" font-family="Times,serif" font-size="14.00">gini = 0.446</text>
<text text-anchor="middle" x="107" y="-37.8" font-family="Times,serif" font-size="14.00">samples = 13</text>
<text text-anchor="middle" x="107" y="-22.8" font-family="Times,serif" font-size="14.00">value = [6.529, 12.95]</text>
<text text-anchor="middle" x="107" y="-7.8" font-family="Times,serif" font-size="14.00">class = Obstructive</text>
</g>
<!-- 4&#45;&gt;5 -->
<g id="edge5" class="edge">
<title>4&#45;&gt;5</title>
<path fill="none" stroke="black" d="M228.45,-118.87C212.56,-108.88 195.86,-98.38 180.11,-88.47"/>
<polygon fill="black" stroke="black" points="181.79,-85.39 171.46,-83.03 178.06,-91.32 181.79,-85.39"/>
</g>
<!-- 6 -->
<g id="node7" class="node">
<title>6</title>
<polygon fill="none" stroke="black" points="397.5,-83 212.5,-83 212.5,0 397.5,0 397.5,-83"/>
<text text-anchor="middle" x="305" y="-67.8" font-family="Times,serif" font-size="14.00">node #6</text>
<text text-anchor="middle" x="305" y="-52.8" font-family="Times,serif" font-size="14.00">gini = 0.133</text>
<text text-anchor="middle" x="305" y="-37.8" font-family="Times,serif" font-size="14.00">samples = 88</text>
<text text-anchor="middle" x="305" y="-22.8" font-family="Times,serif" font-size="14.00">value = [8.706, 112.85]</text>
<text text-anchor="middle" x="305" y="-7.8" font-family="Times,serif" font-size="14.00">class = Obstructive</text>
</g>
<!-- 4&#45;&gt;6 -->
<g id="edge6" class="edge">
<title>4&#45;&gt;6</title>
<path fill="none" stroke="black" d="M305,-118.87C305,-110.5 305,-101.77 305,-93.33"/>
<polygon fill="black" stroke="black" points="308.5,-93.23 305,-83.23 301.5,-93.23 308.5,-93.23"/>
</g>
<!-- 8 -->
<g id="node9" class="node">
<title>8</title>
<polygon fill="none" stroke="black" points="774,-217 586,-217 586,-119 774,-119 774,-217"/>
<text text-anchor="middle" x="680" y="-201.8" font-family="Times,serif" font-size="14.00">node #8</text>
<text text-anchor="middle" x="680" y="-186.8" font-family="Times,serif" font-size="14.00">FVCPreVal &lt;= 3.235</text>
<text text-anchor="middle" x="680" y="-171.8" font-family="Times,serif" font-size="14.00">gini = 0.217</text>
<text text-anchor="middle" x="680" y="-156.8" font-family="Times,serif" font-size="14.00">samples = 11</text>
<text text-anchor="middle" x="680" y="-141.8" font-family="Times,serif" font-size="14.00">value = [19.588, 2.775]</text>
<text text-anchor="middle" x="680" y="-126.8" font-family="Times,serif" font-size="14.00">class = Non&#45;obstructive</text>
</g>
<!-- 7&#45;&gt;8 -->
<g id="edge8" class="edge">
<title>7&#45;&gt;8</title>
<path fill="none" stroke="black" d="M747.43,-252.97C740.2,-243.96 732.58,-234.47 725.16,-225.24"/>
<polygon fill="black" stroke="black" points="727.71,-222.82 718.72,-217.21 722.25,-227.2 727.71,-222.82"/>
</g>
<!-- 11 -->
<g id="node12" class="node">
<title>11</title>
<polygon fill="none" stroke="black" points="992,-217 792,-217 792,-119 992,-119 992,-217"/>
<text text-anchor="middle" x="892" y="-201.8" font-family="Times,serif" font-size="14.00">node #11</text>
<text text-anchor="middle" x="892" y="-186.8" font-family="Times,serif" font-size="14.00">FEFPrePercent &lt;= 43.54</text>
<text text-anchor="middle" x="892" y="-171.8" font-family="Times,serif" font-size="14.00">gini = 0.377</text>
<text text-anchor="middle" x="892" y="-156.8" font-family="Times,serif" font-size="14.00">samples = 17</text>
<text text-anchor="middle" x="892" y="-141.8" font-family="Times,serif" font-size="14.00">value = [6.529, 19.425]</text>
<text text-anchor="middle" x="892" y="-126.8" font-family="Times,serif" font-size="14.00">class = Obstructive</text>
</g>
<!-- 7&#45;&gt;11 -->
<g id="edge11" class="edge">
<title>7&#45;&gt;11</title>
<path fill="none" stroke="black" d="M824.57,-252.97C831.8,-243.96 839.42,-234.47 846.84,-225.24"/>
<polygon fill="black" stroke="black" points="849.75,-227.2 853.28,-217.21 844.29,-222.82 849.75,-227.2"/>
</g>
<!-- 9 -->
<g id="node10" class="node">
<title>9</title>
<polygon fill="none" stroke="black" points="604,-83 416,-83 416,0 604,0 604,-83"/>
<text text-anchor="middle" x="510" y="-67.8" font-family="Times,serif" font-size="14.00">node #9</text>
<text text-anchor="middle" x="510" y="-52.8" font-family="Times,serif" font-size="14.00">gini = 0.0</text>
<text text-anchor="middle" x="510" y="-37.8" font-family="Times,serif" font-size="14.00">samples = 10</text>
<text text-anchor="middle" x="510" y="-22.8" font-family="Times,serif" font-size="14.00">value = [19.588, 0.0]</text>
<text text-anchor="middle" x="510" y="-7.8" font-family="Times,serif" font-size="14.00">class = Non&#45;obstructive</text>
</g>
<!-- 8&#45;&gt;9 -->
<g id="edge9" class="edge">
<title>8&#45;&gt;9</title>
<path fill="none" stroke="black" d="M614.27,-118.87C600.89,-109.06 586.83,-98.77 573.52,-89.02"/>
<polygon fill="black" stroke="black" points="575.48,-86.12 565.35,-83.03 571.35,-91.76 575.48,-86.12"/>
</g>
<!-- 10 -->
<g id="node11" class="node">
<title>10</title>
<polygon fill="none" stroke="black" points="780,-83 622,-83 622,0 780,0 780,-83"/>
<text text-anchor="middle" x="701" y="-67.8" font-family="Times,serif" font-size="14.00">node #10</text>
<text text-anchor="middle" x="701" y="-52.8" font-family="Times,serif" font-size="14.00">gini = &#45;0.0</text>
<text text-anchor="middle" x="701" y="-37.8" font-family="Times,serif" font-size="14.00">samples = 1</text>
<text text-anchor="middle" x="701" y="-22.8" font-family="Times,serif" font-size="14.00">value = [0.0, 2.775]</text>
<text text-anchor="middle" x="701" y="-7.8" font-family="Times,serif" font-size="14.00">class = Obstructive</text>
</g>
<!-- 8&#45;&gt;10 -->
<g id="edge10" class="edge">
<title>8&#45;&gt;10</title>
<path fill="none" stroke="black" d="M688.12,-118.87C689.53,-110.5 691,-101.77 692.43,-93.33"/>
<polygon fill="black" stroke="black" points="695.92,-93.67 694.13,-83.23 689.02,-92.51 695.92,-93.67"/>
</g>
<!-- 12 -->
<g id="node13" class="node">
<title>12</title>
<polygon fill="none" stroke="black" points="986,-83 798,-83 798,0 986,0 986,-83"/>
<text text-anchor="middle" x="892" y="-67.8" font-family="Times,serif" font-size="14.00">node #12</text>
<text text-anchor="middle" x="892" y="-52.8" font-family="Times,serif" font-size="14.00">gini = 0.248</text>
<text text-anchor="middle" x="892" y="-37.8" font-family="Times,serif" font-size="14.00">samples = 4</text>
<text text-anchor="middle" x="892" y="-22.8" font-family="Times,serif" font-size="14.00">value = [5.441, 0.925]</text>
<text text-anchor="middle" x="892" y="-7.8" font-family="Times,serif" font-size="14.00">class = Non&#45;obstructive</text>
</g>
<!-- 11&#45;&gt;12 -->
<g id="edge12" class="edge">
<title>11&#45;&gt;12</title>
<path fill="none" stroke="black" d="M892,-118.87C892,-110.5 892,-101.77 892,-93.33"/>
<polygon fill="black" stroke="black" points="895.5,-93.23 892,-83.23 888.5,-93.23 895.5,-93.23"/>
</g>
<!-- 13 -->
<g id="node14" class="node">
<title>13</title>
<polygon fill="none" stroke="black" points="1171.5,-83 1004.5,-83 1004.5,0 1171.5,0 1171.5,-83"/>
<text text-anchor="middle" x="1088" y="-67.8" font-family="Times,serif" font-size="14.00">node #13</text>
<text text-anchor="middle" x="1088" y="-52.8" font-family="Times,serif" font-size="14.00">gini = 0.105</text>
<text text-anchor="middle" x="1088" y="-37.8" font-family="Times,serif" font-size="14.00">samples = 13</text>
<text text-anchor="middle" x="1088" y="-22.8" font-family="Times,serif" font-size="14.00">value = [1.088, 18.5]</text>
<text text-anchor="middle" x="1088" y="-7.8" font-family="Times,serif" font-size="14.00">class = Obstructive</text>
</g>
<!-- 11&#45;&gt;13 -->
<g id="edge13" class="edge">
<title>11&#45;&gt;13</title>
<path fill="none" stroke="black" d="M967.78,-118.87C983.5,-108.88 1000.03,-98.38 1015.63,-88.47"/>
<polygon fill="black" stroke="black" points="1017.63,-91.35 1024.19,-83.03 1013.87,-85.44 1017.63,-91.35"/>
</g>
<!-- 15 -->
<g id="node16" class="node">
<title>15</title>
<polygon fill="none" stroke="black" points="1287.5,-351 1090.5,-351 1090.5,-253 1287.5,-253 1287.5,-351"/>
<text text-anchor="middle" x="1189" y="-335.8" font-family="Times,serif" font-size="14.00">node #15</text>
<text text-anchor="middle" x="1189" y="-320.8" font-family="Times,serif" font-size="14.00">FVCPostPercent &lt;= 96.0</text>
<text text-anchor="middle" x="1189" y="-305.8" font-family="Times,serif" font-size="14.00">gini = 0.02</text>
<text text-anchor="middle" x="1189" y="-290.8" font-family="Times,serif" font-size="14.00">samples = 50</text>
<text text-anchor="middle" x="1189" y="-275.8" font-family="Times,serif" font-size="14.00">value = [89.235, 0.925]</text>
<text text-anchor="middle" x="1189" y="-260.8" font-family="Times,serif" font-size="14.00">class = Non&#45;obstructive</text>
</g>
<!-- 14&#45;&gt;15 -->
<g id="edge15" class="edge">
<title>14&#45;&gt;15</title>
<path fill="none" stroke="black" d="M1189,-386.97C1189,-378.69 1189,-370 1189,-361.48"/>
<polygon fill="black" stroke="black" points="1192.5,-361.21 1189,-351.21 1185.5,-361.21 1192.5,-361.21"/>
</g>
<!-- 18 -->
<g id="node19" class="node">
<title>18</title>
<polygon fill="none" stroke="black" points="1586,-351 1392,-351 1392,-253 1586,-253 1586,-351"/>
<text text-anchor="middle" x="1489" y="-335.8" font-family="Times,serif" font-size="14.00">node #18</text>
<text text-anchor="middle" x="1489" y="-320.8" font-family="Times,serif" font-size="14.00">FEFPreVal &lt;= 2.985</text>
<text text-anchor="middle" x="1489" y="-305.8" font-family="Times,serif" font-size="14.00">gini = 0.45</text>
<text text-anchor="middle" x="1489" y="-290.8" font-family="Times,serif" font-size="14.00">samples = 32</text>
<text text-anchor="middle" x="1489" y="-275.8" font-family="Times,serif" font-size="14.00">value = [33.735, 17.575]</text>
<text text-anchor="middle" x="1489" y="-260.8" font-family="Times,serif" font-size="14.00">class = Non&#45;obstructive</text>
</g>
<!-- 14&#45;&gt;18 -->
<g id="edge18" class="edge">
<title>14&#45;&gt;18</title>
<path fill="none" stroke="black" d="M1283.1,-393.6C1314.61,-379.73 1349.97,-364.17 1382.37,-349.92"/>
<polygon fill="black" stroke="black" points="1384.13,-352.97 1391.87,-345.74 1381.31,-346.56 1384.13,-352.97"/>
</g>
<!-- 16 -->
<g id="node17" class="node">
<title>16</title>
<polygon fill="none" stroke="black" points="1198,-209.5 1010,-209.5 1010,-126.5 1198,-126.5 1198,-209.5"/>
<text text-anchor="middle" x="1104" y="-194.3" font-family="Times,serif" font-size="14.00">node #16</text>
<text text-anchor="middle" x="1104" y="-179.3" font-family="Times,serif" font-size="14.00">gini = 0.0</text>
<text text-anchor="middle" x="1104" y="-164.3" font-family="Times,serif" font-size="14.00">samples = 49</text>
<text text-anchor="middle" x="1104" y="-149.3" font-family="Times,serif" font-size="14.00">value = [89.235, 0.0]</text>
<text text-anchor="middle" x="1104" y="-134.3" font-family="Times,serif" font-size="14.00">class = Non&#45;obstructive</text>
</g>
<!-- 15&#45;&gt;16 -->
<g id="edge16" class="edge">
<title>15&#45;&gt;16</title>
<path fill="none" stroke="black" d="M1158.07,-252.97C1150.81,-241.69 1143.06,-229.66 1135.76,-218.32"/>
<polygon fill="black" stroke="black" points="1138.64,-216.33 1130.28,-209.82 1132.75,-220.12 1138.64,-216.33"/>
</g>
<!-- 17 -->
<g id="node18" class="node">
<title>17</title>
<polygon fill="none" stroke="black" points="1374,-209.5 1216,-209.5 1216,-126.5 1374,-126.5 1374,-209.5"/>
<text text-anchor="middle" x="1295" y="-194.3" font-family="Times,serif" font-size="14.00">node #17</text>
<text text-anchor="middle" x="1295" y="-179.3" font-family="Times,serif" font-size="14.00">gini = &#45;0.0</text>
<text text-anchor="middle" x="1295" y="-164.3" font-family="Times,serif" font-size="14.00">samples = 1</text>
<text text-anchor="middle" x="1295" y="-149.3" font-family="Times,serif" font-size="14.00">value = [0.0, 0.925]</text>
<text text-anchor="middle" x="1295" y="-134.3" font-family="Times,serif" font-size="14.00">class = Obstructive</text>
</g>
<!-- 15&#45;&gt;17 -->
<g id="edge17" class="edge">
<title>15&#45;&gt;17</title>
<path fill="none" stroke="black" d="M1227.57,-252.97C1236.8,-241.47 1246.67,-229.18 1255.93,-217.66"/>
<polygon fill="black" stroke="black" points="1258.69,-219.81 1262.22,-209.82 1253.23,-215.42 1258.69,-219.81"/>
</g>
<!-- 19 -->
<g id="node20" class="node">
<title>19</title>
<polygon fill="none" stroke="black" points="1586,-217 1392,-217 1392,-119 1586,-119 1586,-217"/>
<text text-anchor="middle" x="1489" y="-201.8" font-family="Times,serif" font-size="14.00">node #19</text>
<text text-anchor="middle" x="1489" y="-186.8" font-family="Times,serif" font-size="14.00">FVCPrePercent &lt;= 63.5</text>
<text text-anchor="middle" x="1489" y="-171.8" font-family="Times,serif" font-size="14.00">gini = 0.497</text>
<text text-anchor="middle" x="1489" y="-156.8" font-family="Times,serif" font-size="14.00">samples = 20</text>
<text text-anchor="middle" x="1489" y="-141.8" font-family="Times,serif" font-size="14.00">value = [15.235, 17.575]</text>
<text text-anchor="middle" x="1489" y="-126.8" font-family="Times,serif" font-size="14.00">class = Obstructive</text>
</g>
<!-- 18&#45;&gt;19 -->
<g id="edge19" class="edge">
<title>18&#45;&gt;19</title>
<path fill="none" stroke="black" d="M1489,-252.97C1489,-244.69 1489,-236 1489,-227.48"/>
<polygon fill="black" stroke="black" points="1492.5,-227.21 1489,-217.21 1485.5,-227.21 1492.5,-227.21"/>
</g>
<!-- 22 -->
<g id="node23" class="node">
<title>22</title>
<polygon fill="none" stroke="black" points="1792,-209.5 1604,-209.5 1604,-126.5 1792,-126.5 1792,-209.5"/>
<text text-anchor="middle" x="1698" y="-194.3" font-family="Times,serif" font-size="14.00">node #22</text>
<text text-anchor="middle" x="1698" y="-179.3" font-family="Times,serif" font-size="14.00">gini = &#45;0.0</text>
<text text-anchor="middle" x="1698" y="-164.3" font-family="Times,serif" font-size="14.00">samples = 12</text>
<text text-anchor="middle" x="1698" y="-149.3" font-family="Times,serif" font-size="14.00">value = [18.5, 0.0]</text>
<text text-anchor="middle" x="1698" y="-134.3" font-family="Times,serif" font-size="14.00">class = Non&#45;obstructive</text>
</g>
<!-- 18&#45;&gt;22 -->
<g id="edge22" class="edge">
<title>18&#45;&gt;22</title>
<path fill="none" stroke="black" d="M1565.05,-252.97C1584.67,-240.58 1605.74,-227.27 1625.19,-214.98"/>
<polygon fill="black" stroke="black" points="1627.13,-217.9 1633.71,-209.6 1623.39,-211.98 1627.13,-217.9"/>
</g>
<!-- 20 -->
<g id="node21" class="node">
<title>20</title>
<polygon fill="none" stroke="black" points="1480,-83 1292,-83 1292,0 1480,0 1480,-83"/>
<text text-anchor="middle" x="1386" y="-67.8" font-family="Times,serif" font-size="14.00">node #20</text>
<text text-anchor="middle" x="1386" y="-52.8" font-family="Times,serif" font-size="14.00">gini = 0.0</text>
<text text-anchor="middle" x="1386" y="-37.8" font-family="Times,serif" font-size="14.00">samples = 2</text>
<text text-anchor="middle" x="1386" y="-22.8" font-family="Times,serif" font-size="14.00">value = [5.441, 0.0]</text>
<text text-anchor="middle" x="1386" y="-7.8" font-family="Times,serif" font-size="14.00">class = Non&#45;obstructive</text>
</g>
<!-- 19&#45;&gt;20 -->
<g id="edge20" class="edge">
<title>19&#45;&gt;20</title>
<path fill="none" stroke="black" d="M1449.18,-118.87C1441.65,-109.76 1433.76,-100.23 1426.22,-91.12"/>
<polygon fill="black" stroke="black" points="1428.77,-88.7 1419.7,-83.23 1423.37,-93.17 1428.77,-88.7"/>
</g>
<!-- 21 -->
<g id="node22" class="node">
<title>21</title>
<polygon fill="none" stroke="black" points="1683.5,-83 1498.5,-83 1498.5,0 1683.5,0 1683.5,-83"/>
<text text-anchor="middle" x="1591" y="-67.8" font-family="Times,serif" font-size="14.00">node #21</text>
<text text-anchor="middle" x="1591" y="-52.8" font-family="Times,serif" font-size="14.00">gini = 0.46</text>
<text text-anchor="middle" x="1591" y="-37.8" font-family="Times,serif" font-size="14.00">samples = 18</text>
<text text-anchor="middle" x="1591" y="-22.8" font-family="Times,serif" font-size="14.00">value = [9.794, 17.575]</text>
<text text-anchor="middle" x="1591" y="-7.8" font-family="Times,serif" font-size="14.00">class = Obstructive</text>
</g>
<!-- 19&#45;&gt;21 -->
<g id="edge21" class="edge">
<title>19&#45;&gt;21</title>
<path fill="none" stroke="black" d="M1528.44,-118.87C1535.89,-109.76 1543.7,-100.23 1551.17,-91.12"/>
<polygon fill="black" stroke="black" points="1554,-93.18 1557.63,-83.23 1548.59,-88.75 1554,-93.18"/>
</g>
</g>
</svg>
