<?xml version="1.0" encoding="UTF-8" standalone="no"?>
<!DOCTYPE svg PUBLIC "-//W3C//DTD SVG 1.1//EN"
 "http://www.w3.org/Graphics/SVG/1.1/DTD/svg11.dtd">
<!-- Generated by graphviz version 2.43.0 (0)
 -->
<!-- Title: Tree Pages: 1 -->
<svg width="2810pt" height="627pt"
 viewBox="0.00 0.00 2810.00 627.00" xmlns="http://www.w3.org/2000/svg" xmlns:xlink="http://www.w3.org/1999/xlink">
<g id="graph0" class="graph" transform="scale(1 1) rotate(0) translate(4 623)">
<title>Tree</title>
<polygon fill="white" stroke="transparent" points="-4,4 -4,-623 2806,-623 2806,4 -4,4"/>
<!-- 0 -->
<g id="node1" class="node">
<title>0</title>
<polygon fill="none" stroke="black" points="1325.5,-619 1134.5,-619 1134.5,-521 1325.5,-521 1325.5,-619"/>
<text text-anchor="middle" x="1230" y="-603.8" font-family="Times,serif" font-size="14.00">node #0</text>
<text text-anchor="middle" x="1230" y="-588.8" font-family="Times,serif" font-size="14.00">FEFPrePercent &lt;= 66.0</text>
<text text-anchor="middle" x="1230" y="-573.8" font-family="Times,serif" font-size="14.00">gini = 0.5</text>
<text text-anchor="middle" x="1230" y="-558.8" font-family="Times,serif" font-size="14.00">samples = 204</text>
<text text-anchor="middle" x="1230" y="-543.8" font-family="Times,serif" font-size="14.00">value = [166.5, 166.5]</text>
<text text-anchor="middle" x="1230" y="-528.8" font-family="Times,serif" font-size="14.00">class = Obstructive</text>
</g>
<!-- 1 -->
<g id="node2" class="node">
<title>1</title>
<polygon fill="none" stroke="black" points="919.5,-485 716.5,-485 716.5,-387 919.5,-387 919.5,-485"/>
<text text-anchor="middle" x="818" y="-469.8" font-family="Times,serif" font-size="14.00">node #1</text>
<text text-anchor="middle" x="818" y="-454.8" font-family="Times,serif" font-size="14.00">FEFPrePercent &lt;= 34.0</text>
<text text-anchor="middle" x="818" y="-439.8" font-family="Times,serif" font-size="14.00">gini = 0.385</text>
<text text-anchor="middle" x="818" y="-424.8" font-family="Times,serif" font-size="14.00">samples = 130</text>
<text text-anchor="middle" x="818" y="-409.8" font-family="Times,serif" font-size="14.00">value = [54.472, 154.816]</text>
<text text-anchor="middle" x="818" y="-394.8" font-family="Times,serif" font-size="14.00">class = Obstructive</text>
</g>
<!-- 0&#45;&gt;1 -->
<g id="edge1" class="edge">
<title>0&#45;&gt;1</title>
<path fill="none" stroke="black" d="M1134.44,-538.38C1073.17,-518.75 993.38,-493.19 929.26,-472.65"/>
<polygon fill="black" stroke="black" points="930.1,-469.24 919.51,-469.52 927.97,-475.91 930.1,-469.24"/>
<text text-anchor="middle" x="930.95" y="-488.05" font-family="Times,serif" font-size="14.00">True</text>
</g>
<!-- 14 -->
<g id="node15" class="node">
<title>14</title>
<polygon fill="none" stroke="black" points="1745.5,-485 1542.5,-485 1542.5,-387 1745.5,-387 1745.5,-485"/>
<text text-anchor="middle" x="1644" y="-469.8" font-family="Times,serif" font-size="14.00">node #14</text>
<text text-anchor="middle" x="1644" y="-454.8" font-family="Times,serif" font-size="14.00">FVCPrePercent &lt;= 78.5</text>
<text text-anchor="middle" x="1644" y="-439.8" font-family="Times,serif" font-size="14.00">gini = 0.171</text>
<text text-anchor="middle" x="1644" y="-424.8" font-family="Times,serif" font-size="14.00">samples = 74</text>
<text text-anchor="middle" x="1644" y="-409.8" font-family="Times,serif" font-size="14.00">value = [112.028, 11.684]</text>
<text text-anchor="middle" x="1644" y="-394.8" font-family="Times,serif" font-size="14.00">class = Non&#45;obstructive</text>
</g>
<!-- 0&#45;&gt;14 -->
<g id="edge14" class="edge">
<title>0&#45;&gt;14</title>
<path fill="none" stroke="black" d="M1325.76,-538.47C1387.44,-518.8 1467.86,-493.16 1532.42,-472.58"/>
<polygon fill="black" stroke="black" points="1533.77,-475.82 1542.24,-469.45 1531.64,-469.15 1533.77,-475.82"/>
<text text-anchor="middle" x="1530.76" y="-487.96" font-family="Times,serif" font-size="14.00">False</text>
</g>
<!-- 2 -->
<g id="node3" class="node">
<title>2</title>
<polygon fill="none" stroke="black" points="400,-351 206,-351 206,-253 400,-253 400,-351"/>
<text text-anchor="middle" x="303" y="-335.8" font-family="Times,serif" font-size="14.00">node #2</text>
<text text-anchor="middle" x="303" y="-320.8" font-family="Times,serif" font-size="14.00">FVCPreVal &lt;= 1.075</text>
<text text-anchor="middle" x="303" y="-305.8" font-family="Times,serif" font-size="14.00">gini = 0.093</text>
<text text-anchor="middle" x="303" y="-290.8" font-family="Times,serif" font-size="14.00">samples = 65</text>
<text text-anchor="middle" x="303" y="-275.8" font-family="Times,serif" font-size="14.00">value = [5.139, 100.289]</text>
<text text-anchor="middle" x="303" y="-260.8" font-family="Times,serif" font-size="14.00">class = Obstructive</text>
</g>
<!-- 1&#45;&gt;2 -->
<g id="edge2" class="edge">
<title>1&#45;&gt;2</title>
<path fill="none" stroke="black" d="M716.25,-408.92C627.82,-386.25 500.12,-353.52 410.13,-330.46"/>
<polygon fill="black" stroke="black" points="410.73,-327 400.17,-327.91 408.99,-333.78 410.73,-327"/>
</g>
<!-- 7 -->
<g id="node8" class="node">
<title>7</title>
<polygon fill="none" stroke="black" points="916.5,-351 719.5,-351 719.5,-253 916.5,-253 916.5,-351"/>
<text text-anchor="middle" x="818" y="-335.8" font-family="Times,serif" font-size="14.00">node #7</text>
<text text-anchor="middle" x="818" y="-320.8" font-family="Times,serif" font-size="14.00">FVCPostPercent &lt;= 63.5</text>
<text text-anchor="middle" x="818" y="-305.8" font-family="Times,serif" font-size="14.00">gini = 0.499</text>
<text text-anchor="middle" x="818" y="-290.8" font-family="Times,serif" font-size="14.00">samples = 65</text>
<text text-anchor="middle" x="818" y="-275.8" font-family="Times,serif" font-size="14.00">value = [49.333, 54.526]</text>
<text text-anchor="middle" x="818" y="-260.8" font-family="Times,serif" font-size="14.00">class = Obstructive</text>
</g>
<!-- 1&#45;&gt;7 -->
<g id="edge7" class="edge">
<title>1&#45;&gt;7</title>
<path fill="none" stroke="black" d="M818,-386.97C818,-378.69 818,-370 818,-361.48"/>
<polygon fill="black" stroke="black" points="821.5,-361.21 818,-351.21 814.5,-361.21 821.5,-361.21"/>
</g>
<!-- 3 -->
<g id="node4" class="node">
<title>3</title>
<polygon fill="none" stroke="black" points="188,-209.5 0,-209.5 0,-126.5 188,-126.5 188,-209.5"/>
<text text-anchor="middle" x="94" y="-194.3" font-family="Times,serif" font-size="14.00">node #3</text>
<text text-anchor="middle" x="94" y="-179.3" font-family="Times,serif" font-size="14.00">gini = 0.0</text>
<text text-anchor="middle" x="94" y="-164.3" font-family="Times,serif" font-size="14.00">samples = 3</text>
<text text-anchor="middle" x="94" y="-149.3" font-family="Times,serif" font-size="14.00">value = [3.083, 0.0]</text>
<text text-anchor="middle" x="94" y="-134.3" font-family="Times,serif" font-size="14.00">class = Non&#45;obstructive</text>
</g>
<!-- 2&#45;&gt;3 -->
<g id="edge3" class="edge">
<title>2&#45;&gt;3</title>
<path fill="none" stroke="black" d="M226.95,-252.97C207.33,-240.58 186.26,-227.27 166.81,-214.98"/>
<polygon fill="black" stroke="black" points="168.61,-211.98 158.29,-209.6 164.87,-217.9 168.61,-211.98"/>
</g>
<!-- 4 -->
<g id="node5" class="node">
<title>4</title>
<polygon fill="none" stroke="black" points="400,-217 206,-217 206,-119 400,-119 400,-217"/>
<text text-anchor="middle" x="303" y="-201.8" font-family="Times,serif" font-size="14.00">node #4</text>
<text text-anchor="middle" x="303" y="-186.8" font-family="Times,serif" font-size="14.00">FEFPostVal &lt;= 0.825</text>
<text text-anchor="middle" x="303" y="-171.8" font-family="Times,serif" font-size="14.00">gini = 0.039</text>
<text text-anchor="middle" x="303" y="-156.8" font-family="Times,serif" font-size="14.00">samples = 62</text>
<text text-anchor="middle" x="303" y="-141.8" font-family="Times,serif" font-size="14.00">value = [2.056, 100.289]</text>
<text text-anchor="middle" x="303" y="-126.8" font-family="Times,serif" font-size="14.00">class = Obstructive</text>
</g>
<!-- 2&#45;&gt;4 -->
<g id="edge4" class="edge">
<title>2&#45;&gt;4</title>
<path fill="none" stroke="black" d="M303,-252.97C303,-244.69 303,-236 303,-227.48"/>
<polygon fill="black" stroke="black" points="306.5,-227.21 303,-217.21 299.5,-227.21 306.5,-227.21"/>
</g>
<!-- 5 -->
<g id="node6" class="node">
<title>5</title>
<polygon fill="none" stroke="black" points="192.5,-83 25.5,-83 25.5,0 192.5,0 192.5,-83"/>
<text text-anchor="middle" x="109" y="-67.8" font-family="Times,serif" font-size="14.00">node #5</text>
<text text-anchor="middle" x="109" y="-52.8" font-family="Times,serif" font-size="14.00">gini = 0.0</text>
<text text-anchor="middle" x="109" y="-37.8" font-family="Times,serif" font-size="14.00">samples = 42</text>
<text text-anchor="middle" x="109" y="-22.8" font-family="Times,serif" font-size="14.00">value = [0.0, 67.184]</text>
<text text-anchor="middle" x="109" y="-7.8" font-family="Times,serif" font-size="14.00">class = Obstructive</text>
</g>
<!-- 4&#45;&gt;5 -->
<g id="edge5" class="edge">
<title>4&#45;&gt;5</title>
<path fill="none" stroke="black" d="M227.99,-118.87C212.43,-108.88 196.07,-98.38 180.63,-88.47"/>
<polygon fill="black" stroke="black" points="182.47,-85.49 172.16,-83.03 178.68,-91.38 182.47,-85.49"/>
</g>
<!-- 6 -->
<g id="node7" class="node">
<title>6</title>
<polygon fill="none" stroke="black" points="395.5,-83 210.5,-83 210.5,0 395.5,0 395.5,-83"/>
<text text-anchor="middle" x="303" y="-67.8" font-family="Times,serif" font-size="14.00">node #6</text>
<text text-anchor="middle" x="303" y="-52.8" font-family="Times,serif" font-size="14.00">gini = 0.11</text>
<text text-anchor="middle" x="303" y="-37.8" font-family="Times,serif" font-size="14.00">samples = 20</text>
<text text-anchor="middle" x="303" y="-22.8" font-family="Times,serif" font-size="14.00">value = [2.056, 33.105]</text>
<text text-anchor="middle" x="303" y="-7.8" font-family="Times,serif" font-size="14.00">class = Obstructive</text>
</g>
<!-- 4&#45;&gt;6 -->
<g id="edge6" class="edge">
<title>4&#45;&gt;6</title>
<path fill="none" stroke="black" d="M303,-118.87C303,-110.5 303,-101.77 303,-93.33"/>
<polygon fill="black" stroke="black" points="306.5,-93.23 303,-83.23 299.5,-93.23 306.5,-93.23"/>
</g>
<!-- 8 -->
<g id="node9" class="node">
<title>8</title>
<polygon fill="none" stroke="black" points="808,-217 620,-217 620,-119 808,-119 808,-217"/>
<text text-anchor="middle" x="714" y="-201.8" font-family="Times,serif" font-size="14.00">node #8</text>
<text text-anchor="middle" x="714" y="-186.8" font-family="Times,serif" font-size="14.00">FEV1PreVal &lt;= 0.88</text>
<text text-anchor="middle" x="714" y="-171.8" font-family="Times,serif" font-size="14.00">gini = 0.241</text>
<text text-anchor="middle" x="714" y="-156.8" font-family="Times,serif" font-size="14.00">samples = 25</text>
<text text-anchor="middle" x="714" y="-141.8" font-family="Times,serif" font-size="14.00">value = [29.806, 4.868]</text>
<text text-anchor="middle" x="714" y="-126.8" font-family="Times,serif" font-size="14.00">class = Non&#45;obstructive</text>
</g>
<!-- 7&#45;&gt;8 -->
<g id="edge8" class="edge">
<title>7&#45;&gt;8</title>
<path fill="none" stroke="black" d="M780.16,-252.97C773.06,-243.96 765.58,-234.47 758.31,-225.24"/>
<polygon fill="black" stroke="black" points="760.92,-222.9 751.99,-217.21 755.43,-227.23 760.92,-222.9"/>
</g>
<!-- 11 -->
<g id="node12" class="node">
<title>11</title>
<polygon fill="none" stroke="black" points="1020,-217 826,-217 826,-119 1020,-119 1020,-217"/>
<text text-anchor="middle" x="923" y="-201.8" font-family="Times,serif" font-size="14.00">node #11</text>
<text text-anchor="middle" x="923" y="-186.8" font-family="Times,serif" font-size="14.00">FEFPreVal &lt;= 2.875</text>
<text text-anchor="middle" x="923" y="-171.8" font-family="Times,serif" font-size="14.00">gini = 0.405</text>
<text text-anchor="middle" x="923" y="-156.8" font-family="Times,serif" font-size="14.00">samples = 40</text>
<text text-anchor="middle" x="923" y="-141.8" font-family="Times,serif" font-size="14.00">value = [19.528, 49.658]</text>
<text text-anchor="middle" x="923" y="-126.8" font-family="Times,serif" font-size="14.00">class = Obstructive</text>
</g>
<!-- 7&#45;&gt;11 -->
<g id="edge11" class="edge">
<title>7&#45;&gt;11</title>
<path fill="none" stroke="black" d="M856.2,-252.97C863.37,-243.96 870.92,-234.47 878.26,-225.24"/>
<polygon fill="black" stroke="black" points="881.16,-227.22 884.65,-217.21 875.68,-222.86 881.16,-227.22"/>
</g>
<!-- 9 -->
<g id="node10" class="node">
<title>9</title>
<polygon fill="none" stroke="black" points="602,-83 414,-83 414,0 602,0 602,-83"/>
<text text-anchor="middle" x="508" y="-67.8" font-family="Times,serif" font-size="14.00">node #9</text>
<text text-anchor="middle" x="508" y="-52.8" font-family="Times,serif" font-size="14.00">gini = 0.411</text>
<text text-anchor="middle" x="508" y="-37.8" font-family="Times,serif" font-size="14.00">samples = 7</text>
<text text-anchor="middle" x="508" y="-22.8" font-family="Times,serif" font-size="14.00">value = [7.194, 2.921]</text>
<text text-anchor="middle" x="508" y="-7.8" font-family="Times,serif" font-size="14.00">class = Non&#45;obstructive</text>
</g>
<!-- 8&#45;&gt;9 -->
<g id="edge9" class="edge">
<title>8&#45;&gt;9</title>
<path fill="none" stroke="black" d="M634.36,-118.87C617.83,-108.88 600.46,-98.38 584.06,-88.47"/>
<polygon fill="black" stroke="black" points="585.43,-85.21 575.07,-83.03 581.81,-91.2 585.43,-85.21"/>
</g>
<!-- 10 -->
<g id="node11" class="node">
<title>10</title>
<polygon fill="none" stroke="black" points="808,-83 620,-83 620,0 808,0 808,-83"/>
<text text-anchor="middle" x="714" y="-67.8" font-family="Times,serif" font-size="14.00">node #10</text>
<text text-anchor="middle" x="714" y="-52.8" font-family="Times,serif" font-size="14.00">gini = 0.146</text>
<text text-anchor="middle" x="714" y="-37.8" font-family="Times,serif" font-size="14.00">samples = 18</text>
<text text-anchor="middle" x="714" y="-22.8" font-family="Times,serif" font-size="14.00">value = [22.611, 1.947]</text>
<text text-anchor="middle" x="714" y="-7.8" font-family="Times,serif" font-size="14.00">class = Non&#45;obstructive</text>
</g>
<!-- 8&#45;&gt;10 -->
<g id="edge10" class="edge">
<title>8&#45;&gt;10</title>
<path fill="none" stroke="black" d="M714,-118.87C714,-110.5 714,-101.77 714,-93.33"/>
<polygon fill="black" stroke="black" points="717.5,-93.23 714,-83.23 710.5,-93.23 717.5,-93.23"/>
</g>
<!-- 12 -->
<g id="node13" class="node">
<title>12</title>
<polygon fill="none" stroke="black" points="1020,-83 826,-83 826,0 1020,0 1020,-83"/>
<text text-anchor="middle" x="923" y="-67.8" font-family="Times,serif" font-size="14.00">node #12</text>
<text text-anchor="middle" x="923" y="-52.8" font-family="Times,serif" font-size="14.00">gini = 0.362</text>
<text text-anchor="middle" x="923" y="-37.8" font-family="Times,serif" font-size="14.00">samples = 39</text>
<text text-anchor="middle" x="923" y="-22.8" font-family="Times,serif" font-size="14.00">value = [15.417, 49.658]</text>
<text text-anchor="middle" x="923" y="-7.8" font-family="Times,serif" font-size="14.00">class = Obstructive</text>
</g>
<!-- 11&#45;&gt;12 -->
<g id="edge12" class="edge">
<title>11&#45;&gt;12</title>
<path fill="none" stroke="black" d="M923,-118.87C923,-110.5 923,-101.77 923,-93.33"/>
<polygon fill="black" stroke="black" points="926.5,-93.23 923,-83.23 919.5,-93.23 926.5,-93.23"/>
</g>
<!-- 13 -->
<g id="node14" class="node">
<title>13</title>
<polygon fill="none" stroke="black" points="1226,-83 1038,-83 1038,0 1226,0 1226,-83"/>
<text text-anchor="middle" x="1132" y="-67.8" font-family="Times,serif" font-size="14.00">node #13</text>
<text text-anchor="middle" x="1132" y="-52.8" font-family="Times,serif" font-size="14.00">gini = 0.0</text>
<text text-anchor="middle" x="1132" y="-37.8" font-family="Times,serif" font-size="14.00">samples = 1</text>
<text text-anchor="middle" x="1132" y="-22.8" font-family="Times,serif" font-size="14.00">value = [4.111, 0.0]</text>
<text text-anchor="middle" x="1132" y="-7.8" font-family="Times,serif" font-size="14.00">class = Non&#45;obstructive</text>
</g>
<!-- 11&#45;&gt;13 -->
<g id="edge13" class="edge">
<title>11&#45;&gt;13</title>
<path fill="none" stroke="black" d="M1003.8,-118.87C1020.73,-108.78 1038.52,-98.18 1055.29,-88.19"/>
<polygon fill="black" stroke="black" points="1057.16,-91.16 1063.96,-83.03 1053.58,-85.14 1057.16,-91.16"/>
</g>
<!-- 15 -->
<g id="node16" class="node">
<title>15</title>
<polygon fill="none" stroke="black" points="1741,-351 1547,-351 1547,-253 1741,-253 1741,-351"/>
<text text-anchor="middle" x="1644" y="-335.8" font-family="Times,serif" font-size="14.00">node #15</text>
<text text-anchor="middle" x="1644" y="-320.8" font-family="Times,serif" font-size="14.00">FEV1PreVal &lt;= 1.985</text>
<text text-anchor="middle" x="1644" y="-305.8" font-family="Times,serif" font-size="14.00">gini = 0.07</text>
<text text-anchor="middle" x="1644" y="-290.8" font-family="Times,serif" font-size="14.00">samples = 62</text>
<text text-anchor="middle" x="1644" y="-275.8" font-family="Times,serif" font-size="14.00">value = [102.778, 3.895]</text>
<text text-anchor="middle" x="1644" y="-260.8" font-family="Times,serif" font-size="14.00">class = Non&#45;obstructive</text>
</g>
<!-- 14&#45;&gt;15 -->
<g id="edge15" class="edge">
<title>14&#45;&gt;15</title>
<path fill="none" stroke="black" d="M1644,-386.97C1644,-378.69 1644,-370 1644,-361.48"/>
<polygon fill="black" stroke="black" points="1647.5,-361.21 1644,-351.21 1640.5,-361.21 1647.5,-361.21"/>
</g>
<!-- 22 -->
<g id="node23" class="node">
<title>22</title>
<polygon fill="none" stroke="black" points="2321,-351 2133,-351 2133,-253 2321,-253 2321,-351"/>
<text text-anchor="middle" x="2227" y="-335.8" font-family="Times,serif" font-size="14.00">node #22</text>
<text text-anchor="middle" x="2227" y="-320.8" font-family="Times,serif" font-size="14.00">FEFPostVal &lt;= 3.395</text>
<text text-anchor="middle" x="2227" y="-305.8" font-family="Times,serif" font-size="14.00">gini = 0.496</text>
<text text-anchor="middle" x="2227" y="-290.8" font-family="Times,serif" font-size="14.00">samples = 12</text>
<text text-anchor="middle" x="2227" y="-275.8" font-family="Times,serif" font-size="14.00">value = [9.25, 7.789]</text>
<text text-anchor="middle" x="2227" y="-260.8" font-family="Times,serif" font-size="14.00">class = Non&#45;obstructive</text>
</g>
<!-- 14&#45;&gt;22 -->
<g id="edge22" class="edge">
<title>14&#45;&gt;22</title>
<path fill="none" stroke="black" d="M1745.55,-412.01C1851.37,-388.05 2016.35,-350.69 2123.06,-326.53"/>
<polygon fill="black" stroke="black" points="2123.9,-329.93 2132.88,-324.31 2122.35,-323.11 2123.9,-329.93"/>
</g>
<!-- 16 -->
<g id="node17" class="node">
<title>16</title>
<polygon fill="none" stroke="black" points="1635,-217 1447,-217 1447,-119 1635,-119 1635,-217"/>
<text text-anchor="middle" x="1541" y="-201.8" font-family="Times,serif" font-size="14.00">node #16</text>
<text text-anchor="middle" x="1541" y="-186.8" font-family="Times,serif" font-size="14.00">FEFPostVal &lt;= 1.765</text>
<text text-anchor="middle" x="1541" y="-171.8" font-family="Times,serif" font-size="14.00">gini = 0.022</text>
<text text-anchor="middle" x="1541" y="-156.8" font-family="Times,serif" font-size="14.00">samples = 51</text>
<text text-anchor="middle" x="1541" y="-141.8" font-family="Times,serif" font-size="14.00">value = [86.333, 0.974]</text>
<text text-anchor="middle" x="1541" y="-126.8" font-family="Times,serif" font-size="14.00">class = Non&#45;obstructive</text>
</g>
<!-- 15&#45;&gt;16 -->
<g id="edge16" class="edge">
<title>15&#45;&gt;16</title>
<path fill="none" stroke="black" d="M1606.52,-252.97C1599.49,-243.96 1592.09,-234.47 1584.88,-225.24"/>
<polygon fill="black" stroke="black" points="1587.53,-222.94 1578.62,-217.21 1582.01,-227.25 1587.53,-222.94"/>
</g>
<!-- 19 -->
<g id="node20" class="node">
<title>19</title>
<polygon fill="none" stroke="black" points="1841,-217 1653,-217 1653,-119 1841,-119 1841,-217"/>
<text text-anchor="middle" x="1747" y="-201.8" font-family="Times,serif" font-size="14.00">node #19</text>
<text text-anchor="middle" x="1747" y="-186.8" font-family="Times,serif" font-size="14.00">FEV1PostVal &lt;= 2.295</text>
<text text-anchor="middle" x="1747" y="-171.8" font-family="Times,serif" font-size="14.00">gini = 0.256</text>
<text text-anchor="middle" x="1747" y="-156.8" font-family="Times,serif" font-size="14.00">samples = 11</text>
<text text-anchor="middle" x="1747" y="-141.8" font-family="Times,serif" font-size="14.00">value = [16.444, 2.921]</text>
<text text-anchor="middle" x="1747" y="-126.8" font-family="Times,serif" font-size="14.00">class = Non&#45;obstructive</text>
</g>
<!-- 15&#45;&gt;19 -->
<g id="edge19" class="edge">
<title>15&#45;&gt;19</title>
<path fill="none" stroke="black" d="M1681.48,-252.97C1688.51,-243.96 1695.91,-234.47 1703.12,-225.24"/>
<polygon fill="black" stroke="black" points="1705.99,-227.25 1709.38,-217.21 1700.47,-222.94 1705.99,-227.25"/>
</g>
<!-- 17 -->
<g id="node18" class="node">
<title>17</title>
<polygon fill="none" stroke="black" points="1432,-83 1244,-83 1244,0 1432,0 1432,-83"/>
<text text-anchor="middle" x="1338" y="-67.8" font-family="Times,serif" font-size="14.00">node #17</text>
<text text-anchor="middle" x="1338" y="-52.8" font-family="Times,serif" font-size="14.00">gini = 0.189</text>
<text text-anchor="middle" x="1338" y="-37.8" font-family="Times,serif" font-size="14.00">samples = 7</text>
<text text-anchor="middle" x="1338" y="-22.8" font-family="Times,serif" font-size="14.00">value = [8.222, 0.974]</text>
<text text-anchor="middle" x="1338" y="-7.8" font-family="Times,serif" font-size="14.00">class = Non&#45;obstructive</text>
</g>
<!-- 16&#45;&gt;17 -->
<g id="edge17" class="edge">
<title>16&#45;&gt;17</title>
<path fill="none" stroke="black" d="M1462.51,-118.87C1446.23,-108.88 1429.11,-98.38 1412.95,-88.47"/>
<polygon fill="black" stroke="black" points="1414.44,-85.28 1404.09,-83.03 1410.78,-91.24 1414.44,-85.28"/>
</g>
<!-- 18 -->
<g id="node19" class="node">
<title>18</title>
<polygon fill="none" stroke="black" points="1638,-83 1450,-83 1450,0 1638,0 1638,-83"/>
<text text-anchor="middle" x="1544" y="-67.8" font-family="Times,serif" font-size="14.00">node #18</text>
<text text-anchor="middle" x="1544" y="-52.8" font-family="Times,serif" font-size="14.00">gini = 0.0</text>
<text text-anchor="middle" x="1544" y="-37.8" font-family="Times,serif" font-size="14.00">samples = 44</text>
<text text-anchor="middle" x="1544" y="-22.8" font-family="Times,serif" font-size="14.00">value = [78.111, 0.0]</text>
<text text-anchor="middle" x="1544" y="-7.8" font-family="Times,serif" font-size="14.00">class = Non&#45;obstructive</text>
</g>
<!-- 16&#45;&gt;18 -->
<g id="edge18" class="edge">
<title>16&#45;&gt;18</title>
<path fill="none" stroke="black" d="M1542.16,-118.87C1542.36,-110.5 1542.57,-101.77 1542.78,-93.33"/>
<polygon fill="black" stroke="black" points="1546.28,-93.31 1543.02,-83.23 1539.28,-93.14 1546.28,-93.31"/>
</g>
<!-- 20 -->
<g id="node21" class="node">
<title>20</title>
<polygon fill="none" stroke="black" points="1832,-83 1656,-83 1656,0 1832,0 1832,-83"/>
<text text-anchor="middle" x="1744" y="-67.8" font-family="Times,serif" font-size="14.00">node #20</text>
<text text-anchor="middle" x="1744" y="-52.8" font-family="Times,serif" font-size="14.00">gini = 0.385</text>
<text text-anchor="middle" x="1744" y="-37.8" font-family="Times,serif" font-size="14.00">samples = 3</text>
<text text-anchor="middle" x="1744" y="-22.8" font-family="Times,serif" font-size="14.00">value = [1.028, 2.921]</text>
<text text-anchor="middle" x="1744" y="-7.8" font-family="Times,serif" font-size="14.00">class = Obstructive</text>
</g>
<!-- 19&#45;&gt;20 -->
<g id="edge20" class="edge">
<title>19&#45;&gt;20</title>
<path fill="none" stroke="black" d="M1745.84,-118.87C1745.64,-110.5 1745.43,-101.77 1745.22,-93.33"/>
<polygon fill="black" stroke="black" points="1748.72,-93.14 1744.98,-83.23 1741.72,-93.31 1748.72,-93.14"/>
</g>
<!-- 21 -->
<g id="node22" class="node">
<title>21</title>
<polygon fill="none" stroke="black" points="2038,-83 1850,-83 1850,0 2038,0 2038,-83"/>
<text text-anchor="middle" x="1944" y="-67.8" font-family="Times,serif" font-size="14.00">node #21</text>
<text text-anchor="middle" x="1944" y="-52.8" font-family="Times,serif" font-size="14.00">gini = 0.0</text>
<text text-anchor="middle" x="1944" y="-37.8" font-family="Times,serif" font-size="14.00">samples = 8</text>
<text text-anchor="middle" x="1944" y="-22.8" font-family="Times,serif" font-size="14.00">value = [15.417, 0.0]</text>
<text text-anchor="middle" x="1944" y="-7.8" font-family="Times,serif" font-size="14.00">class = Non&#45;obstructive</text>
</g>
<!-- 19&#45;&gt;21 -->
<g id="edge21" class="edge">
<title>19&#45;&gt;21</title>
<path fill="none" stroke="black" d="M1823.17,-118.87C1838.97,-108.88 1855.58,-98.38 1871.26,-88.47"/>
<polygon fill="black" stroke="black" points="1873.28,-91.33 1879.86,-83.03 1869.54,-85.42 1873.28,-91.33"/>
</g>
<!-- 23 -->
<g id="node24" class="node">
<title>23</title>
<polygon fill="none" stroke="black" points="2321,-217 2133,-217 2133,-119 2321,-119 2321,-217"/>
<text text-anchor="middle" x="2227" y="-201.8" font-family="Times,serif" font-size="14.00">node #23</text>
<text text-anchor="middle" x="2227" y="-186.8" font-family="Times,serif" font-size="14.00">FEV1PostVal &lt;= 2.825</text>
<text text-anchor="middle" x="2227" y="-171.8" font-family="Times,serif" font-size="14.00">gini = 0.335</text>
<text text-anchor="middle" x="2227" y="-156.8" font-family="Times,serif" font-size="14.00">samples = 8</text>
<text text-anchor="middle" x="2227" y="-141.8" font-family="Times,serif" font-size="14.00">value = [7.194, 1.947]</text>
<text text-anchor="middle" x="2227" y="-126.8" font-family="Times,serif" font-size="14.00">class = Non&#45;obstructive</text>
</g>
<!-- 22&#45;&gt;23 -->
<g id="edge23" class="edge">
<title>22&#45;&gt;23</title>
<path fill="none" stroke="black" d="M2227,-252.97C2227,-244.69 2227,-236 2227,-227.48"/>
<polygon fill="black" stroke="black" points="2230.5,-227.21 2227,-217.21 2223.5,-227.21 2230.5,-227.21"/>
</g>
<!-- 26 -->
<g id="node27" class="node">
<title>26</title>
<polygon fill="none" stroke="black" points="2617,-217 2417,-217 2417,-119 2617,-119 2617,-217"/>
<text text-anchor="middle" x="2517" y="-201.8" font-family="Times,serif" font-size="14.00">node #26</text>
<text text-anchor="middle" x="2517" y="-186.8" font-family="Times,serif" font-size="14.00">FVCPrePercent &lt;= 100.0</text>
<text text-anchor="middle" x="2517" y="-171.8" font-family="Times,serif" font-size="14.00">gini = 0.385</text>
<text text-anchor="middle" x="2517" y="-156.8" font-family="Times,serif" font-size="14.00">samples = 4</text>
<text text-anchor="middle" x="2517" y="-141.8" font-family="Times,serif" font-size="14.00">value = [2.056, 5.842]</text>
<text text-anchor="middle" x="2517" y="-126.8" font-family="Times,serif" font-size="14.00">class = Obstructive</text>
</g>
<!-- 22&#45;&gt;26 -->
<g id="edge26" class="edge">
<title>22&#45;&gt;26</title>
<path fill="none" stroke="black" d="M2321.15,-258.14C2348.76,-245.58 2379.19,-231.73 2407.66,-218.77"/>
<polygon fill="black" stroke="black" points="2409.17,-221.92 2416.83,-214.6 2406.27,-215.55 2409.17,-221.92"/>
</g>
<!-- 24 -->
<g id="node25" class="node">
<title>24</title>
<polygon fill="none" stroke="black" points="2244,-83 2056,-83 2056,0 2244,0 2244,-83"/>
<text text-anchor="middle" x="2150" y="-67.8" font-family="Times,serif" font-size="14.00">node #24</text>
<text text-anchor="middle" x="2150" y="-52.8" font-family="Times,serif" font-size="14.00">gini = 0.21</text>
<text text-anchor="middle" x="2150" y="-37.8" font-family="Times,serif" font-size="14.00">samples = 7</text>
<text text-anchor="middle" x="2150" y="-22.8" font-family="Times,serif" font-size="14.00">value = [7.194, 0.974]</text>
<text text-anchor="middle" x="2150" y="-7.8" font-family="Times,serif" font-size="14.00">class = Non&#45;obstructive</text>
</g>
<!-- 23&#45;&gt;24 -->
<g id="edge24" class="edge">
<title>23&#45;&gt;24</title>
<path fill="none" stroke="black" d="M2197.23,-118.87C2191.77,-110.04 2186.06,-100.81 2180.58,-91.95"/>
<polygon fill="black" stroke="black" points="2183.43,-89.89 2175.19,-83.23 2177.47,-93.58 2183.43,-89.89"/>
</g>
<!-- 25 -->
<g id="node26" class="node">
<title>25</title>
<polygon fill="none" stroke="black" points="2420,-83 2262,-83 2262,0 2420,0 2420,-83"/>
<text text-anchor="middle" x="2341" y="-67.8" font-family="Times,serif" font-size="14.00">node #25</text>
<text text-anchor="middle" x="2341" y="-52.8" font-family="Times,serif" font-size="14.00">gini = &#45;0.0</text>
<text text-anchor="middle" x="2341" y="-37.8" font-family="Times,serif" font-size="14.00">samples = 1</text>
<text text-anchor="middle" x="2341" y="-22.8" font-family="Times,serif" font-size="14.00">value = [0.0, 0.974]</text>
<text text-anchor="middle" x="2341" y="-7.8" font-family="Times,serif" font-size="14.00">class = Obstructive</text>
</g>
<!-- 23&#45;&gt;25 -->
<g id="edge25" class="edge">
<title>23&#45;&gt;25</title>
<path fill="none" stroke="black" d="M2271.08,-118.87C2279.49,-109.67 2288.31,-100.04 2296.74,-90.84"/>
<polygon fill="black" stroke="black" points="2299.53,-92.97 2303.7,-83.23 2294.37,-88.24 2299.53,-92.97"/>
</g>
<!-- 27 -->
<g id="node28" class="node">
<title>27</title>
<polygon fill="none" stroke="black" points="2596,-83 2438,-83 2438,0 2596,0 2596,-83"/>
<text text-anchor="middle" x="2517" y="-67.8" font-family="Times,serif" font-size="14.00">node #27</text>
<text text-anchor="middle" x="2517" y="-52.8" font-family="Times,serif" font-size="14.00">gini = 0.0</text>
<text text-anchor="middle" x="2517" y="-37.8" font-family="Times,serif" font-size="14.00">samples = 3</text>
<text text-anchor="middle" x="2517" y="-22.8" font-family="Times,serif" font-size="14.00">value = [0.0, 5.842]</text>
<text text-anchor="middle" x="2517" y="-7.8" font-family="Times,serif" font-size="14.00">class = Obstructive</text>
</g>
<!-- 26&#45;&gt;27 -->
<g id="edge27" class="edge">
<title>26&#45;&gt;27</title>
<path fill="none" stroke="black" d="M2517,-118.87C2517,-110.5 2517,-101.77 2517,-93.33"/>
<polygon fill="black" stroke="black" points="2520.5,-93.23 2517,-83.23 2513.5,-93.23 2520.5,-93.23"/>
</g>
<!-- 28 -->
<g id="node29" class="node">
<title>28</title>
<polygon fill="none" stroke="black" points="2802,-83 2614,-83 2614,0 2802,0 2802,-83"/>
<text text-anchor="middle" x="2708" y="-67.8" font-family="Times,serif" font-size="14.00">node #28</text>
<text text-anchor="middle" x="2708" y="-52.8" font-family="Times,serif" font-size="14.00">gini = 0.0</text>
<text text-anchor="middle" x="2708" y="-37.8" font-family="Times,serif" font-size="14.00">samples = 1</text>
<text text-anchor="middle" x="2708" y="-22.8" font-family="Times,serif" font-size="14.00">value = [2.056, 0.0]</text>
<text text-anchor="middle" x="2708" y="-7.8" font-family="Times,serif" font-size="14.00">class = Non&#45;obstructive</text>
</g>
<!-- 26&#45;&gt;28 -->
<g id="edge28" class="edge">
<title>26&#45;&gt;28</title>
<path fill="none" stroke="black" d="M2590.85,-118.87C2606.03,-108.97 2621.98,-98.57 2637.05,-88.74"/>
<polygon fill="black" stroke="black" points="2639.35,-91.43 2645.82,-83.03 2635.53,-85.56 2639.35,-91.43"/>
</g>
</g>
</svg>
